<?xml version="1.0" encoding="UTF-8" standalone="no"?>
<!DOCTYPE svg PUBLIC "-//W3C//DTD SVG 1.1//EN"
 "http://www.w3.org/Graphics/SVG/1.1/DTD/svg11.dtd">
<!-- Generated by graphviz version 2.40.1 (20161225.0304)
 -->
<!-- Title: twoDegreesRelationshipsDiagram Pages: 1 -->
<svg width="549pt" height="1285pt"
 viewBox="0.00 0.00 549.00 1284.70" xmlns="http://www.w3.org/2000/svg" xmlns:xlink="http://www.w3.org/1999/xlink">
<g id="graph0" class="graph" transform="scale(1 1) rotate(0) translate(4 1280.7)">
<title>twoDegreesRelationshipsDiagram</title>
<polygon fill="#ffffff" stroke="transparent" points="-4,4 -4,-1280.7 545,-1280.7 545,4 -4,4"/>
<text text-anchor="middle" x="72.4936" y="-7.3" font-family="Helvetica,sans-Serif" font-size="11.00" fill="#000000">Generated by SchemaSpy</text>
<!-- attendee_audit -->
<g id="node1" class="node">
<title>attendee_audit</title>
<g id="a_node1"><a xlink:href="../../tables/attendee_audit.html" xlink:title="attendee_audit" target="_top">
<polygon fill="#ffffff" stroke="transparent" points="244.5,-940.7 244.5,-1272.7 511.5,-1272.7 511.5,-940.7 244.5,-940.7"/>
<polygon fill="#f5f5f5" stroke="transparent" points="247,-1247.7 247,-1270.7 510,-1270.7 510,-1247.7 247,-1247.7"/>
<polygon fill="none" stroke="#000000" points="247,-1247.7 247,-1270.7 510,-1270.7 510,-1247.7 247,-1247.7"/>
<text text-anchor="start" x="252" y="-1256.3" font-family="Helvetica,sans-Serif" font-weight="bold" font-size="11.00" fill="#000000">attendee_audit</text>
<text text-anchor="start" x="475.0437" y="-1255.8" font-family="Helvetica,sans-Serif" font-size="11.00" fill="#000000">[table]</text>
<polygon fill="none" stroke="#000000" points="247,-1225.7 247,-1247.7 416,-1247.7 416,-1225.7 247,-1225.7"/>
<image xlink:href="../../images/primaryKeys.png" width="11px" height="12px" preserveAspectRatio="xMinYMin meet" x="252" y="-1242.7"/>
<text text-anchor="start" x="267" y="-1232.8" font-family="Helvetica,sans-Serif" font-size="11.00" fill="#000000">rev_id</text>
<polygon fill="none" stroke="#000000" points="416,-1225.7 416,-1247.7 510,-1247.7 510,-1225.7 416,-1225.7"/>
<text text-anchor="start" x="419" y="-1233.4" font-family="Helvetica,sans-Serif" font-size="11.00" fill="#000000">int8[19]</text>
<polygon fill="none" stroke="#000000" points="247,-1203.7 247,-1225.7 416,-1225.7 416,-1203.7 247,-1203.7"/>
<text text-anchor="start" x="267" y="-1210.8" font-family="Helvetica,sans-Serif" font-size="11.00" fill="#000000">rev_type</text>
<polygon fill="none" stroke="#000000" points="416,-1203.7 416,-1225.7 510,-1225.7 510,-1203.7 416,-1203.7"/>
<text text-anchor="start" x="419" y="-1211.4" font-family="Helvetica,sans-Serif" font-size="11.00" fill="#000000">int2[5]</text>
<polygon fill="none" stroke="#000000" points="247,-1181.7 247,-1203.7 416,-1203.7 416,-1181.7 247,-1181.7"/>
<image xlink:href="../../images/primaryKeys.png" width="11px" height="12px" preserveAspectRatio="xMinYMin meet" x="252" y="-1198.7"/>
<text text-anchor="start" x="267" y="-1188.8" font-family="Helvetica,sans-Serif" font-size="11.00" fill="#000000">attendee_id</text>
<polygon fill="none" stroke="#000000" points="416,-1181.7 416,-1203.7 510,-1203.7 510,-1181.7 416,-1181.7"/>
<text text-anchor="start" x="418.9758" y="-1189.4" font-family="Helvetica,sans-Serif" font-size="11.00" fill="#000000">uuid[2147483647]</text>
<polygon fill="none" stroke="#000000" points="247,-1159.7 247,-1181.7 416,-1181.7 416,-1159.7 247,-1159.7"/>
<image xlink:href="../../images/foreignKeys.png" width="11px" height="12px" preserveAspectRatio="xMinYMin meet" x="252" y="-1176.7"/>
<text text-anchor="start" x="267" y="-1166.8" font-family="Helvetica,sans-Serif" font-size="11.00" fill="#000000">review_id</text>
<polygon fill="none" stroke="#000000" points="416,-1159.7 416,-1181.7 510,-1181.7 510,-1159.7 416,-1159.7"/>
<text text-anchor="start" x="418.9758" y="-1167.4" font-family="Helvetica,sans-Serif" font-size="11.00" fill="#000000">uuid[2147483647]</text>
<polygon fill="none" stroke="#000000" points="247,-1137.7 247,-1159.7 416,-1159.7 416,-1137.7 247,-1137.7"/>
<text text-anchor="start" x="267" y="-1144.8" font-family="Helvetica,sans-Serif" font-size="11.00" fill="#000000">name</text>
<polygon fill="none" stroke="#000000" points="416,-1137.7 416,-1159.7 510,-1159.7 510,-1137.7 416,-1137.7"/>
<text text-anchor="start" x="419" y="-1145.4" font-family="Helvetica,sans-Serif" font-size="11.00" fill="#000000">varchar[100]</text>
<polygon fill="none" stroke="#000000" points="247,-1115.7 247,-1137.7 416,-1137.7 416,-1115.7 247,-1115.7"/>
<text text-anchor="start" x="267" y="-1122.8" font-family="Helvetica,sans-Serif" font-size="11.00" fill="#000000">role</text>
<polygon fill="none" stroke="#000000" points="416,-1115.7 416,-1137.7 510,-1137.7 510,-1115.7 416,-1115.7"/>
<text text-anchor="start" x="419" y="-1123.4" font-family="Helvetica,sans-Serif" font-size="11.00" fill="#000000">varchar[50]</text>
<polygon fill="none" stroke="#000000" points="247,-1093.7 247,-1115.7 416,-1115.7 416,-1093.7 247,-1093.7"/>
<text text-anchor="start" x="267" y="-1100.8" font-family="Helvetica,sans-Serif" font-size="11.00" fill="#000000">attended</text>
<polygon fill="none" stroke="#000000" points="416,-1093.7 416,-1115.7 510,-1115.7 510,-1093.7 416,-1093.7"/>
<text text-anchor="start" x="419" y="-1101.4" font-family="Helvetica,sans-Serif" font-size="11.00" fill="#000000">bool[1]</text>
<polygon fill="none" stroke="#000000" points="247,-1071.7 247,-1093.7 416,-1093.7 416,-1071.7 247,-1071.7"/>
<text text-anchor="start" x="267" y="-1078.8" font-family="Helvetica,sans-Serif" font-size="11.00" fill="#000000">contribution</text>
<polygon fill="none" stroke="#000000" points="416,-1071.7 416,-1093.7 510,-1093.7 510,-1071.7 416,-1071.7"/>
<text text-anchor="start" x="419" y="-1079.4" font-family="Helvetica,sans-Serif" font-size="11.00" fill="#000000">text[2147483647]</text>
<polygon fill="none" stroke="#000000" points="247,-1049.7 247,-1071.7 416,-1071.7 416,-1049.7 247,-1049.7"/>
<text text-anchor="start" x="267" y="-1056.8" font-family="Helvetica,sans-Serif" font-size="11.00" fill="#000000">name_modified</text>
<polygon fill="none" stroke="#000000" points="416,-1049.7 416,-1071.7 510,-1071.7 510,-1049.7 416,-1049.7"/>
<text text-anchor="start" x="419" y="-1057.4" font-family="Helvetica,sans-Serif" font-size="11.00" fill="#000000">bool[1]</text>
<polygon fill="none" stroke="#000000" points="247,-1027.7 247,-1049.7 416,-1049.7 416,-1027.7 247,-1027.7"/>
<text text-anchor="start" x="267" y="-1034.8" font-family="Helvetica,sans-Serif" font-size="11.00" fill="#000000">role_modified</text>
<polygon fill="none" stroke="#000000" points="416,-1027.7 416,-1049.7 510,-1049.7 510,-1027.7 416,-1027.7"/>
<text text-anchor="start" x="419" y="-1035.4" font-family="Helvetica,sans-Serif" font-size="11.00" fill="#000000">bool[1]</text>
<polygon fill="none" stroke="#000000" points="247,-1005.7 247,-1027.7 416,-1027.7 416,-1005.7 247,-1005.7"/>
<text text-anchor="start" x="267" y="-1012.8" font-family="Helvetica,sans-Serif" font-size="11.00" fill="#000000">attended_modified</text>
<polygon fill="none" stroke="#000000" points="416,-1005.7 416,-1027.7 510,-1027.7 510,-1005.7 416,-1005.7"/>
<text text-anchor="start" x="419" y="-1013.4" font-family="Helvetica,sans-Serif" font-size="11.00" fill="#000000">bool[1]</text>
<polygon fill="none" stroke="#000000" points="247,-983.7 247,-1005.7 416,-1005.7 416,-983.7 247,-983.7"/>
<text text-anchor="start" x="267" y="-990.8" font-family="Helvetica,sans-Serif" font-size="11.00" fill="#000000">contribution_modified</text>
<polygon fill="none" stroke="#000000" points="416,-983.7 416,-1005.7 510,-1005.7 510,-983.7 416,-983.7"/>
<text text-anchor="start" x="419" y="-991.4" font-family="Helvetica,sans-Serif" font-size="11.00" fill="#000000">bool[1]</text>
<polygon fill="none" stroke="#000000" points="247,-961.7 247,-983.7 416,-983.7 416,-961.7 247,-961.7"/>
<image xlink:href="../../images/foreignKeys.png" width="11px" height="12px" preserveAspectRatio="xMinYMin meet" x="252" y="-978.7"/>
<text text-anchor="start" x="267" y="-968.8" font-family="Helvetica,sans-Serif" font-size="11.00" fill="#000000">legacy_id</text>
<polygon fill="none" stroke="#000000" points="416,-961.7 416,-983.7 510,-983.7 510,-961.7 416,-961.7"/>
<text text-anchor="start" x="419" y="-969.4" font-family="Helvetica,sans-Serif" font-size="11.00" fill="#000000">int8[19]</text>
<polygon fill="#ffffff" stroke="transparent" points="247,-942.7 247,-961.7 336,-961.7 336,-942.7 247,-942.7"/>
<polygon fill="none" stroke="#000000" points="247,-942.7 247,-961.7 336,-961.7 336,-942.7 247,-942.7"/>
<text text-anchor="start" x="250" y="-948.8" font-family="Helvetica,sans-Serif" font-size="11.00" fill="#000000">&lt; 1</text>
<polygon fill="#ffffff" stroke="transparent" points="336,-942.7 336,-961.7 416,-961.7 416,-942.7 336,-942.7"/>
<polygon fill="none" stroke="#000000" points="336,-942.7 336,-961.7 416,-961.7 416,-942.7 336,-942.7"/>
<text text-anchor="start" x="406.8862" y="-948.8" font-family="Helvetica,sans-Serif" font-size="11.00" fill="#000000"> &#160;</text>
<polygon fill="#ffffff" stroke="transparent" points="416,-942.7 416,-961.7 510,-961.7 510,-942.7 416,-942.7"/>
<polygon fill="none" stroke="#000000" points="416,-942.7 416,-961.7 510,-961.7 510,-942.7 416,-942.7"/>
<text text-anchor="start" x="491.4053" y="-948.8" font-family="Helvetica,sans-Serif" font-size="11.00" fill="#000000">0 &gt;</text>
<polygon fill="none" stroke="#000000" stroke-width="2" points="245.5,-941.7 245.5,-1271.7 510.5,-1271.7 510.5,-941.7 245.5,-941.7"/>
</a>
</g>
</g>
<!-- audit_revision -->
<g id="node2" class="node">
<title>audit_revision</title>
<g id="a_node2"><a xlink:href="../../tables/audit_revision.html" xlink:title="audit_revision" target="_top">
<polygon fill="#ffffff" stroke="transparent" points="8,-468.2 8,-551.2 174,-551.2 174,-468.2 8,-468.2"/>
<polygon fill="#f5f5f5" stroke="transparent" points="8,-527.7 8,-550.7 174,-550.7 174,-527.7 8,-527.7"/>
<polygon fill="none" stroke="#000000" points="8,-527.7 8,-550.7 174,-550.7 174,-527.7 8,-527.7"/>
<text text-anchor="start" x="13" y="-536.3" font-family="Helvetica,sans-Serif" font-weight="bold" font-size="11.00" fill="#000000">audit_revision</text>
<text text-anchor="start" x="139.0437" y="-535.8" font-family="Helvetica,sans-Serif" font-size="11.00" fill="#000000">[table]</text>
<polygon fill="none" stroke="#000000" points="8,-505.7 8,-527.7 174,-527.7 174,-505.7 8,-505.7"/>
<image xlink:href="../../images/primaryKeys.png" width="11px" height="12px" preserveAspectRatio="xMinYMin meet" x="13" y="-522.7"/>
<text text-anchor="start" x="28" y="-512.8" font-family="Helvetica,sans-Serif" font-size="11.00" fill="#000000">id</text>
<polygon fill="none" stroke="#000000" points="8,-486.7 8,-505.7 174,-505.7 174,-486.7 8,-486.7"/>
<text text-anchor="start" x="11" y="-492.8" font-family="Helvetica,sans-Serif" font-size="11.00" fill="#000000">...</text>
<polygon fill="#ffffff" stroke="transparent" points="8,-467.7 8,-486.7 77,-486.7 77,-467.7 8,-467.7"/>
<polygon fill="none" stroke="#000000" points="8,-467.7 8,-486.7 77,-486.7 77,-467.7 8,-467.7"/>
<text text-anchor="start" x="11" y="-473.8" font-family="Helvetica,sans-Serif" font-size="11.00" fill="#000000"> &#160;</text>
<polygon fill="#ffffff" stroke="transparent" points="77,-467.7 77,-486.7 118,-486.7 118,-467.7 77,-467.7"/>
<polygon fill="none" stroke="#000000" points="77,-467.7 77,-486.7 118,-486.7 118,-467.7 77,-467.7"/>
<text text-anchor="start" x="108.8862" y="-473.8" font-family="Helvetica,sans-Serif" font-size="11.00" fill="#000000"> &#160;</text>
<polygon fill="#ffffff" stroke="transparent" points="118,-467.7 118,-486.7 174,-486.7 174,-467.7 118,-467.7"/>
<polygon fill="none" stroke="#000000" points="118,-467.7 118,-486.7 174,-486.7 174,-467.7 118,-467.7"/>
<text text-anchor="start" x="149.2904" y="-473.8" font-family="Helvetica,sans-Serif" font-size="11.00" fill="#000000">12 &gt;</text>
</a>
</g>
</g>
<!-- attendee_audit&#45;&gt;audit_revision -->
<g id="edge1" class="edge">
<title>attendee_audit:w&#45;&gt;audit_revision:e</title>
<path fill="none" stroke="#000000" d="M234.1697,-1229.1012C176.6076,-1152.152 249.5416,-516.7 174,-516.7"/>
<polygon fill="#000000" stroke="#000000" points="240.1166,-1232.6233 245.1655,-1239.7975 243.5583,-1234.6616 247,-1236.7 247,-1236.7 247,-1236.7 243.5583,-1234.6616 248.8345,-1233.6025 240.1166,-1232.6233 240.1166,-1232.6233"/>
<ellipse fill="none" stroke="#000000" cx="237.3633" cy="-1230.9926" rx="3.2" ry="3.2"/>
</g>
<!-- contributory_factor_audit -->
<g id="node3" class="node">
<title>contributory_factor_audit</title>
<g id="a_node3"><a xlink:href="../../tables/contributory_factor_audit.html" xlink:title="contributory_factor_audit" target="_top">
<polygon fill="#ffffff" stroke="transparent" points="273,-858.2 273,-919.2 483,-919.2 483,-858.2 273,-858.2"/>
<polygon fill="#f5f5f5" stroke="transparent" points="273,-895.7 273,-918.7 483,-918.7 483,-895.7 273,-895.7"/>
<polygon fill="none" stroke="#000000" points="273,-895.7 273,-918.7 483,-918.7 483,-895.7 273,-895.7"/>
<text text-anchor="start" x="278" y="-904.3" font-family="Helvetica,sans-Serif" font-weight="bold" font-size="11.00" fill="#000000">contributory_factor_audit</text>
<text text-anchor="start" x="448.5219" y="-903.8" font-family="Helvetica,sans-Serif" font-size="11.00" fill="#000000">[table]</text>
<polygon fill="none" stroke="#000000" points="273,-876.7 273,-895.7 483,-895.7 483,-876.7 273,-876.7"/>
<text text-anchor="start" x="276" y="-882.8" font-family="Helvetica,sans-Serif" font-size="11.00" fill="#000000">...</text>
<polygon fill="#ffffff" stroke="transparent" points="273,-857.7 273,-876.7 376,-876.7 376,-857.7 273,-857.7"/>
<polygon fill="none" stroke="#000000" points="273,-857.7 273,-876.7 376,-876.7 376,-857.7 273,-857.7"/>
<text text-anchor="start" x="276" y="-863.8" font-family="Helvetica,sans-Serif" font-size="11.00" fill="#000000">&lt; 1</text>
<polygon fill="#ffffff" stroke="transparent" points="376,-857.7 376,-876.7 429,-876.7 429,-857.7 376,-857.7"/>
<polygon fill="none" stroke="#000000" points="376,-857.7 376,-876.7 429,-876.7 429,-857.7 376,-857.7"/>
<text text-anchor="start" x="419.8862" y="-863.8" font-family="Helvetica,sans-Serif" font-size="11.00" fill="#000000"> &#160;</text>
<polygon fill="#ffffff" stroke="transparent" points="429,-857.7 429,-876.7 483,-876.7 483,-857.7 429,-857.7"/>
<polygon fill="none" stroke="#000000" points="429,-857.7 429,-876.7 483,-876.7 483,-857.7 429,-857.7"/>
<text text-anchor="start" x="473.8862" y="-863.8" font-family="Helvetica,sans-Serif" font-size="11.00" fill="#000000"> &#160;</text>
</a>
</g>
</g>
<!-- contributory_factor_audit&#45;&gt;audit_revision -->
<g id="edge2" class="edge">
<title>contributory_factor_audit:w&#45;&gt;audit_revision:e</title>
<path fill="none" stroke="#000000" d="M258.4581,-884.5889C238.1868,-881.0948 228.4281,-869.2609 215,-847.7 175.8172,-784.7862 248.1177,-516.7 174,-516.7"/>
<polygon fill="#000000" stroke="#000000" points="265.0232,-885.0905 272.7257,-889.2895 269.0116,-885.3952 273,-885.7 273,-885.7 273,-885.7 269.0116,-885.3952 273.2743,-882.1105 265.0232,-885.0905 265.0232,-885.0905"/>
<ellipse fill="none" stroke="#000000" cx="261.8325" cy="-884.8467" rx="3.2" ry="3.2"/>
</g>
<!-- csip_record_audit -->
<g id="node4" class="node">
<title>csip_record_audit</title>
<g id="a_node4"><a xlink:href="../../tables/csip_record_audit.html" xlink:title="csip_record_audit" target="_top">
<polygon fill="#ffffff" stroke="transparent" points="300,-776.2 300,-837.2 456,-837.2 456,-776.2 300,-776.2"/>
<polygon fill="#f5f5f5" stroke="transparent" points="300,-813.7 300,-836.7 456,-836.7 456,-813.7 300,-813.7"/>
<polygon fill="none" stroke="#000000" points="300,-813.7 300,-836.7 456,-836.7 456,-813.7 300,-813.7"/>
<text text-anchor="start" x="305" y="-822.3" font-family="Helvetica,sans-Serif" font-weight="bold" font-size="11.00" fill="#000000">csip_record_audit</text>
<text text-anchor="start" x="421.5219" y="-821.8" font-family="Helvetica,sans-Serif" font-size="11.00" fill="#000000">[table]</text>
<polygon fill="none" stroke="#000000" points="300,-794.7 300,-813.7 456,-813.7 456,-794.7 300,-794.7"/>
<text text-anchor="start" x="303" y="-800.8" font-family="Helvetica,sans-Serif" font-size="11.00" fill="#000000">...</text>
<polygon fill="#ffffff" stroke="transparent" points="300,-775.7 300,-794.7 376,-794.7 376,-775.7 300,-775.7"/>
<polygon fill="none" stroke="#000000" points="300,-775.7 300,-794.7 376,-794.7 376,-775.7 300,-775.7"/>
<text text-anchor="start" x="303" y="-781.8" font-family="Helvetica,sans-Serif" font-size="11.00" fill="#000000">&lt; 1</text>
<polygon fill="#ffffff" stroke="transparent" points="376,-775.7 376,-794.7 416,-794.7 416,-775.7 376,-775.7"/>
<polygon fill="none" stroke="#000000" points="376,-775.7 376,-794.7 416,-794.7 416,-775.7 376,-775.7"/>
<text text-anchor="start" x="406.8862" y="-781.8" font-family="Helvetica,sans-Serif" font-size="11.00" fill="#000000"> &#160;</text>
<polygon fill="#ffffff" stroke="transparent" points="416,-775.7 416,-794.7 456,-794.7 456,-775.7 416,-775.7"/>
<polygon fill="none" stroke="#000000" points="416,-775.7 416,-794.7 456,-794.7 456,-775.7 416,-775.7"/>
<text text-anchor="start" x="446.8862" y="-781.8" font-family="Helvetica,sans-Serif" font-size="11.00" fill="#000000"> &#160;</text>
</a>
</g>
</g>
<!-- csip_record_audit&#45;&gt;audit_revision -->
<g id="edge3" class="edge">
<title>csip_record_audit:w&#45;&gt;audit_revision:e</title>
<path fill="none" stroke="#000000" d="M285.5031,-803.4113C253.9228,-801.9626 237.1082,-794.3755 215,-765.7 180.7596,-721.2884 230.0784,-516.7 174,-516.7"/>
<polygon fill="#000000" stroke="#000000" points="292.0016,-803.5407 299.9283,-807.2993 296.0008,-803.6203 300,-803.7 300,-803.7 300,-803.7 296.0008,-803.6203 300.0717,-800.1007 292.0016,-803.5407 292.0016,-803.5407"/>
<ellipse fill="none" stroke="#000000" cx="288.8022" cy="-803.477" rx="3.2" ry="3.2"/>
</g>
<!-- decision_and_actions_audit -->
<g id="node5" class="node">
<title>decision_and_actions_audit</title>
<g id="a_node5"><a xlink:href="../../tables/decision_and_actions_audit.html" xlink:title="decision_and_actions_audit" target="_top">
<polygon fill="#ffffff" stroke="transparent" points="267,-694.2 267,-755.2 489,-755.2 489,-694.2 267,-694.2"/>
<polygon fill="#f5f5f5" stroke="transparent" points="267,-731.7 267,-754.7 489,-754.7 489,-731.7 267,-731.7"/>
<polygon fill="none" stroke="#000000" points="267,-731.7 267,-754.7 489,-754.7 489,-731.7 267,-731.7"/>
<text text-anchor="start" x="272" y="-740.3" font-family="Helvetica,sans-Serif" font-weight="bold" font-size="11.00" fill="#000000">decision_and_actions_audit</text>
<text text-anchor="start" x="454.5219" y="-739.8" font-family="Helvetica,sans-Serif" font-size="11.00" fill="#000000">[table]</text>
<polygon fill="none" stroke="#000000" points="267,-712.7 267,-731.7 489,-731.7 489,-712.7 267,-712.7"/>
<text text-anchor="start" x="270" y="-718.8" font-family="Helvetica,sans-Serif" font-size="11.00" fill="#000000">...</text>
<polygon fill="#ffffff" stroke="transparent" points="267,-693.7 267,-712.7 376,-712.7 376,-693.7 267,-693.7"/>
<polygon fill="none" stroke="#000000" points="267,-693.7 267,-712.7 376,-712.7 376,-693.7 267,-693.7"/>
<text text-anchor="start" x="270" y="-699.8" font-family="Helvetica,sans-Serif" font-size="11.00" fill="#000000">&lt; 1</text>
<polygon fill="#ffffff" stroke="transparent" points="376,-693.7 376,-712.7 432,-712.7 432,-693.7 376,-693.7"/>
<polygon fill="none" stroke="#000000" points="376,-693.7 376,-712.7 432,-712.7 432,-693.7 376,-693.7"/>
<text text-anchor="start" x="422.8862" y="-699.8" font-family="Helvetica,sans-Serif" font-size="11.00" fill="#000000"> &#160;</text>
<polygon fill="#ffffff" stroke="transparent" points="432,-693.7 432,-712.7 489,-712.7 489,-693.7 432,-693.7"/>
<polygon fill="none" stroke="#000000" points="432,-693.7 432,-712.7 489,-712.7 489,-693.7 432,-693.7"/>
<text text-anchor="start" x="479.8862" y="-699.8" font-family="Helvetica,sans-Serif" font-size="11.00" fill="#000000"> &#160;</text>
</a>
</g>
</g>
<!-- decision_and_actions_audit&#45;&gt;audit_revision -->
<g id="edge4" class="edge">
<title>decision_and_actions_audit:w&#45;&gt;audit_revision:e</title>
<path fill="none" stroke="#000000" d="M252.4307,-720.1075C235.1438,-715.7811 227.8195,-702.8367 215,-683.7 172.4646,-620.2041 250.4264,-516.7 174,-516.7"/>
<polygon fill="#000000" stroke="#000000" points="259.0474,-720.8307 266.6088,-725.2787 263.0237,-721.2653 267,-721.7 267,-721.7 267,-721.7 263.0237,-721.2653 267.3912,-718.1213 259.0474,-720.8307 259.0474,-720.8307"/>
<ellipse fill="none" stroke="#000000" cx="255.8663" cy="-720.483" rx="3.2" ry="3.2"/>
</g>
<!-- identified_need_audit -->
<g id="node6" class="node">
<title>identified_need_audit</title>
<g id="a_node6"><a xlink:href="../../tables/identified_need_audit.html" xlink:title="identified_need_audit" target="_top">
<polygon fill="#ffffff" stroke="transparent" points="286,-612.2 286,-673.2 470,-673.2 470,-612.2 286,-612.2"/>
<polygon fill="#f5f5f5" stroke="transparent" points="286,-649.7 286,-672.7 470,-672.7 470,-649.7 286,-649.7"/>
<polygon fill="none" stroke="#000000" points="286,-649.7 286,-672.7 470,-672.7 470,-649.7 286,-649.7"/>
<text text-anchor="start" x="291" y="-658.3" font-family="Helvetica,sans-Serif" font-weight="bold" font-size="11.00" fill="#000000">identified_need_audit</text>
<text text-anchor="start" x="435.5219" y="-657.8" font-family="Helvetica,sans-Serif" font-size="11.00" fill="#000000">[table]</text>
<polygon fill="none" stroke="#000000" points="286,-630.7 286,-649.7 470,-649.7 470,-630.7 286,-630.7"/>
<text text-anchor="start" x="289" y="-636.8" font-family="Helvetica,sans-Serif" font-size="11.00" fill="#000000">...</text>
<polygon fill="#ffffff" stroke="transparent" points="286,-611.7 286,-630.7 376,-630.7 376,-611.7 286,-611.7"/>
<polygon fill="none" stroke="#000000" points="286,-611.7 286,-630.7 376,-630.7 376,-611.7 286,-611.7"/>
<text text-anchor="start" x="289" y="-617.8" font-family="Helvetica,sans-Serif" font-size="11.00" fill="#000000">&lt; 1</text>
<polygon fill="#ffffff" stroke="transparent" points="376,-611.7 376,-630.7 423,-630.7 423,-611.7 376,-611.7"/>
<polygon fill="none" stroke="#000000" points="376,-611.7 376,-630.7 423,-630.7 423,-611.7 376,-611.7"/>
<text text-anchor="start" x="413.8862" y="-617.8" font-family="Helvetica,sans-Serif" font-size="11.00" fill="#000000"> &#160;</text>
<polygon fill="#ffffff" stroke="transparent" points="423,-611.7 423,-630.7 470,-630.7 470,-611.7 423,-611.7"/>
<polygon fill="none" stroke="#000000" points="423,-611.7 423,-630.7 470,-630.7 470,-611.7 423,-611.7"/>
<text text-anchor="start" x="460.8862" y="-617.8" font-family="Helvetica,sans-Serif" font-size="11.00" fill="#000000"> &#160;</text>
</a>
</g>
</g>
<!-- identified_need_audit&#45;&gt;audit_revision -->
<g id="edge5" class="edge">
<title>identified_need_audit:w&#45;&gt;audit_revision:e</title>
<path fill="none" stroke="#000000" d="M271.6079,-638.8909C246.7945,-635.787 236.0942,-623.699 215,-601.7 185.971,-571.4258 215.9429,-516.7 174,-516.7"/>
<polygon fill="#000000" stroke="#000000" points="278.0126,-639.2509 285.7979,-643.2943 282.0063,-639.4755 286,-639.7 286,-639.7 286,-639.7 282.0063,-639.4755 286.2021,-636.1057 278.0126,-639.2509 278.0126,-639.2509"/>
<ellipse fill="none" stroke="#000000" cx="274.8177" cy="-639.0713" rx="3.2" ry="3.2"/>
</g>
<!-- interview_audit -->
<g id="node7" class="node">
<title>interview_audit</title>
<g id="a_node7"><a xlink:href="../../tables/interview_audit.html" xlink:title="interview_audit" target="_top">
<polygon fill="#ffffff" stroke="transparent" points="306.5,-530.2 306.5,-591.2 449.5,-591.2 449.5,-530.2 306.5,-530.2"/>
<polygon fill="#f5f5f5" stroke="transparent" points="307,-567.7 307,-590.7 450,-590.7 450,-567.7 307,-567.7"/>
<polygon fill="none" stroke="#000000" points="307,-567.7 307,-590.7 450,-590.7 450,-567.7 307,-567.7"/>
<text text-anchor="start" x="312" y="-576.3" font-family="Helvetica,sans-Serif" font-weight="bold" font-size="11.00" fill="#000000">interview_audit</text>
<text text-anchor="start" x="415.5219" y="-575.8" font-family="Helvetica,sans-Serif" font-size="11.00" fill="#000000">[table]</text>
<polygon fill="none" stroke="#000000" points="307,-548.7 307,-567.7 450,-567.7 450,-548.7 307,-548.7"/>
<text text-anchor="start" x="310" y="-554.8" font-family="Helvetica,sans-Serif" font-size="11.00" fill="#000000">...</text>
<polygon fill="#ffffff" stroke="transparent" points="307,-529.7 307,-548.7 377,-548.7 377,-529.7 307,-529.7"/>
<polygon fill="none" stroke="#000000" points="307,-529.7 307,-548.7 377,-548.7 377,-529.7 307,-529.7"/>
<text text-anchor="start" x="310" y="-535.8" font-family="Helvetica,sans-Serif" font-size="11.00" fill="#000000">&lt; 1</text>
<polygon fill="#ffffff" stroke="transparent" points="377,-529.7 377,-548.7 413,-548.7 413,-529.7 377,-529.7"/>
<polygon fill="none" stroke="#000000" points="377,-529.7 377,-548.7 413,-548.7 413,-529.7 377,-529.7"/>
<text text-anchor="start" x="403.8862" y="-535.8" font-family="Helvetica,sans-Serif" font-size="11.00" fill="#000000"> &#160;</text>
<polygon fill="#ffffff" stroke="transparent" points="413,-529.7 413,-548.7 450,-548.7 450,-529.7 413,-529.7"/>
<polygon fill="none" stroke="#000000" points="413,-529.7 413,-548.7 450,-548.7 450,-529.7 413,-529.7"/>
<text text-anchor="start" x="440.8862" y="-535.8" font-family="Helvetica,sans-Serif" font-size="11.00" fill="#000000"> &#160;</text>
</a>
</g>
</g>
<!-- interview_audit&#45;&gt;audit_revision -->
<g id="edge6" class="edge">
<title>interview_audit:w&#45;&gt;audit_revision:e</title>
<path fill="none" stroke="#000000" d="M292.4652,-556.881C243.2131,-551.1025 230.6611,-516.7 174,-516.7"/>
<polygon fill="#000000" stroke="#000000" points="299.0127,-557.2499 306.7974,-561.2943 303.0063,-557.4749 307,-557.7 307,-557.7 307,-557.7 303.0063,-557.4749 307.2026,-554.1057 299.0127,-557.2499 299.0127,-557.2499"/>
<ellipse fill="none" stroke="#000000" cx="295.8177" cy="-557.0698" rx="3.2" ry="3.2"/>
</g>
<!-- investigation_audit -->
<g id="node8" class="node">
<title>investigation_audit</title>
<g id="a_node8"><a xlink:href="../../tables/investigation_audit.html" xlink:title="investigation_audit" target="_top">
<polygon fill="#ffffff" stroke="transparent" points="293.5,-448.2 293.5,-509.2 462.5,-509.2 462.5,-448.2 293.5,-448.2"/>
<polygon fill="#f5f5f5" stroke="transparent" points="294,-485.7 294,-508.7 463,-508.7 463,-485.7 294,-485.7"/>
<polygon fill="none" stroke="#000000" points="294,-485.7 294,-508.7 463,-508.7 463,-485.7 294,-485.7"/>
<text text-anchor="start" x="299" y="-494.3" font-family="Helvetica,sans-Serif" font-weight="bold" font-size="11.00" fill="#000000">investigation_audit</text>
<text text-anchor="start" x="428.5219" y="-493.8" font-family="Helvetica,sans-Serif" font-size="11.00" fill="#000000">[table]</text>
<polygon fill="none" stroke="#000000" points="294,-466.7 294,-485.7 463,-485.7 463,-466.7 294,-466.7"/>
<text text-anchor="start" x="297" y="-472.8" font-family="Helvetica,sans-Serif" font-size="11.00" fill="#000000">...</text>
<polygon fill="#ffffff" stroke="transparent" points="294,-447.7 294,-466.7 377,-466.7 377,-447.7 294,-447.7"/>
<polygon fill="none" stroke="#000000" points="294,-447.7 294,-466.7 377,-466.7 377,-447.7 294,-447.7"/>
<text text-anchor="start" x="297" y="-453.8" font-family="Helvetica,sans-Serif" font-size="11.00" fill="#000000">&lt; 1</text>
<polygon fill="#ffffff" stroke="transparent" points="377,-447.7 377,-466.7 420,-466.7 420,-447.7 377,-447.7"/>
<polygon fill="none" stroke="#000000" points="377,-447.7 377,-466.7 420,-466.7 420,-447.7 377,-447.7"/>
<text text-anchor="start" x="410.8862" y="-453.8" font-family="Helvetica,sans-Serif" font-size="11.00" fill="#000000"> &#160;</text>
<polygon fill="#ffffff" stroke="transparent" points="420,-447.7 420,-466.7 463,-466.7 463,-447.7 420,-447.7"/>
<polygon fill="none" stroke="#000000" points="420,-447.7 420,-466.7 463,-466.7 463,-447.7 420,-447.7"/>
<text text-anchor="start" x="453.8862" y="-453.8" font-family="Helvetica,sans-Serif" font-size="11.00" fill="#000000"> &#160;</text>
</a>
</g>
</g>
<!-- investigation_audit&#45;&gt;audit_revision -->
<g id="edge7" class="edge">
<title>investigation_audit:w&#45;&gt;audit_revision:e</title>
<path fill="none" stroke="#000000" d="M279.3619,-476.7135C235.8434,-483.0271 225.0766,-516.7 174,-516.7"/>
<polygon fill="#000000" stroke="#000000" points="286.0191,-476.2526 294.2487,-479.2914 290.0096,-475.9763 294,-475.7 294,-475.7 294,-475.7 290.0096,-475.9763 293.7513,-472.1086 286.0191,-476.2526 286.0191,-476.2526"/>
<ellipse fill="none" stroke="#000000" cx="282.8267" cy="-476.4737" rx="3.2" ry="3.2"/>
</g>
<!-- person_summary_audit -->
<g id="node9" class="node">
<title>person_summary_audit</title>
<g id="a_node9"><a xlink:href="../../tables/person_summary_audit.html" xlink:title="person_summary_audit" target="_top">
<polygon fill="#ffffff" stroke="transparent" points="280.5,-366.2 280.5,-427.2 475.5,-427.2 475.5,-366.2 280.5,-366.2"/>
<polygon fill="#f5f5f5" stroke="transparent" points="281,-403.7 281,-426.7 476,-426.7 476,-403.7 281,-403.7"/>
<polygon fill="none" stroke="#000000" points="281,-403.7 281,-426.7 476,-426.7 476,-403.7 281,-403.7"/>
<text text-anchor="start" x="286" y="-412.3" font-family="Helvetica,sans-Serif" font-weight="bold" font-size="11.00" fill="#000000">person_summary_audit</text>
<text text-anchor="start" x="441.5219" y="-411.8" font-family="Helvetica,sans-Serif" font-size="11.00" fill="#000000">[table]</text>
<polygon fill="none" stroke="#000000" points="281,-384.7 281,-403.7 476,-403.7 476,-384.7 281,-384.7"/>
<text text-anchor="start" x="284" y="-390.8" font-family="Helvetica,sans-Serif" font-size="11.00" fill="#000000">...</text>
<polygon fill="#ffffff" stroke="transparent" points="281,-365.7 281,-384.7 377,-384.7 377,-365.7 281,-365.7"/>
<polygon fill="none" stroke="#000000" points="281,-365.7 281,-384.7 377,-384.7 377,-365.7 281,-365.7"/>
<text text-anchor="start" x="284" y="-371.8" font-family="Helvetica,sans-Serif" font-size="11.00" fill="#000000">&lt; 1</text>
<polygon fill="#ffffff" stroke="transparent" points="377,-365.7 377,-384.7 426,-384.7 426,-365.7 377,-365.7"/>
<polygon fill="none" stroke="#000000" points="377,-365.7 377,-384.7 426,-384.7 426,-365.7 377,-365.7"/>
<text text-anchor="start" x="416.8862" y="-371.8" font-family="Helvetica,sans-Serif" font-size="11.00" fill="#000000"> &#160;</text>
<polygon fill="#ffffff" stroke="transparent" points="426,-365.7 426,-384.7 476,-384.7 476,-365.7 426,-365.7"/>
<polygon fill="none" stroke="#000000" points="426,-365.7 426,-384.7 476,-384.7 476,-365.7 426,-365.7"/>
<text text-anchor="start" x="466.8862" y="-371.8" font-family="Helvetica,sans-Serif" font-size="11.00" fill="#000000"> &#160;</text>
</a>
</g>
</g>
<!-- person_summary_audit&#45;&gt;audit_revision -->
<g id="edge8" class="edge">
<title>person_summary_audit:w&#45;&gt;audit_revision:e</title>
<path fill="none" stroke="#000000" d="M266.359,-394.9646C243.0925,-399.4537 234.8534,-415.5492 215,-437.7 188.5976,-467.1576 213.5581,-516.7 174,-516.7"/>
<polygon fill="#000000" stroke="#000000" points="273.0297,-394.3885 281.3098,-397.2866 277.0148,-394.0442 281,-393.7 281,-393.7 281,-393.7 277.0148,-394.0442 280.6902,-390.1134 273.0297,-394.3885 273.0297,-394.3885"/>
<ellipse fill="none" stroke="#000000" cx="269.8415" cy="-394.6639" rx="3.2" ry="3.2"/>
</g>
<!-- plan_audit -->
<g id="node10" class="node">
<title>plan_audit</title>
<g id="a_node10"><a xlink:href="../../tables/plan_audit.html" xlink:title="plan_audit" target="_top">
<polygon fill="#ffffff" stroke="transparent" points="323.5,-284.2 323.5,-345.2 432.5,-345.2 432.5,-284.2 323.5,-284.2"/>
<polygon fill="#f5f5f5" stroke="transparent" points="324,-321.7 324,-344.7 433,-344.7 433,-321.7 324,-321.7"/>
<polygon fill="none" stroke="#000000" points="324,-321.7 324,-344.7 433,-344.7 433,-321.7 324,-321.7"/>
<text text-anchor="start" x="329" y="-330.3" font-family="Helvetica,sans-Serif" font-weight="bold" font-size="11.00" fill="#000000">plan_audit</text>
<text text-anchor="start" x="398.5219" y="-329.8" font-family="Helvetica,sans-Serif" font-size="11.00" fill="#000000">[table]</text>
<polygon fill="none" stroke="#000000" points="324,-302.7 324,-321.7 433,-321.7 433,-302.7 324,-302.7"/>
<text text-anchor="start" x="327" y="-308.8" font-family="Helvetica,sans-Serif" font-size="11.00" fill="#000000">...</text>
<polygon fill="#ffffff" stroke="transparent" points="324,-283.7 324,-302.7 377,-302.7 377,-283.7 324,-283.7"/>
<polygon fill="none" stroke="#000000" points="324,-283.7 324,-302.7 377,-302.7 377,-283.7 324,-283.7"/>
<text text-anchor="start" x="327" y="-289.8" font-family="Helvetica,sans-Serif" font-size="11.00" fill="#000000">&lt; 1</text>
<polygon fill="#ffffff" stroke="transparent" points="377,-283.7 377,-302.7 405,-302.7 405,-283.7 377,-283.7"/>
<polygon fill="none" stroke="#000000" points="377,-283.7 377,-302.7 405,-302.7 405,-283.7 377,-283.7"/>
<text text-anchor="start" x="395.8862" y="-289.8" font-family="Helvetica,sans-Serif" font-size="11.00" fill="#000000"> &#160;</text>
<polygon fill="#ffffff" stroke="transparent" points="405,-283.7 405,-302.7 433,-302.7 433,-283.7 405,-283.7"/>
<polygon fill="none" stroke="#000000" points="405,-283.7 405,-302.7 433,-302.7 433,-283.7 405,-283.7"/>
<text text-anchor="start" x="423.8862" y="-289.8" font-family="Helvetica,sans-Serif" font-size="11.00" fill="#000000"> &#160;</text>
</a>
</g>
</g>
<!-- plan_audit&#45;&gt;audit_revision -->
<g id="edge9" class="edge">
<title>plan_audit:w&#45;&gt;audit_revision:e</title>
<path fill="none" stroke="#000000" d="M309.51,-311.8614C267.2722,-312.9415 246.0216,-320.2048 215,-355.7 166.409,-411.2982 247.8393,-516.7 174,-516.7"/>
<polygon fill="#000000" stroke="#000000" points="316.0005,-311.7891 324.0401,-315.2998 320.0002,-311.7446 324,-311.7 324,-311.7 324,-311.7 320.0002,-311.7446 323.9599,-308.1002 316.0005,-311.7891 316.0005,-311.7891"/>
<ellipse fill="none" stroke="#000000" cx="312.8007" cy="-311.8248" rx="3.2" ry="3.2"/>
</g>
<!-- referral_audit -->
<g id="node11" class="node">
<title>referral_audit</title>
<g id="a_node11"><a xlink:href="../../tables/referral_audit.html" xlink:title="referral_audit" target="_top">
<polygon fill="#ffffff" stroke="transparent" points="312.5,-202.2 312.5,-263.2 443.5,-263.2 443.5,-202.2 312.5,-202.2"/>
<polygon fill="#f5f5f5" stroke="transparent" points="313,-239.7 313,-262.7 444,-262.7 444,-239.7 313,-239.7"/>
<polygon fill="none" stroke="#000000" points="313,-239.7 313,-262.7 444,-262.7 444,-239.7 313,-239.7"/>
<text text-anchor="start" x="318" y="-248.3" font-family="Helvetica,sans-Serif" font-weight="bold" font-size="11.00" fill="#000000">referral_audit</text>
<text text-anchor="start" x="409.5219" y="-247.8" font-family="Helvetica,sans-Serif" font-size="11.00" fill="#000000">[table]</text>
<polygon fill="none" stroke="#000000" points="313,-220.7 313,-239.7 444,-239.7 444,-220.7 313,-220.7"/>
<text text-anchor="start" x="316" y="-226.8" font-family="Helvetica,sans-Serif" font-size="11.00" fill="#000000">...</text>
<polygon fill="#ffffff" stroke="transparent" points="313,-201.7 313,-220.7 377,-220.7 377,-201.7 313,-201.7"/>
<polygon fill="none" stroke="#000000" points="313,-201.7 313,-220.7 377,-220.7 377,-201.7 313,-201.7"/>
<text text-anchor="start" x="316" y="-207.8" font-family="Helvetica,sans-Serif" font-size="11.00" fill="#000000">&lt; 1</text>
<polygon fill="#ffffff" stroke="transparent" points="377,-201.7 377,-220.7 410,-220.7 410,-201.7 377,-201.7"/>
<polygon fill="none" stroke="#000000" points="377,-201.7 377,-220.7 410,-220.7 410,-201.7 377,-201.7"/>
<text text-anchor="start" x="400.8862" y="-207.8" font-family="Helvetica,sans-Serif" font-size="11.00" fill="#000000"> &#160;</text>
<polygon fill="#ffffff" stroke="transparent" points="410,-201.7 410,-220.7 444,-220.7 444,-201.7 410,-201.7"/>
<polygon fill="none" stroke="#000000" points="410,-201.7 410,-220.7 444,-220.7 444,-201.7 410,-201.7"/>
<text text-anchor="start" x="434.8862" y="-207.8" font-family="Helvetica,sans-Serif" font-size="11.00" fill="#000000"> &#160;</text>
</a>
</g>
</g>
<!-- referral_audit&#45;&gt;audit_revision -->
<g id="edge10" class="edge">
<title>referral_audit:w&#45;&gt;audit_revision:e</title>
<path fill="none" stroke="#000000" d="M298.2461,-229.9565C260.5517,-231.4388 241.0028,-240.055 215,-273.7 181.5116,-317.0306 228.7632,-516.7 174,-516.7"/>
<polygon fill="#000000" stroke="#000000" points="305.0012,-229.8391 313.0626,-233.2995 309.0006,-229.7696 313,-229.7 313,-229.7 313,-229.7 309.0006,-229.7696 312.9374,-226.1005 305.0012,-229.8391 305.0012,-229.8391"/>
<ellipse fill="none" stroke="#000000" cx="301.8017" cy="-229.8947" rx="3.2" ry="3.2"/>
</g>
<!-- review_audit -->
<g id="node12" class="node">
<title>review_audit</title>
<g id="a_node12"><a xlink:href="../../tables/review_audit.html" xlink:title="review_audit" target="_top">
<polygon fill="#ffffff" stroke="transparent" points="315.5,-120.2 315.5,-181.2 440.5,-181.2 440.5,-120.2 315.5,-120.2"/>
<polygon fill="#f5f5f5" stroke="transparent" points="316,-157.7 316,-180.7 441,-180.7 441,-157.7 316,-157.7"/>
<polygon fill="none" stroke="#000000" points="316,-157.7 316,-180.7 441,-180.7 441,-157.7 316,-157.7"/>
<text text-anchor="start" x="321" y="-166.3" font-family="Helvetica,sans-Serif" font-weight="bold" font-size="11.00" fill="#000000">review_audit</text>
<text text-anchor="start" x="406.5219" y="-165.8" font-family="Helvetica,sans-Serif" font-size="11.00" fill="#000000">[table]</text>
<polygon fill="none" stroke="#000000" points="316,-138.7 316,-157.7 441,-157.7 441,-138.7 316,-138.7"/>
<text text-anchor="start" x="319" y="-144.8" font-family="Helvetica,sans-Serif" font-size="11.00" fill="#000000">...</text>
<polygon fill="#ffffff" stroke="transparent" points="316,-119.7 316,-138.7 377,-138.7 377,-119.7 316,-119.7"/>
<polygon fill="none" stroke="#000000" points="316,-119.7 316,-138.7 377,-138.7 377,-119.7 316,-119.7"/>
<text text-anchor="start" x="319" y="-125.8" font-family="Helvetica,sans-Serif" font-size="11.00" fill="#000000">&lt; 1</text>
<polygon fill="#ffffff" stroke="transparent" points="377,-119.7 377,-138.7 409,-138.7 409,-119.7 377,-119.7"/>
<polygon fill="none" stroke="#000000" points="377,-119.7 377,-138.7 409,-138.7 409,-119.7 377,-119.7"/>
<text text-anchor="start" x="399.8862" y="-125.8" font-family="Helvetica,sans-Serif" font-size="11.00" fill="#000000"> &#160;</text>
<polygon fill="#ffffff" stroke="transparent" points="409,-119.7 409,-138.7 441,-138.7 441,-119.7 409,-119.7"/>
<polygon fill="none" stroke="#000000" points="409,-119.7 409,-138.7 441,-138.7 441,-119.7 409,-119.7"/>
<text text-anchor="start" x="431.8862" y="-125.8" font-family="Helvetica,sans-Serif" font-size="11.00" fill="#000000"> &#160;</text>
</a>
</g>
</g>
<!-- review_audit&#45;&gt;audit_revision -->
<g id="edge11" class="edge">
<title>review_audit:w&#45;&gt;audit_revision:e</title>
<path fill="none" stroke="#000000" d="M301.3458,-147.8951C262.1764,-149.0963 241.2522,-156.6399 215,-191.7 171.3688,-249.9699 246.7947,-516.7 174,-516.7"/>
<polygon fill="#000000" stroke="#000000" points="308.0007,-147.8065 316.0479,-151.2997 312.0004,-147.7533 316,-147.7 316,-147.7 316,-147.7 312.0004,-147.7533 315.9521,-144.1003 308.0007,-147.8065 308.0007,-147.8065"/>
<ellipse fill="none" stroke="#000000" cx="304.801" cy="-147.8492" rx="3.2" ry="3.2"/>
</g>
<!-- safer_custody_screening_outcome_audit -->
<g id="node13" class="node">
<title>safer_custody_screening_outcome_audit</title>
<g id="a_node13"><a xlink:href="../../tables/safer_custody_screening_outcome_audit.html" xlink:title="safer_custody_screening_outcome_audit" target="_top">
<polygon fill="#ffffff" stroke="transparent" points="223,-38.2 223,-99.2 533,-99.2 533,-38.2 223,-38.2"/>
<polygon fill="#f5f5f5" stroke="transparent" points="223,-75.7 223,-98.7 533,-98.7 533,-75.7 223,-75.7"/>
<polygon fill="none" stroke="#000000" points="223,-75.7 223,-98.7 533,-98.7 533,-75.7 223,-75.7"/>
<text text-anchor="start" x="228" y="-84.3" font-family="Helvetica,sans-Serif" font-weight="bold" font-size="11.00" fill="#000000">safer_custody_screening_outcome_audit</text>
<text text-anchor="start" x="498.5219" y="-83.8" font-family="Helvetica,sans-Serif" font-size="11.00" fill="#000000">[table]</text>
<polygon fill="none" stroke="#000000" points="223,-56.7 223,-75.7 533,-75.7 533,-56.7 223,-56.7"/>
<text text-anchor="start" x="226" y="-62.8" font-family="Helvetica,sans-Serif" font-size="11.00" fill="#000000">...</text>
<polygon fill="#ffffff" stroke="transparent" points="223,-37.7 223,-56.7 376,-56.7 376,-37.7 223,-37.7"/>
<polygon fill="none" stroke="#000000" points="223,-37.7 223,-56.7 376,-56.7 376,-37.7 223,-37.7"/>
<text text-anchor="start" x="226" y="-43.8" font-family="Helvetica,sans-Serif" font-size="11.00" fill="#000000">&lt; 1</text>
<polygon fill="#ffffff" stroke="transparent" points="376,-37.7 376,-56.7 454,-56.7 454,-37.7 376,-37.7"/>
<polygon fill="none" stroke="#000000" points="376,-37.7 376,-56.7 454,-56.7 454,-37.7 376,-37.7"/>
<text text-anchor="start" x="444.8862" y="-43.8" font-family="Helvetica,sans-Serif" font-size="11.00" fill="#000000"> &#160;</text>
<polygon fill="#ffffff" stroke="transparent" points="454,-37.7 454,-56.7 533,-56.7 533,-37.7 454,-37.7"/>
<polygon fill="none" stroke="#000000" points="454,-37.7 454,-56.7 533,-56.7 533,-37.7 454,-37.7"/>
<text text-anchor="start" x="523.8862" y="-43.8" font-family="Helvetica,sans-Serif" font-size="11.00" fill="#000000"> &#160;</text>
</a>
</g>
</g>
<!-- safer_custody_screening_outcome_audit&#45;&gt;audit_revision -->
<g id="edge12" class="edge">
<title>safer_custody_screening_outcome_audit:w&#45;&gt;audit_revision:e</title>
<path fill="none" stroke="#000000" d="M208.6515,-69.5989C138.1233,-113.6793 269.2989,-516.7 174,-516.7"/>
<polygon fill="#000000" stroke="#000000" points="215.2799,-67.7978 223.944,-69.174 219.14,-66.7489 223,-65.7 223,-65.7 223,-65.7 219.14,-66.7489 222.056,-62.226 215.2799,-67.7978 215.2799,-67.7978"/>
<ellipse fill="none" stroke="#000000" cx="212.1919" cy="-68.6369" rx="3.2" ry="3.2"/>
</g>
</g>
</svg>
