<?xml version="1.0" encoding="UTF-8" standalone="no"?>
<!DOCTYPE svg PUBLIC "-//W3C//DTD SVG 1.1//EN"
 "http://www.w3.org/Graphics/SVG/1.1/DTD/svg11.dtd">
<!-- Generated by graphviz version 2.40.1 (20161225.0304)
 -->
<!-- Title: oneDegreeRelationshipsDiagramImplied Pages: 1 -->
<svg width="756pt" height="382pt"
 viewBox="0.00 0.00 756.00 382.20" xmlns="http://www.w3.org/2000/svg" xmlns:xlink="http://www.w3.org/1999/xlink">
<g id="graph0" class="graph" transform="scale(1 1) rotate(0) translate(4 378.2)">
<title>oneDegreeRelationshipsDiagramImplied</title>
<polygon fill="#ffffff" stroke="transparent" points="-4,4 -4,-378.2 752,-378.2 752,4 -4,4"/>
<text text-anchor="middle" x="72.4936" y="-7.3" font-family="Helvetica,sans-Serif" font-size="11.00" fill="#000000">Generated by SchemaSpy</text>
<!-- attendee_audit -->
<g id="node1" class="node">
<title>attendee_audit</title>
<g id="a_node1"><a xlink:href="../../tables/attendee_audit.html" xlink:title="attendee_audit" target="_top">
<polygon fill="#ffffff" stroke="transparent" points="473,-38.2 473,-370.2 740,-370.2 740,-38.2 473,-38.2"/>
<polygon fill="#f5f5f5" stroke="transparent" points="475.5,-345.2 475.5,-368.2 738.5,-368.2 738.5,-345.2 475.5,-345.2"/>
<polygon fill="none" stroke="#000000" points="475.5,-345.2 475.5,-368.2 738.5,-368.2 738.5,-345.2 475.5,-345.2"/>
<text text-anchor="start" x="480.5" y="-353.8" font-family="Helvetica,sans-Serif" font-weight="bold" font-size="11.00" fill="#000000">attendee_audit</text>
<text text-anchor="start" x="703.5437" y="-353.3" font-family="Helvetica,sans-Serif" font-size="11.00" fill="#000000">[table]</text>
<polygon fill="none" stroke="#000000" points="475.5,-323.2 475.5,-345.2 644.5,-345.2 644.5,-323.2 475.5,-323.2"/>
<image xlink:href="../../images/primaryKeys.png" width="11px" height="12px" preserveAspectRatio="xMinYMin meet" x="480.5" y="-340.2"/>
<text text-anchor="start" x="495.5" y="-330.3" font-family="Helvetica,sans-Serif" font-size="11.00" fill="#000000">rev_id</text>
<polygon fill="none" stroke="#000000" points="644.5,-323.2 644.5,-345.2 738.5,-345.2 738.5,-323.2 644.5,-323.2"/>
<text text-anchor="start" x="647.5" y="-330.9" font-family="Helvetica,sans-Serif" font-size="11.00" fill="#000000">int8[19]</text>
<polygon fill="none" stroke="#000000" points="475.5,-301.2 475.5,-323.2 644.5,-323.2 644.5,-301.2 475.5,-301.2"/>
<text text-anchor="start" x="495.5" y="-308.3" font-family="Helvetica,sans-Serif" font-size="11.00" fill="#000000">rev_type</text>
<polygon fill="none" stroke="#000000" points="644.5,-301.2 644.5,-323.2 738.5,-323.2 738.5,-301.2 644.5,-301.2"/>
<text text-anchor="start" x="647.5" y="-308.9" font-family="Helvetica,sans-Serif" font-size="11.00" fill="#000000">int2[5]</text>
<polygon fill="none" stroke="#000000" points="475.5,-279.2 475.5,-301.2 644.5,-301.2 644.5,-279.2 475.5,-279.2"/>
<image xlink:href="../../images/primaryKeys.png" width="11px" height="12px" preserveAspectRatio="xMinYMin meet" x="480.5" y="-296.2"/>
<text text-anchor="start" x="495.5" y="-286.3" font-family="Helvetica,sans-Serif" font-size="11.00" fill="#000000">attendee_id</text>
<polygon fill="none" stroke="#000000" points="644.5,-279.2 644.5,-301.2 738.5,-301.2 738.5,-279.2 644.5,-279.2"/>
<text text-anchor="start" x="647.4758" y="-286.9" font-family="Helvetica,sans-Serif" font-size="11.00" fill="#000000">uuid[2147483647]</text>
<polygon fill="none" stroke="#000000" points="475.5,-257.2 475.5,-279.2 644.5,-279.2 644.5,-257.2 475.5,-257.2"/>
<image xlink:href="../../images/foreignKeys.png" width="11px" height="12px" preserveAspectRatio="xMinYMin meet" x="480.5" y="-274.2"/>
<text text-anchor="start" x="495.5" y="-264.3" font-family="Helvetica,sans-Serif" font-size="11.00" fill="#000000">review_id</text>
<polygon fill="none" stroke="#000000" points="644.5,-257.2 644.5,-279.2 738.5,-279.2 738.5,-257.2 644.5,-257.2"/>
<text text-anchor="start" x="647.4758" y="-264.9" font-family="Helvetica,sans-Serif" font-size="11.00" fill="#000000">uuid[2147483647]</text>
<polygon fill="none" stroke="#000000" points="475.5,-235.2 475.5,-257.2 644.5,-257.2 644.5,-235.2 475.5,-235.2"/>
<text text-anchor="start" x="495.5" y="-242.3" font-family="Helvetica,sans-Serif" font-size="11.00" fill="#000000">name</text>
<polygon fill="none" stroke="#000000" points="644.5,-235.2 644.5,-257.2 738.5,-257.2 738.5,-235.2 644.5,-235.2"/>
<text text-anchor="start" x="647.5" y="-242.9" font-family="Helvetica,sans-Serif" font-size="11.00" fill="#000000">varchar[100]</text>
<polygon fill="none" stroke="#000000" points="475.5,-213.2 475.5,-235.2 644.5,-235.2 644.5,-213.2 475.5,-213.2"/>
<text text-anchor="start" x="495.5" y="-220.3" font-family="Helvetica,sans-Serif" font-size="11.00" fill="#000000">role</text>
<polygon fill="none" stroke="#000000" points="644.5,-213.2 644.5,-235.2 738.5,-235.2 738.5,-213.2 644.5,-213.2"/>
<text text-anchor="start" x="647.5" y="-220.9" font-family="Helvetica,sans-Serif" font-size="11.00" fill="#000000">varchar[50]</text>
<polygon fill="none" stroke="#000000" points="475.5,-191.2 475.5,-213.2 644.5,-213.2 644.5,-191.2 475.5,-191.2"/>
<text text-anchor="start" x="495.5" y="-198.3" font-family="Helvetica,sans-Serif" font-size="11.00" fill="#000000">attended</text>
<polygon fill="none" stroke="#000000" points="644.5,-191.2 644.5,-213.2 738.5,-213.2 738.5,-191.2 644.5,-191.2"/>
<text text-anchor="start" x="647.5" y="-198.9" font-family="Helvetica,sans-Serif" font-size="11.00" fill="#000000">bool[1]</text>
<polygon fill="none" stroke="#000000" points="475.5,-169.2 475.5,-191.2 644.5,-191.2 644.5,-169.2 475.5,-169.2"/>
<text text-anchor="start" x="495.5" y="-176.3" font-family="Helvetica,sans-Serif" font-size="11.00" fill="#000000">contribution</text>
<polygon fill="none" stroke="#000000" points="644.5,-169.2 644.5,-191.2 738.5,-191.2 738.5,-169.2 644.5,-169.2"/>
<text text-anchor="start" x="647.5" y="-176.9" font-family="Helvetica,sans-Serif" font-size="11.00" fill="#000000">text[2147483647]</text>
<polygon fill="none" stroke="#000000" points="475.5,-147.2 475.5,-169.2 644.5,-169.2 644.5,-147.2 475.5,-147.2"/>
<text text-anchor="start" x="495.5" y="-154.3" font-family="Helvetica,sans-Serif" font-size="11.00" fill="#000000">name_modified</text>
<polygon fill="none" stroke="#000000" points="644.5,-147.2 644.5,-169.2 738.5,-169.2 738.5,-147.2 644.5,-147.2"/>
<text text-anchor="start" x="647.5" y="-154.9" font-family="Helvetica,sans-Serif" font-size="11.00" fill="#000000">bool[1]</text>
<polygon fill="none" stroke="#000000" points="475.5,-125.2 475.5,-147.2 644.5,-147.2 644.5,-125.2 475.5,-125.2"/>
<text text-anchor="start" x="495.5" y="-132.3" font-family="Helvetica,sans-Serif" font-size="11.00" fill="#000000">role_modified</text>
<polygon fill="none" stroke="#000000" points="644.5,-125.2 644.5,-147.2 738.5,-147.2 738.5,-125.2 644.5,-125.2"/>
<text text-anchor="start" x="647.5" y="-132.9" font-family="Helvetica,sans-Serif" font-size="11.00" fill="#000000">bool[1]</text>
<polygon fill="none" stroke="#000000" points="475.5,-103.2 475.5,-125.2 644.5,-125.2 644.5,-103.2 475.5,-103.2"/>
<text text-anchor="start" x="495.5" y="-110.3" font-family="Helvetica,sans-Serif" font-size="11.00" fill="#000000">attended_modified</text>
<polygon fill="none" stroke="#000000" points="644.5,-103.2 644.5,-125.2 738.5,-125.2 738.5,-103.2 644.5,-103.2"/>
<text text-anchor="start" x="647.5" y="-110.9" font-family="Helvetica,sans-Serif" font-size="11.00" fill="#000000">bool[1]</text>
<polygon fill="none" stroke="#000000" points="475.5,-81.2 475.5,-103.2 644.5,-103.2 644.5,-81.2 475.5,-81.2"/>
<text text-anchor="start" x="495.5" y="-88.3" font-family="Helvetica,sans-Serif" font-size="11.00" fill="#000000">contribution_modified</text>
<polygon fill="none" stroke="#000000" points="644.5,-81.2 644.5,-103.2 738.5,-103.2 738.5,-81.2 644.5,-81.2"/>
<text text-anchor="start" x="647.5" y="-88.9" font-family="Helvetica,sans-Serif" font-size="11.00" fill="#000000">bool[1]</text>
<polygon fill="none" stroke="#000000" points="475.5,-59.2 475.5,-81.2 644.5,-81.2 644.5,-59.2 475.5,-59.2"/>
<image xlink:href="../../images/foreignKeys.png" width="11px" height="12px" preserveAspectRatio="xMinYMin meet" x="480.5" y="-76.2"/>
<text text-anchor="start" x="495.5" y="-66.3" font-family="Helvetica,sans-Serif" font-size="11.00" fill="#000000">legacy_id</text>
<polygon fill="none" stroke="#000000" points="644.5,-59.2 644.5,-81.2 738.5,-81.2 738.5,-59.2 644.5,-59.2"/>
<text text-anchor="start" x="647.5" y="-66.9" font-family="Helvetica,sans-Serif" font-size="11.00" fill="#000000">int8[19]</text>
<polygon fill="#ffffff" stroke="transparent" points="475.5,-40.2 475.5,-59.2 564.5,-59.2 564.5,-40.2 475.5,-40.2"/>
<polygon fill="none" stroke="#000000" points="475.5,-40.2 475.5,-59.2 564.5,-59.2 564.5,-40.2 475.5,-40.2"/>
<text text-anchor="start" x="478.5" y="-46.3" font-family="Helvetica,sans-Serif" font-size="11.00" fill="#000000">&lt; 3</text>
<polygon fill="#ffffff" stroke="transparent" points="564.5,-40.2 564.5,-59.2 644.5,-59.2 644.5,-40.2 564.5,-40.2"/>
<polygon fill="none" stroke="#000000" points="564.5,-40.2 564.5,-59.2 644.5,-59.2 644.5,-40.2 564.5,-40.2"/>
<text text-anchor="start" x="635.3862" y="-46.3" font-family="Helvetica,sans-Serif" font-size="11.00" fill="#000000"> &#160;</text>
<polygon fill="#ffffff" stroke="transparent" points="644.5,-40.2 644.5,-59.2 738.5,-59.2 738.5,-40.2 644.5,-40.2"/>
<polygon fill="none" stroke="#000000" points="644.5,-40.2 644.5,-59.2 738.5,-59.2 738.5,-40.2 644.5,-40.2"/>
<text text-anchor="start" x="719.9053" y="-46.3" font-family="Helvetica,sans-Serif" font-size="11.00" fill="#000000">0 &gt;</text>
<polygon fill="none" stroke="#000000" stroke-width="2" points="474,-39.2 474,-369.2 739,-369.2 739,-39.2 474,-39.2"/>
</a>
</g>
</g>
<!-- audit_revision -->
<g id="node2" class="node">
<title>audit_revision</title>
<g id="a_node2"><a xlink:href="../../tables/audit_revision.html" xlink:title="audit_revision" target="_top">
<polygon fill="#ffffff" stroke="transparent" points="8,-175.7 8,-258.7 174,-258.7 174,-175.7 8,-175.7"/>
<polygon fill="#f5f5f5" stroke="transparent" points="8,-235.2 8,-258.2 174,-258.2 174,-235.2 8,-235.2"/>
<polygon fill="none" stroke="#000000" points="8,-235.2 8,-258.2 174,-258.2 174,-235.2 8,-235.2"/>
<text text-anchor="start" x="13" y="-243.8" font-family="Helvetica,sans-Serif" font-weight="bold" font-size="11.00" fill="#000000">audit_revision</text>
<text text-anchor="start" x="139.0437" y="-243.3" font-family="Helvetica,sans-Serif" font-size="11.00" fill="#000000">[table]</text>
<polygon fill="none" stroke="#000000" points="8,-213.2 8,-235.2 174,-235.2 174,-213.2 8,-213.2"/>
<image xlink:href="../../images/primaryKeys.png" width="11px" height="12px" preserveAspectRatio="xMinYMin meet" x="13" y="-230.2"/>
<text text-anchor="start" x="28" y="-220.3" font-family="Helvetica,sans-Serif" font-size="11.00" fill="#000000">id</text>
<polygon fill="none" stroke="#000000" points="8,-194.2 8,-213.2 174,-213.2 174,-194.2 8,-194.2"/>
<text text-anchor="start" x="11" y="-200.3" font-family="Helvetica,sans-Serif" font-size="11.00" fill="#000000">...</text>
<polygon fill="#ffffff" stroke="transparent" points="8,-175.2 8,-194.2 77,-194.2 77,-175.2 8,-175.2"/>
<polygon fill="none" stroke="#000000" points="8,-175.2 8,-194.2 77,-194.2 77,-175.2 8,-175.2"/>
<text text-anchor="start" x="11" y="-181.3" font-family="Helvetica,sans-Serif" font-size="11.00" fill="#000000"> &#160;</text>
<polygon fill="#ffffff" stroke="transparent" points="77,-175.2 77,-194.2 118,-194.2 118,-175.2 77,-175.2"/>
<polygon fill="none" stroke="#000000" points="77,-175.2 77,-194.2 118,-194.2 118,-175.2 77,-175.2"/>
<text text-anchor="start" x="108.8862" y="-181.3" font-family="Helvetica,sans-Serif" font-size="11.00" fill="#000000"> &#160;</text>
<polygon fill="#ffffff" stroke="transparent" points="118,-175.2 118,-194.2 174,-194.2 174,-175.2 118,-175.2"/>
<polygon fill="none" stroke="#000000" points="118,-175.2 118,-194.2 174,-194.2 174,-175.2 118,-175.2"/>
<text text-anchor="start" x="149.2904" y="-181.3" font-family="Helvetica,sans-Serif" font-size="11.00" fill="#000000">33 &gt;</text>
</a>
</g>
</g>
<!-- attendee_audit&#45;&gt;audit_revision -->
<g id="edge1" class="edge">
<title>attendee_audit:w&#45;&gt;audit_revision:e</title>
<path fill="none" stroke="#000000" stroke-dasharray="5,2" d="M461.0901,-70.2974C348.9955,-71.8723 308.7043,-92.9858 215,-165.2 189.7074,-184.692 205.932,-224.2 174,-224.2"/>
<polygon fill="#000000" stroke="#000000" points="467.5002,-70.2541 475.5244,-73.7999 471.5001,-70.2271 475.5,-70.2 475.5,-70.2 475.5,-70.2 471.5001,-70.2271 475.4756,-66.6001 467.5002,-70.2541 467.5002,-70.2541"/>
<ellipse fill="none" stroke="#000000" cx="464.3003" cy="-70.2758" rx="3.2" ry="3.2"/>
</g>
<!-- attendee_audit&#45;&gt;audit_revision -->
<g id="edge2" class="edge">
<title>attendee_audit:w&#45;&gt;audit_revision:e</title>
<path fill="none" stroke="#000000" d="M460.8894,-334.4396C355.0397,-337.9049 306.1286,-376.8604 215,-313.2 179.2978,-288.2592 217.551,-224.2 174,-224.2"/>
<polygon fill="#000000" stroke="#000000" points="467.5011,-334.3312 475.5591,-337.7995 471.5005,-334.2656 475.5,-334.2 475.5,-334.2 475.5,-334.2 471.5005,-334.2656 475.4409,-330.6005 467.5011,-334.3312 467.5011,-334.3312"/>
<ellipse fill="none" stroke="#000000" cx="464.3015" cy="-334.3837" rx="3.2" ry="3.2"/>
</g>
<!-- review -->
<g id="node3" class="node">
<title>review</title>
<g id="a_node3"><a xlink:href="../../tables/review.html" xlink:title="review" target="_top">
<polygon fill="#ffffff" stroke="transparent" points="223,-175.7 223,-302.7 424,-302.7 424,-175.7 223,-175.7"/>
<polygon fill="#f5f5f5" stroke="transparent" points="223.5,-279.2 223.5,-302.2 424.5,-302.2 424.5,-279.2 223.5,-279.2"/>
<polygon fill="none" stroke="#000000" points="223.5,-279.2 223.5,-302.2 424.5,-302.2 424.5,-279.2 223.5,-279.2"/>
<text text-anchor="start" x="228.5" y="-287.8" font-family="Helvetica,sans-Serif" font-weight="bold" font-size="11.00" fill="#000000">review</text>
<text text-anchor="start" x="389.5437" y="-287.3" font-family="Helvetica,sans-Serif" font-size="11.00" fill="#000000">[table]</text>
<polygon fill="none" stroke="#000000" points="223.5,-257.2 223.5,-279.2 424.5,-279.2 424.5,-257.2 223.5,-257.2"/>
<image xlink:href="../../images/primaryKeys.png" width="11px" height="12px" preserveAspectRatio="xMinYMin meet" x="228.5" y="-274.2"/>
<text text-anchor="start" x="243.5" y="-264.3" font-family="Helvetica,sans-Serif" font-size="11.00" fill="#000000">review_id</text>
<polygon fill="#ffffff" stroke="transparent" points="223.5,-235.2 223.5,-257.2 424.5,-257.2 424.5,-235.2 223.5,-235.2"/>
<polygon fill="none" stroke="#000000" points="223.5,-235.2 223.5,-257.2 424.5,-257.2 424.5,-235.2 223.5,-235.2"/>
<image xlink:href="../../images/foreignKeys.png" width="11px" height="12px" preserveAspectRatio="xMinYMin meet" x="228.5" y="-252.2"/>
<text text-anchor="start" x="243.5" y="-242.3" font-family="Helvetica,sans-Serif" font-size="11.00" fill="#000000">plan_id</text>
<polygon fill="#ffffff" stroke="transparent" points="223.5,-213.2 223.5,-235.2 424.5,-235.2 424.5,-213.2 223.5,-213.2"/>
<polygon fill="none" stroke="#000000" points="223.5,-213.2 223.5,-235.2 424.5,-235.2 424.5,-213.2 223.5,-213.2"/>
<image xlink:href="../../images/foreignKeys.png" width="11px" height="12px" preserveAspectRatio="xMinYMin meet" x="228.5" y="-230.2"/>
<text text-anchor="start" x="243.5" y="-220.3" font-family="Helvetica,sans-Serif" font-size="11.00" fill="#000000">legacy_id</text>
<polygon fill="none" stroke="#000000" points="223.5,-194.2 223.5,-213.2 424.5,-213.2 424.5,-194.2 223.5,-194.2"/>
<text text-anchor="start" x="226.5" y="-200.3" font-family="Helvetica,sans-Serif" font-size="11.00" fill="#000000">...</text>
<polygon fill="#ffffff" stroke="transparent" points="223.5,-175.2 223.5,-194.2 317.5,-194.2 317.5,-175.2 223.5,-175.2"/>
<polygon fill="none" stroke="#000000" points="223.5,-175.2 223.5,-194.2 317.5,-194.2 317.5,-175.2 223.5,-175.2"/>
<text text-anchor="start" x="226.5" y="-181.3" font-family="Helvetica,sans-Serif" font-size="11.00" fill="#000000">&lt; 2</text>
<polygon fill="#ffffff" stroke="transparent" points="317.5,-175.2 317.5,-194.2 366.5,-194.2 366.5,-175.2 317.5,-175.2"/>
<polygon fill="none" stroke="#000000" points="317.5,-175.2 317.5,-194.2 366.5,-194.2 366.5,-175.2 317.5,-175.2"/>
<text text-anchor="start" x="357.3862" y="-181.3" font-family="Helvetica,sans-Serif" font-size="11.00" fill="#000000"> &#160;</text>
<polygon fill="#ffffff" stroke="transparent" points="366.5,-175.2 366.5,-194.2 424.5,-194.2 424.5,-175.2 366.5,-175.2"/>
<polygon fill="none" stroke="#000000" points="366.5,-175.2 366.5,-194.2 424.5,-194.2 424.5,-175.2 366.5,-175.2"/>
<text text-anchor="start" x="405.9053" y="-181.3" font-family="Helvetica,sans-Serif" font-size="11.00" fill="#000000">2 &gt;</text>
</a>
</g>
</g>
<!-- attendee_audit&#45;&gt;review -->
<g id="edge3" class="edge">
<title>attendee_audit:w&#45;&gt;review:e</title>
<path fill="none" stroke="#000000" stroke-dasharray="5,2" d="M460.776,-268.2C448.7815,-268.2 441.3229,-268.2 424.5,-268.2"/>
<polygon fill="#000000" stroke="#000000" points="467.5,-268.2001 475.5,-271.8 471.5,-268.2 475.5,-268.2 475.5,-268.2 475.5,-268.2 471.5,-268.2 475.5,-264.6 467.5,-268.2001 467.5,-268.2001"/>
<ellipse fill="none" stroke="#000000" cx="464.3" cy="-268.2001" rx="3.2" ry="3.2"/>
</g>
<!-- review&#45;&gt;audit_revision -->
<g id="edge4" class="edge">
<title>review:w&#45;&gt;audit_revision:e</title>
<path fill="none" stroke="#000000" stroke-dasharray="5,2" d="M213.0474,-224.2C198.9907,-224.2 192.0469,-224.2 174,-224.2"/>
<polygon fill="#000000" stroke="#000000" points="222.7,-220.2 222.7,-228.2 221.1,-228.2 221.1,-220.2 222.7,-220.2"/>
<polyline fill="none" stroke="#000000" points="223.5,-224.2 219.5,-224.2 "/>
<ellipse fill="none" stroke="#000000" cx="216.3" cy="-224.2001" rx="3.2" ry="3.2"/>
</g>
</g>
</svg>
