<?xml version="1.0" encoding="UTF-8" standalone="no"?>
<!DOCTYPE svg PUBLIC "-//W3C//DTD SVG 1.1//EN"
 "http://www.w3.org/Graphics/SVG/1.1/DTD/svg11.dtd">
<!-- Generated by graphviz version 2.40.1 (20161225.0304)
 -->
<!-- Title: oneDegreeRelationshipsDiagram Pages: 1 -->
<svg width="506pt" height="382pt"
 viewBox="0.00 0.00 506.00 382.20" xmlns="http://www.w3.org/2000/svg" xmlns:xlink="http://www.w3.org/1999/xlink">
<g id="graph0" class="graph" transform="scale(1 1) rotate(0) translate(4 378.2)">
<title>oneDegreeRelationshipsDiagram</title>
<polygon fill="#ffffff" stroke="transparent" points="-4,4 -4,-378.2 502,-378.2 502,4 -4,4"/>
<text text-anchor="middle" x="72.4936" y="-7.3" font-family="Helvetica,sans-Serif" font-size="11.00" fill="#000000">Generated by SchemaSpy</text>
<!-- attendee_audit -->
<g id="node1" class="node">
<title>attendee_audit</title>
<g id="a_node1"><a xlink:href="../../tables/attendee_audit.html" xlink:title="attendee_audit" target="_top">
<polygon fill="#ffffff" stroke="transparent" points="223,-38.2 223,-370.2 490,-370.2 490,-38.2 223,-38.2"/>
<polygon fill="#f5f5f5" stroke="transparent" points="225.5,-345.2 225.5,-368.2 488.5,-368.2 488.5,-345.2 225.5,-345.2"/>
<polygon fill="none" stroke="#000000" points="225.5,-345.2 225.5,-368.2 488.5,-368.2 488.5,-345.2 225.5,-345.2"/>
<text text-anchor="start" x="230.5" y="-353.8" font-family="Helvetica,sans-Serif" font-weight="bold" font-size="11.00" fill="#000000">attendee_audit</text>
<text text-anchor="start" x="453.5437" y="-353.3" font-family="Helvetica,sans-Serif" font-size="11.00" fill="#000000">[table]</text>
<polygon fill="none" stroke="#000000" points="225.5,-323.2 225.5,-345.2 394.5,-345.2 394.5,-323.2 225.5,-323.2"/>
<image xlink:href="../../images/primaryKeys.png" width="11px" height="12px" preserveAspectRatio="xMinYMin meet" x="230.5" y="-340.2"/>
<text text-anchor="start" x="245.5" y="-330.3" font-family="Helvetica,sans-Serif" font-size="11.00" fill="#000000">rev_id</text>
<polygon fill="none" stroke="#000000" points="394.5,-323.2 394.5,-345.2 488.5,-345.2 488.5,-323.2 394.5,-323.2"/>
<text text-anchor="start" x="397.5" y="-330.9" font-family="Helvetica,sans-Serif" font-size="11.00" fill="#000000">int8[19]</text>
<polygon fill="none" stroke="#000000" points="225.5,-301.2 225.5,-323.2 394.5,-323.2 394.5,-301.2 225.5,-301.2"/>
<text text-anchor="start" x="245.5" y="-308.3" font-family="Helvetica,sans-Serif" font-size="11.00" fill="#000000">rev_type</text>
<polygon fill="none" stroke="#000000" points="394.5,-301.2 394.5,-323.2 488.5,-323.2 488.5,-301.2 394.5,-301.2"/>
<text text-anchor="start" x="397.5" y="-308.9" font-family="Helvetica,sans-Serif" font-size="11.00" fill="#000000">int2[5]</text>
<polygon fill="none" stroke="#000000" points="225.5,-279.2 225.5,-301.2 394.5,-301.2 394.5,-279.2 225.5,-279.2"/>
<image xlink:href="../../images/primaryKeys.png" width="11px" height="12px" preserveAspectRatio="xMinYMin meet" x="230.5" y="-296.2"/>
<text text-anchor="start" x="245.5" y="-286.3" font-family="Helvetica,sans-Serif" font-size="11.00" fill="#000000">attendee_id</text>
<polygon fill="none" stroke="#000000" points="394.5,-279.2 394.5,-301.2 488.5,-301.2 488.5,-279.2 394.5,-279.2"/>
<text text-anchor="start" x="397.4758" y="-286.9" font-family="Helvetica,sans-Serif" font-size="11.00" fill="#000000">uuid[2147483647]</text>
<polygon fill="none" stroke="#000000" points="225.5,-257.2 225.5,-279.2 394.5,-279.2 394.5,-257.2 225.5,-257.2"/>
<image xlink:href="../../images/foreignKeys.png" width="11px" height="12px" preserveAspectRatio="xMinYMin meet" x="230.5" y="-274.2"/>
<text text-anchor="start" x="245.5" y="-264.3" font-family="Helvetica,sans-Serif" font-size="11.00" fill="#000000">review_id</text>
<polygon fill="none" stroke="#000000" points="394.5,-257.2 394.5,-279.2 488.5,-279.2 488.5,-257.2 394.5,-257.2"/>
<text text-anchor="start" x="397.4758" y="-264.9" font-family="Helvetica,sans-Serif" font-size="11.00" fill="#000000">uuid[2147483647]</text>
<polygon fill="none" stroke="#000000" points="225.5,-235.2 225.5,-257.2 394.5,-257.2 394.5,-235.2 225.5,-235.2"/>
<text text-anchor="start" x="245.5" y="-242.3" font-family="Helvetica,sans-Serif" font-size="11.00" fill="#000000">name</text>
<polygon fill="none" stroke="#000000" points="394.5,-235.2 394.5,-257.2 488.5,-257.2 488.5,-235.2 394.5,-235.2"/>
<text text-anchor="start" x="397.5" y="-242.9" font-family="Helvetica,sans-Serif" font-size="11.00" fill="#000000">varchar[100]</text>
<polygon fill="none" stroke="#000000" points="225.5,-213.2 225.5,-235.2 394.5,-235.2 394.5,-213.2 225.5,-213.2"/>
<text text-anchor="start" x="245.5" y="-220.3" font-family="Helvetica,sans-Serif" font-size="11.00" fill="#000000">role</text>
<polygon fill="none" stroke="#000000" points="394.5,-213.2 394.5,-235.2 488.5,-235.2 488.5,-213.2 394.5,-213.2"/>
<text text-anchor="start" x="397.5" y="-220.9" font-family="Helvetica,sans-Serif" font-size="11.00" fill="#000000">varchar[50]</text>
<polygon fill="none" stroke="#000000" points="225.5,-191.2 225.5,-213.2 394.5,-213.2 394.5,-191.2 225.5,-191.2"/>
<text text-anchor="start" x="245.5" y="-198.3" font-family="Helvetica,sans-Serif" font-size="11.00" fill="#000000">attended</text>
<polygon fill="none" stroke="#000000" points="394.5,-191.2 394.5,-213.2 488.5,-213.2 488.5,-191.2 394.5,-191.2"/>
<text text-anchor="start" x="397.5" y="-198.9" font-family="Helvetica,sans-Serif" font-size="11.00" fill="#000000">bool[1]</text>
<polygon fill="none" stroke="#000000" points="225.5,-169.2 225.5,-191.2 394.5,-191.2 394.5,-169.2 225.5,-169.2"/>
<text text-anchor="start" x="245.5" y="-176.3" font-family="Helvetica,sans-Serif" font-size="11.00" fill="#000000">contribution</text>
<polygon fill="none" stroke="#000000" points="394.5,-169.2 394.5,-191.2 488.5,-191.2 488.5,-169.2 394.5,-169.2"/>
<text text-anchor="start" x="397.5" y="-176.9" font-family="Helvetica,sans-Serif" font-size="11.00" fill="#000000">text[2147483647]</text>
<polygon fill="none" stroke="#000000" points="225.5,-147.2 225.5,-169.2 394.5,-169.2 394.5,-147.2 225.5,-147.2"/>
<text text-anchor="start" x="245.5" y="-154.3" font-family="Helvetica,sans-Serif" font-size="11.00" fill="#000000">name_modified</text>
<polygon fill="none" stroke="#000000" points="394.5,-147.2 394.5,-169.2 488.5,-169.2 488.5,-147.2 394.5,-147.2"/>
<text text-anchor="start" x="397.5" y="-154.9" font-family="Helvetica,sans-Serif" font-size="11.00" fill="#000000">bool[1]</text>
<polygon fill="none" stroke="#000000" points="225.5,-125.2 225.5,-147.2 394.5,-147.2 394.5,-125.2 225.5,-125.2"/>
<text text-anchor="start" x="245.5" y="-132.3" font-family="Helvetica,sans-Serif" font-size="11.00" fill="#000000">role_modified</text>
<polygon fill="none" stroke="#000000" points="394.5,-125.2 394.5,-147.2 488.5,-147.2 488.5,-125.2 394.5,-125.2"/>
<text text-anchor="start" x="397.5" y="-132.9" font-family="Helvetica,sans-Serif" font-size="11.00" fill="#000000">bool[1]</text>
<polygon fill="none" stroke="#000000" points="225.5,-103.2 225.5,-125.2 394.5,-125.2 394.5,-103.2 225.5,-103.2"/>
<text text-anchor="start" x="245.5" y="-110.3" font-family="Helvetica,sans-Serif" font-size="11.00" fill="#000000">attended_modified</text>
<polygon fill="none" stroke="#000000" points="394.5,-103.2 394.5,-125.2 488.5,-125.2 488.5,-103.2 394.5,-103.2"/>
<text text-anchor="start" x="397.5" y="-110.9" font-family="Helvetica,sans-Serif" font-size="11.00" fill="#000000">bool[1]</text>
<polygon fill="none" stroke="#000000" points="225.5,-81.2 225.5,-103.2 394.5,-103.2 394.5,-81.2 225.5,-81.2"/>
<text text-anchor="start" x="245.5" y="-88.3" font-family="Helvetica,sans-Serif" font-size="11.00" fill="#000000">contribution_modified</text>
<polygon fill="none" stroke="#000000" points="394.5,-81.2 394.5,-103.2 488.5,-103.2 488.5,-81.2 394.5,-81.2"/>
<text text-anchor="start" x="397.5" y="-88.9" font-family="Helvetica,sans-Serif" font-size="11.00" fill="#000000">bool[1]</text>
<polygon fill="none" stroke="#000000" points="225.5,-59.2 225.5,-81.2 394.5,-81.2 394.5,-59.2 225.5,-59.2"/>
<image xlink:href="../../images/foreignKeys.png" width="11px" height="12px" preserveAspectRatio="xMinYMin meet" x="230.5" y="-76.2"/>
<text text-anchor="start" x="245.5" y="-66.3" font-family="Helvetica,sans-Serif" font-size="11.00" fill="#000000">legacy_id</text>
<polygon fill="none" stroke="#000000" points="394.5,-59.2 394.5,-81.2 488.5,-81.2 488.5,-59.2 394.5,-59.2"/>
<text text-anchor="start" x="397.5" y="-66.9" font-family="Helvetica,sans-Serif" font-size="11.00" fill="#000000">int8[19]</text>
<polygon fill="#ffffff" stroke="transparent" points="225.5,-40.2 225.5,-59.2 314.5,-59.2 314.5,-40.2 225.5,-40.2"/>
<polygon fill="none" stroke="#000000" points="225.5,-40.2 225.5,-59.2 314.5,-59.2 314.5,-40.2 225.5,-40.2"/>
<text text-anchor="start" x="228.5" y="-46.3" font-family="Helvetica,sans-Serif" font-size="11.00" fill="#000000">&lt; 1</text>
<polygon fill="#ffffff" stroke="transparent" points="314.5,-40.2 314.5,-59.2 394.5,-59.2 394.5,-40.2 314.5,-40.2"/>
<polygon fill="none" stroke="#000000" points="314.5,-40.2 314.5,-59.2 394.5,-59.2 394.5,-40.2 314.5,-40.2"/>
<text text-anchor="start" x="385.3862" y="-46.3" font-family="Helvetica,sans-Serif" font-size="11.00" fill="#000000"> &#160;</text>
<polygon fill="#ffffff" stroke="transparent" points="394.5,-40.2 394.5,-59.2 488.5,-59.2 488.5,-40.2 394.5,-40.2"/>
<polygon fill="none" stroke="#000000" points="394.5,-40.2 394.5,-59.2 488.5,-59.2 488.5,-40.2 394.5,-40.2"/>
<text text-anchor="start" x="469.9053" y="-46.3" font-family="Helvetica,sans-Serif" font-size="11.00" fill="#000000">0 &gt;</text>
<polygon fill="none" stroke="#000000" stroke-width="2" points="224,-39.2 224,-369.2 489,-369.2 489,-39.2 224,-39.2"/>
</a>
</g>
</g>
<!-- audit_revision -->
<g id="node2" class="node">
<title>audit_revision</title>
<g id="a_node2"><a xlink:href="../../tables/audit_revision.html" xlink:title="audit_revision" target="_top">
<polygon fill="#ffffff" stroke="transparent" points="8,-285.7 8,-368.7 174,-368.7 174,-285.7 8,-285.7"/>
<polygon fill="#f5f5f5" stroke="transparent" points="8,-345.2 8,-368.2 174,-368.2 174,-345.2 8,-345.2"/>
<polygon fill="none" stroke="#000000" points="8,-345.2 8,-368.2 174,-368.2 174,-345.2 8,-345.2"/>
<text text-anchor="start" x="13" y="-353.8" font-family="Helvetica,sans-Serif" font-weight="bold" font-size="11.00" fill="#000000">audit_revision</text>
<text text-anchor="start" x="139.0437" y="-353.3" font-family="Helvetica,sans-Serif" font-size="11.00" fill="#000000">[table]</text>
<polygon fill="none" stroke="#000000" points="8,-323.2 8,-345.2 174,-345.2 174,-323.2 8,-323.2"/>
<image xlink:href="../../images/primaryKeys.png" width="11px" height="12px" preserveAspectRatio="xMinYMin meet" x="13" y="-340.2"/>
<text text-anchor="start" x="28" y="-330.3" font-family="Helvetica,sans-Serif" font-size="11.00" fill="#000000">id</text>
<polygon fill="none" stroke="#000000" points="8,-304.2 8,-323.2 174,-323.2 174,-304.2 8,-304.2"/>
<text text-anchor="start" x="11" y="-310.3" font-family="Helvetica,sans-Serif" font-size="11.00" fill="#000000">...</text>
<polygon fill="#ffffff" stroke="transparent" points="8,-285.2 8,-304.2 77,-304.2 77,-285.2 8,-285.2"/>
<polygon fill="none" stroke="#000000" points="8,-285.2 8,-304.2 77,-304.2 77,-285.2 8,-285.2"/>
<text text-anchor="start" x="11" y="-291.3" font-family="Helvetica,sans-Serif" font-size="11.00" fill="#000000"> &#160;</text>
<polygon fill="#ffffff" stroke="transparent" points="77,-285.2 77,-304.2 118,-304.2 118,-285.2 77,-285.2"/>
<polygon fill="none" stroke="#000000" points="77,-285.2 77,-304.2 118,-304.2 118,-285.2 77,-285.2"/>
<text text-anchor="start" x="108.8862" y="-291.3" font-family="Helvetica,sans-Serif" font-size="11.00" fill="#000000"> &#160;</text>
<polygon fill="#ffffff" stroke="transparent" points="118,-285.2 118,-304.2 174,-304.2 174,-285.2 118,-285.2"/>
<polygon fill="none" stroke="#000000" points="118,-285.2 118,-304.2 174,-304.2 174,-285.2 118,-285.2"/>
<text text-anchor="start" x="149.2904" y="-291.3" font-family="Helvetica,sans-Serif" font-size="11.00" fill="#000000">11 &gt;</text>
</a>
</g>
</g>
<!-- attendee_audit&#45;&gt;audit_revision -->
<g id="edge1" class="edge">
<title>attendee_audit:w&#45;&gt;audit_revision:e</title>
<path fill="none" stroke="#000000" d="M211.0156,-334.2C198.6771,-334.2 191.1667,-334.2 174,-334.2"/>
<polygon fill="#000000" stroke="#000000" points="217.5,-334.2001 225.5,-337.8 221.5,-334.2 225.5,-334.2 225.5,-334.2 225.5,-334.2 221.5,-334.2 225.5,-330.6 217.5,-334.2001 217.5,-334.2001"/>
<ellipse fill="none" stroke="#000000" cx="214.3" cy="-334.2001" rx="3.2" ry="3.2"/>
</g>
</g>
</svg>
