<?xml version="1.0" encoding="UTF-8" standalone="no"?>
<!DOCTYPE svg PUBLIC "-//W3C//DTD SVG 1.1//EN"
 "http://www.w3.org/Graphics/SVG/1.1/DTD/svg11.dtd">
<!-- Generated by graphviz version 2.40.1 (20161225.0304)
 -->
<!-- Title: twoDegreesRelationshipsDiagram Pages: 1 -->
<svg width="549pt" height="1203pt"
 viewBox="0.00 0.00 549.00 1202.70" xmlns="http://www.w3.org/2000/svg" xmlns:xlink="http://www.w3.org/1999/xlink">
<g id="graph0" class="graph" transform="scale(1 1) rotate(0) translate(4 1198.7)">
<title>twoDegreesRelationshipsDiagram</title>
<polygon fill="#ffffff" stroke="transparent" points="-4,4 -4,-1198.7 545,-1198.7 545,4 -4,4"/>
<text text-anchor="middle" x="72.4936" y="-7.3" font-family="Helvetica,sans-Serif" font-size="11.00" fill="#000000">Generated by SchemaSpy</text>
<!-- attendee_audit -->
<g id="node1" class="node">
<title>attendee_audit</title>
<g id="a_node1"><a xlink:href="../../tables/attendee_audit.html" xlink:title="attendee_audit" target="_top">
<polygon fill="#ffffff" stroke="transparent" points="244.5,-858.7 244.5,-1190.7 511.5,-1190.7 511.5,-858.7 244.5,-858.7"/>
<polygon fill="#f5f5f5" stroke="transparent" points="247,-1165.7 247,-1188.7 510,-1188.7 510,-1165.7 247,-1165.7"/>
<polygon fill="none" stroke="#000000" points="247,-1165.7 247,-1188.7 510,-1188.7 510,-1165.7 247,-1165.7"/>
<text text-anchor="start" x="252" y="-1174.3" font-family="Helvetica,sans-Serif" font-weight="bold" font-size="11.00" fill="#000000">attendee_audit</text>
<text text-anchor="start" x="475.0437" y="-1173.8" font-family="Helvetica,sans-Serif" font-size="11.00" fill="#000000">[table]</text>
<polygon fill="none" stroke="#000000" points="247,-1143.7 247,-1165.7 416,-1165.7 416,-1143.7 247,-1143.7"/>
<image xlink:href="../../images/primaryKeys.png" width="11px" height="12px" preserveAspectRatio="xMinYMin meet" x="252" y="-1160.7"/>
<text text-anchor="start" x="267" y="-1150.8" font-family="Helvetica,sans-Serif" font-size="11.00" fill="#000000">rev_id</text>
<polygon fill="none" stroke="#000000" points="416,-1143.7 416,-1165.7 510,-1165.7 510,-1143.7 416,-1143.7"/>
<text text-anchor="start" x="419" y="-1151.4" font-family="Helvetica,sans-Serif" font-size="11.00" fill="#000000">int8[19]</text>
<polygon fill="none" stroke="#000000" points="247,-1121.7 247,-1143.7 416,-1143.7 416,-1121.7 247,-1121.7"/>
<text text-anchor="start" x="267" y="-1128.8" font-family="Helvetica,sans-Serif" font-size="11.00" fill="#000000">rev_type</text>
<polygon fill="none" stroke="#000000" points="416,-1121.7 416,-1143.7 510,-1143.7 510,-1121.7 416,-1121.7"/>
<text text-anchor="start" x="419" y="-1129.4" font-family="Helvetica,sans-Serif" font-size="11.00" fill="#000000">int2[5]</text>
<polygon fill="none" stroke="#000000" points="247,-1099.7 247,-1121.7 416,-1121.7 416,-1099.7 247,-1099.7"/>
<image xlink:href="../../images/primaryKeys.png" width="11px" height="12px" preserveAspectRatio="xMinYMin meet" x="252" y="-1116.7"/>
<text text-anchor="start" x="267" y="-1106.8" font-family="Helvetica,sans-Serif" font-size="11.00" fill="#000000">attendee_id</text>
<polygon fill="none" stroke="#000000" points="416,-1099.7 416,-1121.7 510,-1121.7 510,-1099.7 416,-1099.7"/>
<text text-anchor="start" x="418.9758" y="-1107.4" font-family="Helvetica,sans-Serif" font-size="11.00" fill="#000000">uuid[2147483647]</text>
<polygon fill="none" stroke="#000000" points="247,-1077.7 247,-1099.7 416,-1099.7 416,-1077.7 247,-1077.7"/>
<image xlink:href="../../images/foreignKeys.png" width="11px" height="12px" preserveAspectRatio="xMinYMin meet" x="252" y="-1094.7"/>
<text text-anchor="start" x="267" y="-1084.8" font-family="Helvetica,sans-Serif" font-size="11.00" fill="#000000">review_id</text>
<polygon fill="none" stroke="#000000" points="416,-1077.7 416,-1099.7 510,-1099.7 510,-1077.7 416,-1077.7"/>
<text text-anchor="start" x="418.9758" y="-1085.4" font-family="Helvetica,sans-Serif" font-size="11.00" fill="#000000">uuid[2147483647]</text>
<polygon fill="none" stroke="#000000" points="247,-1055.7 247,-1077.7 416,-1077.7 416,-1055.7 247,-1055.7"/>
<text text-anchor="start" x="267" y="-1062.8" font-family="Helvetica,sans-Serif" font-size="11.00" fill="#000000">name</text>
<polygon fill="none" stroke="#000000" points="416,-1055.7 416,-1077.7 510,-1077.7 510,-1055.7 416,-1055.7"/>
<text text-anchor="start" x="419" y="-1063.4" font-family="Helvetica,sans-Serif" font-size="11.00" fill="#000000">varchar[100]</text>
<polygon fill="none" stroke="#000000" points="247,-1033.7 247,-1055.7 416,-1055.7 416,-1033.7 247,-1033.7"/>
<text text-anchor="start" x="267" y="-1040.8" font-family="Helvetica,sans-Serif" font-size="11.00" fill="#000000">role</text>
<polygon fill="none" stroke="#000000" points="416,-1033.7 416,-1055.7 510,-1055.7 510,-1033.7 416,-1033.7"/>
<text text-anchor="start" x="419" y="-1041.4" font-family="Helvetica,sans-Serif" font-size="11.00" fill="#000000">varchar[50]</text>
<polygon fill="none" stroke="#000000" points="247,-1011.7 247,-1033.7 416,-1033.7 416,-1011.7 247,-1011.7"/>
<text text-anchor="start" x="267" y="-1018.8" font-family="Helvetica,sans-Serif" font-size="11.00" fill="#000000">attended</text>
<polygon fill="none" stroke="#000000" points="416,-1011.7 416,-1033.7 510,-1033.7 510,-1011.7 416,-1011.7"/>
<text text-anchor="start" x="419" y="-1019.4" font-family="Helvetica,sans-Serif" font-size="11.00" fill="#000000">bool[1]</text>
<polygon fill="none" stroke="#000000" points="247,-989.7 247,-1011.7 416,-1011.7 416,-989.7 247,-989.7"/>
<text text-anchor="start" x="267" y="-996.8" font-family="Helvetica,sans-Serif" font-size="11.00" fill="#000000">contribution</text>
<polygon fill="none" stroke="#000000" points="416,-989.7 416,-1011.7 510,-1011.7 510,-989.7 416,-989.7"/>
<text text-anchor="start" x="419" y="-997.4" font-family="Helvetica,sans-Serif" font-size="11.00" fill="#000000">text[2147483647]</text>
<polygon fill="none" stroke="#000000" points="247,-967.7 247,-989.7 416,-989.7 416,-967.7 247,-967.7"/>
<text text-anchor="start" x="267" y="-974.8" font-family="Helvetica,sans-Serif" font-size="11.00" fill="#000000">name_modified</text>
<polygon fill="none" stroke="#000000" points="416,-967.7 416,-989.7 510,-989.7 510,-967.7 416,-967.7"/>
<text text-anchor="start" x="419" y="-975.4" font-family="Helvetica,sans-Serif" font-size="11.00" fill="#000000">bool[1]</text>
<polygon fill="none" stroke="#000000" points="247,-945.7 247,-967.7 416,-967.7 416,-945.7 247,-945.7"/>
<text text-anchor="start" x="267" y="-952.8" font-family="Helvetica,sans-Serif" font-size="11.00" fill="#000000">role_modified</text>
<polygon fill="none" stroke="#000000" points="416,-945.7 416,-967.7 510,-967.7 510,-945.7 416,-945.7"/>
<text text-anchor="start" x="419" y="-953.4" font-family="Helvetica,sans-Serif" font-size="11.00" fill="#000000">bool[1]</text>
<polygon fill="none" stroke="#000000" points="247,-923.7 247,-945.7 416,-945.7 416,-923.7 247,-923.7"/>
<text text-anchor="start" x="267" y="-930.8" font-family="Helvetica,sans-Serif" font-size="11.00" fill="#000000">attended_modified</text>
<polygon fill="none" stroke="#000000" points="416,-923.7 416,-945.7 510,-945.7 510,-923.7 416,-923.7"/>
<text text-anchor="start" x="419" y="-931.4" font-family="Helvetica,sans-Serif" font-size="11.00" fill="#000000">bool[1]</text>
<polygon fill="none" stroke="#000000" points="247,-901.7 247,-923.7 416,-923.7 416,-901.7 247,-901.7"/>
<text text-anchor="start" x="267" y="-908.8" font-family="Helvetica,sans-Serif" font-size="11.00" fill="#000000">contribution_modified</text>
<polygon fill="none" stroke="#000000" points="416,-901.7 416,-923.7 510,-923.7 510,-901.7 416,-901.7"/>
<text text-anchor="start" x="419" y="-909.4" font-family="Helvetica,sans-Serif" font-size="11.00" fill="#000000">bool[1]</text>
<polygon fill="none" stroke="#000000" points="247,-879.7 247,-901.7 416,-901.7 416,-879.7 247,-879.7"/>
<image xlink:href="../../images/foreignKeys.png" width="11px" height="12px" preserveAspectRatio="xMinYMin meet" x="252" y="-896.7"/>
<text text-anchor="start" x="267" y="-886.8" font-family="Helvetica,sans-Serif" font-size="11.00" fill="#000000">legacy_id</text>
<polygon fill="none" stroke="#000000" points="416,-879.7 416,-901.7 510,-901.7 510,-879.7 416,-879.7"/>
<text text-anchor="start" x="419" y="-887.4" font-family="Helvetica,sans-Serif" font-size="11.00" fill="#000000">int8[19]</text>
<polygon fill="#ffffff" stroke="transparent" points="247,-860.7 247,-879.7 336,-879.7 336,-860.7 247,-860.7"/>
<polygon fill="none" stroke="#000000" points="247,-860.7 247,-879.7 336,-879.7 336,-860.7 247,-860.7"/>
<text text-anchor="start" x="250" y="-866.8" font-family="Helvetica,sans-Serif" font-size="11.00" fill="#000000">&lt; 1</text>
<polygon fill="#ffffff" stroke="transparent" points="336,-860.7 336,-879.7 416,-879.7 416,-860.7 336,-860.7"/>
<polygon fill="none" stroke="#000000" points="336,-860.7 336,-879.7 416,-879.7 416,-860.7 336,-860.7"/>
<text text-anchor="start" x="406.8862" y="-866.8" font-family="Helvetica,sans-Serif" font-size="11.00" fill="#000000"> &#160;</text>
<polygon fill="#ffffff" stroke="transparent" points="416,-860.7 416,-879.7 510,-879.7 510,-860.7 416,-860.7"/>
<polygon fill="none" stroke="#000000" points="416,-860.7 416,-879.7 510,-879.7 510,-860.7 416,-860.7"/>
<text text-anchor="start" x="491.4053" y="-866.8" font-family="Helvetica,sans-Serif" font-size="11.00" fill="#000000">0 &gt;</text>
<polygon fill="none" stroke="#000000" stroke-width="2" points="245.5,-859.7 245.5,-1189.7 510.5,-1189.7 510.5,-859.7 245.5,-859.7"/>
</a>
</g>
</g>
<!-- audit_revision -->
<g id="node2" class="node">
<title>audit_revision</title>
<g id="a_node2"><a xlink:href="../../tables/audit_revision.html" xlink:title="audit_revision" target="_top">
<polygon fill="#ffffff" stroke="transparent" points="8,-427.2 8,-510.2 174,-510.2 174,-427.2 8,-427.2"/>
<polygon fill="#f5f5f5" stroke="transparent" points="8,-486.7 8,-509.7 174,-509.7 174,-486.7 8,-486.7"/>
<polygon fill="none" stroke="#000000" points="8,-486.7 8,-509.7 174,-509.7 174,-486.7 8,-486.7"/>
<text text-anchor="start" x="13" y="-495.3" font-family="Helvetica,sans-Serif" font-weight="bold" font-size="11.00" fill="#000000">audit_revision</text>
<text text-anchor="start" x="139.0437" y="-494.8" font-family="Helvetica,sans-Serif" font-size="11.00" fill="#000000">[table]</text>
<polygon fill="none" stroke="#000000" points="8,-464.7 8,-486.7 174,-486.7 174,-464.7 8,-464.7"/>
<image xlink:href="../../images/primaryKeys.png" width="11px" height="12px" preserveAspectRatio="xMinYMin meet" x="13" y="-481.7"/>
<text text-anchor="start" x="28" y="-471.8" font-family="Helvetica,sans-Serif" font-size="11.00" fill="#000000">id</text>
<polygon fill="none" stroke="#000000" points="8,-445.7 8,-464.7 174,-464.7 174,-445.7 8,-445.7"/>
<text text-anchor="start" x="11" y="-451.8" font-family="Helvetica,sans-Serif" font-size="11.00" fill="#000000">...</text>
<polygon fill="#ffffff" stroke="transparent" points="8,-426.7 8,-445.7 77,-445.7 77,-426.7 8,-426.7"/>
<polygon fill="none" stroke="#000000" points="8,-426.7 8,-445.7 77,-445.7 77,-426.7 8,-426.7"/>
<text text-anchor="start" x="11" y="-432.8" font-family="Helvetica,sans-Serif" font-size="11.00" fill="#000000"> &#160;</text>
<polygon fill="#ffffff" stroke="transparent" points="77,-426.7 77,-445.7 118,-445.7 118,-426.7 77,-426.7"/>
<polygon fill="none" stroke="#000000" points="77,-426.7 77,-445.7 118,-445.7 118,-426.7 77,-426.7"/>
<text text-anchor="start" x="108.8862" y="-432.8" font-family="Helvetica,sans-Serif" font-size="11.00" fill="#000000"> &#160;</text>
<polygon fill="#ffffff" stroke="transparent" points="118,-426.7 118,-445.7 174,-445.7 174,-426.7 118,-426.7"/>
<polygon fill="none" stroke="#000000" points="118,-426.7 118,-445.7 174,-445.7 174,-426.7 118,-426.7"/>
<text text-anchor="start" x="149.2904" y="-432.8" font-family="Helvetica,sans-Serif" font-size="11.00" fill="#000000">11 &gt;</text>
</a>
</g>
</g>
<!-- attendee_audit&#45;&gt;audit_revision -->
<g id="edge1" class="edge">
<title>attendee_audit:w&#45;&gt;audit_revision:e</title>
<path fill="none" stroke="#000000" d="M234.5093,-1147.0745C180.3615,-1072.4773 245.1368,-475.7 174,-475.7"/>
<polygon fill="#000000" stroke="#000000" points="240.1719,-1150.5314 245.1242,-1157.7727 243.5859,-1152.6157 247,-1154.7 247,-1154.7 247,-1154.7 243.5859,-1152.6157 248.8758,-1151.6273 240.1719,-1150.5314 240.1719,-1150.5314"/>
<ellipse fill="none" stroke="#000000" cx="237.4406" cy="-1148.864" rx="3.2" ry="3.2"/>
</g>
<!-- contributory_factor_audit -->
<g id="node3" class="node">
<title>contributory_factor_audit</title>
<g id="a_node3"><a xlink:href="../../tables/contributory_factor_audit.html" xlink:title="contributory_factor_audit" target="_top">
<polygon fill="#ffffff" stroke="transparent" points="273,-776.2 273,-837.2 483,-837.2 483,-776.2 273,-776.2"/>
<polygon fill="#f5f5f5" stroke="transparent" points="273,-813.7 273,-836.7 483,-836.7 483,-813.7 273,-813.7"/>
<polygon fill="none" stroke="#000000" points="273,-813.7 273,-836.7 483,-836.7 483,-813.7 273,-813.7"/>
<text text-anchor="start" x="278" y="-822.3" font-family="Helvetica,sans-Serif" font-weight="bold" font-size="11.00" fill="#000000">contributory_factor_audit</text>
<text text-anchor="start" x="448.5219" y="-821.8" font-family="Helvetica,sans-Serif" font-size="11.00" fill="#000000">[table]</text>
<polygon fill="none" stroke="#000000" points="273,-794.7 273,-813.7 483,-813.7 483,-794.7 273,-794.7"/>
<text text-anchor="start" x="276" y="-800.8" font-family="Helvetica,sans-Serif" font-size="11.00" fill="#000000">...</text>
<polygon fill="#ffffff" stroke="transparent" points="273,-775.7 273,-794.7 376,-794.7 376,-775.7 273,-775.7"/>
<polygon fill="none" stroke="#000000" points="273,-775.7 273,-794.7 376,-794.7 376,-775.7 273,-775.7"/>
<text text-anchor="start" x="276" y="-781.8" font-family="Helvetica,sans-Serif" font-size="11.00" fill="#000000">&lt; 1</text>
<polygon fill="#ffffff" stroke="transparent" points="376,-775.7 376,-794.7 429,-794.7 429,-775.7 376,-775.7"/>
<polygon fill="none" stroke="#000000" points="376,-775.7 376,-794.7 429,-794.7 429,-775.7 376,-775.7"/>
<text text-anchor="start" x="419.8862" y="-781.8" font-family="Helvetica,sans-Serif" font-size="11.00" fill="#000000"> &#160;</text>
<polygon fill="#ffffff" stroke="transparent" points="429,-775.7 429,-794.7 483,-794.7 483,-775.7 429,-775.7"/>
<polygon fill="none" stroke="#000000" points="429,-775.7 429,-794.7 483,-794.7 483,-775.7 429,-775.7"/>
<text text-anchor="start" x="473.8862" y="-781.8" font-family="Helvetica,sans-Serif" font-size="11.00" fill="#000000"> &#160;</text>
</a>
</g>
</g>
<!-- contributory_factor_audit&#45;&gt;audit_revision -->
<g id="edge2" class="edge">
<title>contributory_factor_audit:w&#45;&gt;audit_revision:e</title>
<path fill="none" stroke="#000000" d="M258.4753,-802.5781C238.2518,-799.0539 228.6131,-787.1445 215,-765.7 180.1182,-710.7513 239.0853,-475.7 174,-475.7"/>
<polygon fill="#000000" stroke="#000000" points="265.0238,-803.0839 272.7227,-807.2893 269.0119,-803.3919 273,-803.7 273,-803.7 273,-803.7 269.0119,-803.3919 273.2773,-800.1107 265.0238,-803.0839 265.0238,-803.0839"/>
<ellipse fill="none" stroke="#000000" cx="261.8333" cy="-802.8374" rx="3.2" ry="3.2"/>
</g>
<!-- csip_record_audit -->
<g id="node4" class="node">
<title>csip_record_audit</title>
<g id="a_node4"><a xlink:href="../../tables/csip_record_audit.html" xlink:title="csip_record_audit" target="_top">
<polygon fill="#ffffff" stroke="transparent" points="300,-694.2 300,-755.2 456,-755.2 456,-694.2 300,-694.2"/>
<polygon fill="#f5f5f5" stroke="transparent" points="300,-731.7 300,-754.7 456,-754.7 456,-731.7 300,-731.7"/>
<polygon fill="none" stroke="#000000" points="300,-731.7 300,-754.7 456,-754.7 456,-731.7 300,-731.7"/>
<text text-anchor="start" x="305" y="-740.3" font-family="Helvetica,sans-Serif" font-weight="bold" font-size="11.00" fill="#000000">csip_record_audit</text>
<text text-anchor="start" x="421.5219" y="-739.8" font-family="Helvetica,sans-Serif" font-size="11.00" fill="#000000">[table]</text>
<polygon fill="none" stroke="#000000" points="300,-712.7 300,-731.7 456,-731.7 456,-712.7 300,-712.7"/>
<text text-anchor="start" x="303" y="-718.8" font-family="Helvetica,sans-Serif" font-size="11.00" fill="#000000">...</text>
<polygon fill="#ffffff" stroke="transparent" points="300,-693.7 300,-712.7 376,-712.7 376,-693.7 300,-693.7"/>
<polygon fill="none" stroke="#000000" points="300,-693.7 300,-712.7 376,-712.7 376,-693.7 300,-693.7"/>
<text text-anchor="start" x="303" y="-699.8" font-family="Helvetica,sans-Serif" font-size="11.00" fill="#000000">&lt; 1</text>
<polygon fill="#ffffff" stroke="transparent" points="376,-693.7 376,-712.7 416,-712.7 416,-693.7 376,-693.7"/>
<polygon fill="none" stroke="#000000" points="376,-693.7 376,-712.7 416,-712.7 416,-693.7 376,-693.7"/>
<text text-anchor="start" x="406.8862" y="-699.8" font-family="Helvetica,sans-Serif" font-size="11.00" fill="#000000"> &#160;</text>
<polygon fill="#ffffff" stroke="transparent" points="416,-693.7 416,-712.7 456,-712.7 456,-693.7 416,-693.7"/>
<polygon fill="none" stroke="#000000" points="416,-693.7 416,-712.7 456,-712.7 456,-693.7 416,-693.7"/>
<text text-anchor="start" x="446.8862" y="-699.8" font-family="Helvetica,sans-Serif" font-size="11.00" fill="#000000"> &#160;</text>
</a>
</g>
</g>
<!-- csip_record_audit&#45;&gt;audit_revision -->
<g id="edge3" class="edge">
<title>csip_record_audit:w&#45;&gt;audit_revision:e</title>
<path fill="none" stroke="#000000" d="M285.5241,-721.3949C254.0347,-719.8749 237.556,-712.0245 215,-683.7 156.3038,-609.9926 268.2233,-475.7 174,-475.7"/>
<polygon fill="#000000" stroke="#000000" points="292.0018,-721.5314 299.9241,-725.2992 296.0009,-721.6157 300,-721.7 300,-721.7 300,-721.7 296.0009,-721.6157 300.0759,-718.1008 292.0018,-721.5314 292.0018,-721.5314"/>
<ellipse fill="none" stroke="#000000" cx="288.8025" cy="-721.4639" rx="3.2" ry="3.2"/>
</g>
<!-- decision_and_actions_audit -->
<g id="node5" class="node">
<title>decision_and_actions_audit</title>
<g id="a_node5"><a xlink:href="../../tables/decision_and_actions_audit.html" xlink:title="decision_and_actions_audit" target="_top">
<polygon fill="#ffffff" stroke="transparent" points="267,-612.2 267,-673.2 489,-673.2 489,-612.2 267,-612.2"/>
<polygon fill="#f5f5f5" stroke="transparent" points="267,-649.7 267,-672.7 489,-672.7 489,-649.7 267,-649.7"/>
<polygon fill="none" stroke="#000000" points="267,-649.7 267,-672.7 489,-672.7 489,-649.7 267,-649.7"/>
<text text-anchor="start" x="272" y="-658.3" font-family="Helvetica,sans-Serif" font-weight="bold" font-size="11.00" fill="#000000">decision_and_actions_audit</text>
<text text-anchor="start" x="454.5219" y="-657.8" font-family="Helvetica,sans-Serif" font-size="11.00" fill="#000000">[table]</text>
<polygon fill="none" stroke="#000000" points="267,-630.7 267,-649.7 489,-649.7 489,-630.7 267,-630.7"/>
<text text-anchor="start" x="270" y="-636.8" font-family="Helvetica,sans-Serif" font-size="11.00" fill="#000000">...</text>
<polygon fill="#ffffff" stroke="transparent" points="267,-611.7 267,-630.7 376,-630.7 376,-611.7 267,-611.7"/>
<polygon fill="none" stroke="#000000" points="267,-611.7 267,-630.7 376,-630.7 376,-611.7 267,-611.7"/>
<text text-anchor="start" x="270" y="-617.8" font-family="Helvetica,sans-Serif" font-size="11.00" fill="#000000">&lt; 1</text>
<polygon fill="#ffffff" stroke="transparent" points="376,-611.7 376,-630.7 432,-630.7 432,-611.7 376,-611.7"/>
<polygon fill="none" stroke="#000000" points="376,-611.7 376,-630.7 432,-630.7 432,-611.7 376,-611.7"/>
<text text-anchor="start" x="422.8862" y="-617.8" font-family="Helvetica,sans-Serif" font-size="11.00" fill="#000000"> &#160;</text>
<polygon fill="#ffffff" stroke="transparent" points="432,-611.7 432,-630.7 489,-630.7 489,-611.7 432,-611.7"/>
<polygon fill="none" stroke="#000000" points="432,-611.7 432,-630.7 489,-630.7 489,-611.7 432,-611.7"/>
<text text-anchor="start" x="479.8862" y="-617.8" font-family="Helvetica,sans-Serif" font-size="11.00" fill="#000000"> &#160;</text>
</a>
</g>
</g>
<!-- decision_and_actions_audit&#45;&gt;audit_revision -->
<g id="edge4" class="edge">
<title>decision_and_actions_audit:w&#45;&gt;audit_revision:e</title>
<path fill="none" stroke="#000000" d="M252.5105,-638.0519C235.4163,-633.5912 228.5172,-620.3504 215,-601.7 180.4408,-554.0166 232.8901,-475.7 174,-475.7"/>
<polygon fill="#000000" stroke="#000000" points="259.0513,-638.7958 266.5931,-643.2769 263.0256,-639.2479 267,-639.7 267,-639.7 267,-639.7 263.0256,-639.2479 267.4069,-636.1231 259.0513,-638.7958 259.0513,-638.7958"/>
<ellipse fill="none" stroke="#000000" cx="255.8718" cy="-638.4341" rx="3.2" ry="3.2"/>
</g>
<!-- identified_need_audit -->
<g id="node6" class="node">
<title>identified_need_audit</title>
<g id="a_node6"><a xlink:href="../../tables/identified_need_audit.html" xlink:title="identified_need_audit" target="_top">
<polygon fill="#ffffff" stroke="transparent" points="286,-530.2 286,-591.2 470,-591.2 470,-530.2 286,-530.2"/>
<polygon fill="#f5f5f5" stroke="transparent" points="286,-567.7 286,-590.7 470,-590.7 470,-567.7 286,-567.7"/>
<polygon fill="none" stroke="#000000" points="286,-567.7 286,-590.7 470,-590.7 470,-567.7 286,-567.7"/>
<text text-anchor="start" x="291" y="-576.3" font-family="Helvetica,sans-Serif" font-weight="bold" font-size="11.00" fill="#000000">identified_need_audit</text>
<text text-anchor="start" x="435.5219" y="-575.8" font-family="Helvetica,sans-Serif" font-size="11.00" fill="#000000">[table]</text>
<polygon fill="none" stroke="#000000" points="286,-548.7 286,-567.7 470,-567.7 470,-548.7 286,-548.7"/>
<text text-anchor="start" x="289" y="-554.8" font-family="Helvetica,sans-Serif" font-size="11.00" fill="#000000">...</text>
<polygon fill="#ffffff" stroke="transparent" points="286,-529.7 286,-548.7 376,-548.7 376,-529.7 286,-529.7"/>
<polygon fill="none" stroke="#000000" points="286,-529.7 286,-548.7 376,-548.7 376,-529.7 286,-529.7"/>
<text text-anchor="start" x="289" y="-535.8" font-family="Helvetica,sans-Serif" font-size="11.00" fill="#000000">&lt; 1</text>
<polygon fill="#ffffff" stroke="transparent" points="376,-529.7 376,-548.7 423,-548.7 423,-529.7 376,-529.7"/>
<polygon fill="none" stroke="#000000" points="376,-529.7 376,-548.7 423,-548.7 423,-529.7 376,-529.7"/>
<text text-anchor="start" x="413.8862" y="-535.8" font-family="Helvetica,sans-Serif" font-size="11.00" fill="#000000"> &#160;</text>
<polygon fill="#ffffff" stroke="transparent" points="423,-529.7 423,-548.7 470,-548.7 470,-529.7 423,-529.7"/>
<polygon fill="none" stroke="#000000" points="423,-529.7 423,-548.7 470,-548.7 470,-529.7 423,-529.7"/>
<text text-anchor="start" x="460.8862" y="-535.8" font-family="Helvetica,sans-Serif" font-size="11.00" fill="#000000"> &#160;</text>
</a>
</g>
</g>
<!-- identified_need_audit&#45;&gt;audit_revision -->
<g id="edge5" class="edge">
<title>identified_need_audit:w&#45;&gt;audit_revision:e</title>
<path fill="none" stroke="#000000" d="M271.4792,-556.6114C247.6233,-552.6424 239.0404,-538.2061 215,-519.7 193.8193,-503.3952 200.7296,-475.7 174,-475.7"/>
<polygon fill="#000000" stroke="#000000" points="278.0224,-557.1019 285.7309,-561.2899 282.0112,-557.4009 286,-557.7 286,-557.7 286,-557.7 282.0112,-557.4009 286.2691,-554.1101 278.0224,-557.1019 278.0224,-557.1019"/>
<ellipse fill="none" stroke="#000000" cx="274.8313" cy="-556.8627" rx="3.2" ry="3.2"/>
</g>
<!-- interview_audit -->
<g id="node7" class="node">
<title>interview_audit</title>
<g id="a_node7"><a xlink:href="../../tables/interview_audit.html" xlink:title="interview_audit" target="_top">
<polygon fill="#ffffff" stroke="transparent" points="306.5,-448.2 306.5,-509.2 449.5,-509.2 449.5,-448.2 306.5,-448.2"/>
<polygon fill="#f5f5f5" stroke="transparent" points="307,-485.7 307,-508.7 450,-508.7 450,-485.7 307,-485.7"/>
<polygon fill="none" stroke="#000000" points="307,-485.7 307,-508.7 450,-508.7 450,-485.7 307,-485.7"/>
<text text-anchor="start" x="312" y="-494.3" font-family="Helvetica,sans-Serif" font-weight="bold" font-size="11.00" fill="#000000">interview_audit</text>
<text text-anchor="start" x="415.5219" y="-493.8" font-family="Helvetica,sans-Serif" font-size="11.00" fill="#000000">[table]</text>
<polygon fill="none" stroke="#000000" points="307,-466.7 307,-485.7 450,-485.7 450,-466.7 307,-466.7"/>
<text text-anchor="start" x="310" y="-472.8" font-family="Helvetica,sans-Serif" font-size="11.00" fill="#000000">...</text>
<polygon fill="#ffffff" stroke="transparent" points="307,-447.7 307,-466.7 377,-466.7 377,-447.7 307,-447.7"/>
<polygon fill="none" stroke="#000000" points="307,-447.7 307,-466.7 377,-466.7 377,-447.7 307,-447.7"/>
<text text-anchor="start" x="310" y="-453.8" font-family="Helvetica,sans-Serif" font-size="11.00" fill="#000000">&lt; 1</text>
<polygon fill="#ffffff" stroke="transparent" points="377,-447.7 377,-466.7 413,-466.7 413,-447.7 377,-447.7"/>
<polygon fill="none" stroke="#000000" points="377,-447.7 377,-466.7 413,-466.7 413,-447.7 377,-447.7"/>
<text text-anchor="start" x="403.8862" y="-453.8" font-family="Helvetica,sans-Serif" font-size="11.00" fill="#000000"> &#160;</text>
<polygon fill="#ffffff" stroke="transparent" points="413,-447.7 413,-466.7 450,-466.7 450,-447.7 413,-447.7"/>
<polygon fill="none" stroke="#000000" points="413,-447.7 413,-466.7 450,-466.7 450,-447.7 413,-447.7"/>
<text text-anchor="start" x="440.8862" y="-453.8" font-family="Helvetica,sans-Serif" font-size="11.00" fill="#000000"> &#160;</text>
</a>
</g>
</g>
<!-- interview_audit&#45;&gt;audit_revision -->
<g id="edge6" class="edge">
<title>interview_audit:w&#45;&gt;audit_revision:e</title>
<path fill="none" stroke="#000000" d="M292.3813,-475.7C244.9488,-475.7 227.9158,-475.7 174,-475.7"/>
<polygon fill="#000000" stroke="#000000" points="299,-475.7001 307,-479.3 303,-475.7 307,-475.7 307,-475.7 307,-475.7 303,-475.7 307,-472.1 299,-475.7001 299,-475.7001"/>
<ellipse fill="none" stroke="#000000" cx="295.8" cy="-475.7001" rx="3.2" ry="3.2"/>
</g>
<!-- investigation_audit -->
<g id="node8" class="node">
<title>investigation_audit</title>
<g id="a_node8"><a xlink:href="../../tables/investigation_audit.html" xlink:title="investigation_audit" target="_top">
<polygon fill="#ffffff" stroke="transparent" points="293.5,-366.2 293.5,-427.2 462.5,-427.2 462.5,-366.2 293.5,-366.2"/>
<polygon fill="#f5f5f5" stroke="transparent" points="294,-403.7 294,-426.7 463,-426.7 463,-403.7 294,-403.7"/>
<polygon fill="none" stroke="#000000" points="294,-403.7 294,-426.7 463,-426.7 463,-403.7 294,-403.7"/>
<text text-anchor="start" x="299" y="-412.3" font-family="Helvetica,sans-Serif" font-weight="bold" font-size="11.00" fill="#000000">investigation_audit</text>
<text text-anchor="start" x="428.5219" y="-411.8" font-family="Helvetica,sans-Serif" font-size="11.00" fill="#000000">[table]</text>
<polygon fill="none" stroke="#000000" points="294,-384.7 294,-403.7 463,-403.7 463,-384.7 294,-384.7"/>
<text text-anchor="start" x="297" y="-390.8" font-family="Helvetica,sans-Serif" font-size="11.00" fill="#000000">...</text>
<polygon fill="#ffffff" stroke="transparent" points="294,-365.7 294,-384.7 377,-384.7 377,-365.7 294,-365.7"/>
<polygon fill="none" stroke="#000000" points="294,-365.7 294,-384.7 377,-384.7 377,-365.7 294,-365.7"/>
<text text-anchor="start" x="297" y="-371.8" font-family="Helvetica,sans-Serif" font-size="11.00" fill="#000000">&lt; 1</text>
<polygon fill="#ffffff" stroke="transparent" points="377,-365.7 377,-384.7 420,-384.7 420,-365.7 377,-365.7"/>
<polygon fill="none" stroke="#000000" points="377,-365.7 377,-384.7 420,-384.7 420,-365.7 377,-365.7"/>
<text text-anchor="start" x="410.8862" y="-371.8" font-family="Helvetica,sans-Serif" font-size="11.00" fill="#000000"> &#160;</text>
<polygon fill="#ffffff" stroke="transparent" points="420,-365.7 420,-384.7 463,-384.7 463,-365.7 420,-365.7"/>
<polygon fill="none" stroke="#000000" points="420,-365.7 420,-384.7 463,-384.7 463,-365.7 420,-365.7"/>
<text text-anchor="start" x="453.8862" y="-371.8" font-family="Helvetica,sans-Serif" font-size="11.00" fill="#000000"> &#160;</text>
</a>
</g>
</g>
<!-- investigation_audit&#45;&gt;audit_revision -->
<g id="edge7" class="edge">
<title>investigation_audit:w&#45;&gt;audit_revision:e</title>
<path fill="none" stroke="#000000" d="M279.2635,-394.7997C251.6015,-399.3365 243.0793,-417.3212 215,-437.7 194.8923,-452.2934 198.8452,-475.7 174,-475.7"/>
<polygon fill="#000000" stroke="#000000" points="286.0222,-394.2954 294.2679,-397.29 290.0111,-393.9977 294,-393.7 294,-393.7 294,-393.7 290.0111,-393.9977 293.7321,-390.11 286.0222,-394.2954 286.0222,-394.2954"/>
<ellipse fill="none" stroke="#000000" cx="282.8311" cy="-394.5335" rx="3.2" ry="3.2"/>
</g>
<!-- plan_audit -->
<g id="node9" class="node">
<title>plan_audit</title>
<g id="a_node9"><a xlink:href="../../tables/plan_audit.html" xlink:title="plan_audit" target="_top">
<polygon fill="#ffffff" stroke="transparent" points="323.5,-284.2 323.5,-345.2 432.5,-345.2 432.5,-284.2 323.5,-284.2"/>
<polygon fill="#f5f5f5" stroke="transparent" points="324,-321.7 324,-344.7 433,-344.7 433,-321.7 324,-321.7"/>
<polygon fill="none" stroke="#000000" points="324,-321.7 324,-344.7 433,-344.7 433,-321.7 324,-321.7"/>
<text text-anchor="start" x="329" y="-330.3" font-family="Helvetica,sans-Serif" font-weight="bold" font-size="11.00" fill="#000000">plan_audit</text>
<text text-anchor="start" x="398.5219" y="-329.8" font-family="Helvetica,sans-Serif" font-size="11.00" fill="#000000">[table]</text>
<polygon fill="none" stroke="#000000" points="324,-302.7 324,-321.7 433,-321.7 433,-302.7 324,-302.7"/>
<text text-anchor="start" x="327" y="-308.8" font-family="Helvetica,sans-Serif" font-size="11.00" fill="#000000">...</text>
<polygon fill="#ffffff" stroke="transparent" points="324,-283.7 324,-302.7 377,-302.7 377,-283.7 324,-283.7"/>
<polygon fill="none" stroke="#000000" points="324,-283.7 324,-302.7 377,-302.7 377,-283.7 324,-283.7"/>
<text text-anchor="start" x="327" y="-289.8" font-family="Helvetica,sans-Serif" font-size="11.00" fill="#000000">&lt; 1</text>
<polygon fill="#ffffff" stroke="transparent" points="377,-283.7 377,-302.7 405,-302.7 405,-283.7 377,-283.7"/>
<polygon fill="none" stroke="#000000" points="377,-283.7 377,-302.7 405,-302.7 405,-283.7 377,-283.7"/>
<text text-anchor="start" x="395.8862" y="-289.8" font-family="Helvetica,sans-Serif" font-size="11.00" fill="#000000"> &#160;</text>
<polygon fill="#ffffff" stroke="transparent" points="405,-283.7 405,-302.7 433,-302.7 433,-283.7 405,-283.7"/>
<polygon fill="none" stroke="#000000" points="405,-283.7 405,-302.7 433,-302.7 433,-283.7 405,-283.7"/>
<text text-anchor="start" x="423.8862" y="-289.8" font-family="Helvetica,sans-Serif" font-size="11.00" fill="#000000"> &#160;</text>
</a>
</g>
</g>
<!-- plan_audit&#45;&gt;audit_revision -->
<g id="edge8" class="edge">
<title>plan_audit:w&#45;&gt;audit_revision:e</title>
<path fill="none" stroke="#000000" d="M309.5498,-311.8976C267.5442,-313.1889 247.4141,-321.4717 215,-355.7 176.2465,-396.6226 230.3604,-475.7 174,-475.7"/>
<polygon fill="#000000" stroke="#000000" points="316.0007,-311.8094 324.0493,-315.2997 320.0004,-311.7547 324,-311.7 324,-311.7 324,-311.7 320.0004,-311.7547 323.9507,-308.1003 316.0007,-311.8094 316.0007,-311.8094"/>
<ellipse fill="none" stroke="#000000" cx="312.801" cy="-311.8532" rx="3.2" ry="3.2"/>
</g>
<!-- referral_audit -->
<g id="node10" class="node">
<title>referral_audit</title>
<g id="a_node10"><a xlink:href="../../tables/referral_audit.html" xlink:title="referral_audit" target="_top">
<polygon fill="#ffffff" stroke="transparent" points="312.5,-202.2 312.5,-263.2 443.5,-263.2 443.5,-202.2 312.5,-202.2"/>
<polygon fill="#f5f5f5" stroke="transparent" points="313,-239.7 313,-262.7 444,-262.7 444,-239.7 313,-239.7"/>
<polygon fill="none" stroke="#000000" points="313,-239.7 313,-262.7 444,-262.7 444,-239.7 313,-239.7"/>
<text text-anchor="start" x="318" y="-248.3" font-family="Helvetica,sans-Serif" font-weight="bold" font-size="11.00" fill="#000000">referral_audit</text>
<text text-anchor="start" x="409.5219" y="-247.8" font-family="Helvetica,sans-Serif" font-size="11.00" fill="#000000">[table]</text>
<polygon fill="none" stroke="#000000" points="313,-220.7 313,-239.7 444,-239.7 444,-220.7 313,-220.7"/>
<text text-anchor="start" x="316" y="-226.8" font-family="Helvetica,sans-Serif" font-size="11.00" fill="#000000">...</text>
<polygon fill="#ffffff" stroke="transparent" points="313,-201.7 313,-220.7 377,-220.7 377,-201.7 313,-201.7"/>
<polygon fill="none" stroke="#000000" points="313,-201.7 313,-220.7 377,-220.7 377,-201.7 313,-201.7"/>
<text text-anchor="start" x="316" y="-207.8" font-family="Helvetica,sans-Serif" font-size="11.00" fill="#000000">&lt; 1</text>
<polygon fill="#ffffff" stroke="transparent" points="377,-201.7 377,-220.7 410,-220.7 410,-201.7 377,-201.7"/>
<polygon fill="none" stroke="#000000" points="377,-201.7 377,-220.7 410,-220.7 410,-201.7 377,-201.7"/>
<text text-anchor="start" x="400.8862" y="-207.8" font-family="Helvetica,sans-Serif" font-size="11.00" fill="#000000"> &#160;</text>
<polygon fill="#ffffff" stroke="transparent" points="410,-201.7 410,-220.7 444,-220.7 444,-201.7 410,-201.7"/>
<polygon fill="none" stroke="#000000" points="410,-201.7 410,-220.7 444,-220.7 444,-201.7 410,-201.7"/>
<text text-anchor="start" x="434.8862" y="-207.8" font-family="Helvetica,sans-Serif" font-size="11.00" fill="#000000"> &#160;</text>
</a>
</g>
</g>
<!-- referral_audit&#45;&gt;audit_revision -->
<g id="edge9" class="edge">
<title>referral_audit:w&#45;&gt;audit_revision:e</title>
<path fill="none" stroke="#000000" d="M298.2659,-229.9721C260.6727,-231.5339 241.5561,-240.4899 215,-273.7 157.7884,-345.2467 265.6084,-475.7 174,-475.7"/>
<polygon fill="#000000" stroke="#000000" points="305.0014,-229.8478 313.0665,-233.2994 309.0007,-229.7739 313,-229.7 313,-229.7 313,-229.7 309.0007,-229.7739 312.9335,-226.1006 305.0014,-229.8478 305.0014,-229.8478"/>
<ellipse fill="none" stroke="#000000" cx="301.8019" cy="-229.9069" rx="3.2" ry="3.2"/>
</g>
<!-- review_audit -->
<g id="node11" class="node">
<title>review_audit</title>
<g id="a_node11"><a xlink:href="../../tables/review_audit.html" xlink:title="review_audit" target="_top">
<polygon fill="#ffffff" stroke="transparent" points="315.5,-120.2 315.5,-181.2 440.5,-181.2 440.5,-120.2 315.5,-120.2"/>
<polygon fill="#f5f5f5" stroke="transparent" points="316,-157.7 316,-180.7 441,-180.7 441,-157.7 316,-157.7"/>
<polygon fill="none" stroke="#000000" points="316,-157.7 316,-180.7 441,-180.7 441,-157.7 316,-157.7"/>
<text text-anchor="start" x="321" y="-166.3" font-family="Helvetica,sans-Serif" font-weight="bold" font-size="11.00" fill="#000000">review_audit</text>
<text text-anchor="start" x="406.5219" y="-165.8" font-family="Helvetica,sans-Serif" font-size="11.00" fill="#000000">[table]</text>
<polygon fill="none" stroke="#000000" points="316,-138.7 316,-157.7 441,-157.7 441,-138.7 316,-138.7"/>
<text text-anchor="start" x="319" y="-144.8" font-family="Helvetica,sans-Serif" font-size="11.00" fill="#000000">...</text>
<polygon fill="#ffffff" stroke="transparent" points="316,-119.7 316,-138.7 377,-138.7 377,-119.7 316,-119.7"/>
<polygon fill="none" stroke="#000000" points="316,-119.7 316,-138.7 377,-138.7 377,-119.7 316,-119.7"/>
<text text-anchor="start" x="319" y="-125.8" font-family="Helvetica,sans-Serif" font-size="11.00" fill="#000000">&lt; 1</text>
<polygon fill="#ffffff" stroke="transparent" points="377,-119.7 377,-138.7 409,-138.7 409,-119.7 377,-119.7"/>
<polygon fill="none" stroke="#000000" points="377,-119.7 377,-138.7 409,-138.7 409,-119.7 377,-119.7"/>
<text text-anchor="start" x="399.8862" y="-125.8" font-family="Helvetica,sans-Serif" font-size="11.00" fill="#000000"> &#160;</text>
<polygon fill="#ffffff" stroke="transparent" points="409,-119.7 409,-138.7 441,-138.7 441,-119.7 409,-119.7"/>
<polygon fill="none" stroke="#000000" points="409,-119.7 409,-138.7 441,-138.7 441,-119.7 409,-119.7"/>
<text text-anchor="start" x="431.8862" y="-125.8" font-family="Helvetica,sans-Serif" font-size="11.00" fill="#000000"> &#160;</text>
</a>
</g>
</g>
<!-- review_audit&#45;&gt;audit_revision -->
<g id="edge10" class="edge">
<title>review_audit:w&#45;&gt;audit_revision:e</title>
<path fill="none" stroke="#000000" d="M301.3562,-147.903C262.2423,-149.1461 241.5647,-156.876 215,-191.7 176.3258,-242.3984 237.7654,-475.7 174,-475.7"/>
<polygon fill="#000000" stroke="#000000" points="308.0008,-147.8109 316.0499,-151.2997 312.0004,-147.7555 316,-147.7 316,-147.7 316,-147.7 312.0004,-147.7555 315.9501,-144.1003 308.0008,-147.8109 308.0008,-147.8109"/>
<ellipse fill="none" stroke="#000000" cx="304.8011" cy="-147.8553" rx="3.2" ry="3.2"/>
</g>
<!-- safer_custody_screening_outcome_audit -->
<g id="node12" class="node">
<title>safer_custody_screening_outcome_audit</title>
<g id="a_node12"><a xlink:href="../../tables/safer_custody_screening_outcome_audit.html" xlink:title="safer_custody_screening_outcome_audit" target="_top">
<polygon fill="#ffffff" stroke="transparent" points="223,-38.2 223,-99.2 533,-99.2 533,-38.2 223,-38.2"/>
<polygon fill="#f5f5f5" stroke="transparent" points="223,-75.7 223,-98.7 533,-98.7 533,-75.7 223,-75.7"/>
<polygon fill="none" stroke="#000000" points="223,-75.7 223,-98.7 533,-98.7 533,-75.7 223,-75.7"/>
<text text-anchor="start" x="228" y="-84.3" font-family="Helvetica,sans-Serif" font-weight="bold" font-size="11.00" fill="#000000">safer_custody_screening_outcome_audit</text>
<text text-anchor="start" x="498.5219" y="-83.8" font-family="Helvetica,sans-Serif" font-size="11.00" fill="#000000">[table]</text>
<polygon fill="none" stroke="#000000" points="223,-56.7 223,-75.7 533,-75.7 533,-56.7 223,-56.7"/>
<text text-anchor="start" x="226" y="-62.8" font-family="Helvetica,sans-Serif" font-size="11.00" fill="#000000">...</text>
<polygon fill="#ffffff" stroke="transparent" points="223,-37.7 223,-56.7 376,-56.7 376,-37.7 223,-37.7"/>
<polygon fill="none" stroke="#000000" points="223,-37.7 223,-56.7 376,-56.7 376,-37.7 223,-37.7"/>
<text text-anchor="start" x="226" y="-43.8" font-family="Helvetica,sans-Serif" font-size="11.00" fill="#000000">&lt; 1</text>
<polygon fill="#ffffff" stroke="transparent" points="376,-37.7 376,-56.7 454,-56.7 454,-37.7 376,-37.7"/>
<polygon fill="none" stroke="#000000" points="376,-37.7 376,-56.7 454,-56.7 454,-37.7 376,-37.7"/>
<text text-anchor="start" x="444.8862" y="-43.8" font-family="Helvetica,sans-Serif" font-size="11.00" fill="#000000"> &#160;</text>
<polygon fill="#ffffff" stroke="transparent" points="454,-37.7 454,-56.7 533,-56.7 533,-37.7 454,-37.7"/>
<polygon fill="none" stroke="#000000" points="454,-37.7 454,-56.7 533,-56.7 533,-37.7 454,-37.7"/>
<text text-anchor="start" x="523.8862" y="-43.8" font-family="Helvetica,sans-Serif" font-size="11.00" fill="#000000"> &#160;</text>
</a>
</g>
</g>
<!-- safer_custody_screening_outcome_audit&#45;&gt;audit_revision -->
<g id="edge11" class="edge">
<title>safer_custody_screening_outcome_audit:w&#45;&gt;audit_revision:e</title>
<path fill="none" stroke="#000000" d="M209.11,-69.7579C146.2276,-112.3393 260.3829,-475.7 174,-475.7"/>
<polygon fill="#000000" stroke="#000000" points="215.321,-67.9434 224.0095,-69.1556 219.1605,-66.8217 223,-65.7 223,-65.7 223,-65.7 219.1605,-66.8217 221.9905,-62.2444 215.321,-67.9434 215.321,-67.9434"/>
<ellipse fill="none" stroke="#000000" cx="212.2494" cy="-68.8408" rx="3.2" ry="3.2"/>
</g>
</g>
</svg>
