<?xml version="1.0" encoding="UTF-8" standalone="no"?>
<!DOCTYPE svg PUBLIC "-//W3C//DTD SVG 1.1//EN"
 "http://www.w3.org/Graphics/SVG/1.1/DTD/svg11.dtd">
<!-- Generated by graphviz version 2.40.1 (20161225.0304)
 -->
<!-- Title: oneDegreeRelationshipsDiagramImplied Pages: 1 -->
<svg width="691pt" height="272pt"
 viewBox="0.00 0.00 691.00 272.20" xmlns="http://www.w3.org/2000/svg" xmlns:xlink="http://www.w3.org/1999/xlink">
<g id="graph0" class="graph" transform="scale(1 1) rotate(0) translate(4 268.2)">
<title>oneDegreeRelationshipsDiagramImplied</title>
<polygon fill="#ffffff" stroke="transparent" points="-4,4 -4,-268.2 687,-268.2 687,4 -4,4"/>
<text text-anchor="middle" x="72.4936" y="-7.3" font-family="Helvetica,sans-Serif" font-size="11.00" fill="#000000">Generated by SchemaSpy</text>
<!-- attendee -->
<g id="node1" class="node">
<title>attendee</title>
<g id="a_node1"><a xlink:href="../../tables/attendee.html" xlink:title="attendee" target="_top">
<polygon fill="#ffffff" stroke="transparent" points="473,-38.2 473,-260.2 675,-260.2 675,-38.2 473,-38.2"/>
<polygon fill="#f5f5f5" stroke="transparent" points="475,-235.2 475,-258.2 673,-258.2 673,-235.2 475,-235.2"/>
<polygon fill="none" stroke="#000000" points="475,-235.2 475,-258.2 673,-258.2 673,-235.2 475,-235.2"/>
<text text-anchor="start" x="480" y="-243.8" font-family="Helvetica,sans-Serif" font-weight="bold" font-size="11.00" fill="#000000">attendee</text>
<text text-anchor="start" x="638.0437" y="-243.3" font-family="Helvetica,sans-Serif" font-size="11.00" fill="#000000">[table]</text>
<polygon fill="none" stroke="#000000" points="475,-213.2 475,-235.2 579,-235.2 579,-213.2 475,-213.2"/>
<image xlink:href="../../images/primaryKeys.png" width="11px" height="12px" preserveAspectRatio="xMinYMin meet" x="480" y="-230.2"/>
<text text-anchor="start" x="495" y="-220.3" font-family="Helvetica,sans-Serif" font-size="11.00" fill="#000000">attendee_id</text>
<polygon fill="none" stroke="#000000" points="579,-213.2 579,-235.2 673,-235.2 673,-213.2 579,-213.2"/>
<text text-anchor="start" x="581.9758" y="-220.9" font-family="Helvetica,sans-Serif" font-size="11.00" fill="#000000">uuid[2147483647]</text>
<polygon fill="#ffffff" stroke="transparent" points="475,-191.2 475,-213.2 579,-213.2 579,-191.2 475,-191.2"/>
<polygon fill="none" stroke="#000000" points="475,-191.2 475,-213.2 579,-213.2 579,-191.2 475,-191.2"/>
<image xlink:href="../../images/foreignKeys.png" width="11px" height="12px" preserveAspectRatio="xMinYMin meet" x="480" y="-208.2"/>
<text text-anchor="start" x="495" y="-198.3" font-family="Helvetica,sans-Serif" font-size="11.00" fill="#000000">review_id</text>
<polygon fill="none" stroke="#000000" points="579,-191.2 579,-213.2 673,-213.2 673,-191.2 579,-191.2"/>
<text text-anchor="start" x="581.9758" y="-198.9" font-family="Helvetica,sans-Serif" font-size="11.00" fill="#000000">uuid[2147483647]</text>
<polygon fill="none" stroke="#000000" points="475,-169.2 475,-191.2 579,-191.2 579,-169.2 475,-169.2"/>
<text text-anchor="start" x="495" y="-176.3" font-family="Helvetica,sans-Serif" font-size="11.00" fill="#000000">name</text>
<polygon fill="none" stroke="#000000" points="579,-169.2 579,-191.2 673,-191.2 673,-169.2 579,-169.2"/>
<text text-anchor="start" x="582" y="-176.9" font-family="Helvetica,sans-Serif" font-size="11.00" fill="#000000">varchar[100]</text>
<polygon fill="none" stroke="#000000" points="475,-147.2 475,-169.2 579,-169.2 579,-147.2 475,-147.2"/>
<text text-anchor="start" x="495" y="-154.3" font-family="Helvetica,sans-Serif" font-size="11.00" fill="#000000">role</text>
<polygon fill="none" stroke="#000000" points="579,-147.2 579,-169.2 673,-169.2 673,-147.2 579,-147.2"/>
<text text-anchor="start" x="582" y="-154.9" font-family="Helvetica,sans-Serif" font-size="11.00" fill="#000000">varchar[50]</text>
<polygon fill="none" stroke="#000000" points="475,-125.2 475,-147.2 579,-147.2 579,-125.2 475,-125.2"/>
<text text-anchor="start" x="495" y="-132.3" font-family="Helvetica,sans-Serif" font-size="11.00" fill="#000000">attended</text>
<polygon fill="none" stroke="#000000" points="579,-125.2 579,-147.2 673,-147.2 673,-125.2 579,-125.2"/>
<text text-anchor="start" x="582" y="-132.9" font-family="Helvetica,sans-Serif" font-size="11.00" fill="#000000">bool[1]</text>
<polygon fill="none" stroke="#000000" points="475,-103.2 475,-125.2 579,-125.2 579,-103.2 475,-103.2"/>
<text text-anchor="start" x="495" y="-110.3" font-family="Helvetica,sans-Serif" font-size="11.00" fill="#000000">contribution</text>
<polygon fill="none" stroke="#000000" points="579,-103.2 579,-125.2 673,-125.2 673,-103.2 579,-103.2"/>
<text text-anchor="start" x="582" y="-110.9" font-family="Helvetica,sans-Serif" font-size="11.00" fill="#000000">text[2147483647]</text>
<polygon fill="none" stroke="#000000" points="475,-81.2 475,-103.2 579,-103.2 579,-81.2 475,-81.2"/>
<text text-anchor="start" x="495" y="-88.3" font-family="Helvetica,sans-Serif" font-size="11.00" fill="#000000">version</text>
<polygon fill="none" stroke="#000000" points="579,-81.2 579,-103.2 673,-103.2 673,-81.2 579,-81.2"/>
<text text-anchor="start" x="582" y="-88.9" font-family="Helvetica,sans-Serif" font-size="11.00" fill="#000000">int4[10]</text>
<polygon fill="#ffffff" stroke="transparent" points="475,-59.2 475,-81.2 579,-81.2 579,-59.2 475,-59.2"/>
<polygon fill="none" stroke="#000000" points="475,-59.2 475,-81.2 579,-81.2 579,-59.2 475,-59.2"/>
<image xlink:href="../../images/foreignKeys.png" width="11px" height="12px" preserveAspectRatio="xMinYMin meet" x="480" y="-76.2"/>
<text text-anchor="start" x="495" y="-66.3" font-family="Helvetica,sans-Serif" font-size="11.00" fill="#000000">legacy_id</text>
<polygon fill="none" stroke="#000000" points="579,-59.2 579,-81.2 673,-81.2 673,-59.2 579,-59.2"/>
<text text-anchor="start" x="582" y="-66.9" font-family="Helvetica,sans-Serif" font-size="11.00" fill="#000000">int8[19]</text>
<polygon fill="#ffffff" stroke="transparent" points="475,-40.2 475,-59.2 531,-59.2 531,-40.2 475,-40.2"/>
<polygon fill="none" stroke="#000000" points="475,-40.2 475,-59.2 531,-59.2 531,-40.2 475,-40.2"/>
<text text-anchor="start" x="478" y="-46.3" font-family="Helvetica,sans-Serif" font-size="11.00" fill="#000000">&lt; 2</text>
<polygon fill="#ffffff" stroke="transparent" points="531,-40.2 531,-59.2 579,-59.2 579,-40.2 531,-40.2"/>
<polygon fill="none" stroke="#000000" points="531,-40.2 531,-59.2 579,-59.2 579,-40.2 531,-40.2"/>
<text text-anchor="start" x="569.8862" y="-46.3" font-family="Helvetica,sans-Serif" font-size="11.00" fill="#000000"> &#160;</text>
<polygon fill="#ffffff" stroke="transparent" points="579,-40.2 579,-59.2 673,-59.2 673,-40.2 579,-40.2"/>
<polygon fill="none" stroke="#000000" points="579,-40.2 579,-59.2 673,-59.2 673,-40.2 579,-40.2"/>
<text text-anchor="start" x="654.4053" y="-46.3" font-family="Helvetica,sans-Serif" font-size="11.00" fill="#000000">0 &gt;</text>
<polygon fill="none" stroke="#000000" stroke-width="2" points="474,-39.2 474,-259.2 674,-259.2 674,-39.2 474,-39.2"/>
</a>
</g>
</g>
<!-- audit_revision -->
<g id="node2" class="node">
<title>audit_revision</title>
<g id="a_node2"><a xlink:href="../../tables/audit_revision.html" xlink:title="audit_revision" target="_top">
<polygon fill="#ffffff" stroke="transparent" points="8,-54.7 8,-137.7 174,-137.7 174,-54.7 8,-54.7"/>
<polygon fill="#f5f5f5" stroke="transparent" points="8,-114.2 8,-137.2 174,-137.2 174,-114.2 8,-114.2"/>
<polygon fill="none" stroke="#000000" points="8,-114.2 8,-137.2 174,-137.2 174,-114.2 8,-114.2"/>
<text text-anchor="start" x="13" y="-122.8" font-family="Helvetica,sans-Serif" font-weight="bold" font-size="11.00" fill="#000000">audit_revision</text>
<text text-anchor="start" x="139.0437" y="-122.3" font-family="Helvetica,sans-Serif" font-size="11.00" fill="#000000">[table]</text>
<polygon fill="none" stroke="#000000" points="8,-92.2 8,-114.2 174,-114.2 174,-92.2 8,-92.2"/>
<image xlink:href="../../images/primaryKeys.png" width="11px" height="12px" preserveAspectRatio="xMinYMin meet" x="13" y="-109.2"/>
<text text-anchor="start" x="28" y="-99.3" font-family="Helvetica,sans-Serif" font-size="11.00" fill="#000000">id</text>
<polygon fill="none" stroke="#000000" points="8,-73.2 8,-92.2 174,-92.2 174,-73.2 8,-73.2"/>
<text text-anchor="start" x="11" y="-79.3" font-family="Helvetica,sans-Serif" font-size="11.00" fill="#000000">...</text>
<polygon fill="#ffffff" stroke="transparent" points="8,-54.2 8,-73.2 77,-73.2 77,-54.2 8,-54.2"/>
<polygon fill="none" stroke="#000000" points="8,-54.2 8,-73.2 77,-73.2 77,-54.2 8,-54.2"/>
<text text-anchor="start" x="11" y="-60.3" font-family="Helvetica,sans-Serif" font-size="11.00" fill="#000000"> &#160;</text>
<polygon fill="#ffffff" stroke="transparent" points="77,-54.2 77,-73.2 118,-73.2 118,-54.2 77,-54.2"/>
<polygon fill="none" stroke="#000000" points="77,-54.2 77,-73.2 118,-73.2 118,-54.2 77,-54.2"/>
<text text-anchor="start" x="108.8862" y="-60.3" font-family="Helvetica,sans-Serif" font-size="11.00" fill="#000000"> &#160;</text>
<polygon fill="#ffffff" stroke="transparent" points="118,-54.2 118,-73.2 174,-73.2 174,-54.2 118,-54.2"/>
<polygon fill="none" stroke="#000000" points="118,-54.2 118,-73.2 174,-73.2 174,-54.2 118,-54.2"/>
<text text-anchor="start" x="149.2904" y="-60.3" font-family="Helvetica,sans-Serif" font-size="11.00" fill="#000000">32 &gt;</text>
</a>
</g>
</g>
<!-- attendee&#45;&gt;audit_revision -->
<g id="edge1" class="edge">
<title>attendee:w&#45;&gt;audit_revision:e</title>
<path fill="none" stroke="#000000" stroke-dasharray="5,2" d="M464.3948,-70.1448C357.2147,-69.0266 323.0631,-51.5968 215,-81.2 195.055,-86.6638 194.6798,-103.2 174,-103.2"/>
<polygon fill="#000000" stroke="#000000" points="474.2209,-66.1959 474.1792,-74.1958 472.5792,-74.1874 472.6209,-66.1875 474.2209,-66.1959"/>
<polyline fill="none" stroke="#000000" points="475,-70.2 471.0001,-70.1792 "/>
<ellipse fill="none" stroke="#000000" cx="467.8001" cy="-70.1625" rx="3.2" ry="3.2"/>
</g>
<!-- review -->
<g id="node3" class="node">
<title>review</title>
<g id="a_node3"><a xlink:href="../../tables/review.html" xlink:title="review" target="_top">
<polygon fill="#ffffff" stroke="transparent" points="223,-91.7 223,-240.7 424,-240.7 424,-91.7 223,-91.7"/>
<polygon fill="#f5f5f5" stroke="transparent" points="223.5,-217.2 223.5,-240.2 424.5,-240.2 424.5,-217.2 223.5,-217.2"/>
<polygon fill="none" stroke="#000000" points="223.5,-217.2 223.5,-240.2 424.5,-240.2 424.5,-217.2 223.5,-217.2"/>
<text text-anchor="start" x="228.5" y="-225.8" font-family="Helvetica,sans-Serif" font-weight="bold" font-size="11.00" fill="#000000">review</text>
<text text-anchor="start" x="389.5437" y="-225.3" font-family="Helvetica,sans-Serif" font-size="11.00" fill="#000000">[table]</text>
<polygon fill="none" stroke="#000000" points="223.5,-195.2 223.5,-217.2 424.5,-217.2 424.5,-195.2 223.5,-195.2"/>
<image xlink:href="../../images/primaryKeys.png" width="11px" height="12px" preserveAspectRatio="xMinYMin meet" x="228.5" y="-212.2"/>
<text text-anchor="start" x="243.5" y="-202.3" font-family="Helvetica,sans-Serif" font-size="11.00" fill="#000000">review_id</text>
<polygon fill="#ffffff" stroke="transparent" points="223.5,-173.2 223.5,-195.2 424.5,-195.2 424.5,-173.2 223.5,-173.2"/>
<polygon fill="none" stroke="#000000" points="223.5,-173.2 223.5,-195.2 424.5,-195.2 424.5,-173.2 223.5,-173.2"/>
<image xlink:href="../../images/foreignKeys.png" width="11px" height="12px" preserveAspectRatio="xMinYMin meet" x="228.5" y="-190.2"/>
<text text-anchor="start" x="243.5" y="-180.3" font-family="Helvetica,sans-Serif" font-size="11.00" fill="#000000">plan_id</text>
<polygon fill="#ffffff" stroke="transparent" points="223.5,-151.2 223.5,-173.2 424.5,-173.2 424.5,-151.2 223.5,-151.2"/>
<polygon fill="none" stroke="#000000" points="223.5,-151.2 223.5,-173.2 424.5,-173.2 424.5,-151.2 223.5,-151.2"/>
<text text-anchor="start" x="243.5" y="-158.3" font-family="Helvetica,sans-Serif" font-size="11.00" fill="#000000">review_sequence</text>
<polygon fill="#ffffff" stroke="transparent" points="223.5,-129.2 223.5,-151.2 424.5,-151.2 424.5,-129.2 223.5,-129.2"/>
<polygon fill="none" stroke="#000000" points="223.5,-129.2 223.5,-151.2 424.5,-151.2 424.5,-129.2 223.5,-129.2"/>
<image xlink:href="../../images/foreignKeys.png" width="11px" height="12px" preserveAspectRatio="xMinYMin meet" x="228.5" y="-146.2"/>
<text text-anchor="start" x="243.5" y="-136.3" font-family="Helvetica,sans-Serif" font-size="11.00" fill="#000000">legacy_id</text>
<polygon fill="none" stroke="#000000" points="223.5,-110.2 223.5,-129.2 424.5,-129.2 424.5,-110.2 223.5,-110.2"/>
<text text-anchor="start" x="226.5" y="-116.3" font-family="Helvetica,sans-Serif" font-size="11.00" fill="#000000">...</text>
<polygon fill="#ffffff" stroke="transparent" points="223.5,-91.2 223.5,-110.2 317.5,-110.2 317.5,-91.2 223.5,-91.2"/>
<polygon fill="none" stroke="#000000" points="223.5,-91.2 223.5,-110.2 317.5,-110.2 317.5,-91.2 223.5,-91.2"/>
<text text-anchor="start" x="226.5" y="-97.3" font-family="Helvetica,sans-Serif" font-size="11.00" fill="#000000">&lt; 2</text>
<polygon fill="#ffffff" stroke="transparent" points="317.5,-91.2 317.5,-110.2 366.5,-110.2 366.5,-91.2 317.5,-91.2"/>
<polygon fill="none" stroke="#000000" points="317.5,-91.2 317.5,-110.2 366.5,-110.2 366.5,-91.2 317.5,-91.2"/>
<text text-anchor="start" x="357.3862" y="-97.3" font-family="Helvetica,sans-Serif" font-size="11.00" fill="#000000"> &#160;</text>
<polygon fill="#ffffff" stroke="transparent" points="366.5,-91.2 366.5,-110.2 424.5,-110.2 424.5,-91.2 366.5,-91.2"/>
<polygon fill="none" stroke="#000000" points="366.5,-91.2 366.5,-110.2 424.5,-110.2 424.5,-91.2 366.5,-91.2"/>
<text text-anchor="start" x="405.9053" y="-97.3" font-family="Helvetica,sans-Serif" font-size="11.00" fill="#000000">2 &gt;</text>
</a>
</g>
</g>
<!-- attendee&#45;&gt;review -->
<g id="edge2" class="edge">
<title>attendee:w&#45;&gt;review:e</title>
<path fill="none" stroke="#000000" d="M460.4008,-202.8605C448.5316,-203.9966 441.2102,-206.2 424.5,-206.2"/>
<polygon fill="#000000" stroke="#000000" points="467.0082,-202.5616 475.1627,-205.7963 471.0041,-202.3808 475,-202.2 475,-202.2 475,-202.2 471.0041,-202.3808 474.8373,-198.6037 467.0082,-202.5616 467.0082,-202.5616"/>
<ellipse fill="none" stroke="#000000" cx="463.8114" cy="-202.7063" rx="3.2" ry="3.2"/>
</g>
<!-- review&#45;&gt;audit_revision -->
<g id="edge3" class="edge">
<title>review:w&#45;&gt;audit_revision:e</title>
<path fill="none" stroke="#000000" stroke-dasharray="5,2" d="M213.2283,-137.9963C196.9214,-130.0309 197.3896,-103.2 174,-103.2"/>
<polygon fill="#000000" stroke="#000000" points="223.5569,-136.1212 221.8787,-143.9432 220.3143,-143.6075 221.9925,-135.7855 223.5569,-136.1212"/>
<polyline fill="none" stroke="#000000" points="223.5,-140.2 219.589,-139.3609 "/>
<ellipse fill="none" stroke="#000000" cx="216.4602" cy="-138.6896" rx="3.2" ry="3.2"/>
</g>
</g>
</svg>
