<?xml version="1.0" encoding="UTF-8" standalone="no"?>
<!DOCTYPE svg PUBLIC "-//W3C//DTD SVG 1.1//EN"
 "http://www.w3.org/Graphics/SVG/1.1/DTD/svg11.dtd">
<!-- Generated by graphviz version 2.40.1 (20161225.0304)
 -->
<!-- Title: oneDegreeRelationshipsDiagram Pages: 1 -->
<svg width="476pt" height="272pt"
 viewBox="0.00 0.00 476.00 272.20" xmlns="http://www.w3.org/2000/svg" xmlns:xlink="http://www.w3.org/1999/xlink">
<g id="graph0" class="graph" transform="scale(1 1) rotate(0) translate(4 268.2)">
<title>oneDegreeRelationshipsDiagram</title>
<polygon fill="#ffffff" stroke="transparent" points="-4,4 -4,-268.2 472,-268.2 472,4 -4,4"/>
<text text-anchor="middle" x="72.4936" y="-7.3" font-family="Helvetica,sans-Serif" font-size="11.00" fill="#000000">Generated by SchemaSpy</text>
<!-- attendee -->
<g id="node1" class="node">
<title>attendee</title>
<g id="a_node1"><a xlink:href="../../tables/attendee.html" xlink:title="attendee" target="_top">
<polygon fill="#ffffff" stroke="transparent" points="258,-38.2 258,-260.2 460,-260.2 460,-38.2 258,-38.2"/>
<polygon fill="#f5f5f5" stroke="transparent" points="260,-235.2 260,-258.2 458,-258.2 458,-235.2 260,-235.2"/>
<polygon fill="none" stroke="#000000" points="260,-235.2 260,-258.2 458,-258.2 458,-235.2 260,-235.2"/>
<text text-anchor="start" x="265" y="-243.8" font-family="Helvetica,sans-Serif" font-weight="bold" font-size="11.00" fill="#000000">attendee</text>
<text text-anchor="start" x="423.0437" y="-243.3" font-family="Helvetica,sans-Serif" font-size="11.00" fill="#000000">[table]</text>
<polygon fill="none" stroke="#000000" points="260,-213.2 260,-235.2 364,-235.2 364,-213.2 260,-213.2"/>
<image xlink:href="../../images/primaryKeys.png" width="11px" height="12px" preserveAspectRatio="xMinYMin meet" x="265" y="-230.2"/>
<text text-anchor="start" x="280" y="-220.3" font-family="Helvetica,sans-Serif" font-size="11.00" fill="#000000">attendee_id</text>
<polygon fill="none" stroke="#000000" points="364,-213.2 364,-235.2 458,-235.2 458,-213.2 364,-213.2"/>
<text text-anchor="start" x="366.9758" y="-220.9" font-family="Helvetica,sans-Serif" font-size="11.00" fill="#000000">uuid[2147483647]</text>
<polygon fill="#ffffff" stroke="transparent" points="260,-191.2 260,-213.2 364,-213.2 364,-191.2 260,-191.2"/>
<polygon fill="none" stroke="#000000" points="260,-191.2 260,-213.2 364,-213.2 364,-191.2 260,-191.2"/>
<image xlink:href="../../images/foreignKeys.png" width="11px" height="12px" preserveAspectRatio="xMinYMin meet" x="265" y="-208.2"/>
<text text-anchor="start" x="280" y="-198.3" font-family="Helvetica,sans-Serif" font-size="11.00" fill="#000000">review_id</text>
<polygon fill="none" stroke="#000000" points="364,-191.2 364,-213.2 458,-213.2 458,-191.2 364,-191.2"/>
<text text-anchor="start" x="366.9758" y="-198.9" font-family="Helvetica,sans-Serif" font-size="11.00" fill="#000000">uuid[2147483647]</text>
<polygon fill="none" stroke="#000000" points="260,-169.2 260,-191.2 364,-191.2 364,-169.2 260,-169.2"/>
<text text-anchor="start" x="280" y="-176.3" font-family="Helvetica,sans-Serif" font-size="11.00" fill="#000000">name</text>
<polygon fill="none" stroke="#000000" points="364,-169.2 364,-191.2 458,-191.2 458,-169.2 364,-169.2"/>
<text text-anchor="start" x="367" y="-176.9" font-family="Helvetica,sans-Serif" font-size="11.00" fill="#000000">varchar[100]</text>
<polygon fill="none" stroke="#000000" points="260,-147.2 260,-169.2 364,-169.2 364,-147.2 260,-147.2"/>
<text text-anchor="start" x="280" y="-154.3" font-family="Helvetica,sans-Serif" font-size="11.00" fill="#000000">role</text>
<polygon fill="none" stroke="#000000" points="364,-147.2 364,-169.2 458,-169.2 458,-147.2 364,-147.2"/>
<text text-anchor="start" x="367" y="-154.9" font-family="Helvetica,sans-Serif" font-size="11.00" fill="#000000">varchar[50]</text>
<polygon fill="none" stroke="#000000" points="260,-125.2 260,-147.2 364,-147.2 364,-125.2 260,-125.2"/>
<text text-anchor="start" x="280" y="-132.3" font-family="Helvetica,sans-Serif" font-size="11.00" fill="#000000">attended</text>
<polygon fill="none" stroke="#000000" points="364,-125.2 364,-147.2 458,-147.2 458,-125.2 364,-125.2"/>
<text text-anchor="start" x="367" y="-132.9" font-family="Helvetica,sans-Serif" font-size="11.00" fill="#000000">bool[1]</text>
<polygon fill="none" stroke="#000000" points="260,-103.2 260,-125.2 364,-125.2 364,-103.2 260,-103.2"/>
<text text-anchor="start" x="280" y="-110.3" font-family="Helvetica,sans-Serif" font-size="11.00" fill="#000000">contribution</text>
<polygon fill="none" stroke="#000000" points="364,-103.2 364,-125.2 458,-125.2 458,-103.2 364,-103.2"/>
<text text-anchor="start" x="367" y="-110.9" font-family="Helvetica,sans-Serif" font-size="11.00" fill="#000000">text[2147483647]</text>
<polygon fill="none" stroke="#000000" points="260,-81.2 260,-103.2 364,-103.2 364,-81.2 260,-81.2"/>
<text text-anchor="start" x="280" y="-88.3" font-family="Helvetica,sans-Serif" font-size="11.00" fill="#000000">version</text>
<polygon fill="none" stroke="#000000" points="364,-81.2 364,-103.2 458,-103.2 458,-81.2 364,-81.2"/>
<text text-anchor="start" x="367" y="-88.9" font-family="Helvetica,sans-Serif" font-size="11.00" fill="#000000">int4[10]</text>
<polygon fill="#ffffff" stroke="transparent" points="260,-59.2 260,-81.2 364,-81.2 364,-59.2 260,-59.2"/>
<polygon fill="none" stroke="#000000" points="260,-59.2 260,-81.2 364,-81.2 364,-59.2 260,-59.2"/>
<image xlink:href="../../images/foreignKeys.png" width="11px" height="12px" preserveAspectRatio="xMinYMin meet" x="265" y="-76.2"/>
<text text-anchor="start" x="280" y="-66.3" font-family="Helvetica,sans-Serif" font-size="11.00" fill="#000000">legacy_id</text>
<polygon fill="none" stroke="#000000" points="364,-59.2 364,-81.2 458,-81.2 458,-59.2 364,-59.2"/>
<text text-anchor="start" x="367" y="-66.9" font-family="Helvetica,sans-Serif" font-size="11.00" fill="#000000">int8[19]</text>
<polygon fill="#ffffff" stroke="transparent" points="260,-40.2 260,-59.2 316,-59.2 316,-40.2 260,-40.2"/>
<polygon fill="none" stroke="#000000" points="260,-40.2 260,-59.2 316,-59.2 316,-40.2 260,-40.2"/>
<text text-anchor="start" x="263" y="-46.3" font-family="Helvetica,sans-Serif" font-size="11.00" fill="#000000">&lt; 1</text>
<polygon fill="#ffffff" stroke="transparent" points="316,-40.2 316,-59.2 364,-59.2 364,-40.2 316,-40.2"/>
<polygon fill="none" stroke="#000000" points="316,-40.2 316,-59.2 364,-59.2 364,-40.2 316,-40.2"/>
<text text-anchor="start" x="354.8862" y="-46.3" font-family="Helvetica,sans-Serif" font-size="11.00" fill="#000000"> &#160;</text>
<polygon fill="#ffffff" stroke="transparent" points="364,-40.2 364,-59.2 458,-59.2 458,-40.2 364,-40.2"/>
<polygon fill="none" stroke="#000000" points="364,-40.2 364,-59.2 458,-59.2 458,-40.2 364,-40.2"/>
<text text-anchor="start" x="439.4053" y="-46.3" font-family="Helvetica,sans-Serif" font-size="11.00" fill="#000000">0 &gt;</text>
<polygon fill="none" stroke="#000000" stroke-width="2" points="259,-39.2 259,-259.2 459,-259.2 459,-39.2 259,-39.2"/>
</a>
</g>
</g>
<!-- review -->
<g id="node2" class="node">
<title>review</title>
<g id="a_node2"><a xlink:href="../../tables/review.html" xlink:title="review" target="_top">
<polygon fill="#ffffff" stroke="transparent" points="8,-109.7 8,-236.7 209,-236.7 209,-109.7 8,-109.7"/>
<polygon fill="#f5f5f5" stroke="transparent" points="8.5,-213.2 8.5,-236.2 209.5,-236.2 209.5,-213.2 8.5,-213.2"/>
<polygon fill="none" stroke="#000000" points="8.5,-213.2 8.5,-236.2 209.5,-236.2 209.5,-213.2 8.5,-213.2"/>
<text text-anchor="start" x="13.5" y="-221.8" font-family="Helvetica,sans-Serif" font-weight="bold" font-size="11.00" fill="#000000">review</text>
<text text-anchor="start" x="174.5437" y="-221.3" font-family="Helvetica,sans-Serif" font-size="11.00" fill="#000000">[table]</text>
<polygon fill="none" stroke="#000000" points="8.5,-191.2 8.5,-213.2 209.5,-213.2 209.5,-191.2 8.5,-191.2"/>
<image xlink:href="../../images/primaryKeys.png" width="11px" height="12px" preserveAspectRatio="xMinYMin meet" x="13.5" y="-208.2"/>
<text text-anchor="start" x="28.5" y="-198.3" font-family="Helvetica,sans-Serif" font-size="11.00" fill="#000000">review_id</text>
<polygon fill="#ffffff" stroke="transparent" points="8.5,-169.2 8.5,-191.2 209.5,-191.2 209.5,-169.2 8.5,-169.2"/>
<polygon fill="none" stroke="#000000" points="8.5,-169.2 8.5,-191.2 209.5,-191.2 209.5,-169.2 8.5,-169.2"/>
<image xlink:href="../../images/foreignKeys.png" width="11px" height="12px" preserveAspectRatio="xMinYMin meet" x="13.5" y="-186.2"/>
<text text-anchor="start" x="28.5" y="-176.3" font-family="Helvetica,sans-Serif" font-size="11.00" fill="#000000">plan_id</text>
<polygon fill="#ffffff" stroke="transparent" points="8.5,-147.2 8.5,-169.2 209.5,-169.2 209.5,-147.2 8.5,-147.2"/>
<polygon fill="none" stroke="#000000" points="8.5,-147.2 8.5,-169.2 209.5,-169.2 209.5,-147.2 8.5,-147.2"/>
<image xlink:href="../../images/foreignKeys.png" width="11px" height="12px" preserveAspectRatio="xMinYMin meet" x="13.5" y="-164.2"/>
<text text-anchor="start" x="28.5" y="-154.3" font-family="Helvetica,sans-Serif" font-size="11.00" fill="#000000">legacy_id</text>
<polygon fill="none" stroke="#000000" points="8.5,-128.2 8.5,-147.2 209.5,-147.2 209.5,-128.2 8.5,-128.2"/>
<text text-anchor="start" x="11.5" y="-134.3" font-family="Helvetica,sans-Serif" font-size="11.00" fill="#000000">...</text>
<polygon fill="#ffffff" stroke="transparent" points="8.5,-109.2 8.5,-128.2 102.5,-128.2 102.5,-109.2 8.5,-109.2"/>
<polygon fill="none" stroke="#000000" points="8.5,-109.2 8.5,-128.2 102.5,-128.2 102.5,-109.2 8.5,-109.2"/>
<text text-anchor="start" x="11.5" y="-115.3" font-family="Helvetica,sans-Serif" font-size="11.00" fill="#000000">&lt; 1</text>
<polygon fill="#ffffff" stroke="transparent" points="102.5,-109.2 102.5,-128.2 151.5,-128.2 151.5,-109.2 102.5,-109.2"/>
<polygon fill="none" stroke="#000000" points="102.5,-109.2 102.5,-128.2 151.5,-128.2 151.5,-109.2 102.5,-109.2"/>
<text text-anchor="start" x="142.3862" y="-115.3" font-family="Helvetica,sans-Serif" font-size="11.00" fill="#000000"> &#160;</text>
<polygon fill="#ffffff" stroke="transparent" points="151.5,-109.2 151.5,-128.2 209.5,-128.2 209.5,-109.2 151.5,-109.2"/>
<polygon fill="none" stroke="#000000" points="151.5,-109.2 151.5,-128.2 209.5,-128.2 209.5,-109.2 151.5,-109.2"/>
<text text-anchor="start" x="190.9053" y="-115.3" font-family="Helvetica,sans-Serif" font-size="11.00" fill="#000000">1 &gt;</text>
</a>
</g>
</g>
<!-- attendee&#45;&gt;review -->
<g id="edge1" class="edge">
<title>attendee:w&#45;&gt;review:e</title>
<path fill="none" stroke="#000000" d="M245.4203,-202.2C233.5435,-202.2 226.158,-202.2 209.5,-202.2"/>
<polygon fill="#000000" stroke="#000000" points="252,-202.2001 260,-205.8 256,-202.2 260,-202.2 260,-202.2 260,-202.2 256,-202.2 260,-198.6 252,-202.2001 252,-202.2001"/>
<ellipse fill="none" stroke="#000000" cx="248.8" cy="-202.2001" rx="3.2" ry="3.2"/>
</g>
</g>
</svg>
