<?xml version="1.0" encoding="UTF-8" standalone="no"?>
<!DOCTYPE svg PUBLIC "-//W3C//DTD SVG 1.1//EN"
 "http://www.w3.org/Graphics/SVG/1.1/DTD/svg11.dtd">
<!-- Generated by graphviz version 2.40.1 (20161225.0304)
 -->
<!-- Title: oneDegreeRelationshipsDiagramImplied Pages: 1 -->
<svg width="691pt" height="272pt"
 viewBox="0.00 0.00 691.00 272.20" xmlns="http://www.w3.org/2000/svg" xmlns:xlink="http://www.w3.org/1999/xlink">
<g id="graph0" class="graph" transform="scale(1 1) rotate(0) translate(4 268.2)">
<title>oneDegreeRelationshipsDiagramImplied</title>
<polygon fill="#ffffff" stroke="transparent" points="-4,4 -4,-268.2 687,-268.2 687,4 -4,4"/>
<text text-anchor="middle" x="72.4936" y="-7.3" font-family="Helvetica,sans-Serif" font-size="11.00" fill="#000000">Generated by SchemaSpy</text>
<!-- attendee -->
<g id="node1" class="node">
<title>attendee</title>
<g id="a_node1"><a xlink:href="../../tables/attendee.html" xlink:title="attendee" target="_top">
<polygon fill="#ffffff" stroke="transparent" points="473,-38.2 473,-260.2 675,-260.2 675,-38.2 473,-38.2"/>
<polygon fill="#f5f5f5" stroke="transparent" points="475,-235.2 475,-258.2 673,-258.2 673,-235.2 475,-235.2"/>
<polygon fill="none" stroke="#000000" points="475,-235.2 475,-258.2 673,-258.2 673,-235.2 475,-235.2"/>
<text text-anchor="start" x="480" y="-243.8" font-family="Helvetica,sans-Serif" font-weight="bold" font-size="11.00" fill="#000000">attendee</text>
<text text-anchor="start" x="638.0437" y="-243.3" font-family="Helvetica,sans-Serif" font-size="11.00" fill="#000000">[table]</text>
<polygon fill="none" stroke="#000000" points="475,-213.2 475,-235.2 579,-235.2 579,-213.2 475,-213.2"/>
<image xlink:href="../../images/primaryKeys.png" width="11px" height="12px" preserveAspectRatio="xMinYMin meet" x="480" y="-230.2"/>
<text text-anchor="start" x="495" y="-220.3" font-family="Helvetica,sans-Serif" font-size="11.00" fill="#000000">attendee_id</text>
<polygon fill="none" stroke="#000000" points="579,-213.2 579,-235.2 673,-235.2 673,-213.2 579,-213.2"/>
<text text-anchor="start" x="581.9758" y="-220.9" font-family="Helvetica,sans-Serif" font-size="11.00" fill="#000000">uuid[2147483647]</text>
<polygon fill="#ffffff" stroke="transparent" points="475,-191.2 475,-213.2 579,-213.2 579,-191.2 475,-191.2"/>
<polygon fill="none" stroke="#000000" points="475,-191.2 475,-213.2 579,-213.2 579,-191.2 475,-191.2"/>
<image xlink:href="../../images/foreignKeys.png" width="11px" height="12px" preserveAspectRatio="xMinYMin meet" x="480" y="-208.2"/>
<text text-anchor="start" x="495" y="-198.3" font-family="Helvetica,sans-Serif" font-size="11.00" fill="#000000">review_id</text>
<polygon fill="none" stroke="#000000" points="579,-191.2 579,-213.2 673,-213.2 673,-191.2 579,-191.2"/>
<text text-anchor="start" x="581.9758" y="-198.9" font-family="Helvetica,sans-Serif" font-size="11.00" fill="#000000">uuid[2147483647]</text>
<polygon fill="none" stroke="#000000" points="475,-169.2 475,-191.2 579,-191.2 579,-169.2 475,-169.2"/>
<text text-anchor="start" x="495" y="-176.3" font-family="Helvetica,sans-Serif" font-size="11.00" fill="#000000">name</text>
<polygon fill="none" stroke="#000000" points="579,-169.2 579,-191.2 673,-191.2 673,-169.2 579,-169.2"/>
<text text-anchor="start" x="582" y="-176.9" font-family="Helvetica,sans-Serif" font-size="11.00" fill="#000000">varchar[100]</text>
<polygon fill="none" stroke="#000000" points="475,-147.2 475,-169.2 579,-169.2 579,-147.2 475,-147.2"/>
<text text-anchor="start" x="495" y="-154.3" font-family="Helvetica,sans-Serif" font-size="11.00" fill="#000000">role</text>
<polygon fill="none" stroke="#000000" points="579,-147.2 579,-169.2 673,-169.2 673,-147.2 579,-147.2"/>
<text text-anchor="start" x="582" y="-154.9" font-family="Helvetica,sans-Serif" font-size="11.00" fill="#000000">varchar[50]</text>
<polygon fill="none" stroke="#000000" points="475,-125.2 475,-147.2 579,-147.2 579,-125.2 475,-125.2"/>
<text text-anchor="start" x="495" y="-132.3" font-family="Helvetica,sans-Serif" font-size="11.00" fill="#000000">attended</text>
<polygon fill="none" stroke="#000000" points="579,-125.2 579,-147.2 673,-147.2 673,-125.2 579,-125.2"/>
<text text-anchor="start" x="582" y="-132.9" font-family="Helvetica,sans-Serif" font-size="11.00" fill="#000000">bool[1]</text>
<polygon fill="none" stroke="#000000" points="475,-103.2 475,-125.2 579,-125.2 579,-103.2 475,-103.2"/>
<text text-anchor="start" x="495" y="-110.3" font-family="Helvetica,sans-Serif" font-size="11.00" fill="#000000">contribution</text>
<polygon fill="none" stroke="#000000" points="579,-103.2 579,-125.2 673,-125.2 673,-103.2 579,-103.2"/>
<text text-anchor="start" x="582" y="-110.9" font-family="Helvetica,sans-Serif" font-size="11.00" fill="#000000">text[2147483647]</text>
<polygon fill="none" stroke="#000000" points="475,-81.2 475,-103.2 579,-103.2 579,-81.2 475,-81.2"/>
<text text-anchor="start" x="495" y="-88.3" font-family="Helvetica,sans-Serif" font-size="11.00" fill="#000000">version</text>
<polygon fill="none" stroke="#000000" points="579,-81.2 579,-103.2 673,-103.2 673,-81.2 579,-81.2"/>
<text text-anchor="start" x="582" y="-88.9" font-family="Helvetica,sans-Serif" font-size="11.00" fill="#000000">int4[10]</text>
<polygon fill="#ffffff" stroke="transparent" points="475,-59.2 475,-81.2 579,-81.2 579,-59.2 475,-59.2"/>
<polygon fill="none" stroke="#000000" points="475,-59.2 475,-81.2 579,-81.2 579,-59.2 475,-59.2"/>
<image xlink:href="../../images/foreignKeys.png" width="11px" height="12px" preserveAspectRatio="xMinYMin meet" x="480" y="-76.2"/>
<text text-anchor="start" x="495" y="-66.3" font-family="Helvetica,sans-Serif" font-size="11.00" fill="#000000">legacy_id</text>
<polygon fill="none" stroke="#000000" points="579,-59.2 579,-81.2 673,-81.2 673,-59.2 579,-59.2"/>
<text text-anchor="start" x="582" y="-66.9" font-family="Helvetica,sans-Serif" font-size="11.00" fill="#000000">int8[19]</text>
<polygon fill="#ffffff" stroke="transparent" points="475,-40.2 475,-59.2 531,-59.2 531,-40.2 475,-40.2"/>
<polygon fill="none" stroke="#000000" points="475,-40.2 475,-59.2 531,-59.2 531,-40.2 475,-40.2"/>
<text text-anchor="start" x="478" y="-46.3" font-family="Helvetica,sans-Serif" font-size="11.00" fill="#000000">&lt; 2</text>
<polygon fill="#ffffff" stroke="transparent" points="531,-40.2 531,-59.2 579,-59.2 579,-40.2 531,-40.2"/>
<polygon fill="none" stroke="#000000" points="531,-40.2 531,-59.2 579,-59.2 579,-40.2 531,-40.2"/>
<text text-anchor="start" x="569.8862" y="-46.3" font-family="Helvetica,sans-Serif" font-size="11.00" fill="#000000"> &#160;</text>
<polygon fill="#ffffff" stroke="transparent" points="579,-40.2 579,-59.2 673,-59.2 673,-40.2 579,-40.2"/>
<polygon fill="none" stroke="#000000" points="579,-40.2 579,-59.2 673,-59.2 673,-40.2 579,-40.2"/>
<text text-anchor="start" x="654.4053" y="-46.3" font-family="Helvetica,sans-Serif" font-size="11.00" fill="#000000">0 &gt;</text>
<polygon fill="none" stroke="#000000" stroke-width="2" points="474,-39.2 474,-259.2 674,-259.2 674,-39.2 474,-39.2"/>
</a>
</g>
</g>
<!-- audit_revision -->
<g id="node2" class="node">
<title>audit_revision</title>
<g id="a_node2"><a xlink:href="../../tables/audit_revision.html" xlink:title="audit_revision" target="_top">
<polygon fill="#ffffff" stroke="transparent" points="8,-61.7 8,-144.7 174,-144.7 174,-61.7 8,-61.7"/>
<polygon fill="#f5f5f5" stroke="transparent" points="8,-121.2 8,-144.2 174,-144.2 174,-121.2 8,-121.2"/>
<polygon fill="none" stroke="#000000" points="8,-121.2 8,-144.2 174,-144.2 174,-121.2 8,-121.2"/>
<text text-anchor="start" x="13" y="-129.8" font-family="Helvetica,sans-Serif" font-weight="bold" font-size="11.00" fill="#000000">audit_revision</text>
<text text-anchor="start" x="139.0437" y="-129.3" font-family="Helvetica,sans-Serif" font-size="11.00" fill="#000000">[table]</text>
<polygon fill="none" stroke="#000000" points="8,-99.2 8,-121.2 174,-121.2 174,-99.2 8,-99.2"/>
<image xlink:href="../../images/primaryKeys.png" width="11px" height="12px" preserveAspectRatio="xMinYMin meet" x="13" y="-116.2"/>
<text text-anchor="start" x="28" y="-106.3" font-family="Helvetica,sans-Serif" font-size="11.00" fill="#000000">id</text>
<polygon fill="none" stroke="#000000" points="8,-80.2 8,-99.2 174,-99.2 174,-80.2 8,-80.2"/>
<text text-anchor="start" x="11" y="-86.3" font-family="Helvetica,sans-Serif" font-size="11.00" fill="#000000">...</text>
<polygon fill="#ffffff" stroke="transparent" points="8,-61.2 8,-80.2 77,-80.2 77,-61.2 8,-61.2"/>
<polygon fill="none" stroke="#000000" points="8,-61.2 8,-80.2 77,-80.2 77,-61.2 8,-61.2"/>
<text text-anchor="start" x="11" y="-67.3" font-family="Helvetica,sans-Serif" font-size="11.00" fill="#000000"> &#160;</text>
<polygon fill="#ffffff" stroke="transparent" points="77,-61.2 77,-80.2 118,-80.2 118,-61.2 77,-61.2"/>
<polygon fill="none" stroke="#000000" points="77,-61.2 77,-80.2 118,-80.2 118,-61.2 77,-61.2"/>
<text text-anchor="start" x="108.8862" y="-67.3" font-family="Helvetica,sans-Serif" font-size="11.00" fill="#000000"> &#160;</text>
<polygon fill="#ffffff" stroke="transparent" points="118,-61.2 118,-80.2 174,-80.2 174,-61.2 118,-61.2"/>
<polygon fill="none" stroke="#000000" points="118,-61.2 118,-80.2 174,-80.2 174,-61.2 118,-61.2"/>
<text text-anchor="start" x="149.2904" y="-67.3" font-family="Helvetica,sans-Serif" font-size="11.00" fill="#000000">33 &gt;</text>
</a>
</g>
</g>
<!-- attendee&#45;&gt;audit_revision -->
<g id="edge1" class="edge">
<title>attendee:w&#45;&gt;audit_revision:e</title>
<path fill="none" stroke="#000000" stroke-dasharray="5,2" d="M464.3617,-70.1988C356.9119,-70.1816 324.6687,-70.2964 215,-95.2 196.0783,-99.4968 193.4034,-110.2 174,-110.2"/>
<polygon fill="#000000" stroke="#000000" points="474.2005,-66.1999 474.1995,-74.1999 472.5995,-74.1997 472.6005,-66.1997 474.2005,-66.1999"/>
<polyline fill="none" stroke="#000000" points="475,-70.2 471,-70.1995 "/>
<ellipse fill="none" stroke="#000000" cx="467.8" cy="-70.1991" rx="3.2" ry="3.2"/>
</g>
<!-- review -->
<g id="node3" class="node">
<title>review</title>
<g id="a_node3"><a xlink:href="../../tables/review.html" xlink:title="review" target="_top">
<polygon fill="#ffffff" stroke="transparent" points="223,-105.7 223,-232.7 424,-232.7 424,-105.7 223,-105.7"/>
<polygon fill="#f5f5f5" stroke="transparent" points="223.5,-209.2 223.5,-232.2 424.5,-232.2 424.5,-209.2 223.5,-209.2"/>
<polygon fill="none" stroke="#000000" points="223.5,-209.2 223.5,-232.2 424.5,-232.2 424.5,-209.2 223.5,-209.2"/>
<text text-anchor="start" x="228.5" y="-217.8" font-family="Helvetica,sans-Serif" font-weight="bold" font-size="11.00" fill="#000000">review</text>
<text text-anchor="start" x="389.5437" y="-217.3" font-family="Helvetica,sans-Serif" font-size="11.00" fill="#000000">[table]</text>
<polygon fill="none" stroke="#000000" points="223.5,-187.2 223.5,-209.2 424.5,-209.2 424.5,-187.2 223.5,-187.2"/>
<image xlink:href="../../images/primaryKeys.png" width="11px" height="12px" preserveAspectRatio="xMinYMin meet" x="228.5" y="-204.2"/>
<text text-anchor="start" x="243.5" y="-194.3" font-family="Helvetica,sans-Serif" font-size="11.00" fill="#000000">review_id</text>
<polygon fill="#ffffff" stroke="transparent" points="223.5,-165.2 223.5,-187.2 424.5,-187.2 424.5,-165.2 223.5,-165.2"/>
<polygon fill="none" stroke="#000000" points="223.5,-165.2 223.5,-187.2 424.5,-187.2 424.5,-165.2 223.5,-165.2"/>
<image xlink:href="../../images/foreignKeys.png" width="11px" height="12px" preserveAspectRatio="xMinYMin meet" x="228.5" y="-182.2"/>
<text text-anchor="start" x="243.5" y="-172.3" font-family="Helvetica,sans-Serif" font-size="11.00" fill="#000000">plan_id</text>
<polygon fill="#ffffff" stroke="transparent" points="223.5,-143.2 223.5,-165.2 424.5,-165.2 424.5,-143.2 223.5,-143.2"/>
<polygon fill="none" stroke="#000000" points="223.5,-143.2 223.5,-165.2 424.5,-165.2 424.5,-143.2 223.5,-143.2"/>
<image xlink:href="../../images/foreignKeys.png" width="11px" height="12px" preserveAspectRatio="xMinYMin meet" x="228.5" y="-160.2"/>
<text text-anchor="start" x="243.5" y="-150.3" font-family="Helvetica,sans-Serif" font-size="11.00" fill="#000000">legacy_id</text>
<polygon fill="none" stroke="#000000" points="223.5,-124.2 223.5,-143.2 424.5,-143.2 424.5,-124.2 223.5,-124.2"/>
<text text-anchor="start" x="226.5" y="-130.3" font-family="Helvetica,sans-Serif" font-size="11.00" fill="#000000">...</text>
<polygon fill="#ffffff" stroke="transparent" points="223.5,-105.2 223.5,-124.2 317.5,-124.2 317.5,-105.2 223.5,-105.2"/>
<polygon fill="none" stroke="#000000" points="223.5,-105.2 223.5,-124.2 317.5,-124.2 317.5,-105.2 223.5,-105.2"/>
<text text-anchor="start" x="226.5" y="-111.3" font-family="Helvetica,sans-Serif" font-size="11.00" fill="#000000">&lt; 2</text>
<polygon fill="#ffffff" stroke="transparent" points="317.5,-105.2 317.5,-124.2 366.5,-124.2 366.5,-105.2 317.5,-105.2"/>
<polygon fill="none" stroke="#000000" points="317.5,-105.2 317.5,-124.2 366.5,-124.2 366.5,-105.2 317.5,-105.2"/>
<text text-anchor="start" x="357.3862" y="-111.3" font-family="Helvetica,sans-Serif" font-size="11.00" fill="#000000"> &#160;</text>
<polygon fill="#ffffff" stroke="transparent" points="366.5,-105.2 366.5,-124.2 424.5,-124.2 424.5,-105.2 366.5,-105.2"/>
<polygon fill="none" stroke="#000000" points="366.5,-105.2 366.5,-124.2 424.5,-124.2 424.5,-105.2 366.5,-105.2"/>
<text text-anchor="start" x="405.9053" y="-111.3" font-family="Helvetica,sans-Serif" font-size="11.00" fill="#000000">2 &gt;</text>
</a>
</g>
</g>
<!-- attendee&#45;&gt;review -->
<g id="edge2" class="edge">
<title>attendee:w&#45;&gt;review:e</title>
<path fill="none" stroke="#000000" d="M460.4008,-201.5395C448.5316,-200.4034 441.2102,-198.2 424.5,-198.2"/>
<polygon fill="#000000" stroke="#000000" points="467.0082,-201.8384 474.8373,-205.7963 471.0041,-202.0192 475,-202.2 475,-202.2 475,-202.2 471.0041,-202.0192 475.1627,-198.6037 467.0082,-201.8384 467.0082,-201.8384"/>
<ellipse fill="none" stroke="#000000" cx="463.8114" cy="-201.6937" rx="3.2" ry="3.2"/>
</g>
<!-- review&#45;&gt;audit_revision -->
<g id="edge3" class="edge">
<title>review:w&#45;&gt;audit_revision:e</title>
<path fill="none" stroke="#000000" stroke-dasharray="5,2" d="M213.1684,-151.8344C195.9329,-142.6951 199.2957,-110.2 174,-110.2"/>
<polygon fill="#000000" stroke="#000000" points="223.613,-150.1223 221.8274,-157.9205 220.2677,-157.5634 222.0534,-149.7652 223.613,-150.1223"/>
<polyline fill="none" stroke="#000000" points="223.5,-154.2 219.6009,-153.3072 "/>
<ellipse fill="none" stroke="#000000" cx="216.4816" cy="-152.5929" rx="3.2" ry="3.2"/>
</g>
</g>
</svg>
