<?xml version="1.0" encoding="UTF-8" standalone="no"?>
<!DOCTYPE svg PUBLIC "-//W3C//DTD SVG 1.1//EN"
 "http://www.w3.org/Graphics/SVG/1.1/DTD/svg11.dtd">
<!-- Generated by graphviz version 2.40.1 (20161225.0304)
 -->
<!-- Title: twoDegreesRelationshipsDiagram Pages: 1 -->
<svg width="593pt" height="272pt"
 viewBox="0.00 0.00 593.00 272.20" xmlns="http://www.w3.org/2000/svg" xmlns:xlink="http://www.w3.org/1999/xlink">
<g id="graph0" class="graph" transform="scale(1 1) rotate(0) translate(4 268.2)">
<title>twoDegreesRelationshipsDiagram</title>
<polygon fill="#ffffff" stroke="transparent" points="-4,4 -4,-268.2 589,-268.2 589,4 -4,4"/>
<text text-anchor="middle" x="72.4936" y="-7.3" font-family="Helvetica,sans-Serif" font-size="11.00" fill="#000000">Generated by SchemaSpy</text>
<!-- attendee -->
<g id="node1" class="node">
<title>attendee</title>
<g id="a_node1"><a xlink:href="../../tables/attendee.html" xlink:title="attendee" target="_top">
<polygon fill="#ffffff" stroke="transparent" points="375,-38.2 375,-260.2 577,-260.2 577,-38.2 375,-38.2"/>
<polygon fill="#f5f5f5" stroke="transparent" points="377,-235.2 377,-258.2 575,-258.2 575,-235.2 377,-235.2"/>
<polygon fill="none" stroke="#000000" points="377,-235.2 377,-258.2 575,-258.2 575,-235.2 377,-235.2"/>
<text text-anchor="start" x="382" y="-243.8" font-family="Helvetica,sans-Serif" font-weight="bold" font-size="11.00" fill="#000000">attendee</text>
<text text-anchor="start" x="540.0437" y="-243.3" font-family="Helvetica,sans-Serif" font-size="11.00" fill="#000000">[table]</text>
<polygon fill="none" stroke="#000000" points="377,-213.2 377,-235.2 481,-235.2 481,-213.2 377,-213.2"/>
<image xlink:href="../../images/primaryKeys.png" width="11px" height="12px" preserveAspectRatio="xMinYMin meet" x="382" y="-230.2"/>
<text text-anchor="start" x="397" y="-220.3" font-family="Helvetica,sans-Serif" font-size="11.00" fill="#000000">attendee_id</text>
<polygon fill="none" stroke="#000000" points="481,-213.2 481,-235.2 575,-235.2 575,-213.2 481,-213.2"/>
<text text-anchor="start" x="483.9758" y="-220.9" font-family="Helvetica,sans-Serif" font-size="11.00" fill="#000000">uuid[2147483647]</text>
<polygon fill="#ffffff" stroke="transparent" points="377,-191.2 377,-213.2 481,-213.2 481,-191.2 377,-191.2"/>
<polygon fill="none" stroke="#000000" points="377,-191.2 377,-213.2 481,-213.2 481,-191.2 377,-191.2"/>
<image xlink:href="../../images/foreignKeys.png" width="11px" height="12px" preserveAspectRatio="xMinYMin meet" x="382" y="-208.2"/>
<text text-anchor="start" x="397" y="-198.3" font-family="Helvetica,sans-Serif" font-size="11.00" fill="#000000">review_id</text>
<polygon fill="none" stroke="#000000" points="481,-191.2 481,-213.2 575,-213.2 575,-191.2 481,-191.2"/>
<text text-anchor="start" x="483.9758" y="-198.9" font-family="Helvetica,sans-Serif" font-size="11.00" fill="#000000">uuid[2147483647]</text>
<polygon fill="none" stroke="#000000" points="377,-169.2 377,-191.2 481,-191.2 481,-169.2 377,-169.2"/>
<text text-anchor="start" x="397" y="-176.3" font-family="Helvetica,sans-Serif" font-size="11.00" fill="#000000">name</text>
<polygon fill="none" stroke="#000000" points="481,-169.2 481,-191.2 575,-191.2 575,-169.2 481,-169.2"/>
<text text-anchor="start" x="484" y="-176.9" font-family="Helvetica,sans-Serif" font-size="11.00" fill="#000000">varchar[100]</text>
<polygon fill="none" stroke="#000000" points="377,-147.2 377,-169.2 481,-169.2 481,-147.2 377,-147.2"/>
<text text-anchor="start" x="397" y="-154.3" font-family="Helvetica,sans-Serif" font-size="11.00" fill="#000000">role</text>
<polygon fill="none" stroke="#000000" points="481,-147.2 481,-169.2 575,-169.2 575,-147.2 481,-147.2"/>
<text text-anchor="start" x="484" y="-154.9" font-family="Helvetica,sans-Serif" font-size="11.00" fill="#000000">varchar[50]</text>
<polygon fill="none" stroke="#000000" points="377,-125.2 377,-147.2 481,-147.2 481,-125.2 377,-125.2"/>
<text text-anchor="start" x="397" y="-132.3" font-family="Helvetica,sans-Serif" font-size="11.00" fill="#000000">attended</text>
<polygon fill="none" stroke="#000000" points="481,-125.2 481,-147.2 575,-147.2 575,-125.2 481,-125.2"/>
<text text-anchor="start" x="484" y="-132.9" font-family="Helvetica,sans-Serif" font-size="11.00" fill="#000000">bool[1]</text>
<polygon fill="none" stroke="#000000" points="377,-103.2 377,-125.2 481,-125.2 481,-103.2 377,-103.2"/>
<text text-anchor="start" x="397" y="-110.3" font-family="Helvetica,sans-Serif" font-size="11.00" fill="#000000">contribution</text>
<polygon fill="none" stroke="#000000" points="481,-103.2 481,-125.2 575,-125.2 575,-103.2 481,-103.2"/>
<text text-anchor="start" x="484" y="-110.9" font-family="Helvetica,sans-Serif" font-size="11.00" fill="#000000">text[2147483647]</text>
<polygon fill="none" stroke="#000000" points="377,-81.2 377,-103.2 481,-103.2 481,-81.2 377,-81.2"/>
<text text-anchor="start" x="397" y="-88.3" font-family="Helvetica,sans-Serif" font-size="11.00" fill="#000000">version</text>
<polygon fill="none" stroke="#000000" points="481,-81.2 481,-103.2 575,-103.2 575,-81.2 481,-81.2"/>
<text text-anchor="start" x="484" y="-88.9" font-family="Helvetica,sans-Serif" font-size="11.00" fill="#000000">int4[10]</text>
<polygon fill="#ffffff" stroke="transparent" points="377,-59.2 377,-81.2 481,-81.2 481,-59.2 377,-59.2"/>
<polygon fill="none" stroke="#000000" points="377,-59.2 377,-81.2 481,-81.2 481,-59.2 377,-59.2"/>
<image xlink:href="../../images/foreignKeys.png" width="11px" height="12px" preserveAspectRatio="xMinYMin meet" x="382" y="-76.2"/>
<text text-anchor="start" x="397" y="-66.3" font-family="Helvetica,sans-Serif" font-size="11.00" fill="#000000">legacy_id</text>
<polygon fill="none" stroke="#000000" points="481,-59.2 481,-81.2 575,-81.2 575,-59.2 481,-59.2"/>
<text text-anchor="start" x="484" y="-66.9" font-family="Helvetica,sans-Serif" font-size="11.00" fill="#000000">int8[19]</text>
<polygon fill="#ffffff" stroke="transparent" points="377,-40.2 377,-59.2 433,-59.2 433,-40.2 377,-40.2"/>
<polygon fill="none" stroke="#000000" points="377,-40.2 377,-59.2 433,-59.2 433,-40.2 377,-40.2"/>
<text text-anchor="start" x="380" y="-46.3" font-family="Helvetica,sans-Serif" font-size="11.00" fill="#000000">&lt; 1</text>
<polygon fill="#ffffff" stroke="transparent" points="433,-40.2 433,-59.2 481,-59.2 481,-40.2 433,-40.2"/>
<polygon fill="none" stroke="#000000" points="433,-40.2 433,-59.2 481,-59.2 481,-40.2 433,-40.2"/>
<text text-anchor="start" x="471.8862" y="-46.3" font-family="Helvetica,sans-Serif" font-size="11.00" fill="#000000"> &#160;</text>
<polygon fill="#ffffff" stroke="transparent" points="481,-40.2 481,-59.2 575,-59.2 575,-40.2 481,-40.2"/>
<polygon fill="none" stroke="#000000" points="481,-40.2 481,-59.2 575,-59.2 575,-40.2 481,-40.2"/>
<text text-anchor="start" x="556.4053" y="-46.3" font-family="Helvetica,sans-Serif" font-size="11.00" fill="#000000">0 &gt;</text>
<polygon fill="none" stroke="#000000" stroke-width="2" points="376,-39.2 376,-259.2 576,-259.2 576,-39.2 376,-39.2"/>
</a>
</g>
</g>
<!-- review -->
<g id="node2" class="node">
<title>review</title>
<g id="a_node2"><a xlink:href="../../tables/review.html" xlink:title="review" target="_top">
<polygon fill="#ffffff" stroke="transparent" points="125,-87.7 125,-236.7 326,-236.7 326,-87.7 125,-87.7"/>
<polygon fill="#f5f5f5" stroke="transparent" points="125.5,-213.2 125.5,-236.2 326.5,-236.2 326.5,-213.2 125.5,-213.2"/>
<polygon fill="none" stroke="#000000" points="125.5,-213.2 125.5,-236.2 326.5,-236.2 326.5,-213.2 125.5,-213.2"/>
<text text-anchor="start" x="130.5" y="-221.8" font-family="Helvetica,sans-Serif" font-weight="bold" font-size="11.00" fill="#000000">review</text>
<text text-anchor="start" x="291.5437" y="-221.3" font-family="Helvetica,sans-Serif" font-size="11.00" fill="#000000">[table]</text>
<polygon fill="none" stroke="#000000" points="125.5,-191.2 125.5,-213.2 326.5,-213.2 326.5,-191.2 125.5,-191.2"/>
<image xlink:href="../../images/primaryKeys.png" width="11px" height="12px" preserveAspectRatio="xMinYMin meet" x="130.5" y="-208.2"/>
<text text-anchor="start" x="145.5" y="-198.3" font-family="Helvetica,sans-Serif" font-size="11.00" fill="#000000">review_id</text>
<polygon fill="#ffffff" stroke="transparent" points="125.5,-169.2 125.5,-191.2 326.5,-191.2 326.5,-169.2 125.5,-169.2"/>
<polygon fill="none" stroke="#000000" points="125.5,-169.2 125.5,-191.2 326.5,-191.2 326.5,-169.2 125.5,-169.2"/>
<image xlink:href="../../images/foreignKeys.png" width="11px" height="12px" preserveAspectRatio="xMinYMin meet" x="130.5" y="-186.2"/>
<text text-anchor="start" x="145.5" y="-176.3" font-family="Helvetica,sans-Serif" font-size="11.00" fill="#000000">plan_id</text>
<polygon fill="#ffffff" stroke="transparent" points="125.5,-147.2 125.5,-169.2 326.5,-169.2 326.5,-147.2 125.5,-147.2"/>
<polygon fill="none" stroke="#000000" points="125.5,-147.2 125.5,-169.2 326.5,-169.2 326.5,-147.2 125.5,-147.2"/>
<text text-anchor="start" x="145.5" y="-154.3" font-family="Helvetica,sans-Serif" font-size="11.00" fill="#000000">review_sequence</text>
<polygon fill="#ffffff" stroke="transparent" points="125.5,-125.2 125.5,-147.2 326.5,-147.2 326.5,-125.2 125.5,-125.2"/>
<polygon fill="none" stroke="#000000" points="125.5,-125.2 125.5,-147.2 326.5,-147.2 326.5,-125.2 125.5,-125.2"/>
<image xlink:href="../../images/foreignKeys.png" width="11px" height="12px" preserveAspectRatio="xMinYMin meet" x="130.5" y="-142.2"/>
<text text-anchor="start" x="145.5" y="-132.3" font-family="Helvetica,sans-Serif" font-size="11.00" fill="#000000">legacy_id</text>
<polygon fill="none" stroke="#000000" points="125.5,-106.2 125.5,-125.2 326.5,-125.2 326.5,-106.2 125.5,-106.2"/>
<text text-anchor="start" x="128.5" y="-112.3" font-family="Helvetica,sans-Serif" font-size="11.00" fill="#000000">...</text>
<polygon fill="#ffffff" stroke="transparent" points="125.5,-87.2 125.5,-106.2 219.5,-106.2 219.5,-87.2 125.5,-87.2"/>
<polygon fill="none" stroke="#000000" points="125.5,-87.2 125.5,-106.2 219.5,-106.2 219.5,-87.2 125.5,-87.2"/>
<text text-anchor="start" x="128.5" y="-93.3" font-family="Helvetica,sans-Serif" font-size="11.00" fill="#000000">&lt; 1</text>
<polygon fill="#ffffff" stroke="transparent" points="219.5,-87.2 219.5,-106.2 268.5,-106.2 268.5,-87.2 219.5,-87.2"/>
<polygon fill="none" stroke="#000000" points="219.5,-87.2 219.5,-106.2 268.5,-106.2 268.5,-87.2 219.5,-87.2"/>
<text text-anchor="start" x="259.3862" y="-93.3" font-family="Helvetica,sans-Serif" font-size="11.00" fill="#000000"> &#160;</text>
<polygon fill="#ffffff" stroke="transparent" points="268.5,-87.2 268.5,-106.2 326.5,-106.2 326.5,-87.2 268.5,-87.2"/>
<polygon fill="none" stroke="#000000" points="268.5,-87.2 268.5,-106.2 326.5,-106.2 326.5,-87.2 268.5,-87.2"/>
<text text-anchor="start" x="307.9053" y="-93.3" font-family="Helvetica,sans-Serif" font-size="11.00" fill="#000000">1 &gt;</text>
</a>
</g>
</g>
<!-- attendee&#45;&gt;review -->
<g id="edge1" class="edge">
<title>attendee:w&#45;&gt;review:e</title>
<path fill="none" stroke="#000000" d="M362.4203,-202.2C350.5435,-202.2 343.158,-202.2 326.5,-202.2"/>
<polygon fill="#000000" stroke="#000000" points="369,-202.2001 377,-205.8 373,-202.2 377,-202.2 377,-202.2 377,-202.2 373,-202.2 377,-198.6 369,-202.2001 369,-202.2001"/>
<ellipse fill="none" stroke="#000000" cx="365.8" cy="-202.2001" rx="3.2" ry="3.2"/>
</g>
<!-- plan -->
<g id="node3" class="node">
<title>plan</title>
<g id="a_node3"><a xlink:href="../../tables/plan.html" xlink:title="plan" target="_top">
<polygon fill="#ffffff" stroke="transparent" points="8,-152.7 8,-213.7 76,-213.7 76,-152.7 8,-152.7"/>
<polygon fill="#f5f5f5" stroke="transparent" points="8,-190.2 8,-213.2 76,-213.2 76,-190.2 8,-190.2"/>
<polygon fill="none" stroke="#000000" points="8,-190.2 8,-213.2 76,-213.2 76,-190.2 8,-190.2"/>
<text text-anchor="start" x="13" y="-198.8" font-family="Helvetica,sans-Serif" font-weight="bold" font-size="11.00" fill="#000000">plan</text>
<text text-anchor="start" x="41.5219" y="-198.3" font-family="Helvetica,sans-Serif" font-size="11.00" fill="#000000">[table]</text>
<polygon fill="none" stroke="#000000" points="8,-171.2 8,-190.2 76,-190.2 76,-171.2 8,-171.2"/>
<text text-anchor="start" x="11" y="-177.3" font-family="Helvetica,sans-Serif" font-size="11.00" fill="#000000">...</text>
<polygon fill="#ffffff" stroke="transparent" points="8,-152.2 8,-171.2 36,-171.2 36,-152.2 8,-152.2"/>
<polygon fill="none" stroke="#000000" points="8,-152.2 8,-171.2 36,-171.2 36,-152.2 8,-152.2"/>
<text text-anchor="start" x="11" y="-158.3" font-family="Helvetica,sans-Serif" font-size="11.00" fill="#000000">&lt; 1</text>
<polygon fill="#ffffff" stroke="transparent" points="36,-152.2 36,-171.2 51,-171.2 51,-152.2 36,-152.2"/>
<polygon fill="none" stroke="#000000" points="36,-152.2 36,-171.2 51,-171.2 51,-152.2 36,-152.2"/>
<text text-anchor="start" x="41.8862" y="-158.3" font-family="Helvetica,sans-Serif" font-size="11.00" fill="#000000"> &#160;</text>
<polygon fill="#ffffff" stroke="transparent" points="51,-152.2 51,-171.2 76,-171.2 76,-152.2 51,-152.2"/>
<polygon fill="none" stroke="#000000" points="51,-152.2 51,-171.2 76,-171.2 76,-152.2 51,-152.2"/>
<text text-anchor="start" x="57.4053" y="-158.3" font-family="Helvetica,sans-Serif" font-size="11.00" fill="#000000">2 &gt;</text>
</a>
</g>
</g>
<!-- review&#45;&gt;plan -->
<g id="edge2" class="edge">
<title>review:w&#45;&gt;plan:e</title>
<path fill="none" stroke="#000000" d="M110.8428,-180.2C99.4139,-180.2 92.1563,-180.2 76,-180.2"/>
<polygon fill="#000000" stroke="#000000" points="117.5,-180.2001 125.5,-183.8 121.5,-180.2 125.5,-180.2 125.5,-180.2 125.5,-180.2 121.5,-180.2 125.5,-176.6 117.5,-180.2001 117.5,-180.2001"/>
<ellipse fill="none" stroke="#000000" cx="114.3" cy="-180.2001" rx="3.2" ry="3.2"/>
</g>
</g>
</svg>
