<?xml version="1.0" encoding="UTF-8" standalone="no"?>
<!DOCTYPE svg PUBLIC "-//W3C//DTD SVG 1.1//EN"
 "http://www.w3.org/Graphics/SVG/1.1/DTD/svg11.dtd">
<!-- Generated by graphviz version 2.40.1 (20161225.0304)
 -->
<!-- Title: twoDegreesRelationshipsDiagram Pages: 1 -->
<svg width="590pt" height="1115pt"
 viewBox="0.00 0.00 590.00 1115.20" xmlns="http://www.w3.org/2000/svg" xmlns:xlink="http://www.w3.org/1999/xlink">
<g id="graph0" class="graph" transform="scale(1 1) rotate(0) translate(4 1111.2)">
<title>twoDegreesRelationshipsDiagram</title>
<polygon fill="#ffffff" stroke="transparent" points="-4,4 -4,-1111.2 586,-1111.2 586,4 -4,4"/>
<text text-anchor="middle" x="72.4936" y="-7.3" font-family="Helvetica,sans-Serif" font-size="11.00" fill="#000000">Generated by SchemaSpy</text>
<!-- attendee_audit -->
<g id="node1" class="node">
<title>attendee_audit</title>
<g id="a_node1"><a xlink:href="../../tables/attendee_audit.html" xlink:title="attendee_audit" target="_top">
<polygon fill="#ffffff" stroke="transparent" points="328,-1042.2 328,-1103.2 469,-1103.2 469,-1042.2 328,-1042.2"/>
<polygon fill="#f5f5f5" stroke="transparent" points="328.5,-1079.7 328.5,-1102.7 469.5,-1102.7 469.5,-1079.7 328.5,-1079.7"/>
<polygon fill="none" stroke="#000000" points="328.5,-1079.7 328.5,-1102.7 469.5,-1102.7 469.5,-1079.7 328.5,-1079.7"/>
<text text-anchor="start" x="333.5" y="-1088.3" font-family="Helvetica,sans-Serif" font-weight="bold" font-size="11.00" fill="#000000">attendee_audit</text>
<text text-anchor="start" x="435.0219" y="-1087.8" font-family="Helvetica,sans-Serif" font-size="11.00" fill="#000000">[table]</text>
<polygon fill="none" stroke="#000000" points="328.5,-1060.7 328.5,-1079.7 469.5,-1079.7 469.5,-1060.7 328.5,-1060.7"/>
<text text-anchor="start" x="331.5" y="-1066.8" font-family="Helvetica,sans-Serif" font-size="11.00" fill="#000000">...</text>
<polygon fill="#ffffff" stroke="transparent" points="328.5,-1041.7 328.5,-1060.7 397.5,-1060.7 397.5,-1041.7 328.5,-1041.7"/>
<polygon fill="none" stroke="#000000" points="328.5,-1041.7 328.5,-1060.7 397.5,-1060.7 397.5,-1041.7 328.5,-1041.7"/>
<text text-anchor="start" x="331.5" y="-1047.8" font-family="Helvetica,sans-Serif" font-size="11.00" fill="#000000">&lt; 1</text>
<polygon fill="#ffffff" stroke="transparent" points="397.5,-1041.7 397.5,-1060.7 433.5,-1060.7 433.5,-1041.7 397.5,-1041.7"/>
<polygon fill="none" stroke="#000000" points="397.5,-1041.7 397.5,-1060.7 433.5,-1060.7 433.5,-1041.7 397.5,-1041.7"/>
<text text-anchor="start" x="424.3862" y="-1047.8" font-family="Helvetica,sans-Serif" font-size="11.00" fill="#000000"> &#160;</text>
<polygon fill="#ffffff" stroke="transparent" points="433.5,-1041.7 433.5,-1060.7 469.5,-1060.7 469.5,-1041.7 433.5,-1041.7"/>
<polygon fill="none" stroke="#000000" points="433.5,-1041.7 433.5,-1060.7 469.5,-1060.7 469.5,-1041.7 433.5,-1041.7"/>
<text text-anchor="start" x="460.3862" y="-1047.8" font-family="Helvetica,sans-Serif" font-size="11.00" fill="#000000"> &#160;</text>
</a>
</g>
</g>
<!-- audit_revision -->
<g id="node2" class="node">
<title>audit_revision</title>
<g id="a_node2"><a xlink:href="../../tables/audit_revision.html" xlink:title="audit_revision" target="_top">
<polygon fill="#ffffff" stroke="transparent" points="8,-427.2 8,-510.2 174,-510.2 174,-427.2 8,-427.2"/>
<polygon fill="#f5f5f5" stroke="transparent" points="8,-486.7 8,-509.7 174,-509.7 174,-486.7 8,-486.7"/>
<polygon fill="none" stroke="#000000" points="8,-486.7 8,-509.7 174,-509.7 174,-486.7 8,-486.7"/>
<text text-anchor="start" x="13" y="-495.3" font-family="Helvetica,sans-Serif" font-weight="bold" font-size="11.00" fill="#000000">audit_revision</text>
<text text-anchor="start" x="139.0437" y="-494.8" font-family="Helvetica,sans-Serif" font-size="11.00" fill="#000000">[table]</text>
<polygon fill="none" stroke="#000000" points="8,-464.7 8,-486.7 174,-486.7 174,-464.7 8,-464.7"/>
<image xlink:href="../../images/primaryKeys.png" width="11px" height="12px" preserveAspectRatio="xMinYMin meet" x="13" y="-481.7"/>
<text text-anchor="start" x="28" y="-471.8" font-family="Helvetica,sans-Serif" font-size="11.00" fill="#000000">id</text>
<polygon fill="none" stroke="#000000" points="8,-445.7 8,-464.7 174,-464.7 174,-445.7 8,-445.7"/>
<text text-anchor="start" x="11" y="-451.8" font-family="Helvetica,sans-Serif" font-size="11.00" fill="#000000">...</text>
<polygon fill="#ffffff" stroke="transparent" points="8,-426.7 8,-445.7 77,-445.7 77,-426.7 8,-426.7"/>
<polygon fill="none" stroke="#000000" points="8,-426.7 8,-445.7 77,-445.7 77,-426.7 8,-426.7"/>
<text text-anchor="start" x="11" y="-432.8" font-family="Helvetica,sans-Serif" font-size="11.00" fill="#000000"> &#160;</text>
<polygon fill="#ffffff" stroke="transparent" points="77,-426.7 77,-445.7 118,-445.7 118,-426.7 77,-426.7"/>
<polygon fill="none" stroke="#000000" points="77,-426.7 77,-445.7 118,-445.7 118,-426.7 77,-426.7"/>
<text text-anchor="start" x="108.8862" y="-432.8" font-family="Helvetica,sans-Serif" font-size="11.00" fill="#000000"> &#160;</text>
<polygon fill="#ffffff" stroke="transparent" points="118,-426.7 118,-445.7 174,-445.7 174,-426.7 118,-426.7"/>
<polygon fill="none" stroke="#000000" points="118,-426.7 118,-445.7 174,-445.7 174,-426.7 118,-426.7"/>
<text text-anchor="start" x="149.2904" y="-432.8" font-family="Helvetica,sans-Serif" font-size="11.00" fill="#000000">11 &gt;</text>
</a>
</g>
</g>
<!-- attendee_audit&#45;&gt;audit_revision -->
<g id="edge1" class="edge">
<title>attendee_audit:w&#45;&gt;audit_revision:e</title>
<path fill="none" stroke="#000000" d="M313.9017,-1069.7662C269.9635,-1070.0449 244.5196,-1069.6833 215,-1031.7 176.9876,-982.7888 235.9455,-475.7 174,-475.7"/>
<polygon fill="#000000" stroke="#000000" points="320.5001,-1069.7363 328.5163,-1073.3 324.5,-1069.7182 328.5,-1069.7 328.5,-1069.7 328.5,-1069.7 324.5,-1069.7182 328.4837,-1066.1 320.5001,-1069.7363 320.5001,-1069.7363"/>
<ellipse fill="none" stroke="#000000" cx="317.3001" cy="-1069.7508" rx="3.2" ry="3.2"/>
</g>
<!-- contributory_factor_audit -->
<g id="node3" class="node">
<title>contributory_factor_audit</title>
<g id="a_node3"><a xlink:href="../../tables/contributory_factor_audit.html" xlink:title="contributory_factor_audit" target="_top">
<polygon fill="#ffffff" stroke="transparent" points="223,-776.7 223,-1020.7 574,-1020.7 574,-776.7 223,-776.7"/>
<polygon fill="#f5f5f5" stroke="transparent" points="225.5,-995.7 225.5,-1018.7 572.5,-1018.7 572.5,-995.7 225.5,-995.7"/>
<polygon fill="none" stroke="#000000" points="225.5,-995.7 225.5,-1018.7 572.5,-1018.7 572.5,-995.7 225.5,-995.7"/>
<text text-anchor="start" x="230.5" y="-1004.3" font-family="Helvetica,sans-Serif" font-weight="bold" font-size="11.00" fill="#000000">contributory_factor_audit</text>
<text text-anchor="start" x="537.5437" y="-1003.8" font-family="Helvetica,sans-Serif" font-size="11.00" fill="#000000">[table]</text>
<polygon fill="none" stroke="#000000" points="225.5,-973.7 225.5,-995.7 478.5,-995.7 478.5,-973.7 225.5,-973.7"/>
<image xlink:href="../../images/primaryKeys.png" width="11px" height="12px" preserveAspectRatio="xMinYMin meet" x="230.5" y="-990.7"/>
<text text-anchor="start" x="245.5" y="-980.8" font-family="Helvetica,sans-Serif" font-size="11.00" fill="#000000">rev_id</text>
<polygon fill="none" stroke="#000000" points="478.5,-973.7 478.5,-995.7 572.5,-995.7 572.5,-973.7 478.5,-973.7"/>
<text text-anchor="start" x="481.5" y="-981.4" font-family="Helvetica,sans-Serif" font-size="11.00" fill="#000000">int8[19]</text>
<polygon fill="none" stroke="#000000" points="225.5,-951.7 225.5,-973.7 478.5,-973.7 478.5,-951.7 225.5,-951.7"/>
<text text-anchor="start" x="245.5" y="-958.8" font-family="Helvetica,sans-Serif" font-size="11.00" fill="#000000">rev_type</text>
<polygon fill="none" stroke="#000000" points="478.5,-951.7 478.5,-973.7 572.5,-973.7 572.5,-951.7 478.5,-951.7"/>
<text text-anchor="start" x="481.5" y="-959.4" font-family="Helvetica,sans-Serif" font-size="11.00" fill="#000000">int2[5]</text>
<polygon fill="none" stroke="#000000" points="225.5,-929.7 225.5,-951.7 478.5,-951.7 478.5,-929.7 225.5,-929.7"/>
<image xlink:href="../../images/primaryKeys.png" width="11px" height="12px" preserveAspectRatio="xMinYMin meet" x="230.5" y="-946.7"/>
<text text-anchor="start" x="245.5" y="-936.8" font-family="Helvetica,sans-Serif" font-size="11.00" fill="#000000">contributory_factor_id</text>
<polygon fill="none" stroke="#000000" points="478.5,-929.7 478.5,-951.7 572.5,-951.7 572.5,-929.7 478.5,-929.7"/>
<text text-anchor="start" x="481.4758" y="-937.4" font-family="Helvetica,sans-Serif" font-size="11.00" fill="#000000">uuid[2147483647]</text>
<polygon fill="none" stroke="#000000" points="225.5,-907.7 225.5,-929.7 478.5,-929.7 478.5,-907.7 225.5,-907.7"/>
<image xlink:href="../../images/foreignKeys.png" width="11px" height="12px" preserveAspectRatio="xMinYMin meet" x="230.5" y="-924.7"/>
<text text-anchor="start" x="245.5" y="-914.8" font-family="Helvetica,sans-Serif" font-size="11.00" fill="#000000">referral_id</text>
<polygon fill="none" stroke="#000000" points="478.5,-907.7 478.5,-929.7 572.5,-929.7 572.5,-907.7 478.5,-907.7"/>
<text text-anchor="start" x="481.4758" y="-915.4" font-family="Helvetica,sans-Serif" font-size="11.00" fill="#000000">uuid[2147483647]</text>
<polygon fill="none" stroke="#000000" points="225.5,-885.7 225.5,-907.7 478.5,-907.7 478.5,-885.7 225.5,-885.7"/>
<image xlink:href="../../images/foreignKeys.png" width="11px" height="12px" preserveAspectRatio="xMinYMin meet" x="230.5" y="-902.7"/>
<text text-anchor="start" x="245.5" y="-892.8" font-family="Helvetica,sans-Serif" font-size="11.00" fill="#000000">contributory_factor_type_id</text>
<polygon fill="none" stroke="#000000" points="478.5,-885.7 478.5,-907.7 572.5,-907.7 572.5,-885.7 478.5,-885.7"/>
<text text-anchor="start" x="481.5" y="-893.4" font-family="Helvetica,sans-Serif" font-size="11.00" fill="#000000">int8[19]</text>
<polygon fill="none" stroke="#000000" points="225.5,-863.7 225.5,-885.7 478.5,-885.7 478.5,-863.7 225.5,-863.7"/>
<text text-anchor="start" x="245.5" y="-870.8" font-family="Helvetica,sans-Serif" font-size="11.00" fill="#000000">comment</text>
<polygon fill="none" stroke="#000000" points="478.5,-863.7 478.5,-885.7 572.5,-885.7 572.5,-863.7 478.5,-863.7"/>
<text text-anchor="start" x="481.5" y="-871.4" font-family="Helvetica,sans-Serif" font-size="11.00" fill="#000000">text[2147483647]</text>
<polygon fill="none" stroke="#000000" points="225.5,-841.7 225.5,-863.7 478.5,-863.7 478.5,-841.7 225.5,-841.7"/>
<text text-anchor="start" x="245.5" y="-848.8" font-family="Helvetica,sans-Serif" font-size="11.00" fill="#000000">contributory_factor_type_modified</text>
<polygon fill="none" stroke="#000000" points="478.5,-841.7 478.5,-863.7 572.5,-863.7 572.5,-841.7 478.5,-841.7"/>
<text text-anchor="start" x="481.5" y="-849.4" font-family="Helvetica,sans-Serif" font-size="11.00" fill="#000000">bool[1]</text>
<polygon fill="none" stroke="#000000" points="225.5,-819.7 225.5,-841.7 478.5,-841.7 478.5,-819.7 225.5,-819.7"/>
<text text-anchor="start" x="245.5" y="-826.8" font-family="Helvetica,sans-Serif" font-size="11.00" fill="#000000">comment_modified</text>
<polygon fill="none" stroke="#000000" points="478.5,-819.7 478.5,-841.7 572.5,-841.7 572.5,-819.7 478.5,-819.7"/>
<text text-anchor="start" x="481.5" y="-827.4" font-family="Helvetica,sans-Serif" font-size="11.00" fill="#000000">bool[1]</text>
<polygon fill="none" stroke="#000000" points="225.5,-797.7 225.5,-819.7 478.5,-819.7 478.5,-797.7 225.5,-797.7"/>
<image xlink:href="../../images/foreignKeys.png" width="11px" height="12px" preserveAspectRatio="xMinYMin meet" x="230.5" y="-814.7"/>
<text text-anchor="start" x="245.5" y="-804.8" font-family="Helvetica,sans-Serif" font-size="11.00" fill="#000000">legacy_id</text>
<polygon fill="none" stroke="#000000" points="478.5,-797.7 478.5,-819.7 572.5,-819.7 572.5,-797.7 478.5,-797.7"/>
<text text-anchor="start" x="481.5" y="-805.4" font-family="Helvetica,sans-Serif" font-size="11.00" fill="#000000">int8[19]</text>
<polygon fill="#ffffff" stroke="transparent" points="225.5,-778.7 225.5,-797.7 356.5,-797.7 356.5,-778.7 225.5,-778.7"/>
<polygon fill="none" stroke="#000000" points="225.5,-778.7 225.5,-797.7 356.5,-797.7 356.5,-778.7 225.5,-778.7"/>
<text text-anchor="start" x="228.5" y="-784.8" font-family="Helvetica,sans-Serif" font-size="11.00" fill="#000000">&lt; 1</text>
<polygon fill="#ffffff" stroke="transparent" points="356.5,-778.7 356.5,-797.7 478.5,-797.7 478.5,-778.7 356.5,-778.7"/>
<polygon fill="none" stroke="#000000" points="356.5,-778.7 356.5,-797.7 478.5,-797.7 478.5,-778.7 356.5,-778.7"/>
<text text-anchor="start" x="469.3862" y="-784.8" font-family="Helvetica,sans-Serif" font-size="11.00" fill="#000000"> &#160;</text>
<polygon fill="#ffffff" stroke="transparent" points="478.5,-778.7 478.5,-797.7 572.5,-797.7 572.5,-778.7 478.5,-778.7"/>
<polygon fill="none" stroke="#000000" points="478.5,-778.7 478.5,-797.7 572.5,-797.7 572.5,-778.7 478.5,-778.7"/>
<text text-anchor="start" x="553.9053" y="-784.8" font-family="Helvetica,sans-Serif" font-size="11.00" fill="#000000">0 &gt;</text>
<polygon fill="none" stroke="#000000" stroke-width="2" points="224,-777.7 224,-1019.7 573,-1019.7 573,-777.7 224,-777.7"/>
</a>
</g>
</g>
<!-- contributory_factor_audit&#45;&gt;audit_revision -->
<g id="edge2" class="edge">
<title>contributory_factor_audit:w&#45;&gt;audit_revision:e</title>
<path fill="none" stroke="#000000" d="M211.3617,-981.4496C127.6636,-938.0997 282.3595,-475.7 174,-475.7"/>
<polygon fill="#000000" stroke="#000000" points="217.7034,-982.9075 224.6934,-988.2085 221.6017,-983.8038 225.5,-984.7 225.5,-984.7 225.5,-984.7 221.6017,-983.8038 226.3066,-981.1915 217.7034,-982.9075 217.7034,-982.9075"/>
<ellipse fill="none" stroke="#000000" cx="214.5847" cy="-982.1905" rx="3.2" ry="3.2"/>
</g>
<!-- csip_record_audit -->
<g id="node4" class="node">
<title>csip_record_audit</title>
<g id="a_node4"><a xlink:href="../../tables/csip_record_audit.html" xlink:title="csip_record_audit" target="_top">
<polygon fill="#ffffff" stroke="transparent" points="320.5,-694.2 320.5,-755.2 476.5,-755.2 476.5,-694.2 320.5,-694.2"/>
<polygon fill="#f5f5f5" stroke="transparent" points="320.5,-731.7 320.5,-754.7 476.5,-754.7 476.5,-731.7 320.5,-731.7"/>
<polygon fill="none" stroke="#000000" points="320.5,-731.7 320.5,-754.7 476.5,-754.7 476.5,-731.7 320.5,-731.7"/>
<text text-anchor="start" x="325.5" y="-740.3" font-family="Helvetica,sans-Serif" font-weight="bold" font-size="11.00" fill="#000000">csip_record_audit</text>
<text text-anchor="start" x="442.0219" y="-739.8" font-family="Helvetica,sans-Serif" font-size="11.00" fill="#000000">[table]</text>
<polygon fill="none" stroke="#000000" points="320.5,-712.7 320.5,-731.7 476.5,-731.7 476.5,-712.7 320.5,-712.7"/>
<text text-anchor="start" x="323.5" y="-718.8" font-family="Helvetica,sans-Serif" font-size="11.00" fill="#000000">...</text>
<polygon fill="#ffffff" stroke="transparent" points="320.5,-693.7 320.5,-712.7 396.5,-712.7 396.5,-693.7 320.5,-693.7"/>
<polygon fill="none" stroke="#000000" points="320.5,-693.7 320.5,-712.7 396.5,-712.7 396.5,-693.7 320.5,-693.7"/>
<text text-anchor="start" x="323.5" y="-699.8" font-family="Helvetica,sans-Serif" font-size="11.00" fill="#000000">&lt; 1</text>
<polygon fill="#ffffff" stroke="transparent" points="396.5,-693.7 396.5,-712.7 436.5,-712.7 436.5,-693.7 396.5,-693.7"/>
<polygon fill="none" stroke="#000000" points="396.5,-693.7 396.5,-712.7 436.5,-712.7 436.5,-693.7 396.5,-693.7"/>
<text text-anchor="start" x="427.3862" y="-699.8" font-family="Helvetica,sans-Serif" font-size="11.00" fill="#000000"> &#160;</text>
<polygon fill="#ffffff" stroke="transparent" points="436.5,-693.7 436.5,-712.7 476.5,-712.7 476.5,-693.7 436.5,-693.7"/>
<polygon fill="none" stroke="#000000" points="436.5,-693.7 436.5,-712.7 476.5,-712.7 476.5,-693.7 436.5,-693.7"/>
<text text-anchor="start" x="467.3862" y="-699.8" font-family="Helvetica,sans-Serif" font-size="11.00" fill="#000000"> &#160;</text>
</a>
</g>
</g>
<!-- csip_record_audit&#45;&gt;audit_revision -->
<g id="edge3" class="edge">
<title>csip_record_audit:w&#45;&gt;audit_revision:e</title>
<path fill="none" stroke="#000000" d="M305.84,-721.6521C265.7632,-721.2557 244.1179,-717.5871 215,-683.7 153.593,-612.2352 268.2233,-475.7 174,-475.7"/>
<polygon fill="#000000" stroke="#000000" points="312.5,-721.6738 320.4882,-725.3 316.5,-721.6869 320.5,-721.7 320.5,-721.7 320.5,-721.7 316.5,-721.6869 320.5118,-718.1 312.5,-721.6738 312.5,-721.6738"/>
<ellipse fill="none" stroke="#000000" cx="309.3001" cy="-721.6633" rx="3.2" ry="3.2"/>
</g>
<!-- decision_and_actions_audit -->
<g id="node5" class="node">
<title>decision_and_actions_audit</title>
<g id="a_node5"><a xlink:href="../../tables/decision_and_actions_audit.html" xlink:title="decision_and_actions_audit" target="_top">
<polygon fill="#ffffff" stroke="transparent" points="287.5,-612.2 287.5,-673.2 509.5,-673.2 509.5,-612.2 287.5,-612.2"/>
<polygon fill="#f5f5f5" stroke="transparent" points="287.5,-649.7 287.5,-672.7 509.5,-672.7 509.5,-649.7 287.5,-649.7"/>
<polygon fill="none" stroke="#000000" points="287.5,-649.7 287.5,-672.7 509.5,-672.7 509.5,-649.7 287.5,-649.7"/>
<text text-anchor="start" x="292.5" y="-658.3" font-family="Helvetica,sans-Serif" font-weight="bold" font-size="11.00" fill="#000000">decision_and_actions_audit</text>
<text text-anchor="start" x="475.0219" y="-657.8" font-family="Helvetica,sans-Serif" font-size="11.00" fill="#000000">[table]</text>
<polygon fill="none" stroke="#000000" points="287.5,-630.7 287.5,-649.7 509.5,-649.7 509.5,-630.7 287.5,-630.7"/>
<text text-anchor="start" x="290.5" y="-636.8" font-family="Helvetica,sans-Serif" font-size="11.00" fill="#000000">...</text>
<polygon fill="#ffffff" stroke="transparent" points="287.5,-611.7 287.5,-630.7 396.5,-630.7 396.5,-611.7 287.5,-611.7"/>
<polygon fill="none" stroke="#000000" points="287.5,-611.7 287.5,-630.7 396.5,-630.7 396.5,-611.7 287.5,-611.7"/>
<text text-anchor="start" x="290.5" y="-617.8" font-family="Helvetica,sans-Serif" font-size="11.00" fill="#000000">&lt; 1</text>
<polygon fill="#ffffff" stroke="transparent" points="396.5,-611.7 396.5,-630.7 452.5,-630.7 452.5,-611.7 396.5,-611.7"/>
<polygon fill="none" stroke="#000000" points="396.5,-611.7 396.5,-630.7 452.5,-630.7 452.5,-611.7 396.5,-611.7"/>
<text text-anchor="start" x="443.3862" y="-617.8" font-family="Helvetica,sans-Serif" font-size="11.00" fill="#000000"> &#160;</text>
<polygon fill="#ffffff" stroke="transparent" points="452.5,-611.7 452.5,-630.7 509.5,-630.7 509.5,-611.7 452.5,-611.7"/>
<polygon fill="none" stroke="#000000" points="452.5,-611.7 452.5,-630.7 509.5,-630.7 509.5,-611.7 452.5,-611.7"/>
<text text-anchor="start" x="500.3862" y="-617.8" font-family="Helvetica,sans-Serif" font-size="11.00" fill="#000000"> &#160;</text>
</a>
</g>
</g>
<!-- decision_and_actions_audit&#45;&gt;audit_revision -->
<g id="edge4" class="edge">
<title>decision_and_actions_audit:w&#45;&gt;audit_revision:e</title>
<path fill="none" stroke="#000000" d="M273.1088,-639.0381C247.2381,-636.3825 235.0804,-625.4772 215,-601.7 177.003,-556.708 232.8901,-475.7 174,-475.7"/>
<polygon fill="#000000" stroke="#000000" points="279.5084,-639.3324 287.3346,-643.2962 283.5042,-639.5162 287.5,-639.7 287.5,-639.7 287.5,-639.7 283.5042,-639.5162 287.6654,-636.1038 279.5084,-639.3324 279.5084,-639.3324"/>
<ellipse fill="none" stroke="#000000" cx="276.3118" cy="-639.1854" rx="3.2" ry="3.2"/>
</g>
<!-- identified_need_audit -->
<g id="node6" class="node">
<title>identified_need_audit</title>
<g id="a_node6"><a xlink:href="../../tables/identified_need_audit.html" xlink:title="identified_need_audit" target="_top">
<polygon fill="#ffffff" stroke="transparent" points="306.5,-530.2 306.5,-591.2 490.5,-591.2 490.5,-530.2 306.5,-530.2"/>
<polygon fill="#f5f5f5" stroke="transparent" points="306.5,-567.7 306.5,-590.7 490.5,-590.7 490.5,-567.7 306.5,-567.7"/>
<polygon fill="none" stroke="#000000" points="306.5,-567.7 306.5,-590.7 490.5,-590.7 490.5,-567.7 306.5,-567.7"/>
<text text-anchor="start" x="311.5" y="-576.3" font-family="Helvetica,sans-Serif" font-weight="bold" font-size="11.00" fill="#000000">identified_need_audit</text>
<text text-anchor="start" x="456.0219" y="-575.8" font-family="Helvetica,sans-Serif" font-size="11.00" fill="#000000">[table]</text>
<polygon fill="none" stroke="#000000" points="306.5,-548.7 306.5,-567.7 490.5,-567.7 490.5,-548.7 306.5,-548.7"/>
<text text-anchor="start" x="309.5" y="-554.8" font-family="Helvetica,sans-Serif" font-size="11.00" fill="#000000">...</text>
<polygon fill="#ffffff" stroke="transparent" points="306.5,-529.7 306.5,-548.7 396.5,-548.7 396.5,-529.7 306.5,-529.7"/>
<polygon fill="none" stroke="#000000" points="306.5,-529.7 306.5,-548.7 396.5,-548.7 396.5,-529.7 306.5,-529.7"/>
<text text-anchor="start" x="309.5" y="-535.8" font-family="Helvetica,sans-Serif" font-size="11.00" fill="#000000">&lt; 1</text>
<polygon fill="#ffffff" stroke="transparent" points="396.5,-529.7 396.5,-548.7 443.5,-548.7 443.5,-529.7 396.5,-529.7"/>
<polygon fill="none" stroke="#000000" points="396.5,-529.7 396.5,-548.7 443.5,-548.7 443.5,-529.7 396.5,-529.7"/>
<text text-anchor="start" x="434.3862" y="-535.8" font-family="Helvetica,sans-Serif" font-size="11.00" fill="#000000"> &#160;</text>
<polygon fill="#ffffff" stroke="transparent" points="443.5,-529.7 443.5,-548.7 490.5,-548.7 490.5,-529.7 443.5,-529.7"/>
<polygon fill="none" stroke="#000000" points="443.5,-529.7 443.5,-548.7 490.5,-548.7 490.5,-529.7 443.5,-529.7"/>
<text text-anchor="start" x="481.3862" y="-535.8" font-family="Helvetica,sans-Serif" font-size="11.00" fill="#000000"> &#160;</text>
</a>
</g>
</g>
<!-- identified_need_audit&#45;&gt;audit_revision -->
<g id="edge5" class="edge">
<title>identified_need_audit:w&#45;&gt;audit_revision:e</title>
<path fill="none" stroke="#000000" d="M291.8409,-557.1346C259.3641,-554.4018 246.785,-541.7807 215,-519.7 193.0477,-504.45 200.7296,-475.7 174,-475.7"/>
<polygon fill="#000000" stroke="#000000" points="298.5059,-557.3916 306.3612,-561.2973 302.503,-557.5458 306.5,-557.7 306.5,-557.7 306.5,-557.7 302.503,-557.5458 306.6388,-554.1027 298.5059,-557.3916 298.5059,-557.3916"/>
<ellipse fill="none" stroke="#000000" cx="295.3083" cy="-557.2683" rx="3.2" ry="3.2"/>
</g>
<!-- interview_audit -->
<g id="node7" class="node">
<title>interview_audit</title>
<g id="a_node7"><a xlink:href="../../tables/interview_audit.html" xlink:title="interview_audit" target="_top">
<polygon fill="#ffffff" stroke="transparent" points="327,-448.2 327,-509.2 470,-509.2 470,-448.2 327,-448.2"/>
<polygon fill="#f5f5f5" stroke="transparent" points="327.5,-485.7 327.5,-508.7 470.5,-508.7 470.5,-485.7 327.5,-485.7"/>
<polygon fill="none" stroke="#000000" points="327.5,-485.7 327.5,-508.7 470.5,-508.7 470.5,-485.7 327.5,-485.7"/>
<text text-anchor="start" x="332.5" y="-494.3" font-family="Helvetica,sans-Serif" font-weight="bold" font-size="11.00" fill="#000000">interview_audit</text>
<text text-anchor="start" x="436.0219" y="-493.8" font-family="Helvetica,sans-Serif" font-size="11.00" fill="#000000">[table]</text>
<polygon fill="none" stroke="#000000" points="327.5,-466.7 327.5,-485.7 470.5,-485.7 470.5,-466.7 327.5,-466.7"/>
<text text-anchor="start" x="330.5" y="-472.8" font-family="Helvetica,sans-Serif" font-size="11.00" fill="#000000">...</text>
<polygon fill="#ffffff" stroke="transparent" points="327.5,-447.7 327.5,-466.7 397.5,-466.7 397.5,-447.7 327.5,-447.7"/>
<polygon fill="none" stroke="#000000" points="327.5,-447.7 327.5,-466.7 397.5,-466.7 397.5,-447.7 327.5,-447.7"/>
<text text-anchor="start" x="330.5" y="-453.8" font-family="Helvetica,sans-Serif" font-size="11.00" fill="#000000">&lt; 1</text>
<polygon fill="#ffffff" stroke="transparent" points="397.5,-447.7 397.5,-466.7 433.5,-466.7 433.5,-447.7 397.5,-447.7"/>
<polygon fill="none" stroke="#000000" points="397.5,-447.7 397.5,-466.7 433.5,-466.7 433.5,-447.7 397.5,-447.7"/>
<text text-anchor="start" x="424.3862" y="-453.8" font-family="Helvetica,sans-Serif" font-size="11.00" fill="#000000"> &#160;</text>
<polygon fill="#ffffff" stroke="transparent" points="433.5,-447.7 433.5,-466.7 470.5,-466.7 470.5,-447.7 433.5,-447.7"/>
<polygon fill="none" stroke="#000000" points="433.5,-447.7 433.5,-466.7 470.5,-466.7 470.5,-447.7 433.5,-447.7"/>
<text text-anchor="start" x="461.3862" y="-453.8" font-family="Helvetica,sans-Serif" font-size="11.00" fill="#000000"> &#160;</text>
</a>
</g>
</g>
<!-- interview_audit&#45;&gt;audit_revision -->
<g id="edge6" class="edge">
<title>interview_audit:w&#45;&gt;audit_revision:e</title>
<path fill="none" stroke="#000000" d="M312.7556,-475.7C256.3826,-475.7 237.0256,-475.7 174,-475.7"/>
<polygon fill="#000000" stroke="#000000" points="319.5,-475.7001 327.5,-479.3 323.5,-475.7 327.5,-475.7 327.5,-475.7 327.5,-475.7 323.5,-475.7 327.5,-472.1 319.5,-475.7001 319.5,-475.7001"/>
<ellipse fill="none" stroke="#000000" cx="316.3" cy="-475.7001" rx="3.2" ry="3.2"/>
</g>
<!-- investigation_audit -->
<g id="node8" class="node">
<title>investigation_audit</title>
<g id="a_node8"><a xlink:href="../../tables/investigation_audit.html" xlink:title="investigation_audit" target="_top">
<polygon fill="#ffffff" stroke="transparent" points="314,-366.2 314,-427.2 483,-427.2 483,-366.2 314,-366.2"/>
<polygon fill="#f5f5f5" stroke="transparent" points="314.5,-403.7 314.5,-426.7 483.5,-426.7 483.5,-403.7 314.5,-403.7"/>
<polygon fill="none" stroke="#000000" points="314.5,-403.7 314.5,-426.7 483.5,-426.7 483.5,-403.7 314.5,-403.7"/>
<text text-anchor="start" x="319.5" y="-412.3" font-family="Helvetica,sans-Serif" font-weight="bold" font-size="11.00" fill="#000000">investigation_audit</text>
<text text-anchor="start" x="449.0219" y="-411.8" font-family="Helvetica,sans-Serif" font-size="11.00" fill="#000000">[table]</text>
<polygon fill="none" stroke="#000000" points="314.5,-384.7 314.5,-403.7 483.5,-403.7 483.5,-384.7 314.5,-384.7"/>
<text text-anchor="start" x="317.5" y="-390.8" font-family="Helvetica,sans-Serif" font-size="11.00" fill="#000000">...</text>
<polygon fill="#ffffff" stroke="transparent" points="314.5,-365.7 314.5,-384.7 397.5,-384.7 397.5,-365.7 314.5,-365.7"/>
<polygon fill="none" stroke="#000000" points="314.5,-365.7 314.5,-384.7 397.5,-384.7 397.5,-365.7 314.5,-365.7"/>
<text text-anchor="start" x="317.5" y="-371.8" font-family="Helvetica,sans-Serif" font-size="11.00" fill="#000000">&lt; 1</text>
<polygon fill="#ffffff" stroke="transparent" points="397.5,-365.7 397.5,-384.7 440.5,-384.7 440.5,-365.7 397.5,-365.7"/>
<polygon fill="none" stroke="#000000" points="397.5,-365.7 397.5,-384.7 440.5,-384.7 440.5,-365.7 397.5,-365.7"/>
<text text-anchor="start" x="431.3862" y="-371.8" font-family="Helvetica,sans-Serif" font-size="11.00" fill="#000000"> &#160;</text>
<polygon fill="#ffffff" stroke="transparent" points="440.5,-365.7 440.5,-384.7 483.5,-384.7 483.5,-365.7 440.5,-365.7"/>
<polygon fill="none" stroke="#000000" points="440.5,-365.7 440.5,-384.7 483.5,-384.7 483.5,-365.7 440.5,-365.7"/>
<text text-anchor="start" x="474.3862" y="-371.8" font-family="Helvetica,sans-Serif" font-size="11.00" fill="#000000"> &#160;</text>
</a>
</g>
</g>
<!-- investigation_audit&#45;&gt;audit_revision -->
<g id="edge7" class="edge">
<title>investigation_audit:w&#45;&gt;audit_revision:e</title>
<path fill="none" stroke="#000000" d="M299.8956,-394.3145C263.4403,-397.6211 250.9769,-414.0312 215,-437.7 194.2438,-451.3552 198.8452,-475.7 174,-475.7"/>
<polygon fill="#000000" stroke="#000000" points="306.5071,-394.0364 314.6514,-397.2968 310.5035,-393.8682 314.5,-393.7 314.5,-393.7 314.5,-393.7 310.5035,-393.8682 314.3486,-390.1032 306.5071,-394.0364 306.5071,-394.0364"/>
<ellipse fill="none" stroke="#000000" cx="303.3099" cy="-394.1709" rx="3.2" ry="3.2"/>
</g>
<!-- plan_audit -->
<g id="node9" class="node">
<title>plan_audit</title>
<g id="a_node9"><a xlink:href="../../tables/plan_audit.html" xlink:title="plan_audit" target="_top">
<polygon fill="#ffffff" stroke="transparent" points="344,-284.2 344,-345.2 453,-345.2 453,-284.2 344,-284.2"/>
<polygon fill="#f5f5f5" stroke="transparent" points="344.5,-321.7 344.5,-344.7 453.5,-344.7 453.5,-321.7 344.5,-321.7"/>
<polygon fill="none" stroke="#000000" points="344.5,-321.7 344.5,-344.7 453.5,-344.7 453.5,-321.7 344.5,-321.7"/>
<text text-anchor="start" x="349.5" y="-330.3" font-family="Helvetica,sans-Serif" font-weight="bold" font-size="11.00" fill="#000000">plan_audit</text>
<text text-anchor="start" x="419.0219" y="-329.8" font-family="Helvetica,sans-Serif" font-size="11.00" fill="#000000">[table]</text>
<polygon fill="none" stroke="#000000" points="344.5,-302.7 344.5,-321.7 453.5,-321.7 453.5,-302.7 344.5,-302.7"/>
<text text-anchor="start" x="347.5" y="-308.8" font-family="Helvetica,sans-Serif" font-size="11.00" fill="#000000">...</text>
<polygon fill="#ffffff" stroke="transparent" points="344.5,-283.7 344.5,-302.7 397.5,-302.7 397.5,-283.7 344.5,-283.7"/>
<polygon fill="none" stroke="#000000" points="344.5,-283.7 344.5,-302.7 397.5,-302.7 397.5,-283.7 344.5,-283.7"/>
<text text-anchor="start" x="347.5" y="-289.8" font-family="Helvetica,sans-Serif" font-size="11.00" fill="#000000">&lt; 1</text>
<polygon fill="#ffffff" stroke="transparent" points="397.5,-283.7 397.5,-302.7 425.5,-302.7 425.5,-283.7 397.5,-283.7"/>
<polygon fill="none" stroke="#000000" points="397.5,-283.7 397.5,-302.7 425.5,-302.7 425.5,-283.7 397.5,-283.7"/>
<text text-anchor="start" x="416.3862" y="-289.8" font-family="Helvetica,sans-Serif" font-size="11.00" fill="#000000"> &#160;</text>
<polygon fill="#ffffff" stroke="transparent" points="425.5,-283.7 425.5,-302.7 453.5,-302.7 453.5,-283.7 425.5,-283.7"/>
<polygon fill="none" stroke="#000000" points="425.5,-283.7 425.5,-302.7 453.5,-302.7 453.5,-283.7 425.5,-283.7"/>
<text text-anchor="start" x="444.3862" y="-289.8" font-family="Helvetica,sans-Serif" font-size="11.00" fill="#000000"> &#160;</text>
</a>
</g>
</g>
<!-- plan_audit&#45;&gt;audit_revision -->
<g id="edge8" class="edge">
<title>plan_audit:w&#45;&gt;audit_revision:e</title>
<path fill="none" stroke="#000000" d="M329.8961,-311.7465C279.2751,-312.1725 254.4065,-316.3605 215,-355.7 175.1133,-395.5189 230.3604,-475.7 174,-475.7"/>
<polygon fill="#000000" stroke="#000000" points="336.5,-311.7255 344.5115,-315.3 340.5,-311.7128 344.5,-311.7 344.5,-311.7 344.5,-311.7 340.5,-311.7128 344.4885,-308.1 336.5,-311.7255 336.5,-311.7255"/>
<ellipse fill="none" stroke="#000000" cx="333.3001" cy="-311.7357" rx="3.2" ry="3.2"/>
</g>
<!-- referral_audit -->
<g id="node10" class="node">
<title>referral_audit</title>
<g id="a_node10"><a xlink:href="../../tables/referral_audit.html" xlink:title="referral_audit" target="_top">
<polygon fill="#ffffff" stroke="transparent" points="333,-202.2 333,-263.2 464,-263.2 464,-202.2 333,-202.2"/>
<polygon fill="#f5f5f5" stroke="transparent" points="333.5,-239.7 333.5,-262.7 464.5,-262.7 464.5,-239.7 333.5,-239.7"/>
<polygon fill="none" stroke="#000000" points="333.5,-239.7 333.5,-262.7 464.5,-262.7 464.5,-239.7 333.5,-239.7"/>
<text text-anchor="start" x="338.5" y="-248.3" font-family="Helvetica,sans-Serif" font-weight="bold" font-size="11.00" fill="#000000">referral_audit</text>
<text text-anchor="start" x="430.0219" y="-247.8" font-family="Helvetica,sans-Serif" font-size="11.00" fill="#000000">[table]</text>
<polygon fill="none" stroke="#000000" points="333.5,-220.7 333.5,-239.7 464.5,-239.7 464.5,-220.7 333.5,-220.7"/>
<text text-anchor="start" x="336.5" y="-226.8" font-family="Helvetica,sans-Serif" font-size="11.00" fill="#000000">...</text>
<polygon fill="#ffffff" stroke="transparent" points="333.5,-201.7 333.5,-220.7 397.5,-220.7 397.5,-201.7 333.5,-201.7"/>
<polygon fill="none" stroke="#000000" points="333.5,-201.7 333.5,-220.7 397.5,-220.7 397.5,-201.7 333.5,-201.7"/>
<text text-anchor="start" x="336.5" y="-207.8" font-family="Helvetica,sans-Serif" font-size="11.00" fill="#000000">&lt; 1</text>
<polygon fill="#ffffff" stroke="transparent" points="397.5,-201.7 397.5,-220.7 430.5,-220.7 430.5,-201.7 397.5,-201.7"/>
<polygon fill="none" stroke="#000000" points="397.5,-201.7 397.5,-220.7 430.5,-220.7 430.5,-201.7 397.5,-201.7"/>
<text text-anchor="start" x="421.3862" y="-207.8" font-family="Helvetica,sans-Serif" font-size="11.00" fill="#000000"> &#160;</text>
<polygon fill="#ffffff" stroke="transparent" points="430.5,-201.7 430.5,-220.7 464.5,-220.7 464.5,-201.7 430.5,-201.7"/>
<polygon fill="none" stroke="#000000" points="430.5,-201.7 430.5,-220.7 464.5,-220.7 464.5,-201.7 430.5,-201.7"/>
<text text-anchor="start" x="455.3862" y="-207.8" font-family="Helvetica,sans-Serif" font-size="11.00" fill="#000000"> &#160;</text>
</a>
</g>
</g>
<!-- referral_audit&#45;&gt;audit_revision -->
<g id="edge9" class="edge">
<title>referral_audit:w&#45;&gt;audit_revision:e</title>
<path fill="none" stroke="#000000" d="M319.0637,-229.7609C272.5982,-230.2699 248.243,-234.8483 215,-273.7 155.4424,-343.306 265.6084,-475.7 174,-475.7"/>
<polygon fill="#000000" stroke="#000000" points="325.5001,-229.7338 333.5152,-233.3 329.5,-229.7169 333.5,-229.7 333.5,-229.7 333.5,-229.7 329.5,-229.7169 333.4848,-226.1 325.5001,-229.7338 325.5001,-229.7338"/>
<ellipse fill="none" stroke="#000000" cx="322.3001" cy="-229.7473" rx="3.2" ry="3.2"/>
</g>
<!-- review_audit -->
<g id="node11" class="node">
<title>review_audit</title>
<g id="a_node11"><a xlink:href="../../tables/review_audit.html" xlink:title="review_audit" target="_top">
<polygon fill="#ffffff" stroke="transparent" points="336,-120.2 336,-181.2 461,-181.2 461,-120.2 336,-120.2"/>
<polygon fill="#f5f5f5" stroke="transparent" points="336.5,-157.7 336.5,-180.7 461.5,-180.7 461.5,-157.7 336.5,-157.7"/>
<polygon fill="none" stroke="#000000" points="336.5,-157.7 336.5,-180.7 461.5,-180.7 461.5,-157.7 336.5,-157.7"/>
<text text-anchor="start" x="341.5" y="-166.3" font-family="Helvetica,sans-Serif" font-weight="bold" font-size="11.00" fill="#000000">review_audit</text>
<text text-anchor="start" x="427.0219" y="-165.8" font-family="Helvetica,sans-Serif" font-size="11.00" fill="#000000">[table]</text>
<polygon fill="none" stroke="#000000" points="336.5,-138.7 336.5,-157.7 461.5,-157.7 461.5,-138.7 336.5,-138.7"/>
<text text-anchor="start" x="339.5" y="-144.8" font-family="Helvetica,sans-Serif" font-size="11.00" fill="#000000">...</text>
<polygon fill="#ffffff" stroke="transparent" points="336.5,-119.7 336.5,-138.7 397.5,-138.7 397.5,-119.7 336.5,-119.7"/>
<polygon fill="none" stroke="#000000" points="336.5,-119.7 336.5,-138.7 397.5,-138.7 397.5,-119.7 336.5,-119.7"/>
<text text-anchor="start" x="339.5" y="-125.8" font-family="Helvetica,sans-Serif" font-size="11.00" fill="#000000">&lt; 1</text>
<polygon fill="#ffffff" stroke="transparent" points="397.5,-119.7 397.5,-138.7 429.5,-138.7 429.5,-119.7 397.5,-119.7"/>
<polygon fill="none" stroke="#000000" points="397.5,-119.7 397.5,-138.7 429.5,-138.7 429.5,-119.7 397.5,-119.7"/>
<text text-anchor="start" x="420.3862" y="-125.8" font-family="Helvetica,sans-Serif" font-size="11.00" fill="#000000"> &#160;</text>
<polygon fill="#ffffff" stroke="transparent" points="429.5,-119.7 429.5,-138.7 461.5,-138.7 461.5,-119.7 429.5,-119.7"/>
<polygon fill="none" stroke="#000000" points="429.5,-119.7 429.5,-138.7 461.5,-138.7 461.5,-119.7 429.5,-119.7"/>
<text text-anchor="start" x="452.3862" y="-125.8" font-family="Helvetica,sans-Serif" font-size="11.00" fill="#000000"> &#160;</text>
</a>
</g>
</g>
<!-- review_audit&#45;&gt;audit_revision -->
<g id="edge10" class="edge">
<title>review_audit:w&#45;&gt;audit_revision:e</title>
<path fill="none" stroke="#000000" d="M322.0175,-147.7185C274.1151,-147.954 248.0755,-151.0785 215,-191.7 174.7383,-241.1472 237.7654,-475.7 174,-475.7"/>
<polygon fill="#000000" stroke="#000000" points="328.5,-147.7103 336.5046,-151.3 332.5,-147.7052 336.5,-147.7 336.5,-147.7 336.5,-147.7 332.5,-147.7052 336.4954,-144.1 328.5,-147.7103 328.5,-147.7103"/>
<ellipse fill="none" stroke="#000000" cx="325.3" cy="-147.7144" rx="3.2" ry="3.2"/>
</g>
<!-- safer_custody_screening_outcome_audit -->
<g id="node12" class="node">
<title>safer_custody_screening_outcome_audit</title>
<g id="a_node12"><a xlink:href="../../tables/safer_custody_screening_outcome_audit.html" xlink:title="safer_custody_screening_outcome_audit" target="_top">
<polygon fill="#ffffff" stroke="transparent" points="243.5,-38.2 243.5,-99.2 553.5,-99.2 553.5,-38.2 243.5,-38.2"/>
<polygon fill="#f5f5f5" stroke="transparent" points="243.5,-75.7 243.5,-98.7 553.5,-98.7 553.5,-75.7 243.5,-75.7"/>
<polygon fill="none" stroke="#000000" points="243.5,-75.7 243.5,-98.7 553.5,-98.7 553.5,-75.7 243.5,-75.7"/>
<text text-anchor="start" x="248.5" y="-84.3" font-family="Helvetica,sans-Serif" font-weight="bold" font-size="11.00" fill="#000000">safer_custody_screening_outcome_audit</text>
<text text-anchor="start" x="519.0219" y="-83.8" font-family="Helvetica,sans-Serif" font-size="11.00" fill="#000000">[table]</text>
<polygon fill="none" stroke="#000000" points="243.5,-56.7 243.5,-75.7 553.5,-75.7 553.5,-56.7 243.5,-56.7"/>
<text text-anchor="start" x="246.5" y="-62.8" font-family="Helvetica,sans-Serif" font-size="11.00" fill="#000000">...</text>
<polygon fill="#ffffff" stroke="transparent" points="243.5,-37.7 243.5,-56.7 396.5,-56.7 396.5,-37.7 243.5,-37.7"/>
<polygon fill="none" stroke="#000000" points="243.5,-37.7 243.5,-56.7 396.5,-56.7 396.5,-37.7 243.5,-37.7"/>
<text text-anchor="start" x="246.5" y="-43.8" font-family="Helvetica,sans-Serif" font-size="11.00" fill="#000000">&lt; 1</text>
<polygon fill="#ffffff" stroke="transparent" points="396.5,-37.7 396.5,-56.7 474.5,-56.7 474.5,-37.7 396.5,-37.7"/>
<polygon fill="none" stroke="#000000" points="396.5,-37.7 396.5,-56.7 474.5,-56.7 474.5,-37.7 396.5,-37.7"/>
<text text-anchor="start" x="465.3862" y="-43.8" font-family="Helvetica,sans-Serif" font-size="11.00" fill="#000000"> &#160;</text>
<polygon fill="#ffffff" stroke="transparent" points="474.5,-37.7 474.5,-56.7 553.5,-56.7 553.5,-37.7 474.5,-37.7"/>
<polygon fill="none" stroke="#000000" points="474.5,-37.7 474.5,-56.7 553.5,-56.7 553.5,-37.7 474.5,-37.7"/>
<text text-anchor="start" x="544.3862" y="-43.8" font-family="Helvetica,sans-Serif" font-size="11.00" fill="#000000"> &#160;</text>
</a>
</g>
</g>
<!-- safer_custody_screening_outcome_audit&#45;&gt;audit_revision -->
<g id="edge11" class="edge">
<title>safer_custody_screening_outcome_audit:w&#45;&gt;audit_revision:e</title>
<path fill="none" stroke="#000000" d="M229.3119,-69.7579C163.8902,-112.3393 260.9962,-475.7 174,-475.7"/>
<polygon fill="#000000" stroke="#000000" points="235.8084,-67.8999 244.49,-69.1612 239.6542,-66.7999 243.5,-65.7 243.5,-65.7 243.5,-65.7 239.6542,-66.7999 242.51,-62.2388 235.8084,-67.8999 235.8084,-67.8999"/>
<ellipse fill="none" stroke="#000000" cx="232.7318" cy="-68.7799" rx="3.2" ry="3.2"/>
</g>
</g>
</svg>
