<?xml version="1.0" encoding="UTF-8" standalone="no"?>
<!DOCTYPE svg PUBLIC "-//W3C//DTD SVG 1.1//EN"
 "http://www.w3.org/Graphics/SVG/1.1/DTD/svg11.dtd">
<!-- Generated by graphviz version 2.40.1 (20161225.0304)
 -->
<!-- Title: oneDegreeRelationshipsDiagram Pages: 1 -->
<svg width="836pt" height="299pt"
 viewBox="0.00 0.00 836.00 299.42" xmlns="http://www.w3.org/2000/svg" xmlns:xlink="http://www.w3.org/1999/xlink">
<g id="graph0" class="graph" transform="scale(1 1) rotate(0) translate(4 295.422)">
<title>oneDegreeRelationshipsDiagram</title>
<polygon fill="#ffffff" stroke="transparent" points="-4,4 -4,-295.422 832,-295.422 832,4 -4,4"/>
<text text-anchor="middle" x="72.4936" y="-7.3" font-family="Helvetica,sans-Serif" font-size="11.00" fill="#000000">Generated by SchemaSpy</text>
<!-- contributory_factor -->
<g id="node1" class="node">
<title>contributory_factor</title>
<g id="a_node1"><a xlink:href="../../tables/contributory_factor.html" xlink:title="contributory_factor" target="_top">
<polygon fill="#ffffff" stroke="transparent" points="516,-51.922 516,-229.922 820,-229.922 820,-51.922 516,-51.922"/>
<polygon fill="#f5f5f5" stroke="transparent" points="518,-204.922 518,-227.922 818,-227.922 818,-204.922 518,-204.922"/>
<polygon fill="none" stroke="#000000" points="518,-204.922 518,-227.922 818,-227.922 818,-204.922 518,-204.922"/>
<text text-anchor="start" x="523" y="-213.522" font-family="Helvetica,sans-Serif" font-weight="bold" font-size="11.00" fill="#000000">contributory_factor</text>
<text text-anchor="start" x="783.0437" y="-213.022" font-family="Helvetica,sans-Serif" font-size="11.00" fill="#000000">[table]</text>
<polygon fill="none" stroke="#000000" points="518,-182.922 518,-204.922 724,-204.922 724,-182.922 518,-182.922"/>
<image xlink:href="../../images/primaryKeys.png" width="11px" height="12px" preserveAspectRatio="xMinYMin meet" x="523" y="-199.922"/>
<text text-anchor="start" x="538" y="-190.022" font-family="Helvetica,sans-Serif" font-size="11.00" fill="#000000">contributory_factor_id</text>
<polygon fill="none" stroke="#000000" points="724,-182.922 724,-204.922 818,-204.922 818,-182.922 724,-182.922"/>
<text text-anchor="start" x="726.9758" y="-190.622" font-family="Helvetica,sans-Serif" font-size="11.00" fill="#000000">uuid[2147483647]</text>
<polygon fill="#ffffff" stroke="transparent" points="518,-160.922 518,-182.922 724,-182.922 724,-160.922 518,-160.922"/>
<polygon fill="none" stroke="#000000" points="518,-160.922 518,-182.922 724,-182.922 724,-160.922 518,-160.922"/>
<image xlink:href="../../images/foreignKeys.png" width="11px" height="12px" preserveAspectRatio="xMinYMin meet" x="523" y="-177.922"/>
<text text-anchor="start" x="538" y="-168.022" font-family="Helvetica,sans-Serif" font-size="11.00" fill="#000000">referral_id</text>
<polygon fill="none" stroke="#000000" points="724,-160.922 724,-182.922 818,-182.922 818,-160.922 724,-160.922"/>
<text text-anchor="start" x="726.9758" y="-168.622" font-family="Helvetica,sans-Serif" font-size="11.00" fill="#000000">uuid[2147483647]</text>
<polygon fill="#ffffff" stroke="transparent" points="518,-138.922 518,-160.922 724,-160.922 724,-138.922 518,-138.922"/>
<polygon fill="none" stroke="#000000" points="518,-138.922 518,-160.922 724,-160.922 724,-138.922 518,-138.922"/>
<image xlink:href="../../images/foreignKeys.png" width="11px" height="12px" preserveAspectRatio="xMinYMin meet" x="523" y="-155.922"/>
<text text-anchor="start" x="538" y="-146.022" font-family="Helvetica,sans-Serif" font-size="11.00" fill="#000000">contributory_factor_type_id</text>
<polygon fill="none" stroke="#000000" points="724,-138.922 724,-160.922 818,-160.922 818,-138.922 724,-138.922"/>
<text text-anchor="start" x="727" y="-146.622" font-family="Helvetica,sans-Serif" font-size="11.00" fill="#000000">int8[19]</text>
<polygon fill="none" stroke="#000000" points="518,-116.922 518,-138.922 724,-138.922 724,-116.922 518,-116.922"/>
<text text-anchor="start" x="538" y="-124.022" font-family="Helvetica,sans-Serif" font-size="11.00" fill="#000000">comment</text>
<polygon fill="none" stroke="#000000" points="724,-116.922 724,-138.922 818,-138.922 818,-116.922 724,-116.922"/>
<text text-anchor="start" x="727" y="-124.622" font-family="Helvetica,sans-Serif" font-size="11.00" fill="#000000">text[2147483647]</text>
<polygon fill="none" stroke="#000000" points="518,-94.922 518,-116.922 724,-116.922 724,-94.922 518,-94.922"/>
<text text-anchor="start" x="538" y="-102.022" font-family="Helvetica,sans-Serif" font-size="11.00" fill="#000000">version</text>
<polygon fill="none" stroke="#000000" points="724,-94.922 724,-116.922 818,-116.922 818,-94.922 724,-94.922"/>
<text text-anchor="start" x="727" y="-102.622" font-family="Helvetica,sans-Serif" font-size="11.00" fill="#000000">int4[10]</text>
<polygon fill="#ffffff" stroke="transparent" points="518,-72.922 518,-94.922 724,-94.922 724,-72.922 518,-72.922"/>
<polygon fill="none" stroke="#000000" points="518,-72.922 518,-94.922 724,-94.922 724,-72.922 518,-72.922"/>
<image xlink:href="../../images/foreignKeys.png" width="11px" height="12px" preserveAspectRatio="xMinYMin meet" x="523" y="-89.922"/>
<text text-anchor="start" x="538" y="-80.022" font-family="Helvetica,sans-Serif" font-size="11.00" fill="#000000">legacy_id</text>
<polygon fill="none" stroke="#000000" points="724,-72.922 724,-94.922 818,-94.922 818,-72.922 724,-72.922"/>
<text text-anchor="start" x="727" y="-80.622" font-family="Helvetica,sans-Serif" font-size="11.00" fill="#000000">int8[19]</text>
<polygon fill="#ffffff" stroke="transparent" points="518,-53.922 518,-72.922 625,-72.922 625,-53.922 518,-53.922"/>
<polygon fill="none" stroke="#000000" points="518,-53.922 518,-72.922 625,-72.922 625,-53.922 518,-53.922"/>
<text text-anchor="start" x="521" y="-60.022" font-family="Helvetica,sans-Serif" font-size="11.00" fill="#000000">&lt; 2</text>
<polygon fill="#ffffff" stroke="transparent" points="625,-53.922 625,-72.922 724,-72.922 724,-53.922 625,-53.922"/>
<polygon fill="none" stroke="#000000" points="625,-53.922 625,-72.922 724,-72.922 724,-53.922 625,-53.922"/>
<text text-anchor="start" x="714.8862" y="-60.022" font-family="Helvetica,sans-Serif" font-size="11.00" fill="#000000"> &#160;</text>
<polygon fill="#ffffff" stroke="transparent" points="724,-53.922 724,-72.922 818,-72.922 818,-53.922 724,-53.922"/>
<polygon fill="none" stroke="#000000" points="724,-53.922 724,-72.922 818,-72.922 818,-53.922 724,-53.922"/>
<text text-anchor="start" x="799.4053" y="-60.022" font-family="Helvetica,sans-Serif" font-size="11.00" fill="#000000">0 &gt;</text>
<polygon fill="none" stroke="#000000" stroke-width="2" points="517,-52.922 517,-228.922 819,-228.922 819,-52.922 517,-52.922"/>
</a>
</g>
</g>
<!-- reference_data -->
<g id="node2" class="node">
<title>reference_data</title>
<g id="a_node2"><a xlink:href="../../tables/reference_data.html" xlink:title="reference_data" target="_top">
<polygon fill="#ffffff" stroke="transparent" points="8,-72.422 8,-221.422 149,-221.422 149,-72.422 8,-72.422"/>
<polygon fill="#f5f5f5" stroke="transparent" points="8.5,-197.922 8.5,-220.922 149.5,-220.922 149.5,-197.922 8.5,-197.922"/>
<polygon fill="none" stroke="#000000" points="8.5,-197.922 8.5,-220.922 149.5,-220.922 149.5,-197.922 8.5,-197.922"/>
<text text-anchor="start" x="13.5" y="-206.522" font-family="Helvetica,sans-Serif" font-weight="bold" font-size="11.00" fill="#000000">reference_data</text>
<text text-anchor="start" x="115.0219" y="-206.022" font-family="Helvetica,sans-Serif" font-size="11.00" fill="#000000">[table]</text>
<polygon fill="none" stroke="#000000" points="8.5,-175.922 8.5,-197.922 149.5,-197.922 149.5,-175.922 8.5,-175.922"/>
<image xlink:href="../../images/primaryKeys.png" width="11px" height="12px" preserveAspectRatio="xMinYMin meet" x="13.5" y="-192.922"/>
<text text-anchor="start" x="28.5" y="-183.022" font-family="Helvetica,sans-Serif" font-size="11.00" fill="#000000">reference_data_id</text>
<polygon fill="#ffffff" stroke="transparent" points="8.5,-153.922 8.5,-175.922 149.5,-175.922 149.5,-153.922 8.5,-153.922"/>
<polygon fill="none" stroke="#000000" points="8.5,-153.922 8.5,-175.922 149.5,-175.922 149.5,-153.922 8.5,-153.922"/>
<text text-anchor="start" x="28.5" y="-161.022" font-family="Helvetica,sans-Serif" font-size="11.00" fill="#000000">domain</text>
<polygon fill="#ffffff" stroke="transparent" points="8.5,-131.922 8.5,-153.922 149.5,-153.922 149.5,-131.922 8.5,-131.922"/>
<polygon fill="none" stroke="#000000" points="8.5,-131.922 8.5,-153.922 149.5,-153.922 149.5,-131.922 8.5,-131.922"/>
<text text-anchor="start" x="28.5" y="-139.022" font-family="Helvetica,sans-Serif" font-size="11.00" fill="#000000">code</text>
<polygon fill="#ffffff" stroke="transparent" points="8.5,-109.922 8.5,-131.922 149.5,-131.922 149.5,-109.922 8.5,-109.922"/>
<polygon fill="none" stroke="#000000" points="8.5,-109.922 8.5,-131.922 149.5,-131.922 149.5,-109.922 8.5,-109.922"/>
<text text-anchor="start" x="28.5" y="-117.022" font-family="Helvetica,sans-Serif" font-size="11.00" fill="#000000">list_sequence</text>
<polygon fill="none" stroke="#000000" points="8.5,-90.922 8.5,-109.922 149.5,-109.922 149.5,-90.922 8.5,-90.922"/>
<text text-anchor="start" x="11.5" y="-97.022" font-family="Helvetica,sans-Serif" font-size="11.00" fill="#000000">...</text>
<polygon fill="#ffffff" stroke="transparent" points="8.5,-71.922 8.5,-90.922 46.5,-90.922 46.5,-71.922 8.5,-71.922"/>
<polygon fill="none" stroke="#000000" points="8.5,-71.922 8.5,-90.922 46.5,-90.922 46.5,-71.922 8.5,-71.922"/>
<text text-anchor="start" x="11.5" y="-78.022" font-family="Helvetica,sans-Serif" font-size="11.00" fill="#000000"> &#160;</text>
<polygon fill="#ffffff" stroke="transparent" points="46.5,-71.922 46.5,-90.922 109.5,-90.922 109.5,-71.922 46.5,-71.922"/>
<polygon fill="none" stroke="#000000" points="46.5,-71.922 46.5,-90.922 109.5,-90.922 109.5,-71.922 46.5,-71.922"/>
<text text-anchor="start" x="61.8807" y="-78.022" font-family="Helvetica,sans-Serif" font-size="11.00" fill="#000000">112 rows</text>
<polygon fill="#ffffff" stroke="transparent" points="109.5,-71.922 109.5,-90.922 149.5,-90.922 149.5,-71.922 109.5,-71.922"/>
<polygon fill="none" stroke="#000000" points="109.5,-71.922 109.5,-90.922 149.5,-90.922 149.5,-71.922 109.5,-71.922"/>
<text text-anchor="start" x="124.7904" y="-78.022" font-family="Helvetica,sans-Serif" font-size="11.00" fill="#000000">10 &gt;</text>
</a>
</g>
</g>
<!-- contributory_factor&#45;&gt;reference_data -->
<g id="edge1" class="edge">
<title>contributory_factor:w&#45;&gt;reference_data:e</title>
<path fill="none" stroke="#000000" d="M504.08,-145.6204C489.4506,-133.2522 500.2488,-97.6067 475,-83.922 363.6384,-23.5643 294.6796,-12.6013 190,-83.922 149.349,-111.6185 198.6895,-186.922 149.5,-186.922"/>
<polygon fill="#000000" stroke="#000000" points="510.3566,-147.56 516.9371,-153.3615 514.1783,-148.741 518,-149.922 518,-149.922 518,-149.922 514.1783,-148.741 519.0629,-146.4824 510.3566,-147.56 510.3566,-147.56"/>
<ellipse fill="none" stroke="#000000" cx="507.2993" cy="-146.6152" rx="3.2" ry="3.2"/>
</g>
<!-- referral -->
<g id="node3" class="node">
<title>referral</title>
<g id="a_node3"><a xlink:href="../../tables/referral.html" xlink:title="referral" target="_top">
<polygon fill="#ffffff" stroke="transparent" points="198,-94.422 198,-287.422 467,-287.422 467,-94.422 198,-94.422"/>
<polygon fill="#f5f5f5" stroke="transparent" points="198.5,-263.922 198.5,-286.922 467.5,-286.922 467.5,-263.922 198.5,-263.922"/>
<polygon fill="none" stroke="#000000" points="198.5,-263.922 198.5,-286.922 467.5,-286.922 467.5,-263.922 198.5,-263.922"/>
<text text-anchor="start" x="203.5" y="-272.522" font-family="Helvetica,sans-Serif" font-weight="bold" font-size="11.00" fill="#000000">referral</text>
<text text-anchor="start" x="432.5437" y="-272.022" font-family="Helvetica,sans-Serif" font-size="11.00" fill="#000000">[table]</text>
<polygon fill="none" stroke="#000000" points="198.5,-241.922 198.5,-263.922 467.5,-263.922 467.5,-241.922 198.5,-241.922"/>
<image xlink:href="../../images/primaryKeys.png" width="11px" height="12px" preserveAspectRatio="xMinYMin meet" x="203.5" y="-258.922"/>
<text text-anchor="start" x="218.5" y="-249.022" font-family="Helvetica,sans-Serif" font-size="11.00" fill="#000000">referral_id</text>
<polygon fill="#ffffff" stroke="transparent" points="198.5,-219.922 198.5,-241.922 467.5,-241.922 467.5,-219.922 198.5,-219.922"/>
<polygon fill="none" stroke="#000000" points="198.5,-219.922 198.5,-241.922 467.5,-241.922 467.5,-219.922 198.5,-219.922"/>
<image xlink:href="../../images/foreignKeys.png" width="11px" height="12px" preserveAspectRatio="xMinYMin meet" x="203.5" y="-236.922"/>
<text text-anchor="start" x="218.5" y="-227.022" font-family="Helvetica,sans-Serif" font-size="11.00" fill="#000000">incident_type_id</text>
<polygon fill="#ffffff" stroke="transparent" points="198.5,-197.922 198.5,-219.922 467.5,-219.922 467.5,-197.922 198.5,-197.922"/>
<polygon fill="none" stroke="#000000" points="198.5,-197.922 198.5,-219.922 467.5,-219.922 467.5,-197.922 198.5,-197.922"/>
<image xlink:href="../../images/foreignKeys.png" width="11px" height="12px" preserveAspectRatio="xMinYMin meet" x="203.5" y="-214.922"/>
<text text-anchor="start" x="218.5" y="-205.022" font-family="Helvetica,sans-Serif" font-size="11.00" fill="#000000">incident_location_id</text>
<polygon fill="#ffffff" stroke="transparent" points="198.5,-175.922 198.5,-197.922 467.5,-197.922 467.5,-175.922 198.5,-175.922"/>
<polygon fill="none" stroke="#000000" points="198.5,-175.922 198.5,-197.922 467.5,-197.922 467.5,-175.922 198.5,-175.922"/>
<image xlink:href="../../images/foreignKeys.png" width="11px" height="12px" preserveAspectRatio="xMinYMin meet" x="203.5" y="-192.922"/>
<text text-anchor="start" x="218.5" y="-183.022" font-family="Helvetica,sans-Serif" font-size="11.00" fill="#000000">referer_area_of_work_id</text>
<polygon fill="#ffffff" stroke="transparent" points="198.5,-153.922 198.5,-175.922 467.5,-175.922 467.5,-153.922 198.5,-153.922"/>
<polygon fill="none" stroke="#000000" points="198.5,-153.922 198.5,-175.922 467.5,-175.922 467.5,-153.922 198.5,-153.922"/>
<text text-anchor="start" x="218.5" y="-161.022" font-family="Helvetica,sans-Serif" font-size="11.00" fill="#000000">referral_date</text>
<polygon fill="#ffffff" stroke="transparent" points="198.5,-131.922 198.5,-153.922 467.5,-153.922 467.5,-131.922 198.5,-131.922"/>
<polygon fill="none" stroke="#000000" points="198.5,-131.922 198.5,-153.922 467.5,-153.922 467.5,-131.922 198.5,-131.922"/>
<image xlink:href="../../images/foreignKeys.png" width="11px" height="12px" preserveAspectRatio="xMinYMin meet" x="203.5" y="-148.922"/>
<text text-anchor="start" x="218.5" y="-139.022" font-family="Helvetica,sans-Serif" font-size="11.00" fill="#000000">incident_involvement_id</text>
<polygon fill="none" stroke="#000000" points="198.5,-112.922 198.5,-131.922 467.5,-131.922 467.5,-112.922 198.5,-112.922"/>
<text text-anchor="start" x="201.5" y="-119.022" font-family="Helvetica,sans-Serif" font-size="11.00" fill="#000000">...</text>
<polygon fill="#ffffff" stroke="transparent" points="198.5,-93.922 198.5,-112.922 326.5,-112.922 326.5,-93.922 198.5,-93.922"/>
<polygon fill="none" stroke="#000000" points="198.5,-93.922 198.5,-112.922 326.5,-112.922 326.5,-93.922 198.5,-93.922"/>
<text text-anchor="start" x="201.5" y="-100.022" font-family="Helvetica,sans-Serif" font-size="11.00" fill="#000000">&lt; 5</text>
<polygon fill="#ffffff" stroke="transparent" points="326.5,-93.922 326.5,-112.922 392.5,-112.922 392.5,-93.922 326.5,-93.922"/>
<polygon fill="none" stroke="#000000" points="326.5,-93.922 326.5,-112.922 392.5,-112.922 392.5,-93.922 326.5,-93.922"/>
<text text-anchor="start" x="383.3862" y="-100.022" font-family="Helvetica,sans-Serif" font-size="11.00" fill="#000000"> &#160;</text>
<polygon fill="#ffffff" stroke="transparent" points="392.5,-93.922 392.5,-112.922 467.5,-112.922 467.5,-93.922 392.5,-93.922"/>
<polygon fill="none" stroke="#000000" points="392.5,-93.922 392.5,-112.922 467.5,-112.922 467.5,-93.922 392.5,-93.922"/>
<text text-anchor="start" x="448.9053" y="-100.022" font-family="Helvetica,sans-Serif" font-size="11.00" fill="#000000">4 &gt;</text>
</a>
</g>
</g>
<!-- contributory_factor&#45;&gt;referral -->
<g id="edge2" class="edge">
<title>contributory_factor:w&#45;&gt;referral:e</title>
<path fill="none" stroke="#000000" d="M504.2301,-176.2769C483.7184,-193.1014 503.9577,-252.922 467.5,-252.922"/>
<polygon fill="#000000" stroke="#000000" points="510.3724,-174.3343 519.0856,-175.3544 514.1862,-173.1281 518,-171.922 518,-171.922 518,-171.922 514.1862,-173.1281 516.9144,-168.4895 510.3724,-174.3343 510.3724,-174.3343"/>
<ellipse fill="none" stroke="#000000" cx="507.3213" cy="-175.2993" rx="3.2" ry="3.2"/>
</g>
<!-- referral&#45;&gt;reference_data -->
<g id="edge3" class="edge">
<title>referral:w&#45;&gt;reference_data:e</title>
<path fill="none" stroke="#000000" d="M184.8171,-147.6307C171.5046,-158.9815 172.824,-186.922 149.5,-186.922"/>
<polygon fill="#000000" stroke="#000000" points="190.9354,-145.5253 199.6715,-146.326 194.7177,-144.2236 198.5,-142.922 198.5,-142.922 198.5,-142.922 194.7177,-144.2236 197.3285,-139.5179 190.9354,-145.5253 190.9354,-145.5253"/>
<ellipse fill="none" stroke="#000000" cx="187.9096" cy="-146.5666" rx="3.2" ry="3.2"/>
</g>
<!-- referral&#45;&gt;reference_data -->
<g id="edge4" class="edge">
<title>referral:w&#45;&gt;reference_data:e</title>
<path fill="none" stroke="#000000" d="M184.1297,-205.4845C172.5865,-199.297 167.4041,-186.922 149.5,-186.922"/>
<polygon fill="#000000" stroke="#000000" points="190.7195,-207.0608 197.6625,-212.4232 194.6098,-207.9914 198.5,-208.922 198.5,-208.922 198.5,-208.922 194.6098,-207.9914 199.3375,-205.4207 190.7195,-207.0608 190.7195,-207.0608"/>
<ellipse fill="none" stroke="#000000" cx="187.6073" cy="-206.3163" rx="3.2" ry="3.2"/>
</g>
<!-- referral&#45;&gt;reference_data -->
<g id="edge5" class="edge">
<title>referral:w&#45;&gt;reference_data:e</title>
<path fill="none" stroke="#000000" d="M184.8171,-226.2132C171.5046,-214.8624 172.824,-186.922 149.5,-186.922"/>
<polygon fill="#000000" stroke="#000000" points="190.9354,-228.3187 197.3285,-234.326 194.7177,-229.6203 198.5,-230.922 198.5,-230.922 198.5,-230.922 194.7177,-229.6203 199.6715,-227.5179 190.9354,-228.3187 190.9354,-228.3187"/>
<ellipse fill="none" stroke="#000000" cx="187.9096" cy="-227.2774" rx="3.2" ry="3.2"/>
</g>
<!-- referral&#45;&gt;reference_data -->
<g id="edge6" class="edge">
<title>referral:w&#45;&gt;reference_data:e</title>
<path fill="none" stroke="#000000" d="M183.9909,-186.922C172.6774,-186.922 165.4931,-186.922 149.5,-186.922"/>
<polygon fill="#000000" stroke="#000000" points="190.5,-186.922 198.5,-190.522 194.5,-186.922 198.5,-186.922 198.5,-186.922 198.5,-186.922 194.5,-186.922 198.5,-183.322 190.5,-186.922 190.5,-186.922"/>
<ellipse fill="none" stroke="#000000" cx="187.3" cy="-186.922" rx="3.2" ry="3.2"/>
</g>
</g>
</svg>
