<?xml version="1.0" encoding="UTF-8" standalone="no"?>
<!DOCTYPE svg PUBLIC "-//W3C//DTD SVG 1.1//EN"
 "http://www.w3.org/Graphics/SVG/1.1/DTD/svg11.dtd">
<!-- Generated by graphviz version 2.40.1 (20161225.0304)
 -->
<!-- Title: twoDegreesRelationshipsDiagram Pages: 1 -->
<svg width="971pt" height="529pt"
 viewBox="0.00 0.00 971.00 529.21" xmlns="http://www.w3.org/2000/svg" xmlns:xlink="http://www.w3.org/1999/xlink">
<g id="graph0" class="graph" transform="scale(1 1) rotate(0) translate(4 525.2058)">
<title>twoDegreesRelationshipsDiagram</title>
<polygon fill="#ffffff" stroke="transparent" points="-4,4 -4,-525.2058 967,-525.2058 967,4 -4,4"/>
<text text-anchor="middle" x="72.4936" y="-7.3" font-family="Helvetica,sans-Serif" font-size="11.00" fill="#000000">Generated by SchemaSpy</text>
<!-- contributory_factor -->
<g id="node1" class="node">
<title>contributory_factor</title>
<g id="a_node1"><a xlink:href="../../tables/contributory_factor.html" xlink:title="contributory_factor" target="_top">
<polygon fill="#ffffff" stroke="transparent" points="500,-284.7 500,-462.7 804,-462.7 804,-284.7 500,-284.7"/>
<polygon fill="#f5f5f5" stroke="transparent" points="502,-437.7 502,-460.7 802,-460.7 802,-437.7 502,-437.7"/>
<polygon fill="none" stroke="#000000" points="502,-437.7 502,-460.7 802,-460.7 802,-437.7 502,-437.7"/>
<text text-anchor="start" x="507" y="-446.3" font-family="Helvetica,sans-Serif" font-weight="bold" font-size="11.00" fill="#000000">contributory_factor</text>
<text text-anchor="start" x="767.0437" y="-445.8" font-family="Helvetica,sans-Serif" font-size="11.00" fill="#000000">[table]</text>
<polygon fill="none" stroke="#000000" points="502,-415.7 502,-437.7 708,-437.7 708,-415.7 502,-415.7"/>
<image xlink:href="../../images/primaryKeys.png" width="11px" height="12px" preserveAspectRatio="xMinYMin meet" x="507" y="-432.7"/>
<text text-anchor="start" x="522" y="-422.8" font-family="Helvetica,sans-Serif" font-size="11.00" fill="#000000">contributory_factor_id</text>
<polygon fill="none" stroke="#000000" points="708,-415.7 708,-437.7 802,-437.7 802,-415.7 708,-415.7"/>
<text text-anchor="start" x="710.9758" y="-423.4" font-family="Helvetica,sans-Serif" font-size="11.00" fill="#000000">uuid[2147483647]</text>
<polygon fill="#ffffff" stroke="transparent" points="502,-393.7 502,-415.7 708,-415.7 708,-393.7 502,-393.7"/>
<polygon fill="none" stroke="#000000" points="502,-393.7 502,-415.7 708,-415.7 708,-393.7 502,-393.7"/>
<image xlink:href="../../images/foreignKeys.png" width="11px" height="12px" preserveAspectRatio="xMinYMin meet" x="507" y="-410.7"/>
<text text-anchor="start" x="522" y="-400.8" font-family="Helvetica,sans-Serif" font-size="11.00" fill="#000000">referral_id</text>
<polygon fill="none" stroke="#000000" points="708,-393.7 708,-415.7 802,-415.7 802,-393.7 708,-393.7"/>
<text text-anchor="start" x="710.9758" y="-401.4" font-family="Helvetica,sans-Serif" font-size="11.00" fill="#000000">uuid[2147483647]</text>
<polygon fill="#ffffff" stroke="transparent" points="502,-371.7 502,-393.7 708,-393.7 708,-371.7 502,-371.7"/>
<polygon fill="none" stroke="#000000" points="502,-371.7 502,-393.7 708,-393.7 708,-371.7 502,-371.7"/>
<image xlink:href="../../images/foreignKeys.png" width="11px" height="12px" preserveAspectRatio="xMinYMin meet" x="507" y="-388.7"/>
<text text-anchor="start" x="522" y="-378.8" font-family="Helvetica,sans-Serif" font-size="11.00" fill="#000000">contributory_factor_type_id</text>
<polygon fill="none" stroke="#000000" points="708,-371.7 708,-393.7 802,-393.7 802,-371.7 708,-371.7"/>
<text text-anchor="start" x="711" y="-379.4" font-family="Helvetica,sans-Serif" font-size="11.00" fill="#000000">int8[19]</text>
<polygon fill="none" stroke="#000000" points="502,-349.7 502,-371.7 708,-371.7 708,-349.7 502,-349.7"/>
<text text-anchor="start" x="522" y="-356.8" font-family="Helvetica,sans-Serif" font-size="11.00" fill="#000000">comment</text>
<polygon fill="none" stroke="#000000" points="708,-349.7 708,-371.7 802,-371.7 802,-349.7 708,-349.7"/>
<text text-anchor="start" x="711" y="-357.4" font-family="Helvetica,sans-Serif" font-size="11.00" fill="#000000">text[2147483647]</text>
<polygon fill="none" stroke="#000000" points="502,-327.7 502,-349.7 708,-349.7 708,-327.7 502,-327.7"/>
<text text-anchor="start" x="522" y="-334.8" font-family="Helvetica,sans-Serif" font-size="11.00" fill="#000000">version</text>
<polygon fill="none" stroke="#000000" points="708,-327.7 708,-349.7 802,-349.7 802,-327.7 708,-327.7"/>
<text text-anchor="start" x="711" y="-335.4" font-family="Helvetica,sans-Serif" font-size="11.00" fill="#000000">int4[10]</text>
<polygon fill="#ffffff" stroke="transparent" points="502,-305.7 502,-327.7 708,-327.7 708,-305.7 502,-305.7"/>
<polygon fill="none" stroke="#000000" points="502,-305.7 502,-327.7 708,-327.7 708,-305.7 502,-305.7"/>
<image xlink:href="../../images/foreignKeys.png" width="11px" height="12px" preserveAspectRatio="xMinYMin meet" x="507" y="-322.7"/>
<text text-anchor="start" x="522" y="-312.8" font-family="Helvetica,sans-Serif" font-size="11.00" fill="#000000">legacy_id</text>
<polygon fill="none" stroke="#000000" points="708,-305.7 708,-327.7 802,-327.7 802,-305.7 708,-305.7"/>
<text text-anchor="start" x="711" y="-313.4" font-family="Helvetica,sans-Serif" font-size="11.00" fill="#000000">int8[19]</text>
<polygon fill="#ffffff" stroke="transparent" points="502,-286.7 502,-305.7 609,-305.7 609,-286.7 502,-286.7"/>
<polygon fill="none" stroke="#000000" points="502,-286.7 502,-305.7 609,-305.7 609,-286.7 502,-286.7"/>
<text text-anchor="start" x="505" y="-292.8" font-family="Helvetica,sans-Serif" font-size="11.00" fill="#000000">&lt; 2</text>
<polygon fill="#ffffff" stroke="transparent" points="609,-286.7 609,-305.7 708,-305.7 708,-286.7 609,-286.7"/>
<polygon fill="none" stroke="#000000" points="609,-286.7 609,-305.7 708,-305.7 708,-286.7 609,-286.7"/>
<text text-anchor="start" x="698.8862" y="-292.8" font-family="Helvetica,sans-Serif" font-size="11.00" fill="#000000"> &#160;</text>
<polygon fill="#ffffff" stroke="transparent" points="708,-286.7 708,-305.7 802,-305.7 802,-286.7 708,-286.7"/>
<polygon fill="none" stroke="#000000" points="708,-286.7 708,-305.7 802,-305.7 802,-286.7 708,-286.7"/>
<text text-anchor="start" x="783.4053" y="-292.8" font-family="Helvetica,sans-Serif" font-size="11.00" fill="#000000">0 &gt;</text>
<polygon fill="none" stroke="#000000" stroke-width="2" points="501,-285.7 501,-461.7 803,-461.7 803,-285.7 501,-285.7"/>
</a>
</g>
</g>
<!-- reference_data -->
<g id="node2" class="node">
<title>reference_data</title>
<g id="a_node2"><a xlink:href="../../tables/reference_data.html" xlink:title="reference_data" target="_top">
<polygon fill="#ffffff" stroke="transparent" points="8,-163.2 8,-224.2 148,-224.2 148,-163.2 8,-163.2"/>
<polygon fill="#f5f5f5" stroke="transparent" points="8,-200.7 8,-223.7 148,-223.7 148,-200.7 8,-200.7"/>
<polygon fill="none" stroke="#000000" points="8,-200.7 8,-223.7 148,-223.7 148,-200.7 8,-200.7"/>
<text text-anchor="start" x="13" y="-209.3" font-family="Helvetica,sans-Serif" font-weight="bold" font-size="11.00" fill="#000000">reference_data</text>
<text text-anchor="start" x="113.5219" y="-208.8" font-family="Helvetica,sans-Serif" font-size="11.00" fill="#000000">[table]</text>
<polygon fill="none" stroke="#000000" points="8,-181.7 8,-200.7 148,-200.7 148,-181.7 8,-181.7"/>
<text text-anchor="start" x="11" y="-187.8" font-family="Helvetica,sans-Serif" font-size="11.00" fill="#000000">...</text>
<polygon fill="#ffffff" stroke="transparent" points="8,-162.7 8,-181.7 45,-181.7 45,-162.7 8,-162.7"/>
<polygon fill="none" stroke="#000000" points="8,-162.7 8,-181.7 45,-181.7 45,-162.7 8,-162.7"/>
<text text-anchor="start" x="11" y="-168.8" font-family="Helvetica,sans-Serif" font-size="11.00" fill="#000000"> &#160;</text>
<polygon fill="#ffffff" stroke="transparent" points="45,-162.7 45,-181.7 108,-181.7 108,-162.7 45,-162.7"/>
<polygon fill="none" stroke="#000000" points="45,-162.7 45,-181.7 108,-181.7 108,-162.7 45,-162.7"/>
<text text-anchor="start" x="60.3807" y="-168.8" font-family="Helvetica,sans-Serif" font-size="11.00" fill="#000000">122 rows</text>
<polygon fill="#ffffff" stroke="transparent" points="108,-162.7 108,-181.7 148,-181.7 148,-162.7 108,-162.7"/>
<polygon fill="none" stroke="#000000" points="108,-162.7 108,-181.7 148,-181.7 148,-162.7 108,-162.7"/>
<text text-anchor="start" x="123.2904" y="-168.8" font-family="Helvetica,sans-Serif" font-size="11.00" fill="#000000">10 &gt;</text>
</a>
</g>
</g>
<!-- contributory_factor&#45;&gt;reference_data -->
<g id="edge1" class="edge">
<title>contributory_factor:w&#45;&gt;reference_data:e</title>
<path fill="none" stroke="#000000" d="M487.4917,-382.394C342.1334,-376.3163 193.8086,-281.1698 122.1442,-228.3655"/>
<polygon fill="#000000" stroke="#000000" points="494.0018,-382.5313 501.9241,-386.2992 498.0009,-382.6156 502,-382.7 502,-382.7 502,-382.7 498.0009,-382.6156 502.0759,-379.1008 494.0018,-382.5313 494.0018,-382.5313"/>
<ellipse fill="none" stroke="#000000" cx="490.8025" cy="-382.4638" rx="3.2" ry="3.2"/>
</g>
<!-- referral -->
<g id="node3" class="node">
<title>referral</title>
<g id="a_node3"><a xlink:href="../../tables/referral.html" xlink:title="referral" target="_top">
<polygon fill="#ffffff" stroke="transparent" points="361,-153.2 361,-214.2 451,-214.2 451,-153.2 361,-153.2"/>
<polygon fill="#f5f5f5" stroke="transparent" points="361,-190.7 361,-213.7 451,-213.7 451,-190.7 361,-190.7"/>
<polygon fill="none" stroke="#000000" points="361,-190.7 361,-213.7 451,-213.7 451,-190.7 361,-190.7"/>
<text text-anchor="start" x="366" y="-199.3" font-family="Helvetica,sans-Serif" font-weight="bold" font-size="11.00" fill="#000000">referral</text>
<text text-anchor="start" x="416.5219" y="-198.8" font-family="Helvetica,sans-Serif" font-size="11.00" fill="#000000">[table]</text>
<polygon fill="none" stroke="#000000" points="361,-171.7 361,-190.7 451,-190.7 451,-171.7 361,-171.7"/>
<text text-anchor="start" x="364" y="-177.8" font-family="Helvetica,sans-Serif" font-size="11.00" fill="#000000">...</text>
<polygon fill="#ffffff" stroke="transparent" points="361,-152.7 361,-171.7 400,-171.7 400,-152.7 361,-152.7"/>
<polygon fill="none" stroke="#000000" points="361,-152.7 361,-171.7 400,-171.7 400,-152.7 361,-152.7"/>
<text text-anchor="start" x="364" y="-158.8" font-family="Helvetica,sans-Serif" font-size="11.00" fill="#000000">&lt; 5</text>
<polygon fill="#ffffff" stroke="transparent" points="400,-152.7 400,-171.7 421,-171.7 421,-152.7 400,-152.7"/>
<polygon fill="none" stroke="#000000" points="400,-152.7 400,-171.7 421,-171.7 421,-152.7 400,-152.7"/>
<text text-anchor="start" x="411.8862" y="-158.8" font-family="Helvetica,sans-Serif" font-size="11.00" fill="#000000"> &#160;</text>
<polygon fill="#ffffff" stroke="transparent" points="421,-152.7 421,-171.7 451,-171.7 451,-152.7 421,-152.7"/>
<polygon fill="none" stroke="#000000" points="421,-152.7 421,-171.7 451,-171.7 451,-152.7 421,-152.7"/>
<text text-anchor="start" x="432.4053" y="-158.8" font-family="Helvetica,sans-Serif" font-size="11.00" fill="#000000">4 &gt;</text>
</a>
</g>
</g>
<!-- contributory_factor&#45;&gt;referral -->
<g id="edge2" class="edge">
<title>contributory_factor:w&#45;&gt;referral:e</title>
<path fill="none" stroke="#000000" d="M492.9291,-393.2835C474.8221,-361.1491 438.5992,-268.976 419.1176,-218.2313"/>
<polygon fill="#000000" stroke="#000000" points="497.0233,-398.4364 499.1814,-406.9395 499.5117,-401.5682 502,-404.7 502,-404.7 502,-404.7 499.5117,-401.5682 504.8186,-402.4605 497.0233,-398.4364 497.0233,-398.4364"/>
<ellipse fill="none" stroke="#000000" cx="495.0326" cy="-395.9309" rx="3.2" ry="3.2"/>
</g>
<!-- referral&#45;&gt;reference_data -->
<g id="edge10" class="edge">
<title>referral:w&#45;&gt;reference_data:e</title>
<path fill="none" stroke="#000000" d="M338.2342,-173.9705C285.2563,-172.5084 211.5463,-174.572 156.0938,-178.9726"/>
<polygon fill="#000000" stroke="#000000" points="344.9416,-174.2086 352.8088,-178.0902 348.9391,-174.3505 352.9366,-174.4925 352.9366,-174.4925 352.9366,-174.4925 348.9391,-174.3505 353.0643,-170.8948 344.9416,-174.2086 344.9416,-174.2086"/>
<ellipse fill="none" stroke="#000000" cx="341.7436" cy="-174.095" rx="3.2" ry="3.2"/>
</g>
<!-- referral&#45;&gt;reference_data -->
<g id="edge11" class="edge">
<title>referral:w&#45;&gt;reference_data:e</title>
<path fill="none" stroke="#000000" d="M338.2342,-182.0411C285.2563,-182.6845 211.5463,-184.8738 156.0938,-187.4202"/>
<polygon fill="#000000" stroke="#000000" points="344.937,-181.9765 352.9713,-185.4991 348.9368,-181.9379 352.9366,-181.8993 352.9366,-181.8993 352.9366,-181.8993 348.9368,-181.9379 352.9018,-178.2994 344.937,-181.9765 344.937,-181.9765"/>
<ellipse fill="none" stroke="#000000" cx="341.7371" cy="-182.0074" rx="3.2" ry="3.2"/>
</g>
<!-- referral&#45;&gt;reference_data -->
<g id="edge12" class="edge">
<title>referral:w&#45;&gt;reference_data:e</title>
<path fill="none" stroke="#000000" d="M338.2342,-190.1117C285.2563,-192.8607 211.5463,-195.1756 156.0938,-195.8678"/>
<polygon fill="#000000" stroke="#000000" points="344.9486,-189.7438 353.1336,-192.9007 348.9426,-189.525 352.9366,-189.3061 352.9366,-189.3061 352.9366,-189.3061 348.9426,-189.525 352.7396,-185.7114 344.9486,-189.7438 344.9486,-189.7438"/>
<ellipse fill="none" stroke="#000000" cx="341.7534" cy="-189.919" rx="3.2" ry="3.2"/>
</g>
<!-- referral&#45;&gt;reference_data -->
<g id="edge13" class="edge">
<title>referral:w&#45;&gt;reference_data:e</title>
<path fill="none" stroke="#000000" d="M338.5742,-198.1511C285.5721,-203.0264 211.665,-205.4799 156.0938,-204.3154"/>
<polygon fill="#000000" stroke="#000000" points="344.9764,-197.51 353.2953,-200.2949 348.9565,-197.1114 352.9366,-196.7128 352.9366,-196.7128 352.9366,-196.7128 348.9565,-197.1114 352.5778,-193.1308 344.9764,-197.51 344.9764,-197.51"/>
<ellipse fill="none" stroke="#000000" cx="341.7923" cy="-197.8289" rx="3.2" ry="3.2"/>
</g>
<!-- csip_record -->
<g id="node4" class="node">
<title>csip_record</title>
<g id="a_node4"><a xlink:href="../../tables/csip_record.html" xlink:title="csip_record" target="_top">
<polygon fill="#ffffff" stroke="transparent" points="197,-90.2 197,-151.2 312,-151.2 312,-90.2 197,-90.2"/>
<polygon fill="#f5f5f5" stroke="transparent" points="197.5,-127.7 197.5,-150.7 312.5,-150.7 312.5,-127.7 197.5,-127.7"/>
<polygon fill="none" stroke="#000000" points="197.5,-127.7 197.5,-150.7 312.5,-150.7 312.5,-127.7 197.5,-127.7"/>
<text text-anchor="start" x="202.5" y="-136.3" font-family="Helvetica,sans-Serif" font-weight="bold" font-size="11.00" fill="#000000">csip_record</text>
<text text-anchor="start" x="278.0219" y="-135.8" font-family="Helvetica,sans-Serif" font-size="11.00" fill="#000000">[table]</text>
<polygon fill="none" stroke="#000000" points="197.5,-108.7 197.5,-127.7 312.5,-127.7 312.5,-108.7 197.5,-108.7"/>
<text text-anchor="start" x="200.5" y="-114.8" font-family="Helvetica,sans-Serif" font-size="11.00" fill="#000000">...</text>
<polygon fill="#ffffff" stroke="transparent" points="197.5,-89.7 197.5,-108.7 248.5,-108.7 248.5,-89.7 197.5,-89.7"/>
<polygon fill="none" stroke="#000000" points="197.5,-89.7 197.5,-108.7 248.5,-108.7 248.5,-89.7 197.5,-89.7"/>
<text text-anchor="start" x="200.5" y="-95.8" font-family="Helvetica,sans-Serif" font-size="11.00" fill="#000000">&lt; 2</text>
<polygon fill="#ffffff" stroke="transparent" points="248.5,-89.7 248.5,-108.7 275.5,-108.7 275.5,-89.7 248.5,-89.7"/>
<polygon fill="none" stroke="#000000" points="248.5,-89.7 248.5,-108.7 275.5,-108.7 275.5,-89.7 248.5,-89.7"/>
<text text-anchor="start" x="266.3862" y="-95.8" font-family="Helvetica,sans-Serif" font-size="11.00" fill="#000000"> &#160;</text>
<polygon fill="#ffffff" stroke="transparent" points="275.5,-89.7 275.5,-108.7 312.5,-108.7 312.5,-89.7 275.5,-89.7"/>
<polygon fill="none" stroke="#000000" points="275.5,-89.7 275.5,-108.7 312.5,-108.7 312.5,-89.7 275.5,-89.7"/>
<text text-anchor="start" x="293.9053" y="-95.8" font-family="Helvetica,sans-Serif" font-size="11.00" fill="#000000">2 &gt;</text>
</a>
</g>
</g>
<!-- referral&#45;&gt;csip_record -->
<g id="edge14" class="edge">
<title>referral:w&#45;&gt;csip_record:e</title>
<path fill="none" stroke="#000000" d="M368.8269,-142.1236C353.0612,-128.929 333.4808,-117.7 312.5,-117.7"/>
<polygon fill="#000000" stroke="#000000" points="378.7758,-145.6357 373.4515,-151.6067 372.2573,-150.5418 377.5816,-144.5709 378.7758,-145.6357"/>
<polyline fill="none" stroke="#000000" points="376.7108,-149.1536 373.7253,-146.4915 "/>
<ellipse fill="none" stroke="#000000" cx="371.3369" cy="-144.3618" rx="3.2" ry="3.2"/>
</g>
<!-- csip_record&#45;&gt;reference_data -->
<g id="edge3" class="edge">
<title>csip_record:w&#45;&gt;reference_data:e</title>
<path fill="none" stroke="#000000" d="M182.8605,-119.0241C155.1822,-123.949 129.5834,-141.8006 110.6077,-158.8141"/>
<polygon fill="#000000" stroke="#000000" points="189.5325,-118.4207 197.8243,-121.2854 193.5163,-118.0604 197.5,-117.7 197.5,-117.7 197.5,-117.7 193.5163,-118.0604 197.1757,-114.1146 189.5325,-118.4207 189.5325,-118.4207"/>
<ellipse fill="none" stroke="#000000" cx="186.3455" cy="-118.709" rx="3.2" ry="3.2"/>
</g>
<!-- decision_and_actions -->
<g id="node5" class="node">
<title>decision_and_actions</title>
<g id="a_node5"><a xlink:href="../../tables/decision_and_actions.html" xlink:title="decision_and_actions" target="_top">
<polygon fill="#ffffff" stroke="transparent" points="561.5,-202.2 561.5,-263.2 742.5,-263.2 742.5,-202.2 561.5,-202.2"/>
<polygon fill="#f5f5f5" stroke="transparent" points="562,-239.7 562,-262.7 743,-262.7 743,-239.7 562,-239.7"/>
<polygon fill="none" stroke="#000000" points="562,-239.7 562,-262.7 743,-262.7 743,-239.7 562,-239.7"/>
<text text-anchor="start" x="567" y="-248.3" font-family="Helvetica,sans-Serif" font-weight="bold" font-size="11.00" fill="#000000">decision_and_actions</text>
<text text-anchor="start" x="708.5219" y="-247.8" font-family="Helvetica,sans-Serif" font-size="11.00" fill="#000000">[table]</text>
<polygon fill="none" stroke="#000000" points="562,-220.7 562,-239.7 743,-239.7 743,-220.7 562,-220.7"/>
<text text-anchor="start" x="565" y="-226.8" font-family="Helvetica,sans-Serif" font-size="11.00" fill="#000000">...</text>
<polygon fill="#ffffff" stroke="transparent" points="562,-201.7 562,-220.7 651,-220.7 651,-201.7 562,-201.7"/>
<polygon fill="none" stroke="#000000" points="562,-201.7 562,-220.7 651,-220.7 651,-201.7 562,-201.7"/>
<text text-anchor="start" x="565" y="-207.8" font-family="Helvetica,sans-Serif" font-size="11.00" fill="#000000">&lt; 3</text>
<polygon fill="#ffffff" stroke="transparent" points="651,-201.7 651,-220.7 697,-220.7 697,-201.7 651,-201.7"/>
<polygon fill="none" stroke="#000000" points="651,-201.7 651,-220.7 697,-220.7 697,-201.7 651,-201.7"/>
<text text-anchor="start" x="687.8862" y="-207.8" font-family="Helvetica,sans-Serif" font-size="11.00" fill="#000000"> &#160;</text>
<polygon fill="#ffffff" stroke="transparent" points="697,-201.7 697,-220.7 743,-220.7 743,-201.7 697,-201.7"/>
<polygon fill="none" stroke="#000000" points="697,-201.7 697,-220.7 743,-220.7 743,-201.7 697,-201.7"/>
<text text-anchor="start" x="733.8862" y="-207.8" font-family="Helvetica,sans-Serif" font-size="11.00" fill="#000000"> &#160;</text>
</a>
</g>
</g>
<!-- decision_and_actions&#45;&gt;reference_data -->
<g id="edge5" class="edge">
<title>decision_and_actions:w&#45;&gt;reference_data:e</title>
<path fill="none" stroke="#000000" d="M547.2671,-229.1922C393.4323,-224.1538 348.5708,-230.9988 189,-210.7 178.36,-209.3465 167.2196,-207.5269 156.274,-205.5589"/>
<polygon fill="#000000" stroke="#000000" points="554.0047,-229.4244 561.876,-233.2979 558.0024,-229.5622 562,-229.7 562,-229.7 562,-229.7 558.0024,-229.5622 562.124,-226.1021 554.0047,-229.4244 554.0047,-229.4244"/>
<ellipse fill="none" stroke="#000000" cx="550.8066" cy="-229.3141" rx="3.2" ry="3.2"/>
</g>
<!-- decision_and_actions&#45;&gt;reference_data -->
<g id="edge6" class="edge">
<title>decision_and_actions:w&#45;&gt;reference_data:e</title>
<path fill="none" stroke="#000000" d="M547.2671,-230.3375C393.4323,-237.1538 348.5708,-243.9988 189,-223.7 178.36,-222.3465 167.2196,-220.5269 156.274,-218.4334"/>
<polygon fill="#000000" stroke="#000000" points="554.0075,-230.0459 562.1556,-233.2966 558.0037,-229.8729 562,-229.7 562,-229.7 562,-229.7 558.0037,-229.8729 561.8444,-226.1034 554.0075,-230.0459 554.0075,-230.0459"/>
<ellipse fill="none" stroke="#000000" cx="550.8105" cy="-230.1842" rx="3.2" ry="3.2"/>
</g>
<!-- decision_and_actions&#45;&gt;referral -->
<g id="edge4" class="edge">
<title>decision_and_actions:w&#45;&gt;referral:e</title>
<path fill="none" stroke="#000000" d="M551.5919,-229.3962C519.3585,-227.5555 485.7868,-217.6366 459.0148,-207.5084"/>
<polygon fill="#000000" stroke="#000000" points="561.3171,-225.6784 561.0836,-233.6749 559.4843,-233.6283 559.7178,-225.6317 561.3171,-225.6784"/>
<polyline fill="none" stroke="#000000" points="562,-229.7 558.0017,-229.5833 "/>
<ellipse fill="none" stroke="#000000" cx="554.8031" cy="-229.4899" rx="3.2" ry="3.2"/>
</g>
<!-- interview -->
<g id="node6" class="node">
<title>interview</title>
<g id="a_node6"><a xlink:href="../../tables/interview.html" xlink:title="interview" target="_top">
<polygon fill="#ffffff" stroke="transparent" points="853,-289.2 853,-350.2 955,-350.2 955,-289.2 853,-289.2"/>
<polygon fill="#f5f5f5" stroke="transparent" points="853,-326.7 853,-349.7 955,-349.7 955,-326.7 853,-326.7"/>
<polygon fill="none" stroke="#000000" points="853,-326.7 853,-349.7 955,-349.7 955,-326.7 853,-326.7"/>
<text text-anchor="start" x="858" y="-335.3" font-family="Helvetica,sans-Serif" font-weight="bold" font-size="11.00" fill="#000000">interview</text>
<text text-anchor="start" x="920.5219" y="-334.8" font-family="Helvetica,sans-Serif" font-size="11.00" fill="#000000">[table]</text>
<polygon fill="none" stroke="#000000" points="853,-307.7 853,-326.7 955,-326.7 955,-307.7 853,-307.7"/>
<text text-anchor="start" x="856" y="-313.8" font-family="Helvetica,sans-Serif" font-size="11.00" fill="#000000">...</text>
<polygon fill="#ffffff" stroke="transparent" points="853,-288.7 853,-307.7 902,-307.7 902,-288.7 853,-288.7"/>
<polygon fill="none" stroke="#000000" points="853,-288.7 853,-307.7 902,-307.7 902,-288.7 853,-288.7"/>
<text text-anchor="start" x="856" y="-294.8" font-family="Helvetica,sans-Serif" font-size="11.00" fill="#000000">&lt; 2</text>
<polygon fill="#ffffff" stroke="transparent" points="902,-288.7 902,-307.7 928,-307.7 928,-288.7 902,-288.7"/>
<polygon fill="none" stroke="#000000" points="902,-288.7 902,-307.7 928,-307.7 928,-288.7 902,-288.7"/>
<text text-anchor="start" x="918.8862" y="-294.8" font-family="Helvetica,sans-Serif" font-size="11.00" fill="#000000"> &#160;</text>
<polygon fill="#ffffff" stroke="transparent" points="928,-288.7 928,-307.7 955,-307.7 955,-288.7 928,-288.7"/>
<polygon fill="none" stroke="#000000" points="928,-288.7 928,-307.7 955,-307.7 955,-288.7 928,-288.7"/>
<text text-anchor="start" x="945.8862" y="-294.8" font-family="Helvetica,sans-Serif" font-size="11.00" fill="#000000"> &#160;</text>
</a>
</g>
</g>
<!-- interview&#45;&gt;reference_data -->
<g id="edge7" class="edge">
<title>interview:w&#45;&gt;reference_data:e</title>
<path fill="none" stroke="#000000" d="M838.6019,-318.7789C794.0753,-334.3428 864.5046,-433.1459 812,-473.7 699.4433,-560.6376 630.2659,-507.0122 492,-473.7 344.9439,-438.27 308.6134,-411.2928 189,-318.7 155.3783,-292.6734 123.8866,-255.4991 103.0976,-228.4593"/>
<polygon fill="#000000" stroke="#000000" points="845.0821,-317.8433 853.5145,-320.2631 849.0411,-317.2716 853,-316.7 853,-316.7 853,-316.7 849.0411,-317.2716 852.4855,-313.1369 845.0821,-317.8433 845.0821,-317.8433"/>
<ellipse fill="none" stroke="#000000" cx="841.915" cy="-318.3006" rx="3.2" ry="3.2"/>
</g>
<!-- investigation -->
<g id="node7" class="node">
<title>investigation</title>
<g id="a_node7"><a xlink:href="../../tables/investigation.html" xlink:title="investigation" target="_top">
<polygon fill="#ffffff" stroke="transparent" points="588.5,-120.2 588.5,-181.2 715.5,-181.2 715.5,-120.2 588.5,-120.2"/>
<polygon fill="#f5f5f5" stroke="transparent" points="589,-157.7 589,-180.7 716,-180.7 716,-157.7 589,-157.7"/>
<polygon fill="none" stroke="#000000" points="589,-157.7 589,-180.7 716,-180.7 716,-157.7 589,-157.7"/>
<text text-anchor="start" x="594" y="-166.3" font-family="Helvetica,sans-Serif" font-weight="bold" font-size="11.00" fill="#000000">investigation</text>
<text text-anchor="start" x="681.5219" y="-165.8" font-family="Helvetica,sans-Serif" font-size="11.00" fill="#000000">[table]</text>
<polygon fill="none" stroke="#000000" points="589,-138.7 589,-157.7 716,-157.7 716,-138.7 589,-138.7"/>
<text text-anchor="start" x="592" y="-144.8" font-family="Helvetica,sans-Serif" font-size="11.00" fill="#000000">...</text>
<polygon fill="#ffffff" stroke="transparent" points="589,-119.7 589,-138.7 646,-138.7 646,-119.7 589,-119.7"/>
<polygon fill="none" stroke="#000000" points="589,-119.7 589,-138.7 646,-138.7 646,-119.7 589,-119.7"/>
<text text-anchor="start" x="592" y="-125.8" font-family="Helvetica,sans-Serif" font-size="11.00" fill="#000000">&lt; 1</text>
<polygon fill="#ffffff" stroke="transparent" points="646,-119.7 646,-138.7 676,-138.7 676,-119.7 646,-119.7"/>
<polygon fill="none" stroke="#000000" points="646,-119.7 646,-138.7 676,-138.7 676,-119.7 646,-119.7"/>
<text text-anchor="start" x="666.8862" y="-125.8" font-family="Helvetica,sans-Serif" font-size="11.00" fill="#000000"> &#160;</text>
<polygon fill="#ffffff" stroke="transparent" points="676,-119.7 676,-138.7 716,-138.7 716,-119.7 676,-119.7"/>
<polygon fill="none" stroke="#000000" points="676,-119.7 676,-138.7 716,-138.7 716,-119.7 676,-119.7"/>
<text text-anchor="start" x="697.4053" y="-125.8" font-family="Helvetica,sans-Serif" font-size="11.00" fill="#000000">1 &gt;</text>
</a>
</g>
</g>
<!-- interview&#45;&gt;investigation -->
<g id="edge8" class="edge">
<title>interview:w&#45;&gt;investigation:e</title>
<path fill="none" stroke="#000000" d="M838.5204,-314.3062C805.0078,-300.557 846.9908,-230.8791 812,-191.7 780.7361,-156.6938 762.9347,-147.7 716,-147.7"/>
<polygon fill="#000000" stroke="#000000" points="845.1071,-315.3951 852.4128,-320.2518 849.0536,-316.0475 853,-316.7 853,-316.7 853,-316.7 849.0536,-316.0475 853.5872,-313.1482 845.1071,-315.3951 845.1071,-315.3951"/>
<ellipse fill="none" stroke="#000000" cx="841.95" cy="-314.8731" rx="3.2" ry="3.2"/>
</g>
<!-- investigation&#45;&gt;referral -->
<g id="edge9" class="edge">
<title>investigation:w&#45;&gt;referral:e</title>
<path fill="none" stroke="#000000" d="M578.5214,-147.8835C537.0177,-149.3065 492.5178,-158.759 459.1095,-167.5953"/>
<polygon fill="#000000" stroke="#000000" points="588.13,-143.7146 588.2702,-151.7134 586.6705,-151.7414 586.5303,-143.7427 588.13,-143.7146"/>
<polyline fill="none" stroke="#000000" points="589,-147.7 585.0006,-147.7701 "/>
<ellipse fill="none" stroke="#000000" cx="581.8011" cy="-147.8261" rx="3.2" ry="3.2"/>
</g>
<!-- safer_custody_screening_outcome -->
<g id="node8" class="node">
<title>safer_custody_screening_outcome</title>
<g id="a_node8"><a xlink:href="../../tables/safer_custody_screening_outcome.html" xlink:title="safer_custody_screening_outcome" target="_top">
<polygon fill="#ffffff" stroke="transparent" points="517.5,-38.2 517.5,-99.2 786.5,-99.2 786.5,-38.2 517.5,-38.2"/>
<polygon fill="#f5f5f5" stroke="transparent" points="518,-75.7 518,-98.7 787,-98.7 787,-75.7 518,-75.7"/>
<polygon fill="none" stroke="#000000" points="518,-75.7 518,-98.7 787,-98.7 787,-75.7 518,-75.7"/>
<text text-anchor="start" x="523" y="-84.3" font-family="Helvetica,sans-Serif" font-weight="bold" font-size="11.00" fill="#000000">safer_custody_screening_outcome</text>
<text text-anchor="start" x="752.5219" y="-83.8" font-family="Helvetica,sans-Serif" font-size="11.00" fill="#000000">[table]</text>
<polygon fill="none" stroke="#000000" points="518,-56.7 518,-75.7 787,-75.7 787,-56.7 518,-56.7"/>
<text text-anchor="start" x="521" y="-62.8" font-family="Helvetica,sans-Serif" font-size="11.00" fill="#000000">...</text>
<polygon fill="#ffffff" stroke="transparent" points="518,-37.7 518,-56.7 651,-56.7 651,-37.7 518,-37.7"/>
<polygon fill="none" stroke="#000000" points="518,-37.7 518,-56.7 651,-56.7 651,-37.7 518,-37.7"/>
<text text-anchor="start" x="521" y="-43.8" font-family="Helvetica,sans-Serif" font-size="11.00" fill="#000000">&lt; 2</text>
<polygon fill="#ffffff" stroke="transparent" points="651,-37.7 651,-56.7 719,-56.7 719,-37.7 651,-37.7"/>
<polygon fill="none" stroke="#000000" points="651,-37.7 651,-56.7 719,-56.7 719,-37.7 651,-37.7"/>
<text text-anchor="start" x="709.8862" y="-43.8" font-family="Helvetica,sans-Serif" font-size="11.00" fill="#000000"> &#160;</text>
<polygon fill="#ffffff" stroke="transparent" points="719,-37.7 719,-56.7 787,-56.7 787,-37.7 719,-37.7"/>
<polygon fill="none" stroke="#000000" points="719,-37.7 719,-56.7 787,-56.7 787,-37.7 719,-37.7"/>
<text text-anchor="start" x="777.8862" y="-43.8" font-family="Helvetica,sans-Serif" font-size="11.00" fill="#000000"> &#160;</text>
</a>
</g>
</g>
<!-- safer_custody_screening_outcome&#45;&gt;reference_data -->
<g id="edge15" class="edge">
<title>safer_custody_screening_outcome:w&#45;&gt;reference_data:e</title>
<path fill="none" stroke="#000000" d="M503.3267,-65.5457C368.1938,-62.695 318.0308,-21.981 189,-79.7 151.5544,-96.4505 120.2011,-132.1277 100.4721,-159.1373"/>
<polygon fill="#000000" stroke="#000000" points="510.0004,-65.6158 517.9621,-69.2998 514.0002,-65.6579 518,-65.7 518,-65.7 518,-65.7 514.0002,-65.6579 518.0379,-62.1002 510.0004,-65.6158 510.0004,-65.6158"/>
<ellipse fill="none" stroke="#000000" cx="506.8006" cy="-65.5821" rx="3.2" ry="3.2"/>
</g>
<!-- safer_custody_screening_outcome&#45;&gt;referral -->
<g id="edge16" class="edge">
<title>safer_custody_screening_outcome:w&#45;&gt;referral:e</title>
<path fill="none" stroke="#000000" d="M507.3894,-66.5571C466.6252,-73.1836 437.3595,-116.8465 421.0506,-148.9343"/>
<polygon fill="#000000" stroke="#000000" points="516.8805,-61.7774 517.5247,-69.7514 515.9299,-69.8803 515.2857,-61.9063 516.8805,-61.7774"/>
<polyline fill="none" stroke="#000000" points="518,-65.7 514.013,-66.0221 "/>
<ellipse fill="none" stroke="#000000" cx="510.8234" cy="-66.2798" rx="3.2" ry="3.2"/>
</g>
</g>
</svg>
