<?xml version="1.0" encoding="UTF-8" standalone="no"?>
<!DOCTYPE svg PUBLIC "-//W3C//DTD SVG 1.1//EN"
 "http://www.w3.org/Graphics/SVG/1.1/DTD/svg11.dtd">
<!-- Generated by graphviz version 2.40.1 (20161225.0304)
 -->
<!-- Title: twoDegreesRelationshipsDiagramImplied Pages: 1 -->
<svg width="1459pt" height="1530pt"
 viewBox="0.00 0.00 1459.00 1529.60" xmlns="http://www.w3.org/2000/svg" xmlns:xlink="http://www.w3.org/1999/xlink">
<g id="graph0" class="graph" transform="scale(1 1) rotate(0) translate(4 1525.5967)">
<title>twoDegreesRelationshipsDiagramImplied</title>
<polygon fill="#ffffff" stroke="transparent" points="-4,4 -4,-1525.5967 1455,-1525.5967 1455,4 -4,4"/>
<text text-anchor="middle" x="72.4936" y="-7.3" font-family="Helvetica,sans-Serif" font-size="11.00" fill="#000000">Generated by SchemaSpy</text>
<!-- attendee -->
<g id="node1" class="node">
<title>attendee</title>
<g id="a_node1"><a xlink:href="../../tables/attendee.html" xlink:title="attendee" target="_top">
<polygon fill="#ffffff" stroke="transparent" points="666.5,-818.5967 666.5,-879.5967 766.5,-879.5967 766.5,-818.5967 666.5,-818.5967"/>
<polygon fill="#f5f5f5" stroke="transparent" points="666.5,-856.0967 666.5,-879.0967 766.5,-879.0967 766.5,-856.0967 666.5,-856.0967"/>
<polygon fill="none" stroke="#000000" points="666.5,-856.0967 666.5,-879.0967 766.5,-879.0967 766.5,-856.0967 666.5,-856.0967"/>
<text text-anchor="start" x="671.5" y="-864.6967" font-family="Helvetica,sans-Serif" font-weight="bold" font-size="11.00" fill="#000000">attendee</text>
<text text-anchor="start" x="732.0219" y="-864.1967" font-family="Helvetica,sans-Serif" font-size="11.00" fill="#000000">[table]</text>
<polygon fill="none" stroke="#000000" points="666.5,-837.0967 666.5,-856.0967 766.5,-856.0967 766.5,-837.0967 666.5,-837.0967"/>
<text text-anchor="start" x="669.5" y="-843.1967" font-family="Helvetica,sans-Serif" font-size="11.00" fill="#000000">...</text>
<polygon fill="#ffffff" stroke="transparent" points="666.5,-818.0967 666.5,-837.0967 714.5,-837.0967 714.5,-818.0967 666.5,-818.0967"/>
<polygon fill="none" stroke="#000000" points="666.5,-818.0967 666.5,-837.0967 714.5,-837.0967 714.5,-818.0967 666.5,-818.0967"/>
<text text-anchor="start" x="669.5" y="-824.1967" font-family="Helvetica,sans-Serif" font-size="11.00" fill="#000000">&lt; 2</text>
<polygon fill="#ffffff" stroke="transparent" points="714.5,-818.0967 714.5,-837.0967 740.5,-837.0967 740.5,-818.0967 714.5,-818.0967"/>
<polygon fill="none" stroke="#000000" points="714.5,-818.0967 714.5,-837.0967 740.5,-837.0967 740.5,-818.0967 714.5,-818.0967"/>
<text text-anchor="start" x="731.3862" y="-824.1967" font-family="Helvetica,sans-Serif" font-size="11.00" fill="#000000"> &#160;</text>
<polygon fill="#ffffff" stroke="transparent" points="740.5,-818.0967 740.5,-837.0967 766.5,-837.0967 766.5,-818.0967 740.5,-818.0967"/>
<polygon fill="none" stroke="#000000" points="740.5,-818.0967 740.5,-837.0967 766.5,-837.0967 766.5,-818.0967 740.5,-818.0967"/>
<text text-anchor="start" x="757.3862" y="-824.1967" font-family="Helvetica,sans-Serif" font-size="11.00" fill="#000000"> &#160;</text>
</a>
</g>
</g>
<!-- audit_revision -->
<g id="node2" class="node">
<title>audit_revision</title>
<g id="a_node2"><a xlink:href="../../tables/audit_revision.html" xlink:title="audit_revision" target="_top">
<polygon fill="#ffffff" stroke="transparent" points="8,-891.5967 8,-974.5967 174,-974.5967 174,-891.5967 8,-891.5967"/>
<polygon fill="#f5f5f5" stroke="transparent" points="8,-951.0967 8,-974.0967 174,-974.0967 174,-951.0967 8,-951.0967"/>
<polygon fill="none" stroke="#000000" points="8,-951.0967 8,-974.0967 174,-974.0967 174,-951.0967 8,-951.0967"/>
<text text-anchor="start" x="13" y="-959.6967" font-family="Helvetica,sans-Serif" font-weight="bold" font-size="11.00" fill="#000000">audit_revision</text>
<text text-anchor="start" x="139.0437" y="-959.1967" font-family="Helvetica,sans-Serif" font-size="11.00" fill="#000000">[table]</text>
<polygon fill="none" stroke="#000000" points="8,-929.0967 8,-951.0967 174,-951.0967 174,-929.0967 8,-929.0967"/>
<image xlink:href="../../images/primaryKeys.png" width="11px" height="12px" preserveAspectRatio="xMinYMin meet" x="13" y="-946.097"/>
<text text-anchor="start" x="28" y="-936.1967" font-family="Helvetica,sans-Serif" font-size="11.00" fill="#000000">id</text>
<polygon fill="none" stroke="#000000" points="8,-910.0967 8,-929.0967 174,-929.0967 174,-910.0967 8,-910.0967"/>
<text text-anchor="start" x="11" y="-916.1967" font-family="Helvetica,sans-Serif" font-size="11.00" fill="#000000">...</text>
<polygon fill="#ffffff" stroke="transparent" points="8,-891.0967 8,-910.0967 77,-910.0967 77,-891.0967 8,-891.0967"/>
<polygon fill="none" stroke="#000000" points="8,-891.0967 8,-910.0967 77,-910.0967 77,-891.0967 8,-891.0967"/>
<text text-anchor="start" x="11" y="-897.1967" font-family="Helvetica,sans-Serif" font-size="11.00" fill="#000000"> &#160;</text>
<polygon fill="#ffffff" stroke="transparent" points="77,-891.0967 77,-910.0967 118,-910.0967 118,-891.0967 77,-891.0967"/>
<polygon fill="none" stroke="#000000" points="77,-891.0967 77,-910.0967 118,-910.0967 118,-891.0967 77,-891.0967"/>
<text text-anchor="start" x="108.8862" y="-897.1967" font-family="Helvetica,sans-Serif" font-size="11.00" fill="#000000"> &#160;</text>
<polygon fill="#ffffff" stroke="transparent" points="118,-891.0967 118,-910.0967 174,-910.0967 174,-891.0967 118,-891.0967"/>
<polygon fill="none" stroke="#000000" points="118,-891.0967 118,-910.0967 174,-910.0967 174,-891.0967 118,-891.0967"/>
<text text-anchor="start" x="149.2904" y="-897.1967" font-family="Helvetica,sans-Serif" font-size="11.00" fill="#000000">33 &gt;</text>
</a>
</g>
</g>
<!-- attendee&#45;&gt;audit_revision -->
<g id="edge1" class="edge">
<title>attendee:w&#45;&gt;audit_revision:e</title>
<path fill="none" stroke="#000000" stroke-dasharray="5,2" d="M656.0695,-846.1538C579.347,-846.8485 256.1371,-854.0688 215,-878.0967 186.4739,-894.7585 207.0357,-940.0967 174,-940.0967"/>
<polygon fill="#000000" stroke="#000000" points="665.6781,-842.1011 665.722,-850.101 664.122,-850.1098 664.0781,-842.1099 665.6781,-842.1011"/>
<polyline fill="none" stroke="#000000" points="666.5,-846.0967 662.5001,-846.1186 "/>
<ellipse fill="none" stroke="#000000" cx="659.3001" cy="-846.1362" rx="3.2" ry="3.2"/>
</g>
<!-- review -->
<g id="node3" class="node">
<title>review</title>
<g id="a_node3"><a xlink:href="../../tables/review.html" xlink:title="review" target="_top">
<polygon fill="#ffffff" stroke="transparent" points="336,-775.5967 336,-836.5967 420,-836.5967 420,-775.5967 336,-775.5967"/>
<polygon fill="#f5f5f5" stroke="transparent" points="336,-813.0967 336,-836.0967 420,-836.0967 420,-813.0967 336,-813.0967"/>
<polygon fill="none" stroke="#000000" points="336,-813.0967 336,-836.0967 420,-836.0967 420,-813.0967 336,-813.0967"/>
<text text-anchor="start" x="341" y="-821.6967" font-family="Helvetica,sans-Serif" font-weight="bold" font-size="11.00" fill="#000000">review</text>
<text text-anchor="start" x="385.5219" y="-821.1967" font-family="Helvetica,sans-Serif" font-size="11.00" fill="#000000">[table]</text>
<polygon fill="none" stroke="#000000" points="336,-794.0967 336,-813.0967 420,-813.0967 420,-794.0967 336,-794.0967"/>
<text text-anchor="start" x="339" y="-800.1967" font-family="Helvetica,sans-Serif" font-size="11.00" fill="#000000">...</text>
<polygon fill="#ffffff" stroke="transparent" points="336,-775.0967 336,-794.0967 372,-794.0967 372,-775.0967 336,-775.0967"/>
<polygon fill="none" stroke="#000000" points="336,-775.0967 336,-794.0967 372,-794.0967 372,-775.0967 336,-775.0967"/>
<text text-anchor="start" x="339" y="-781.1967" font-family="Helvetica,sans-Serif" font-size="11.00" fill="#000000">&lt; 2</text>
<polygon fill="#ffffff" stroke="transparent" points="372,-775.0967 372,-794.0967 391,-794.0967 391,-775.0967 372,-775.0967"/>
<polygon fill="none" stroke="#000000" points="372,-775.0967 372,-794.0967 391,-794.0967 391,-775.0967 372,-775.0967"/>
<text text-anchor="start" x="381.8862" y="-781.1967" font-family="Helvetica,sans-Serif" font-size="11.00" fill="#000000"> &#160;</text>
<polygon fill="#ffffff" stroke="transparent" points="391,-775.0967 391,-794.0967 420,-794.0967 420,-775.0967 391,-775.0967"/>
<polygon fill="none" stroke="#000000" points="391,-775.0967 391,-794.0967 420,-794.0967 420,-775.0967 391,-775.0967"/>
<text text-anchor="start" x="401.4053" y="-781.1967" font-family="Helvetica,sans-Serif" font-size="11.00" fill="#000000">2 &gt;</text>
</a>
</g>
</g>
<!-- attendee&#45;&gt;review -->
<g id="edge2" class="edge">
<title>attendee:w&#45;&gt;review:e</title>
<path fill="none" stroke="#000000" d="M652.0244,-845.8441C552.9508,-842.3201 526.2142,-803.0967 420,-803.0967"/>
<polygon fill="#000000" stroke="#000000" points="658.5012,-845.9571 666.4372,-849.6961 662.5006,-846.0269 666.5,-846.0967 666.5,-846.0967 666.5,-846.0967 662.5006,-846.0269 666.5628,-842.4972 658.5012,-845.9571 658.5012,-845.9571"/>
<ellipse fill="none" stroke="#000000" cx="655.3017" cy="-845.9012" rx="3.2" ry="3.2"/>
</g>
<!-- review&#45;&gt;audit_revision -->
<g id="edge47" class="edge">
<title>review:w&#45;&gt;audit_revision:e</title>
<path fill="none" stroke="#000000" stroke-dasharray="5,2" d="M325.5684,-803.1986C275.4207,-804.2464 254.3748,-813.7943 215,-851.0967 183.384,-881.0486 217.551,-940.0967 174,-940.0967"/>
<polygon fill="#000000" stroke="#000000" points="335.1609,-799.1047 335.2392,-807.1043 333.6392,-807.1199 333.561,-799.1203 335.1609,-799.1047"/>
<polyline fill="none" stroke="#000000" points="336,-803.0967 332.0002,-803.1358 "/>
<ellipse fill="none" stroke="#000000" cx="328.8003" cy="-803.1671" rx="3.2" ry="3.2"/>
</g>
<!-- attendee_audit -->
<g id="node4" class="node">
<title>attendee_audit</title>
<g id="a_node4"><a xlink:href="../../tables/attendee_audit.html" xlink:title="attendee_audit" target="_top">
<polygon fill="#ffffff" stroke="transparent" points="646,-736.5967 646,-797.5967 787,-797.5967 787,-736.5967 646,-736.5967"/>
<polygon fill="#f5f5f5" stroke="transparent" points="646.5,-774.0967 646.5,-797.0967 787.5,-797.0967 787.5,-774.0967 646.5,-774.0967"/>
<polygon fill="none" stroke="#000000" points="646.5,-774.0967 646.5,-797.0967 787.5,-797.0967 787.5,-774.0967 646.5,-774.0967"/>
<text text-anchor="start" x="651.5" y="-782.6967" font-family="Helvetica,sans-Serif" font-weight="bold" font-size="11.00" fill="#000000">attendee_audit</text>
<text text-anchor="start" x="753.0219" y="-782.1967" font-family="Helvetica,sans-Serif" font-size="11.00" fill="#000000">[table]</text>
<polygon fill="none" stroke="#000000" points="646.5,-755.0967 646.5,-774.0967 787.5,-774.0967 787.5,-755.0967 646.5,-755.0967"/>
<text text-anchor="start" x="649.5" y="-761.1967" font-family="Helvetica,sans-Serif" font-size="11.00" fill="#000000">...</text>
<polygon fill="#ffffff" stroke="transparent" points="646.5,-736.0967 646.5,-755.0967 715.5,-755.0967 715.5,-736.0967 646.5,-736.0967"/>
<polygon fill="none" stroke="#000000" points="646.5,-736.0967 646.5,-755.0967 715.5,-755.0967 715.5,-736.0967 646.5,-736.0967"/>
<text text-anchor="start" x="649.5" y="-742.1967" font-family="Helvetica,sans-Serif" font-size="11.00" fill="#000000">&lt; 3</text>
<polygon fill="#ffffff" stroke="transparent" points="715.5,-736.0967 715.5,-755.0967 751.5,-755.0967 751.5,-736.0967 715.5,-736.0967"/>
<polygon fill="none" stroke="#000000" points="715.5,-736.0967 715.5,-755.0967 751.5,-755.0967 751.5,-736.0967 715.5,-736.0967"/>
<text text-anchor="start" x="742.3862" y="-742.1967" font-family="Helvetica,sans-Serif" font-size="11.00" fill="#000000"> &#160;</text>
<polygon fill="#ffffff" stroke="transparent" points="751.5,-736.0967 751.5,-755.0967 787.5,-755.0967 787.5,-736.0967 751.5,-736.0967"/>
<polygon fill="none" stroke="#000000" points="751.5,-736.0967 751.5,-755.0967 787.5,-755.0967 787.5,-736.0967 751.5,-736.0967"/>
<text text-anchor="start" x="778.3862" y="-742.1967" font-family="Helvetica,sans-Serif" font-size="11.00" fill="#000000"> &#160;</text>
</a>
</g>
</g>
<!-- attendee_audit&#45;&gt;audit_revision -->
<g id="edge3" class="edge">
<title>attendee_audit:w&#45;&gt;audit_revision:e</title>
<path fill="none" stroke="#000000" stroke-dasharray="5,2" d="M631.9663,-763.7282C526.5928,-758.8575 286.5523,-708.2354 215,-765.0967 152.4593,-814.7966 253.8839,-940.0967 174,-940.0967"/>
<polygon fill="#000000" stroke="#000000" points="638.5026,-763.8939 646.4087,-767.6955 642.5013,-763.9953 646.5,-764.0967 646.5,-764.0967 646.5,-764.0967 642.5013,-763.9953 646.5913,-760.4978 638.5026,-763.8939 638.5026,-763.8939"/>
<ellipse fill="none" stroke="#000000" cx="635.3036" cy="-763.8127" rx="3.2" ry="3.2"/>
</g>
<!-- attendee_audit&#45;&gt;audit_revision -->
<g id="edge4" class="edge">
<title>attendee_audit:w&#45;&gt;audit_revision:e</title>
<path fill="none" stroke="#000000" d="M631.9648,-763.7528C526.5767,-759.2097 286.4407,-712.0859 215,-769.0967 153.9129,-817.8451 252.154,-940.0967 174,-940.0967"/>
<polygon fill="#000000" stroke="#000000" points="638.5022,-763.9074 646.4148,-767.6956 642.5011,-764.002 646.5,-764.0967 646.5,-764.0967 646.5,-764.0967 642.5011,-764.002 646.5852,-760.4977 638.5022,-763.9074 638.5022,-763.9074"/>
<ellipse fill="none" stroke="#000000" cx="635.3031" cy="-763.8317" rx="3.2" ry="3.2"/>
</g>
<!-- attendee_audit&#45;&gt;review -->
<g id="edge5" class="edge">
<title>attendee_audit:w&#45;&gt;review:e</title>
<path fill="none" stroke="#000000" stroke-dasharray="5,2" d="M632.0901,-764.3665C541.993,-767.8123 517.1603,-803.0967 420,-803.0967"/>
<polygon fill="#000000" stroke="#000000" points="638.5014,-764.2465 646.5674,-767.696 642.5007,-764.1716 646.5,-764.0967 646.5,-764.0967 646.5,-764.0967 642.5007,-764.1716 646.4326,-760.4973 638.5014,-764.2465 638.5014,-764.2465"/>
<ellipse fill="none" stroke="#000000" cx="635.302" cy="-764.3064" rx="3.2" ry="3.2"/>
</g>
<!-- contributory_factor -->
<g id="node5" class="node">
<title>contributory_factor</title>
<g id="a_node5"><a xlink:href="../../tables/contributory_factor.html" xlink:title="contributory_factor" target="_top">
<polygon fill="#ffffff" stroke="transparent" points="991,-321.5967 991,-382.5967 1160,-382.5967 1160,-321.5967 991,-321.5967"/>
<polygon fill="#f5f5f5" stroke="transparent" points="991.5,-359.0967 991.5,-382.0967 1160.5,-382.0967 1160.5,-359.0967 991.5,-359.0967"/>
<polygon fill="none" stroke="#000000" points="991.5,-359.0967 991.5,-382.0967 1160.5,-382.0967 1160.5,-359.0967 991.5,-359.0967"/>
<text text-anchor="start" x="996.5" y="-367.6967" font-family="Helvetica,sans-Serif" font-weight="bold" font-size="11.00" fill="#000000">contributory_factor</text>
<text text-anchor="start" x="1126.0219" y="-367.1967" font-family="Helvetica,sans-Serif" font-size="11.00" fill="#000000">[table]</text>
<polygon fill="none" stroke="#000000" points="991.5,-340.0967 991.5,-359.0967 1160.5,-359.0967 1160.5,-340.0967 991.5,-340.0967"/>
<text text-anchor="start" x="994.5" y="-346.1967" font-family="Helvetica,sans-Serif" font-size="11.00" fill="#000000">...</text>
<polygon fill="#ffffff" stroke="transparent" points="991.5,-321.0967 991.5,-340.0967 1074.5,-340.0967 1074.5,-321.0967 991.5,-321.0967"/>
<polygon fill="none" stroke="#000000" points="991.5,-321.0967 991.5,-340.0967 1074.5,-340.0967 1074.5,-321.0967 991.5,-321.0967"/>
<text text-anchor="start" x="994.5" y="-327.1967" font-family="Helvetica,sans-Serif" font-size="11.00" fill="#000000">&lt; 3</text>
<polygon fill="#ffffff" stroke="transparent" points="1074.5,-321.0967 1074.5,-340.0967 1117.5,-340.0967 1117.5,-321.0967 1074.5,-321.0967"/>
<polygon fill="none" stroke="#000000" points="1074.5,-321.0967 1074.5,-340.0967 1117.5,-340.0967 1117.5,-321.0967 1074.5,-321.0967"/>
<text text-anchor="start" x="1108.3862" y="-327.1967" font-family="Helvetica,sans-Serif" font-size="11.00" fill="#000000"> &#160;</text>
<polygon fill="#ffffff" stroke="transparent" points="1117.5,-321.0967 1117.5,-340.0967 1160.5,-340.0967 1160.5,-321.0967 1117.5,-321.0967"/>
<polygon fill="none" stroke="#000000" points="1117.5,-321.0967 1117.5,-340.0967 1160.5,-340.0967 1160.5,-321.0967 1117.5,-321.0967"/>
<text text-anchor="start" x="1151.3862" y="-327.1967" font-family="Helvetica,sans-Serif" font-size="11.00" fill="#000000"> &#160;</text>
</a>
</g>
</g>
<!-- contributory_factor&#45;&gt;audit_revision -->
<g id="edge7" class="edge">
<title>contributory_factor:w&#45;&gt;audit_revision:e</title>
<path fill="none" stroke="#000000" stroke-dasharray="5,2" d="M981.1019,-349.7021C859.5895,-363.4274 650.9571,-606.2864 541,-644.0967 472.2581,-667.7345 268.1343,-621.4888 215,-671.0967 170.801,-712.3622 234.4681,-940.0967 174,-940.0967"/>
<polygon fill="#000000" stroke="#000000" points="990.4688,-345.1499 990.9339,-353.1364 989.3366,-353.2294 988.8715,-345.2429 990.4688,-345.1499"/>
<polyline fill="none" stroke="#000000" points="991.5,-349.0967 987.5068,-349.3292 "/>
<ellipse fill="none" stroke="#000000" cx="984.3122" cy="-349.5152" rx="3.2" ry="3.2"/>
</g>
<!-- reference_data -->
<g id="node6" class="node">
<title>reference_data</title>
<g id="a_node6"><a xlink:href="../../tables/reference_data.html" xlink:title="reference_data" target="_top">
<polygon fill="#ffffff" stroke="transparent" points="21,-152.5967 21,-213.5967 161,-213.5967 161,-152.5967 21,-152.5967"/>
<polygon fill="#f5f5f5" stroke="transparent" points="21,-190.0967 21,-213.0967 161,-213.0967 161,-190.0967 21,-190.0967"/>
<polygon fill="none" stroke="#000000" points="21,-190.0967 21,-213.0967 161,-213.0967 161,-190.0967 21,-190.0967"/>
<text text-anchor="start" x="26" y="-198.6967" font-family="Helvetica,sans-Serif" font-weight="bold" font-size="11.00" fill="#000000">reference_data</text>
<text text-anchor="start" x="126.5219" y="-198.1967" font-family="Helvetica,sans-Serif" font-size="11.00" fill="#000000">[table]</text>
<polygon fill="none" stroke="#000000" points="21,-171.0967 21,-190.0967 161,-190.0967 161,-171.0967 21,-171.0967"/>
<text text-anchor="start" x="24" y="-177.1967" font-family="Helvetica,sans-Serif" font-size="11.00" fill="#000000">...</text>
<polygon fill="#ffffff" stroke="transparent" points="21,-152.0967 21,-171.0967 58,-171.0967 58,-152.0967 21,-152.0967"/>
<polygon fill="none" stroke="#000000" points="21,-152.0967 21,-171.0967 58,-171.0967 58,-152.0967 21,-152.0967"/>
<text text-anchor="start" x="24" y="-158.1967" font-family="Helvetica,sans-Serif" font-size="11.00" fill="#000000"> &#160;</text>
<polygon fill="#ffffff" stroke="transparent" points="58,-152.0967 58,-171.0967 121,-171.0967 121,-152.0967 58,-152.0967"/>
<polygon fill="none" stroke="#000000" points="58,-152.0967 58,-171.0967 121,-171.0967 121,-152.0967 58,-152.0967"/>
<text text-anchor="start" x="73.3807" y="-158.1967" font-family="Helvetica,sans-Serif" font-size="11.00" fill="#000000">122 rows</text>
<polygon fill="#ffffff" stroke="transparent" points="121,-152.0967 121,-171.0967 161,-171.0967 161,-152.0967 121,-152.0967"/>
<polygon fill="none" stroke="#000000" points="121,-152.0967 121,-171.0967 161,-171.0967 161,-152.0967 121,-152.0967"/>
<text text-anchor="start" x="136.2904" y="-158.1967" font-family="Helvetica,sans-Serif" font-size="11.00" fill="#000000">10 &gt;</text>
</a>
</g>
</g>
<!-- contributory_factor&#45;&gt;reference_data -->
<g id="edge6" class="edge">
<title>contributory_factor:w&#45;&gt;reference_data:e</title>
<path fill="none" stroke="#000000" d="M976.8913,-348.384C935.0673,-344.0156 921.0009,-319.7612 892,-281.0967 863.6639,-243.3185 897.1405,-207.9431 859,-180.0967 796.3624,-134.3649 238.5556,-180.0967 161,-180.0967"/>
<polygon fill="#000000" stroke="#000000" points="983.5095,-348.7068 991.3246,-352.6924 987.5048,-348.9017 991.5,-349.0967 991.5,-349.0967 991.5,-349.0967 987.5048,-348.9017 991.6754,-345.5009 983.5095,-348.7068 983.5095,-348.7068"/>
<ellipse fill="none" stroke="#000000" cx="980.3133" cy="-348.5509" rx="3.2" ry="3.2"/>
</g>
<!-- referral -->
<g id="node7" class="node">
<title>referral</title>
<g id="a_node7"><a xlink:href="../../tables/referral.html" xlink:title="referral" target="_top">
<polygon fill="#ffffff" stroke="transparent" points="582,-190.5967 582,-383.5967 851,-383.5967 851,-190.5967 582,-190.5967"/>
<polygon fill="#f5f5f5" stroke="transparent" points="582.5,-360.0967 582.5,-383.0967 851.5,-383.0967 851.5,-360.0967 582.5,-360.0967"/>
<polygon fill="none" stroke="#000000" points="582.5,-360.0967 582.5,-383.0967 851.5,-383.0967 851.5,-360.0967 582.5,-360.0967"/>
<text text-anchor="start" x="587.5" y="-368.6967" font-family="Helvetica,sans-Serif" font-weight="bold" font-size="11.00" fill="#000000">referral</text>
<text text-anchor="start" x="816.5437" y="-368.1967" font-family="Helvetica,sans-Serif" font-size="11.00" fill="#000000">[table]</text>
<polygon fill="none" stroke="#000000" points="582.5,-338.0967 582.5,-360.0967 851.5,-360.0967 851.5,-338.0967 582.5,-338.0967"/>
<image xlink:href="../../images/primaryKeys.png" width="11px" height="12px" preserveAspectRatio="xMinYMin meet" x="587.5" y="-355.097"/>
<text text-anchor="start" x="602.5" y="-345.1967" font-family="Helvetica,sans-Serif" font-size="11.00" fill="#000000">referral_id</text>
<polygon fill="#ffffff" stroke="transparent" points="582.5,-316.0967 582.5,-338.0967 851.5,-338.0967 851.5,-316.0967 582.5,-316.0967"/>
<polygon fill="none" stroke="#000000" points="582.5,-316.0967 582.5,-338.0967 851.5,-338.0967 851.5,-316.0967 582.5,-316.0967"/>
<image xlink:href="../../images/foreignKeys.png" width="11px" height="12px" preserveAspectRatio="xMinYMin meet" x="587.5" y="-333.097"/>
<text text-anchor="start" x="602.5" y="-323.1967" font-family="Helvetica,sans-Serif" font-size="11.00" fill="#000000">incident_type_id</text>
<polygon fill="#ffffff" stroke="transparent" points="582.5,-294.0967 582.5,-316.0967 851.5,-316.0967 851.5,-294.0967 582.5,-294.0967"/>
<polygon fill="none" stroke="#000000" points="582.5,-294.0967 582.5,-316.0967 851.5,-316.0967 851.5,-294.0967 582.5,-294.0967"/>
<image xlink:href="../../images/foreignKeys.png" width="11px" height="12px" preserveAspectRatio="xMinYMin meet" x="587.5" y="-311.097"/>
<text text-anchor="start" x="602.5" y="-301.1967" font-family="Helvetica,sans-Serif" font-size="11.00" fill="#000000">incident_location_id</text>
<polygon fill="#ffffff" stroke="transparent" points="582.5,-272.0967 582.5,-294.0967 851.5,-294.0967 851.5,-272.0967 582.5,-272.0967"/>
<polygon fill="none" stroke="#000000" points="582.5,-272.0967 582.5,-294.0967 851.5,-294.0967 851.5,-272.0967 582.5,-272.0967"/>
<image xlink:href="../../images/foreignKeys.png" width="11px" height="12px" preserveAspectRatio="xMinYMin meet" x="587.5" y="-289.097"/>
<text text-anchor="start" x="602.5" y="-279.1967" font-family="Helvetica,sans-Serif" font-size="11.00" fill="#000000">referer_area_of_work_id</text>
<polygon fill="#ffffff" stroke="transparent" points="582.5,-250.0967 582.5,-272.0967 851.5,-272.0967 851.5,-250.0967 582.5,-250.0967"/>
<polygon fill="none" stroke="#000000" points="582.5,-250.0967 582.5,-272.0967 851.5,-272.0967 851.5,-250.0967 582.5,-250.0967"/>
<text text-anchor="start" x="602.5" y="-257.1967" font-family="Helvetica,sans-Serif" font-size="11.00" fill="#000000">referral_date</text>
<polygon fill="#ffffff" stroke="transparent" points="582.5,-228.0967 582.5,-250.0967 851.5,-250.0967 851.5,-228.0967 582.5,-228.0967"/>
<polygon fill="none" stroke="#000000" points="582.5,-228.0967 582.5,-250.0967 851.5,-250.0967 851.5,-228.0967 582.5,-228.0967"/>
<image xlink:href="../../images/foreignKeys.png" width="11px" height="12px" preserveAspectRatio="xMinYMin meet" x="587.5" y="-245.097"/>
<text text-anchor="start" x="602.5" y="-235.1967" font-family="Helvetica,sans-Serif" font-size="11.00" fill="#000000">incident_involvement_id</text>
<polygon fill="none" stroke="#000000" points="582.5,-209.0967 582.5,-228.0967 851.5,-228.0967 851.5,-209.0967 582.5,-209.0967"/>
<text text-anchor="start" x="585.5" y="-215.1967" font-family="Helvetica,sans-Serif" font-size="11.00" fill="#000000">...</text>
<polygon fill="#ffffff" stroke="transparent" points="582.5,-190.0967 582.5,-209.0967 710.5,-209.0967 710.5,-190.0967 582.5,-190.0967"/>
<polygon fill="none" stroke="#000000" points="582.5,-190.0967 582.5,-209.0967 710.5,-209.0967 710.5,-190.0967 582.5,-190.0967"/>
<text text-anchor="start" x="585.5" y="-196.1967" font-family="Helvetica,sans-Serif" font-size="11.00" fill="#000000">&lt; 5</text>
<polygon fill="#ffffff" stroke="transparent" points="710.5,-190.0967 710.5,-209.0967 776.5,-209.0967 776.5,-190.0967 710.5,-190.0967"/>
<polygon fill="none" stroke="#000000" points="710.5,-190.0967 710.5,-209.0967 776.5,-209.0967 776.5,-190.0967 710.5,-190.0967"/>
<text text-anchor="start" x="767.3862" y="-196.1967" font-family="Helvetica,sans-Serif" font-size="11.00" fill="#000000"> &#160;</text>
<polygon fill="#ffffff" stroke="transparent" points="776.5,-190.0967 776.5,-209.0967 851.5,-209.0967 851.5,-190.0967 776.5,-190.0967"/>
<polygon fill="none" stroke="#000000" points="776.5,-190.0967 776.5,-209.0967 851.5,-209.0967 851.5,-190.0967 776.5,-190.0967"/>
<text text-anchor="start" x="832.9053" y="-196.1967" font-family="Helvetica,sans-Serif" font-size="11.00" fill="#000000">5 &gt;</text>
</a>
</g>
</g>
<!-- contributory_factor&#45;&gt;referral -->
<g id="edge8" class="edge">
<title>contributory_factor:w&#45;&gt;referral:e</title>
<path fill="none" stroke="#000000" d="M977.0781,-349.0967C926.4117,-349.0967 908.6181,-349.0967 851.5,-349.0967"/>
<polygon fill="#000000" stroke="#000000" points="983.5,-349.0967 991.5,-352.6967 987.5,-349.0967 991.5,-349.0967 991.5,-349.0967 991.5,-349.0967 987.5,-349.0967 991.5,-345.4967 983.5,-349.0967 983.5,-349.0967"/>
<ellipse fill="none" stroke="#000000" cx="980.3" cy="-349.0967" rx="3.2" ry="3.2"/>
</g>
<!-- referral&#45;&gt;reference_data -->
<g id="edge37" class="edge">
<title>referral:w&#45;&gt;reference_data:e</title>
<path fill="none" stroke="#000000" d="M568.5961,-235.0156C559.445,-228.4238 556.389,-215.6158 541,-210.0967 461.2655,-181.5007 245.7072,-180.0967 161,-180.0967"/>
<polygon fill="#000000" stroke="#000000" points="574.8238,-236.8435 581.4861,-242.5509 578.6619,-237.9701 582.5,-239.0967 582.5,-239.0967 582.5,-239.0967 578.6619,-237.9701 583.5139,-235.6424 574.8238,-236.8435 574.8238,-236.8435"/>
<ellipse fill="none" stroke="#000000" cx="571.7534" cy="-235.9422" rx="3.2" ry="3.2"/>
</g>
<!-- referral&#45;&gt;reference_data -->
<g id="edge38" class="edge">
<title>referral:w&#45;&gt;reference_data:e</title>
<path fill="none" stroke="#000000" d="M568.6839,-300.5247C558.5469,-291.7099 558.7632,-272.4946 541,-264.0967 409.3017,-201.8335 347.6891,-290.2194 215,-230.0967 185.2075,-216.5974 193.7082,-180.0967 161,-180.0967"/>
<polygon fill="#000000" stroke="#000000" points="574.905,-302.5833 581.369,-308.5144 578.7025,-303.84 582.5,-305.0967 582.5,-305.0967 582.5,-305.0967 578.7025,-303.84 583.631,-301.6789 574.905,-302.5833 574.905,-302.5833"/>
<ellipse fill="none" stroke="#000000" cx="571.8671" cy="-301.578" rx="3.2" ry="3.2"/>
</g>
<!-- referral&#45;&gt;reference_data -->
<g id="edge39" class="edge">
<title>referral:w&#45;&gt;reference_data:e</title>
<path fill="none" stroke="#000000" d="M568.5809,-322.4691C558.7552,-313.9441 558.2977,-295.9165 541,-288.0967 408.3799,-228.1422 340.795,-330.2966 215,-257.0967 178.8723,-236.074 202.799,-180.0967 161,-180.0967"/>
<polygon fill="#000000" stroke="#000000" points="574.9085,-324.5728 581.3643,-330.5128 578.7043,-325.8347 582.5,-327.0967 582.5,-327.0967 582.5,-327.0967 578.7043,-325.8347 583.6357,-323.6805 574.9085,-324.5728 574.9085,-324.5728"/>
<ellipse fill="none" stroke="#000000" cx="571.872" cy="-323.5632" rx="3.2" ry="3.2"/>
</g>
<!-- referral&#45;&gt;reference_data -->
<g id="edge40" class="edge">
<title>referral:w&#45;&gt;reference_data:e</title>
<path fill="none" stroke="#000000" d="M568.4985,-278.272C557.2143,-267.5635 561.4163,-241.9049 541,-231.0967 476.7859,-197.1023 285.1658,-224.96 215,-206.0967 189.2764,-199.1811 187.637,-180.0967 161,-180.0967"/>
<polygon fill="#000000" stroke="#000000" points="574.9364,-280.4904 581.3272,-286.5003 578.7182,-281.7935 582.5,-283.0967 582.5,-283.0967 582.5,-283.0967 578.7182,-281.7935 583.6728,-279.6931 574.9364,-280.4904 574.9364,-280.4904"/>
<ellipse fill="none" stroke="#000000" cx="571.911" cy="-279.4478" rx="3.2" ry="3.2"/>
</g>
<!-- csip_record -->
<g id="node9" class="node">
<title>csip_record</title>
<g id="a_node9"><a xlink:href="../../tables/csip_record.html" xlink:title="csip_record" target="_top">
<polygon fill="#ffffff" stroke="transparent" points="320.5,-298.5967 320.5,-359.5967 435.5,-359.5967 435.5,-298.5967 320.5,-298.5967"/>
<polygon fill="#f5f5f5" stroke="transparent" points="321,-336.0967 321,-359.0967 436,-359.0967 436,-336.0967 321,-336.0967"/>
<polygon fill="none" stroke="#000000" points="321,-336.0967 321,-359.0967 436,-359.0967 436,-336.0967 321,-336.0967"/>
<text text-anchor="start" x="326" y="-344.6967" font-family="Helvetica,sans-Serif" font-weight="bold" font-size="11.00" fill="#000000">csip_record</text>
<text text-anchor="start" x="401.5219" y="-344.1967" font-family="Helvetica,sans-Serif" font-size="11.00" fill="#000000">[table]</text>
<polygon fill="none" stroke="#000000" points="321,-317.0967 321,-336.0967 436,-336.0967 436,-317.0967 321,-317.0967"/>
<text text-anchor="start" x="324" y="-323.1967" font-family="Helvetica,sans-Serif" font-size="11.00" fill="#000000">...</text>
<polygon fill="#ffffff" stroke="transparent" points="321,-298.0967 321,-317.0967 372,-317.0967 372,-298.0967 321,-298.0967"/>
<polygon fill="none" stroke="#000000" points="321,-298.0967 321,-317.0967 372,-317.0967 372,-298.0967 321,-298.0967"/>
<text text-anchor="start" x="324" y="-304.1967" font-family="Helvetica,sans-Serif" font-size="11.00" fill="#000000">&lt; 3</text>
<polygon fill="#ffffff" stroke="transparent" points="372,-298.0967 372,-317.0967 399,-317.0967 399,-298.0967 372,-298.0967"/>
<polygon fill="none" stroke="#000000" points="372,-298.0967 372,-317.0967 399,-317.0967 399,-298.0967 372,-298.0967"/>
<text text-anchor="start" x="389.8862" y="-304.1967" font-family="Helvetica,sans-Serif" font-size="11.00" fill="#000000"> &#160;</text>
<polygon fill="#ffffff" stroke="transparent" points="399,-298.0967 399,-317.0967 436,-317.0967 436,-298.0967 399,-298.0967"/>
<polygon fill="none" stroke="#000000" points="399,-298.0967 399,-317.0967 436,-317.0967 436,-298.0967 399,-298.0967"/>
<text text-anchor="start" x="417.4053" y="-304.1967" font-family="Helvetica,sans-Serif" font-size="11.00" fill="#000000">2 &gt;</text>
</a>
</g>
</g>
<!-- referral&#45;&gt;csip_record -->
<g id="edge41" class="edge">
<title>referral:w&#45;&gt;csip_record:e</title>
<path fill="none" stroke="#000000" d="M571.7751,-348.8836C514.7637,-346.565 498.1755,-326.0967 436,-326.0967"/>
<polygon fill="#000000" stroke="#000000" points="581.7796,-345.0815 581.6207,-353.08 580.021,-353.0482 580.1799,-345.0498 581.7796,-345.0815"/>
<polyline fill="none" stroke="#000000" points="582.5,-349.0967 578.5008,-349.0172 "/>
<ellipse fill="none" stroke="#000000" cx="575.3014" cy="-348.9536" rx="3.2" ry="3.2"/>
</g>
<!-- contributory_factor_audit -->
<g id="node8" class="node">
<title>contributory_factor_audit</title>
<g id="a_node8"><a xlink:href="../../tables/contributory_factor_audit.html" xlink:title="contributory_factor_audit" target="_top">
<polygon fill="#ffffff" stroke="transparent" points="900,-623.0967 900,-867.0967 1251,-867.0967 1251,-623.0967 900,-623.0967"/>
<polygon fill="#f5f5f5" stroke="transparent" points="902.5,-842.0967 902.5,-865.0967 1249.5,-865.0967 1249.5,-842.0967 902.5,-842.0967"/>
<polygon fill="none" stroke="#000000" points="902.5,-842.0967 902.5,-865.0967 1249.5,-865.0967 1249.5,-842.0967 902.5,-842.0967"/>
<text text-anchor="start" x="907.5" y="-850.6967" font-family="Helvetica,sans-Serif" font-weight="bold" font-size="11.00" fill="#000000">contributory_factor_audit</text>
<text text-anchor="start" x="1214.5437" y="-850.1967" font-family="Helvetica,sans-Serif" font-size="11.00" fill="#000000">[table]</text>
<polygon fill="none" stroke="#000000" points="902.5,-820.0967 902.5,-842.0967 1155.5,-842.0967 1155.5,-820.0967 902.5,-820.0967"/>
<image xlink:href="../../images/primaryKeys.png" width="11px" height="12px" preserveAspectRatio="xMinYMin meet" x="907.5" y="-837.097"/>
<text text-anchor="start" x="922.5" y="-827.1967" font-family="Helvetica,sans-Serif" font-size="11.00" fill="#000000">rev_id</text>
<polygon fill="none" stroke="#000000" points="1155.5,-820.0967 1155.5,-842.0967 1249.5,-842.0967 1249.5,-820.0967 1155.5,-820.0967"/>
<text text-anchor="start" x="1158.5" y="-827.7967" font-family="Helvetica,sans-Serif" font-size="11.00" fill="#000000">int8[19]</text>
<polygon fill="none" stroke="#000000" points="902.5,-798.0967 902.5,-820.0967 1155.5,-820.0967 1155.5,-798.0967 902.5,-798.0967"/>
<text text-anchor="start" x="922.5" y="-805.1967" font-family="Helvetica,sans-Serif" font-size="11.00" fill="#000000">rev_type</text>
<polygon fill="none" stroke="#000000" points="1155.5,-798.0967 1155.5,-820.0967 1249.5,-820.0967 1249.5,-798.0967 1155.5,-798.0967"/>
<text text-anchor="start" x="1158.5" y="-805.7967" font-family="Helvetica,sans-Serif" font-size="11.00" fill="#000000">int2[5]</text>
<polygon fill="none" stroke="#000000" points="902.5,-776.0967 902.5,-798.0967 1155.5,-798.0967 1155.5,-776.0967 902.5,-776.0967"/>
<image xlink:href="../../images/primaryKeys.png" width="11px" height="12px" preserveAspectRatio="xMinYMin meet" x="907.5" y="-793.097"/>
<text text-anchor="start" x="922.5" y="-783.1967" font-family="Helvetica,sans-Serif" font-size="11.00" fill="#000000">contributory_factor_id</text>
<polygon fill="none" stroke="#000000" points="1155.5,-776.0967 1155.5,-798.0967 1249.5,-798.0967 1249.5,-776.0967 1155.5,-776.0967"/>
<text text-anchor="start" x="1158.4758" y="-783.7967" font-family="Helvetica,sans-Serif" font-size="11.00" fill="#000000">uuid[2147483647]</text>
<polygon fill="none" stroke="#000000" points="902.5,-754.0967 902.5,-776.0967 1155.5,-776.0967 1155.5,-754.0967 902.5,-754.0967"/>
<image xlink:href="../../images/foreignKeys.png" width="11px" height="12px" preserveAspectRatio="xMinYMin meet" x="907.5" y="-771.097"/>
<text text-anchor="start" x="922.5" y="-761.1967" font-family="Helvetica,sans-Serif" font-size="11.00" fill="#000000">referral_id</text>
<polygon fill="none" stroke="#000000" points="1155.5,-754.0967 1155.5,-776.0967 1249.5,-776.0967 1249.5,-754.0967 1155.5,-754.0967"/>
<text text-anchor="start" x="1158.4758" y="-761.7967" font-family="Helvetica,sans-Serif" font-size="11.00" fill="#000000">uuid[2147483647]</text>
<polygon fill="none" stroke="#000000" points="902.5,-732.0967 902.5,-754.0967 1155.5,-754.0967 1155.5,-732.0967 902.5,-732.0967"/>
<image xlink:href="../../images/foreignKeys.png" width="11px" height="12px" preserveAspectRatio="xMinYMin meet" x="907.5" y="-749.097"/>
<text text-anchor="start" x="922.5" y="-739.1967" font-family="Helvetica,sans-Serif" font-size="11.00" fill="#000000">contributory_factor_type_id</text>
<polygon fill="none" stroke="#000000" points="1155.5,-732.0967 1155.5,-754.0967 1249.5,-754.0967 1249.5,-732.0967 1155.5,-732.0967"/>
<text text-anchor="start" x="1158.5" y="-739.7967" font-family="Helvetica,sans-Serif" font-size="11.00" fill="#000000">int8[19]</text>
<polygon fill="none" stroke="#000000" points="902.5,-710.0967 902.5,-732.0967 1155.5,-732.0967 1155.5,-710.0967 902.5,-710.0967"/>
<text text-anchor="start" x="922.5" y="-717.1967" font-family="Helvetica,sans-Serif" font-size="11.00" fill="#000000">comment</text>
<polygon fill="none" stroke="#000000" points="1155.5,-710.0967 1155.5,-732.0967 1249.5,-732.0967 1249.5,-710.0967 1155.5,-710.0967"/>
<text text-anchor="start" x="1158.5" y="-717.7967" font-family="Helvetica,sans-Serif" font-size="11.00" fill="#000000">text[2147483647]</text>
<polygon fill="none" stroke="#000000" points="902.5,-688.0967 902.5,-710.0967 1155.5,-710.0967 1155.5,-688.0967 902.5,-688.0967"/>
<text text-anchor="start" x="922.5" y="-695.1967" font-family="Helvetica,sans-Serif" font-size="11.00" fill="#000000">contributory_factor_type_modified</text>
<polygon fill="none" stroke="#000000" points="1155.5,-688.0967 1155.5,-710.0967 1249.5,-710.0967 1249.5,-688.0967 1155.5,-688.0967"/>
<text text-anchor="start" x="1158.5" y="-695.7967" font-family="Helvetica,sans-Serif" font-size="11.00" fill="#000000">bool[1]</text>
<polygon fill="none" stroke="#000000" points="902.5,-666.0967 902.5,-688.0967 1155.5,-688.0967 1155.5,-666.0967 902.5,-666.0967"/>
<text text-anchor="start" x="922.5" y="-673.1967" font-family="Helvetica,sans-Serif" font-size="11.00" fill="#000000">comment_modified</text>
<polygon fill="none" stroke="#000000" points="1155.5,-666.0967 1155.5,-688.0967 1249.5,-688.0967 1249.5,-666.0967 1155.5,-666.0967"/>
<text text-anchor="start" x="1158.5" y="-673.7967" font-family="Helvetica,sans-Serif" font-size="11.00" fill="#000000">bool[1]</text>
<polygon fill="none" stroke="#000000" points="902.5,-644.0967 902.5,-666.0967 1155.5,-666.0967 1155.5,-644.0967 902.5,-644.0967"/>
<image xlink:href="../../images/foreignKeys.png" width="11px" height="12px" preserveAspectRatio="xMinYMin meet" x="907.5" y="-661.097"/>
<text text-anchor="start" x="922.5" y="-651.1967" font-family="Helvetica,sans-Serif" font-size="11.00" fill="#000000">legacy_id</text>
<polygon fill="none" stroke="#000000" points="1155.5,-644.0967 1155.5,-666.0967 1249.5,-666.0967 1249.5,-644.0967 1155.5,-644.0967"/>
<text text-anchor="start" x="1158.5" y="-651.7967" font-family="Helvetica,sans-Serif" font-size="11.00" fill="#000000">int8[19]</text>
<polygon fill="#ffffff" stroke="transparent" points="902.5,-625.0967 902.5,-644.0967 1033.5,-644.0967 1033.5,-625.0967 902.5,-625.0967"/>
<polygon fill="none" stroke="#000000" points="902.5,-625.0967 902.5,-644.0967 1033.5,-644.0967 1033.5,-625.0967 902.5,-625.0967"/>
<text text-anchor="start" x="905.5" y="-631.1967" font-family="Helvetica,sans-Serif" font-size="11.00" fill="#000000">&lt; 4</text>
<polygon fill="#ffffff" stroke="transparent" points="1033.5,-625.0967 1033.5,-644.0967 1155.5,-644.0967 1155.5,-625.0967 1033.5,-625.0967"/>
<polygon fill="none" stroke="#000000" points="1033.5,-625.0967 1033.5,-644.0967 1155.5,-644.0967 1155.5,-625.0967 1033.5,-625.0967"/>
<text text-anchor="start" x="1146.3862" y="-631.1967" font-family="Helvetica,sans-Serif" font-size="11.00" fill="#000000"> &#160;</text>
<polygon fill="#ffffff" stroke="transparent" points="1155.5,-625.0967 1155.5,-644.0967 1249.5,-644.0967 1249.5,-625.0967 1155.5,-625.0967"/>
<polygon fill="none" stroke="#000000" points="1155.5,-625.0967 1155.5,-644.0967 1249.5,-644.0967 1249.5,-625.0967 1155.5,-625.0967"/>
<text text-anchor="start" x="1230.9053" y="-631.1967" font-family="Helvetica,sans-Serif" font-size="11.00" fill="#000000">0 &gt;</text>
<polygon fill="none" stroke="#000000" stroke-width="2" points="901,-624.0967 901,-866.0967 1250,-866.0967 1250,-624.0967 901,-624.0967"/>
</a>
</g>
</g>
<!-- contributory_factor_audit&#45;&gt;audit_revision -->
<g id="edge9" class="edge">
<title>contributory_factor_audit:w&#45;&gt;audit_revision:e</title>
<path fill="none" stroke="#000000" stroke-dasharray="5,2" d="M888.2343,-740.3415C878.8788,-736.269 873.5018,-728.8297 859,-726.0967 788.668,-712.8417 269.6066,-692.8321 215,-739.0967 145.437,-798.0329 265.1729,-940.0967 174,-940.0967"/>
<polygon fill="#000000" stroke="#000000" points="894.6451,-741.5796 901.8173,-746.6313 898.5726,-742.3381 902.5,-743.0967 902.5,-743.0967 902.5,-743.0967 898.5726,-742.3381 903.1827,-739.562 894.6451,-741.5796 894.6451,-741.5796"/>
<ellipse fill="none" stroke="#000000" cx="891.5032" cy="-740.9728" rx="3.2" ry="3.2"/>
</g>
<!-- contributory_factor_audit&#45;&gt;audit_revision -->
<g id="edge10" class="edge">
<title>contributory_factor_audit:w&#45;&gt;audit_revision:e</title>
<path fill="none" stroke="#000000" stroke-dasharray="5,2" d="M887.8286,-655.4388C785.4896,-658.6588 241.5247,-684.0514 215,-708.0967 137.4227,-778.4224 278.7089,-940.0967 174,-940.0967"/>
<polygon fill="#000000" stroke="#000000" points="894.5022,-655.2832 902.584,-658.6957 898.5011,-655.1899 902.5,-655.0967 902.5,-655.0967 902.5,-655.0967 898.5011,-655.1899 902.416,-651.4976 894.5022,-655.2832 894.5022,-655.2832"/>
<ellipse fill="none" stroke="#000000" cx="891.303" cy="-655.3579" rx="3.2" ry="3.2"/>
</g>
<!-- contributory_factor_audit&#45;&gt;audit_revision -->
<g id="edge12" class="edge">
<title>contributory_factor_audit:w&#45;&gt;audit_revision:e</title>
<path fill="none" stroke="#000000" d="M888.4746,-835.5919C875.1689,-847.1907 882.2888,-878.0592 859,-890.0967 731.8451,-955.8198 347.7635,-848.6012 215,-902.0967 191.9552,-911.3823 198.8452,-940.0967 174,-940.0967"/>
<polygon fill="#000000" stroke="#000000" points="894.8817,-833.5384 903.5988,-834.5249 898.6909,-832.3175 902.5,-831.0967 902.5,-831.0967 902.5,-831.0967 898.6909,-832.3175 901.4012,-827.6684 894.8817,-833.5384 894.8817,-833.5384"/>
<ellipse fill="none" stroke="#000000" cx="891.8344" cy="-834.5151" rx="3.2" ry="3.2"/>
</g>
<!-- contributory_factor_audit&#45;&gt;referral -->
<g id="edge11" class="edge">
<title>contributory_factor_audit:w&#45;&gt;referral:e</title>
<path fill="none" stroke="#000000" stroke-dasharray="5,2" d="M888.389,-760.9794C824.4316,-717.7749 939.1793,-349.0967 851.5,-349.0967"/>
<polygon fill="#000000" stroke="#000000" points="894.8202,-762.8558 901.4916,-768.5525 898.6601,-763.9762 902.5,-765.0967 902.5,-765.0967 902.5,-765.0967 898.6601,-763.9762 903.5084,-761.6408 894.8202,-762.8558 894.8202,-762.8558"/>
<ellipse fill="none" stroke="#000000" cx="891.7483" cy="-761.9595" rx="3.2" ry="3.2"/>
</g>
<!-- csip_record&#45;&gt;audit_revision -->
<g id="edge13" class="edge">
<title>csip_record:w&#45;&gt;audit_revision:e</title>
<path fill="none" stroke="#000000" stroke-dasharray="5,2" d="M310.4807,-326.1903C265.786,-327.0635 242.5021,-334.6592 215,-374.0967 178.9328,-425.8163 237.0537,-940.0967 174,-940.0967"/>
<polygon fill="#000000" stroke="#000000" points="320.1644,-322.1039 320.2357,-330.1036 318.6357,-330.1179 318.5645,-322.1182 320.1644,-322.1039"/>
<polyline fill="none" stroke="#000000" points="321,-326.0967 317.0002,-326.1323 "/>
<ellipse fill="none" stroke="#000000" cx="313.8003" cy="-326.1608" rx="3.2" ry="3.2"/>
</g>
<!-- csip_record&#45;&gt;reference_data -->
<g id="edge14" class="edge">
<title>csip_record:w&#45;&gt;reference_data:e</title>
<path fill="none" stroke="#000000" d="M306.5246,-325.8293C266.5212,-324.1971 248.7872,-314.6124 215,-284.0967 176.3491,-249.1882 213.0816,-180.0967 161,-180.0967"/>
<polygon fill="#000000" stroke="#000000" points="313.0014,-325.9489 320.9335,-329.696 317.0007,-326.0228 321,-326.0967 321,-326.0967 321,-326.0967 317.0007,-326.0228 321.0665,-322.4973 313.0014,-325.9489 313.0014,-325.9489"/>
<ellipse fill="none" stroke="#000000" cx="309.8019" cy="-325.8897" rx="3.2" ry="3.2"/>
</g>
<!-- csip_record_audit -->
<g id="node10" class="node">
<title>csip_record_audit</title>
<g id="a_node10"><a xlink:href="../../tables/csip_record_audit.html" xlink:title="csip_record_audit" target="_top">
<polygon fill="#ffffff" stroke="transparent" points="300,-572.5967 300,-633.5967 456,-633.5967 456,-572.5967 300,-572.5967"/>
<polygon fill="#f5f5f5" stroke="transparent" points="300,-610.0967 300,-633.0967 456,-633.0967 456,-610.0967 300,-610.0967"/>
<polygon fill="none" stroke="#000000" points="300,-610.0967 300,-633.0967 456,-633.0967 456,-610.0967 300,-610.0967"/>
<text text-anchor="start" x="305" y="-618.6967" font-family="Helvetica,sans-Serif" font-weight="bold" font-size="11.00" fill="#000000">csip_record_audit</text>
<text text-anchor="start" x="421.5219" y="-618.1967" font-family="Helvetica,sans-Serif" font-size="11.00" fill="#000000">[table]</text>
<polygon fill="none" stroke="#000000" points="300,-591.0967 300,-610.0967 456,-610.0967 456,-591.0967 300,-591.0967"/>
<text text-anchor="start" x="303" y="-597.1967" font-family="Helvetica,sans-Serif" font-size="11.00" fill="#000000">...</text>
<polygon fill="#ffffff" stroke="transparent" points="300,-572.0967 300,-591.0967 376,-591.0967 376,-572.0967 300,-572.0967"/>
<polygon fill="none" stroke="#000000" points="300,-572.0967 300,-591.0967 376,-591.0967 376,-572.0967 300,-572.0967"/>
<text text-anchor="start" x="303" y="-578.1967" font-family="Helvetica,sans-Serif" font-size="11.00" fill="#000000">&lt; 3</text>
<polygon fill="#ffffff" stroke="transparent" points="376,-572.0967 376,-591.0967 416,-591.0967 416,-572.0967 376,-572.0967"/>
<polygon fill="none" stroke="#000000" points="376,-572.0967 376,-591.0967 416,-591.0967 416,-572.0967 376,-572.0967"/>
<text text-anchor="start" x="406.8862" y="-578.1967" font-family="Helvetica,sans-Serif" font-size="11.00" fill="#000000"> &#160;</text>
<polygon fill="#ffffff" stroke="transparent" points="416,-572.0967 416,-591.0967 456,-591.0967 456,-572.0967 416,-572.0967"/>
<polygon fill="none" stroke="#000000" points="416,-572.0967 416,-591.0967 456,-591.0967 456,-572.0967 416,-572.0967"/>
<text text-anchor="start" x="446.8862" y="-578.1967" font-family="Helvetica,sans-Serif" font-size="11.00" fill="#000000"> &#160;</text>
</a>
</g>
</g>
<!-- csip_record_audit&#45;&gt;audit_revision -->
<g id="edge15" class="edge">
<title>csip_record_audit:w&#45;&gt;audit_revision:e</title>
<path fill="none" stroke="#000000" stroke-dasharray="5,2" d="M285.3322,-598.7251C252.3466,-597.386 236.4713,-610.5849 215,-642.0967 178.1035,-696.2467 239.5254,-934.0967 174,-940.0967"/>
<polygon fill="#000000" stroke="#000000" points="292.0347,-599.3518 299.6648,-603.681 296.0174,-599.7242 300,-600.0967 300,-600.0967 300,-600.0967 296.0174,-599.7242 300.3352,-596.5123 292.0347,-599.3518 292.0347,-599.3518"/>
<ellipse fill="none" stroke="#000000" cx="288.8486" cy="-599.0539" rx="3.2" ry="3.2"/>
</g>
<!-- csip_record_audit&#45;&gt;audit_revision -->
<g id="edge16" class="edge">
<title>csip_record_audit:w&#45;&gt;audit_revision:e</title>
<path fill="none" stroke="#000000" d="M285.773,-602.7995C252.4876,-610.2691 236.5667,-623.4448 215,-655.0967 178.1035,-709.2467 239.5254,-947.0967 174,-940.0967"/>
<polygon fill="#000000" stroke="#000000" points="292.1406,-601.5898 300.6719,-603.6334 296.0703,-600.8432 300,-600.0967 300,-600.0967 300,-600.0967 296.0703,-600.8432 299.3281,-596.5599 292.1406,-601.5898 292.1406,-601.5898"/>
<ellipse fill="none" stroke="#000000" cx="288.9968" cy="-602.1871" rx="3.2" ry="3.2"/>
</g>
<!-- decision_and_actions -->
<g id="node11" class="node">
<title>decision_and_actions</title>
<g id="a_node11"><a xlink:href="../../tables/decision_and_actions.html" xlink:title="decision_and_actions" target="_top">
<polygon fill="#ffffff" stroke="transparent" points="985,-97.5967 985,-158.5967 1166,-158.5967 1166,-97.5967 985,-97.5967"/>
<polygon fill="#f5f5f5" stroke="transparent" points="985.5,-135.0967 985.5,-158.0967 1166.5,-158.0967 1166.5,-135.0967 985.5,-135.0967"/>
<polygon fill="none" stroke="#000000" points="985.5,-135.0967 985.5,-158.0967 1166.5,-158.0967 1166.5,-135.0967 985.5,-135.0967"/>
<text text-anchor="start" x="990.5" y="-143.6967" font-family="Helvetica,sans-Serif" font-weight="bold" font-size="11.00" fill="#000000">decision_and_actions</text>
<text text-anchor="start" x="1132.0219" y="-143.1967" font-family="Helvetica,sans-Serif" font-size="11.00" fill="#000000">[table]</text>
<polygon fill="none" stroke="#000000" points="985.5,-116.0967 985.5,-135.0967 1166.5,-135.0967 1166.5,-116.0967 985.5,-116.0967"/>
<text text-anchor="start" x="988.5" y="-122.1967" font-family="Helvetica,sans-Serif" font-size="11.00" fill="#000000">...</text>
<polygon fill="#ffffff" stroke="transparent" points="985.5,-97.0967 985.5,-116.0967 1074.5,-116.0967 1074.5,-97.0967 985.5,-97.0967"/>
<polygon fill="none" stroke="#000000" points="985.5,-97.0967 985.5,-116.0967 1074.5,-116.0967 1074.5,-97.0967 985.5,-97.0967"/>
<text text-anchor="start" x="988.5" y="-103.1967" font-family="Helvetica,sans-Serif" font-size="11.00" fill="#000000">&lt; 3</text>
<polygon fill="#ffffff" stroke="transparent" points="1074.5,-97.0967 1074.5,-116.0967 1120.5,-116.0967 1120.5,-97.0967 1074.5,-97.0967"/>
<polygon fill="none" stroke="#000000" points="1074.5,-97.0967 1074.5,-116.0967 1120.5,-116.0967 1120.5,-97.0967 1074.5,-97.0967"/>
<text text-anchor="start" x="1111.3862" y="-103.1967" font-family="Helvetica,sans-Serif" font-size="11.00" fill="#000000"> &#160;</text>
<polygon fill="#ffffff" stroke="transparent" points="1120.5,-97.0967 1120.5,-116.0967 1166.5,-116.0967 1166.5,-97.0967 1120.5,-97.0967"/>
<polygon fill="none" stroke="#000000" points="1120.5,-97.0967 1120.5,-116.0967 1166.5,-116.0967 1166.5,-97.0967 1120.5,-97.0967"/>
<text text-anchor="start" x="1157.3862" y="-103.1967" font-family="Helvetica,sans-Serif" font-size="11.00" fill="#000000"> &#160;</text>
</a>
</g>
</g>
<!-- decision_and_actions&#45;&gt;reference_data -->
<g id="edge18" class="edge">
<title>decision_and_actions:w&#45;&gt;reference_data:e</title>
<path fill="none" stroke="#000000" d="M970.8619,-124.9665C790.4053,-121.9256 369.5996,-67.166 215,-129.0967 184.3555,-141.3724 194.0118,-180.0967 161,-180.0967"/>
<polygon fill="#000000" stroke="#000000" points="977.5003,-125.0255 985.468,-128.6965 981.5002,-125.0611 985.5,-125.0967 985.5,-125.0967 985.5,-125.0967 981.5002,-125.0611 985.532,-121.4968 977.5003,-125.0255 977.5003,-125.0255"/>
<ellipse fill="none" stroke="#000000" cx="974.3004" cy="-124.997" rx="3.2" ry="3.2"/>
</g>
<!-- decision_and_actions&#45;&gt;reference_data -->
<g id="edge19" class="edge">
<title>decision_and_actions:w&#45;&gt;reference_data:e</title>
<path fill="none" stroke="#000000" d="M970.8637,-124.9814C790.4566,-122.2883 370.6565,-73.8537 215,-133.0967 185.2636,-144.4144 192.8174,-180.0967 161,-180.0967"/>
<polygon fill="#000000" stroke="#000000" points="977.5002,-125.0336 985.4716,-128.6965 981.5001,-125.0651 985.5,-125.0967 985.5,-125.0967 985.5,-125.0967 981.5001,-125.0651 985.5284,-121.4968 977.5002,-125.0336 977.5002,-125.0336"/>
<ellipse fill="none" stroke="#000000" cx="974.3003" cy="-125.0084" rx="3.2" ry="3.2"/>
</g>
<!-- decision_and_actions&#45;&gt;referral -->
<g id="edge17" class="edge">
<title>decision_and_actions:w&#45;&gt;referral:e</title>
<path fill="none" stroke="#000000" d="M974.9182,-125.5325C930.8201,-129.3511 919.1039,-157.9523 892,-199.0967 854.0123,-256.7628 920.5539,-349.0967 851.5,-349.0967"/>
<polygon fill="#000000" stroke="#000000" points="984.536,-121.133 984.8653,-129.1262 983.2667,-129.1921 982.9374,-121.1988 984.536,-121.133"/>
<polyline fill="none" stroke="#000000" points="985.5,-125.0967 981.5034,-125.2613 "/>
<ellipse fill="none" stroke="#000000" cx="978.3061" cy="-125.393" rx="3.2" ry="3.2"/>
</g>
<!-- decision_and_actions_audit -->
<g id="node12" class="node">
<title>decision_and_actions_audit</title>
<g id="a_node12"><a xlink:href="../../tables/decision_and_actions_audit.html" xlink:title="decision_and_actions_audit" target="_top">
<polygon fill="#ffffff" stroke="transparent" points="267,-490.5967 267,-551.5967 489,-551.5967 489,-490.5967 267,-490.5967"/>
<polygon fill="#f5f5f5" stroke="transparent" points="267,-528.0967 267,-551.0967 489,-551.0967 489,-528.0967 267,-528.0967"/>
<polygon fill="none" stroke="#000000" points="267,-528.0967 267,-551.0967 489,-551.0967 489,-528.0967 267,-528.0967"/>
<text text-anchor="start" x="272" y="-536.6967" font-family="Helvetica,sans-Serif" font-weight="bold" font-size="11.00" fill="#000000">decision_and_actions_audit</text>
<text text-anchor="start" x="454.5219" y="-536.1967" font-family="Helvetica,sans-Serif" font-size="11.00" fill="#000000">[table]</text>
<polygon fill="none" stroke="#000000" points="267,-509.0967 267,-528.0967 489,-528.0967 489,-509.0967 267,-509.0967"/>
<text text-anchor="start" x="270" y="-515.1967" font-family="Helvetica,sans-Serif" font-size="11.00" fill="#000000">...</text>
<polygon fill="#ffffff" stroke="transparent" points="267,-490.0967 267,-509.0967 376,-509.0967 376,-490.0967 267,-490.0967"/>
<polygon fill="none" stroke="#000000" points="267,-490.0967 267,-509.0967 376,-509.0967 376,-490.0967 267,-490.0967"/>
<text text-anchor="start" x="270" y="-496.1967" font-family="Helvetica,sans-Serif" font-size="11.00" fill="#000000">&lt; 3</text>
<polygon fill="#ffffff" stroke="transparent" points="376,-490.0967 376,-509.0967 432,-509.0967 432,-490.0967 376,-490.0967"/>
<polygon fill="none" stroke="#000000" points="376,-490.0967 376,-509.0967 432,-509.0967 432,-490.0967 376,-490.0967"/>
<text text-anchor="start" x="422.8862" y="-496.1967" font-family="Helvetica,sans-Serif" font-size="11.00" fill="#000000"> &#160;</text>
<polygon fill="#ffffff" stroke="transparent" points="432,-490.0967 432,-509.0967 489,-509.0967 489,-490.0967 432,-490.0967"/>
<polygon fill="none" stroke="#000000" points="432,-490.0967 432,-509.0967 489,-509.0967 489,-490.0967 432,-490.0967"/>
<text text-anchor="start" x="479.8862" y="-496.1967" font-family="Helvetica,sans-Serif" font-size="11.00" fill="#000000"> &#160;</text>
</a>
</g>
</g>
<!-- decision_and_actions_audit&#45;&gt;audit_revision -->
<g id="edge20" class="edge">
<title>decision_and_actions_audit:w&#45;&gt;audit_revision:e</title>
<path fill="none" stroke="#000000" stroke-dasharray="5,2" d="M252.9841,-513.9336C233.8743,-511.4586 226.7058,-527.06 215,-549.0967 175.363,-623.7152 258.4927,-927.0967 174,-940.0967"/>
<polygon fill="#000000" stroke="#000000" points="259.3311,-515.8188 265.975,-521.5476 263.1656,-516.9577 267,-518.0967 267,-518.0967 267,-518.0967 263.1656,-516.9577 268.025,-514.6457 259.3311,-515.8188 259.3311,-515.8188"/>
<ellipse fill="none" stroke="#000000" cx="256.2636" cy="-514.9076" rx="3.2" ry="3.2"/>
</g>
<!-- decision_and_actions_audit&#45;&gt;audit_revision -->
<g id="edge21" class="edge">
<title>decision_and_actions_audit:w&#45;&gt;audit_revision:e</title>
<path fill="none" stroke="#000000" d="M252.4439,-519.7941C233.738,-524.7549 226.5948,-540.2688 215,-562.0967 175.363,-636.7152 258.4927,-940.0967 174,-940.0967"/>
<polygon fill="#000000" stroke="#000000" points="259.0538,-519.0233 267.417,-521.6724 263.0269,-518.56 267,-518.0967 267,-518.0967 267,-518.0967 263.0269,-518.56 266.583,-514.5209 259.0538,-519.0233 259.0538,-519.0233"/>
<ellipse fill="none" stroke="#000000" cx="255.8754" cy="-519.394" rx="3.2" ry="3.2"/>
</g>
<!-- decision_and_actions_audit&#45;&gt;audit_revision -->
<g id="edge22" class="edge">
<title>decision_and_actions_audit:w&#45;&gt;audit_revision:e</title>
<path fill="none" stroke="#000000" stroke-dasharray="5,2" d="M254.0839,-524.6922C234.1444,-536.8694 226.9277,-552.6422 215,-575.0967 175.363,-649.7152 258.4927,-953.0967 174,-940.0967"/>
<polygon fill="#000000" stroke="#000000" points="259.8752,-521.7349 268.6372,-521.3028 263.4376,-519.9158 267,-518.0967 267,-518.0967 267,-518.0967 263.4376,-519.9158 265.3628,-514.8905 259.8752,-521.7349 259.8752,-521.7349"/>
<ellipse fill="none" stroke="#000000" cx="257.0252" cy="-523.1903" rx="3.2" ry="3.2"/>
</g>
<!-- identified_need -->
<g id="node13" class="node">
<title>identified_need</title>
<g id="a_node13"><a xlink:href="../../tables/identified_need.html" xlink:title="identified_need" target="_top">
<polygon fill="#ffffff" stroke="transparent" points="306.5,-408.5967 306.5,-469.5967 449.5,-469.5967 449.5,-408.5967 306.5,-408.5967"/>
<polygon fill="#f5f5f5" stroke="transparent" points="307,-446.0967 307,-469.0967 450,-469.0967 450,-446.0967 307,-446.0967"/>
<polygon fill="none" stroke="#000000" points="307,-446.0967 307,-469.0967 450,-469.0967 450,-446.0967 307,-446.0967"/>
<text text-anchor="start" x="312" y="-454.6967" font-family="Helvetica,sans-Serif" font-weight="bold" font-size="11.00" fill="#000000">identified_need</text>
<text text-anchor="start" x="415.5219" y="-454.1967" font-family="Helvetica,sans-Serif" font-size="11.00" fill="#000000">[table]</text>
<polygon fill="none" stroke="#000000" points="307,-427.0967 307,-446.0967 450,-446.0967 450,-427.0967 307,-427.0967"/>
<text text-anchor="start" x="310" y="-433.1967" font-family="Helvetica,sans-Serif" font-size="11.00" fill="#000000">...</text>
<polygon fill="#ffffff" stroke="transparent" points="307,-408.0967 307,-427.0967 377,-427.0967 377,-408.0967 307,-408.0967"/>
<polygon fill="none" stroke="#000000" points="307,-408.0967 307,-427.0967 377,-427.0967 377,-408.0967 307,-408.0967"/>
<text text-anchor="start" x="310" y="-414.1967" font-family="Helvetica,sans-Serif" font-size="11.00" fill="#000000">&lt; 2</text>
<polygon fill="#ffffff" stroke="transparent" points="377,-408.0967 377,-427.0967 413,-427.0967 413,-408.0967 377,-408.0967"/>
<polygon fill="none" stroke="#000000" points="377,-408.0967 377,-427.0967 413,-427.0967 413,-408.0967 377,-408.0967"/>
<text text-anchor="start" x="403.8862" y="-414.1967" font-family="Helvetica,sans-Serif" font-size="11.00" fill="#000000"> &#160;</text>
<polygon fill="#ffffff" stroke="transparent" points="413,-408.0967 413,-427.0967 450,-427.0967 450,-408.0967 413,-408.0967"/>
<polygon fill="none" stroke="#000000" points="413,-408.0967 413,-427.0967 450,-427.0967 450,-408.0967 413,-408.0967"/>
<text text-anchor="start" x="440.8862" y="-414.1967" font-family="Helvetica,sans-Serif" font-size="11.00" fill="#000000"> &#160;</text>
</a>
</g>
</g>
<!-- identified_need&#45;&gt;audit_revision -->
<g id="edge23" class="edge">
<title>identified_need:w&#45;&gt;audit_revision:e</title>
<path fill="none" stroke="#000000" stroke-dasharray="5,2" d="M296.3241,-436.2463C258.2243,-437.4118 238.7256,-445.9176 215,-480.0967 185.7391,-522.2499 225.3137,-940.0967 174,-940.0967"/>
<polygon fill="#000000" stroke="#000000" points="306.144,-432.1083 306.2562,-440.1075 304.6564,-440.1299 304.5441,-432.1307 306.144,-432.1083"/>
<polyline fill="none" stroke="#000000" points="307,-436.0967 303.0004,-436.1528 "/>
<ellipse fill="none" stroke="#000000" cx="299.8007" cy="-436.1977" rx="3.2" ry="3.2"/>
</g>
<!-- identified_need_audit -->
<g id="node14" class="node">
<title>identified_need_audit</title>
<g id="a_node14"><a xlink:href="../../tables/identified_need_audit.html" xlink:title="identified_need_audit" target="_top">
<polygon fill="#ffffff" stroke="transparent" points="286,-1456.5967 286,-1517.5967 470,-1517.5967 470,-1456.5967 286,-1456.5967"/>
<polygon fill="#f5f5f5" stroke="transparent" points="286,-1494.0967 286,-1517.0967 470,-1517.0967 470,-1494.0967 286,-1494.0967"/>
<polygon fill="none" stroke="#000000" points="286,-1494.0967 286,-1517.0967 470,-1517.0967 470,-1494.0967 286,-1494.0967"/>
<text text-anchor="start" x="291" y="-1502.6967" font-family="Helvetica,sans-Serif" font-weight="bold" font-size="11.00" fill="#000000">identified_need_audit</text>
<text text-anchor="start" x="435.5219" y="-1502.1967" font-family="Helvetica,sans-Serif" font-size="11.00" fill="#000000">[table]</text>
<polygon fill="none" stroke="#000000" points="286,-1475.0967 286,-1494.0967 470,-1494.0967 470,-1475.0967 286,-1475.0967"/>
<text text-anchor="start" x="289" y="-1481.1967" font-family="Helvetica,sans-Serif" font-size="11.00" fill="#000000">...</text>
<polygon fill="#ffffff" stroke="transparent" points="286,-1456.0967 286,-1475.0967 376,-1475.0967 376,-1456.0967 286,-1456.0967"/>
<polygon fill="none" stroke="#000000" points="286,-1456.0967 286,-1475.0967 376,-1475.0967 376,-1456.0967 286,-1456.0967"/>
<text text-anchor="start" x="289" y="-1462.1967" font-family="Helvetica,sans-Serif" font-size="11.00" fill="#000000">&lt; 3</text>
<polygon fill="#ffffff" stroke="transparent" points="376,-1456.0967 376,-1475.0967 423,-1475.0967 423,-1456.0967 376,-1456.0967"/>
<polygon fill="none" stroke="#000000" points="376,-1456.0967 376,-1475.0967 423,-1475.0967 423,-1456.0967 376,-1456.0967"/>
<text text-anchor="start" x="413.8862" y="-1462.1967" font-family="Helvetica,sans-Serif" font-size="11.00" fill="#000000"> &#160;</text>
<polygon fill="#ffffff" stroke="transparent" points="423,-1456.0967 423,-1475.0967 470,-1475.0967 470,-1456.0967 423,-1456.0967"/>
<polygon fill="none" stroke="#000000" points="423,-1456.0967 423,-1475.0967 470,-1475.0967 470,-1456.0967 423,-1456.0967"/>
<text text-anchor="start" x="460.8862" y="-1462.1967" font-family="Helvetica,sans-Serif" font-size="11.00" fill="#000000"> &#160;</text>
</a>
</g>
</g>
<!-- identified_need_audit&#45;&gt;audit_revision -->
<g id="edge24" class="edge">
<title>identified_need_audit:w&#45;&gt;audit_revision:e</title>
<path fill="none" stroke="#000000" stroke-dasharray="5,2" d="M271.7511,-1481.2312C245.0585,-1474.6271 231.7111,-1462.8074 215,-1436.0967 185.3179,-1388.6532 229.9635,-934.0967 174,-940.0967"/>
<polygon fill="#000000" stroke="#000000" points="278.157,-1482.5194 285.2902,-1487.626 282.0785,-1483.308 286,-1484.0967 286,-1484.0967 286,-1484.0967 282.0785,-1483.308 286.7098,-1480.5673 278.157,-1482.5194 278.157,-1482.5194"/>
<ellipse fill="none" stroke="#000000" cx="275.0198" cy="-1481.8885" rx="3.2" ry="3.2"/>
</g>
<!-- identified_need_audit&#45;&gt;audit_revision -->
<g id="edge25" class="edge">
<title>identified_need_audit:w&#45;&gt;audit_revision:e</title>
<path fill="none" stroke="#000000" d="M271.388,-1486.0021C244.9371,-1487.5194 231.6351,-1475.686 215,-1449.0967 185.3179,-1401.6532 229.9635,-947.0967 174,-940.0967"/>
<polygon fill="#000000" stroke="#000000" points="278.0672,-1485.1312 286.4655,-1487.6664 282.0336,-1484.6139 286,-1484.0967 286,-1484.0967 286,-1484.0967 282.0336,-1484.6139 285.5345,-1480.5269 278.0672,-1485.1312 278.0672,-1485.1312"/>
<ellipse fill="none" stroke="#000000" cx="274.894" cy="-1485.545" rx="3.2" ry="3.2"/>
</g>
<!-- interview -->
<g id="node15" class="node">
<title>interview</title>
<g id="a_node15"><a xlink:href="../../tables/interview.html" xlink:title="interview" target="_top">
<polygon fill="#ffffff" stroke="transparent" points="1320.5,-407.5967 1320.5,-468.5967 1422.5,-468.5967 1422.5,-407.5967 1320.5,-407.5967"/>
<polygon fill="#f5f5f5" stroke="transparent" points="1320.5,-445.0967 1320.5,-468.0967 1422.5,-468.0967 1422.5,-445.0967 1320.5,-445.0967"/>
<polygon fill="none" stroke="#000000" points="1320.5,-445.0967 1320.5,-468.0967 1422.5,-468.0967 1422.5,-445.0967 1320.5,-445.0967"/>
<text text-anchor="start" x="1325.5" y="-453.6967" font-family="Helvetica,sans-Serif" font-weight="bold" font-size="11.00" fill="#000000">interview</text>
<text text-anchor="start" x="1388.0219" y="-453.1967" font-family="Helvetica,sans-Serif" font-size="11.00" fill="#000000">[table]</text>
<polygon fill="none" stroke="#000000" points="1320.5,-426.0967 1320.5,-445.0967 1422.5,-445.0967 1422.5,-426.0967 1320.5,-426.0967"/>
<text text-anchor="start" x="1323.5" y="-432.1967" font-family="Helvetica,sans-Serif" font-size="11.00" fill="#000000">...</text>
<polygon fill="#ffffff" stroke="transparent" points="1320.5,-407.0967 1320.5,-426.0967 1369.5,-426.0967 1369.5,-407.0967 1320.5,-407.0967"/>
<polygon fill="none" stroke="#000000" points="1320.5,-407.0967 1320.5,-426.0967 1369.5,-426.0967 1369.5,-407.0967 1320.5,-407.0967"/>
<text text-anchor="start" x="1323.5" y="-413.1967" font-family="Helvetica,sans-Serif" font-size="11.00" fill="#000000">&lt; 3</text>
<polygon fill="#ffffff" stroke="transparent" points="1369.5,-407.0967 1369.5,-426.0967 1395.5,-426.0967 1395.5,-407.0967 1369.5,-407.0967"/>
<polygon fill="none" stroke="#000000" points="1369.5,-407.0967 1369.5,-426.0967 1395.5,-426.0967 1395.5,-407.0967 1369.5,-407.0967"/>
<text text-anchor="start" x="1386.3862" y="-413.1967" font-family="Helvetica,sans-Serif" font-size="11.00" fill="#000000"> &#160;</text>
<polygon fill="#ffffff" stroke="transparent" points="1395.5,-407.0967 1395.5,-426.0967 1422.5,-426.0967 1422.5,-407.0967 1395.5,-407.0967"/>
<polygon fill="none" stroke="#000000" points="1395.5,-407.0967 1395.5,-426.0967 1422.5,-426.0967 1422.5,-407.0967 1395.5,-407.0967"/>
<text text-anchor="start" x="1413.3862" y="-413.1967" font-family="Helvetica,sans-Serif" font-size="11.00" fill="#000000"> &#160;</text>
</a>
</g>
</g>
<!-- interview&#45;&gt;audit_revision -->
<g id="edge28" class="edge">
<title>interview:w&#45;&gt;audit_revision:e</title>
<path fill="none" stroke="#000000" stroke-dasharray="5,2" d="M1309.9125,-435.0876C971.8759,-434.5087 884.1816,-406.2369 541,-398.0967 468.5759,-396.3788 268.1228,-348.8406 215,-398.0967 170.7134,-439.1597 234.3943,-940.0967 174,-940.0967"/>
<polygon fill="#000000" stroke="#000000" points="1319.7034,-431.096 1319.6966,-439.096 1318.0966,-439.0946 1318.1034,-431.0946 1319.7034,-431.096"/>
<polyline fill="none" stroke="#000000" points="1320.5,-435.0967 1316.5,-435.0932 "/>
<ellipse fill="none" stroke="#000000" cx="1313.3" cy="-435.0904" rx="3.2" ry="3.2"/>
</g>
<!-- interview&#45;&gt;reference_data -->
<g id="edge26" class="edge">
<title>interview:w&#45;&gt;reference_data:e</title>
<path fill="none" stroke="#000000" d="M1306.0626,-434.2939C1177.4031,-418.8511 1375.3414,-184.6805 1259,-87.0967 1134.0295,17.7251 1055.1024,-85.4104 892,-87.0967 591.0629,-90.2079 479.6952,42.1141 215,-101.0967 177.594,-121.3348 203.5299,-180.0967 161,-180.0967"/>
<polygon fill="#000000" stroke="#000000" points="1312.5123,-434.6525 1320.3001,-438.6911 1316.5062,-434.8746 1320.5,-435.0967 1320.5,-435.0967 1320.5,-435.0967 1316.5062,-434.8746 1320.6999,-431.5022 1312.5123,-434.6525 1312.5123,-434.6525"/>
<ellipse fill="none" stroke="#000000" cx="1309.3173" cy="-434.4748" rx="3.2" ry="3.2"/>
</g>
<!-- investigation -->
<g id="node16" class="node">
<title>investigation</title>
<g id="a_node16"><a xlink:href="../../tables/investigation.html" xlink:title="investigation" target="_top">
<polygon fill="#ffffff" stroke="transparent" points="1012,-459.5967 1012,-520.5967 1139,-520.5967 1139,-459.5967 1012,-459.5967"/>
<polygon fill="#f5f5f5" stroke="transparent" points="1012.5,-497.0967 1012.5,-520.0967 1139.5,-520.0967 1139.5,-497.0967 1012.5,-497.0967"/>
<polygon fill="none" stroke="#000000" points="1012.5,-497.0967 1012.5,-520.0967 1139.5,-520.0967 1139.5,-497.0967 1012.5,-497.0967"/>
<text text-anchor="start" x="1017.5" y="-505.6967" font-family="Helvetica,sans-Serif" font-weight="bold" font-size="11.00" fill="#000000">investigation</text>
<text text-anchor="start" x="1105.0219" y="-505.1967" font-family="Helvetica,sans-Serif" font-size="11.00" fill="#000000">[table]</text>
<polygon fill="none" stroke="#000000" points="1012.5,-478.0967 1012.5,-497.0967 1139.5,-497.0967 1139.5,-478.0967 1012.5,-478.0967"/>
<text text-anchor="start" x="1015.5" y="-484.1967" font-family="Helvetica,sans-Serif" font-size="11.00" fill="#000000">...</text>
<polygon fill="#ffffff" stroke="transparent" points="1012.5,-459.0967 1012.5,-478.0967 1069.5,-478.0967 1069.5,-459.0967 1012.5,-459.0967"/>
<polygon fill="none" stroke="#000000" points="1012.5,-459.0967 1012.5,-478.0967 1069.5,-478.0967 1069.5,-459.0967 1012.5,-459.0967"/>
<text text-anchor="start" x="1015.5" y="-465.1967" font-family="Helvetica,sans-Serif" font-size="11.00" fill="#000000">&lt; 1</text>
<polygon fill="#ffffff" stroke="transparent" points="1069.5,-459.0967 1069.5,-478.0967 1099.5,-478.0967 1099.5,-459.0967 1069.5,-459.0967"/>
<polygon fill="none" stroke="#000000" points="1069.5,-459.0967 1069.5,-478.0967 1099.5,-478.0967 1099.5,-459.0967 1069.5,-459.0967"/>
<text text-anchor="start" x="1090.3862" y="-465.1967" font-family="Helvetica,sans-Serif" font-size="11.00" fill="#000000"> &#160;</text>
<polygon fill="#ffffff" stroke="transparent" points="1099.5,-459.0967 1099.5,-478.0967 1139.5,-478.0967 1139.5,-459.0967 1099.5,-459.0967"/>
<polygon fill="none" stroke="#000000" points="1099.5,-459.0967 1099.5,-478.0967 1139.5,-478.0967 1139.5,-459.0967 1099.5,-459.0967"/>
<text text-anchor="start" x="1120.9053" y="-465.1967" font-family="Helvetica,sans-Serif" font-size="11.00" fill="#000000">2 &gt;</text>
</a>
</g>
</g>
<!-- interview&#45;&gt;investigation -->
<g id="edge27" class="edge">
<title>interview:w&#45;&gt;investigation:e</title>
<path fill="none" stroke="#000000" d="M1306.0367,-435.6455C1234.8973,-441.2029 1218.1308,-487.0967 1139.5,-487.0967"/>
<polygon fill="#000000" stroke="#000000" points="1312.5058,-435.4 1320.6365,-438.6941 1316.5029,-435.2483 1320.5,-435.0967 1320.5,-435.0967 1320.5,-435.0967 1316.5029,-435.2483 1320.3635,-431.4992 1312.5058,-435.4 1312.5058,-435.4"/>
<ellipse fill="none" stroke="#000000" cx="1309.3081" cy="-435.5214" rx="3.2" ry="3.2"/>
</g>
<!-- investigation&#45;&gt;referral -->
<g id="edge33" class="edge">
<title>investigation:w&#45;&gt;referral:e</title>
<path fill="none" stroke="#000000" d="M1001.9237,-486.6744C944.1475,-481.8559 939.2149,-436.6112 892,-393.0967 872.4559,-375.0842 878.0786,-349.0967 851.5,-349.0967"/>
<polygon fill="#000000" stroke="#000000" points="1011.8602,-483.0679 1011.541,-491.0616 1009.9423,-490.9977 1010.2615,-483.0041 1011.8602,-483.0679"/>
<polyline fill="none" stroke="#000000" points="1012.5,-487.0967 1008.5032,-486.9371 "/>
<ellipse fill="none" stroke="#000000" cx="1005.3057" cy="-486.8094" rx="3.2" ry="3.2"/>
</g>
<!-- interview_audit -->
<g id="node17" class="node">
<title>interview_audit</title>
<g id="a_node17"><a xlink:href="../../tables/interview_audit.html" xlink:title="interview_audit" target="_top">
<polygon fill="#ffffff" stroke="transparent" points="1300,-1392.5967 1300,-1453.5967 1443,-1453.5967 1443,-1392.5967 1300,-1392.5967"/>
<polygon fill="#f5f5f5" stroke="transparent" points="1300.5,-1430.0967 1300.5,-1453.0967 1443.5,-1453.0967 1443.5,-1430.0967 1300.5,-1430.0967"/>
<polygon fill="none" stroke="#000000" points="1300.5,-1430.0967 1300.5,-1453.0967 1443.5,-1453.0967 1443.5,-1430.0967 1300.5,-1430.0967"/>
<text text-anchor="start" x="1305.5" y="-1438.6967" font-family="Helvetica,sans-Serif" font-weight="bold" font-size="11.00" fill="#000000">interview_audit</text>
<text text-anchor="start" x="1409.0219" y="-1438.1967" font-family="Helvetica,sans-Serif" font-size="11.00" fill="#000000">[table]</text>
<polygon fill="none" stroke="#000000" points="1300.5,-1411.0967 1300.5,-1430.0967 1443.5,-1430.0967 1443.5,-1411.0967 1300.5,-1411.0967"/>
<text text-anchor="start" x="1303.5" y="-1417.1967" font-family="Helvetica,sans-Serif" font-size="11.00" fill="#000000">...</text>
<polygon fill="#ffffff" stroke="transparent" points="1300.5,-1392.0967 1300.5,-1411.0967 1370.5,-1411.0967 1370.5,-1392.0967 1300.5,-1392.0967"/>
<polygon fill="none" stroke="#000000" points="1300.5,-1392.0967 1300.5,-1411.0967 1370.5,-1411.0967 1370.5,-1392.0967 1300.5,-1392.0967"/>
<text text-anchor="start" x="1303.5" y="-1398.1967" font-family="Helvetica,sans-Serif" font-size="11.00" fill="#000000">&lt; 4</text>
<polygon fill="#ffffff" stroke="transparent" points="1370.5,-1392.0967 1370.5,-1411.0967 1406.5,-1411.0967 1406.5,-1392.0967 1370.5,-1392.0967"/>
<polygon fill="none" stroke="#000000" points="1370.5,-1392.0967 1370.5,-1411.0967 1406.5,-1411.0967 1406.5,-1392.0967 1370.5,-1392.0967"/>
<text text-anchor="start" x="1397.3862" y="-1398.1967" font-family="Helvetica,sans-Serif" font-size="11.00" fill="#000000"> &#160;</text>
<polygon fill="#ffffff" stroke="transparent" points="1406.5,-1392.0967 1406.5,-1411.0967 1443.5,-1411.0967 1443.5,-1392.0967 1406.5,-1392.0967"/>
<polygon fill="none" stroke="#000000" points="1406.5,-1392.0967 1406.5,-1411.0967 1443.5,-1411.0967 1443.5,-1392.0967 1406.5,-1392.0967"/>
<text text-anchor="start" x="1434.3862" y="-1398.1967" font-family="Helvetica,sans-Serif" font-size="11.00" fill="#000000"> &#160;</text>
</a>
</g>
</g>
<!-- interview_audit&#45;&gt;audit_revision -->
<g id="edge29" class="edge">
<title>interview_audit:w&#45;&gt;audit_revision:e</title>
<path fill="none" stroke="#000000" stroke-dasharray="5,2" d="M1286.0383,-1420.2762C1122.5007,-1423.6917 300.1578,-1473.8024 215,-1394.0967 141.0421,-1324.8738 275.2995,-940.0967 174,-940.0967"/>
<polygon fill="#000000" stroke="#000000" points="1292.5006,-1420.196 1300.5447,-1423.6964 1296.5003,-1420.1463 1300.5,-1420.0967 1300.5,-1420.0967 1300.5,-1420.0967 1296.5003,-1420.1463 1300.4553,-1416.4969 1292.5006,-1420.196 1292.5006,-1420.196"/>
<ellipse fill="none" stroke="#000000" cx="1289.3009" cy="-1420.2358" rx="3.2" ry="3.2"/>
</g>
<!-- interview_audit&#45;&gt;audit_revision -->
<g id="edge31" class="edge">
<title>interview_audit:w&#45;&gt;audit_revision:e</title>
<path fill="none" stroke="#000000" stroke-dasharray="5,2" d="M1286.0369,-1419.6856C1122.4828,-1417.4392 300.0508,-1463.9328 215,-1384.0967 141.7875,-1315.373 274.4142,-934.0967 174,-940.0967"/>
<polygon fill="#000000" stroke="#000000" points="1292.5032,-1419.8693 1300.3977,-1423.6952 1296.5016,-1419.983 1300.5,-1420.0967 1300.5,-1420.0967 1300.5,-1420.0967 1296.5016,-1419.983 1300.6023,-1416.4981 1292.5032,-1419.8693 1292.5032,-1419.8693"/>
<ellipse fill="none" stroke="#000000" cx="1289.3045" cy="-1419.7784" rx="3.2" ry="3.2"/>
</g>
<!-- interview_audit&#45;&gt;audit_revision -->
<g id="edge32" class="edge">
<title>interview_audit:w&#45;&gt;audit_revision:e</title>
<path fill="none" stroke="#000000" d="M1286.0369,-1420.938C1122.4828,-1430.4392 300.0508,-1476.9328 215,-1397.0967 141.7875,-1328.373 274.4142,-947.0967 174,-940.0967"/>
<polygon fill="#000000" stroke="#000000" points="1292.5135,-1420.5613 1300.7091,-1423.6906 1296.5068,-1420.329 1300.5,-1420.0967 1300.5,-1420.0967 1300.5,-1420.0967 1296.5068,-1420.329 1300.2909,-1416.5027 1292.5135,-1420.5613 1292.5135,-1420.5613"/>
<ellipse fill="none" stroke="#000000" cx="1289.3189" cy="-1420.7472" rx="3.2" ry="3.2"/>
</g>
<!-- interview_audit&#45;&gt;investigation -->
<g id="edge30" class="edge">
<title>interview_audit:w&#45;&gt;investigation:e</title>
<path fill="none" stroke="#000000" stroke-dasharray="5,2" d="M1291.7527,-1408.6475C1258.4187,-1313.0694 1275.5114,-650.3883 1259,-612.0967 1228.5673,-541.52 1216.3584,-487.0967 1139.5,-487.0967"/>
<polygon fill="#000000" stroke="#000000" points="1295.6432,-1413.7396 1297.6393,-1422.2822 1298.0716,-1416.9182 1300.5,-1420.0967 1300.5,-1420.0967 1300.5,-1420.0967 1298.0716,-1416.9182 1303.3607,-1417.9111 1295.6432,-1413.7396 1295.6432,-1413.7396"/>
<ellipse fill="none" stroke="#000000" cx="1293.7004" cy="-1411.1968" rx="3.2" ry="3.2"/>
</g>
<!-- investigation_audit -->
<g id="node18" class="node">
<title>investigation_audit</title>
<g id="a_node18"><a xlink:href="../../tables/investigation_audit.html" xlink:title="investigation_audit" target="_top">
<polygon fill="#ffffff" stroke="transparent" points="293.5,-1322.5967 293.5,-1383.5967 462.5,-1383.5967 462.5,-1322.5967 293.5,-1322.5967"/>
<polygon fill="#f5f5f5" stroke="transparent" points="294,-1360.0967 294,-1383.0967 463,-1383.0967 463,-1360.0967 294,-1360.0967"/>
<polygon fill="none" stroke="#000000" points="294,-1360.0967 294,-1383.0967 463,-1383.0967 463,-1360.0967 294,-1360.0967"/>
<text text-anchor="start" x="299" y="-1368.6967" font-family="Helvetica,sans-Serif" font-weight="bold" font-size="11.00" fill="#000000">investigation_audit</text>
<text text-anchor="start" x="428.5219" y="-1368.1967" font-family="Helvetica,sans-Serif" font-size="11.00" fill="#000000">[table]</text>
<polygon fill="none" stroke="#000000" points="294,-1341.0967 294,-1360.0967 463,-1360.0967 463,-1341.0967 294,-1341.0967"/>
<text text-anchor="start" x="297" y="-1347.1967" font-family="Helvetica,sans-Serif" font-size="11.00" fill="#000000">...</text>
<polygon fill="#ffffff" stroke="transparent" points="294,-1322.0967 294,-1341.0967 377,-1341.0967 377,-1322.0967 294,-1322.0967"/>
<polygon fill="none" stroke="#000000" points="294,-1322.0967 294,-1341.0967 377,-1341.0967 377,-1322.0967 294,-1322.0967"/>
<text text-anchor="start" x="297" y="-1328.1967" font-family="Helvetica,sans-Serif" font-size="11.00" fill="#000000">&lt; 1</text>
<polygon fill="#ffffff" stroke="transparent" points="377,-1322.0967 377,-1341.0967 420,-1341.0967 420,-1322.0967 377,-1322.0967"/>
<polygon fill="none" stroke="#000000" points="377,-1322.0967 377,-1341.0967 420,-1341.0967 420,-1322.0967 377,-1322.0967"/>
<text text-anchor="start" x="410.8862" y="-1328.1967" font-family="Helvetica,sans-Serif" font-size="11.00" fill="#000000"> &#160;</text>
<polygon fill="#ffffff" stroke="transparent" points="420,-1322.0967 420,-1341.0967 463,-1341.0967 463,-1322.0967 420,-1322.0967"/>
<polygon fill="none" stroke="#000000" points="420,-1322.0967 420,-1341.0967 463,-1341.0967 463,-1322.0967 420,-1322.0967"/>
<text text-anchor="start" x="453.8862" y="-1328.1967" font-family="Helvetica,sans-Serif" font-size="11.00" fill="#000000"> &#160;</text>
</a>
</g>
</g>
<!-- investigation_audit&#45;&gt;audit_revision -->
<g id="edge34" class="edge">
<title>investigation_audit:w&#45;&gt;audit_revision:e</title>
<path fill="none" stroke="#000000" d="M279.5487,-1349.723C250.2955,-1347.9977 234.5245,-1339.6714 215,-1312.0967 166.9404,-1244.2213 257.1672,-940.0967 174,-940.0967"/>
<polygon fill="#000000" stroke="#000000" points="286.0027,-1349.8898 293.9069,-1353.6954 290.0013,-1349.9932 294,-1350.0967 294,-1350.0967 294,-1350.0967 290.0013,-1349.9932 294.0931,-1346.4979 286.0027,-1349.8898 286.0027,-1349.8898"/>
<ellipse fill="none" stroke="#000000" cx="282.8037" cy="-1349.8071" rx="3.2" ry="3.2"/>
</g>
<!-- person_summary_audit -->
<g id="node19" class="node">
<title>person_summary_audit</title>
<g id="a_node19"><a xlink:href="../../tables/person_summary_audit.html" xlink:title="person_summary_audit" target="_top">
<polygon fill="#ffffff" stroke="transparent" points="280.5,-1240.5967 280.5,-1301.5967 475.5,-1301.5967 475.5,-1240.5967 280.5,-1240.5967"/>
<polygon fill="#f5f5f5" stroke="transparent" points="281,-1278.0967 281,-1301.0967 476,-1301.0967 476,-1278.0967 281,-1278.0967"/>
<polygon fill="none" stroke="#000000" points="281,-1278.0967 281,-1301.0967 476,-1301.0967 476,-1278.0967 281,-1278.0967"/>
<text text-anchor="start" x="286" y="-1286.6967" font-family="Helvetica,sans-Serif" font-weight="bold" font-size="11.00" fill="#000000">person_summary_audit</text>
<text text-anchor="start" x="441.5219" y="-1286.1967" font-family="Helvetica,sans-Serif" font-size="11.00" fill="#000000">[table]</text>
<polygon fill="none" stroke="#000000" points="281,-1259.0967 281,-1278.0967 476,-1278.0967 476,-1259.0967 281,-1259.0967"/>
<text text-anchor="start" x="284" y="-1265.1967" font-family="Helvetica,sans-Serif" font-size="11.00" fill="#000000">...</text>
<polygon fill="#ffffff" stroke="transparent" points="281,-1240.0967 281,-1259.0967 377,-1259.0967 377,-1240.0967 281,-1240.0967"/>
<polygon fill="none" stroke="#000000" points="281,-1240.0967 281,-1259.0967 377,-1259.0967 377,-1240.0967 281,-1240.0967"/>
<text text-anchor="start" x="284" y="-1246.1967" font-family="Helvetica,sans-Serif" font-size="11.00" fill="#000000">&lt; 1</text>
<polygon fill="#ffffff" stroke="transparent" points="377,-1240.0967 377,-1259.0967 426,-1259.0967 426,-1240.0967 377,-1240.0967"/>
<polygon fill="none" stroke="#000000" points="377,-1240.0967 377,-1259.0967 426,-1259.0967 426,-1240.0967 377,-1240.0967"/>
<text text-anchor="start" x="416.8862" y="-1246.1967" font-family="Helvetica,sans-Serif" font-size="11.00" fill="#000000"> &#160;</text>
<polygon fill="#ffffff" stroke="transparent" points="426,-1240.0967 426,-1259.0967 476,-1259.0967 476,-1240.0967 426,-1240.0967"/>
<polygon fill="none" stroke="#000000" points="426,-1240.0967 426,-1259.0967 476,-1259.0967 476,-1240.0967 426,-1240.0967"/>
<text text-anchor="start" x="466.8862" y="-1246.1967" font-family="Helvetica,sans-Serif" font-size="11.00" fill="#000000"> &#160;</text>
</a>
</g>
</g>
<!-- person_summary_audit&#45;&gt;audit_revision -->
<g id="edge35" class="edge">
<title>person_summary_audit:w&#45;&gt;audit_revision:e</title>
<path fill="none" stroke="#000000" d="M266.5456,-1267.3363C242.8877,-1264.5433 230.9939,-1253.7571 215,-1230.0967 178.5503,-1176.1752 239.0853,-940.0967 174,-940.0967"/>
<polygon fill="#000000" stroke="#000000" points="273.011,-1267.6764 280.8109,-1271.6917 277.0055,-1267.8865 281,-1268.0967 281,-1268.0967 281,-1268.0967 277.0055,-1267.8865 281.1891,-1264.5016 273.011,-1267.6764 273.011,-1267.6764"/>
<ellipse fill="none" stroke="#000000" cx="269.8155" cy="-1267.5082" rx="3.2" ry="3.2"/>
</g>
<!-- plan_audit -->
<g id="node20" class="node">
<title>plan_audit</title>
<g id="a_node20"><a xlink:href="../../tables/plan_audit.html" xlink:title="plan_audit" target="_top">
<polygon fill="#ffffff" stroke="transparent" points="323.5,-1158.5967 323.5,-1219.5967 432.5,-1219.5967 432.5,-1158.5967 323.5,-1158.5967"/>
<polygon fill="#f5f5f5" stroke="transparent" points="324,-1196.0967 324,-1219.0967 433,-1219.0967 433,-1196.0967 324,-1196.0967"/>
<polygon fill="none" stroke="#000000" points="324,-1196.0967 324,-1219.0967 433,-1219.0967 433,-1196.0967 324,-1196.0967"/>
<text text-anchor="start" x="329" y="-1204.6967" font-family="Helvetica,sans-Serif" font-weight="bold" font-size="11.00" fill="#000000">plan_audit</text>
<text text-anchor="start" x="398.5219" y="-1204.1967" font-family="Helvetica,sans-Serif" font-size="11.00" fill="#000000">[table]</text>
<polygon fill="none" stroke="#000000" points="324,-1177.0967 324,-1196.0967 433,-1196.0967 433,-1177.0967 324,-1177.0967"/>
<text text-anchor="start" x="327" y="-1183.1967" font-family="Helvetica,sans-Serif" font-size="11.00" fill="#000000">...</text>
<polygon fill="#ffffff" stroke="transparent" points="324,-1158.0967 324,-1177.0967 377,-1177.0967 377,-1158.0967 324,-1158.0967"/>
<polygon fill="none" stroke="#000000" points="324,-1158.0967 324,-1177.0967 377,-1177.0967 377,-1158.0967 324,-1158.0967"/>
<text text-anchor="start" x="327" y="-1164.1967" font-family="Helvetica,sans-Serif" font-size="11.00" fill="#000000">&lt; 1</text>
<polygon fill="#ffffff" stroke="transparent" points="377,-1158.0967 377,-1177.0967 405,-1177.0967 405,-1158.0967 377,-1158.0967"/>
<polygon fill="none" stroke="#000000" points="377,-1158.0967 377,-1177.0967 405,-1177.0967 405,-1158.0967 377,-1158.0967"/>
<text text-anchor="start" x="395.8862" y="-1164.1967" font-family="Helvetica,sans-Serif" font-size="11.00" fill="#000000"> &#160;</text>
<polygon fill="#ffffff" stroke="transparent" points="405,-1158.0967 405,-1177.0967 433,-1177.0967 433,-1158.0967 405,-1158.0967"/>
<polygon fill="none" stroke="#000000" points="405,-1158.0967 405,-1177.0967 433,-1177.0967 433,-1158.0967 405,-1158.0967"/>
<text text-anchor="start" x="423.8862" y="-1164.1967" font-family="Helvetica,sans-Serif" font-size="11.00" fill="#000000"> &#160;</text>
</a>
</g>
</g>
<!-- plan_audit&#45;&gt;audit_revision -->
<g id="edge36" class="edge">
<title>plan_audit:w&#45;&gt;audit_revision:e</title>
<path fill="none" stroke="#000000" d="M309.4435,-1186.0789C267.8076,-1185.8523 245.2848,-1182.9776 215,-1148.0967 153.2267,-1076.9483 268.2233,-940.0967 174,-940.0967"/>
<polygon fill="#000000" stroke="#000000" points="316,-1186.0869 323.9956,-1189.6966 320,-1186.0918 324,-1186.0967 324,-1186.0967 324,-1186.0967 320,-1186.0918 324.0044,-1182.4967 316,-1186.0869 316,-1186.0869"/>
<ellipse fill="none" stroke="#000000" cx="312.8" cy="-1186.0829" rx="3.2" ry="3.2"/>
</g>
<!-- referral_audit -->
<g id="node21" class="node">
<title>referral_audit</title>
<g id="a_node21"><a xlink:href="../../tables/referral_audit.html" xlink:title="referral_audit" target="_top">
<polygon fill="#ffffff" stroke="transparent" points="312.5,-1076.5967 312.5,-1137.5967 443.5,-1137.5967 443.5,-1076.5967 312.5,-1076.5967"/>
<polygon fill="#f5f5f5" stroke="transparent" points="313,-1114.0967 313,-1137.0967 444,-1137.0967 444,-1114.0967 313,-1114.0967"/>
<polygon fill="none" stroke="#000000" points="313,-1114.0967 313,-1137.0967 444,-1137.0967 444,-1114.0967 313,-1114.0967"/>
<text text-anchor="start" x="318" y="-1122.6967" font-family="Helvetica,sans-Serif" font-weight="bold" font-size="11.00" fill="#000000">referral_audit</text>
<text text-anchor="start" x="409.5219" y="-1122.1967" font-family="Helvetica,sans-Serif" font-size="11.00" fill="#000000">[table]</text>
<polygon fill="none" stroke="#000000" points="313,-1095.0967 313,-1114.0967 444,-1114.0967 444,-1095.0967 313,-1095.0967"/>
<text text-anchor="start" x="316" y="-1101.1967" font-family="Helvetica,sans-Serif" font-size="11.00" fill="#000000">...</text>
<polygon fill="#ffffff" stroke="transparent" points="313,-1076.0967 313,-1095.0967 377,-1095.0967 377,-1076.0967 313,-1076.0967"/>
<polygon fill="none" stroke="#000000" points="313,-1076.0967 313,-1095.0967 377,-1095.0967 377,-1076.0967 313,-1076.0967"/>
<text text-anchor="start" x="316" y="-1082.1967" font-family="Helvetica,sans-Serif" font-size="11.00" fill="#000000">&lt; 5</text>
<polygon fill="#ffffff" stroke="transparent" points="377,-1076.0967 377,-1095.0967 410,-1095.0967 410,-1076.0967 377,-1076.0967"/>
<polygon fill="none" stroke="#000000" points="377,-1076.0967 377,-1095.0967 410,-1095.0967 410,-1076.0967 377,-1076.0967"/>
<text text-anchor="start" x="400.8862" y="-1082.1967" font-family="Helvetica,sans-Serif" font-size="11.00" fill="#000000"> &#160;</text>
<polygon fill="#ffffff" stroke="transparent" points="410,-1076.0967 410,-1095.0967 444,-1095.0967 444,-1076.0967 410,-1076.0967"/>
<polygon fill="none" stroke="#000000" points="410,-1076.0967 410,-1095.0967 444,-1095.0967 444,-1076.0967 410,-1076.0967"/>
<text text-anchor="start" x="434.8862" y="-1082.1967" font-family="Helvetica,sans-Serif" font-size="11.00" fill="#000000"> &#160;</text>
</a>
</g>
</g>
<!-- referral_audit&#45;&gt;audit_revision -->
<g id="edge42" class="edge">
<title>referral_audit:w&#45;&gt;audit_revision:e</title>
<path fill="none" stroke="#000000" stroke-dasharray="5,2" d="M300.064,-1097.0587C262.4157,-1077.0176 243.9712,-1070.7164 215,-1040.0967 174.5259,-997.3194 232.8901,-914.0967 174,-940.0967"/>
<polygon fill="#000000" stroke="#000000" points="305.9727,-1100.2734 311.2795,-1107.2589 309.4864,-1102.185 313,-1104.0967 313,-1104.0967 313,-1104.0967 309.4864,-1102.185 314.7205,-1100.9344 305.9727,-1100.2734 305.9727,-1100.2734"/>
<ellipse fill="none" stroke="#000000" cx="303.1618" cy="-1098.7441" rx="3.2" ry="3.2"/>
</g>
<!-- referral_audit&#45;&gt;audit_revision -->
<g id="edge43" class="edge">
<title>referral_audit:w&#45;&gt;audit_revision:e</title>
<path fill="none" stroke="#000000" stroke-dasharray="5,2" d="M299.0905,-1100.236C262.0955,-1089.9067 243.7204,-1083.4513 215,-1053.0967 174.5259,-1010.3194 232.8901,-927.0967 174,-940.0967"/>
<polygon fill="#000000" stroke="#000000" points="305.2914,-1101.957 312.0372,-1107.5655 309.1457,-1103.0268 313,-1104.0967 313,-1104.0967 313,-1104.0967 309.1457,-1103.0268 313.9628,-1100.6278 305.2914,-1101.957 305.2914,-1101.957"/>
<ellipse fill="none" stroke="#000000" cx="302.208" cy="-1101.1012" rx="3.2" ry="3.2"/>
</g>
<!-- referral_audit&#45;&gt;audit_revision -->
<g id="edge44" class="edge">
<title>referral_audit:w&#45;&gt;audit_revision:e</title>
<path fill="none" stroke="#000000" stroke-dasharray="5,2" d="M298.1254,-1103.9026C261.7737,-1102.7921 243.4695,-1096.1862 215,-1066.0967 174.5259,-1023.3194 232.8901,-940.0967 174,-940.0967"/>
<polygon fill="#000000" stroke="#000000" points="305.0007,-1103.9922 312.953,-1107.6963 309.0003,-1104.0444 313,-1104.0967 313,-1104.0967 313,-1104.0967 309.0003,-1104.0444 313.047,-1100.497 305.0007,-1103.9922 305.0007,-1103.9922"/>
<ellipse fill="none" stroke="#000000" cx="301.801" cy="-1103.9505" rx="3.2" ry="3.2"/>
</g>
<!-- referral_audit&#45;&gt;audit_revision -->
<g id="edge45" class="edge">
<title>referral_audit:w&#45;&gt;audit_revision:e</title>
<path fill="none" stroke="#000000" stroke-dasharray="5,2" d="M298.6069,-1107.733C261.9348,-1115.8498 243.5949,-1109.3187 215,-1079.0967 174.5259,-1036.3194 232.8901,-953.0967 174,-940.0967"/>
<polygon fill="#000000" stroke="#000000" points="305.2437,-1106.0563 313.8818,-1107.587 309.1219,-1105.0765 313,-1104.0967 313,-1104.0967 313,-1104.0967 309.1219,-1105.0765 312.1182,-1100.6063 305.2437,-1106.0563 305.2437,-1106.0563"/>
<ellipse fill="none" stroke="#000000" cx="302.1412" cy="-1106.8402" rx="3.2" ry="3.2"/>
</g>
<!-- referral_audit&#45;&gt;audit_revision -->
<g id="edge46" class="edge">
<title>referral_audit:w&#45;&gt;audit_revision:e</title>
<path fill="none" stroke="#000000" d="M300.064,-1110.8538C262.4157,-1129.0176 243.9712,-1122.7164 215,-1092.0967 174.5259,-1049.3194 232.8901,-966.0967 174,-940.0967"/>
<polygon fill="#000000" stroke="#000000" points="305.9091,-1107.8006 314.6668,-1107.2876 309.4546,-1105.9486 313,-1104.0967 313,-1104.0967 313,-1104.0967 309.4546,-1105.9486 311.3332,-1100.9058 305.9091,-1107.8006 305.9091,-1107.8006"/>
<ellipse fill="none" stroke="#000000" cx="303.0727" cy="-1109.2822" rx="3.2" ry="3.2"/>
</g>
<!-- review_audit -->
<g id="node22" class="node">
<title>review_audit</title>
<g id="a_node22"><a xlink:href="../../tables/review_audit.html" xlink:title="review_audit" target="_top">
<polygon fill="#ffffff" stroke="transparent" points="315.5,-994.5967 315.5,-1055.5967 440.5,-1055.5967 440.5,-994.5967 315.5,-994.5967"/>
<polygon fill="#f5f5f5" stroke="transparent" points="316,-1032.0967 316,-1055.0967 441,-1055.0967 441,-1032.0967 316,-1032.0967"/>
<polygon fill="none" stroke="#000000" points="316,-1032.0967 316,-1055.0967 441,-1055.0967 441,-1032.0967 316,-1032.0967"/>
<text text-anchor="start" x="321" y="-1040.6967" font-family="Helvetica,sans-Serif" font-weight="bold" font-size="11.00" fill="#000000">review_audit</text>
<text text-anchor="start" x="406.5219" y="-1040.1967" font-family="Helvetica,sans-Serif" font-size="11.00" fill="#000000">[table]</text>
<polygon fill="none" stroke="#000000" points="316,-1013.0967 316,-1032.0967 441,-1032.0967 441,-1013.0967 316,-1013.0967"/>
<text text-anchor="start" x="319" y="-1019.1967" font-family="Helvetica,sans-Serif" font-size="11.00" fill="#000000">...</text>
<polygon fill="#ffffff" stroke="transparent" points="316,-994.0967 316,-1013.0967 377,-1013.0967 377,-994.0967 316,-994.0967"/>
<polygon fill="none" stroke="#000000" points="316,-994.0967 316,-1013.0967 377,-1013.0967 377,-994.0967 316,-994.0967"/>
<text text-anchor="start" x="319" y="-1000.1967" font-family="Helvetica,sans-Serif" font-size="11.00" fill="#000000">&lt; 3</text>
<polygon fill="#ffffff" stroke="transparent" points="377,-994.0967 377,-1013.0967 409,-1013.0967 409,-994.0967 377,-994.0967"/>
<polygon fill="none" stroke="#000000" points="377,-994.0967 377,-1013.0967 409,-1013.0967 409,-994.0967 377,-994.0967"/>
<text text-anchor="start" x="399.8862" y="-1000.1967" font-family="Helvetica,sans-Serif" font-size="11.00" fill="#000000"> &#160;</text>
<polygon fill="#ffffff" stroke="transparent" points="409,-994.0967 409,-1013.0967 441,-1013.0967 441,-994.0967 409,-994.0967"/>
<polygon fill="none" stroke="#000000" points="409,-994.0967 409,-1013.0967 441,-1013.0967 441,-994.0967 409,-994.0967"/>
<text text-anchor="start" x="431.8862" y="-1000.1967" font-family="Helvetica,sans-Serif" font-size="11.00" fill="#000000"> &#160;</text>
</a>
</g>
</g>
<!-- review_audit&#45;&gt;audit_revision -->
<g id="edge48" class="edge">
<title>review_audit:w&#45;&gt;audit_revision:e</title>
<path fill="none" stroke="#000000" stroke-dasharray="5,2" d="M301.4302,-1019.9243C264.8342,-1013.4394 250.4874,-1001.8712 215,-978.0967 192.7933,-963.2195 200.7296,-934.0967 174,-940.0967"/>
<polygon fill="#000000" stroke="#000000" points="308.0875,-1020.9168 315.4691,-1025.6573 312.0437,-1021.5067 316,-1022.0967 316,-1022.0967 316,-1022.0967 312.0437,-1021.5067 316.5309,-1018.536 308.0875,-1020.9168 308.0875,-1020.9168"/>
<ellipse fill="none" stroke="#000000" cx="304.9225" cy="-1020.4449" rx="3.2" ry="3.2"/>
</g>
<!-- review_audit&#45;&gt;audit_revision -->
<g id="edge49" class="edge">
<title>review_audit:w&#45;&gt;audit_revision:e</title>
<path fill="none" stroke="#000000" d="M301.4302,-1023.7404C264.8342,-1026.4394 250.4874,-1014.8712 215,-991.0967 192.7933,-976.2195 200.7296,-947.0967 174,-940.0967"/>
<polygon fill="#000000" stroke="#000000" points="308.0504,-1022.9935 316.4036,-1025.674 312.0252,-1022.5451 316,-1022.0967 316,-1022.0967 316,-1022.0967 312.0252,-1022.5451 315.5964,-1018.5193 308.0504,-1022.9935 308.0504,-1022.9935"/>
<ellipse fill="none" stroke="#000000" cx="304.8706" cy="-1023.3523" rx="3.2" ry="3.2"/>
</g>
<!-- safer_custody_screening_outcome -->
<g id="node23" class="node">
<title>safer_custody_screening_outcome</title>
<g id="a_node23"><a xlink:href="../../tables/safer_custody_screening_outcome.html" xlink:title="safer_custody_screening_outcome" target="_top">
<polygon fill="#ffffff" stroke="transparent" points="941,-209.5967 941,-270.5967 1210,-270.5967 1210,-209.5967 941,-209.5967"/>
<polygon fill="#f5f5f5" stroke="transparent" points="941.5,-247.0967 941.5,-270.0967 1210.5,-270.0967 1210.5,-247.0967 941.5,-247.0967"/>
<polygon fill="none" stroke="#000000" points="941.5,-247.0967 941.5,-270.0967 1210.5,-270.0967 1210.5,-247.0967 941.5,-247.0967"/>
<text text-anchor="start" x="946.5" y="-255.6967" font-family="Helvetica,sans-Serif" font-weight="bold" font-size="11.00" fill="#000000">safer_custody_screening_outcome</text>
<text text-anchor="start" x="1176.0219" y="-255.1967" font-family="Helvetica,sans-Serif" font-size="11.00" fill="#000000">[table]</text>
<polygon fill="none" stroke="#000000" points="941.5,-228.0967 941.5,-247.0967 1210.5,-247.0967 1210.5,-228.0967 941.5,-228.0967"/>
<text text-anchor="start" x="944.5" y="-234.1967" font-family="Helvetica,sans-Serif" font-size="11.00" fill="#000000">...</text>
<polygon fill="#ffffff" stroke="transparent" points="941.5,-209.0967 941.5,-228.0967 1074.5,-228.0967 1074.5,-209.0967 941.5,-209.0967"/>
<polygon fill="none" stroke="#000000" points="941.5,-209.0967 941.5,-228.0967 1074.5,-228.0967 1074.5,-209.0967 941.5,-209.0967"/>
<text text-anchor="start" x="944.5" y="-215.1967" font-family="Helvetica,sans-Serif" font-size="11.00" fill="#000000">&lt; 2</text>
<polygon fill="#ffffff" stroke="transparent" points="1074.5,-209.0967 1074.5,-228.0967 1142.5,-228.0967 1142.5,-209.0967 1074.5,-209.0967"/>
<polygon fill="none" stroke="#000000" points="1074.5,-209.0967 1074.5,-228.0967 1142.5,-228.0967 1142.5,-209.0967 1074.5,-209.0967"/>
<text text-anchor="start" x="1133.3862" y="-215.1967" font-family="Helvetica,sans-Serif" font-size="11.00" fill="#000000"> &#160;</text>
<polygon fill="#ffffff" stroke="transparent" points="1142.5,-209.0967 1142.5,-228.0967 1210.5,-228.0967 1210.5,-209.0967 1142.5,-209.0967"/>
<polygon fill="none" stroke="#000000" points="1142.5,-209.0967 1142.5,-228.0967 1210.5,-228.0967 1210.5,-209.0967 1142.5,-209.0967"/>
<text text-anchor="start" x="1201.3862" y="-215.1967" font-family="Helvetica,sans-Serif" font-size="11.00" fill="#000000"> &#160;</text>
</a>
</g>
</g>
<!-- safer_custody_screening_outcome&#45;&gt;reference_data -->
<g id="edge50" class="edge">
<title>safer_custody_screening_outcome:w&#45;&gt;reference_data:e</title>
<path fill="none" stroke="#000000" d="M926.9012,-235.0232C892.9471,-224.1355 901.3612,-173.416 859,-156.0967 792.7664,-129.0171 284.9968,-141.2423 215,-156.0967 189.3085,-161.5488 187.2636,-180.0967 161,-180.0967"/>
<polygon fill="#000000" stroke="#000000" points="933.5795,-235.9717 940.9938,-240.6609 937.5397,-236.5342 941.5,-237.0967 941.5,-237.0967 941.5,-237.0967 937.5397,-236.5342 942.0062,-233.5324 933.5795,-235.9717 933.5795,-235.9717"/>
<ellipse fill="none" stroke="#000000" cx="930.4113" cy="-235.5217" rx="3.2" ry="3.2"/>
</g>
<!-- safer_custody_screening_outcome&#45;&gt;referral -->
<g id="edge51" class="edge">
<title>safer_custody_screening_outcome:w&#45;&gt;referral:e</title>
<path fill="none" stroke="#000000" d="M930.9728,-238.2787C881.8369,-250.2486 911.4915,-349.0967 851.5,-349.0967"/>
<polygon fill="#000000" stroke="#000000" points="940.2586,-233.2109 941.1514,-241.1609 939.5614,-241.3395 938.6686,-233.3894 940.2586,-233.2109"/>
<polyline fill="none" stroke="#000000" points="941.5,-237.0967 937.525,-237.543 "/>
<ellipse fill="none" stroke="#000000" cx="934.345" cy="-237.9001" rx="3.2" ry="3.2"/>
</g>
<!-- safer_custody_screening_outcome_audit -->
<g id="node24" class="node">
<title>safer_custody_screening_outcome_audit</title>
<g id="a_node24"><a xlink:href="../../tables/safer_custody_screening_outcome_audit.html" xlink:title="safer_custody_screening_outcome_audit" target="_top">
<polygon fill="#ffffff" stroke="transparent" points="223,-912.5967 223,-973.5967 533,-973.5967 533,-912.5967 223,-912.5967"/>
<polygon fill="#f5f5f5" stroke="transparent" points="223,-950.0967 223,-973.0967 533,-973.0967 533,-950.0967 223,-950.0967"/>
<polygon fill="none" stroke="#000000" points="223,-950.0967 223,-973.0967 533,-973.0967 533,-950.0967 223,-950.0967"/>
<text text-anchor="start" x="228" y="-958.6967" font-family="Helvetica,sans-Serif" font-weight="bold" font-size="11.00" fill="#000000">safer_custody_screening_outcome_audit</text>
<text text-anchor="start" x="498.5219" y="-958.1967" font-family="Helvetica,sans-Serif" font-size="11.00" fill="#000000">[table]</text>
<polygon fill="none" stroke="#000000" points="223,-931.0967 223,-950.0967 533,-950.0967 533,-931.0967 223,-931.0967"/>
<text text-anchor="start" x="226" y="-937.1967" font-family="Helvetica,sans-Serif" font-size="11.00" fill="#000000">...</text>
<polygon fill="#ffffff" stroke="transparent" points="223,-912.0967 223,-931.0967 376,-931.0967 376,-912.0967 223,-912.0967"/>
<polygon fill="none" stroke="#000000" points="223,-912.0967 223,-931.0967 376,-931.0967 376,-912.0967 223,-912.0967"/>
<text text-anchor="start" x="226" y="-918.1967" font-family="Helvetica,sans-Serif" font-size="11.00" fill="#000000">&lt; 2</text>
<polygon fill="#ffffff" stroke="transparent" points="376,-912.0967 376,-931.0967 454,-931.0967 454,-912.0967 376,-912.0967"/>
<polygon fill="none" stroke="#000000" points="376,-912.0967 376,-931.0967 454,-931.0967 454,-912.0967 376,-912.0967"/>
<text text-anchor="start" x="444.8862" y="-918.1967" font-family="Helvetica,sans-Serif" font-size="11.00" fill="#000000"> &#160;</text>
<polygon fill="#ffffff" stroke="transparent" points="454,-912.0967 454,-931.0967 533,-931.0967 533,-912.0967 454,-912.0967"/>
<polygon fill="none" stroke="#000000" points="454,-912.0967 454,-931.0967 533,-931.0967 533,-912.0967 454,-912.0967"/>
<text text-anchor="start" x="523.8862" y="-918.1967" font-family="Helvetica,sans-Serif" font-size="11.00" fill="#000000"> &#160;</text>
</a>
</g>
</g>
<!-- safer_custody_screening_outcome_audit&#45;&gt;audit_revision -->
<g id="edge52" class="edge">
<title>safer_custody_screening_outcome_audit:w&#45;&gt;audit_revision:e</title>
<path fill="none" stroke="#000000" stroke-dasharray="5,2" d="M208.8534,-936.6524C197.3293,-934.4955 190.1632,-935.6435 174,-940.0967"/>
<polygon fill="#000000" stroke="#000000" points="215.2271,-938.2042 222.1484,-943.5945 219.1135,-939.1504 223,-940.0967 223,-940.0967 223,-940.0967 219.1135,-939.1504 223.8516,-936.5988 215.2271,-938.2042 215.2271,-938.2042"/>
<ellipse fill="none" stroke="#000000" cx="212.1179" cy="-937.4472" rx="3.2" ry="3.2"/>
</g>
<!-- safer_custody_screening_outcome_audit&#45;&gt;audit_revision -->
<g id="edge53" class="edge">
<title>safer_custody_screening_outcome_audit:w&#45;&gt;audit_revision:e</title>
<path fill="none" stroke="#000000" d="M208.8534,-944.1149C197.3293,-946.6314 190.1632,-945.292 174,-940.0967"/>
<polygon fill="#000000" stroke="#000000" points="215.3044,-942.2826 223.9837,-943.5597 219.1522,-941.1896 223,-940.0967 223,-940.0967 223,-940.0967 219.1522,-941.1896 222.0163,-936.6336 215.3044,-942.2826 215.3044,-942.2826"/>
<ellipse fill="none" stroke="#000000" cx="212.2262" cy="-943.1569" rx="3.2" ry="3.2"/>
</g>
</g>
</svg>
