<?xml version="1.0" encoding="UTF-8" standalone="no"?>
<!DOCTYPE svg PUBLIC "-//W3C//DTD SVG 1.1//EN"
 "http://www.w3.org/Graphics/SVG/1.1/DTD/svg11.dtd">
<!-- Generated by graphviz version 2.40.1 (20161225.0304)
 -->
<!-- Title: twoDegreesRelationshipsDiagram Pages: 1 -->
<svg width="590pt" height="1197pt"
 viewBox="0.00 0.00 590.00 1197.20" xmlns="http://www.w3.org/2000/svg" xmlns:xlink="http://www.w3.org/1999/xlink">
<g id="graph0" class="graph" transform="scale(1 1) rotate(0) translate(4 1193.2)">
<title>twoDegreesRelationshipsDiagram</title>
<polygon fill="#ffffff" stroke="transparent" points="-4,4 -4,-1193.2 586,-1193.2 586,4 -4,4"/>
<text text-anchor="middle" x="72.4936" y="-7.3" font-family="Helvetica,sans-Serif" font-size="11.00" fill="#000000">Generated by SchemaSpy</text>
<!-- attendee_audit -->
<g id="node1" class="node">
<title>attendee_audit</title>
<g id="a_node1"><a xlink:href="../../tables/attendee_audit.html" xlink:title="attendee_audit" target="_top">
<polygon fill="#ffffff" stroke="transparent" points="328,-1124.2 328,-1185.2 469,-1185.2 469,-1124.2 328,-1124.2"/>
<polygon fill="#f5f5f5" stroke="transparent" points="328.5,-1161.7 328.5,-1184.7 469.5,-1184.7 469.5,-1161.7 328.5,-1161.7"/>
<polygon fill="none" stroke="#000000" points="328.5,-1161.7 328.5,-1184.7 469.5,-1184.7 469.5,-1161.7 328.5,-1161.7"/>
<text text-anchor="start" x="333.5" y="-1170.3" font-family="Helvetica,sans-Serif" font-weight="bold" font-size="11.00" fill="#000000">attendee_audit</text>
<text text-anchor="start" x="435.0219" y="-1169.8" font-family="Helvetica,sans-Serif" font-size="11.00" fill="#000000">[table]</text>
<polygon fill="none" stroke="#000000" points="328.5,-1142.7 328.5,-1161.7 469.5,-1161.7 469.5,-1142.7 328.5,-1142.7"/>
<text text-anchor="start" x="331.5" y="-1148.8" font-family="Helvetica,sans-Serif" font-size="11.00" fill="#000000">...</text>
<polygon fill="#ffffff" stroke="transparent" points="328.5,-1123.7 328.5,-1142.7 397.5,-1142.7 397.5,-1123.7 328.5,-1123.7"/>
<polygon fill="none" stroke="#000000" points="328.5,-1123.7 328.5,-1142.7 397.5,-1142.7 397.5,-1123.7 328.5,-1123.7"/>
<text text-anchor="start" x="331.5" y="-1129.8" font-family="Helvetica,sans-Serif" font-size="11.00" fill="#000000">&lt; 1</text>
<polygon fill="#ffffff" stroke="transparent" points="397.5,-1123.7 397.5,-1142.7 433.5,-1142.7 433.5,-1123.7 397.5,-1123.7"/>
<polygon fill="none" stroke="#000000" points="397.5,-1123.7 397.5,-1142.7 433.5,-1142.7 433.5,-1123.7 397.5,-1123.7"/>
<text text-anchor="start" x="424.3862" y="-1129.8" font-family="Helvetica,sans-Serif" font-size="11.00" fill="#000000"> &#160;</text>
<polygon fill="#ffffff" stroke="transparent" points="433.5,-1123.7 433.5,-1142.7 469.5,-1142.7 469.5,-1123.7 433.5,-1123.7"/>
<polygon fill="none" stroke="#000000" points="433.5,-1123.7 433.5,-1142.7 469.5,-1142.7 469.5,-1123.7 433.5,-1123.7"/>
<text text-anchor="start" x="460.3862" y="-1129.8" font-family="Helvetica,sans-Serif" font-size="11.00" fill="#000000"> &#160;</text>
</a>
</g>
</g>
<!-- audit_revision -->
<g id="node2" class="node">
<title>audit_revision</title>
<g id="a_node2"><a xlink:href="../../tables/audit_revision.html" xlink:title="audit_revision" target="_top">
<polygon fill="#ffffff" stroke="transparent" points="8,-468.2 8,-551.2 174,-551.2 174,-468.2 8,-468.2"/>
<polygon fill="#f5f5f5" stroke="transparent" points="8,-527.7 8,-550.7 174,-550.7 174,-527.7 8,-527.7"/>
<polygon fill="none" stroke="#000000" points="8,-527.7 8,-550.7 174,-550.7 174,-527.7 8,-527.7"/>
<text text-anchor="start" x="13" y="-536.3" font-family="Helvetica,sans-Serif" font-weight="bold" font-size="11.00" fill="#000000">audit_revision</text>
<text text-anchor="start" x="139.0437" y="-535.8" font-family="Helvetica,sans-Serif" font-size="11.00" fill="#000000">[table]</text>
<polygon fill="none" stroke="#000000" points="8,-505.7 8,-527.7 174,-527.7 174,-505.7 8,-505.7"/>
<image xlink:href="../../images/primaryKeys.png" width="11px" height="12px" preserveAspectRatio="xMinYMin meet" x="13" y="-522.7"/>
<text text-anchor="start" x="28" y="-512.8" font-family="Helvetica,sans-Serif" font-size="11.00" fill="#000000">id</text>
<polygon fill="none" stroke="#000000" points="8,-486.7 8,-505.7 174,-505.7 174,-486.7 8,-486.7"/>
<text text-anchor="start" x="11" y="-492.8" font-family="Helvetica,sans-Serif" font-size="11.00" fill="#000000">...</text>
<polygon fill="#ffffff" stroke="transparent" points="8,-467.7 8,-486.7 77,-486.7 77,-467.7 8,-467.7"/>
<polygon fill="none" stroke="#000000" points="8,-467.7 8,-486.7 77,-486.7 77,-467.7 8,-467.7"/>
<text text-anchor="start" x="11" y="-473.8" font-family="Helvetica,sans-Serif" font-size="11.00" fill="#000000"> &#160;</text>
<polygon fill="#ffffff" stroke="transparent" points="77,-467.7 77,-486.7 118,-486.7 118,-467.7 77,-467.7"/>
<polygon fill="none" stroke="#000000" points="77,-467.7 77,-486.7 118,-486.7 118,-467.7 77,-467.7"/>
<text text-anchor="start" x="108.8862" y="-473.8" font-family="Helvetica,sans-Serif" font-size="11.00" fill="#000000"> &#160;</text>
<polygon fill="#ffffff" stroke="transparent" points="118,-467.7 118,-486.7 174,-486.7 174,-467.7 118,-467.7"/>
<polygon fill="none" stroke="#000000" points="118,-467.7 118,-486.7 174,-486.7 174,-467.7 118,-467.7"/>
<text text-anchor="start" x="149.2904" y="-473.8" font-family="Helvetica,sans-Serif" font-size="11.00" fill="#000000">12 &gt;</text>
</a>
</g>
</g>
<!-- attendee_audit&#45;&gt;audit_revision -->
<g id="edge1" class="edge">
<title>attendee_audit:w&#45;&gt;audit_revision:e</title>
<path fill="none" stroke="#000000" d="M313.8991,-1151.7682C269.9452,-1152.0591 244.4238,-1151.7576 215,-1113.7 174.3315,-1061.0983 240.4896,-516.7 174,-516.7"/>
<polygon fill="#000000" stroke="#000000" points="320.5001,-1151.7374 328.5168,-1155.3 324.5,-1151.7187 328.5,-1151.7 328.5,-1151.7 328.5,-1151.7 324.5,-1151.7187 328.4832,-1148.1 320.5001,-1151.7374 320.5001,-1151.7374"/>
<ellipse fill="none" stroke="#000000" cx="317.3001" cy="-1151.7524" rx="3.2" ry="3.2"/>
</g>
<!-- contributory_factor_audit -->
<g id="node3" class="node">
<title>contributory_factor_audit</title>
<g id="a_node3"><a xlink:href="../../tables/contributory_factor_audit.html" xlink:title="contributory_factor_audit" target="_top">
<polygon fill="#ffffff" stroke="transparent" points="223,-858.7 223,-1102.7 574,-1102.7 574,-858.7 223,-858.7"/>
<polygon fill="#f5f5f5" stroke="transparent" points="225.5,-1077.7 225.5,-1100.7 572.5,-1100.7 572.5,-1077.7 225.5,-1077.7"/>
<polygon fill="none" stroke="#000000" points="225.5,-1077.7 225.5,-1100.7 572.5,-1100.7 572.5,-1077.7 225.5,-1077.7"/>
<text text-anchor="start" x="230.5" y="-1086.3" font-family="Helvetica,sans-Serif" font-weight="bold" font-size="11.00" fill="#000000">contributory_factor_audit</text>
<text text-anchor="start" x="537.5437" y="-1085.8" font-family="Helvetica,sans-Serif" font-size="11.00" fill="#000000">[table]</text>
<polygon fill="none" stroke="#000000" points="225.5,-1055.7 225.5,-1077.7 478.5,-1077.7 478.5,-1055.7 225.5,-1055.7"/>
<image xlink:href="../../images/primaryKeys.png" width="11px" height="12px" preserveAspectRatio="xMinYMin meet" x="230.5" y="-1072.7"/>
<text text-anchor="start" x="245.5" y="-1062.8" font-family="Helvetica,sans-Serif" font-size="11.00" fill="#000000">rev_id</text>
<polygon fill="none" stroke="#000000" points="478.5,-1055.7 478.5,-1077.7 572.5,-1077.7 572.5,-1055.7 478.5,-1055.7"/>
<text text-anchor="start" x="481.5" y="-1063.4" font-family="Helvetica,sans-Serif" font-size="11.00" fill="#000000">int8[19]</text>
<polygon fill="none" stroke="#000000" points="225.5,-1033.7 225.5,-1055.7 478.5,-1055.7 478.5,-1033.7 225.5,-1033.7"/>
<text text-anchor="start" x="245.5" y="-1040.8" font-family="Helvetica,sans-Serif" font-size="11.00" fill="#000000">rev_type</text>
<polygon fill="none" stroke="#000000" points="478.5,-1033.7 478.5,-1055.7 572.5,-1055.7 572.5,-1033.7 478.5,-1033.7"/>
<text text-anchor="start" x="481.5" y="-1041.4" font-family="Helvetica,sans-Serif" font-size="11.00" fill="#000000">int2[5]</text>
<polygon fill="none" stroke="#000000" points="225.5,-1011.7 225.5,-1033.7 478.5,-1033.7 478.5,-1011.7 225.5,-1011.7"/>
<image xlink:href="../../images/primaryKeys.png" width="11px" height="12px" preserveAspectRatio="xMinYMin meet" x="230.5" y="-1028.7"/>
<text text-anchor="start" x="245.5" y="-1018.8" font-family="Helvetica,sans-Serif" font-size="11.00" fill="#000000">contributory_factor_id</text>
<polygon fill="none" stroke="#000000" points="478.5,-1011.7 478.5,-1033.7 572.5,-1033.7 572.5,-1011.7 478.5,-1011.7"/>
<text text-anchor="start" x="481.4758" y="-1019.4" font-family="Helvetica,sans-Serif" font-size="11.00" fill="#000000">uuid[2147483647]</text>
<polygon fill="none" stroke="#000000" points="225.5,-989.7 225.5,-1011.7 478.5,-1011.7 478.5,-989.7 225.5,-989.7"/>
<image xlink:href="../../images/foreignKeys.png" width="11px" height="12px" preserveAspectRatio="xMinYMin meet" x="230.5" y="-1006.7"/>
<text text-anchor="start" x="245.5" y="-996.8" font-family="Helvetica,sans-Serif" font-size="11.00" fill="#000000">referral_id</text>
<polygon fill="none" stroke="#000000" points="478.5,-989.7 478.5,-1011.7 572.5,-1011.7 572.5,-989.7 478.5,-989.7"/>
<text text-anchor="start" x="481.4758" y="-997.4" font-family="Helvetica,sans-Serif" font-size="11.00" fill="#000000">uuid[2147483647]</text>
<polygon fill="none" stroke="#000000" points="225.5,-967.7 225.5,-989.7 478.5,-989.7 478.5,-967.7 225.5,-967.7"/>
<image xlink:href="../../images/foreignKeys.png" width="11px" height="12px" preserveAspectRatio="xMinYMin meet" x="230.5" y="-984.7"/>
<text text-anchor="start" x="245.5" y="-974.8" font-family="Helvetica,sans-Serif" font-size="11.00" fill="#000000">contributory_factor_type_id</text>
<polygon fill="none" stroke="#000000" points="478.5,-967.7 478.5,-989.7 572.5,-989.7 572.5,-967.7 478.5,-967.7"/>
<text text-anchor="start" x="481.5" y="-975.4" font-family="Helvetica,sans-Serif" font-size="11.00" fill="#000000">int8[19]</text>
<polygon fill="none" stroke="#000000" points="225.5,-945.7 225.5,-967.7 478.5,-967.7 478.5,-945.7 225.5,-945.7"/>
<text text-anchor="start" x="245.5" y="-952.8" font-family="Helvetica,sans-Serif" font-size="11.00" fill="#000000">comment</text>
<polygon fill="none" stroke="#000000" points="478.5,-945.7 478.5,-967.7 572.5,-967.7 572.5,-945.7 478.5,-945.7"/>
<text text-anchor="start" x="481.5" y="-953.4" font-family="Helvetica,sans-Serif" font-size="11.00" fill="#000000">text[2147483647]</text>
<polygon fill="none" stroke="#000000" points="225.5,-923.7 225.5,-945.7 478.5,-945.7 478.5,-923.7 225.5,-923.7"/>
<text text-anchor="start" x="245.5" y="-930.8" font-family="Helvetica,sans-Serif" font-size="11.00" fill="#000000">contributory_factor_type_modified</text>
<polygon fill="none" stroke="#000000" points="478.5,-923.7 478.5,-945.7 572.5,-945.7 572.5,-923.7 478.5,-923.7"/>
<text text-anchor="start" x="481.5" y="-931.4" font-family="Helvetica,sans-Serif" font-size="11.00" fill="#000000">bool[1]</text>
<polygon fill="none" stroke="#000000" points="225.5,-901.7 225.5,-923.7 478.5,-923.7 478.5,-901.7 225.5,-901.7"/>
<text text-anchor="start" x="245.5" y="-908.8" font-family="Helvetica,sans-Serif" font-size="11.00" fill="#000000">comment_modified</text>
<polygon fill="none" stroke="#000000" points="478.5,-901.7 478.5,-923.7 572.5,-923.7 572.5,-901.7 478.5,-901.7"/>
<text text-anchor="start" x="481.5" y="-909.4" font-family="Helvetica,sans-Serif" font-size="11.00" fill="#000000">bool[1]</text>
<polygon fill="none" stroke="#000000" points="225.5,-879.7 225.5,-901.7 478.5,-901.7 478.5,-879.7 225.5,-879.7"/>
<image xlink:href="../../images/foreignKeys.png" width="11px" height="12px" preserveAspectRatio="xMinYMin meet" x="230.5" y="-896.7"/>
<text text-anchor="start" x="245.5" y="-886.8" font-family="Helvetica,sans-Serif" font-size="11.00" fill="#000000">legacy_id</text>
<polygon fill="none" stroke="#000000" points="478.5,-879.7 478.5,-901.7 572.5,-901.7 572.5,-879.7 478.5,-879.7"/>
<text text-anchor="start" x="481.5" y="-887.4" font-family="Helvetica,sans-Serif" font-size="11.00" fill="#000000">int8[19]</text>
<polygon fill="#ffffff" stroke="transparent" points="225.5,-860.7 225.5,-879.7 356.5,-879.7 356.5,-860.7 225.5,-860.7"/>
<polygon fill="none" stroke="#000000" points="225.5,-860.7 225.5,-879.7 356.5,-879.7 356.5,-860.7 225.5,-860.7"/>
<text text-anchor="start" x="228.5" y="-866.8" font-family="Helvetica,sans-Serif" font-size="11.00" fill="#000000">&lt; 1</text>
<polygon fill="#ffffff" stroke="transparent" points="356.5,-860.7 356.5,-879.7 478.5,-879.7 478.5,-860.7 356.5,-860.7"/>
<polygon fill="none" stroke="#000000" points="356.5,-860.7 356.5,-879.7 478.5,-879.7 478.5,-860.7 356.5,-860.7"/>
<text text-anchor="start" x="469.3862" y="-866.8" font-family="Helvetica,sans-Serif" font-size="11.00" fill="#000000"> &#160;</text>
<polygon fill="#ffffff" stroke="transparent" points="478.5,-860.7 478.5,-879.7 572.5,-879.7 572.5,-860.7 478.5,-860.7"/>
<polygon fill="none" stroke="#000000" points="478.5,-860.7 478.5,-879.7 572.5,-879.7 572.5,-860.7 478.5,-860.7"/>
<text text-anchor="start" x="553.9053" y="-866.8" font-family="Helvetica,sans-Serif" font-size="11.00" fill="#000000">0 &gt;</text>
<polygon fill="none" stroke="#000000" stroke-width="2" points="224,-859.7 224,-1101.7 573,-1101.7 573,-859.7 224,-859.7"/>
</a>
</g>
</g>
<!-- contributory_factor_audit&#45;&gt;audit_revision -->
<g id="edge2" class="edge">
<title>contributory_factor_audit:w&#45;&gt;audit_revision:e</title>
<path fill="none" stroke="#000000" d="M213.9171,-1058.0608C173.9681,-988.089 230.823,-516.7 174,-516.7"/>
<polygon fill="#000000" stroke="#000000" points="219.0873,-1061.917 223.3477,-1069.5857 222.2936,-1064.3085 225.5,-1066.7 225.5,-1066.7 225.5,-1066.7 222.2936,-1064.3085 227.6523,-1063.8143 219.0873,-1061.917 219.0873,-1061.917"/>
<ellipse fill="none" stroke="#000000" cx="216.5222" cy="-1060.0038" rx="3.2" ry="3.2"/>
</g>
<!-- csip_record_audit -->
<g id="node4" class="node">
<title>csip_record_audit</title>
<g id="a_node4"><a xlink:href="../../tables/csip_record_audit.html" xlink:title="csip_record_audit" target="_top">
<polygon fill="#ffffff" stroke="transparent" points="320.5,-776.2 320.5,-837.2 476.5,-837.2 476.5,-776.2 320.5,-776.2"/>
<polygon fill="#f5f5f5" stroke="transparent" points="320.5,-813.7 320.5,-836.7 476.5,-836.7 476.5,-813.7 320.5,-813.7"/>
<polygon fill="none" stroke="#000000" points="320.5,-813.7 320.5,-836.7 476.5,-836.7 476.5,-813.7 320.5,-813.7"/>
<text text-anchor="start" x="325.5" y="-822.3" font-family="Helvetica,sans-Serif" font-weight="bold" font-size="11.00" fill="#000000">csip_record_audit</text>
<text text-anchor="start" x="442.0219" y="-821.8" font-family="Helvetica,sans-Serif" font-size="11.00" fill="#000000">[table]</text>
<polygon fill="none" stroke="#000000" points="320.5,-794.7 320.5,-813.7 476.5,-813.7 476.5,-794.7 320.5,-794.7"/>
<text text-anchor="start" x="323.5" y="-800.8" font-family="Helvetica,sans-Serif" font-size="11.00" fill="#000000">...</text>
<polygon fill="#ffffff" stroke="transparent" points="320.5,-775.7 320.5,-794.7 396.5,-794.7 396.5,-775.7 320.5,-775.7"/>
<polygon fill="none" stroke="#000000" points="320.5,-775.7 320.5,-794.7 396.5,-794.7 396.5,-775.7 320.5,-775.7"/>
<text text-anchor="start" x="323.5" y="-781.8" font-family="Helvetica,sans-Serif" font-size="11.00" fill="#000000">&lt; 1</text>
<polygon fill="#ffffff" stroke="transparent" points="396.5,-775.7 396.5,-794.7 436.5,-794.7 436.5,-775.7 396.5,-775.7"/>
<polygon fill="none" stroke="#000000" points="396.5,-775.7 396.5,-794.7 436.5,-794.7 436.5,-775.7 396.5,-775.7"/>
<text text-anchor="start" x="427.3862" y="-781.8" font-family="Helvetica,sans-Serif" font-size="11.00" fill="#000000"> &#160;</text>
<polygon fill="#ffffff" stroke="transparent" points="436.5,-775.7 436.5,-794.7 476.5,-794.7 476.5,-775.7 436.5,-775.7"/>
<polygon fill="none" stroke="#000000" points="436.5,-775.7 436.5,-794.7 476.5,-794.7 476.5,-775.7 436.5,-775.7"/>
<text text-anchor="start" x="467.3862" y="-781.8" font-family="Helvetica,sans-Serif" font-size="11.00" fill="#000000"> &#160;</text>
</a>
</g>
</g>
<!-- csip_record_audit&#45;&gt;audit_revision -->
<g id="edge3" class="edge">
<title>csip_record_audit:w&#45;&gt;audit_revision:e</title>
<path fill="none" stroke="#000000" d="M306.0856,-803.6687C265.7483,-803.3638 243.6442,-800.1153 215,-765.7 179.1255,-722.5977 230.0784,-516.7 174,-516.7"/>
<polygon fill="#000000" stroke="#000000" points="312.5,-803.6826 320.4922,-807.3 316.5,-803.6913 320.5,-803.7 320.5,-803.7 320.5,-803.7 316.5,-803.6913 320.5078,-800.1 312.5,-803.6826 312.5,-803.6826"/>
<ellipse fill="none" stroke="#000000" cx="309.3" cy="-803.6756" rx="3.2" ry="3.2"/>
</g>
<!-- decision_and_actions_audit -->
<g id="node5" class="node">
<title>decision_and_actions_audit</title>
<g id="a_node5"><a xlink:href="../../tables/decision_and_actions_audit.html" xlink:title="decision_and_actions_audit" target="_top">
<polygon fill="#ffffff" stroke="transparent" points="287.5,-694.2 287.5,-755.2 509.5,-755.2 509.5,-694.2 287.5,-694.2"/>
<polygon fill="#f5f5f5" stroke="transparent" points="287.5,-731.7 287.5,-754.7 509.5,-754.7 509.5,-731.7 287.5,-731.7"/>
<polygon fill="none" stroke="#000000" points="287.5,-731.7 287.5,-754.7 509.5,-754.7 509.5,-731.7 287.5,-731.7"/>
<text text-anchor="start" x="292.5" y="-740.3" font-family="Helvetica,sans-Serif" font-weight="bold" font-size="11.00" fill="#000000">decision_and_actions_audit</text>
<text text-anchor="start" x="475.0219" y="-739.8" font-family="Helvetica,sans-Serif" font-size="11.00" fill="#000000">[table]</text>
<polygon fill="none" stroke="#000000" points="287.5,-712.7 287.5,-731.7 509.5,-731.7 509.5,-712.7 287.5,-712.7"/>
<text text-anchor="start" x="290.5" y="-718.8" font-family="Helvetica,sans-Serif" font-size="11.00" fill="#000000">...</text>
<polygon fill="#ffffff" stroke="transparent" points="287.5,-693.7 287.5,-712.7 396.5,-712.7 396.5,-693.7 287.5,-693.7"/>
<polygon fill="none" stroke="#000000" points="287.5,-693.7 287.5,-712.7 396.5,-712.7 396.5,-693.7 287.5,-693.7"/>
<text text-anchor="start" x="290.5" y="-699.8" font-family="Helvetica,sans-Serif" font-size="11.00" fill="#000000">&lt; 1</text>
<polygon fill="#ffffff" stroke="transparent" points="396.5,-693.7 396.5,-712.7 452.5,-712.7 452.5,-693.7 396.5,-693.7"/>
<polygon fill="none" stroke="#000000" points="396.5,-693.7 396.5,-712.7 452.5,-712.7 452.5,-693.7 396.5,-693.7"/>
<text text-anchor="start" x="443.3862" y="-699.8" font-family="Helvetica,sans-Serif" font-size="11.00" fill="#000000"> &#160;</text>
<polygon fill="#ffffff" stroke="transparent" points="452.5,-693.7 452.5,-712.7 509.5,-712.7 509.5,-693.7 452.5,-693.7"/>
<polygon fill="none" stroke="#000000" points="452.5,-693.7 452.5,-712.7 509.5,-712.7 509.5,-693.7 452.5,-693.7"/>
<text text-anchor="start" x="500.3862" y="-699.8" font-family="Helvetica,sans-Serif" font-size="11.00" fill="#000000"> &#160;</text>
</a>
</g>
</g>
<!-- decision_and_actions_audit&#45;&gt;audit_revision -->
<g id="edge4" class="edge">
<title>decision_and_actions_audit:w&#45;&gt;audit_revision:e</title>
<path fill="none" stroke="#000000" d="M273.0529,-721.0836C246.9804,-718.5921 234.1891,-708.2022 215,-683.7 167.8773,-623.5299 250.4264,-516.7 174,-516.7"/>
<polygon fill="#000000" stroke="#000000" points="279.5073,-721.3589 287.3465,-725.2967 283.5036,-721.5295 287.5,-721.7 287.5,-721.7 287.5,-721.7 283.5036,-721.5295 287.6535,-718.1033 279.5073,-721.3589 279.5073,-721.3589"/>
<ellipse fill="none" stroke="#000000" cx="276.3102" cy="-721.2225" rx="3.2" ry="3.2"/>
</g>
<!-- identified_need_audit -->
<g id="node6" class="node">
<title>identified_need_audit</title>
<g id="a_node6"><a xlink:href="../../tables/identified_need_audit.html" xlink:title="identified_need_audit" target="_top">
<polygon fill="#ffffff" stroke="transparent" points="306.5,-612.2 306.5,-673.2 490.5,-673.2 490.5,-612.2 306.5,-612.2"/>
<polygon fill="#f5f5f5" stroke="transparent" points="306.5,-649.7 306.5,-672.7 490.5,-672.7 490.5,-649.7 306.5,-649.7"/>
<polygon fill="none" stroke="#000000" points="306.5,-649.7 306.5,-672.7 490.5,-672.7 490.5,-649.7 306.5,-649.7"/>
<text text-anchor="start" x="311.5" y="-658.3" font-family="Helvetica,sans-Serif" font-weight="bold" font-size="11.00" fill="#000000">identified_need_audit</text>
<text text-anchor="start" x="456.0219" y="-657.8" font-family="Helvetica,sans-Serif" font-size="11.00" fill="#000000">[table]</text>
<polygon fill="none" stroke="#000000" points="306.5,-630.7 306.5,-649.7 490.5,-649.7 490.5,-630.7 306.5,-630.7"/>
<text text-anchor="start" x="309.5" y="-636.8" font-family="Helvetica,sans-Serif" font-size="11.00" fill="#000000">...</text>
<polygon fill="#ffffff" stroke="transparent" points="306.5,-611.7 306.5,-630.7 396.5,-630.7 396.5,-611.7 306.5,-611.7"/>
<polygon fill="none" stroke="#000000" points="306.5,-611.7 306.5,-630.7 396.5,-630.7 396.5,-611.7 306.5,-611.7"/>
<text text-anchor="start" x="309.5" y="-617.8" font-family="Helvetica,sans-Serif" font-size="11.00" fill="#000000">&lt; 1</text>
<polygon fill="#ffffff" stroke="transparent" points="396.5,-611.7 396.5,-630.7 443.5,-630.7 443.5,-611.7 396.5,-611.7"/>
<polygon fill="none" stroke="#000000" points="396.5,-611.7 396.5,-630.7 443.5,-630.7 443.5,-611.7 396.5,-611.7"/>
<text text-anchor="start" x="434.3862" y="-617.8" font-family="Helvetica,sans-Serif" font-size="11.00" fill="#000000"> &#160;</text>
<polygon fill="#ffffff" stroke="transparent" points="443.5,-611.7 443.5,-630.7 490.5,-630.7 490.5,-611.7 443.5,-611.7"/>
<polygon fill="none" stroke="#000000" points="443.5,-611.7 443.5,-630.7 490.5,-630.7 490.5,-611.7 443.5,-611.7"/>
<text text-anchor="start" x="481.3862" y="-617.8" font-family="Helvetica,sans-Serif" font-size="11.00" fill="#000000"> &#160;</text>
</a>
</g>
</g>
<!-- identified_need_audit&#45;&gt;audit_revision -->
<g id="edge5" class="edge">
<title>identified_need_audit:w&#45;&gt;audit_revision:e</title>
<path fill="none" stroke="#000000" d="M291.6796,-639.3331C258.4763,-637.4944 243.1192,-628.2923 215,-601.7 184.526,-572.8808 215.9429,-516.7 174,-516.7"/>
<polygon fill="#000000" stroke="#000000" points="298.5025,-639.502 306.4109,-643.2989 302.5012,-639.601 306.5,-639.7 306.5,-639.7 306.5,-639.7 302.5012,-639.601 306.5891,-636.1011 298.5025,-639.502 298.5025,-639.502"/>
<ellipse fill="none" stroke="#000000" cx="295.3034" cy="-639.4227" rx="3.2" ry="3.2"/>
</g>
<!-- interview_audit -->
<g id="node7" class="node">
<title>interview_audit</title>
<g id="a_node7"><a xlink:href="../../tables/interview_audit.html" xlink:title="interview_audit" target="_top">
<polygon fill="#ffffff" stroke="transparent" points="327,-530.2 327,-591.2 470,-591.2 470,-530.2 327,-530.2"/>
<polygon fill="#f5f5f5" stroke="transparent" points="327.5,-567.7 327.5,-590.7 470.5,-590.7 470.5,-567.7 327.5,-567.7"/>
<polygon fill="none" stroke="#000000" points="327.5,-567.7 327.5,-590.7 470.5,-590.7 470.5,-567.7 327.5,-567.7"/>
<text text-anchor="start" x="332.5" y="-576.3" font-family="Helvetica,sans-Serif" font-weight="bold" font-size="11.00" fill="#000000">interview_audit</text>
<text text-anchor="start" x="436.0219" y="-575.8" font-family="Helvetica,sans-Serif" font-size="11.00" fill="#000000">[table]</text>
<polygon fill="none" stroke="#000000" points="327.5,-548.7 327.5,-567.7 470.5,-567.7 470.5,-548.7 327.5,-548.7"/>
<text text-anchor="start" x="330.5" y="-554.8" font-family="Helvetica,sans-Serif" font-size="11.00" fill="#000000">...</text>
<polygon fill="#ffffff" stroke="transparent" points="327.5,-529.7 327.5,-548.7 397.5,-548.7 397.5,-529.7 327.5,-529.7"/>
<polygon fill="none" stroke="#000000" points="327.5,-529.7 327.5,-548.7 397.5,-548.7 397.5,-529.7 327.5,-529.7"/>
<text text-anchor="start" x="330.5" y="-535.8" font-family="Helvetica,sans-Serif" font-size="11.00" fill="#000000">&lt; 1</text>
<polygon fill="#ffffff" stroke="transparent" points="397.5,-529.7 397.5,-548.7 433.5,-548.7 433.5,-529.7 397.5,-529.7"/>
<polygon fill="none" stroke="#000000" points="397.5,-529.7 397.5,-548.7 433.5,-548.7 433.5,-529.7 397.5,-529.7"/>
<text text-anchor="start" x="424.3862" y="-535.8" font-family="Helvetica,sans-Serif" font-size="11.00" fill="#000000"> &#160;</text>
<polygon fill="#ffffff" stroke="transparent" points="433.5,-529.7 433.5,-548.7 470.5,-548.7 470.5,-529.7 433.5,-529.7"/>
<polygon fill="none" stroke="#000000" points="433.5,-529.7 433.5,-548.7 470.5,-548.7 470.5,-529.7 433.5,-529.7"/>
<text text-anchor="start" x="461.3862" y="-535.8" font-family="Helvetica,sans-Serif" font-size="11.00" fill="#000000"> &#160;</text>
</a>
</g>
</g>
<!-- interview_audit&#45;&gt;audit_revision -->
<g id="edge6" class="edge">
<title>interview_audit:w&#45;&gt;audit_revision:e</title>
<path fill="none" stroke="#000000" d="M313.0611,-557.0886C254.8077,-551.9883 239.5109,-516.7 174,-516.7"/>
<polygon fill="#000000" stroke="#000000" points="319.5072,-557.3615 327.3477,-561.2968 323.5036,-557.5307 327.5,-557.7 327.5,-557.7 327.5,-557.7 323.5036,-557.5307 327.6523,-554.1032 319.5072,-557.3615 319.5072,-557.3615"/>
<ellipse fill="none" stroke="#000000" cx="316.31" cy="-557.2261" rx="3.2" ry="3.2"/>
</g>
<!-- investigation_audit -->
<g id="node8" class="node">
<title>investigation_audit</title>
<g id="a_node8"><a xlink:href="../../tables/investigation_audit.html" xlink:title="investigation_audit" target="_top">
<polygon fill="#ffffff" stroke="transparent" points="314,-448.2 314,-509.2 483,-509.2 483,-448.2 314,-448.2"/>
<polygon fill="#f5f5f5" stroke="transparent" points="314.5,-485.7 314.5,-508.7 483.5,-508.7 483.5,-485.7 314.5,-485.7"/>
<polygon fill="none" stroke="#000000" points="314.5,-485.7 314.5,-508.7 483.5,-508.7 483.5,-485.7 314.5,-485.7"/>
<text text-anchor="start" x="319.5" y="-494.3" font-family="Helvetica,sans-Serif" font-weight="bold" font-size="11.00" fill="#000000">investigation_audit</text>
<text text-anchor="start" x="449.0219" y="-493.8" font-family="Helvetica,sans-Serif" font-size="11.00" fill="#000000">[table]</text>
<polygon fill="none" stroke="#000000" points="314.5,-466.7 314.5,-485.7 483.5,-485.7 483.5,-466.7 314.5,-466.7"/>
<text text-anchor="start" x="317.5" y="-472.8" font-family="Helvetica,sans-Serif" font-size="11.00" fill="#000000">...</text>
<polygon fill="#ffffff" stroke="transparent" points="314.5,-447.7 314.5,-466.7 397.5,-466.7 397.5,-447.7 314.5,-447.7"/>
<polygon fill="none" stroke="#000000" points="314.5,-447.7 314.5,-466.7 397.5,-466.7 397.5,-447.7 314.5,-447.7"/>
<text text-anchor="start" x="317.5" y="-453.8" font-family="Helvetica,sans-Serif" font-size="11.00" fill="#000000">&lt; 1</text>
<polygon fill="#ffffff" stroke="transparent" points="397.5,-447.7 397.5,-466.7 440.5,-466.7 440.5,-447.7 397.5,-447.7"/>
<polygon fill="none" stroke="#000000" points="397.5,-447.7 397.5,-466.7 440.5,-466.7 440.5,-447.7 397.5,-447.7"/>
<text text-anchor="start" x="431.3862" y="-453.8" font-family="Helvetica,sans-Serif" font-size="11.00" fill="#000000"> &#160;</text>
<polygon fill="#ffffff" stroke="transparent" points="440.5,-447.7 440.5,-466.7 483.5,-466.7 483.5,-447.7 440.5,-447.7"/>
<polygon fill="none" stroke="#000000" points="440.5,-447.7 440.5,-466.7 483.5,-466.7 483.5,-447.7 440.5,-447.7"/>
<text text-anchor="start" x="474.3862" y="-453.8" font-family="Helvetica,sans-Serif" font-size="11.00" fill="#000000"> &#160;</text>
</a>
</g>
</g>
<!-- investigation_audit&#45;&gt;audit_revision -->
<g id="edge7" class="edge">
<title>investigation_audit:w&#45;&gt;audit_revision:e</title>
<path fill="none" stroke="#000000" d="M299.8682,-476.4466C247.4347,-482.0035 233.8399,-516.7 174,-516.7"/>
<polygon fill="#000000" stroke="#000000" points="306.5104,-476.1077 314.6835,-479.2953 310.5052,-475.9039 314.5,-475.7 314.5,-475.7 314.5,-475.7 310.5052,-475.9039 314.3165,-472.1047 306.5104,-476.1077 306.5104,-476.1077"/>
<ellipse fill="none" stroke="#000000" cx="303.3146" cy="-476.2708" rx="3.2" ry="3.2"/>
</g>
<!-- person_summary_audit -->
<g id="node9" class="node">
<title>person_summary_audit</title>
<g id="a_node9"><a xlink:href="../../tables/person_summary_audit.html" xlink:title="person_summary_audit" target="_top">
<polygon fill="#ffffff" stroke="transparent" points="301,-366.2 301,-427.2 496,-427.2 496,-366.2 301,-366.2"/>
<polygon fill="#f5f5f5" stroke="transparent" points="301.5,-403.7 301.5,-426.7 496.5,-426.7 496.5,-403.7 301.5,-403.7"/>
<polygon fill="none" stroke="#000000" points="301.5,-403.7 301.5,-426.7 496.5,-426.7 496.5,-403.7 301.5,-403.7"/>
<text text-anchor="start" x="306.5" y="-412.3" font-family="Helvetica,sans-Serif" font-weight="bold" font-size="11.00" fill="#000000">person_summary_audit</text>
<text text-anchor="start" x="462.0219" y="-411.8" font-family="Helvetica,sans-Serif" font-size="11.00" fill="#000000">[table]</text>
<polygon fill="none" stroke="#000000" points="301.5,-384.7 301.5,-403.7 496.5,-403.7 496.5,-384.7 301.5,-384.7"/>
<text text-anchor="start" x="304.5" y="-390.8" font-family="Helvetica,sans-Serif" font-size="11.00" fill="#000000">...</text>
<polygon fill="#ffffff" stroke="transparent" points="301.5,-365.7 301.5,-384.7 397.5,-384.7 397.5,-365.7 301.5,-365.7"/>
<polygon fill="none" stroke="#000000" points="301.5,-365.7 301.5,-384.7 397.5,-384.7 397.5,-365.7 301.5,-365.7"/>
<text text-anchor="start" x="304.5" y="-371.8" font-family="Helvetica,sans-Serif" font-size="11.00" fill="#000000">&lt; 1</text>
<polygon fill="#ffffff" stroke="transparent" points="397.5,-365.7 397.5,-384.7 446.5,-384.7 446.5,-365.7 397.5,-365.7"/>
<polygon fill="none" stroke="#000000" points="397.5,-365.7 397.5,-384.7 446.5,-384.7 446.5,-365.7 397.5,-365.7"/>
<text text-anchor="start" x="437.3862" y="-371.8" font-family="Helvetica,sans-Serif" font-size="11.00" fill="#000000"> &#160;</text>
<polygon fill="#ffffff" stroke="transparent" points="446.5,-365.7 446.5,-384.7 496.5,-384.7 496.5,-365.7 446.5,-365.7"/>
<polygon fill="none" stroke="#000000" points="446.5,-365.7 446.5,-384.7 496.5,-384.7 496.5,-365.7 446.5,-365.7"/>
<text text-anchor="start" x="487.3862" y="-371.8" font-family="Helvetica,sans-Serif" font-size="11.00" fill="#000000"> &#160;</text>
</a>
</g>
</g>
<!-- person_summary_audit&#45;&gt;audit_revision -->
<g id="edge8" class="edge">
<title>person_summary_audit:w&#45;&gt;audit_revision:e</title>
<path fill="none" stroke="#000000" d="M287.0819,-394.3049C255.019,-397.2455 241.9151,-411.0037 215,-437.7 186.9143,-465.5574 213.5581,-516.7 174,-516.7"/>
<polygon fill="#000000" stroke="#000000" points="293.507,-394.0354 301.6509,-397.2968 297.5035,-393.8677 301.5,-393.7 301.5,-393.7 301.5,-393.7 297.5035,-393.8677 301.3491,-390.1032 293.507,-394.0354 293.507,-394.0354"/>
<ellipse fill="none" stroke="#000000" cx="290.3098" cy="-394.1696" rx="3.2" ry="3.2"/>
</g>
<!-- plan_audit -->
<g id="node10" class="node">
<title>plan_audit</title>
<g id="a_node10"><a xlink:href="../../tables/plan_audit.html" xlink:title="plan_audit" target="_top">
<polygon fill="#ffffff" stroke="transparent" points="344,-284.2 344,-345.2 453,-345.2 453,-284.2 344,-284.2"/>
<polygon fill="#f5f5f5" stroke="transparent" points="344.5,-321.7 344.5,-344.7 453.5,-344.7 453.5,-321.7 344.5,-321.7"/>
<polygon fill="none" stroke="#000000" points="344.5,-321.7 344.5,-344.7 453.5,-344.7 453.5,-321.7 344.5,-321.7"/>
<text text-anchor="start" x="349.5" y="-330.3" font-family="Helvetica,sans-Serif" font-weight="bold" font-size="11.00" fill="#000000">plan_audit</text>
<text text-anchor="start" x="419.0219" y="-329.8" font-family="Helvetica,sans-Serif" font-size="11.00" fill="#000000">[table]</text>
<polygon fill="none" stroke="#000000" points="344.5,-302.7 344.5,-321.7 453.5,-321.7 453.5,-302.7 344.5,-302.7"/>
<text text-anchor="start" x="347.5" y="-308.8" font-family="Helvetica,sans-Serif" font-size="11.00" fill="#000000">...</text>
<polygon fill="#ffffff" stroke="transparent" points="344.5,-283.7 344.5,-302.7 397.5,-302.7 397.5,-283.7 344.5,-283.7"/>
<polygon fill="none" stroke="#000000" points="344.5,-283.7 344.5,-302.7 397.5,-302.7 397.5,-283.7 344.5,-283.7"/>
<text text-anchor="start" x="347.5" y="-289.8" font-family="Helvetica,sans-Serif" font-size="11.00" fill="#000000">&lt; 1</text>
<polygon fill="#ffffff" stroke="transparent" points="397.5,-283.7 397.5,-302.7 425.5,-302.7 425.5,-283.7 397.5,-283.7"/>
<polygon fill="none" stroke="#000000" points="397.5,-283.7 397.5,-302.7 425.5,-302.7 425.5,-283.7 397.5,-283.7"/>
<text text-anchor="start" x="416.3862" y="-289.8" font-family="Helvetica,sans-Serif" font-size="11.00" fill="#000000"> &#160;</text>
<polygon fill="#ffffff" stroke="transparent" points="425.5,-283.7 425.5,-302.7 453.5,-302.7 453.5,-283.7 425.5,-283.7"/>
<polygon fill="none" stroke="#000000" points="425.5,-283.7 425.5,-302.7 453.5,-302.7 453.5,-283.7 425.5,-283.7"/>
<text text-anchor="start" x="444.3862" y="-289.8" font-family="Helvetica,sans-Serif" font-size="11.00" fill="#000000"> &#160;</text>
</a>
</g>
</g>
<!-- plan_audit&#45;&gt;audit_revision -->
<g id="edge9" class="edge">
<title>plan_audit:w&#45;&gt;audit_revision:e</title>
<path fill="none" stroke="#000000" d="M329.8622,-311.7139C279.006,-311.9135 252.8044,-314.8185 215,-355.7 164.8679,-409.9127 247.8393,-516.7 174,-516.7"/>
<polygon fill="#000000" stroke="#000000" points="336.5,-311.7076 344.5034,-315.3 340.5,-311.7038 344.5,-311.7 344.5,-311.7 344.5,-311.7 340.5,-311.7038 344.4966,-308.1 336.5,-311.7076 336.5,-311.7076"/>
<ellipse fill="none" stroke="#000000" cx="333.3" cy="-311.7107" rx="3.2" ry="3.2"/>
</g>
<!-- referral_audit -->
<g id="node11" class="node">
<title>referral_audit</title>
<g id="a_node11"><a xlink:href="../../tables/referral_audit.html" xlink:title="referral_audit" target="_top">
<polygon fill="#ffffff" stroke="transparent" points="333,-202.2 333,-263.2 464,-263.2 464,-202.2 333,-202.2"/>
<polygon fill="#f5f5f5" stroke="transparent" points="333.5,-239.7 333.5,-262.7 464.5,-262.7 464.5,-239.7 333.5,-239.7"/>
<polygon fill="none" stroke="#000000" points="333.5,-239.7 333.5,-262.7 464.5,-262.7 464.5,-239.7 333.5,-239.7"/>
<text text-anchor="start" x="338.5" y="-248.3" font-family="Helvetica,sans-Serif" font-weight="bold" font-size="11.00" fill="#000000">referral_audit</text>
<text text-anchor="start" x="430.0219" y="-247.8" font-family="Helvetica,sans-Serif" font-size="11.00" fill="#000000">[table]</text>
<polygon fill="none" stroke="#000000" points="333.5,-220.7 333.5,-239.7 464.5,-239.7 464.5,-220.7 333.5,-220.7"/>
<text text-anchor="start" x="336.5" y="-226.8" font-family="Helvetica,sans-Serif" font-size="11.00" fill="#000000">...</text>
<polygon fill="#ffffff" stroke="transparent" points="333.5,-201.7 333.5,-220.7 397.5,-220.7 397.5,-201.7 333.5,-201.7"/>
<polygon fill="none" stroke="#000000" points="333.5,-201.7 333.5,-220.7 397.5,-220.7 397.5,-201.7 333.5,-201.7"/>
<text text-anchor="start" x="336.5" y="-207.8" font-family="Helvetica,sans-Serif" font-size="11.00" fill="#000000">&lt; 1</text>
<polygon fill="#ffffff" stroke="transparent" points="397.5,-201.7 397.5,-220.7 430.5,-220.7 430.5,-201.7 397.5,-201.7"/>
<polygon fill="none" stroke="#000000" points="397.5,-201.7 397.5,-220.7 430.5,-220.7 430.5,-201.7 397.5,-201.7"/>
<text text-anchor="start" x="421.3862" y="-207.8" font-family="Helvetica,sans-Serif" font-size="11.00" fill="#000000"> &#160;</text>
<polygon fill="#ffffff" stroke="transparent" points="430.5,-201.7 430.5,-220.7 464.5,-220.7 464.5,-201.7 430.5,-201.7"/>
<polygon fill="none" stroke="#000000" points="430.5,-201.7 430.5,-220.7 464.5,-220.7 464.5,-201.7 430.5,-201.7"/>
<text text-anchor="start" x="455.3862" y="-207.8" font-family="Helvetica,sans-Serif" font-size="11.00" fill="#000000"> &#160;</text>
</a>
</g>
</g>
<!-- referral_audit&#45;&gt;audit_revision -->
<g id="edge10" class="edge">
<title>referral_audit:w&#45;&gt;audit_revision:e</title>
<path fill="none" stroke="#000000" d="M319.048,-229.7477C272.4819,-230.172 247.5954,-234.3035 215,-273.7 180.0902,-315.8938 228.7632,-516.7 174,-516.7"/>
<polygon fill="#000000" stroke="#000000" points="325.5,-229.7264 333.5119,-233.3 329.5,-229.7132 333.5,-229.7 333.5,-229.7 333.5,-229.7 329.5,-229.7132 333.4881,-226.1 325.5,-229.7264 325.5,-229.7264"/>
<ellipse fill="none" stroke="#000000" cx="322.3001" cy="-229.737" rx="3.2" ry="3.2"/>
</g>
<!-- review_audit -->
<g id="node12" class="node">
<title>review_audit</title>
<g id="a_node12"><a xlink:href="../../tables/review_audit.html" xlink:title="review_audit" target="_top">
<polygon fill="#ffffff" stroke="transparent" points="336,-120.2 336,-181.2 461,-181.2 461,-120.2 336,-120.2"/>
<polygon fill="#f5f5f5" stroke="transparent" points="336.5,-157.7 336.5,-180.7 461.5,-180.7 461.5,-157.7 336.5,-157.7"/>
<polygon fill="none" stroke="#000000" points="336.5,-157.7 336.5,-180.7 461.5,-180.7 461.5,-157.7 336.5,-157.7"/>
<text text-anchor="start" x="341.5" y="-166.3" font-family="Helvetica,sans-Serif" font-weight="bold" font-size="11.00" fill="#000000">review_audit</text>
<text text-anchor="start" x="427.0219" y="-165.8" font-family="Helvetica,sans-Serif" font-size="11.00" fill="#000000">[table]</text>
<polygon fill="none" stroke="#000000" points="336.5,-138.7 336.5,-157.7 461.5,-157.7 461.5,-138.7 336.5,-138.7"/>
<text text-anchor="start" x="339.5" y="-144.8" font-family="Helvetica,sans-Serif" font-size="11.00" fill="#000000">...</text>
<polygon fill="#ffffff" stroke="transparent" points="336.5,-119.7 336.5,-138.7 397.5,-138.7 397.5,-119.7 336.5,-119.7"/>
<polygon fill="none" stroke="#000000" points="336.5,-119.7 336.5,-138.7 397.5,-138.7 397.5,-119.7 336.5,-119.7"/>
<text text-anchor="start" x="339.5" y="-125.8" font-family="Helvetica,sans-Serif" font-size="11.00" fill="#000000">&lt; 1</text>
<polygon fill="#ffffff" stroke="transparent" points="397.5,-119.7 397.5,-138.7 429.5,-138.7 429.5,-119.7 397.5,-119.7"/>
<polygon fill="none" stroke="#000000" points="397.5,-119.7 397.5,-138.7 429.5,-138.7 429.5,-119.7 397.5,-119.7"/>
<text text-anchor="start" x="420.3862" y="-125.8" font-family="Helvetica,sans-Serif" font-size="11.00" fill="#000000"> &#160;</text>
<polygon fill="#ffffff" stroke="transparent" points="429.5,-119.7 429.5,-138.7 461.5,-138.7 461.5,-119.7 429.5,-119.7"/>
<polygon fill="none" stroke="#000000" points="429.5,-119.7 429.5,-138.7 461.5,-138.7 461.5,-119.7 429.5,-119.7"/>
<text text-anchor="start" x="452.3862" y="-125.8" font-family="Helvetica,sans-Serif" font-size="11.00" fill="#000000"> &#160;</text>
</a>
</g>
</g>
<!-- review_audit&#45;&gt;audit_revision -->
<g id="edge11" class="edge">
<title>review_audit:w&#45;&gt;audit_revision:e</title>
<path fill="none" stroke="#000000" d="M322.0091,-147.7117C274.051,-147.9023 247.711,-150.7843 215,-191.7 169.5438,-248.5577 246.7947,-516.7 174,-516.7"/>
<polygon fill="#000000" stroke="#000000" points="328.5,-147.7065 336.5029,-151.3 332.5,-147.7033 336.5,-147.7 336.5,-147.7 336.5,-147.7 332.5,-147.7033 336.4971,-144.1 328.5,-147.7065 328.5,-147.7065"/>
<ellipse fill="none" stroke="#000000" cx="325.3" cy="-147.7091" rx="3.2" ry="3.2"/>
</g>
<!-- safer_custody_screening_outcome_audit -->
<g id="node13" class="node">
<title>safer_custody_screening_outcome_audit</title>
<g id="a_node13"><a xlink:href="../../tables/safer_custody_screening_outcome_audit.html" xlink:title="safer_custody_screening_outcome_audit" target="_top">
<polygon fill="#ffffff" stroke="transparent" points="243.5,-38.2 243.5,-99.2 553.5,-99.2 553.5,-38.2 243.5,-38.2"/>
<polygon fill="#f5f5f5" stroke="transparent" points="243.5,-75.7 243.5,-98.7 553.5,-98.7 553.5,-75.7 243.5,-75.7"/>
<polygon fill="none" stroke="#000000" points="243.5,-75.7 243.5,-98.7 553.5,-98.7 553.5,-75.7 243.5,-75.7"/>
<text text-anchor="start" x="248.5" y="-84.3" font-family="Helvetica,sans-Serif" font-weight="bold" font-size="11.00" fill="#000000">safer_custody_screening_outcome_audit</text>
<text text-anchor="start" x="519.0219" y="-83.8" font-family="Helvetica,sans-Serif" font-size="11.00" fill="#000000">[table]</text>
<polygon fill="none" stroke="#000000" points="243.5,-56.7 243.5,-75.7 553.5,-75.7 553.5,-56.7 243.5,-56.7"/>
<text text-anchor="start" x="246.5" y="-62.8" font-family="Helvetica,sans-Serif" font-size="11.00" fill="#000000">...</text>
<polygon fill="#ffffff" stroke="transparent" points="243.5,-37.7 243.5,-56.7 396.5,-56.7 396.5,-37.7 243.5,-37.7"/>
<polygon fill="none" stroke="#000000" points="243.5,-37.7 243.5,-56.7 396.5,-56.7 396.5,-37.7 243.5,-37.7"/>
<text text-anchor="start" x="246.5" y="-43.8" font-family="Helvetica,sans-Serif" font-size="11.00" fill="#000000">&lt; 1</text>
<polygon fill="#ffffff" stroke="transparent" points="396.5,-37.7 396.5,-56.7 474.5,-56.7 474.5,-37.7 396.5,-37.7"/>
<polygon fill="none" stroke="#000000" points="396.5,-37.7 396.5,-56.7 474.5,-56.7 474.5,-37.7 396.5,-37.7"/>
<text text-anchor="start" x="465.3862" y="-43.8" font-family="Helvetica,sans-Serif" font-size="11.00" fill="#000000"> &#160;</text>
<polygon fill="#ffffff" stroke="transparent" points="474.5,-37.7 474.5,-56.7 553.5,-56.7 553.5,-37.7 474.5,-37.7"/>
<polygon fill="none" stroke="#000000" points="474.5,-37.7 474.5,-56.7 553.5,-56.7 553.5,-37.7 474.5,-37.7"/>
<text text-anchor="start" x="544.3862" y="-43.8" font-family="Helvetica,sans-Serif" font-size="11.00" fill="#000000"> &#160;</text>
</a>
</g>
</g>
<!-- safer_custody_screening_outcome_audit&#45;&gt;audit_revision -->
<g id="edge12" class="edge">
<title>safer_custody_screening_outcome_audit:w&#45;&gt;audit_revision:e</title>
<path fill="none" stroke="#000000" d="M229.3467,-69.3303C155.5021,-112.0122 270.0577,-516.7 174,-516.7"/>
<polygon fill="#000000" stroke="#000000" points="235.7509,-67.6877 244.3945,-69.1871 239.6254,-66.6938 243.5,-65.7 243.5,-65.7 243.5,-65.7 239.6254,-66.6938 242.6055,-62.2129 235.7509,-67.6877 235.7509,-67.6877"/>
<ellipse fill="none" stroke="#000000" cx="232.6512" cy="-68.4828" rx="3.2" ry="3.2"/>
</g>
</g>
</svg>
