<?xml version="1.0" encoding="UTF-8" standalone="no"?>
<!DOCTYPE svg PUBLIC "-//W3C//DTD SVG 1.1//EN"
 "http://www.w3.org/Graphics/SVG/1.1/DTD/svg11.dtd">
<!-- Generated by graphviz version 2.40.1 (20161225.0304)
 -->
<!-- Title: twoDegreesRelationshipsDiagramImplied Pages: 1 -->
<svg width="1459pt" height="1498pt"
 viewBox="0.00 0.00 1459.00 1498.37" xmlns="http://www.w3.org/2000/svg" xmlns:xlink="http://www.w3.org/1999/xlink">
<g id="graph0" class="graph" transform="scale(1 1) rotate(0) translate(4 1494.3742)">
<title>twoDegreesRelationshipsDiagramImplied</title>
<polygon fill="#ffffff" stroke="transparent" points="-4,4 -4,-1494.3742 1455,-1494.3742 1455,4 -4,4"/>
<text text-anchor="middle" x="72.4936" y="-7.3" font-family="Helvetica,sans-Serif" font-size="11.00" fill="#000000">Generated by SchemaSpy</text>
<!-- attendee -->
<g id="node1" class="node">
<title>attendee</title>
<g id="a_node1"><a xlink:href="../../tables/attendee.html" xlink:title="attendee" target="_top">
<polygon fill="#ffffff" stroke="transparent" points="666.5,-787.3742 666.5,-848.3742 766.5,-848.3742 766.5,-787.3742 666.5,-787.3742"/>
<polygon fill="#f5f5f5" stroke="transparent" points="666.5,-824.8742 666.5,-847.8742 766.5,-847.8742 766.5,-824.8742 666.5,-824.8742"/>
<polygon fill="none" stroke="#000000" points="666.5,-824.8742 666.5,-847.8742 766.5,-847.8742 766.5,-824.8742 666.5,-824.8742"/>
<text text-anchor="start" x="671.5" y="-833.4742" font-family="Helvetica,sans-Serif" font-weight="bold" font-size="11.00" fill="#000000">attendee</text>
<text text-anchor="start" x="732.0219" y="-832.9742" font-family="Helvetica,sans-Serif" font-size="11.00" fill="#000000">[table]</text>
<polygon fill="none" stroke="#000000" points="666.5,-805.8742 666.5,-824.8742 766.5,-824.8742 766.5,-805.8742 666.5,-805.8742"/>
<text text-anchor="start" x="669.5" y="-811.9742" font-family="Helvetica,sans-Serif" font-size="11.00" fill="#000000">...</text>
<polygon fill="#ffffff" stroke="transparent" points="666.5,-786.8742 666.5,-805.8742 714.5,-805.8742 714.5,-786.8742 666.5,-786.8742"/>
<polygon fill="none" stroke="#000000" points="666.5,-786.8742 666.5,-805.8742 714.5,-805.8742 714.5,-786.8742 666.5,-786.8742"/>
<text text-anchor="start" x="669.5" y="-792.9742" font-family="Helvetica,sans-Serif" font-size="11.00" fill="#000000">&lt; 2</text>
<polygon fill="#ffffff" stroke="transparent" points="714.5,-786.8742 714.5,-805.8742 740.5,-805.8742 740.5,-786.8742 714.5,-786.8742"/>
<polygon fill="none" stroke="#000000" points="714.5,-786.8742 714.5,-805.8742 740.5,-805.8742 740.5,-786.8742 714.5,-786.8742"/>
<text text-anchor="start" x="731.3862" y="-792.9742" font-family="Helvetica,sans-Serif" font-size="11.00" fill="#000000"> &#160;</text>
<polygon fill="#ffffff" stroke="transparent" points="740.5,-786.8742 740.5,-805.8742 766.5,-805.8742 766.5,-786.8742 740.5,-786.8742"/>
<polygon fill="none" stroke="#000000" points="740.5,-786.8742 740.5,-805.8742 766.5,-805.8742 766.5,-786.8742 740.5,-786.8742"/>
<text text-anchor="start" x="757.3862" y="-792.9742" font-family="Helvetica,sans-Serif" font-size="11.00" fill="#000000"> &#160;</text>
</a>
</g>
</g>
<!-- audit_revision -->
<g id="node2" class="node">
<title>audit_revision</title>
<g id="a_node2"><a xlink:href="../../tables/audit_revision.html" xlink:title="audit_revision" target="_top">
<polygon fill="#ffffff" stroke="transparent" points="8,-860.3742 8,-943.3742 174,-943.3742 174,-860.3742 8,-860.3742"/>
<polygon fill="#f5f5f5" stroke="transparent" points="8,-919.8742 8,-942.8742 174,-942.8742 174,-919.8742 8,-919.8742"/>
<polygon fill="none" stroke="#000000" points="8,-919.8742 8,-942.8742 174,-942.8742 174,-919.8742 8,-919.8742"/>
<text text-anchor="start" x="13" y="-928.4742" font-family="Helvetica,sans-Serif" font-weight="bold" font-size="11.00" fill="#000000">audit_revision</text>
<text text-anchor="start" x="139.0437" y="-927.9742" font-family="Helvetica,sans-Serif" font-size="11.00" fill="#000000">[table]</text>
<polygon fill="none" stroke="#000000" points="8,-897.8742 8,-919.8742 174,-919.8742 174,-897.8742 8,-897.8742"/>
<image xlink:href="../../images/primaryKeys.png" width="11px" height="12px" preserveAspectRatio="xMinYMin meet" x="13" y="-914.874"/>
<text text-anchor="start" x="28" y="-904.9742" font-family="Helvetica,sans-Serif" font-size="11.00" fill="#000000">id</text>
<polygon fill="none" stroke="#000000" points="8,-878.8742 8,-897.8742 174,-897.8742 174,-878.8742 8,-878.8742"/>
<text text-anchor="start" x="11" y="-884.9742" font-family="Helvetica,sans-Serif" font-size="11.00" fill="#000000">...</text>
<polygon fill="#ffffff" stroke="transparent" points="8,-859.8742 8,-878.8742 77,-878.8742 77,-859.8742 8,-859.8742"/>
<polygon fill="none" stroke="#000000" points="8,-859.8742 8,-878.8742 77,-878.8742 77,-859.8742 8,-859.8742"/>
<text text-anchor="start" x="11" y="-865.9742" font-family="Helvetica,sans-Serif" font-size="11.00" fill="#000000"> &#160;</text>
<polygon fill="#ffffff" stroke="transparent" points="77,-859.8742 77,-878.8742 118,-878.8742 118,-859.8742 77,-859.8742"/>
<polygon fill="none" stroke="#000000" points="77,-859.8742 77,-878.8742 118,-878.8742 118,-859.8742 77,-859.8742"/>
<text text-anchor="start" x="108.8862" y="-865.9742" font-family="Helvetica,sans-Serif" font-size="11.00" fill="#000000"> &#160;</text>
<polygon fill="#ffffff" stroke="transparent" points="118,-859.8742 118,-878.8742 174,-878.8742 174,-859.8742 118,-859.8742"/>
<polygon fill="none" stroke="#000000" points="118,-859.8742 118,-878.8742 174,-878.8742 174,-859.8742 118,-859.8742"/>
<text text-anchor="start" x="149.2904" y="-865.9742" font-family="Helvetica,sans-Serif" font-size="11.00" fill="#000000">32 &gt;</text>
</a>
</g>
</g>
<!-- attendee&#45;&gt;audit_revision -->
<g id="edge1" class="edge">
<title>attendee:w&#45;&gt;audit_revision:e</title>
<path fill="none" stroke="#000000" stroke-dasharray="5,2" d="M656.0695,-814.9313C579.347,-815.626 256.1371,-822.8463 215,-846.8742 186.4739,-863.5361 207.0357,-908.8742 174,-908.8742"/>
<polygon fill="#000000" stroke="#000000" points="665.6781,-810.8787 665.722,-818.8785 664.122,-818.8873 664.0781,-810.8874 665.6781,-810.8787"/>
<polyline fill="none" stroke="#000000" points="666.5,-814.8742 662.5001,-814.8962 "/>
<ellipse fill="none" stroke="#000000" cx="659.3001" cy="-814.9137" rx="3.2" ry="3.2"/>
</g>
<!-- review -->
<g id="node3" class="node">
<title>review</title>
<g id="a_node3"><a xlink:href="../../tables/review.html" xlink:title="review" target="_top">
<polygon fill="#ffffff" stroke="transparent" points="336,-744.3742 336,-805.3742 420,-805.3742 420,-744.3742 336,-744.3742"/>
<polygon fill="#f5f5f5" stroke="transparent" points="336,-781.8742 336,-804.8742 420,-804.8742 420,-781.8742 336,-781.8742"/>
<polygon fill="none" stroke="#000000" points="336,-781.8742 336,-804.8742 420,-804.8742 420,-781.8742 336,-781.8742"/>
<text text-anchor="start" x="341" y="-790.4742" font-family="Helvetica,sans-Serif" font-weight="bold" font-size="11.00" fill="#000000">review</text>
<text text-anchor="start" x="385.5219" y="-789.9742" font-family="Helvetica,sans-Serif" font-size="11.00" fill="#000000">[table]</text>
<polygon fill="none" stroke="#000000" points="336,-762.8742 336,-781.8742 420,-781.8742 420,-762.8742 336,-762.8742"/>
<text text-anchor="start" x="339" y="-768.9742" font-family="Helvetica,sans-Serif" font-size="11.00" fill="#000000">...</text>
<polygon fill="#ffffff" stroke="transparent" points="336,-743.8742 336,-762.8742 372,-762.8742 372,-743.8742 336,-743.8742"/>
<polygon fill="none" stroke="#000000" points="336,-743.8742 336,-762.8742 372,-762.8742 372,-743.8742 336,-743.8742"/>
<text text-anchor="start" x="339" y="-749.9742" font-family="Helvetica,sans-Serif" font-size="11.00" fill="#000000">&lt; 2</text>
<polygon fill="#ffffff" stroke="transparent" points="372,-743.8742 372,-762.8742 391,-762.8742 391,-743.8742 372,-743.8742"/>
<polygon fill="none" stroke="#000000" points="372,-743.8742 372,-762.8742 391,-762.8742 391,-743.8742 372,-743.8742"/>
<text text-anchor="start" x="381.8862" y="-749.9742" font-family="Helvetica,sans-Serif" font-size="11.00" fill="#000000"> &#160;</text>
<polygon fill="#ffffff" stroke="transparent" points="391,-743.8742 391,-762.8742 420,-762.8742 420,-743.8742 391,-743.8742"/>
<polygon fill="none" stroke="#000000" points="391,-743.8742 391,-762.8742 420,-762.8742 420,-743.8742 391,-743.8742"/>
<text text-anchor="start" x="401.4053" y="-749.9742" font-family="Helvetica,sans-Serif" font-size="11.00" fill="#000000">2 &gt;</text>
</a>
</g>
</g>
<!-- attendee&#45;&gt;review -->
<g id="edge2" class="edge">
<title>attendee:w&#45;&gt;review:e</title>
<path fill="none" stroke="#000000" d="M652.0244,-814.6217C552.9508,-811.0977 526.2142,-771.8742 420,-771.8742"/>
<polygon fill="#000000" stroke="#000000" points="658.5012,-814.7346 666.4372,-818.4737 662.5006,-814.8044 666.5,-814.8742 666.5,-814.8742 666.5,-814.8742 662.5006,-814.8044 666.5628,-811.2748 658.5012,-814.7346 658.5012,-814.7346"/>
<ellipse fill="none" stroke="#000000" cx="655.3017" cy="-814.6788" rx="3.2" ry="3.2"/>
</g>
<!-- review&#45;&gt;audit_revision -->
<g id="edge46" class="edge">
<title>review:w&#45;&gt;audit_revision:e</title>
<path fill="none" stroke="#000000" stroke-dasharray="5,2" d="M325.5684,-771.9761C275.4207,-773.0239 254.3748,-782.5718 215,-819.8742 183.384,-849.8262 217.551,-908.8742 174,-908.8742"/>
<polygon fill="#000000" stroke="#000000" points="335.1609,-767.8822 335.2392,-775.8818 333.6392,-775.8975 333.561,-767.8979 335.1609,-767.8822"/>
<polyline fill="none" stroke="#000000" points="336,-771.8742 332.0002,-771.9133 "/>
<ellipse fill="none" stroke="#000000" cx="328.8003" cy="-771.9446" rx="3.2" ry="3.2"/>
</g>
<!-- attendee_audit -->
<g id="node4" class="node">
<title>attendee_audit</title>
<g id="a_node4"><a xlink:href="../../tables/attendee_audit.html" xlink:title="attendee_audit" target="_top">
<polygon fill="#ffffff" stroke="transparent" points="646,-705.3742 646,-766.3742 787,-766.3742 787,-705.3742 646,-705.3742"/>
<polygon fill="#f5f5f5" stroke="transparent" points="646.5,-742.8742 646.5,-765.8742 787.5,-765.8742 787.5,-742.8742 646.5,-742.8742"/>
<polygon fill="none" stroke="#000000" points="646.5,-742.8742 646.5,-765.8742 787.5,-765.8742 787.5,-742.8742 646.5,-742.8742"/>
<text text-anchor="start" x="651.5" y="-751.4742" font-family="Helvetica,sans-Serif" font-weight="bold" font-size="11.00" fill="#000000">attendee_audit</text>
<text text-anchor="start" x="753.0219" y="-750.9742" font-family="Helvetica,sans-Serif" font-size="11.00" fill="#000000">[table]</text>
<polygon fill="none" stroke="#000000" points="646.5,-723.8742 646.5,-742.8742 787.5,-742.8742 787.5,-723.8742 646.5,-723.8742"/>
<text text-anchor="start" x="649.5" y="-729.9742" font-family="Helvetica,sans-Serif" font-size="11.00" fill="#000000">...</text>
<polygon fill="#ffffff" stroke="transparent" points="646.5,-704.8742 646.5,-723.8742 715.5,-723.8742 715.5,-704.8742 646.5,-704.8742"/>
<polygon fill="none" stroke="#000000" points="646.5,-704.8742 646.5,-723.8742 715.5,-723.8742 715.5,-704.8742 646.5,-704.8742"/>
<text text-anchor="start" x="649.5" y="-710.9742" font-family="Helvetica,sans-Serif" font-size="11.00" fill="#000000">&lt; 3</text>
<polygon fill="#ffffff" stroke="transparent" points="715.5,-704.8742 715.5,-723.8742 751.5,-723.8742 751.5,-704.8742 715.5,-704.8742"/>
<polygon fill="none" stroke="#000000" points="715.5,-704.8742 715.5,-723.8742 751.5,-723.8742 751.5,-704.8742 715.5,-704.8742"/>
<text text-anchor="start" x="742.3862" y="-710.9742" font-family="Helvetica,sans-Serif" font-size="11.00" fill="#000000"> &#160;</text>
<polygon fill="#ffffff" stroke="transparent" points="751.5,-704.8742 751.5,-723.8742 787.5,-723.8742 787.5,-704.8742 751.5,-704.8742"/>
<polygon fill="none" stroke="#000000" points="751.5,-704.8742 751.5,-723.8742 787.5,-723.8742 787.5,-704.8742 751.5,-704.8742"/>
<text text-anchor="start" x="778.3862" y="-710.9742" font-family="Helvetica,sans-Serif" font-size="11.00" fill="#000000"> &#160;</text>
</a>
</g>
</g>
<!-- attendee_audit&#45;&gt;audit_revision -->
<g id="edge3" class="edge">
<title>attendee_audit:w&#45;&gt;audit_revision:e</title>
<path fill="none" stroke="#000000" stroke-dasharray="5,2" d="M631.9663,-732.5058C526.5928,-727.635 286.5523,-677.013 215,-733.8742 152.4593,-783.5742 253.8839,-908.8742 174,-908.8742"/>
<polygon fill="#000000" stroke="#000000" points="638.5026,-732.6714 646.4087,-736.4731 642.5013,-732.7728 646.5,-732.8742 646.5,-732.8742 646.5,-732.8742 642.5013,-732.7728 646.5913,-729.2754 638.5026,-732.6714 638.5026,-732.6714"/>
<ellipse fill="none" stroke="#000000" cx="635.3036" cy="-732.5903" rx="3.2" ry="3.2"/>
</g>
<!-- attendee_audit&#45;&gt;audit_revision -->
<g id="edge4" class="edge">
<title>attendee_audit:w&#45;&gt;audit_revision:e</title>
<path fill="none" stroke="#000000" d="M631.9648,-732.5303C526.5767,-727.9872 286.4407,-680.8634 215,-737.8742 153.9129,-786.6227 252.154,-908.8742 174,-908.8742"/>
<polygon fill="#000000" stroke="#000000" points="638.5022,-732.6849 646.4148,-736.4732 642.5011,-732.7796 646.5,-732.8742 646.5,-732.8742 646.5,-732.8742 642.5011,-732.7796 646.5852,-729.2752 638.5022,-732.6849 638.5022,-732.6849"/>
<ellipse fill="none" stroke="#000000" cx="635.3031" cy="-732.6092" rx="3.2" ry="3.2"/>
</g>
<!-- attendee_audit&#45;&gt;review -->
<g id="edge5" class="edge">
<title>attendee_audit:w&#45;&gt;review:e</title>
<path fill="none" stroke="#000000" stroke-dasharray="5,2" d="M632.0901,-733.1441C541.993,-736.5898 517.1603,-771.8742 420,-771.8742"/>
<polygon fill="#000000" stroke="#000000" points="638.5014,-733.0241 646.5674,-736.4736 642.5007,-732.9491 646.5,-732.8742 646.5,-732.8742 646.5,-732.8742 642.5007,-732.9491 646.4326,-729.2748 638.5014,-733.0241 638.5014,-733.0241"/>
<ellipse fill="none" stroke="#000000" cx="635.302" cy="-733.084" rx="3.2" ry="3.2"/>
</g>
<!-- contributory_factor -->
<g id="node5" class="node">
<title>contributory_factor</title>
<g id="a_node5"><a xlink:href="../../tables/contributory_factor.html" xlink:title="contributory_factor" target="_top">
<polygon fill="#ffffff" stroke="transparent" points="991,-380.3742 991,-441.3742 1160,-441.3742 1160,-380.3742 991,-380.3742"/>
<polygon fill="#f5f5f5" stroke="transparent" points="991.5,-417.8742 991.5,-440.8742 1160.5,-440.8742 1160.5,-417.8742 991.5,-417.8742"/>
<polygon fill="none" stroke="#000000" points="991.5,-417.8742 991.5,-440.8742 1160.5,-440.8742 1160.5,-417.8742 991.5,-417.8742"/>
<text text-anchor="start" x="996.5" y="-426.4742" font-family="Helvetica,sans-Serif" font-weight="bold" font-size="11.00" fill="#000000">contributory_factor</text>
<text text-anchor="start" x="1126.0219" y="-425.9742" font-family="Helvetica,sans-Serif" font-size="11.00" fill="#000000">[table]</text>
<polygon fill="none" stroke="#000000" points="991.5,-398.8742 991.5,-417.8742 1160.5,-417.8742 1160.5,-398.8742 991.5,-398.8742"/>
<text text-anchor="start" x="994.5" y="-404.9742" font-family="Helvetica,sans-Serif" font-size="11.00" fill="#000000">...</text>
<polygon fill="#ffffff" stroke="transparent" points="991.5,-379.8742 991.5,-398.8742 1074.5,-398.8742 1074.5,-379.8742 991.5,-379.8742"/>
<polygon fill="none" stroke="#000000" points="991.5,-379.8742 991.5,-398.8742 1074.5,-398.8742 1074.5,-379.8742 991.5,-379.8742"/>
<text text-anchor="start" x="994.5" y="-385.9742" font-family="Helvetica,sans-Serif" font-size="11.00" fill="#000000">&lt; 3</text>
<polygon fill="#ffffff" stroke="transparent" points="1074.5,-379.8742 1074.5,-398.8742 1117.5,-398.8742 1117.5,-379.8742 1074.5,-379.8742"/>
<polygon fill="none" stroke="#000000" points="1074.5,-379.8742 1074.5,-398.8742 1117.5,-398.8742 1117.5,-379.8742 1074.5,-379.8742"/>
<text text-anchor="start" x="1108.3862" y="-385.9742" font-family="Helvetica,sans-Serif" font-size="11.00" fill="#000000"> &#160;</text>
<polygon fill="#ffffff" stroke="transparent" points="1117.5,-379.8742 1117.5,-398.8742 1160.5,-398.8742 1160.5,-379.8742 1117.5,-379.8742"/>
<polygon fill="none" stroke="#000000" points="1117.5,-379.8742 1117.5,-398.8742 1160.5,-398.8742 1160.5,-379.8742 1117.5,-379.8742"/>
<text text-anchor="start" x="1151.3862" y="-385.9742" font-family="Helvetica,sans-Serif" font-size="11.00" fill="#000000"> &#160;</text>
</a>
</g>
</g>
<!-- contributory_factor&#45;&gt;audit_revision -->
<g id="edge7" class="edge">
<title>contributory_factor:w&#45;&gt;audit_revision:e</title>
<path fill="none" stroke="#000000" stroke-dasharray="5,2" d="M981.0222,-407.9897C770.9029,-412.6691 750.4431,-558.3136 541,-612.8742 470.6552,-631.1993 268.1343,-590.2663 215,-639.8742 170.801,-681.1398 234.4681,-908.8742 174,-908.8742"/>
<polygon fill="#000000" stroke="#000000" points="990.6559,-403.8833 990.7442,-411.8828 989.1443,-411.9004 989.056,-403.9009 990.6559,-403.8833"/>
<polyline fill="none" stroke="#000000" points="991.5,-407.8742 987.5002,-407.9183 "/>
<ellipse fill="none" stroke="#000000" cx="984.3004" cy="-407.9536" rx="3.2" ry="3.2"/>
</g>
<!-- reference_data -->
<g id="node6" class="node">
<title>reference_data</title>
<g id="a_node6"><a xlink:href="../../tables/reference_data.html" xlink:title="reference_data" target="_top">
<polygon fill="#ffffff" stroke="transparent" points="21,-203.3742 21,-264.3742 161,-264.3742 161,-203.3742 21,-203.3742"/>
<polygon fill="#f5f5f5" stroke="transparent" points="21,-240.8742 21,-263.8742 161,-263.8742 161,-240.8742 21,-240.8742"/>
<polygon fill="none" stroke="#000000" points="21,-240.8742 21,-263.8742 161,-263.8742 161,-240.8742 21,-240.8742"/>
<text text-anchor="start" x="26" y="-249.4742" font-family="Helvetica,sans-Serif" font-weight="bold" font-size="11.00" fill="#000000">reference_data</text>
<text text-anchor="start" x="126.5219" y="-248.9742" font-family="Helvetica,sans-Serif" font-size="11.00" fill="#000000">[table]</text>
<polygon fill="none" stroke="#000000" points="21,-221.8742 21,-240.8742 161,-240.8742 161,-221.8742 21,-221.8742"/>
<text text-anchor="start" x="24" y="-227.9742" font-family="Helvetica,sans-Serif" font-size="11.00" fill="#000000">...</text>
<polygon fill="#ffffff" stroke="transparent" points="21,-202.8742 21,-221.8742 58,-221.8742 58,-202.8742 21,-202.8742"/>
<polygon fill="none" stroke="#000000" points="21,-202.8742 21,-221.8742 58,-221.8742 58,-202.8742 21,-202.8742"/>
<text text-anchor="start" x="24" y="-208.9742" font-family="Helvetica,sans-Serif" font-size="11.00" fill="#000000"> &#160;</text>
<polygon fill="#ffffff" stroke="transparent" points="58,-202.8742 58,-221.8742 121,-221.8742 121,-202.8742 58,-202.8742"/>
<polygon fill="none" stroke="#000000" points="58,-202.8742 58,-221.8742 121,-221.8742 121,-202.8742 58,-202.8742"/>
<text text-anchor="start" x="73.3807" y="-208.9742" font-family="Helvetica,sans-Serif" font-size="11.00" fill="#000000">122 rows</text>
<polygon fill="#ffffff" stroke="transparent" points="121,-202.8742 121,-221.8742 161,-221.8742 161,-202.8742 121,-202.8742"/>
<polygon fill="none" stroke="#000000" points="121,-202.8742 121,-221.8742 161,-221.8742 161,-202.8742 121,-202.8742"/>
<text text-anchor="start" x="136.2904" y="-208.9742" font-family="Helvetica,sans-Serif" font-size="11.00" fill="#000000">10 &gt;</text>
</a>
</g>
</g>
<!-- contributory_factor&#45;&gt;reference_data -->
<g id="edge6" class="edge">
<title>contributory_factor:w&#45;&gt;reference_data:e</title>
<path fill="none" stroke="#000000" d="M976.7339,-408.0877C850.5537,-411.0336 281.3768,-442.7252 215,-393.8742 153.5353,-348.6384 237.3164,-230.8742 161,-230.8742"/>
<polygon fill="#000000" stroke="#000000" points="983.5008,-407.9899 991.5521,-411.4738 987.5004,-407.9321 991.5,-407.8742 991.5,-407.8742 991.5,-407.8742 987.5004,-407.9321 991.4479,-404.2746 983.5008,-407.9899 983.5008,-407.9899"/>
<ellipse fill="none" stroke="#000000" cx="980.3012" cy="-408.0362" rx="3.2" ry="3.2"/>
</g>
<!-- referral -->
<g id="node7" class="node">
<title>referral</title>
<g id="a_node7"><a xlink:href="../../tables/referral.html" xlink:title="referral" target="_top">
<polygon fill="#ffffff" stroke="transparent" points="582,-190.3742 582,-383.3742 851,-383.3742 851,-190.3742 582,-190.3742"/>
<polygon fill="#f5f5f5" stroke="transparent" points="582.5,-359.8742 582.5,-382.8742 851.5,-382.8742 851.5,-359.8742 582.5,-359.8742"/>
<polygon fill="none" stroke="#000000" points="582.5,-359.8742 582.5,-382.8742 851.5,-382.8742 851.5,-359.8742 582.5,-359.8742"/>
<text text-anchor="start" x="587.5" y="-368.4742" font-family="Helvetica,sans-Serif" font-weight="bold" font-size="11.00" fill="#000000">referral</text>
<text text-anchor="start" x="816.5437" y="-367.9742" font-family="Helvetica,sans-Serif" font-size="11.00" fill="#000000">[table]</text>
<polygon fill="none" stroke="#000000" points="582.5,-337.8742 582.5,-359.8742 851.5,-359.8742 851.5,-337.8742 582.5,-337.8742"/>
<image xlink:href="../../images/primaryKeys.png" width="11px" height="12px" preserveAspectRatio="xMinYMin meet" x="587.5" y="-354.874"/>
<text text-anchor="start" x="602.5" y="-344.9742" font-family="Helvetica,sans-Serif" font-size="11.00" fill="#000000">referral_id</text>
<polygon fill="#ffffff" stroke="transparent" points="582.5,-315.8742 582.5,-337.8742 851.5,-337.8742 851.5,-315.8742 582.5,-315.8742"/>
<polygon fill="none" stroke="#000000" points="582.5,-315.8742 582.5,-337.8742 851.5,-337.8742 851.5,-315.8742 582.5,-315.8742"/>
<image xlink:href="../../images/foreignKeys.png" width="11px" height="12px" preserveAspectRatio="xMinYMin meet" x="587.5" y="-332.874"/>
<text text-anchor="start" x="602.5" y="-322.9742" font-family="Helvetica,sans-Serif" font-size="11.00" fill="#000000">incident_type_id</text>
<polygon fill="#ffffff" stroke="transparent" points="582.5,-293.8742 582.5,-315.8742 851.5,-315.8742 851.5,-293.8742 582.5,-293.8742"/>
<polygon fill="none" stroke="#000000" points="582.5,-293.8742 582.5,-315.8742 851.5,-315.8742 851.5,-293.8742 582.5,-293.8742"/>
<image xlink:href="../../images/foreignKeys.png" width="11px" height="12px" preserveAspectRatio="xMinYMin meet" x="587.5" y="-310.874"/>
<text text-anchor="start" x="602.5" y="-300.9742" font-family="Helvetica,sans-Serif" font-size="11.00" fill="#000000">incident_location_id</text>
<polygon fill="#ffffff" stroke="transparent" points="582.5,-271.8742 582.5,-293.8742 851.5,-293.8742 851.5,-271.8742 582.5,-271.8742"/>
<polygon fill="none" stroke="#000000" points="582.5,-271.8742 582.5,-293.8742 851.5,-293.8742 851.5,-271.8742 582.5,-271.8742"/>
<image xlink:href="../../images/foreignKeys.png" width="11px" height="12px" preserveAspectRatio="xMinYMin meet" x="587.5" y="-288.874"/>
<text text-anchor="start" x="602.5" y="-278.9742" font-family="Helvetica,sans-Serif" font-size="11.00" fill="#000000">referer_area_of_work_id</text>
<polygon fill="#ffffff" stroke="transparent" points="582.5,-249.8742 582.5,-271.8742 851.5,-271.8742 851.5,-249.8742 582.5,-249.8742"/>
<polygon fill="none" stroke="#000000" points="582.5,-249.8742 582.5,-271.8742 851.5,-271.8742 851.5,-249.8742 582.5,-249.8742"/>
<text text-anchor="start" x="602.5" y="-256.9742" font-family="Helvetica,sans-Serif" font-size="11.00" fill="#000000">referral_date</text>
<polygon fill="#ffffff" stroke="transparent" points="582.5,-227.8742 582.5,-249.8742 851.5,-249.8742 851.5,-227.8742 582.5,-227.8742"/>
<polygon fill="none" stroke="#000000" points="582.5,-227.8742 582.5,-249.8742 851.5,-249.8742 851.5,-227.8742 582.5,-227.8742"/>
<image xlink:href="../../images/foreignKeys.png" width="11px" height="12px" preserveAspectRatio="xMinYMin meet" x="587.5" y="-244.874"/>
<text text-anchor="start" x="602.5" y="-234.9742" font-family="Helvetica,sans-Serif" font-size="11.00" fill="#000000">incident_involvement_id</text>
<polygon fill="none" stroke="#000000" points="582.5,-208.8742 582.5,-227.8742 851.5,-227.8742 851.5,-208.8742 582.5,-208.8742"/>
<text text-anchor="start" x="585.5" y="-214.9742" font-family="Helvetica,sans-Serif" font-size="11.00" fill="#000000">...</text>
<polygon fill="#ffffff" stroke="transparent" points="582.5,-189.8742 582.5,-208.8742 710.5,-208.8742 710.5,-189.8742 582.5,-189.8742"/>
<polygon fill="none" stroke="#000000" points="582.5,-189.8742 582.5,-208.8742 710.5,-208.8742 710.5,-189.8742 582.5,-189.8742"/>
<text text-anchor="start" x="585.5" y="-195.9742" font-family="Helvetica,sans-Serif" font-size="11.00" fill="#000000">&lt; 5</text>
<polygon fill="#ffffff" stroke="transparent" points="710.5,-189.8742 710.5,-208.8742 776.5,-208.8742 776.5,-189.8742 710.5,-189.8742"/>
<polygon fill="none" stroke="#000000" points="710.5,-189.8742 710.5,-208.8742 776.5,-208.8742 776.5,-189.8742 710.5,-189.8742"/>
<text text-anchor="start" x="767.3862" y="-195.9742" font-family="Helvetica,sans-Serif" font-size="11.00" fill="#000000"> &#160;</text>
<polygon fill="#ffffff" stroke="transparent" points="776.5,-189.8742 776.5,-208.8742 851.5,-208.8742 851.5,-189.8742 776.5,-189.8742"/>
<polygon fill="none" stroke="#000000" points="776.5,-189.8742 776.5,-208.8742 851.5,-208.8742 851.5,-189.8742 776.5,-189.8742"/>
<text text-anchor="start" x="832.9053" y="-195.9742" font-family="Helvetica,sans-Serif" font-size="11.00" fill="#000000">5 &gt;</text>
</a>
</g>
</g>
<!-- contributory_factor&#45;&gt;referral -->
<g id="edge8" class="edge">
<title>contributory_factor:w&#45;&gt;referral:e</title>
<path fill="none" stroke="#000000" d="M976.7842,-407.183C941.6911,-403.644 930.2998,-387.0506 892,-369.8742 873.4994,-361.5772 871.7759,-348.8742 851.5,-348.8742"/>
<polygon fill="#000000" stroke="#000000" points="983.5088,-407.4988 991.3311,-411.4702 987.5044,-407.6865 991.5,-407.8742 991.5,-407.8742 991.5,-407.8742 987.5044,-407.6865 991.6689,-404.2782 983.5088,-407.4988 983.5088,-407.4988"/>
<ellipse fill="none" stroke="#000000" cx="980.3123" cy="-407.3487" rx="3.2" ry="3.2"/>
</g>
<!-- referral&#45;&gt;reference_data -->
<g id="edge36" class="edge">
<title>referral:w&#45;&gt;reference_data:e</title>
<path fill="none" stroke="#000000" d="M568.0855,-237.912C559.6622,-236.7006 553.6013,-234.6805 541,-233.8742 372.4505,-223.0893 329.8942,-230.8742 161,-230.8742"/>
<polygon fill="#000000" stroke="#000000" points="574.5178,-238.3413 582.2602,-242.4662 578.5089,-238.6078 582.5,-238.8742 582.5,-238.8742 582.5,-238.8742 578.5089,-238.6078 582.7398,-235.2822 574.5178,-238.3413 574.5178,-238.3413"/>
<ellipse fill="none" stroke="#000000" cx="571.3249" cy="-238.1282" rx="3.2" ry="3.2"/>
</g>
<!-- referral&#45;&gt;reference_data -->
<g id="edge37" class="edge">
<title>referral:w&#45;&gt;reference_data:e</title>
<path fill="none" stroke="#000000" d="M568.2249,-302.0426C559.6176,-298.1526 554.4405,-291.254 541,-287.8742 399.7234,-252.3487 356.0269,-290.3784 215,-253.8742 189.746,-247.3373 187.0863,-230.8742 161,-230.8742"/>
<polygon fill="#000000" stroke="#000000" points="574.6529,-303.3176 581.7995,-308.4054 578.5764,-304.0959 582.5,-304.8742 582.5,-304.8742 582.5,-304.8742 578.5764,-304.0959 583.2005,-301.343 574.6529,-303.3176 574.6529,-303.3176"/>
<ellipse fill="none" stroke="#000000" cx="571.514" cy="-302.695" rx="3.2" ry="3.2"/>
</g>
<!-- referral&#45;&gt;reference_data -->
<g id="edge38" class="edge">
<title>referral:w&#45;&gt;reference_data:e</title>
<path fill="none" stroke="#000000" d="M568.0386,-324.2604C559.5679,-320.8099 554.156,-314.8275 541,-311.8742 398.9916,-279.9959 347.8409,-340.3378 215,-280.8742 185.1463,-267.5108 193.7082,-230.8742 161,-230.8742"/>
<polygon fill="#000000" stroke="#000000" points="574.6276,-325.4513 581.8597,-330.4168 578.5638,-326.1627 582.5,-326.8742 582.5,-326.8742 582.5,-326.8742 578.5638,-326.1627 583.1403,-323.3316 574.6276,-325.4513 574.6276,-325.4513"/>
<ellipse fill="none" stroke="#000000" cx="571.4786" cy="-324.8821" rx="3.2" ry="3.2"/>
</g>
<!-- referral&#45;&gt;reference_data -->
<g id="edge39" class="edge">
<title>referral:w&#45;&gt;reference_data:e</title>
<path fill="none" stroke="#000000" d="M568.3923,-278.6992C559.4597,-272.2396 556.138,-260.0308 541,-254.8742 520.9766,-248.0535 182.1532,-230.8742 161,-230.8742"/>
<polygon fill="#000000" stroke="#000000" points="574.8289,-280.604 581.4784,-286.3262 578.6644,-281.7391 582.5,-282.8742 582.5,-282.8742 582.5,-282.8742 578.6644,-281.7391 583.5216,-279.4222 574.8289,-280.604 574.8289,-280.604"/>
<ellipse fill="none" stroke="#000000" cx="571.7604" cy="-279.6959" rx="3.2" ry="3.2"/>
</g>
<!-- csip_record -->
<g id="node9" class="node">
<title>csip_record</title>
<g id="a_node9"><a xlink:href="../../tables/csip_record.html" xlink:title="csip_record" target="_top">
<polygon fill="#ffffff" stroke="transparent" points="320.5,-322.3742 320.5,-383.3742 435.5,-383.3742 435.5,-322.3742 320.5,-322.3742"/>
<polygon fill="#f5f5f5" stroke="transparent" points="321,-359.8742 321,-382.8742 436,-382.8742 436,-359.8742 321,-359.8742"/>
<polygon fill="none" stroke="#000000" points="321,-359.8742 321,-382.8742 436,-382.8742 436,-359.8742 321,-359.8742"/>
<text text-anchor="start" x="326" y="-368.4742" font-family="Helvetica,sans-Serif" font-weight="bold" font-size="11.00" fill="#000000">csip_record</text>
<text text-anchor="start" x="401.5219" y="-367.9742" font-family="Helvetica,sans-Serif" font-size="11.00" fill="#000000">[table]</text>
<polygon fill="none" stroke="#000000" points="321,-340.8742 321,-359.8742 436,-359.8742 436,-340.8742 321,-340.8742"/>
<text text-anchor="start" x="324" y="-346.9742" font-family="Helvetica,sans-Serif" font-size="11.00" fill="#000000">...</text>
<polygon fill="#ffffff" stroke="transparent" points="321,-321.8742 321,-340.8742 372,-340.8742 372,-321.8742 321,-321.8742"/>
<polygon fill="none" stroke="#000000" points="321,-321.8742 321,-340.8742 372,-340.8742 372,-321.8742 321,-321.8742"/>
<text text-anchor="start" x="324" y="-327.9742" font-family="Helvetica,sans-Serif" font-size="11.00" fill="#000000">&lt; 3</text>
<polygon fill="#ffffff" stroke="transparent" points="372,-321.8742 372,-340.8742 399,-340.8742 399,-321.8742 372,-321.8742"/>
<polygon fill="none" stroke="#000000" points="372,-321.8742 372,-340.8742 399,-340.8742 399,-321.8742 372,-321.8742"/>
<text text-anchor="start" x="389.8862" y="-327.9742" font-family="Helvetica,sans-Serif" font-size="11.00" fill="#000000"> &#160;</text>
<polygon fill="#ffffff" stroke="transparent" points="399,-321.8742 399,-340.8742 436,-340.8742 436,-321.8742 399,-321.8742"/>
<polygon fill="none" stroke="#000000" points="399,-321.8742 399,-340.8742 436,-340.8742 436,-321.8742 399,-321.8742"/>
<text text-anchor="start" x="417.4053" y="-327.9742" font-family="Helvetica,sans-Serif" font-size="11.00" fill="#000000">2 &gt;</text>
</a>
</g>
</g>
<!-- referral&#45;&gt;csip_record -->
<g id="edge40" class="edge">
<title>referral:w&#45;&gt;csip_record:e</title>
<path fill="none" stroke="#000000" d="M571.8882,-348.8835C515.3871,-348.9843 497.4246,-349.8742 436,-349.8742"/>
<polygon fill="#000000" stroke="#000000" points="581.6965,-344.8749 581.7035,-352.8749 580.1035,-352.8763 580.0965,-344.8763 581.6965,-344.8749"/>
<polyline fill="none" stroke="#000000" points="582.5,-348.8742 578.5,-348.8777 "/>
<ellipse fill="none" stroke="#000000" cx="575.3" cy="-348.8806" rx="3.2" ry="3.2"/>
</g>
<!-- contributory_factor_audit -->
<g id="node8" class="node">
<title>contributory_factor_audit</title>
<g id="a_node8"><a xlink:href="../../tables/contributory_factor_audit.html" xlink:title="contributory_factor_audit" target="_top">
<polygon fill="#ffffff" stroke="transparent" points="900,-591.8742 900,-835.8742 1251,-835.8742 1251,-591.8742 900,-591.8742"/>
<polygon fill="#f5f5f5" stroke="transparent" points="902.5,-810.8742 902.5,-833.8742 1249.5,-833.8742 1249.5,-810.8742 902.5,-810.8742"/>
<polygon fill="none" stroke="#000000" points="902.5,-810.8742 902.5,-833.8742 1249.5,-833.8742 1249.5,-810.8742 902.5,-810.8742"/>
<text text-anchor="start" x="907.5" y="-819.4742" font-family="Helvetica,sans-Serif" font-weight="bold" font-size="11.00" fill="#000000">contributory_factor_audit</text>
<text text-anchor="start" x="1214.5437" y="-818.9742" font-family="Helvetica,sans-Serif" font-size="11.00" fill="#000000">[table]</text>
<polygon fill="none" stroke="#000000" points="902.5,-788.8742 902.5,-810.8742 1155.5,-810.8742 1155.5,-788.8742 902.5,-788.8742"/>
<image xlink:href="../../images/primaryKeys.png" width="11px" height="12px" preserveAspectRatio="xMinYMin meet" x="907.5" y="-805.874"/>
<text text-anchor="start" x="922.5" y="-795.9742" font-family="Helvetica,sans-Serif" font-size="11.00" fill="#000000">rev_id</text>
<polygon fill="none" stroke="#000000" points="1155.5,-788.8742 1155.5,-810.8742 1249.5,-810.8742 1249.5,-788.8742 1155.5,-788.8742"/>
<text text-anchor="start" x="1158.5" y="-796.5742" font-family="Helvetica,sans-Serif" font-size="11.00" fill="#000000">int8[19]</text>
<polygon fill="none" stroke="#000000" points="902.5,-766.8742 902.5,-788.8742 1155.5,-788.8742 1155.5,-766.8742 902.5,-766.8742"/>
<text text-anchor="start" x="922.5" y="-773.9742" font-family="Helvetica,sans-Serif" font-size="11.00" fill="#000000">rev_type</text>
<polygon fill="none" stroke="#000000" points="1155.5,-766.8742 1155.5,-788.8742 1249.5,-788.8742 1249.5,-766.8742 1155.5,-766.8742"/>
<text text-anchor="start" x="1158.5" y="-774.5742" font-family="Helvetica,sans-Serif" font-size="11.00" fill="#000000">int2[5]</text>
<polygon fill="none" stroke="#000000" points="902.5,-744.8742 902.5,-766.8742 1155.5,-766.8742 1155.5,-744.8742 902.5,-744.8742"/>
<image xlink:href="../../images/primaryKeys.png" width="11px" height="12px" preserveAspectRatio="xMinYMin meet" x="907.5" y="-761.874"/>
<text text-anchor="start" x="922.5" y="-751.9742" font-family="Helvetica,sans-Serif" font-size="11.00" fill="#000000">contributory_factor_id</text>
<polygon fill="none" stroke="#000000" points="1155.5,-744.8742 1155.5,-766.8742 1249.5,-766.8742 1249.5,-744.8742 1155.5,-744.8742"/>
<text text-anchor="start" x="1158.4758" y="-752.5742" font-family="Helvetica,sans-Serif" font-size="11.00" fill="#000000">uuid[2147483647]</text>
<polygon fill="none" stroke="#000000" points="902.5,-722.8742 902.5,-744.8742 1155.5,-744.8742 1155.5,-722.8742 902.5,-722.8742"/>
<image xlink:href="../../images/foreignKeys.png" width="11px" height="12px" preserveAspectRatio="xMinYMin meet" x="907.5" y="-739.874"/>
<text text-anchor="start" x="922.5" y="-729.9742" font-family="Helvetica,sans-Serif" font-size="11.00" fill="#000000">referral_id</text>
<polygon fill="none" stroke="#000000" points="1155.5,-722.8742 1155.5,-744.8742 1249.5,-744.8742 1249.5,-722.8742 1155.5,-722.8742"/>
<text text-anchor="start" x="1158.4758" y="-730.5742" font-family="Helvetica,sans-Serif" font-size="11.00" fill="#000000">uuid[2147483647]</text>
<polygon fill="none" stroke="#000000" points="902.5,-700.8742 902.5,-722.8742 1155.5,-722.8742 1155.5,-700.8742 902.5,-700.8742"/>
<image xlink:href="../../images/foreignKeys.png" width="11px" height="12px" preserveAspectRatio="xMinYMin meet" x="907.5" y="-717.874"/>
<text text-anchor="start" x="922.5" y="-707.9742" font-family="Helvetica,sans-Serif" font-size="11.00" fill="#000000">contributory_factor_type_id</text>
<polygon fill="none" stroke="#000000" points="1155.5,-700.8742 1155.5,-722.8742 1249.5,-722.8742 1249.5,-700.8742 1155.5,-700.8742"/>
<text text-anchor="start" x="1158.5" y="-708.5742" font-family="Helvetica,sans-Serif" font-size="11.00" fill="#000000">int8[19]</text>
<polygon fill="none" stroke="#000000" points="902.5,-678.8742 902.5,-700.8742 1155.5,-700.8742 1155.5,-678.8742 902.5,-678.8742"/>
<text text-anchor="start" x="922.5" y="-685.9742" font-family="Helvetica,sans-Serif" font-size="11.00" fill="#000000">comment</text>
<polygon fill="none" stroke="#000000" points="1155.5,-678.8742 1155.5,-700.8742 1249.5,-700.8742 1249.5,-678.8742 1155.5,-678.8742"/>
<text text-anchor="start" x="1158.5" y="-686.5742" font-family="Helvetica,sans-Serif" font-size="11.00" fill="#000000">text[2147483647]</text>
<polygon fill="none" stroke="#000000" points="902.5,-656.8742 902.5,-678.8742 1155.5,-678.8742 1155.5,-656.8742 902.5,-656.8742"/>
<text text-anchor="start" x="922.5" y="-663.9742" font-family="Helvetica,sans-Serif" font-size="11.00" fill="#000000">contributory_factor_type_modified</text>
<polygon fill="none" stroke="#000000" points="1155.5,-656.8742 1155.5,-678.8742 1249.5,-678.8742 1249.5,-656.8742 1155.5,-656.8742"/>
<text text-anchor="start" x="1158.5" y="-664.5742" font-family="Helvetica,sans-Serif" font-size="11.00" fill="#000000">bool[1]</text>
<polygon fill="none" stroke="#000000" points="902.5,-634.8742 902.5,-656.8742 1155.5,-656.8742 1155.5,-634.8742 902.5,-634.8742"/>
<text text-anchor="start" x="922.5" y="-641.9742" font-family="Helvetica,sans-Serif" font-size="11.00" fill="#000000">comment_modified</text>
<polygon fill="none" stroke="#000000" points="1155.5,-634.8742 1155.5,-656.8742 1249.5,-656.8742 1249.5,-634.8742 1155.5,-634.8742"/>
<text text-anchor="start" x="1158.5" y="-642.5742" font-family="Helvetica,sans-Serif" font-size="11.00" fill="#000000">bool[1]</text>
<polygon fill="none" stroke="#000000" points="902.5,-612.8742 902.5,-634.8742 1155.5,-634.8742 1155.5,-612.8742 902.5,-612.8742"/>
<image xlink:href="../../images/foreignKeys.png" width="11px" height="12px" preserveAspectRatio="xMinYMin meet" x="907.5" y="-629.874"/>
<text text-anchor="start" x="922.5" y="-619.9742" font-family="Helvetica,sans-Serif" font-size="11.00" fill="#000000">legacy_id</text>
<polygon fill="none" stroke="#000000" points="1155.5,-612.8742 1155.5,-634.8742 1249.5,-634.8742 1249.5,-612.8742 1155.5,-612.8742"/>
<text text-anchor="start" x="1158.5" y="-620.5742" font-family="Helvetica,sans-Serif" font-size="11.00" fill="#000000">int8[19]</text>
<polygon fill="#ffffff" stroke="transparent" points="902.5,-593.8742 902.5,-612.8742 1033.5,-612.8742 1033.5,-593.8742 902.5,-593.8742"/>
<polygon fill="none" stroke="#000000" points="902.5,-593.8742 902.5,-612.8742 1033.5,-612.8742 1033.5,-593.8742 902.5,-593.8742"/>
<text text-anchor="start" x="905.5" y="-599.9742" font-family="Helvetica,sans-Serif" font-size="11.00" fill="#000000">&lt; 4</text>
<polygon fill="#ffffff" stroke="transparent" points="1033.5,-593.8742 1033.5,-612.8742 1155.5,-612.8742 1155.5,-593.8742 1033.5,-593.8742"/>
<polygon fill="none" stroke="#000000" points="1033.5,-593.8742 1033.5,-612.8742 1155.5,-612.8742 1155.5,-593.8742 1033.5,-593.8742"/>
<text text-anchor="start" x="1146.3862" y="-599.9742" font-family="Helvetica,sans-Serif" font-size="11.00" fill="#000000"> &#160;</text>
<polygon fill="#ffffff" stroke="transparent" points="1155.5,-593.8742 1155.5,-612.8742 1249.5,-612.8742 1249.5,-593.8742 1155.5,-593.8742"/>
<polygon fill="none" stroke="#000000" points="1155.5,-593.8742 1155.5,-612.8742 1249.5,-612.8742 1249.5,-593.8742 1155.5,-593.8742"/>
<text text-anchor="start" x="1230.9053" y="-599.9742" font-family="Helvetica,sans-Serif" font-size="11.00" fill="#000000">0 &gt;</text>
<polygon fill="none" stroke="#000000" stroke-width="2" points="901,-592.8742 901,-834.8742 1250,-834.8742 1250,-592.8742 901,-592.8742"/>
</a>
</g>
</g>
<!-- contributory_factor_audit&#45;&gt;audit_revision -->
<g id="edge9" class="edge">
<title>contributory_factor_audit:w&#45;&gt;audit_revision:e</title>
<path fill="none" stroke="#000000" stroke-dasharray="5,2" d="M888.2343,-709.1191C878.8788,-705.0466 873.5018,-697.6073 859,-694.8742 788.668,-681.6193 269.6066,-661.6097 215,-707.8742 145.437,-766.8104 265.1729,-908.8742 174,-908.8742"/>
<polygon fill="#000000" stroke="#000000" points="894.6451,-710.3572 901.8173,-715.4089 898.5726,-711.1157 902.5,-711.8742 902.5,-711.8742 902.5,-711.8742 898.5726,-711.1157 903.1827,-708.3395 894.6451,-710.3572 894.6451,-710.3572"/>
<ellipse fill="none" stroke="#000000" cx="891.5032" cy="-709.7504" rx="3.2" ry="3.2"/>
</g>
<!-- contributory_factor_audit&#45;&gt;audit_revision -->
<g id="edge10" class="edge">
<title>contributory_factor_audit:w&#45;&gt;audit_revision:e</title>
<path fill="none" stroke="#000000" stroke-dasharray="5,2" d="M887.8286,-624.2164C785.4896,-627.4363 241.5247,-652.8289 215,-676.8742 137.4227,-747.2 278.7089,-908.8742 174,-908.8742"/>
<polygon fill="#000000" stroke="#000000" points="894.5022,-624.0608 902.584,-627.4732 898.5011,-623.9675 902.5,-623.8742 902.5,-623.8742 902.5,-623.8742 898.5011,-623.9675 902.416,-620.2752 894.5022,-624.0608 894.5022,-624.0608"/>
<ellipse fill="none" stroke="#000000" cx="891.303" cy="-624.1354" rx="3.2" ry="3.2"/>
</g>
<!-- contributory_factor_audit&#45;&gt;audit_revision -->
<g id="edge12" class="edge">
<title>contributory_factor_audit:w&#45;&gt;audit_revision:e</title>
<path fill="none" stroke="#000000" d="M888.4746,-804.3695C875.1689,-815.9683 882.2888,-846.8368 859,-858.8742 731.8451,-924.5973 347.7635,-817.3788 215,-870.8742 191.9552,-880.1598 198.8452,-908.8742 174,-908.8742"/>
<polygon fill="#000000" stroke="#000000" points="894.8817,-802.316 903.5988,-803.3024 898.6909,-801.0951 902.5,-799.8742 902.5,-799.8742 902.5,-799.8742 898.6909,-801.0951 901.4012,-796.446 894.8817,-802.316 894.8817,-802.316"/>
<ellipse fill="none" stroke="#000000" cx="891.8344" cy="-803.2927" rx="3.2" ry="3.2"/>
</g>
<!-- contributory_factor_audit&#45;&gt;referral -->
<g id="edge11" class="edge">
<title>contributory_factor_audit:w&#45;&gt;referral:e</title>
<path fill="none" stroke="#000000" stroke-dasharray="5,2" d="M888.6531,-729.5505C830.5857,-687.2531 932.409,-348.8742 851.5,-348.8742"/>
<polygon fill="#000000" stroke="#000000" points="894.8636,-731.4897 901.427,-737.3106 898.6818,-732.6819 902.5,-733.8742 902.5,-733.8742 902.5,-733.8742 898.6818,-732.6819 903.573,-730.4378 894.8636,-731.4897 894.8636,-731.4897"/>
<ellipse fill="none" stroke="#000000" cx="891.8091" cy="-730.5359" rx="3.2" ry="3.2"/>
</g>
<!-- csip_record&#45;&gt;audit_revision -->
<g id="edge13" class="edge">
<title>csip_record:w&#45;&gt;audit_revision:e</title>
<path fill="none" stroke="#000000" stroke-dasharray="5,2" d="M310.3031,-350.1847C260.7216,-353.1899 241.8163,-378.0131 215,-424.8742 188.1941,-471.717 227.9704,-908.8742 174,-908.8742"/>
<polygon fill="#000000" stroke="#000000" points="320.0842,-345.8991 320.3164,-353.8957 318.7171,-353.9422 318.4849,-345.9456 320.0842,-345.8991"/>
<polyline fill="none" stroke="#000000" points="321,-349.8742 317.0017,-349.9903 "/>
<ellipse fill="none" stroke="#000000" cx="313.803" cy="-350.0832" rx="3.2" ry="3.2"/>
</g>
<!-- csip_record&#45;&gt;reference_data -->
<g id="edge14" class="edge">
<title>csip_record:w&#45;&gt;reference_data:e</title>
<path fill="none" stroke="#000000" d="M306.5849,-349.5354C266.9171,-347.5061 250.7359,-336.0829 215,-307.8742 182.191,-281.9758 202.799,-230.8742 161,-230.8742"/>
<polygon fill="#000000" stroke="#000000" points="313.0022,-349.6862 320.9154,-353.4732 317.0011,-349.7802 321,-349.8742 321,-349.8742 321,-349.8742 317.0011,-349.7802 321.0846,-346.2752 313.0022,-349.6862 313.0022,-349.6862"/>
<ellipse fill="none" stroke="#000000" cx="309.8031" cy="-349.611" rx="3.2" ry="3.2"/>
</g>
<!-- csip_record_audit -->
<g id="node10" class="node">
<title>csip_record_audit</title>
<g id="a_node10"><a xlink:href="../../tables/csip_record_audit.html" xlink:title="csip_record_audit" target="_top">
<polygon fill="#ffffff" stroke="transparent" points="300,-541.3742 300,-602.3742 456,-602.3742 456,-541.3742 300,-541.3742"/>
<polygon fill="#f5f5f5" stroke="transparent" points="300,-578.8742 300,-601.8742 456,-601.8742 456,-578.8742 300,-578.8742"/>
<polygon fill="none" stroke="#000000" points="300,-578.8742 300,-601.8742 456,-601.8742 456,-578.8742 300,-578.8742"/>
<text text-anchor="start" x="305" y="-587.4742" font-family="Helvetica,sans-Serif" font-weight="bold" font-size="11.00" fill="#000000">csip_record_audit</text>
<text text-anchor="start" x="421.5219" y="-586.9742" font-family="Helvetica,sans-Serif" font-size="11.00" fill="#000000">[table]</text>
<polygon fill="none" stroke="#000000" points="300,-559.8742 300,-578.8742 456,-578.8742 456,-559.8742 300,-559.8742"/>
<text text-anchor="start" x="303" y="-565.9742" font-family="Helvetica,sans-Serif" font-size="11.00" fill="#000000">...</text>
<polygon fill="#ffffff" stroke="transparent" points="300,-540.8742 300,-559.8742 376,-559.8742 376,-540.8742 300,-540.8742"/>
<polygon fill="none" stroke="#000000" points="300,-540.8742 300,-559.8742 376,-559.8742 376,-540.8742 300,-540.8742"/>
<text text-anchor="start" x="303" y="-546.9742" font-family="Helvetica,sans-Serif" font-size="11.00" fill="#000000">&lt; 3</text>
<polygon fill="#ffffff" stroke="transparent" points="376,-540.8742 376,-559.8742 416,-559.8742 416,-540.8742 376,-540.8742"/>
<polygon fill="none" stroke="#000000" points="376,-540.8742 376,-559.8742 416,-559.8742 416,-540.8742 376,-540.8742"/>
<text text-anchor="start" x="406.8862" y="-546.9742" font-family="Helvetica,sans-Serif" font-size="11.00" fill="#000000"> &#160;</text>
<polygon fill="#ffffff" stroke="transparent" points="416,-540.8742 416,-559.8742 456,-559.8742 456,-540.8742 416,-540.8742"/>
<polygon fill="none" stroke="#000000" points="416,-540.8742 416,-559.8742 456,-559.8742 456,-540.8742 416,-540.8742"/>
<text text-anchor="start" x="446.8862" y="-546.9742" font-family="Helvetica,sans-Serif" font-size="11.00" fill="#000000"> &#160;</text>
</a>
</g>
</g>
<!-- csip_record_audit&#45;&gt;audit_revision -->
<g id="edge15" class="edge">
<title>csip_record_audit:w&#45;&gt;audit_revision:e</title>
<path fill="none" stroke="#000000" stroke-dasharray="5,2" d="M285.3322,-567.5027C252.3466,-566.1636 236.4713,-579.3624 215,-610.8742 178.1035,-665.0243 239.5254,-902.8742 174,-908.8742"/>
<polygon fill="#000000" stroke="#000000" points="292.0347,-568.1294 299.6648,-572.4586 296.0174,-568.5018 300,-568.8742 300,-568.8742 300,-568.8742 296.0174,-568.5018 300.3352,-565.2898 292.0347,-568.1294 292.0347,-568.1294"/>
<ellipse fill="none" stroke="#000000" cx="288.8486" cy="-567.8314" rx="3.2" ry="3.2"/>
</g>
<!-- csip_record_audit&#45;&gt;audit_revision -->
<g id="edge16" class="edge">
<title>csip_record_audit:w&#45;&gt;audit_revision:e</title>
<path fill="none" stroke="#000000" d="M285.773,-571.577C252.4876,-579.0466 236.5667,-592.2224 215,-623.8742 178.1035,-678.0243 239.5254,-915.8742 174,-908.8742"/>
<polygon fill="#000000" stroke="#000000" points="292.1406,-570.3674 300.6719,-572.4109 296.0703,-569.6208 300,-568.8742 300,-568.8742 300,-568.8742 296.0703,-569.6208 299.3281,-565.3375 292.1406,-570.3674 292.1406,-570.3674"/>
<ellipse fill="none" stroke="#000000" cx="288.9968" cy="-570.9647" rx="3.2" ry="3.2"/>
</g>
<!-- decision_and_actions -->
<g id="node11" class="node">
<title>decision_and_actions</title>
<g id="a_node11"><a xlink:href="../../tables/decision_and_actions.html" xlink:title="decision_and_actions" target="_top">
<polygon fill="#ffffff" stroke="transparent" points="985,-124.3742 985,-185.3742 1166,-185.3742 1166,-124.3742 985,-124.3742"/>
<polygon fill="#f5f5f5" stroke="transparent" points="985.5,-161.8742 985.5,-184.8742 1166.5,-184.8742 1166.5,-161.8742 985.5,-161.8742"/>
<polygon fill="none" stroke="#000000" points="985.5,-161.8742 985.5,-184.8742 1166.5,-184.8742 1166.5,-161.8742 985.5,-161.8742"/>
<text text-anchor="start" x="990.5" y="-170.4742" font-family="Helvetica,sans-Serif" font-weight="bold" font-size="11.00" fill="#000000">decision_and_actions</text>
<text text-anchor="start" x="1132.0219" y="-169.9742" font-family="Helvetica,sans-Serif" font-size="11.00" fill="#000000">[table]</text>
<polygon fill="none" stroke="#000000" points="985.5,-142.8742 985.5,-161.8742 1166.5,-161.8742 1166.5,-142.8742 985.5,-142.8742"/>
<text text-anchor="start" x="988.5" y="-148.9742" font-family="Helvetica,sans-Serif" font-size="11.00" fill="#000000">...</text>
<polygon fill="#ffffff" stroke="transparent" points="985.5,-123.8742 985.5,-142.8742 1074.5,-142.8742 1074.5,-123.8742 985.5,-123.8742"/>
<polygon fill="none" stroke="#000000" points="985.5,-123.8742 985.5,-142.8742 1074.5,-142.8742 1074.5,-123.8742 985.5,-123.8742"/>
<text text-anchor="start" x="988.5" y="-129.9742" font-family="Helvetica,sans-Serif" font-size="11.00" fill="#000000">&lt; 3</text>
<polygon fill="#ffffff" stroke="transparent" points="1074.5,-123.8742 1074.5,-142.8742 1120.5,-142.8742 1120.5,-123.8742 1074.5,-123.8742"/>
<polygon fill="none" stroke="#000000" points="1074.5,-123.8742 1074.5,-142.8742 1120.5,-142.8742 1120.5,-123.8742 1074.5,-123.8742"/>
<text text-anchor="start" x="1111.3862" y="-129.9742" font-family="Helvetica,sans-Serif" font-size="11.00" fill="#000000"> &#160;</text>
<polygon fill="#ffffff" stroke="transparent" points="1120.5,-123.8742 1120.5,-142.8742 1166.5,-142.8742 1166.5,-123.8742 1120.5,-123.8742"/>
<polygon fill="none" stroke="#000000" points="1120.5,-123.8742 1120.5,-142.8742 1166.5,-142.8742 1166.5,-123.8742 1120.5,-123.8742"/>
<text text-anchor="start" x="1157.3862" y="-129.9742" font-family="Helvetica,sans-Serif" font-size="11.00" fill="#000000"> &#160;</text>
</a>
</g>
</g>
<!-- decision_and_actions&#45;&gt;reference_data -->
<g id="edge18" class="edge">
<title>decision_and_actions:w&#45;&gt;reference_data:e</title>
<path fill="none" stroke="#000000" d="M971.0795,-151.8113C639.5749,-148.9158 525.4422,-47.616 215,-180.8742 184.9438,-193.7759 193.7082,-230.8742 161,-230.8742"/>
<polygon fill="#000000" stroke="#000000" points="977.5001,-151.8393 985.4843,-155.4742 981.5,-151.8567 985.5,-151.8742 985.5,-151.8742 985.5,-151.8742 981.5,-151.8567 985.5157,-148.2742 977.5001,-151.8393 977.5001,-151.8393"/>
<ellipse fill="none" stroke="#000000" cx="974.3001" cy="-151.8253" rx="3.2" ry="3.2"/>
</g>
<!-- decision_and_actions&#45;&gt;reference_data -->
<g id="edge19" class="edge">
<title>decision_and_actions:w&#45;&gt;reference_data:e</title>
<path fill="none" stroke="#000000" d="M971.0778,-151.8165C639.5634,-149.1611 527.4904,-56.3073 215,-184.8742 185.8439,-196.8698 192.5274,-230.8742 161,-230.8742"/>
<polygon fill="#000000" stroke="#000000" points="977.5001,-151.8422 985.4856,-155.4742 981.5,-151.8582 985.5,-151.8742 985.5,-151.8742 985.5,-151.8742 981.5,-151.8582 985.5144,-148.2742 977.5001,-151.8422 977.5001,-151.8422"/>
<ellipse fill="none" stroke="#000000" cx="974.3001" cy="-151.8293" rx="3.2" ry="3.2"/>
</g>
<!-- decision_and_actions&#45;&gt;referral -->
<g id="edge17" class="edge">
<title>decision_and_actions:w&#45;&gt;referral:e</title>
<path fill="none" stroke="#000000" d="M975.0286,-152.1077C935.8261,-153.9664 919.115,-167.1782 892,-200.8742 849.2463,-254.0046 919.6962,-348.8742 851.5,-348.8742"/>
<polygon fill="#000000" stroke="#000000" points="984.611,-147.893 984.7894,-155.8911 983.1898,-155.9267 983.0114,-147.9287 984.611,-147.893"/>
<polyline fill="none" stroke="#000000" points="985.5,-151.8742 981.501,-151.9634 "/>
<ellipse fill="none" stroke="#000000" cx="978.3018" cy="-152.0348" rx="3.2" ry="3.2"/>
</g>
<!-- decision_and_actions_audit -->
<g id="node12" class="node">
<title>decision_and_actions_audit</title>
<g id="a_node12"><a xlink:href="../../tables/decision_and_actions_audit.html" xlink:title="decision_and_actions_audit" target="_top">
<polygon fill="#ffffff" stroke="transparent" points="267,-459.3742 267,-520.3742 489,-520.3742 489,-459.3742 267,-459.3742"/>
<polygon fill="#f5f5f5" stroke="transparent" points="267,-496.8742 267,-519.8742 489,-519.8742 489,-496.8742 267,-496.8742"/>
<polygon fill="none" stroke="#000000" points="267,-496.8742 267,-519.8742 489,-519.8742 489,-496.8742 267,-496.8742"/>
<text text-anchor="start" x="272" y="-505.4742" font-family="Helvetica,sans-Serif" font-weight="bold" font-size="11.00" fill="#000000">decision_and_actions_audit</text>
<text text-anchor="start" x="454.5219" y="-504.9742" font-family="Helvetica,sans-Serif" font-size="11.00" fill="#000000">[table]</text>
<polygon fill="none" stroke="#000000" points="267,-477.8742 267,-496.8742 489,-496.8742 489,-477.8742 267,-477.8742"/>
<text text-anchor="start" x="270" y="-483.9742" font-family="Helvetica,sans-Serif" font-size="11.00" fill="#000000">...</text>
<polygon fill="#ffffff" stroke="transparent" points="267,-458.8742 267,-477.8742 376,-477.8742 376,-458.8742 267,-458.8742"/>
<polygon fill="none" stroke="#000000" points="267,-458.8742 267,-477.8742 376,-477.8742 376,-458.8742 267,-458.8742"/>
<text text-anchor="start" x="270" y="-464.9742" font-family="Helvetica,sans-Serif" font-size="11.00" fill="#000000">&lt; 3</text>
<polygon fill="#ffffff" stroke="transparent" points="376,-458.8742 376,-477.8742 432,-477.8742 432,-458.8742 376,-458.8742"/>
<polygon fill="none" stroke="#000000" points="376,-458.8742 376,-477.8742 432,-477.8742 432,-458.8742 376,-458.8742"/>
<text text-anchor="start" x="422.8862" y="-464.9742" font-family="Helvetica,sans-Serif" font-size="11.00" fill="#000000"> &#160;</text>
<polygon fill="#ffffff" stroke="transparent" points="432,-458.8742 432,-477.8742 489,-477.8742 489,-458.8742 432,-458.8742"/>
<polygon fill="none" stroke="#000000" points="432,-458.8742 432,-477.8742 489,-477.8742 489,-458.8742 432,-458.8742"/>
<text text-anchor="start" x="479.8862" y="-464.9742" font-family="Helvetica,sans-Serif" font-size="11.00" fill="#000000"> &#160;</text>
</a>
</g>
</g>
<!-- decision_and_actions_audit&#45;&gt;audit_revision -->
<g id="edge20" class="edge">
<title>decision_and_actions_audit:w&#45;&gt;audit_revision:e</title>
<path fill="none" stroke="#000000" stroke-dasharray="5,2" d="M252.9841,-482.7112C233.8743,-480.2361 226.7058,-495.8375 215,-517.8742 175.363,-592.4927 258.4927,-895.8742 174,-908.8742"/>
<polygon fill="#000000" stroke="#000000" points="259.3311,-484.5963 265.975,-490.3252 263.1656,-485.7353 267,-486.8742 267,-486.8742 267,-486.8742 263.1656,-485.7353 268.025,-483.4232 259.3311,-484.5963 259.3311,-484.5963"/>
<ellipse fill="none" stroke="#000000" cx="256.2636" cy="-483.6852" rx="3.2" ry="3.2"/>
</g>
<!-- decision_and_actions_audit&#45;&gt;audit_revision -->
<g id="edge21" class="edge">
<title>decision_and_actions_audit:w&#45;&gt;audit_revision:e</title>
<path fill="none" stroke="#000000" d="M252.4439,-488.5717C233.738,-493.5325 226.5948,-509.0464 215,-530.8742 175.363,-605.4927 258.4927,-908.8742 174,-908.8742"/>
<polygon fill="#000000" stroke="#000000" points="259.0538,-487.8009 267.417,-490.45 263.0269,-487.3376 267,-486.8742 267,-486.8742 267,-486.8742 263.0269,-487.3376 266.583,-483.2984 259.0538,-487.8009 259.0538,-487.8009"/>
<ellipse fill="none" stroke="#000000" cx="255.8754" cy="-488.1716" rx="3.2" ry="3.2"/>
</g>
<!-- decision_and_actions_audit&#45;&gt;audit_revision -->
<g id="edge22" class="edge">
<title>decision_and_actions_audit:w&#45;&gt;audit_revision:e</title>
<path fill="none" stroke="#000000" stroke-dasharray="5,2" d="M254.0839,-493.4698C234.1444,-505.6469 226.9277,-521.4198 215,-543.8742 175.363,-618.4927 258.4927,-921.8742 174,-908.8742"/>
<polygon fill="#000000" stroke="#000000" points="259.8752,-490.5125 268.6372,-490.0804 263.4376,-488.6934 267,-486.8742 267,-486.8742 267,-486.8742 263.4376,-488.6934 265.3628,-483.668 259.8752,-490.5125 259.8752,-490.5125"/>
<ellipse fill="none" stroke="#000000" cx="257.0252" cy="-491.9678" rx="3.2" ry="3.2"/>
</g>
<!-- identified_need -->
<g id="node13" class="node">
<title>identified_need</title>
<g id="a_node13"><a xlink:href="../../tables/identified_need.html" xlink:title="identified_need" target="_top">
<polygon fill="#ffffff" stroke="transparent" points="306.5,-1425.3742 306.5,-1486.3742 449.5,-1486.3742 449.5,-1425.3742 306.5,-1425.3742"/>
<polygon fill="#f5f5f5" stroke="transparent" points="307,-1462.8742 307,-1485.8742 450,-1485.8742 450,-1462.8742 307,-1462.8742"/>
<polygon fill="none" stroke="#000000" points="307,-1462.8742 307,-1485.8742 450,-1485.8742 450,-1462.8742 307,-1462.8742"/>
<text text-anchor="start" x="312" y="-1471.4742" font-family="Helvetica,sans-Serif" font-weight="bold" font-size="11.00" fill="#000000">identified_need</text>
<text text-anchor="start" x="415.5219" y="-1470.9742" font-family="Helvetica,sans-Serif" font-size="11.00" fill="#000000">[table]</text>
<polygon fill="none" stroke="#000000" points="307,-1443.8742 307,-1462.8742 450,-1462.8742 450,-1443.8742 307,-1443.8742"/>
<text text-anchor="start" x="310" y="-1449.9742" font-family="Helvetica,sans-Serif" font-size="11.00" fill="#000000">...</text>
<polygon fill="#ffffff" stroke="transparent" points="307,-1424.8742 307,-1443.8742 377,-1443.8742 377,-1424.8742 307,-1424.8742"/>
<polygon fill="none" stroke="#000000" points="307,-1424.8742 307,-1443.8742 377,-1443.8742 377,-1424.8742 307,-1424.8742"/>
<text text-anchor="start" x="310" y="-1430.9742" font-family="Helvetica,sans-Serif" font-size="11.00" fill="#000000">&lt; 2</text>
<polygon fill="#ffffff" stroke="transparent" points="377,-1424.8742 377,-1443.8742 413,-1443.8742 413,-1424.8742 377,-1424.8742"/>
<polygon fill="none" stroke="#000000" points="377,-1424.8742 377,-1443.8742 413,-1443.8742 413,-1424.8742 377,-1424.8742"/>
<text text-anchor="start" x="403.8862" y="-1430.9742" font-family="Helvetica,sans-Serif" font-size="11.00" fill="#000000"> &#160;</text>
<polygon fill="#ffffff" stroke="transparent" points="413,-1424.8742 413,-1443.8742 450,-1443.8742 450,-1424.8742 413,-1424.8742"/>
<polygon fill="none" stroke="#000000" points="413,-1424.8742 413,-1443.8742 450,-1443.8742 450,-1424.8742 413,-1424.8742"/>
<text text-anchor="start" x="440.8862" y="-1430.9742" font-family="Helvetica,sans-Serif" font-size="11.00" fill="#000000"> &#160;</text>
</a>
</g>
</g>
<!-- identified_need&#45;&gt;audit_revision -->
<g id="edge23" class="edge">
<title>identified_need:w&#45;&gt;audit_revision:e</title>
<path fill="none" stroke="#000000" stroke-dasharray="5,2" d="M296.5531,-1452.8115C259.1713,-1452.2793 238.9246,-1447.6892 215,-1414.8742 181.7696,-1369.2953 230.4065,-908.8742 174,-908.8742"/>
<polygon fill="#000000" stroke="#000000" points="306.2241,-1448.8695 306.176,-1456.8693 304.576,-1456.8597 304.6241,-1448.8598 306.2241,-1448.8695"/>
<polyline fill="none" stroke="#000000" points="307,-1452.8742 303.0001,-1452.8502 "/>
<ellipse fill="none" stroke="#000000" cx="299.8001" cy="-1452.8309" rx="3.2" ry="3.2"/>
</g>
<!-- identified_need_audit -->
<g id="node14" class="node">
<title>identified_need_audit</title>
<g id="a_node14"><a xlink:href="../../tables/identified_need_audit.html" xlink:title="identified_need_audit" target="_top">
<polygon fill="#ffffff" stroke="transparent" points="286,-1343.3742 286,-1404.3742 470,-1404.3742 470,-1343.3742 286,-1343.3742"/>
<polygon fill="#f5f5f5" stroke="transparent" points="286,-1380.8742 286,-1403.8742 470,-1403.8742 470,-1380.8742 286,-1380.8742"/>
<polygon fill="none" stroke="#000000" points="286,-1380.8742 286,-1403.8742 470,-1403.8742 470,-1380.8742 286,-1380.8742"/>
<text text-anchor="start" x="291" y="-1389.4742" font-family="Helvetica,sans-Serif" font-weight="bold" font-size="11.00" fill="#000000">identified_need_audit</text>
<text text-anchor="start" x="435.5219" y="-1388.9742" font-family="Helvetica,sans-Serif" font-size="11.00" fill="#000000">[table]</text>
<polygon fill="none" stroke="#000000" points="286,-1361.8742 286,-1380.8742 470,-1380.8742 470,-1361.8742 286,-1361.8742"/>
<text text-anchor="start" x="289" y="-1367.9742" font-family="Helvetica,sans-Serif" font-size="11.00" fill="#000000">...</text>
<polygon fill="#ffffff" stroke="transparent" points="286,-1342.8742 286,-1361.8742 376,-1361.8742 376,-1342.8742 286,-1342.8742"/>
<polygon fill="none" stroke="#000000" points="286,-1342.8742 286,-1361.8742 376,-1361.8742 376,-1342.8742 286,-1342.8742"/>
<text text-anchor="start" x="289" y="-1348.9742" font-family="Helvetica,sans-Serif" font-size="11.00" fill="#000000">&lt; 3</text>
<polygon fill="#ffffff" stroke="transparent" points="376,-1342.8742 376,-1361.8742 423,-1361.8742 423,-1342.8742 376,-1342.8742"/>
<polygon fill="none" stroke="#000000" points="376,-1342.8742 376,-1361.8742 423,-1361.8742 423,-1342.8742 376,-1342.8742"/>
<text text-anchor="start" x="413.8862" y="-1348.9742" font-family="Helvetica,sans-Serif" font-size="11.00" fill="#000000"> &#160;</text>
<polygon fill="#ffffff" stroke="transparent" points="423,-1342.8742 423,-1361.8742 470,-1361.8742 470,-1342.8742 423,-1342.8742"/>
<polygon fill="none" stroke="#000000" points="423,-1342.8742 423,-1361.8742 470,-1361.8742 470,-1342.8742 423,-1342.8742"/>
<text text-anchor="start" x="460.8862" y="-1348.9742" font-family="Helvetica,sans-Serif" font-size="11.00" fill="#000000"> &#160;</text>
</a>
</g>
</g>
<!-- identified_need_audit&#45;&gt;audit_revision -->
<g id="edge24" class="edge">
<title>identified_need_audit:w&#45;&gt;audit_revision:e</title>
<path fill="none" stroke="#000000" stroke-dasharray="5,2" d="M271.7636,-1368.0009C245.1178,-1361.3673 231.9218,-1349.4519 215,-1322.8742 189.8175,-1283.3221 220.8885,-902.8742 174,-908.8742"/>
<polygon fill="#000000" stroke="#000000" points="278.1581,-1369.2914 285.2878,-1374.4031 282.0791,-1370.0828 286,-1370.8742 286,-1370.8742 286,-1370.8742 282.0791,-1370.0828 286.7122,-1367.3454 278.1581,-1369.2914 278.1581,-1369.2914"/>
<ellipse fill="none" stroke="#000000" cx="275.0214" cy="-1368.6583" rx="3.2" ry="3.2"/>
</g>
<!-- identified_need_audit&#45;&gt;audit_revision -->
<g id="edge25" class="edge">
<title>identified_need_audit:w&#45;&gt;audit_revision:e</title>
<path fill="none" stroke="#000000" d="M271.4011,-1372.7714C244.9977,-1374.2586 231.8449,-1362.3311 215,-1335.8742 189.8175,-1296.3221 220.8885,-915.8742 174,-908.8742"/>
<polygon fill="#000000" stroke="#000000" points="278.0667,-1371.9052 286.464,-1374.4442 282.0334,-1371.3897 286,-1370.8742 286,-1370.8742 286,-1370.8742 282.0334,-1371.3897 285.536,-1367.3042 278.0667,-1371.9052 278.0667,-1371.9052"/>
<ellipse fill="none" stroke="#000000" cx="274.8934" cy="-1372.3176" rx="3.2" ry="3.2"/>
</g>
<!-- interview -->
<g id="node15" class="node">
<title>interview</title>
<g id="a_node15"><a xlink:href="../../tables/interview.html" xlink:title="interview" target="_top">
<polygon fill="#ffffff" stroke="transparent" points="1320.5,-298.3742 1320.5,-359.3742 1422.5,-359.3742 1422.5,-298.3742 1320.5,-298.3742"/>
<polygon fill="#f5f5f5" stroke="transparent" points="1320.5,-335.8742 1320.5,-358.8742 1422.5,-358.8742 1422.5,-335.8742 1320.5,-335.8742"/>
<polygon fill="none" stroke="#000000" points="1320.5,-335.8742 1320.5,-358.8742 1422.5,-358.8742 1422.5,-335.8742 1320.5,-335.8742"/>
<text text-anchor="start" x="1325.5" y="-344.4742" font-family="Helvetica,sans-Serif" font-weight="bold" font-size="11.00" fill="#000000">interview</text>
<text text-anchor="start" x="1388.0219" y="-343.9742" font-family="Helvetica,sans-Serif" font-size="11.00" fill="#000000">[table]</text>
<polygon fill="none" stroke="#000000" points="1320.5,-316.8742 1320.5,-335.8742 1422.5,-335.8742 1422.5,-316.8742 1320.5,-316.8742"/>
<text text-anchor="start" x="1323.5" y="-322.9742" font-family="Helvetica,sans-Serif" font-size="11.00" fill="#000000">...</text>
<polygon fill="#ffffff" stroke="transparent" points="1320.5,-297.8742 1320.5,-316.8742 1369.5,-316.8742 1369.5,-297.8742 1320.5,-297.8742"/>
<polygon fill="none" stroke="#000000" points="1320.5,-297.8742 1320.5,-316.8742 1369.5,-316.8742 1369.5,-297.8742 1320.5,-297.8742"/>
<text text-anchor="start" x="1323.5" y="-303.9742" font-family="Helvetica,sans-Serif" font-size="11.00" fill="#000000">&lt; 3</text>
<polygon fill="#ffffff" stroke="transparent" points="1369.5,-297.8742 1369.5,-316.8742 1395.5,-316.8742 1395.5,-297.8742 1369.5,-297.8742"/>
<polygon fill="none" stroke="#000000" points="1369.5,-297.8742 1369.5,-316.8742 1395.5,-316.8742 1395.5,-297.8742 1369.5,-297.8742"/>
<text text-anchor="start" x="1386.3862" y="-303.9742" font-family="Helvetica,sans-Serif" font-size="11.00" fill="#000000"> &#160;</text>
<polygon fill="#ffffff" stroke="transparent" points="1395.5,-297.8742 1395.5,-316.8742 1422.5,-316.8742 1422.5,-297.8742 1395.5,-297.8742"/>
<polygon fill="none" stroke="#000000" points="1395.5,-297.8742 1395.5,-316.8742 1422.5,-316.8742 1422.5,-297.8742 1395.5,-297.8742"/>
<text text-anchor="start" x="1413.3862" y="-303.9742" font-family="Helvetica,sans-Serif" font-size="11.00" fill="#000000"> &#160;</text>
</a>
</g>
</g>
<!-- interview&#45;&gt;audit_revision -->
<g id="edge28" class="edge">
<title>interview:w&#45;&gt;audit_revision:e</title>
<path fill="none" stroke="#000000" stroke-dasharray="5,2" d="M1310.1208,-326.9265C1264.4775,-337.2632 1308.5475,-420.9236 1259,-451.8742 1160.617,-513.3307 300.5883,-370.5751 215,-448.8742 139.2787,-518.1467 276.6275,-908.8742 174,-908.8742"/>
<polygon fill="#000000" stroke="#000000" points="1319.3006,-321.9753 1320.1076,-329.9345 1318.5158,-330.0959 1317.7087,-322.1367 1319.3006,-321.9753"/>
<polyline fill="none" stroke="#000000" points="1320.5,-325.8742 1316.5204,-326.2777 "/>
<ellipse fill="none" stroke="#000000" cx="1313.3367" cy="-326.6005" rx="3.2" ry="3.2"/>
</g>
<!-- interview&#45;&gt;reference_data -->
<g id="edge26" class="edge">
<title>interview:w&#45;&gt;reference_data:e</title>
<path fill="none" stroke="#000000" d="M1305.8071,-324.4458C1234.8054,-308.8353 1332.9997,-169.4578 1259,-113.8742 1160.7571,-40.0807 425.7093,19.6776 215,-114.8742 167.0705,-145.4804 217.8681,-230.8742 161,-230.8742"/>
<polygon fill="#000000" stroke="#000000" points="1312.5375,-325.1001 1320.1516,-329.4573 1316.5188,-325.4871 1320.5,-325.8742 1320.5,-325.8742 1320.5,-325.8742 1316.5188,-325.4871 1320.8484,-322.2911 1312.5375,-325.1001 1312.5375,-325.1001"/>
<ellipse fill="none" stroke="#000000" cx="1309.3526" cy="-324.7904" rx="3.2" ry="3.2"/>
</g>
<!-- investigation -->
<g id="node16" class="node">
<title>investigation</title>
<g id="a_node16"><a xlink:href="../../tables/investigation.html" xlink:title="investigation" target="_top">
<polygon fill="#ffffff" stroke="transparent" points="1012,-298.3742 1012,-359.3742 1139,-359.3742 1139,-298.3742 1012,-298.3742"/>
<polygon fill="#f5f5f5" stroke="transparent" points="1012.5,-335.8742 1012.5,-358.8742 1139.5,-358.8742 1139.5,-335.8742 1012.5,-335.8742"/>
<polygon fill="none" stroke="#000000" points="1012.5,-335.8742 1012.5,-358.8742 1139.5,-358.8742 1139.5,-335.8742 1012.5,-335.8742"/>
<text text-anchor="start" x="1017.5" y="-344.4742" font-family="Helvetica,sans-Serif" font-weight="bold" font-size="11.00" fill="#000000">investigation</text>
<text text-anchor="start" x="1105.0219" y="-343.9742" font-family="Helvetica,sans-Serif" font-size="11.00" fill="#000000">[table]</text>
<polygon fill="none" stroke="#000000" points="1012.5,-316.8742 1012.5,-335.8742 1139.5,-335.8742 1139.5,-316.8742 1012.5,-316.8742"/>
<text text-anchor="start" x="1015.5" y="-322.9742" font-family="Helvetica,sans-Serif" font-size="11.00" fill="#000000">...</text>
<polygon fill="#ffffff" stroke="transparent" points="1012.5,-297.8742 1012.5,-316.8742 1069.5,-316.8742 1069.5,-297.8742 1012.5,-297.8742"/>
<polygon fill="none" stroke="#000000" points="1012.5,-297.8742 1012.5,-316.8742 1069.5,-316.8742 1069.5,-297.8742 1012.5,-297.8742"/>
<text text-anchor="start" x="1015.5" y="-303.9742" font-family="Helvetica,sans-Serif" font-size="11.00" fill="#000000">&lt; 1</text>
<polygon fill="#ffffff" stroke="transparent" points="1069.5,-297.8742 1069.5,-316.8742 1099.5,-316.8742 1099.5,-297.8742 1069.5,-297.8742"/>
<polygon fill="none" stroke="#000000" points="1069.5,-297.8742 1069.5,-316.8742 1099.5,-316.8742 1099.5,-297.8742 1069.5,-297.8742"/>
<text text-anchor="start" x="1090.3862" y="-303.9742" font-family="Helvetica,sans-Serif" font-size="11.00" fill="#000000"> &#160;</text>
<polygon fill="#ffffff" stroke="transparent" points="1099.5,-297.8742 1099.5,-316.8742 1139.5,-316.8742 1139.5,-297.8742 1099.5,-297.8742"/>
<polygon fill="none" stroke="#000000" points="1099.5,-297.8742 1099.5,-316.8742 1139.5,-316.8742 1139.5,-297.8742 1099.5,-297.8742"/>
<text text-anchor="start" x="1120.9053" y="-303.9742" font-family="Helvetica,sans-Serif" font-size="11.00" fill="#000000">2 &gt;</text>
</a>
</g>
</g>
<!-- interview&#45;&gt;investigation -->
<g id="edge27" class="edge">
<title>interview:w&#45;&gt;investigation:e</title>
<path fill="none" stroke="#000000" d="M1306.0942,-325.8742C1237.306,-325.8742 1214.9167,-325.8742 1139.5,-325.8742"/>
<polygon fill="#000000" stroke="#000000" points="1312.5,-325.8743 1320.5,-329.4742 1316.5,-325.8742 1320.5,-325.8742 1320.5,-325.8742 1320.5,-325.8742 1316.5,-325.8742 1320.5,-322.2742 1312.5,-325.8743 1312.5,-325.8743"/>
<ellipse fill="none" stroke="#000000" cx="1309.3" cy="-325.8743" rx="3.2" ry="3.2"/>
</g>
<!-- investigation&#45;&gt;referral -->
<g id="edge33" class="edge">
<title>investigation:w&#45;&gt;referral:e</title>
<path fill="none" stroke="#000000" d="M1001.9057,-326.0461C938.4047,-328.1508 920.1115,-348.8742 851.5,-348.8742"/>
<polygon fill="#000000" stroke="#000000" points="1011.6352,-321.8877 1011.765,-329.8867 1010.1653,-329.9126 1010.0354,-321.9137 1011.6352,-321.8877"/>
<polyline fill="none" stroke="#000000" points="1012.5,-325.8742 1008.5005,-325.9391 "/>
<ellipse fill="none" stroke="#000000" cx="1005.3009" cy="-325.9911" rx="3.2" ry="3.2"/>
</g>
<!-- interview_audit -->
<g id="node17" class="node">
<title>interview_audit</title>
<g id="a_node17"><a xlink:href="../../tables/interview_audit.html" xlink:title="interview_audit" target="_top">
<polygon fill="#ffffff" stroke="transparent" points="1300,-1279.3742 1300,-1340.3742 1443,-1340.3742 1443,-1279.3742 1300,-1279.3742"/>
<polygon fill="#f5f5f5" stroke="transparent" points="1300.5,-1316.8742 1300.5,-1339.8742 1443.5,-1339.8742 1443.5,-1316.8742 1300.5,-1316.8742"/>
<polygon fill="none" stroke="#000000" points="1300.5,-1316.8742 1300.5,-1339.8742 1443.5,-1339.8742 1443.5,-1316.8742 1300.5,-1316.8742"/>
<text text-anchor="start" x="1305.5" y="-1325.4742" font-family="Helvetica,sans-Serif" font-weight="bold" font-size="11.00" fill="#000000">interview_audit</text>
<text text-anchor="start" x="1409.0219" y="-1324.9742" font-family="Helvetica,sans-Serif" font-size="11.00" fill="#000000">[table]</text>
<polygon fill="none" stroke="#000000" points="1300.5,-1297.8742 1300.5,-1316.8742 1443.5,-1316.8742 1443.5,-1297.8742 1300.5,-1297.8742"/>
<text text-anchor="start" x="1303.5" y="-1303.9742" font-family="Helvetica,sans-Serif" font-size="11.00" fill="#000000">...</text>
<polygon fill="#ffffff" stroke="transparent" points="1300.5,-1278.8742 1300.5,-1297.8742 1370.5,-1297.8742 1370.5,-1278.8742 1300.5,-1278.8742"/>
<polygon fill="none" stroke="#000000" points="1300.5,-1278.8742 1300.5,-1297.8742 1370.5,-1297.8742 1370.5,-1278.8742 1300.5,-1278.8742"/>
<text text-anchor="start" x="1303.5" y="-1284.9742" font-family="Helvetica,sans-Serif" font-size="11.00" fill="#000000">&lt; 4</text>
<polygon fill="#ffffff" stroke="transparent" points="1370.5,-1278.8742 1370.5,-1297.8742 1406.5,-1297.8742 1406.5,-1278.8742 1370.5,-1278.8742"/>
<polygon fill="none" stroke="#000000" points="1370.5,-1278.8742 1370.5,-1297.8742 1406.5,-1297.8742 1406.5,-1278.8742 1370.5,-1278.8742"/>
<text text-anchor="start" x="1397.3862" y="-1284.9742" font-family="Helvetica,sans-Serif" font-size="11.00" fill="#000000"> &#160;</text>
<polygon fill="#ffffff" stroke="transparent" points="1406.5,-1278.8742 1406.5,-1297.8742 1443.5,-1297.8742 1443.5,-1278.8742 1406.5,-1278.8742"/>
<polygon fill="none" stroke="#000000" points="1406.5,-1278.8742 1406.5,-1297.8742 1443.5,-1297.8742 1443.5,-1278.8742 1406.5,-1278.8742"/>
<text text-anchor="start" x="1434.3862" y="-1284.9742" font-family="Helvetica,sans-Serif" font-size="11.00" fill="#000000"> &#160;</text>
</a>
</g>
</g>
<!-- interview_audit&#45;&gt;audit_revision -->
<g id="edge29" class="edge">
<title>interview_audit:w&#45;&gt;audit_revision:e</title>
<path fill="none" stroke="#000000" stroke-dasharray="5,2" d="M1286.0409,-1307.0509C1122.5525,-1310.4133 300.9391,-1359.737 215,-1280.8742 153.7232,-1224.643 257.1672,-908.8742 174,-908.8742"/>
<polygon fill="#000000" stroke="#000000" points="1292.5006,-1306.972 1300.544,-1310.4739 1296.5003,-1306.9231 1300.5,-1306.8742 1300.5,-1306.8742 1300.5,-1306.8742 1296.5003,-1306.9231 1300.456,-1303.2745 1292.5006,-1306.972 1292.5006,-1306.972"/>
<ellipse fill="none" stroke="#000000" cx="1289.3008" cy="-1307.0112" rx="3.2" ry="3.2"/>
</g>
<!-- interview_audit&#45;&gt;audit_revision -->
<g id="edge31" class="edge">
<title>interview_audit:w&#45;&gt;audit_revision:e</title>
<path fill="none" stroke="#000000" stroke-dasharray="5,2" d="M1286.0396,-1306.4604C1122.5358,-1304.1597 300.8487,-1349.8518 215,-1270.8742 154.4437,-1215.1647 256.2838,-902.8742 174,-908.8742"/>
<polygon fill="#000000" stroke="#000000" points="1292.5033,-1306.6453 1300.397,-1310.4727 1296.5016,-1306.7598 1300.5,-1306.8742 1300.5,-1306.8742 1300.5,-1306.8742 1296.5016,-1306.7598 1300.603,-1303.2757 1292.5033,-1306.6453 1292.5033,-1306.6453"/>
<ellipse fill="none" stroke="#000000" cx="1289.3046" cy="-1306.5537" rx="3.2" ry="3.2"/>
</g>
<!-- interview_audit&#45;&gt;audit_revision -->
<g id="edge32" class="edge">
<title>interview_audit:w&#45;&gt;audit_revision:e</title>
<path fill="none" stroke="#000000" d="M1286.0396,-1307.7128C1122.5358,-1317.1597 300.8487,-1362.8518 215,-1283.8742 154.4437,-1228.1647 256.2838,-915.8742 174,-908.8742"/>
<polygon fill="#000000" stroke="#000000" points="1292.5134,-1307.3374 1300.7084,-1310.4682 1296.5067,-1307.1058 1300.5,-1306.8742 1300.5,-1306.8742 1300.5,-1306.8742 1296.5067,-1307.1058 1300.2916,-1303.2802 1292.5134,-1307.3374 1292.5134,-1307.3374"/>
<ellipse fill="none" stroke="#000000" cx="1289.3188" cy="-1307.5227" rx="3.2" ry="3.2"/>
</g>
<!-- interview_audit&#45;&gt;investigation -->
<g id="edge30" class="edge">
<title>interview_audit:w&#45;&gt;investigation:e</title>
<path fill="none" stroke="#000000" stroke-dasharray="5,2" d="M1291.3073,-1295.5467C1253.5676,-1191.7771 1287.7042,-409.1494 1259,-369.8742 1225.6045,-324.1801 1196.0969,-325.8742 1139.5,-325.8742"/>
<polygon fill="#000000" stroke="#000000" points="1295.4589,-1300.6623 1297.7047,-1309.1427 1297.9794,-1303.7683 1300.5,-1306.8742 1300.5,-1306.8742 1300.5,-1306.8742 1297.9794,-1303.7683 1303.2953,-1304.6057 1295.4589,-1300.6623 1295.4589,-1300.6623"/>
<ellipse fill="none" stroke="#000000" cx="1293.4424" cy="-1298.1776" rx="3.2" ry="3.2"/>
</g>
<!-- investigation_audit -->
<g id="node18" class="node">
<title>investigation_audit</title>
<g id="a_node18"><a xlink:href="../../tables/investigation_audit.html" xlink:title="investigation_audit" target="_top">
<polygon fill="#ffffff" stroke="transparent" points="293.5,-1209.3742 293.5,-1270.3742 462.5,-1270.3742 462.5,-1209.3742 293.5,-1209.3742"/>
<polygon fill="#f5f5f5" stroke="transparent" points="294,-1246.8742 294,-1269.8742 463,-1269.8742 463,-1246.8742 294,-1246.8742"/>
<polygon fill="none" stroke="#000000" points="294,-1246.8742 294,-1269.8742 463,-1269.8742 463,-1246.8742 294,-1246.8742"/>
<text text-anchor="start" x="299" y="-1255.4742" font-family="Helvetica,sans-Serif" font-weight="bold" font-size="11.00" fill="#000000">investigation_audit</text>
<text text-anchor="start" x="428.5219" y="-1254.9742" font-family="Helvetica,sans-Serif" font-size="11.00" fill="#000000">[table]</text>
<polygon fill="none" stroke="#000000" points="294,-1227.8742 294,-1246.8742 463,-1246.8742 463,-1227.8742 294,-1227.8742"/>
<text text-anchor="start" x="297" y="-1233.9742" font-family="Helvetica,sans-Serif" font-size="11.00" fill="#000000">...</text>
<polygon fill="#ffffff" stroke="transparent" points="294,-1208.8742 294,-1227.8742 377,-1227.8742 377,-1208.8742 294,-1208.8742"/>
<polygon fill="none" stroke="#000000" points="294,-1208.8742 294,-1227.8742 377,-1227.8742 377,-1208.8742 294,-1208.8742"/>
<text text-anchor="start" x="297" y="-1214.9742" font-family="Helvetica,sans-Serif" font-size="11.00" fill="#000000">&lt; 1</text>
<polygon fill="#ffffff" stroke="transparent" points="377,-1208.8742 377,-1227.8742 420,-1227.8742 420,-1208.8742 377,-1208.8742"/>
<polygon fill="none" stroke="#000000" points="377,-1208.8742 377,-1227.8742 420,-1227.8742 420,-1208.8742 377,-1208.8742"/>
<text text-anchor="start" x="410.8862" y="-1214.9742" font-family="Helvetica,sans-Serif" font-size="11.00" fill="#000000"> &#160;</text>
<polygon fill="#ffffff" stroke="transparent" points="420,-1208.8742 420,-1227.8742 463,-1227.8742 463,-1208.8742 420,-1208.8742"/>
<polygon fill="none" stroke="#000000" points="420,-1208.8742 420,-1227.8742 463,-1227.8742 463,-1208.8742 420,-1208.8742"/>
<text text-anchor="start" x="453.8862" y="-1214.9742" font-family="Helvetica,sans-Serif" font-size="11.00" fill="#000000"> &#160;</text>
</a>
</g>
</g>
<!-- investigation_audit&#45;&gt;audit_revision -->
<g id="edge34" class="edge">
<title>investigation_audit:w&#45;&gt;audit_revision:e</title>
<path fill="none" stroke="#000000" d="M279.571,-1236.4846C250.4072,-1234.6949 234.9452,-1226.1463 215,-1198.8742 176.5791,-1146.3392 239.0853,-908.8742 174,-908.8742"/>
<polygon fill="#000000" stroke="#000000" points="286.0029,-1236.6582 293.9028,-1240.4729 290.0015,-1236.7662 294,-1236.8742 294,-1236.8742 294,-1236.8742 290.0015,-1236.7662 294.0972,-1233.2755 286.0029,-1236.6582 286.0029,-1236.6582"/>
<ellipse fill="none" stroke="#000000" cx="282.8041" cy="-1236.5718" rx="3.2" ry="3.2"/>
</g>
<!-- plan_audit -->
<g id="node19" class="node">
<title>plan_audit</title>
<g id="a_node19"><a xlink:href="../../tables/plan_audit.html" xlink:title="plan_audit" target="_top">
<polygon fill="#ffffff" stroke="transparent" points="323.5,-1127.3742 323.5,-1188.3742 432.5,-1188.3742 432.5,-1127.3742 323.5,-1127.3742"/>
<polygon fill="#f5f5f5" stroke="transparent" points="324,-1164.8742 324,-1187.8742 433,-1187.8742 433,-1164.8742 324,-1164.8742"/>
<polygon fill="none" stroke="#000000" points="324,-1164.8742 324,-1187.8742 433,-1187.8742 433,-1164.8742 324,-1164.8742"/>
<text text-anchor="start" x="329" y="-1173.4742" font-family="Helvetica,sans-Serif" font-weight="bold" font-size="11.00" fill="#000000">plan_audit</text>
<text text-anchor="start" x="398.5219" y="-1172.9742" font-family="Helvetica,sans-Serif" font-size="11.00" fill="#000000">[table]</text>
<polygon fill="none" stroke="#000000" points="324,-1145.8742 324,-1164.8742 433,-1164.8742 433,-1145.8742 324,-1145.8742"/>
<text text-anchor="start" x="327" y="-1151.9742" font-family="Helvetica,sans-Serif" font-size="11.00" fill="#000000">...</text>
<polygon fill="#ffffff" stroke="transparent" points="324,-1126.8742 324,-1145.8742 377,-1145.8742 377,-1126.8742 324,-1126.8742"/>
<polygon fill="none" stroke="#000000" points="324,-1126.8742 324,-1145.8742 377,-1145.8742 377,-1126.8742 324,-1126.8742"/>
<text text-anchor="start" x="327" y="-1132.9742" font-family="Helvetica,sans-Serif" font-size="11.00" fill="#000000">&lt; 1</text>
<polygon fill="#ffffff" stroke="transparent" points="377,-1126.8742 377,-1145.8742 405,-1145.8742 405,-1126.8742 377,-1126.8742"/>
<polygon fill="none" stroke="#000000" points="377,-1126.8742 377,-1145.8742 405,-1145.8742 405,-1126.8742 377,-1126.8742"/>
<text text-anchor="start" x="395.8862" y="-1132.9742" font-family="Helvetica,sans-Serif" font-size="11.00" fill="#000000"> &#160;</text>
<polygon fill="#ffffff" stroke="transparent" points="405,-1126.8742 405,-1145.8742 433,-1145.8742 433,-1126.8742 405,-1126.8742"/>
<polygon fill="none" stroke="#000000" points="405,-1126.8742 405,-1145.8742 433,-1145.8742 433,-1126.8742 405,-1126.8742"/>
<text text-anchor="start" x="423.8862" y="-1132.9742" font-family="Helvetica,sans-Serif" font-size="11.00" fill="#000000"> &#160;</text>
</a>
</g>
</g>
<!-- plan_audit&#45;&gt;audit_revision -->
<g id="edge35" class="edge">
<title>plan_audit:w&#45;&gt;audit_revision:e</title>
<path fill="none" stroke="#000000" d="M309.4435,-1154.8565C267.8076,-1154.6299 245.2848,-1151.7552 215,-1116.8742 153.2267,-1045.7259 268.2233,-908.8742 174,-908.8742"/>
<polygon fill="#000000" stroke="#000000" points="316,-1154.8644 323.9956,-1158.4742 320,-1154.8693 324,-1154.8742 324,-1154.8742 324,-1154.8742 320,-1154.8693 324.0044,-1151.2742 316,-1154.8644 316,-1154.8644"/>
<ellipse fill="none" stroke="#000000" cx="312.8" cy="-1154.8605" rx="3.2" ry="3.2"/>
</g>
<!-- referral_audit -->
<g id="node20" class="node">
<title>referral_audit</title>
<g id="a_node20"><a xlink:href="../../tables/referral_audit.html" xlink:title="referral_audit" target="_top">
<polygon fill="#ffffff" stroke="transparent" points="312.5,-1045.3742 312.5,-1106.3742 443.5,-1106.3742 443.5,-1045.3742 312.5,-1045.3742"/>
<polygon fill="#f5f5f5" stroke="transparent" points="313,-1082.8742 313,-1105.8742 444,-1105.8742 444,-1082.8742 313,-1082.8742"/>
<polygon fill="none" stroke="#000000" points="313,-1082.8742 313,-1105.8742 444,-1105.8742 444,-1082.8742 313,-1082.8742"/>
<text text-anchor="start" x="318" y="-1091.4742" font-family="Helvetica,sans-Serif" font-weight="bold" font-size="11.00" fill="#000000">referral_audit</text>
<text text-anchor="start" x="409.5219" y="-1090.9742" font-family="Helvetica,sans-Serif" font-size="11.00" fill="#000000">[table]</text>
<polygon fill="none" stroke="#000000" points="313,-1063.8742 313,-1082.8742 444,-1082.8742 444,-1063.8742 313,-1063.8742"/>
<text text-anchor="start" x="316" y="-1069.9742" font-family="Helvetica,sans-Serif" font-size="11.00" fill="#000000">...</text>
<polygon fill="#ffffff" stroke="transparent" points="313,-1044.8742 313,-1063.8742 377,-1063.8742 377,-1044.8742 313,-1044.8742"/>
<polygon fill="none" stroke="#000000" points="313,-1044.8742 313,-1063.8742 377,-1063.8742 377,-1044.8742 313,-1044.8742"/>
<text text-anchor="start" x="316" y="-1050.9742" font-family="Helvetica,sans-Serif" font-size="11.00" fill="#000000">&lt; 5</text>
<polygon fill="#ffffff" stroke="transparent" points="377,-1044.8742 377,-1063.8742 410,-1063.8742 410,-1044.8742 377,-1044.8742"/>
<polygon fill="none" stroke="#000000" points="377,-1044.8742 377,-1063.8742 410,-1063.8742 410,-1044.8742 377,-1044.8742"/>
<text text-anchor="start" x="400.8862" y="-1050.9742" font-family="Helvetica,sans-Serif" font-size="11.00" fill="#000000"> &#160;</text>
<polygon fill="#ffffff" stroke="transparent" points="410,-1044.8742 410,-1063.8742 444,-1063.8742 444,-1044.8742 410,-1044.8742"/>
<polygon fill="none" stroke="#000000" points="410,-1044.8742 410,-1063.8742 444,-1063.8742 444,-1044.8742 410,-1044.8742"/>
<text text-anchor="start" x="434.8862" y="-1050.9742" font-family="Helvetica,sans-Serif" font-size="11.00" fill="#000000"> &#160;</text>
</a>
</g>
</g>
<!-- referral_audit&#45;&gt;audit_revision -->
<g id="edge41" class="edge">
<title>referral_audit:w&#45;&gt;audit_revision:e</title>
<path fill="none" stroke="#000000" stroke-dasharray="5,2" d="M300.064,-1065.8363C262.4157,-1045.7951 243.9712,-1039.494 215,-1008.8742 174.5259,-966.0969 232.8901,-882.8742 174,-908.8742"/>
<polygon fill="#000000" stroke="#000000" points="305.9727,-1069.0509 311.2795,-1076.0365 309.4864,-1070.9626 313,-1072.8742 313,-1072.8742 313,-1072.8742 309.4864,-1070.9626 314.7205,-1069.7119 305.9727,-1069.0509 305.9727,-1069.0509"/>
<ellipse fill="none" stroke="#000000" cx="303.1618" cy="-1067.5216" rx="3.2" ry="3.2"/>
</g>
<!-- referral_audit&#45;&gt;audit_revision -->
<g id="edge42" class="edge">
<title>referral_audit:w&#45;&gt;audit_revision:e</title>
<path fill="none" stroke="#000000" stroke-dasharray="5,2" d="M299.0905,-1069.0135C262.0955,-1058.6842 243.7204,-1052.2289 215,-1021.8742 174.5259,-979.0969 232.8901,-895.8742 174,-908.8742"/>
<polygon fill="#000000" stroke="#000000" points="305.2914,-1070.7346 312.0372,-1076.3431 309.1457,-1071.8044 313,-1072.8742 313,-1072.8742 313,-1072.8742 309.1457,-1071.8044 313.9628,-1069.4053 305.2914,-1070.7346 305.2914,-1070.7346"/>
<ellipse fill="none" stroke="#000000" cx="302.208" cy="-1069.8788" rx="3.2" ry="3.2"/>
</g>
<!-- referral_audit&#45;&gt;audit_revision -->
<g id="edge43" class="edge">
<title>referral_audit:w&#45;&gt;audit_revision:e</title>
<path fill="none" stroke="#000000" stroke-dasharray="5,2" d="M298.1254,-1072.6802C261.7737,-1071.5696 243.4695,-1064.9637 215,-1034.8742 174.5259,-992.0969 232.8901,-908.8742 174,-908.8742"/>
<polygon fill="#000000" stroke="#000000" points="305.0007,-1072.7698 312.953,-1076.4739 309.0003,-1072.822 313,-1072.8742 313,-1072.8742 313,-1072.8742 309.0003,-1072.822 313.047,-1069.2745 305.0007,-1072.7698 305.0007,-1072.7698"/>
<ellipse fill="none" stroke="#000000" cx="301.801" cy="-1072.728" rx="3.2" ry="3.2"/>
</g>
<!-- referral_audit&#45;&gt;audit_revision -->
<g id="edge44" class="edge">
<title>referral_audit:w&#45;&gt;audit_revision:e</title>
<path fill="none" stroke="#000000" stroke-dasharray="5,2" d="M298.6069,-1076.5106C261.9348,-1084.6274 243.5949,-1078.0963 215,-1047.8742 174.5259,-1005.0969 232.8901,-921.8742 174,-908.8742"/>
<polygon fill="#000000" stroke="#000000" points="305.2437,-1074.8339 313.8818,-1076.3645 309.1219,-1073.854 313,-1072.8742 313,-1072.8742 313,-1072.8742 309.1219,-1073.854 312.1182,-1069.3839 305.2437,-1074.8339 305.2437,-1074.8339"/>
<ellipse fill="none" stroke="#000000" cx="302.1412" cy="-1075.6177" rx="3.2" ry="3.2"/>
</g>
<!-- referral_audit&#45;&gt;audit_revision -->
<g id="edge45" class="edge">
<title>referral_audit:w&#45;&gt;audit_revision:e</title>
<path fill="none" stroke="#000000" d="M300.064,-1079.6314C262.4157,-1097.7951 243.9712,-1091.494 215,-1060.8742 174.5259,-1018.0969 232.8901,-934.8742 174,-908.8742"/>
<polygon fill="#000000" stroke="#000000" points="305.9091,-1076.5782 314.6668,-1076.0651 309.4546,-1074.7262 313,-1072.8742 313,-1072.8742 313,-1072.8742 309.4546,-1074.7262 311.3332,-1069.6833 305.9091,-1076.5782 305.9091,-1076.5782"/>
<ellipse fill="none" stroke="#000000" cx="303.0727" cy="-1078.0598" rx="3.2" ry="3.2"/>
</g>
<!-- review_audit -->
<g id="node21" class="node">
<title>review_audit</title>
<g id="a_node21"><a xlink:href="../../tables/review_audit.html" xlink:title="review_audit" target="_top">
<polygon fill="#ffffff" stroke="transparent" points="315.5,-963.3742 315.5,-1024.3742 440.5,-1024.3742 440.5,-963.3742 315.5,-963.3742"/>
<polygon fill="#f5f5f5" stroke="transparent" points="316,-1000.8742 316,-1023.8742 441,-1023.8742 441,-1000.8742 316,-1000.8742"/>
<polygon fill="none" stroke="#000000" points="316,-1000.8742 316,-1023.8742 441,-1023.8742 441,-1000.8742 316,-1000.8742"/>
<text text-anchor="start" x="321" y="-1009.4742" font-family="Helvetica,sans-Serif" font-weight="bold" font-size="11.00" fill="#000000">review_audit</text>
<text text-anchor="start" x="406.5219" y="-1008.9742" font-family="Helvetica,sans-Serif" font-size="11.00" fill="#000000">[table]</text>
<polygon fill="none" stroke="#000000" points="316,-981.8742 316,-1000.8742 441,-1000.8742 441,-981.8742 316,-981.8742"/>
<text text-anchor="start" x="319" y="-987.9742" font-family="Helvetica,sans-Serif" font-size="11.00" fill="#000000">...</text>
<polygon fill="#ffffff" stroke="transparent" points="316,-962.8742 316,-981.8742 377,-981.8742 377,-962.8742 316,-962.8742"/>
<polygon fill="none" stroke="#000000" points="316,-962.8742 316,-981.8742 377,-981.8742 377,-962.8742 316,-962.8742"/>
<text text-anchor="start" x="319" y="-968.9742" font-family="Helvetica,sans-Serif" font-size="11.00" fill="#000000">&lt; 3</text>
<polygon fill="#ffffff" stroke="transparent" points="377,-962.8742 377,-981.8742 409,-981.8742 409,-962.8742 377,-962.8742"/>
<polygon fill="none" stroke="#000000" points="377,-962.8742 377,-981.8742 409,-981.8742 409,-962.8742 377,-962.8742"/>
<text text-anchor="start" x="399.8862" y="-968.9742" font-family="Helvetica,sans-Serif" font-size="11.00" fill="#000000"> &#160;</text>
<polygon fill="#ffffff" stroke="transparent" points="409,-962.8742 409,-981.8742 441,-981.8742 441,-962.8742 409,-962.8742"/>
<polygon fill="none" stroke="#000000" points="409,-962.8742 409,-981.8742 441,-981.8742 441,-962.8742 409,-962.8742"/>
<text text-anchor="start" x="431.8862" y="-968.9742" font-family="Helvetica,sans-Serif" font-size="11.00" fill="#000000"> &#160;</text>
</a>
</g>
</g>
<!-- review_audit&#45;&gt;audit_revision -->
<g id="edge47" class="edge">
<title>review_audit:w&#45;&gt;audit_revision:e</title>
<path fill="none" stroke="#000000" stroke-dasharray="5,2" d="M301.4302,-988.7018C264.8342,-982.217 250.4874,-970.6487 215,-946.8742 192.7933,-931.997 200.7296,-902.8742 174,-908.8742"/>
<polygon fill="#000000" stroke="#000000" points="308.0875,-989.6944 315.4691,-994.4348 312.0437,-990.2843 316,-990.8742 316,-990.8742 316,-990.8742 312.0437,-990.2843 316.5309,-987.3136 308.0875,-989.6944 308.0875,-989.6944"/>
<ellipse fill="none" stroke="#000000" cx="304.9225" cy="-989.2225" rx="3.2" ry="3.2"/>
</g>
<!-- review_audit&#45;&gt;audit_revision -->
<g id="edge48" class="edge">
<title>review_audit:w&#45;&gt;audit_revision:e</title>
<path fill="none" stroke="#000000" d="M301.4302,-992.5179C264.8342,-995.217 250.4874,-983.6487 215,-959.8742 192.7933,-944.997 200.7296,-915.8742 174,-908.8742"/>
<polygon fill="#000000" stroke="#000000" points="308.0504,-991.7711 316.4036,-994.4515 312.0252,-991.3227 316,-990.8742 316,-990.8742 316,-990.8742 312.0252,-991.3227 315.5964,-987.2969 308.0504,-991.7711 308.0504,-991.7711"/>
<ellipse fill="none" stroke="#000000" cx="304.8706" cy="-992.1299" rx="3.2" ry="3.2"/>
</g>
<!-- safer_custody_screening_outcome -->
<g id="node22" class="node">
<title>safer_custody_screening_outcome</title>
<g id="a_node22"><a xlink:href="../../tables/safer_custody_screening_outcome.html" xlink:title="safer_custody_screening_outcome" target="_top">
<polygon fill="#ffffff" stroke="transparent" points="941,-211.3742 941,-272.3742 1210,-272.3742 1210,-211.3742 941,-211.3742"/>
<polygon fill="#f5f5f5" stroke="transparent" points="941.5,-248.8742 941.5,-271.8742 1210.5,-271.8742 1210.5,-248.8742 941.5,-248.8742"/>
<polygon fill="none" stroke="#000000" points="941.5,-248.8742 941.5,-271.8742 1210.5,-271.8742 1210.5,-248.8742 941.5,-248.8742"/>
<text text-anchor="start" x="946.5" y="-257.4742" font-family="Helvetica,sans-Serif" font-weight="bold" font-size="11.00" fill="#000000">safer_custody_screening_outcome</text>
<text text-anchor="start" x="1176.0219" y="-256.9742" font-family="Helvetica,sans-Serif" font-size="11.00" fill="#000000">[table]</text>
<polygon fill="none" stroke="#000000" points="941.5,-229.8742 941.5,-248.8742 1210.5,-248.8742 1210.5,-229.8742 941.5,-229.8742"/>
<text text-anchor="start" x="944.5" y="-235.9742" font-family="Helvetica,sans-Serif" font-size="11.00" fill="#000000">...</text>
<polygon fill="#ffffff" stroke="transparent" points="941.5,-210.8742 941.5,-229.8742 1074.5,-229.8742 1074.5,-210.8742 941.5,-210.8742"/>
<polygon fill="none" stroke="#000000" points="941.5,-210.8742 941.5,-229.8742 1074.5,-229.8742 1074.5,-210.8742 941.5,-210.8742"/>
<text text-anchor="start" x="944.5" y="-216.9742" font-family="Helvetica,sans-Serif" font-size="11.00" fill="#000000">&lt; 2</text>
<polygon fill="#ffffff" stroke="transparent" points="1074.5,-210.8742 1074.5,-229.8742 1142.5,-229.8742 1142.5,-210.8742 1074.5,-210.8742"/>
<polygon fill="none" stroke="#000000" points="1074.5,-210.8742 1074.5,-229.8742 1142.5,-229.8742 1142.5,-210.8742 1074.5,-210.8742"/>
<text text-anchor="start" x="1133.3862" y="-216.9742" font-family="Helvetica,sans-Serif" font-size="11.00" fill="#000000"> &#160;</text>
<polygon fill="#ffffff" stroke="transparent" points="1142.5,-210.8742 1142.5,-229.8742 1210.5,-229.8742 1210.5,-210.8742 1142.5,-210.8742"/>
<polygon fill="none" stroke="#000000" points="1142.5,-210.8742 1142.5,-229.8742 1210.5,-229.8742 1210.5,-210.8742 1142.5,-210.8742"/>
<text text-anchor="start" x="1201.3862" y="-216.9742" font-family="Helvetica,sans-Serif" font-size="11.00" fill="#000000"> &#160;</text>
</a>
</g>
</g>
<!-- safer_custody_screening_outcome&#45;&gt;reference_data -->
<g id="edge49" class="edge">
<title>safer_custody_screening_outcome:w&#45;&gt;reference_data:e</title>
<path fill="none" stroke="#000000" d="M927.1732,-237.0206C897.0442,-228.3812 896.7261,-191.976 859,-179.8742 738.387,-141.1838 700.4277,-172.0977 574,-179.8742 550.9249,-181.2936 184.1187,-230.8742 161,-230.8742"/>
<polygon fill="#000000" stroke="#000000" points="933.5661,-237.8477 941.0381,-242.4445 937.5331,-238.3609 941.5,-238.8742 941.5,-238.8742 941.5,-238.8742 937.5331,-238.3609 941.9619,-235.304 933.5661,-237.8477 933.5661,-237.8477"/>
<ellipse fill="none" stroke="#000000" cx="930.3926" cy="-237.4371" rx="3.2" ry="3.2"/>
</g>
<!-- safer_custody_screening_outcome&#45;&gt;referral -->
<g id="edge50" class="edge">
<title>safer_custody_screening_outcome:w&#45;&gt;referral:e</title>
<path fill="none" stroke="#000000" d="M931.0145,-240.0688C910.4874,-245.3235 909.129,-267.0478 892,-287.8742 871.3284,-313.0078 884.0425,-348.8742 851.5,-348.8742"/>
<polygon fill="#000000" stroke="#000000" points="940.2523,-234.9905 941.1579,-242.9391 939.5682,-243.1202 938.6626,-235.1716 940.2523,-234.9905"/>
<polyline fill="none" stroke="#000000" points="941.5,-238.8742 937.5257,-239.327 "/>
<ellipse fill="none" stroke="#000000" cx="934.3463" cy="-239.6893" rx="3.2" ry="3.2"/>
</g>
<!-- safer_custody_screening_outcome_audit -->
<g id="node23" class="node">
<title>safer_custody_screening_outcome_audit</title>
<g id="a_node23"><a xlink:href="../../tables/safer_custody_screening_outcome_audit.html" xlink:title="safer_custody_screening_outcome_audit" target="_top">
<polygon fill="#ffffff" stroke="transparent" points="223,-881.3742 223,-942.3742 533,-942.3742 533,-881.3742 223,-881.3742"/>
<polygon fill="#f5f5f5" stroke="transparent" points="223,-918.8742 223,-941.8742 533,-941.8742 533,-918.8742 223,-918.8742"/>
<polygon fill="none" stroke="#000000" points="223,-918.8742 223,-941.8742 533,-941.8742 533,-918.8742 223,-918.8742"/>
<text text-anchor="start" x="228" y="-927.4742" font-family="Helvetica,sans-Serif" font-weight="bold" font-size="11.00" fill="#000000">safer_custody_screening_outcome_audit</text>
<text text-anchor="start" x="498.5219" y="-926.9742" font-family="Helvetica,sans-Serif" font-size="11.00" fill="#000000">[table]</text>
<polygon fill="none" stroke="#000000" points="223,-899.8742 223,-918.8742 533,-918.8742 533,-899.8742 223,-899.8742"/>
<text text-anchor="start" x="226" y="-905.9742" font-family="Helvetica,sans-Serif" font-size="11.00" fill="#000000">...</text>
<polygon fill="#ffffff" stroke="transparent" points="223,-880.8742 223,-899.8742 376,-899.8742 376,-880.8742 223,-880.8742"/>
<polygon fill="none" stroke="#000000" points="223,-880.8742 223,-899.8742 376,-899.8742 376,-880.8742 223,-880.8742"/>
<text text-anchor="start" x="226" y="-886.9742" font-family="Helvetica,sans-Serif" font-size="11.00" fill="#000000">&lt; 2</text>
<polygon fill="#ffffff" stroke="transparent" points="376,-880.8742 376,-899.8742 454,-899.8742 454,-880.8742 376,-880.8742"/>
<polygon fill="none" stroke="#000000" points="376,-880.8742 376,-899.8742 454,-899.8742 454,-880.8742 376,-880.8742"/>
<text text-anchor="start" x="444.8862" y="-886.9742" font-family="Helvetica,sans-Serif" font-size="11.00" fill="#000000"> &#160;</text>
<polygon fill="#ffffff" stroke="transparent" points="454,-880.8742 454,-899.8742 533,-899.8742 533,-880.8742 454,-880.8742"/>
<polygon fill="none" stroke="#000000" points="454,-880.8742 454,-899.8742 533,-899.8742 533,-880.8742 454,-880.8742"/>
<text text-anchor="start" x="523.8862" y="-886.9742" font-family="Helvetica,sans-Serif" font-size="11.00" fill="#000000"> &#160;</text>
</a>
</g>
</g>
<!-- safer_custody_screening_outcome_audit&#45;&gt;audit_revision -->
<g id="edge51" class="edge">
<title>safer_custody_screening_outcome_audit:w&#45;&gt;audit_revision:e</title>
<path fill="none" stroke="#000000" stroke-dasharray="5,2" d="M208.8534,-905.43C197.3293,-903.273 190.1632,-904.4211 174,-908.8742"/>
<polygon fill="#000000" stroke="#000000" points="215.2271,-906.9817 222.1484,-912.372 219.1135,-907.928 223,-908.8742 223,-908.8742 223,-908.8742 219.1135,-907.928 223.8516,-905.3764 215.2271,-906.9817 215.2271,-906.9817"/>
<ellipse fill="none" stroke="#000000" cx="212.1179" cy="-906.2247" rx="3.2" ry="3.2"/>
</g>
<!-- safer_custody_screening_outcome_audit&#45;&gt;audit_revision -->
<g id="edge52" class="edge">
<title>safer_custody_screening_outcome_audit:w&#45;&gt;audit_revision:e</title>
<path fill="none" stroke="#000000" d="M208.8534,-912.8925C197.3293,-915.4089 190.1632,-914.0695 174,-908.8742"/>
<polygon fill="#000000" stroke="#000000" points="215.3044,-911.0601 223.9837,-912.3372 219.1522,-909.9672 223,-908.8742 223,-908.8742 223,-908.8742 219.1522,-909.9672 222.0163,-905.4112 215.3044,-911.0601 215.3044,-911.0601"/>
<ellipse fill="none" stroke="#000000" cx="212.2262" cy="-911.9345" rx="3.2" ry="3.2"/>
</g>
</g>
</svg>
