<?xml version="1.0" encoding="UTF-8" standalone="no"?>
<!DOCTYPE svg PUBLIC "-//W3C//DTD SVG 1.1//EN"
 "http://www.w3.org/Graphics/SVG/1.1/DTD/svg11.dtd">
<!-- Generated by graphviz version 2.40.1 (20161225.0304)
 -->
<!-- Title: twoDegreesRelationshipsDiagramImplied Pages: 1 -->
<svg width="1284pt" height="1434pt"
 viewBox="0.00 0.00 1284.00 1433.84" xmlns="http://www.w3.org/2000/svg" xmlns:xlink="http://www.w3.org/1999/xlink">
<g id="graph0" class="graph" transform="scale(1 1) rotate(0) translate(4 1429.8446)">
<title>twoDegreesRelationshipsDiagramImplied</title>
<polygon fill="#ffffff" stroke="transparent" points="-4,4 -4,-1429.8446 1280,-1429.8446 1280,4 -4,4"/>
<text text-anchor="middle" x="72.4936" y="-7.3" font-family="Helvetica,sans-Serif" font-size="11.00" fill="#000000">Generated by SchemaSpy</text>
<!-- attendee -->
<g id="node1" class="node">
<title>attendee</title>
<g id="a_node1"><a xlink:href="../../tables/attendee.html" xlink:title="attendee" target="_top">
<polygon fill="#ffffff" stroke="transparent" points="602.5,-898.8446 602.5,-959.8446 702.5,-959.8446 702.5,-898.8446 602.5,-898.8446"/>
<polygon fill="#f5f5f5" stroke="transparent" points="602.5,-936.3446 602.5,-959.3446 702.5,-959.3446 702.5,-936.3446 602.5,-936.3446"/>
<polygon fill="none" stroke="#000000" points="602.5,-936.3446 602.5,-959.3446 702.5,-959.3446 702.5,-936.3446 602.5,-936.3446"/>
<text text-anchor="start" x="607.5" y="-944.9446" font-family="Helvetica,sans-Serif" font-weight="bold" font-size="11.00" fill="#000000">attendee</text>
<text text-anchor="start" x="668.0219" y="-944.4446" font-family="Helvetica,sans-Serif" font-size="11.00" fill="#000000">[table]</text>
<polygon fill="none" stroke="#000000" points="602.5,-917.3446 602.5,-936.3446 702.5,-936.3446 702.5,-917.3446 602.5,-917.3446"/>
<text text-anchor="start" x="605.5" y="-923.4446" font-family="Helvetica,sans-Serif" font-size="11.00" fill="#000000">...</text>
<polygon fill="#ffffff" stroke="transparent" points="602.5,-898.3446 602.5,-917.3446 650.5,-917.3446 650.5,-898.3446 602.5,-898.3446"/>
<polygon fill="none" stroke="#000000" points="602.5,-898.3446 602.5,-917.3446 650.5,-917.3446 650.5,-898.3446 602.5,-898.3446"/>
<text text-anchor="start" x="605.5" y="-904.4446" font-family="Helvetica,sans-Serif" font-size="11.00" fill="#000000">&lt; 2</text>
<polygon fill="#ffffff" stroke="transparent" points="650.5,-898.3446 650.5,-917.3446 676.5,-917.3446 676.5,-898.3446 650.5,-898.3446"/>
<polygon fill="none" stroke="#000000" points="650.5,-898.3446 650.5,-917.3446 676.5,-917.3446 676.5,-898.3446 650.5,-898.3446"/>
<text text-anchor="start" x="667.3862" y="-904.4446" font-family="Helvetica,sans-Serif" font-size="11.00" fill="#000000"> &#160;</text>
<polygon fill="#ffffff" stroke="transparent" points="676.5,-898.3446 676.5,-917.3446 702.5,-917.3446 702.5,-898.3446 676.5,-898.3446"/>
<polygon fill="none" stroke="#000000" points="676.5,-898.3446 676.5,-917.3446 702.5,-917.3446 702.5,-898.3446 676.5,-898.3446"/>
<text text-anchor="start" x="693.3862" y="-904.4446" font-family="Helvetica,sans-Serif" font-size="11.00" fill="#000000"> &#160;</text>
</a>
</g>
</g>
<!-- audit_revision -->
<g id="node2" class="node">
<title>audit_revision</title>
<g id="a_node2"><a xlink:href="../../tables/audit_revision.html" xlink:title="audit_revision" target="_top">
<polygon fill="#ffffff" stroke="transparent" points="8,-821.8446 8,-904.8446 174,-904.8446 174,-821.8446 8,-821.8446"/>
<polygon fill="#f5f5f5" stroke="transparent" points="8,-881.3446 8,-904.3446 174,-904.3446 174,-881.3446 8,-881.3446"/>
<polygon fill="none" stroke="#000000" points="8,-881.3446 8,-904.3446 174,-904.3446 174,-881.3446 8,-881.3446"/>
<text text-anchor="start" x="13" y="-889.9446" font-family="Helvetica,sans-Serif" font-weight="bold" font-size="11.00" fill="#000000">audit_revision</text>
<text text-anchor="start" x="139.0437" y="-889.4446" font-family="Helvetica,sans-Serif" font-size="11.00" fill="#000000">[table]</text>
<polygon fill="none" stroke="#000000" points="8,-859.3446 8,-881.3446 174,-881.3446 174,-859.3446 8,-859.3446"/>
<image xlink:href="../../images/primaryKeys.png" width="11px" height="12px" preserveAspectRatio="xMinYMin meet" x="13" y="-876.345"/>
<text text-anchor="start" x="28" y="-866.4446" font-family="Helvetica,sans-Serif" font-size="11.00" fill="#000000">id</text>
<polygon fill="none" stroke="#000000" points="8,-840.3446 8,-859.3446 174,-859.3446 174,-840.3446 8,-840.3446"/>
<text text-anchor="start" x="11" y="-846.4446" font-family="Helvetica,sans-Serif" font-size="11.00" fill="#000000">...</text>
<polygon fill="#ffffff" stroke="transparent" points="8,-821.3446 8,-840.3446 77,-840.3446 77,-821.3446 8,-821.3446"/>
<polygon fill="none" stroke="#000000" points="8,-821.3446 8,-840.3446 77,-840.3446 77,-821.3446 8,-821.3446"/>
<text text-anchor="start" x="11" y="-827.4446" font-family="Helvetica,sans-Serif" font-size="11.00" fill="#000000"> &#160;</text>
<polygon fill="#ffffff" stroke="transparent" points="77,-821.3446 77,-840.3446 118,-840.3446 118,-821.3446 77,-821.3446"/>
<polygon fill="none" stroke="#000000" points="77,-821.3446 77,-840.3446 118,-840.3446 118,-821.3446 77,-821.3446"/>
<text text-anchor="start" x="108.8862" y="-827.4446" font-family="Helvetica,sans-Serif" font-size="11.00" fill="#000000"> &#160;</text>
<polygon fill="#ffffff" stroke="transparent" points="118,-821.3446 118,-840.3446 174,-840.3446 174,-821.3446 118,-821.3446"/>
<polygon fill="none" stroke="#000000" points="118,-821.3446 118,-840.3446 174,-840.3446 174,-821.3446 118,-821.3446"/>
<text text-anchor="start" x="149.2904" y="-827.4446" font-family="Helvetica,sans-Serif" font-size="11.00" fill="#000000">32 &gt;</text>
</a>
</g>
</g>
<!-- attendee&#45;&gt;audit_revision -->
<g id="edge1" class="edge">
<title>attendee:w&#45;&gt;audit_revision:e</title>
<path fill="none" stroke="#000000" stroke-dasharray="5,2" d="M592.0577,-927.0264C572.3323,-929.7753 565.259,-940.0534 541,-943.3446 469.2132,-953.0837 277.5228,-979.9382 215,-943.3446 182.8848,-924.5481 211.2114,-870.3446 174,-870.3446"/>
<polygon fill="#000000" stroke="#000000" points="601.441,-922.4052 601.9624,-930.3882 600.3658,-930.4925 599.8444,-922.5095 601.441,-922.4052"/>
<polyline fill="none" stroke="#000000" points="602.5,-926.3446 598.5085,-926.6053 "/>
<ellipse fill="none" stroke="#000000" cx="595.3153" cy="-926.8138" rx="3.2" ry="3.2"/>
</g>
<!-- review -->
<g id="node3" class="node">
<title>review</title>
<g id="a_node3"><a xlink:href="../../tables/review.html" xlink:title="review" target="_top">
<polygon fill="#ffffff" stroke="transparent" points="336,-871.8446 336,-932.8446 420,-932.8446 420,-871.8446 336,-871.8446"/>
<polygon fill="#f5f5f5" stroke="transparent" points="336,-909.3446 336,-932.3446 420,-932.3446 420,-909.3446 336,-909.3446"/>
<polygon fill="none" stroke="#000000" points="336,-909.3446 336,-932.3446 420,-932.3446 420,-909.3446 336,-909.3446"/>
<text text-anchor="start" x="341" y="-917.9446" font-family="Helvetica,sans-Serif" font-weight="bold" font-size="11.00" fill="#000000">review</text>
<text text-anchor="start" x="385.5219" y="-917.4446" font-family="Helvetica,sans-Serif" font-size="11.00" fill="#000000">[table]</text>
<polygon fill="none" stroke="#000000" points="336,-890.3446 336,-909.3446 420,-909.3446 420,-890.3446 336,-890.3446"/>
<text text-anchor="start" x="339" y="-896.4446" font-family="Helvetica,sans-Serif" font-size="11.00" fill="#000000">...</text>
<polygon fill="#ffffff" stroke="transparent" points="336,-871.3446 336,-890.3446 372,-890.3446 372,-871.3446 336,-871.3446"/>
<polygon fill="none" stroke="#000000" points="336,-871.3446 336,-890.3446 372,-890.3446 372,-871.3446 336,-871.3446"/>
<text text-anchor="start" x="339" y="-877.4446" font-family="Helvetica,sans-Serif" font-size="11.00" fill="#000000">&lt; 2</text>
<polygon fill="#ffffff" stroke="transparent" points="372,-871.3446 372,-890.3446 391,-890.3446 391,-871.3446 372,-871.3446"/>
<polygon fill="none" stroke="#000000" points="372,-871.3446 372,-890.3446 391,-890.3446 391,-871.3446 372,-871.3446"/>
<text text-anchor="start" x="381.8862" y="-877.4446" font-family="Helvetica,sans-Serif" font-size="11.00" fill="#000000"> &#160;</text>
<polygon fill="#ffffff" stroke="transparent" points="391,-871.3446 391,-890.3446 420,-890.3446 420,-871.3446 391,-871.3446"/>
<polygon fill="none" stroke="#000000" points="391,-871.3446 391,-890.3446 420,-890.3446 420,-871.3446 391,-871.3446"/>
<text text-anchor="start" x="401.4053" y="-877.4446" font-family="Helvetica,sans-Serif" font-size="11.00" fill="#000000">2 &gt;</text>
</a>
</g>
</g>
<!-- attendee&#45;&gt;review -->
<g id="edge2" class="edge">
<title>attendee:w&#45;&gt;review:e</title>
<path fill="none" stroke="#000000" d="M587.8391,-926.0414C517.944,-923.0751 496.8694,-899.3446 420,-899.3446"/>
<polygon fill="#000000" stroke="#000000" points="594.5017,-926.1791 602.4255,-929.9438 598.5009,-926.2619 602.5,-926.3446 602.5,-926.3446 602.5,-926.3446 598.5009,-926.2619 602.5745,-922.7454 594.5017,-926.1791 594.5017,-926.1791"/>
<ellipse fill="none" stroke="#000000" cx="591.3024" cy="-926.1129" rx="3.2" ry="3.2"/>
</g>
<!-- review&#45;&gt;audit_revision -->
<g id="edge46" class="edge">
<title>review:w&#45;&gt;audit_revision:e</title>
<path fill="none" stroke="#000000" stroke-dasharray="5,2" d="M325.2862,-899.1278C261.1117,-896.4741 243.4302,-870.3446 174,-870.3446"/>
<polygon fill="#000000" stroke="#000000" points="335.2811,-895.3292 335.1192,-903.3276 333.5195,-903.2952 333.6814,-895.2969 335.2811,-895.3292"/>
<polyline fill="none" stroke="#000000" points="336,-899.3446 332.0008,-899.2637 "/>
<ellipse fill="none" stroke="#000000" cx="328.8015" cy="-899.1989" rx="3.2" ry="3.2"/>
</g>
<!-- attendee_audit -->
<g id="node4" class="node">
<title>attendee_audit</title>
<g id="a_node4"><a xlink:href="../../tables/attendee_audit.html" xlink:title="attendee_audit" target="_top">
<polygon fill="#ffffff" stroke="transparent" points="582,-816.8446 582,-877.8446 723,-877.8446 723,-816.8446 582,-816.8446"/>
<polygon fill="#f5f5f5" stroke="transparent" points="582.5,-854.3446 582.5,-877.3446 723.5,-877.3446 723.5,-854.3446 582.5,-854.3446"/>
<polygon fill="none" stroke="#000000" points="582.5,-854.3446 582.5,-877.3446 723.5,-877.3446 723.5,-854.3446 582.5,-854.3446"/>
<text text-anchor="start" x="587.5" y="-862.9446" font-family="Helvetica,sans-Serif" font-weight="bold" font-size="11.00" fill="#000000">attendee_audit</text>
<text text-anchor="start" x="689.0219" y="-862.4446" font-family="Helvetica,sans-Serif" font-size="11.00" fill="#000000">[table]</text>
<polygon fill="none" stroke="#000000" points="582.5,-835.3446 582.5,-854.3446 723.5,-854.3446 723.5,-835.3446 582.5,-835.3446"/>
<text text-anchor="start" x="585.5" y="-841.4446" font-family="Helvetica,sans-Serif" font-size="11.00" fill="#000000">...</text>
<polygon fill="#ffffff" stroke="transparent" points="582.5,-816.3446 582.5,-835.3446 651.5,-835.3446 651.5,-816.3446 582.5,-816.3446"/>
<polygon fill="none" stroke="#000000" points="582.5,-816.3446 582.5,-835.3446 651.5,-835.3446 651.5,-816.3446 582.5,-816.3446"/>
<text text-anchor="start" x="585.5" y="-822.4446" font-family="Helvetica,sans-Serif" font-size="11.00" fill="#000000">&lt; 3</text>
<polygon fill="#ffffff" stroke="transparent" points="651.5,-816.3446 651.5,-835.3446 687.5,-835.3446 687.5,-816.3446 651.5,-816.3446"/>
<polygon fill="none" stroke="#000000" points="651.5,-816.3446 651.5,-835.3446 687.5,-835.3446 687.5,-816.3446 651.5,-816.3446"/>
<text text-anchor="start" x="678.3862" y="-822.4446" font-family="Helvetica,sans-Serif" font-size="11.00" fill="#000000"> &#160;</text>
<polygon fill="#ffffff" stroke="transparent" points="687.5,-816.3446 687.5,-835.3446 723.5,-835.3446 723.5,-816.3446 687.5,-816.3446"/>
<polygon fill="none" stroke="#000000" points="687.5,-816.3446 687.5,-835.3446 723.5,-835.3446 723.5,-816.3446 687.5,-816.3446"/>
<text text-anchor="start" x="714.3862" y="-822.4446" font-family="Helvetica,sans-Serif" font-size="11.00" fill="#000000"> &#160;</text>
</a>
</g>
</g>
<!-- attendee_audit&#45;&gt;audit_revision -->
<g id="edge3" class="edge">
<title>attendee_audit:w&#45;&gt;audit_revision:e</title>
<path fill="none" stroke="#000000" stroke-dasharray="5,2" d="M567.9778,-844.3334C416.3456,-844.1028 372.1963,-840.6084 215,-861.3446 196.5041,-863.7844 192.6561,-870.3446 174,-870.3446"/>
<polygon fill="#000000" stroke="#000000" points="574.5,-844.3384 582.4972,-847.9446 578.5,-844.3415 582.5,-844.3446 582.5,-844.3446 582.5,-844.3446 578.5,-844.3415 582.5028,-840.7446 574.5,-844.3384 574.5,-844.3384"/>
<ellipse fill="none" stroke="#000000" cx="571.3" cy="-844.3359" rx="3.2" ry="3.2"/>
</g>
<!-- attendee_audit&#45;&gt;audit_revision -->
<g id="edge4" class="edge">
<title>attendee_audit:w&#45;&gt;audit_revision:e</title>
<path fill="none" stroke="#000000" d="M567.9722,-844.3623C416.3089,-844.741 373.0161,-851.2095 215,-865.3446 196.7158,-866.9802 192.3572,-870.3446 174,-870.3446"/>
<polygon fill="#000000" stroke="#000000" points="574.5,-844.3544 582.5044,-847.9446 578.5,-844.3495 582.5,-844.3446 582.5,-844.3446 582.5,-844.3446 578.5,-844.3495 582.4956,-840.7446 574.5,-844.3544 574.5,-844.3544"/>
<ellipse fill="none" stroke="#000000" cx="571.3" cy="-844.3583" rx="3.2" ry="3.2"/>
</g>
<!-- attendee_audit&#45;&gt;review -->
<g id="edge5" class="edge">
<title>attendee_audit:w&#45;&gt;review:e</title>
<path fill="none" stroke="#000000" stroke-dasharray="5,2" d="M568.4488,-848.2121C529.9828,-860.7313 427.9858,-899.3446 420,-899.3446"/>
<polygon fill="#000000" stroke="#000000" points="574.7868,-846.4676 583.4554,-847.8155 578.6434,-845.4061 582.5,-844.3446 582.5,-844.3446 582.5,-844.3446 578.6434,-845.4061 581.5446,-840.8737 574.7868,-846.4676 574.7868,-846.4676"/>
<ellipse fill="none" stroke="#000000" cx="571.7016" cy="-847.3168" rx="3.2" ry="3.2"/>
</g>
<!-- contributory_factor -->
<g id="node5" class="node">
<title>contributory_factor</title>
<g id="a_node5"><a xlink:href="../../tables/contributory_factor.html" xlink:title="contributory_factor" target="_top">
<polygon fill="#ffffff" stroke="transparent" points="772,-245.3446 772,-423.3446 1076,-423.3446 1076,-245.3446 772,-245.3446"/>
<polygon fill="#f5f5f5" stroke="transparent" points="774,-398.3446 774,-421.3446 1074,-421.3446 1074,-398.3446 774,-398.3446"/>
<polygon fill="none" stroke="#000000" points="774,-398.3446 774,-421.3446 1074,-421.3446 1074,-398.3446 774,-398.3446"/>
<text text-anchor="start" x="779" y="-406.9446" font-family="Helvetica,sans-Serif" font-weight="bold" font-size="11.00" fill="#000000">contributory_factor</text>
<text text-anchor="start" x="1039.0437" y="-406.4446" font-family="Helvetica,sans-Serif" font-size="11.00" fill="#000000">[table]</text>
<polygon fill="none" stroke="#000000" points="774,-376.3446 774,-398.3446 980,-398.3446 980,-376.3446 774,-376.3446"/>
<image xlink:href="../../images/primaryKeys.png" width="11px" height="12px" preserveAspectRatio="xMinYMin meet" x="779" y="-393.345"/>
<text text-anchor="start" x="794" y="-383.4446" font-family="Helvetica,sans-Serif" font-size="11.00" fill="#000000">contributory_factor_id</text>
<polygon fill="none" stroke="#000000" points="980,-376.3446 980,-398.3446 1074,-398.3446 1074,-376.3446 980,-376.3446"/>
<text text-anchor="start" x="982.9758" y="-384.0446" font-family="Helvetica,sans-Serif" font-size="11.00" fill="#000000">uuid[2147483647]</text>
<polygon fill="#ffffff" stroke="transparent" points="774,-354.3446 774,-376.3446 980,-376.3446 980,-354.3446 774,-354.3446"/>
<polygon fill="none" stroke="#000000" points="774,-354.3446 774,-376.3446 980,-376.3446 980,-354.3446 774,-354.3446"/>
<image xlink:href="../../images/foreignKeys.png" width="11px" height="12px" preserveAspectRatio="xMinYMin meet" x="779" y="-371.345"/>
<text text-anchor="start" x="794" y="-361.4446" font-family="Helvetica,sans-Serif" font-size="11.00" fill="#000000">referral_id</text>
<polygon fill="none" stroke="#000000" points="980,-354.3446 980,-376.3446 1074,-376.3446 1074,-354.3446 980,-354.3446"/>
<text text-anchor="start" x="982.9758" y="-362.0446" font-family="Helvetica,sans-Serif" font-size="11.00" fill="#000000">uuid[2147483647]</text>
<polygon fill="#ffffff" stroke="transparent" points="774,-332.3446 774,-354.3446 980,-354.3446 980,-332.3446 774,-332.3446"/>
<polygon fill="none" stroke="#000000" points="774,-332.3446 774,-354.3446 980,-354.3446 980,-332.3446 774,-332.3446"/>
<image xlink:href="../../images/foreignKeys.png" width="11px" height="12px" preserveAspectRatio="xMinYMin meet" x="779" y="-349.345"/>
<text text-anchor="start" x="794" y="-339.4446" font-family="Helvetica,sans-Serif" font-size="11.00" fill="#000000">contributory_factor_type_id</text>
<polygon fill="none" stroke="#000000" points="980,-332.3446 980,-354.3446 1074,-354.3446 1074,-332.3446 980,-332.3446"/>
<text text-anchor="start" x="983" y="-340.0446" font-family="Helvetica,sans-Serif" font-size="11.00" fill="#000000">int8[19]</text>
<polygon fill="none" stroke="#000000" points="774,-310.3446 774,-332.3446 980,-332.3446 980,-310.3446 774,-310.3446"/>
<text text-anchor="start" x="794" y="-317.4446" font-family="Helvetica,sans-Serif" font-size="11.00" fill="#000000">comment</text>
<polygon fill="none" stroke="#000000" points="980,-310.3446 980,-332.3446 1074,-332.3446 1074,-310.3446 980,-310.3446"/>
<text text-anchor="start" x="983" y="-318.0446" font-family="Helvetica,sans-Serif" font-size="11.00" fill="#000000">text[2147483647]</text>
<polygon fill="none" stroke="#000000" points="774,-288.3446 774,-310.3446 980,-310.3446 980,-288.3446 774,-288.3446"/>
<text text-anchor="start" x="794" y="-295.4446" font-family="Helvetica,sans-Serif" font-size="11.00" fill="#000000">version</text>
<polygon fill="none" stroke="#000000" points="980,-288.3446 980,-310.3446 1074,-310.3446 1074,-288.3446 980,-288.3446"/>
<text text-anchor="start" x="983" y="-296.0446" font-family="Helvetica,sans-Serif" font-size="11.00" fill="#000000">int4[10]</text>
<polygon fill="#ffffff" stroke="transparent" points="774,-266.3446 774,-288.3446 980,-288.3446 980,-266.3446 774,-266.3446"/>
<polygon fill="none" stroke="#000000" points="774,-266.3446 774,-288.3446 980,-288.3446 980,-266.3446 774,-266.3446"/>
<image xlink:href="../../images/foreignKeys.png" width="11px" height="12px" preserveAspectRatio="xMinYMin meet" x="779" y="-283.345"/>
<text text-anchor="start" x="794" y="-273.4446" font-family="Helvetica,sans-Serif" font-size="11.00" fill="#000000">legacy_id</text>
<polygon fill="none" stroke="#000000" points="980,-266.3446 980,-288.3446 1074,-288.3446 1074,-266.3446 980,-266.3446"/>
<text text-anchor="start" x="983" y="-274.0446" font-family="Helvetica,sans-Serif" font-size="11.00" fill="#000000">int8[19]</text>
<polygon fill="#ffffff" stroke="transparent" points="774,-247.3446 774,-266.3446 881,-266.3446 881,-247.3446 774,-247.3446"/>
<polygon fill="none" stroke="#000000" points="774,-247.3446 774,-266.3446 881,-266.3446 881,-247.3446 774,-247.3446"/>
<text text-anchor="start" x="777" y="-253.4446" font-family="Helvetica,sans-Serif" font-size="11.00" fill="#000000">&lt; 3</text>
<polygon fill="#ffffff" stroke="transparent" points="881,-247.3446 881,-266.3446 980,-266.3446 980,-247.3446 881,-247.3446"/>
<polygon fill="none" stroke="#000000" points="881,-247.3446 881,-266.3446 980,-266.3446 980,-247.3446 881,-247.3446"/>
<text text-anchor="start" x="970.8862" y="-253.4446" font-family="Helvetica,sans-Serif" font-size="11.00" fill="#000000"> &#160;</text>
<polygon fill="#ffffff" stroke="transparent" points="980,-247.3446 980,-266.3446 1074,-266.3446 1074,-247.3446 980,-247.3446"/>
<polygon fill="none" stroke="#000000" points="980,-247.3446 980,-266.3446 1074,-266.3446 1074,-247.3446 980,-247.3446"/>
<text text-anchor="start" x="1055.4053" y="-253.4446" font-family="Helvetica,sans-Serif" font-size="11.00" fill="#000000">0 &gt;</text>
<polygon fill="none" stroke="#000000" stroke-width="2" points="773,-246.3446 773,-422.3446 1075,-422.3446 1075,-246.3446 773,-246.3446"/>
</a>
</g>
</g>
<!-- contributory_factor&#45;&gt;audit_revision -->
<g id="edge7" class="edge">
<title>contributory_factor:w&#45;&gt;audit_revision:e</title>
<path fill="none" stroke="#000000" stroke-dasharray="5,2" d="M763.41,-279.2787C749.5931,-285.2011 749.0282,-303.2936 731,-313.3446 653.2949,-356.6665 627.7399,-356.5696 541,-376.3446 469.7841,-392.5805 265.6675,-365.7317 215,-418.3446 145.0392,-490.9916 274.8568,-870.3446 174,-870.3446"/>
<polygon fill="#000000" stroke="#000000" points="772.4943,-273.5534 773.9317,-281.4232 772.3577,-281.7107 770.9204,-273.8409 772.4943,-273.5534"/>
<polyline fill="none" stroke="#000000" points="774,-277.3446 770.0651,-278.0633 "/>
<ellipse fill="none" stroke="#000000" cx="766.9172" cy="-278.6382" rx="3.2" ry="3.2"/>
</g>
<!-- reference_data -->
<g id="node6" class="node">
<title>reference_data</title>
<g id="a_node6"><a xlink:href="../../tables/reference_data.html" xlink:title="reference_data" target="_top">
<polygon fill="#ffffff" stroke="transparent" points="21,-209.8446 21,-270.8446 161,-270.8446 161,-209.8446 21,-209.8446"/>
<polygon fill="#f5f5f5" stroke="transparent" points="21,-247.3446 21,-270.3446 161,-270.3446 161,-247.3446 21,-247.3446"/>
<polygon fill="none" stroke="#000000" points="21,-247.3446 21,-270.3446 161,-270.3446 161,-247.3446 21,-247.3446"/>
<text text-anchor="start" x="26" y="-255.9446" font-family="Helvetica,sans-Serif" font-weight="bold" font-size="11.00" fill="#000000">reference_data</text>
<text text-anchor="start" x="126.5219" y="-255.4446" font-family="Helvetica,sans-Serif" font-size="11.00" fill="#000000">[table]</text>
<polygon fill="none" stroke="#000000" points="21,-228.3446 21,-247.3446 161,-247.3446 161,-228.3446 21,-228.3446"/>
<text text-anchor="start" x="24" y="-234.4446" font-family="Helvetica,sans-Serif" font-size="11.00" fill="#000000">...</text>
<polygon fill="#ffffff" stroke="transparent" points="21,-209.3446 21,-228.3446 58,-228.3446 58,-209.3446 21,-209.3446"/>
<polygon fill="none" stroke="#000000" points="21,-209.3446 21,-228.3446 58,-228.3446 58,-209.3446 21,-209.3446"/>
<text text-anchor="start" x="24" y="-215.4446" font-family="Helvetica,sans-Serif" font-size="11.00" fill="#000000"> &#160;</text>
<polygon fill="#ffffff" stroke="transparent" points="58,-209.3446 58,-228.3446 121,-228.3446 121,-209.3446 58,-209.3446"/>
<polygon fill="none" stroke="#000000" points="58,-209.3446 58,-228.3446 121,-228.3446 121,-209.3446 58,-209.3446"/>
<text text-anchor="start" x="73.3807" y="-215.4446" font-family="Helvetica,sans-Serif" font-size="11.00" fill="#000000">112 rows</text>
<polygon fill="#ffffff" stroke="transparent" points="121,-209.3446 121,-228.3446 161,-228.3446 161,-209.3446 121,-209.3446"/>
<polygon fill="none" stroke="#000000" points="121,-209.3446 121,-228.3446 161,-228.3446 161,-209.3446 121,-209.3446"/>
<text text-anchor="start" x="136.2904" y="-215.4446" font-family="Helvetica,sans-Serif" font-size="11.00" fill="#000000">10 &gt;</text>
</a>
</g>
</g>
<!-- contributory_factor&#45;&gt;reference_data -->
<g id="edge6" class="edge">
<title>contributory_factor:w&#45;&gt;reference_data:e</title>
<path fill="none" stroke="#000000" d="M759.722,-340.3894C731.7135,-325.4739 769.9656,-258.1233 731,-231.3446 685.8108,-200.2888 329.8646,-222.4707 169.2083,-234.2589"/>
<polygon fill="#000000" stroke="#000000" points="766.166,-341.7231 773.2703,-346.8699 770.083,-342.5339 774,-343.3446 774,-343.3446 774,-343.3446 770.083,-342.5339 774.7297,-339.8193 766.166,-341.7231 766.166,-341.7231"/>
<ellipse fill="none" stroke="#000000" cx="763.0325" cy="-341.0745" rx="3.2" ry="3.2"/>
</g>
<!-- referral -->
<g id="node7" class="node">
<title>referral</title>
<g id="a_node7"><a xlink:href="../../tables/referral.html" xlink:title="referral" target="_top">
<polygon fill="#ffffff" stroke="transparent" points="607.5,-241.8446 607.5,-302.8446 697.5,-302.8446 697.5,-241.8446 607.5,-241.8446"/>
<polygon fill="#f5f5f5" stroke="transparent" points="607.5,-279.3446 607.5,-302.3446 697.5,-302.3446 697.5,-279.3446 607.5,-279.3446"/>
<polygon fill="none" stroke="#000000" points="607.5,-279.3446 607.5,-302.3446 697.5,-302.3446 697.5,-279.3446 607.5,-279.3446"/>
<text text-anchor="start" x="612.5" y="-287.9446" font-family="Helvetica,sans-Serif" font-weight="bold" font-size="11.00" fill="#000000">referral</text>
<text text-anchor="start" x="663.0219" y="-287.4446" font-family="Helvetica,sans-Serif" font-size="11.00" fill="#000000">[table]</text>
<polygon fill="none" stroke="#000000" points="607.5,-260.3446 607.5,-279.3446 697.5,-279.3446 697.5,-260.3446 607.5,-260.3446"/>
<text text-anchor="start" x="610.5" y="-266.4446" font-family="Helvetica,sans-Serif" font-size="11.00" fill="#000000">...</text>
<polygon fill="#ffffff" stroke="transparent" points="607.5,-241.3446 607.5,-260.3446 646.5,-260.3446 646.5,-241.3446 607.5,-241.3446"/>
<polygon fill="none" stroke="#000000" points="607.5,-241.3446 607.5,-260.3446 646.5,-260.3446 646.5,-241.3446 607.5,-241.3446"/>
<text text-anchor="start" x="610.5" y="-247.4446" font-family="Helvetica,sans-Serif" font-size="11.00" fill="#000000">&lt; 5</text>
<polygon fill="#ffffff" stroke="transparent" points="646.5,-241.3446 646.5,-260.3446 667.5,-260.3446 667.5,-241.3446 646.5,-241.3446"/>
<polygon fill="none" stroke="#000000" points="646.5,-241.3446 646.5,-260.3446 667.5,-260.3446 667.5,-241.3446 646.5,-241.3446"/>
<text text-anchor="start" x="658.3862" y="-247.4446" font-family="Helvetica,sans-Serif" font-size="11.00" fill="#000000"> &#160;</text>
<polygon fill="#ffffff" stroke="transparent" points="667.5,-241.3446 667.5,-260.3446 697.5,-260.3446 697.5,-241.3446 667.5,-241.3446"/>
<polygon fill="none" stroke="#000000" points="667.5,-241.3446 667.5,-260.3446 697.5,-260.3446 697.5,-241.3446 667.5,-241.3446"/>
<text text-anchor="start" x="678.9053" y="-247.4446" font-family="Helvetica,sans-Serif" font-size="11.00" fill="#000000">5 &gt;</text>
</a>
</g>
</g>
<!-- contributory_factor&#45;&gt;referral -->
<g id="edge8" class="edge">
<title>contributory_factor:w&#45;&gt;referral:e</title>
<path fill="none" stroke="#000000" d="M759.3067,-363.921C725.6384,-357.4481 696.5339,-330.1104 677.2478,-306.9744"/>
<polygon fill="#000000" stroke="#000000" points="766.0373,-364.5731 773.6528,-368.9278 770.0186,-364.9588 774,-365.3446 774,-365.3446 774,-365.3446 770.0186,-364.9588 774.3472,-361.7614 766.0373,-364.5731 766.0373,-364.5731"/>
<ellipse fill="none" stroke="#000000" cx="762.8522" cy="-364.2645" rx="3.2" ry="3.2"/>
</g>
<!-- referral&#45;&gt;reference_data -->
<g id="edge36" class="edge">
<title>referral:w&#45;&gt;reference_data:e</title>
<path fill="none" stroke="#000000" d="M585.0322,-258.8361C480.5634,-246.9677 280.1827,-235.3539 169.4213,-234.5682"/>
<polygon fill="#000000" stroke="#000000" points="591.4787,-259.6036 598.9969,-264.1242 595.4506,-260.0765 599.4226,-260.5495 599.4226,-260.5495 599.4226,-260.5495 595.4506,-260.0765 599.8482,-256.9747 591.4787,-259.6036 591.4787,-259.6036"/>
<ellipse fill="none" stroke="#000000" cx="588.3011" cy="-259.2252" rx="3.2" ry="3.2"/>
</g>
<!-- referral&#45;&gt;reference_data -->
<g id="edge37" class="edge">
<title>referral:w&#45;&gt;reference_data:e</title>
<path fill="none" stroke="#000000" d="M585.0322,-265.448C480.5634,-257.6265 280.1827,-246.1455 169.4213,-241.5784"/>
<polygon fill="#000000" stroke="#000000" points="591.4459,-265.9392 599.1476,-270.1396 595.4343,-266.2447 599.4226,-266.5502 599.4226,-266.5502 599.4226,-266.5502 595.4343,-266.2447 599.6975,-262.9607 591.4459,-265.9392 591.4459,-265.9392"/>
<ellipse fill="none" stroke="#000000" cx="588.2553" cy="-265.6947" rx="3.2" ry="3.2"/>
</g>
<!-- referral&#45;&gt;reference_data -->
<g id="edge38" class="edge">
<title>referral:w&#45;&gt;reference_data:e</title>
<path fill="none" stroke="#000000" d="M584.7112,-272.0482C480.1533,-268.262 280.0694,-256.9284 169.4213,-248.5885"/>
<polygon fill="#000000" stroke="#000000" points="591.4272,-272.2776 599.2996,-276.1487 595.4249,-272.4142 599.4226,-272.5508 599.4226,-272.5508 599.4226,-272.5508 595.4249,-272.4142 599.5455,-268.9529 591.4272,-272.2776 591.4272,-272.2776"/>
<ellipse fill="none" stroke="#000000" cx="588.2291" cy="-272.1684" rx="3.2" ry="3.2"/>
</g>
<!-- referral&#45;&gt;reference_data -->
<g id="edge39" class="edge">
<title>referral:w&#45;&gt;reference_data:e</title>
<path fill="none" stroke="#000000" d="M584.7112,-278.6726C480.1533,-278.9211 280.0694,-267.7161 169.4213,-255.5987"/>
<polygon fill="#000000" stroke="#000000" points="591.4229,-278.6174 599.4522,-282.1514 595.4227,-278.5845 599.4226,-278.5515 599.4226,-278.5515 599.4226,-278.5515 595.4227,-278.5845 599.3929,-274.9516 591.4229,-278.6174 591.4229,-278.6174"/>
<ellipse fill="none" stroke="#000000" cx="588.223" cy="-278.6437" rx="3.2" ry="3.2"/>
</g>
<!-- csip_record -->
<g id="node9" class="node">
<title>csip_record</title>
<g id="a_node9"><a xlink:href="../../tables/csip_record.html" xlink:title="csip_record" target="_top">
<polygon fill="#ffffff" stroke="transparent" points="320.5,-304.8446 320.5,-365.8446 435.5,-365.8446 435.5,-304.8446 320.5,-304.8446"/>
<polygon fill="#f5f5f5" stroke="transparent" points="321,-342.3446 321,-365.3446 436,-365.3446 436,-342.3446 321,-342.3446"/>
<polygon fill="none" stroke="#000000" points="321,-342.3446 321,-365.3446 436,-365.3446 436,-342.3446 321,-342.3446"/>
<text text-anchor="start" x="326" y="-350.9446" font-family="Helvetica,sans-Serif" font-weight="bold" font-size="11.00" fill="#000000">csip_record</text>
<text text-anchor="start" x="401.5219" y="-350.4446" font-family="Helvetica,sans-Serif" font-size="11.00" fill="#000000">[table]</text>
<polygon fill="none" stroke="#000000" points="321,-323.3446 321,-342.3446 436,-342.3446 436,-323.3446 321,-323.3446"/>
<text text-anchor="start" x="324" y="-329.4446" font-family="Helvetica,sans-Serif" font-size="11.00" fill="#000000">...</text>
<polygon fill="#ffffff" stroke="transparent" points="321,-304.3446 321,-323.3446 372,-323.3446 372,-304.3446 321,-304.3446"/>
<polygon fill="none" stroke="#000000" points="321,-304.3446 321,-323.3446 372,-323.3446 372,-304.3446 321,-304.3446"/>
<text text-anchor="start" x="324" y="-310.4446" font-family="Helvetica,sans-Serif" font-size="11.00" fill="#000000">&lt; 3</text>
<polygon fill="#ffffff" stroke="transparent" points="372,-304.3446 372,-323.3446 399,-323.3446 399,-304.3446 372,-304.3446"/>
<polygon fill="none" stroke="#000000" points="372,-304.3446 372,-323.3446 399,-323.3446 399,-304.3446 372,-304.3446"/>
<text text-anchor="start" x="389.8862" y="-310.4446" font-family="Helvetica,sans-Serif" font-size="11.00" fill="#000000"> &#160;</text>
<polygon fill="#ffffff" stroke="transparent" points="399,-304.3446 399,-323.3446 436,-323.3446 436,-304.3446 399,-304.3446"/>
<polygon fill="none" stroke="#000000" points="399,-304.3446 399,-323.3446 436,-323.3446 436,-304.3446 399,-304.3446"/>
<text text-anchor="start" x="417.4053" y="-310.4446" font-family="Helvetica,sans-Serif" font-size="11.00" fill="#000000">2 &gt;</text>
</a>
</g>
</g>
<!-- referral&#45;&gt;csip_record -->
<g id="edge40" class="edge">
<title>referral:w&#45;&gt;csip_record:e</title>
<path fill="none" stroke="#000000" d="M589.4355,-299.5043C546.9079,-315.3886 489.0798,-332.3446 436,-332.3446"/>
<polygon fill="#000000" stroke="#000000" points="597.1836,-292.2628 600.0384,-299.7361 598.5437,-300.3071 595.689,-292.8337 597.1836,-292.2628"/>
<polyline fill="none" stroke="#000000" points="599.3583,-295.714 595.6217,-297.1413 "/>
<ellipse fill="none" stroke="#000000" cx="592.6323" cy="-298.2832" rx="3.2" ry="3.2"/>
</g>
<!-- contributory_factor_audit -->
<g id="node8" class="node">
<title>contributory_factor_audit</title>
<g id="a_node8"><a xlink:href="../../tables/contributory_factor_audit.html" xlink:title="contributory_factor_audit" target="_top">
<polygon fill="#ffffff" stroke="transparent" points="819,-752.8446 819,-813.8446 1029,-813.8446 1029,-752.8446 819,-752.8446"/>
<polygon fill="#f5f5f5" stroke="transparent" points="819,-790.3446 819,-813.3446 1029,-813.3446 1029,-790.3446 819,-790.3446"/>
<polygon fill="none" stroke="#000000" points="819,-790.3446 819,-813.3446 1029,-813.3446 1029,-790.3446 819,-790.3446"/>
<text text-anchor="start" x="824" y="-798.9446" font-family="Helvetica,sans-Serif" font-weight="bold" font-size="11.00" fill="#000000">contributory_factor_audit</text>
<text text-anchor="start" x="994.5219" y="-798.4446" font-family="Helvetica,sans-Serif" font-size="11.00" fill="#000000">[table]</text>
<polygon fill="none" stroke="#000000" points="819,-771.3446 819,-790.3446 1029,-790.3446 1029,-771.3446 819,-771.3446"/>
<text text-anchor="start" x="822" y="-777.4446" font-family="Helvetica,sans-Serif" font-size="11.00" fill="#000000">...</text>
<polygon fill="#ffffff" stroke="transparent" points="819,-752.3446 819,-771.3446 922,-771.3446 922,-752.3446 819,-752.3446"/>
<polygon fill="none" stroke="#000000" points="819,-752.3446 819,-771.3446 922,-771.3446 922,-752.3446 819,-752.3446"/>
<text text-anchor="start" x="822" y="-758.4446" font-family="Helvetica,sans-Serif" font-size="11.00" fill="#000000">&lt; 4</text>
<polygon fill="#ffffff" stroke="transparent" points="922,-752.3446 922,-771.3446 975,-771.3446 975,-752.3446 922,-752.3446"/>
<polygon fill="none" stroke="#000000" points="922,-752.3446 922,-771.3446 975,-771.3446 975,-752.3446 922,-752.3446"/>
<text text-anchor="start" x="965.8862" y="-758.4446" font-family="Helvetica,sans-Serif" font-size="11.00" fill="#000000"> &#160;</text>
<polygon fill="#ffffff" stroke="transparent" points="975,-752.3446 975,-771.3446 1029,-771.3446 1029,-752.3446 975,-752.3446"/>
<polygon fill="none" stroke="#000000" points="975,-752.3446 975,-771.3446 1029,-771.3446 1029,-752.3446 975,-752.3446"/>
<text text-anchor="start" x="1019.8862" y="-758.4446" font-family="Helvetica,sans-Serif" font-size="11.00" fill="#000000"> &#160;</text>
</a>
</g>
</g>
<!-- contributory_factor_audit&#45;&gt;audit_revision -->
<g id="edge9" class="edge">
<title>contributory_factor_audit:w&#45;&gt;audit_revision:e</title>
<path fill="none" stroke="#000000" stroke-dasharray="5,2" d="M804.5571,-780.3154C546.172,-779.2749 463.848,-751.3012 215,-842.3446 194.2772,-849.9262 196.0661,-870.3446 174,-870.3446"/>
<polygon fill="#000000" stroke="#000000" points="811,-780.3284 818.9927,-783.9446 815,-780.3365 819,-780.3446 819,-780.3446 819,-780.3446 815,-780.3365 819.0073,-776.7446 811,-780.3284 811,-780.3284"/>
<ellipse fill="none" stroke="#000000" cx="807.8" cy="-780.3219" rx="3.2" ry="3.2"/>
</g>
<!-- contributory_factor_audit&#45;&gt;audit_revision -->
<g id="edge10" class="edge">
<title>contributory_factor_audit:w&#45;&gt;audit_revision:e</title>
<path fill="none" stroke="#000000" stroke-dasharray="5,2" d="M804.5659,-779.8971C700.1822,-780.3106 244.0887,-830.696 215,-840.3446 194.9591,-846.9921 195.1146,-864.3446 174,-870.3446"/>
<polygon fill="#000000" stroke="#000000" points="811.0038,-780.0966 818.8884,-783.9429 815.0019,-780.2206 819,-780.3446 819,-780.3446 819,-780.3446 815.0019,-780.2206 819.1116,-776.7463 811.0038,-780.0966 811.0038,-780.0966"/>
<ellipse fill="none" stroke="#000000" cx="807.8054" cy="-779.9974" rx="3.2" ry="3.2"/>
</g>
<!-- contributory_factor_audit&#45;&gt;audit_revision -->
<g id="edge12" class="edge">
<title>contributory_factor_audit:w&#45;&gt;audit_revision:e</title>
<path fill="none" stroke="#000000" d="M804.5659,-781.9154C700.1822,-793.3106 244.0887,-843.696 215,-853.3446 194.9591,-859.9921 195.1146,-877.3446 174,-870.3446"/>
<polygon fill="#000000" stroke="#000000" points="811.047,-781.2101 819.3895,-783.9235 815.0235,-780.7774 819,-780.3446 819,-780.3446 819,-780.3446 815.0235,-780.7774 818.6105,-776.7657 811.047,-781.2101 811.047,-781.2101"/>
<ellipse fill="none" stroke="#000000" cx="807.8657" cy="-781.5563" rx="3.2" ry="3.2"/>
</g>
<!-- contributory_factor_audit&#45;&gt;referral -->
<g id="edge11" class="edge">
<title>contributory_factor_audit:w&#45;&gt;referral:e</title>
<path fill="none" stroke="#000000" stroke-dasharray="5,2" d="M804.7259,-777.8461C714.353,-745.8555 668.8401,-415.6165 656.2204,-306.8621"/>
<polygon fill="#000000" stroke="#000000" points="811.1198,-778.9652 818.3793,-783.8907 815.0599,-779.6549 819,-780.3446 819,-780.3446 819,-780.3446 815.0599,-779.6549 819.6207,-776.7985 811.1198,-778.9652 811.1198,-778.9652"/>
<ellipse fill="none" stroke="#000000" cx="807.9677" cy="-778.4135" rx="3.2" ry="3.2"/>
</g>
<!-- csip_record&#45;&gt;audit_revision -->
<g id="edge13" class="edge">
<title>csip_record:w&#45;&gt;audit_revision:e</title>
<path fill="none" stroke="#000000" stroke-dasharray="5,2" d="M310.5191,-332.5039C264.6886,-333.9838 242.4457,-346.2137 215,-387.3446 185.1051,-432.1459 227.8597,-870.3446 174,-870.3446"/>
<polygon fill="#000000" stroke="#000000" points="320.1393,-328.3572 320.2609,-336.3563 318.6611,-336.3806 318.5395,-328.3816 320.1393,-328.3572"/>
<polyline fill="none" stroke="#000000" points="321,-332.3446 317.0005,-332.4054 "/>
<ellipse fill="none" stroke="#000000" cx="313.8008" cy="-332.4541" rx="3.2" ry="3.2"/>
</g>
<!-- csip_record&#45;&gt;reference_data -->
<g id="edge14" class="edge">
<title>csip_record:w&#45;&gt;reference_data:e</title>
<path fill="none" stroke="#000000" d="M306.2608,-331.8147C246.5313,-327.5953 185.6269,-298.9806 143.9156,-274.8638"/>
<polygon fill="#000000" stroke="#000000" points="313.0052,-332.0571 320.8706,-335.9423 317.0026,-332.2008 321,-332.3446 321,-332.3446 321,-332.3446 317.0026,-332.2008 321.1294,-328.7469 313.0052,-332.0571 313.0052,-332.0571"/>
<ellipse fill="none" stroke="#000000" cx="309.8072" cy="-331.9421" rx="3.2" ry="3.2"/>
</g>
<!-- csip_record_audit -->
<g id="node10" class="node">
<title>csip_record_audit</title>
<g id="a_node10"><a xlink:href="../../tables/csip_record_audit.html" xlink:title="csip_record_audit" target="_top">
<polygon fill="#ffffff" stroke="transparent" points="300,-698.8446 300,-759.8446 456,-759.8446 456,-698.8446 300,-698.8446"/>
<polygon fill="#f5f5f5" stroke="transparent" points="300,-736.3446 300,-759.3446 456,-759.3446 456,-736.3446 300,-736.3446"/>
<polygon fill="none" stroke="#000000" points="300,-736.3446 300,-759.3446 456,-759.3446 456,-736.3446 300,-736.3446"/>
<text text-anchor="start" x="305" y="-744.9446" font-family="Helvetica,sans-Serif" font-weight="bold" font-size="11.00" fill="#000000">csip_record_audit</text>
<text text-anchor="start" x="421.5219" y="-744.4446" font-family="Helvetica,sans-Serif" font-size="11.00" fill="#000000">[table]</text>
<polygon fill="none" stroke="#000000" points="300,-717.3446 300,-736.3446 456,-736.3446 456,-717.3446 300,-717.3446"/>
<text text-anchor="start" x="303" y="-723.4446" font-family="Helvetica,sans-Serif" font-size="11.00" fill="#000000">...</text>
<polygon fill="#ffffff" stroke="transparent" points="300,-698.3446 300,-717.3446 376,-717.3446 376,-698.3446 300,-698.3446"/>
<polygon fill="none" stroke="#000000" points="300,-698.3446 300,-717.3446 376,-717.3446 376,-698.3446 300,-698.3446"/>
<text text-anchor="start" x="303" y="-704.4446" font-family="Helvetica,sans-Serif" font-size="11.00" fill="#000000">&lt; 3</text>
<polygon fill="#ffffff" stroke="transparent" points="376,-698.3446 376,-717.3446 416,-717.3446 416,-698.3446 376,-698.3446"/>
<polygon fill="none" stroke="#000000" points="376,-698.3446 376,-717.3446 416,-717.3446 416,-698.3446 376,-698.3446"/>
<text text-anchor="start" x="406.8862" y="-704.4446" font-family="Helvetica,sans-Serif" font-size="11.00" fill="#000000"> &#160;</text>
<polygon fill="#ffffff" stroke="transparent" points="416,-698.3446 416,-717.3446 456,-717.3446 456,-698.3446 416,-698.3446"/>
<polygon fill="none" stroke="#000000" points="416,-698.3446 416,-717.3446 456,-717.3446 456,-698.3446 416,-698.3446"/>
<text text-anchor="start" x="446.8862" y="-704.4446" font-family="Helvetica,sans-Serif" font-size="11.00" fill="#000000"> &#160;</text>
</a>
</g>
</g>
<!-- csip_record_audit&#45;&gt;audit_revision -->
<g id="edge15" class="edge">
<title>csip_record_audit:w&#45;&gt;audit_revision:e</title>
<path fill="none" stroke="#000000" stroke-dasharray="5,2" d="M285.5065,-725.1095C253.3063,-724.3852 240.4339,-739.9347 215,-768.3446 184.0543,-802.9113 220.395,-864.3446 174,-870.3446"/>
<polygon fill="#000000" stroke="#000000" points="292.0289,-725.6653 299.6943,-729.9316 296.0144,-726.0049 300,-726.3446 300,-726.3446 300,-726.3446 296.0144,-726.0049 300.3057,-722.7576 292.0289,-725.6653 292.0289,-725.6653"/>
<ellipse fill="none" stroke="#000000" cx="288.8404" cy="-725.3936" rx="3.2" ry="3.2"/>
</g>
<!-- csip_record_audit&#45;&gt;audit_revision -->
<g id="edge16" class="edge">
<title>csip_record_audit:w&#45;&gt;audit_revision:e</title>
<path fill="none" stroke="#000000" d="M285.5065,-729.2834C253.3063,-737.3852 240.4339,-752.9347 215,-781.3446 184.0543,-815.9113 220.395,-877.3446 174,-870.3446"/>
<polygon fill="#000000" stroke="#000000" points="292.1596,-727.9344 300.7154,-729.8728 296.0798,-727.1395 300,-726.3446 300,-726.3446 300,-726.3446 296.0798,-727.1395 299.2846,-722.8164 292.1596,-727.9344 292.1596,-727.9344"/>
<ellipse fill="none" stroke="#000000" cx="289.0234" cy="-728.5703" rx="3.2" ry="3.2"/>
</g>
<!-- decision_and_actions -->
<g id="node11" class="node">
<title>decision_and_actions</title>
<g id="a_node11"><a xlink:href="../../tables/decision_and_actions.html" xlink:title="decision_and_actions" target="_top">
<polygon fill="#ffffff" stroke="transparent" points="833.5,-80.8446 833.5,-141.8446 1014.5,-141.8446 1014.5,-80.8446 833.5,-80.8446"/>
<polygon fill="#f5f5f5" stroke="transparent" points="834,-118.3446 834,-141.3446 1015,-141.3446 1015,-118.3446 834,-118.3446"/>
<polygon fill="none" stroke="#000000" points="834,-118.3446 834,-141.3446 1015,-141.3446 1015,-118.3446 834,-118.3446"/>
<text text-anchor="start" x="839" y="-126.9446" font-family="Helvetica,sans-Serif" font-weight="bold" font-size="11.00" fill="#000000">decision_and_actions</text>
<text text-anchor="start" x="980.5219" y="-126.4446" font-family="Helvetica,sans-Serif" font-size="11.00" fill="#000000">[table]</text>
<polygon fill="none" stroke="#000000" points="834,-99.3446 834,-118.3446 1015,-118.3446 1015,-99.3446 834,-99.3446"/>
<text text-anchor="start" x="837" y="-105.4446" font-family="Helvetica,sans-Serif" font-size="11.00" fill="#000000">...</text>
<polygon fill="#ffffff" stroke="transparent" points="834,-80.3446 834,-99.3446 923,-99.3446 923,-80.3446 834,-80.3446"/>
<polygon fill="none" stroke="#000000" points="834,-80.3446 834,-99.3446 923,-99.3446 923,-80.3446 834,-80.3446"/>
<text text-anchor="start" x="837" y="-86.4446" font-family="Helvetica,sans-Serif" font-size="11.00" fill="#000000">&lt; 3</text>
<polygon fill="#ffffff" stroke="transparent" points="923,-80.3446 923,-99.3446 969,-99.3446 969,-80.3446 923,-80.3446"/>
<polygon fill="none" stroke="#000000" points="923,-80.3446 923,-99.3446 969,-99.3446 969,-80.3446 923,-80.3446"/>
<text text-anchor="start" x="959.8862" y="-86.4446" font-family="Helvetica,sans-Serif" font-size="11.00" fill="#000000"> &#160;</text>
<polygon fill="#ffffff" stroke="transparent" points="969,-80.3446 969,-99.3446 1015,-99.3446 1015,-80.3446 969,-80.3446"/>
<polygon fill="none" stroke="#000000" points="969,-80.3446 969,-99.3446 1015,-99.3446 1015,-80.3446 969,-80.3446"/>
<text text-anchor="start" x="1005.8862" y="-86.4446" font-family="Helvetica,sans-Serif" font-size="11.00" fill="#000000"> &#160;</text>
</a>
</g>
</g>
<!-- decision_and_actions&#45;&gt;reference_data -->
<g id="edge18" class="edge">
<title>decision_and_actions:w&#45;&gt;reference_data:e</title>
<path fill="none" stroke="#000000" d="M819.5736,-108.0322C554.2161,-102.2948 476.7305,-101.5795 215,-176.3446 190.5481,-183.3295 164.8739,-194.6079 143.2709,-205.8086"/>
<polygon fill="#000000" stroke="#000000" points="826.0019,-108.1714 833.922,-111.9438 830.0009,-108.258 834,-108.3446 834,-108.3446 834,-108.3446 830.0009,-108.258 834.078,-104.7454 826.0019,-108.1714 826.0019,-108.1714"/>
<ellipse fill="none" stroke="#000000" cx="822.8026" cy="-108.1021" rx="3.2" ry="3.2"/>
</g>
<!-- decision_and_actions&#45;&gt;reference_data -->
<g id="edge19" class="edge">
<title>decision_and_actions:w&#45;&gt;reference_data:e</title>
<path fill="none" stroke="#000000" d="M819.5736,-108.7058C554.2161,-115.2948 476.7305,-114.5795 215,-189.3446 199.8033,-193.6857 184.1344,-199.6851 169.2642,-206.0658"/>
<polygon fill="#000000" stroke="#000000" points="826.0025,-108.5449 834.0901,-111.9435 830.0013,-108.4447 834,-108.3446 834,-108.3446 834,-108.3446 830.0013,-108.4447 833.9099,-104.7457 826.0025,-108.5449 826.0025,-108.5449"/>
<ellipse fill="none" stroke="#000000" cx="822.8035" cy="-108.625" rx="3.2" ry="3.2"/>
</g>
<!-- decision_and_actions&#45;&gt;referral -->
<g id="edge17" class="edge">
<title>decision_and_actions:w&#45;&gt;referral:e</title>
<path fill="none" stroke="#000000" d="M823.3686,-108.8673C752.123,-115.8734 697.5637,-191.6803 670.7795,-237.5644"/>
<polygon fill="#000000" stroke="#000000" points="833.0045,-104.3887 833.3974,-112.3791 831.7994,-112.4577 831.4064,-104.4673 833.0045,-104.3887"/>
<polyline fill="none" stroke="#000000" points="834,-108.3446 830.0048,-108.5411 "/>
<ellipse fill="none" stroke="#000000" cx="826.8087" cy="-108.6982" rx="3.2" ry="3.2"/>
</g>
<!-- decision_and_actions_audit -->
<g id="node12" class="node">
<title>decision_and_actions_audit</title>
<g id="a_node12"><a xlink:href="../../tables/decision_and_actions_audit.html" xlink:title="decision_and_actions_audit" target="_top">
<polygon fill="#ffffff" stroke="transparent" points="267,-616.8446 267,-677.8446 489,-677.8446 489,-616.8446 267,-616.8446"/>
<polygon fill="#f5f5f5" stroke="transparent" points="267,-654.3446 267,-677.3446 489,-677.3446 489,-654.3446 267,-654.3446"/>
<polygon fill="none" stroke="#000000" points="267,-654.3446 267,-677.3446 489,-677.3446 489,-654.3446 267,-654.3446"/>
<text text-anchor="start" x="272" y="-662.9446" font-family="Helvetica,sans-Serif" font-weight="bold" font-size="11.00" fill="#000000">decision_and_actions_audit</text>
<text text-anchor="start" x="454.5219" y="-662.4446" font-family="Helvetica,sans-Serif" font-size="11.00" fill="#000000">[table]</text>
<polygon fill="none" stroke="#000000" points="267,-635.3446 267,-654.3446 489,-654.3446 489,-635.3446 267,-635.3446"/>
<text text-anchor="start" x="270" y="-641.4446" font-family="Helvetica,sans-Serif" font-size="11.00" fill="#000000">...</text>
<polygon fill="#ffffff" stroke="transparent" points="267,-616.3446 267,-635.3446 376,-635.3446 376,-616.3446 267,-616.3446"/>
<polygon fill="none" stroke="#000000" points="267,-616.3446 267,-635.3446 376,-635.3446 376,-616.3446 267,-616.3446"/>
<text text-anchor="start" x="270" y="-622.4446" font-family="Helvetica,sans-Serif" font-size="11.00" fill="#000000">&lt; 3</text>
<polygon fill="#ffffff" stroke="transparent" points="376,-616.3446 376,-635.3446 432,-635.3446 432,-616.3446 376,-616.3446"/>
<polygon fill="none" stroke="#000000" points="376,-616.3446 376,-635.3446 432,-635.3446 432,-616.3446 376,-616.3446"/>
<text text-anchor="start" x="422.8862" y="-622.4446" font-family="Helvetica,sans-Serif" font-size="11.00" fill="#000000"> &#160;</text>
<polygon fill="#ffffff" stroke="transparent" points="432,-616.3446 432,-635.3446 489,-635.3446 489,-616.3446 432,-616.3446"/>
<polygon fill="none" stroke="#000000" points="432,-616.3446 432,-635.3446 489,-635.3446 489,-616.3446 432,-616.3446"/>
<text text-anchor="start" x="479.8862" y="-622.4446" font-family="Helvetica,sans-Serif" font-size="11.00" fill="#000000"> &#160;</text>
</a>
</g>
</g>
<!-- decision_and_actions_audit&#45;&gt;audit_revision -->
<g id="edge20" class="edge">
<title>decision_and_actions_audit:w&#45;&gt;audit_revision:e</title>
<path fill="none" stroke="#000000" stroke-dasharray="5,2" d="M253.0982,-640.2464C234.3072,-637.9525 227.9372,-654.0075 215,-675.3446 172.0108,-746.2458 256.916,-857.3446 174,-870.3446"/>
<polygon fill="#000000" stroke="#000000" points="259.3265,-642.0824 265.982,-647.7977 263.1632,-643.2135 267,-644.3446 267,-644.3446 267,-644.3446 263.1632,-643.2135 268.018,-640.8915 259.3265,-642.0824 259.3265,-642.0824"/>
<ellipse fill="none" stroke="#000000" cx="256.2571" cy="-641.1776" rx="3.2" ry="3.2"/>
</g>
<!-- decision_and_actions_audit&#45;&gt;audit_revision -->
<g id="edge21" class="edge">
<title>decision_and_actions_audit:w&#45;&gt;audit_revision:e</title>
<path fill="none" stroke="#000000" d="M252.5672,-646.1122C234.1858,-651.2573 227.8146,-667.2098 215,-688.3446 172.0108,-759.2458 256.916,-870.3446 174,-870.3446"/>
<polygon fill="#000000" stroke="#000000" points="259.0593,-645.3171 267.4376,-647.9179 263.0297,-644.8309 267,-644.3446 267,-644.3446 267,-644.3446 263.0297,-644.8309 266.5624,-640.7713 259.0593,-645.3171 259.0593,-645.3171"/>
<ellipse fill="none" stroke="#000000" cx="255.8831" cy="-645.7061" rx="3.2" ry="3.2"/>
</g>
<!-- decision_and_actions_audit&#45;&gt;audit_revision -->
<g id="edge22" class="edge">
<title>decision_and_actions_audit:w&#45;&gt;audit_revision:e</title>
<path fill="none" stroke="#000000" stroke-dasharray="5,2" d="M254.1804,-650.995C234.5463,-663.3457 228.1825,-679.603 215,-701.3446 172.0108,-772.2458 256.916,-883.3446 174,-870.3446"/>
<polygon fill="#000000" stroke="#000000" points="259.8987,-648.0286 268.6578,-647.5402 263.4493,-646.1866 267,-644.3446 267,-644.3446 267,-644.3446 263.4493,-646.1866 265.3422,-641.149 259.8987,-648.0286 259.8987,-648.0286"/>
<ellipse fill="none" stroke="#000000" cx="257.0582" cy="-649.5022" rx="3.2" ry="3.2"/>
</g>
<!-- identified_need -->
<g id="node13" class="node">
<title>identified_need</title>
<g id="a_node13"><a xlink:href="../../tables/identified_need.html" xlink:title="identified_need" target="_top">
<polygon fill="#ffffff" stroke="transparent" points="306.5,-534.8446 306.5,-595.8446 449.5,-595.8446 449.5,-534.8446 306.5,-534.8446"/>
<polygon fill="#f5f5f5" stroke="transparent" points="307,-572.3446 307,-595.3446 450,-595.3446 450,-572.3446 307,-572.3446"/>
<polygon fill="none" stroke="#000000" points="307,-572.3446 307,-595.3446 450,-595.3446 450,-572.3446 307,-572.3446"/>
<text text-anchor="start" x="312" y="-580.9446" font-family="Helvetica,sans-Serif" font-weight="bold" font-size="11.00" fill="#000000">identified_need</text>
<text text-anchor="start" x="415.5219" y="-580.4446" font-family="Helvetica,sans-Serif" font-size="11.00" fill="#000000">[table]</text>
<polygon fill="none" stroke="#000000" points="307,-553.3446 307,-572.3446 450,-572.3446 450,-553.3446 307,-553.3446"/>
<text text-anchor="start" x="310" y="-559.4446" font-family="Helvetica,sans-Serif" font-size="11.00" fill="#000000">...</text>
<polygon fill="#ffffff" stroke="transparent" points="307,-534.3446 307,-553.3446 377,-553.3446 377,-534.3446 307,-534.3446"/>
<polygon fill="none" stroke="#000000" points="307,-534.3446 307,-553.3446 377,-553.3446 377,-534.3446 307,-534.3446"/>
<text text-anchor="start" x="310" y="-540.4446" font-family="Helvetica,sans-Serif" font-size="11.00" fill="#000000">&lt; 2</text>
<polygon fill="#ffffff" stroke="transparent" points="377,-534.3446 377,-553.3446 413,-553.3446 413,-534.3446 377,-534.3446"/>
<polygon fill="none" stroke="#000000" points="377,-534.3446 377,-553.3446 413,-553.3446 413,-534.3446 377,-534.3446"/>
<text text-anchor="start" x="403.8862" y="-540.4446" font-family="Helvetica,sans-Serif" font-size="11.00" fill="#000000"> &#160;</text>
<polygon fill="#ffffff" stroke="transparent" points="413,-534.3446 413,-553.3446 450,-553.3446 450,-534.3446 413,-534.3446"/>
<polygon fill="none" stroke="#000000" points="413,-534.3446 413,-553.3446 450,-553.3446 450,-534.3446 413,-534.3446"/>
<text text-anchor="start" x="440.8862" y="-540.4446" font-family="Helvetica,sans-Serif" font-size="11.00" fill="#000000"> &#160;</text>
</a>
</g>
</g>
<!-- identified_need&#45;&gt;audit_revision -->
<g id="edge23" class="edge">
<title>identified_need:w&#45;&gt;audit_revision:e</title>
<path fill="none" stroke="#000000" stroke-dasharray="5,2" d="M296.3463,-562.5103C258.4049,-563.7896 239.8266,-572.9568 215,-606.3446 179.574,-653.9869 233.3699,-870.3446 174,-870.3446"/>
<polygon fill="#000000" stroke="#000000" points="306.1379,-558.3575 306.2623,-566.3566 304.6625,-566.3815 304.5381,-558.3824 306.1379,-558.3575"/>
<polyline fill="none" stroke="#000000" points="307,-562.3446 303.0005,-562.4068 "/>
<ellipse fill="none" stroke="#000000" cx="299.8009" cy="-562.4566" rx="3.2" ry="3.2"/>
</g>
<!-- identified_need_audit -->
<g id="node14" class="node">
<title>identified_need_audit</title>
<g id="a_node14"><a xlink:href="../../tables/identified_need_audit.html" xlink:title="identified_need_audit" target="_top">
<polygon fill="#ffffff" stroke="transparent" points="286,-452.8446 286,-513.8446 470,-513.8446 470,-452.8446 286,-452.8446"/>
<polygon fill="#f5f5f5" stroke="transparent" points="286,-490.3446 286,-513.3446 470,-513.3446 470,-490.3446 286,-490.3446"/>
<polygon fill="none" stroke="#000000" points="286,-490.3446 286,-513.3446 470,-513.3446 470,-490.3446 286,-490.3446"/>
<text text-anchor="start" x="291" y="-498.9446" font-family="Helvetica,sans-Serif" font-weight="bold" font-size="11.00" fill="#000000">identified_need_audit</text>
<text text-anchor="start" x="435.5219" y="-498.4446" font-family="Helvetica,sans-Serif" font-size="11.00" fill="#000000">[table]</text>
<polygon fill="none" stroke="#000000" points="286,-471.3446 286,-490.3446 470,-490.3446 470,-471.3446 286,-471.3446"/>
<text text-anchor="start" x="289" y="-477.4446" font-family="Helvetica,sans-Serif" font-size="11.00" fill="#000000">...</text>
<polygon fill="#ffffff" stroke="transparent" points="286,-452.3446 286,-471.3446 376,-471.3446 376,-452.3446 286,-452.3446"/>
<polygon fill="none" stroke="#000000" points="286,-452.3446 286,-471.3446 376,-471.3446 376,-452.3446 286,-452.3446"/>
<text text-anchor="start" x="289" y="-458.4446" font-family="Helvetica,sans-Serif" font-size="11.00" fill="#000000">&lt; 3</text>
<polygon fill="#ffffff" stroke="transparent" points="376,-452.3446 376,-471.3446 423,-471.3446 423,-452.3446 376,-452.3446"/>
<polygon fill="none" stroke="#000000" points="376,-452.3446 376,-471.3446 423,-471.3446 423,-452.3446 376,-452.3446"/>
<text text-anchor="start" x="413.8862" y="-458.4446" font-family="Helvetica,sans-Serif" font-size="11.00" fill="#000000"> &#160;</text>
<polygon fill="#ffffff" stroke="transparent" points="423,-452.3446 423,-471.3446 470,-471.3446 470,-452.3446 423,-452.3446"/>
<polygon fill="none" stroke="#000000" points="423,-452.3446 423,-471.3446 470,-471.3446 470,-452.3446 423,-452.3446"/>
<text text-anchor="start" x="460.8862" y="-458.4446" font-family="Helvetica,sans-Serif" font-size="11.00" fill="#000000"> &#160;</text>
</a>
</g>
</g>
<!-- identified_need_audit&#45;&gt;audit_revision -->
<g id="edge24" class="edge">
<title>identified_need_audit:w&#45;&gt;audit_revision:e</title>
<path fill="none" stroke="#000000" stroke-dasharray="5,2" d="M271.6328,-478.9217C244.8376,-478.2807 232.1347,-491.4333 215,-518.3446 173.4153,-583.6564 251.4268,-864.3446 174,-870.3446"/>
<polygon fill="#000000" stroke="#000000" points="278.0389,-479.5561 285.6452,-483.9271 282.0195,-479.9504 286,-480.3446 286,-480.3446 286,-480.3446 282.0195,-479.9504 286.3548,-476.7621 278.0389,-479.5561 278.0389,-479.5561"/>
<ellipse fill="none" stroke="#000000" cx="274.8545" cy="-479.2407" rx="3.2" ry="3.2"/>
</g>
<!-- identified_need_audit&#45;&gt;audit_revision -->
<g id="edge25" class="edge">
<title>identified_need_audit:w&#45;&gt;audit_revision:e</title>
<path fill="none" stroke="#000000" d="M271.6328,-483.671C244.8376,-491.2807 232.1347,-504.4333 215,-531.3446 173.4153,-596.6564 251.4268,-877.3446 174,-870.3446"/>
<polygon fill="#000000" stroke="#000000" points="278.2062,-482.1491 286.812,-483.8518 282.1031,-481.2469 286,-480.3446 286,-480.3446 286,-480.3446 282.1031,-481.2469 285.188,-476.8374 278.2062,-482.1491 278.2062,-482.1491"/>
<ellipse fill="none" stroke="#000000" cx="275.0886" cy="-482.8709" rx="3.2" ry="3.2"/>
</g>
<!-- interview -->
<g id="node15" class="node">
<title>interview</title>
<g id="a_node15"><a xlink:href="../../tables/interview.html" xlink:title="interview" target="_top">
<polygon fill="#ffffff" stroke="transparent" points="1145.5,-419.8446 1145.5,-480.8446 1247.5,-480.8446 1247.5,-419.8446 1145.5,-419.8446"/>
<polygon fill="#f5f5f5" stroke="transparent" points="1145.5,-457.3446 1145.5,-480.3446 1247.5,-480.3446 1247.5,-457.3446 1145.5,-457.3446"/>
<polygon fill="none" stroke="#000000" points="1145.5,-457.3446 1145.5,-480.3446 1247.5,-480.3446 1247.5,-457.3446 1145.5,-457.3446"/>
<text text-anchor="start" x="1150.5" y="-465.9446" font-family="Helvetica,sans-Serif" font-weight="bold" font-size="11.00" fill="#000000">interview</text>
<text text-anchor="start" x="1213.0219" y="-465.4446" font-family="Helvetica,sans-Serif" font-size="11.00" fill="#000000">[table]</text>
<polygon fill="none" stroke="#000000" points="1145.5,-438.3446 1145.5,-457.3446 1247.5,-457.3446 1247.5,-438.3446 1145.5,-438.3446"/>
<text text-anchor="start" x="1148.5" y="-444.4446" font-family="Helvetica,sans-Serif" font-size="11.00" fill="#000000">...</text>
<polygon fill="#ffffff" stroke="transparent" points="1145.5,-419.3446 1145.5,-438.3446 1194.5,-438.3446 1194.5,-419.3446 1145.5,-419.3446"/>
<polygon fill="none" stroke="#000000" points="1145.5,-419.3446 1145.5,-438.3446 1194.5,-438.3446 1194.5,-419.3446 1145.5,-419.3446"/>
<text text-anchor="start" x="1148.5" y="-425.4446" font-family="Helvetica,sans-Serif" font-size="11.00" fill="#000000">&lt; 3</text>
<polygon fill="#ffffff" stroke="transparent" points="1194.5,-419.3446 1194.5,-438.3446 1220.5,-438.3446 1220.5,-419.3446 1194.5,-419.3446"/>
<polygon fill="none" stroke="#000000" points="1194.5,-419.3446 1194.5,-438.3446 1220.5,-438.3446 1220.5,-419.3446 1194.5,-419.3446"/>
<text text-anchor="start" x="1211.3862" y="-425.4446" font-family="Helvetica,sans-Serif" font-size="11.00" fill="#000000"> &#160;</text>
<polygon fill="#ffffff" stroke="transparent" points="1220.5,-419.3446 1220.5,-438.3446 1247.5,-438.3446 1247.5,-419.3446 1220.5,-419.3446"/>
<polygon fill="none" stroke="#000000" points="1220.5,-419.3446 1220.5,-438.3446 1247.5,-438.3446 1247.5,-419.3446 1220.5,-419.3446"/>
<text text-anchor="start" x="1238.3862" y="-425.4446" font-family="Helvetica,sans-Serif" font-size="11.00" fill="#000000"> &#160;</text>
</a>
</g>
</g>
<!-- interview&#45;&gt;audit_revision -->
<g id="edge28" class="edge">
<title>interview:w&#45;&gt;audit_revision:e</title>
<path fill="none" stroke="#000000" stroke-dasharray="5,2" d="M1134.9324,-447.1427C1024.6267,-444.1362 251.6507,-409.0371 215,-442.3446 144.2905,-506.6042 269.5465,-870.3446 174,-870.3446"/>
<polygon fill="#000000" stroke="#000000" points="1144.7766,-443.33 1144.6237,-451.3286 1143.024,-451.298 1143.1769,-443.2995 1144.7766,-443.33"/>
<polyline fill="none" stroke="#000000" points="1145.5,-447.3446 1141.5007,-447.2682 "/>
<ellipse fill="none" stroke="#000000" cx="1138.3013" cy="-447.207" rx="3.2" ry="3.2"/>
</g>
<!-- interview&#45;&gt;reference_data -->
<g id="edge26" class="edge">
<title>interview:w&#45;&gt;reference_data:e</title>
<path fill="none" stroke="#000000" d="M1131.5312,-443.7147C1071.0257,-408.1351 1144.6324,-121.8875 1084,-70.3446 995.7172,4.7036 344.7104,-52.6345 215,-113.3446 171.8796,-133.5268 135.6422,-175.6058 113.6856,-205.8005"/>
<polygon fill="#000000" stroke="#000000" points="1137.7571,-445.3325 1144.5946,-450.8289 1141.6286,-446.3386 1145.5,-447.3446 1145.5,-447.3446 1145.5,-447.3446 1141.6286,-446.3386 1146.4054,-443.8603 1137.7571,-445.3325 1137.7571,-445.3325"/>
<ellipse fill="none" stroke="#000000" cx="1134.66" cy="-444.5277" rx="3.2" ry="3.2"/>
</g>
<!-- investigation -->
<g id="node16" class="node">
<title>investigation</title>
<g id="a_node16"><a xlink:href="../../tables/investigation.html" xlink:title="investigation" target="_top">
<polygon fill="#ffffff" stroke="transparent" points="860.5,-471.8446 860.5,-532.8446 987.5,-532.8446 987.5,-471.8446 860.5,-471.8446"/>
<polygon fill="#f5f5f5" stroke="transparent" points="861,-509.3446 861,-532.3446 988,-532.3446 988,-509.3446 861,-509.3446"/>
<polygon fill="none" stroke="#000000" points="861,-509.3446 861,-532.3446 988,-532.3446 988,-509.3446 861,-509.3446"/>
<text text-anchor="start" x="866" y="-517.9446" font-family="Helvetica,sans-Serif" font-weight="bold" font-size="11.00" fill="#000000">investigation</text>
<text text-anchor="start" x="953.5219" y="-517.4446" font-family="Helvetica,sans-Serif" font-size="11.00" fill="#000000">[table]</text>
<polygon fill="none" stroke="#000000" points="861,-490.3446 861,-509.3446 988,-509.3446 988,-490.3446 861,-490.3446"/>
<text text-anchor="start" x="864" y="-496.4446" font-family="Helvetica,sans-Serif" font-size="11.00" fill="#000000">...</text>
<polygon fill="#ffffff" stroke="transparent" points="861,-471.3446 861,-490.3446 918,-490.3446 918,-471.3446 861,-471.3446"/>
<polygon fill="none" stroke="#000000" points="861,-471.3446 861,-490.3446 918,-490.3446 918,-471.3446 861,-471.3446"/>
<text text-anchor="start" x="864" y="-477.4446" font-family="Helvetica,sans-Serif" font-size="11.00" fill="#000000">&lt; 1</text>
<polygon fill="#ffffff" stroke="transparent" points="918,-471.3446 918,-490.3446 948,-490.3446 948,-471.3446 918,-471.3446"/>
<polygon fill="none" stroke="#000000" points="918,-471.3446 918,-490.3446 948,-490.3446 948,-471.3446 918,-471.3446"/>
<text text-anchor="start" x="938.8862" y="-477.4446" font-family="Helvetica,sans-Serif" font-size="11.00" fill="#000000"> &#160;</text>
<polygon fill="#ffffff" stroke="transparent" points="948,-471.3446 948,-490.3446 988,-490.3446 988,-471.3446 948,-471.3446"/>
<polygon fill="none" stroke="#000000" points="948,-471.3446 948,-490.3446 988,-490.3446 988,-471.3446 948,-471.3446"/>
<text text-anchor="start" x="969.4053" y="-477.4446" font-family="Helvetica,sans-Serif" font-size="11.00" fill="#000000">2 &gt;</text>
</a>
</g>
</g>
<!-- interview&#45;&gt;investigation -->
<g id="edge27" class="edge">
<title>interview:w&#45;&gt;investigation:e</title>
<path fill="none" stroke="#000000" d="M1130.8502,-448.0797C1070.0531,-454.4 1056.5333,-499.3446 988,-499.3446"/>
<polygon fill="#000000" stroke="#000000" points="1137.5101,-447.7456 1145.6804,-450.9401 1141.505,-447.5451 1145.5,-447.3446 1145.5,-447.3446 1145.5,-447.3446 1141.505,-447.5451 1145.3196,-443.7491 1137.5101,-447.7456 1137.5101,-447.7456"/>
<ellipse fill="none" stroke="#000000" cx="1134.3141" cy="-447.906" rx="3.2" ry="3.2"/>
</g>
<!-- investigation&#45;&gt;referral -->
<g id="edge33" class="edge">
<title>investigation:w&#45;&gt;referral:e</title>
<path fill="none" stroke="#000000" d="M850.5675,-498.9025C753.527,-490.646 691.103,-368.8148 665.6077,-307.3159"/>
<polygon fill="#000000" stroke="#000000" points="860.3701,-495.3143 860.0313,-503.3071 858.4327,-503.2394 858.7716,-495.2465 860.3701,-495.3143"/>
<polyline fill="none" stroke="#000000" points="861,-499.3446 857.0036,-499.1752 "/>
<ellipse fill="none" stroke="#000000" cx="853.8065" cy="-499.0397" rx="3.2" ry="3.2"/>
</g>
<!-- interview_audit -->
<g id="node17" class="node">
<title>interview_audit</title>
<g id="a_node17"><a xlink:href="../../tables/interview_audit.html" xlink:title="interview_audit" target="_top">
<polygon fill="#ffffff" stroke="transparent" points="1125,-968.8446 1125,-1029.8446 1268,-1029.8446 1268,-968.8446 1125,-968.8446"/>
<polygon fill="#f5f5f5" stroke="transparent" points="1125.5,-1006.3446 1125.5,-1029.3446 1268.5,-1029.3446 1268.5,-1006.3446 1125.5,-1006.3446"/>
<polygon fill="none" stroke="#000000" points="1125.5,-1006.3446 1125.5,-1029.3446 1268.5,-1029.3446 1268.5,-1006.3446 1125.5,-1006.3446"/>
<text text-anchor="start" x="1130.5" y="-1014.9446" font-family="Helvetica,sans-Serif" font-weight="bold" font-size="11.00" fill="#000000">interview_audit</text>
<text text-anchor="start" x="1234.0219" y="-1014.4446" font-family="Helvetica,sans-Serif" font-size="11.00" fill="#000000">[table]</text>
<polygon fill="none" stroke="#000000" points="1125.5,-987.3446 1125.5,-1006.3446 1268.5,-1006.3446 1268.5,-987.3446 1125.5,-987.3446"/>
<text text-anchor="start" x="1128.5" y="-993.4446" font-family="Helvetica,sans-Serif" font-size="11.00" fill="#000000">...</text>
<polygon fill="#ffffff" stroke="transparent" points="1125.5,-968.3446 1125.5,-987.3446 1195.5,-987.3446 1195.5,-968.3446 1125.5,-968.3446"/>
<polygon fill="none" stroke="#000000" points="1125.5,-968.3446 1125.5,-987.3446 1195.5,-987.3446 1195.5,-968.3446 1125.5,-968.3446"/>
<text text-anchor="start" x="1128.5" y="-974.4446" font-family="Helvetica,sans-Serif" font-size="11.00" fill="#000000">&lt; 4</text>
<polygon fill="#ffffff" stroke="transparent" points="1195.5,-968.3446 1195.5,-987.3446 1231.5,-987.3446 1231.5,-968.3446 1195.5,-968.3446"/>
<polygon fill="none" stroke="#000000" points="1195.5,-968.3446 1195.5,-987.3446 1231.5,-987.3446 1231.5,-968.3446 1195.5,-968.3446"/>
<text text-anchor="start" x="1222.3862" y="-974.4446" font-family="Helvetica,sans-Serif" font-size="11.00" fill="#000000"> &#160;</text>
<polygon fill="#ffffff" stroke="transparent" points="1231.5,-968.3446 1231.5,-987.3446 1268.5,-987.3446 1268.5,-968.3446 1231.5,-968.3446"/>
<polygon fill="none" stroke="#000000" points="1231.5,-968.3446 1231.5,-987.3446 1268.5,-987.3446 1268.5,-968.3446 1231.5,-968.3446"/>
<text text-anchor="start" x="1259.3862" y="-974.4446" font-family="Helvetica,sans-Serif" font-size="11.00" fill="#000000"> &#160;</text>
</a>
</g>
</g>
<!-- interview_audit&#45;&gt;audit_revision -->
<g id="edge29" class="edge">
<title>interview_audit:w&#45;&gt;audit_revision:e</title>
<path fill="none" stroke="#000000" stroke-dasharray="5,2" d="M1110.8546,-996.4424C968.5705,-997.9967 295.5947,-1016.8276 215,-962.3446 177.9136,-937.2737 218.7655,-870.3446 174,-870.3446"/>
<polygon fill="#000000" stroke="#000000" points="1117.5002,-996.3981 1125.5241,-999.9445 1121.5001,-996.3713 1125.5,-996.3446 1125.5,-996.3446 1125.5,-996.3446 1121.5001,-996.3713 1125.4759,-992.7447 1117.5002,-996.3981 1117.5002,-996.3981"/>
<ellipse fill="none" stroke="#000000" cx="1114.3002" cy="-996.4195" rx="3.2" ry="3.2"/>
</g>
<!-- interview_audit&#45;&gt;audit_revision -->
<g id="edge31" class="edge">
<title>interview_audit:w&#45;&gt;audit_revision:e</title>
<path fill="none" stroke="#000000" stroke-dasharray="5,2" d="M1111.0338,-996.0553C898.4228,-993.6599 379.6039,-1062.1396 215,-952.3446 179.1049,-928.4016 217.1478,-864.3446 174,-870.3446"/>
<polygon fill="#000000" stroke="#000000" points="1117.5016,-996.1846 1125.428,-999.9439 1121.5008,-996.2646 1125.5,-996.3446 1125.5,-996.3446 1125.5,-996.3446 1121.5008,-996.2646 1125.572,-992.7453 1117.5016,-996.1846 1117.5016,-996.1846"/>
<ellipse fill="none" stroke="#000000" cx="1114.3022" cy="-996.1206" rx="3.2" ry="3.2"/>
</g>
<!-- interview_audit&#45;&gt;audit_revision -->
<g id="edge32" class="edge">
<title>interview_audit:w&#45;&gt;audit_revision:e</title>
<path fill="none" stroke="#000000" d="M1111.0338,-996.9299C898.4228,-1006.6599 379.6039,-1075.1396 215,-965.3446 179.1049,-941.4016 217.1478,-877.3446 174,-870.3446"/>
<polygon fill="#000000" stroke="#000000" points="1117.5065,-996.6681 1125.6456,-999.9417 1121.5033,-996.5063 1125.5,-996.3446 1125.5,-996.3446 1125.5,-996.3446 1121.5033,-996.5063 1125.3544,-992.7475 1117.5065,-996.6681 1117.5065,-996.6681"/>
<ellipse fill="none" stroke="#000000" cx="1114.3092" cy="-996.7975" rx="3.2" ry="3.2"/>
</g>
<!-- interview_audit&#45;&gt;investigation -->
<g id="edge30" class="edge">
<title>interview_audit:w&#45;&gt;investigation:e</title>
<path fill="none" stroke="#000000" stroke-dasharray="5,2" d="M1111.8728,-991.5823C1073.5914,-961.0453 1097.8096,-792.418 1084,-742.3446 1053.1274,-630.4012 1104.1225,-499.3446 988,-499.3446"/>
<polygon fill="#000000" stroke="#000000" points="1117.9479,-993.7053 1124.3123,-999.7431 1121.7239,-995.025 1125.5,-996.3446 1125.5,-996.3446 1125.5,-996.3446 1121.7239,-995.025 1126.6877,-992.9461 1117.9479,-993.7053 1117.9479,-993.7053"/>
<ellipse fill="none" stroke="#000000" cx="1114.927" cy="-992.6496" rx="3.2" ry="3.2"/>
</g>
<!-- investigation_audit -->
<g id="node18" class="node">
<title>investigation_audit</title>
<g id="a_node18"><a xlink:href="../../tables/investigation_audit.html" xlink:title="investigation_audit" target="_top">
<polygon fill="#ffffff" stroke="transparent" points="293.5,-1360.8446 293.5,-1421.8446 462.5,-1421.8446 462.5,-1360.8446 293.5,-1360.8446"/>
<polygon fill="#f5f5f5" stroke="transparent" points="294,-1398.3446 294,-1421.3446 463,-1421.3446 463,-1398.3446 294,-1398.3446"/>
<polygon fill="none" stroke="#000000" points="294,-1398.3446 294,-1421.3446 463,-1421.3446 463,-1398.3446 294,-1398.3446"/>
<text text-anchor="start" x="299" y="-1406.9446" font-family="Helvetica,sans-Serif" font-weight="bold" font-size="11.00" fill="#000000">investigation_audit</text>
<text text-anchor="start" x="428.5219" y="-1406.4446" font-family="Helvetica,sans-Serif" font-size="11.00" fill="#000000">[table]</text>
<polygon fill="none" stroke="#000000" points="294,-1379.3446 294,-1398.3446 463,-1398.3446 463,-1379.3446 294,-1379.3446"/>
<text text-anchor="start" x="297" y="-1385.4446" font-family="Helvetica,sans-Serif" font-size="11.00" fill="#000000">...</text>
<polygon fill="#ffffff" stroke="transparent" points="294,-1360.3446 294,-1379.3446 377,-1379.3446 377,-1360.3446 294,-1360.3446"/>
<polygon fill="none" stroke="#000000" points="294,-1360.3446 294,-1379.3446 377,-1379.3446 377,-1360.3446 294,-1360.3446"/>
<text text-anchor="start" x="297" y="-1366.4446" font-family="Helvetica,sans-Serif" font-size="11.00" fill="#000000">&lt; 1</text>
<polygon fill="#ffffff" stroke="transparent" points="377,-1360.3446 377,-1379.3446 420,-1379.3446 420,-1360.3446 377,-1360.3446"/>
<polygon fill="none" stroke="#000000" points="377,-1360.3446 377,-1379.3446 420,-1379.3446 420,-1360.3446 377,-1360.3446"/>
<text text-anchor="start" x="410.8862" y="-1366.4446" font-family="Helvetica,sans-Serif" font-size="11.00" fill="#000000"> &#160;</text>
<polygon fill="#ffffff" stroke="transparent" points="420,-1360.3446 420,-1379.3446 463,-1379.3446 463,-1360.3446 420,-1360.3446"/>
<polygon fill="none" stroke="#000000" points="420,-1360.3446 420,-1379.3446 463,-1379.3446 463,-1360.3446 420,-1360.3446"/>
<text text-anchor="start" x="453.8862" y="-1366.4446" font-family="Helvetica,sans-Serif" font-size="11.00" fill="#000000"> &#160;</text>
</a>
</g>
</g>
<!-- investigation_audit&#45;&gt;audit_revision -->
<g id="edge34" class="edge">
<title>investigation_audit:w&#45;&gt;audit_revision:e</title>
<path fill="none" stroke="#000000" d="M279.5307,-1387.9835C250.2051,-1386.3088 234.1844,-1378.1571 215,-1350.3446 184.607,-1306.2825 227.5275,-870.3446 174,-870.3446"/>
<polygon fill="#000000" stroke="#000000" points="286.0025,-1388.145 293.9102,-1391.9435 290.0012,-1388.2448 294,-1388.3446 294,-1388.3446 294,-1388.3446 290.0012,-1388.2448 294.0898,-1384.7457 286.0025,-1388.145 286.0025,-1388.145"/>
<ellipse fill="none" stroke="#000000" cx="282.8035" cy="-1388.0651" rx="3.2" ry="3.2"/>
</g>
<!-- plan_audit -->
<g id="node19" class="node">
<title>plan_audit</title>
<g id="a_node19"><a xlink:href="../../tables/plan_audit.html" xlink:title="plan_audit" target="_top">
<polygon fill="#ffffff" stroke="transparent" points="323.5,-1278.8446 323.5,-1339.8446 432.5,-1339.8446 432.5,-1278.8446 323.5,-1278.8446"/>
<polygon fill="#f5f5f5" stroke="transparent" points="324,-1316.3446 324,-1339.3446 433,-1339.3446 433,-1316.3446 324,-1316.3446"/>
<polygon fill="none" stroke="#000000" points="324,-1316.3446 324,-1339.3446 433,-1339.3446 433,-1316.3446 324,-1316.3446"/>
<text text-anchor="start" x="329" y="-1324.9446" font-family="Helvetica,sans-Serif" font-weight="bold" font-size="11.00" fill="#000000">plan_audit</text>
<text text-anchor="start" x="398.5219" y="-1324.4446" font-family="Helvetica,sans-Serif" font-size="11.00" fill="#000000">[table]</text>
<polygon fill="none" stroke="#000000" points="324,-1297.3446 324,-1316.3446 433,-1316.3446 433,-1297.3446 324,-1297.3446"/>
<text text-anchor="start" x="327" y="-1303.4446" font-family="Helvetica,sans-Serif" font-size="11.00" fill="#000000">...</text>
<polygon fill="#ffffff" stroke="transparent" points="324,-1278.3446 324,-1297.3446 377,-1297.3446 377,-1278.3446 324,-1278.3446"/>
<polygon fill="none" stroke="#000000" points="324,-1278.3446 324,-1297.3446 377,-1297.3446 377,-1278.3446 324,-1278.3446"/>
<text text-anchor="start" x="327" y="-1284.4446" font-family="Helvetica,sans-Serif" font-size="11.00" fill="#000000">&lt; 1</text>
<polygon fill="#ffffff" stroke="transparent" points="377,-1278.3446 377,-1297.3446 405,-1297.3446 405,-1278.3446 377,-1278.3446"/>
<polygon fill="none" stroke="#000000" points="377,-1278.3446 377,-1297.3446 405,-1297.3446 405,-1278.3446 377,-1278.3446"/>
<text text-anchor="start" x="395.8862" y="-1284.4446" font-family="Helvetica,sans-Serif" font-size="11.00" fill="#000000"> &#160;</text>
<polygon fill="#ffffff" stroke="transparent" points="405,-1278.3446 405,-1297.3446 433,-1297.3446 433,-1278.3446 405,-1278.3446"/>
<polygon fill="none" stroke="#000000" points="405,-1278.3446 405,-1297.3446 433,-1297.3446 433,-1278.3446 405,-1278.3446"/>
<text text-anchor="start" x="423.8862" y="-1284.4446" font-family="Helvetica,sans-Serif" font-size="11.00" fill="#000000"> &#160;</text>
</a>
</g>
</g>
<!-- plan_audit&#45;&gt;audit_revision -->
<g id="edge35" class="edge">
<title>plan_audit:w&#45;&gt;audit_revision:e</title>
<path fill="none" stroke="#000000" d="M309.3948,-1306.3672C267.4818,-1306.3703 243.6494,-1304.5808 215,-1268.3446 159.8563,-1198.5979 262.9125,-870.3446 174,-870.3446"/>
<polygon fill="#000000" stroke="#000000" points="316,-1306.357 324.0056,-1309.9446 320,-1306.3508 324,-1306.3446 324,-1306.3446 324,-1306.3446 320,-1306.3508 323.9944,-1302.7446 316,-1306.357 316,-1306.357"/>
<ellipse fill="none" stroke="#000000" cx="312.8" cy="-1306.362" rx="3.2" ry="3.2"/>
</g>
<!-- referral_audit -->
<g id="node20" class="node">
<title>referral_audit</title>
<g id="a_node20"><a xlink:href="../../tables/referral_audit.html" xlink:title="referral_audit" target="_top">
<polygon fill="#ffffff" stroke="transparent" points="312.5,-1196.8446 312.5,-1257.8446 443.5,-1257.8446 443.5,-1196.8446 312.5,-1196.8446"/>
<polygon fill="#f5f5f5" stroke="transparent" points="313,-1234.3446 313,-1257.3446 444,-1257.3446 444,-1234.3446 313,-1234.3446"/>
<polygon fill="none" stroke="#000000" points="313,-1234.3446 313,-1257.3446 444,-1257.3446 444,-1234.3446 313,-1234.3446"/>
<text text-anchor="start" x="318" y="-1242.9446" font-family="Helvetica,sans-Serif" font-weight="bold" font-size="11.00" fill="#000000">referral_audit</text>
<text text-anchor="start" x="409.5219" y="-1242.4446" font-family="Helvetica,sans-Serif" font-size="11.00" fill="#000000">[table]</text>
<polygon fill="none" stroke="#000000" points="313,-1215.3446 313,-1234.3446 444,-1234.3446 444,-1215.3446 313,-1215.3446"/>
<text text-anchor="start" x="316" y="-1221.4446" font-family="Helvetica,sans-Serif" font-size="11.00" fill="#000000">...</text>
<polygon fill="#ffffff" stroke="transparent" points="313,-1196.3446 313,-1215.3446 377,-1215.3446 377,-1196.3446 313,-1196.3446"/>
<polygon fill="none" stroke="#000000" points="313,-1196.3446 313,-1215.3446 377,-1215.3446 377,-1196.3446 313,-1196.3446"/>
<text text-anchor="start" x="316" y="-1202.4446" font-family="Helvetica,sans-Serif" font-size="11.00" fill="#000000">&lt; 5</text>
<polygon fill="#ffffff" stroke="transparent" points="377,-1196.3446 377,-1215.3446 410,-1215.3446 410,-1196.3446 377,-1196.3446"/>
<polygon fill="none" stroke="#000000" points="377,-1196.3446 377,-1215.3446 410,-1215.3446 410,-1196.3446 377,-1196.3446"/>
<text text-anchor="start" x="400.8862" y="-1202.4446" font-family="Helvetica,sans-Serif" font-size="11.00" fill="#000000"> &#160;</text>
<polygon fill="#ffffff" stroke="transparent" points="410,-1196.3446 410,-1215.3446 444,-1215.3446 444,-1196.3446 410,-1196.3446"/>
<polygon fill="none" stroke="#000000" points="410,-1196.3446 410,-1215.3446 444,-1215.3446 444,-1196.3446 410,-1196.3446"/>
<text text-anchor="start" x="434.8862" y="-1202.4446" font-family="Helvetica,sans-Serif" font-size="11.00" fill="#000000"> &#160;</text>
</a>
</g>
</g>
<!-- referral_audit&#45;&gt;audit_revision -->
<g id="edge41" class="edge">
<title>referral_audit:w&#45;&gt;audit_revision:e</title>
<path fill="none" stroke="#000000" stroke-dasharray="5,2" d="M299.9793,-1217.3797C261.8372,-1197.7641 241.0097,-1193.5168 215,-1160.3446 171.3079,-1104.6205 244.8108,-844.3446 174,-870.3446"/>
<polygon fill="#000000" stroke="#000000" points="305.9458,-1220.5712 311.302,-1227.519 309.4729,-1222.4579 313,-1224.3446 313,-1224.3446 313,-1224.3446 309.4729,-1222.4579 314.698,-1221.1702 305.9458,-1220.5712 305.9458,-1220.5712"/>
<ellipse fill="none" stroke="#000000" cx="303.1241" cy="-1219.0619" rx="3.2" ry="3.2"/>
</g>
<!-- referral_audit&#45;&gt;audit_revision -->
<g id="edge42" class="edge">
<title>referral_audit:w&#45;&gt;audit_revision:e</title>
<path fill="none" stroke="#000000" stroke-dasharray="5,2" d="M298.9925,-1220.5684C261.4762,-1210.6884 240.7845,-1206.2296 215,-1173.3446 171.3079,-1117.6205 244.8108,-857.3446 174,-870.3446"/>
<polygon fill="#000000" stroke="#000000" points="305.2758,-1222.2622 312.0629,-1227.8205 309.1379,-1223.3034 313,-1224.3446 313,-1224.3446 313,-1224.3446 309.1379,-1223.3034 313.9371,-1220.8687 305.2758,-1222.2622 305.2758,-1222.2622"/>
<ellipse fill="none" stroke="#000000" cx="302.1861" cy="-1221.4293" rx="3.2" ry="3.2"/>
</g>
<!-- referral_audit&#45;&gt;audit_revision -->
<g id="edge43" class="edge">
<title>referral_audit:w&#45;&gt;audit_revision:e</title>
<path fill="none" stroke="#000000" stroke-dasharray="5,2" d="M298.502,-1224.2553C261.2954,-1223.6489 240.6719,-1219.086 215,-1186.3446 171.3079,-1130.6205 244.8108,-870.3446 174,-870.3446"/>
<polygon fill="#000000" stroke="#000000" points="305.0002,-1224.2953 312.9778,-1227.9445 309.0001,-1224.3199 313,-1224.3446 313,-1224.3446 313,-1224.3446 309.0001,-1224.3199 313.0222,-1220.7447 305.0002,-1224.2953 305.0002,-1224.2953"/>
<ellipse fill="none" stroke="#000000" cx="301.8002" cy="-1224.2756" rx="3.2" ry="3.2"/>
</g>
<!-- referral_audit&#45;&gt;audit_revision -->
<g id="edge44" class="edge">
<title>referral_audit:w&#45;&gt;audit_revision:e</title>
<path fill="none" stroke="#000000" stroke-dasharray="5,2" d="M298.9925,-1227.9578C261.4762,-1236.6884 240.7845,-1232.2296 215,-1199.3446 171.3079,-1143.6205 244.8108,-883.3446 174,-870.3446"/>
<polygon fill="#000000" stroke="#000000" points="305.2536,-1226.3428 313.8992,-1227.8305 309.1268,-1225.3437 313,-1224.3446 313,-1224.3446 313,-1224.3446 309.1268,-1225.3437 312.1008,-1220.8587 305.2536,-1226.3428 305.2536,-1226.3428"/>
<ellipse fill="none" stroke="#000000" cx="302.155" cy="-1227.1421" rx="3.2" ry="3.2"/>
</g>
<!-- referral_audit&#45;&gt;audit_revision -->
<g id="edge45" class="edge">
<title>referral_audit:w&#45;&gt;audit_revision:e</title>
<path fill="none" stroke="#000000" d="M299.9793,-1231.1748C261.8372,-1249.7641 241.0097,-1245.5168 215,-1212.3446 171.3079,-1156.6205 244.8108,-896.3446 174,-870.3446"/>
<polygon fill="#000000" stroke="#000000" points="305.9155,-1228.0609 314.6723,-1227.5326 309.4578,-1226.2027 313,-1224.3446 313,-1224.3446 313,-1224.3446 309.4578,-1226.2027 311.3277,-1221.1566 305.9155,-1228.0609 305.9155,-1228.0609"/>
<ellipse fill="none" stroke="#000000" cx="303.0818" cy="-1229.5474" rx="3.2" ry="3.2"/>
</g>
<!-- review_audit -->
<g id="node21" class="node">
<title>review_audit</title>
<g id="a_node21"><a xlink:href="../../tables/review_audit.html" xlink:title="review_audit" target="_top">
<polygon fill="#ffffff" stroke="transparent" points="315.5,-1114.8446 315.5,-1175.8446 440.5,-1175.8446 440.5,-1114.8446 315.5,-1114.8446"/>
<polygon fill="#f5f5f5" stroke="transparent" points="316,-1152.3446 316,-1175.3446 441,-1175.3446 441,-1152.3446 316,-1152.3446"/>
<polygon fill="none" stroke="#000000" points="316,-1152.3446 316,-1175.3446 441,-1175.3446 441,-1152.3446 316,-1152.3446"/>
<text text-anchor="start" x="321" y="-1160.9446" font-family="Helvetica,sans-Serif" font-weight="bold" font-size="11.00" fill="#000000">review_audit</text>
<text text-anchor="start" x="406.5219" y="-1160.4446" font-family="Helvetica,sans-Serif" font-size="11.00" fill="#000000">[table]</text>
<polygon fill="none" stroke="#000000" points="316,-1133.3446 316,-1152.3446 441,-1152.3446 441,-1133.3446 316,-1133.3446"/>
<text text-anchor="start" x="319" y="-1139.4446" font-family="Helvetica,sans-Serif" font-size="11.00" fill="#000000">...</text>
<polygon fill="#ffffff" stroke="transparent" points="316,-1114.3446 316,-1133.3446 377,-1133.3446 377,-1114.3446 316,-1114.3446"/>
<polygon fill="none" stroke="#000000" points="316,-1114.3446 316,-1133.3446 377,-1133.3446 377,-1114.3446 316,-1114.3446"/>
<text text-anchor="start" x="319" y="-1120.4446" font-family="Helvetica,sans-Serif" font-size="11.00" fill="#000000">&lt; 3</text>
<polygon fill="#ffffff" stroke="transparent" points="377,-1114.3446 377,-1133.3446 409,-1133.3446 409,-1114.3446 377,-1114.3446"/>
<polygon fill="none" stroke="#000000" points="377,-1114.3446 377,-1133.3446 409,-1133.3446 409,-1114.3446 377,-1114.3446"/>
<text text-anchor="start" x="399.8862" y="-1120.4446" font-family="Helvetica,sans-Serif" font-size="11.00" fill="#000000"> &#160;</text>
<polygon fill="#ffffff" stroke="transparent" points="409,-1114.3446 409,-1133.3446 441,-1133.3446 441,-1114.3446 409,-1114.3446"/>
<polygon fill="none" stroke="#000000" points="409,-1114.3446 409,-1133.3446 441,-1133.3446 441,-1114.3446 409,-1114.3446"/>
<text text-anchor="start" x="431.8862" y="-1120.4446" font-family="Helvetica,sans-Serif" font-size="11.00" fill="#000000"> &#160;</text>
</a>
</g>
</g>
<!-- review_audit&#45;&gt;audit_revision -->
<g id="edge47" class="edge">
<title>review_audit:w&#45;&gt;audit_revision:e</title>
<path fill="none" stroke="#000000" stroke-dasharray="5,2" d="M301.6373,-1140.5626C263.217,-1135.7186 242.3817,-1131.3729 215,-1098.3446 181.3065,-1057.7028 226.7922,-864.3446 174,-870.3446"/>
<polygon fill="#000000" stroke="#000000" points="308.0609,-1141.3595 315.5567,-1145.9172 312.0304,-1141.8521 316,-1142.3446 316,-1142.3446 316,-1142.3446 312.0304,-1141.8521 316.4433,-1138.772 308.0609,-1141.3595 308.0609,-1141.3595"/>
<ellipse fill="none" stroke="#000000" cx="304.8852" cy="-1140.9655" rx="3.2" ry="3.2"/>
</g>
<!-- review_audit&#45;&gt;audit_revision -->
<g id="edge48" class="edge">
<title>review_audit:w&#45;&gt;audit_revision:e</title>
<path fill="none" stroke="#000000" d="M301.6373,-1144.2573C263.217,-1148.7186 242.3817,-1144.3729 215,-1111.3446 181.3065,-1070.7028 226.7922,-877.3446 174,-870.3446"/>
<polygon fill="#000000" stroke="#000000" points="308.07,-1143.4007 316.4752,-1145.9131 312.035,-1142.8727 316,-1142.3446 316,-1142.3446 316,-1142.3446 312.035,-1142.8727 315.5248,-1138.7761 308.07,-1143.4007 308.07,-1143.4007"/>
<ellipse fill="none" stroke="#000000" cx="304.898" cy="-1143.8231" rx="3.2" ry="3.2"/>
</g>
<!-- safer_custody_screening_outcome -->
<g id="node22" class="node">
<title>safer_custody_screening_outcome</title>
<g id="a_node22"><a xlink:href="../../tables/safer_custody_screening_outcome.html" xlink:title="safer_custody_screening_outcome" target="_top">
<polygon fill="#ffffff" stroke="transparent" points="789.5,-162.8446 789.5,-223.8446 1058.5,-223.8446 1058.5,-162.8446 789.5,-162.8446"/>
<polygon fill="#f5f5f5" stroke="transparent" points="790,-200.3446 790,-223.3446 1059,-223.3446 1059,-200.3446 790,-200.3446"/>
<polygon fill="none" stroke="#000000" points="790,-200.3446 790,-223.3446 1059,-223.3446 1059,-200.3446 790,-200.3446"/>
<text text-anchor="start" x="795" y="-208.9446" font-family="Helvetica,sans-Serif" font-weight="bold" font-size="11.00" fill="#000000">safer_custody_screening_outcome</text>
<text text-anchor="start" x="1024.5219" y="-208.4446" font-family="Helvetica,sans-Serif" font-size="11.00" fill="#000000">[table]</text>
<polygon fill="none" stroke="#000000" points="790,-181.3446 790,-200.3446 1059,-200.3446 1059,-181.3446 790,-181.3446"/>
<text text-anchor="start" x="793" y="-187.4446" font-family="Helvetica,sans-Serif" font-size="11.00" fill="#000000">...</text>
<polygon fill="#ffffff" stroke="transparent" points="790,-162.3446 790,-181.3446 923,-181.3446 923,-162.3446 790,-162.3446"/>
<polygon fill="none" stroke="#000000" points="790,-162.3446 790,-181.3446 923,-181.3446 923,-162.3446 790,-162.3446"/>
<text text-anchor="start" x="793" y="-168.4446" font-family="Helvetica,sans-Serif" font-size="11.00" fill="#000000">&lt; 2</text>
<polygon fill="#ffffff" stroke="transparent" points="923,-162.3446 923,-181.3446 991,-181.3446 991,-162.3446 923,-162.3446"/>
<polygon fill="none" stroke="#000000" points="923,-162.3446 923,-181.3446 991,-181.3446 991,-162.3446 923,-162.3446"/>
<text text-anchor="start" x="981.8862" y="-168.4446" font-family="Helvetica,sans-Serif" font-size="11.00" fill="#000000"> &#160;</text>
<polygon fill="#ffffff" stroke="transparent" points="991,-162.3446 991,-181.3446 1059,-181.3446 1059,-162.3446 991,-162.3446"/>
<polygon fill="none" stroke="#000000" points="991,-162.3446 991,-181.3446 1059,-181.3446 1059,-162.3446 991,-162.3446"/>
<text text-anchor="start" x="1049.8862" y="-168.4446" font-family="Helvetica,sans-Serif" font-size="11.00" fill="#000000"> &#160;</text>
</a>
</g>
</g>
<!-- safer_custody_screening_outcome&#45;&gt;reference_data -->
<g id="edge49" class="edge">
<title>safer_custody_screening_outcome:w&#45;&gt;reference_data:e</title>
<path fill="none" stroke="#000000" d="M775.5974,-190.3235C531.7384,-189.6073 463.1729,-171.1487 215,-207.3446 200.0102,-209.5309 184.2347,-212.884 169.1485,-216.63"/>
<polygon fill="#000000" stroke="#000000" points="782,-190.3328 789.9947,-193.9446 786,-190.3387 790,-190.3446 790,-190.3446 790,-190.3446 786,-190.3387 790.0053,-186.7446 782,-190.3328 782,-190.3328"/>
<ellipse fill="none" stroke="#000000" cx="778.8" cy="-190.3281" rx="3.2" ry="3.2"/>
</g>
<!-- safer_custody_screening_outcome&#45;&gt;referral -->
<g id="edge50" class="edge">
<title>safer_custody_screening_outcome:w&#45;&gt;referral:e</title>
<path fill="none" stroke="#000000" d="M779.4428,-190.9312C743.9639,-194.8248 710.4749,-217.4103 686.8111,-237.8069"/>
<polygon fill="#000000" stroke="#000000" points="788.9793,-186.3951 789.4232,-194.3828 787.8256,-194.4716 787.3818,-186.4839 788.9793,-186.3951"/>
<polyline fill="none" stroke="#000000" points="790,-190.3446 786.0062,-190.5665 "/>
<ellipse fill="none" stroke="#000000" cx="782.8111" cy="-190.7441" rx="3.2" ry="3.2"/>
</g>
<!-- safer_custody_screening_outcome_audit -->
<g id="node23" class="node">
<title>safer_custody_screening_outcome_audit</title>
<g id="a_node23"><a xlink:href="../../tables/safer_custody_screening_outcome_audit.html" xlink:title="safer_custody_screening_outcome_audit" target="_top">
<polygon fill="#ffffff" stroke="transparent" points="223,-1032.8446 223,-1093.8446 533,-1093.8446 533,-1032.8446 223,-1032.8446"/>
<polygon fill="#f5f5f5" stroke="transparent" points="223,-1070.3446 223,-1093.3446 533,-1093.3446 533,-1070.3446 223,-1070.3446"/>
<polygon fill="none" stroke="#000000" points="223,-1070.3446 223,-1093.3446 533,-1093.3446 533,-1070.3446 223,-1070.3446"/>
<text text-anchor="start" x="228" y="-1078.9446" font-family="Helvetica,sans-Serif" font-weight="bold" font-size="11.00" fill="#000000">safer_custody_screening_outcome_audit</text>
<text text-anchor="start" x="498.5219" y="-1078.4446" font-family="Helvetica,sans-Serif" font-size="11.00" fill="#000000">[table]</text>
<polygon fill="none" stroke="#000000" points="223,-1051.3446 223,-1070.3446 533,-1070.3446 533,-1051.3446 223,-1051.3446"/>
<text text-anchor="start" x="226" y="-1057.4446" font-family="Helvetica,sans-Serif" font-size="11.00" fill="#000000">...</text>
<polygon fill="#ffffff" stroke="transparent" points="223,-1032.3446 223,-1051.3446 376,-1051.3446 376,-1032.3446 223,-1032.3446"/>
<polygon fill="none" stroke="#000000" points="223,-1032.3446 223,-1051.3446 376,-1051.3446 376,-1032.3446 223,-1032.3446"/>
<text text-anchor="start" x="226" y="-1038.4446" font-family="Helvetica,sans-Serif" font-size="11.00" fill="#000000">&lt; 2</text>
<polygon fill="#ffffff" stroke="transparent" points="376,-1032.3446 376,-1051.3446 454,-1051.3446 454,-1032.3446 376,-1032.3446"/>
<polygon fill="none" stroke="#000000" points="376,-1032.3446 376,-1051.3446 454,-1051.3446 454,-1032.3446 376,-1032.3446"/>
<text text-anchor="start" x="444.8862" y="-1038.4446" font-family="Helvetica,sans-Serif" font-size="11.00" fill="#000000"> &#160;</text>
<polygon fill="#ffffff" stroke="transparent" points="454,-1032.3446 454,-1051.3446 533,-1051.3446 533,-1032.3446 454,-1032.3446"/>
<polygon fill="none" stroke="#000000" points="454,-1032.3446 454,-1051.3446 533,-1051.3446 533,-1032.3446 454,-1032.3446"/>
<text text-anchor="start" x="523.8862" y="-1038.4446" font-family="Helvetica,sans-Serif" font-size="11.00" fill="#000000"> &#160;</text>
</a>
</g>
</g>
<!-- safer_custody_screening_outcome_audit&#45;&gt;audit_revision -->
<g id="edge51" class="edge">
<title>safer_custody_screening_outcome_audit:w&#45;&gt;audit_revision:e</title>
<path fill="none" stroke="#000000" stroke-dasharray="5,2" d="M208.6736,-1056.9931C151.0761,-1030.6666 255.5866,-864.7313 174,-870.3446"/>
<polygon fill="#000000" stroke="#000000" points="215.2103,-1058.5222 222.1799,-1063.85 219.1052,-1059.4334 223,-1060.3446 223,-1060.3446 223,-1060.3446 219.1052,-1059.4334 223.8201,-1056.8392 215.2103,-1058.5222 215.2103,-1058.5222"/>
<ellipse fill="none" stroke="#000000" cx="212.0944" cy="-1057.7933" rx="3.2" ry="3.2"/>
</g>
<!-- safer_custody_screening_outcome_audit&#45;&gt;audit_revision -->
<g id="edge52" class="edge">
<title>safer_custody_screening_outcome_audit:w&#45;&gt;audit_revision:e</title>
<path fill="none" stroke="#000000" d="M208.315,-1059.2442C151.5116,-1042.9172 255.4163,-876.8798 174,-870.3446"/>
<polygon fill="#000000" stroke="#000000" points="215.0224,-1059.7468 222.731,-1063.9345 219.0112,-1060.0457 223,-1060.3446 223,-1060.3446 223,-1060.3446 219.0112,-1060.0457 223.269,-1056.7547 215.0224,-1059.7468 215.0224,-1059.7468"/>
<ellipse fill="none" stroke="#000000" cx="211.8313" cy="-1059.5076" rx="3.2" ry="3.2"/>
</g>
</g>
</svg>
