<?xml version="1.0" encoding="UTF-8" standalone="no"?>
<!DOCTYPE svg PUBLIC "-//W3C//DTD SVG 1.1//EN"
 "http://www.w3.org/Graphics/SVG/1.1/DTD/svg11.dtd">
<!-- Generated by graphviz version 2.40.1 (20161225.0304)
 -->
<!-- Title: oneDegreeRelationshipsDiagramImplied Pages: 1 -->
<svg width="693pt" height="375pt"
 viewBox="0.00 0.00 693.00 374.70" xmlns="http://www.w3.org/2000/svg" xmlns:xlink="http://www.w3.org/1999/xlink">
<g id="graph0" class="graph" transform="scale(1 1) rotate(0) translate(4 370.7)">
<title>oneDegreeRelationshipsDiagramImplied</title>
<polygon fill="#ffffff" stroke="transparent" points="-4,4 -4,-370.7 689,-370.7 689,4 -4,4"/>
<text text-anchor="middle" x="72.4936" y="-7.3" font-family="Helvetica,sans-Serif" font-size="11.00" fill="#000000">Generated by SchemaSpy</text>
<!-- contributory_factor_audit -->
<g id="node1" class="node">
<title>contributory_factor_audit</title>
<g id="a_node1"><a xlink:href="../../tables/contributory_factor_audit.html" xlink:title="contributory_factor_audit" target="_top">
<polygon fill="#ffffff" stroke="transparent" points="326,-38.2 326,-282.2 677,-282.2 677,-38.2 326,-38.2"/>
<polygon fill="#f5f5f5" stroke="transparent" points="328.5,-257.2 328.5,-280.2 675.5,-280.2 675.5,-257.2 328.5,-257.2"/>
<polygon fill="none" stroke="#000000" points="328.5,-257.2 328.5,-280.2 675.5,-280.2 675.5,-257.2 328.5,-257.2"/>
<text text-anchor="start" x="333.5" y="-265.8" font-family="Helvetica,sans-Serif" font-weight="bold" font-size="11.00" fill="#000000">contributory_factor_audit</text>
<text text-anchor="start" x="640.5437" y="-265.3" font-family="Helvetica,sans-Serif" font-size="11.00" fill="#000000">[table]</text>
<polygon fill="none" stroke="#000000" points="328.5,-235.2 328.5,-257.2 581.5,-257.2 581.5,-235.2 328.5,-235.2"/>
<image xlink:href="../../images/primaryKeys.png" width="11px" height="12px" preserveAspectRatio="xMinYMin meet" x="333.5" y="-252.2"/>
<text text-anchor="start" x="348.5" y="-242.3" font-family="Helvetica,sans-Serif" font-size="11.00" fill="#000000">rev_id</text>
<polygon fill="none" stroke="#000000" points="581.5,-235.2 581.5,-257.2 675.5,-257.2 675.5,-235.2 581.5,-235.2"/>
<text text-anchor="start" x="584.5" y="-242.9" font-family="Helvetica,sans-Serif" font-size="11.00" fill="#000000">int8[19]</text>
<polygon fill="none" stroke="#000000" points="328.5,-213.2 328.5,-235.2 581.5,-235.2 581.5,-213.2 328.5,-213.2"/>
<text text-anchor="start" x="348.5" y="-220.3" font-family="Helvetica,sans-Serif" font-size="11.00" fill="#000000">rev_type</text>
<polygon fill="none" stroke="#000000" points="581.5,-213.2 581.5,-235.2 675.5,-235.2 675.5,-213.2 581.5,-213.2"/>
<text text-anchor="start" x="584.5" y="-220.9" font-family="Helvetica,sans-Serif" font-size="11.00" fill="#000000">int2[5]</text>
<polygon fill="none" stroke="#000000" points="328.5,-191.2 328.5,-213.2 581.5,-213.2 581.5,-191.2 328.5,-191.2"/>
<image xlink:href="../../images/primaryKeys.png" width="11px" height="12px" preserveAspectRatio="xMinYMin meet" x="333.5" y="-208.2"/>
<text text-anchor="start" x="348.5" y="-198.3" font-family="Helvetica,sans-Serif" font-size="11.00" fill="#000000">contributory_factor_id</text>
<polygon fill="none" stroke="#000000" points="581.5,-191.2 581.5,-213.2 675.5,-213.2 675.5,-191.2 581.5,-191.2"/>
<text text-anchor="start" x="584.4758" y="-198.9" font-family="Helvetica,sans-Serif" font-size="11.00" fill="#000000">uuid[2147483647]</text>
<polygon fill="none" stroke="#000000" points="328.5,-169.2 328.5,-191.2 581.5,-191.2 581.5,-169.2 328.5,-169.2"/>
<image xlink:href="../../images/foreignKeys.png" width="11px" height="12px" preserveAspectRatio="xMinYMin meet" x="333.5" y="-186.2"/>
<text text-anchor="start" x="348.5" y="-176.3" font-family="Helvetica,sans-Serif" font-size="11.00" fill="#000000">referral_id</text>
<polygon fill="none" stroke="#000000" points="581.5,-169.2 581.5,-191.2 675.5,-191.2 675.5,-169.2 581.5,-169.2"/>
<text text-anchor="start" x="584.4758" y="-176.9" font-family="Helvetica,sans-Serif" font-size="11.00" fill="#000000">uuid[2147483647]</text>
<polygon fill="none" stroke="#000000" points="328.5,-147.2 328.5,-169.2 581.5,-169.2 581.5,-147.2 328.5,-147.2"/>
<image xlink:href="../../images/foreignKeys.png" width="11px" height="12px" preserveAspectRatio="xMinYMin meet" x="333.5" y="-164.2"/>
<text text-anchor="start" x="348.5" y="-154.3" font-family="Helvetica,sans-Serif" font-size="11.00" fill="#000000">contributory_factor_type_id</text>
<polygon fill="none" stroke="#000000" points="581.5,-147.2 581.5,-169.2 675.5,-169.2 675.5,-147.2 581.5,-147.2"/>
<text text-anchor="start" x="584.5" y="-154.9" font-family="Helvetica,sans-Serif" font-size="11.00" fill="#000000">int8[19]</text>
<polygon fill="none" stroke="#000000" points="328.5,-125.2 328.5,-147.2 581.5,-147.2 581.5,-125.2 328.5,-125.2"/>
<text text-anchor="start" x="348.5" y="-132.3" font-family="Helvetica,sans-Serif" font-size="11.00" fill="#000000">comment</text>
<polygon fill="none" stroke="#000000" points="581.5,-125.2 581.5,-147.2 675.5,-147.2 675.5,-125.2 581.5,-125.2"/>
<text text-anchor="start" x="584.5" y="-132.9" font-family="Helvetica,sans-Serif" font-size="11.00" fill="#000000">text[2147483647]</text>
<polygon fill="none" stroke="#000000" points="328.5,-103.2 328.5,-125.2 581.5,-125.2 581.5,-103.2 328.5,-103.2"/>
<text text-anchor="start" x="348.5" y="-110.3" font-family="Helvetica,sans-Serif" font-size="11.00" fill="#000000">contributory_factor_type_modified</text>
<polygon fill="none" stroke="#000000" points="581.5,-103.2 581.5,-125.2 675.5,-125.2 675.5,-103.2 581.5,-103.2"/>
<text text-anchor="start" x="584.5" y="-110.9" font-family="Helvetica,sans-Serif" font-size="11.00" fill="#000000">bool[1]</text>
<polygon fill="none" stroke="#000000" points="328.5,-81.2 328.5,-103.2 581.5,-103.2 581.5,-81.2 328.5,-81.2"/>
<text text-anchor="start" x="348.5" y="-88.3" font-family="Helvetica,sans-Serif" font-size="11.00" fill="#000000">comment_modified</text>
<polygon fill="none" stroke="#000000" points="581.5,-81.2 581.5,-103.2 675.5,-103.2 675.5,-81.2 581.5,-81.2"/>
<text text-anchor="start" x="584.5" y="-88.9" font-family="Helvetica,sans-Serif" font-size="11.00" fill="#000000">bool[1]</text>
<polygon fill="none" stroke="#000000" points="328.5,-59.2 328.5,-81.2 581.5,-81.2 581.5,-59.2 328.5,-59.2"/>
<image xlink:href="../../images/foreignKeys.png" width="11px" height="12px" preserveAspectRatio="xMinYMin meet" x="333.5" y="-76.2"/>
<text text-anchor="start" x="348.5" y="-66.3" font-family="Helvetica,sans-Serif" font-size="11.00" fill="#000000">legacy_id</text>
<polygon fill="none" stroke="#000000" points="581.5,-59.2 581.5,-81.2 675.5,-81.2 675.5,-59.2 581.5,-59.2"/>
<text text-anchor="start" x="584.5" y="-66.9" font-family="Helvetica,sans-Serif" font-size="11.00" fill="#000000">int8[19]</text>
<polygon fill="#ffffff" stroke="transparent" points="328.5,-40.2 328.5,-59.2 459.5,-59.2 459.5,-40.2 328.5,-40.2"/>
<polygon fill="none" stroke="#000000" points="328.5,-40.2 328.5,-59.2 459.5,-59.2 459.5,-40.2 328.5,-40.2"/>
<text text-anchor="start" x="331.5" y="-46.3" font-family="Helvetica,sans-Serif" font-size="11.00" fill="#000000">&lt; 4</text>
<polygon fill="#ffffff" stroke="transparent" points="459.5,-40.2 459.5,-59.2 581.5,-59.2 581.5,-40.2 459.5,-40.2"/>
<polygon fill="none" stroke="#000000" points="459.5,-40.2 459.5,-59.2 581.5,-59.2 581.5,-40.2 459.5,-40.2"/>
<text text-anchor="start" x="572.3862" y="-46.3" font-family="Helvetica,sans-Serif" font-size="11.00" fill="#000000"> &#160;</text>
<polygon fill="#ffffff" stroke="transparent" points="581.5,-40.2 581.5,-59.2 675.5,-59.2 675.5,-40.2 581.5,-40.2"/>
<polygon fill="none" stroke="#000000" points="581.5,-40.2 581.5,-59.2 675.5,-59.2 675.5,-40.2 581.5,-40.2"/>
<text text-anchor="start" x="656.9053" y="-46.3" font-family="Helvetica,sans-Serif" font-size="11.00" fill="#000000">0 &gt;</text>
<polygon fill="none" stroke="#000000" stroke-width="2" points="327,-39.2 327,-281.2 676,-281.2 676,-39.2 327,-39.2"/>
</a>
</g>
</g>
<!-- audit_revision -->
<g id="node2" class="node">
<title>audit_revision</title>
<g id="a_node2"><a xlink:href="../../tables/audit_revision.html" xlink:title="audit_revision" target="_top">
<polygon fill="#ffffff" stroke="transparent" points="59.5,-65.7 59.5,-148.7 225.5,-148.7 225.5,-65.7 59.5,-65.7"/>
<polygon fill="#f5f5f5" stroke="transparent" points="59.5,-125.2 59.5,-148.2 225.5,-148.2 225.5,-125.2 59.5,-125.2"/>
<polygon fill="none" stroke="#000000" points="59.5,-125.2 59.5,-148.2 225.5,-148.2 225.5,-125.2 59.5,-125.2"/>
<text text-anchor="start" x="64.5" y="-133.8" font-family="Helvetica,sans-Serif" font-weight="bold" font-size="11.00" fill="#000000">audit_revision</text>
<text text-anchor="start" x="190.5437" y="-133.3" font-family="Helvetica,sans-Serif" font-size="11.00" fill="#000000">[table]</text>
<polygon fill="none" stroke="#000000" points="59.5,-103.2 59.5,-125.2 225.5,-125.2 225.5,-103.2 59.5,-103.2"/>
<image xlink:href="../../images/primaryKeys.png" width="11px" height="12px" preserveAspectRatio="xMinYMin meet" x="64.5" y="-120.2"/>
<text text-anchor="start" x="79.5" y="-110.3" font-family="Helvetica,sans-Serif" font-size="11.00" fill="#000000">id</text>
<polygon fill="none" stroke="#000000" points="59.5,-84.2 59.5,-103.2 225.5,-103.2 225.5,-84.2 59.5,-84.2"/>
<text text-anchor="start" x="62.5" y="-90.3" font-family="Helvetica,sans-Serif" font-size="11.00" fill="#000000">...</text>
<polygon fill="#ffffff" stroke="transparent" points="59.5,-65.2 59.5,-84.2 128.5,-84.2 128.5,-65.2 59.5,-65.2"/>
<polygon fill="none" stroke="#000000" points="59.5,-65.2 59.5,-84.2 128.5,-84.2 128.5,-65.2 59.5,-65.2"/>
<text text-anchor="start" x="62.5" y="-71.3" font-family="Helvetica,sans-Serif" font-size="11.00" fill="#000000"> &#160;</text>
<polygon fill="#ffffff" stroke="transparent" points="128.5,-65.2 128.5,-84.2 169.5,-84.2 169.5,-65.2 128.5,-65.2"/>
<polygon fill="none" stroke="#000000" points="128.5,-65.2 128.5,-84.2 169.5,-84.2 169.5,-65.2 128.5,-65.2"/>
<text text-anchor="start" x="160.3862" y="-71.3" font-family="Helvetica,sans-Serif" font-size="11.00" fill="#000000"> &#160;</text>
<polygon fill="#ffffff" stroke="transparent" points="169.5,-65.2 169.5,-84.2 225.5,-84.2 225.5,-65.2 169.5,-65.2"/>
<polygon fill="none" stroke="#000000" points="169.5,-65.2 169.5,-84.2 225.5,-84.2 225.5,-65.2 169.5,-65.2"/>
<text text-anchor="start" x="200.7904" y="-71.3" font-family="Helvetica,sans-Serif" font-size="11.00" fill="#000000">33 &gt;</text>
</a>
</g>
</g>
<!-- contributory_factor_audit&#45;&gt;audit_revision -->
<g id="edge1" class="edge">
<title>contributory_factor_audit:w&#45;&gt;audit_revision:e</title>
<path fill="none" stroke="#000000" stroke-dasharray="5,2" d="M313.7078,-156.736C277.4133,-149.1014 269.8351,-114.2 225.5,-114.2"/>
<polygon fill="#000000" stroke="#000000" points="320.5389,-157.4121 328.1454,-161.7825 324.5194,-157.806 328.5,-158.2 328.5,-158.2 328.5,-158.2 324.5194,-157.806 328.8546,-154.6175 320.5389,-157.4121 320.5389,-157.4121"/>
<ellipse fill="none" stroke="#000000" cx="317.3545" cy="-157.0969" rx="3.2" ry="3.2"/>
</g>
<!-- contributory_factor_audit&#45;&gt;audit_revision -->
<g id="edge2" class="edge">
<title>contributory_factor_audit:w&#45;&gt;audit_revision:e</title>
<path fill="none" stroke="#000000" stroke-dasharray="5,2" d="M313.7078,-71.664C277.4133,-79.2986 269.8351,-114.2 225.5,-114.2"/>
<polygon fill="#000000" stroke="#000000" points="320.5389,-70.9879 328.8546,-73.7825 324.5194,-70.594 328.5,-70.2 328.5,-70.2 328.5,-70.2 324.5194,-70.594 328.1454,-66.6175 320.5389,-70.9879 320.5389,-70.9879"/>
<ellipse fill="none" stroke="#000000" cx="317.3545" cy="-71.3031" rx="3.2" ry="3.2"/>
</g>
<!-- contributory_factor_audit&#45;&gt;audit_revision -->
<g id="edge4" class="edge">
<title>contributory_factor_audit:w&#45;&gt;audit_revision:e</title>
<path fill="none" stroke="#000000" d="M314.1009,-243.2175C291.8778,-231.4872 308.7472,-187.7708 285,-159.2 263.8067,-133.7019 258.6558,-114.2 225.5,-114.2"/>
<polygon fill="#000000" stroke="#000000" points="320.6663,-244.5773 327.7698,-249.7252 324.5831,-245.3887 328.5,-246.2 328.5,-246.2 328.5,-246.2 324.5831,-245.3887 329.2302,-242.6748 320.6663,-244.5773 320.6663,-244.5773"/>
<ellipse fill="none" stroke="#000000" cx="317.5328" cy="-243.9283" rx="3.2" ry="3.2"/>
</g>
<!-- referral -->
<g id="node3" class="node">
<title>referral</title>
<g id="a_node3"><a xlink:href="../../tables/referral.html" xlink:title="referral" target="_top">
<polygon fill="#ffffff" stroke="transparent" points="8,-169.7 8,-362.7 277,-362.7 277,-169.7 8,-169.7"/>
<polygon fill="#f5f5f5" stroke="transparent" points="8.5,-339.2 8.5,-362.2 277.5,-362.2 277.5,-339.2 8.5,-339.2"/>
<polygon fill="none" stroke="#000000" points="8.5,-339.2 8.5,-362.2 277.5,-362.2 277.5,-339.2 8.5,-339.2"/>
<text text-anchor="start" x="13.5" y="-347.8" font-family="Helvetica,sans-Serif" font-weight="bold" font-size="11.00" fill="#000000">referral</text>
<text text-anchor="start" x="242.5437" y="-347.3" font-family="Helvetica,sans-Serif" font-size="11.00" fill="#000000">[table]</text>
<polygon fill="none" stroke="#000000" points="8.5,-317.2 8.5,-339.2 277.5,-339.2 277.5,-317.2 8.5,-317.2"/>
<image xlink:href="../../images/primaryKeys.png" width="11px" height="12px" preserveAspectRatio="xMinYMin meet" x="13.5" y="-334.2"/>
<text text-anchor="start" x="28.5" y="-324.3" font-family="Helvetica,sans-Serif" font-size="11.00" fill="#000000">referral_id</text>
<polygon fill="#ffffff" stroke="transparent" points="8.5,-295.2 8.5,-317.2 277.5,-317.2 277.5,-295.2 8.5,-295.2"/>
<polygon fill="none" stroke="#000000" points="8.5,-295.2 8.5,-317.2 277.5,-317.2 277.5,-295.2 8.5,-295.2"/>
<image xlink:href="../../images/foreignKeys.png" width="11px" height="12px" preserveAspectRatio="xMinYMin meet" x="13.5" y="-312.2"/>
<text text-anchor="start" x="28.5" y="-302.3" font-family="Helvetica,sans-Serif" font-size="11.00" fill="#000000">incident_type_id</text>
<polygon fill="#ffffff" stroke="transparent" points="8.5,-273.2 8.5,-295.2 277.5,-295.2 277.5,-273.2 8.5,-273.2"/>
<polygon fill="none" stroke="#000000" points="8.5,-273.2 8.5,-295.2 277.5,-295.2 277.5,-273.2 8.5,-273.2"/>
<image xlink:href="../../images/foreignKeys.png" width="11px" height="12px" preserveAspectRatio="xMinYMin meet" x="13.5" y="-290.2"/>
<text text-anchor="start" x="28.5" y="-280.3" font-family="Helvetica,sans-Serif" font-size="11.00" fill="#000000">incident_location_id</text>
<polygon fill="#ffffff" stroke="transparent" points="8.5,-251.2 8.5,-273.2 277.5,-273.2 277.5,-251.2 8.5,-251.2"/>
<polygon fill="none" stroke="#000000" points="8.5,-251.2 8.5,-273.2 277.5,-273.2 277.5,-251.2 8.5,-251.2"/>
<image xlink:href="../../images/foreignKeys.png" width="11px" height="12px" preserveAspectRatio="xMinYMin meet" x="13.5" y="-268.2"/>
<text text-anchor="start" x="28.5" y="-258.3" font-family="Helvetica,sans-Serif" font-size="11.00" fill="#000000">referer_area_of_work_id</text>
<polygon fill="#ffffff" stroke="transparent" points="8.5,-229.2 8.5,-251.2 277.5,-251.2 277.5,-229.2 8.5,-229.2"/>
<polygon fill="none" stroke="#000000" points="8.5,-229.2 8.5,-251.2 277.5,-251.2 277.5,-229.2 8.5,-229.2"/>
<text text-anchor="start" x="28.5" y="-236.3" font-family="Helvetica,sans-Serif" font-size="11.00" fill="#000000">referral_date</text>
<polygon fill="#ffffff" stroke="transparent" points="8.5,-207.2 8.5,-229.2 277.5,-229.2 277.5,-207.2 8.5,-207.2"/>
<polygon fill="none" stroke="#000000" points="8.5,-207.2 8.5,-229.2 277.5,-229.2 277.5,-207.2 8.5,-207.2"/>
<image xlink:href="../../images/foreignKeys.png" width="11px" height="12px" preserveAspectRatio="xMinYMin meet" x="13.5" y="-224.2"/>
<text text-anchor="start" x="28.5" y="-214.3" font-family="Helvetica,sans-Serif" font-size="11.00" fill="#000000">incident_involvement_id</text>
<polygon fill="none" stroke="#000000" points="8.5,-188.2 8.5,-207.2 277.5,-207.2 277.5,-188.2 8.5,-188.2"/>
<text text-anchor="start" x="11.5" y="-194.3" font-family="Helvetica,sans-Serif" font-size="11.00" fill="#000000">...</text>
<polygon fill="#ffffff" stroke="transparent" points="8.5,-169.2 8.5,-188.2 136.5,-188.2 136.5,-169.2 8.5,-169.2"/>
<polygon fill="none" stroke="#000000" points="8.5,-169.2 8.5,-188.2 136.5,-188.2 136.5,-169.2 8.5,-169.2"/>
<text text-anchor="start" x="11.5" y="-175.3" font-family="Helvetica,sans-Serif" font-size="11.00" fill="#000000">&lt; 5</text>
<polygon fill="#ffffff" stroke="transparent" points="136.5,-169.2 136.5,-188.2 202.5,-188.2 202.5,-169.2 136.5,-169.2"/>
<polygon fill="none" stroke="#000000" points="136.5,-169.2 136.5,-188.2 202.5,-188.2 202.5,-169.2 136.5,-169.2"/>
<text text-anchor="start" x="193.3862" y="-175.3" font-family="Helvetica,sans-Serif" font-size="11.00" fill="#000000"> &#160;</text>
<polygon fill="#ffffff" stroke="transparent" points="202.5,-169.2 202.5,-188.2 277.5,-188.2 277.5,-169.2 202.5,-169.2"/>
<polygon fill="none" stroke="#000000" points="202.5,-169.2 202.5,-188.2 277.5,-188.2 277.5,-169.2 202.5,-169.2"/>
<text text-anchor="start" x="258.9053" y="-175.3" font-family="Helvetica,sans-Serif" font-size="11.00" fill="#000000">5 &gt;</text>
</a>
</g>
</g>
<!-- contributory_factor_audit&#45;&gt;referral -->
<g id="edge3" class="edge">
<title>contributory_factor_audit:w&#45;&gt;referral:e</title>
<path fill="none" stroke="#000000" stroke-dasharray="5,2" d="M314.1212,-183.1564C272.6199,-204.0155 341.2306,-328.2 277.5,-328.2"/>
<polygon fill="#000000" stroke="#000000" points="320.6639,-181.8112 329.225,-183.7262 324.582,-181.0056 328.5,-180.2 328.5,-180.2 328.5,-180.2 324.582,-181.0056 327.775,-176.6738 320.6639,-181.8112 320.6639,-181.8112"/>
<ellipse fill="none" stroke="#000000" cx="317.5295" cy="-182.4557" rx="3.2" ry="3.2"/>
</g>
</g>
</svg>
