<?xml version="1.0" encoding="UTF-8" standalone="no"?>
<!DOCTYPE svg PUBLIC "-//W3C//DTD SVG 1.1//EN"
 "http://www.w3.org/Graphics/SVG/1.1/DTD/svg11.dtd">
<!-- Generated by graphviz version 2.40.1 (20161225.0304)
 -->
<!-- Title: oneDegreeRelationshipsDiagramImplied Pages: 1 -->
<svg width="836pt" height="378pt"
 viewBox="0.00 0.00 836.00 378.20" xmlns="http://www.w3.org/2000/svg" xmlns:xlink="http://www.w3.org/1999/xlink">
<g id="graph0" class="graph" transform="scale(1 1) rotate(0) translate(4 374.2)">
<title>oneDegreeRelationshipsDiagramImplied</title>
<polygon fill="#ffffff" stroke="transparent" points="-4,4 -4,-374.2 832,-374.2 832,4 -4,4"/>
<text text-anchor="middle" x="72.4936" y="-7.3" font-family="Helvetica,sans-Serif" font-size="11.00" fill="#000000">Generated by SchemaSpy</text>
<!-- contributory_factor -->
<g id="node1" class="node">
<title>contributory_factor</title>
<g id="a_node1"><a xlink:href="../../tables/contributory_factor.html" xlink:title="contributory_factor" target="_top">
<polygon fill="#ffffff" stroke="transparent" points="516,-54.7 516,-232.7 820,-232.7 820,-54.7 516,-54.7"/>
<polygon fill="#f5f5f5" stroke="transparent" points="518,-207.7 518,-230.7 818,-230.7 818,-207.7 518,-207.7"/>
<polygon fill="none" stroke="#000000" points="518,-207.7 518,-230.7 818,-230.7 818,-207.7 518,-207.7"/>
<text text-anchor="start" x="523" y="-216.3" font-family="Helvetica,sans-Serif" font-weight="bold" font-size="11.00" fill="#000000">contributory_factor</text>
<text text-anchor="start" x="783.0437" y="-215.8" font-family="Helvetica,sans-Serif" font-size="11.00" fill="#000000">[table]</text>
<polygon fill="none" stroke="#000000" points="518,-185.7 518,-207.7 724,-207.7 724,-185.7 518,-185.7"/>
<image xlink:href="../../images/primaryKeys.png" width="11px" height="12px" preserveAspectRatio="xMinYMin meet" x="523" y="-202.7"/>
<text text-anchor="start" x="538" y="-192.8" font-family="Helvetica,sans-Serif" font-size="11.00" fill="#000000">contributory_factor_id</text>
<polygon fill="none" stroke="#000000" points="724,-185.7 724,-207.7 818,-207.7 818,-185.7 724,-185.7"/>
<text text-anchor="start" x="726.9758" y="-193.4" font-family="Helvetica,sans-Serif" font-size="11.00" fill="#000000">uuid[2147483647]</text>
<polygon fill="#ffffff" stroke="transparent" points="518,-163.7 518,-185.7 724,-185.7 724,-163.7 518,-163.7"/>
<polygon fill="none" stroke="#000000" points="518,-163.7 518,-185.7 724,-185.7 724,-163.7 518,-163.7"/>
<image xlink:href="../../images/foreignKeys.png" width="11px" height="12px" preserveAspectRatio="xMinYMin meet" x="523" y="-180.7"/>
<text text-anchor="start" x="538" y="-170.8" font-family="Helvetica,sans-Serif" font-size="11.00" fill="#000000">referral_id</text>
<polygon fill="none" stroke="#000000" points="724,-163.7 724,-185.7 818,-185.7 818,-163.7 724,-163.7"/>
<text text-anchor="start" x="726.9758" y="-171.4" font-family="Helvetica,sans-Serif" font-size="11.00" fill="#000000">uuid[2147483647]</text>
<polygon fill="#ffffff" stroke="transparent" points="518,-141.7 518,-163.7 724,-163.7 724,-141.7 518,-141.7"/>
<polygon fill="none" stroke="#000000" points="518,-141.7 518,-163.7 724,-163.7 724,-141.7 518,-141.7"/>
<image xlink:href="../../images/foreignKeys.png" width="11px" height="12px" preserveAspectRatio="xMinYMin meet" x="523" y="-158.7"/>
<text text-anchor="start" x="538" y="-148.8" font-family="Helvetica,sans-Serif" font-size="11.00" fill="#000000">contributory_factor_type_id</text>
<polygon fill="none" stroke="#000000" points="724,-141.7 724,-163.7 818,-163.7 818,-141.7 724,-141.7"/>
<text text-anchor="start" x="727" y="-149.4" font-family="Helvetica,sans-Serif" font-size="11.00" fill="#000000">int8[19]</text>
<polygon fill="none" stroke="#000000" points="518,-119.7 518,-141.7 724,-141.7 724,-119.7 518,-119.7"/>
<text text-anchor="start" x="538" y="-126.8" font-family="Helvetica,sans-Serif" font-size="11.00" fill="#000000">comment</text>
<polygon fill="none" stroke="#000000" points="724,-119.7 724,-141.7 818,-141.7 818,-119.7 724,-119.7"/>
<text text-anchor="start" x="727" y="-127.4" font-family="Helvetica,sans-Serif" font-size="11.00" fill="#000000">text[2147483647]</text>
<polygon fill="none" stroke="#000000" points="518,-97.7 518,-119.7 724,-119.7 724,-97.7 518,-97.7"/>
<text text-anchor="start" x="538" y="-104.8" font-family="Helvetica,sans-Serif" font-size="11.00" fill="#000000">version</text>
<polygon fill="none" stroke="#000000" points="724,-97.7 724,-119.7 818,-119.7 818,-97.7 724,-97.7"/>
<text text-anchor="start" x="727" y="-105.4" font-family="Helvetica,sans-Serif" font-size="11.00" fill="#000000">int4[10]</text>
<polygon fill="#ffffff" stroke="transparent" points="518,-75.7 518,-97.7 724,-97.7 724,-75.7 518,-75.7"/>
<polygon fill="none" stroke="#000000" points="518,-75.7 518,-97.7 724,-97.7 724,-75.7 518,-75.7"/>
<image xlink:href="../../images/foreignKeys.png" width="11px" height="12px" preserveAspectRatio="xMinYMin meet" x="523" y="-92.7"/>
<text text-anchor="start" x="538" y="-82.8" font-family="Helvetica,sans-Serif" font-size="11.00" fill="#000000">legacy_id</text>
<polygon fill="none" stroke="#000000" points="724,-75.7 724,-97.7 818,-97.7 818,-75.7 724,-75.7"/>
<text text-anchor="start" x="727" y="-83.4" font-family="Helvetica,sans-Serif" font-size="11.00" fill="#000000">int8[19]</text>
<polygon fill="#ffffff" stroke="transparent" points="518,-56.7 518,-75.7 625,-75.7 625,-56.7 518,-56.7"/>
<polygon fill="none" stroke="#000000" points="518,-56.7 518,-75.7 625,-75.7 625,-56.7 518,-56.7"/>
<text text-anchor="start" x="521" y="-62.8" font-family="Helvetica,sans-Serif" font-size="11.00" fill="#000000">&lt; 3</text>
<polygon fill="#ffffff" stroke="transparent" points="625,-56.7 625,-75.7 724,-75.7 724,-56.7 625,-56.7"/>
<polygon fill="none" stroke="#000000" points="625,-56.7 625,-75.7 724,-75.7 724,-56.7 625,-56.7"/>
<text text-anchor="start" x="714.8862" y="-62.8" font-family="Helvetica,sans-Serif" font-size="11.00" fill="#000000"> &#160;</text>
<polygon fill="#ffffff" stroke="transparent" points="724,-56.7 724,-75.7 818,-75.7 818,-56.7 724,-56.7"/>
<polygon fill="none" stroke="#000000" points="724,-56.7 724,-75.7 818,-75.7 818,-56.7 724,-56.7"/>
<text text-anchor="start" x="799.4053" y="-62.8" font-family="Helvetica,sans-Serif" font-size="11.00" fill="#000000">0 &gt;</text>
<polygon fill="none" stroke="#000000" stroke-width="2" points="517,-55.7 517,-231.7 819,-231.7 819,-55.7 517,-55.7"/>
</a>
</g>
</g>
<!-- reference_data -->
<g id="node2" class="node">
<title>reference_data</title>
<g id="a_node2"><a xlink:href="../../tables/reference_data.html" xlink:title="reference_data" target="_top">
<polygon fill="#ffffff" stroke="transparent" points="8,-151.2 8,-300.2 149,-300.2 149,-151.2 8,-151.2"/>
<polygon fill="#f5f5f5" stroke="transparent" points="8.5,-276.7 8.5,-299.7 149.5,-299.7 149.5,-276.7 8.5,-276.7"/>
<polygon fill="none" stroke="#000000" points="8.5,-276.7 8.5,-299.7 149.5,-299.7 149.5,-276.7 8.5,-276.7"/>
<text text-anchor="start" x="13.5" y="-285.3" font-family="Helvetica,sans-Serif" font-weight="bold" font-size="11.00" fill="#000000">reference_data</text>
<text text-anchor="start" x="115.0219" y="-284.8" font-family="Helvetica,sans-Serif" font-size="11.00" fill="#000000">[table]</text>
<polygon fill="none" stroke="#000000" points="8.5,-254.7 8.5,-276.7 149.5,-276.7 149.5,-254.7 8.5,-254.7"/>
<image xlink:href="../../images/primaryKeys.png" width="11px" height="12px" preserveAspectRatio="xMinYMin meet" x="13.5" y="-271.7"/>
<text text-anchor="start" x="28.5" y="-261.8" font-family="Helvetica,sans-Serif" font-size="11.00" fill="#000000">reference_data_id</text>
<polygon fill="#ffffff" stroke="transparent" points="8.5,-232.7 8.5,-254.7 149.5,-254.7 149.5,-232.7 8.5,-232.7"/>
<polygon fill="none" stroke="#000000" points="8.5,-232.7 8.5,-254.7 149.5,-254.7 149.5,-232.7 8.5,-232.7"/>
<text text-anchor="start" x="28.5" y="-239.8" font-family="Helvetica,sans-Serif" font-size="11.00" fill="#000000">domain</text>
<polygon fill="#ffffff" stroke="transparent" points="8.5,-210.7 8.5,-232.7 149.5,-232.7 149.5,-210.7 8.5,-210.7"/>
<polygon fill="none" stroke="#000000" points="8.5,-210.7 8.5,-232.7 149.5,-232.7 149.5,-210.7 8.5,-210.7"/>
<text text-anchor="start" x="28.5" y="-217.8" font-family="Helvetica,sans-Serif" font-size="11.00" fill="#000000">code</text>
<polygon fill="#ffffff" stroke="transparent" points="8.5,-188.7 8.5,-210.7 149.5,-210.7 149.5,-188.7 8.5,-188.7"/>
<polygon fill="none" stroke="#000000" points="8.5,-188.7 8.5,-210.7 149.5,-210.7 149.5,-188.7 8.5,-188.7"/>
<text text-anchor="start" x="28.5" y="-195.8" font-family="Helvetica,sans-Serif" font-size="11.00" fill="#000000">list_sequence</text>
<polygon fill="none" stroke="#000000" points="8.5,-169.7 8.5,-188.7 149.5,-188.7 149.5,-169.7 8.5,-169.7"/>
<text text-anchor="start" x="11.5" y="-175.8" font-family="Helvetica,sans-Serif" font-size="11.00" fill="#000000">...</text>
<polygon fill="#ffffff" stroke="transparent" points="8.5,-150.7 8.5,-169.7 46.5,-169.7 46.5,-150.7 8.5,-150.7"/>
<polygon fill="none" stroke="#000000" points="8.5,-150.7 8.5,-169.7 46.5,-169.7 46.5,-150.7 8.5,-150.7"/>
<text text-anchor="start" x="11.5" y="-156.8" font-family="Helvetica,sans-Serif" font-size="11.00" fill="#000000"> &#160;</text>
<polygon fill="#ffffff" stroke="transparent" points="46.5,-150.7 46.5,-169.7 109.5,-169.7 109.5,-150.7 46.5,-150.7"/>
<polygon fill="none" stroke="#000000" points="46.5,-150.7 46.5,-169.7 109.5,-169.7 109.5,-150.7 46.5,-150.7"/>
<text text-anchor="start" x="61.8807" y="-156.8" font-family="Helvetica,sans-Serif" font-size="11.00" fill="#000000">112 rows</text>
<polygon fill="#ffffff" stroke="transparent" points="109.5,-150.7 109.5,-169.7 149.5,-169.7 149.5,-150.7 109.5,-150.7"/>
<polygon fill="none" stroke="#000000" points="109.5,-150.7 109.5,-169.7 149.5,-169.7 149.5,-150.7 109.5,-150.7"/>
<text text-anchor="start" x="124.7904" y="-156.8" font-family="Helvetica,sans-Serif" font-size="11.00" fill="#000000">10 &gt;</text>
</a>
</g>
</g>
<!-- contributory_factor&#45;&gt;reference_data -->
<g id="edge1" class="edge">
<title>contributory_factor:w&#45;&gt;reference_data:e</title>
<path fill="none" stroke="#000000" d="M503.4641,-152.3719C421.9079,-149.0993 246.0214,-123.268 190,-162.7 149.7757,-191.0128 198.6895,-265.7 149.5,-265.7"/>
<polygon fill="#000000" stroke="#000000" points="510.002,-152.5194 517.9187,-156.2991 514.001,-152.6097 518,-152.7 518,-152.7 518,-152.7 514.001,-152.6097 518.0813,-149.1009 510.002,-152.5194 510.002,-152.5194"/>
<ellipse fill="none" stroke="#000000" cx="506.8029" cy="-152.4472" rx="3.2" ry="3.2"/>
</g>
<!-- audit_revision -->
<g id="node3" class="node">
<title>audit_revision</title>
<g id="a_node3"><a xlink:href="../../tables/audit_revision.html" xlink:title="audit_revision" target="_top">
<polygon fill="#ffffff" stroke="transparent" points="249.5,-38.2 249.5,-121.2 415.5,-121.2 415.5,-38.2 249.5,-38.2"/>
<polygon fill="#f5f5f5" stroke="transparent" points="249.5,-97.7 249.5,-120.7 415.5,-120.7 415.5,-97.7 249.5,-97.7"/>
<polygon fill="none" stroke="#000000" points="249.5,-97.7 249.5,-120.7 415.5,-120.7 415.5,-97.7 249.5,-97.7"/>
<text text-anchor="start" x="254.5" y="-106.3" font-family="Helvetica,sans-Serif" font-weight="bold" font-size="11.00" fill="#000000">audit_revision</text>
<text text-anchor="start" x="380.5437" y="-105.8" font-family="Helvetica,sans-Serif" font-size="11.00" fill="#000000">[table]</text>
<polygon fill="none" stroke="#000000" points="249.5,-75.7 249.5,-97.7 415.5,-97.7 415.5,-75.7 249.5,-75.7"/>
<image xlink:href="../../images/primaryKeys.png" width="11px" height="12px" preserveAspectRatio="xMinYMin meet" x="254.5" y="-92.7"/>
<text text-anchor="start" x="269.5" y="-82.8" font-family="Helvetica,sans-Serif" font-size="11.00" fill="#000000">id</text>
<polygon fill="none" stroke="#000000" points="249.5,-56.7 249.5,-75.7 415.5,-75.7 415.5,-56.7 249.5,-56.7"/>
<text text-anchor="start" x="252.5" y="-62.8" font-family="Helvetica,sans-Serif" font-size="11.00" fill="#000000">...</text>
<polygon fill="#ffffff" stroke="transparent" points="249.5,-37.7 249.5,-56.7 318.5,-56.7 318.5,-37.7 249.5,-37.7"/>
<polygon fill="none" stroke="#000000" points="249.5,-37.7 249.5,-56.7 318.5,-56.7 318.5,-37.7 249.5,-37.7"/>
<text text-anchor="start" x="252.5" y="-43.8" font-family="Helvetica,sans-Serif" font-size="11.00" fill="#000000"> &#160;</text>
<polygon fill="#ffffff" stroke="transparent" points="318.5,-37.7 318.5,-56.7 359.5,-56.7 359.5,-37.7 318.5,-37.7"/>
<polygon fill="none" stroke="#000000" points="318.5,-37.7 318.5,-56.7 359.5,-56.7 359.5,-37.7 318.5,-37.7"/>
<text text-anchor="start" x="350.3862" y="-43.8" font-family="Helvetica,sans-Serif" font-size="11.00" fill="#000000"> &#160;</text>
<polygon fill="#ffffff" stroke="transparent" points="359.5,-37.7 359.5,-56.7 415.5,-56.7 415.5,-37.7 359.5,-37.7"/>
<polygon fill="none" stroke="#000000" points="359.5,-37.7 359.5,-56.7 415.5,-56.7 415.5,-37.7 359.5,-37.7"/>
<text text-anchor="start" x="390.7904" y="-43.8" font-family="Helvetica,sans-Serif" font-size="11.00" fill="#000000">33 &gt;</text>
</a>
</g>
</g>
<!-- contributory_factor&#45;&gt;audit_revision -->
<g id="edge2" class="edge">
<title>contributory_factor:w&#45;&gt;audit_revision:e</title>
<path fill="none" stroke="#000000" stroke-dasharray="5,2" d="M507.4411,-86.7C470.346,-86.7 457.3186,-86.7 415.5,-86.7"/>
<polygon fill="#000000" stroke="#000000" points="517.2,-82.7 517.2,-90.7 515.6,-90.7 515.6,-82.7 517.2,-82.7"/>
<polyline fill="none" stroke="#000000" points="518,-86.7 514,-86.7 "/>
<ellipse fill="none" stroke="#000000" cx="510.8" cy="-86.7001" rx="3.2" ry="3.2"/>
</g>
<!-- referral -->
<g id="node4" class="node">
<title>referral</title>
<g id="a_node4"><a xlink:href="../../tables/referral.html" xlink:title="referral" target="_top">
<polygon fill="#ffffff" stroke="transparent" points="198,-173.2 198,-366.2 467,-366.2 467,-173.2 198,-173.2"/>
<polygon fill="#f5f5f5" stroke="transparent" points="198.5,-342.7 198.5,-365.7 467.5,-365.7 467.5,-342.7 198.5,-342.7"/>
<polygon fill="none" stroke="#000000" points="198.5,-342.7 198.5,-365.7 467.5,-365.7 467.5,-342.7 198.5,-342.7"/>
<text text-anchor="start" x="203.5" y="-351.3" font-family="Helvetica,sans-Serif" font-weight="bold" font-size="11.00" fill="#000000">referral</text>
<text text-anchor="start" x="432.5437" y="-350.8" font-family="Helvetica,sans-Serif" font-size="11.00" fill="#000000">[table]</text>
<polygon fill="none" stroke="#000000" points="198.5,-320.7 198.5,-342.7 467.5,-342.7 467.5,-320.7 198.5,-320.7"/>
<image xlink:href="../../images/primaryKeys.png" width="11px" height="12px" preserveAspectRatio="xMinYMin meet" x="203.5" y="-337.7"/>
<text text-anchor="start" x="218.5" y="-327.8" font-family="Helvetica,sans-Serif" font-size="11.00" fill="#000000">referral_id</text>
<polygon fill="#ffffff" stroke="transparent" points="198.5,-298.7 198.5,-320.7 467.5,-320.7 467.5,-298.7 198.5,-298.7"/>
<polygon fill="none" stroke="#000000" points="198.5,-298.7 198.5,-320.7 467.5,-320.7 467.5,-298.7 198.5,-298.7"/>
<image xlink:href="../../images/foreignKeys.png" width="11px" height="12px" preserveAspectRatio="xMinYMin meet" x="203.5" y="-315.7"/>
<text text-anchor="start" x="218.5" y="-305.8" font-family="Helvetica,sans-Serif" font-size="11.00" fill="#000000">incident_type_id</text>
<polygon fill="#ffffff" stroke="transparent" points="198.5,-276.7 198.5,-298.7 467.5,-298.7 467.5,-276.7 198.5,-276.7"/>
<polygon fill="none" stroke="#000000" points="198.5,-276.7 198.5,-298.7 467.5,-298.7 467.5,-276.7 198.5,-276.7"/>
<image xlink:href="../../images/foreignKeys.png" width="11px" height="12px" preserveAspectRatio="xMinYMin meet" x="203.5" y="-293.7"/>
<text text-anchor="start" x="218.5" y="-283.8" font-family="Helvetica,sans-Serif" font-size="11.00" fill="#000000">incident_location_id</text>
<polygon fill="#ffffff" stroke="transparent" points="198.5,-254.7 198.5,-276.7 467.5,-276.7 467.5,-254.7 198.5,-254.7"/>
<polygon fill="none" stroke="#000000" points="198.5,-254.7 198.5,-276.7 467.5,-276.7 467.5,-254.7 198.5,-254.7"/>
<image xlink:href="../../images/foreignKeys.png" width="11px" height="12px" preserveAspectRatio="xMinYMin meet" x="203.5" y="-271.7"/>
<text text-anchor="start" x="218.5" y="-261.8" font-family="Helvetica,sans-Serif" font-size="11.00" fill="#000000">referer_area_of_work_id</text>
<polygon fill="#ffffff" stroke="transparent" points="198.5,-232.7 198.5,-254.7 467.5,-254.7 467.5,-232.7 198.5,-232.7"/>
<polygon fill="none" stroke="#000000" points="198.5,-232.7 198.5,-254.7 467.5,-254.7 467.5,-232.7 198.5,-232.7"/>
<text text-anchor="start" x="218.5" y="-239.8" font-family="Helvetica,sans-Serif" font-size="11.00" fill="#000000">referral_date</text>
<polygon fill="#ffffff" stroke="transparent" points="198.5,-210.7 198.5,-232.7 467.5,-232.7 467.5,-210.7 198.5,-210.7"/>
<polygon fill="none" stroke="#000000" points="198.5,-210.7 198.5,-232.7 467.5,-232.7 467.5,-210.7 198.5,-210.7"/>
<image xlink:href="../../images/foreignKeys.png" width="11px" height="12px" preserveAspectRatio="xMinYMin meet" x="203.5" y="-227.7"/>
<text text-anchor="start" x="218.5" y="-217.8" font-family="Helvetica,sans-Serif" font-size="11.00" fill="#000000">incident_involvement_id</text>
<polygon fill="none" stroke="#000000" points="198.5,-191.7 198.5,-210.7 467.5,-210.7 467.5,-191.7 198.5,-191.7"/>
<text text-anchor="start" x="201.5" y="-197.8" font-family="Helvetica,sans-Serif" font-size="11.00" fill="#000000">...</text>
<polygon fill="#ffffff" stroke="transparent" points="198.5,-172.7 198.5,-191.7 326.5,-191.7 326.5,-172.7 198.5,-172.7"/>
<polygon fill="none" stroke="#000000" points="198.5,-172.7 198.5,-191.7 326.5,-191.7 326.5,-172.7 198.5,-172.7"/>
<text text-anchor="start" x="201.5" y="-178.8" font-family="Helvetica,sans-Serif" font-size="11.00" fill="#000000">&lt; 5</text>
<polygon fill="#ffffff" stroke="transparent" points="326.5,-172.7 326.5,-191.7 392.5,-191.7 392.5,-172.7 326.5,-172.7"/>
<polygon fill="none" stroke="#000000" points="326.5,-172.7 326.5,-191.7 392.5,-191.7 392.5,-172.7 326.5,-172.7"/>
<text text-anchor="start" x="383.3862" y="-178.8" font-family="Helvetica,sans-Serif" font-size="11.00" fill="#000000"> &#160;</text>
<polygon fill="#ffffff" stroke="transparent" points="392.5,-172.7 392.5,-191.7 467.5,-191.7 467.5,-172.7 392.5,-172.7"/>
<polygon fill="none" stroke="#000000" points="392.5,-172.7 392.5,-191.7 467.5,-191.7 467.5,-172.7 392.5,-172.7"/>
<text text-anchor="start" x="448.9053" y="-178.8" font-family="Helvetica,sans-Serif" font-size="11.00" fill="#000000">4 &gt;</text>
</a>
</g>
</g>
<!-- contributory_factor&#45;&gt;referral -->
<g id="edge3" class="edge">
<title>contributory_factor:w&#45;&gt;referral:e</title>
<path fill="none" stroke="#000000" d="M503.7608,-177.425C458.6826,-198.273 535.0722,-331.7 467.5,-331.7"/>
<polygon fill="#000000" stroke="#000000" points="510.1426,-176.2038 518.6767,-178.2358 514.0713,-175.4519 518,-174.7 518,-174.7 518,-174.7 514.0713,-175.4519 517.3233,-171.1642 510.1426,-176.2038 510.1426,-176.2038"/>
<ellipse fill="none" stroke="#000000" cx="506.9996" cy="-176.8053" rx="3.2" ry="3.2"/>
</g>
<!-- referral&#45;&gt;reference_data -->
<g id="edge4" class="edge">
<title>referral:w&#45;&gt;reference_data:e</title>
<path fill="none" stroke="#000000" d="M184.8171,-226.4088C171.5046,-237.7596 172.824,-265.7 149.5,-265.7"/>
<polygon fill="#000000" stroke="#000000" points="190.9354,-224.3033 199.6715,-225.1041 194.7177,-223.0016 198.5,-221.7 198.5,-221.7 198.5,-221.7 194.7177,-223.0016 197.3285,-218.2959 190.9354,-224.3033 190.9354,-224.3033"/>
<ellipse fill="none" stroke="#000000" cx="187.9096" cy="-225.3446" rx="3.2" ry="3.2"/>
</g>
<!-- referral&#45;&gt;reference_data -->
<g id="edge5" class="edge">
<title>referral:w&#45;&gt;reference_data:e</title>
<path fill="none" stroke="#000000" d="M184.1297,-284.2625C172.5865,-278.075 167.4041,-265.7 149.5,-265.7"/>
<polygon fill="#000000" stroke="#000000" points="190.7195,-285.8388 197.6625,-291.2012 194.6098,-286.7694 198.5,-287.7 198.5,-287.7 198.5,-287.7 194.6098,-286.7694 199.3375,-284.1988 190.7195,-285.8388 190.7195,-285.8388"/>
<ellipse fill="none" stroke="#000000" cx="187.6073" cy="-285.0943" rx="3.2" ry="3.2"/>
</g>
<!-- referral&#45;&gt;reference_data -->
<g id="edge6" class="edge">
<title>referral:w&#45;&gt;reference_data:e</title>
<path fill="none" stroke="#000000" d="M184.8171,-304.9912C171.5046,-293.6404 172.824,-265.7 149.5,-265.7"/>
<polygon fill="#000000" stroke="#000000" points="190.9354,-307.0967 197.3285,-313.1041 194.7177,-308.3984 198.5,-309.7 198.5,-309.7 198.5,-309.7 194.7177,-308.3984 199.6715,-306.2959 190.9354,-307.0967 190.9354,-307.0967"/>
<ellipse fill="none" stroke="#000000" cx="187.9096" cy="-306.0554" rx="3.2" ry="3.2"/>
</g>
<!-- referral&#45;&gt;reference_data -->
<g id="edge7" class="edge">
<title>referral:w&#45;&gt;reference_data:e</title>
<path fill="none" stroke="#000000" d="M183.9909,-265.7C172.6774,-265.7 165.4931,-265.7 149.5,-265.7"/>
<polygon fill="#000000" stroke="#000000" points="190.5,-265.7001 198.5,-269.3 194.5,-265.7 198.5,-265.7 198.5,-265.7 198.5,-265.7 194.5,-265.7 198.5,-262.1 190.5,-265.7001 190.5,-265.7001"/>
<ellipse fill="none" stroke="#000000" cx="187.3" cy="-265.7001" rx="3.2" ry="3.2"/>
</g>
</g>
</svg>
