<?xml version="1.0" encoding="UTF-8" standalone="no"?>
<!DOCTYPE svg PUBLIC "-//W3C//DTD SVG 1.1//EN"
 "http://www.w3.org/Graphics/SVG/1.1/DTD/svg11.dtd">
<!-- Generated by graphviz version 2.40.1 (20161225.0304)
 -->
<!-- Title: oneDegreeRelationshipsDiagram Pages: 1 -->
<svg width="590pt" height="294pt"
 viewBox="0.00 0.00 590.00 294.20" xmlns="http://www.w3.org/2000/svg" xmlns:xlink="http://www.w3.org/1999/xlink">
<g id="graph0" class="graph" transform="scale(1 1) rotate(0) translate(4 290.2)">
<title>oneDegreeRelationshipsDiagram</title>
<polygon fill="#ffffff" stroke="transparent" points="-4,4 -4,-290.2 586,-290.2 586,4 -4,4"/>
<text text-anchor="middle" x="72.4936" y="-7.3" font-family="Helvetica,sans-Serif" font-size="11.00" fill="#000000">Generated by SchemaSpy</text>
<!-- contributory_factor_audit -->
<g id="node1" class="node">
<title>contributory_factor_audit</title>
<g id="a_node1"><a xlink:href="../../tables/contributory_factor_audit.html" xlink:title="contributory_factor_audit" target="_top">
<polygon fill="#ffffff" stroke="transparent" points="223,-38.2 223,-282.2 574,-282.2 574,-38.2 223,-38.2"/>
<polygon fill="#f5f5f5" stroke="transparent" points="225.5,-257.2 225.5,-280.2 572.5,-280.2 572.5,-257.2 225.5,-257.2"/>
<polygon fill="none" stroke="#000000" points="225.5,-257.2 225.5,-280.2 572.5,-280.2 572.5,-257.2 225.5,-257.2"/>
<text text-anchor="start" x="230.5" y="-265.8" font-family="Helvetica,sans-Serif" font-weight="bold" font-size="11.00" fill="#000000">contributory_factor_audit</text>
<text text-anchor="start" x="537.5437" y="-265.3" font-family="Helvetica,sans-Serif" font-size="11.00" fill="#000000">[table]</text>
<polygon fill="none" stroke="#000000" points="225.5,-235.2 225.5,-257.2 478.5,-257.2 478.5,-235.2 225.5,-235.2"/>
<image xlink:href="../../images/primaryKeys.png" width="11px" height="12px" preserveAspectRatio="xMinYMin meet" x="230.5" y="-252.2"/>
<text text-anchor="start" x="245.5" y="-242.3" font-family="Helvetica,sans-Serif" font-size="11.00" fill="#000000">rev_id</text>
<polygon fill="none" stroke="#000000" points="478.5,-235.2 478.5,-257.2 572.5,-257.2 572.5,-235.2 478.5,-235.2"/>
<text text-anchor="start" x="481.5" y="-242.9" font-family="Helvetica,sans-Serif" font-size="11.00" fill="#000000">int8[19]</text>
<polygon fill="none" stroke="#000000" points="225.5,-213.2 225.5,-235.2 478.5,-235.2 478.5,-213.2 225.5,-213.2"/>
<text text-anchor="start" x="245.5" y="-220.3" font-family="Helvetica,sans-Serif" font-size="11.00" fill="#000000">rev_type</text>
<polygon fill="none" stroke="#000000" points="478.5,-213.2 478.5,-235.2 572.5,-235.2 572.5,-213.2 478.5,-213.2"/>
<text text-anchor="start" x="481.5" y="-220.9" font-family="Helvetica,sans-Serif" font-size="11.00" fill="#000000">int2[5]</text>
<polygon fill="none" stroke="#000000" points="225.5,-191.2 225.5,-213.2 478.5,-213.2 478.5,-191.2 225.5,-191.2"/>
<image xlink:href="../../images/primaryKeys.png" width="11px" height="12px" preserveAspectRatio="xMinYMin meet" x="230.5" y="-208.2"/>
<text text-anchor="start" x="245.5" y="-198.3" font-family="Helvetica,sans-Serif" font-size="11.00" fill="#000000">contributory_factor_id</text>
<polygon fill="none" stroke="#000000" points="478.5,-191.2 478.5,-213.2 572.5,-213.2 572.5,-191.2 478.5,-191.2"/>
<text text-anchor="start" x="481.4758" y="-198.9" font-family="Helvetica,sans-Serif" font-size="11.00" fill="#000000">uuid[2147483647]</text>
<polygon fill="none" stroke="#000000" points="225.5,-169.2 225.5,-191.2 478.5,-191.2 478.5,-169.2 225.5,-169.2"/>
<image xlink:href="../../images/foreignKeys.png" width="11px" height="12px" preserveAspectRatio="xMinYMin meet" x="230.5" y="-186.2"/>
<text text-anchor="start" x="245.5" y="-176.3" font-family="Helvetica,sans-Serif" font-size="11.00" fill="#000000">referral_id</text>
<polygon fill="none" stroke="#000000" points="478.5,-169.2 478.5,-191.2 572.5,-191.2 572.5,-169.2 478.5,-169.2"/>
<text text-anchor="start" x="481.4758" y="-176.9" font-family="Helvetica,sans-Serif" font-size="11.00" fill="#000000">uuid[2147483647]</text>
<polygon fill="none" stroke="#000000" points="225.5,-147.2 225.5,-169.2 478.5,-169.2 478.5,-147.2 225.5,-147.2"/>
<image xlink:href="../../images/foreignKeys.png" width="11px" height="12px" preserveAspectRatio="xMinYMin meet" x="230.5" y="-164.2"/>
<text text-anchor="start" x="245.5" y="-154.3" font-family="Helvetica,sans-Serif" font-size="11.00" fill="#000000">contributory_factor_type_id</text>
<polygon fill="none" stroke="#000000" points="478.5,-147.2 478.5,-169.2 572.5,-169.2 572.5,-147.2 478.5,-147.2"/>
<text text-anchor="start" x="481.5" y="-154.9" font-family="Helvetica,sans-Serif" font-size="11.00" fill="#000000">int8[19]</text>
<polygon fill="none" stroke="#000000" points="225.5,-125.2 225.5,-147.2 478.5,-147.2 478.5,-125.2 225.5,-125.2"/>
<text text-anchor="start" x="245.5" y="-132.3" font-family="Helvetica,sans-Serif" font-size="11.00" fill="#000000">comment</text>
<polygon fill="none" stroke="#000000" points="478.5,-125.2 478.5,-147.2 572.5,-147.2 572.5,-125.2 478.5,-125.2"/>
<text text-anchor="start" x="481.5" y="-132.9" font-family="Helvetica,sans-Serif" font-size="11.00" fill="#000000">text[2147483647]</text>
<polygon fill="none" stroke="#000000" points="225.5,-103.2 225.5,-125.2 478.5,-125.2 478.5,-103.2 225.5,-103.2"/>
<text text-anchor="start" x="245.5" y="-110.3" font-family="Helvetica,sans-Serif" font-size="11.00" fill="#000000">contributory_factor_type_modified</text>
<polygon fill="none" stroke="#000000" points="478.5,-103.2 478.5,-125.2 572.5,-125.2 572.5,-103.2 478.5,-103.2"/>
<text text-anchor="start" x="481.5" y="-110.9" font-family="Helvetica,sans-Serif" font-size="11.00" fill="#000000">bool[1]</text>
<polygon fill="none" stroke="#000000" points="225.5,-81.2 225.5,-103.2 478.5,-103.2 478.5,-81.2 225.5,-81.2"/>
<text text-anchor="start" x="245.5" y="-88.3" font-family="Helvetica,sans-Serif" font-size="11.00" fill="#000000">comment_modified</text>
<polygon fill="none" stroke="#000000" points="478.5,-81.2 478.5,-103.2 572.5,-103.2 572.5,-81.2 478.5,-81.2"/>
<text text-anchor="start" x="481.5" y="-88.9" font-family="Helvetica,sans-Serif" font-size="11.00" fill="#000000">bool[1]</text>
<polygon fill="none" stroke="#000000" points="225.5,-59.2 225.5,-81.2 478.5,-81.2 478.5,-59.2 225.5,-59.2"/>
<image xlink:href="../../images/foreignKeys.png" width="11px" height="12px" preserveAspectRatio="xMinYMin meet" x="230.5" y="-76.2"/>
<text text-anchor="start" x="245.5" y="-66.3" font-family="Helvetica,sans-Serif" font-size="11.00" fill="#000000">legacy_id</text>
<polygon fill="none" stroke="#000000" points="478.5,-59.2 478.5,-81.2 572.5,-81.2 572.5,-59.2 478.5,-59.2"/>
<text text-anchor="start" x="481.5" y="-66.9" font-family="Helvetica,sans-Serif" font-size="11.00" fill="#000000">int8[19]</text>
<polygon fill="#ffffff" stroke="transparent" points="225.5,-40.2 225.5,-59.2 356.5,-59.2 356.5,-40.2 225.5,-40.2"/>
<polygon fill="none" stroke="#000000" points="225.5,-40.2 225.5,-59.2 356.5,-59.2 356.5,-40.2 225.5,-40.2"/>
<text text-anchor="start" x="228.5" y="-46.3" font-family="Helvetica,sans-Serif" font-size="11.00" fill="#000000">&lt; 1</text>
<polygon fill="#ffffff" stroke="transparent" points="356.5,-40.2 356.5,-59.2 478.5,-59.2 478.5,-40.2 356.5,-40.2"/>
<polygon fill="none" stroke="#000000" points="356.5,-40.2 356.5,-59.2 478.5,-59.2 478.5,-40.2 356.5,-40.2"/>
<text text-anchor="start" x="469.3862" y="-46.3" font-family="Helvetica,sans-Serif" font-size="11.00" fill="#000000"> &#160;</text>
<polygon fill="#ffffff" stroke="transparent" points="478.5,-40.2 478.5,-59.2 572.5,-59.2 572.5,-40.2 478.5,-40.2"/>
<polygon fill="none" stroke="#000000" points="478.5,-40.2 478.5,-59.2 572.5,-59.2 572.5,-40.2 478.5,-40.2"/>
<text text-anchor="start" x="553.9053" y="-46.3" font-family="Helvetica,sans-Serif" font-size="11.00" fill="#000000">0 &gt;</text>
<polygon fill="none" stroke="#000000" stroke-width="2" points="224,-39.2 224,-281.2 573,-281.2 573,-39.2 224,-39.2"/>
</a>
</g>
</g>
<!-- audit_revision -->
<g id="node2" class="node">
<title>audit_revision</title>
<g id="a_node2"><a xlink:href="../../tables/audit_revision.html" xlink:title="audit_revision" target="_top">
<polygon fill="#ffffff" stroke="transparent" points="8,-197.7 8,-280.7 174,-280.7 174,-197.7 8,-197.7"/>
<polygon fill="#f5f5f5" stroke="transparent" points="8,-257.2 8,-280.2 174,-280.2 174,-257.2 8,-257.2"/>
<polygon fill="none" stroke="#000000" points="8,-257.2 8,-280.2 174,-280.2 174,-257.2 8,-257.2"/>
<text text-anchor="start" x="13" y="-265.8" font-family="Helvetica,sans-Serif" font-weight="bold" font-size="11.00" fill="#000000">audit_revision</text>
<text text-anchor="start" x="139.0437" y="-265.3" font-family="Helvetica,sans-Serif" font-size="11.00" fill="#000000">[table]</text>
<polygon fill="none" stroke="#000000" points="8,-235.2 8,-257.2 174,-257.2 174,-235.2 8,-235.2"/>
<image xlink:href="../../images/primaryKeys.png" width="11px" height="12px" preserveAspectRatio="xMinYMin meet" x="13" y="-252.2"/>
<text text-anchor="start" x="28" y="-242.3" font-family="Helvetica,sans-Serif" font-size="11.00" fill="#000000">id</text>
<polygon fill="none" stroke="#000000" points="8,-216.2 8,-235.2 174,-235.2 174,-216.2 8,-216.2"/>
<text text-anchor="start" x="11" y="-222.3" font-family="Helvetica,sans-Serif" font-size="11.00" fill="#000000">...</text>
<polygon fill="#ffffff" stroke="transparent" points="8,-197.2 8,-216.2 77,-216.2 77,-197.2 8,-197.2"/>
<polygon fill="none" stroke="#000000" points="8,-197.2 8,-216.2 77,-216.2 77,-197.2 8,-197.2"/>
<text text-anchor="start" x="11" y="-203.3" font-family="Helvetica,sans-Serif" font-size="11.00" fill="#000000"> &#160;</text>
<polygon fill="#ffffff" stroke="transparent" points="77,-197.2 77,-216.2 118,-216.2 118,-197.2 77,-197.2"/>
<polygon fill="none" stroke="#000000" points="77,-197.2 77,-216.2 118,-216.2 118,-197.2 77,-197.2"/>
<text text-anchor="start" x="108.8862" y="-203.3" font-family="Helvetica,sans-Serif" font-size="11.00" fill="#000000"> &#160;</text>
<polygon fill="#ffffff" stroke="transparent" points="118,-197.2 118,-216.2 174,-216.2 174,-197.2 118,-197.2"/>
<polygon fill="none" stroke="#000000" points="118,-197.2 118,-216.2 174,-216.2 174,-197.2 118,-197.2"/>
<text text-anchor="start" x="149.2904" y="-203.3" font-family="Helvetica,sans-Serif" font-size="11.00" fill="#000000">12 &gt;</text>
</a>
</g>
</g>
<!-- contributory_factor_audit&#45;&gt;audit_revision -->
<g id="edge1" class="edge">
<title>contributory_factor_audit:w&#45;&gt;audit_revision:e</title>
<path fill="none" stroke="#000000" d="M211.0156,-246.2C198.6771,-246.2 191.1667,-246.2 174,-246.2"/>
<polygon fill="#000000" stroke="#000000" points="217.5,-246.2001 225.5,-249.8 221.5,-246.2 225.5,-246.2 225.5,-246.2 225.5,-246.2 221.5,-246.2 225.5,-242.6 217.5,-246.2001 217.5,-246.2001"/>
<ellipse fill="none" stroke="#000000" cx="214.3" cy="-246.2001" rx="3.2" ry="3.2"/>
</g>
</g>
</svg>
