<?xml version="1.0" encoding="UTF-8" standalone="no"?>
<!DOCTYPE svg PUBLIC "-//W3C//DTD SVG 1.1//EN"
 "http://www.w3.org/Graphics/SVG/1.1/DTD/svg11.dtd">
<!-- Generated by graphviz version 2.40.1 (20161225.0304)
 -->
<!-- Title: twoDegreesRelationshipsDiagram Pages: 1 -->
<svg width="549pt" height="1197pt"
 viewBox="0.00 0.00 549.00 1197.20" xmlns="http://www.w3.org/2000/svg" xmlns:xlink="http://www.w3.org/1999/xlink">
<g id="graph0" class="graph" transform="scale(1 1) rotate(0) translate(4 1193.2)">
<title>twoDegreesRelationshipsDiagram</title>
<polygon fill="#ffffff" stroke="transparent" points="-4,4 -4,-1193.2 545,-1193.2 545,4 -4,4"/>
<text text-anchor="middle" x="72.4936" y="-7.3" font-family="Helvetica,sans-Serif" font-size="11.00" fill="#000000">Generated by SchemaSpy</text>
<!-- attendee_audit -->
<g id="node1" class="node">
<title>attendee_audit</title>
<g id="a_node1"><a xlink:href="../../tables/attendee_audit.html" xlink:title="attendee_audit" target="_top">
<polygon fill="#ffffff" stroke="transparent" points="307.5,-1124.2 307.5,-1185.2 448.5,-1185.2 448.5,-1124.2 307.5,-1124.2"/>
<polygon fill="#f5f5f5" stroke="transparent" points="308,-1161.7 308,-1184.7 449,-1184.7 449,-1161.7 308,-1161.7"/>
<polygon fill="none" stroke="#000000" points="308,-1161.7 308,-1184.7 449,-1184.7 449,-1161.7 308,-1161.7"/>
<text text-anchor="start" x="313" y="-1170.3" font-family="Helvetica,sans-Serif" font-weight="bold" font-size="11.00" fill="#000000">attendee_audit</text>
<text text-anchor="start" x="414.5219" y="-1169.8" font-family="Helvetica,sans-Serif" font-size="11.00" fill="#000000">[table]</text>
<polygon fill="none" stroke="#000000" points="308,-1142.7 308,-1161.7 449,-1161.7 449,-1142.7 308,-1142.7"/>
<text text-anchor="start" x="311" y="-1148.8" font-family="Helvetica,sans-Serif" font-size="11.00" fill="#000000">...</text>
<polygon fill="#ffffff" stroke="transparent" points="308,-1123.7 308,-1142.7 377,-1142.7 377,-1123.7 308,-1123.7"/>
<polygon fill="none" stroke="#000000" points="308,-1123.7 308,-1142.7 377,-1142.7 377,-1123.7 308,-1123.7"/>
<text text-anchor="start" x="311" y="-1129.8" font-family="Helvetica,sans-Serif" font-size="11.00" fill="#000000">&lt; 1</text>
<polygon fill="#ffffff" stroke="transparent" points="377,-1123.7 377,-1142.7 413,-1142.7 413,-1123.7 377,-1123.7"/>
<polygon fill="none" stroke="#000000" points="377,-1123.7 377,-1142.7 413,-1142.7 413,-1123.7 377,-1123.7"/>
<text text-anchor="start" x="403.8862" y="-1129.8" font-family="Helvetica,sans-Serif" font-size="11.00" fill="#000000"> &#160;</text>
<polygon fill="#ffffff" stroke="transparent" points="413,-1123.7 413,-1142.7 449,-1142.7 449,-1123.7 413,-1123.7"/>
<polygon fill="none" stroke="#000000" points="413,-1123.7 413,-1142.7 449,-1142.7 449,-1123.7 413,-1123.7"/>
<text text-anchor="start" x="439.8862" y="-1129.8" font-family="Helvetica,sans-Serif" font-size="11.00" fill="#000000"> &#160;</text>
</a>
</g>
</g>
<!-- audit_revision -->
<g id="node2" class="node">
<title>audit_revision</title>
<g id="a_node2"><a xlink:href="../../tables/audit_revision.html" xlink:title="audit_revision" target="_top">
<polygon fill="#ffffff" stroke="transparent" points="8,-468.2 8,-551.2 174,-551.2 174,-468.2 8,-468.2"/>
<polygon fill="#f5f5f5" stroke="transparent" points="8,-527.7 8,-550.7 174,-550.7 174,-527.7 8,-527.7"/>
<polygon fill="none" stroke="#000000" points="8,-527.7 8,-550.7 174,-550.7 174,-527.7 8,-527.7"/>
<text text-anchor="start" x="13" y="-536.3" font-family="Helvetica,sans-Serif" font-weight="bold" font-size="11.00" fill="#000000">audit_revision</text>
<text text-anchor="start" x="139.0437" y="-535.8" font-family="Helvetica,sans-Serif" font-size="11.00" fill="#000000">[table]</text>
<polygon fill="none" stroke="#000000" points="8,-505.7 8,-527.7 174,-527.7 174,-505.7 8,-505.7"/>
<image xlink:href="../../images/primaryKeys.png" width="11px" height="12px" preserveAspectRatio="xMinYMin meet" x="13" y="-522.7"/>
<text text-anchor="start" x="28" y="-512.8" font-family="Helvetica,sans-Serif" font-size="11.00" fill="#000000">id</text>
<polygon fill="none" stroke="#000000" points="8,-486.7 8,-505.7 174,-505.7 174,-486.7 8,-486.7"/>
<text text-anchor="start" x="11" y="-492.8" font-family="Helvetica,sans-Serif" font-size="11.00" fill="#000000">...</text>
<polygon fill="#ffffff" stroke="transparent" points="8,-467.7 8,-486.7 77,-486.7 77,-467.7 8,-467.7"/>
<polygon fill="none" stroke="#000000" points="8,-467.7 8,-486.7 77,-486.7 77,-467.7 8,-467.7"/>
<text text-anchor="start" x="11" y="-473.8" font-family="Helvetica,sans-Serif" font-size="11.00" fill="#000000"> &#160;</text>
<polygon fill="#ffffff" stroke="transparent" points="77,-467.7 77,-486.7 118,-486.7 118,-467.7 77,-467.7"/>
<polygon fill="none" stroke="#000000" points="77,-467.7 77,-486.7 118,-486.7 118,-467.7 77,-467.7"/>
<text text-anchor="start" x="108.8862" y="-473.8" font-family="Helvetica,sans-Serif" font-size="11.00" fill="#000000"> &#160;</text>
<polygon fill="#ffffff" stroke="transparent" points="118,-467.7 118,-486.7 174,-486.7 174,-467.7 118,-467.7"/>
<polygon fill="none" stroke="#000000" points="118,-467.7 118,-486.7 174,-486.7 174,-467.7 118,-467.7"/>
<text text-anchor="start" x="149.2904" y="-473.8" font-family="Helvetica,sans-Serif" font-size="11.00" fill="#000000">12 &gt;</text>
</a>
</g>
</g>
<!-- attendee_audit&#45;&gt;audit_revision -->
<g id="edge1" class="edge">
<title>attendee_audit:w&#45;&gt;audit_revision:e</title>
<path fill="none" stroke="#000000" d="M293.185,-1151.573C258.0924,-1150.8038 238.0869,-1145.6497 215,-1113.7 176.0576,-1059.8079 240.4896,-516.7 174,-516.7"/>
<polygon fill="#000000" stroke="#000000" points="300.0003,-1151.6314 307.9691,-1155.2999 304.0001,-1151.6657 308,-1151.7 308,-1151.7 308,-1151.7 304.0001,-1151.6657 308.0309,-1148.1001 300.0003,-1151.6314 300.0003,-1151.6314"/>
<ellipse fill="none" stroke="#000000" cx="296.8004" cy="-1151.604" rx="3.2" ry="3.2"/>
</g>
<!-- contributory_factor_audit -->
<g id="node3" class="node">
<title>contributory_factor_audit</title>
<g id="a_node3"><a xlink:href="../../tables/contributory_factor_audit.html" xlink:title="contributory_factor_audit" target="_top">
<polygon fill="#ffffff" stroke="transparent" points="273,-1042.2 273,-1103.2 483,-1103.2 483,-1042.2 273,-1042.2"/>
<polygon fill="#f5f5f5" stroke="transparent" points="273,-1079.7 273,-1102.7 483,-1102.7 483,-1079.7 273,-1079.7"/>
<polygon fill="none" stroke="#000000" points="273,-1079.7 273,-1102.7 483,-1102.7 483,-1079.7 273,-1079.7"/>
<text text-anchor="start" x="278" y="-1088.3" font-family="Helvetica,sans-Serif" font-weight="bold" font-size="11.00" fill="#000000">contributory_factor_audit</text>
<text text-anchor="start" x="448.5219" y="-1087.8" font-family="Helvetica,sans-Serif" font-size="11.00" fill="#000000">[table]</text>
<polygon fill="none" stroke="#000000" points="273,-1060.7 273,-1079.7 483,-1079.7 483,-1060.7 273,-1060.7"/>
<text text-anchor="start" x="276" y="-1066.8" font-family="Helvetica,sans-Serif" font-size="11.00" fill="#000000">...</text>
<polygon fill="#ffffff" stroke="transparent" points="273,-1041.7 273,-1060.7 376,-1060.7 376,-1041.7 273,-1041.7"/>
<polygon fill="none" stroke="#000000" points="273,-1041.7 273,-1060.7 376,-1060.7 376,-1041.7 273,-1041.7"/>
<text text-anchor="start" x="276" y="-1047.8" font-family="Helvetica,sans-Serif" font-size="11.00" fill="#000000">&lt; 1</text>
<polygon fill="#ffffff" stroke="transparent" points="376,-1041.7 376,-1060.7 429,-1060.7 429,-1041.7 376,-1041.7"/>
<polygon fill="none" stroke="#000000" points="376,-1041.7 376,-1060.7 429,-1060.7 429,-1041.7 376,-1041.7"/>
<text text-anchor="start" x="419.8862" y="-1047.8" font-family="Helvetica,sans-Serif" font-size="11.00" fill="#000000"> &#160;</text>
<polygon fill="#ffffff" stroke="transparent" points="429,-1041.7 429,-1060.7 483,-1060.7 483,-1041.7 429,-1041.7"/>
<polygon fill="none" stroke="#000000" points="429,-1041.7 429,-1060.7 483,-1060.7 483,-1041.7 429,-1041.7"/>
<text text-anchor="start" x="473.8862" y="-1047.8" font-family="Helvetica,sans-Serif" font-size="11.00" fill="#000000"> &#160;</text>
</a>
</g>
</g>
<!-- contributory_factor_audit&#45;&gt;audit_revision -->
<g id="edge2" class="edge">
<title>contributory_factor_audit:w&#45;&gt;audit_revision:e</title>
<path fill="none" stroke="#000000" d="M258.4141,-1068.6157C238.0197,-1065.1963 227.9528,-1053.5497 215,-1031.7 185.7276,-982.3212 231.4033,-516.7 174,-516.7"/>
<polygon fill="#000000" stroke="#000000" points="265.022,-1069.1069 272.7331,-1073.2901 269.011,-1069.4034 273,-1069.7 273,-1069.7 273,-1069.7 269.011,-1069.4034 273.2669,-1066.1099 265.022,-1069.1069 265.022,-1069.1069"/>
<ellipse fill="none" stroke="#000000" cx="261.8308" cy="-1068.8696" rx="3.2" ry="3.2"/>
</g>
<!-- csip_record_audit -->
<g id="node4" class="node">
<title>csip_record_audit</title>
<g id="a_node4"><a xlink:href="../../tables/csip_record_audit.html" xlink:title="csip_record_audit" target="_top">
<polygon fill="#ffffff" stroke="transparent" points="224,-776.7 224,-1020.7 532,-1020.7 532,-776.7 224,-776.7"/>
<polygon fill="#f5f5f5" stroke="transparent" points="226,-995.7 226,-1018.7 530,-1018.7 530,-995.7 226,-995.7"/>
<polygon fill="none" stroke="#000000" points="226,-995.7 226,-1018.7 530,-1018.7 530,-995.7 226,-995.7"/>
<text text-anchor="start" x="231" y="-1004.3" font-family="Helvetica,sans-Serif" font-weight="bold" font-size="11.00" fill="#000000">csip_record_audit</text>
<text text-anchor="start" x="495.0437" y="-1003.8" font-family="Helvetica,sans-Serif" font-size="11.00" fill="#000000">[table]</text>
<polygon fill="none" stroke="#000000" points="226,-973.7 226,-995.7 436,-995.7 436,-973.7 226,-973.7"/>
<image xlink:href="../../images/primaryKeys.png" width="11px" height="12px" preserveAspectRatio="xMinYMin meet" x="231" y="-990.7"/>
<text text-anchor="start" x="246" y="-980.8" font-family="Helvetica,sans-Serif" font-size="11.00" fill="#000000">rev_id</text>
<polygon fill="none" stroke="#000000" points="436,-973.7 436,-995.7 530,-995.7 530,-973.7 436,-973.7"/>
<text text-anchor="start" x="439" y="-981.4" font-family="Helvetica,sans-Serif" font-size="11.00" fill="#000000">int8[19]</text>
<polygon fill="none" stroke="#000000" points="226,-951.7 226,-973.7 436,-973.7 436,-951.7 226,-951.7"/>
<text text-anchor="start" x="246" y="-958.8" font-family="Helvetica,sans-Serif" font-size="11.00" fill="#000000">rev_type</text>
<polygon fill="none" stroke="#000000" points="436,-951.7 436,-973.7 530,-973.7 530,-951.7 436,-951.7"/>
<text text-anchor="start" x="439" y="-959.4" font-family="Helvetica,sans-Serif" font-size="11.00" fill="#000000">int2[5]</text>
<polygon fill="none" stroke="#000000" points="226,-929.7 226,-951.7 436,-951.7 436,-929.7 226,-929.7"/>
<image xlink:href="../../images/primaryKeys.png" width="11px" height="12px" preserveAspectRatio="xMinYMin meet" x="231" y="-946.7"/>
<text text-anchor="start" x="246" y="-936.8" font-family="Helvetica,sans-Serif" font-size="11.00" fill="#000000">record_id</text>
<polygon fill="none" stroke="#000000" points="436,-929.7 436,-951.7 530,-951.7 530,-929.7 436,-929.7"/>
<text text-anchor="start" x="438.9758" y="-937.4" font-family="Helvetica,sans-Serif" font-size="11.00" fill="#000000">uuid[2147483647]</text>
<polygon fill="none" stroke="#000000" points="226,-907.7 226,-929.7 436,-929.7 436,-907.7 226,-907.7"/>
<image xlink:href="../../images/foreignKeys.png" width="11px" height="12px" preserveAspectRatio="xMinYMin meet" x="231" y="-924.7"/>
<text text-anchor="start" x="246" y="-914.8" font-family="Helvetica,sans-Serif" font-size="11.00" fill="#000000">prison_number</text>
<polygon fill="none" stroke="#000000" points="436,-907.7 436,-929.7 530,-929.7 530,-907.7 436,-907.7"/>
<text text-anchor="start" x="439" y="-915.4" font-family="Helvetica,sans-Serif" font-size="11.00" fill="#000000">varchar[10]</text>
<polygon fill="none" stroke="#000000" points="226,-885.7 226,-907.7 436,-907.7 436,-885.7 226,-885.7"/>
<text text-anchor="start" x="246" y="-892.8" font-family="Helvetica,sans-Serif" font-size="11.00" fill="#000000">prison_code_when_recorded</text>
<polygon fill="none" stroke="#000000" points="436,-885.7 436,-907.7 530,-907.7 530,-885.7 436,-885.7"/>
<text text-anchor="start" x="439" y="-893.4" font-family="Helvetica,sans-Serif" font-size="11.00" fill="#000000">varchar[6]</text>
<polygon fill="none" stroke="#000000" points="226,-863.7 226,-885.7 436,-885.7 436,-863.7 226,-863.7"/>
<text text-anchor="start" x="246" y="-870.8" font-family="Helvetica,sans-Serif" font-size="11.00" fill="#000000">log_code</text>
<polygon fill="none" stroke="#000000" points="436,-863.7 436,-885.7 530,-885.7 530,-863.7 436,-863.7"/>
<text text-anchor="start" x="439" y="-871.4" font-family="Helvetica,sans-Serif" font-size="11.00" fill="#000000">varchar[10]</text>
<polygon fill="none" stroke="#000000" points="226,-841.7 226,-863.7 436,-863.7 436,-841.7 226,-841.7"/>
<text text-anchor="start" x="246" y="-848.8" font-family="Helvetica,sans-Serif" font-size="11.00" fill="#000000">log_code_modified</text>
<polygon fill="none" stroke="#000000" points="436,-841.7 436,-863.7 530,-863.7 530,-841.7 436,-841.7"/>
<text text-anchor="start" x="439" y="-849.4" font-family="Helvetica,sans-Serif" font-size="11.00" fill="#000000">bool[1]</text>
<polygon fill="none" stroke="#000000" points="226,-819.7 226,-841.7 436,-841.7 436,-819.7 226,-819.7"/>
<image xlink:href="../../images/foreignKeys.png" width="11px" height="12px" preserveAspectRatio="xMinYMin meet" x="231" y="-836.7"/>
<text text-anchor="start" x="246" y="-826.8" font-family="Helvetica,sans-Serif" font-size="11.00" fill="#000000">legacy_id</text>
<polygon fill="none" stroke="#000000" points="436,-819.7 436,-841.7 530,-841.7 530,-819.7 436,-819.7"/>
<text text-anchor="start" x="439" y="-827.4" font-family="Helvetica,sans-Serif" font-size="11.00" fill="#000000">int8[19]</text>
<polygon fill="none" stroke="#000000" points="226,-797.7 226,-819.7 436,-819.7 436,-797.7 226,-797.7"/>
<text text-anchor="start" x="246" y="-804.8" font-family="Helvetica,sans-Serif" font-size="11.00" fill="#000000">prison_number_modified</text>
<polygon fill="none" stroke="#000000" points="436,-797.7 436,-819.7 530,-819.7 530,-797.7 436,-797.7"/>
<text text-anchor="start" x="439" y="-805.4" font-family="Helvetica,sans-Serif" font-size="11.00" fill="#000000">bool[1]</text>
<polygon fill="#ffffff" stroke="transparent" points="226,-778.7 226,-797.7 335,-797.7 335,-778.7 226,-778.7"/>
<polygon fill="none" stroke="#000000" points="226,-778.7 226,-797.7 335,-797.7 335,-778.7 226,-778.7"/>
<text text-anchor="start" x="229" y="-784.8" font-family="Helvetica,sans-Serif" font-size="11.00" fill="#000000">&lt; 1</text>
<polygon fill="#ffffff" stroke="transparent" points="335,-778.7 335,-797.7 436,-797.7 436,-778.7 335,-778.7"/>
<polygon fill="none" stroke="#000000" points="335,-778.7 335,-797.7 436,-797.7 436,-778.7 335,-778.7"/>
<text text-anchor="start" x="426.8862" y="-784.8" font-family="Helvetica,sans-Serif" font-size="11.00" fill="#000000"> &#160;</text>
<polygon fill="#ffffff" stroke="transparent" points="436,-778.7 436,-797.7 530,-797.7 530,-778.7 436,-778.7"/>
<polygon fill="none" stroke="#000000" points="436,-778.7 436,-797.7 530,-797.7 530,-778.7 436,-778.7"/>
<text text-anchor="start" x="511.4053" y="-784.8" font-family="Helvetica,sans-Serif" font-size="11.00" fill="#000000">0 &gt;</text>
<polygon fill="none" stroke="#000000" stroke-width="2" points="225,-777.7 225,-1019.7 531,-1019.7 531,-777.7 225,-777.7"/>
</a>
</g>
</g>
<!-- csip_record_audit&#45;&gt;audit_revision -->
<g id="edge3" class="edge">
<title>csip_record_audit:w&#45;&gt;audit_revision:e</title>
<path fill="none" stroke="#000000" d="M212.0164,-981.202C136.6583,-938.3756 273.3263,-516.7 174,-516.7"/>
<polygon fill="#000000" stroke="#000000" points="218.2391,-982.7586 225.1264,-988.1924 222.1196,-983.7293 226,-984.7 226,-984.7 226,-984.7 222.1196,-983.7293 226.8736,-981.2076 218.2391,-982.7586 218.2391,-982.7586"/>
<ellipse fill="none" stroke="#000000" cx="215.1348" cy="-981.982" rx="3.2" ry="3.2"/>
</g>
<!-- decision_and_actions_audit -->
<g id="node5" class="node">
<title>decision_and_actions_audit</title>
<g id="a_node5"><a xlink:href="../../tables/decision_and_actions_audit.html" xlink:title="decision_and_actions_audit" target="_top">
<polygon fill="#ffffff" stroke="transparent" points="267,-694.2 267,-755.2 489,-755.2 489,-694.2 267,-694.2"/>
<polygon fill="#f5f5f5" stroke="transparent" points="267,-731.7 267,-754.7 489,-754.7 489,-731.7 267,-731.7"/>
<polygon fill="none" stroke="#000000" points="267,-731.7 267,-754.7 489,-754.7 489,-731.7 267,-731.7"/>
<text text-anchor="start" x="272" y="-740.3" font-family="Helvetica,sans-Serif" font-weight="bold" font-size="11.00" fill="#000000">decision_and_actions_audit</text>
<text text-anchor="start" x="454.5219" y="-739.8" font-family="Helvetica,sans-Serif" font-size="11.00" fill="#000000">[table]</text>
<polygon fill="none" stroke="#000000" points="267,-712.7 267,-731.7 489,-731.7 489,-712.7 267,-712.7"/>
<text text-anchor="start" x="270" y="-718.8" font-family="Helvetica,sans-Serif" font-size="11.00" fill="#000000">...</text>
<polygon fill="#ffffff" stroke="transparent" points="267,-693.7 267,-712.7 376,-712.7 376,-693.7 267,-693.7"/>
<polygon fill="none" stroke="#000000" points="267,-693.7 267,-712.7 376,-712.7 376,-693.7 267,-693.7"/>
<text text-anchor="start" x="270" y="-699.8" font-family="Helvetica,sans-Serif" font-size="11.00" fill="#000000">&lt; 1</text>
<polygon fill="#ffffff" stroke="transparent" points="376,-693.7 376,-712.7 432,-712.7 432,-693.7 376,-693.7"/>
<polygon fill="none" stroke="#000000" points="376,-693.7 376,-712.7 432,-712.7 432,-693.7 376,-693.7"/>
<text text-anchor="start" x="422.8862" y="-699.8" font-family="Helvetica,sans-Serif" font-size="11.00" fill="#000000"> &#160;</text>
<polygon fill="#ffffff" stroke="transparent" points="432,-693.7 432,-712.7 489,-712.7 489,-693.7 432,-693.7"/>
<polygon fill="none" stroke="#000000" points="432,-693.7 432,-712.7 489,-712.7 489,-693.7 432,-693.7"/>
<text text-anchor="start" x="479.8862" y="-699.8" font-family="Helvetica,sans-Serif" font-size="11.00" fill="#000000"> &#160;</text>
</a>
</g>
</g>
<!-- decision_and_actions_audit&#45;&gt;audit_revision -->
<g id="edge4" class="edge">
<title>decision_and_actions_audit:w&#45;&gt;audit_revision:e</title>
<path fill="none" stroke="#000000" d="M252.4307,-720.1075C235.1438,-715.7811 227.8195,-702.8367 215,-683.7 172.4646,-620.2041 250.4264,-516.7 174,-516.7"/>
<polygon fill="#000000" stroke="#000000" points="259.0474,-720.8307 266.6088,-725.2787 263.0237,-721.2653 267,-721.7 267,-721.7 267,-721.7 263.0237,-721.2653 267.3912,-718.1213 259.0474,-720.8307 259.0474,-720.8307"/>
<ellipse fill="none" stroke="#000000" cx="255.8663" cy="-720.483" rx="3.2" ry="3.2"/>
</g>
<!-- identified_need_audit -->
<g id="node6" class="node">
<title>identified_need_audit</title>
<g id="a_node6"><a xlink:href="../../tables/identified_need_audit.html" xlink:title="identified_need_audit" target="_top">
<polygon fill="#ffffff" stroke="transparent" points="286,-612.2 286,-673.2 470,-673.2 470,-612.2 286,-612.2"/>
<polygon fill="#f5f5f5" stroke="transparent" points="286,-649.7 286,-672.7 470,-672.7 470,-649.7 286,-649.7"/>
<polygon fill="none" stroke="#000000" points="286,-649.7 286,-672.7 470,-672.7 470,-649.7 286,-649.7"/>
<text text-anchor="start" x="291" y="-658.3" font-family="Helvetica,sans-Serif" font-weight="bold" font-size="11.00" fill="#000000">identified_need_audit</text>
<text text-anchor="start" x="435.5219" y="-657.8" font-family="Helvetica,sans-Serif" font-size="11.00" fill="#000000">[table]</text>
<polygon fill="none" stroke="#000000" points="286,-630.7 286,-649.7 470,-649.7 470,-630.7 286,-630.7"/>
<text text-anchor="start" x="289" y="-636.8" font-family="Helvetica,sans-Serif" font-size="11.00" fill="#000000">...</text>
<polygon fill="#ffffff" stroke="transparent" points="286,-611.7 286,-630.7 376,-630.7 376,-611.7 286,-611.7"/>
<polygon fill="none" stroke="#000000" points="286,-611.7 286,-630.7 376,-630.7 376,-611.7 286,-611.7"/>
<text text-anchor="start" x="289" y="-617.8" font-family="Helvetica,sans-Serif" font-size="11.00" fill="#000000">&lt; 1</text>
<polygon fill="#ffffff" stroke="transparent" points="376,-611.7 376,-630.7 423,-630.7 423,-611.7 376,-611.7"/>
<polygon fill="none" stroke="#000000" points="376,-611.7 376,-630.7 423,-630.7 423,-611.7 376,-611.7"/>
<text text-anchor="start" x="413.8862" y="-617.8" font-family="Helvetica,sans-Serif" font-size="11.00" fill="#000000"> &#160;</text>
<polygon fill="#ffffff" stroke="transparent" points="423,-611.7 423,-630.7 470,-630.7 470,-611.7 423,-611.7"/>
<polygon fill="none" stroke="#000000" points="423,-611.7 423,-630.7 470,-630.7 470,-611.7 423,-611.7"/>
<text text-anchor="start" x="460.8862" y="-617.8" font-family="Helvetica,sans-Serif" font-size="11.00" fill="#000000"> &#160;</text>
</a>
</g>
</g>
<!-- identified_need_audit&#45;&gt;audit_revision -->
<g id="edge5" class="edge">
<title>identified_need_audit:w&#45;&gt;audit_revision:e</title>
<path fill="none" stroke="#000000" d="M271.6079,-638.8909C246.7945,-635.787 236.0942,-623.699 215,-601.7 185.971,-571.4258 215.9429,-516.7 174,-516.7"/>
<polygon fill="#000000" stroke="#000000" points="278.0126,-639.2509 285.7979,-643.2943 282.0063,-639.4755 286,-639.7 286,-639.7 286,-639.7 282.0063,-639.4755 286.2021,-636.1057 278.0126,-639.2509 278.0126,-639.2509"/>
<ellipse fill="none" stroke="#000000" cx="274.8177" cy="-639.0713" rx="3.2" ry="3.2"/>
</g>
<!-- interview_audit -->
<g id="node7" class="node">
<title>interview_audit</title>
<g id="a_node7"><a xlink:href="../../tables/interview_audit.html" xlink:title="interview_audit" target="_top">
<polygon fill="#ffffff" stroke="transparent" points="306.5,-530.2 306.5,-591.2 449.5,-591.2 449.5,-530.2 306.5,-530.2"/>
<polygon fill="#f5f5f5" stroke="transparent" points="307,-567.7 307,-590.7 450,-590.7 450,-567.7 307,-567.7"/>
<polygon fill="none" stroke="#000000" points="307,-567.7 307,-590.7 450,-590.7 450,-567.7 307,-567.7"/>
<text text-anchor="start" x="312" y="-576.3" font-family="Helvetica,sans-Serif" font-weight="bold" font-size="11.00" fill="#000000">interview_audit</text>
<text text-anchor="start" x="415.5219" y="-575.8" font-family="Helvetica,sans-Serif" font-size="11.00" fill="#000000">[table]</text>
<polygon fill="none" stroke="#000000" points="307,-548.7 307,-567.7 450,-567.7 450,-548.7 307,-548.7"/>
<text text-anchor="start" x="310" y="-554.8" font-family="Helvetica,sans-Serif" font-size="11.00" fill="#000000">...</text>
<polygon fill="#ffffff" stroke="transparent" points="307,-529.7 307,-548.7 377,-548.7 377,-529.7 307,-529.7"/>
<polygon fill="none" stroke="#000000" points="307,-529.7 307,-548.7 377,-548.7 377,-529.7 307,-529.7"/>
<text text-anchor="start" x="310" y="-535.8" font-family="Helvetica,sans-Serif" font-size="11.00" fill="#000000">&lt; 1</text>
<polygon fill="#ffffff" stroke="transparent" points="377,-529.7 377,-548.7 413,-548.7 413,-529.7 377,-529.7"/>
<polygon fill="none" stroke="#000000" points="377,-529.7 377,-548.7 413,-548.7 413,-529.7 377,-529.7"/>
<text text-anchor="start" x="403.8862" y="-535.8" font-family="Helvetica,sans-Serif" font-size="11.00" fill="#000000"> &#160;</text>
<polygon fill="#ffffff" stroke="transparent" points="413,-529.7 413,-548.7 450,-548.7 450,-529.7 413,-529.7"/>
<polygon fill="none" stroke="#000000" points="413,-529.7 413,-548.7 450,-548.7 450,-529.7 413,-529.7"/>
<text text-anchor="start" x="440.8862" y="-535.8" font-family="Helvetica,sans-Serif" font-size="11.00" fill="#000000"> &#160;</text>
</a>
</g>
</g>
<!-- interview_audit&#45;&gt;audit_revision -->
<g id="edge6" class="edge">
<title>interview_audit:w&#45;&gt;audit_revision:e</title>
<path fill="none" stroke="#000000" d="M292.4652,-556.881C243.2131,-551.1025 230.6611,-516.7 174,-516.7"/>
<polygon fill="#000000" stroke="#000000" points="299.0127,-557.2499 306.7974,-561.2943 303.0063,-557.4749 307,-557.7 307,-557.7 307,-557.7 303.0063,-557.4749 307.2026,-554.1057 299.0127,-557.2499 299.0127,-557.2499"/>
<ellipse fill="none" stroke="#000000" cx="295.8177" cy="-557.0698" rx="3.2" ry="3.2"/>
</g>
<!-- investigation_audit -->
<g id="node8" class="node">
<title>investigation_audit</title>
<g id="a_node8"><a xlink:href="../../tables/investigation_audit.html" xlink:title="investigation_audit" target="_top">
<polygon fill="#ffffff" stroke="transparent" points="293.5,-448.2 293.5,-509.2 462.5,-509.2 462.5,-448.2 293.5,-448.2"/>
<polygon fill="#f5f5f5" stroke="transparent" points="294,-485.7 294,-508.7 463,-508.7 463,-485.7 294,-485.7"/>
<polygon fill="none" stroke="#000000" points="294,-485.7 294,-508.7 463,-508.7 463,-485.7 294,-485.7"/>
<text text-anchor="start" x="299" y="-494.3" font-family="Helvetica,sans-Serif" font-weight="bold" font-size="11.00" fill="#000000">investigation_audit</text>
<text text-anchor="start" x="428.5219" y="-493.8" font-family="Helvetica,sans-Serif" font-size="11.00" fill="#000000">[table]</text>
<polygon fill="none" stroke="#000000" points="294,-466.7 294,-485.7 463,-485.7 463,-466.7 294,-466.7"/>
<text text-anchor="start" x="297" y="-472.8" font-family="Helvetica,sans-Serif" font-size="11.00" fill="#000000">...</text>
<polygon fill="#ffffff" stroke="transparent" points="294,-447.7 294,-466.7 377,-466.7 377,-447.7 294,-447.7"/>
<polygon fill="none" stroke="#000000" points="294,-447.7 294,-466.7 377,-466.7 377,-447.7 294,-447.7"/>
<text text-anchor="start" x="297" y="-453.8" font-family="Helvetica,sans-Serif" font-size="11.00" fill="#000000">&lt; 1</text>
<polygon fill="#ffffff" stroke="transparent" points="377,-447.7 377,-466.7 420,-466.7 420,-447.7 377,-447.7"/>
<polygon fill="none" stroke="#000000" points="377,-447.7 377,-466.7 420,-466.7 420,-447.7 377,-447.7"/>
<text text-anchor="start" x="410.8862" y="-453.8" font-family="Helvetica,sans-Serif" font-size="11.00" fill="#000000"> &#160;</text>
<polygon fill="#ffffff" stroke="transparent" points="420,-447.7 420,-466.7 463,-466.7 463,-447.7 420,-447.7"/>
<polygon fill="none" stroke="#000000" points="420,-447.7 420,-466.7 463,-466.7 463,-447.7 420,-447.7"/>
<text text-anchor="start" x="453.8862" y="-453.8" font-family="Helvetica,sans-Serif" font-size="11.00" fill="#000000"> &#160;</text>
</a>
</g>
</g>
<!-- investigation_audit&#45;&gt;audit_revision -->
<g id="edge7" class="edge">
<title>investigation_audit:w&#45;&gt;audit_revision:e</title>
<path fill="none" stroke="#000000" d="M279.3619,-476.7135C235.8434,-483.0271 225.0766,-516.7 174,-516.7"/>
<polygon fill="#000000" stroke="#000000" points="286.0191,-476.2526 294.2487,-479.2914 290.0096,-475.9763 294,-475.7 294,-475.7 294,-475.7 290.0096,-475.9763 293.7513,-472.1086 286.0191,-476.2526 286.0191,-476.2526"/>
<ellipse fill="none" stroke="#000000" cx="282.8267" cy="-476.4737" rx="3.2" ry="3.2"/>
</g>
<!-- person_summary_audit -->
<g id="node9" class="node">
<title>person_summary_audit</title>
<g id="a_node9"><a xlink:href="../../tables/person_summary_audit.html" xlink:title="person_summary_audit" target="_top">
<polygon fill="#ffffff" stroke="transparent" points="280.5,-366.2 280.5,-427.2 475.5,-427.2 475.5,-366.2 280.5,-366.2"/>
<polygon fill="#f5f5f5" stroke="transparent" points="281,-403.7 281,-426.7 476,-426.7 476,-403.7 281,-403.7"/>
<polygon fill="none" stroke="#000000" points="281,-403.7 281,-426.7 476,-426.7 476,-403.7 281,-403.7"/>
<text text-anchor="start" x="286" y="-412.3" font-family="Helvetica,sans-Serif" font-weight="bold" font-size="11.00" fill="#000000">person_summary_audit</text>
<text text-anchor="start" x="441.5219" y="-411.8" font-family="Helvetica,sans-Serif" font-size="11.00" fill="#000000">[table]</text>
<polygon fill="none" stroke="#000000" points="281,-384.7 281,-403.7 476,-403.7 476,-384.7 281,-384.7"/>
<text text-anchor="start" x="284" y="-390.8" font-family="Helvetica,sans-Serif" font-size="11.00" fill="#000000">...</text>
<polygon fill="#ffffff" stroke="transparent" points="281,-365.7 281,-384.7 377,-384.7 377,-365.7 281,-365.7"/>
<polygon fill="none" stroke="#000000" points="281,-365.7 281,-384.7 377,-384.7 377,-365.7 281,-365.7"/>
<text text-anchor="start" x="284" y="-371.8" font-family="Helvetica,sans-Serif" font-size="11.00" fill="#000000">&lt; 1</text>
<polygon fill="#ffffff" stroke="transparent" points="377,-365.7 377,-384.7 426,-384.7 426,-365.7 377,-365.7"/>
<polygon fill="none" stroke="#000000" points="377,-365.7 377,-384.7 426,-384.7 426,-365.7 377,-365.7"/>
<text text-anchor="start" x="416.8862" y="-371.8" font-family="Helvetica,sans-Serif" font-size="11.00" fill="#000000"> &#160;</text>
<polygon fill="#ffffff" stroke="transparent" points="426,-365.7 426,-384.7 476,-384.7 476,-365.7 426,-365.7"/>
<polygon fill="none" stroke="#000000" points="426,-365.7 426,-384.7 476,-384.7 476,-365.7 426,-365.7"/>
<text text-anchor="start" x="466.8862" y="-371.8" font-family="Helvetica,sans-Serif" font-size="11.00" fill="#000000"> &#160;</text>
</a>
</g>
</g>
<!-- person_summary_audit&#45;&gt;audit_revision -->
<g id="edge8" class="edge">
<title>person_summary_audit:w&#45;&gt;audit_revision:e</title>
<path fill="none" stroke="#000000" d="M266.359,-394.9646C243.0925,-399.4537 234.8534,-415.5492 215,-437.7 188.5976,-467.1576 213.5581,-516.7 174,-516.7"/>
<polygon fill="#000000" stroke="#000000" points="273.0297,-394.3885 281.3098,-397.2866 277.0148,-394.0442 281,-393.7 281,-393.7 281,-393.7 277.0148,-394.0442 280.6902,-390.1134 273.0297,-394.3885 273.0297,-394.3885"/>
<ellipse fill="none" stroke="#000000" cx="269.8415" cy="-394.6639" rx="3.2" ry="3.2"/>
</g>
<!-- plan_audit -->
<g id="node10" class="node">
<title>plan_audit</title>
<g id="a_node10"><a xlink:href="../../tables/plan_audit.html" xlink:title="plan_audit" target="_top">
<polygon fill="#ffffff" stroke="transparent" points="323.5,-284.2 323.5,-345.2 432.5,-345.2 432.5,-284.2 323.5,-284.2"/>
<polygon fill="#f5f5f5" stroke="transparent" points="324,-321.7 324,-344.7 433,-344.7 433,-321.7 324,-321.7"/>
<polygon fill="none" stroke="#000000" points="324,-321.7 324,-344.7 433,-344.7 433,-321.7 324,-321.7"/>
<text text-anchor="start" x="329" y="-330.3" font-family="Helvetica,sans-Serif" font-weight="bold" font-size="11.00" fill="#000000">plan_audit</text>
<text text-anchor="start" x="398.5219" y="-329.8" font-family="Helvetica,sans-Serif" font-size="11.00" fill="#000000">[table]</text>
<polygon fill="none" stroke="#000000" points="324,-302.7 324,-321.7 433,-321.7 433,-302.7 324,-302.7"/>
<text text-anchor="start" x="327" y="-308.8" font-family="Helvetica,sans-Serif" font-size="11.00" fill="#000000">...</text>
<polygon fill="#ffffff" stroke="transparent" points="324,-283.7 324,-302.7 377,-302.7 377,-283.7 324,-283.7"/>
<polygon fill="none" stroke="#000000" points="324,-283.7 324,-302.7 377,-302.7 377,-283.7 324,-283.7"/>
<text text-anchor="start" x="327" y="-289.8" font-family="Helvetica,sans-Serif" font-size="11.00" fill="#000000">&lt; 1</text>
<polygon fill="#ffffff" stroke="transparent" points="377,-283.7 377,-302.7 405,-302.7 405,-283.7 377,-283.7"/>
<polygon fill="none" stroke="#000000" points="377,-283.7 377,-302.7 405,-302.7 405,-283.7 377,-283.7"/>
<text text-anchor="start" x="395.8862" y="-289.8" font-family="Helvetica,sans-Serif" font-size="11.00" fill="#000000"> &#160;</text>
<polygon fill="#ffffff" stroke="transparent" points="405,-283.7 405,-302.7 433,-302.7 433,-283.7 405,-283.7"/>
<polygon fill="none" stroke="#000000" points="405,-283.7 405,-302.7 433,-302.7 433,-283.7 405,-283.7"/>
<text text-anchor="start" x="423.8862" y="-289.8" font-family="Helvetica,sans-Serif" font-size="11.00" fill="#000000"> &#160;</text>
</a>
</g>
</g>
<!-- plan_audit&#45;&gt;audit_revision -->
<g id="edge9" class="edge">
<title>plan_audit:w&#45;&gt;audit_revision:e</title>
<path fill="none" stroke="#000000" d="M309.51,-311.8614C267.2722,-312.9415 246.0216,-320.2048 215,-355.7 166.409,-411.2982 247.8393,-516.7 174,-516.7"/>
<polygon fill="#000000" stroke="#000000" points="316.0005,-311.7891 324.0401,-315.2998 320.0002,-311.7446 324,-311.7 324,-311.7 324,-311.7 320.0002,-311.7446 323.9599,-308.1002 316.0005,-311.7891 316.0005,-311.7891"/>
<ellipse fill="none" stroke="#000000" cx="312.8007" cy="-311.8248" rx="3.2" ry="3.2"/>
</g>
<!-- referral_audit -->
<g id="node11" class="node">
<title>referral_audit</title>
<g id="a_node11"><a xlink:href="../../tables/referral_audit.html" xlink:title="referral_audit" target="_top">
<polygon fill="#ffffff" stroke="transparent" points="312.5,-202.2 312.5,-263.2 443.5,-263.2 443.5,-202.2 312.5,-202.2"/>
<polygon fill="#f5f5f5" stroke="transparent" points="313,-239.7 313,-262.7 444,-262.7 444,-239.7 313,-239.7"/>
<polygon fill="none" stroke="#000000" points="313,-239.7 313,-262.7 444,-262.7 444,-239.7 313,-239.7"/>
<text text-anchor="start" x="318" y="-248.3" font-family="Helvetica,sans-Serif" font-weight="bold" font-size="11.00" fill="#000000">referral_audit</text>
<text text-anchor="start" x="409.5219" y="-247.8" font-family="Helvetica,sans-Serif" font-size="11.00" fill="#000000">[table]</text>
<polygon fill="none" stroke="#000000" points="313,-220.7 313,-239.7 444,-239.7 444,-220.7 313,-220.7"/>
<text text-anchor="start" x="316" y="-226.8" font-family="Helvetica,sans-Serif" font-size="11.00" fill="#000000">...</text>
<polygon fill="#ffffff" stroke="transparent" points="313,-201.7 313,-220.7 377,-220.7 377,-201.7 313,-201.7"/>
<polygon fill="none" stroke="#000000" points="313,-201.7 313,-220.7 377,-220.7 377,-201.7 313,-201.7"/>
<text text-anchor="start" x="316" y="-207.8" font-family="Helvetica,sans-Serif" font-size="11.00" fill="#000000">&lt; 1</text>
<polygon fill="#ffffff" stroke="transparent" points="377,-201.7 377,-220.7 410,-220.7 410,-201.7 377,-201.7"/>
<polygon fill="none" stroke="#000000" points="377,-201.7 377,-220.7 410,-220.7 410,-201.7 377,-201.7"/>
<text text-anchor="start" x="400.8862" y="-207.8" font-family="Helvetica,sans-Serif" font-size="11.00" fill="#000000"> &#160;</text>
<polygon fill="#ffffff" stroke="transparent" points="410,-201.7 410,-220.7 444,-220.7 444,-201.7 410,-201.7"/>
<polygon fill="none" stroke="#000000" points="410,-201.7 410,-220.7 444,-220.7 444,-201.7 410,-201.7"/>
<text text-anchor="start" x="434.8862" y="-207.8" font-family="Helvetica,sans-Serif" font-size="11.00" fill="#000000"> &#160;</text>
</a>
</g>
</g>
<!-- referral_audit&#45;&gt;audit_revision -->
<g id="edge10" class="edge">
<title>referral_audit:w&#45;&gt;audit_revision:e</title>
<path fill="none" stroke="#000000" d="M298.2461,-229.9565C260.5517,-231.4388 241.0028,-240.055 215,-273.7 181.5116,-317.0306 228.7632,-516.7 174,-516.7"/>
<polygon fill="#000000" stroke="#000000" points="305.0012,-229.8391 313.0626,-233.2995 309.0006,-229.7696 313,-229.7 313,-229.7 313,-229.7 309.0006,-229.7696 312.9374,-226.1005 305.0012,-229.8391 305.0012,-229.8391"/>
<ellipse fill="none" stroke="#000000" cx="301.8017" cy="-229.8947" rx="3.2" ry="3.2"/>
</g>
<!-- review_audit -->
<g id="node12" class="node">
<title>review_audit</title>
<g id="a_node12"><a xlink:href="../../tables/review_audit.html" xlink:title="review_audit" target="_top">
<polygon fill="#ffffff" stroke="transparent" points="315.5,-120.2 315.5,-181.2 440.5,-181.2 440.5,-120.2 315.5,-120.2"/>
<polygon fill="#f5f5f5" stroke="transparent" points="316,-157.7 316,-180.7 441,-180.7 441,-157.7 316,-157.7"/>
<polygon fill="none" stroke="#000000" points="316,-157.7 316,-180.7 441,-180.7 441,-157.7 316,-157.7"/>
<text text-anchor="start" x="321" y="-166.3" font-family="Helvetica,sans-Serif" font-weight="bold" font-size="11.00" fill="#000000">review_audit</text>
<text text-anchor="start" x="406.5219" y="-165.8" font-family="Helvetica,sans-Serif" font-size="11.00" fill="#000000">[table]</text>
<polygon fill="none" stroke="#000000" points="316,-138.7 316,-157.7 441,-157.7 441,-138.7 316,-138.7"/>
<text text-anchor="start" x="319" y="-144.8" font-family="Helvetica,sans-Serif" font-size="11.00" fill="#000000">...</text>
<polygon fill="#ffffff" stroke="transparent" points="316,-119.7 316,-138.7 377,-138.7 377,-119.7 316,-119.7"/>
<polygon fill="none" stroke="#000000" points="316,-119.7 316,-138.7 377,-138.7 377,-119.7 316,-119.7"/>
<text text-anchor="start" x="319" y="-125.8" font-family="Helvetica,sans-Serif" font-size="11.00" fill="#000000">&lt; 1</text>
<polygon fill="#ffffff" stroke="transparent" points="377,-119.7 377,-138.7 409,-138.7 409,-119.7 377,-119.7"/>
<polygon fill="none" stroke="#000000" points="377,-119.7 377,-138.7 409,-138.7 409,-119.7 377,-119.7"/>
<text text-anchor="start" x="399.8862" y="-125.8" font-family="Helvetica,sans-Serif" font-size="11.00" fill="#000000"> &#160;</text>
<polygon fill="#ffffff" stroke="transparent" points="409,-119.7 409,-138.7 441,-138.7 441,-119.7 409,-119.7"/>
<polygon fill="none" stroke="#000000" points="409,-119.7 409,-138.7 441,-138.7 441,-119.7 409,-119.7"/>
<text text-anchor="start" x="431.8862" y="-125.8" font-family="Helvetica,sans-Serif" font-size="11.00" fill="#000000"> &#160;</text>
</a>
</g>
</g>
<!-- review_audit&#45;&gt;audit_revision -->
<g id="edge11" class="edge">
<title>review_audit:w&#45;&gt;audit_revision:e</title>
<path fill="none" stroke="#000000" d="M301.3458,-147.8951C262.1764,-149.0963 241.2522,-156.6399 215,-191.7 171.3688,-249.9699 246.7947,-516.7 174,-516.7"/>
<polygon fill="#000000" stroke="#000000" points="308.0007,-147.8065 316.0479,-151.2997 312.0004,-147.7533 316,-147.7 316,-147.7 316,-147.7 312.0004,-147.7533 315.9521,-144.1003 308.0007,-147.8065 308.0007,-147.8065"/>
<ellipse fill="none" stroke="#000000" cx="304.801" cy="-147.8492" rx="3.2" ry="3.2"/>
</g>
<!-- safer_custody_screening_outcome_audit -->
<g id="node13" class="node">
<title>safer_custody_screening_outcome_audit</title>
<g id="a_node13"><a xlink:href="../../tables/safer_custody_screening_outcome_audit.html" xlink:title="safer_custody_screening_outcome_audit" target="_top">
<polygon fill="#ffffff" stroke="transparent" points="223,-38.2 223,-99.2 533,-99.2 533,-38.2 223,-38.2"/>
<polygon fill="#f5f5f5" stroke="transparent" points="223,-75.7 223,-98.7 533,-98.7 533,-75.7 223,-75.7"/>
<polygon fill="none" stroke="#000000" points="223,-75.7 223,-98.7 533,-98.7 533,-75.7 223,-75.7"/>
<text text-anchor="start" x="228" y="-84.3" font-family="Helvetica,sans-Serif" font-weight="bold" font-size="11.00" fill="#000000">safer_custody_screening_outcome_audit</text>
<text text-anchor="start" x="498.5219" y="-83.8" font-family="Helvetica,sans-Serif" font-size="11.00" fill="#000000">[table]</text>
<polygon fill="none" stroke="#000000" points="223,-56.7 223,-75.7 533,-75.7 533,-56.7 223,-56.7"/>
<text text-anchor="start" x="226" y="-62.8" font-family="Helvetica,sans-Serif" font-size="11.00" fill="#000000">...</text>
<polygon fill="#ffffff" stroke="transparent" points="223,-37.7 223,-56.7 376,-56.7 376,-37.7 223,-37.7"/>
<polygon fill="none" stroke="#000000" points="223,-37.7 223,-56.7 376,-56.7 376,-37.7 223,-37.7"/>
<text text-anchor="start" x="226" y="-43.8" font-family="Helvetica,sans-Serif" font-size="11.00" fill="#000000">&lt; 1</text>
<polygon fill="#ffffff" stroke="transparent" points="376,-37.7 376,-56.7 454,-56.7 454,-37.7 376,-37.7"/>
<polygon fill="none" stroke="#000000" points="376,-37.7 376,-56.7 454,-56.7 454,-37.7 376,-37.7"/>
<text text-anchor="start" x="444.8862" y="-43.8" font-family="Helvetica,sans-Serif" font-size="11.00" fill="#000000"> &#160;</text>
<polygon fill="#ffffff" stroke="transparent" points="454,-37.7 454,-56.7 533,-56.7 533,-37.7 454,-37.7"/>
<polygon fill="none" stroke="#000000" points="454,-37.7 454,-56.7 533,-56.7 533,-37.7 454,-37.7"/>
<text text-anchor="start" x="523.8862" y="-43.8" font-family="Helvetica,sans-Serif" font-size="11.00" fill="#000000"> &#160;</text>
</a>
</g>
</g>
<!-- safer_custody_screening_outcome_audit&#45;&gt;audit_revision -->
<g id="edge12" class="edge">
<title>safer_custody_screening_outcome_audit:w&#45;&gt;audit_revision:e</title>
<path fill="none" stroke="#000000" d="M208.6515,-69.5989C138.1233,-113.6793 269.2989,-516.7 174,-516.7"/>
<polygon fill="#000000" stroke="#000000" points="215.2799,-67.7978 223.944,-69.174 219.14,-66.7489 223,-65.7 223,-65.7 223,-65.7 219.14,-66.7489 222.056,-62.226 215.2799,-67.7978 215.2799,-67.7978"/>
<ellipse fill="none" stroke="#000000" cx="212.1919" cy="-68.6369" rx="3.2" ry="3.2"/>
</g>
</g>
</svg>
