<?xml version="1.0" encoding="UTF-8" standalone="no"?>
<!DOCTYPE svg PUBLIC "-//W3C//DTD SVG 1.1//EN"
 "http://www.w3.org/Graphics/SVG/1.1/DTD/svg11.dtd">
<!-- Generated by graphviz version 2.40.1 (20161225.0304)
 -->
<!-- Title: twoDegreesRelationshipsDiagram Pages: 1 -->
<svg width="549pt" height="1115pt"
 viewBox="0.00 0.00 549.00 1115.20" xmlns="http://www.w3.org/2000/svg" xmlns:xlink="http://www.w3.org/1999/xlink">
<g id="graph0" class="graph" transform="scale(1 1) rotate(0) translate(4 1111.2)">
<title>twoDegreesRelationshipsDiagram</title>
<polygon fill="#ffffff" stroke="transparent" points="-4,4 -4,-1111.2 545,-1111.2 545,4 -4,4"/>
<text text-anchor="middle" x="72.4936" y="-7.3" font-family="Helvetica,sans-Serif" font-size="11.00" fill="#000000">Generated by SchemaSpy</text>
<!-- attendee_audit -->
<g id="node1" class="node">
<title>attendee_audit</title>
<g id="a_node1"><a xlink:href="../../tables/attendee_audit.html" xlink:title="attendee_audit" target="_top">
<polygon fill="#ffffff" stroke="transparent" points="307.5,-1042.2 307.5,-1103.2 448.5,-1103.2 448.5,-1042.2 307.5,-1042.2"/>
<polygon fill="#f5f5f5" stroke="transparent" points="308,-1079.7 308,-1102.7 449,-1102.7 449,-1079.7 308,-1079.7"/>
<polygon fill="none" stroke="#000000" points="308,-1079.7 308,-1102.7 449,-1102.7 449,-1079.7 308,-1079.7"/>
<text text-anchor="start" x="313" y="-1088.3" font-family="Helvetica,sans-Serif" font-weight="bold" font-size="11.00" fill="#000000">attendee_audit</text>
<text text-anchor="start" x="414.5219" y="-1087.8" font-family="Helvetica,sans-Serif" font-size="11.00" fill="#000000">[table]</text>
<polygon fill="none" stroke="#000000" points="308,-1060.7 308,-1079.7 449,-1079.7 449,-1060.7 308,-1060.7"/>
<text text-anchor="start" x="311" y="-1066.8" font-family="Helvetica,sans-Serif" font-size="11.00" fill="#000000">...</text>
<polygon fill="#ffffff" stroke="transparent" points="308,-1041.7 308,-1060.7 377,-1060.7 377,-1041.7 308,-1041.7"/>
<polygon fill="none" stroke="#000000" points="308,-1041.7 308,-1060.7 377,-1060.7 377,-1041.7 308,-1041.7"/>
<text text-anchor="start" x="311" y="-1047.8" font-family="Helvetica,sans-Serif" font-size="11.00" fill="#000000">&lt; 1</text>
<polygon fill="#ffffff" stroke="transparent" points="377,-1041.7 377,-1060.7 413,-1060.7 413,-1041.7 377,-1041.7"/>
<polygon fill="none" stroke="#000000" points="377,-1041.7 377,-1060.7 413,-1060.7 413,-1041.7 377,-1041.7"/>
<text text-anchor="start" x="403.8862" y="-1047.8" font-family="Helvetica,sans-Serif" font-size="11.00" fill="#000000"> &#160;</text>
<polygon fill="#ffffff" stroke="transparent" points="413,-1041.7 413,-1060.7 449,-1060.7 449,-1041.7 413,-1041.7"/>
<polygon fill="none" stroke="#000000" points="413,-1041.7 413,-1060.7 449,-1060.7 449,-1041.7 413,-1041.7"/>
<text text-anchor="start" x="439.8862" y="-1047.8" font-family="Helvetica,sans-Serif" font-size="11.00" fill="#000000"> &#160;</text>
</a>
</g>
</g>
<!-- audit_revision -->
<g id="node2" class="node">
<title>audit_revision</title>
<g id="a_node2"><a xlink:href="../../tables/audit_revision.html" xlink:title="audit_revision" target="_top">
<polygon fill="#ffffff" stroke="transparent" points="8,-427.2 8,-510.2 174,-510.2 174,-427.2 8,-427.2"/>
<polygon fill="#f5f5f5" stroke="transparent" points="8,-486.7 8,-509.7 174,-509.7 174,-486.7 8,-486.7"/>
<polygon fill="none" stroke="#000000" points="8,-486.7 8,-509.7 174,-509.7 174,-486.7 8,-486.7"/>
<text text-anchor="start" x="13" y="-495.3" font-family="Helvetica,sans-Serif" font-weight="bold" font-size="11.00" fill="#000000">audit_revision</text>
<text text-anchor="start" x="139.0437" y="-494.8" font-family="Helvetica,sans-Serif" font-size="11.00" fill="#000000">[table]</text>
<polygon fill="none" stroke="#000000" points="8,-464.7 8,-486.7 174,-486.7 174,-464.7 8,-464.7"/>
<image xlink:href="../../images/primaryKeys.png" width="11px" height="12px" preserveAspectRatio="xMinYMin meet" x="13" y="-481.7"/>
<text text-anchor="start" x="28" y="-471.8" font-family="Helvetica,sans-Serif" font-size="11.00" fill="#000000">id</text>
<polygon fill="none" stroke="#000000" points="8,-445.7 8,-464.7 174,-464.7 174,-445.7 8,-445.7"/>
<text text-anchor="start" x="11" y="-451.8" font-family="Helvetica,sans-Serif" font-size="11.00" fill="#000000">...</text>
<polygon fill="#ffffff" stroke="transparent" points="8,-426.7 8,-445.7 77,-445.7 77,-426.7 8,-426.7"/>
<polygon fill="none" stroke="#000000" points="8,-426.7 8,-445.7 77,-445.7 77,-426.7 8,-426.7"/>
<text text-anchor="start" x="11" y="-432.8" font-family="Helvetica,sans-Serif" font-size="11.00" fill="#000000"> &#160;</text>
<polygon fill="#ffffff" stroke="transparent" points="77,-426.7 77,-445.7 118,-445.7 118,-426.7 77,-426.7"/>
<polygon fill="none" stroke="#000000" points="77,-426.7 77,-445.7 118,-445.7 118,-426.7 77,-426.7"/>
<text text-anchor="start" x="108.8862" y="-432.8" font-family="Helvetica,sans-Serif" font-size="11.00" fill="#000000"> &#160;</text>
<polygon fill="#ffffff" stroke="transparent" points="118,-426.7 118,-445.7 174,-445.7 174,-426.7 118,-426.7"/>
<polygon fill="none" stroke="#000000" points="118,-426.7 118,-445.7 174,-445.7 174,-426.7 118,-426.7"/>
<text text-anchor="start" x="149.2904" y="-432.8" font-family="Helvetica,sans-Serif" font-size="11.00" fill="#000000">11 &gt;</text>
</a>
</g>
</g>
<!-- attendee_audit&#45;&gt;audit_revision -->
<g id="edge1" class="edge">
<title>attendee_audit:w&#45;&gt;audit_revision:e</title>
<path fill="none" stroke="#000000" d="M293.1884,-1069.5706C258.1113,-1068.7902 238.1673,-1063.5915 215,-1031.7 178.5927,-981.5826 235.9455,-475.7 174,-475.7"/>
<polygon fill="#000000" stroke="#000000" points="300.0003,-1069.6301 307.9685,-1073.2999 304.0002,-1069.665 308,-1069.7 308,-1069.7 308,-1069.7 304.0002,-1069.665 308.0315,-1066.1001 300.0003,-1069.6301 300.0003,-1069.6301"/>
<ellipse fill="none" stroke="#000000" cx="296.8004" cy="-1069.6021" rx="3.2" ry="3.2"/>
</g>
<!-- contributory_factor_audit -->
<g id="node3" class="node">
<title>contributory_factor_audit</title>
<g id="a_node3"><a xlink:href="../../tables/contributory_factor_audit.html" xlink:title="contributory_factor_audit" target="_top">
<polygon fill="#ffffff" stroke="transparent" points="273,-960.2 273,-1021.2 483,-1021.2 483,-960.2 273,-960.2"/>
<polygon fill="#f5f5f5" stroke="transparent" points="273,-997.7 273,-1020.7 483,-1020.7 483,-997.7 273,-997.7"/>
<polygon fill="none" stroke="#000000" points="273,-997.7 273,-1020.7 483,-1020.7 483,-997.7 273,-997.7"/>
<text text-anchor="start" x="278" y="-1006.3" font-family="Helvetica,sans-Serif" font-weight="bold" font-size="11.00" fill="#000000">contributory_factor_audit</text>
<text text-anchor="start" x="448.5219" y="-1005.8" font-family="Helvetica,sans-Serif" font-size="11.00" fill="#000000">[table]</text>
<polygon fill="none" stroke="#000000" points="273,-978.7 273,-997.7 483,-997.7 483,-978.7 273,-978.7"/>
<text text-anchor="start" x="276" y="-984.8" font-family="Helvetica,sans-Serif" font-size="11.00" fill="#000000">...</text>
<polygon fill="#ffffff" stroke="transparent" points="273,-959.7 273,-978.7 376,-978.7 376,-959.7 273,-959.7"/>
<polygon fill="none" stroke="#000000" points="273,-959.7 273,-978.7 376,-978.7 376,-959.7 273,-959.7"/>
<text text-anchor="start" x="276" y="-965.8" font-family="Helvetica,sans-Serif" font-size="11.00" fill="#000000">&lt; 1</text>
<polygon fill="#ffffff" stroke="transparent" points="376,-959.7 376,-978.7 429,-978.7 429,-959.7 376,-959.7"/>
<polygon fill="none" stroke="#000000" points="376,-959.7 376,-978.7 429,-978.7 429,-959.7 376,-959.7"/>
<text text-anchor="start" x="419.8862" y="-965.8" font-family="Helvetica,sans-Serif" font-size="11.00" fill="#000000"> &#160;</text>
<polygon fill="#ffffff" stroke="transparent" points="429,-959.7 429,-978.7 483,-978.7 483,-959.7 429,-959.7"/>
<polygon fill="none" stroke="#000000" points="429,-959.7 429,-978.7 483,-978.7 483,-959.7 429,-959.7"/>
<text text-anchor="start" x="473.8862" y="-965.8" font-family="Helvetica,sans-Serif" font-size="11.00" fill="#000000"> &#160;</text>
</a>
</g>
</g>
<!-- contributory_factor_audit&#45;&gt;audit_revision -->
<g id="edge2" class="edge">
<title>contributory_factor_audit:w&#45;&gt;audit_revision:e</title>
<path fill="none" stroke="#000000" d="M258.421,-986.6116C238.0459,-983.1807 228.0275,-971.5053 215,-949.7 187.8874,-904.319 226.8633,-475.7 174,-475.7"/>
<polygon fill="#000000" stroke="#000000" points="265.0222,-987.1044 272.732,-991.29 269.0111,-987.4022 273,-987.7 273,-987.7 273,-987.7 269.0111,-987.4022 273.268,-984.11 265.0222,-987.1044 265.0222,-987.1044"/>
<ellipse fill="none" stroke="#000000" cx="261.8311" cy="-986.8661" rx="3.2" ry="3.2"/>
</g>
<!-- csip_record_audit -->
<g id="node4" class="node">
<title>csip_record_audit</title>
<g id="a_node4"><a xlink:href="../../tables/csip_record_audit.html" xlink:title="csip_record_audit" target="_top">
<polygon fill="#ffffff" stroke="transparent" points="224,-694.7 224,-938.7 532,-938.7 532,-694.7 224,-694.7"/>
<polygon fill="#f5f5f5" stroke="transparent" points="226,-913.7 226,-936.7 530,-936.7 530,-913.7 226,-913.7"/>
<polygon fill="none" stroke="#000000" points="226,-913.7 226,-936.7 530,-936.7 530,-913.7 226,-913.7"/>
<text text-anchor="start" x="231" y="-922.3" font-family="Helvetica,sans-Serif" font-weight="bold" font-size="11.00" fill="#000000">csip_record_audit</text>
<text text-anchor="start" x="495.0437" y="-921.8" font-family="Helvetica,sans-Serif" font-size="11.00" fill="#000000">[table]</text>
<polygon fill="none" stroke="#000000" points="226,-891.7 226,-913.7 436,-913.7 436,-891.7 226,-891.7"/>
<image xlink:href="../../images/primaryKeys.png" width="11px" height="12px" preserveAspectRatio="xMinYMin meet" x="231" y="-908.7"/>
<text text-anchor="start" x="246" y="-898.8" font-family="Helvetica,sans-Serif" font-size="11.00" fill="#000000">rev_id</text>
<polygon fill="none" stroke="#000000" points="436,-891.7 436,-913.7 530,-913.7 530,-891.7 436,-891.7"/>
<text text-anchor="start" x="439" y="-899.4" font-family="Helvetica,sans-Serif" font-size="11.00" fill="#000000">int8[19]</text>
<polygon fill="none" stroke="#000000" points="226,-869.7 226,-891.7 436,-891.7 436,-869.7 226,-869.7"/>
<text text-anchor="start" x="246" y="-876.8" font-family="Helvetica,sans-Serif" font-size="11.00" fill="#000000">rev_type</text>
<polygon fill="none" stroke="#000000" points="436,-869.7 436,-891.7 530,-891.7 530,-869.7 436,-869.7"/>
<text text-anchor="start" x="439" y="-877.4" font-family="Helvetica,sans-Serif" font-size="11.00" fill="#000000">int2[5]</text>
<polygon fill="none" stroke="#000000" points="226,-847.7 226,-869.7 436,-869.7 436,-847.7 226,-847.7"/>
<image xlink:href="../../images/primaryKeys.png" width="11px" height="12px" preserveAspectRatio="xMinYMin meet" x="231" y="-864.7"/>
<text text-anchor="start" x="246" y="-854.8" font-family="Helvetica,sans-Serif" font-size="11.00" fill="#000000">record_id</text>
<polygon fill="none" stroke="#000000" points="436,-847.7 436,-869.7 530,-869.7 530,-847.7 436,-847.7"/>
<text text-anchor="start" x="438.9758" y="-855.4" font-family="Helvetica,sans-Serif" font-size="11.00" fill="#000000">uuid[2147483647]</text>
<polygon fill="none" stroke="#000000" points="226,-825.7 226,-847.7 436,-847.7 436,-825.7 226,-825.7"/>
<image xlink:href="../../images/foreignKeys.png" width="11px" height="12px" preserveAspectRatio="xMinYMin meet" x="231" y="-842.7"/>
<text text-anchor="start" x="246" y="-832.8" font-family="Helvetica,sans-Serif" font-size="11.00" fill="#000000">prison_number</text>
<polygon fill="none" stroke="#000000" points="436,-825.7 436,-847.7 530,-847.7 530,-825.7 436,-825.7"/>
<text text-anchor="start" x="439" y="-833.4" font-family="Helvetica,sans-Serif" font-size="11.00" fill="#000000">varchar[10]</text>
<polygon fill="none" stroke="#000000" points="226,-803.7 226,-825.7 436,-825.7 436,-803.7 226,-803.7"/>
<text text-anchor="start" x="246" y="-810.8" font-family="Helvetica,sans-Serif" font-size="11.00" fill="#000000">prison_code_when_recorded</text>
<polygon fill="none" stroke="#000000" points="436,-803.7 436,-825.7 530,-825.7 530,-803.7 436,-803.7"/>
<text text-anchor="start" x="439" y="-811.4" font-family="Helvetica,sans-Serif" font-size="11.00" fill="#000000">varchar[6]</text>
<polygon fill="none" stroke="#000000" points="226,-781.7 226,-803.7 436,-803.7 436,-781.7 226,-781.7"/>
<text text-anchor="start" x="246" y="-788.8" font-family="Helvetica,sans-Serif" font-size="11.00" fill="#000000">log_code</text>
<polygon fill="none" stroke="#000000" points="436,-781.7 436,-803.7 530,-803.7 530,-781.7 436,-781.7"/>
<text text-anchor="start" x="439" y="-789.4" font-family="Helvetica,sans-Serif" font-size="11.00" fill="#000000">varchar[10]</text>
<polygon fill="none" stroke="#000000" points="226,-759.7 226,-781.7 436,-781.7 436,-759.7 226,-759.7"/>
<text text-anchor="start" x="246" y="-766.8" font-family="Helvetica,sans-Serif" font-size="11.00" fill="#000000">log_code_modified</text>
<polygon fill="none" stroke="#000000" points="436,-759.7 436,-781.7 530,-781.7 530,-759.7 436,-759.7"/>
<text text-anchor="start" x="439" y="-767.4" font-family="Helvetica,sans-Serif" font-size="11.00" fill="#000000">bool[1]</text>
<polygon fill="none" stroke="#000000" points="226,-737.7 226,-759.7 436,-759.7 436,-737.7 226,-737.7"/>
<image xlink:href="../../images/foreignKeys.png" width="11px" height="12px" preserveAspectRatio="xMinYMin meet" x="231" y="-754.7"/>
<text text-anchor="start" x="246" y="-744.8" font-family="Helvetica,sans-Serif" font-size="11.00" fill="#000000">legacy_id</text>
<polygon fill="none" stroke="#000000" points="436,-737.7 436,-759.7 530,-759.7 530,-737.7 436,-737.7"/>
<text text-anchor="start" x="439" y="-745.4" font-family="Helvetica,sans-Serif" font-size="11.00" fill="#000000">int8[19]</text>
<polygon fill="none" stroke="#000000" points="226,-715.7 226,-737.7 436,-737.7 436,-715.7 226,-715.7"/>
<text text-anchor="start" x="246" y="-722.8" font-family="Helvetica,sans-Serif" font-size="11.00" fill="#000000">prison_number_modified</text>
<polygon fill="none" stroke="#000000" points="436,-715.7 436,-737.7 530,-737.7 530,-715.7 436,-715.7"/>
<text text-anchor="start" x="439" y="-723.4" font-family="Helvetica,sans-Serif" font-size="11.00" fill="#000000">bool[1]</text>
<polygon fill="#ffffff" stroke="transparent" points="226,-696.7 226,-715.7 335,-715.7 335,-696.7 226,-696.7"/>
<polygon fill="none" stroke="#000000" points="226,-696.7 226,-715.7 335,-715.7 335,-696.7 226,-696.7"/>
<text text-anchor="start" x="229" y="-702.8" font-family="Helvetica,sans-Serif" font-size="11.00" fill="#000000">&lt; 1</text>
<polygon fill="#ffffff" stroke="transparent" points="335,-696.7 335,-715.7 436,-715.7 436,-696.7 335,-696.7"/>
<polygon fill="none" stroke="#000000" points="335,-696.7 335,-715.7 436,-715.7 436,-696.7 335,-696.7"/>
<text text-anchor="start" x="426.8862" y="-702.8" font-family="Helvetica,sans-Serif" font-size="11.00" fill="#000000"> &#160;</text>
<polygon fill="#ffffff" stroke="transparent" points="436,-696.7 436,-715.7 530,-715.7 530,-696.7 436,-696.7"/>
<polygon fill="none" stroke="#000000" points="436,-696.7 436,-715.7 530,-715.7 530,-696.7 436,-696.7"/>
<text text-anchor="start" x="511.4053" y="-702.8" font-family="Helvetica,sans-Serif" font-size="11.00" fill="#000000">0 &gt;</text>
<polygon fill="none" stroke="#000000" stroke-width="2" points="225,-695.7 225,-937.7 531,-937.7 531,-695.7 225,-695.7"/>
</a>
</g>
</g>
<!-- csip_record_audit&#45;&gt;audit_revision -->
<g id="edge3" class="edge">
<title>csip_record_audit:w&#45;&gt;audit_revision:e</title>
<path fill="none" stroke="#000000" d="M211.9314,-898.7455C145.4234,-855.6988 264.1756,-475.7 174,-475.7"/>
<polygon fill="#000000" stroke="#000000" points="218.2985,-900.5352 225.0258,-906.1657 222.1492,-901.6176 226,-902.7 226,-902.7 226,-902.7 222.1492,-901.6176 226.9742,-899.2343 218.2985,-900.5352 218.2985,-900.5352"/>
<ellipse fill="none" stroke="#000000" cx="215.2178" cy="-899.6692" rx="3.2" ry="3.2"/>
</g>
<!-- decision_and_actions_audit -->
<g id="node5" class="node">
<title>decision_and_actions_audit</title>
<g id="a_node5"><a xlink:href="../../tables/decision_and_actions_audit.html" xlink:title="decision_and_actions_audit" target="_top">
<polygon fill="#ffffff" stroke="transparent" points="267,-612.2 267,-673.2 489,-673.2 489,-612.2 267,-612.2"/>
<polygon fill="#f5f5f5" stroke="transparent" points="267,-649.7 267,-672.7 489,-672.7 489,-649.7 267,-649.7"/>
<polygon fill="none" stroke="#000000" points="267,-649.7 267,-672.7 489,-672.7 489,-649.7 267,-649.7"/>
<text text-anchor="start" x="272" y="-658.3" font-family="Helvetica,sans-Serif" font-weight="bold" font-size="11.00" fill="#000000">decision_and_actions_audit</text>
<text text-anchor="start" x="454.5219" y="-657.8" font-family="Helvetica,sans-Serif" font-size="11.00" fill="#000000">[table]</text>
<polygon fill="none" stroke="#000000" points="267,-630.7 267,-649.7 489,-649.7 489,-630.7 267,-630.7"/>
<text text-anchor="start" x="270" y="-636.8" font-family="Helvetica,sans-Serif" font-size="11.00" fill="#000000">...</text>
<polygon fill="#ffffff" stroke="transparent" points="267,-611.7 267,-630.7 376,-630.7 376,-611.7 267,-611.7"/>
<polygon fill="none" stroke="#000000" points="267,-611.7 267,-630.7 376,-630.7 376,-611.7 267,-611.7"/>
<text text-anchor="start" x="270" y="-617.8" font-family="Helvetica,sans-Serif" font-size="11.00" fill="#000000">&lt; 1</text>
<polygon fill="#ffffff" stroke="transparent" points="376,-611.7 376,-630.7 432,-630.7 432,-611.7 376,-611.7"/>
<polygon fill="none" stroke="#000000" points="376,-611.7 376,-630.7 432,-630.7 432,-611.7 376,-611.7"/>
<text text-anchor="start" x="422.8862" y="-617.8" font-family="Helvetica,sans-Serif" font-size="11.00" fill="#000000"> &#160;</text>
<polygon fill="#ffffff" stroke="transparent" points="432,-611.7 432,-630.7 489,-630.7 489,-611.7 432,-611.7"/>
<polygon fill="none" stroke="#000000" points="432,-611.7 432,-630.7 489,-630.7 489,-611.7 432,-611.7"/>
<text text-anchor="start" x="479.8862" y="-617.8" font-family="Helvetica,sans-Serif" font-size="11.00" fill="#000000"> &#160;</text>
</a>
</g>
</g>
<!-- decision_and_actions_audit&#45;&gt;audit_revision -->
<g id="edge4" class="edge">
<title>decision_and_actions_audit:w&#45;&gt;audit_revision:e</title>
<path fill="none" stroke="#000000" d="M252.5105,-638.0519C235.4163,-633.5912 228.5172,-620.3504 215,-601.7 180.4408,-554.0166 232.8901,-475.7 174,-475.7"/>
<polygon fill="#000000" stroke="#000000" points="259.0513,-638.7958 266.5931,-643.2769 263.0256,-639.2479 267,-639.7 267,-639.7 267,-639.7 263.0256,-639.2479 267.4069,-636.1231 259.0513,-638.7958 259.0513,-638.7958"/>
<ellipse fill="none" stroke="#000000" cx="255.8718" cy="-638.4341" rx="3.2" ry="3.2"/>
</g>
<!-- identified_need_audit -->
<g id="node6" class="node">
<title>identified_need_audit</title>
<g id="a_node6"><a xlink:href="../../tables/identified_need_audit.html" xlink:title="identified_need_audit" target="_top">
<polygon fill="#ffffff" stroke="transparent" points="286,-530.2 286,-591.2 470,-591.2 470,-530.2 286,-530.2"/>
<polygon fill="#f5f5f5" stroke="transparent" points="286,-567.7 286,-590.7 470,-590.7 470,-567.7 286,-567.7"/>
<polygon fill="none" stroke="#000000" points="286,-567.7 286,-590.7 470,-590.7 470,-567.7 286,-567.7"/>
<text text-anchor="start" x="291" y="-576.3" font-family="Helvetica,sans-Serif" font-weight="bold" font-size="11.00" fill="#000000">identified_need_audit</text>
<text text-anchor="start" x="435.5219" y="-575.8" font-family="Helvetica,sans-Serif" font-size="11.00" fill="#000000">[table]</text>
<polygon fill="none" stroke="#000000" points="286,-548.7 286,-567.7 470,-567.7 470,-548.7 286,-548.7"/>
<text text-anchor="start" x="289" y="-554.8" font-family="Helvetica,sans-Serif" font-size="11.00" fill="#000000">...</text>
<polygon fill="#ffffff" stroke="transparent" points="286,-529.7 286,-548.7 376,-548.7 376,-529.7 286,-529.7"/>
<polygon fill="none" stroke="#000000" points="286,-529.7 286,-548.7 376,-548.7 376,-529.7 286,-529.7"/>
<text text-anchor="start" x="289" y="-535.8" font-family="Helvetica,sans-Serif" font-size="11.00" fill="#000000">&lt; 1</text>
<polygon fill="#ffffff" stroke="transparent" points="376,-529.7 376,-548.7 423,-548.7 423,-529.7 376,-529.7"/>
<polygon fill="none" stroke="#000000" points="376,-529.7 376,-548.7 423,-548.7 423,-529.7 376,-529.7"/>
<text text-anchor="start" x="413.8862" y="-535.8" font-family="Helvetica,sans-Serif" font-size="11.00" fill="#000000"> &#160;</text>
<polygon fill="#ffffff" stroke="transparent" points="423,-529.7 423,-548.7 470,-548.7 470,-529.7 423,-529.7"/>
<polygon fill="none" stroke="#000000" points="423,-529.7 423,-548.7 470,-548.7 470,-529.7 423,-529.7"/>
<text text-anchor="start" x="460.8862" y="-535.8" font-family="Helvetica,sans-Serif" font-size="11.00" fill="#000000"> &#160;</text>
</a>
</g>
</g>
<!-- identified_need_audit&#45;&gt;audit_revision -->
<g id="edge5" class="edge">
<title>identified_need_audit:w&#45;&gt;audit_revision:e</title>
<path fill="none" stroke="#000000" d="M271.4792,-556.6114C247.6233,-552.6424 239.0404,-538.2061 215,-519.7 193.8193,-503.3952 200.7296,-475.7 174,-475.7"/>
<polygon fill="#000000" stroke="#000000" points="278.0224,-557.1019 285.7309,-561.2899 282.0112,-557.4009 286,-557.7 286,-557.7 286,-557.7 282.0112,-557.4009 286.2691,-554.1101 278.0224,-557.1019 278.0224,-557.1019"/>
<ellipse fill="none" stroke="#000000" cx="274.8313" cy="-556.8627" rx="3.2" ry="3.2"/>
</g>
<!-- interview_audit -->
<g id="node7" class="node">
<title>interview_audit</title>
<g id="a_node7"><a xlink:href="../../tables/interview_audit.html" xlink:title="interview_audit" target="_top">
<polygon fill="#ffffff" stroke="transparent" points="306.5,-448.2 306.5,-509.2 449.5,-509.2 449.5,-448.2 306.5,-448.2"/>
<polygon fill="#f5f5f5" stroke="transparent" points="307,-485.7 307,-508.7 450,-508.7 450,-485.7 307,-485.7"/>
<polygon fill="none" stroke="#000000" points="307,-485.7 307,-508.7 450,-508.7 450,-485.7 307,-485.7"/>
<text text-anchor="start" x="312" y="-494.3" font-family="Helvetica,sans-Serif" font-weight="bold" font-size="11.00" fill="#000000">interview_audit</text>
<text text-anchor="start" x="415.5219" y="-493.8" font-family="Helvetica,sans-Serif" font-size="11.00" fill="#000000">[table]</text>
<polygon fill="none" stroke="#000000" points="307,-466.7 307,-485.7 450,-485.7 450,-466.7 307,-466.7"/>
<text text-anchor="start" x="310" y="-472.8" font-family="Helvetica,sans-Serif" font-size="11.00" fill="#000000">...</text>
<polygon fill="#ffffff" stroke="transparent" points="307,-447.7 307,-466.7 377,-466.7 377,-447.7 307,-447.7"/>
<polygon fill="none" stroke="#000000" points="307,-447.7 307,-466.7 377,-466.7 377,-447.7 307,-447.7"/>
<text text-anchor="start" x="310" y="-453.8" font-family="Helvetica,sans-Serif" font-size="11.00" fill="#000000">&lt; 1</text>
<polygon fill="#ffffff" stroke="transparent" points="377,-447.7 377,-466.7 413,-466.7 413,-447.7 377,-447.7"/>
<polygon fill="none" stroke="#000000" points="377,-447.7 377,-466.7 413,-466.7 413,-447.7 377,-447.7"/>
<text text-anchor="start" x="403.8862" y="-453.8" font-family="Helvetica,sans-Serif" font-size="11.00" fill="#000000"> &#160;</text>
<polygon fill="#ffffff" stroke="transparent" points="413,-447.7 413,-466.7 450,-466.7 450,-447.7 413,-447.7"/>
<polygon fill="none" stroke="#000000" points="413,-447.7 413,-466.7 450,-466.7 450,-447.7 413,-447.7"/>
<text text-anchor="start" x="440.8862" y="-453.8" font-family="Helvetica,sans-Serif" font-size="11.00" fill="#000000"> &#160;</text>
</a>
</g>
</g>
<!-- interview_audit&#45;&gt;audit_revision -->
<g id="edge6" class="edge">
<title>interview_audit:w&#45;&gt;audit_revision:e</title>
<path fill="none" stroke="#000000" d="M292.3813,-475.7C244.9488,-475.7 227.9158,-475.7 174,-475.7"/>
<polygon fill="#000000" stroke="#000000" points="299,-475.7001 307,-479.3 303,-475.7 307,-475.7 307,-475.7 307,-475.7 303,-475.7 307,-472.1 299,-475.7001 299,-475.7001"/>
<ellipse fill="none" stroke="#000000" cx="295.8" cy="-475.7001" rx="3.2" ry="3.2"/>
</g>
<!-- investigation_audit -->
<g id="node8" class="node">
<title>investigation_audit</title>
<g id="a_node8"><a xlink:href="../../tables/investigation_audit.html" xlink:title="investigation_audit" target="_top">
<polygon fill="#ffffff" stroke="transparent" points="293.5,-366.2 293.5,-427.2 462.5,-427.2 462.5,-366.2 293.5,-366.2"/>
<polygon fill="#f5f5f5" stroke="transparent" points="294,-403.7 294,-426.7 463,-426.7 463,-403.7 294,-403.7"/>
<polygon fill="none" stroke="#000000" points="294,-403.7 294,-426.7 463,-426.7 463,-403.7 294,-403.7"/>
<text text-anchor="start" x="299" y="-412.3" font-family="Helvetica,sans-Serif" font-weight="bold" font-size="11.00" fill="#000000">investigation_audit</text>
<text text-anchor="start" x="428.5219" y="-411.8" font-family="Helvetica,sans-Serif" font-size="11.00" fill="#000000">[table]</text>
<polygon fill="none" stroke="#000000" points="294,-384.7 294,-403.7 463,-403.7 463,-384.7 294,-384.7"/>
<text text-anchor="start" x="297" y="-390.8" font-family="Helvetica,sans-Serif" font-size="11.00" fill="#000000">...</text>
<polygon fill="#ffffff" stroke="transparent" points="294,-365.7 294,-384.7 377,-384.7 377,-365.7 294,-365.7"/>
<polygon fill="none" stroke="#000000" points="294,-365.7 294,-384.7 377,-384.7 377,-365.7 294,-365.7"/>
<text text-anchor="start" x="297" y="-371.8" font-family="Helvetica,sans-Serif" font-size="11.00" fill="#000000">&lt; 1</text>
<polygon fill="#ffffff" stroke="transparent" points="377,-365.7 377,-384.7 420,-384.7 420,-365.7 377,-365.7"/>
<polygon fill="none" stroke="#000000" points="377,-365.7 377,-384.7 420,-384.7 420,-365.7 377,-365.7"/>
<text text-anchor="start" x="410.8862" y="-371.8" font-family="Helvetica,sans-Serif" font-size="11.00" fill="#000000"> &#160;</text>
<polygon fill="#ffffff" stroke="transparent" points="420,-365.7 420,-384.7 463,-384.7 463,-365.7 420,-365.7"/>
<polygon fill="none" stroke="#000000" points="420,-365.7 420,-384.7 463,-384.7 463,-365.7 420,-365.7"/>
<text text-anchor="start" x="453.8862" y="-371.8" font-family="Helvetica,sans-Serif" font-size="11.00" fill="#000000"> &#160;</text>
</a>
</g>
</g>
<!-- investigation_audit&#45;&gt;audit_revision -->
<g id="edge7" class="edge">
<title>investigation_audit:w&#45;&gt;audit_revision:e</title>
<path fill="none" stroke="#000000" d="M279.2635,-394.7997C251.6015,-399.3365 243.0793,-417.3212 215,-437.7 194.8923,-452.2934 198.8452,-475.7 174,-475.7"/>
<polygon fill="#000000" stroke="#000000" points="286.0222,-394.2954 294.2679,-397.29 290.0111,-393.9977 294,-393.7 294,-393.7 294,-393.7 290.0111,-393.9977 293.7321,-390.11 286.0222,-394.2954 286.0222,-394.2954"/>
<ellipse fill="none" stroke="#000000" cx="282.8311" cy="-394.5335" rx="3.2" ry="3.2"/>
</g>
<!-- plan_audit -->
<g id="node9" class="node">
<title>plan_audit</title>
<g id="a_node9"><a xlink:href="../../tables/plan_audit.html" xlink:title="plan_audit" target="_top">
<polygon fill="#ffffff" stroke="transparent" points="323.5,-284.2 323.5,-345.2 432.5,-345.2 432.5,-284.2 323.5,-284.2"/>
<polygon fill="#f5f5f5" stroke="transparent" points="324,-321.7 324,-344.7 433,-344.7 433,-321.7 324,-321.7"/>
<polygon fill="none" stroke="#000000" points="324,-321.7 324,-344.7 433,-344.7 433,-321.7 324,-321.7"/>
<text text-anchor="start" x="329" y="-330.3" font-family="Helvetica,sans-Serif" font-weight="bold" font-size="11.00" fill="#000000">plan_audit</text>
<text text-anchor="start" x="398.5219" y="-329.8" font-family="Helvetica,sans-Serif" font-size="11.00" fill="#000000">[table]</text>
<polygon fill="none" stroke="#000000" points="324,-302.7 324,-321.7 433,-321.7 433,-302.7 324,-302.7"/>
<text text-anchor="start" x="327" y="-308.8" font-family="Helvetica,sans-Serif" font-size="11.00" fill="#000000">...</text>
<polygon fill="#ffffff" stroke="transparent" points="324,-283.7 324,-302.7 377,-302.7 377,-283.7 324,-283.7"/>
<polygon fill="none" stroke="#000000" points="324,-283.7 324,-302.7 377,-302.7 377,-283.7 324,-283.7"/>
<text text-anchor="start" x="327" y="-289.8" font-family="Helvetica,sans-Serif" font-size="11.00" fill="#000000">&lt; 1</text>
<polygon fill="#ffffff" stroke="transparent" points="377,-283.7 377,-302.7 405,-302.7 405,-283.7 377,-283.7"/>
<polygon fill="none" stroke="#000000" points="377,-283.7 377,-302.7 405,-302.7 405,-283.7 377,-283.7"/>
<text text-anchor="start" x="395.8862" y="-289.8" font-family="Helvetica,sans-Serif" font-size="11.00" fill="#000000"> &#160;</text>
<polygon fill="#ffffff" stroke="transparent" points="405,-283.7 405,-302.7 433,-302.7 433,-283.7 405,-283.7"/>
<polygon fill="none" stroke="#000000" points="405,-283.7 405,-302.7 433,-302.7 433,-283.7 405,-283.7"/>
<text text-anchor="start" x="423.8862" y="-289.8" font-family="Helvetica,sans-Serif" font-size="11.00" fill="#000000"> &#160;</text>
</a>
</g>
</g>
<!-- plan_audit&#45;&gt;audit_revision -->
<g id="edge8" class="edge">
<title>plan_audit:w&#45;&gt;audit_revision:e</title>
<path fill="none" stroke="#000000" d="M309.5498,-311.8976C267.5442,-313.1889 247.4141,-321.4717 215,-355.7 176.2465,-396.6226 230.3604,-475.7 174,-475.7"/>
<polygon fill="#000000" stroke="#000000" points="316.0007,-311.8094 324.0493,-315.2997 320.0004,-311.7547 324,-311.7 324,-311.7 324,-311.7 320.0004,-311.7547 323.9507,-308.1003 316.0007,-311.8094 316.0007,-311.8094"/>
<ellipse fill="none" stroke="#000000" cx="312.801" cy="-311.8532" rx="3.2" ry="3.2"/>
</g>
<!-- referral_audit -->
<g id="node10" class="node">
<title>referral_audit</title>
<g id="a_node10"><a xlink:href="../../tables/referral_audit.html" xlink:title="referral_audit" target="_top">
<polygon fill="#ffffff" stroke="transparent" points="312.5,-202.2 312.5,-263.2 443.5,-263.2 443.5,-202.2 312.5,-202.2"/>
<polygon fill="#f5f5f5" stroke="transparent" points="313,-239.7 313,-262.7 444,-262.7 444,-239.7 313,-239.7"/>
<polygon fill="none" stroke="#000000" points="313,-239.7 313,-262.7 444,-262.7 444,-239.7 313,-239.7"/>
<text text-anchor="start" x="318" y="-248.3" font-family="Helvetica,sans-Serif" font-weight="bold" font-size="11.00" fill="#000000">referral_audit</text>
<text text-anchor="start" x="409.5219" y="-247.8" font-family="Helvetica,sans-Serif" font-size="11.00" fill="#000000">[table]</text>
<polygon fill="none" stroke="#000000" points="313,-220.7 313,-239.7 444,-239.7 444,-220.7 313,-220.7"/>
<text text-anchor="start" x="316" y="-226.8" font-family="Helvetica,sans-Serif" font-size="11.00" fill="#000000">...</text>
<polygon fill="#ffffff" stroke="transparent" points="313,-201.7 313,-220.7 377,-220.7 377,-201.7 313,-201.7"/>
<polygon fill="none" stroke="#000000" points="313,-201.7 313,-220.7 377,-220.7 377,-201.7 313,-201.7"/>
<text text-anchor="start" x="316" y="-207.8" font-family="Helvetica,sans-Serif" font-size="11.00" fill="#000000">&lt; 1</text>
<polygon fill="#ffffff" stroke="transparent" points="377,-201.7 377,-220.7 410,-220.7 410,-201.7 377,-201.7"/>
<polygon fill="none" stroke="#000000" points="377,-201.7 377,-220.7 410,-220.7 410,-201.7 377,-201.7"/>
<text text-anchor="start" x="400.8862" y="-207.8" font-family="Helvetica,sans-Serif" font-size="11.00" fill="#000000"> &#160;</text>
<polygon fill="#ffffff" stroke="transparent" points="410,-201.7 410,-220.7 444,-220.7 444,-201.7 410,-201.7"/>
<polygon fill="none" stroke="#000000" points="410,-201.7 410,-220.7 444,-220.7 444,-201.7 410,-201.7"/>
<text text-anchor="start" x="434.8862" y="-207.8" font-family="Helvetica,sans-Serif" font-size="11.00" fill="#000000"> &#160;</text>
</a>
</g>
</g>
<!-- referral_audit&#45;&gt;audit_revision -->
<g id="edge9" class="edge">
<title>referral_audit:w&#45;&gt;audit_revision:e</title>
<path fill="none" stroke="#000000" d="M298.2659,-229.9721C260.6727,-231.5339 241.5561,-240.4899 215,-273.7 157.7884,-345.2467 265.6084,-475.7 174,-475.7"/>
<polygon fill="#000000" stroke="#000000" points="305.0014,-229.8478 313.0665,-233.2994 309.0007,-229.7739 313,-229.7 313,-229.7 313,-229.7 309.0007,-229.7739 312.9335,-226.1006 305.0014,-229.8478 305.0014,-229.8478"/>
<ellipse fill="none" stroke="#000000" cx="301.8019" cy="-229.9069" rx="3.2" ry="3.2"/>
</g>
<!-- review_audit -->
<g id="node11" class="node">
<title>review_audit</title>
<g id="a_node11"><a xlink:href="../../tables/review_audit.html" xlink:title="review_audit" target="_top">
<polygon fill="#ffffff" stroke="transparent" points="315.5,-120.2 315.5,-181.2 440.5,-181.2 440.5,-120.2 315.5,-120.2"/>
<polygon fill="#f5f5f5" stroke="transparent" points="316,-157.7 316,-180.7 441,-180.7 441,-157.7 316,-157.7"/>
<polygon fill="none" stroke="#000000" points="316,-157.7 316,-180.7 441,-180.7 441,-157.7 316,-157.7"/>
<text text-anchor="start" x="321" y="-166.3" font-family="Helvetica,sans-Serif" font-weight="bold" font-size="11.00" fill="#000000">review_audit</text>
<text text-anchor="start" x="406.5219" y="-165.8" font-family="Helvetica,sans-Serif" font-size="11.00" fill="#000000">[table]</text>
<polygon fill="none" stroke="#000000" points="316,-138.7 316,-157.7 441,-157.7 441,-138.7 316,-138.7"/>
<text text-anchor="start" x="319" y="-144.8" font-family="Helvetica,sans-Serif" font-size="11.00" fill="#000000">...</text>
<polygon fill="#ffffff" stroke="transparent" points="316,-119.7 316,-138.7 377,-138.7 377,-119.7 316,-119.7"/>
<polygon fill="none" stroke="#000000" points="316,-119.7 316,-138.7 377,-138.7 377,-119.7 316,-119.7"/>
<text text-anchor="start" x="319" y="-125.8" font-family="Helvetica,sans-Serif" font-size="11.00" fill="#000000">&lt; 1</text>
<polygon fill="#ffffff" stroke="transparent" points="377,-119.7 377,-138.7 409,-138.7 409,-119.7 377,-119.7"/>
<polygon fill="none" stroke="#000000" points="377,-119.7 377,-138.7 409,-138.7 409,-119.7 377,-119.7"/>
<text text-anchor="start" x="399.8862" y="-125.8" font-family="Helvetica,sans-Serif" font-size="11.00" fill="#000000"> &#160;</text>
<polygon fill="#ffffff" stroke="transparent" points="409,-119.7 409,-138.7 441,-138.7 441,-119.7 409,-119.7"/>
<polygon fill="none" stroke="#000000" points="409,-119.7 409,-138.7 441,-138.7 441,-119.7 409,-119.7"/>
<text text-anchor="start" x="431.8862" y="-125.8" font-family="Helvetica,sans-Serif" font-size="11.00" fill="#000000"> &#160;</text>
</a>
</g>
</g>
<!-- review_audit&#45;&gt;audit_revision -->
<g id="edge10" class="edge">
<title>review_audit:w&#45;&gt;audit_revision:e</title>
<path fill="none" stroke="#000000" d="M301.3562,-147.903C262.2423,-149.1461 241.5647,-156.876 215,-191.7 176.3258,-242.3984 237.7654,-475.7 174,-475.7"/>
<polygon fill="#000000" stroke="#000000" points="308.0008,-147.8109 316.0499,-151.2997 312.0004,-147.7555 316,-147.7 316,-147.7 316,-147.7 312.0004,-147.7555 315.9501,-144.1003 308.0008,-147.8109 308.0008,-147.8109"/>
<ellipse fill="none" stroke="#000000" cx="304.8011" cy="-147.8553" rx="3.2" ry="3.2"/>
</g>
<!-- safer_custody_screening_outcome_audit -->
<g id="node12" class="node">
<title>safer_custody_screening_outcome_audit</title>
<g id="a_node12"><a xlink:href="../../tables/safer_custody_screening_outcome_audit.html" xlink:title="safer_custody_screening_outcome_audit" target="_top">
<polygon fill="#ffffff" stroke="transparent" points="223,-38.2 223,-99.2 533,-99.2 533,-38.2 223,-38.2"/>
<polygon fill="#f5f5f5" stroke="transparent" points="223,-75.7 223,-98.7 533,-98.7 533,-75.7 223,-75.7"/>
<polygon fill="none" stroke="#000000" points="223,-75.7 223,-98.7 533,-98.7 533,-75.7 223,-75.7"/>
<text text-anchor="start" x="228" y="-84.3" font-family="Helvetica,sans-Serif" font-weight="bold" font-size="11.00" fill="#000000">safer_custody_screening_outcome_audit</text>
<text text-anchor="start" x="498.5219" y="-83.8" font-family="Helvetica,sans-Serif" font-size="11.00" fill="#000000">[table]</text>
<polygon fill="none" stroke="#000000" points="223,-56.7 223,-75.7 533,-75.7 533,-56.7 223,-56.7"/>
<text text-anchor="start" x="226" y="-62.8" font-family="Helvetica,sans-Serif" font-size="11.00" fill="#000000">...</text>
<polygon fill="#ffffff" stroke="transparent" points="223,-37.7 223,-56.7 376,-56.7 376,-37.7 223,-37.7"/>
<polygon fill="none" stroke="#000000" points="223,-37.7 223,-56.7 376,-56.7 376,-37.7 223,-37.7"/>
<text text-anchor="start" x="226" y="-43.8" font-family="Helvetica,sans-Serif" font-size="11.00" fill="#000000">&lt; 1</text>
<polygon fill="#ffffff" stroke="transparent" points="376,-37.7 376,-56.7 454,-56.7 454,-37.7 376,-37.7"/>
<polygon fill="none" stroke="#000000" points="376,-37.7 376,-56.7 454,-56.7 454,-37.7 376,-37.7"/>
<text text-anchor="start" x="444.8862" y="-43.8" font-family="Helvetica,sans-Serif" font-size="11.00" fill="#000000"> &#160;</text>
<polygon fill="#ffffff" stroke="transparent" points="454,-37.7 454,-56.7 533,-56.7 533,-37.7 454,-37.7"/>
<polygon fill="none" stroke="#000000" points="454,-37.7 454,-56.7 533,-56.7 533,-37.7 454,-37.7"/>
<text text-anchor="start" x="523.8862" y="-43.8" font-family="Helvetica,sans-Serif" font-size="11.00" fill="#000000"> &#160;</text>
</a>
</g>
</g>
<!-- safer_custody_screening_outcome_audit&#45;&gt;audit_revision -->
<g id="edge11" class="edge">
<title>safer_custody_screening_outcome_audit:w&#45;&gt;audit_revision:e</title>
<path fill="none" stroke="#000000" d="M209.11,-69.7579C146.2276,-112.3393 260.3829,-475.7 174,-475.7"/>
<polygon fill="#000000" stroke="#000000" points="215.321,-67.9434 224.0095,-69.1556 219.1605,-66.8217 223,-65.7 223,-65.7 223,-65.7 219.1605,-66.8217 221.9905,-62.2444 215.321,-67.9434 215.321,-67.9434"/>
<ellipse fill="none" stroke="#000000" cx="212.2494" cy="-68.8408" rx="3.2" ry="3.2"/>
</g>
</g>
</svg>
