<?xml version="1.0" encoding="UTF-8" standalone="no"?>
<!DOCTYPE svg PUBLIC "-//W3C//DTD SVG 1.1//EN"
 "http://www.w3.org/Graphics/SVG/1.1/DTD/svg11.dtd">
<!-- Generated by graphviz version 2.40.1 (20161225.0304)
 -->
<!-- Title: twoDegreesRelationshipsDiagramImplied Pages: 1 -->
<svg width="533pt" height="571pt"
 viewBox="0.00 0.00 533.00 571.20" xmlns="http://www.w3.org/2000/svg" xmlns:xlink="http://www.w3.org/1999/xlink">
<g id="graph0" class="graph" transform="scale(1 1) rotate(0) translate(4 567.2)">
<title>twoDegreesRelationshipsDiagramImplied</title>
<polygon fill="#ffffff" stroke="transparent" points="-4,4 -4,-567.2 529,-567.2 529,4 -4,4"/>
<text text-anchor="middle" x="72.4936" y="-7.3" font-family="Helvetica,sans-Serif" font-size="11.00" fill="#000000">Generated by SchemaSpy</text>
<!-- csip_record -->
<g id="node1" class="node">
<title>csip_record</title>
<g id="a_node1"><a xlink:href="../../tables/csip_record.html" xlink:title="csip_record" target="_top">
<polygon fill="#ffffff" stroke="transparent" points="320,-498.2 320,-559.2 435,-559.2 435,-498.2 320,-498.2"/>
<polygon fill="#f5f5f5" stroke="transparent" points="320.5,-535.7 320.5,-558.7 435.5,-558.7 435.5,-535.7 320.5,-535.7"/>
<polygon fill="none" stroke="#000000" points="320.5,-535.7 320.5,-558.7 435.5,-558.7 435.5,-535.7 320.5,-535.7"/>
<text text-anchor="start" x="325.5" y="-544.3" font-family="Helvetica,sans-Serif" font-weight="bold" font-size="11.00" fill="#000000">csip_record</text>
<text text-anchor="start" x="401.0219" y="-543.8" font-family="Helvetica,sans-Serif" font-size="11.00" fill="#000000">[table]</text>
<polygon fill="none" stroke="#000000" points="320.5,-516.7 320.5,-535.7 435.5,-535.7 435.5,-516.7 320.5,-516.7"/>
<text text-anchor="start" x="323.5" y="-522.8" font-family="Helvetica,sans-Serif" font-size="11.00" fill="#000000">...</text>
<polygon fill="#ffffff" stroke="transparent" points="320.5,-497.7 320.5,-516.7 371.5,-516.7 371.5,-497.7 320.5,-497.7"/>
<polygon fill="none" stroke="#000000" points="320.5,-497.7 320.5,-516.7 371.5,-516.7 371.5,-497.7 320.5,-497.7"/>
<text text-anchor="start" x="323.5" y="-503.8" font-family="Helvetica,sans-Serif" font-size="11.00" fill="#000000">&lt; 2</text>
<polygon fill="#ffffff" stroke="transparent" points="371.5,-497.7 371.5,-516.7 398.5,-516.7 398.5,-497.7 371.5,-497.7"/>
<polygon fill="none" stroke="#000000" points="371.5,-497.7 371.5,-516.7 398.5,-516.7 398.5,-497.7 371.5,-497.7"/>
<text text-anchor="start" x="389.3862" y="-503.8" font-family="Helvetica,sans-Serif" font-size="11.00" fill="#000000"> &#160;</text>
<polygon fill="#ffffff" stroke="transparent" points="398.5,-497.7 398.5,-516.7 435.5,-516.7 435.5,-497.7 398.5,-497.7"/>
<polygon fill="none" stroke="#000000" points="398.5,-497.7 398.5,-516.7 435.5,-516.7 435.5,-497.7 398.5,-497.7"/>
<text text-anchor="start" x="416.9053" y="-503.8" font-family="Helvetica,sans-Serif" font-size="11.00" fill="#000000">2 &gt;</text>
</a>
</g>
</g>
<!-- person_summary -->
<g id="node2" class="node">
<title>person_summary</title>
<g id="a_node2"><a xlink:href="../../tables/person_summary.html" xlink:title="person_summary" target="_top">
<polygon fill="#ffffff" stroke="transparent" points="8,-351.2 8,-478.2 189,-478.2 189,-351.2 8,-351.2"/>
<polygon fill="#f5f5f5" stroke="transparent" points="8.5,-454.7 8.5,-477.7 189.5,-477.7 189.5,-454.7 8.5,-454.7"/>
<polygon fill="none" stroke="#000000" points="8.5,-454.7 8.5,-477.7 189.5,-477.7 189.5,-454.7 8.5,-454.7"/>
<text text-anchor="start" x="13.5" y="-463.3" font-family="Helvetica,sans-Serif" font-weight="bold" font-size="11.00" fill="#000000">person_summary</text>
<text text-anchor="start" x="154.5437" y="-462.8" font-family="Helvetica,sans-Serif" font-size="11.00" fill="#000000">[table]</text>
<polygon fill="none" stroke="#000000" points="8.5,-432.7 8.5,-454.7 189.5,-454.7 189.5,-432.7 8.5,-432.7"/>
<image xlink:href="../../images/primaryKeys.png" width="11px" height="12px" preserveAspectRatio="xMinYMin meet" x="13.5" y="-449.7"/>
<text text-anchor="start" x="28.5" y="-439.8" font-family="Helvetica,sans-Serif" font-size="11.00" fill="#000000">prison_number</text>
<polygon fill="#ffffff" stroke="transparent" points="8.5,-410.7 8.5,-432.7 189.5,-432.7 189.5,-410.7 8.5,-410.7"/>
<polygon fill="none" stroke="#000000" points="8.5,-410.7 8.5,-432.7 189.5,-432.7 189.5,-410.7 8.5,-410.7"/>
<text text-anchor="start" x="28.5" y="-417.8" font-family="Helvetica,sans-Serif" font-size="11.00" fill="#000000">prison_code</text>
<polygon fill="#ffffff" stroke="transparent" points="8.5,-388.7 8.5,-410.7 189.5,-410.7 189.5,-388.7 8.5,-388.7"/>
<polygon fill="none" stroke="#000000" points="8.5,-388.7 8.5,-410.7 189.5,-410.7 189.5,-388.7 8.5,-388.7"/>
<text text-anchor="start" x="28.5" y="-395.8" font-family="Helvetica,sans-Serif" font-size="11.00" fill="#000000">supporting_prison_code</text>
<polygon fill="none" stroke="#000000" points="8.5,-369.7 8.5,-388.7 189.5,-388.7 189.5,-369.7 8.5,-369.7"/>
<text text-anchor="start" x="11.5" y="-375.8" font-family="Helvetica,sans-Serif" font-size="11.00" fill="#000000">...</text>
<polygon fill="#ffffff" stroke="transparent" points="8.5,-350.7 8.5,-369.7 88.5,-369.7 88.5,-350.7 8.5,-350.7"/>
<polygon fill="none" stroke="#000000" points="8.5,-350.7 8.5,-369.7 88.5,-369.7 88.5,-350.7 8.5,-350.7"/>
<text text-anchor="start" x="11.5" y="-356.8" font-family="Helvetica,sans-Serif" font-size="11.00" fill="#000000"> &#160;</text>
<polygon fill="#ffffff" stroke="transparent" points="88.5,-350.7 88.5,-369.7 134.5,-369.7 134.5,-350.7 88.5,-350.7"/>
<polygon fill="none" stroke="#000000" points="88.5,-350.7 88.5,-369.7 134.5,-369.7 134.5,-350.7 88.5,-350.7"/>
<text text-anchor="start" x="125.3862" y="-356.8" font-family="Helvetica,sans-Serif" font-size="11.00" fill="#000000"> &#160;</text>
<polygon fill="#ffffff" stroke="transparent" points="134.5,-350.7 134.5,-369.7 189.5,-369.7 189.5,-350.7 134.5,-350.7"/>
<polygon fill="none" stroke="#000000" points="134.5,-350.7 134.5,-369.7 189.5,-369.7 189.5,-350.7 134.5,-350.7"/>
<text text-anchor="start" x="170.9053" y="-356.8" font-family="Helvetica,sans-Serif" font-size="11.00" fill="#000000">3 &gt;</text>
</a>
</g>
</g>
<!-- csip_record&#45;&gt;person_summary -->
<g id="edge1" class="edge">
<title>csip_record:w&#45;&gt;person_summary:e</title>
<path fill="none" stroke="#000000" d="M305.9785,-525.1325C273.8101,-522.3901 261.3789,-509.7326 230,-487.7 208.2479,-472.4269 216.0786,-443.7 189.5,-443.7"/>
<polygon fill="#000000" stroke="#000000" points="312.5061,-525.3876 320.3594,-529.2973 316.5031,-525.5438 320.5,-525.7 320.5,-525.7 320.5,-525.7 316.5031,-525.5438 320.6406,-522.1027 312.5061,-525.3876 312.5061,-525.3876"/>
<ellipse fill="none" stroke="#000000" cx="309.3085" cy="-525.2626" rx="3.2" ry="3.2"/>
</g>
<!-- csip_record_audit -->
<g id="node3" class="node">
<title>csip_record_audit</title>
<g id="a_node3"><a xlink:href="../../tables/csip_record_audit.html" xlink:title="csip_record_audit" target="_top">
<polygon fill="#ffffff" stroke="transparent" points="299.5,-416.2 299.5,-477.2 455.5,-477.2 455.5,-416.2 299.5,-416.2"/>
<polygon fill="#f5f5f5" stroke="transparent" points="299.5,-453.7 299.5,-476.7 455.5,-476.7 455.5,-453.7 299.5,-453.7"/>
<polygon fill="none" stroke="#000000" points="299.5,-453.7 299.5,-476.7 455.5,-476.7 455.5,-453.7 299.5,-453.7"/>
<text text-anchor="start" x="304.5" y="-462.3" font-family="Helvetica,sans-Serif" font-weight="bold" font-size="11.00" fill="#000000">csip_record_audit</text>
<text text-anchor="start" x="421.0219" y="-461.8" font-family="Helvetica,sans-Serif" font-size="11.00" fill="#000000">[table]</text>
<polygon fill="none" stroke="#000000" points="299.5,-434.7 299.5,-453.7 455.5,-453.7 455.5,-434.7 299.5,-434.7"/>
<text text-anchor="start" x="302.5" y="-440.8" font-family="Helvetica,sans-Serif" font-size="11.00" fill="#000000">...</text>
<polygon fill="#ffffff" stroke="transparent" points="299.5,-415.7 299.5,-434.7 375.5,-434.7 375.5,-415.7 299.5,-415.7"/>
<polygon fill="none" stroke="#000000" points="299.5,-415.7 299.5,-434.7 375.5,-434.7 375.5,-415.7 299.5,-415.7"/>
<text text-anchor="start" x="302.5" y="-421.8" font-family="Helvetica,sans-Serif" font-size="11.00" fill="#000000">&lt; 3</text>
<polygon fill="#ffffff" stroke="transparent" points="375.5,-415.7 375.5,-434.7 415.5,-434.7 415.5,-415.7 375.5,-415.7"/>
<polygon fill="none" stroke="#000000" points="375.5,-415.7 375.5,-434.7 415.5,-434.7 415.5,-415.7 375.5,-415.7"/>
<text text-anchor="start" x="406.3862" y="-421.8" font-family="Helvetica,sans-Serif" font-size="11.00" fill="#000000"> &#160;</text>
<polygon fill="#ffffff" stroke="transparent" points="415.5,-415.7 415.5,-434.7 455.5,-434.7 455.5,-415.7 415.5,-415.7"/>
<polygon fill="none" stroke="#000000" points="415.5,-415.7 415.5,-434.7 455.5,-434.7 455.5,-415.7 415.5,-415.7"/>
<text text-anchor="start" x="446.3862" y="-421.8" font-family="Helvetica,sans-Serif" font-size="11.00" fill="#000000"> &#160;</text>
</a>
</g>
</g>
<!-- csip_record_audit&#45;&gt;person_summary -->
<g id="edge2" class="edge">
<title>csip_record_audit:w&#45;&gt;person_summary:e</title>
<path fill="none" stroke="#000000" stroke-dasharray="5,2" d="M284.6783,-443.7C247.4989,-443.7 233.0417,-443.7 189.5,-443.7"/>
<polygon fill="#000000" stroke="#000000" points="291.5,-443.7001 299.5,-447.3 295.5,-443.7 299.5,-443.7 299.5,-443.7 299.5,-443.7 295.5,-443.7 299.5,-440.1 291.5,-443.7001 291.5,-443.7001"/>
<ellipse fill="none" stroke="#000000" cx="288.3" cy="-443.7001" rx="3.2" ry="3.2"/>
</g>
<!-- csip_summary -->
<g id="node4" class="node">
<title>csip_summary</title>
<g id="a_node4"><a xlink:href="../../tables/csip_summary.html" xlink:title="csip_summary" target="_top">
<polygon fill="#ffffff" stroke="transparent" points="238,-38.2 238,-395.2 517,-395.2 517,-38.2 238,-38.2"/>
<polygon fill="#f5f5f5" stroke="transparent" points="240.5,-369.7 240.5,-392.7 515.5,-392.7 515.5,-369.7 240.5,-369.7"/>
<polygon fill="none" stroke="#000000" points="240.5,-369.7 240.5,-392.7 515.5,-392.7 515.5,-369.7 240.5,-369.7"/>
<text text-anchor="start" x="245.5" y="-378.3" font-family="Helvetica,sans-Serif" font-weight="bold" font-size="11.00" fill="#000000">csip_summary</text>
<text text-anchor="start" x="482.3895" y="-377.8" font-family="Helvetica,sans-Serif" font-size="11.00" fill="#000000">[view]</text>
<polygon fill="none" stroke="#000000" points="240.5,-347.7 240.5,-369.7 421.5,-369.7 421.5,-347.7 240.5,-347.7"/>
<image xlink:href="../../images/foreignKeys.png" width="11px" height="12px" preserveAspectRatio="xMinYMin meet" x="245.5" y="-364.7"/>
<text text-anchor="start" x="260.5" y="-354.8" font-family="Helvetica,sans-Serif" font-size="11.00" fill="#000000">prison_number</text>
<polygon fill="none" stroke="#000000" points="421.5,-347.7 421.5,-369.7 515.5,-369.7 515.5,-347.7 421.5,-347.7"/>
<text text-anchor="start" x="424.5" y="-355.4" font-family="Helvetica,sans-Serif" font-size="11.00" fill="#000000">varchar[10]</text>
<polygon fill="none" stroke="#000000" points="240.5,-325.7 240.5,-347.7 421.5,-347.7 421.5,-325.7 240.5,-325.7"/>
<text text-anchor="start" x="260.5" y="-332.8" font-family="Helvetica,sans-Serif" font-size="11.00" fill="#000000">first_name</text>
<polygon fill="none" stroke="#000000" points="421.5,-325.7 421.5,-347.7 515.5,-347.7 515.5,-325.7 421.5,-325.7"/>
<text text-anchor="start" x="424.5" y="-333.4" font-family="Helvetica,sans-Serif" font-size="11.00" fill="#000000">varchar[64]</text>
<polygon fill="none" stroke="#000000" points="240.5,-303.7 240.5,-325.7 421.5,-325.7 421.5,-303.7 240.5,-303.7"/>
<text text-anchor="start" x="260.5" y="-310.8" font-family="Helvetica,sans-Serif" font-size="11.00" fill="#000000">last_name</text>
<polygon fill="none" stroke="#000000" points="421.5,-303.7 421.5,-325.7 515.5,-325.7 515.5,-303.7 421.5,-303.7"/>
<text text-anchor="start" x="424.5" y="-311.4" font-family="Helvetica,sans-Serif" font-size="11.00" fill="#000000">varchar[64]</text>
<polygon fill="none" stroke="#000000" points="240.5,-281.7 240.5,-303.7 421.5,-303.7 421.5,-281.7 240.5,-281.7"/>
<text text-anchor="start" x="260.5" y="-288.8" font-family="Helvetica,sans-Serif" font-size="11.00" fill="#000000">restricted_patient</text>
<polygon fill="none" stroke="#000000" points="421.5,-281.7 421.5,-303.7 515.5,-303.7 515.5,-281.7 421.5,-281.7"/>
<text text-anchor="start" x="424.5" y="-289.4" font-family="Helvetica,sans-Serif" font-size="11.00" fill="#000000">bool[1]</text>
<polygon fill="none" stroke="#000000" points="240.5,-259.7 240.5,-281.7 421.5,-281.7 421.5,-259.7 240.5,-259.7"/>
<text text-anchor="start" x="260.5" y="-266.8" font-family="Helvetica,sans-Serif" font-size="11.00" fill="#000000">prison_code</text>
<polygon fill="none" stroke="#000000" points="421.5,-259.7 421.5,-281.7 515.5,-281.7 515.5,-259.7 421.5,-259.7"/>
<text text-anchor="start" x="424.5" y="-267.4" font-family="Helvetica,sans-Serif" font-size="11.00" fill="#000000">varchar[16]</text>
<polygon fill="none" stroke="#000000" points="240.5,-237.7 240.5,-259.7 421.5,-259.7 421.5,-237.7 240.5,-237.7"/>
<text text-anchor="start" x="260.5" y="-244.8" font-family="Helvetica,sans-Serif" font-size="11.00" fill="#000000">cell_location</text>
<polygon fill="none" stroke="#000000" points="421.5,-237.7 421.5,-259.7 515.5,-259.7 515.5,-237.7 421.5,-237.7"/>
<text text-anchor="start" x="424.5" y="-245.4" font-family="Helvetica,sans-Serif" font-size="11.00" fill="#000000">varchar[64]</text>
<polygon fill="none" stroke="#000000" points="240.5,-215.7 240.5,-237.7 421.5,-237.7 421.5,-215.7 240.5,-215.7"/>
<text text-anchor="start" x="260.5" y="-222.8" font-family="Helvetica,sans-Serif" font-size="11.00" fill="#000000">supporting_prison_code</text>
<polygon fill="none" stroke="#000000" points="421.5,-215.7 421.5,-237.7 515.5,-237.7 515.5,-215.7 421.5,-215.7"/>
<text text-anchor="start" x="424.5" y="-223.4" font-family="Helvetica,sans-Serif" font-size="11.00" fill="#000000">varchar[16]</text>
<polygon fill="none" stroke="#000000" points="240.5,-193.7 240.5,-215.7 421.5,-215.7 421.5,-193.7 240.5,-193.7"/>
<text text-anchor="start" x="260.5" y="-200.8" font-family="Helvetica,sans-Serif" font-size="11.00" fill="#000000">referral_date</text>
<polygon fill="none" stroke="#000000" points="421.5,-193.7 421.5,-215.7 515.5,-215.7 515.5,-193.7 421.5,-193.7"/>
<text text-anchor="start" x="424.5" y="-201.4" font-family="Helvetica,sans-Serif" font-size="11.00" fill="#000000">date[13]</text>
<polygon fill="none" stroke="#000000" points="240.5,-171.7 240.5,-193.7 421.5,-193.7 421.5,-171.7 240.5,-171.7"/>
<text text-anchor="start" x="260.5" y="-178.8" font-family="Helvetica,sans-Serif" font-size="11.00" fill="#000000">next_review_date</text>
<polygon fill="none" stroke="#000000" points="421.5,-171.7 421.5,-193.7 515.5,-193.7 515.5,-171.7 421.5,-171.7"/>
<text text-anchor="start" x="424.5" y="-179.4" font-family="Helvetica,sans-Serif" font-size="11.00" fill="#000000">date[13]</text>
<polygon fill="none" stroke="#000000" points="240.5,-149.7 240.5,-171.7 421.5,-171.7 421.5,-149.7 240.5,-149.7"/>
<text text-anchor="start" x="260.5" y="-156.8" font-family="Helvetica,sans-Serif" font-size="11.00" fill="#000000">case_manager</text>
<polygon fill="none" stroke="#000000" points="421.5,-149.7 421.5,-171.7 515.5,-171.7 515.5,-149.7 421.5,-149.7"/>
<text text-anchor="start" x="424.5" y="-157.4" font-family="Helvetica,sans-Serif" font-size="11.00" fill="#000000">varchar[100]</text>
<polygon fill="none" stroke="#000000" points="240.5,-127.7 240.5,-149.7 421.5,-149.7 421.5,-127.7 240.5,-127.7"/>
<text text-anchor="start" x="260.5" y="-134.8" font-family="Helvetica,sans-Serif" font-size="11.00" fill="#000000">id</text>
<polygon fill="none" stroke="#000000" points="421.5,-127.7 421.5,-149.7 515.5,-149.7 515.5,-127.7 421.5,-127.7"/>
<text text-anchor="start" x="424.4758" y="-135.4" font-family="Helvetica,sans-Serif" font-size="11.00" fill="#000000">uuid[2147483647]</text>
<polygon fill="none" stroke="#000000" points="240.5,-105.7 240.5,-127.7 421.5,-127.7 421.5,-105.7 240.5,-105.7"/>
<text text-anchor="start" x="260.5" y="-112.8" font-family="Helvetica,sans-Serif" font-size="11.00" fill="#000000">closed_date</text>
<polygon fill="none" stroke="#000000" points="421.5,-105.7 421.5,-127.7 515.5,-127.7 515.5,-105.7 421.5,-105.7"/>
<text text-anchor="start" x="424.5" y="-113.4" font-family="Helvetica,sans-Serif" font-size="11.00" fill="#000000">date[13]</text>
<polygon fill="none" stroke="#000000" points="240.5,-83.7 240.5,-105.7 421.5,-105.7 421.5,-83.7 240.5,-83.7"/>
<text text-anchor="start" x="260.5" y="-90.8" font-family="Helvetica,sans-Serif" font-size="11.00" fill="#000000">priority</text>
<polygon fill="none" stroke="#000000" points="421.5,-83.7 421.5,-105.7 515.5,-105.7 515.5,-83.7 421.5,-83.7"/>
<text text-anchor="start" x="424.5" y="-91.4" font-family="Helvetica,sans-Serif" font-size="11.00" fill="#000000">int4[10]</text>
<polygon fill="none" stroke="#000000" points="240.5,-61.7 240.5,-83.7 421.5,-83.7 421.5,-61.7 240.5,-61.7"/>
<text text-anchor="start" x="260.5" y="-68.8" font-family="Helvetica,sans-Serif" font-size="11.00" fill="#000000">status_code</text>
<polygon fill="none" stroke="#000000" points="421.5,-61.7 421.5,-83.7 515.5,-83.7 515.5,-61.7 421.5,-61.7"/>
<text text-anchor="start" x="424.5" y="-69.4" font-family="Helvetica,sans-Serif" font-size="11.00" fill="#000000">varchar[32]</text>
<polygon fill="none" stroke="#000000" points="240.5,-39.7 240.5,-61.7 421.5,-61.7 421.5,-39.7 240.5,-39.7"/>
<text text-anchor="start" x="260.5" y="-46.8" font-family="Helvetica,sans-Serif" font-size="11.00" fill="#000000">status_description</text>
<polygon fill="none" stroke="#000000" points="421.5,-39.7 421.5,-61.7 515.5,-61.7 515.5,-39.7 421.5,-39.7"/>
<text text-anchor="start" x="424.5" y="-47.4" font-family="Helvetica,sans-Serif" font-size="11.00" fill="#000000">varchar[40]</text>
<polygon fill="none" stroke="#000000" stroke-width="2" points="239,-39.2 239,-394.2 516,-394.2 516,-39.2 239,-39.2"/>
</a>
</g>
</g>
<!-- csip_summary&#45;&gt;person_summary -->
<g id="edge3" class="edge">
<title>csip_summary:w&#45;&gt;person_summary:e</title>
<path fill="none" stroke="#000000" stroke-dasharray="5,2" d="M226.5669,-363.032C205.0746,-380.3534 227.5328,-443.7 189.5,-443.7"/>
<polygon fill="#000000" stroke="#000000" points="232.8607,-361.0752 241.5688,-362.1377 236.6804,-359.8876 240.5,-358.7 240.5,-358.7 240.5,-358.7 236.6804,-359.8876 239.4312,-355.2623 232.8607,-361.0752 232.8607,-361.0752"/>
<ellipse fill="none" stroke="#000000" cx="229.805" cy="-362.0253" rx="3.2" ry="3.2"/>
</g>
</g>
</svg>
