<?xml version="1.0" encoding="UTF-8" standalone="no"?>
<!DOCTYPE svg PUBLIC "-//W3C//DTD SVG 1.1//EN"
 "http://www.w3.org/Graphics/SVG/1.1/DTD/svg11.dtd">
<!-- Generated by graphviz version 2.40.1 (20161225.0304)
 -->
<!-- Title: oneDegreeRelationshipsDiagramImplied Pages: 1 -->
<svg width="880pt" height="451pt"
 viewBox="0.00 0.00 880.00 451.20" xmlns="http://www.w3.org/2000/svg" xmlns:xlink="http://www.w3.org/1999/xlink">
<g id="graph0" class="graph" transform="scale(1 1) rotate(0) translate(4 447.2)">
<title>oneDegreeRelationshipsDiagramImplied</title>
<polygon fill="#ffffff" stroke="transparent" points="-4,4 -4,-447.2 876,-447.2 876,4 -4,4"/>
<text text-anchor="middle" x="72.4936" y="-7.3" font-family="Helvetica,sans-Serif" font-size="11.00" fill="#000000">Generated by SchemaSpy</text>
<!-- csip_record -->
<g id="node1" class="node">
<title>csip_record</title>
<g id="a_node1"><a xlink:href="../../tables/csip_record.html" xlink:title="csip_record" target="_top">
<polygon fill="#ffffff" stroke="transparent" points="238,-203.7 238,-403.7 546,-403.7 546,-203.7 238,-203.7"/>
<polygon fill="#f5f5f5" stroke="transparent" points="240,-378.7 240,-401.7 544,-401.7 544,-378.7 240,-378.7"/>
<polygon fill="none" stroke="#000000" points="240,-378.7 240,-401.7 544,-401.7 544,-378.7 240,-378.7"/>
<text text-anchor="start" x="245" y="-387.3" font-family="Helvetica,sans-Serif" font-weight="bold" font-size="11.00" fill="#000000">csip_record</text>
<text text-anchor="start" x="509.0437" y="-386.8" font-family="Helvetica,sans-Serif" font-size="11.00" fill="#000000">[table]</text>
<polygon fill="none" stroke="#000000" points="240,-356.7 240,-378.7 450,-378.7 450,-356.7 240,-356.7"/>
<image xlink:href="../../images/primaryKeys.png" width="11px" height="12px" preserveAspectRatio="xMinYMin meet" x="245" y="-373.7"/>
<text text-anchor="start" x="260" y="-363.8" font-family="Helvetica,sans-Serif" font-size="11.00" fill="#000000">record_id</text>
<polygon fill="none" stroke="#000000" points="450,-356.7 450,-378.7 544,-378.7 544,-356.7 450,-356.7"/>
<text text-anchor="start" x="452.9758" y="-364.4" font-family="Helvetica,sans-Serif" font-size="11.00" fill="#000000">uuid[2147483647]</text>
<polygon fill="#ffffff" stroke="transparent" points="240,-334.7 240,-356.7 450,-356.7 450,-334.7 240,-334.7"/>
<polygon fill="none" stroke="#000000" points="240,-334.7 240,-356.7 450,-356.7 450,-334.7 240,-334.7"/>
<image xlink:href="../../images/foreignKeys.png" width="11px" height="12px" preserveAspectRatio="xMinYMin meet" x="245" y="-351.7"/>
<text text-anchor="start" x="260" y="-341.8" font-family="Helvetica,sans-Serif" font-size="11.00" fill="#000000">prison_number</text>
<polygon fill="none" stroke="#000000" points="450,-334.7 450,-356.7 544,-356.7 544,-334.7 450,-334.7"/>
<text text-anchor="start" x="453" y="-342.4" font-family="Helvetica,sans-Serif" font-size="11.00" fill="#000000">varchar[10]</text>
<polygon fill="none" stroke="#000000" points="240,-312.7 240,-334.7 450,-334.7 450,-312.7 240,-312.7"/>
<text text-anchor="start" x="260" y="-319.8" font-family="Helvetica,sans-Serif" font-size="11.00" fill="#000000">prison_code_when_recorded</text>
<polygon fill="none" stroke="#000000" points="450,-312.7 450,-334.7 544,-334.7 544,-312.7 450,-312.7"/>
<text text-anchor="start" x="453" y="-320.4" font-family="Helvetica,sans-Serif" font-size="11.00" fill="#000000">varchar[6]</text>
<polygon fill="none" stroke="#000000" points="240,-290.7 240,-312.7 450,-312.7 450,-290.7 240,-290.7"/>
<text text-anchor="start" x="260" y="-297.8" font-family="Helvetica,sans-Serif" font-size="11.00" fill="#000000">log_code</text>
<polygon fill="none" stroke="#000000" points="450,-290.7 450,-312.7 544,-312.7 544,-290.7 450,-290.7"/>
<text text-anchor="start" x="453" y="-298.4" font-family="Helvetica,sans-Serif" font-size="11.00" fill="#000000">varchar[10]</text>
<polygon fill="none" stroke="#000000" points="240,-268.7 240,-290.7 450,-290.7 450,-268.7 240,-268.7"/>
<text text-anchor="start" x="260" y="-275.8" font-family="Helvetica,sans-Serif" font-size="11.00" fill="#000000">version</text>
<polygon fill="none" stroke="#000000" points="450,-268.7 450,-290.7 544,-290.7 544,-268.7 450,-268.7"/>
<text text-anchor="start" x="453" y="-276.4" font-family="Helvetica,sans-Serif" font-size="11.00" fill="#000000">int4[10]</text>
<polygon fill="#ffffff" stroke="transparent" points="240,-246.7 240,-268.7 450,-268.7 450,-246.7 240,-246.7"/>
<polygon fill="none" stroke="#000000" points="240,-246.7 240,-268.7 450,-268.7 450,-246.7 240,-246.7"/>
<image xlink:href="../../images/foreignKeys.png" width="11px" height="12px" preserveAspectRatio="xMinYMin meet" x="245" y="-263.7"/>
<text text-anchor="start" x="260" y="-253.8" font-family="Helvetica,sans-Serif" font-size="11.00" fill="#000000">legacy_id</text>
<polygon fill="none" stroke="#000000" points="450,-246.7 450,-268.7 544,-268.7 544,-246.7 450,-246.7"/>
<text text-anchor="start" x="453" y="-254.4" font-family="Helvetica,sans-Serif" font-size="11.00" fill="#000000">int8[19]</text>
<polygon fill="#ffffff" stroke="transparent" points="240,-224.7 240,-246.7 450,-246.7 450,-224.7 240,-224.7"/>
<polygon fill="none" stroke="#000000" points="240,-224.7 240,-246.7 450,-246.7 450,-224.7 240,-224.7"/>
<image xlink:href="../../images/foreignKeys.png" width="11px" height="12px" preserveAspectRatio="xMinYMin meet" x="245" y="-241.7"/>
<text text-anchor="start" x="260" y="-231.8" font-family="Helvetica,sans-Serif" font-size="11.00" fill="#000000">status_id</text>
<polygon fill="none" stroke="#000000" points="450,-224.7 450,-246.7 544,-246.7 544,-224.7 450,-224.7"/>
<text text-anchor="start" x="453" y="-232.4" font-family="Helvetica,sans-Serif" font-size="11.00" fill="#000000">int8[19]</text>
<polygon fill="#ffffff" stroke="transparent" points="240,-205.7 240,-224.7 349,-224.7 349,-205.7 240,-205.7"/>
<polygon fill="none" stroke="#000000" points="240,-205.7 240,-224.7 349,-224.7 349,-205.7 240,-205.7"/>
<text text-anchor="start" x="243" y="-211.8" font-family="Helvetica,sans-Serif" font-size="11.00" fill="#000000">&lt; 3</text>
<polygon fill="#ffffff" stroke="transparent" points="349,-205.7 349,-224.7 450,-224.7 450,-205.7 349,-205.7"/>
<polygon fill="none" stroke="#000000" points="349,-205.7 349,-224.7 450,-224.7 450,-205.7 349,-205.7"/>
<text text-anchor="start" x="440.8862" y="-211.8" font-family="Helvetica,sans-Serif" font-size="11.00" fill="#000000"> &#160;</text>
<polygon fill="#ffffff" stroke="transparent" points="450,-205.7 450,-224.7 544,-224.7 544,-205.7 450,-205.7"/>
<polygon fill="none" stroke="#000000" points="450,-205.7 450,-224.7 544,-224.7 544,-205.7 450,-205.7"/>
<text text-anchor="start" x="525.4053" y="-211.8" font-family="Helvetica,sans-Serif" font-size="11.00" fill="#000000">2 &gt;</text>
<polygon fill="none" stroke="#000000" stroke-width="2" points="239,-204.7 239,-402.7 545,-402.7 545,-204.7 239,-204.7"/>
</a>
</g>
</g>
<!-- audit_revision -->
<g id="node2" class="node">
<title>audit_revision</title>
<g id="a_node2"><a xlink:href="../../tables/audit_revision.html" xlink:title="audit_revision" target="_top">
<polygon fill="#ffffff" stroke="transparent" points="15.5,-208.2 15.5,-291.2 181.5,-291.2 181.5,-208.2 15.5,-208.2"/>
<polygon fill="#f5f5f5" stroke="transparent" points="15.5,-267.7 15.5,-290.7 181.5,-290.7 181.5,-267.7 15.5,-267.7"/>
<polygon fill="none" stroke="#000000" points="15.5,-267.7 15.5,-290.7 181.5,-290.7 181.5,-267.7 15.5,-267.7"/>
<text text-anchor="start" x="20.5" y="-276.3" font-family="Helvetica,sans-Serif" font-weight="bold" font-size="11.00" fill="#000000">audit_revision</text>
<text text-anchor="start" x="146.5437" y="-275.8" font-family="Helvetica,sans-Serif" font-size="11.00" fill="#000000">[table]</text>
<polygon fill="none" stroke="#000000" points="15.5,-245.7 15.5,-267.7 181.5,-267.7 181.5,-245.7 15.5,-245.7"/>
<image xlink:href="../../images/primaryKeys.png" width="11px" height="12px" preserveAspectRatio="xMinYMin meet" x="20.5" y="-262.7"/>
<text text-anchor="start" x="35.5" y="-252.8" font-family="Helvetica,sans-Serif" font-size="11.00" fill="#000000">id</text>
<polygon fill="none" stroke="#000000" points="15.5,-226.7 15.5,-245.7 181.5,-245.7 181.5,-226.7 15.5,-226.7"/>
<text text-anchor="start" x="18.5" y="-232.8" font-family="Helvetica,sans-Serif" font-size="11.00" fill="#000000">...</text>
<polygon fill="#ffffff" stroke="transparent" points="15.5,-207.7 15.5,-226.7 84.5,-226.7 84.5,-207.7 15.5,-207.7"/>
<polygon fill="none" stroke="#000000" points="15.5,-207.7 15.5,-226.7 84.5,-226.7 84.5,-207.7 15.5,-207.7"/>
<text text-anchor="start" x="18.5" y="-213.8" font-family="Helvetica,sans-Serif" font-size="11.00" fill="#000000"> &#160;</text>
<polygon fill="#ffffff" stroke="transparent" points="84.5,-207.7 84.5,-226.7 125.5,-226.7 125.5,-207.7 84.5,-207.7"/>
<polygon fill="none" stroke="#000000" points="84.5,-207.7 84.5,-226.7 125.5,-226.7 125.5,-207.7 84.5,-207.7"/>
<text text-anchor="start" x="116.3862" y="-213.8" font-family="Helvetica,sans-Serif" font-size="11.00" fill="#000000"> &#160;</text>
<polygon fill="#ffffff" stroke="transparent" points="125.5,-207.7 125.5,-226.7 181.5,-226.7 181.5,-207.7 125.5,-207.7"/>
<polygon fill="none" stroke="#000000" points="125.5,-207.7 125.5,-226.7 181.5,-226.7 181.5,-207.7 125.5,-207.7"/>
<text text-anchor="start" x="156.7904" y="-213.8" font-family="Helvetica,sans-Serif" font-size="11.00" fill="#000000">33 &gt;</text>
</a>
</g>
</g>
<!-- csip_record&#45;&gt;audit_revision -->
<g id="edge1" class="edge">
<title>csip_record:w&#45;&gt;audit_revision:e</title>
<path fill="none" stroke="#000000" stroke-dasharray="5,2" d="M229.5823,-257.6404C211.6389,-257.4252 203.6439,-256.7 181.5,-256.7"/>
<polygon fill="#000000" stroke="#000000" points="239.2229,-253.6955 239.1771,-261.6954 237.5771,-261.6862 237.6229,-253.6863 239.2229,-253.6955"/>
<polyline fill="none" stroke="#000000" points="240,-257.7 236.0001,-257.6771 "/>
<ellipse fill="none" stroke="#000000" cx="232.8001" cy="-257.6588" rx="3.2" ry="3.2"/>
</g>
<!-- person_summary -->
<g id="node3" class="node">
<title>person_summary</title>
<g id="a_node3"><a xlink:href="../../tables/person_summary.html" xlink:title="person_summary" target="_top">
<polygon fill="#ffffff" stroke="transparent" points="8,-312.2 8,-439.2 189,-439.2 189,-312.2 8,-312.2"/>
<polygon fill="#f5f5f5" stroke="transparent" points="8.5,-415.7 8.5,-438.7 189.5,-438.7 189.5,-415.7 8.5,-415.7"/>
<polygon fill="none" stroke="#000000" points="8.5,-415.7 8.5,-438.7 189.5,-438.7 189.5,-415.7 8.5,-415.7"/>
<text text-anchor="start" x="13.5" y="-424.3" font-family="Helvetica,sans-Serif" font-weight="bold" font-size="11.00" fill="#000000">person_summary</text>
<text text-anchor="start" x="154.5437" y="-423.8" font-family="Helvetica,sans-Serif" font-size="11.00" fill="#000000">[table]</text>
<polygon fill="none" stroke="#000000" points="8.5,-393.7 8.5,-415.7 189.5,-415.7 189.5,-393.7 8.5,-393.7"/>
<image xlink:href="../../images/primaryKeys.png" width="11px" height="12px" preserveAspectRatio="xMinYMin meet" x="13.5" y="-410.7"/>
<text text-anchor="start" x="28.5" y="-400.8" font-family="Helvetica,sans-Serif" font-size="11.00" fill="#000000">prison_number</text>
<polygon fill="#ffffff" stroke="transparent" points="8.5,-371.7 8.5,-393.7 189.5,-393.7 189.5,-371.7 8.5,-371.7"/>
<polygon fill="none" stroke="#000000" points="8.5,-371.7 8.5,-393.7 189.5,-393.7 189.5,-371.7 8.5,-371.7"/>
<text text-anchor="start" x="28.5" y="-378.8" font-family="Helvetica,sans-Serif" font-size="11.00" fill="#000000">prison_code</text>
<polygon fill="#ffffff" stroke="transparent" points="8.5,-349.7 8.5,-371.7 189.5,-371.7 189.5,-349.7 8.5,-349.7"/>
<polygon fill="none" stroke="#000000" points="8.5,-349.7 8.5,-371.7 189.5,-371.7 189.5,-349.7 8.5,-349.7"/>
<text text-anchor="start" x="28.5" y="-356.8" font-family="Helvetica,sans-Serif" font-size="11.00" fill="#000000">supporting_prison_code</text>
<polygon fill="none" stroke="#000000" points="8.5,-330.7 8.5,-349.7 189.5,-349.7 189.5,-330.7 8.5,-330.7"/>
<text text-anchor="start" x="11.5" y="-336.8" font-family="Helvetica,sans-Serif" font-size="11.00" fill="#000000">...</text>
<polygon fill="#ffffff" stroke="transparent" points="8.5,-311.7 8.5,-330.7 88.5,-330.7 88.5,-311.7 8.5,-311.7"/>
<polygon fill="none" stroke="#000000" points="8.5,-311.7 8.5,-330.7 88.5,-330.7 88.5,-311.7 8.5,-311.7"/>
<text text-anchor="start" x="11.5" y="-317.8" font-family="Helvetica,sans-Serif" font-size="11.00" fill="#000000"> &#160;</text>
<polygon fill="#ffffff" stroke="transparent" points="88.5,-311.7 88.5,-330.7 134.5,-330.7 134.5,-311.7 88.5,-311.7"/>
<polygon fill="none" stroke="#000000" points="88.5,-311.7 88.5,-330.7 134.5,-330.7 134.5,-311.7 88.5,-311.7"/>
<text text-anchor="start" x="125.3862" y="-317.8" font-family="Helvetica,sans-Serif" font-size="11.00" fill="#000000"> &#160;</text>
<polygon fill="#ffffff" stroke="transparent" points="134.5,-311.7 134.5,-330.7 189.5,-330.7 189.5,-311.7 134.5,-311.7"/>
<polygon fill="none" stroke="#000000" points="134.5,-311.7 134.5,-330.7 189.5,-330.7 189.5,-311.7 134.5,-311.7"/>
<text text-anchor="start" x="170.9053" y="-317.8" font-family="Helvetica,sans-Serif" font-size="11.00" fill="#000000">1 &gt;</text>
</a>
</g>
</g>
<!-- csip_record&#45;&gt;person_summary -->
<g id="edge2" class="edge">
<title>csip_record:w&#45;&gt;person_summary:e</title>
<path fill="none" stroke="#000000" d="M225.9165,-350.7303C210.4311,-364.9982 217.814,-404.7 189.5,-404.7"/>
<polygon fill="#000000" stroke="#000000" points="232.4661,-348.391 241.2109,-349.0902 236.2331,-347.0455 240,-345.7 240,-345.7 240,-345.7 236.2331,-347.0455 238.7891,-342.3098 232.4661,-348.391 232.4661,-348.391"/>
<ellipse fill="none" stroke="#000000" cx="229.4526" cy="-349.4674" rx="3.2" ry="3.2"/>
</g>
<!-- reference_data -->
<g id="node4" class="node">
<title>reference_data</title>
<g id="a_node4"><a xlink:href="../../tables/reference_data.html" xlink:title="reference_data" target="_top">
<polygon fill="#ffffff" stroke="transparent" points="28,-38.2 28,-187.2 169,-187.2 169,-38.2 28,-38.2"/>
<polygon fill="#f5f5f5" stroke="transparent" points="28.5,-163.7 28.5,-186.7 169.5,-186.7 169.5,-163.7 28.5,-163.7"/>
<polygon fill="none" stroke="#000000" points="28.5,-163.7 28.5,-186.7 169.5,-186.7 169.5,-163.7 28.5,-163.7"/>
<text text-anchor="start" x="33.5" y="-172.3" font-family="Helvetica,sans-Serif" font-weight="bold" font-size="11.00" fill="#000000">reference_data</text>
<text text-anchor="start" x="135.0219" y="-171.8" font-family="Helvetica,sans-Serif" font-size="11.00" fill="#000000">[table]</text>
<polygon fill="none" stroke="#000000" points="28.5,-141.7 28.5,-163.7 169.5,-163.7 169.5,-141.7 28.5,-141.7"/>
<image xlink:href="../../images/primaryKeys.png" width="11px" height="12px" preserveAspectRatio="xMinYMin meet" x="33.5" y="-158.7"/>
<text text-anchor="start" x="48.5" y="-148.8" font-family="Helvetica,sans-Serif" font-size="11.00" fill="#000000">reference_data_id</text>
<polygon fill="#ffffff" stroke="transparent" points="28.5,-119.7 28.5,-141.7 169.5,-141.7 169.5,-119.7 28.5,-119.7"/>
<polygon fill="none" stroke="#000000" points="28.5,-119.7 28.5,-141.7 169.5,-141.7 169.5,-119.7 28.5,-119.7"/>
<text text-anchor="start" x="48.5" y="-126.8" font-family="Helvetica,sans-Serif" font-size="11.00" fill="#000000">domain</text>
<polygon fill="#ffffff" stroke="transparent" points="28.5,-97.7 28.5,-119.7 169.5,-119.7 169.5,-97.7 28.5,-97.7"/>
<polygon fill="none" stroke="#000000" points="28.5,-97.7 28.5,-119.7 169.5,-119.7 169.5,-97.7 28.5,-97.7"/>
<text text-anchor="start" x="48.5" y="-104.8" font-family="Helvetica,sans-Serif" font-size="11.00" fill="#000000">code</text>
<polygon fill="#ffffff" stroke="transparent" points="28.5,-75.7 28.5,-97.7 169.5,-97.7 169.5,-75.7 28.5,-75.7"/>
<polygon fill="none" stroke="#000000" points="28.5,-75.7 28.5,-97.7 169.5,-97.7 169.5,-75.7 28.5,-75.7"/>
<text text-anchor="start" x="48.5" y="-82.8" font-family="Helvetica,sans-Serif" font-size="11.00" fill="#000000">list_sequence</text>
<polygon fill="none" stroke="#000000" points="28.5,-56.7 28.5,-75.7 169.5,-75.7 169.5,-56.7 28.5,-56.7"/>
<text text-anchor="start" x="31.5" y="-62.8" font-family="Helvetica,sans-Serif" font-size="11.00" fill="#000000">...</text>
<polygon fill="#ffffff" stroke="transparent" points="28.5,-37.7 28.5,-56.7 66.5,-56.7 66.5,-37.7 28.5,-37.7"/>
<polygon fill="none" stroke="#000000" points="28.5,-37.7 28.5,-56.7 66.5,-56.7 66.5,-37.7 28.5,-37.7"/>
<text text-anchor="start" x="31.5" y="-43.8" font-family="Helvetica,sans-Serif" font-size="11.00" fill="#000000"> &#160;</text>
<polygon fill="#ffffff" stroke="transparent" points="66.5,-37.7 66.5,-56.7 129.5,-56.7 129.5,-37.7 66.5,-37.7"/>
<polygon fill="none" stroke="#000000" points="66.5,-37.7 66.5,-56.7 129.5,-56.7 129.5,-37.7 66.5,-37.7"/>
<text text-anchor="start" x="81.8807" y="-43.8" font-family="Helvetica,sans-Serif" font-size="11.00" fill="#000000">112 rows</text>
<polygon fill="#ffffff" stroke="transparent" points="129.5,-37.7 129.5,-56.7 169.5,-56.7 169.5,-37.7 129.5,-37.7"/>
<polygon fill="none" stroke="#000000" points="129.5,-37.7 129.5,-56.7 169.5,-56.7 169.5,-37.7 129.5,-37.7"/>
<text text-anchor="start" x="144.7904" y="-43.8" font-family="Helvetica,sans-Serif" font-size="11.00" fill="#000000">10 &gt;</text>
</a>
</g>
</g>
<!-- csip_record&#45;&gt;reference_data -->
<g id="edge3" class="edge">
<title>csip_record:w&#45;&gt;reference_data:e</title>
<path fill="none" stroke="#000000" d="M225.8215,-232.5477C196.7382,-217.3867 212.2282,-152.7 169.5,-152.7"/>
<polygon fill="#000000" stroke="#000000" points="232.1907,-233.9637 239.2187,-239.2142 236.0953,-234.8318 240,-235.7 240,-235.7 240,-235.7 236.0953,-234.8318 240.7813,-232.1858 232.1907,-233.9637 232.1907,-233.9637"/>
<ellipse fill="none" stroke="#000000" cx="229.067" cy="-233.2692" rx="3.2" ry="3.2"/>
</g>
<!-- plan -->
<g id="node5" class="node">
<title>plan</title>
<g id="a_node5"><a xlink:href="../../tables/plan.html" xlink:title="plan" target="_top">
<polygon fill="#ffffff" stroke="transparent" points="643,-297.2 643,-402.2 816,-402.2 816,-297.2 643,-297.2"/>
<polygon fill="#f5f5f5" stroke="transparent" points="643.5,-378.7 643.5,-401.7 816.5,-401.7 816.5,-378.7 643.5,-378.7"/>
<polygon fill="none" stroke="#000000" points="643.5,-378.7 643.5,-401.7 816.5,-401.7 816.5,-378.7 643.5,-378.7"/>
<text text-anchor="start" x="648.5" y="-387.3" font-family="Helvetica,sans-Serif" font-weight="bold" font-size="11.00" fill="#000000">plan</text>
<text text-anchor="start" x="781.5437" y="-386.8" font-family="Helvetica,sans-Serif" font-size="11.00" fill="#000000">[table]</text>
<polygon fill="none" stroke="#000000" points="643.5,-356.7 643.5,-378.7 816.5,-378.7 816.5,-356.7 643.5,-356.7"/>
<image xlink:href="../../images/primaryKeys.png" width="11px" height="12px" preserveAspectRatio="xMinYMin meet" x="648.5" y="-373.7"/>
<text text-anchor="start" x="663.5" y="-363.8" font-family="Helvetica,sans-Serif" font-size="11.00" fill="#000000">plan_id</text>
<polygon fill="#ffffff" stroke="transparent" points="643.5,-334.7 643.5,-356.7 816.5,-356.7 816.5,-334.7 643.5,-334.7"/>
<polygon fill="none" stroke="#000000" points="643.5,-334.7 643.5,-356.7 816.5,-356.7 816.5,-334.7 643.5,-334.7"/>
<text text-anchor="start" x="663.5" y="-341.8" font-family="Helvetica,sans-Serif" font-size="11.00" fill="#000000">next_review_date</text>
<polygon fill="none" stroke="#000000" points="643.5,-315.7 643.5,-334.7 816.5,-334.7 816.5,-315.7 643.5,-315.7"/>
<text text-anchor="start" x="646.5" y="-321.8" font-family="Helvetica,sans-Serif" font-size="11.00" fill="#000000">...</text>
<polygon fill="#ffffff" stroke="transparent" points="643.5,-296.7 643.5,-315.7 723.5,-315.7 723.5,-296.7 643.5,-296.7"/>
<polygon fill="none" stroke="#000000" points="643.5,-296.7 643.5,-315.7 723.5,-315.7 723.5,-296.7 643.5,-296.7"/>
<text text-anchor="start" x="646.5" y="-302.8" font-family="Helvetica,sans-Serif" font-size="11.00" fill="#000000">&lt; 1</text>
<polygon fill="#ffffff" stroke="transparent" points="723.5,-296.7 723.5,-315.7 765.5,-315.7 765.5,-296.7 723.5,-296.7"/>
<polygon fill="none" stroke="#000000" points="723.5,-296.7 723.5,-315.7 765.5,-315.7 765.5,-296.7 723.5,-296.7"/>
<text text-anchor="start" x="756.3862" y="-302.8" font-family="Helvetica,sans-Serif" font-size="11.00" fill="#000000"> &#160;</text>
<polygon fill="#ffffff" stroke="transparent" points="765.5,-296.7 765.5,-315.7 816.5,-315.7 816.5,-296.7 765.5,-296.7"/>
<polygon fill="none" stroke="#000000" points="765.5,-296.7 765.5,-315.7 816.5,-315.7 816.5,-296.7 765.5,-296.7"/>
<text text-anchor="start" x="797.9053" y="-302.8" font-family="Helvetica,sans-Serif" font-size="11.00" fill="#000000">2 &gt;</text>
</a>
</g>
</g>
<!-- plan&#45;&gt;csip_record -->
<g id="edge4" class="edge">
<title>plan:w&#45;&gt;csip_record:e</title>
<path fill="none" stroke="#000000" d="M632.7917,-367.7C597.1327,-367.7 584.4219,-367.7 544,-367.7"/>
<polygon fill="#000000" stroke="#000000" points="642.7,-363.7 642.7,-371.7 641.1,-371.7 641.1,-363.7 642.7,-363.7"/>
<polyline fill="none" stroke="#000000" points="643.5,-367.7 639.5,-367.7 "/>
<ellipse fill="none" stroke="#000000" cx="636.3" cy="-367.7001" rx="3.2" ry="3.2"/>
</g>
<!-- referral -->
<g id="node6" class="node">
<title>referral</title>
<g id="a_node6"><a xlink:href="../../tables/referral.html" xlink:title="referral" target="_top">
<polygon fill="#ffffff" stroke="transparent" points="595,-43.2 595,-236.2 864,-236.2 864,-43.2 595,-43.2"/>
<polygon fill="#f5f5f5" stroke="transparent" points="595.5,-212.7 595.5,-235.7 864.5,-235.7 864.5,-212.7 595.5,-212.7"/>
<polygon fill="none" stroke="#000000" points="595.5,-212.7 595.5,-235.7 864.5,-235.7 864.5,-212.7 595.5,-212.7"/>
<text text-anchor="start" x="600.5" y="-221.3" font-family="Helvetica,sans-Serif" font-weight="bold" font-size="11.00" fill="#000000">referral</text>
<text text-anchor="start" x="829.5437" y="-220.8" font-family="Helvetica,sans-Serif" font-size="11.00" fill="#000000">[table]</text>
<polygon fill="none" stroke="#000000" points="595.5,-190.7 595.5,-212.7 864.5,-212.7 864.5,-190.7 595.5,-190.7"/>
<image xlink:href="../../images/primaryKeys.png" width="11px" height="12px" preserveAspectRatio="xMinYMin meet" x="600.5" y="-207.7"/>
<text text-anchor="start" x="615.5" y="-197.8" font-family="Helvetica,sans-Serif" font-size="11.00" fill="#000000">referral_id</text>
<polygon fill="#ffffff" stroke="transparent" points="595.5,-168.7 595.5,-190.7 864.5,-190.7 864.5,-168.7 595.5,-168.7"/>
<polygon fill="none" stroke="#000000" points="595.5,-168.7 595.5,-190.7 864.5,-190.7 864.5,-168.7 595.5,-168.7"/>
<image xlink:href="../../images/foreignKeys.png" width="11px" height="12px" preserveAspectRatio="xMinYMin meet" x="600.5" y="-185.7"/>
<text text-anchor="start" x="615.5" y="-175.8" font-family="Helvetica,sans-Serif" font-size="11.00" fill="#000000">incident_type_id</text>
<polygon fill="#ffffff" stroke="transparent" points="595.5,-146.7 595.5,-168.7 864.5,-168.7 864.5,-146.7 595.5,-146.7"/>
<polygon fill="none" stroke="#000000" points="595.5,-146.7 595.5,-168.7 864.5,-168.7 864.5,-146.7 595.5,-146.7"/>
<image xlink:href="../../images/foreignKeys.png" width="11px" height="12px" preserveAspectRatio="xMinYMin meet" x="600.5" y="-163.7"/>
<text text-anchor="start" x="615.5" y="-153.8" font-family="Helvetica,sans-Serif" font-size="11.00" fill="#000000">incident_location_id</text>
<polygon fill="#ffffff" stroke="transparent" points="595.5,-124.7 595.5,-146.7 864.5,-146.7 864.5,-124.7 595.5,-124.7"/>
<polygon fill="none" stroke="#000000" points="595.5,-124.7 595.5,-146.7 864.5,-146.7 864.5,-124.7 595.5,-124.7"/>
<image xlink:href="../../images/foreignKeys.png" width="11px" height="12px" preserveAspectRatio="xMinYMin meet" x="600.5" y="-141.7"/>
<text text-anchor="start" x="615.5" y="-131.8" font-family="Helvetica,sans-Serif" font-size="11.00" fill="#000000">referer_area_of_work_id</text>
<polygon fill="#ffffff" stroke="transparent" points="595.5,-102.7 595.5,-124.7 864.5,-124.7 864.5,-102.7 595.5,-102.7"/>
<polygon fill="none" stroke="#000000" points="595.5,-102.7 595.5,-124.7 864.5,-124.7 864.5,-102.7 595.5,-102.7"/>
<text text-anchor="start" x="615.5" y="-109.8" font-family="Helvetica,sans-Serif" font-size="11.00" fill="#000000">referral_date</text>
<polygon fill="#ffffff" stroke="transparent" points="595.5,-80.7 595.5,-102.7 864.5,-102.7 864.5,-80.7 595.5,-80.7"/>
<polygon fill="none" stroke="#000000" points="595.5,-80.7 595.5,-102.7 864.5,-102.7 864.5,-80.7 595.5,-80.7"/>
<image xlink:href="../../images/foreignKeys.png" width="11px" height="12px" preserveAspectRatio="xMinYMin meet" x="600.5" y="-97.7"/>
<text text-anchor="start" x="615.5" y="-87.8" font-family="Helvetica,sans-Serif" font-size="11.00" fill="#000000">incident_involvement_id</text>
<polygon fill="none" stroke="#000000" points="595.5,-61.7 595.5,-80.7 864.5,-80.7 864.5,-61.7 595.5,-61.7"/>
<text text-anchor="start" x="598.5" y="-67.8" font-family="Helvetica,sans-Serif" font-size="11.00" fill="#000000">...</text>
<polygon fill="#ffffff" stroke="transparent" points="595.5,-42.7 595.5,-61.7 723.5,-61.7 723.5,-42.7 595.5,-42.7"/>
<polygon fill="none" stroke="#000000" points="595.5,-42.7 595.5,-61.7 723.5,-61.7 723.5,-42.7 595.5,-42.7"/>
<text text-anchor="start" x="598.5" y="-48.8" font-family="Helvetica,sans-Serif" font-size="11.00" fill="#000000">&lt; 5</text>
<polygon fill="#ffffff" stroke="transparent" points="723.5,-42.7 723.5,-61.7 789.5,-61.7 789.5,-42.7 723.5,-42.7"/>
<polygon fill="none" stroke="#000000" points="723.5,-42.7 723.5,-61.7 789.5,-61.7 789.5,-42.7 723.5,-42.7"/>
<text text-anchor="start" x="780.3862" y="-48.8" font-family="Helvetica,sans-Serif" font-size="11.00" fill="#000000"> &#160;</text>
<polygon fill="#ffffff" stroke="transparent" points="789.5,-42.7 789.5,-61.7 864.5,-61.7 864.5,-42.7 789.5,-42.7"/>
<polygon fill="none" stroke="#000000" points="789.5,-42.7 789.5,-61.7 864.5,-61.7 864.5,-42.7 789.5,-42.7"/>
<text text-anchor="start" x="845.9053" y="-48.8" font-family="Helvetica,sans-Serif" font-size="11.00" fill="#000000">4 &gt;</text>
</a>
</g>
</g>
<!-- referral&#45;&gt;csip_record -->
<g id="edge9" class="edge">
<title>referral:w&#45;&gt;csip_record:e</title>
<path fill="none" stroke="#000000" d="M585.0791,-202.9407C528.2487,-218.1313 617.3241,-367.7 544,-367.7"/>
<polygon fill="#000000" stroke="#000000" points="594.2327,-197.8226 595.1786,-205.7665 593.5898,-205.9557 592.6439,-198.0118 594.2327,-197.8226"/>
<polyline fill="none" stroke="#000000" points="595.5,-201.7 591.5281,-202.1729 "/>
<ellipse fill="none" stroke="#000000" cx="588.3505" cy="-202.5513" rx="3.2" ry="3.2"/>
</g>
<!-- referral&#45;&gt;reference_data -->
<g id="edge5" class="edge">
<title>referral:w&#45;&gt;reference_data:e</title>
<path fill="none" stroke="#000000" d="M581.0257,-91.6334C429.729,-90.2405 380.474,-67.9588 230,-115.7 199.9571,-125.2318 201.0188,-152.7 169.5,-152.7"/>
<polygon fill="#000000" stroke="#000000" points="587.5001,-91.6631 595.4834,-95.3 591.5,-91.6816 595.5,-91.7 595.5,-91.7 595.5,-91.7 591.5,-91.6816 595.5166,-88.1 587.5001,-91.6631 587.5001,-91.6631"/>
<ellipse fill="none" stroke="#000000" cx="584.3001" cy="-91.6484" rx="3.2" ry="3.2"/>
</g>
<!-- referral&#45;&gt;reference_data -->
<g id="edge6" class="edge">
<title>referral:w&#45;&gt;reference_data:e</title>
<path fill="none" stroke="#000000" d="M581.0802,-157.6901C403.61,-157.4446 353.9463,-152.7 169.5,-152.7"/>
<polygon fill="#000000" stroke="#000000" points="587.5,-157.6945 595.4975,-161.3 591.5,-157.6972 595.5,-157.7 595.5,-157.7 595.5,-157.7 591.5,-157.6972 595.5025,-154.1 587.5,-157.6945 587.5,-157.6945"/>
<ellipse fill="none" stroke="#000000" cx="584.3" cy="-157.6923" rx="3.2" ry="3.2"/>
</g>
<!-- referral&#45;&gt;reference_data -->
<g id="edge7" class="edge">
<title>referral:w&#45;&gt;reference_data:e</title>
<path fill="none" stroke="#000000" d="M581.0606,-179.7108C430.2976,-179.9332 386.5553,-183.325 230,-164.7 202.7792,-161.4616 196.9127,-152.7 169.5,-152.7"/>
<polygon fill="#000000" stroke="#000000" points="587.5,-179.706 595.5027,-183.3 591.5,-179.703 595.5,-179.7 595.5,-179.7 595.5,-179.7 591.5,-179.703 595.4973,-176.1 587.5,-179.706 587.5,-179.706"/>
<ellipse fill="none" stroke="#000000" cx="584.3" cy="-179.7085" rx="3.2" ry="3.2"/>
</g>
<!-- referral&#45;&gt;reference_data -->
<g id="edge8" class="edge">
<title>referral:w&#45;&gt;reference_data:e</title>
<path fill="none" stroke="#000000" d="M581.0647,-135.7187C430.3708,-136.1158 387.4902,-142.7793 230,-149.7 203.104,-150.8819 196.4219,-152.7 169.5,-152.7"/>
<polygon fill="#000000" stroke="#000000" points="587.5,-135.7104 595.5047,-139.3 591.5,-135.7052 595.5,-135.7 595.5,-135.7 595.5,-135.7 591.5,-135.7052 595.4953,-132.1 587.5,-135.7104 587.5,-135.7104"/>
<ellipse fill="none" stroke="#000000" cx="584.3" cy="-135.7146" rx="3.2" ry="3.2"/>
</g>
</g>
</svg>
