<?xml version="1.0" encoding="UTF-8" standalone="no"?>
<!DOCTYPE svg PUBLIC "-//W3C//DTD SVG 1.1//EN"
 "http://www.w3.org/Graphics/SVG/1.1/DTD/svg11.dtd">
<!-- Generated by graphviz version 2.40.1 (20161225.0304)
 -->
<!-- Title: twoDegreesRelationshipsDiagram Pages: 1 -->
<svg width="1253pt" height="644pt"
 viewBox="0.00 0.00 1253.00 644.20" xmlns="http://www.w3.org/2000/svg" xmlns:xlink="http://www.w3.org/1999/xlink">
<g id="graph0" class="graph" transform="scale(1 1) rotate(0) translate(4 640.2)">
<title>twoDegreesRelationshipsDiagram</title>
<polygon fill="#ffffff" stroke="transparent" points="-4,4 -4,-640.2 1249,-640.2 1249,4 -4,4"/>
<text text-anchor="middle" x="72.4936" y="-7.3" font-family="Helvetica,sans-Serif" font-size="11.00" fill="#000000">Generated by SchemaSpy</text>
<!-- contributory_factor -->
<g id="node1" class="node">
<title>contributory_factor</title>
<g id="a_node1"><a xlink:href="../../tables/contributory_factor.html" xlink:title="contributory_factor" target="_top">
<polygon fill="#ffffff" stroke="transparent" points="867,-284.2 867,-345.2 1036,-345.2 1036,-284.2 867,-284.2"/>
<polygon fill="#f5f5f5" stroke="transparent" points="867.5,-321.7 867.5,-344.7 1036.5,-344.7 1036.5,-321.7 867.5,-321.7"/>
<polygon fill="none" stroke="#000000" points="867.5,-321.7 867.5,-344.7 1036.5,-344.7 1036.5,-321.7 867.5,-321.7"/>
<text text-anchor="start" x="872.5" y="-330.3" font-family="Helvetica,sans-Serif" font-weight="bold" font-size="11.00" fill="#000000">contributory_factor</text>
<text text-anchor="start" x="1002.0219" y="-329.8" font-family="Helvetica,sans-Serif" font-size="11.00" fill="#000000">[table]</text>
<polygon fill="none" stroke="#000000" points="867.5,-302.7 867.5,-321.7 1036.5,-321.7 1036.5,-302.7 867.5,-302.7"/>
<text text-anchor="start" x="870.5" y="-308.8" font-family="Helvetica,sans-Serif" font-size="11.00" fill="#000000">...</text>
<polygon fill="#ffffff" stroke="transparent" points="867.5,-283.7 867.5,-302.7 950.5,-302.7 950.5,-283.7 867.5,-283.7"/>
<polygon fill="none" stroke="#000000" points="867.5,-283.7 867.5,-302.7 950.5,-302.7 950.5,-283.7 867.5,-283.7"/>
<text text-anchor="start" x="870.5" y="-289.8" font-family="Helvetica,sans-Serif" font-size="11.00" fill="#000000">&lt; 2</text>
<polygon fill="#ffffff" stroke="transparent" points="950.5,-283.7 950.5,-302.7 993.5,-302.7 993.5,-283.7 950.5,-283.7"/>
<polygon fill="none" stroke="#000000" points="950.5,-283.7 950.5,-302.7 993.5,-302.7 993.5,-283.7 950.5,-283.7"/>
<text text-anchor="start" x="984.3862" y="-289.8" font-family="Helvetica,sans-Serif" font-size="11.00" fill="#000000"> &#160;</text>
<polygon fill="#ffffff" stroke="transparent" points="993.5,-283.7 993.5,-302.7 1036.5,-302.7 1036.5,-283.7 993.5,-283.7"/>
<polygon fill="none" stroke="#000000" points="993.5,-283.7 993.5,-302.7 1036.5,-302.7 1036.5,-283.7 993.5,-283.7"/>
<text text-anchor="start" x="1027.3862" y="-289.8" font-family="Helvetica,sans-Serif" font-size="11.00" fill="#000000"> &#160;</text>
</a>
</g>
</g>
<!-- reference_data -->
<g id="node2" class="node">
<title>reference_data</title>
<g id="a_node2"><a xlink:href="../../tables/reference_data.html" xlink:title="reference_data" target="_top">
<polygon fill="#ffffff" stroke="transparent" points="28.5,-199.2 28.5,-260.2 168.5,-260.2 168.5,-199.2 28.5,-199.2"/>
<polygon fill="#f5f5f5" stroke="transparent" points="28.5,-236.7 28.5,-259.7 168.5,-259.7 168.5,-236.7 28.5,-236.7"/>
<polygon fill="none" stroke="#000000" points="28.5,-236.7 28.5,-259.7 168.5,-259.7 168.5,-236.7 28.5,-236.7"/>
<text text-anchor="start" x="33.5" y="-245.3" font-family="Helvetica,sans-Serif" font-weight="bold" font-size="11.00" fill="#000000">reference_data</text>
<text text-anchor="start" x="134.0219" y="-244.8" font-family="Helvetica,sans-Serif" font-size="11.00" fill="#000000">[table]</text>
<polygon fill="none" stroke="#000000" points="28.5,-217.7 28.5,-236.7 168.5,-236.7 168.5,-217.7 28.5,-217.7"/>
<text text-anchor="start" x="31.5" y="-223.8" font-family="Helvetica,sans-Serif" font-size="11.00" fill="#000000">...</text>
<polygon fill="#ffffff" stroke="transparent" points="28.5,-198.7 28.5,-217.7 65.5,-217.7 65.5,-198.7 28.5,-198.7"/>
<polygon fill="none" stroke="#000000" points="28.5,-198.7 28.5,-217.7 65.5,-217.7 65.5,-198.7 28.5,-198.7"/>
<text text-anchor="start" x="31.5" y="-204.8" font-family="Helvetica,sans-Serif" font-size="11.00" fill="#000000"> &#160;</text>
<polygon fill="#ffffff" stroke="transparent" points="65.5,-198.7 65.5,-217.7 128.5,-217.7 128.5,-198.7 65.5,-198.7"/>
<polygon fill="none" stroke="#000000" points="65.5,-198.7 65.5,-217.7 128.5,-217.7 128.5,-198.7 65.5,-198.7"/>
<text text-anchor="start" x="80.8807" y="-204.8" font-family="Helvetica,sans-Serif" font-size="11.00" fill="#000000">122 rows</text>
<polygon fill="#ffffff" stroke="transparent" points="128.5,-198.7 128.5,-217.7 168.5,-217.7 168.5,-198.7 128.5,-198.7"/>
<polygon fill="none" stroke="#000000" points="128.5,-198.7 128.5,-217.7 168.5,-217.7 168.5,-198.7 128.5,-198.7"/>
<text text-anchor="start" x="143.7904" y="-204.8" font-family="Helvetica,sans-Serif" font-size="11.00" fill="#000000">10 &gt;</text>
</a>
</g>
</g>
<!-- contributory_factor&#45;&gt;reference_data -->
<g id="edge1" class="edge">
<title>contributory_factor:w&#45;&gt;reference_data:e</title>
<path fill="none" stroke="#000000" d="M852.6997,-311.6885C580.5604,-311.2582 506.3308,-298.658 230,-257.7 212.6829,-255.1333 194.2259,-251.6672 176.7831,-248.0491"/>
<polygon fill="#000000" stroke="#000000" points="859.5,-311.6937 867.4972,-315.3 863.5,-311.6969 867.5,-311.7 867.5,-311.7 867.5,-311.7 863.5,-311.6969 867.5028,-308.1 859.5,-311.6937 859.5,-311.6937"/>
<ellipse fill="none" stroke="#000000" cx="856.3" cy="-311.6912" rx="3.2" ry="3.2"/>
</g>
<!-- referral -->
<g id="node3" class="node">
<title>referral</title>
<g id="a_node3"><a xlink:href="../../tables/referral.html" xlink:title="referral" target="_top">
<polygon fill="#ffffff" stroke="transparent" points="636.5,-199.2 636.5,-260.2 726.5,-260.2 726.5,-199.2 636.5,-199.2"/>
<polygon fill="#f5f5f5" stroke="transparent" points="636.5,-236.7 636.5,-259.7 726.5,-259.7 726.5,-236.7 636.5,-236.7"/>
<polygon fill="none" stroke="#000000" points="636.5,-236.7 636.5,-259.7 726.5,-259.7 726.5,-236.7 636.5,-236.7"/>
<text text-anchor="start" x="641.5" y="-245.3" font-family="Helvetica,sans-Serif" font-weight="bold" font-size="11.00" fill="#000000">referral</text>
<text text-anchor="start" x="692.0219" y="-244.8" font-family="Helvetica,sans-Serif" font-size="11.00" fill="#000000">[table]</text>
<polygon fill="none" stroke="#000000" points="636.5,-217.7 636.5,-236.7 726.5,-236.7 726.5,-217.7 636.5,-217.7"/>
<text text-anchor="start" x="639.5" y="-223.8" font-family="Helvetica,sans-Serif" font-size="11.00" fill="#000000">...</text>
<polygon fill="#ffffff" stroke="transparent" points="636.5,-198.7 636.5,-217.7 675.5,-217.7 675.5,-198.7 636.5,-198.7"/>
<polygon fill="none" stroke="#000000" points="636.5,-198.7 636.5,-217.7 675.5,-217.7 675.5,-198.7 636.5,-198.7"/>
<text text-anchor="start" x="639.5" y="-204.8" font-family="Helvetica,sans-Serif" font-size="11.00" fill="#000000">&lt; 5</text>
<polygon fill="#ffffff" stroke="transparent" points="675.5,-198.7 675.5,-217.7 696.5,-217.7 696.5,-198.7 675.5,-198.7"/>
<polygon fill="none" stroke="#000000" points="675.5,-198.7 675.5,-217.7 696.5,-217.7 696.5,-198.7 675.5,-198.7"/>
<text text-anchor="start" x="687.3862" y="-204.8" font-family="Helvetica,sans-Serif" font-size="11.00" fill="#000000"> &#160;</text>
<polygon fill="#ffffff" stroke="transparent" points="696.5,-198.7 696.5,-217.7 726.5,-217.7 726.5,-198.7 696.5,-198.7"/>
<polygon fill="none" stroke="#000000" points="696.5,-198.7 696.5,-217.7 726.5,-217.7 726.5,-198.7 696.5,-198.7"/>
<text text-anchor="start" x="707.9053" y="-204.8" font-family="Helvetica,sans-Serif" font-size="11.00" fill="#000000">4 &gt;</text>
</a>
</g>
</g>
<!-- contributory_factor&#45;&gt;referral -->
<g id="edge2" class="edge">
<title>contributory_factor:w&#45;&gt;referral:e</title>
<path fill="none" stroke="#000000" d="M853.0151,-309.7966C822.422,-302.9633 772.911,-279.0168 734.9296,-259.0723"/>
<polygon fill="#000000" stroke="#000000" points="859.5682,-310.6576 867.0309,-315.2693 863.5341,-311.1788 867.5,-311.7 867.5,-311.7 867.5,-311.7 863.5341,-311.1788 867.9691,-308.1307 859.5682,-310.6576 859.5682,-310.6576"/>
<ellipse fill="none" stroke="#000000" cx="856.3955" cy="-310.2407" rx="3.2" ry="3.2"/>
</g>
<!-- referral&#45;&gt;reference_data -->
<g id="edge13" class="edge">
<title>referral:w&#45;&gt;reference_data:e</title>
<path fill="none" stroke="#000000" d="M613.8388,-220.1686C505.043,-214.0678 291.7916,-213.8829 176.6635,-219.6138"/>
<polygon fill="#000000" stroke="#000000" points="620.4911,-220.5776 628.255,-224.6619 624.4836,-220.8232 628.476,-221.0687 628.476,-221.0687 628.476,-221.0687 624.4836,-220.8232 628.697,-217.4755 620.4911,-220.5776 620.4911,-220.5776"/>
<ellipse fill="none" stroke="#000000" cx="617.2971" cy="-220.3812" rx="3.2" ry="3.2"/>
</g>
<!-- referral&#45;&gt;reference_data -->
<g id="edge14" class="edge">
<title>referral:w&#45;&gt;reference_data:e</title>
<path fill="none" stroke="#000000" d="M613.8388,-226.6901C505.043,-224.7635 291.7916,-224.7051 176.6635,-226.5149"/>
<polygon fill="#000000" stroke="#000000" points="620.4775,-226.819 628.4061,-230.5737 624.4768,-226.8966 628.476,-226.9743 628.476,-226.9743 628.476,-226.9743 624.4768,-226.8966 628.5459,-223.375 620.4775,-226.819 620.4775,-226.819"/>
<ellipse fill="none" stroke="#000000" cx="617.2781" cy="-226.7568" rx="3.2" ry="3.2"/>
</g>
<!-- referral&#45;&gt;reference_data -->
<g id="edge15" class="edge">
<title>referral:w&#45;&gt;reference_data:e</title>
<path fill="none" stroke="#000000" d="M613.8388,-233.2116C505.043,-235.4592 291.7916,-235.5273 176.6635,-233.416"/>
<polygon fill="#000000" stroke="#000000" points="620.4781,-233.0612 628.5576,-236.479 624.477,-232.9706 628.476,-232.8799 628.476,-232.8799 628.476,-232.8799 624.477,-232.9706 628.3945,-229.2809 620.4781,-233.0612 620.4781,-233.0612"/>
<ellipse fill="none" stroke="#000000" cx="617.2789" cy="-233.1337" rx="3.2" ry="3.2"/>
</g>
<!-- referral&#45;&gt;reference_data -->
<g id="edge16" class="edge">
<title>referral:w&#45;&gt;reference_data:e</title>
<path fill="none" stroke="#000000" d="M613.8388,-239.733C505.043,-246.1549 291.7916,-246.3496 176.6635,-240.317"/>
<polygon fill="#000000" stroke="#000000" points="620.4927,-239.3024 628.7086,-242.378 624.4844,-239.044 628.476,-238.7856 628.476,-238.7856 628.476,-238.7856 624.4844,-239.044 628.2434,-235.1931 620.4927,-239.3024 620.4927,-239.3024"/>
<ellipse fill="none" stroke="#000000" cx="617.2994" cy="-239.5091" rx="3.2" ry="3.2"/>
</g>
<!-- csip_record -->
<g id="node4" class="node">
<title>csip_record</title>
<g id="a_node4"><a xlink:href="../../tables/csip_record.html" xlink:title="csip_record" target="_top">
<polygon fill="#ffffff" stroke="transparent" points="238,-393.7 238,-593.7 546,-593.7 546,-393.7 238,-393.7"/>
<polygon fill="#f5f5f5" stroke="transparent" points="240,-568.7 240,-591.7 544,-591.7 544,-568.7 240,-568.7"/>
<polygon fill="none" stroke="#000000" points="240,-568.7 240,-591.7 544,-591.7 544,-568.7 240,-568.7"/>
<text text-anchor="start" x="245" y="-577.3" font-family="Helvetica,sans-Serif" font-weight="bold" font-size="11.00" fill="#000000">csip_record</text>
<text text-anchor="start" x="509.0437" y="-576.8" font-family="Helvetica,sans-Serif" font-size="11.00" fill="#000000">[table]</text>
<polygon fill="none" stroke="#000000" points="240,-546.7 240,-568.7 450,-568.7 450,-546.7 240,-546.7"/>
<image xlink:href="../../images/primaryKeys.png" width="11px" height="12px" preserveAspectRatio="xMinYMin meet" x="245" y="-563.7"/>
<text text-anchor="start" x="260" y="-553.8" font-family="Helvetica,sans-Serif" font-size="11.00" fill="#000000">record_id</text>
<polygon fill="none" stroke="#000000" points="450,-546.7 450,-568.7 544,-568.7 544,-546.7 450,-546.7"/>
<text text-anchor="start" x="452.9758" y="-554.4" font-family="Helvetica,sans-Serif" font-size="11.00" fill="#000000">uuid[2147483647]</text>
<polygon fill="#ffffff" stroke="transparent" points="240,-524.7 240,-546.7 450,-546.7 450,-524.7 240,-524.7"/>
<polygon fill="none" stroke="#000000" points="240,-524.7 240,-546.7 450,-546.7 450,-524.7 240,-524.7"/>
<image xlink:href="../../images/foreignKeys.png" width="11px" height="12px" preserveAspectRatio="xMinYMin meet" x="245" y="-541.7"/>
<text text-anchor="start" x="260" y="-531.8" font-family="Helvetica,sans-Serif" font-size="11.00" fill="#000000">prison_number</text>
<polygon fill="none" stroke="#000000" points="450,-524.7 450,-546.7 544,-546.7 544,-524.7 450,-524.7"/>
<text text-anchor="start" x="453" y="-532.4" font-family="Helvetica,sans-Serif" font-size="11.00" fill="#000000">varchar[10]</text>
<polygon fill="none" stroke="#000000" points="240,-502.7 240,-524.7 450,-524.7 450,-502.7 240,-502.7"/>
<text text-anchor="start" x="260" y="-509.8" font-family="Helvetica,sans-Serif" font-size="11.00" fill="#000000">prison_code_when_recorded</text>
<polygon fill="none" stroke="#000000" points="450,-502.7 450,-524.7 544,-524.7 544,-502.7 450,-502.7"/>
<text text-anchor="start" x="453" y="-510.4" font-family="Helvetica,sans-Serif" font-size="11.00" fill="#000000">varchar[6]</text>
<polygon fill="none" stroke="#000000" points="240,-480.7 240,-502.7 450,-502.7 450,-480.7 240,-480.7"/>
<text text-anchor="start" x="260" y="-487.8" font-family="Helvetica,sans-Serif" font-size="11.00" fill="#000000">log_code</text>
<polygon fill="none" stroke="#000000" points="450,-480.7 450,-502.7 544,-502.7 544,-480.7 450,-480.7"/>
<text text-anchor="start" x="453" y="-488.4" font-family="Helvetica,sans-Serif" font-size="11.00" fill="#000000">varchar[10]</text>
<polygon fill="none" stroke="#000000" points="240,-458.7 240,-480.7 450,-480.7 450,-458.7 240,-458.7"/>
<text text-anchor="start" x="260" y="-465.8" font-family="Helvetica,sans-Serif" font-size="11.00" fill="#000000">version</text>
<polygon fill="none" stroke="#000000" points="450,-458.7 450,-480.7 544,-480.7 544,-458.7 450,-458.7"/>
<text text-anchor="start" x="453" y="-466.4" font-family="Helvetica,sans-Serif" font-size="11.00" fill="#000000">int4[10]</text>
<polygon fill="#ffffff" stroke="transparent" points="240,-436.7 240,-458.7 450,-458.7 450,-436.7 240,-436.7"/>
<polygon fill="none" stroke="#000000" points="240,-436.7 240,-458.7 450,-458.7 450,-436.7 240,-436.7"/>
<image xlink:href="../../images/foreignKeys.png" width="11px" height="12px" preserveAspectRatio="xMinYMin meet" x="245" y="-453.7"/>
<text text-anchor="start" x="260" y="-443.8" font-family="Helvetica,sans-Serif" font-size="11.00" fill="#000000">legacy_id</text>
<polygon fill="none" stroke="#000000" points="450,-436.7 450,-458.7 544,-458.7 544,-436.7 450,-436.7"/>
<text text-anchor="start" x="453" y="-444.4" font-family="Helvetica,sans-Serif" font-size="11.00" fill="#000000">int8[19]</text>
<polygon fill="#ffffff" stroke="transparent" points="240,-414.7 240,-436.7 450,-436.7 450,-414.7 240,-414.7"/>
<polygon fill="none" stroke="#000000" points="240,-414.7 240,-436.7 450,-436.7 450,-414.7 240,-414.7"/>
<image xlink:href="../../images/foreignKeys.png" width="11px" height="12px" preserveAspectRatio="xMinYMin meet" x="245" y="-431.7"/>
<text text-anchor="start" x="260" y="-421.8" font-family="Helvetica,sans-Serif" font-size="11.00" fill="#000000">status_id</text>
<polygon fill="none" stroke="#000000" points="450,-414.7 450,-436.7 544,-436.7 544,-414.7 450,-414.7"/>
<text text-anchor="start" x="453" y="-422.4" font-family="Helvetica,sans-Serif" font-size="11.00" fill="#000000">int8[19]</text>
<polygon fill="#ffffff" stroke="transparent" points="240,-395.7 240,-414.7 349,-414.7 349,-395.7 240,-395.7"/>
<polygon fill="none" stroke="#000000" points="240,-395.7 240,-414.7 349,-414.7 349,-395.7 240,-395.7"/>
<text text-anchor="start" x="243" y="-401.8" font-family="Helvetica,sans-Serif" font-size="11.00" fill="#000000">&lt; 2</text>
<polygon fill="#ffffff" stroke="transparent" points="349,-395.7 349,-414.7 450,-414.7 450,-395.7 349,-395.7"/>
<polygon fill="none" stroke="#000000" points="349,-395.7 349,-414.7 450,-414.7 450,-395.7 349,-395.7"/>
<text text-anchor="start" x="440.8862" y="-401.8" font-family="Helvetica,sans-Serif" font-size="11.00" fill="#000000"> &#160;</text>
<polygon fill="#ffffff" stroke="transparent" points="450,-395.7 450,-414.7 544,-414.7 544,-395.7 450,-395.7"/>
<polygon fill="none" stroke="#000000" points="450,-395.7 450,-414.7 544,-414.7 544,-395.7 450,-395.7"/>
<text text-anchor="start" x="525.4053" y="-401.8" font-family="Helvetica,sans-Serif" font-size="11.00" fill="#000000">2 &gt;</text>
<polygon fill="none" stroke="#000000" stroke-width="2" points="239,-394.7 239,-592.7 545,-592.7 545,-394.7 239,-394.7"/>
</a>
</g>
</g>
<!-- referral&#45;&gt;csip_record -->
<g id="edge17" class="edge">
<title>referral:w&#45;&gt;csip_record:e</title>
<path fill="none" stroke="#000000" d="M667.5726,-274.6591C639.0925,-364.5074 574.328,-557.7 544,-557.7"/>
<polygon fill="#000000" stroke="#000000" points="666.7251,-264.0506 674.3544,-266.4577 673.873,-267.9835 666.2437,-265.5765 666.7251,-264.0506"/>
<polyline fill="none" stroke="#000000" points="670.7805,-264.4912 669.5769,-268.3059 "/>
<ellipse fill="none" stroke="#000000" cx="668.6141" cy="-271.3576" rx="3.2" ry="3.2"/>
</g>
<!-- csip_record&#45;&gt;reference_data -->
<g id="edge4" class="edge">
<title>csip_record:w&#45;&gt;reference_data:e</title>
<path fill="none" stroke="#000000" d="M225.2707,-424.4309C156.3384,-412.3495 120.9879,-316.9308 106.5692,-264.2897"/>
<polygon fill="#000000" stroke="#000000" points="232.0295,-425.0132 239.6909,-429.2867 236.0148,-425.3566 240,-425.7 240,-425.7 240,-425.7 236.0148,-425.3566 240.3091,-422.1133 232.0295,-425.0132 232.0295,-425.0132"/>
<ellipse fill="none" stroke="#000000" cx="228.8413" cy="-424.7385" rx="3.2" ry="3.2"/>
</g>
<!-- person_summary -->
<g id="node5" class="node">
<title>person_summary</title>
<g id="a_node5"><a xlink:href="../../tables/person_summary.html" xlink:title="person_summary" target="_top">
<polygon fill="#ffffff" stroke="transparent" points="8,-443.2 8,-570.2 189,-570.2 189,-443.2 8,-443.2"/>
<polygon fill="#f5f5f5" stroke="transparent" points="8.5,-546.7 8.5,-569.7 189.5,-569.7 189.5,-546.7 8.5,-546.7"/>
<polygon fill="none" stroke="#000000" points="8.5,-546.7 8.5,-569.7 189.5,-569.7 189.5,-546.7 8.5,-546.7"/>
<text text-anchor="start" x="13.5" y="-555.3" font-family="Helvetica,sans-Serif" font-weight="bold" font-size="11.00" fill="#000000">person_summary</text>
<text text-anchor="start" x="154.5437" y="-554.8" font-family="Helvetica,sans-Serif" font-size="11.00" fill="#000000">[table]</text>
<polygon fill="none" stroke="#000000" points="8.5,-524.7 8.5,-546.7 189.5,-546.7 189.5,-524.7 8.5,-524.7"/>
<image xlink:href="../../images/primaryKeys.png" width="11px" height="12px" preserveAspectRatio="xMinYMin meet" x="13.5" y="-541.7"/>
<text text-anchor="start" x="28.5" y="-531.8" font-family="Helvetica,sans-Serif" font-size="11.00" fill="#000000">prison_number</text>
<polygon fill="#ffffff" stroke="transparent" points="8.5,-502.7 8.5,-524.7 189.5,-524.7 189.5,-502.7 8.5,-502.7"/>
<polygon fill="none" stroke="#000000" points="8.5,-502.7 8.5,-524.7 189.5,-524.7 189.5,-502.7 8.5,-502.7"/>
<text text-anchor="start" x="28.5" y="-509.8" font-family="Helvetica,sans-Serif" font-size="11.00" fill="#000000">prison_code</text>
<polygon fill="#ffffff" stroke="transparent" points="8.5,-480.7 8.5,-502.7 189.5,-502.7 189.5,-480.7 8.5,-480.7"/>
<polygon fill="none" stroke="#000000" points="8.5,-480.7 8.5,-502.7 189.5,-502.7 189.5,-480.7 8.5,-480.7"/>
<text text-anchor="start" x="28.5" y="-487.8" font-family="Helvetica,sans-Serif" font-size="11.00" fill="#000000">supporting_prison_code</text>
<polygon fill="none" stroke="#000000" points="8.5,-461.7 8.5,-480.7 189.5,-480.7 189.5,-461.7 8.5,-461.7"/>
<text text-anchor="start" x="11.5" y="-467.8" font-family="Helvetica,sans-Serif" font-size="11.00" fill="#000000">...</text>
<polygon fill="#ffffff" stroke="transparent" points="8.5,-442.7 8.5,-461.7 88.5,-461.7 88.5,-442.7 8.5,-442.7"/>
<polygon fill="none" stroke="#000000" points="8.5,-442.7 8.5,-461.7 88.5,-461.7 88.5,-442.7 8.5,-442.7"/>
<text text-anchor="start" x="11.5" y="-448.8" font-family="Helvetica,sans-Serif" font-size="11.00" fill="#000000"> &#160;</text>
<polygon fill="#ffffff" stroke="transparent" points="88.5,-442.7 88.5,-461.7 134.5,-461.7 134.5,-442.7 88.5,-442.7"/>
<polygon fill="none" stroke="#000000" points="88.5,-442.7 88.5,-461.7 134.5,-461.7 134.5,-442.7 88.5,-442.7"/>
<text text-anchor="start" x="125.3862" y="-448.8" font-family="Helvetica,sans-Serif" font-size="11.00" fill="#000000"> &#160;</text>
<polygon fill="#ffffff" stroke="transparent" points="134.5,-442.7 134.5,-461.7 189.5,-461.7 189.5,-442.7 134.5,-442.7"/>
<polygon fill="none" stroke="#000000" points="134.5,-442.7 134.5,-461.7 189.5,-461.7 189.5,-442.7 134.5,-442.7"/>
<text text-anchor="start" x="170.9053" y="-448.8" font-family="Helvetica,sans-Serif" font-size="11.00" fill="#000000">1 &gt;</text>
</a>
</g>
</g>
<!-- csip_record&#45;&gt;person_summary -->
<g id="edge3" class="edge">
<title>csip_record:w&#45;&gt;person_summary:e</title>
<path fill="none" stroke="#000000" d="M225.4203,-535.7C213.5435,-535.7 206.158,-535.7 189.5,-535.7"/>
<polygon fill="#000000" stroke="#000000" points="232,-535.7001 240,-539.3 236,-535.7 240,-535.7 240,-535.7 240,-535.7 236,-535.7 240,-532.1 232,-535.7001 232,-535.7001"/>
<ellipse fill="none" stroke="#000000" cx="228.8" cy="-535.7001" rx="3.2" ry="3.2"/>
</g>
<!-- decision_and_actions -->
<g id="node6" class="node">
<title>decision_and_actions</title>
<g id="a_node6"><a xlink:href="../../tables/decision_and_actions.html" xlink:title="decision_and_actions" target="_top">
<polygon fill="#ffffff" stroke="transparent" points="861,-38.2 861,-99.2 1042,-99.2 1042,-38.2 861,-38.2"/>
<polygon fill="#f5f5f5" stroke="transparent" points="861.5,-75.7 861.5,-98.7 1042.5,-98.7 1042.5,-75.7 861.5,-75.7"/>
<polygon fill="none" stroke="#000000" points="861.5,-75.7 861.5,-98.7 1042.5,-98.7 1042.5,-75.7 861.5,-75.7"/>
<text text-anchor="start" x="866.5" y="-84.3" font-family="Helvetica,sans-Serif" font-weight="bold" font-size="11.00" fill="#000000">decision_and_actions</text>
<text text-anchor="start" x="1008.0219" y="-83.8" font-family="Helvetica,sans-Serif" font-size="11.00" fill="#000000">[table]</text>
<polygon fill="none" stroke="#000000" points="861.5,-56.7 861.5,-75.7 1042.5,-75.7 1042.5,-56.7 861.5,-56.7"/>
<text text-anchor="start" x="864.5" y="-62.8" font-family="Helvetica,sans-Serif" font-size="11.00" fill="#000000">...</text>
<polygon fill="#ffffff" stroke="transparent" points="861.5,-37.7 861.5,-56.7 950.5,-56.7 950.5,-37.7 861.5,-37.7"/>
<polygon fill="none" stroke="#000000" points="861.5,-37.7 861.5,-56.7 950.5,-56.7 950.5,-37.7 861.5,-37.7"/>
<text text-anchor="start" x="864.5" y="-43.8" font-family="Helvetica,sans-Serif" font-size="11.00" fill="#000000">&lt; 3</text>
<polygon fill="#ffffff" stroke="transparent" points="950.5,-37.7 950.5,-56.7 996.5,-56.7 996.5,-37.7 950.5,-37.7"/>
<polygon fill="none" stroke="#000000" points="950.5,-37.7 950.5,-56.7 996.5,-56.7 996.5,-37.7 950.5,-37.7"/>
<text text-anchor="start" x="987.3862" y="-43.8" font-family="Helvetica,sans-Serif" font-size="11.00" fill="#000000"> &#160;</text>
<polygon fill="#ffffff" stroke="transparent" points="996.5,-37.7 996.5,-56.7 1042.5,-56.7 1042.5,-37.7 996.5,-37.7"/>
<polygon fill="none" stroke="#000000" points="996.5,-37.7 996.5,-56.7 1042.5,-56.7 1042.5,-37.7 996.5,-37.7"/>
<text text-anchor="start" x="1033.3862" y="-43.8" font-family="Helvetica,sans-Serif" font-size="11.00" fill="#000000"> &#160;</text>
</a>
</g>
</g>
<!-- decision_and_actions&#45;&gt;reference_data -->
<g id="edge6" class="edge">
<title>decision_and_actions:w&#45;&gt;reference_data:e</title>
<path fill="none" stroke="#000000" d="M846.7245,-65.3943C574.9309,-59.907 494.7534,-66.4136 230,-153.7 199.911,-163.62 168.5076,-180.0747 143.9374,-195.1961"/>
<polygon fill="#000000" stroke="#000000" points="853.5017,-65.5345 861.4255,-69.2992 857.5009,-65.6172 861.5,-65.7 861.5,-65.7 861.5,-65.7 857.5009,-65.6172 861.5745,-62.1008 853.5017,-65.5345 853.5017,-65.5345"/>
<ellipse fill="none" stroke="#000000" cx="850.3024" cy="-65.4683" rx="3.2" ry="3.2"/>
</g>
<!-- decision_and_actions&#45;&gt;reference_data -->
<g id="edge7" class="edge">
<title>decision_and_actions:w&#45;&gt;reference_data:e</title>
<path fill="none" stroke="#000000" d="M846.7245,-66.0679C574.9309,-72.907 494.7534,-79.4136 230,-166.7 208.1394,-173.9072 185.585,-184.5637 165.4614,-195.1059"/>
<polygon fill="#000000" stroke="#000000" points="853.5025,-65.8992 861.5896,-69.2989 857.5012,-65.7996 861.5,-65.7 861.5,-65.7 861.5,-65.7 857.5012,-65.7996 861.4104,-62.1011 853.5025,-65.8992 853.5025,-65.8992"/>
<ellipse fill="none" stroke="#000000" cx="850.3035" cy="-65.9789" rx="3.2" ry="3.2"/>
</g>
<!-- decision_and_actions&#45;&gt;referral -->
<g id="edge5" class="edge">
<title>decision_and_actions:w&#45;&gt;referral:e</title>
<path fill="none" stroke="#000000" d="M851.2035,-67.3481C811.3352,-79.0864 746.5346,-150.8222 709.6133,-194.9198"/>
<polygon fill="#000000" stroke="#000000" points="860.0778,-61.8767 861.3423,-69.7762 859.7624,-70.0291 858.4979,-62.1296 860.0778,-61.8767"/>
<polyline fill="none" stroke="#000000" points="861.5,-65.7 857.5503,-66.3322 "/>
<ellipse fill="none" stroke="#000000" cx="854.3905" cy="-66.838" rx="3.2" ry="3.2"/>
</g>
<!-- identified_need -->
<g id="node7" class="node">
<title>identified_need</title>
<g id="a_node7"><a xlink:href="../../tables/identified_need.html" xlink:title="identified_need" target="_top">
<polygon fill="#ffffff" stroke="transparent" points="880,-489.2 880,-550.2 1023,-550.2 1023,-489.2 880,-489.2"/>
<polygon fill="#f5f5f5" stroke="transparent" points="880.5,-526.7 880.5,-549.7 1023.5,-549.7 1023.5,-526.7 880.5,-526.7"/>
<polygon fill="none" stroke="#000000" points="880.5,-526.7 880.5,-549.7 1023.5,-549.7 1023.5,-526.7 880.5,-526.7"/>
<text text-anchor="start" x="885.5" y="-535.3" font-family="Helvetica,sans-Serif" font-weight="bold" font-size="11.00" fill="#000000">identified_need</text>
<text text-anchor="start" x="989.0219" y="-534.8" font-family="Helvetica,sans-Serif" font-size="11.00" fill="#000000">[table]</text>
<polygon fill="none" stroke="#000000" points="880.5,-507.7 880.5,-526.7 1023.5,-526.7 1023.5,-507.7 880.5,-507.7"/>
<text text-anchor="start" x="883.5" y="-513.8" font-family="Helvetica,sans-Serif" font-size="11.00" fill="#000000">...</text>
<polygon fill="#ffffff" stroke="transparent" points="880.5,-488.7 880.5,-507.7 950.5,-507.7 950.5,-488.7 880.5,-488.7"/>
<polygon fill="none" stroke="#000000" points="880.5,-488.7 880.5,-507.7 950.5,-507.7 950.5,-488.7 880.5,-488.7"/>
<text text-anchor="start" x="883.5" y="-494.8" font-family="Helvetica,sans-Serif" font-size="11.00" fill="#000000">&lt; 1</text>
<polygon fill="#ffffff" stroke="transparent" points="950.5,-488.7 950.5,-507.7 986.5,-507.7 986.5,-488.7 950.5,-488.7"/>
<polygon fill="none" stroke="#000000" points="950.5,-488.7 950.5,-507.7 986.5,-507.7 986.5,-488.7 950.5,-488.7"/>
<text text-anchor="start" x="977.3862" y="-494.8" font-family="Helvetica,sans-Serif" font-size="11.00" fill="#000000"> &#160;</text>
<polygon fill="#ffffff" stroke="transparent" points="986.5,-488.7 986.5,-507.7 1023.5,-507.7 1023.5,-488.7 986.5,-488.7"/>
<polygon fill="none" stroke="#000000" points="986.5,-488.7 986.5,-507.7 1023.5,-507.7 1023.5,-488.7 986.5,-488.7"/>
<text text-anchor="start" x="1014.3862" y="-494.8" font-family="Helvetica,sans-Serif" font-size="11.00" fill="#000000"> &#160;</text>
</a>
</g>
</g>
<!-- plan -->
<g id="node8" class="node">
<title>plan</title>
<g id="a_node8"><a xlink:href="../../tables/plan.html" xlink:title="plan" target="_top">
<polygon fill="#ffffff" stroke="transparent" points="595,-509.2 595,-592.2 768,-592.2 768,-509.2 595,-509.2"/>
<polygon fill="#f5f5f5" stroke="transparent" points="595.5,-568.7 595.5,-591.7 768.5,-591.7 768.5,-568.7 595.5,-568.7"/>
<polygon fill="none" stroke="#000000" points="595.5,-568.7 595.5,-591.7 768.5,-591.7 768.5,-568.7 595.5,-568.7"/>
<text text-anchor="start" x="600.5" y="-577.3" font-family="Helvetica,sans-Serif" font-weight="bold" font-size="11.00" fill="#000000">plan</text>
<text text-anchor="start" x="733.5437" y="-576.8" font-family="Helvetica,sans-Serif" font-size="11.00" fill="#000000">[table]</text>
<polygon fill="none" stroke="#000000" points="595.5,-546.7 595.5,-568.7 768.5,-568.7 768.5,-546.7 595.5,-546.7"/>
<image xlink:href="../../images/primaryKeys.png" width="11px" height="12px" preserveAspectRatio="xMinYMin meet" x="600.5" y="-563.7"/>
<text text-anchor="start" x="615.5" y="-553.8" font-family="Helvetica,sans-Serif" font-size="11.00" fill="#000000">plan_id</text>
<polygon fill="none" stroke="#000000" points="595.5,-527.7 595.5,-546.7 768.5,-546.7 768.5,-527.7 595.5,-527.7"/>
<text text-anchor="start" x="598.5" y="-533.8" font-family="Helvetica,sans-Serif" font-size="11.00" fill="#000000">...</text>
<polygon fill="#ffffff" stroke="transparent" points="595.5,-508.7 595.5,-527.7 675.5,-527.7 675.5,-508.7 595.5,-508.7"/>
<polygon fill="none" stroke="#000000" points="595.5,-508.7 595.5,-527.7 675.5,-527.7 675.5,-508.7 595.5,-508.7"/>
<text text-anchor="start" x="598.5" y="-514.8" font-family="Helvetica,sans-Serif" font-size="11.00" fill="#000000">&lt; 1</text>
<polygon fill="#ffffff" stroke="transparent" points="675.5,-508.7 675.5,-527.7 717.5,-527.7 717.5,-508.7 675.5,-508.7"/>
<polygon fill="none" stroke="#000000" points="675.5,-508.7 675.5,-527.7 717.5,-527.7 717.5,-508.7 675.5,-508.7"/>
<text text-anchor="start" x="708.3862" y="-514.8" font-family="Helvetica,sans-Serif" font-size="11.00" fill="#000000"> &#160;</text>
<polygon fill="#ffffff" stroke="transparent" points="717.5,-508.7 717.5,-527.7 768.5,-527.7 768.5,-508.7 717.5,-508.7"/>
<polygon fill="none" stroke="#000000" points="717.5,-508.7 717.5,-527.7 768.5,-527.7 768.5,-508.7 717.5,-508.7"/>
<text text-anchor="start" x="749.9053" y="-514.8" font-family="Helvetica,sans-Serif" font-size="11.00" fill="#000000">2 &gt;</text>
</a>
</g>
</g>
<!-- identified_need&#45;&gt;plan -->
<g id="edge8" class="edge">
<title>identified_need:w&#45;&gt;plan:e</title>
<path fill="none" stroke="#000000" d="M865.9664,-517.8394C825.8331,-524.4612 816.2281,-557.7 768.5,-557.7"/>
<polygon fill="#000000" stroke="#000000" points="872.5245,-517.3253 880.7814,-520.289 876.5122,-517.0126 880.5,-516.7 880.5,-516.7 880.5,-516.7 876.5122,-517.0126 880.2186,-513.111 872.5245,-517.3253 872.5245,-517.3253"/>
<ellipse fill="none" stroke="#000000" cx="869.3343" cy="-517.5754" rx="3.2" ry="3.2"/>
</g>
<!-- plan&#45;&gt;csip_record -->
<g id="edge12" class="edge">
<title>plan:w&#45;&gt;csip_record:e</title>
<path fill="none" stroke="#000000" d="M585.045,-557.7C570.137,-557.7 562.9549,-557.7 544,-557.7"/>
<polygon fill="#000000" stroke="#000000" points="594.7,-553.7 594.7,-561.7 593.1,-561.7 593.1,-553.7 594.7,-553.7"/>
<polyline fill="none" stroke="#000000" points="595.5,-557.7 591.5,-557.7 "/>
<ellipse fill="none" stroke="#000000" cx="588.3" cy="-557.7001" rx="3.2" ry="3.2"/>
</g>
<!-- interview -->
<g id="node9" class="node">
<title>interview</title>
<g id="a_node9"><a xlink:href="../../tables/interview.html" xlink:title="interview" target="_top">
<polygon fill="#ffffff" stroke="transparent" points="1135,-272.2 1135,-333.2 1237,-333.2 1237,-272.2 1135,-272.2"/>
<polygon fill="#f5f5f5" stroke="transparent" points="1135,-309.7 1135,-332.7 1237,-332.7 1237,-309.7 1135,-309.7"/>
<polygon fill="none" stroke="#000000" points="1135,-309.7 1135,-332.7 1237,-332.7 1237,-309.7 1135,-309.7"/>
<text text-anchor="start" x="1140" y="-318.3" font-family="Helvetica,sans-Serif" font-weight="bold" font-size="11.00" fill="#000000">interview</text>
<text text-anchor="start" x="1202.5219" y="-317.8" font-family="Helvetica,sans-Serif" font-size="11.00" fill="#000000">[table]</text>
<polygon fill="none" stroke="#000000" points="1135,-290.7 1135,-309.7 1237,-309.7 1237,-290.7 1135,-290.7"/>
<text text-anchor="start" x="1138" y="-296.8" font-family="Helvetica,sans-Serif" font-size="11.00" fill="#000000">...</text>
<polygon fill="#ffffff" stroke="transparent" points="1135,-271.7 1135,-290.7 1184,-290.7 1184,-271.7 1135,-271.7"/>
<polygon fill="none" stroke="#000000" points="1135,-271.7 1135,-290.7 1184,-290.7 1184,-271.7 1135,-271.7"/>
<text text-anchor="start" x="1138" y="-277.8" font-family="Helvetica,sans-Serif" font-size="11.00" fill="#000000">&lt; 2</text>
<polygon fill="#ffffff" stroke="transparent" points="1184,-271.7 1184,-290.7 1210,-290.7 1210,-271.7 1184,-271.7"/>
<polygon fill="none" stroke="#000000" points="1184,-271.7 1184,-290.7 1210,-290.7 1210,-271.7 1184,-271.7"/>
<text text-anchor="start" x="1200.8862" y="-277.8" font-family="Helvetica,sans-Serif" font-size="11.00" fill="#000000"> &#160;</text>
<polygon fill="#ffffff" stroke="transparent" points="1210,-271.7 1210,-290.7 1237,-290.7 1237,-271.7 1210,-271.7"/>
<polygon fill="none" stroke="#000000" points="1210,-271.7 1210,-290.7 1237,-290.7 1237,-271.7 1210,-271.7"/>
<text text-anchor="start" x="1227.8862" y="-277.8" font-family="Helvetica,sans-Serif" font-size="11.00" fill="#000000"> &#160;</text>
</a>
</g>
</g>
<!-- interview&#45;&gt;reference_data -->
<g id="edge9" class="edge">
<title>interview:w&#45;&gt;reference_data:e</title>
<path fill="none" stroke="#000000" d="M1121.0408,-304.6542C1109.4795,-316.1883 1115.7071,-344.6896 1094,-355.7 958.719,-424.3179 362.4499,-325.1393 230,-288.7 208.1659,-282.6931 185.3352,-273.5598 164.9412,-264.2613"/>
<polygon fill="#000000" stroke="#000000" points="1127.4607,-302.3758 1136.2041,-303.0927 1131.2304,-301.0379 1135,-299.7 1135,-299.7 1135,-299.7 1131.2304,-301.0379 1133.7959,-296.3073 1127.4607,-302.3758 1127.4607,-302.3758"/>
<ellipse fill="none" stroke="#000000" cx="1124.445" cy="-303.4461" rx="3.2" ry="3.2"/>
</g>
<!-- investigation -->
<g id="node10" class="node">
<title>investigation</title>
<g id="a_node10"><a xlink:href="../../tables/investigation.html" xlink:title="investigation" target="_top">
<polygon fill="#ffffff" stroke="transparent" points="888,-202.2 888,-263.2 1015,-263.2 1015,-202.2 888,-202.2"/>
<polygon fill="#f5f5f5" stroke="transparent" points="888.5,-239.7 888.5,-262.7 1015.5,-262.7 1015.5,-239.7 888.5,-239.7"/>
<polygon fill="none" stroke="#000000" points="888.5,-239.7 888.5,-262.7 1015.5,-262.7 1015.5,-239.7 888.5,-239.7"/>
<text text-anchor="start" x="893.5" y="-248.3" font-family="Helvetica,sans-Serif" font-weight="bold" font-size="11.00" fill="#000000">investigation</text>
<text text-anchor="start" x="981.0219" y="-247.8" font-family="Helvetica,sans-Serif" font-size="11.00" fill="#000000">[table]</text>
<polygon fill="none" stroke="#000000" points="888.5,-220.7 888.5,-239.7 1015.5,-239.7 1015.5,-220.7 888.5,-220.7"/>
<text text-anchor="start" x="891.5" y="-226.8" font-family="Helvetica,sans-Serif" font-size="11.00" fill="#000000">...</text>
<polygon fill="#ffffff" stroke="transparent" points="888.5,-201.7 888.5,-220.7 945.5,-220.7 945.5,-201.7 888.5,-201.7"/>
<polygon fill="none" stroke="#000000" points="888.5,-201.7 888.5,-220.7 945.5,-220.7 945.5,-201.7 888.5,-201.7"/>
<text text-anchor="start" x="891.5" y="-207.8" font-family="Helvetica,sans-Serif" font-size="11.00" fill="#000000">&lt; 1</text>
<polygon fill="#ffffff" stroke="transparent" points="945.5,-201.7 945.5,-220.7 975.5,-220.7 975.5,-201.7 945.5,-201.7"/>
<polygon fill="none" stroke="#000000" points="945.5,-201.7 945.5,-220.7 975.5,-220.7 975.5,-201.7 945.5,-201.7"/>
<text text-anchor="start" x="966.3862" y="-207.8" font-family="Helvetica,sans-Serif" font-size="11.00" fill="#000000"> &#160;</text>
<polygon fill="#ffffff" stroke="transparent" points="975.5,-201.7 975.5,-220.7 1015.5,-220.7 1015.5,-201.7 975.5,-201.7"/>
<polygon fill="none" stroke="#000000" points="975.5,-201.7 975.5,-220.7 1015.5,-220.7 1015.5,-201.7 975.5,-201.7"/>
<text text-anchor="start" x="996.9053" y="-207.8" font-family="Helvetica,sans-Serif" font-size="11.00" fill="#000000">1 &gt;</text>
</a>
</g>
</g>
<!-- interview&#45;&gt;investigation -->
<g id="edge10" class="edge">
<title>interview:w&#45;&gt;investigation:e</title>
<path fill="none" stroke="#000000" d="M1120.85,-296.5728C1111.525,-291.6019 1107.3178,-281.6471 1094,-273.7 1059.6546,-253.205 1055.4957,-229.7 1015.5,-229.7"/>
<polygon fill="#000000" stroke="#000000" points="1127.1885,-297.9736 1134.2231,-303.2152 1131.0942,-298.8368 1135,-299.7 1135,-299.7 1135,-299.7 1131.0942,-298.8368 1135.7769,-296.1848 1127.1885,-297.9736 1127.1885,-297.9736"/>
<ellipse fill="none" stroke="#000000" cx="1124.0639" cy="-297.283" rx="3.2" ry="3.2"/>
</g>
<!-- investigation&#45;&gt;referral -->
<g id="edge11" class="edge">
<title>investigation:w&#45;&gt;referral:e</title>
<path fill="none" stroke="#000000" d="M877.9922,-229.7C828.3585,-229.7 773.7156,-229.7 734.6802,-229.7"/>
<polygon fill="#000000" stroke="#000000" points="887.7,-225.7 887.7,-233.7 886.1,-233.7 886.1,-225.7 887.7,-225.7"/>
<polyline fill="none" stroke="#000000" points="888.5,-229.7 884.5,-229.7 "/>
<ellipse fill="none" stroke="#000000" cx="881.3" cy="-229.7001" rx="3.2" ry="3.2"/>
</g>
<!-- review -->
<g id="node11" class="node">
<title>review</title>
<g id="a_node11"><a xlink:href="../../tables/review.html" xlink:title="review" target="_top">
<polygon fill="#ffffff" stroke="transparent" points="909.5,-571.2 909.5,-632.2 993.5,-632.2 993.5,-571.2 909.5,-571.2"/>
<polygon fill="#f5f5f5" stroke="transparent" points="909.5,-608.7 909.5,-631.7 993.5,-631.7 993.5,-608.7 909.5,-608.7"/>
<polygon fill="none" stroke="#000000" points="909.5,-608.7 909.5,-631.7 993.5,-631.7 993.5,-608.7 909.5,-608.7"/>
<text text-anchor="start" x="914.5" y="-617.3" font-family="Helvetica,sans-Serif" font-weight="bold" font-size="11.00" fill="#000000">review</text>
<text text-anchor="start" x="959.0219" y="-616.8" font-family="Helvetica,sans-Serif" font-size="11.00" fill="#000000">[table]</text>
<polygon fill="none" stroke="#000000" points="909.5,-589.7 909.5,-608.7 993.5,-608.7 993.5,-589.7 909.5,-589.7"/>
<text text-anchor="start" x="912.5" y="-595.8" font-family="Helvetica,sans-Serif" font-size="11.00" fill="#000000">...</text>
<polygon fill="#ffffff" stroke="transparent" points="909.5,-570.7 909.5,-589.7 945.5,-589.7 945.5,-570.7 909.5,-570.7"/>
<polygon fill="none" stroke="#000000" points="909.5,-570.7 909.5,-589.7 945.5,-589.7 945.5,-570.7 909.5,-570.7"/>
<text text-anchor="start" x="912.5" y="-576.8" font-family="Helvetica,sans-Serif" font-size="11.00" fill="#000000">&lt; 1</text>
<polygon fill="#ffffff" stroke="transparent" points="945.5,-570.7 945.5,-589.7 964.5,-589.7 964.5,-570.7 945.5,-570.7"/>
<polygon fill="none" stroke="#000000" points="945.5,-570.7 945.5,-589.7 964.5,-589.7 964.5,-570.7 945.5,-570.7"/>
<text text-anchor="start" x="955.3862" y="-576.8" font-family="Helvetica,sans-Serif" font-size="11.00" fill="#000000"> &#160;</text>
<polygon fill="#ffffff" stroke="transparent" points="964.5,-570.7 964.5,-589.7 993.5,-589.7 993.5,-570.7 964.5,-570.7"/>
<polygon fill="none" stroke="#000000" points="964.5,-570.7 964.5,-589.7 993.5,-589.7 993.5,-570.7 964.5,-570.7"/>
<text text-anchor="start" x="974.9053" y="-576.8" font-family="Helvetica,sans-Serif" font-size="11.00" fill="#000000">1 &gt;</text>
</a>
</g>
</g>
<!-- review&#45;&gt;plan -->
<g id="edge18" class="edge">
<title>review:w&#45;&gt;plan:e</title>
<path fill="none" stroke="#000000" d="M894.8195,-597.9534C842.2087,-592.3965 828.5362,-557.7 768.5,-557.7"/>
<polygon fill="#000000" stroke="#000000" points="901.5103,-598.2936 909.3171,-602.2954 905.5052,-598.4968 909.5,-598.7 909.5,-598.7 909.5,-598.7 905.5052,-598.4968 909.6829,-595.1046 901.5103,-598.2936 901.5103,-598.2936"/>
<ellipse fill="none" stroke="#000000" cx="898.3145" cy="-598.131" rx="3.2" ry="3.2"/>
</g>
<!-- safer_custody_screening_outcome -->
<g id="node12" class="node">
<title>safer_custody_screening_outcome</title>
<g id="a_node12"><a xlink:href="../../tables/safer_custody_screening_outcome.html" xlink:title="safer_custody_screening_outcome" target="_top">
<polygon fill="#ffffff" stroke="transparent" points="817,-120.2 817,-181.2 1086,-181.2 1086,-120.2 817,-120.2"/>
<polygon fill="#f5f5f5" stroke="transparent" points="817.5,-157.7 817.5,-180.7 1086.5,-180.7 1086.5,-157.7 817.5,-157.7"/>
<polygon fill="none" stroke="#000000" points="817.5,-157.7 817.5,-180.7 1086.5,-180.7 1086.5,-157.7 817.5,-157.7"/>
<text text-anchor="start" x="822.5" y="-166.3" font-family="Helvetica,sans-Serif" font-weight="bold" font-size="11.00" fill="#000000">safer_custody_screening_outcome</text>
<text text-anchor="start" x="1052.0219" y="-165.8" font-family="Helvetica,sans-Serif" font-size="11.00" fill="#000000">[table]</text>
<polygon fill="none" stroke="#000000" points="817.5,-138.7 817.5,-157.7 1086.5,-157.7 1086.5,-138.7 817.5,-138.7"/>
<text text-anchor="start" x="820.5" y="-144.8" font-family="Helvetica,sans-Serif" font-size="11.00" fill="#000000">...</text>
<polygon fill="#ffffff" stroke="transparent" points="817.5,-119.7 817.5,-138.7 950.5,-138.7 950.5,-119.7 817.5,-119.7"/>
<polygon fill="none" stroke="#000000" points="817.5,-119.7 817.5,-138.7 950.5,-138.7 950.5,-119.7 817.5,-119.7"/>
<text text-anchor="start" x="820.5" y="-125.8" font-family="Helvetica,sans-Serif" font-size="11.00" fill="#000000">&lt; 2</text>
<polygon fill="#ffffff" stroke="transparent" points="950.5,-119.7 950.5,-138.7 1018.5,-138.7 1018.5,-119.7 950.5,-119.7"/>
<polygon fill="none" stroke="#000000" points="950.5,-119.7 950.5,-138.7 1018.5,-138.7 1018.5,-119.7 950.5,-119.7"/>
<text text-anchor="start" x="1009.3862" y="-125.8" font-family="Helvetica,sans-Serif" font-size="11.00" fill="#000000"> &#160;</text>
<polygon fill="#ffffff" stroke="transparent" points="1018.5,-119.7 1018.5,-138.7 1086.5,-138.7 1086.5,-119.7 1018.5,-119.7"/>
<polygon fill="none" stroke="#000000" points="1018.5,-119.7 1018.5,-138.7 1086.5,-138.7 1086.5,-119.7 1018.5,-119.7"/>
<text text-anchor="start" x="1077.3862" y="-125.8" font-family="Helvetica,sans-Serif" font-size="11.00" fill="#000000"> &#160;</text>
</a>
</g>
</g>
<!-- safer_custody_screening_outcome&#45;&gt;reference_data -->
<g id="edge19" class="edge">
<title>safer_custody_screening_outcome:w&#45;&gt;reference_data:e</title>
<path fill="none" stroke="#000000" d="M803.0256,-147.7544C571.8249,-149.479 305.6099,-191.763 176.632,-214.8979"/>
<polygon fill="#000000" stroke="#000000" points="809.5001,-147.7301 817.5136,-151.3 813.5,-147.7151 817.5,-147.7 817.5,-147.7 817.5,-147.7 813.5,-147.7151 817.4864,-144.1 809.5001,-147.7301 809.5001,-147.7301"/>
<ellipse fill="none" stroke="#000000" cx="806.3001" cy="-147.7422" rx="3.2" ry="3.2"/>
</g>
<!-- safer_custody_screening_outcome&#45;&gt;referral -->
<g id="edge20" class="edge">
<title>safer_custody_screening_outcome:w&#45;&gt;referral:e</title>
<path fill="none" stroke="#000000" d="M808.2375,-152.435C793.0887,-161.0323 762.1429,-179.8884 734.6235,-196.8199"/>
<polygon fill="#000000" stroke="#000000" points="814.967,-144.5025 818.6084,-151.6258 817.1838,-152.354 813.5423,-145.2308 814.967,-144.5025"/>
<polyline fill="none" stroke="#000000" points="817.5,-147.7 813.9384,-149.5207 "/>
<ellipse fill="none" stroke="#000000" cx="811.0891" cy="-150.9773" rx="3.2" ry="3.2"/>
</g>
</g>
</svg>
