<?xml version="1.0" encoding="UTF-8" standalone="no"?>
<!DOCTYPE svg PUBLIC "-//W3C//DTD SVG 1.1//EN"
 "http://www.w3.org/Graphics/SVG/1.1/DTD/svg11.dtd">
<!-- Generated by graphviz version 2.40.1 (20161225.0304)
 -->
<!-- Title: oneDegreeRelationshipsDiagramImplied Pages: 1 -->
<svg width="562pt" height="294pt"
 viewBox="0.00 0.00 562.00 294.20" xmlns="http://www.w3.org/2000/svg" xmlns:xlink="http://www.w3.org/1999/xlink">
<g id="graph0" class="graph" transform="scale(1 1) rotate(0) translate(4 290.2)">
<title>oneDegreeRelationshipsDiagramImplied</title>
<polygon fill="#ffffff" stroke="transparent" points="-4,4 -4,-290.2 558,-290.2 558,4 -4,4"/>
<text text-anchor="middle" x="72.4936" y="-7.3" font-family="Helvetica,sans-Serif" font-size="11.00" fill="#000000">Generated by SchemaSpy</text>
<!-- csip_record_audit -->
<g id="node1" class="node">
<title>csip_record_audit</title>
<g id="a_node1"><a xlink:href="../../tables/csip_record_audit.html" xlink:title="csip_record_audit" target="_top">
<polygon fill="#ffffff" stroke="transparent" points="238,-38.2 238,-282.2 546,-282.2 546,-38.2 238,-38.2"/>
<polygon fill="#f5f5f5" stroke="transparent" points="240,-257.2 240,-280.2 544,-280.2 544,-257.2 240,-257.2"/>
<polygon fill="none" stroke="#000000" points="240,-257.2 240,-280.2 544,-280.2 544,-257.2 240,-257.2"/>
<text text-anchor="start" x="245" y="-265.8" font-family="Helvetica,sans-Serif" font-weight="bold" font-size="11.00" fill="#000000">csip_record_audit</text>
<text text-anchor="start" x="509.0437" y="-265.3" font-family="Helvetica,sans-Serif" font-size="11.00" fill="#000000">[table]</text>
<polygon fill="none" stroke="#000000" points="240,-235.2 240,-257.2 450,-257.2 450,-235.2 240,-235.2"/>
<image xlink:href="../../images/primaryKeys.png" width="11px" height="12px" preserveAspectRatio="xMinYMin meet" x="245" y="-252.2"/>
<text text-anchor="start" x="260" y="-242.3" font-family="Helvetica,sans-Serif" font-size="11.00" fill="#000000">rev_id</text>
<polygon fill="none" stroke="#000000" points="450,-235.2 450,-257.2 544,-257.2 544,-235.2 450,-235.2"/>
<text text-anchor="start" x="453" y="-242.9" font-family="Helvetica,sans-Serif" font-size="11.00" fill="#000000">int8[19]</text>
<polygon fill="none" stroke="#000000" points="240,-213.2 240,-235.2 450,-235.2 450,-213.2 240,-213.2"/>
<text text-anchor="start" x="260" y="-220.3" font-family="Helvetica,sans-Serif" font-size="11.00" fill="#000000">rev_type</text>
<polygon fill="none" stroke="#000000" points="450,-213.2 450,-235.2 544,-235.2 544,-213.2 450,-213.2"/>
<text text-anchor="start" x="453" y="-220.9" font-family="Helvetica,sans-Serif" font-size="11.00" fill="#000000">int2[5]</text>
<polygon fill="none" stroke="#000000" points="240,-191.2 240,-213.2 450,-213.2 450,-191.2 240,-191.2"/>
<image xlink:href="../../images/primaryKeys.png" width="11px" height="12px" preserveAspectRatio="xMinYMin meet" x="245" y="-208.2"/>
<text text-anchor="start" x="260" y="-198.3" font-family="Helvetica,sans-Serif" font-size="11.00" fill="#000000">record_id</text>
<polygon fill="none" stroke="#000000" points="450,-191.2 450,-213.2 544,-213.2 544,-191.2 450,-191.2"/>
<text text-anchor="start" x="452.9758" y="-198.9" font-family="Helvetica,sans-Serif" font-size="11.00" fill="#000000">uuid[2147483647]</text>
<polygon fill="none" stroke="#000000" points="240,-169.2 240,-191.2 450,-191.2 450,-169.2 240,-169.2"/>
<image xlink:href="../../images/foreignKeys.png" width="11px" height="12px" preserveAspectRatio="xMinYMin meet" x="245" y="-186.2"/>
<text text-anchor="start" x="260" y="-176.3" font-family="Helvetica,sans-Serif" font-size="11.00" fill="#000000">prison_number</text>
<polygon fill="none" stroke="#000000" points="450,-169.2 450,-191.2 544,-191.2 544,-169.2 450,-169.2"/>
<text text-anchor="start" x="453" y="-176.9" font-family="Helvetica,sans-Serif" font-size="11.00" fill="#000000">varchar[10]</text>
<polygon fill="none" stroke="#000000" points="240,-147.2 240,-169.2 450,-169.2 450,-147.2 240,-147.2"/>
<text text-anchor="start" x="260" y="-154.3" font-family="Helvetica,sans-Serif" font-size="11.00" fill="#000000">prison_code_when_recorded</text>
<polygon fill="none" stroke="#000000" points="450,-147.2 450,-169.2 544,-169.2 544,-147.2 450,-147.2"/>
<text text-anchor="start" x="453" y="-154.9" font-family="Helvetica,sans-Serif" font-size="11.00" fill="#000000">varchar[6]</text>
<polygon fill="none" stroke="#000000" points="240,-125.2 240,-147.2 450,-147.2 450,-125.2 240,-125.2"/>
<text text-anchor="start" x="260" y="-132.3" font-family="Helvetica,sans-Serif" font-size="11.00" fill="#000000">log_code</text>
<polygon fill="none" stroke="#000000" points="450,-125.2 450,-147.2 544,-147.2 544,-125.2 450,-125.2"/>
<text text-anchor="start" x="453" y="-132.9" font-family="Helvetica,sans-Serif" font-size="11.00" fill="#000000">varchar[10]</text>
<polygon fill="none" stroke="#000000" points="240,-103.2 240,-125.2 450,-125.2 450,-103.2 240,-103.2"/>
<text text-anchor="start" x="260" y="-110.3" font-family="Helvetica,sans-Serif" font-size="11.00" fill="#000000">log_code_modified</text>
<polygon fill="none" stroke="#000000" points="450,-103.2 450,-125.2 544,-125.2 544,-103.2 450,-103.2"/>
<text text-anchor="start" x="453" y="-110.9" font-family="Helvetica,sans-Serif" font-size="11.00" fill="#000000">bool[1]</text>
<polygon fill="none" stroke="#000000" points="240,-81.2 240,-103.2 450,-103.2 450,-81.2 240,-81.2"/>
<image xlink:href="../../images/foreignKeys.png" width="11px" height="12px" preserveAspectRatio="xMinYMin meet" x="245" y="-98.2"/>
<text text-anchor="start" x="260" y="-88.3" font-family="Helvetica,sans-Serif" font-size="11.00" fill="#000000">legacy_id</text>
<polygon fill="none" stroke="#000000" points="450,-81.2 450,-103.2 544,-103.2 544,-81.2 450,-81.2"/>
<text text-anchor="start" x="453" y="-88.9" font-family="Helvetica,sans-Serif" font-size="11.00" fill="#000000">int8[19]</text>
<polygon fill="none" stroke="#000000" points="240,-59.2 240,-81.2 450,-81.2 450,-59.2 240,-59.2"/>
<text text-anchor="start" x="260" y="-66.3" font-family="Helvetica,sans-Serif" font-size="11.00" fill="#000000">prison_number_modified</text>
<polygon fill="none" stroke="#000000" points="450,-59.2 450,-81.2 544,-81.2 544,-59.2 450,-59.2"/>
<text text-anchor="start" x="453" y="-66.9" font-family="Helvetica,sans-Serif" font-size="11.00" fill="#000000">bool[1]</text>
<polygon fill="#ffffff" stroke="transparent" points="240,-40.2 240,-59.2 349,-59.2 349,-40.2 240,-40.2"/>
<polygon fill="none" stroke="#000000" points="240,-40.2 240,-59.2 349,-59.2 349,-40.2 240,-40.2"/>
<text text-anchor="start" x="243" y="-46.3" font-family="Helvetica,sans-Serif" font-size="11.00" fill="#000000">&lt; 3</text>
<polygon fill="#ffffff" stroke="transparent" points="349,-40.2 349,-59.2 450,-59.2 450,-40.2 349,-40.2"/>
<polygon fill="none" stroke="#000000" points="349,-40.2 349,-59.2 450,-59.2 450,-40.2 349,-40.2"/>
<text text-anchor="start" x="440.8862" y="-46.3" font-family="Helvetica,sans-Serif" font-size="11.00" fill="#000000"> &#160;</text>
<polygon fill="#ffffff" stroke="transparent" points="450,-40.2 450,-59.2 544,-59.2 544,-40.2 450,-40.2"/>
<polygon fill="none" stroke="#000000" points="450,-40.2 450,-59.2 544,-59.2 544,-40.2 450,-40.2"/>
<text text-anchor="start" x="525.4053" y="-46.3" font-family="Helvetica,sans-Serif" font-size="11.00" fill="#000000">0 &gt;</text>
<polygon fill="none" stroke="#000000" stroke-width="2" points="239,-39.2 239,-281.2 545,-281.2 545,-39.2 239,-39.2"/>
</a>
</g>
</g>
<!-- audit_revision -->
<g id="node2" class="node">
<title>audit_revision</title>
<g id="a_node2"><a xlink:href="../../tables/audit_revision.html" xlink:title="audit_revision" target="_top">
<polygon fill="#ffffff" stroke="transparent" points="15.5,-43.7 15.5,-126.7 181.5,-126.7 181.5,-43.7 15.5,-43.7"/>
<polygon fill="#f5f5f5" stroke="transparent" points="15.5,-103.2 15.5,-126.2 181.5,-126.2 181.5,-103.2 15.5,-103.2"/>
<polygon fill="none" stroke="#000000" points="15.5,-103.2 15.5,-126.2 181.5,-126.2 181.5,-103.2 15.5,-103.2"/>
<text text-anchor="start" x="20.5" y="-111.8" font-family="Helvetica,sans-Serif" font-weight="bold" font-size="11.00" fill="#000000">audit_revision</text>
<text text-anchor="start" x="146.5437" y="-111.3" font-family="Helvetica,sans-Serif" font-size="11.00" fill="#000000">[table]</text>
<polygon fill="none" stroke="#000000" points="15.5,-81.2 15.5,-103.2 181.5,-103.2 181.5,-81.2 15.5,-81.2"/>
<image xlink:href="../../images/primaryKeys.png" width="11px" height="12px" preserveAspectRatio="xMinYMin meet" x="20.5" y="-98.2"/>
<text text-anchor="start" x="35.5" y="-88.3" font-family="Helvetica,sans-Serif" font-size="11.00" fill="#000000">id</text>
<polygon fill="none" stroke="#000000" points="15.5,-62.2 15.5,-81.2 181.5,-81.2 181.5,-62.2 15.5,-62.2"/>
<text text-anchor="start" x="18.5" y="-68.3" font-family="Helvetica,sans-Serif" font-size="11.00" fill="#000000">...</text>
<polygon fill="#ffffff" stroke="transparent" points="15.5,-43.2 15.5,-62.2 84.5,-62.2 84.5,-43.2 15.5,-43.2"/>
<polygon fill="none" stroke="#000000" points="15.5,-43.2 15.5,-62.2 84.5,-62.2 84.5,-43.2 15.5,-43.2"/>
<text text-anchor="start" x="18.5" y="-49.3" font-family="Helvetica,sans-Serif" font-size="11.00" fill="#000000"> &#160;</text>
<polygon fill="#ffffff" stroke="transparent" points="84.5,-43.2 84.5,-62.2 125.5,-62.2 125.5,-43.2 84.5,-43.2"/>
<polygon fill="none" stroke="#000000" points="84.5,-43.2 84.5,-62.2 125.5,-62.2 125.5,-43.2 84.5,-43.2"/>
<text text-anchor="start" x="116.3862" y="-49.3" font-family="Helvetica,sans-Serif" font-size="11.00" fill="#000000"> &#160;</text>
<polygon fill="#ffffff" stroke="transparent" points="125.5,-43.2 125.5,-62.2 181.5,-62.2 181.5,-43.2 125.5,-43.2"/>
<polygon fill="none" stroke="#000000" points="125.5,-43.2 125.5,-62.2 181.5,-62.2 181.5,-43.2 125.5,-43.2"/>
<text text-anchor="start" x="156.7904" y="-49.3" font-family="Helvetica,sans-Serif" font-size="11.00" fill="#000000">33 &gt;</text>
</a>
</g>
</g>
<!-- csip_record_audit&#45;&gt;audit_revision -->
<g id="edge1" class="edge">
<title>csip_record_audit:w&#45;&gt;audit_revision:e</title>
<path fill="none" stroke="#000000" stroke-dasharray="5,2" d="M225.3286,-92.2C210.2231,-92.2 201.8125,-92.2 181.5,-92.2"/>
<polygon fill="#000000" stroke="#000000" points="232,-92.2001 240,-95.8 236,-92.2 240,-92.2 240,-92.2 240,-92.2 236,-92.2 240,-88.6 232,-92.2001 232,-92.2001"/>
<ellipse fill="none" stroke="#000000" cx="228.8" cy="-92.2001" rx="3.2" ry="3.2"/>
</g>
<!-- csip_record_audit&#45;&gt;audit_revision -->
<g id="edge3" class="edge">
<title>csip_record_audit:w&#45;&gt;audit_revision:e</title>
<path fill="none" stroke="#000000" d="M225.637,-243.527C179.5395,-223.0774 248.9964,-92.2 181.5,-92.2"/>
<polygon fill="#000000" stroke="#000000" points="232.135,-244.7363 239.3413,-249.7392 236.0675,-245.4681 240,-246.2 240,-246.2 240,-246.2 236.0675,-245.4681 240.6587,-242.6608 232.135,-244.7363 232.135,-244.7363"/>
<ellipse fill="none" stroke="#000000" cx="228.989" cy="-244.1508" rx="3.2" ry="3.2"/>
</g>
<!-- person_summary -->
<g id="node3" class="node">
<title>person_summary</title>
<g id="a_node3"><a xlink:href="../../tables/person_summary.html" xlink:title="person_summary" target="_top">
<polygon fill="#ffffff" stroke="transparent" points="8,-147.7 8,-274.7 189,-274.7 189,-147.7 8,-147.7"/>
<polygon fill="#f5f5f5" stroke="transparent" points="8.5,-251.2 8.5,-274.2 189.5,-274.2 189.5,-251.2 8.5,-251.2"/>
<polygon fill="none" stroke="#000000" points="8.5,-251.2 8.5,-274.2 189.5,-274.2 189.5,-251.2 8.5,-251.2"/>
<text text-anchor="start" x="13.5" y="-259.8" font-family="Helvetica,sans-Serif" font-weight="bold" font-size="11.00" fill="#000000">person_summary</text>
<text text-anchor="start" x="154.5437" y="-259.3" font-family="Helvetica,sans-Serif" font-size="11.00" fill="#000000">[table]</text>
<polygon fill="none" stroke="#000000" points="8.5,-229.2 8.5,-251.2 189.5,-251.2 189.5,-229.2 8.5,-229.2"/>
<image xlink:href="../../images/primaryKeys.png" width="11px" height="12px" preserveAspectRatio="xMinYMin meet" x="13.5" y="-246.2"/>
<text text-anchor="start" x="28.5" y="-236.3" font-family="Helvetica,sans-Serif" font-size="11.00" fill="#000000">prison_number</text>
<polygon fill="#ffffff" stroke="transparent" points="8.5,-207.2 8.5,-229.2 189.5,-229.2 189.5,-207.2 8.5,-207.2"/>
<polygon fill="none" stroke="#000000" points="8.5,-207.2 8.5,-229.2 189.5,-229.2 189.5,-207.2 8.5,-207.2"/>
<text text-anchor="start" x="28.5" y="-214.3" font-family="Helvetica,sans-Serif" font-size="11.00" fill="#000000">prison_code</text>
<polygon fill="#ffffff" stroke="transparent" points="8.5,-185.2 8.5,-207.2 189.5,-207.2 189.5,-185.2 8.5,-185.2"/>
<polygon fill="none" stroke="#000000" points="8.5,-185.2 8.5,-207.2 189.5,-207.2 189.5,-185.2 8.5,-185.2"/>
<text text-anchor="start" x="28.5" y="-192.3" font-family="Helvetica,sans-Serif" font-size="11.00" fill="#000000">supporting_prison_code</text>
<polygon fill="none" stroke="#000000" points="8.5,-166.2 8.5,-185.2 189.5,-185.2 189.5,-166.2 8.5,-166.2"/>
<text text-anchor="start" x="11.5" y="-172.3" font-family="Helvetica,sans-Serif" font-size="11.00" fill="#000000">...</text>
<polygon fill="#ffffff" stroke="transparent" points="8.5,-147.2 8.5,-166.2 88.5,-166.2 88.5,-147.2 8.5,-147.2"/>
<polygon fill="none" stroke="#000000" points="8.5,-147.2 8.5,-166.2 88.5,-166.2 88.5,-147.2 8.5,-147.2"/>
<text text-anchor="start" x="11.5" y="-153.3" font-family="Helvetica,sans-Serif" font-size="11.00" fill="#000000"> &#160;</text>
<polygon fill="#ffffff" stroke="transparent" points="88.5,-147.2 88.5,-166.2 134.5,-166.2 134.5,-147.2 88.5,-147.2"/>
<polygon fill="none" stroke="#000000" points="88.5,-147.2 88.5,-166.2 134.5,-166.2 134.5,-147.2 88.5,-147.2"/>
<text text-anchor="start" x="125.3862" y="-153.3" font-family="Helvetica,sans-Serif" font-size="11.00" fill="#000000"> &#160;</text>
<polygon fill="#ffffff" stroke="transparent" points="134.5,-147.2 134.5,-166.2 189.5,-166.2 189.5,-147.2 134.5,-147.2"/>
<polygon fill="none" stroke="#000000" points="134.5,-147.2 134.5,-166.2 189.5,-166.2 189.5,-147.2 134.5,-147.2"/>
<text text-anchor="start" x="170.9053" y="-153.3" font-family="Helvetica,sans-Serif" font-size="11.00" fill="#000000">3 &gt;</text>
</a>
</g>
</g>
<!-- csip_record_audit&#45;&gt;person_summary -->
<g id="edge2" class="edge">
<title>csip_record_audit:w&#45;&gt;person_summary:e</title>
<path fill="none" stroke="#000000" stroke-dasharray="5,2" d="M226.2703,-184.9081C210.1513,-199.0525 218.3642,-240.2 189.5,-240.2"/>
<polygon fill="#000000" stroke="#000000" points="232.4326,-182.795 241.1678,-183.6053 236.2163,-181.4975 240,-180.2 240,-180.2 240,-180.2 236.2163,-181.4975 238.8322,-176.7947 232.4326,-182.795 232.4326,-182.795"/>
<ellipse fill="none" stroke="#000000" cx="229.4056" cy="-183.833" rx="3.2" ry="3.2"/>
</g>
</g>
</svg>
