<?xml version="1.0" encoding="UTF-8" standalone="no"?>
<!DOCTYPE svg PUBLIC "-//W3C//DTD SVG 1.1//EN"
 "http://www.w3.org/Graphics/SVG/1.1/DTD/svg11.dtd">
<!-- Generated by graphviz version 2.40.1 (20161225.0304)
 -->
<!-- Title: oneDegreeRelationshipsDiagramImplied Pages: 1 -->
<svg width="533pt" height="451pt"
 viewBox="0.00 0.00 533.00 451.20" xmlns="http://www.w3.org/2000/svg" xmlns:xlink="http://www.w3.org/1999/xlink">
<g id="graph0" class="graph" transform="scale(1 1) rotate(0) translate(4 447.2)">
<title>oneDegreeRelationshipsDiagramImplied</title>
<polygon fill="#ffffff" stroke="transparent" points="-4,4 -4,-447.2 529,-447.2 529,4 -4,4"/>
<text text-anchor="middle" x="72.4936" y="-7.3" font-family="Helvetica,sans-Serif" font-size="11.00" fill="#000000">Generated by SchemaSpy</text>
<!-- csip_summary -->
<g id="node1" class="node">
<title>csip_summary</title>
<g id="a_node1"><a xlink:href="../../tables/csip_summary.html" xlink:title="csip_summary" target="_top">
<polygon fill="#ffffff" stroke="transparent" points="238,-38.2 238,-439.2 517,-439.2 517,-38.2 238,-38.2"/>
<polygon fill="#f5f5f5" stroke="transparent" points="240.5,-413.7 240.5,-436.7 515.5,-436.7 515.5,-413.7 240.5,-413.7"/>
<polygon fill="none" stroke="#000000" points="240.5,-413.7 240.5,-436.7 515.5,-436.7 515.5,-413.7 240.5,-413.7"/>
<text text-anchor="start" x="245.5" y="-422.3" font-family="Helvetica,sans-Serif" font-weight="bold" font-size="11.00" fill="#000000">csip_summary</text>
<text text-anchor="start" x="482.3895" y="-421.8" font-family="Helvetica,sans-Serif" font-size="11.00" fill="#000000">[view]</text>
<polygon fill="none" stroke="#000000" points="240.5,-391.7 240.5,-413.7 421.5,-413.7 421.5,-391.7 240.5,-391.7"/>
<image xlink:href="../../images/foreignKeys.png" width="11px" height="12px" preserveAspectRatio="xMinYMin meet" x="245.5" y="-408.7"/>
<text text-anchor="start" x="260.5" y="-398.8" font-family="Helvetica,sans-Serif" font-size="11.00" fill="#000000">prison_number</text>
<polygon fill="none" stroke="#000000" points="421.5,-391.7 421.5,-413.7 515.5,-413.7 515.5,-391.7 421.5,-391.7"/>
<text text-anchor="start" x="424.5" y="-399.4" font-family="Helvetica,sans-Serif" font-size="11.00" fill="#000000">varchar[10]</text>
<polygon fill="none" stroke="#000000" points="240.5,-369.7 240.5,-391.7 421.5,-391.7 421.5,-369.7 240.5,-369.7"/>
<text text-anchor="start" x="260.5" y="-376.8" font-family="Helvetica,sans-Serif" font-size="11.00" fill="#000000">first_name</text>
<polygon fill="none" stroke="#000000" points="421.5,-369.7 421.5,-391.7 515.5,-391.7 515.5,-369.7 421.5,-369.7"/>
<text text-anchor="start" x="424.5" y="-377.4" font-family="Helvetica,sans-Serif" font-size="11.00" fill="#000000">varchar[64]</text>
<polygon fill="none" stroke="#000000" points="240.5,-347.7 240.5,-369.7 421.5,-369.7 421.5,-347.7 240.5,-347.7"/>
<text text-anchor="start" x="260.5" y="-354.8" font-family="Helvetica,sans-Serif" font-size="11.00" fill="#000000">last_name</text>
<polygon fill="none" stroke="#000000" points="421.5,-347.7 421.5,-369.7 515.5,-369.7 515.5,-347.7 421.5,-347.7"/>
<text text-anchor="start" x="424.5" y="-355.4" font-family="Helvetica,sans-Serif" font-size="11.00" fill="#000000">varchar[64]</text>
<polygon fill="none" stroke="#000000" points="240.5,-325.7 240.5,-347.7 421.5,-347.7 421.5,-325.7 240.5,-325.7"/>
<text text-anchor="start" x="260.5" y="-332.8" font-family="Helvetica,sans-Serif" font-size="11.00" fill="#000000">restricted_patient</text>
<polygon fill="none" stroke="#000000" points="421.5,-325.7 421.5,-347.7 515.5,-347.7 515.5,-325.7 421.5,-325.7"/>
<text text-anchor="start" x="424.5" y="-333.4" font-family="Helvetica,sans-Serif" font-size="11.00" fill="#000000">bool[1]</text>
<polygon fill="none" stroke="#000000" points="240.5,-303.7 240.5,-325.7 421.5,-325.7 421.5,-303.7 240.5,-303.7"/>
<text text-anchor="start" x="260.5" y="-310.8" font-family="Helvetica,sans-Serif" font-size="11.00" fill="#000000">prison_code</text>
<polygon fill="none" stroke="#000000" points="421.5,-303.7 421.5,-325.7 515.5,-325.7 515.5,-303.7 421.5,-303.7"/>
<text text-anchor="start" x="424.5" y="-311.4" font-family="Helvetica,sans-Serif" font-size="11.00" fill="#000000">varchar[16]</text>
<polygon fill="none" stroke="#000000" points="240.5,-281.7 240.5,-303.7 421.5,-303.7 421.5,-281.7 240.5,-281.7"/>
<text text-anchor="start" x="260.5" y="-288.8" font-family="Helvetica,sans-Serif" font-size="11.00" fill="#000000">cell_location</text>
<polygon fill="none" stroke="#000000" points="421.5,-281.7 421.5,-303.7 515.5,-303.7 515.5,-281.7 421.5,-281.7"/>
<text text-anchor="start" x="424.5" y="-289.4" font-family="Helvetica,sans-Serif" font-size="11.00" fill="#000000">varchar[64]</text>
<polygon fill="none" stroke="#000000" points="240.5,-259.7 240.5,-281.7 421.5,-281.7 421.5,-259.7 240.5,-259.7"/>
<text text-anchor="start" x="260.5" y="-266.8" font-family="Helvetica,sans-Serif" font-size="11.00" fill="#000000">supporting_prison_code</text>
<polygon fill="none" stroke="#000000" points="421.5,-259.7 421.5,-281.7 515.5,-281.7 515.5,-259.7 421.5,-259.7"/>
<text text-anchor="start" x="424.5" y="-267.4" font-family="Helvetica,sans-Serif" font-size="11.00" fill="#000000">varchar[16]</text>
<polygon fill="none" stroke="#000000" points="240.5,-237.7 240.5,-259.7 421.5,-259.7 421.5,-237.7 240.5,-237.7"/>
<text text-anchor="start" x="260.5" y="-244.8" font-family="Helvetica,sans-Serif" font-size="11.00" fill="#000000">referral_date</text>
<polygon fill="none" stroke="#000000" points="421.5,-237.7 421.5,-259.7 515.5,-259.7 515.5,-237.7 421.5,-237.7"/>
<text text-anchor="start" x="424.5" y="-245.4" font-family="Helvetica,sans-Serif" font-size="11.00" fill="#000000">date[13]</text>
<polygon fill="none" stroke="#000000" points="240.5,-215.7 240.5,-237.7 421.5,-237.7 421.5,-215.7 240.5,-215.7"/>
<text text-anchor="start" x="260.5" y="-222.8" font-family="Helvetica,sans-Serif" font-size="11.00" fill="#000000">incident_type</text>
<polygon fill="none" stroke="#000000" points="421.5,-215.7 421.5,-237.7 515.5,-237.7 515.5,-215.7 421.5,-215.7"/>
<text text-anchor="start" x="424.5" y="-223.4" font-family="Helvetica,sans-Serif" font-size="11.00" fill="#000000">varchar[40]</text>
<polygon fill="none" stroke="#000000" points="240.5,-193.7 240.5,-215.7 421.5,-215.7 421.5,-193.7 240.5,-193.7"/>
<text text-anchor="start" x="260.5" y="-200.8" font-family="Helvetica,sans-Serif" font-size="11.00" fill="#000000">next_review_date</text>
<polygon fill="none" stroke="#000000" points="421.5,-193.7 421.5,-215.7 515.5,-215.7 515.5,-193.7 421.5,-193.7"/>
<text text-anchor="start" x="424.5" y="-201.4" font-family="Helvetica,sans-Serif" font-size="11.00" fill="#000000">date[13]</text>
<polygon fill="none" stroke="#000000" points="240.5,-171.7 240.5,-193.7 421.5,-193.7 421.5,-171.7 240.5,-171.7"/>
<text text-anchor="start" x="260.5" y="-178.8" font-family="Helvetica,sans-Serif" font-size="11.00" fill="#000000">case_manager</text>
<polygon fill="none" stroke="#000000" points="421.5,-171.7 421.5,-193.7 515.5,-193.7 515.5,-171.7 421.5,-171.7"/>
<text text-anchor="start" x="424.5" y="-179.4" font-family="Helvetica,sans-Serif" font-size="11.00" fill="#000000">varchar[100]</text>
<polygon fill="none" stroke="#000000" points="240.5,-149.7 240.5,-171.7 421.5,-171.7 421.5,-149.7 240.5,-149.7"/>
<text text-anchor="start" x="260.5" y="-156.8" font-family="Helvetica,sans-Serif" font-size="11.00" fill="#000000">id</text>
<polygon fill="none" stroke="#000000" points="421.5,-149.7 421.5,-171.7 515.5,-171.7 515.5,-149.7 421.5,-149.7"/>
<text text-anchor="start" x="424.4758" y="-157.4" font-family="Helvetica,sans-Serif" font-size="11.00" fill="#000000">uuid[2147483647]</text>
<polygon fill="none" stroke="#000000" points="240.5,-127.7 240.5,-149.7 421.5,-149.7 421.5,-127.7 240.5,-127.7"/>
<text text-anchor="start" x="260.5" y="-134.8" font-family="Helvetica,sans-Serif" font-size="11.00" fill="#000000">log_code</text>
<polygon fill="none" stroke="#000000" points="421.5,-127.7 421.5,-149.7 515.5,-149.7 515.5,-127.7 421.5,-127.7"/>
<text text-anchor="start" x="424.5" y="-135.4" font-family="Helvetica,sans-Serif" font-size="11.00" fill="#000000">varchar[10]</text>
<polygon fill="none" stroke="#000000" points="240.5,-105.7 240.5,-127.7 421.5,-127.7 421.5,-105.7 240.5,-105.7"/>
<text text-anchor="start" x="260.5" y="-112.8" font-family="Helvetica,sans-Serif" font-size="11.00" fill="#000000">closed_date</text>
<polygon fill="none" stroke="#000000" points="421.5,-105.7 421.5,-127.7 515.5,-127.7 515.5,-105.7 421.5,-105.7"/>
<text text-anchor="start" x="424.5" y="-113.4" font-family="Helvetica,sans-Serif" font-size="11.00" fill="#000000">date[13]</text>
<polygon fill="none" stroke="#000000" points="240.5,-83.7 240.5,-105.7 421.5,-105.7 421.5,-83.7 240.5,-83.7"/>
<text text-anchor="start" x="260.5" y="-90.8" font-family="Helvetica,sans-Serif" font-size="11.00" fill="#000000">priority</text>
<polygon fill="none" stroke="#000000" points="421.5,-83.7 421.5,-105.7 515.5,-105.7 515.5,-83.7 421.5,-83.7"/>
<text text-anchor="start" x="424.5" y="-91.4" font-family="Helvetica,sans-Serif" font-size="11.00" fill="#000000">int4[10]</text>
<polygon fill="none" stroke="#000000" points="240.5,-61.7 240.5,-83.7 421.5,-83.7 421.5,-61.7 240.5,-61.7"/>
<text text-anchor="start" x="260.5" y="-68.8" font-family="Helvetica,sans-Serif" font-size="11.00" fill="#000000">status_code</text>
<polygon fill="none" stroke="#000000" points="421.5,-61.7 421.5,-83.7 515.5,-83.7 515.5,-61.7 421.5,-61.7"/>
<text text-anchor="start" x="424.5" y="-69.4" font-family="Helvetica,sans-Serif" font-size="11.00" fill="#000000">varchar[32]</text>
<polygon fill="none" stroke="#000000" points="240.5,-39.7 240.5,-61.7 421.5,-61.7 421.5,-39.7 240.5,-39.7"/>
<text text-anchor="start" x="260.5" y="-46.8" font-family="Helvetica,sans-Serif" font-size="11.00" fill="#000000">status_description</text>
<polygon fill="none" stroke="#000000" points="421.5,-39.7 421.5,-61.7 515.5,-61.7 515.5,-39.7 421.5,-39.7"/>
<text text-anchor="start" x="424.5" y="-47.4" font-family="Helvetica,sans-Serif" font-size="11.00" fill="#000000">varchar[40]</text>
<polygon fill="none" stroke="#000000" stroke-width="2" points="239,-39.2 239,-438.2 516,-438.2 516,-39.2 239,-39.2"/>
</a>
</g>
</g>
<!-- person_summary -->
<g id="node2" class="node">
<title>person_summary</title>
<g id="a_node2"><a xlink:href="../../tables/person_summary.html" xlink:title="person_summary" target="_top">
<polygon fill="#ffffff" stroke="transparent" points="8,-310.2 8,-437.2 189,-437.2 189,-310.2 8,-310.2"/>
<polygon fill="#f5f5f5" stroke="transparent" points="8.5,-413.7 8.5,-436.7 189.5,-436.7 189.5,-413.7 8.5,-413.7"/>
<polygon fill="none" stroke="#000000" points="8.5,-413.7 8.5,-436.7 189.5,-436.7 189.5,-413.7 8.5,-413.7"/>
<text text-anchor="start" x="13.5" y="-422.3" font-family="Helvetica,sans-Serif" font-weight="bold" font-size="11.00" fill="#000000">person_summary</text>
<text text-anchor="start" x="154.5437" y="-421.8" font-family="Helvetica,sans-Serif" font-size="11.00" fill="#000000">[table]</text>
<polygon fill="none" stroke="#000000" points="8.5,-391.7 8.5,-413.7 189.5,-413.7 189.5,-391.7 8.5,-391.7"/>
<image xlink:href="../../images/primaryKeys.png" width="11px" height="12px" preserveAspectRatio="xMinYMin meet" x="13.5" y="-408.7"/>
<text text-anchor="start" x="28.5" y="-398.8" font-family="Helvetica,sans-Serif" font-size="11.00" fill="#000000">prison_number</text>
<polygon fill="#ffffff" stroke="transparent" points="8.5,-369.7 8.5,-391.7 189.5,-391.7 189.5,-369.7 8.5,-369.7"/>
<polygon fill="none" stroke="#000000" points="8.5,-369.7 8.5,-391.7 189.5,-391.7 189.5,-369.7 8.5,-369.7"/>
<text text-anchor="start" x="28.5" y="-376.8" font-family="Helvetica,sans-Serif" font-size="11.00" fill="#000000">prison_code</text>
<polygon fill="#ffffff" stroke="transparent" points="8.5,-347.7 8.5,-369.7 189.5,-369.7 189.5,-347.7 8.5,-347.7"/>
<polygon fill="none" stroke="#000000" points="8.5,-347.7 8.5,-369.7 189.5,-369.7 189.5,-347.7 8.5,-347.7"/>
<text text-anchor="start" x="28.5" y="-354.8" font-family="Helvetica,sans-Serif" font-size="11.00" fill="#000000">supporting_prison_code</text>
<polygon fill="none" stroke="#000000" points="8.5,-328.7 8.5,-347.7 189.5,-347.7 189.5,-328.7 8.5,-328.7"/>
<text text-anchor="start" x="11.5" y="-334.8" font-family="Helvetica,sans-Serif" font-size="11.00" fill="#000000">...</text>
<polygon fill="#ffffff" stroke="transparent" points="8.5,-309.7 8.5,-328.7 88.5,-328.7 88.5,-309.7 8.5,-309.7"/>
<polygon fill="none" stroke="#000000" points="8.5,-309.7 8.5,-328.7 88.5,-328.7 88.5,-309.7 8.5,-309.7"/>
<text text-anchor="start" x="11.5" y="-315.8" font-family="Helvetica,sans-Serif" font-size="11.00" fill="#000000"> &#160;</text>
<polygon fill="#ffffff" stroke="transparent" points="88.5,-309.7 88.5,-328.7 134.5,-328.7 134.5,-309.7 88.5,-309.7"/>
<polygon fill="none" stroke="#000000" points="88.5,-309.7 88.5,-328.7 134.5,-328.7 134.5,-309.7 88.5,-309.7"/>
<text text-anchor="start" x="125.3862" y="-315.8" font-family="Helvetica,sans-Serif" font-size="11.00" fill="#000000"> &#160;</text>
<polygon fill="#ffffff" stroke="transparent" points="134.5,-309.7 134.5,-328.7 189.5,-328.7 189.5,-309.7 134.5,-309.7"/>
<polygon fill="none" stroke="#000000" points="134.5,-309.7 134.5,-328.7 189.5,-328.7 189.5,-309.7 134.5,-309.7"/>
<text text-anchor="start" x="170.9053" y="-315.8" font-family="Helvetica,sans-Serif" font-size="11.00" fill="#000000">3 &gt;</text>
</a>
</g>
</g>
<!-- csip_summary&#45;&gt;person_summary -->
<g id="edge1" class="edge">
<title>csip_summary:w&#45;&gt;person_summary:e</title>
<path fill="none" stroke="#000000" stroke-dasharray="5,2" d="M225.776,-402.7C213.7815,-402.7 206.3229,-402.7 189.5,-402.7"/>
<polygon fill="#000000" stroke="#000000" points="232.5,-402.7001 240.5,-406.3 236.5,-402.7 240.5,-402.7 240.5,-402.7 240.5,-402.7 236.5,-402.7 240.5,-399.1 232.5,-402.7001 232.5,-402.7001"/>
<ellipse fill="none" stroke="#000000" cx="229.3" cy="-402.7001" rx="3.2" ry="3.2"/>
</g>
</g>
</svg>
