<?xml version="1.0" encoding="UTF-8" standalone="no"?>
<!DOCTYPE svg PUBLIC "-//W3C//DTD SVG 1.1//EN"
 "http://www.w3.org/Graphics/SVG/1.1/DTD/svg11.dtd">
<!-- Generated by graphviz version 2.40.1 (20161225.0304)
 -->
<!-- Title: oneDegreeRelationshipsDiagram Pages: 1 -->
<svg width="303pt" height="407pt"
 viewBox="0.00 0.00 303.00 407.20" xmlns="http://www.w3.org/2000/svg" xmlns:xlink="http://www.w3.org/1999/xlink">
<g id="graph0" class="graph" transform="scale(1 1) rotate(0) translate(4 403.2)">
<title>oneDegreeRelationshipsDiagram</title>
<polygon fill="#ffffff" stroke="transparent" points="-4,4 -4,-403.2 299,-403.2 299,4 -4,4"/>
<text text-anchor="middle" x="72.4936" y="-7.3" font-family="Helvetica,sans-Serif" font-size="11.00" fill="#000000">Generated by SchemaSpy</text>
<!-- csip_summary -->
<g id="node1" class="node">
<title>csip_summary</title>
<g id="a_node1"><a xlink:href="../../tables/csip_summary.html" xlink:title="csip_summary" target="_top">
<polygon fill="#ffffff" stroke="transparent" points="8,-38.2 8,-395.2 287,-395.2 287,-38.2 8,-38.2"/>
<polygon fill="#f5f5f5" stroke="transparent" points="10.5,-369.7 10.5,-392.7 285.5,-392.7 285.5,-369.7 10.5,-369.7"/>
<polygon fill="none" stroke="#000000" points="10.5,-369.7 10.5,-392.7 285.5,-392.7 285.5,-369.7 10.5,-369.7"/>
<text text-anchor="start" x="15.5" y="-378.3" font-family="Helvetica,sans-Serif" font-weight="bold" font-size="11.00" fill="#000000">csip_summary</text>
<text text-anchor="start" x="252.3895" y="-377.8" font-family="Helvetica,sans-Serif" font-size="11.00" fill="#000000">[view]</text>
<polygon fill="none" stroke="#000000" points="10.5,-347.7 10.5,-369.7 191.5,-369.7 191.5,-347.7 10.5,-347.7"/>
<image xlink:href="../../images/foreignKeys.png" width="11px" height="12px" preserveAspectRatio="xMinYMin meet" x="15.5" y="-364.7"/>
<text text-anchor="start" x="30.5" y="-354.8" font-family="Helvetica,sans-Serif" font-size="11.00" fill="#000000">prison_number</text>
<polygon fill="none" stroke="#000000" points="191.5,-347.7 191.5,-369.7 285.5,-369.7 285.5,-347.7 191.5,-347.7"/>
<text text-anchor="start" x="194.5" y="-355.4" font-family="Helvetica,sans-Serif" font-size="11.00" fill="#000000">varchar[10]</text>
<polygon fill="none" stroke="#000000" points="10.5,-325.7 10.5,-347.7 191.5,-347.7 191.5,-325.7 10.5,-325.7"/>
<text text-anchor="start" x="30.5" y="-332.8" font-family="Helvetica,sans-Serif" font-size="11.00" fill="#000000">first_name</text>
<polygon fill="none" stroke="#000000" points="191.5,-325.7 191.5,-347.7 285.5,-347.7 285.5,-325.7 191.5,-325.7"/>
<text text-anchor="start" x="194.5" y="-333.4" font-family="Helvetica,sans-Serif" font-size="11.00" fill="#000000">varchar[64]</text>
<polygon fill="none" stroke="#000000" points="10.5,-303.7 10.5,-325.7 191.5,-325.7 191.5,-303.7 10.5,-303.7"/>
<text text-anchor="start" x="30.5" y="-310.8" font-family="Helvetica,sans-Serif" font-size="11.00" fill="#000000">last_name</text>
<polygon fill="none" stroke="#000000" points="191.5,-303.7 191.5,-325.7 285.5,-325.7 285.5,-303.7 191.5,-303.7"/>
<text text-anchor="start" x="194.5" y="-311.4" font-family="Helvetica,sans-Serif" font-size="11.00" fill="#000000">varchar[64]</text>
<polygon fill="none" stroke="#000000" points="10.5,-281.7 10.5,-303.7 191.5,-303.7 191.5,-281.7 10.5,-281.7"/>
<text text-anchor="start" x="30.5" y="-288.8" font-family="Helvetica,sans-Serif" font-size="11.00" fill="#000000">restricted_patient</text>
<polygon fill="none" stroke="#000000" points="191.5,-281.7 191.5,-303.7 285.5,-303.7 285.5,-281.7 191.5,-281.7"/>
<text text-anchor="start" x="194.5" y="-289.4" font-family="Helvetica,sans-Serif" font-size="11.00" fill="#000000">bool[1]</text>
<polygon fill="none" stroke="#000000" points="10.5,-259.7 10.5,-281.7 191.5,-281.7 191.5,-259.7 10.5,-259.7"/>
<text text-anchor="start" x="30.5" y="-266.8" font-family="Helvetica,sans-Serif" font-size="11.00" fill="#000000">prison_code</text>
<polygon fill="none" stroke="#000000" points="191.5,-259.7 191.5,-281.7 285.5,-281.7 285.5,-259.7 191.5,-259.7"/>
<text text-anchor="start" x="194.5" y="-267.4" font-family="Helvetica,sans-Serif" font-size="11.00" fill="#000000">varchar[16]</text>
<polygon fill="none" stroke="#000000" points="10.5,-237.7 10.5,-259.7 191.5,-259.7 191.5,-237.7 10.5,-237.7"/>
<text text-anchor="start" x="30.5" y="-244.8" font-family="Helvetica,sans-Serif" font-size="11.00" fill="#000000">cell_location</text>
<polygon fill="none" stroke="#000000" points="191.5,-237.7 191.5,-259.7 285.5,-259.7 285.5,-237.7 191.5,-237.7"/>
<text text-anchor="start" x="194.5" y="-245.4" font-family="Helvetica,sans-Serif" font-size="11.00" fill="#000000">varchar[64]</text>
<polygon fill="none" stroke="#000000" points="10.5,-215.7 10.5,-237.7 191.5,-237.7 191.5,-215.7 10.5,-215.7"/>
<text text-anchor="start" x="30.5" y="-222.8" font-family="Helvetica,sans-Serif" font-size="11.00" fill="#000000">supporting_prison_code</text>
<polygon fill="none" stroke="#000000" points="191.5,-215.7 191.5,-237.7 285.5,-237.7 285.5,-215.7 191.5,-215.7"/>
<text text-anchor="start" x="194.5" y="-223.4" font-family="Helvetica,sans-Serif" font-size="11.00" fill="#000000">varchar[16]</text>
<polygon fill="none" stroke="#000000" points="10.5,-193.7 10.5,-215.7 191.5,-215.7 191.5,-193.7 10.5,-193.7"/>
<text text-anchor="start" x="30.5" y="-200.8" font-family="Helvetica,sans-Serif" font-size="11.00" fill="#000000">referral_date</text>
<polygon fill="none" stroke="#000000" points="191.5,-193.7 191.5,-215.7 285.5,-215.7 285.5,-193.7 191.5,-193.7"/>
<text text-anchor="start" x="194.5" y="-201.4" font-family="Helvetica,sans-Serif" font-size="11.00" fill="#000000">date[13]</text>
<polygon fill="none" stroke="#000000" points="10.5,-171.7 10.5,-193.7 191.5,-193.7 191.5,-171.7 10.5,-171.7"/>
<text text-anchor="start" x="30.5" y="-178.8" font-family="Helvetica,sans-Serif" font-size="11.00" fill="#000000">next_review_date</text>
<polygon fill="none" stroke="#000000" points="191.5,-171.7 191.5,-193.7 285.5,-193.7 285.5,-171.7 191.5,-171.7"/>
<text text-anchor="start" x="194.5" y="-179.4" font-family="Helvetica,sans-Serif" font-size="11.00" fill="#000000">date[13]</text>
<polygon fill="none" stroke="#000000" points="10.5,-149.7 10.5,-171.7 191.5,-171.7 191.5,-149.7 10.5,-149.7"/>
<text text-anchor="start" x="30.5" y="-156.8" font-family="Helvetica,sans-Serif" font-size="11.00" fill="#000000">case_manager</text>
<polygon fill="none" stroke="#000000" points="191.5,-149.7 191.5,-171.7 285.5,-171.7 285.5,-149.7 191.5,-149.7"/>
<text text-anchor="start" x="194.5" y="-157.4" font-family="Helvetica,sans-Serif" font-size="11.00" fill="#000000">varchar[100]</text>
<polygon fill="none" stroke="#000000" points="10.5,-127.7 10.5,-149.7 191.5,-149.7 191.5,-127.7 10.5,-127.7"/>
<text text-anchor="start" x="30.5" y="-134.8" font-family="Helvetica,sans-Serif" font-size="11.00" fill="#000000">id</text>
<polygon fill="none" stroke="#000000" points="191.5,-127.7 191.5,-149.7 285.5,-149.7 285.5,-127.7 191.5,-127.7"/>
<text text-anchor="start" x="194.4758" y="-135.4" font-family="Helvetica,sans-Serif" font-size="11.00" fill="#000000">uuid[2147483647]</text>
<polygon fill="none" stroke="#000000" points="10.5,-105.7 10.5,-127.7 191.5,-127.7 191.5,-105.7 10.5,-105.7"/>
<text text-anchor="start" x="30.5" y="-112.8" font-family="Helvetica,sans-Serif" font-size="11.00" fill="#000000">closed_date</text>
<polygon fill="none" stroke="#000000" points="191.5,-105.7 191.5,-127.7 285.5,-127.7 285.5,-105.7 191.5,-105.7"/>
<text text-anchor="start" x="194.5" y="-113.4" font-family="Helvetica,sans-Serif" font-size="11.00" fill="#000000">date[13]</text>
<polygon fill="none" stroke="#000000" points="10.5,-83.7 10.5,-105.7 191.5,-105.7 191.5,-83.7 10.5,-83.7"/>
<text text-anchor="start" x="30.5" y="-90.8" font-family="Helvetica,sans-Serif" font-size="11.00" fill="#000000">priority</text>
<polygon fill="none" stroke="#000000" points="191.5,-83.7 191.5,-105.7 285.5,-105.7 285.5,-83.7 191.5,-83.7"/>
<text text-anchor="start" x="194.5" y="-91.4" font-family="Helvetica,sans-Serif" font-size="11.00" fill="#000000">int4[10]</text>
<polygon fill="none" stroke="#000000" points="10.5,-61.7 10.5,-83.7 191.5,-83.7 191.5,-61.7 10.5,-61.7"/>
<text text-anchor="start" x="30.5" y="-68.8" font-family="Helvetica,sans-Serif" font-size="11.00" fill="#000000">status_code</text>
<polygon fill="none" stroke="#000000" points="191.5,-61.7 191.5,-83.7 285.5,-83.7 285.5,-61.7 191.5,-61.7"/>
<text text-anchor="start" x="194.5" y="-69.4" font-family="Helvetica,sans-Serif" font-size="11.00" fill="#000000">varchar[32]</text>
<polygon fill="none" stroke="#000000" points="10.5,-39.7 10.5,-61.7 191.5,-61.7 191.5,-39.7 10.5,-39.7"/>
<text text-anchor="start" x="30.5" y="-46.8" font-family="Helvetica,sans-Serif" font-size="11.00" fill="#000000">status_description</text>
<polygon fill="none" stroke="#000000" points="191.5,-39.7 191.5,-61.7 285.5,-61.7 285.5,-39.7 191.5,-39.7"/>
<text text-anchor="start" x="194.5" y="-47.4" font-family="Helvetica,sans-Serif" font-size="11.00" fill="#000000">varchar[40]</text>
<polygon fill="none" stroke="#000000" stroke-width="2" points="9,-39.2 9,-394.2 286,-394.2 286,-39.2 9,-39.2"/>
</a>
</g>
</g>
</g>
</svg>
