<?xml version="1.0" encoding="UTF-8" standalone="no"?>
<!DOCTYPE svg PUBLIC "-//W3C//DTD SVG 1.1//EN"
 "http://www.w3.org/Graphics/SVG/1.1/DTD/svg11.dtd">
<!-- Generated by graphviz version 2.40.1 (20161225.0304)
 -->
<!-- Title: oneDegreeRelationshipsDiagramImplied Pages: 1 -->
<svg width="545pt" height="451pt"
 viewBox="0.00 0.00 545.00 451.20" xmlns="http://www.w3.org/2000/svg" xmlns:xlink="http://www.w3.org/1999/xlink">
<g id="graph0" class="graph" transform="scale(1 1) rotate(0) translate(4 447.2)">
<title>oneDegreeRelationshipsDiagramImplied</title>
<polygon fill="#ffffff" stroke="transparent" points="-4,4 -4,-447.2 541,-447.2 541,4 -4,4"/>
<text text-anchor="middle" x="72.4936" y="-7.3" font-family="Helvetica,sans-Serif" font-size="11.00" fill="#000000">Generated by SchemaSpy</text>
<!-- csip_summary -->
<g id="node1" class="node">
<title>csip_summary</title>
<g id="a_node1"><a xlink:href="../../tables/csip_summary.html" xlink:title="csip_summary" target="_top">
<polygon fill="#ffffff" stroke="transparent" points="250,-38.2 250,-439.2 529,-439.2 529,-38.2 250,-38.2"/>
<polygon fill="#f5f5f5" stroke="transparent" points="252.5,-413.7 252.5,-436.7 527.5,-436.7 527.5,-413.7 252.5,-413.7"/>
<polygon fill="none" stroke="#000000" points="252.5,-413.7 252.5,-436.7 527.5,-436.7 527.5,-413.7 252.5,-413.7"/>
<text text-anchor="start" x="257.5" y="-422.3" font-family="Helvetica,sans-Serif" font-weight="bold" font-size="11.00" fill="#000000">csip_summary</text>
<text text-anchor="start" x="494.3895" y="-421.8" font-family="Helvetica,sans-Serif" font-size="11.00" fill="#000000">[view]</text>
<polygon fill="none" stroke="#000000" points="252.5,-391.7 252.5,-413.7 433.5,-413.7 433.5,-391.7 252.5,-391.7"/>
<image xlink:href="../../images/foreignKeys.png" width="11px" height="12px" preserveAspectRatio="xMinYMin meet" x="257.5" y="-408.7"/>
<text text-anchor="start" x="272.5" y="-398.8" font-family="Helvetica,sans-Serif" font-size="11.00" fill="#000000">prison_number</text>
<polygon fill="none" stroke="#000000" points="433.5,-391.7 433.5,-413.7 527.5,-413.7 527.5,-391.7 433.5,-391.7"/>
<text text-anchor="start" x="436.5" y="-399.4" font-family="Helvetica,sans-Serif" font-size="11.00" fill="#000000">varchar[10]</text>
<polygon fill="none" stroke="#000000" points="252.5,-369.7 252.5,-391.7 433.5,-391.7 433.5,-369.7 252.5,-369.7"/>
<text text-anchor="start" x="272.5" y="-376.8" font-family="Helvetica,sans-Serif" font-size="11.00" fill="#000000">first_name</text>
<polygon fill="none" stroke="#000000" points="433.5,-369.7 433.5,-391.7 527.5,-391.7 527.5,-369.7 433.5,-369.7"/>
<text text-anchor="start" x="436.5" y="-377.4" font-family="Helvetica,sans-Serif" font-size="11.00" fill="#000000">varchar[64]</text>
<polygon fill="none" stroke="#000000" points="252.5,-347.7 252.5,-369.7 433.5,-369.7 433.5,-347.7 252.5,-347.7"/>
<text text-anchor="start" x="272.5" y="-354.8" font-family="Helvetica,sans-Serif" font-size="11.00" fill="#000000">last_name</text>
<polygon fill="none" stroke="#000000" points="433.5,-347.7 433.5,-369.7 527.5,-369.7 527.5,-347.7 433.5,-347.7"/>
<text text-anchor="start" x="436.5" y="-355.4" font-family="Helvetica,sans-Serif" font-size="11.00" fill="#000000">varchar[64]</text>
<polygon fill="none" stroke="#000000" points="252.5,-325.7 252.5,-347.7 433.5,-347.7 433.5,-325.7 252.5,-325.7"/>
<text text-anchor="start" x="272.5" y="-332.8" font-family="Helvetica,sans-Serif" font-size="11.00" fill="#000000">restricted_patient</text>
<polygon fill="none" stroke="#000000" points="433.5,-325.7 433.5,-347.7 527.5,-347.7 527.5,-325.7 433.5,-325.7"/>
<text text-anchor="start" x="436.5" y="-333.4" font-family="Helvetica,sans-Serif" font-size="11.00" fill="#000000">bool[1]</text>
<polygon fill="none" stroke="#000000" points="252.5,-303.7 252.5,-325.7 433.5,-325.7 433.5,-303.7 252.5,-303.7"/>
<text text-anchor="start" x="272.5" y="-310.8" font-family="Helvetica,sans-Serif" font-size="11.00" fill="#000000">prison_code</text>
<polygon fill="none" stroke="#000000" points="433.5,-303.7 433.5,-325.7 527.5,-325.7 527.5,-303.7 433.5,-303.7"/>
<text text-anchor="start" x="436.5" y="-311.4" font-family="Helvetica,sans-Serif" font-size="11.00" fill="#000000">varchar[16]</text>
<polygon fill="none" stroke="#000000" points="252.5,-281.7 252.5,-303.7 433.5,-303.7 433.5,-281.7 252.5,-281.7"/>
<text text-anchor="start" x="272.5" y="-288.8" font-family="Helvetica,sans-Serif" font-size="11.00" fill="#000000">cell_location</text>
<polygon fill="none" stroke="#000000" points="433.5,-281.7 433.5,-303.7 527.5,-303.7 527.5,-281.7 433.5,-281.7"/>
<text text-anchor="start" x="436.5" y="-289.4" font-family="Helvetica,sans-Serif" font-size="11.00" fill="#000000">varchar[64]</text>
<polygon fill="none" stroke="#000000" points="252.5,-259.7 252.5,-281.7 433.5,-281.7 433.5,-259.7 252.5,-259.7"/>
<text text-anchor="start" x="272.5" y="-266.8" font-family="Helvetica,sans-Serif" font-size="11.00" fill="#000000">supporting_prison_code</text>
<polygon fill="none" stroke="#000000" points="433.5,-259.7 433.5,-281.7 527.5,-281.7 527.5,-259.7 433.5,-259.7"/>
<text text-anchor="start" x="436.5" y="-267.4" font-family="Helvetica,sans-Serif" font-size="11.00" fill="#000000">varchar[16]</text>
<polygon fill="none" stroke="#000000" points="252.5,-237.7 252.5,-259.7 433.5,-259.7 433.5,-237.7 252.5,-237.7"/>
<text text-anchor="start" x="272.5" y="-244.8" font-family="Helvetica,sans-Serif" font-size="11.00" fill="#000000">referral_date</text>
<polygon fill="none" stroke="#000000" points="433.5,-237.7 433.5,-259.7 527.5,-259.7 527.5,-237.7 433.5,-237.7"/>
<text text-anchor="start" x="436.5" y="-245.4" font-family="Helvetica,sans-Serif" font-size="11.00" fill="#000000">date[13]</text>
<polygon fill="none" stroke="#000000" points="252.5,-215.7 252.5,-237.7 433.5,-237.7 433.5,-215.7 252.5,-215.7"/>
<text text-anchor="start" x="272.5" y="-222.8" font-family="Helvetica,sans-Serif" font-size="11.00" fill="#000000">incident_type</text>
<polygon fill="none" stroke="#000000" points="433.5,-215.7 433.5,-237.7 527.5,-237.7 527.5,-215.7 433.5,-215.7"/>
<text text-anchor="start" x="436.5" y="-223.4" font-family="Helvetica,sans-Serif" font-size="11.00" fill="#000000">varchar[40]</text>
<polygon fill="none" stroke="#000000" points="252.5,-193.7 252.5,-215.7 433.5,-215.7 433.5,-193.7 252.5,-193.7"/>
<text text-anchor="start" x="272.5" y="-200.8" font-family="Helvetica,sans-Serif" font-size="11.00" fill="#000000">next_review_date</text>
<polygon fill="none" stroke="#000000" points="433.5,-193.7 433.5,-215.7 527.5,-215.7 527.5,-193.7 433.5,-193.7"/>
<text text-anchor="start" x="436.5" y="-201.4" font-family="Helvetica,sans-Serif" font-size="11.00" fill="#000000">date[13]</text>
<polygon fill="none" stroke="#000000" points="252.5,-171.7 252.5,-193.7 433.5,-193.7 433.5,-171.7 252.5,-171.7"/>
<text text-anchor="start" x="272.5" y="-178.8" font-family="Helvetica,sans-Serif" font-size="11.00" fill="#000000">case_manager</text>
<polygon fill="none" stroke="#000000" points="433.5,-171.7 433.5,-193.7 527.5,-193.7 527.5,-171.7 433.5,-171.7"/>
<text text-anchor="start" x="436.5" y="-179.4" font-family="Helvetica,sans-Serif" font-size="11.00" fill="#000000">varchar[100]</text>
<polygon fill="none" stroke="#000000" points="252.5,-149.7 252.5,-171.7 433.5,-171.7 433.5,-149.7 252.5,-149.7"/>
<image xlink:href="../../images/foreignKeys.png" width="11px" height="12px" preserveAspectRatio="xMinYMin meet" x="257.5" y="-166.7"/>
<text text-anchor="start" x="272.5" y="-156.8" font-family="Helvetica,sans-Serif" font-size="11.00" fill="#000000">id</text>
<polygon fill="none" stroke="#000000" points="433.5,-149.7 433.5,-171.7 527.5,-171.7 527.5,-149.7 433.5,-149.7"/>
<text text-anchor="start" x="436.4758" y="-157.4" font-family="Helvetica,sans-Serif" font-size="11.00" fill="#000000">uuid[2147483647]</text>
<polygon fill="none" stroke="#000000" points="252.5,-127.7 252.5,-149.7 433.5,-149.7 433.5,-127.7 252.5,-127.7"/>
<text text-anchor="start" x="272.5" y="-134.8" font-family="Helvetica,sans-Serif" font-size="11.00" fill="#000000">log_code</text>
<polygon fill="none" stroke="#000000" points="433.5,-127.7 433.5,-149.7 527.5,-149.7 527.5,-127.7 433.5,-127.7"/>
<text text-anchor="start" x="436.5" y="-135.4" font-family="Helvetica,sans-Serif" font-size="11.00" fill="#000000">varchar[10]</text>
<polygon fill="none" stroke="#000000" points="252.5,-105.7 252.5,-127.7 433.5,-127.7 433.5,-105.7 252.5,-105.7"/>
<text text-anchor="start" x="272.5" y="-112.8" font-family="Helvetica,sans-Serif" font-size="11.00" fill="#000000">closed_date</text>
<polygon fill="none" stroke="#000000" points="433.5,-105.7 433.5,-127.7 527.5,-127.7 527.5,-105.7 433.5,-105.7"/>
<text text-anchor="start" x="436.5" y="-113.4" font-family="Helvetica,sans-Serif" font-size="11.00" fill="#000000">date[13]</text>
<polygon fill="none" stroke="#000000" points="252.5,-83.7 252.5,-105.7 433.5,-105.7 433.5,-83.7 252.5,-83.7"/>
<text text-anchor="start" x="272.5" y="-90.8" font-family="Helvetica,sans-Serif" font-size="11.00" fill="#000000">priority</text>
<polygon fill="none" stroke="#000000" points="433.5,-83.7 433.5,-105.7 527.5,-105.7 527.5,-83.7 433.5,-83.7"/>
<text text-anchor="start" x="436.5" y="-91.4" font-family="Helvetica,sans-Serif" font-size="11.00" fill="#000000">int4[10]</text>
<polygon fill="none" stroke="#000000" points="252.5,-61.7 252.5,-83.7 433.5,-83.7 433.5,-61.7 252.5,-61.7"/>
<text text-anchor="start" x="272.5" y="-68.8" font-family="Helvetica,sans-Serif" font-size="11.00" fill="#000000">status_code</text>
<polygon fill="none" stroke="#000000" points="433.5,-61.7 433.5,-83.7 527.5,-83.7 527.5,-61.7 433.5,-61.7"/>
<text text-anchor="start" x="436.5" y="-69.4" font-family="Helvetica,sans-Serif" font-size="11.00" fill="#000000">varchar[32]</text>
<polygon fill="none" stroke="#000000" points="252.5,-39.7 252.5,-61.7 433.5,-61.7 433.5,-39.7 252.5,-39.7"/>
<text text-anchor="start" x="272.5" y="-46.8" font-family="Helvetica,sans-Serif" font-size="11.00" fill="#000000">status_description</text>
<polygon fill="none" stroke="#000000" points="433.5,-39.7 433.5,-61.7 527.5,-61.7 527.5,-39.7 433.5,-39.7"/>
<text text-anchor="start" x="436.5" y="-47.4" font-family="Helvetica,sans-Serif" font-size="11.00" fill="#000000">varchar[40]</text>
<polygon fill="none" stroke="#000000" stroke-width="2" points="251,-39.2 251,-438.2 528,-438.2 528,-39.2 251,-39.2"/>
</a>
</g>
</g>
<!-- case_note_annotations -->
<g id="node2" class="node">
<title>case_note_annotations</title>
<g id="a_node2"><a xlink:href="../../tables/case_note_annotations.html" xlink:title="case_note_annotations" target="_top">
<polygon fill="#ffffff" stroke="transparent" points="8,-46.2 8,-195.2 201,-195.2 201,-46.2 8,-46.2"/>
<polygon fill="#f5f5f5" stroke="transparent" points="8.5,-171.7 8.5,-194.7 201.5,-194.7 201.5,-171.7 8.5,-171.7"/>
<polygon fill="none" stroke="#000000" points="8.5,-171.7 8.5,-194.7 201.5,-194.7 201.5,-171.7 8.5,-171.7"/>
<text text-anchor="start" x="13.5" y="-180.3" font-family="Helvetica,sans-Serif" font-weight="bold" font-size="11.00" fill="#000000">case_note_annotations</text>
<text text-anchor="start" x="167.0219" y="-179.8" font-family="Helvetica,sans-Serif" font-size="11.00" fill="#000000">[table]</text>
<polygon fill="none" stroke="#000000" points="8.5,-149.7 8.5,-171.7 201.5,-171.7 201.5,-149.7 8.5,-149.7"/>
<image xlink:href="../../images/primaryKeys.png" width="11px" height="12px" preserveAspectRatio="xMinYMin meet" x="13.5" y="-166.7"/>
<text text-anchor="start" x="37.5" y="-156.8" font-family="Helvetica,sans-Serif" font-size="11.00" fill="#000000">id</text>
<polygon fill="#ffffff" stroke="transparent" points="8.5,-127.7 8.5,-149.7 201.5,-149.7 201.5,-127.7 8.5,-127.7"/>
<polygon fill="none" stroke="#000000" points="8.5,-127.7 8.5,-149.7 201.5,-149.7 201.5,-127.7 8.5,-127.7"/>
<text text-anchor="start" x="37.5" y="-134.8" font-family="Helvetica,sans-Serif" font-size="11.00" fill="#000000">request_id</text>
<polygon fill="#ffffff" stroke="transparent" points="8.5,-105.7 8.5,-127.7 201.5,-127.7 201.5,-105.7 8.5,-105.7"/>
<polygon fill="none" stroke="#000000" points="8.5,-105.7 8.5,-127.7 201.5,-127.7 201.5,-105.7 8.5,-105.7"/>
<text text-anchor="start" x="37.5" y="-112.8" font-family="Helvetica,sans-Serif" font-size="11.00" fill="#000000">prisoner_number</text>
<polygon fill="#ffffff" stroke="transparent" points="8.5,-83.7 8.5,-105.7 201.5,-105.7 201.5,-83.7 8.5,-83.7"/>
<polygon fill="none" stroke="#000000" points="8.5,-83.7 8.5,-105.7 201.5,-105.7 201.5,-83.7 8.5,-83.7"/>
<text text-anchor="start" x="37.5" y="-90.8" font-family="Helvetica,sans-Serif" font-size="11.00" fill="#000000">case_note_id</text>
<polygon fill="none" stroke="#000000" points="8.5,-64.7 8.5,-83.7 201.5,-83.7 201.5,-64.7 8.5,-64.7"/>
<text text-anchor="start" x="11.5" y="-70.8" font-family="Helvetica,sans-Serif" font-size="11.00" fill="#000000">...</text>
<polygon fill="#ffffff" stroke="transparent" points="8.5,-45.7 8.5,-64.7 94.5,-64.7 94.5,-45.7 8.5,-45.7"/>
<polygon fill="none" stroke="#000000" points="8.5,-45.7 8.5,-64.7 94.5,-64.7 94.5,-45.7 8.5,-45.7"/>
<text text-anchor="start" x="11.5" y="-51.8" font-family="Helvetica,sans-Serif" font-size="11.00" fill="#000000"> &#160;</text>
<polygon fill="#ffffff" stroke="transparent" points="94.5,-45.7 94.5,-64.7 143.5,-64.7 143.5,-45.7 94.5,-45.7"/>
<polygon fill="none" stroke="#000000" points="94.5,-45.7 94.5,-64.7 143.5,-64.7 143.5,-45.7 94.5,-45.7"/>
<text text-anchor="start" x="134.3862" y="-51.8" font-family="Helvetica,sans-Serif" font-size="11.00" fill="#000000"> &#160;</text>
<polygon fill="#ffffff" stroke="transparent" points="143.5,-45.7 143.5,-64.7 201.5,-64.7 201.5,-45.7 143.5,-45.7"/>
<polygon fill="none" stroke="#000000" points="143.5,-45.7 143.5,-64.7 201.5,-64.7 201.5,-45.7 143.5,-45.7"/>
<text text-anchor="start" x="182.9053" y="-51.8" font-family="Helvetica,sans-Serif" font-size="11.00" fill="#000000">1 &gt;</text>
</a>
</g>
</g>
<!-- csip_summary&#45;&gt;case_note_annotations -->
<g id="edge1" class="edge">
<title>csip_summary:w&#45;&gt;case_note_annotations:e</title>
<path fill="none" stroke="#000000" stroke-dasharray="5,2" d="M237.776,-160.7C225.7815,-160.7 218.3229,-160.7 201.5,-160.7"/>
<polygon fill="#000000" stroke="#000000" points="244.5,-160.7001 252.5,-164.3 248.5,-160.7 252.5,-160.7 252.5,-160.7 252.5,-160.7 248.5,-160.7 252.5,-157.1 244.5,-160.7001 244.5,-160.7001"/>
<ellipse fill="none" stroke="#000000" cx="241.3" cy="-160.7001" rx="3.2" ry="3.2"/>
</g>
<!-- person_summary -->
<g id="node3" class="node">
<title>person_summary</title>
<g id="a_node3"><a xlink:href="../../tables/person_summary.html" xlink:title="person_summary" target="_top">
<polygon fill="#ffffff" stroke="transparent" points="14,-310.2 14,-437.2 195,-437.2 195,-310.2 14,-310.2"/>
<polygon fill="#f5f5f5" stroke="transparent" points="14.5,-413.7 14.5,-436.7 195.5,-436.7 195.5,-413.7 14.5,-413.7"/>
<polygon fill="none" stroke="#000000" points="14.5,-413.7 14.5,-436.7 195.5,-436.7 195.5,-413.7 14.5,-413.7"/>
<text text-anchor="start" x="19.5" y="-422.3" font-family="Helvetica,sans-Serif" font-weight="bold" font-size="11.00" fill="#000000">person_summary</text>
<text text-anchor="start" x="160.5437" y="-421.8" font-family="Helvetica,sans-Serif" font-size="11.00" fill="#000000">[table]</text>
<polygon fill="none" stroke="#000000" points="14.5,-391.7 14.5,-413.7 195.5,-413.7 195.5,-391.7 14.5,-391.7"/>
<image xlink:href="../../images/primaryKeys.png" width="11px" height="12px" preserveAspectRatio="xMinYMin meet" x="19.5" y="-408.7"/>
<text text-anchor="start" x="34.5" y="-398.8" font-family="Helvetica,sans-Serif" font-size="11.00" fill="#000000">prison_number</text>
<polygon fill="#ffffff" stroke="transparent" points="14.5,-369.7 14.5,-391.7 195.5,-391.7 195.5,-369.7 14.5,-369.7"/>
<polygon fill="none" stroke="#000000" points="14.5,-369.7 14.5,-391.7 195.5,-391.7 195.5,-369.7 14.5,-369.7"/>
<text text-anchor="start" x="34.5" y="-376.8" font-family="Helvetica,sans-Serif" font-size="11.00" fill="#000000">prison_code</text>
<polygon fill="#ffffff" stroke="transparent" points="14.5,-347.7 14.5,-369.7 195.5,-369.7 195.5,-347.7 14.5,-347.7"/>
<polygon fill="none" stroke="#000000" points="14.5,-347.7 14.5,-369.7 195.5,-369.7 195.5,-347.7 14.5,-347.7"/>
<text text-anchor="start" x="34.5" y="-354.8" font-family="Helvetica,sans-Serif" font-size="11.00" fill="#000000">supporting_prison_code</text>
<polygon fill="none" stroke="#000000" points="14.5,-328.7 14.5,-347.7 195.5,-347.7 195.5,-328.7 14.5,-328.7"/>
<text text-anchor="start" x="17.5" y="-334.8" font-family="Helvetica,sans-Serif" font-size="11.00" fill="#000000">...</text>
<polygon fill="#ffffff" stroke="transparent" points="14.5,-309.7 14.5,-328.7 94.5,-328.7 94.5,-309.7 14.5,-309.7"/>
<polygon fill="none" stroke="#000000" points="14.5,-309.7 14.5,-328.7 94.5,-328.7 94.5,-309.7 14.5,-309.7"/>
<text text-anchor="start" x="17.5" y="-315.8" font-family="Helvetica,sans-Serif" font-size="11.00" fill="#000000"> &#160;</text>
<polygon fill="#ffffff" stroke="transparent" points="94.5,-309.7 94.5,-328.7 140.5,-328.7 140.5,-309.7 94.5,-309.7"/>
<polygon fill="none" stroke="#000000" points="94.5,-309.7 94.5,-328.7 140.5,-328.7 140.5,-309.7 94.5,-309.7"/>
<text text-anchor="start" x="131.3862" y="-315.8" font-family="Helvetica,sans-Serif" font-size="11.00" fill="#000000"> &#160;</text>
<polygon fill="#ffffff" stroke="transparent" points="140.5,-309.7 140.5,-328.7 195.5,-328.7 195.5,-309.7 140.5,-309.7"/>
<polygon fill="none" stroke="#000000" points="140.5,-309.7 140.5,-328.7 195.5,-328.7 195.5,-309.7 140.5,-309.7"/>
<text text-anchor="start" x="176.9053" y="-315.8" font-family="Helvetica,sans-Serif" font-size="11.00" fill="#000000">3 &gt;</text>
</a>
</g>
</g>
<!-- csip_summary&#45;&gt;person_summary -->
<g id="edge2" class="edge">
<title>csip_summary:w&#45;&gt;person_summary:e</title>
<path fill="none" stroke="#000000" stroke-dasharray="5,2" d="M237.7652,-402.7C223.3216,-402.7 215.0938,-402.7 195.5,-402.7"/>
<polygon fill="#000000" stroke="#000000" points="244.5,-402.7001 252.5,-406.3 248.5,-402.7 252.5,-402.7 252.5,-402.7 252.5,-402.7 248.5,-402.7 252.5,-399.1 244.5,-402.7001 244.5,-402.7001"/>
<ellipse fill="none" stroke="#000000" cx="241.3" cy="-402.7001" rx="3.2" ry="3.2"/>
</g>
</g>
</svg>
