<?xml version="1.0" encoding="UTF-8" standalone="no"?>
<!DOCTYPE svg PUBLIC "-//W3C//DTD SVG 1.1//EN"
 "http://www.w3.org/Graphics/SVG/1.1/DTD/svg11.dtd">
<!-- Generated by graphviz version 2.40.1 (20161225.0304)
 -->
<!-- Title: twoDegreesRelationshipsDiagram Pages: 1 -->
<svg width="626pt" height="1461pt"
 viewBox="0.00 0.00 626.00 1461.20" xmlns="http://www.w3.org/2000/svg" xmlns:xlink="http://www.w3.org/1999/xlink">
<g id="graph0" class="graph" transform="scale(1 1) rotate(0) translate(4 1457.2)">
<title>twoDegreesRelationshipsDiagram</title>
<polygon fill="#ffffff" stroke="transparent" points="-4,4 -4,-1457.2 622,-1457.2 622,4 -4,4"/>
<text text-anchor="middle" x="72.4936" y="-7.3" font-family="Helvetica,sans-Serif" font-size="11.00" fill="#000000">Generated by SchemaSpy</text>
<!-- attendee_audit -->
<g id="node1" class="node">
<title>attendee_audit</title>
<g id="a_node1"><a xlink:href="../../tables/attendee_audit.html" xlink:title="attendee_audit" target="_top">
<polygon fill="#ffffff" stroke="transparent" points="346,-1388.2 346,-1449.2 487,-1449.2 487,-1388.2 346,-1388.2"/>
<polygon fill="#f5f5f5" stroke="transparent" points="346.5,-1425.7 346.5,-1448.7 487.5,-1448.7 487.5,-1425.7 346.5,-1425.7"/>
<polygon fill="none" stroke="#000000" points="346.5,-1425.7 346.5,-1448.7 487.5,-1448.7 487.5,-1425.7 346.5,-1425.7"/>
<text text-anchor="start" x="351.5" y="-1434.3" font-family="Helvetica,sans-Serif" font-weight="bold" font-size="11.00" fill="#000000">attendee_audit</text>
<text text-anchor="start" x="453.0219" y="-1433.8" font-family="Helvetica,sans-Serif" font-size="11.00" fill="#000000">[table]</text>
<polygon fill="none" stroke="#000000" points="346.5,-1406.7 346.5,-1425.7 487.5,-1425.7 487.5,-1406.7 346.5,-1406.7"/>
<text text-anchor="start" x="349.5" y="-1412.8" font-family="Helvetica,sans-Serif" font-size="11.00" fill="#000000">...</text>
<polygon fill="#ffffff" stroke="transparent" points="346.5,-1387.7 346.5,-1406.7 415.5,-1406.7 415.5,-1387.7 346.5,-1387.7"/>
<polygon fill="none" stroke="#000000" points="346.5,-1387.7 346.5,-1406.7 415.5,-1406.7 415.5,-1387.7 346.5,-1387.7"/>
<text text-anchor="start" x="349.5" y="-1393.8" font-family="Helvetica,sans-Serif" font-size="11.00" fill="#000000">&lt; 1</text>
<polygon fill="#ffffff" stroke="transparent" points="415.5,-1387.7 415.5,-1406.7 451.5,-1406.7 451.5,-1387.7 415.5,-1387.7"/>
<polygon fill="none" stroke="#000000" points="415.5,-1387.7 415.5,-1406.7 451.5,-1406.7 451.5,-1387.7 415.5,-1387.7"/>
<text text-anchor="start" x="442.3862" y="-1393.8" font-family="Helvetica,sans-Serif" font-size="11.00" fill="#000000"> &#160;</text>
<polygon fill="#ffffff" stroke="transparent" points="451.5,-1387.7 451.5,-1406.7 487.5,-1406.7 487.5,-1387.7 451.5,-1387.7"/>
<polygon fill="none" stroke="#000000" points="451.5,-1387.7 451.5,-1406.7 487.5,-1406.7 487.5,-1387.7 451.5,-1387.7"/>
<text text-anchor="start" x="478.3862" y="-1393.8" font-family="Helvetica,sans-Serif" font-size="11.00" fill="#000000"> &#160;</text>
</a>
</g>
</g>
<!-- audit_revision -->
<g id="node2" class="node">
<title>audit_revision</title>
<g id="a_node2"><a xlink:href="../../tables/audit_revision.html" xlink:title="audit_revision" target="_top">
<polygon fill="#ffffff" stroke="transparent" points="8,-468.2 8,-551.2 174,-551.2 174,-468.2 8,-468.2"/>
<polygon fill="#f5f5f5" stroke="transparent" points="8,-527.7 8,-550.7 174,-550.7 174,-527.7 8,-527.7"/>
<polygon fill="none" stroke="#000000" points="8,-527.7 8,-550.7 174,-550.7 174,-527.7 8,-527.7"/>
<text text-anchor="start" x="13" y="-536.3" font-family="Helvetica,sans-Serif" font-weight="bold" font-size="11.00" fill="#000000">audit_revision</text>
<text text-anchor="start" x="139.0437" y="-535.8" font-family="Helvetica,sans-Serif" font-size="11.00" fill="#000000">[table]</text>
<polygon fill="none" stroke="#000000" points="8,-505.7 8,-527.7 174,-527.7 174,-505.7 8,-505.7"/>
<image xlink:href="../../images/primaryKeys.png" width="11px" height="12px" preserveAspectRatio="xMinYMin meet" x="13" y="-522.7"/>
<text text-anchor="start" x="28" y="-512.8" font-family="Helvetica,sans-Serif" font-size="11.00" fill="#000000">id</text>
<polygon fill="none" stroke="#000000" points="8,-486.7 8,-505.7 174,-505.7 174,-486.7 8,-486.7"/>
<text text-anchor="start" x="11" y="-492.8" font-family="Helvetica,sans-Serif" font-size="11.00" fill="#000000">...</text>
<polygon fill="#ffffff" stroke="transparent" points="8,-467.7 8,-486.7 77,-486.7 77,-467.7 8,-467.7"/>
<polygon fill="none" stroke="#000000" points="8,-467.7 8,-486.7 77,-486.7 77,-467.7 8,-467.7"/>
<text text-anchor="start" x="11" y="-473.8" font-family="Helvetica,sans-Serif" font-size="11.00" fill="#000000"> &#160;</text>
<polygon fill="#ffffff" stroke="transparent" points="77,-467.7 77,-486.7 118,-486.7 118,-467.7 77,-467.7"/>
<polygon fill="none" stroke="#000000" points="77,-467.7 77,-486.7 118,-486.7 118,-467.7 77,-467.7"/>
<text text-anchor="start" x="108.8862" y="-473.8" font-family="Helvetica,sans-Serif" font-size="11.00" fill="#000000"> &#160;</text>
<polygon fill="#ffffff" stroke="transparent" points="118,-467.7 118,-486.7 174,-486.7 174,-467.7 118,-467.7"/>
<polygon fill="none" stroke="#000000" points="118,-467.7 118,-486.7 174,-486.7 174,-467.7 118,-467.7"/>
<text text-anchor="start" x="149.2904" y="-473.8" font-family="Helvetica,sans-Serif" font-size="11.00" fill="#000000">12 &gt;</text>
</a>
</g>
</g>
<!-- attendee_audit&#45;&gt;audit_revision -->
<g id="edge1" class="edge">
<title>attendee_audit:w&#45;&gt;audit_revision:e</title>
<path fill="none" stroke="#000000" d="M332.0735,-1415.8595C280.2254,-1416.9111 249.615,-1421.5235 215,-1377.7 155.6351,-1302.5424 269.7751,-516.7 174,-516.7"/>
<polygon fill="#000000" stroke="#000000" points="338.5005,-1415.7885 346.5398,-1419.2998 342.5002,-1415.7443 346.5,-1415.7 346.5,-1415.7 346.5,-1415.7 342.5002,-1415.7443 346.4602,-1412.1002 338.5005,-1415.7885 338.5005,-1415.7885"/>
<ellipse fill="none" stroke="#000000" cx="335.3007" cy="-1415.8239" rx="3.2" ry="3.2"/>
</g>
<!-- contributory_factor_audit -->
<g id="node3" class="node">
<title>contributory_factor_audit</title>
<g id="a_node3"><a xlink:href="../../tables/contributory_factor_audit.html" xlink:title="contributory_factor_audit" target="_top">
<polygon fill="#ffffff" stroke="transparent" points="311.5,-1306.2 311.5,-1367.2 521.5,-1367.2 521.5,-1306.2 311.5,-1306.2"/>
<polygon fill="#f5f5f5" stroke="transparent" points="311.5,-1343.7 311.5,-1366.7 521.5,-1366.7 521.5,-1343.7 311.5,-1343.7"/>
<polygon fill="none" stroke="#000000" points="311.5,-1343.7 311.5,-1366.7 521.5,-1366.7 521.5,-1343.7 311.5,-1343.7"/>
<text text-anchor="start" x="316.5" y="-1352.3" font-family="Helvetica,sans-Serif" font-weight="bold" font-size="11.00" fill="#000000">contributory_factor_audit</text>
<text text-anchor="start" x="487.0219" y="-1351.8" font-family="Helvetica,sans-Serif" font-size="11.00" fill="#000000">[table]</text>
<polygon fill="none" stroke="#000000" points="311.5,-1324.7 311.5,-1343.7 521.5,-1343.7 521.5,-1324.7 311.5,-1324.7"/>
<text text-anchor="start" x="314.5" y="-1330.8" font-family="Helvetica,sans-Serif" font-size="11.00" fill="#000000">...</text>
<polygon fill="#ffffff" stroke="transparent" points="311.5,-1305.7 311.5,-1324.7 414.5,-1324.7 414.5,-1305.7 311.5,-1305.7"/>
<polygon fill="none" stroke="#000000" points="311.5,-1305.7 311.5,-1324.7 414.5,-1324.7 414.5,-1305.7 311.5,-1305.7"/>
<text text-anchor="start" x="314.5" y="-1311.8" font-family="Helvetica,sans-Serif" font-size="11.00" fill="#000000">&lt; 1</text>
<polygon fill="#ffffff" stroke="transparent" points="414.5,-1305.7 414.5,-1324.7 467.5,-1324.7 467.5,-1305.7 414.5,-1305.7"/>
<polygon fill="none" stroke="#000000" points="414.5,-1305.7 414.5,-1324.7 467.5,-1324.7 467.5,-1305.7 414.5,-1305.7"/>
<text text-anchor="start" x="458.3862" y="-1311.8" font-family="Helvetica,sans-Serif" font-size="11.00" fill="#000000"> &#160;</text>
<polygon fill="#ffffff" stroke="transparent" points="467.5,-1305.7 467.5,-1324.7 521.5,-1324.7 521.5,-1305.7 467.5,-1305.7"/>
<polygon fill="none" stroke="#000000" points="467.5,-1305.7 467.5,-1324.7 521.5,-1324.7 521.5,-1305.7 467.5,-1305.7"/>
<text text-anchor="start" x="512.3862" y="-1311.8" font-family="Helvetica,sans-Serif" font-size="11.00" fill="#000000"> &#160;</text>
</a>
</g>
</g>
<!-- contributory_factor_audit&#45;&gt;audit_revision -->
<g id="edge2" class="edge">
<title>contributory_factor_audit:w&#45;&gt;audit_revision:e</title>
<path fill="none" stroke="#000000" d="M296.6682,-1333.6244C260.044,-1333.0927 238.8854,-1328.8673 215,-1295.7 164.3482,-1225.365 260.6754,-516.7 174,-516.7"/>
<polygon fill="#000000" stroke="#000000" points="303.5001,-1333.6592 311.4816,-1337.3 307.5001,-1333.6796 311.5,-1333.7 311.5,-1333.7 311.5,-1333.7 307.5001,-1333.6796 311.5184,-1330.1 303.5001,-1333.6592 303.5001,-1333.6592"/>
<ellipse fill="none" stroke="#000000" cx="300.3001" cy="-1333.6429" rx="3.2" ry="3.2"/>
</g>
<!-- csip_record_audit -->
<g id="node4" class="node">
<title>csip_record_audit</title>
<g id="a_node4"><a xlink:href="../../tables/csip_record_audit.html" xlink:title="csip_record_audit" target="_top">
<polygon fill="#ffffff" stroke="transparent" points="338.5,-1224.2 338.5,-1285.2 494.5,-1285.2 494.5,-1224.2 338.5,-1224.2"/>
<polygon fill="#f5f5f5" stroke="transparent" points="338.5,-1261.7 338.5,-1284.7 494.5,-1284.7 494.5,-1261.7 338.5,-1261.7"/>
<polygon fill="none" stroke="#000000" points="338.5,-1261.7 338.5,-1284.7 494.5,-1284.7 494.5,-1261.7 338.5,-1261.7"/>
<text text-anchor="start" x="343.5" y="-1270.3" font-family="Helvetica,sans-Serif" font-weight="bold" font-size="11.00" fill="#000000">csip_record_audit</text>
<text text-anchor="start" x="460.0219" y="-1269.8" font-family="Helvetica,sans-Serif" font-size="11.00" fill="#000000">[table]</text>
<polygon fill="none" stroke="#000000" points="338.5,-1242.7 338.5,-1261.7 494.5,-1261.7 494.5,-1242.7 338.5,-1242.7"/>
<text text-anchor="start" x="341.5" y="-1248.8" font-family="Helvetica,sans-Serif" font-size="11.00" fill="#000000">...</text>
<polygon fill="#ffffff" stroke="transparent" points="338.5,-1223.7 338.5,-1242.7 414.5,-1242.7 414.5,-1223.7 338.5,-1223.7"/>
<polygon fill="none" stroke="#000000" points="338.5,-1223.7 338.5,-1242.7 414.5,-1242.7 414.5,-1223.7 338.5,-1223.7"/>
<text text-anchor="start" x="341.5" y="-1229.8" font-family="Helvetica,sans-Serif" font-size="11.00" fill="#000000">&lt; 1</text>
<polygon fill="#ffffff" stroke="transparent" points="414.5,-1223.7 414.5,-1242.7 454.5,-1242.7 454.5,-1223.7 414.5,-1223.7"/>
<polygon fill="none" stroke="#000000" points="414.5,-1223.7 414.5,-1242.7 454.5,-1242.7 454.5,-1223.7 414.5,-1223.7"/>
<text text-anchor="start" x="445.3862" y="-1229.8" font-family="Helvetica,sans-Serif" font-size="11.00" fill="#000000"> &#160;</text>
<polygon fill="#ffffff" stroke="transparent" points="454.5,-1223.7 454.5,-1242.7 494.5,-1242.7 494.5,-1223.7 454.5,-1223.7"/>
<polygon fill="none" stroke="#000000" points="454.5,-1223.7 454.5,-1242.7 494.5,-1242.7 494.5,-1223.7 454.5,-1223.7"/>
<text text-anchor="start" x="485.3862" y="-1229.8" font-family="Helvetica,sans-Serif" font-size="11.00" fill="#000000"> &#160;</text>
</a>
</g>
</g>
<!-- csip_record_audit&#45;&gt;audit_revision -->
<g id="edge3" class="edge">
<title>csip_record_audit:w&#45;&gt;audit_revision:e</title>
<path fill="none" stroke="#000000" d="M323.9577,-1251.8258C275.6533,-1252.5565 247.3439,-1254.9025 215,-1213.7 167.0975,-1152.6775 251.5783,-516.7 174,-516.7"/>
<polygon fill="#000000" stroke="#000000" points="330.5003,-1251.7693 338.5312,-1255.2999 334.5001,-1251.7346 338.5,-1251.7 338.5,-1251.7 338.5,-1251.7 334.5001,-1251.7346 338.4688,-1248.1001 330.5003,-1251.7693 330.5003,-1251.7693"/>
<ellipse fill="none" stroke="#000000" cx="327.3004" cy="-1251.797" rx="3.2" ry="3.2"/>
</g>
<!-- decision_and_actions_audit -->
<g id="node5" class="node">
<title>decision_and_actions_audit</title>
<g id="a_node5"><a xlink:href="../../tables/decision_and_actions_audit.html" xlink:title="decision_and_actions_audit" target="_top">
<polygon fill="#ffffff" stroke="transparent" points="223,-694.7 223,-1202.7 610,-1202.7 610,-694.7 223,-694.7"/>
<polygon fill="#f5f5f5" stroke="transparent" points="225.5,-1177.7 225.5,-1200.7 608.5,-1200.7 608.5,-1177.7 225.5,-1177.7"/>
<polygon fill="none" stroke="#000000" points="225.5,-1177.7 225.5,-1200.7 608.5,-1200.7 608.5,-1177.7 225.5,-1177.7"/>
<text text-anchor="start" x="230.5" y="-1186.3" font-family="Helvetica,sans-Serif" font-weight="bold" font-size="11.00" fill="#000000">decision_and_actions_audit</text>
<text text-anchor="start" x="573.5437" y="-1185.8" font-family="Helvetica,sans-Serif" font-size="11.00" fill="#000000">[table]</text>
<polygon fill="none" stroke="#000000" points="225.5,-1155.7 225.5,-1177.7 492.5,-1177.7 492.5,-1155.7 225.5,-1155.7"/>
<image xlink:href="../../images/primaryKeys.png" width="11px" height="12px" preserveAspectRatio="xMinYMin meet" x="230.5" y="-1172.7"/>
<text text-anchor="start" x="245.5" y="-1162.8" font-family="Helvetica,sans-Serif" font-size="11.00" fill="#000000">rev_id</text>
<polygon fill="none" stroke="#000000" points="492.5,-1155.7 492.5,-1177.7 608.5,-1177.7 608.5,-1155.7 492.5,-1155.7"/>
<text text-anchor="start" x="495.5" y="-1163.4" font-family="Helvetica,sans-Serif" font-size="11.00" fill="#000000">int8[19]</text>
<polygon fill="none" stroke="#000000" points="225.5,-1133.7 225.5,-1155.7 492.5,-1155.7 492.5,-1133.7 225.5,-1133.7"/>
<text text-anchor="start" x="245.5" y="-1140.8" font-family="Helvetica,sans-Serif" font-size="11.00" fill="#000000">rev_type</text>
<polygon fill="none" stroke="#000000" points="492.5,-1133.7 492.5,-1155.7 608.5,-1155.7 608.5,-1133.7 492.5,-1133.7"/>
<text text-anchor="start" x="495.5" y="-1141.4" font-family="Helvetica,sans-Serif" font-size="11.00" fill="#000000">int2[5]</text>
<polygon fill="none" stroke="#000000" points="225.5,-1111.7 225.5,-1133.7 492.5,-1133.7 492.5,-1111.7 225.5,-1111.7"/>
<image xlink:href="../../images/primaryKeys.png" width="11px" height="12px" preserveAspectRatio="xMinYMin meet" x="230.5" y="-1128.7"/>
<text text-anchor="start" x="245.5" y="-1118.8" font-family="Helvetica,sans-Serif" font-size="11.00" fill="#000000">decision_and_actions_id</text>
<polygon fill="none" stroke="#000000" points="492.5,-1111.7 492.5,-1133.7 608.5,-1133.7 608.5,-1111.7 492.5,-1111.7"/>
<text text-anchor="start" x="495.5" y="-1119.4" font-family="Helvetica,sans-Serif" font-size="11.00" fill="#000000">uuid[2147483647]</text>
<polygon fill="none" stroke="#000000" points="225.5,-1089.7 225.5,-1111.7 492.5,-1111.7 492.5,-1089.7 225.5,-1089.7"/>
<text text-anchor="start" x="245.5" y="-1096.8" font-family="Helvetica,sans-Serif" font-size="11.00" fill="#000000">conclusion</text>
<polygon fill="none" stroke="#000000" points="492.5,-1089.7 492.5,-1111.7 608.5,-1111.7 608.5,-1089.7 492.5,-1089.7"/>
<text text-anchor="start" x="495.5" y="-1097.4" font-family="Helvetica,sans-Serif" font-size="11.00" fill="#000000">text[2147483647]</text>
<polygon fill="none" stroke="#000000" points="225.5,-1067.7 225.5,-1089.7 492.5,-1089.7 492.5,-1067.7 225.5,-1067.7"/>
<image xlink:href="../../images/foreignKeys.png" width="11px" height="12px" preserveAspectRatio="xMinYMin meet" x="230.5" y="-1084.7"/>
<text text-anchor="start" x="245.5" y="-1074.8" font-family="Helvetica,sans-Serif" font-size="11.00" fill="#000000">outcome_id</text>
<polygon fill="none" stroke="#000000" points="492.5,-1067.7 492.5,-1089.7 608.5,-1089.7 608.5,-1067.7 492.5,-1067.7"/>
<text text-anchor="start" x="495.5" y="-1075.4" font-family="Helvetica,sans-Serif" font-size="11.00" fill="#000000">int8[19]</text>
<polygon fill="none" stroke="#000000" points="225.5,-1045.7 225.5,-1067.7 492.5,-1067.7 492.5,-1045.7 225.5,-1045.7"/>
<image xlink:href="../../images/foreignKeys.png" width="11px" height="12px" preserveAspectRatio="xMinYMin meet" x="230.5" y="-1062.7"/>
<text text-anchor="start" x="245.5" y="-1052.8" font-family="Helvetica,sans-Serif" font-size="11.00" fill="#000000">signed_off_by_role_id</text>
<polygon fill="none" stroke="#000000" points="492.5,-1045.7 492.5,-1067.7 608.5,-1067.7 608.5,-1045.7 492.5,-1045.7"/>
<text text-anchor="start" x="495.5" y="-1053.4" font-family="Helvetica,sans-Serif" font-size="11.00" fill="#000000">int8[19]</text>
<polygon fill="none" stroke="#000000" points="225.5,-1023.7 225.5,-1045.7 492.5,-1045.7 492.5,-1023.7 225.5,-1023.7"/>
<text text-anchor="start" x="245.5" y="-1030.8" font-family="Helvetica,sans-Serif" font-size="11.00" fill="#000000">recorded_by</text>
<polygon fill="none" stroke="#000000" points="492.5,-1023.7 492.5,-1045.7 608.5,-1045.7 608.5,-1023.7 492.5,-1023.7"/>
<text text-anchor="start" x="495.5" y="-1031.4" font-family="Helvetica,sans-Serif" font-size="11.00" fill="#000000">varchar[64]</text>
<polygon fill="none" stroke="#000000" points="225.5,-1001.7 225.5,-1023.7 492.5,-1023.7 492.5,-1001.7 225.5,-1001.7"/>
<text text-anchor="start" x="245.5" y="-1008.8" font-family="Helvetica,sans-Serif" font-size="11.00" fill="#000000">recorded_by_display_name</text>
<polygon fill="none" stroke="#000000" points="492.5,-1001.7 492.5,-1023.7 608.5,-1023.7 608.5,-1001.7 492.5,-1001.7"/>
<text text-anchor="start" x="495.5" y="-1009.4" font-family="Helvetica,sans-Serif" font-size="11.00" fill="#000000">varchar[255]</text>
<polygon fill="none" stroke="#000000" points="225.5,-979.7 225.5,-1001.7 492.5,-1001.7 492.5,-979.7 225.5,-979.7"/>
<text text-anchor="start" x="245.5" y="-986.8" font-family="Helvetica,sans-Serif" font-size="11.00" fill="#000000">date</text>
<polygon fill="none" stroke="#000000" points="492.5,-979.7 492.5,-1001.7 608.5,-1001.7 608.5,-979.7 492.5,-979.7"/>
<text text-anchor="start" x="495.5" y="-987.4" font-family="Helvetica,sans-Serif" font-size="11.00" fill="#000000">date[13]</text>
<polygon fill="none" stroke="#000000" points="225.5,-957.7 225.5,-979.7 492.5,-979.7 492.5,-957.7 225.5,-957.7"/>
<text text-anchor="start" x="245.5" y="-964.8" font-family="Helvetica,sans-Serif" font-size="11.00" fill="#000000">next_steps</text>
<polygon fill="none" stroke="#000000" points="492.5,-957.7 492.5,-979.7 608.5,-979.7 608.5,-957.7 492.5,-957.7"/>
<text text-anchor="start" x="495.5" y="-965.4" font-family="Helvetica,sans-Serif" font-size="11.00" fill="#000000">text[2147483647]</text>
<polygon fill="none" stroke="#000000" points="225.5,-935.7 225.5,-957.7 492.5,-957.7 492.5,-935.7 225.5,-935.7"/>
<text text-anchor="start" x="245.5" y="-942.8" font-family="Helvetica,sans-Serif" font-size="11.00" fill="#000000">actions</text>
<polygon fill="none" stroke="#000000" points="492.5,-935.7 492.5,-957.7 608.5,-957.7 608.5,-935.7 492.5,-935.7"/>
<text text-anchor="start" x="495.4769" y="-943.4" font-family="Helvetica,sans-Serif" font-size="11.00" fill="#000000">_varchar[2147483647]</text>
<polygon fill="none" stroke="#000000" points="225.5,-913.7 225.5,-935.7 492.5,-935.7 492.5,-913.7 225.5,-913.7"/>
<text text-anchor="start" x="245.5" y="-920.8" font-family="Helvetica,sans-Serif" font-size="11.00" fill="#000000">action_other</text>
<polygon fill="none" stroke="#000000" points="492.5,-913.7 492.5,-935.7 608.5,-935.7 608.5,-913.7 492.5,-913.7"/>
<text text-anchor="start" x="495.5" y="-921.4" font-family="Helvetica,sans-Serif" font-size="11.00" fill="#000000">text[2147483647]</text>
<polygon fill="none" stroke="#000000" points="225.5,-891.7 225.5,-913.7 492.5,-913.7 492.5,-891.7 225.5,-891.7"/>
<text text-anchor="start" x="245.5" y="-898.8" font-family="Helvetica,sans-Serif" font-size="11.00" fill="#000000">conclusion_modified</text>
<polygon fill="none" stroke="#000000" points="492.5,-891.7 492.5,-913.7 608.5,-913.7 608.5,-891.7 492.5,-891.7"/>
<text text-anchor="start" x="495.5" y="-899.4" font-family="Helvetica,sans-Serif" font-size="11.00" fill="#000000">bool[1]</text>
<polygon fill="none" stroke="#000000" points="225.5,-869.7 225.5,-891.7 492.5,-891.7 492.5,-869.7 225.5,-869.7"/>
<text text-anchor="start" x="245.5" y="-876.8" font-family="Helvetica,sans-Serif" font-size="11.00" fill="#000000">outcome_modified</text>
<polygon fill="none" stroke="#000000" points="492.5,-869.7 492.5,-891.7 608.5,-891.7 608.5,-869.7 492.5,-869.7"/>
<text text-anchor="start" x="495.5" y="-877.4" font-family="Helvetica,sans-Serif" font-size="11.00" fill="#000000">bool[1]</text>
<polygon fill="none" stroke="#000000" points="225.5,-847.7 225.5,-869.7 492.5,-869.7 492.5,-847.7 225.5,-847.7"/>
<text text-anchor="start" x="245.5" y="-854.8" font-family="Helvetica,sans-Serif" font-size="11.00" fill="#000000">signed_off_by_modified</text>
<polygon fill="none" stroke="#000000" points="492.5,-847.7 492.5,-869.7 608.5,-869.7 608.5,-847.7 492.5,-847.7"/>
<text text-anchor="start" x="495.5" y="-855.4" font-family="Helvetica,sans-Serif" font-size="11.00" fill="#000000">bool[1]</text>
<polygon fill="none" stroke="#000000" points="225.5,-825.7 225.5,-847.7 492.5,-847.7 492.5,-825.7 225.5,-825.7"/>
<text text-anchor="start" x="245.5" y="-832.8" font-family="Helvetica,sans-Serif" font-size="11.00" fill="#000000">recorded_by_modified</text>
<polygon fill="none" stroke="#000000" points="492.5,-825.7 492.5,-847.7 608.5,-847.7 608.5,-825.7 492.5,-825.7"/>
<text text-anchor="start" x="495.5" y="-833.4" font-family="Helvetica,sans-Serif" font-size="11.00" fill="#000000">bool[1]</text>
<polygon fill="none" stroke="#000000" points="225.5,-803.7 225.5,-825.7 492.5,-825.7 492.5,-803.7 225.5,-803.7"/>
<text text-anchor="start" x="245.5" y="-810.8" font-family="Helvetica,sans-Serif" font-size="11.00" fill="#000000">recorded_by_display_name_modified</text>
<polygon fill="none" stroke="#000000" points="492.5,-803.7 492.5,-825.7 608.5,-825.7 608.5,-803.7 492.5,-803.7"/>
<text text-anchor="start" x="495.5" y="-811.4" font-family="Helvetica,sans-Serif" font-size="11.00" fill="#000000">bool[1]</text>
<polygon fill="none" stroke="#000000" points="225.5,-781.7 225.5,-803.7 492.5,-803.7 492.5,-781.7 225.5,-781.7"/>
<text text-anchor="start" x="245.5" y="-788.8" font-family="Helvetica,sans-Serif" font-size="11.00" fill="#000000">date_modified</text>
<polygon fill="none" stroke="#000000" points="492.5,-781.7 492.5,-803.7 608.5,-803.7 608.5,-781.7 492.5,-781.7"/>
<text text-anchor="start" x="495.5" y="-789.4" font-family="Helvetica,sans-Serif" font-size="11.00" fill="#000000">bool[1]</text>
<polygon fill="none" stroke="#000000" points="225.5,-759.7 225.5,-781.7 492.5,-781.7 492.5,-759.7 225.5,-759.7"/>
<text text-anchor="start" x="245.5" y="-766.8" font-family="Helvetica,sans-Serif" font-size="11.00" fill="#000000">next_steps_modified</text>
<polygon fill="none" stroke="#000000" points="492.5,-759.7 492.5,-781.7 608.5,-781.7 608.5,-759.7 492.5,-759.7"/>
<text text-anchor="start" x="495.5" y="-767.4" font-family="Helvetica,sans-Serif" font-size="11.00" fill="#000000">bool[1]</text>
<polygon fill="none" stroke="#000000" points="225.5,-737.7 225.5,-759.7 492.5,-759.7 492.5,-737.7 225.5,-737.7"/>
<text text-anchor="start" x="245.5" y="-744.8" font-family="Helvetica,sans-Serif" font-size="11.00" fill="#000000">actions_modified</text>
<polygon fill="none" stroke="#000000" points="492.5,-737.7 492.5,-759.7 608.5,-759.7 608.5,-737.7 492.5,-737.7"/>
<text text-anchor="start" x="495.5" y="-745.4" font-family="Helvetica,sans-Serif" font-size="11.00" fill="#000000">bool[1]</text>
<polygon fill="none" stroke="#000000" points="225.5,-715.7 225.5,-737.7 492.5,-737.7 492.5,-715.7 225.5,-715.7"/>
<text text-anchor="start" x="245.5" y="-722.8" font-family="Helvetica,sans-Serif" font-size="11.00" fill="#000000">action_other_modified</text>
<polygon fill="none" stroke="#000000" points="492.5,-715.7 492.5,-737.7 608.5,-737.7 608.5,-715.7 492.5,-715.7"/>
<text text-anchor="start" x="495.5" y="-723.4" font-family="Helvetica,sans-Serif" font-size="11.00" fill="#000000">bool[1]</text>
<polygon fill="#ffffff" stroke="transparent" points="225.5,-696.7 225.5,-715.7 363.5,-715.7 363.5,-696.7 225.5,-696.7"/>
<polygon fill="none" stroke="#000000" points="225.5,-696.7 225.5,-715.7 363.5,-715.7 363.5,-696.7 225.5,-696.7"/>
<text text-anchor="start" x="228.5" y="-702.8" font-family="Helvetica,sans-Serif" font-size="11.00" fill="#000000">&lt; 1</text>
<polygon fill="#ffffff" stroke="transparent" points="363.5,-696.7 363.5,-715.7 492.5,-715.7 492.5,-696.7 363.5,-696.7"/>
<polygon fill="none" stroke="#000000" points="363.5,-696.7 363.5,-715.7 492.5,-715.7 492.5,-696.7 363.5,-696.7"/>
<text text-anchor="start" x="483.3862" y="-702.8" font-family="Helvetica,sans-Serif" font-size="11.00" fill="#000000"> &#160;</text>
<polygon fill="#ffffff" stroke="transparent" points="492.5,-696.7 492.5,-715.7 608.5,-715.7 608.5,-696.7 492.5,-696.7"/>
<polygon fill="none" stroke="#000000" points="492.5,-696.7 492.5,-715.7 608.5,-715.7 608.5,-696.7 492.5,-696.7"/>
<text text-anchor="start" x="589.9053" y="-702.8" font-family="Helvetica,sans-Serif" font-size="11.00" fill="#000000">0 &gt;</text>
<polygon fill="none" stroke="#000000" stroke-width="2" points="224,-695.7 224,-1201.7 609,-1201.7 609,-695.7 224,-695.7"/>
</a>
</g>
</g>
<!-- decision_and_actions_audit&#45;&gt;audit_revision -->
<g id="edge4" class="edge">
<title>decision_and_actions_audit:w&#45;&gt;audit_revision:e</title>
<path fill="none" stroke="#000000" d="M213.1638,-1158.4816C164.7244,-1083.2382 241.6375,-516.7 174,-516.7"/>
<polygon fill="#000000" stroke="#000000" points="218.8422,-1162.2645 223.504,-1169.696 222.1711,-1164.4823 225.5,-1166.7 225.5,-1166.7 225.5,-1166.7 222.1711,-1164.4823 227.496,-1163.704 218.8422,-1162.2645 218.8422,-1162.2645"/>
<ellipse fill="none" stroke="#000000" cx="216.179" cy="-1160.4903" rx="3.2" ry="3.2"/>
</g>
<!-- identified_need_audit -->
<g id="node6" class="node">
<title>identified_need_audit</title>
<g id="a_node6"><a xlink:href="../../tables/identified_need_audit.html" xlink:title="identified_need_audit" target="_top">
<polygon fill="#ffffff" stroke="transparent" points="324.5,-612.2 324.5,-673.2 508.5,-673.2 508.5,-612.2 324.5,-612.2"/>
<polygon fill="#f5f5f5" stroke="transparent" points="324.5,-649.7 324.5,-672.7 508.5,-672.7 508.5,-649.7 324.5,-649.7"/>
<polygon fill="none" stroke="#000000" points="324.5,-649.7 324.5,-672.7 508.5,-672.7 508.5,-649.7 324.5,-649.7"/>
<text text-anchor="start" x="329.5" y="-658.3" font-family="Helvetica,sans-Serif" font-weight="bold" font-size="11.00" fill="#000000">identified_need_audit</text>
<text text-anchor="start" x="474.0219" y="-657.8" font-family="Helvetica,sans-Serif" font-size="11.00" fill="#000000">[table]</text>
<polygon fill="none" stroke="#000000" points="324.5,-630.7 324.5,-649.7 508.5,-649.7 508.5,-630.7 324.5,-630.7"/>
<text text-anchor="start" x="327.5" y="-636.8" font-family="Helvetica,sans-Serif" font-size="11.00" fill="#000000">...</text>
<polygon fill="#ffffff" stroke="transparent" points="324.5,-611.7 324.5,-630.7 414.5,-630.7 414.5,-611.7 324.5,-611.7"/>
<polygon fill="none" stroke="#000000" points="324.5,-611.7 324.5,-630.7 414.5,-630.7 414.5,-611.7 324.5,-611.7"/>
<text text-anchor="start" x="327.5" y="-617.8" font-family="Helvetica,sans-Serif" font-size="11.00" fill="#000000">&lt; 1</text>
<polygon fill="#ffffff" stroke="transparent" points="414.5,-611.7 414.5,-630.7 461.5,-630.7 461.5,-611.7 414.5,-611.7"/>
<polygon fill="none" stroke="#000000" points="414.5,-611.7 414.5,-630.7 461.5,-630.7 461.5,-611.7 414.5,-611.7"/>
<text text-anchor="start" x="452.3862" y="-617.8" font-family="Helvetica,sans-Serif" font-size="11.00" fill="#000000"> &#160;</text>
<polygon fill="#ffffff" stroke="transparent" points="461.5,-611.7 461.5,-630.7 508.5,-630.7 508.5,-611.7 461.5,-611.7"/>
<polygon fill="none" stroke="#000000" points="461.5,-611.7 461.5,-630.7 508.5,-630.7 508.5,-611.7 461.5,-611.7"/>
<text text-anchor="start" x="499.3862" y="-617.8" font-family="Helvetica,sans-Serif" font-size="11.00" fill="#000000"> &#160;</text>
</a>
</g>
</g>
<!-- identified_need_audit&#45;&gt;audit_revision -->
<g id="edge5" class="edge">
<title>identified_need_audit:w&#45;&gt;audit_revision:e</title>
<path fill="none" stroke="#000000" d="M310.0082,-639.5623C268.9093,-638.6529 249.6343,-632.5515 215,-601.7 183.6809,-573.8016 215.9429,-516.7 174,-516.7"/>
<polygon fill="#000000" stroke="#000000" points="316.5004,-639.6239 324.4658,-643.2998 320.5002,-639.662 324.5,-639.7 324.5,-639.7 324.5,-639.7 320.5002,-639.662 324.5342,-636.1002 316.5004,-639.6239 316.5004,-639.6239"/>
<ellipse fill="none" stroke="#000000" cx="313.3005" cy="-639.5935" rx="3.2" ry="3.2"/>
</g>
<!-- interview_audit -->
<g id="node7" class="node">
<title>interview_audit</title>
<g id="a_node7"><a xlink:href="../../tables/interview_audit.html" xlink:title="interview_audit" target="_top">
<polygon fill="#ffffff" stroke="transparent" points="345,-530.2 345,-591.2 488,-591.2 488,-530.2 345,-530.2"/>
<polygon fill="#f5f5f5" stroke="transparent" points="345.5,-567.7 345.5,-590.7 488.5,-590.7 488.5,-567.7 345.5,-567.7"/>
<polygon fill="none" stroke="#000000" points="345.5,-567.7 345.5,-590.7 488.5,-590.7 488.5,-567.7 345.5,-567.7"/>
<text text-anchor="start" x="350.5" y="-576.3" font-family="Helvetica,sans-Serif" font-weight="bold" font-size="11.00" fill="#000000">interview_audit</text>
<text text-anchor="start" x="454.0219" y="-575.8" font-family="Helvetica,sans-Serif" font-size="11.00" fill="#000000">[table]</text>
<polygon fill="none" stroke="#000000" points="345.5,-548.7 345.5,-567.7 488.5,-567.7 488.5,-548.7 345.5,-548.7"/>
<text text-anchor="start" x="348.5" y="-554.8" font-family="Helvetica,sans-Serif" font-size="11.00" fill="#000000">...</text>
<polygon fill="#ffffff" stroke="transparent" points="345.5,-529.7 345.5,-548.7 415.5,-548.7 415.5,-529.7 345.5,-529.7"/>
<polygon fill="none" stroke="#000000" points="345.5,-529.7 345.5,-548.7 415.5,-548.7 415.5,-529.7 345.5,-529.7"/>
<text text-anchor="start" x="348.5" y="-535.8" font-family="Helvetica,sans-Serif" font-size="11.00" fill="#000000">&lt; 1</text>
<polygon fill="#ffffff" stroke="transparent" points="415.5,-529.7 415.5,-548.7 451.5,-548.7 451.5,-529.7 415.5,-529.7"/>
<polygon fill="none" stroke="#000000" points="415.5,-529.7 415.5,-548.7 451.5,-548.7 451.5,-529.7 415.5,-529.7"/>
<text text-anchor="start" x="442.3862" y="-535.8" font-family="Helvetica,sans-Serif" font-size="11.00" fill="#000000"> &#160;</text>
<polygon fill="#ffffff" stroke="transparent" points="451.5,-529.7 451.5,-548.7 488.5,-548.7 488.5,-529.7 451.5,-529.7"/>
<polygon fill="none" stroke="#000000" points="451.5,-529.7 451.5,-548.7 488.5,-548.7 488.5,-529.7 451.5,-529.7"/>
<text text-anchor="start" x="479.3862" y="-535.8" font-family="Helvetica,sans-Serif" font-size="11.00" fill="#000000"> &#160;</text>
</a>
</g>
</g>
<!-- interview_audit&#45;&gt;audit_revision -->
<g id="edge6" class="edge">
<title>interview_audit:w&#45;&gt;audit_revision:e</title>
<path fill="none" stroke="#000000" d="M331.1051,-557.211C264.963,-552.5852 247.3189,-516.7 174,-516.7"/>
<polygon fill="#000000" stroke="#000000" points="337.5046,-557.4283 345.3778,-561.2979 341.5023,-557.5642 345.5,-557.7 345.5,-557.7 345.5,-557.7 341.5023,-557.5642 345.6222,-554.1021 337.5046,-557.4283 337.5046,-557.4283"/>
<ellipse fill="none" stroke="#000000" cx="334.3065" cy="-557.3197" rx="3.2" ry="3.2"/>
</g>
<!-- investigation_audit -->
<g id="node8" class="node">
<title>investigation_audit</title>
<g id="a_node8"><a xlink:href="../../tables/investigation_audit.html" xlink:title="investigation_audit" target="_top">
<polygon fill="#ffffff" stroke="transparent" points="332,-448.2 332,-509.2 501,-509.2 501,-448.2 332,-448.2"/>
<polygon fill="#f5f5f5" stroke="transparent" points="332.5,-485.7 332.5,-508.7 501.5,-508.7 501.5,-485.7 332.5,-485.7"/>
<polygon fill="none" stroke="#000000" points="332.5,-485.7 332.5,-508.7 501.5,-508.7 501.5,-485.7 332.5,-485.7"/>
<text text-anchor="start" x="337.5" y="-494.3" font-family="Helvetica,sans-Serif" font-weight="bold" font-size="11.00" fill="#000000">investigation_audit</text>
<text text-anchor="start" x="467.0219" y="-493.8" font-family="Helvetica,sans-Serif" font-size="11.00" fill="#000000">[table]</text>
<polygon fill="none" stroke="#000000" points="332.5,-466.7 332.5,-485.7 501.5,-485.7 501.5,-466.7 332.5,-466.7"/>
<text text-anchor="start" x="335.5" y="-472.8" font-family="Helvetica,sans-Serif" font-size="11.00" fill="#000000">...</text>
<polygon fill="#ffffff" stroke="transparent" points="332.5,-447.7 332.5,-466.7 415.5,-466.7 415.5,-447.7 332.5,-447.7"/>
<polygon fill="none" stroke="#000000" points="332.5,-447.7 332.5,-466.7 415.5,-466.7 415.5,-447.7 332.5,-447.7"/>
<text text-anchor="start" x="335.5" y="-453.8" font-family="Helvetica,sans-Serif" font-size="11.00" fill="#000000">&lt; 1</text>
<polygon fill="#ffffff" stroke="transparent" points="415.5,-447.7 415.5,-466.7 458.5,-466.7 458.5,-447.7 415.5,-447.7"/>
<polygon fill="none" stroke="#000000" points="415.5,-447.7 415.5,-466.7 458.5,-466.7 458.5,-447.7 415.5,-447.7"/>
<text text-anchor="start" x="449.3862" y="-453.8" font-family="Helvetica,sans-Serif" font-size="11.00" fill="#000000"> &#160;</text>
<polygon fill="#ffffff" stroke="transparent" points="458.5,-447.7 458.5,-466.7 501.5,-466.7 501.5,-447.7 458.5,-447.7"/>
<polygon fill="none" stroke="#000000" points="458.5,-447.7 458.5,-466.7 501.5,-466.7 501.5,-447.7 458.5,-447.7"/>
<text text-anchor="start" x="492.3862" y="-453.8" font-family="Helvetica,sans-Serif" font-size="11.00" fill="#000000"> &#160;</text>
</a>
</g>
</g>
<!-- investigation_audit&#45;&gt;audit_revision -->
<g id="edge7" class="edge">
<title>investigation_audit:w&#45;&gt;audit_revision:e</title>
<path fill="none" stroke="#000000" d="M317.9967,-476.2796C257.6169,-481.2629 241.6469,-516.7 174,-516.7"/>
<polygon fill="#000000" stroke="#000000" points="324.5064,-476.0195 332.6438,-479.2971 328.5032,-475.8597 332.5,-475.7 332.5,-475.7 332.5,-475.7 328.5032,-475.8597 332.3562,-472.1029 324.5064,-476.0195 324.5064,-476.0195"/>
<ellipse fill="none" stroke="#000000" cx="321.3089" cy="-476.1473" rx="3.2" ry="3.2"/>
</g>
<!-- person_summary_audit -->
<g id="node9" class="node">
<title>person_summary_audit</title>
<g id="a_node9"><a xlink:href="../../tables/person_summary_audit.html" xlink:title="person_summary_audit" target="_top">
<polygon fill="#ffffff" stroke="transparent" points="319,-366.2 319,-427.2 514,-427.2 514,-366.2 319,-366.2"/>
<polygon fill="#f5f5f5" stroke="transparent" points="319.5,-403.7 319.5,-426.7 514.5,-426.7 514.5,-403.7 319.5,-403.7"/>
<polygon fill="none" stroke="#000000" points="319.5,-403.7 319.5,-426.7 514.5,-426.7 514.5,-403.7 319.5,-403.7"/>
<text text-anchor="start" x="324.5" y="-412.3" font-family="Helvetica,sans-Serif" font-weight="bold" font-size="11.00" fill="#000000">person_summary_audit</text>
<text text-anchor="start" x="480.0219" y="-411.8" font-family="Helvetica,sans-Serif" font-size="11.00" fill="#000000">[table]</text>
<polygon fill="none" stroke="#000000" points="319.5,-384.7 319.5,-403.7 514.5,-403.7 514.5,-384.7 319.5,-384.7"/>
<text text-anchor="start" x="322.5" y="-390.8" font-family="Helvetica,sans-Serif" font-size="11.00" fill="#000000">...</text>
<polygon fill="#ffffff" stroke="transparent" points="319.5,-365.7 319.5,-384.7 415.5,-384.7 415.5,-365.7 319.5,-365.7"/>
<polygon fill="none" stroke="#000000" points="319.5,-365.7 319.5,-384.7 415.5,-384.7 415.5,-365.7 319.5,-365.7"/>
<text text-anchor="start" x="322.5" y="-371.8" font-family="Helvetica,sans-Serif" font-size="11.00" fill="#000000">&lt; 1</text>
<polygon fill="#ffffff" stroke="transparent" points="415.5,-365.7 415.5,-384.7 464.5,-384.7 464.5,-365.7 415.5,-365.7"/>
<polygon fill="none" stroke="#000000" points="415.5,-365.7 415.5,-384.7 464.5,-384.7 464.5,-365.7 415.5,-365.7"/>
<text text-anchor="start" x="455.3862" y="-371.8" font-family="Helvetica,sans-Serif" font-size="11.00" fill="#000000"> &#160;</text>
<polygon fill="#ffffff" stroke="transparent" points="464.5,-365.7 464.5,-384.7 514.5,-384.7 514.5,-365.7 464.5,-365.7"/>
<polygon fill="none" stroke="#000000" points="464.5,-365.7 464.5,-384.7 514.5,-384.7 514.5,-365.7 464.5,-365.7"/>
<text text-anchor="start" x="505.3862" y="-371.8" font-family="Helvetica,sans-Serif" font-size="11.00" fill="#000000"> &#160;</text>
</a>
</g>
</g>
<!-- person_summary_audit&#45;&gt;audit_revision -->
<g id="edge8" class="edge">
<title>person_summary_audit:w&#45;&gt;audit_revision:e</title>
<path fill="none" stroke="#000000" d="M304.8625,-394.0319C265.358,-395.9947 248.1999,-407.0614 215,-437.7 185.9294,-464.5279 213.5581,-516.7 174,-516.7"/>
<polygon fill="#000000" stroke="#000000" points="311.5021,-393.8814 319.5816,-397.2991 315.501,-393.7907 319.5,-393.7 319.5,-393.7 319.5,-393.7 315.501,-393.7907 319.4184,-390.1009 311.5021,-393.8814 311.5021,-393.8814"/>
<ellipse fill="none" stroke="#000000" cx="308.3029" cy="-393.954" rx="3.2" ry="3.2"/>
</g>
<!-- plan_audit -->
<g id="node10" class="node">
<title>plan_audit</title>
<g id="a_node10"><a xlink:href="../../tables/plan_audit.html" xlink:title="plan_audit" target="_top">
<polygon fill="#ffffff" stroke="transparent" points="362,-284.2 362,-345.2 471,-345.2 471,-284.2 362,-284.2"/>
<polygon fill="#f5f5f5" stroke="transparent" points="362.5,-321.7 362.5,-344.7 471.5,-344.7 471.5,-321.7 362.5,-321.7"/>
<polygon fill="none" stroke="#000000" points="362.5,-321.7 362.5,-344.7 471.5,-344.7 471.5,-321.7 362.5,-321.7"/>
<text text-anchor="start" x="367.5" y="-330.3" font-family="Helvetica,sans-Serif" font-weight="bold" font-size="11.00" fill="#000000">plan_audit</text>
<text text-anchor="start" x="437.0219" y="-329.8" font-family="Helvetica,sans-Serif" font-size="11.00" fill="#000000">[table]</text>
<polygon fill="none" stroke="#000000" points="362.5,-302.7 362.5,-321.7 471.5,-321.7 471.5,-302.7 362.5,-302.7"/>
<text text-anchor="start" x="365.5" y="-308.8" font-family="Helvetica,sans-Serif" font-size="11.00" fill="#000000">...</text>
<polygon fill="#ffffff" stroke="transparent" points="362.5,-283.7 362.5,-302.7 415.5,-302.7 415.5,-283.7 362.5,-283.7"/>
<polygon fill="none" stroke="#000000" points="362.5,-283.7 362.5,-302.7 415.5,-302.7 415.5,-283.7 362.5,-283.7"/>
<text text-anchor="start" x="365.5" y="-289.8" font-family="Helvetica,sans-Serif" font-size="11.00" fill="#000000">&lt; 1</text>
<polygon fill="#ffffff" stroke="transparent" points="415.5,-283.7 415.5,-302.7 443.5,-302.7 443.5,-283.7 415.5,-283.7"/>
<polygon fill="none" stroke="#000000" points="415.5,-283.7 415.5,-302.7 443.5,-302.7 443.5,-283.7 415.5,-283.7"/>
<text text-anchor="start" x="434.3862" y="-289.8" font-family="Helvetica,sans-Serif" font-size="11.00" fill="#000000"> &#160;</text>
<polygon fill="#ffffff" stroke="transparent" points="443.5,-283.7 443.5,-302.7 471.5,-302.7 471.5,-283.7 443.5,-283.7"/>
<polygon fill="none" stroke="#000000" points="443.5,-283.7 443.5,-302.7 471.5,-302.7 471.5,-283.7 443.5,-283.7"/>
<text text-anchor="start" x="462.3862" y="-289.8" font-family="Helvetica,sans-Serif" font-size="11.00" fill="#000000"> &#160;</text>
</a>
</g>
</g>
<!-- plan_audit&#45;&gt;audit_revision -->
<g id="edge9" class="edge">
<title>plan_audit:w&#45;&gt;audit_revision:e</title>
<path fill="none" stroke="#000000" d="M347.8532,-311.6362C289.297,-311.208 258.8661,-310.0184 215,-355.7 163.8568,-408.9599 247.8393,-516.7 174,-516.7"/>
<polygon fill="#000000" stroke="#000000" points="354.5001,-311.6651 362.4843,-315.3 358.5,-311.6826 362.5,-311.7 362.5,-311.7 362.5,-311.7 358.5,-311.6826 362.5157,-308.1 354.5001,-311.6651 354.5001,-311.6651"/>
<ellipse fill="none" stroke="#000000" cx="351.3001" cy="-311.6512" rx="3.2" ry="3.2"/>
</g>
<!-- referral_audit -->
<g id="node11" class="node">
<title>referral_audit</title>
<g id="a_node11"><a xlink:href="../../tables/referral_audit.html" xlink:title="referral_audit" target="_top">
<polygon fill="#ffffff" stroke="transparent" points="351,-202.2 351,-263.2 482,-263.2 482,-202.2 351,-202.2"/>
<polygon fill="#f5f5f5" stroke="transparent" points="351.5,-239.7 351.5,-262.7 482.5,-262.7 482.5,-239.7 351.5,-239.7"/>
<polygon fill="none" stroke="#000000" points="351.5,-239.7 351.5,-262.7 482.5,-262.7 482.5,-239.7 351.5,-239.7"/>
<text text-anchor="start" x="356.5" y="-248.3" font-family="Helvetica,sans-Serif" font-weight="bold" font-size="11.00" fill="#000000">referral_audit</text>
<text text-anchor="start" x="448.0219" y="-247.8" font-family="Helvetica,sans-Serif" font-size="11.00" fill="#000000">[table]</text>
<polygon fill="none" stroke="#000000" points="351.5,-220.7 351.5,-239.7 482.5,-239.7 482.5,-220.7 351.5,-220.7"/>
<text text-anchor="start" x="354.5" y="-226.8" font-family="Helvetica,sans-Serif" font-size="11.00" fill="#000000">...</text>
<polygon fill="#ffffff" stroke="transparent" points="351.5,-201.7 351.5,-220.7 415.5,-220.7 415.5,-201.7 351.5,-201.7"/>
<polygon fill="none" stroke="#000000" points="351.5,-201.7 351.5,-220.7 415.5,-220.7 415.5,-201.7 351.5,-201.7"/>
<text text-anchor="start" x="354.5" y="-207.8" font-family="Helvetica,sans-Serif" font-size="11.00" fill="#000000">&lt; 1</text>
<polygon fill="#ffffff" stroke="transparent" points="415.5,-201.7 415.5,-220.7 448.5,-220.7 448.5,-201.7 415.5,-201.7"/>
<polygon fill="none" stroke="#000000" points="415.5,-201.7 415.5,-220.7 448.5,-220.7 448.5,-201.7 415.5,-201.7"/>
<text text-anchor="start" x="439.3862" y="-207.8" font-family="Helvetica,sans-Serif" font-size="11.00" fill="#000000"> &#160;</text>
<polygon fill="#ffffff" stroke="transparent" points="448.5,-201.7 448.5,-220.7 482.5,-220.7 482.5,-201.7 448.5,-201.7"/>
<polygon fill="none" stroke="#000000" points="448.5,-201.7 448.5,-220.7 482.5,-220.7 482.5,-201.7 448.5,-201.7"/>
<text text-anchor="start" x="473.3862" y="-207.8" font-family="Helvetica,sans-Serif" font-size="11.00" fill="#000000"> &#160;</text>
</a>
</g>
</g>
<!-- referral_audit&#45;&gt;audit_revision -->
<g id="edge10" class="edge">
<title>referral_audit:w&#45;&gt;audit_revision:e</title>
<path fill="none" stroke="#000000" d="M336.7937,-229.6481C282.7162,-229.3617 253.357,-229.3495 215,-273.7 179.1766,-315.121 228.7632,-516.7 174,-516.7"/>
<polygon fill="#000000" stroke="#000000" points="343.5,-229.6717 351.4873,-233.3 347.5,-229.6858 351.5,-229.7 351.5,-229.7 351.5,-229.7 347.5,-229.6858 351.5127,-226.1 343.5,-229.6717 343.5,-229.6717"/>
<ellipse fill="none" stroke="#000000" cx="340.3001" cy="-229.6604" rx="3.2" ry="3.2"/>
</g>
<!-- review_audit -->
<g id="node12" class="node">
<title>review_audit</title>
<g id="a_node12"><a xlink:href="../../tables/review_audit.html" xlink:title="review_audit" target="_top">
<polygon fill="#ffffff" stroke="transparent" points="354,-120.2 354,-181.2 479,-181.2 479,-120.2 354,-120.2"/>
<polygon fill="#f5f5f5" stroke="transparent" points="354.5,-157.7 354.5,-180.7 479.5,-180.7 479.5,-157.7 354.5,-157.7"/>
<polygon fill="none" stroke="#000000" points="354.5,-157.7 354.5,-180.7 479.5,-180.7 479.5,-157.7 354.5,-157.7"/>
<text text-anchor="start" x="359.5" y="-166.3" font-family="Helvetica,sans-Serif" font-weight="bold" font-size="11.00" fill="#000000">review_audit</text>
<text text-anchor="start" x="445.0219" y="-165.8" font-family="Helvetica,sans-Serif" font-size="11.00" fill="#000000">[table]</text>
<polygon fill="none" stroke="#000000" points="354.5,-138.7 354.5,-157.7 479.5,-157.7 479.5,-138.7 354.5,-138.7"/>
<text text-anchor="start" x="357.5" y="-144.8" font-family="Helvetica,sans-Serif" font-size="11.00" fill="#000000">...</text>
<polygon fill="#ffffff" stroke="transparent" points="354.5,-119.7 354.5,-138.7 415.5,-138.7 415.5,-119.7 354.5,-119.7"/>
<polygon fill="none" stroke="#000000" points="354.5,-119.7 354.5,-138.7 415.5,-138.7 415.5,-119.7 354.5,-119.7"/>
<text text-anchor="start" x="357.5" y="-125.8" font-family="Helvetica,sans-Serif" font-size="11.00" fill="#000000">&lt; 1</text>
<polygon fill="#ffffff" stroke="transparent" points="415.5,-119.7 415.5,-138.7 447.5,-138.7 447.5,-119.7 415.5,-119.7"/>
<polygon fill="none" stroke="#000000" points="415.5,-119.7 415.5,-138.7 447.5,-138.7 447.5,-119.7 415.5,-119.7"/>
<text text-anchor="start" x="438.3862" y="-125.8" font-family="Helvetica,sans-Serif" font-size="11.00" fill="#000000"> &#160;</text>
<polygon fill="#ffffff" stroke="transparent" points="447.5,-119.7 447.5,-138.7 479.5,-138.7 479.5,-119.7 447.5,-119.7"/>
<polygon fill="none" stroke="#000000" points="447.5,-119.7 447.5,-138.7 479.5,-138.7 479.5,-119.7 447.5,-119.7"/>
<text text-anchor="start" x="470.3862" y="-125.8" font-family="Helvetica,sans-Serif" font-size="11.00" fill="#000000"> &#160;</text>
</a>
</g>
</g>
<!-- review_audit&#45;&gt;audit_revision -->
<g id="edge11" class="edge">
<title>review_audit:w&#45;&gt;audit_revision:e</title>
<path fill="none" stroke="#000000" d="M339.8326,-147.6211C284.3043,-147.1164 253.3968,-145.6835 215,-191.7 168.3624,-247.5927 246.7947,-516.7 174,-516.7"/>
<polygon fill="#000000" stroke="#000000" points="346.5001,-147.6569 354.4806,-151.2999 350.5001,-147.6785 354.5,-147.7 354.5,-147.7 354.5,-147.7 350.5001,-147.6785 354.5194,-144.1001 346.5001,-147.6569 346.5001,-147.6569"/>
<ellipse fill="none" stroke="#000000" cx="343.3002" cy="-147.6397" rx="3.2" ry="3.2"/>
</g>
<!-- safer_custody_screening_outcome_audit -->
<g id="node13" class="node">
<title>safer_custody_screening_outcome_audit</title>
<g id="a_node13"><a xlink:href="../../tables/safer_custody_screening_outcome_audit.html" xlink:title="safer_custody_screening_outcome_audit" target="_top">
<polygon fill="#ffffff" stroke="transparent" points="261.5,-38.2 261.5,-99.2 571.5,-99.2 571.5,-38.2 261.5,-38.2"/>
<polygon fill="#f5f5f5" stroke="transparent" points="261.5,-75.7 261.5,-98.7 571.5,-98.7 571.5,-75.7 261.5,-75.7"/>
<polygon fill="none" stroke="#000000" points="261.5,-75.7 261.5,-98.7 571.5,-98.7 571.5,-75.7 261.5,-75.7"/>
<text text-anchor="start" x="266.5" y="-84.3" font-family="Helvetica,sans-Serif" font-weight="bold" font-size="11.00" fill="#000000">safer_custody_screening_outcome_audit</text>
<text text-anchor="start" x="537.0219" y="-83.8" font-family="Helvetica,sans-Serif" font-size="11.00" fill="#000000">[table]</text>
<polygon fill="none" stroke="#000000" points="261.5,-56.7 261.5,-75.7 571.5,-75.7 571.5,-56.7 261.5,-56.7"/>
<text text-anchor="start" x="264.5" y="-62.8" font-family="Helvetica,sans-Serif" font-size="11.00" fill="#000000">...</text>
<polygon fill="#ffffff" stroke="transparent" points="261.5,-37.7 261.5,-56.7 414.5,-56.7 414.5,-37.7 261.5,-37.7"/>
<polygon fill="none" stroke="#000000" points="261.5,-37.7 261.5,-56.7 414.5,-56.7 414.5,-37.7 261.5,-37.7"/>
<text text-anchor="start" x="264.5" y="-43.8" font-family="Helvetica,sans-Serif" font-size="11.00" fill="#000000">&lt; 1</text>
<polygon fill="#ffffff" stroke="transparent" points="414.5,-37.7 414.5,-56.7 492.5,-56.7 492.5,-37.7 414.5,-37.7"/>
<polygon fill="none" stroke="#000000" points="414.5,-37.7 414.5,-56.7 492.5,-56.7 492.5,-37.7 414.5,-37.7"/>
<text text-anchor="start" x="483.3862" y="-43.8" font-family="Helvetica,sans-Serif" font-size="11.00" fill="#000000"> &#160;</text>
<polygon fill="#ffffff" stroke="transparent" points="492.5,-37.7 492.5,-56.7 571.5,-56.7 571.5,-37.7 492.5,-37.7"/>
<polygon fill="none" stroke="#000000" points="492.5,-37.7 492.5,-56.7 571.5,-56.7 571.5,-37.7 492.5,-37.7"/>
<text text-anchor="start" x="562.3862" y="-43.8" font-family="Helvetica,sans-Serif" font-size="11.00" fill="#000000"> &#160;</text>
</a>
</g>
</g>
<!-- safer_custody_screening_outcome_audit&#45;&gt;audit_revision -->
<g id="edge12" class="edge">
<title>safer_custody_screening_outcome_audit:w&#45;&gt;audit_revision:e</title>
<path fill="none" stroke="#000000" d="M247.2319,-67.7281C230.6303,-73.1822 225.0967,-89.1514 215,-109.7 194.9563,-150.4928 219.4511,-516.7 174,-516.7"/>
<polygon fill="#000000" stroke="#000000" points="253.5796,-66.8259 262.0067,-69.2642 257.5398,-66.2629 261.5,-65.7 261.5,-65.7 261.5,-65.7 257.5398,-66.2629 260.9933,-62.1358 253.5796,-66.8259 253.5796,-66.8259"/>
<ellipse fill="none" stroke="#000000" cx="250.4115" cy="-67.2762" rx="3.2" ry="3.2"/>
</g>
</g>
</svg>
