<?xml version="1.0" encoding="UTF-8" standalone="no"?>
<!DOCTYPE svg PUBLIC "-//W3C//DTD SVG 1.1//EN"
 "http://www.w3.org/Graphics/SVG/1.1/DTD/svg11.dtd">
<!-- Generated by graphviz version 2.40.1 (20161225.0304)
 -->
<!-- Title: twoDegreesRelationshipsDiagramImplied Pages: 1 -->
<svg width="988pt" height="722pt"
 viewBox="0.00 0.00 988.00 721.54" xmlns="http://www.w3.org/2000/svg" xmlns:xlink="http://www.w3.org/1999/xlink">
<g id="graph0" class="graph" transform="scale(1 1) rotate(0) translate(4 717.5389)">
<title>twoDegreesRelationshipsDiagramImplied</title>
<polygon fill="#ffffff" stroke="transparent" points="-4,4 -4,-717.5389 984,-717.5389 984,4 -4,4"/>
<text text-anchor="middle" x="72.4936" y="-7.3" font-family="Helvetica,sans-Serif" font-size="11.00" fill="#000000">Generated by SchemaSpy</text>
<!-- contributory_factor -->
<g id="node1" class="node">
<title>contributory_factor</title>
<g id="a_node1"><a xlink:href="../../tables/contributory_factor.html" xlink:title="contributory_factor" target="_top">
<polygon fill="#ffffff" stroke="transparent" points="576,-648.5389 576,-709.5389 745,-709.5389 745,-648.5389 576,-648.5389"/>
<polygon fill="#f5f5f5" stroke="transparent" points="576.5,-686.0389 576.5,-709.0389 745.5,-709.0389 745.5,-686.0389 576.5,-686.0389"/>
<polygon fill="none" stroke="#000000" points="576.5,-686.0389 576.5,-709.0389 745.5,-709.0389 745.5,-686.0389 576.5,-686.0389"/>
<text text-anchor="start" x="581.5" y="-694.6389" font-family="Helvetica,sans-Serif" font-weight="bold" font-size="11.00" fill="#000000">contributory_factor</text>
<text text-anchor="start" x="711.0219" y="-694.1389" font-family="Helvetica,sans-Serif" font-size="11.00" fill="#000000">[table]</text>
<polygon fill="none" stroke="#000000" points="576.5,-667.0389 576.5,-686.0389 745.5,-686.0389 745.5,-667.0389 576.5,-667.0389"/>
<text text-anchor="start" x="579.5" y="-673.1389" font-family="Helvetica,sans-Serif" font-size="11.00" fill="#000000">...</text>
<polygon fill="#ffffff" stroke="transparent" points="576.5,-648.0389 576.5,-667.0389 659.5,-667.0389 659.5,-648.0389 576.5,-648.0389"/>
<polygon fill="none" stroke="#000000" points="576.5,-648.0389 576.5,-667.0389 659.5,-667.0389 659.5,-648.0389 576.5,-648.0389"/>
<text text-anchor="start" x="579.5" y="-654.1389" font-family="Helvetica,sans-Serif" font-size="11.00" fill="#000000">&lt; 2</text>
<polygon fill="#ffffff" stroke="transparent" points="659.5,-648.0389 659.5,-667.0389 702.5,-667.0389 702.5,-648.0389 659.5,-648.0389"/>
<polygon fill="none" stroke="#000000" points="659.5,-648.0389 659.5,-667.0389 702.5,-667.0389 702.5,-648.0389 659.5,-648.0389"/>
<text text-anchor="start" x="693.3862" y="-654.1389" font-family="Helvetica,sans-Serif" font-size="11.00" fill="#000000"> &#160;</text>
<polygon fill="#ffffff" stroke="transparent" points="702.5,-648.0389 702.5,-667.0389 745.5,-667.0389 745.5,-648.0389 702.5,-648.0389"/>
<polygon fill="none" stroke="#000000" points="702.5,-648.0389 702.5,-667.0389 745.5,-667.0389 745.5,-648.0389 702.5,-648.0389"/>
<text text-anchor="start" x="736.3862" y="-654.1389" font-family="Helvetica,sans-Serif" font-size="11.00" fill="#000000"> &#160;</text>
</a>
</g>
</g>
<!-- reference_data -->
<g id="node2" class="node">
<title>reference_data</title>
<g id="a_node2"><a xlink:href="../../tables/reference_data.html" xlink:title="reference_data" target="_top">
<polygon fill="#ffffff" stroke="transparent" points="8,-404.5389 8,-465.5389 148,-465.5389 148,-404.5389 8,-404.5389"/>
<polygon fill="#f5f5f5" stroke="transparent" points="8,-442.0389 8,-465.0389 148,-465.0389 148,-442.0389 8,-442.0389"/>
<polygon fill="none" stroke="#000000" points="8,-442.0389 8,-465.0389 148,-465.0389 148,-442.0389 8,-442.0389"/>
<text text-anchor="start" x="13" y="-450.6389" font-family="Helvetica,sans-Serif" font-weight="bold" font-size="11.00" fill="#000000">reference_data</text>
<text text-anchor="start" x="113.5219" y="-450.1389" font-family="Helvetica,sans-Serif" font-size="11.00" fill="#000000">[table]</text>
<polygon fill="none" stroke="#000000" points="8,-423.0389 8,-442.0389 148,-442.0389 148,-423.0389 8,-423.0389"/>
<text text-anchor="start" x="11" y="-429.1389" font-family="Helvetica,sans-Serif" font-size="11.00" fill="#000000">...</text>
<polygon fill="#ffffff" stroke="transparent" points="8,-404.0389 8,-423.0389 45,-423.0389 45,-404.0389 8,-404.0389"/>
<polygon fill="none" stroke="#000000" points="8,-404.0389 8,-423.0389 45,-423.0389 45,-404.0389 8,-404.0389"/>
<text text-anchor="start" x="11" y="-410.1389" font-family="Helvetica,sans-Serif" font-size="11.00" fill="#000000"> &#160;</text>
<polygon fill="#ffffff" stroke="transparent" points="45,-404.0389 45,-423.0389 108,-423.0389 108,-404.0389 45,-404.0389"/>
<polygon fill="none" stroke="#000000" points="45,-404.0389 45,-423.0389 108,-423.0389 108,-404.0389 45,-404.0389"/>
<text text-anchor="start" x="60.3807" y="-410.1389" font-family="Helvetica,sans-Serif" font-size="11.00" fill="#000000">122 rows</text>
<polygon fill="#ffffff" stroke="transparent" points="108,-404.0389 108,-423.0389 148,-423.0389 148,-404.0389 108,-404.0389"/>
<polygon fill="none" stroke="#000000" points="108,-404.0389 108,-423.0389 148,-423.0389 148,-404.0389 108,-404.0389"/>
<text text-anchor="start" x="123.2904" y="-410.1389" font-family="Helvetica,sans-Serif" font-size="11.00" fill="#000000">10 &gt;</text>
</a>
</g>
</g>
<!-- contributory_factor&#45;&gt;reference_data -->
<g id="edge1" class="edge">
<title>contributory_factor:w&#45;&gt;reference_data:e</title>
<path fill="none" stroke="#000000" d="M561.9171,-675.9685C392.3177,-674.2907 338.5674,-642.3358 189,-549.0389 155.3667,-528.0592 124.5619,-494.7794 103.9826,-469.5812"/>
<polygon fill="#000000" stroke="#000000" points="568.5001,-676.0002 576.4826,-679.6388 572.5,-676.0195 576.5,-676.0389 576.5,-676.0389 576.5,-676.0389 572.5,-676.0195 576.5174,-672.4389 568.5001,-676.0002 568.5001,-676.0002"/>
<ellipse fill="none" stroke="#000000" cx="565.3001" cy="-675.9847" rx="3.2" ry="3.2"/>
</g>
<!-- referral -->
<g id="node3" class="node">
<title>referral</title>
<g id="a_node3"><a xlink:href="../../tables/referral.html" xlink:title="referral" target="_top">
<polygon fill="#ffffff" stroke="transparent" points="361,-409.5389 361,-470.5389 451,-470.5389 451,-409.5389 361,-409.5389"/>
<polygon fill="#f5f5f5" stroke="transparent" points="361,-447.0389 361,-470.0389 451,-470.0389 451,-447.0389 361,-447.0389"/>
<polygon fill="none" stroke="#000000" points="361,-447.0389 361,-470.0389 451,-470.0389 451,-447.0389 361,-447.0389"/>
<text text-anchor="start" x="366" y="-455.6389" font-family="Helvetica,sans-Serif" font-weight="bold" font-size="11.00" fill="#000000">referral</text>
<text text-anchor="start" x="416.5219" y="-455.1389" font-family="Helvetica,sans-Serif" font-size="11.00" fill="#000000">[table]</text>
<polygon fill="none" stroke="#000000" points="361,-428.0389 361,-447.0389 451,-447.0389 451,-428.0389 361,-428.0389"/>
<text text-anchor="start" x="364" y="-434.1389" font-family="Helvetica,sans-Serif" font-size="11.00" fill="#000000">...</text>
<polygon fill="#ffffff" stroke="transparent" points="361,-409.0389 361,-428.0389 400,-428.0389 400,-409.0389 361,-409.0389"/>
<polygon fill="none" stroke="#000000" points="361,-409.0389 361,-428.0389 400,-428.0389 400,-409.0389 361,-409.0389"/>
<text text-anchor="start" x="364" y="-415.1389" font-family="Helvetica,sans-Serif" font-size="11.00" fill="#000000">&lt; 5</text>
<polygon fill="#ffffff" stroke="transparent" points="400,-409.0389 400,-428.0389 421,-428.0389 421,-409.0389 400,-409.0389"/>
<polygon fill="none" stroke="#000000" points="400,-409.0389 400,-428.0389 421,-428.0389 421,-409.0389 400,-409.0389"/>
<text text-anchor="start" x="411.8862" y="-415.1389" font-family="Helvetica,sans-Serif" font-size="11.00" fill="#000000"> &#160;</text>
<polygon fill="#ffffff" stroke="transparent" points="421,-409.0389 421,-428.0389 451,-428.0389 451,-409.0389 421,-409.0389"/>
<polygon fill="none" stroke="#000000" points="421,-409.0389 421,-428.0389 451,-428.0389 451,-409.0389 421,-409.0389"/>
<text text-anchor="start" x="432.4053" y="-415.1389" font-family="Helvetica,sans-Serif" font-size="11.00" fill="#000000">5 &gt;</text>
</a>
</g>
</g>
<!-- contributory_factor&#45;&gt;referral -->
<g id="edge2" class="edge">
<title>contributory_factor:w&#45;&gt;referral:e</title>
<path fill="none" stroke="#000000" d="M561.8224,-675.5798C531.3697,-673.4545 517.2006,-663.5653 492,-638.0389 446.5811,-592.0326 423.3235,-518.1262 412.9835,-474.8083"/>
<polygon fill="#000000" stroke="#000000" points="568.5039,-675.7887 576.3874,-679.6371 572.502,-675.9138 576.5,-676.0389 576.5,-676.0389 576.5,-676.0389 572.502,-675.9138 576.6126,-672.4406 568.5039,-675.7887 568.5039,-675.7887"/>
<ellipse fill="none" stroke="#000000" cx="565.3055" cy="-675.6887" rx="3.2" ry="3.2"/>
</g>
<!-- referral&#45;&gt;reference_data -->
<g id="edge11" class="edge">
<title>referral:w&#45;&gt;reference_data:e</title>
<path fill="none" stroke="#000000" d="M338.5742,-427.2353C285.5721,-423.331 211.665,-422.0141 156.0938,-423.8828"/>
<polygon fill="#000000" stroke="#000000" points="344.963,-427.7554 352.6444,-431.9928 348.9498,-428.08 352.9366,-428.4047 352.9366,-428.4047 352.9366,-428.4047 348.9498,-428.08 353.2287,-424.8165 344.963,-427.7554 344.963,-427.7554"/>
<ellipse fill="none" stroke="#000000" cx="341.7735" cy="-427.4957" rx="3.2" ry="3.2"/>
</g>
<!-- referral&#45;&gt;reference_data -->
<g id="edge12" class="edge">
<title>referral:w&#45;&gt;reference_data:e</title>
<path fill="none" stroke="#000000" d="M338.2342,-435.2809C285.2563,-433.5016 211.5463,-432.3199 156.0938,-432.3304"/>
<polygon fill="#000000" stroke="#000000" points="344.9418,-435.5229 352.8068,-439.4091 348.9392,-435.6672 352.9366,-435.8114 352.9366,-435.8114 352.9366,-435.8114 348.9392,-435.6672 353.0664,-432.2138 344.9418,-435.5229 344.9418,-435.5229"/>
<ellipse fill="none" stroke="#000000" cx="341.7439" cy="-435.4075" rx="3.2" ry="3.2"/>
</g>
<!-- referral&#45;&gt;reference_data -->
<g id="edge13" class="edge">
<title>referral:w&#45;&gt;reference_data:e</title>
<path fill="none" stroke="#000000" d="M338.2342,-443.3516C285.2563,-443.6777 211.5463,-442.6218 156.0938,-440.778"/>
<polygon fill="#000000" stroke="#000000" points="344.9369,-443.2908 352.9693,-446.8181 348.9368,-443.2545 352.9366,-443.2182 352.9366,-443.2182 352.9366,-443.2182 348.9368,-443.2545 352.9039,-439.6184 344.9369,-443.2908 344.9369,-443.2908"/>
<ellipse fill="none" stroke="#000000" cx="341.737" cy="-443.3199" rx="3.2" ry="3.2"/>
</g>
<!-- referral&#45;&gt;reference_data -->
<g id="edge14" class="edge">
<title>referral:w&#45;&gt;reference_data:e</title>
<path fill="none" stroke="#000000" d="M338.2342,-451.4222C285.2563,-453.8539 211.5463,-452.9236 156.0938,-449.2256"/>
<polygon fill="#000000" stroke="#000000" points="344.9483,-451.0582 353.1315,-454.2197 348.9425,-450.8416 352.9366,-450.625 352.9366,-450.625 352.9366,-450.625 348.9425,-450.8416 352.7417,-447.0303 344.9483,-451.0582 344.9483,-451.0582"/>
<ellipse fill="none" stroke="#000000" cx="341.753" cy="-451.2314" rx="3.2" ry="3.2"/>
</g>
<!-- csip_record -->
<g id="node5" class="node">
<title>csip_record</title>
<g id="a_node5"><a xlink:href="../../tables/csip_record.html" xlink:title="csip_record" target="_top">
<polygon fill="#ffffff" stroke="transparent" points="197,-477.5389 197,-538.5389 312,-538.5389 312,-477.5389 197,-477.5389"/>
<polygon fill="#f5f5f5" stroke="transparent" points="197.5,-515.0389 197.5,-538.0389 312.5,-538.0389 312.5,-515.0389 197.5,-515.0389"/>
<polygon fill="none" stroke="#000000" points="197.5,-515.0389 197.5,-538.0389 312.5,-538.0389 312.5,-515.0389 197.5,-515.0389"/>
<text text-anchor="start" x="202.5" y="-523.6389" font-family="Helvetica,sans-Serif" font-weight="bold" font-size="11.00" fill="#000000">csip_record</text>
<text text-anchor="start" x="278.0219" y="-523.1389" font-family="Helvetica,sans-Serif" font-size="11.00" fill="#000000">[table]</text>
<polygon fill="none" stroke="#000000" points="197.5,-496.0389 197.5,-515.0389 312.5,-515.0389 312.5,-496.0389 197.5,-496.0389"/>
<text text-anchor="start" x="200.5" y="-502.1389" font-family="Helvetica,sans-Serif" font-size="11.00" fill="#000000">...</text>
<polygon fill="#ffffff" stroke="transparent" points="197.5,-477.0389 197.5,-496.0389 248.5,-496.0389 248.5,-477.0389 197.5,-477.0389"/>
<polygon fill="none" stroke="#000000" points="197.5,-477.0389 197.5,-496.0389 248.5,-496.0389 248.5,-477.0389 197.5,-477.0389"/>
<text text-anchor="start" x="200.5" y="-483.1389" font-family="Helvetica,sans-Serif" font-size="11.00" fill="#000000">&lt; 2</text>
<polygon fill="#ffffff" stroke="transparent" points="248.5,-477.0389 248.5,-496.0389 275.5,-496.0389 275.5,-477.0389 248.5,-477.0389"/>
<polygon fill="none" stroke="#000000" points="248.5,-477.0389 248.5,-496.0389 275.5,-496.0389 275.5,-477.0389 248.5,-477.0389"/>
<text text-anchor="start" x="266.3862" y="-483.1389" font-family="Helvetica,sans-Serif" font-size="11.00" fill="#000000"> &#160;</text>
<polygon fill="#ffffff" stroke="transparent" points="275.5,-477.0389 275.5,-496.0389 312.5,-496.0389 312.5,-477.0389 275.5,-477.0389"/>
<polygon fill="none" stroke="#000000" points="275.5,-477.0389 275.5,-496.0389 312.5,-496.0389 312.5,-477.0389 275.5,-477.0389"/>
<text text-anchor="start" x="293.9053" y="-483.1389" font-family="Helvetica,sans-Serif" font-size="11.00" fill="#000000">2 &gt;</text>
</a>
</g>
</g>
<!-- referral&#45;&gt;csip_record -->
<g id="edge15" class="edge">
<title>referral:w&#45;&gt;csip_record:e</title>
<path fill="none" stroke="#000000" d="M367.5199,-481.9622C351.9526,-494.5294 332.8505,-505.0389 312.5,-505.0389"/>
<polygon fill="#000000" stroke="#000000" points="372.5708,-472.3173 377.7986,-478.3729 376.5875,-479.4185 371.3597,-473.3629 372.5708,-472.3173"/>
<polyline fill="none" stroke="#000000" points="375.7903,-474.8223 372.7625,-477.4363 "/>
<ellipse fill="none" stroke="#000000" cx="370.3402" cy="-479.5274" rx="3.2" ry="3.2"/>
</g>
<!-- contributory_factor_audit -->
<g id="node4" class="node">
<title>contributory_factor_audit</title>
<g id="a_node4"><a xlink:href="../../tables/contributory_factor_audit.html" xlink:title="contributory_factor_audit" target="_top">
<polygon fill="#ffffff" stroke="transparent" points="555.5,-566.5389 555.5,-627.5389 765.5,-627.5389 765.5,-566.5389 555.5,-566.5389"/>
<polygon fill="#f5f5f5" stroke="transparent" points="555.5,-604.0389 555.5,-627.0389 765.5,-627.0389 765.5,-604.0389 555.5,-604.0389"/>
<polygon fill="none" stroke="#000000" points="555.5,-604.0389 555.5,-627.0389 765.5,-627.0389 765.5,-604.0389 555.5,-604.0389"/>
<text text-anchor="start" x="560.5" y="-612.6389" font-family="Helvetica,sans-Serif" font-weight="bold" font-size="11.00" fill="#000000">contributory_factor_audit</text>
<text text-anchor="start" x="731.0219" y="-612.1389" font-family="Helvetica,sans-Serif" font-size="11.00" fill="#000000">[table]</text>
<polygon fill="none" stroke="#000000" points="555.5,-585.0389 555.5,-604.0389 765.5,-604.0389 765.5,-585.0389 555.5,-585.0389"/>
<text text-anchor="start" x="558.5" y="-591.1389" font-family="Helvetica,sans-Serif" font-size="11.00" fill="#000000">...</text>
<polygon fill="#ffffff" stroke="transparent" points="555.5,-566.0389 555.5,-585.0389 658.5,-585.0389 658.5,-566.0389 555.5,-566.0389"/>
<polygon fill="none" stroke="#000000" points="555.5,-566.0389 555.5,-585.0389 658.5,-585.0389 658.5,-566.0389 555.5,-566.0389"/>
<text text-anchor="start" x="558.5" y="-572.1389" font-family="Helvetica,sans-Serif" font-size="11.00" fill="#000000">&lt; 4</text>
<polygon fill="#ffffff" stroke="transparent" points="658.5,-566.0389 658.5,-585.0389 711.5,-585.0389 711.5,-566.0389 658.5,-566.0389"/>
<polygon fill="none" stroke="#000000" points="658.5,-566.0389 658.5,-585.0389 711.5,-585.0389 711.5,-566.0389 658.5,-566.0389"/>
<text text-anchor="start" x="702.3862" y="-572.1389" font-family="Helvetica,sans-Serif" font-size="11.00" fill="#000000"> &#160;</text>
<polygon fill="#ffffff" stroke="transparent" points="711.5,-566.0389 711.5,-585.0389 765.5,-585.0389 765.5,-566.0389 711.5,-566.0389"/>
<polygon fill="none" stroke="#000000" points="711.5,-566.0389 711.5,-585.0389 765.5,-585.0389 765.5,-566.0389 711.5,-566.0389"/>
<text text-anchor="start" x="756.3862" y="-572.1389" font-family="Helvetica,sans-Serif" font-size="11.00" fill="#000000"> &#160;</text>
</a>
</g>
</g>
<!-- contributory_factor_audit&#45;&gt;referral -->
<g id="edge3" class="edge">
<title>contributory_factor_audit:w&#45;&gt;referral:e</title>
<path fill="none" stroke="#000000" stroke-dasharray="5,2" d="M541.1031,-592.8574C482.6206,-583.207 441.42,-516.6339 420.8935,-474.5995"/>
<polygon fill="#000000" stroke="#000000" points="547.5268,-593.3845 555.2055,-597.6268 551.5134,-593.7117 555.5,-594.0389 555.5,-594.0389 555.5,-594.0389 551.5134,-593.7117 555.7945,-590.4509 547.5268,-593.3845 547.5268,-593.3845"/>
<ellipse fill="none" stroke="#000000" cx="544.3375" cy="-593.1227" rx="3.2" ry="3.2"/>
</g>
<!-- csip_record&#45;&gt;reference_data -->
<g id="edge4" class="edge">
<title>csip_record:w&#45;&gt;reference_data:e</title>
<path fill="none" stroke="#000000" d="M183.0545,-503.8053C157.2688,-499.4877 132.9082,-484.5088 114.1494,-469.6287"/>
<polygon fill="#000000" stroke="#000000" points="189.529,-504.3582 197.1937,-508.6258 193.5145,-504.6985 197.5,-505.0389 197.5,-505.0389 197.5,-505.0389 193.5145,-504.6985 197.8063,-501.4519 189.529,-504.3582 189.529,-504.3582"/>
<ellipse fill="none" stroke="#000000" cx="186.3406" cy="-504.0859" rx="3.2" ry="3.2"/>
</g>
<!-- decision_and_actions -->
<g id="node6" class="node">
<title>decision_and_actions</title>
<g id="a_node6"><a xlink:href="../../tables/decision_and_actions.html" xlink:title="decision_and_actions" target="_top">
<polygon fill="#ffffff" stroke="transparent" points="500,-175.0389 500,-463.0389 821,-463.0389 821,-175.0389 500,-175.0389"/>
<polygon fill="#f5f5f5" stroke="transparent" points="502.5,-438.0389 502.5,-461.0389 819.5,-461.0389 819.5,-438.0389 502.5,-438.0389"/>
<polygon fill="none" stroke="#000000" points="502.5,-438.0389 502.5,-461.0389 819.5,-461.0389 819.5,-438.0389 502.5,-438.0389"/>
<text text-anchor="start" x="507.5" y="-446.6389" font-family="Helvetica,sans-Serif" font-weight="bold" font-size="11.00" fill="#000000">decision_and_actions</text>
<text text-anchor="start" x="784.5437" y="-446.1389" font-family="Helvetica,sans-Serif" font-size="11.00" fill="#000000">[table]</text>
<polygon fill="none" stroke="#000000" points="502.5,-416.0389 502.5,-438.0389 703.5,-438.0389 703.5,-416.0389 502.5,-416.0389"/>
<image xlink:href="../../images/primaryKeys.png" width="11px" height="12px" preserveAspectRatio="xMinYMin meet" x="507.5" y="-433.039"/>
<text text-anchor="start" x="522.5" y="-423.1389" font-family="Helvetica,sans-Serif" font-size="11.00" fill="#000000">decision_and_actions_id</text>
<polygon fill="none" stroke="#000000" points="703.5,-416.0389 703.5,-438.0389 819.5,-438.0389 819.5,-416.0389 703.5,-416.0389"/>
<text text-anchor="start" x="706.5" y="-423.7389" font-family="Helvetica,sans-Serif" font-size="11.00" fill="#000000">uuid[2147483647]</text>
<polygon fill="none" stroke="#000000" points="502.5,-394.0389 502.5,-416.0389 703.5,-416.0389 703.5,-394.0389 502.5,-394.0389"/>
<text text-anchor="start" x="522.5" y="-401.1389" font-family="Helvetica,sans-Serif" font-size="11.00" fill="#000000">conclusion</text>
<polygon fill="none" stroke="#000000" points="703.5,-394.0389 703.5,-416.0389 819.5,-416.0389 819.5,-394.0389 703.5,-394.0389"/>
<text text-anchor="start" x="706.5" y="-401.7389" font-family="Helvetica,sans-Serif" font-size="11.00" fill="#000000">text[2147483647]</text>
<polygon fill="#ffffff" stroke="transparent" points="502.5,-372.0389 502.5,-394.0389 703.5,-394.0389 703.5,-372.0389 502.5,-372.0389"/>
<polygon fill="none" stroke="#000000" points="502.5,-372.0389 502.5,-394.0389 703.5,-394.0389 703.5,-372.0389 502.5,-372.0389"/>
<image xlink:href="../../images/foreignKeys.png" width="11px" height="12px" preserveAspectRatio="xMinYMin meet" x="507.5" y="-389.039"/>
<text text-anchor="start" x="522.5" y="-379.1389" font-family="Helvetica,sans-Serif" font-size="11.00" fill="#000000">outcome_id</text>
<polygon fill="none" stroke="#000000" points="703.5,-372.0389 703.5,-394.0389 819.5,-394.0389 819.5,-372.0389 703.5,-372.0389"/>
<text text-anchor="start" x="706.5" y="-379.7389" font-family="Helvetica,sans-Serif" font-size="11.00" fill="#000000">int4[10]</text>
<polygon fill="#ffffff" stroke="transparent" points="502.5,-350.0389 502.5,-372.0389 703.5,-372.0389 703.5,-350.0389 502.5,-350.0389"/>
<polygon fill="none" stroke="#000000" points="502.5,-350.0389 502.5,-372.0389 703.5,-372.0389 703.5,-350.0389 502.5,-350.0389"/>
<image xlink:href="../../images/foreignKeys.png" width="11px" height="12px" preserveAspectRatio="xMinYMin meet" x="507.5" y="-367.039"/>
<text text-anchor="start" x="522.5" y="-357.1389" font-family="Helvetica,sans-Serif" font-size="11.00" fill="#000000">signed_off_by_role_id</text>
<polygon fill="none" stroke="#000000" points="703.5,-350.0389 703.5,-372.0389 819.5,-372.0389 819.5,-350.0389 703.5,-350.0389"/>
<text text-anchor="start" x="706.5" y="-357.7389" font-family="Helvetica,sans-Serif" font-size="11.00" fill="#000000">int4[10]</text>
<polygon fill="none" stroke="#000000" points="502.5,-328.0389 502.5,-350.0389 703.5,-350.0389 703.5,-328.0389 502.5,-328.0389"/>
<text text-anchor="start" x="522.5" y="-335.1389" font-family="Helvetica,sans-Serif" font-size="11.00" fill="#000000">recorded_by</text>
<polygon fill="none" stroke="#000000" points="703.5,-328.0389 703.5,-350.0389 819.5,-350.0389 819.5,-328.0389 703.5,-328.0389"/>
<text text-anchor="start" x="706.5" y="-335.7389" font-family="Helvetica,sans-Serif" font-size="11.00" fill="#000000">varchar[100]</text>
<polygon fill="none" stroke="#000000" points="502.5,-306.0389 502.5,-328.0389 703.5,-328.0389 703.5,-306.0389 502.5,-306.0389"/>
<text text-anchor="start" x="522.5" y="-313.1389" font-family="Helvetica,sans-Serif" font-size="11.00" fill="#000000">recorded_by_display_name</text>
<polygon fill="none" stroke="#000000" points="703.5,-306.0389 703.5,-328.0389 819.5,-328.0389 819.5,-306.0389 703.5,-306.0389"/>
<text text-anchor="start" x="706.5" y="-313.7389" font-family="Helvetica,sans-Serif" font-size="11.00" fill="#000000">varchar[255]</text>
<polygon fill="none" stroke="#000000" points="502.5,-284.0389 502.5,-306.0389 703.5,-306.0389 703.5,-284.0389 502.5,-284.0389"/>
<text text-anchor="start" x="522.5" y="-291.1389" font-family="Helvetica,sans-Serif" font-size="11.00" fill="#000000">date</text>
<polygon fill="none" stroke="#000000" points="703.5,-284.0389 703.5,-306.0389 819.5,-306.0389 819.5,-284.0389 703.5,-284.0389"/>
<text text-anchor="start" x="706.5" y="-291.7389" font-family="Helvetica,sans-Serif" font-size="11.00" fill="#000000">date[13]</text>
<polygon fill="none" stroke="#000000" points="502.5,-262.0389 502.5,-284.0389 703.5,-284.0389 703.5,-262.0389 502.5,-262.0389"/>
<text text-anchor="start" x="522.5" y="-269.1389" font-family="Helvetica,sans-Serif" font-size="11.00" fill="#000000">next_steps</text>
<polygon fill="none" stroke="#000000" points="703.5,-262.0389 703.5,-284.0389 819.5,-284.0389 819.5,-262.0389 703.5,-262.0389"/>
<text text-anchor="start" x="706.5" y="-269.7389" font-family="Helvetica,sans-Serif" font-size="11.00" fill="#000000">text[2147483647]</text>
<polygon fill="none" stroke="#000000" points="502.5,-240.0389 502.5,-262.0389 703.5,-262.0389 703.5,-240.0389 502.5,-240.0389"/>
<text text-anchor="start" x="522.5" y="-247.1389" font-family="Helvetica,sans-Serif" font-size="11.00" fill="#000000">actions</text>
<polygon fill="none" stroke="#000000" points="703.5,-240.0389 703.5,-262.0389 819.5,-262.0389 819.5,-240.0389 703.5,-240.0389"/>
<text text-anchor="start" x="706.4769" y="-247.7389" font-family="Helvetica,sans-Serif" font-size="11.00" fill="#000000">_varchar[2147483647]</text>
<polygon fill="none" stroke="#000000" points="502.5,-218.0389 502.5,-240.0389 703.5,-240.0389 703.5,-218.0389 502.5,-218.0389"/>
<text text-anchor="start" x="522.5" y="-225.1389" font-family="Helvetica,sans-Serif" font-size="11.00" fill="#000000">action_other</text>
<polygon fill="none" stroke="#000000" points="703.5,-218.0389 703.5,-240.0389 819.5,-240.0389 819.5,-218.0389 703.5,-218.0389"/>
<text text-anchor="start" x="706.5" y="-225.7389" font-family="Helvetica,sans-Serif" font-size="11.00" fill="#000000">text[2147483647]</text>
<polygon fill="none" stroke="#000000" points="502.5,-196.0389 502.5,-218.0389 703.5,-218.0389 703.5,-196.0389 502.5,-196.0389"/>
<text text-anchor="start" x="522.5" y="-203.1389" font-family="Helvetica,sans-Serif" font-size="11.00" fill="#000000">version</text>
<polygon fill="none" stroke="#000000" points="703.5,-196.0389 703.5,-218.0389 819.5,-218.0389 819.5,-196.0389 703.5,-196.0389"/>
<text text-anchor="start" x="706.5" y="-203.7389" font-family="Helvetica,sans-Serif" font-size="11.00" fill="#000000">int4[10]</text>
<polygon fill="#ffffff" stroke="transparent" points="502.5,-177.0389 502.5,-196.0389 607.5,-196.0389 607.5,-177.0389 502.5,-177.0389"/>
<polygon fill="none" stroke="#000000" points="502.5,-177.0389 502.5,-196.0389 607.5,-196.0389 607.5,-177.0389 502.5,-177.0389"/>
<text text-anchor="start" x="505.5" y="-183.1389" font-family="Helvetica,sans-Serif" font-size="11.00" fill="#000000">&lt; 3</text>
<polygon fill="#ffffff" stroke="transparent" points="607.5,-177.0389 607.5,-196.0389 703.5,-196.0389 703.5,-177.0389 607.5,-177.0389"/>
<polygon fill="none" stroke="#000000" points="607.5,-177.0389 607.5,-196.0389 703.5,-196.0389 703.5,-177.0389 607.5,-177.0389"/>
<text text-anchor="start" x="694.3862" y="-183.1389" font-family="Helvetica,sans-Serif" font-size="11.00" fill="#000000"> &#160;</text>
<polygon fill="#ffffff" stroke="transparent" points="703.5,-177.0389 703.5,-196.0389 819.5,-196.0389 819.5,-177.0389 703.5,-177.0389"/>
<polygon fill="none" stroke="#000000" points="703.5,-177.0389 703.5,-196.0389 819.5,-196.0389 819.5,-177.0389 703.5,-177.0389"/>
<text text-anchor="start" x="800.9053" y="-183.1389" font-family="Helvetica,sans-Serif" font-size="11.00" fill="#000000">0 &gt;</text>
<polygon fill="none" stroke="#000000" stroke-width="2" points="501,-176.0389 501,-462.0389 820,-462.0389 820,-176.0389 501,-176.0389"/>
</a>
</g>
</g>
<!-- decision_and_actions&#45;&gt;reference_data -->
<g id="edge6" class="edge">
<title>decision_and_actions:w&#45;&gt;reference_data:e</title>
<path fill="none" stroke="#000000" d="M487.8133,-383.1394C369.8164,-384.7331 237.7911,-404.9286 156.2774,-419.6482"/>
<polygon fill="#000000" stroke="#000000" points="494.5002,-383.0937 502.5247,-386.6388 498.5001,-383.0663 502.5,-383.0389 502.5,-383.0389 502.5,-383.0389 498.5001,-383.0663 502.4753,-379.4389 494.5002,-383.0937 494.5002,-383.0937"/>
<ellipse fill="none" stroke="#000000" cx="491.3003" cy="-383.1156" rx="3.2" ry="3.2"/>
</g>
<!-- decision_and_actions&#45;&gt;reference_data -->
<g id="edge7" class="edge">
<title>decision_and_actions:w&#45;&gt;reference_data:e</title>
<path fill="none" stroke="#000000" d="M487.7156,-361.0347C359.663,-360.9766 320.2735,-360.7373 189,-392.0389 178.2451,-394.6033 167.1375,-397.9739 156.2944,-401.7017"/>
<polygon fill="#000000" stroke="#000000" points="494.5,-361.0366 502.499,-364.6389 498.5,-361.0377 502.5,-361.0389 502.5,-361.0389 502.5,-361.0389 498.5,-361.0377 502.501,-357.4389 494.5,-361.0366 494.5,-361.0366"/>
<ellipse fill="none" stroke="#000000" cx="491.3" cy="-361.0357" rx="3.2" ry="3.2"/>
</g>
<!-- decision_and_actions&#45;&gt;referral -->
<g id="edge5" class="edge">
<title>decision_and_actions:w&#45;&gt;referral:e</title>
<path fill="none" stroke="#000000" d="M492.0891,-427.2694C481.1012,-427.737 469.8104,-428.8733 459.1707,-430.2858"/>
<polygon fill="#000000" stroke="#000000" points="501.6116,-423.0576 501.7888,-431.0556 500.1892,-431.091 500.012,-423.093 501.6116,-423.0576"/>
<polyline fill="none" stroke="#000000" points="502.5,-427.0389 498.501,-427.1275 "/>
<ellipse fill="none" stroke="#000000" cx="495.3018" cy="-427.1983" rx="3.2" ry="3.2"/>
</g>
<!-- interview -->
<g id="node7" class="node">
<title>interview</title>
<g id="a_node7"><a xlink:href="../../tables/interview.html" xlink:title="interview" target="_top">
<polygon fill="#ffffff" stroke="transparent" points="870,-262.5389 870,-323.5389 972,-323.5389 972,-262.5389 870,-262.5389"/>
<polygon fill="#f5f5f5" stroke="transparent" points="870,-300.0389 870,-323.0389 972,-323.0389 972,-300.0389 870,-300.0389"/>
<polygon fill="none" stroke="#000000" points="870,-300.0389 870,-323.0389 972,-323.0389 972,-300.0389 870,-300.0389"/>
<text text-anchor="start" x="875" y="-308.6389" font-family="Helvetica,sans-Serif" font-weight="bold" font-size="11.00" fill="#000000">interview</text>
<text text-anchor="start" x="937.5219" y="-308.1389" font-family="Helvetica,sans-Serif" font-size="11.00" fill="#000000">[table]</text>
<polygon fill="none" stroke="#000000" points="870,-281.0389 870,-300.0389 972,-300.0389 972,-281.0389 870,-281.0389"/>
<text text-anchor="start" x="873" y="-287.1389" font-family="Helvetica,sans-Serif" font-size="11.00" fill="#000000">...</text>
<polygon fill="#ffffff" stroke="transparent" points="870,-262.0389 870,-281.0389 919,-281.0389 919,-262.0389 870,-262.0389"/>
<polygon fill="none" stroke="#000000" points="870,-262.0389 870,-281.0389 919,-281.0389 919,-262.0389 870,-262.0389"/>
<text text-anchor="start" x="873" y="-268.1389" font-family="Helvetica,sans-Serif" font-size="11.00" fill="#000000">&lt; 2</text>
<polygon fill="#ffffff" stroke="transparent" points="919,-262.0389 919,-281.0389 945,-281.0389 945,-262.0389 919,-262.0389"/>
<polygon fill="none" stroke="#000000" points="919,-262.0389 919,-281.0389 945,-281.0389 945,-262.0389 919,-262.0389"/>
<text text-anchor="start" x="935.8862" y="-268.1389" font-family="Helvetica,sans-Serif" font-size="11.00" fill="#000000"> &#160;</text>
<polygon fill="#ffffff" stroke="transparent" points="945,-262.0389 945,-281.0389 972,-281.0389 972,-262.0389 945,-262.0389"/>
<polygon fill="none" stroke="#000000" points="945,-262.0389 945,-281.0389 972,-281.0389 972,-262.0389 945,-262.0389"/>
<text text-anchor="start" x="962.8862" y="-268.1389" font-family="Helvetica,sans-Serif" font-size="11.00" fill="#000000"> &#160;</text>
</a>
</g>
</g>
<!-- interview&#45;&gt;reference_data -->
<g id="edge8" class="edge">
<title>interview:w&#45;&gt;reference_data:e</title>
<path fill="none" stroke="#000000" d="M855.6213,-288.5604C789.8607,-272.9793 897.5192,-138.3703 829,-82.0389 713.3024,13.0792 640.0216,-59.1702 492,-82.0389 350.5628,-103.8903 292.6755,-92.381 189,-191.0389 127.6417,-249.4276 97.4242,-348.1203 85.0817,-400.2982"/>
<polygon fill="#000000" stroke="#000000" points="862.042,-289.2205 869.6318,-293.62 866.021,-289.6297 870,-290.0389 870,-290.0389 870,-290.0389 866.021,-289.6297 870.3682,-286.4577 862.042,-289.2205 862.042,-289.2205"/>
<ellipse fill="none" stroke="#000000" cx="858.8587" cy="-288.8932" rx="3.2" ry="3.2"/>
</g>
<!-- investigation -->
<g id="node8" class="node">
<title>investigation</title>
<g id="a_node8"><a xlink:href="../../tables/investigation.html" xlink:title="investigation" target="_top">
<polygon fill="#ffffff" stroke="transparent" points="597,-484.5389 597,-545.5389 724,-545.5389 724,-484.5389 597,-484.5389"/>
<polygon fill="#f5f5f5" stroke="transparent" points="597.5,-522.0389 597.5,-545.0389 724.5,-545.0389 724.5,-522.0389 597.5,-522.0389"/>
<polygon fill="none" stroke="#000000" points="597.5,-522.0389 597.5,-545.0389 724.5,-545.0389 724.5,-522.0389 597.5,-522.0389"/>
<text text-anchor="start" x="602.5" y="-530.6389" font-family="Helvetica,sans-Serif" font-weight="bold" font-size="11.00" fill="#000000">investigation</text>
<text text-anchor="start" x="690.0219" y="-530.1389" font-family="Helvetica,sans-Serif" font-size="11.00" fill="#000000">[table]</text>
<polygon fill="none" stroke="#000000" points="597.5,-503.0389 597.5,-522.0389 724.5,-522.0389 724.5,-503.0389 597.5,-503.0389"/>
<text text-anchor="start" x="600.5" y="-509.1389" font-family="Helvetica,sans-Serif" font-size="11.00" fill="#000000">...</text>
<polygon fill="#ffffff" stroke="transparent" points="597.5,-484.0389 597.5,-503.0389 654.5,-503.0389 654.5,-484.0389 597.5,-484.0389"/>
<polygon fill="none" stroke="#000000" points="597.5,-484.0389 597.5,-503.0389 654.5,-503.0389 654.5,-484.0389 597.5,-484.0389"/>
<text text-anchor="start" x="600.5" y="-490.1389" font-family="Helvetica,sans-Serif" font-size="11.00" fill="#000000">&lt; 1</text>
<polygon fill="#ffffff" stroke="transparent" points="654.5,-484.0389 654.5,-503.0389 684.5,-503.0389 684.5,-484.0389 654.5,-484.0389"/>
<polygon fill="none" stroke="#000000" points="654.5,-484.0389 654.5,-503.0389 684.5,-503.0389 684.5,-484.0389 654.5,-484.0389"/>
<text text-anchor="start" x="675.3862" y="-490.1389" font-family="Helvetica,sans-Serif" font-size="11.00" fill="#000000"> &#160;</text>
<polygon fill="#ffffff" stroke="transparent" points="684.5,-484.0389 684.5,-503.0389 724.5,-503.0389 724.5,-484.0389 684.5,-484.0389"/>
<polygon fill="none" stroke="#000000" points="684.5,-484.0389 684.5,-503.0389 724.5,-503.0389 724.5,-484.0389 684.5,-484.0389"/>
<text text-anchor="start" x="705.9053" y="-490.1389" font-family="Helvetica,sans-Serif" font-size="11.00" fill="#000000">1 &gt;</text>
</a>
</g>
</g>
<!-- interview&#45;&gt;investigation -->
<g id="edge9" class="edge">
<title>interview:w&#45;&gt;investigation:e</title>
<path fill="none" stroke="#000000" d="M855.6164,-291.5878C798.5651,-305.8591 880.6142,-415.2656 829,-474.0389 796.3897,-511.1723 773.9198,-512.0389 724.5,-512.0389"/>
<polygon fill="#000000" stroke="#000000" points="862.046,-290.8954 870.3855,-293.6182 866.023,-290.4671 870,-290.0389 870,-290.0389 870,-290.0389 866.023,-290.4671 869.6145,-286.4595 862.046,-290.8954 862.046,-290.8954"/>
<ellipse fill="none" stroke="#000000" cx="858.8644" cy="-291.2381" rx="3.2" ry="3.2"/>
</g>
<!-- investigation&#45;&gt;referral -->
<g id="edge10" class="edge">
<title>investigation:w&#45;&gt;referral:e</title>
<path fill="none" stroke="#000000" d="M586.8361,-511.7196C541.0703,-509.0235 493.9663,-489.7226 459.3099,-471.8287"/>
<polygon fill="#000000" stroke="#000000" points="596.8201,-508.0167 596.5806,-516.0131 594.9813,-515.9652 595.2208,-507.9688 596.8201,-508.0167"/>
<polyline fill="none" stroke="#000000" points="597.5,-512.0389 593.5018,-511.9191 "/>
<ellipse fill="none" stroke="#000000" cx="590.3032" cy="-511.8233" rx="3.2" ry="3.2"/>
</g>
<!-- safer_custody_screening_outcome -->
<g id="node9" class="node">
<title>safer_custody_screening_outcome</title>
<g id="a_node9"><a xlink:href="../../tables/safer_custody_screening_outcome.html" xlink:title="safer_custody_screening_outcome" target="_top">
<polygon fill="#ffffff" stroke="transparent" points="526,-92.5389 526,-153.5389 795,-153.5389 795,-92.5389 526,-92.5389"/>
<polygon fill="#f5f5f5" stroke="transparent" points="526.5,-130.0389 526.5,-153.0389 795.5,-153.0389 795.5,-130.0389 526.5,-130.0389"/>
<polygon fill="none" stroke="#000000" points="526.5,-130.0389 526.5,-153.0389 795.5,-153.0389 795.5,-130.0389 526.5,-130.0389"/>
<text text-anchor="start" x="531.5" y="-138.6389" font-family="Helvetica,sans-Serif" font-weight="bold" font-size="11.00" fill="#000000">safer_custody_screening_outcome</text>
<text text-anchor="start" x="761.0219" y="-138.1389" font-family="Helvetica,sans-Serif" font-size="11.00" fill="#000000">[table]</text>
<polygon fill="none" stroke="#000000" points="526.5,-111.0389 526.5,-130.0389 795.5,-130.0389 795.5,-111.0389 526.5,-111.0389"/>
<text text-anchor="start" x="529.5" y="-117.1389" font-family="Helvetica,sans-Serif" font-size="11.00" fill="#000000">...</text>
<polygon fill="#ffffff" stroke="transparent" points="526.5,-92.0389 526.5,-111.0389 659.5,-111.0389 659.5,-92.0389 526.5,-92.0389"/>
<polygon fill="none" stroke="#000000" points="526.5,-92.0389 526.5,-111.0389 659.5,-111.0389 659.5,-92.0389 526.5,-92.0389"/>
<text text-anchor="start" x="529.5" y="-98.1389" font-family="Helvetica,sans-Serif" font-size="11.00" fill="#000000">&lt; 2</text>
<polygon fill="#ffffff" stroke="transparent" points="659.5,-92.0389 659.5,-111.0389 727.5,-111.0389 727.5,-92.0389 659.5,-92.0389"/>
<polygon fill="none" stroke="#000000" points="659.5,-92.0389 659.5,-111.0389 727.5,-111.0389 727.5,-92.0389 659.5,-92.0389"/>
<text text-anchor="start" x="718.3862" y="-98.1389" font-family="Helvetica,sans-Serif" font-size="11.00" fill="#000000"> &#160;</text>
<polygon fill="#ffffff" stroke="transparent" points="727.5,-92.0389 727.5,-111.0389 795.5,-111.0389 795.5,-92.0389 727.5,-92.0389"/>
<polygon fill="none" stroke="#000000" points="727.5,-92.0389 727.5,-111.0389 795.5,-111.0389 795.5,-92.0389 727.5,-92.0389"/>
<text text-anchor="start" x="786.3862" y="-98.1389" font-family="Helvetica,sans-Serif" font-size="11.00" fill="#000000"> &#160;</text>
</a>
</g>
</g>
<!-- safer_custody_screening_outcome&#45;&gt;reference_data -->
<g id="edge16" class="edge">
<title>safer_custody_screening_outcome:w&#45;&gt;reference_data:e</title>
<path fill="none" stroke="#000000" d="M512.0988,-120.4034C324.7555,-129.8557 162.5591,-320.6366 102.6467,-400.4273"/>
<polygon fill="#000000" stroke="#000000" points="518.5026,-120.2413 526.5911,-123.6377 522.5013,-120.1401 526.5,-120.0389 526.5,-120.0389 526.5,-120.0389 522.5013,-120.1401 526.4089,-116.44 518.5026,-120.2413 518.5026,-120.2413"/>
<ellipse fill="none" stroke="#000000" cx="515.3036" cy="-120.3223" rx="3.2" ry="3.2"/>
</g>
<!-- safer_custody_screening_outcome&#45;&gt;referral -->
<g id="edge17" class="edge">
<title>safer_custody_screening_outcome:w&#45;&gt;referral:e</title>
<path fill="none" stroke="#000000" d="M515.8534,-121.8767C501.9064,-127.6009 501.567,-145.8188 492,-164.0389 449.3017,-245.3561 423.7025,-351.4515 412.5749,-405.3468"/>
<polygon fill="#000000" stroke="#000000" points="525.0312,-116.2332 526.3921,-124.1166 524.8155,-124.3888 523.4545,-116.5054 525.0312,-116.2332"/>
<polyline fill="none" stroke="#000000" points="526.5,-120.0389 522.5583,-120.7193 "/>
<ellipse fill="none" stroke="#000000" cx="519.4049" cy="-121.2637" rx="3.2" ry="3.2"/>
</g>
</g>
</svg>
