<?xml version="1.0" encoding="UTF-8" standalone="no"?>
<!DOCTYPE svg PUBLIC "-//W3C//DTD SVG 1.1//EN"
 "http://www.w3.org/Graphics/SVG/1.1/DTD/svg11.dtd">
<!-- Generated by graphviz version 2.40.1 (20161225.0304)
 -->
<!-- Title: oneDegreeRelationshipsDiagramImplied Pages: 1 -->
<svg width="626pt" height="558pt"
 viewBox="0.00 0.00 626.00 558.20" xmlns="http://www.w3.org/2000/svg" xmlns:xlink="http://www.w3.org/1999/xlink">
<g id="graph0" class="graph" transform="scale(1 1) rotate(0) translate(4 554.2)">
<title>oneDegreeRelationshipsDiagramImplied</title>
<polygon fill="#ffffff" stroke="transparent" points="-4,4 -4,-554.2 622,-554.2 622,4 -4,4"/>
<text text-anchor="middle" x="72.4936" y="-7.3" font-family="Helvetica,sans-Serif" font-size="11.00" fill="#000000">Generated by SchemaSpy</text>
<!-- decision_and_actions_audit -->
<g id="node1" class="node">
<title>decision_and_actions_audit</title>
<g id="a_node1"><a xlink:href="../../tables/decision_and_actions_audit.html" xlink:title="decision_and_actions_audit" target="_top">
<polygon fill="#ffffff" stroke="transparent" points="223,-38.2 223,-546.2 610,-546.2 610,-38.2 223,-38.2"/>
<polygon fill="#f5f5f5" stroke="transparent" points="225.5,-521.2 225.5,-544.2 608.5,-544.2 608.5,-521.2 225.5,-521.2"/>
<polygon fill="none" stroke="#000000" points="225.5,-521.2 225.5,-544.2 608.5,-544.2 608.5,-521.2 225.5,-521.2"/>
<text text-anchor="start" x="230.5" y="-529.8" font-family="Helvetica,sans-Serif" font-weight="bold" font-size="11.00" fill="#000000">decision_and_actions_audit</text>
<text text-anchor="start" x="573.5437" y="-529.3" font-family="Helvetica,sans-Serif" font-size="11.00" fill="#000000">[table]</text>
<polygon fill="none" stroke="#000000" points="225.5,-499.2 225.5,-521.2 492.5,-521.2 492.5,-499.2 225.5,-499.2"/>
<image xlink:href="../../images/primaryKeys.png" width="11px" height="12px" preserveAspectRatio="xMinYMin meet" x="230.5" y="-516.2"/>
<text text-anchor="start" x="245.5" y="-506.3" font-family="Helvetica,sans-Serif" font-size="11.00" fill="#000000">rev_id</text>
<polygon fill="none" stroke="#000000" points="492.5,-499.2 492.5,-521.2 608.5,-521.2 608.5,-499.2 492.5,-499.2"/>
<text text-anchor="start" x="495.5" y="-506.9" font-family="Helvetica,sans-Serif" font-size="11.00" fill="#000000">int8[19]</text>
<polygon fill="none" stroke="#000000" points="225.5,-477.2 225.5,-499.2 492.5,-499.2 492.5,-477.2 225.5,-477.2"/>
<text text-anchor="start" x="245.5" y="-484.3" font-family="Helvetica,sans-Serif" font-size="11.00" fill="#000000">rev_type</text>
<polygon fill="none" stroke="#000000" points="492.5,-477.2 492.5,-499.2 608.5,-499.2 608.5,-477.2 492.5,-477.2"/>
<text text-anchor="start" x="495.5" y="-484.9" font-family="Helvetica,sans-Serif" font-size="11.00" fill="#000000">int2[5]</text>
<polygon fill="none" stroke="#000000" points="225.5,-455.2 225.5,-477.2 492.5,-477.2 492.5,-455.2 225.5,-455.2"/>
<image xlink:href="../../images/primaryKeys.png" width="11px" height="12px" preserveAspectRatio="xMinYMin meet" x="230.5" y="-472.2"/>
<text text-anchor="start" x="245.5" y="-462.3" font-family="Helvetica,sans-Serif" font-size="11.00" fill="#000000">decision_and_actions_id</text>
<polygon fill="none" stroke="#000000" points="492.5,-455.2 492.5,-477.2 608.5,-477.2 608.5,-455.2 492.5,-455.2"/>
<text text-anchor="start" x="495.5" y="-462.9" font-family="Helvetica,sans-Serif" font-size="11.00" fill="#000000">uuid[2147483647]</text>
<polygon fill="none" stroke="#000000" points="225.5,-433.2 225.5,-455.2 492.5,-455.2 492.5,-433.2 225.5,-433.2"/>
<text text-anchor="start" x="245.5" y="-440.3" font-family="Helvetica,sans-Serif" font-size="11.00" fill="#000000">conclusion</text>
<polygon fill="none" stroke="#000000" points="492.5,-433.2 492.5,-455.2 608.5,-455.2 608.5,-433.2 492.5,-433.2"/>
<text text-anchor="start" x="495.5" y="-440.9" font-family="Helvetica,sans-Serif" font-size="11.00" fill="#000000">text[2147483647]</text>
<polygon fill="none" stroke="#000000" points="225.5,-411.2 225.5,-433.2 492.5,-433.2 492.5,-411.2 225.5,-411.2"/>
<image xlink:href="../../images/foreignKeys.png" width="11px" height="12px" preserveAspectRatio="xMinYMin meet" x="230.5" y="-428.2"/>
<text text-anchor="start" x="245.5" y="-418.3" font-family="Helvetica,sans-Serif" font-size="11.00" fill="#000000">outcome_id</text>
<polygon fill="none" stroke="#000000" points="492.5,-411.2 492.5,-433.2 608.5,-433.2 608.5,-411.2 492.5,-411.2"/>
<text text-anchor="start" x="495.5" y="-418.9" font-family="Helvetica,sans-Serif" font-size="11.00" fill="#000000">int8[19]</text>
<polygon fill="none" stroke="#000000" points="225.5,-389.2 225.5,-411.2 492.5,-411.2 492.5,-389.2 225.5,-389.2"/>
<image xlink:href="../../images/foreignKeys.png" width="11px" height="12px" preserveAspectRatio="xMinYMin meet" x="230.5" y="-406.2"/>
<text text-anchor="start" x="245.5" y="-396.3" font-family="Helvetica,sans-Serif" font-size="11.00" fill="#000000">signed_off_by_role_id</text>
<polygon fill="none" stroke="#000000" points="492.5,-389.2 492.5,-411.2 608.5,-411.2 608.5,-389.2 492.5,-389.2"/>
<text text-anchor="start" x="495.5" y="-396.9" font-family="Helvetica,sans-Serif" font-size="11.00" fill="#000000">int8[19]</text>
<polygon fill="none" stroke="#000000" points="225.5,-367.2 225.5,-389.2 492.5,-389.2 492.5,-367.2 225.5,-367.2"/>
<text text-anchor="start" x="245.5" y="-374.3" font-family="Helvetica,sans-Serif" font-size="11.00" fill="#000000">recorded_by</text>
<polygon fill="none" stroke="#000000" points="492.5,-367.2 492.5,-389.2 608.5,-389.2 608.5,-367.2 492.5,-367.2"/>
<text text-anchor="start" x="495.5" y="-374.9" font-family="Helvetica,sans-Serif" font-size="11.00" fill="#000000">varchar[64]</text>
<polygon fill="none" stroke="#000000" points="225.5,-345.2 225.5,-367.2 492.5,-367.2 492.5,-345.2 225.5,-345.2"/>
<text text-anchor="start" x="245.5" y="-352.3" font-family="Helvetica,sans-Serif" font-size="11.00" fill="#000000">recorded_by_display_name</text>
<polygon fill="none" stroke="#000000" points="492.5,-345.2 492.5,-367.2 608.5,-367.2 608.5,-345.2 492.5,-345.2"/>
<text text-anchor="start" x="495.5" y="-352.9" font-family="Helvetica,sans-Serif" font-size="11.00" fill="#000000">varchar[255]</text>
<polygon fill="none" stroke="#000000" points="225.5,-323.2 225.5,-345.2 492.5,-345.2 492.5,-323.2 225.5,-323.2"/>
<text text-anchor="start" x="245.5" y="-330.3" font-family="Helvetica,sans-Serif" font-size="11.00" fill="#000000">date</text>
<polygon fill="none" stroke="#000000" points="492.5,-323.2 492.5,-345.2 608.5,-345.2 608.5,-323.2 492.5,-323.2"/>
<text text-anchor="start" x="495.5" y="-330.9" font-family="Helvetica,sans-Serif" font-size="11.00" fill="#000000">date[13]</text>
<polygon fill="none" stroke="#000000" points="225.5,-301.2 225.5,-323.2 492.5,-323.2 492.5,-301.2 225.5,-301.2"/>
<text text-anchor="start" x="245.5" y="-308.3" font-family="Helvetica,sans-Serif" font-size="11.00" fill="#000000">next_steps</text>
<polygon fill="none" stroke="#000000" points="492.5,-301.2 492.5,-323.2 608.5,-323.2 608.5,-301.2 492.5,-301.2"/>
<text text-anchor="start" x="495.5" y="-308.9" font-family="Helvetica,sans-Serif" font-size="11.00" fill="#000000">text[2147483647]</text>
<polygon fill="none" stroke="#000000" points="225.5,-279.2 225.5,-301.2 492.5,-301.2 492.5,-279.2 225.5,-279.2"/>
<text text-anchor="start" x="245.5" y="-286.3" font-family="Helvetica,sans-Serif" font-size="11.00" fill="#000000">actions</text>
<polygon fill="none" stroke="#000000" points="492.5,-279.2 492.5,-301.2 608.5,-301.2 608.5,-279.2 492.5,-279.2"/>
<text text-anchor="start" x="495.4769" y="-286.9" font-family="Helvetica,sans-Serif" font-size="11.00" fill="#000000">_varchar[2147483647]</text>
<polygon fill="none" stroke="#000000" points="225.5,-257.2 225.5,-279.2 492.5,-279.2 492.5,-257.2 225.5,-257.2"/>
<text text-anchor="start" x="245.5" y="-264.3" font-family="Helvetica,sans-Serif" font-size="11.00" fill="#000000">action_other</text>
<polygon fill="none" stroke="#000000" points="492.5,-257.2 492.5,-279.2 608.5,-279.2 608.5,-257.2 492.5,-257.2"/>
<text text-anchor="start" x="495.5" y="-264.9" font-family="Helvetica,sans-Serif" font-size="11.00" fill="#000000">text[2147483647]</text>
<polygon fill="none" stroke="#000000" points="225.5,-235.2 225.5,-257.2 492.5,-257.2 492.5,-235.2 225.5,-235.2"/>
<text text-anchor="start" x="245.5" y="-242.3" font-family="Helvetica,sans-Serif" font-size="11.00" fill="#000000">conclusion_modified</text>
<polygon fill="none" stroke="#000000" points="492.5,-235.2 492.5,-257.2 608.5,-257.2 608.5,-235.2 492.5,-235.2"/>
<text text-anchor="start" x="495.5" y="-242.9" font-family="Helvetica,sans-Serif" font-size="11.00" fill="#000000">bool[1]</text>
<polygon fill="none" stroke="#000000" points="225.5,-213.2 225.5,-235.2 492.5,-235.2 492.5,-213.2 225.5,-213.2"/>
<text text-anchor="start" x="245.5" y="-220.3" font-family="Helvetica,sans-Serif" font-size="11.00" fill="#000000">outcome_modified</text>
<polygon fill="none" stroke="#000000" points="492.5,-213.2 492.5,-235.2 608.5,-235.2 608.5,-213.2 492.5,-213.2"/>
<text text-anchor="start" x="495.5" y="-220.9" font-family="Helvetica,sans-Serif" font-size="11.00" fill="#000000">bool[1]</text>
<polygon fill="none" stroke="#000000" points="225.5,-191.2 225.5,-213.2 492.5,-213.2 492.5,-191.2 225.5,-191.2"/>
<text text-anchor="start" x="245.5" y="-198.3" font-family="Helvetica,sans-Serif" font-size="11.00" fill="#000000">signed_off_by_modified</text>
<polygon fill="none" stroke="#000000" points="492.5,-191.2 492.5,-213.2 608.5,-213.2 608.5,-191.2 492.5,-191.2"/>
<text text-anchor="start" x="495.5" y="-198.9" font-family="Helvetica,sans-Serif" font-size="11.00" fill="#000000">bool[1]</text>
<polygon fill="none" stroke="#000000" points="225.5,-169.2 225.5,-191.2 492.5,-191.2 492.5,-169.2 225.5,-169.2"/>
<text text-anchor="start" x="245.5" y="-176.3" font-family="Helvetica,sans-Serif" font-size="11.00" fill="#000000">recorded_by_modified</text>
<polygon fill="none" stroke="#000000" points="492.5,-169.2 492.5,-191.2 608.5,-191.2 608.5,-169.2 492.5,-169.2"/>
<text text-anchor="start" x="495.5" y="-176.9" font-family="Helvetica,sans-Serif" font-size="11.00" fill="#000000">bool[1]</text>
<polygon fill="none" stroke="#000000" points="225.5,-147.2 225.5,-169.2 492.5,-169.2 492.5,-147.2 225.5,-147.2"/>
<text text-anchor="start" x="245.5" y="-154.3" font-family="Helvetica,sans-Serif" font-size="11.00" fill="#000000">recorded_by_display_name_modified</text>
<polygon fill="none" stroke="#000000" points="492.5,-147.2 492.5,-169.2 608.5,-169.2 608.5,-147.2 492.5,-147.2"/>
<text text-anchor="start" x="495.5" y="-154.9" font-family="Helvetica,sans-Serif" font-size="11.00" fill="#000000">bool[1]</text>
<polygon fill="none" stroke="#000000" points="225.5,-125.2 225.5,-147.2 492.5,-147.2 492.5,-125.2 225.5,-125.2"/>
<text text-anchor="start" x="245.5" y="-132.3" font-family="Helvetica,sans-Serif" font-size="11.00" fill="#000000">date_modified</text>
<polygon fill="none" stroke="#000000" points="492.5,-125.2 492.5,-147.2 608.5,-147.2 608.5,-125.2 492.5,-125.2"/>
<text text-anchor="start" x="495.5" y="-132.9" font-family="Helvetica,sans-Serif" font-size="11.00" fill="#000000">bool[1]</text>
<polygon fill="none" stroke="#000000" points="225.5,-103.2 225.5,-125.2 492.5,-125.2 492.5,-103.2 225.5,-103.2"/>
<text text-anchor="start" x="245.5" y="-110.3" font-family="Helvetica,sans-Serif" font-size="11.00" fill="#000000">next_steps_modified</text>
<polygon fill="none" stroke="#000000" points="492.5,-103.2 492.5,-125.2 608.5,-125.2 608.5,-103.2 492.5,-103.2"/>
<text text-anchor="start" x="495.5" y="-110.9" font-family="Helvetica,sans-Serif" font-size="11.00" fill="#000000">bool[1]</text>
<polygon fill="none" stroke="#000000" points="225.5,-81.2 225.5,-103.2 492.5,-103.2 492.5,-81.2 225.5,-81.2"/>
<text text-anchor="start" x="245.5" y="-88.3" font-family="Helvetica,sans-Serif" font-size="11.00" fill="#000000">actions_modified</text>
<polygon fill="none" stroke="#000000" points="492.5,-81.2 492.5,-103.2 608.5,-103.2 608.5,-81.2 492.5,-81.2"/>
<text text-anchor="start" x="495.5" y="-88.9" font-family="Helvetica,sans-Serif" font-size="11.00" fill="#000000">bool[1]</text>
<polygon fill="none" stroke="#000000" points="225.5,-59.2 225.5,-81.2 492.5,-81.2 492.5,-59.2 225.5,-59.2"/>
<text text-anchor="start" x="245.5" y="-66.3" font-family="Helvetica,sans-Serif" font-size="11.00" fill="#000000">action_other_modified</text>
<polygon fill="none" stroke="#000000" points="492.5,-59.2 492.5,-81.2 608.5,-81.2 608.5,-59.2 492.5,-59.2"/>
<text text-anchor="start" x="495.5" y="-66.9" font-family="Helvetica,sans-Serif" font-size="11.00" fill="#000000">bool[1]</text>
<polygon fill="#ffffff" stroke="transparent" points="225.5,-40.2 225.5,-59.2 363.5,-59.2 363.5,-40.2 225.5,-40.2"/>
<polygon fill="none" stroke="#000000" points="225.5,-40.2 225.5,-59.2 363.5,-59.2 363.5,-40.2 225.5,-40.2"/>
<text text-anchor="start" x="228.5" y="-46.3" font-family="Helvetica,sans-Serif" font-size="11.00" fill="#000000">&lt; 3</text>
<polygon fill="#ffffff" stroke="transparent" points="363.5,-40.2 363.5,-59.2 492.5,-59.2 492.5,-40.2 363.5,-40.2"/>
<polygon fill="none" stroke="#000000" points="363.5,-40.2 363.5,-59.2 492.5,-59.2 492.5,-40.2 363.5,-40.2"/>
<text text-anchor="start" x="483.3862" y="-46.3" font-family="Helvetica,sans-Serif" font-size="11.00" fill="#000000"> &#160;</text>
<polygon fill="#ffffff" stroke="transparent" points="492.5,-40.2 492.5,-59.2 608.5,-59.2 608.5,-40.2 492.5,-40.2"/>
<polygon fill="none" stroke="#000000" points="492.5,-40.2 492.5,-59.2 608.5,-59.2 608.5,-40.2 492.5,-40.2"/>
<text text-anchor="start" x="589.9053" y="-46.3" font-family="Helvetica,sans-Serif" font-size="11.00" fill="#000000">0 &gt;</text>
<polygon fill="none" stroke="#000000" stroke-width="2" points="224,-39.2 224,-545.2 609,-545.2 609,-39.2 224,-39.2"/>
</a>
</g>
</g>
<!-- audit_revision -->
<g id="node2" class="node">
<title>audit_revision</title>
<g id="a_node2"><a xlink:href="../../tables/audit_revision.html" xlink:title="audit_revision" target="_top">
<polygon fill="#ffffff" stroke="transparent" points="8,-373.7 8,-456.7 174,-456.7 174,-373.7 8,-373.7"/>
<polygon fill="#f5f5f5" stroke="transparent" points="8,-433.2 8,-456.2 174,-456.2 174,-433.2 8,-433.2"/>
<polygon fill="none" stroke="#000000" points="8,-433.2 8,-456.2 174,-456.2 174,-433.2 8,-433.2"/>
<text text-anchor="start" x="13" y="-441.8" font-family="Helvetica,sans-Serif" font-weight="bold" font-size="11.00" fill="#000000">audit_revision</text>
<text text-anchor="start" x="139.0437" y="-441.3" font-family="Helvetica,sans-Serif" font-size="11.00" fill="#000000">[table]</text>
<polygon fill="none" stroke="#000000" points="8,-411.2 8,-433.2 174,-433.2 174,-411.2 8,-411.2"/>
<image xlink:href="../../images/primaryKeys.png" width="11px" height="12px" preserveAspectRatio="xMinYMin meet" x="13" y="-428.2"/>
<text text-anchor="start" x="28" y="-418.3" font-family="Helvetica,sans-Serif" font-size="11.00" fill="#000000">id</text>
<polygon fill="none" stroke="#000000" points="8,-392.2 8,-411.2 174,-411.2 174,-392.2 8,-392.2"/>
<text text-anchor="start" x="11" y="-398.3" font-family="Helvetica,sans-Serif" font-size="11.00" fill="#000000">...</text>
<polygon fill="#ffffff" stroke="transparent" points="8,-373.2 8,-392.2 77,-392.2 77,-373.2 8,-373.2"/>
<polygon fill="none" stroke="#000000" points="8,-373.2 8,-392.2 77,-392.2 77,-373.2 8,-373.2"/>
<text text-anchor="start" x="11" y="-379.3" font-family="Helvetica,sans-Serif" font-size="11.00" fill="#000000"> &#160;</text>
<polygon fill="#ffffff" stroke="transparent" points="77,-373.2 77,-392.2 118,-392.2 118,-373.2 77,-373.2"/>
<polygon fill="none" stroke="#000000" points="77,-373.2 77,-392.2 118,-392.2 118,-373.2 77,-373.2"/>
<text text-anchor="start" x="108.8862" y="-379.3" font-family="Helvetica,sans-Serif" font-size="11.00" fill="#000000"> &#160;</text>
<polygon fill="#ffffff" stroke="transparent" points="118,-373.2 118,-392.2 174,-392.2 174,-373.2 118,-373.2"/>
<polygon fill="none" stroke="#000000" points="118,-373.2 118,-392.2 174,-392.2 174,-373.2 118,-373.2"/>
<text text-anchor="start" x="149.2904" y="-379.3" font-family="Helvetica,sans-Serif" font-size="11.00" fill="#000000">32 &gt;</text>
</a>
</g>
</g>
<!-- decision_and_actions_audit&#45;&gt;audit_revision -->
<g id="edge1" class="edge">
<title>decision_and_actions_audit:w&#45;&gt;audit_revision:e</title>
<path fill="none" stroke="#000000" stroke-dasharray="5,2" d="M211.0156,-422.2C198.6771,-422.2 191.1667,-422.2 174,-422.2"/>
<polygon fill="#000000" stroke="#000000" points="217.5,-422.2001 225.5,-425.8 221.5,-422.2 225.5,-422.2 225.5,-422.2 225.5,-422.2 221.5,-422.2 225.5,-418.6 217.5,-422.2001 217.5,-422.2001"/>
<ellipse fill="none" stroke="#000000" cx="214.3" cy="-422.2001" rx="3.2" ry="3.2"/>
</g>
<!-- decision_and_actions_audit&#45;&gt;audit_revision -->
<g id="edge2" class="edge">
<title>decision_and_actions_audit:w&#45;&gt;audit_revision:e</title>
<path fill="none" stroke="#000000" d="M211.5174,-505.9556C189.0886,-488.3772 213.2979,-422.2 174,-422.2"/>
<polygon fill="#000000" stroke="#000000" points="217.8449,-507.8763 224.4543,-513.6448 221.6725,-509.0381 225.5,-510.2 225.5,-510.2 225.5,-510.2 221.6725,-509.0381 226.5457,-506.7552 217.8449,-507.8763 217.8449,-507.8763"/>
<ellipse fill="none" stroke="#000000" cx="214.7829" cy="-506.9468" rx="3.2" ry="3.2"/>
</g>
<!-- decision_and_actions_audit&#45;&gt;audit_revision -->
<g id="edge3" class="edge">
<title>decision_and_actions_audit:w&#45;&gt;audit_revision:e</title>
<path fill="none" stroke="#000000" stroke-dasharray="5,2" d="M211.2209,-403.259C198.531,-409.304 193.0563,-422.2 174,-422.2"/>
<polygon fill="#000000" stroke="#000000" points="217.6775,-401.8759 226.2541,-403.7201 221.5887,-401.0379 225.5,-400.2 225.5,-400.2 225.5,-400.2 221.5887,-401.0379 224.7459,-396.6799 217.6775,-401.8759 217.6775,-401.8759"/>
<ellipse fill="none" stroke="#000000" cx="214.5485" cy="-402.5462" rx="3.2" ry="3.2"/>
</g>
</g>
</svg>
