<?xml version="1.0" encoding="UTF-8" standalone="no"?>
<!DOCTYPE svg PUBLIC "-//W3C//DTD SVG 1.1//EN"
 "http://www.w3.org/Graphics/SVG/1.1/DTD/svg11.dtd">
<!-- Generated by graphviz version 2.40.1 (20161225.0304)
 -->
<!-- Title: twoDegreesRelationshipsDiagram Pages: 1 -->
<svg width="988pt" height="640pt"
 viewBox="0.00 0.00 988.00 639.69" xmlns="http://www.w3.org/2000/svg" xmlns:xlink="http://www.w3.org/1999/xlink">
<g id="graph0" class="graph" transform="scale(1 1) rotate(0) translate(4 635.686)">
<title>twoDegreesRelationshipsDiagram</title>
<polygon fill="#ffffff" stroke="transparent" points="-4,4 -4,-635.686 984,-635.686 984,4 -4,4"/>
<text text-anchor="middle" x="72.4936" y="-7.3" font-family="Helvetica,sans-Serif" font-size="11.00" fill="#000000">Generated by SchemaSpy</text>
<!-- contributory_factor -->
<g id="node1" class="node">
<title>contributory_factor</title>
<g id="a_node1"><a xlink:href="../../tables/contributory_factor.html" xlink:title="contributory_factor" target="_top">
<polygon fill="#ffffff" stroke="transparent" points="576,-566.686 576,-627.686 745,-627.686 745,-566.686 576,-566.686"/>
<polygon fill="#f5f5f5" stroke="transparent" points="576.5,-604.186 576.5,-627.186 745.5,-627.186 745.5,-604.186 576.5,-604.186"/>
<polygon fill="none" stroke="#000000" points="576.5,-604.186 576.5,-627.186 745.5,-627.186 745.5,-604.186 576.5,-604.186"/>
<text text-anchor="start" x="581.5" y="-612.786" font-family="Helvetica,sans-Serif" font-weight="bold" font-size="11.00" fill="#000000">contributory_factor</text>
<text text-anchor="start" x="711.0219" y="-612.286" font-family="Helvetica,sans-Serif" font-size="11.00" fill="#000000">[table]</text>
<polygon fill="none" stroke="#000000" points="576.5,-585.186 576.5,-604.186 745.5,-604.186 745.5,-585.186 576.5,-585.186"/>
<text text-anchor="start" x="579.5" y="-591.286" font-family="Helvetica,sans-Serif" font-size="11.00" fill="#000000">...</text>
<polygon fill="#ffffff" stroke="transparent" points="576.5,-566.186 576.5,-585.186 659.5,-585.186 659.5,-566.186 576.5,-566.186"/>
<polygon fill="none" stroke="#000000" points="576.5,-566.186 576.5,-585.186 659.5,-585.186 659.5,-566.186 576.5,-566.186"/>
<text text-anchor="start" x="579.5" y="-572.286" font-family="Helvetica,sans-Serif" font-size="11.00" fill="#000000">&lt; 2</text>
<polygon fill="#ffffff" stroke="transparent" points="659.5,-566.186 659.5,-585.186 702.5,-585.186 702.5,-566.186 659.5,-566.186"/>
<polygon fill="none" stroke="#000000" points="659.5,-566.186 659.5,-585.186 702.5,-585.186 702.5,-566.186 659.5,-566.186"/>
<text text-anchor="start" x="693.3862" y="-572.286" font-family="Helvetica,sans-Serif" font-size="11.00" fill="#000000"> &#160;</text>
<polygon fill="#ffffff" stroke="transparent" points="702.5,-566.186 702.5,-585.186 745.5,-585.186 745.5,-566.186 702.5,-566.186"/>
<polygon fill="none" stroke="#000000" points="702.5,-566.186 702.5,-585.186 745.5,-585.186 745.5,-566.186 702.5,-566.186"/>
<text text-anchor="start" x="736.3862" y="-572.286" font-family="Helvetica,sans-Serif" font-size="11.00" fill="#000000"> &#160;</text>
</a>
</g>
</g>
<!-- reference_data -->
<g id="node2" class="node">
<title>reference_data</title>
<g id="a_node2"><a xlink:href="../../tables/reference_data.html" xlink:title="reference_data" target="_top">
<polygon fill="#ffffff" stroke="transparent" points="8,-442.686 8,-503.686 148,-503.686 148,-442.686 8,-442.686"/>
<polygon fill="#f5f5f5" stroke="transparent" points="8,-480.186 8,-503.186 148,-503.186 148,-480.186 8,-480.186"/>
<polygon fill="none" stroke="#000000" points="8,-480.186 8,-503.186 148,-503.186 148,-480.186 8,-480.186"/>
<text text-anchor="start" x="13" y="-488.786" font-family="Helvetica,sans-Serif" font-weight="bold" font-size="11.00" fill="#000000">reference_data</text>
<text text-anchor="start" x="113.5219" y="-488.286" font-family="Helvetica,sans-Serif" font-size="11.00" fill="#000000">[table]</text>
<polygon fill="none" stroke="#000000" points="8,-461.186 8,-480.186 148,-480.186 148,-461.186 8,-461.186"/>
<text text-anchor="start" x="11" y="-467.286" font-family="Helvetica,sans-Serif" font-size="11.00" fill="#000000">...</text>
<polygon fill="#ffffff" stroke="transparent" points="8,-442.186 8,-461.186 45,-461.186 45,-442.186 8,-442.186"/>
<polygon fill="none" stroke="#000000" points="8,-442.186 8,-461.186 45,-461.186 45,-442.186 8,-442.186"/>
<text text-anchor="start" x="11" y="-448.286" font-family="Helvetica,sans-Serif" font-size="11.00" fill="#000000"> &#160;</text>
<polygon fill="#ffffff" stroke="transparent" points="45,-442.186 45,-461.186 108,-461.186 108,-442.186 45,-442.186"/>
<polygon fill="none" stroke="#000000" points="45,-442.186 45,-461.186 108,-461.186 108,-442.186 45,-442.186"/>
<text text-anchor="start" x="60.3807" y="-448.286" font-family="Helvetica,sans-Serif" font-size="11.00" fill="#000000">112 rows</text>
<polygon fill="#ffffff" stroke="transparent" points="108,-442.186 108,-461.186 148,-461.186 148,-442.186 108,-442.186"/>
<polygon fill="none" stroke="#000000" points="108,-442.186 108,-461.186 148,-461.186 148,-442.186 108,-442.186"/>
<text text-anchor="start" x="123.2904" y="-448.286" font-family="Helvetica,sans-Serif" font-size="11.00" fill="#000000">10 &gt;</text>
</a>
</g>
</g>
<!-- contributory_factor&#45;&gt;reference_data -->
<g id="edge1" class="edge">
<title>contributory_factor:w&#45;&gt;reference_data:e</title>
<path fill="none" stroke="#000000" d="M561.9188,-594.1337C398.6183,-592.9369 351.8088,-571.1003 189,-521.186 176.7553,-517.432 164.0436,-512.7416 151.7827,-507.7743"/>
<polygon fill="#000000" stroke="#000000" points="568.5001,-594.1573 576.4871,-597.7859 572.5,-594.1716 576.5,-594.186 576.5,-594.186 576.5,-594.186 572.5,-594.1716 576.5129,-590.586 568.5001,-594.1573 568.5001,-594.1573"/>
<ellipse fill="none" stroke="#000000" cx="565.3001" cy="-594.1458" rx="3.2" ry="3.2"/>
</g>
<!-- referral -->
<g id="node3" class="node">
<title>referral</title>
<g id="a_node3"><a xlink:href="../../tables/referral.html" xlink:title="referral" target="_top">
<polygon fill="#ffffff" stroke="transparent" points="361,-480.686 361,-541.686 451,-541.686 451,-480.686 361,-480.686"/>
<polygon fill="#f5f5f5" stroke="transparent" points="361,-518.186 361,-541.186 451,-541.186 451,-518.186 361,-518.186"/>
<polygon fill="none" stroke="#000000" points="361,-518.186 361,-541.186 451,-541.186 451,-518.186 361,-518.186"/>
<text text-anchor="start" x="366" y="-526.786" font-family="Helvetica,sans-Serif" font-weight="bold" font-size="11.00" fill="#000000">referral</text>
<text text-anchor="start" x="416.5219" y="-526.286" font-family="Helvetica,sans-Serif" font-size="11.00" fill="#000000">[table]</text>
<polygon fill="none" stroke="#000000" points="361,-499.186 361,-518.186 451,-518.186 451,-499.186 361,-499.186"/>
<text text-anchor="start" x="364" y="-505.286" font-family="Helvetica,sans-Serif" font-size="11.00" fill="#000000">...</text>
<polygon fill="#ffffff" stroke="transparent" points="361,-480.186 361,-499.186 400,-499.186 400,-480.186 361,-480.186"/>
<polygon fill="none" stroke="#000000" points="361,-480.186 361,-499.186 400,-499.186 400,-480.186 361,-480.186"/>
<text text-anchor="start" x="364" y="-486.286" font-family="Helvetica,sans-Serif" font-size="11.00" fill="#000000">&lt; 5</text>
<polygon fill="#ffffff" stroke="transparent" points="400,-480.186 400,-499.186 421,-499.186 421,-480.186 400,-480.186"/>
<polygon fill="none" stroke="#000000" points="400,-480.186 400,-499.186 421,-499.186 421,-480.186 400,-480.186"/>
<text text-anchor="start" x="411.8862" y="-486.286" font-family="Helvetica,sans-Serif" font-size="11.00" fill="#000000"> &#160;</text>
<polygon fill="#ffffff" stroke="transparent" points="421,-480.186 421,-499.186 451,-499.186 451,-480.186 421,-480.186"/>
<polygon fill="none" stroke="#000000" points="421,-480.186 421,-499.186 451,-499.186 451,-480.186 421,-480.186"/>
<text text-anchor="start" x="432.4053" y="-486.286" font-family="Helvetica,sans-Serif" font-size="11.00" fill="#000000">4 &gt;</text>
</a>
</g>
</g>
<!-- contributory_factor&#45;&gt;referral -->
<g id="edge2" class="edge">
<title>contributory_factor:w&#45;&gt;referral:e</title>
<path fill="none" stroke="#000000" d="M561.9798,-593.3965C520.1039,-588.9289 478.9998,-566.2943 449.5081,-545.9045"/>
<polygon fill="#000000" stroke="#000000" points="568.5118,-593.7516 576.3045,-597.7807 572.5059,-593.9688 576.5,-594.186 576.5,-594.186 576.5,-594.186 572.5059,-593.9688 576.6955,-590.5913 568.5118,-593.7516 568.5118,-593.7516"/>
<ellipse fill="none" stroke="#000000" cx="565.3165" cy="-593.5778" rx="3.2" ry="3.2"/>
</g>
<!-- referral&#45;&gt;reference_data -->
<g id="edge10" class="edge">
<title>referral:w&#45;&gt;reference_data:e</title>
<path fill="none" stroke="#000000" d="M338.5742,-491.5987C285.5721,-482.3619 211.665,-473.6092 156.0938,-469.8869"/>
<polygon fill="#000000" stroke="#000000" points="345.0659,-492.7804 352.2919,-497.7549 349.0013,-493.4967 352.9366,-494.2131 352.9366,-494.2131 352.9366,-494.2131 349.0013,-493.4967 353.5813,-490.6713 345.0659,-492.7804 345.0659,-492.7804"/>
<ellipse fill="none" stroke="#000000" cx="341.9176" cy="-492.2073" rx="3.2" ry="3.2"/>
</g>
<!-- referral&#45;&gt;reference_data -->
<g id="edge11" class="edge">
<title>referral:w&#45;&gt;reference_data:e</title>
<path fill="none" stroke="#000000" d="M338.5742,-499.6558C285.5721,-492.5375 211.665,-483.915 156.0938,-478.3345"/>
<polygon fill="#000000" stroke="#000000" points="345.0104,-500.5359 352.4488,-505.1867 348.9735,-501.0779 352.9366,-501.6199 352.9366,-501.6199 352.9366,-501.6199 348.9735,-501.0779 353.4244,-498.0531 345.0104,-500.5359 345.0104,-500.5359"/>
<ellipse fill="none" stroke="#000000" cx="341.8399" cy="-500.1023" rx="3.2" ry="3.2"/>
</g>
<!-- referral&#45;&gt;reference_data -->
<g id="edge12" class="edge">
<title>referral:w&#45;&gt;reference_data:e</title>
<path fill="none" stroke="#000000" d="M338.5742,-507.7129C285.5721,-502.7131 211.665,-494.2208 156.0938,-486.7821"/>
<polygon fill="#000000" stroke="#000000" points="344.9698,-508.2978 352.6086,-512.6117 348.9532,-508.6622 352.9366,-509.0266 352.9366,-509.0266 352.9366,-509.0266 348.9532,-508.6622 353.2645,-505.4416 344.9698,-508.2978 344.9698,-508.2978"/>
<ellipse fill="none" stroke="#000000" cx="341.7832" cy="-508.0063" rx="3.2" ry="3.2"/>
</g>
<!-- referral&#45;&gt;reference_data -->
<g id="edge13" class="edge">
<title>referral:w&#45;&gt;reference_data:e</title>
<path fill="none" stroke="#000000" d="M338.2342,-515.7514C285.2563,-512.853 211.5463,-504.5067 156.0938,-495.2297"/>
<polygon fill="#000000" stroke="#000000" points="344.9452,-516.0626 352.7697,-520.0296 348.9409,-516.248 352.9366,-516.4334 352.9366,-516.4334 352.9366,-516.4334 348.9409,-516.248 353.1034,-512.8373 344.9452,-516.0626 344.9452,-516.0626"/>
<ellipse fill="none" stroke="#000000" cx="341.7486" cy="-515.9143" rx="3.2" ry="3.2"/>
</g>
<!-- csip_record -->
<g id="node4" class="node">
<title>csip_record</title>
<g id="a_node4"><a xlink:href="../../tables/csip_record.html" xlink:title="csip_record" target="_top">
<polygon fill="#ffffff" stroke="transparent" points="197,-407.686 197,-468.686 312,-468.686 312,-407.686 197,-407.686"/>
<polygon fill="#f5f5f5" stroke="transparent" points="197.5,-445.186 197.5,-468.186 312.5,-468.186 312.5,-445.186 197.5,-445.186"/>
<polygon fill="none" stroke="#000000" points="197.5,-445.186 197.5,-468.186 312.5,-468.186 312.5,-445.186 197.5,-445.186"/>
<text text-anchor="start" x="202.5" y="-453.786" font-family="Helvetica,sans-Serif" font-weight="bold" font-size="11.00" fill="#000000">csip_record</text>
<text text-anchor="start" x="278.0219" y="-453.286" font-family="Helvetica,sans-Serif" font-size="11.00" fill="#000000">[table]</text>
<polygon fill="none" stroke="#000000" points="197.5,-426.186 197.5,-445.186 312.5,-445.186 312.5,-426.186 197.5,-426.186"/>
<text text-anchor="start" x="200.5" y="-432.286" font-family="Helvetica,sans-Serif" font-size="11.00" fill="#000000">...</text>
<polygon fill="#ffffff" stroke="transparent" points="197.5,-407.186 197.5,-426.186 248.5,-426.186 248.5,-407.186 197.5,-407.186"/>
<polygon fill="none" stroke="#000000" points="197.5,-407.186 197.5,-426.186 248.5,-426.186 248.5,-407.186 197.5,-407.186"/>
<text text-anchor="start" x="200.5" y="-413.286" font-family="Helvetica,sans-Serif" font-size="11.00" fill="#000000">&lt; 2</text>
<polygon fill="#ffffff" stroke="transparent" points="248.5,-407.186 248.5,-426.186 275.5,-426.186 275.5,-407.186 248.5,-407.186"/>
<polygon fill="none" stroke="#000000" points="248.5,-407.186 248.5,-426.186 275.5,-426.186 275.5,-407.186 248.5,-407.186"/>
<text text-anchor="start" x="266.3862" y="-413.286" font-family="Helvetica,sans-Serif" font-size="11.00" fill="#000000"> &#160;</text>
<polygon fill="#ffffff" stroke="transparent" points="275.5,-407.186 275.5,-426.186 312.5,-426.186 312.5,-407.186 275.5,-407.186"/>
<polygon fill="none" stroke="#000000" points="275.5,-407.186 275.5,-426.186 312.5,-426.186 312.5,-407.186 275.5,-407.186"/>
<text text-anchor="start" x="293.9053" y="-413.286" font-family="Helvetica,sans-Serif" font-size="11.00" fill="#000000">2 &gt;</text>
</a>
</g>
</g>
<!-- referral&#45;&gt;csip_record -->
<g id="edge14" class="edge">
<title>referral:w&#45;&gt;csip_record:e</title>
<path fill="none" stroke="#000000" d="M374.9145,-468.3307C358.6342,-451.0797 336.9896,-435.186 312.5,-435.186"/>
<polygon fill="#000000" stroke="#000000" points="384.464,-473.043 378.4883,-478.362 377.4245,-477.1668 383.4002,-471.8478 384.464,-473.043"/>
<polyline fill="none" stroke="#000000" points="382.0081,-476.3 379.3486,-473.3122 "/>
<ellipse fill="none" stroke="#000000" cx="377.221" cy="-470.9219" rx="3.2" ry="3.2"/>
</g>
<!-- csip_record&#45;&gt;reference_data -->
<g id="edge3" class="edge">
<title>csip_record:w&#45;&gt;reference_data:e</title>
<path fill="none" stroke="#000000" d="M183.0173,-435.9777C174.0598,-436.9218 165.0553,-438.6547 156.2887,-440.875"/>
<polygon fill="#000000" stroke="#000000" points="189.5119,-435.6227 197.6965,-438.7806 193.506,-435.4043 197.5,-435.186 197.5,-435.186 197.5,-435.186 193.506,-435.4043 197.3035,-431.5913 189.5119,-435.6227 189.5119,-435.6227"/>
<ellipse fill="none" stroke="#000000" cx="186.3167" cy="-435.7974" rx="3.2" ry="3.2"/>
</g>
<!-- decision_and_actions -->
<g id="node5" class="node">
<title>decision_and_actions</title>
<g id="a_node5"><a xlink:href="../../tables/decision_and_actions.html" xlink:title="decision_and_actions" target="_top">
<polygon fill="#ffffff" stroke="transparent" points="500,-175.186 500,-463.186 821,-463.186 821,-175.186 500,-175.186"/>
<polygon fill="#f5f5f5" stroke="transparent" points="502.5,-438.186 502.5,-461.186 819.5,-461.186 819.5,-438.186 502.5,-438.186"/>
<polygon fill="none" stroke="#000000" points="502.5,-438.186 502.5,-461.186 819.5,-461.186 819.5,-438.186 502.5,-438.186"/>
<text text-anchor="start" x="507.5" y="-446.786" font-family="Helvetica,sans-Serif" font-weight="bold" font-size="11.00" fill="#000000">decision_and_actions</text>
<text text-anchor="start" x="784.5437" y="-446.286" font-family="Helvetica,sans-Serif" font-size="11.00" fill="#000000">[table]</text>
<polygon fill="none" stroke="#000000" points="502.5,-416.186 502.5,-438.186 703.5,-438.186 703.5,-416.186 502.5,-416.186"/>
<image xlink:href="../../images/primaryKeys.png" width="11px" height="12px" preserveAspectRatio="xMinYMin meet" x="507.5" y="-433.186"/>
<text text-anchor="start" x="522.5" y="-423.286" font-family="Helvetica,sans-Serif" font-size="11.00" fill="#000000">decision_and_actions_id</text>
<polygon fill="none" stroke="#000000" points="703.5,-416.186 703.5,-438.186 819.5,-438.186 819.5,-416.186 703.5,-416.186"/>
<text text-anchor="start" x="706.5" y="-423.886" font-family="Helvetica,sans-Serif" font-size="11.00" fill="#000000">uuid[2147483647]</text>
<polygon fill="none" stroke="#000000" points="502.5,-394.186 502.5,-416.186 703.5,-416.186 703.5,-394.186 502.5,-394.186"/>
<text text-anchor="start" x="522.5" y="-401.286" font-family="Helvetica,sans-Serif" font-size="11.00" fill="#000000">conclusion</text>
<polygon fill="none" stroke="#000000" points="703.5,-394.186 703.5,-416.186 819.5,-416.186 819.5,-394.186 703.5,-394.186"/>
<text text-anchor="start" x="706.5" y="-401.886" font-family="Helvetica,sans-Serif" font-size="11.00" fill="#000000">text[2147483647]</text>
<polygon fill="#ffffff" stroke="transparent" points="502.5,-372.186 502.5,-394.186 703.5,-394.186 703.5,-372.186 502.5,-372.186"/>
<polygon fill="none" stroke="#000000" points="502.5,-372.186 502.5,-394.186 703.5,-394.186 703.5,-372.186 502.5,-372.186"/>
<image xlink:href="../../images/foreignKeys.png" width="11px" height="12px" preserveAspectRatio="xMinYMin meet" x="507.5" y="-389.186"/>
<text text-anchor="start" x="522.5" y="-379.286" font-family="Helvetica,sans-Serif" font-size="11.00" fill="#000000">outcome_id</text>
<polygon fill="none" stroke="#000000" points="703.5,-372.186 703.5,-394.186 819.5,-394.186 819.5,-372.186 703.5,-372.186"/>
<text text-anchor="start" x="706.5" y="-379.886" font-family="Helvetica,sans-Serif" font-size="11.00" fill="#000000">int4[10]</text>
<polygon fill="#ffffff" stroke="transparent" points="502.5,-350.186 502.5,-372.186 703.5,-372.186 703.5,-350.186 502.5,-350.186"/>
<polygon fill="none" stroke="#000000" points="502.5,-350.186 502.5,-372.186 703.5,-372.186 703.5,-350.186 502.5,-350.186"/>
<image xlink:href="../../images/foreignKeys.png" width="11px" height="12px" preserveAspectRatio="xMinYMin meet" x="507.5" y="-367.186"/>
<text text-anchor="start" x="522.5" y="-357.286" font-family="Helvetica,sans-Serif" font-size="11.00" fill="#000000">signed_off_by_role_id</text>
<polygon fill="none" stroke="#000000" points="703.5,-350.186 703.5,-372.186 819.5,-372.186 819.5,-350.186 703.5,-350.186"/>
<text text-anchor="start" x="706.5" y="-357.886" font-family="Helvetica,sans-Serif" font-size="11.00" fill="#000000">int4[10]</text>
<polygon fill="none" stroke="#000000" points="502.5,-328.186 502.5,-350.186 703.5,-350.186 703.5,-328.186 502.5,-328.186"/>
<text text-anchor="start" x="522.5" y="-335.286" font-family="Helvetica,sans-Serif" font-size="11.00" fill="#000000">recorded_by</text>
<polygon fill="none" stroke="#000000" points="703.5,-328.186 703.5,-350.186 819.5,-350.186 819.5,-328.186 703.5,-328.186"/>
<text text-anchor="start" x="706.5" y="-335.886" font-family="Helvetica,sans-Serif" font-size="11.00" fill="#000000">varchar[100]</text>
<polygon fill="none" stroke="#000000" points="502.5,-306.186 502.5,-328.186 703.5,-328.186 703.5,-306.186 502.5,-306.186"/>
<text text-anchor="start" x="522.5" y="-313.286" font-family="Helvetica,sans-Serif" font-size="11.00" fill="#000000">recorded_by_display_name</text>
<polygon fill="none" stroke="#000000" points="703.5,-306.186 703.5,-328.186 819.5,-328.186 819.5,-306.186 703.5,-306.186"/>
<text text-anchor="start" x="706.5" y="-313.886" font-family="Helvetica,sans-Serif" font-size="11.00" fill="#000000">varchar[255]</text>
<polygon fill="none" stroke="#000000" points="502.5,-284.186 502.5,-306.186 703.5,-306.186 703.5,-284.186 502.5,-284.186"/>
<text text-anchor="start" x="522.5" y="-291.286" font-family="Helvetica,sans-Serif" font-size="11.00" fill="#000000">date</text>
<polygon fill="none" stroke="#000000" points="703.5,-284.186 703.5,-306.186 819.5,-306.186 819.5,-284.186 703.5,-284.186"/>
<text text-anchor="start" x="706.5" y="-291.886" font-family="Helvetica,sans-Serif" font-size="11.00" fill="#000000">date[13]</text>
<polygon fill="none" stroke="#000000" points="502.5,-262.186 502.5,-284.186 703.5,-284.186 703.5,-262.186 502.5,-262.186"/>
<text text-anchor="start" x="522.5" y="-269.286" font-family="Helvetica,sans-Serif" font-size="11.00" fill="#000000">next_steps</text>
<polygon fill="none" stroke="#000000" points="703.5,-262.186 703.5,-284.186 819.5,-284.186 819.5,-262.186 703.5,-262.186"/>
<text text-anchor="start" x="706.5" y="-269.886" font-family="Helvetica,sans-Serif" font-size="11.00" fill="#000000">text[2147483647]</text>
<polygon fill="none" stroke="#000000" points="502.5,-240.186 502.5,-262.186 703.5,-262.186 703.5,-240.186 502.5,-240.186"/>
<text text-anchor="start" x="522.5" y="-247.286" font-family="Helvetica,sans-Serif" font-size="11.00" fill="#000000">actions</text>
<polygon fill="none" stroke="#000000" points="703.5,-240.186 703.5,-262.186 819.5,-262.186 819.5,-240.186 703.5,-240.186"/>
<text text-anchor="start" x="706.4769" y="-247.886" font-family="Helvetica,sans-Serif" font-size="11.00" fill="#000000">_varchar[2147483647]</text>
<polygon fill="none" stroke="#000000" points="502.5,-218.186 502.5,-240.186 703.5,-240.186 703.5,-218.186 502.5,-218.186"/>
<text text-anchor="start" x="522.5" y="-225.286" font-family="Helvetica,sans-Serif" font-size="11.00" fill="#000000">action_other</text>
<polygon fill="none" stroke="#000000" points="703.5,-218.186 703.5,-240.186 819.5,-240.186 819.5,-218.186 703.5,-218.186"/>
<text text-anchor="start" x="706.5" y="-225.886" font-family="Helvetica,sans-Serif" font-size="11.00" fill="#000000">text[2147483647]</text>
<polygon fill="none" stroke="#000000" points="502.5,-196.186 502.5,-218.186 703.5,-218.186 703.5,-196.186 502.5,-196.186"/>
<text text-anchor="start" x="522.5" y="-203.286" font-family="Helvetica,sans-Serif" font-size="11.00" fill="#000000">version</text>
<polygon fill="none" stroke="#000000" points="703.5,-196.186 703.5,-218.186 819.5,-218.186 819.5,-196.186 703.5,-196.186"/>
<text text-anchor="start" x="706.5" y="-203.886" font-family="Helvetica,sans-Serif" font-size="11.00" fill="#000000">int4[10]</text>
<polygon fill="#ffffff" stroke="transparent" points="502.5,-177.186 502.5,-196.186 607.5,-196.186 607.5,-177.186 502.5,-177.186"/>
<polygon fill="none" stroke="#000000" points="502.5,-177.186 502.5,-196.186 607.5,-196.186 607.5,-177.186 502.5,-177.186"/>
<text text-anchor="start" x="505.5" y="-183.286" font-family="Helvetica,sans-Serif" font-size="11.00" fill="#000000">&lt; 3</text>
<polygon fill="#ffffff" stroke="transparent" points="607.5,-177.186 607.5,-196.186 703.5,-196.186 703.5,-177.186 607.5,-177.186"/>
<polygon fill="none" stroke="#000000" points="607.5,-177.186 607.5,-196.186 703.5,-196.186 703.5,-177.186 607.5,-177.186"/>
<text text-anchor="start" x="694.3862" y="-183.286" font-family="Helvetica,sans-Serif" font-size="11.00" fill="#000000"> &#160;</text>
<polygon fill="#ffffff" stroke="transparent" points="703.5,-177.186 703.5,-196.186 819.5,-196.186 819.5,-177.186 703.5,-177.186"/>
<polygon fill="none" stroke="#000000" points="703.5,-177.186 703.5,-196.186 819.5,-196.186 819.5,-177.186 703.5,-177.186"/>
<text text-anchor="start" x="800.9053" y="-183.286" font-family="Helvetica,sans-Serif" font-size="11.00" fill="#000000">0 &gt;</text>
<polygon fill="none" stroke="#000000" stroke-width="2" points="501,-176.186 501,-462.186 820,-462.186 820,-176.186 501,-176.186"/>
</a>
</g>
</g>
<!-- decision_and_actions&#45;&gt;reference_data -->
<g id="edge5" class="edge">
<title>decision_and_actions:w&#45;&gt;reference_data:e</title>
<path fill="none" stroke="#000000" d="M487.7553,-383.0726C359.8928,-381.1004 316.5021,-354.579 189,-397.186 162.7511,-405.9575 137.0192,-422.8928 116.95,-438.5547"/>
<polygon fill="#000000" stroke="#000000" points="494.5002,-383.1244 502.4723,-386.7859 498.5001,-383.1552 502.5,-383.186 502.5,-383.186 502.5,-383.186 498.5001,-383.1552 502.5277,-379.5861 494.5002,-383.1244 494.5002,-383.1244"/>
<ellipse fill="none" stroke="#000000" cx="491.3003" cy="-383.0998" rx="3.2" ry="3.2"/>
</g>
<!-- decision_and_actions&#45;&gt;reference_data -->
<g id="edge6" class="edge">
<title>decision_and_actions:w&#45;&gt;reference_data:e</title>
<path fill="none" stroke="#000000" d="M487.7522,-361.0169C359.748,-358.07 313.2964,-318.2121 189,-369.186 154.0609,-383.5145 123.5203,-414.2862 103.3662,-438.66"/>
<polygon fill="#000000" stroke="#000000" points="494.5005,-361.0942 502.4587,-364.7857 498.5003,-361.1401 502.5,-361.186 502.5,-361.186 502.5,-361.186 498.5003,-361.1401 502.5413,-357.5862 494.5005,-361.0942 494.5005,-361.0942"/>
<ellipse fill="none" stroke="#000000" cx="491.3007" cy="-361.0575" rx="3.2" ry="3.2"/>
</g>
<!-- decision_and_actions&#45;&gt;referral -->
<g id="edge4" class="edge">
<title>decision_and_actions:w&#45;&gt;referral:e</title>
<path fill="none" stroke="#000000" d="M491.9183,-428.1524C464.878,-433.0848 442.4111,-456.0174 427.2416,-476.535"/>
<polygon fill="#000000" stroke="#000000" points="501.3395,-423.2753 502.0672,-431.2422 500.4738,-431.3877 499.7461,-423.4209 501.3395,-423.2753"/>
<polyline fill="none" stroke="#000000" points="502.5,-427.186 498.5166,-427.5498 "/>
<ellipse fill="none" stroke="#000000" cx="495.3298" cy="-427.8409" rx="3.2" ry="3.2"/>
</g>
<!-- interview -->
<g id="node6" class="node">
<title>interview</title>
<g id="a_node6"><a xlink:href="../../tables/interview.html" xlink:title="interview" target="_top">
<polygon fill="#ffffff" stroke="transparent" points="870,-262.686 870,-323.686 972,-323.686 972,-262.686 870,-262.686"/>
<polygon fill="#f5f5f5" stroke="transparent" points="870,-300.186 870,-323.186 972,-323.186 972,-300.186 870,-300.186"/>
<polygon fill="none" stroke="#000000" points="870,-300.186 870,-323.186 972,-323.186 972,-300.186 870,-300.186"/>
<text text-anchor="start" x="875" y="-308.786" font-family="Helvetica,sans-Serif" font-weight="bold" font-size="11.00" fill="#000000">interview</text>
<text text-anchor="start" x="937.5219" y="-308.286" font-family="Helvetica,sans-Serif" font-size="11.00" fill="#000000">[table]</text>
<polygon fill="none" stroke="#000000" points="870,-281.186 870,-300.186 972,-300.186 972,-281.186 870,-281.186"/>
<text text-anchor="start" x="873" y="-287.286" font-family="Helvetica,sans-Serif" font-size="11.00" fill="#000000">...</text>
<polygon fill="#ffffff" stroke="transparent" points="870,-262.186 870,-281.186 919,-281.186 919,-262.186 870,-262.186"/>
<polygon fill="none" stroke="#000000" points="870,-262.186 870,-281.186 919,-281.186 919,-262.186 870,-262.186"/>
<text text-anchor="start" x="873" y="-268.286" font-family="Helvetica,sans-Serif" font-size="11.00" fill="#000000">&lt; 2</text>
<polygon fill="#ffffff" stroke="transparent" points="919,-262.186 919,-281.186 945,-281.186 945,-262.186 919,-262.186"/>
<polygon fill="none" stroke="#000000" points="919,-262.186 919,-281.186 945,-281.186 945,-262.186 919,-262.186"/>
<text text-anchor="start" x="935.8862" y="-268.286" font-family="Helvetica,sans-Serif" font-size="11.00" fill="#000000"> &#160;</text>
<polygon fill="#ffffff" stroke="transparent" points="945,-262.186 945,-281.186 972,-281.186 972,-262.186 945,-262.186"/>
<polygon fill="none" stroke="#000000" points="945,-262.186 945,-281.186 972,-281.186 972,-262.186 945,-262.186"/>
<text text-anchor="start" x="962.8862" y="-268.286" font-family="Helvetica,sans-Serif" font-size="11.00" fill="#000000"> &#160;</text>
</a>
</g>
</g>
<!-- interview&#45;&gt;reference_data -->
<g id="edge7" class="edge">
<title>interview:w&#45;&gt;reference_data:e</title>
<path fill="none" stroke="#000000" d="M855.6213,-288.7075C789.8607,-273.1264 897.5192,-138.5174 829,-82.186 713.3024,12.9321 639.9462,-58.8344 492,-82.186 350.1836,-104.57 290.0531,-92.1996 189,-194.186 120.3863,-263.4333 92.7851,-380.3847 82.8908,-438.3982"/>
<polygon fill="#000000" stroke="#000000" points="862.042,-289.3677 869.6318,-293.7671 866.021,-289.7768 870,-290.186 870,-290.186 870,-290.186 866.021,-289.7768 870.3682,-286.6048 862.042,-289.3677 862.042,-289.3677"/>
<ellipse fill="none" stroke="#000000" cx="858.8587" cy="-289.0403" rx="3.2" ry="3.2"/>
</g>
<!-- investigation -->
<g id="node7" class="node">
<title>investigation</title>
<g id="a_node7"><a xlink:href="../../tables/investigation.html" xlink:title="investigation" target="_top">
<polygon fill="#ffffff" stroke="transparent" points="597,-484.686 597,-545.686 724,-545.686 724,-484.686 597,-484.686"/>
<polygon fill="#f5f5f5" stroke="transparent" points="597.5,-522.186 597.5,-545.186 724.5,-545.186 724.5,-522.186 597.5,-522.186"/>
<polygon fill="none" stroke="#000000" points="597.5,-522.186 597.5,-545.186 724.5,-545.186 724.5,-522.186 597.5,-522.186"/>
<text text-anchor="start" x="602.5" y="-530.786" font-family="Helvetica,sans-Serif" font-weight="bold" font-size="11.00" fill="#000000">investigation</text>
<text text-anchor="start" x="690.0219" y="-530.286" font-family="Helvetica,sans-Serif" font-size="11.00" fill="#000000">[table]</text>
<polygon fill="none" stroke="#000000" points="597.5,-503.186 597.5,-522.186 724.5,-522.186 724.5,-503.186 597.5,-503.186"/>
<text text-anchor="start" x="600.5" y="-509.286" font-family="Helvetica,sans-Serif" font-size="11.00" fill="#000000">...</text>
<polygon fill="#ffffff" stroke="transparent" points="597.5,-484.186 597.5,-503.186 654.5,-503.186 654.5,-484.186 597.5,-484.186"/>
<polygon fill="none" stroke="#000000" points="597.5,-484.186 597.5,-503.186 654.5,-503.186 654.5,-484.186 597.5,-484.186"/>
<text text-anchor="start" x="600.5" y="-490.286" font-family="Helvetica,sans-Serif" font-size="11.00" fill="#000000">&lt; 1</text>
<polygon fill="#ffffff" stroke="transparent" points="654.5,-484.186 654.5,-503.186 684.5,-503.186 684.5,-484.186 654.5,-484.186"/>
<polygon fill="none" stroke="#000000" points="654.5,-484.186 654.5,-503.186 684.5,-503.186 684.5,-484.186 654.5,-484.186"/>
<text text-anchor="start" x="675.3862" y="-490.286" font-family="Helvetica,sans-Serif" font-size="11.00" fill="#000000"> &#160;</text>
<polygon fill="#ffffff" stroke="transparent" points="684.5,-484.186 684.5,-503.186 724.5,-503.186 724.5,-484.186 684.5,-484.186"/>
<polygon fill="none" stroke="#000000" points="684.5,-484.186 684.5,-503.186 724.5,-503.186 724.5,-484.186 684.5,-484.186"/>
<text text-anchor="start" x="705.9053" y="-490.286" font-family="Helvetica,sans-Serif" font-size="11.00" fill="#000000">1 &gt;</text>
</a>
</g>
</g>
<!-- interview&#45;&gt;investigation -->
<g id="edge8" class="edge">
<title>interview:w&#45;&gt;investigation:e</title>
<path fill="none" stroke="#000000" d="M855.6164,-291.7349C798.5651,-306.0062 880.6142,-415.4127 829,-474.186 796.3897,-511.3194 773.9198,-512.186 724.5,-512.186"/>
<polygon fill="#000000" stroke="#000000" points="862.046,-291.0425 870.3855,-293.7653 866.023,-290.6143 870,-290.186 870,-290.186 870,-290.186 866.023,-290.6143 869.6145,-286.6067 862.046,-291.0425 862.046,-291.0425"/>
<ellipse fill="none" stroke="#000000" cx="858.8644" cy="-291.3852" rx="3.2" ry="3.2"/>
</g>
<!-- investigation&#45;&gt;referral -->
<g id="edge9" class="edge">
<title>investigation:w&#45;&gt;referral:e</title>
<path fill="none" stroke="#000000" d="M587.002,-512.1811C542.9839,-512.1414 494.8157,-511.8646 459.2432,-511.613"/>
<polygon fill="#000000" stroke="#000000" points="596.7019,-508.1856 596.6981,-516.1856 595.0981,-516.1848 595.1019,-508.1848 596.7019,-508.1856"/>
<polyline fill="none" stroke="#000000" points="597.5,-512.186 593.5,-512.1841 "/>
<ellipse fill="none" stroke="#000000" cx="590.3" cy="-512.1826" rx="3.2" ry="3.2"/>
</g>
<!-- safer_custody_screening_outcome -->
<g id="node8" class="node">
<title>safer_custody_screening_outcome</title>
<g id="a_node8"><a xlink:href="../../tables/safer_custody_screening_outcome.html" xlink:title="safer_custody_screening_outcome" target="_top">
<polygon fill="#ffffff" stroke="transparent" points="526,-92.686 526,-153.686 795,-153.686 795,-92.686 526,-92.686"/>
<polygon fill="#f5f5f5" stroke="transparent" points="526.5,-130.186 526.5,-153.186 795.5,-153.186 795.5,-130.186 526.5,-130.186"/>
<polygon fill="none" stroke="#000000" points="526.5,-130.186 526.5,-153.186 795.5,-153.186 795.5,-130.186 526.5,-130.186"/>
<text text-anchor="start" x="531.5" y="-138.786" font-family="Helvetica,sans-Serif" font-weight="bold" font-size="11.00" fill="#000000">safer_custody_screening_outcome</text>
<text text-anchor="start" x="761.0219" y="-138.286" font-family="Helvetica,sans-Serif" font-size="11.00" fill="#000000">[table]</text>
<polygon fill="none" stroke="#000000" points="526.5,-111.186 526.5,-130.186 795.5,-130.186 795.5,-111.186 526.5,-111.186"/>
<text text-anchor="start" x="529.5" y="-117.286" font-family="Helvetica,sans-Serif" font-size="11.00" fill="#000000">...</text>
<polygon fill="#ffffff" stroke="transparent" points="526.5,-92.186 526.5,-111.186 659.5,-111.186 659.5,-92.186 526.5,-92.186"/>
<polygon fill="none" stroke="#000000" points="526.5,-92.186 526.5,-111.186 659.5,-111.186 659.5,-92.186 526.5,-92.186"/>
<text text-anchor="start" x="529.5" y="-98.286" font-family="Helvetica,sans-Serif" font-size="11.00" fill="#000000">&lt; 2</text>
<polygon fill="#ffffff" stroke="transparent" points="659.5,-92.186 659.5,-111.186 727.5,-111.186 727.5,-92.186 659.5,-92.186"/>
<polygon fill="none" stroke="#000000" points="659.5,-92.186 659.5,-111.186 727.5,-111.186 727.5,-92.186 659.5,-92.186"/>
<text text-anchor="start" x="718.3862" y="-98.286" font-family="Helvetica,sans-Serif" font-size="11.00" fill="#000000"> &#160;</text>
<polygon fill="#ffffff" stroke="transparent" points="727.5,-92.186 727.5,-111.186 795.5,-111.186 795.5,-92.186 727.5,-92.186"/>
<polygon fill="none" stroke="#000000" points="727.5,-92.186 727.5,-111.186 795.5,-111.186 795.5,-92.186 727.5,-92.186"/>
<text text-anchor="start" x="786.3862" y="-98.286" font-family="Helvetica,sans-Serif" font-size="11.00" fill="#000000"> &#160;</text>
</a>
</g>
</g>
<!-- safer_custody_screening_outcome&#45;&gt;reference_data -->
<g id="edge15" class="edge">
<title>safer_custody_screening_outcome:w&#45;&gt;reference_data:e</title>
<path fill="none" stroke="#000000" d="M511.8973,-120.5744C314.2387,-131.07 154.5868,-351.4471 99.0761,-438.3729"/>
<polygon fill="#000000" stroke="#000000" points="518.5028,-120.3987 526.5958,-123.7847 522.5014,-120.2924 526.5,-120.186 526.5,-120.186 526.5,-120.186 522.5014,-120.2924 526.4042,-116.5872 518.5028,-120.3987 518.5028,-120.3987"/>
<ellipse fill="none" stroke="#000000" cx="515.304" cy="-120.4839" rx="3.2" ry="3.2"/>
</g>
<!-- safer_custody_screening_outcome&#45;&gt;referral -->
<g id="edge16" class="edge">
<title>safer_custody_screening_outcome:w&#45;&gt;referral:e</title>
<path fill="none" stroke="#000000" d="M516.2076,-121.8428C501.7323,-127.3133 501.1095,-145.5167 492,-164.186 439.8791,-271.004 417.6126,-412.1845 409.701,-476.5453"/>
<polygon fill="#000000" stroke="#000000" points="525.0744,-116.364 526.3459,-124.2623 524.7663,-124.5166 523.4948,-116.6183 525.0744,-116.364"/>
<polyline fill="none" stroke="#000000" points="526.5,-120.186 522.5508,-120.8217 "/>
<ellipse fill="none" stroke="#000000" cx="519.3915" cy="-121.3303" rx="3.2" ry="3.2"/>
</g>
</g>
</svg>
