<?xml version="1.0" encoding="UTF-8" standalone="no"?>
<!DOCTYPE svg PUBLIC "-//W3C//DTD SVG 1.1//EN"
 "http://www.w3.org/Graphics/SVG/1.1/DTD/svg11.dtd">
<!-- Generated by graphviz version 2.40.1 (20161225.0304)
 -->
<!-- Title: oneDegreeRelationshipsDiagram Pages: 1 -->
<svg width="853pt" height="476pt"
 viewBox="0.00 0.00 853.00 475.70" xmlns="http://www.w3.org/2000/svg" xmlns:xlink="http://www.w3.org/1999/xlink">
<g id="graph0" class="graph" transform="scale(1 1) rotate(0) translate(4 471.7)">
<title>oneDegreeRelationshipsDiagram</title>
<polygon fill="#ffffff" stroke="transparent" points="-4,4 -4,-471.7 849,-471.7 849,4 -4,4"/>
<text text-anchor="middle" x="72.4936" y="-7.3" font-family="Helvetica,sans-Serif" font-size="11.00" fill="#000000">Generated by SchemaSpy</text>
<!-- decision_and_actions -->
<g id="node1" class="node">
<title>decision_and_actions</title>
<g id="a_node1"><a xlink:href="../../tables/decision_and_actions.html" xlink:title="decision_and_actions" target="_top">
<polygon fill="#ffffff" stroke="transparent" points="516,-38.2 516,-326.2 837,-326.2 837,-38.2 516,-38.2"/>
<polygon fill="#f5f5f5" stroke="transparent" points="518.5,-301.2 518.5,-324.2 835.5,-324.2 835.5,-301.2 518.5,-301.2"/>
<polygon fill="none" stroke="#000000" points="518.5,-301.2 518.5,-324.2 835.5,-324.2 835.5,-301.2 518.5,-301.2"/>
<text text-anchor="start" x="523.5" y="-309.8" font-family="Helvetica,sans-Serif" font-weight="bold" font-size="11.00" fill="#000000">decision_and_actions</text>
<text text-anchor="start" x="800.5437" y="-309.3" font-family="Helvetica,sans-Serif" font-size="11.00" fill="#000000">[table]</text>
<polygon fill="none" stroke="#000000" points="518.5,-279.2 518.5,-301.2 719.5,-301.2 719.5,-279.2 518.5,-279.2"/>
<image xlink:href="../../images/primaryKeys.png" width="11px" height="12px" preserveAspectRatio="xMinYMin meet" x="523.5" y="-296.2"/>
<text text-anchor="start" x="538.5" y="-286.3" font-family="Helvetica,sans-Serif" font-size="11.00" fill="#000000">decision_and_actions_id</text>
<polygon fill="none" stroke="#000000" points="719.5,-279.2 719.5,-301.2 835.5,-301.2 835.5,-279.2 719.5,-279.2"/>
<text text-anchor="start" x="722.5" y="-286.9" font-family="Helvetica,sans-Serif" font-size="11.00" fill="#000000">uuid[2147483647]</text>
<polygon fill="none" stroke="#000000" points="518.5,-257.2 518.5,-279.2 719.5,-279.2 719.5,-257.2 518.5,-257.2"/>
<text text-anchor="start" x="538.5" y="-264.3" font-family="Helvetica,sans-Serif" font-size="11.00" fill="#000000">conclusion</text>
<polygon fill="none" stroke="#000000" points="719.5,-257.2 719.5,-279.2 835.5,-279.2 835.5,-257.2 719.5,-257.2"/>
<text text-anchor="start" x="722.5" y="-264.9" font-family="Helvetica,sans-Serif" font-size="11.00" fill="#000000">text[2147483647]</text>
<polygon fill="#ffffff" stroke="transparent" points="518.5,-235.2 518.5,-257.2 719.5,-257.2 719.5,-235.2 518.5,-235.2"/>
<polygon fill="none" stroke="#000000" points="518.5,-235.2 518.5,-257.2 719.5,-257.2 719.5,-235.2 518.5,-235.2"/>
<image xlink:href="../../images/foreignKeys.png" width="11px" height="12px" preserveAspectRatio="xMinYMin meet" x="523.5" y="-252.2"/>
<text text-anchor="start" x="538.5" y="-242.3" font-family="Helvetica,sans-Serif" font-size="11.00" fill="#000000">outcome_id</text>
<polygon fill="none" stroke="#000000" points="719.5,-235.2 719.5,-257.2 835.5,-257.2 835.5,-235.2 719.5,-235.2"/>
<text text-anchor="start" x="722.5" y="-242.9" font-family="Helvetica,sans-Serif" font-size="11.00" fill="#000000">int4[10]</text>
<polygon fill="#ffffff" stroke="transparent" points="518.5,-213.2 518.5,-235.2 719.5,-235.2 719.5,-213.2 518.5,-213.2"/>
<polygon fill="none" stroke="#000000" points="518.5,-213.2 518.5,-235.2 719.5,-235.2 719.5,-213.2 518.5,-213.2"/>
<image xlink:href="../../images/foreignKeys.png" width="11px" height="12px" preserveAspectRatio="xMinYMin meet" x="523.5" y="-230.2"/>
<text text-anchor="start" x="538.5" y="-220.3" font-family="Helvetica,sans-Serif" font-size="11.00" fill="#000000">signed_off_by_role_id</text>
<polygon fill="none" stroke="#000000" points="719.5,-213.2 719.5,-235.2 835.5,-235.2 835.5,-213.2 719.5,-213.2"/>
<text text-anchor="start" x="722.5" y="-220.9" font-family="Helvetica,sans-Serif" font-size="11.00" fill="#000000">int4[10]</text>
<polygon fill="none" stroke="#000000" points="518.5,-191.2 518.5,-213.2 719.5,-213.2 719.5,-191.2 518.5,-191.2"/>
<text text-anchor="start" x="538.5" y="-198.3" font-family="Helvetica,sans-Serif" font-size="11.00" fill="#000000">recorded_by</text>
<polygon fill="none" stroke="#000000" points="719.5,-191.2 719.5,-213.2 835.5,-213.2 835.5,-191.2 719.5,-191.2"/>
<text text-anchor="start" x="722.5" y="-198.9" font-family="Helvetica,sans-Serif" font-size="11.00" fill="#000000">varchar[100]</text>
<polygon fill="none" stroke="#000000" points="518.5,-169.2 518.5,-191.2 719.5,-191.2 719.5,-169.2 518.5,-169.2"/>
<text text-anchor="start" x="538.5" y="-176.3" font-family="Helvetica,sans-Serif" font-size="11.00" fill="#000000">recorded_by_display_name</text>
<polygon fill="none" stroke="#000000" points="719.5,-169.2 719.5,-191.2 835.5,-191.2 835.5,-169.2 719.5,-169.2"/>
<text text-anchor="start" x="722.5" y="-176.9" font-family="Helvetica,sans-Serif" font-size="11.00" fill="#000000">varchar[255]</text>
<polygon fill="none" stroke="#000000" points="518.5,-147.2 518.5,-169.2 719.5,-169.2 719.5,-147.2 518.5,-147.2"/>
<text text-anchor="start" x="538.5" y="-154.3" font-family="Helvetica,sans-Serif" font-size="11.00" fill="#000000">date</text>
<polygon fill="none" stroke="#000000" points="719.5,-147.2 719.5,-169.2 835.5,-169.2 835.5,-147.2 719.5,-147.2"/>
<text text-anchor="start" x="722.5" y="-154.9" font-family="Helvetica,sans-Serif" font-size="11.00" fill="#000000">date[13]</text>
<polygon fill="none" stroke="#000000" points="518.5,-125.2 518.5,-147.2 719.5,-147.2 719.5,-125.2 518.5,-125.2"/>
<text text-anchor="start" x="538.5" y="-132.3" font-family="Helvetica,sans-Serif" font-size="11.00" fill="#000000">next_steps</text>
<polygon fill="none" stroke="#000000" points="719.5,-125.2 719.5,-147.2 835.5,-147.2 835.5,-125.2 719.5,-125.2"/>
<text text-anchor="start" x="722.5" y="-132.9" font-family="Helvetica,sans-Serif" font-size="11.00" fill="#000000">text[2147483647]</text>
<polygon fill="none" stroke="#000000" points="518.5,-103.2 518.5,-125.2 719.5,-125.2 719.5,-103.2 518.5,-103.2"/>
<text text-anchor="start" x="538.5" y="-110.3" font-family="Helvetica,sans-Serif" font-size="11.00" fill="#000000">actions</text>
<polygon fill="none" stroke="#000000" points="719.5,-103.2 719.5,-125.2 835.5,-125.2 835.5,-103.2 719.5,-103.2"/>
<text text-anchor="start" x="722.4769" y="-110.9" font-family="Helvetica,sans-Serif" font-size="11.00" fill="#000000">_varchar[2147483647]</text>
<polygon fill="none" stroke="#000000" points="518.5,-81.2 518.5,-103.2 719.5,-103.2 719.5,-81.2 518.5,-81.2"/>
<text text-anchor="start" x="538.5" y="-88.3" font-family="Helvetica,sans-Serif" font-size="11.00" fill="#000000">action_other</text>
<polygon fill="none" stroke="#000000" points="719.5,-81.2 719.5,-103.2 835.5,-103.2 835.5,-81.2 719.5,-81.2"/>
<text text-anchor="start" x="722.5" y="-88.9" font-family="Helvetica,sans-Serif" font-size="11.00" fill="#000000">text[2147483647]</text>
<polygon fill="none" stroke="#000000" points="518.5,-59.2 518.5,-81.2 719.5,-81.2 719.5,-59.2 518.5,-59.2"/>
<text text-anchor="start" x="538.5" y="-66.3" font-family="Helvetica,sans-Serif" font-size="11.00" fill="#000000">version</text>
<polygon fill="none" stroke="#000000" points="719.5,-59.2 719.5,-81.2 835.5,-81.2 835.5,-59.2 719.5,-59.2"/>
<text text-anchor="start" x="722.5" y="-66.9" font-family="Helvetica,sans-Serif" font-size="11.00" fill="#000000">int4[10]</text>
<polygon fill="#ffffff" stroke="transparent" points="518.5,-40.2 518.5,-59.2 623.5,-59.2 623.5,-40.2 518.5,-40.2"/>
<polygon fill="none" stroke="#000000" points="518.5,-40.2 518.5,-59.2 623.5,-59.2 623.5,-40.2 518.5,-40.2"/>
<text text-anchor="start" x="521.5" y="-46.3" font-family="Helvetica,sans-Serif" font-size="11.00" fill="#000000">&lt; 3</text>
<polygon fill="#ffffff" stroke="transparent" points="623.5,-40.2 623.5,-59.2 719.5,-59.2 719.5,-40.2 623.5,-40.2"/>
<polygon fill="none" stroke="#000000" points="623.5,-40.2 623.5,-59.2 719.5,-59.2 719.5,-40.2 623.5,-40.2"/>
<text text-anchor="start" x="710.3862" y="-46.3" font-family="Helvetica,sans-Serif" font-size="11.00" fill="#000000"> &#160;</text>
<polygon fill="#ffffff" stroke="transparent" points="719.5,-40.2 719.5,-59.2 835.5,-59.2 835.5,-40.2 719.5,-40.2"/>
<polygon fill="none" stroke="#000000" points="719.5,-40.2 719.5,-59.2 835.5,-59.2 835.5,-40.2 719.5,-40.2"/>
<text text-anchor="start" x="816.9053" y="-46.3" font-family="Helvetica,sans-Serif" font-size="11.00" fill="#000000">0 &gt;</text>
<polygon fill="none" stroke="#000000" stroke-width="2" points="517,-39.2 517,-325.2 836,-325.2 836,-39.2 517,-39.2"/>
</a>
</g>
</g>
<!-- referral -->
<g id="node2" class="node">
<title>referral</title>
<g id="a_node2"><a xlink:href="../../tables/referral.html" xlink:title="referral" target="_top">
<polygon fill="#ffffff" stroke="transparent" points="198,-270.7 198,-463.7 467,-463.7 467,-270.7 198,-270.7"/>
<polygon fill="#f5f5f5" stroke="transparent" points="198.5,-440.2 198.5,-463.2 467.5,-463.2 467.5,-440.2 198.5,-440.2"/>
<polygon fill="none" stroke="#000000" points="198.5,-440.2 198.5,-463.2 467.5,-463.2 467.5,-440.2 198.5,-440.2"/>
<text text-anchor="start" x="203.5" y="-448.8" font-family="Helvetica,sans-Serif" font-weight="bold" font-size="11.00" fill="#000000">referral</text>
<text text-anchor="start" x="432.5437" y="-448.3" font-family="Helvetica,sans-Serif" font-size="11.00" fill="#000000">[table]</text>
<polygon fill="none" stroke="#000000" points="198.5,-418.2 198.5,-440.2 467.5,-440.2 467.5,-418.2 198.5,-418.2"/>
<image xlink:href="../../images/primaryKeys.png" width="11px" height="12px" preserveAspectRatio="xMinYMin meet" x="203.5" y="-435.2"/>
<text text-anchor="start" x="218.5" y="-425.3" font-family="Helvetica,sans-Serif" font-size="11.00" fill="#000000">referral_id</text>
<polygon fill="#ffffff" stroke="transparent" points="198.5,-396.2 198.5,-418.2 467.5,-418.2 467.5,-396.2 198.5,-396.2"/>
<polygon fill="none" stroke="#000000" points="198.5,-396.2 198.5,-418.2 467.5,-418.2 467.5,-396.2 198.5,-396.2"/>
<image xlink:href="../../images/foreignKeys.png" width="11px" height="12px" preserveAspectRatio="xMinYMin meet" x="203.5" y="-413.2"/>
<text text-anchor="start" x="218.5" y="-403.3" font-family="Helvetica,sans-Serif" font-size="11.00" fill="#000000">incident_type_id</text>
<polygon fill="#ffffff" stroke="transparent" points="198.5,-374.2 198.5,-396.2 467.5,-396.2 467.5,-374.2 198.5,-374.2"/>
<polygon fill="none" stroke="#000000" points="198.5,-374.2 198.5,-396.2 467.5,-396.2 467.5,-374.2 198.5,-374.2"/>
<image xlink:href="../../images/foreignKeys.png" width="11px" height="12px" preserveAspectRatio="xMinYMin meet" x="203.5" y="-391.2"/>
<text text-anchor="start" x="218.5" y="-381.3" font-family="Helvetica,sans-Serif" font-size="11.00" fill="#000000">incident_location_id</text>
<polygon fill="#ffffff" stroke="transparent" points="198.5,-352.2 198.5,-374.2 467.5,-374.2 467.5,-352.2 198.5,-352.2"/>
<polygon fill="none" stroke="#000000" points="198.5,-352.2 198.5,-374.2 467.5,-374.2 467.5,-352.2 198.5,-352.2"/>
<image xlink:href="../../images/foreignKeys.png" width="11px" height="12px" preserveAspectRatio="xMinYMin meet" x="203.5" y="-369.2"/>
<text text-anchor="start" x="218.5" y="-359.3" font-family="Helvetica,sans-Serif" font-size="11.00" fill="#000000">referer_area_of_work_id</text>
<polygon fill="#ffffff" stroke="transparent" points="198.5,-330.2 198.5,-352.2 467.5,-352.2 467.5,-330.2 198.5,-330.2"/>
<polygon fill="none" stroke="#000000" points="198.5,-330.2 198.5,-352.2 467.5,-352.2 467.5,-330.2 198.5,-330.2"/>
<text text-anchor="start" x="218.5" y="-337.3" font-family="Helvetica,sans-Serif" font-size="11.00" fill="#000000">referral_date</text>
<polygon fill="#ffffff" stroke="transparent" points="198.5,-308.2 198.5,-330.2 467.5,-330.2 467.5,-308.2 198.5,-308.2"/>
<polygon fill="none" stroke="#000000" points="198.5,-308.2 198.5,-330.2 467.5,-330.2 467.5,-308.2 198.5,-308.2"/>
<image xlink:href="../../images/foreignKeys.png" width="11px" height="12px" preserveAspectRatio="xMinYMin meet" x="203.5" y="-325.2"/>
<text text-anchor="start" x="218.5" y="-315.3" font-family="Helvetica,sans-Serif" font-size="11.00" fill="#000000">incident_involvement_id</text>
<polygon fill="none" stroke="#000000" points="198.5,-289.2 198.5,-308.2 467.5,-308.2 467.5,-289.2 198.5,-289.2"/>
<text text-anchor="start" x="201.5" y="-295.3" font-family="Helvetica,sans-Serif" font-size="11.00" fill="#000000">...</text>
<polygon fill="#ffffff" stroke="transparent" points="198.5,-270.2 198.5,-289.2 326.5,-289.2 326.5,-270.2 198.5,-270.2"/>
<polygon fill="none" stroke="#000000" points="198.5,-270.2 198.5,-289.2 326.5,-289.2 326.5,-270.2 198.5,-270.2"/>
<text text-anchor="start" x="201.5" y="-276.3" font-family="Helvetica,sans-Serif" font-size="11.00" fill="#000000">&lt; 5</text>
<polygon fill="#ffffff" stroke="transparent" points="326.5,-270.2 326.5,-289.2 392.5,-289.2 392.5,-270.2 326.5,-270.2"/>
<polygon fill="none" stroke="#000000" points="326.5,-270.2 326.5,-289.2 392.5,-289.2 392.5,-270.2 326.5,-270.2"/>
<text text-anchor="start" x="383.3862" y="-276.3" font-family="Helvetica,sans-Serif" font-size="11.00" fill="#000000"> &#160;</text>
<polygon fill="#ffffff" stroke="transparent" points="392.5,-270.2 392.5,-289.2 467.5,-289.2 467.5,-270.2 392.5,-270.2"/>
<polygon fill="none" stroke="#000000" points="392.5,-270.2 392.5,-289.2 467.5,-289.2 467.5,-270.2 392.5,-270.2"/>
<text text-anchor="start" x="448.9053" y="-276.3" font-family="Helvetica,sans-Serif" font-size="11.00" fill="#000000">4 &gt;</text>
</a>
</g>
</g>
<!-- decision_and_actions&#45;&gt;referral -->
<g id="edge1" class="edge">
<title>decision_and_actions:w&#45;&gt;referral:e</title>
<path fill="none" stroke="#000000" d="M508.0924,-291.667C461.9198,-306.5225 529.3205,-429.2 467.5,-429.2"/>
<polygon fill="#000000" stroke="#000000" points="517.1495,-286.3508 518.2662,-294.2725 516.6818,-294.4958 515.5652,-286.5741 517.1495,-286.3508"/>
<polyline fill="none" stroke="#000000" points="518.5,-290.2 514.5392,-290.7583 "/>
<ellipse fill="none" stroke="#000000" cx="511.3705" cy="-291.205" rx="3.2" ry="3.2"/>
</g>
<!-- reference_data -->
<g id="node3" class="node">
<title>reference_data</title>
<g id="a_node3"><a xlink:href="../../tables/reference_data.html" xlink:title="reference_data" target="_top">
<polygon fill="#ffffff" stroke="transparent" points="8,-226.7 8,-375.7 149,-375.7 149,-226.7 8,-226.7"/>
<polygon fill="#f5f5f5" stroke="transparent" points="8.5,-352.2 8.5,-375.2 149.5,-375.2 149.5,-352.2 8.5,-352.2"/>
<polygon fill="none" stroke="#000000" points="8.5,-352.2 8.5,-375.2 149.5,-375.2 149.5,-352.2 8.5,-352.2"/>
<text text-anchor="start" x="13.5" y="-360.8" font-family="Helvetica,sans-Serif" font-weight="bold" font-size="11.00" fill="#000000">reference_data</text>
<text text-anchor="start" x="115.0219" y="-360.3" font-family="Helvetica,sans-Serif" font-size="11.00" fill="#000000">[table]</text>
<polygon fill="none" stroke="#000000" points="8.5,-330.2 8.5,-352.2 149.5,-352.2 149.5,-330.2 8.5,-330.2"/>
<image xlink:href="../../images/primaryKeys.png" width="11px" height="12px" preserveAspectRatio="xMinYMin meet" x="13.5" y="-347.2"/>
<text text-anchor="start" x="28.5" y="-337.3" font-family="Helvetica,sans-Serif" font-size="11.00" fill="#000000">reference_data_id</text>
<polygon fill="#ffffff" stroke="transparent" points="8.5,-308.2 8.5,-330.2 149.5,-330.2 149.5,-308.2 8.5,-308.2"/>
<polygon fill="none" stroke="#000000" points="8.5,-308.2 8.5,-330.2 149.5,-330.2 149.5,-308.2 8.5,-308.2"/>
<text text-anchor="start" x="28.5" y="-315.3" font-family="Helvetica,sans-Serif" font-size="11.00" fill="#000000">domain</text>
<polygon fill="#ffffff" stroke="transparent" points="8.5,-286.2 8.5,-308.2 149.5,-308.2 149.5,-286.2 8.5,-286.2"/>
<polygon fill="none" stroke="#000000" points="8.5,-286.2 8.5,-308.2 149.5,-308.2 149.5,-286.2 8.5,-286.2"/>
<text text-anchor="start" x="28.5" y="-293.3" font-family="Helvetica,sans-Serif" font-size="11.00" fill="#000000">code</text>
<polygon fill="#ffffff" stroke="transparent" points="8.5,-264.2 8.5,-286.2 149.5,-286.2 149.5,-264.2 8.5,-264.2"/>
<polygon fill="none" stroke="#000000" points="8.5,-264.2 8.5,-286.2 149.5,-286.2 149.5,-264.2 8.5,-264.2"/>
<text text-anchor="start" x="28.5" y="-271.3" font-family="Helvetica,sans-Serif" font-size="11.00" fill="#000000">list_sequence</text>
<polygon fill="none" stroke="#000000" points="8.5,-245.2 8.5,-264.2 149.5,-264.2 149.5,-245.2 8.5,-245.2"/>
<text text-anchor="start" x="11.5" y="-251.3" font-family="Helvetica,sans-Serif" font-size="11.00" fill="#000000">...</text>
<polygon fill="#ffffff" stroke="transparent" points="8.5,-226.2 8.5,-245.2 46.5,-245.2 46.5,-226.2 8.5,-226.2"/>
<polygon fill="none" stroke="#000000" points="8.5,-226.2 8.5,-245.2 46.5,-245.2 46.5,-226.2 8.5,-226.2"/>
<text text-anchor="start" x="11.5" y="-232.3" font-family="Helvetica,sans-Serif" font-size="11.00" fill="#000000"> &#160;</text>
<polygon fill="#ffffff" stroke="transparent" points="46.5,-226.2 46.5,-245.2 109.5,-245.2 109.5,-226.2 46.5,-226.2"/>
<polygon fill="none" stroke="#000000" points="46.5,-226.2 46.5,-245.2 109.5,-245.2 109.5,-226.2 46.5,-226.2"/>
<text text-anchor="start" x="61.8807" y="-232.3" font-family="Helvetica,sans-Serif" font-size="11.00" fill="#000000">112 rows</text>
<polygon fill="#ffffff" stroke="transparent" points="109.5,-226.2 109.5,-245.2 149.5,-245.2 149.5,-226.2 109.5,-226.2"/>
<polygon fill="none" stroke="#000000" points="109.5,-226.2 109.5,-245.2 149.5,-245.2 149.5,-226.2 109.5,-226.2"/>
<text text-anchor="start" x="124.7904" y="-232.3" font-family="Helvetica,sans-Serif" font-size="11.00" fill="#000000">10 &gt;</text>
</a>
</g>
</g>
<!-- decision_and_actions&#45;&gt;reference_data -->
<g id="edge2" class="edge">
<title>decision_and_actions:w&#45;&gt;reference_data:e</title>
<path fill="none" stroke="#000000" d="M503.9533,-245.9373C422.4148,-243.3245 247.609,-222.8774 190,-260.2 156.2203,-282.0846 189.7492,-341.2 149.5,-341.2"/>
<polygon fill="#000000" stroke="#000000" points="510.5013,-246.0555 518.435,-249.7994 514.5007,-246.1277 518.5,-246.2 518.5,-246.2 518.5,-246.2 514.5007,-246.1277 518.565,-242.6006 510.5013,-246.0555 510.5013,-246.0555"/>
<ellipse fill="none" stroke="#000000" cx="507.3018" cy="-245.9977" rx="3.2" ry="3.2"/>
</g>
<!-- decision_and_actions&#45;&gt;reference_data -->
<g id="edge3" class="edge">
<title>decision_and_actions:w&#45;&gt;reference_data:e</title>
<path fill="none" stroke="#000000" d="M503.8061,-223.9471C368.0251,-219.2709 304.843,-152.2655 190,-234.2 148.6068,-263.7319 200.3481,-341.2 149.5,-341.2"/>
<polygon fill="#000000" stroke="#000000" points="510.5012,-224.0623 518.438,-227.7995 514.5006,-224.1311 518.5,-224.2 518.5,-224.2 518.5,-224.2 514.5006,-224.1311 518.562,-220.6005 510.5012,-224.0623 510.5012,-224.0623"/>
<ellipse fill="none" stroke="#000000" cx="507.3017" cy="-224.0072" rx="3.2" ry="3.2"/>
</g>
<!-- referral&#45;&gt;reference_data -->
<g id="edge4" class="edge">
<title>referral:w&#45;&gt;reference_data:e</title>
<path fill="none" stroke="#000000" d="M184.1297,-322.6375C172.5865,-328.825 167.4041,-341.2 149.5,-341.2"/>
<polygon fill="#000000" stroke="#000000" points="190.7195,-321.0612 199.3375,-322.7012 194.6098,-320.1306 198.5,-319.2 198.5,-319.2 198.5,-319.2 194.6098,-320.1306 197.6625,-315.6988 190.7195,-321.0612 190.7195,-321.0612"/>
<ellipse fill="none" stroke="#000000" cx="187.6073" cy="-321.8057" rx="3.2" ry="3.2"/>
</g>
<!-- referral&#45;&gt;reference_data -->
<g id="edge5" class="edge">
<title>referral:w&#45;&gt;reference_data:e</title>
<path fill="none" stroke="#000000" d="M184.8171,-380.4912C171.5046,-369.1404 172.824,-341.2 149.5,-341.2"/>
<polygon fill="#000000" stroke="#000000" points="190.9354,-382.5967 197.3285,-388.6041 194.7177,-383.8984 198.5,-385.2 198.5,-385.2 198.5,-385.2 194.7177,-383.8984 199.6715,-381.7959 190.9354,-382.5967 190.9354,-382.5967"/>
<ellipse fill="none" stroke="#000000" cx="187.9096" cy="-381.5554" rx="3.2" ry="3.2"/>
</g>
<!-- referral&#45;&gt;reference_data -->
<g id="edge6" class="edge">
<title>referral:w&#45;&gt;reference_data:e</title>
<path fill="none" stroke="#000000" d="M184.8768,-402.4534C168.2322,-387.3202 180.0399,-341.2 149.5,-341.2"/>
<polygon fill="#000000" stroke="#000000" points="190.9454,-404.5678 197.3155,-410.5996 194.7227,-405.8839 198.5,-407.2 198.5,-407.2 198.5,-407.2 194.7227,-405.8839 199.6845,-403.8004 190.9454,-404.5678 190.9454,-404.5678"/>
<ellipse fill="none" stroke="#000000" cx="187.9236" cy="-403.5149" rx="3.2" ry="3.2"/>
</g>
<!-- referral&#45;&gt;reference_data -->
<g id="edge7" class="edge">
<title>referral:w&#45;&gt;reference_data:e</title>
<path fill="none" stroke="#000000" d="M184.1297,-359.7625C172.5865,-353.575 167.4041,-341.2 149.5,-341.2"/>
<polygon fill="#000000" stroke="#000000" points="190.7195,-361.3388 197.6625,-366.7012 194.6098,-362.2694 198.5,-363.2 198.5,-363.2 198.5,-363.2 194.6098,-362.2694 199.3375,-359.6988 190.7195,-361.3388 190.7195,-361.3388"/>
<ellipse fill="none" stroke="#000000" cx="187.6073" cy="-360.5943" rx="3.2" ry="3.2"/>
</g>
</g>
</svg>
