<?xml version="1.0" encoding="UTF-8" standalone="no"?>
<!DOCTYPE svg PUBLIC "-//W3C//DTD SVG 1.1//EN"
 "http://www.w3.org/Graphics/SVG/1.1/DTD/svg11.dtd">
<!-- Generated by graphviz version 2.40.1 (20161225.0304)
 -->
<!-- Title: twoDegreesRelationshipsDiagram Pages: 1 -->
<svg width="626pt" height="1379pt"
 viewBox="0.00 0.00 626.00 1379.20" xmlns="http://www.w3.org/2000/svg" xmlns:xlink="http://www.w3.org/1999/xlink">
<g id="graph0" class="graph" transform="scale(1 1) rotate(0) translate(4 1375.2)">
<title>twoDegreesRelationshipsDiagram</title>
<polygon fill="#ffffff" stroke="transparent" points="-4,4 -4,-1375.2 622,-1375.2 622,4 -4,4"/>
<text text-anchor="middle" x="72.4936" y="-7.3" font-family="Helvetica,sans-Serif" font-size="11.00" fill="#000000">Generated by SchemaSpy</text>
<!-- attendee_audit -->
<g id="node1" class="node">
<title>attendee_audit</title>
<g id="a_node1"><a xlink:href="../../tables/attendee_audit.html" xlink:title="attendee_audit" target="_top">
<polygon fill="#ffffff" stroke="transparent" points="346,-1306.2 346,-1367.2 487,-1367.2 487,-1306.2 346,-1306.2"/>
<polygon fill="#f5f5f5" stroke="transparent" points="346.5,-1343.7 346.5,-1366.7 487.5,-1366.7 487.5,-1343.7 346.5,-1343.7"/>
<polygon fill="none" stroke="#000000" points="346.5,-1343.7 346.5,-1366.7 487.5,-1366.7 487.5,-1343.7 346.5,-1343.7"/>
<text text-anchor="start" x="351.5" y="-1352.3" font-family="Helvetica,sans-Serif" font-weight="bold" font-size="11.00" fill="#000000">attendee_audit</text>
<text text-anchor="start" x="453.0219" y="-1351.8" font-family="Helvetica,sans-Serif" font-size="11.00" fill="#000000">[table]</text>
<polygon fill="none" stroke="#000000" points="346.5,-1324.7 346.5,-1343.7 487.5,-1343.7 487.5,-1324.7 346.5,-1324.7"/>
<text text-anchor="start" x="349.5" y="-1330.8" font-family="Helvetica,sans-Serif" font-size="11.00" fill="#000000">...</text>
<polygon fill="#ffffff" stroke="transparent" points="346.5,-1305.7 346.5,-1324.7 415.5,-1324.7 415.5,-1305.7 346.5,-1305.7"/>
<polygon fill="none" stroke="#000000" points="346.5,-1305.7 346.5,-1324.7 415.5,-1324.7 415.5,-1305.7 346.5,-1305.7"/>
<text text-anchor="start" x="349.5" y="-1311.8" font-family="Helvetica,sans-Serif" font-size="11.00" fill="#000000">&lt; 1</text>
<polygon fill="#ffffff" stroke="transparent" points="415.5,-1305.7 415.5,-1324.7 451.5,-1324.7 451.5,-1305.7 415.5,-1305.7"/>
<polygon fill="none" stroke="#000000" points="415.5,-1305.7 415.5,-1324.7 451.5,-1324.7 451.5,-1305.7 415.5,-1305.7"/>
<text text-anchor="start" x="442.3862" y="-1311.8" font-family="Helvetica,sans-Serif" font-size="11.00" fill="#000000"> &#160;</text>
<polygon fill="#ffffff" stroke="transparent" points="451.5,-1305.7 451.5,-1324.7 487.5,-1324.7 487.5,-1305.7 451.5,-1305.7"/>
<polygon fill="none" stroke="#000000" points="451.5,-1305.7 451.5,-1324.7 487.5,-1324.7 487.5,-1305.7 451.5,-1305.7"/>
<text text-anchor="start" x="478.3862" y="-1311.8" font-family="Helvetica,sans-Serif" font-size="11.00" fill="#000000"> &#160;</text>
</a>
</g>
</g>
<!-- audit_revision -->
<g id="node2" class="node">
<title>audit_revision</title>
<g id="a_node2"><a xlink:href="../../tables/audit_revision.html" xlink:title="audit_revision" target="_top">
<polygon fill="#ffffff" stroke="transparent" points="8,-427.2 8,-510.2 174,-510.2 174,-427.2 8,-427.2"/>
<polygon fill="#f5f5f5" stroke="transparent" points="8,-486.7 8,-509.7 174,-509.7 174,-486.7 8,-486.7"/>
<polygon fill="none" stroke="#000000" points="8,-486.7 8,-509.7 174,-509.7 174,-486.7 8,-486.7"/>
<text text-anchor="start" x="13" y="-495.3" font-family="Helvetica,sans-Serif" font-weight="bold" font-size="11.00" fill="#000000">audit_revision</text>
<text text-anchor="start" x="139.0437" y="-494.8" font-family="Helvetica,sans-Serif" font-size="11.00" fill="#000000">[table]</text>
<polygon fill="none" stroke="#000000" points="8,-464.7 8,-486.7 174,-486.7 174,-464.7 8,-464.7"/>
<image xlink:href="../../images/primaryKeys.png" width="11px" height="12px" preserveAspectRatio="xMinYMin meet" x="13" y="-481.7"/>
<text text-anchor="start" x="28" y="-471.8" font-family="Helvetica,sans-Serif" font-size="11.00" fill="#000000">id</text>
<polygon fill="none" stroke="#000000" points="8,-445.7 8,-464.7 174,-464.7 174,-445.7 8,-445.7"/>
<text text-anchor="start" x="11" y="-451.8" font-family="Helvetica,sans-Serif" font-size="11.00" fill="#000000">...</text>
<polygon fill="#ffffff" stroke="transparent" points="8,-426.7 8,-445.7 77,-445.7 77,-426.7 8,-426.7"/>
<polygon fill="none" stroke="#000000" points="8,-426.7 8,-445.7 77,-445.7 77,-426.7 8,-426.7"/>
<text text-anchor="start" x="11" y="-432.8" font-family="Helvetica,sans-Serif" font-size="11.00" fill="#000000"> &#160;</text>
<polygon fill="#ffffff" stroke="transparent" points="77,-426.7 77,-445.7 118,-445.7 118,-426.7 77,-426.7"/>
<polygon fill="none" stroke="#000000" points="77,-426.7 77,-445.7 118,-445.7 118,-426.7 77,-426.7"/>
<text text-anchor="start" x="108.8862" y="-432.8" font-family="Helvetica,sans-Serif" font-size="11.00" fill="#000000"> &#160;</text>
<polygon fill="#ffffff" stroke="transparent" points="118,-426.7 118,-445.7 174,-445.7 174,-426.7 118,-426.7"/>
<polygon fill="none" stroke="#000000" points="118,-426.7 118,-445.7 174,-445.7 174,-426.7 118,-426.7"/>
<text text-anchor="start" x="149.2904" y="-432.8" font-family="Helvetica,sans-Serif" font-size="11.00" fill="#000000">11 &gt;</text>
</a>
</g>
</g>
<!-- attendee_audit&#45;&gt;audit_revision -->
<g id="edge1" class="edge">
<title>attendee_audit:w&#45;&gt;audit_revision:e</title>
<path fill="none" stroke="#000000" d="M332.0746,-1333.8587C280.234,-1334.9044 249.667,-1339.4824 215,-1295.7 158.3705,-1224.1802 265.2249,-475.7 174,-475.7"/>
<polygon fill="#000000" stroke="#000000" points="338.5005,-1333.7881 346.5396,-1337.2998 342.5002,-1333.744 346.5,-1333.7 346.5,-1333.7 346.5,-1333.7 342.5002,-1333.744 346.4604,-1330.1002 338.5005,-1333.7881 338.5005,-1333.7881"/>
<ellipse fill="none" stroke="#000000" cx="335.3007" cy="-1333.8233" rx="3.2" ry="3.2"/>
</g>
<!-- contributory_factor_audit -->
<g id="node3" class="node">
<title>contributory_factor_audit</title>
<g id="a_node3"><a xlink:href="../../tables/contributory_factor_audit.html" xlink:title="contributory_factor_audit" target="_top">
<polygon fill="#ffffff" stroke="transparent" points="311.5,-1224.2 311.5,-1285.2 521.5,-1285.2 521.5,-1224.2 311.5,-1224.2"/>
<polygon fill="#f5f5f5" stroke="transparent" points="311.5,-1261.7 311.5,-1284.7 521.5,-1284.7 521.5,-1261.7 311.5,-1261.7"/>
<polygon fill="none" stroke="#000000" points="311.5,-1261.7 311.5,-1284.7 521.5,-1284.7 521.5,-1261.7 311.5,-1261.7"/>
<text text-anchor="start" x="316.5" y="-1270.3" font-family="Helvetica,sans-Serif" font-weight="bold" font-size="11.00" fill="#000000">contributory_factor_audit</text>
<text text-anchor="start" x="487.0219" y="-1269.8" font-family="Helvetica,sans-Serif" font-size="11.00" fill="#000000">[table]</text>
<polygon fill="none" stroke="#000000" points="311.5,-1242.7 311.5,-1261.7 521.5,-1261.7 521.5,-1242.7 311.5,-1242.7"/>
<text text-anchor="start" x="314.5" y="-1248.8" font-family="Helvetica,sans-Serif" font-size="11.00" fill="#000000">...</text>
<polygon fill="#ffffff" stroke="transparent" points="311.5,-1223.7 311.5,-1242.7 414.5,-1242.7 414.5,-1223.7 311.5,-1223.7"/>
<polygon fill="none" stroke="#000000" points="311.5,-1223.7 311.5,-1242.7 414.5,-1242.7 414.5,-1223.7 311.5,-1223.7"/>
<text text-anchor="start" x="314.5" y="-1229.8" font-family="Helvetica,sans-Serif" font-size="11.00" fill="#000000">&lt; 1</text>
<polygon fill="#ffffff" stroke="transparent" points="414.5,-1223.7 414.5,-1242.7 467.5,-1242.7 467.5,-1223.7 414.5,-1223.7"/>
<polygon fill="none" stroke="#000000" points="414.5,-1223.7 414.5,-1242.7 467.5,-1242.7 467.5,-1223.7 414.5,-1223.7"/>
<text text-anchor="start" x="458.3862" y="-1229.8" font-family="Helvetica,sans-Serif" font-size="11.00" fill="#000000"> &#160;</text>
<polygon fill="#ffffff" stroke="transparent" points="467.5,-1223.7 467.5,-1242.7 521.5,-1242.7 521.5,-1223.7 467.5,-1223.7"/>
<polygon fill="none" stroke="#000000" points="467.5,-1223.7 467.5,-1242.7 521.5,-1242.7 521.5,-1223.7 467.5,-1223.7"/>
<text text-anchor="start" x="512.3862" y="-1229.8" font-family="Helvetica,sans-Serif" font-size="11.00" fill="#000000"> &#160;</text>
</a>
</g>
</g>
<!-- contributory_factor_audit&#45;&gt;audit_revision -->
<g id="edge2" class="edge">
<title>contributory_factor_audit:w&#45;&gt;audit_revision:e</title>
<path fill="none" stroke="#000000" d="M296.6701,-1251.6231C260.0549,-1251.0848 238.9338,-1246.8324 215,-1213.7 166.9094,-1147.1264 256.1264,-475.7 174,-475.7"/>
<polygon fill="#000000" stroke="#000000" points="303.5001,-1251.6585 311.4813,-1255.3 307.5001,-1251.6792 311.5,-1251.7 311.5,-1251.7 311.5,-1251.7 307.5001,-1251.6792 311.5187,-1248.1 303.5001,-1251.6585 303.5001,-1251.6585"/>
<ellipse fill="none" stroke="#000000" cx="300.3002" cy="-1251.6418" rx="3.2" ry="3.2"/>
</g>
<!-- csip_record_audit -->
<g id="node4" class="node">
<title>csip_record_audit</title>
<g id="a_node4"><a xlink:href="../../tables/csip_record_audit.html" xlink:title="csip_record_audit" target="_top">
<polygon fill="#ffffff" stroke="transparent" points="338.5,-1142.2 338.5,-1203.2 494.5,-1203.2 494.5,-1142.2 338.5,-1142.2"/>
<polygon fill="#f5f5f5" stroke="transparent" points="338.5,-1179.7 338.5,-1202.7 494.5,-1202.7 494.5,-1179.7 338.5,-1179.7"/>
<polygon fill="none" stroke="#000000" points="338.5,-1179.7 338.5,-1202.7 494.5,-1202.7 494.5,-1179.7 338.5,-1179.7"/>
<text text-anchor="start" x="343.5" y="-1188.3" font-family="Helvetica,sans-Serif" font-weight="bold" font-size="11.00" fill="#000000">csip_record_audit</text>
<text text-anchor="start" x="460.0219" y="-1187.8" font-family="Helvetica,sans-Serif" font-size="11.00" fill="#000000">[table]</text>
<polygon fill="none" stroke="#000000" points="338.5,-1160.7 338.5,-1179.7 494.5,-1179.7 494.5,-1160.7 338.5,-1160.7"/>
<text text-anchor="start" x="341.5" y="-1166.8" font-family="Helvetica,sans-Serif" font-size="11.00" fill="#000000">...</text>
<polygon fill="#ffffff" stroke="transparent" points="338.5,-1141.7 338.5,-1160.7 414.5,-1160.7 414.5,-1141.7 338.5,-1141.7"/>
<polygon fill="none" stroke="#000000" points="338.5,-1141.7 338.5,-1160.7 414.5,-1160.7 414.5,-1141.7 338.5,-1141.7"/>
<text text-anchor="start" x="341.5" y="-1147.8" font-family="Helvetica,sans-Serif" font-size="11.00" fill="#000000">&lt; 1</text>
<polygon fill="#ffffff" stroke="transparent" points="414.5,-1141.7 414.5,-1160.7 454.5,-1160.7 454.5,-1141.7 414.5,-1141.7"/>
<polygon fill="none" stroke="#000000" points="414.5,-1141.7 414.5,-1160.7 454.5,-1160.7 454.5,-1141.7 414.5,-1141.7"/>
<text text-anchor="start" x="445.3862" y="-1147.8" font-family="Helvetica,sans-Serif" font-size="11.00" fill="#000000"> &#160;</text>
<polygon fill="#ffffff" stroke="transparent" points="454.5,-1141.7 454.5,-1160.7 494.5,-1160.7 494.5,-1141.7 454.5,-1141.7"/>
<polygon fill="none" stroke="#000000" points="454.5,-1141.7 454.5,-1160.7 494.5,-1160.7 494.5,-1141.7 454.5,-1141.7"/>
<text text-anchor="start" x="485.3862" y="-1147.8" font-family="Helvetica,sans-Serif" font-size="11.00" fill="#000000"> &#160;</text>
</a>
</g>
</g>
<!-- csip_record_audit&#45;&gt;audit_revision -->
<g id="edge3" class="edge">
<title>csip_record_audit:w&#45;&gt;audit_revision:e</title>
<path fill="none" stroke="#000000" d="M323.9595,-1169.8244C275.6665,-1170.5461 247.4193,-1172.8432 215,-1131.7 169.8001,-1074.337 247.0311,-475.7 174,-475.7"/>
<polygon fill="#000000" stroke="#000000" points="330.5003,-1169.7685 338.5308,-1173.2999 334.5001,-1169.7343 338.5,-1169.7 338.5,-1169.7 338.5,-1169.7 334.5001,-1169.7343 338.4692,-1166.1001 330.5003,-1169.7685 330.5003,-1169.7685"/>
<ellipse fill="none" stroke="#000000" cx="327.3004" cy="-1169.7959" rx="3.2" ry="3.2"/>
</g>
<!-- decision_and_actions_audit -->
<g id="node5" class="node">
<title>decision_and_actions_audit</title>
<g id="a_node5"><a xlink:href="../../tables/decision_and_actions_audit.html" xlink:title="decision_and_actions_audit" target="_top">
<polygon fill="#ffffff" stroke="transparent" points="223,-612.7 223,-1120.7 610,-1120.7 610,-612.7 223,-612.7"/>
<polygon fill="#f5f5f5" stroke="transparent" points="225.5,-1095.7 225.5,-1118.7 608.5,-1118.7 608.5,-1095.7 225.5,-1095.7"/>
<polygon fill="none" stroke="#000000" points="225.5,-1095.7 225.5,-1118.7 608.5,-1118.7 608.5,-1095.7 225.5,-1095.7"/>
<text text-anchor="start" x="230.5" y="-1104.3" font-family="Helvetica,sans-Serif" font-weight="bold" font-size="11.00" fill="#000000">decision_and_actions_audit</text>
<text text-anchor="start" x="573.5437" y="-1103.8" font-family="Helvetica,sans-Serif" font-size="11.00" fill="#000000">[table]</text>
<polygon fill="none" stroke="#000000" points="225.5,-1073.7 225.5,-1095.7 492.5,-1095.7 492.5,-1073.7 225.5,-1073.7"/>
<image xlink:href="../../images/primaryKeys.png" width="11px" height="12px" preserveAspectRatio="xMinYMin meet" x="230.5" y="-1090.7"/>
<text text-anchor="start" x="245.5" y="-1080.8" font-family="Helvetica,sans-Serif" font-size="11.00" fill="#000000">rev_id</text>
<polygon fill="none" stroke="#000000" points="492.5,-1073.7 492.5,-1095.7 608.5,-1095.7 608.5,-1073.7 492.5,-1073.7"/>
<text text-anchor="start" x="495.5" y="-1081.4" font-family="Helvetica,sans-Serif" font-size="11.00" fill="#000000">int8[19]</text>
<polygon fill="none" stroke="#000000" points="225.5,-1051.7 225.5,-1073.7 492.5,-1073.7 492.5,-1051.7 225.5,-1051.7"/>
<text text-anchor="start" x="245.5" y="-1058.8" font-family="Helvetica,sans-Serif" font-size="11.00" fill="#000000">rev_type</text>
<polygon fill="none" stroke="#000000" points="492.5,-1051.7 492.5,-1073.7 608.5,-1073.7 608.5,-1051.7 492.5,-1051.7"/>
<text text-anchor="start" x="495.5" y="-1059.4" font-family="Helvetica,sans-Serif" font-size="11.00" fill="#000000">int2[5]</text>
<polygon fill="none" stroke="#000000" points="225.5,-1029.7 225.5,-1051.7 492.5,-1051.7 492.5,-1029.7 225.5,-1029.7"/>
<image xlink:href="../../images/primaryKeys.png" width="11px" height="12px" preserveAspectRatio="xMinYMin meet" x="230.5" y="-1046.7"/>
<text text-anchor="start" x="245.5" y="-1036.8" font-family="Helvetica,sans-Serif" font-size="11.00" fill="#000000">decision_and_actions_id</text>
<polygon fill="none" stroke="#000000" points="492.5,-1029.7 492.5,-1051.7 608.5,-1051.7 608.5,-1029.7 492.5,-1029.7"/>
<text text-anchor="start" x="495.5" y="-1037.4" font-family="Helvetica,sans-Serif" font-size="11.00" fill="#000000">uuid[2147483647]</text>
<polygon fill="none" stroke="#000000" points="225.5,-1007.7 225.5,-1029.7 492.5,-1029.7 492.5,-1007.7 225.5,-1007.7"/>
<text text-anchor="start" x="245.5" y="-1014.8" font-family="Helvetica,sans-Serif" font-size="11.00" fill="#000000">conclusion</text>
<polygon fill="none" stroke="#000000" points="492.5,-1007.7 492.5,-1029.7 608.5,-1029.7 608.5,-1007.7 492.5,-1007.7"/>
<text text-anchor="start" x="495.5" y="-1015.4" font-family="Helvetica,sans-Serif" font-size="11.00" fill="#000000">text[2147483647]</text>
<polygon fill="none" stroke="#000000" points="225.5,-985.7 225.5,-1007.7 492.5,-1007.7 492.5,-985.7 225.5,-985.7"/>
<image xlink:href="../../images/foreignKeys.png" width="11px" height="12px" preserveAspectRatio="xMinYMin meet" x="230.5" y="-1002.7"/>
<text text-anchor="start" x="245.5" y="-992.8" font-family="Helvetica,sans-Serif" font-size="11.00" fill="#000000">outcome_id</text>
<polygon fill="none" stroke="#000000" points="492.5,-985.7 492.5,-1007.7 608.5,-1007.7 608.5,-985.7 492.5,-985.7"/>
<text text-anchor="start" x="495.5" y="-993.4" font-family="Helvetica,sans-Serif" font-size="11.00" fill="#000000">int8[19]</text>
<polygon fill="none" stroke="#000000" points="225.5,-963.7 225.5,-985.7 492.5,-985.7 492.5,-963.7 225.5,-963.7"/>
<image xlink:href="../../images/foreignKeys.png" width="11px" height="12px" preserveAspectRatio="xMinYMin meet" x="230.5" y="-980.7"/>
<text text-anchor="start" x="245.5" y="-970.8" font-family="Helvetica,sans-Serif" font-size="11.00" fill="#000000">signed_off_by_role_id</text>
<polygon fill="none" stroke="#000000" points="492.5,-963.7 492.5,-985.7 608.5,-985.7 608.5,-963.7 492.5,-963.7"/>
<text text-anchor="start" x="495.5" y="-971.4" font-family="Helvetica,sans-Serif" font-size="11.00" fill="#000000">int8[19]</text>
<polygon fill="none" stroke="#000000" points="225.5,-941.7 225.5,-963.7 492.5,-963.7 492.5,-941.7 225.5,-941.7"/>
<text text-anchor="start" x="245.5" y="-948.8" font-family="Helvetica,sans-Serif" font-size="11.00" fill="#000000">recorded_by</text>
<polygon fill="none" stroke="#000000" points="492.5,-941.7 492.5,-963.7 608.5,-963.7 608.5,-941.7 492.5,-941.7"/>
<text text-anchor="start" x="495.5" y="-949.4" font-family="Helvetica,sans-Serif" font-size="11.00" fill="#000000">varchar[64]</text>
<polygon fill="none" stroke="#000000" points="225.5,-919.7 225.5,-941.7 492.5,-941.7 492.5,-919.7 225.5,-919.7"/>
<text text-anchor="start" x="245.5" y="-926.8" font-family="Helvetica,sans-Serif" font-size="11.00" fill="#000000">recorded_by_display_name</text>
<polygon fill="none" stroke="#000000" points="492.5,-919.7 492.5,-941.7 608.5,-941.7 608.5,-919.7 492.5,-919.7"/>
<text text-anchor="start" x="495.5" y="-927.4" font-family="Helvetica,sans-Serif" font-size="11.00" fill="#000000">varchar[255]</text>
<polygon fill="none" stroke="#000000" points="225.5,-897.7 225.5,-919.7 492.5,-919.7 492.5,-897.7 225.5,-897.7"/>
<text text-anchor="start" x="245.5" y="-904.8" font-family="Helvetica,sans-Serif" font-size="11.00" fill="#000000">date</text>
<polygon fill="none" stroke="#000000" points="492.5,-897.7 492.5,-919.7 608.5,-919.7 608.5,-897.7 492.5,-897.7"/>
<text text-anchor="start" x="495.5" y="-905.4" font-family="Helvetica,sans-Serif" font-size="11.00" fill="#000000">date[13]</text>
<polygon fill="none" stroke="#000000" points="225.5,-875.7 225.5,-897.7 492.5,-897.7 492.5,-875.7 225.5,-875.7"/>
<text text-anchor="start" x="245.5" y="-882.8" font-family="Helvetica,sans-Serif" font-size="11.00" fill="#000000">next_steps</text>
<polygon fill="none" stroke="#000000" points="492.5,-875.7 492.5,-897.7 608.5,-897.7 608.5,-875.7 492.5,-875.7"/>
<text text-anchor="start" x="495.5" y="-883.4" font-family="Helvetica,sans-Serif" font-size="11.00" fill="#000000">text[2147483647]</text>
<polygon fill="none" stroke="#000000" points="225.5,-853.7 225.5,-875.7 492.5,-875.7 492.5,-853.7 225.5,-853.7"/>
<text text-anchor="start" x="245.5" y="-860.8" font-family="Helvetica,sans-Serif" font-size="11.00" fill="#000000">actions</text>
<polygon fill="none" stroke="#000000" points="492.5,-853.7 492.5,-875.7 608.5,-875.7 608.5,-853.7 492.5,-853.7"/>
<text text-anchor="start" x="495.4769" y="-861.4" font-family="Helvetica,sans-Serif" font-size="11.00" fill="#000000">_varchar[2147483647]</text>
<polygon fill="none" stroke="#000000" points="225.5,-831.7 225.5,-853.7 492.5,-853.7 492.5,-831.7 225.5,-831.7"/>
<text text-anchor="start" x="245.5" y="-838.8" font-family="Helvetica,sans-Serif" font-size="11.00" fill="#000000">action_other</text>
<polygon fill="none" stroke="#000000" points="492.5,-831.7 492.5,-853.7 608.5,-853.7 608.5,-831.7 492.5,-831.7"/>
<text text-anchor="start" x="495.5" y="-839.4" font-family="Helvetica,sans-Serif" font-size="11.00" fill="#000000">text[2147483647]</text>
<polygon fill="none" stroke="#000000" points="225.5,-809.7 225.5,-831.7 492.5,-831.7 492.5,-809.7 225.5,-809.7"/>
<text text-anchor="start" x="245.5" y="-816.8" font-family="Helvetica,sans-Serif" font-size="11.00" fill="#000000">conclusion_modified</text>
<polygon fill="none" stroke="#000000" points="492.5,-809.7 492.5,-831.7 608.5,-831.7 608.5,-809.7 492.5,-809.7"/>
<text text-anchor="start" x="495.5" y="-817.4" font-family="Helvetica,sans-Serif" font-size="11.00" fill="#000000">bool[1]</text>
<polygon fill="none" stroke="#000000" points="225.5,-787.7 225.5,-809.7 492.5,-809.7 492.5,-787.7 225.5,-787.7"/>
<text text-anchor="start" x="245.5" y="-794.8" font-family="Helvetica,sans-Serif" font-size="11.00" fill="#000000">outcome_modified</text>
<polygon fill="none" stroke="#000000" points="492.5,-787.7 492.5,-809.7 608.5,-809.7 608.5,-787.7 492.5,-787.7"/>
<text text-anchor="start" x="495.5" y="-795.4" font-family="Helvetica,sans-Serif" font-size="11.00" fill="#000000">bool[1]</text>
<polygon fill="none" stroke="#000000" points="225.5,-765.7 225.5,-787.7 492.5,-787.7 492.5,-765.7 225.5,-765.7"/>
<text text-anchor="start" x="245.5" y="-772.8" font-family="Helvetica,sans-Serif" font-size="11.00" fill="#000000">signed_off_by_modified</text>
<polygon fill="none" stroke="#000000" points="492.5,-765.7 492.5,-787.7 608.5,-787.7 608.5,-765.7 492.5,-765.7"/>
<text text-anchor="start" x="495.5" y="-773.4" font-family="Helvetica,sans-Serif" font-size="11.00" fill="#000000">bool[1]</text>
<polygon fill="none" stroke="#000000" points="225.5,-743.7 225.5,-765.7 492.5,-765.7 492.5,-743.7 225.5,-743.7"/>
<text text-anchor="start" x="245.5" y="-750.8" font-family="Helvetica,sans-Serif" font-size="11.00" fill="#000000">recorded_by_modified</text>
<polygon fill="none" stroke="#000000" points="492.5,-743.7 492.5,-765.7 608.5,-765.7 608.5,-743.7 492.5,-743.7"/>
<text text-anchor="start" x="495.5" y="-751.4" font-family="Helvetica,sans-Serif" font-size="11.00" fill="#000000">bool[1]</text>
<polygon fill="none" stroke="#000000" points="225.5,-721.7 225.5,-743.7 492.5,-743.7 492.5,-721.7 225.5,-721.7"/>
<text text-anchor="start" x="245.5" y="-728.8" font-family="Helvetica,sans-Serif" font-size="11.00" fill="#000000">recorded_by_display_name_modified</text>
<polygon fill="none" stroke="#000000" points="492.5,-721.7 492.5,-743.7 608.5,-743.7 608.5,-721.7 492.5,-721.7"/>
<text text-anchor="start" x="495.5" y="-729.4" font-family="Helvetica,sans-Serif" font-size="11.00" fill="#000000">bool[1]</text>
<polygon fill="none" stroke="#000000" points="225.5,-699.7 225.5,-721.7 492.5,-721.7 492.5,-699.7 225.5,-699.7"/>
<text text-anchor="start" x="245.5" y="-706.8" font-family="Helvetica,sans-Serif" font-size="11.00" fill="#000000">date_modified</text>
<polygon fill="none" stroke="#000000" points="492.5,-699.7 492.5,-721.7 608.5,-721.7 608.5,-699.7 492.5,-699.7"/>
<text text-anchor="start" x="495.5" y="-707.4" font-family="Helvetica,sans-Serif" font-size="11.00" fill="#000000">bool[1]</text>
<polygon fill="none" stroke="#000000" points="225.5,-677.7 225.5,-699.7 492.5,-699.7 492.5,-677.7 225.5,-677.7"/>
<text text-anchor="start" x="245.5" y="-684.8" font-family="Helvetica,sans-Serif" font-size="11.00" fill="#000000">next_steps_modified</text>
<polygon fill="none" stroke="#000000" points="492.5,-677.7 492.5,-699.7 608.5,-699.7 608.5,-677.7 492.5,-677.7"/>
<text text-anchor="start" x="495.5" y="-685.4" font-family="Helvetica,sans-Serif" font-size="11.00" fill="#000000">bool[1]</text>
<polygon fill="none" stroke="#000000" points="225.5,-655.7 225.5,-677.7 492.5,-677.7 492.5,-655.7 225.5,-655.7"/>
<text text-anchor="start" x="245.5" y="-662.8" font-family="Helvetica,sans-Serif" font-size="11.00" fill="#000000">actions_modified</text>
<polygon fill="none" stroke="#000000" points="492.5,-655.7 492.5,-677.7 608.5,-677.7 608.5,-655.7 492.5,-655.7"/>
<text text-anchor="start" x="495.5" y="-663.4" font-family="Helvetica,sans-Serif" font-size="11.00" fill="#000000">bool[1]</text>
<polygon fill="none" stroke="#000000" points="225.5,-633.7 225.5,-655.7 492.5,-655.7 492.5,-633.7 225.5,-633.7"/>
<text text-anchor="start" x="245.5" y="-640.8" font-family="Helvetica,sans-Serif" font-size="11.00" fill="#000000">action_other_modified</text>
<polygon fill="none" stroke="#000000" points="492.5,-633.7 492.5,-655.7 608.5,-655.7 608.5,-633.7 492.5,-633.7"/>
<text text-anchor="start" x="495.5" y="-641.4" font-family="Helvetica,sans-Serif" font-size="11.00" fill="#000000">bool[1]</text>
<polygon fill="#ffffff" stroke="transparent" points="225.5,-614.7 225.5,-633.7 363.5,-633.7 363.5,-614.7 225.5,-614.7"/>
<polygon fill="none" stroke="#000000" points="225.5,-614.7 225.5,-633.7 363.5,-633.7 363.5,-614.7 225.5,-614.7"/>
<text text-anchor="start" x="228.5" y="-620.8" font-family="Helvetica,sans-Serif" font-size="11.00" fill="#000000">&lt; 1</text>
<polygon fill="#ffffff" stroke="transparent" points="363.5,-614.7 363.5,-633.7 492.5,-633.7 492.5,-614.7 363.5,-614.7"/>
<polygon fill="none" stroke="#000000" points="363.5,-614.7 363.5,-633.7 492.5,-633.7 492.5,-614.7 363.5,-614.7"/>
<text text-anchor="start" x="483.3862" y="-620.8" font-family="Helvetica,sans-Serif" font-size="11.00" fill="#000000"> &#160;</text>
<polygon fill="#ffffff" stroke="transparent" points="492.5,-614.7 492.5,-633.7 608.5,-633.7 608.5,-614.7 492.5,-614.7"/>
<polygon fill="none" stroke="#000000" points="492.5,-614.7 492.5,-633.7 608.5,-633.7 608.5,-614.7 492.5,-614.7"/>
<text text-anchor="start" x="589.9053" y="-620.8" font-family="Helvetica,sans-Serif" font-size="11.00" fill="#000000">0 &gt;</text>
<polygon fill="none" stroke="#000000" stroke-width="2" points="224,-613.7 224,-1119.7 609,-1119.7 609,-613.7 224,-613.7"/>
</a>
</g>
</g>
<!-- decision_and_actions_audit&#45;&gt;audit_revision -->
<g id="edge4" class="edge">
<title>decision_and_actions_audit:w&#45;&gt;audit_revision:e</title>
<path fill="none" stroke="#000000" d="M213.6103,-1076.5515C168.4081,-1004.2841 237.266,-475.7 174,-475.7"/>
<polygon fill="#000000" stroke="#000000" points="218.901,-1080.1774 223.4648,-1087.6695 222.2005,-1082.4387 225.5,-1084.7 225.5,-1084.7 225.5,-1084.7 222.2005,-1082.4387 227.5352,-1081.7305 218.901,-1080.1774 218.901,-1080.1774"/>
<ellipse fill="none" stroke="#000000" cx="216.2614" cy="-1078.3684" rx="3.2" ry="3.2"/>
</g>
<!-- identified_need_audit -->
<g id="node6" class="node">
<title>identified_need_audit</title>
<g id="a_node6"><a xlink:href="../../tables/identified_need_audit.html" xlink:title="identified_need_audit" target="_top">
<polygon fill="#ffffff" stroke="transparent" points="324.5,-530.2 324.5,-591.2 508.5,-591.2 508.5,-530.2 324.5,-530.2"/>
<polygon fill="#f5f5f5" stroke="transparent" points="324.5,-567.7 324.5,-590.7 508.5,-590.7 508.5,-567.7 324.5,-567.7"/>
<polygon fill="none" stroke="#000000" points="324.5,-567.7 324.5,-590.7 508.5,-590.7 508.5,-567.7 324.5,-567.7"/>
<text text-anchor="start" x="329.5" y="-576.3" font-family="Helvetica,sans-Serif" font-weight="bold" font-size="11.00" fill="#000000">identified_need_audit</text>
<text text-anchor="start" x="474.0219" y="-575.8" font-family="Helvetica,sans-Serif" font-size="11.00" fill="#000000">[table]</text>
<polygon fill="none" stroke="#000000" points="324.5,-548.7 324.5,-567.7 508.5,-567.7 508.5,-548.7 324.5,-548.7"/>
<text text-anchor="start" x="327.5" y="-554.8" font-family="Helvetica,sans-Serif" font-size="11.00" fill="#000000">...</text>
<polygon fill="#ffffff" stroke="transparent" points="324.5,-529.7 324.5,-548.7 414.5,-548.7 414.5,-529.7 324.5,-529.7"/>
<polygon fill="none" stroke="#000000" points="324.5,-529.7 324.5,-548.7 414.5,-548.7 414.5,-529.7 324.5,-529.7"/>
<text text-anchor="start" x="327.5" y="-535.8" font-family="Helvetica,sans-Serif" font-size="11.00" fill="#000000">&lt; 1</text>
<polygon fill="#ffffff" stroke="transparent" points="414.5,-529.7 414.5,-548.7 461.5,-548.7 461.5,-529.7 414.5,-529.7"/>
<polygon fill="none" stroke="#000000" points="414.5,-529.7 414.5,-548.7 461.5,-548.7 461.5,-529.7 414.5,-529.7"/>
<text text-anchor="start" x="452.3862" y="-535.8" font-family="Helvetica,sans-Serif" font-size="11.00" fill="#000000"> &#160;</text>
<polygon fill="#ffffff" stroke="transparent" points="461.5,-529.7 461.5,-548.7 508.5,-548.7 508.5,-529.7 461.5,-529.7"/>
<polygon fill="none" stroke="#000000" points="461.5,-529.7 461.5,-548.7 508.5,-548.7 508.5,-529.7 461.5,-529.7"/>
<text text-anchor="start" x="499.3862" y="-535.8" font-family="Helvetica,sans-Serif" font-size="11.00" fill="#000000"> &#160;</text>
</a>
</g>
</g>
<!-- identified_need_audit&#45;&gt;audit_revision -->
<g id="edge5" class="edge">
<title>identified_need_audit:w&#45;&gt;audit_revision:e</title>
<path fill="none" stroke="#000000" d="M309.8717,-557.3854C269.683,-555.5044 253.7802,-544.9611 215,-519.7 192.603,-505.1108 200.7296,-475.7 174,-475.7"/>
<polygon fill="#000000" stroke="#000000" points="316.5018,-557.5279 324.4226,-561.2992 320.5009,-557.614 324.5,-557.7 324.5,-557.7 324.5,-557.7 320.5009,-557.614 324.5774,-554.1008 316.5018,-557.5279 316.5018,-557.5279"/>
<ellipse fill="none" stroke="#000000" cx="313.3026" cy="-557.4591" rx="3.2" ry="3.2"/>
</g>
<!-- interview_audit -->
<g id="node7" class="node">
<title>interview_audit</title>
<g id="a_node7"><a xlink:href="../../tables/interview_audit.html" xlink:title="interview_audit" target="_top">
<polygon fill="#ffffff" stroke="transparent" points="345,-448.2 345,-509.2 488,-509.2 488,-448.2 345,-448.2"/>
<polygon fill="#f5f5f5" stroke="transparent" points="345.5,-485.7 345.5,-508.7 488.5,-508.7 488.5,-485.7 345.5,-485.7"/>
<polygon fill="none" stroke="#000000" points="345.5,-485.7 345.5,-508.7 488.5,-508.7 488.5,-485.7 345.5,-485.7"/>
<text text-anchor="start" x="350.5" y="-494.3" font-family="Helvetica,sans-Serif" font-weight="bold" font-size="11.00" fill="#000000">interview_audit</text>
<text text-anchor="start" x="454.0219" y="-493.8" font-family="Helvetica,sans-Serif" font-size="11.00" fill="#000000">[table]</text>
<polygon fill="none" stroke="#000000" points="345.5,-466.7 345.5,-485.7 488.5,-485.7 488.5,-466.7 345.5,-466.7"/>
<text text-anchor="start" x="348.5" y="-472.8" font-family="Helvetica,sans-Serif" font-size="11.00" fill="#000000">...</text>
<polygon fill="#ffffff" stroke="transparent" points="345.5,-447.7 345.5,-466.7 415.5,-466.7 415.5,-447.7 345.5,-447.7"/>
<polygon fill="none" stroke="#000000" points="345.5,-447.7 345.5,-466.7 415.5,-466.7 415.5,-447.7 345.5,-447.7"/>
<text text-anchor="start" x="348.5" y="-453.8" font-family="Helvetica,sans-Serif" font-size="11.00" fill="#000000">&lt; 1</text>
<polygon fill="#ffffff" stroke="transparent" points="415.5,-447.7 415.5,-466.7 451.5,-466.7 451.5,-447.7 415.5,-447.7"/>
<polygon fill="none" stroke="#000000" points="415.5,-447.7 415.5,-466.7 451.5,-466.7 451.5,-447.7 415.5,-447.7"/>
<text text-anchor="start" x="442.3862" y="-453.8" font-family="Helvetica,sans-Serif" font-size="11.00" fill="#000000"> &#160;</text>
<polygon fill="#ffffff" stroke="transparent" points="451.5,-447.7 451.5,-466.7 488.5,-466.7 488.5,-447.7 451.5,-447.7"/>
<polygon fill="none" stroke="#000000" points="451.5,-447.7 451.5,-466.7 488.5,-466.7 488.5,-447.7 451.5,-447.7"/>
<text text-anchor="start" x="479.3862" y="-453.8" font-family="Helvetica,sans-Serif" font-size="11.00" fill="#000000"> &#160;</text>
</a>
</g>
</g>
<!-- interview_audit&#45;&gt;audit_revision -->
<g id="edge6" class="edge">
<title>interview_audit:w&#45;&gt;audit_revision:e</title>
<path fill="none" stroke="#000000" d="M331.0379,-475.7C266.4949,-475.7 245.1606,-475.7 174,-475.7"/>
<polygon fill="#000000" stroke="#000000" points="337.5,-475.7001 345.5,-479.3 341.5,-475.7 345.5,-475.7 345.5,-475.7 345.5,-475.7 341.5,-475.7 345.5,-472.1 337.5,-475.7001 337.5,-475.7001"/>
<ellipse fill="none" stroke="#000000" cx="334.3" cy="-475.7001" rx="3.2" ry="3.2"/>
</g>
<!-- investigation_audit -->
<g id="node8" class="node">
<title>investigation_audit</title>
<g id="a_node8"><a xlink:href="../../tables/investigation_audit.html" xlink:title="investigation_audit" target="_top">
<polygon fill="#ffffff" stroke="transparent" points="332,-366.2 332,-427.2 501,-427.2 501,-366.2 332,-366.2"/>
<polygon fill="#f5f5f5" stroke="transparent" points="332.5,-403.7 332.5,-426.7 501.5,-426.7 501.5,-403.7 332.5,-403.7"/>
<polygon fill="none" stroke="#000000" points="332.5,-403.7 332.5,-426.7 501.5,-426.7 501.5,-403.7 332.5,-403.7"/>
<text text-anchor="start" x="337.5" y="-412.3" font-family="Helvetica,sans-Serif" font-weight="bold" font-size="11.00" fill="#000000">investigation_audit</text>
<text text-anchor="start" x="467.0219" y="-411.8" font-family="Helvetica,sans-Serif" font-size="11.00" fill="#000000">[table]</text>
<polygon fill="none" stroke="#000000" points="332.5,-384.7 332.5,-403.7 501.5,-403.7 501.5,-384.7 332.5,-384.7"/>
<text text-anchor="start" x="335.5" y="-390.8" font-family="Helvetica,sans-Serif" font-size="11.00" fill="#000000">...</text>
<polygon fill="#ffffff" stroke="transparent" points="332.5,-365.7 332.5,-384.7 415.5,-384.7 415.5,-365.7 332.5,-365.7"/>
<polygon fill="none" stroke="#000000" points="332.5,-365.7 332.5,-384.7 415.5,-384.7 415.5,-365.7 332.5,-365.7"/>
<text text-anchor="start" x="335.5" y="-371.8" font-family="Helvetica,sans-Serif" font-size="11.00" fill="#000000">&lt; 1</text>
<polygon fill="#ffffff" stroke="transparent" points="415.5,-365.7 415.5,-384.7 458.5,-384.7 458.5,-365.7 415.5,-365.7"/>
<polygon fill="none" stroke="#000000" points="415.5,-365.7 415.5,-384.7 458.5,-384.7 458.5,-365.7 415.5,-365.7"/>
<text text-anchor="start" x="449.3862" y="-371.8" font-family="Helvetica,sans-Serif" font-size="11.00" fill="#000000"> &#160;</text>
<polygon fill="#ffffff" stroke="transparent" points="458.5,-365.7 458.5,-384.7 501.5,-384.7 501.5,-365.7 458.5,-365.7"/>
<polygon fill="none" stroke="#000000" points="458.5,-365.7 458.5,-384.7 501.5,-384.7 501.5,-365.7 458.5,-365.7"/>
<text text-anchor="start" x="492.3862" y="-371.8" font-family="Helvetica,sans-Serif" font-size="11.00" fill="#000000"> &#160;</text>
</a>
</g>
</g>
<!-- investigation_audit&#45;&gt;audit_revision -->
<g id="edge7" class="edge">
<title>investigation_audit:w&#45;&gt;audit_revision:e</title>
<path fill="none" stroke="#000000" d="M317.8488,-394.0879C273.7672,-396.5874 258.0069,-411.1619 215,-437.7 193.8563,-450.7471 198.8452,-475.7 174,-475.7"/>
<polygon fill="#000000" stroke="#000000" points="324.5028,-393.9118 332.5953,-397.2987 328.5014,-393.8059 332.5,-393.7 332.5,-393.7 332.5,-393.7 328.5014,-393.8059 332.4047,-390.1013 324.5028,-393.9118 324.5028,-393.9118"/>
<ellipse fill="none" stroke="#000000" cx="321.3039" cy="-393.9965" rx="3.2" ry="3.2"/>
</g>
<!-- plan_audit -->
<g id="node9" class="node">
<title>plan_audit</title>
<g id="a_node9"><a xlink:href="../../tables/plan_audit.html" xlink:title="plan_audit" target="_top">
<polygon fill="#ffffff" stroke="transparent" points="362,-284.2 362,-345.2 471,-345.2 471,-284.2 362,-284.2"/>
<polygon fill="#f5f5f5" stroke="transparent" points="362.5,-321.7 362.5,-344.7 471.5,-344.7 471.5,-321.7 362.5,-321.7"/>
<polygon fill="none" stroke="#000000" points="362.5,-321.7 362.5,-344.7 471.5,-344.7 471.5,-321.7 362.5,-321.7"/>
<text text-anchor="start" x="367.5" y="-330.3" font-family="Helvetica,sans-Serif" font-weight="bold" font-size="11.00" fill="#000000">plan_audit</text>
<text text-anchor="start" x="437.0219" y="-329.8" font-family="Helvetica,sans-Serif" font-size="11.00" fill="#000000">[table]</text>
<polygon fill="none" stroke="#000000" points="362.5,-302.7 362.5,-321.7 471.5,-321.7 471.5,-302.7 362.5,-302.7"/>
<text text-anchor="start" x="365.5" y="-308.8" font-family="Helvetica,sans-Serif" font-size="11.00" fill="#000000">...</text>
<polygon fill="#ffffff" stroke="transparent" points="362.5,-283.7 362.5,-302.7 415.5,-302.7 415.5,-283.7 362.5,-283.7"/>
<polygon fill="none" stroke="#000000" points="362.5,-283.7 362.5,-302.7 415.5,-302.7 415.5,-283.7 362.5,-283.7"/>
<text text-anchor="start" x="365.5" y="-289.8" font-family="Helvetica,sans-Serif" font-size="11.00" fill="#000000">&lt; 1</text>
<polygon fill="#ffffff" stroke="transparent" points="415.5,-283.7 415.5,-302.7 443.5,-302.7 443.5,-283.7 415.5,-283.7"/>
<polygon fill="none" stroke="#000000" points="415.5,-283.7 415.5,-302.7 443.5,-302.7 443.5,-283.7 415.5,-283.7"/>
<text text-anchor="start" x="434.3862" y="-289.8" font-family="Helvetica,sans-Serif" font-size="11.00" fill="#000000"> &#160;</text>
<polygon fill="#ffffff" stroke="transparent" points="443.5,-283.7 443.5,-302.7 471.5,-302.7 471.5,-283.7 443.5,-283.7"/>
<polygon fill="none" stroke="#000000" points="443.5,-283.7 443.5,-302.7 471.5,-302.7 471.5,-283.7 443.5,-283.7"/>
<text text-anchor="start" x="462.3862" y="-289.8" font-family="Helvetica,sans-Serif" font-size="11.00" fill="#000000"> &#160;</text>
</a>
</g>
</g>
<!-- plan_audit&#45;&gt;audit_revision -->
<g id="edge8" class="edge">
<title>plan_audit:w&#45;&gt;audit_revision:e</title>
<path fill="none" stroke="#000000" d="M347.8827,-311.6658C289.5625,-311.4734 260.655,-311.8062 215,-355.7 174.3712,-394.7614 230.3604,-475.7 174,-475.7"/>
<polygon fill="#000000" stroke="#000000" points="354.5,-311.6812 362.4915,-315.3 358.5,-311.6906 362.5,-311.7 362.5,-311.7 362.5,-311.7 358.5,-311.6906 362.5085,-308.1 354.5,-311.6812 354.5,-311.6812"/>
<ellipse fill="none" stroke="#000000" cx="351.3" cy="-311.6737" rx="3.2" ry="3.2"/>
</g>
<!-- referral_audit -->
<g id="node10" class="node">
<title>referral_audit</title>
<g id="a_node10"><a xlink:href="../../tables/referral_audit.html" xlink:title="referral_audit" target="_top">
<polygon fill="#ffffff" stroke="transparent" points="351,-202.2 351,-263.2 482,-263.2 482,-202.2 351,-202.2"/>
<polygon fill="#f5f5f5" stroke="transparent" points="351.5,-239.7 351.5,-262.7 482.5,-262.7 482.5,-239.7 351.5,-239.7"/>
<polygon fill="none" stroke="#000000" points="351.5,-239.7 351.5,-262.7 482.5,-262.7 482.5,-239.7 351.5,-239.7"/>
<text text-anchor="start" x="356.5" y="-248.3" font-family="Helvetica,sans-Serif" font-weight="bold" font-size="11.00" fill="#000000">referral_audit</text>
<text text-anchor="start" x="448.0219" y="-247.8" font-family="Helvetica,sans-Serif" font-size="11.00" fill="#000000">[table]</text>
<polygon fill="none" stroke="#000000" points="351.5,-220.7 351.5,-239.7 482.5,-239.7 482.5,-220.7 351.5,-220.7"/>
<text text-anchor="start" x="354.5" y="-226.8" font-family="Helvetica,sans-Serif" font-size="11.00" fill="#000000">...</text>
<polygon fill="#ffffff" stroke="transparent" points="351.5,-201.7 351.5,-220.7 415.5,-220.7 415.5,-201.7 351.5,-201.7"/>
<polygon fill="none" stroke="#000000" points="351.5,-201.7 351.5,-220.7 415.5,-220.7 415.5,-201.7 351.5,-201.7"/>
<text text-anchor="start" x="354.5" y="-207.8" font-family="Helvetica,sans-Serif" font-size="11.00" fill="#000000">&lt; 1</text>
<polygon fill="#ffffff" stroke="transparent" points="415.5,-201.7 415.5,-220.7 448.5,-220.7 448.5,-201.7 415.5,-201.7"/>
<polygon fill="none" stroke="#000000" points="415.5,-201.7 415.5,-220.7 448.5,-220.7 448.5,-201.7 415.5,-201.7"/>
<text text-anchor="start" x="439.3862" y="-207.8" font-family="Helvetica,sans-Serif" font-size="11.00" fill="#000000"> &#160;</text>
<polygon fill="#ffffff" stroke="transparent" points="448.5,-201.7 448.5,-220.7 482.5,-220.7 482.5,-201.7 448.5,-201.7"/>
<polygon fill="none" stroke="#000000" points="448.5,-201.7 448.5,-220.7 482.5,-220.7 482.5,-201.7 448.5,-201.7"/>
<text text-anchor="start" x="473.3862" y="-207.8" font-family="Helvetica,sans-Serif" font-size="11.00" fill="#000000"> &#160;</text>
</a>
</g>
</g>
<!-- referral_audit&#45;&gt;audit_revision -->
<g id="edge9" class="edge">
<title>referral_audit:w&#45;&gt;audit_revision:e</title>
<path fill="none" stroke="#000000" d="M336.8077,-229.6604C282.8329,-229.4644 254.0857,-229.9904 215,-273.7 153.9358,-341.9881 265.6084,-475.7 174,-475.7"/>
<polygon fill="#000000" stroke="#000000" points="343.5,-229.6784 351.4903,-233.3 347.5,-229.6892 351.5,-229.7 351.5,-229.7 351.5,-229.7 347.5,-229.6892 351.5097,-226.1 343.5,-229.6784 343.5,-229.6784"/>
<ellipse fill="none" stroke="#000000" cx="340.3" cy="-229.6697" rx="3.2" ry="3.2"/>
</g>
<!-- review_audit -->
<g id="node11" class="node">
<title>review_audit</title>
<g id="a_node11"><a xlink:href="../../tables/review_audit.html" xlink:title="review_audit" target="_top">
<polygon fill="#ffffff" stroke="transparent" points="354,-120.2 354,-181.2 479,-181.2 479,-120.2 354,-120.2"/>
<polygon fill="#f5f5f5" stroke="transparent" points="354.5,-157.7 354.5,-180.7 479.5,-180.7 479.5,-157.7 354.5,-157.7"/>
<polygon fill="none" stroke="#000000" points="354.5,-157.7 354.5,-180.7 479.5,-180.7 479.5,-157.7 354.5,-157.7"/>
<text text-anchor="start" x="359.5" y="-166.3" font-family="Helvetica,sans-Serif" font-weight="bold" font-size="11.00" fill="#000000">review_audit</text>
<text text-anchor="start" x="445.0219" y="-165.8" font-family="Helvetica,sans-Serif" font-size="11.00" fill="#000000">[table]</text>
<polygon fill="none" stroke="#000000" points="354.5,-138.7 354.5,-157.7 479.5,-157.7 479.5,-138.7 354.5,-138.7"/>
<text text-anchor="start" x="357.5" y="-144.8" font-family="Helvetica,sans-Serif" font-size="11.00" fill="#000000">...</text>
<polygon fill="#ffffff" stroke="transparent" points="354.5,-119.7 354.5,-138.7 415.5,-138.7 415.5,-119.7 354.5,-119.7"/>
<polygon fill="none" stroke="#000000" points="354.5,-119.7 354.5,-138.7 415.5,-138.7 415.5,-119.7 354.5,-119.7"/>
<text text-anchor="start" x="357.5" y="-125.8" font-family="Helvetica,sans-Serif" font-size="11.00" fill="#000000">&lt; 1</text>
<polygon fill="#ffffff" stroke="transparent" points="415.5,-119.7 415.5,-138.7 447.5,-138.7 447.5,-119.7 415.5,-119.7"/>
<polygon fill="none" stroke="#000000" points="415.5,-119.7 415.5,-138.7 447.5,-138.7 447.5,-119.7 415.5,-119.7"/>
<text text-anchor="start" x="438.3862" y="-125.8" font-family="Helvetica,sans-Serif" font-size="11.00" fill="#000000"> &#160;</text>
<polygon fill="#ffffff" stroke="transparent" points="447.5,-119.7 447.5,-138.7 479.5,-138.7 479.5,-119.7 447.5,-119.7"/>
<polygon fill="none" stroke="#000000" points="447.5,-119.7 447.5,-138.7 479.5,-138.7 479.5,-119.7 447.5,-119.7"/>
<text text-anchor="start" x="470.3862" y="-125.8" font-family="Helvetica,sans-Serif" font-size="11.00" fill="#000000"> &#160;</text>
</a>
</g>
</g>
<!-- review_audit&#45;&gt;audit_revision -->
<g id="edge10" class="edge">
<title>review_audit:w&#45;&gt;audit_revision:e</title>
<path fill="none" stroke="#000000" d="M339.8401,-147.6274C284.3684,-147.1703 253.8068,-146.0287 215,-191.7 173.711,-240.2926 237.7654,-475.7 174,-475.7"/>
<polygon fill="#000000" stroke="#000000" points="346.5001,-147.6603 354.4822,-151.3 350.5,-147.6802 354.5,-147.7 354.5,-147.7 354.5,-147.7 350.5,-147.6802 354.5178,-144.1 346.5001,-147.6603 346.5001,-147.6603"/>
<ellipse fill="none" stroke="#000000" cx="343.3001" cy="-147.6445" rx="3.2" ry="3.2"/>
</g>
<!-- safer_custody_screening_outcome_audit -->
<g id="node12" class="node">
<title>safer_custody_screening_outcome_audit</title>
<g id="a_node12"><a xlink:href="../../tables/safer_custody_screening_outcome_audit.html" xlink:title="safer_custody_screening_outcome_audit" target="_top">
<polygon fill="#ffffff" stroke="transparent" points="261.5,-38.2 261.5,-99.2 571.5,-99.2 571.5,-38.2 261.5,-38.2"/>
<polygon fill="#f5f5f5" stroke="transparent" points="261.5,-75.7 261.5,-98.7 571.5,-98.7 571.5,-75.7 261.5,-75.7"/>
<polygon fill="none" stroke="#000000" points="261.5,-75.7 261.5,-98.7 571.5,-98.7 571.5,-75.7 261.5,-75.7"/>
<text text-anchor="start" x="266.5" y="-84.3" font-family="Helvetica,sans-Serif" font-weight="bold" font-size="11.00" fill="#000000">safer_custody_screening_outcome_audit</text>
<text text-anchor="start" x="537.0219" y="-83.8" font-family="Helvetica,sans-Serif" font-size="11.00" fill="#000000">[table]</text>
<polygon fill="none" stroke="#000000" points="261.5,-56.7 261.5,-75.7 571.5,-75.7 571.5,-56.7 261.5,-56.7"/>
<text text-anchor="start" x="264.5" y="-62.8" font-family="Helvetica,sans-Serif" font-size="11.00" fill="#000000">...</text>
<polygon fill="#ffffff" stroke="transparent" points="261.5,-37.7 261.5,-56.7 414.5,-56.7 414.5,-37.7 261.5,-37.7"/>
<polygon fill="none" stroke="#000000" points="261.5,-37.7 261.5,-56.7 414.5,-56.7 414.5,-37.7 261.5,-37.7"/>
<text text-anchor="start" x="264.5" y="-43.8" font-family="Helvetica,sans-Serif" font-size="11.00" fill="#000000">&lt; 1</text>
<polygon fill="#ffffff" stroke="transparent" points="414.5,-37.7 414.5,-56.7 492.5,-56.7 492.5,-37.7 414.5,-37.7"/>
<polygon fill="none" stroke="#000000" points="414.5,-37.7 414.5,-56.7 492.5,-56.7 492.5,-37.7 414.5,-37.7"/>
<text text-anchor="start" x="483.3862" y="-43.8" font-family="Helvetica,sans-Serif" font-size="11.00" fill="#000000"> &#160;</text>
<polygon fill="#ffffff" stroke="transparent" points="492.5,-37.7 492.5,-56.7 571.5,-56.7 571.5,-37.7 492.5,-37.7"/>
<polygon fill="none" stroke="#000000" points="492.5,-37.7 492.5,-56.7 571.5,-56.7 571.5,-37.7 492.5,-37.7"/>
<text text-anchor="start" x="562.3862" y="-43.8" font-family="Helvetica,sans-Serif" font-size="11.00" fill="#000000"> &#160;</text>
</a>
</g>
</g>
<!-- safer_custody_screening_outcome_audit&#45;&gt;audit_revision -->
<g id="edge11" class="edge">
<title>safer_custody_screening_outcome_audit:w&#45;&gt;audit_revision:e</title>
<path fill="none" stroke="#000000" d="M246.7655,-67.8969C230.5685,-73.5155 225.112,-89.407 215,-109.7 178.4988,-182.9515 255.8421,-475.7 174,-475.7"/>
<polygon fill="#000000" stroke="#000000" points="253.5875,-66.8798 262.0309,-69.2606 257.5437,-66.2899 261.5,-65.7 261.5,-65.7 261.5,-65.7 257.5437,-66.2899 260.9691,-62.1394 253.5875,-66.8798 253.5875,-66.8798"/>
<ellipse fill="none" stroke="#000000" cx="250.4225" cy="-67.3517" rx="3.2" ry="3.2"/>
</g>
</g>
</svg>
