<?xml version="1.0" encoding="UTF-8" standalone="no"?>
<!DOCTYPE svg PUBLIC "-//W3C//DTD SVG 1.1//EN"
 "http://www.w3.org/Graphics/SVG/1.1/DTD/svg11.dtd">
<!-- Generated by graphviz version 2.40.1 (20161225.0304)
 -->
<!-- Title: twoDegreesRelationshipsDiagram Pages: 1 -->
<svg width="554pt" height="1335pt"
 viewBox="0.00 0.00 554.00 1335.20" xmlns="http://www.w3.org/2000/svg" xmlns:xlink="http://www.w3.org/1999/xlink">
<g id="graph0" class="graph" transform="scale(1 1) rotate(0) translate(4 1331.2)">
<title>twoDegreesRelationshipsDiagram</title>
<polygon fill="#ffffff" stroke="transparent" points="-4,4 -4,-1331.2 550,-1331.2 550,4 -4,4"/>
<text text-anchor="middle" x="72.4936" y="-7.3" font-family="Helvetica,sans-Serif" font-size="11.00" fill="#000000">Generated by SchemaSpy</text>
<!-- attendee_audit -->
<g id="node1" class="node">
<title>attendee_audit</title>
<g id="a_node1"><a xlink:href="../../tables/attendee_audit.html" xlink:title="attendee_audit" target="_top">
<polygon fill="#ffffff" stroke="transparent" points="310,-1262.2 310,-1323.2 451,-1323.2 451,-1262.2 310,-1262.2"/>
<polygon fill="#f5f5f5" stroke="transparent" points="310.5,-1299.7 310.5,-1322.7 451.5,-1322.7 451.5,-1299.7 310.5,-1299.7"/>
<polygon fill="none" stroke="#000000" points="310.5,-1299.7 310.5,-1322.7 451.5,-1322.7 451.5,-1299.7 310.5,-1299.7"/>
<text text-anchor="start" x="315.5" y="-1308.3" font-family="Helvetica,sans-Serif" font-weight="bold" font-size="11.00" fill="#000000">attendee_audit</text>
<text text-anchor="start" x="417.0219" y="-1307.8" font-family="Helvetica,sans-Serif" font-size="11.00" fill="#000000">[table]</text>
<polygon fill="none" stroke="#000000" points="310.5,-1280.7 310.5,-1299.7 451.5,-1299.7 451.5,-1280.7 310.5,-1280.7"/>
<text text-anchor="start" x="313.5" y="-1286.8" font-family="Helvetica,sans-Serif" font-size="11.00" fill="#000000">...</text>
<polygon fill="#ffffff" stroke="transparent" points="310.5,-1261.7 310.5,-1280.7 379.5,-1280.7 379.5,-1261.7 310.5,-1261.7"/>
<polygon fill="none" stroke="#000000" points="310.5,-1261.7 310.5,-1280.7 379.5,-1280.7 379.5,-1261.7 310.5,-1261.7"/>
<text text-anchor="start" x="313.5" y="-1267.8" font-family="Helvetica,sans-Serif" font-size="11.00" fill="#000000">&lt; 1</text>
<polygon fill="#ffffff" stroke="transparent" points="379.5,-1261.7 379.5,-1280.7 415.5,-1280.7 415.5,-1261.7 379.5,-1261.7"/>
<polygon fill="none" stroke="#000000" points="379.5,-1261.7 379.5,-1280.7 415.5,-1280.7 415.5,-1261.7 379.5,-1261.7"/>
<text text-anchor="start" x="406.3862" y="-1267.8" font-family="Helvetica,sans-Serif" font-size="11.00" fill="#000000"> &#160;</text>
<polygon fill="#ffffff" stroke="transparent" points="415.5,-1261.7 415.5,-1280.7 451.5,-1280.7 451.5,-1261.7 415.5,-1261.7"/>
<polygon fill="none" stroke="#000000" points="415.5,-1261.7 415.5,-1280.7 451.5,-1280.7 451.5,-1261.7 415.5,-1261.7"/>
<text text-anchor="start" x="442.3862" y="-1267.8" font-family="Helvetica,sans-Serif" font-size="11.00" fill="#000000"> &#160;</text>
</a>
</g>
</g>
<!-- audit_revision -->
<g id="node2" class="node">
<title>audit_revision</title>
<g id="a_node2"><a xlink:href="../../tables/audit_revision.html" xlink:title="audit_revision" target="_top">
<polygon fill="#ffffff" stroke="transparent" points="8,-427.2 8,-510.2 174,-510.2 174,-427.2 8,-427.2"/>
<polygon fill="#f5f5f5" stroke="transparent" points="8,-486.7 8,-509.7 174,-509.7 174,-486.7 8,-486.7"/>
<polygon fill="none" stroke="#000000" points="8,-486.7 8,-509.7 174,-509.7 174,-486.7 8,-486.7"/>
<text text-anchor="start" x="13" y="-495.3" font-family="Helvetica,sans-Serif" font-weight="bold" font-size="11.00" fill="#000000">audit_revision</text>
<text text-anchor="start" x="139.0437" y="-494.8" font-family="Helvetica,sans-Serif" font-size="11.00" fill="#000000">[table]</text>
<polygon fill="none" stroke="#000000" points="8,-464.7 8,-486.7 174,-486.7 174,-464.7 8,-464.7"/>
<image xlink:href="../../images/primaryKeys.png" width="11px" height="12px" preserveAspectRatio="xMinYMin meet" x="13" y="-481.7"/>
<text text-anchor="start" x="28" y="-471.8" font-family="Helvetica,sans-Serif" font-size="11.00" fill="#000000">id</text>
<polygon fill="none" stroke="#000000" points="8,-445.7 8,-464.7 174,-464.7 174,-445.7 8,-445.7"/>
<text text-anchor="start" x="11" y="-451.8" font-family="Helvetica,sans-Serif" font-size="11.00" fill="#000000">...</text>
<polygon fill="#ffffff" stroke="transparent" points="8,-426.7 8,-445.7 77,-445.7 77,-426.7 8,-426.7"/>
<polygon fill="none" stroke="#000000" points="8,-426.7 8,-445.7 77,-445.7 77,-426.7 8,-426.7"/>
<text text-anchor="start" x="11" y="-432.8" font-family="Helvetica,sans-Serif" font-size="11.00" fill="#000000"> &#160;</text>
<polygon fill="#ffffff" stroke="transparent" points="77,-426.7 77,-445.7 118,-445.7 118,-426.7 77,-426.7"/>
<polygon fill="none" stroke="#000000" points="77,-426.7 77,-445.7 118,-445.7 118,-426.7 77,-426.7"/>
<text text-anchor="start" x="108.8862" y="-432.8" font-family="Helvetica,sans-Serif" font-size="11.00" fill="#000000"> &#160;</text>
<polygon fill="#ffffff" stroke="transparent" points="118,-426.7 118,-445.7 174,-445.7 174,-426.7 118,-426.7"/>
<polygon fill="none" stroke="#000000" points="118,-426.7 118,-445.7 174,-445.7 174,-426.7 118,-426.7"/>
<text text-anchor="start" x="149.2904" y="-432.8" font-family="Helvetica,sans-Serif" font-size="11.00" fill="#000000">11 &gt;</text>
</a>
</g>
</g>
<!-- attendee_audit&#45;&gt;audit_revision -->
<g id="edge1" class="edge">
<title>attendee_audit:w&#45;&gt;audit_revision:e</title>
<path fill="none" stroke="#000000" d="M295.8039,-1289.6145C259.5216,-1289.0344 238.616,-1284.6097 215,-1251.7 164.6606,-1181.5504 260.3425,-475.7 174,-475.7"/>
<polygon fill="#000000" stroke="#000000" points="302.5001,-1289.6534 310.479,-1293.2999 306.5001,-1289.6767 310.5,-1289.7 310.5,-1289.7 310.5,-1289.7 306.5001,-1289.6767 310.521,-1286.1001 302.5001,-1289.6534 302.5001,-1289.6534"/>
<ellipse fill="none" stroke="#000000" cx="299.3002" cy="-1289.6348" rx="3.2" ry="3.2"/>
</g>
<!-- contributory_factor_audit -->
<g id="node3" class="node">
<title>contributory_factor_audit</title>
<g id="a_node3"><a xlink:href="../../tables/contributory_factor_audit.html" xlink:title="contributory_factor_audit" target="_top">
<polygon fill="#ffffff" stroke="transparent" points="275.5,-1180.2 275.5,-1241.2 485.5,-1241.2 485.5,-1180.2 275.5,-1180.2"/>
<polygon fill="#f5f5f5" stroke="transparent" points="275.5,-1217.7 275.5,-1240.7 485.5,-1240.7 485.5,-1217.7 275.5,-1217.7"/>
<polygon fill="none" stroke="#000000" points="275.5,-1217.7 275.5,-1240.7 485.5,-1240.7 485.5,-1217.7 275.5,-1217.7"/>
<text text-anchor="start" x="280.5" y="-1226.3" font-family="Helvetica,sans-Serif" font-weight="bold" font-size="11.00" fill="#000000">contributory_factor_audit</text>
<text text-anchor="start" x="451.0219" y="-1225.8" font-family="Helvetica,sans-Serif" font-size="11.00" fill="#000000">[table]</text>
<polygon fill="none" stroke="#000000" points="275.5,-1198.7 275.5,-1217.7 485.5,-1217.7 485.5,-1198.7 275.5,-1198.7"/>
<text text-anchor="start" x="278.5" y="-1204.8" font-family="Helvetica,sans-Serif" font-size="11.00" fill="#000000">...</text>
<polygon fill="#ffffff" stroke="transparent" points="275.5,-1179.7 275.5,-1198.7 378.5,-1198.7 378.5,-1179.7 275.5,-1179.7"/>
<polygon fill="none" stroke="#000000" points="275.5,-1179.7 275.5,-1198.7 378.5,-1198.7 378.5,-1179.7 275.5,-1179.7"/>
<text text-anchor="start" x="278.5" y="-1185.8" font-family="Helvetica,sans-Serif" font-size="11.00" fill="#000000">&lt; 1</text>
<polygon fill="#ffffff" stroke="transparent" points="378.5,-1179.7 378.5,-1198.7 431.5,-1198.7 431.5,-1179.7 378.5,-1179.7"/>
<polygon fill="none" stroke="#000000" points="378.5,-1179.7 378.5,-1198.7 431.5,-1198.7 431.5,-1179.7 378.5,-1179.7"/>
<text text-anchor="start" x="422.3862" y="-1185.8" font-family="Helvetica,sans-Serif" font-size="11.00" fill="#000000"> &#160;</text>
<polygon fill="#ffffff" stroke="transparent" points="431.5,-1179.7 431.5,-1198.7 485.5,-1198.7 485.5,-1179.7 431.5,-1179.7"/>
<polygon fill="none" stroke="#000000" points="431.5,-1179.7 431.5,-1198.7 485.5,-1198.7 485.5,-1179.7 431.5,-1179.7"/>
<text text-anchor="start" x="476.3862" y="-1185.8" font-family="Helvetica,sans-Serif" font-size="11.00" fill="#000000"> &#160;</text>
</a>
</g>
</g>
<!-- contributory_factor_audit&#45;&gt;audit_revision -->
<g id="edge2" class="edge">
<title>contributory_factor_audit:w&#45;&gt;audit_revision:e</title>
<path fill="none" stroke="#000000" d="M261.015,-1206.7681C239.422,-1203.6439 228.4581,-1192.4347 215,-1169.7 175.6509,-1103.228 251.2456,-475.7 174,-475.7"/>
<polygon fill="#000000" stroke="#000000" points="267.5165,-1207.1863 275.2688,-1211.2926 271.5083,-1207.4432 275.5,-1207.7 275.5,-1207.7 275.5,-1207.7 271.5083,-1207.4432 275.7312,-1204.1074 267.5165,-1207.1863 267.5165,-1207.1863"/>
<ellipse fill="none" stroke="#000000" cx="264.3231" cy="-1206.9809" rx="3.2" ry="3.2"/>
</g>
<!-- csip_record_audit -->
<g id="node4" class="node">
<title>csip_record_audit</title>
<g id="a_node4"><a xlink:href="../../tables/csip_record_audit.html" xlink:title="csip_record_audit" target="_top">
<polygon fill="#ffffff" stroke="transparent" points="302.5,-1098.2 302.5,-1159.2 458.5,-1159.2 458.5,-1098.2 302.5,-1098.2"/>
<polygon fill="#f5f5f5" stroke="transparent" points="302.5,-1135.7 302.5,-1158.7 458.5,-1158.7 458.5,-1135.7 302.5,-1135.7"/>
<polygon fill="none" stroke="#000000" points="302.5,-1135.7 302.5,-1158.7 458.5,-1158.7 458.5,-1135.7 302.5,-1135.7"/>
<text text-anchor="start" x="307.5" y="-1144.3" font-family="Helvetica,sans-Serif" font-weight="bold" font-size="11.00" fill="#000000">csip_record_audit</text>
<text text-anchor="start" x="424.0219" y="-1143.8" font-family="Helvetica,sans-Serif" font-size="11.00" fill="#000000">[table]</text>
<polygon fill="none" stroke="#000000" points="302.5,-1116.7 302.5,-1135.7 458.5,-1135.7 458.5,-1116.7 302.5,-1116.7"/>
<text text-anchor="start" x="305.5" y="-1122.8" font-family="Helvetica,sans-Serif" font-size="11.00" fill="#000000">...</text>
<polygon fill="#ffffff" stroke="transparent" points="302.5,-1097.7 302.5,-1116.7 378.5,-1116.7 378.5,-1097.7 302.5,-1097.7"/>
<polygon fill="none" stroke="#000000" points="302.5,-1097.7 302.5,-1116.7 378.5,-1116.7 378.5,-1097.7 302.5,-1097.7"/>
<text text-anchor="start" x="305.5" y="-1103.8" font-family="Helvetica,sans-Serif" font-size="11.00" fill="#000000">&lt; 1</text>
<polygon fill="#ffffff" stroke="transparent" points="378.5,-1097.7 378.5,-1116.7 418.5,-1116.7 418.5,-1097.7 378.5,-1097.7"/>
<polygon fill="none" stroke="#000000" points="378.5,-1097.7 378.5,-1116.7 418.5,-1116.7 418.5,-1097.7 378.5,-1097.7"/>
<text text-anchor="start" x="409.3862" y="-1103.8" font-family="Helvetica,sans-Serif" font-size="11.00" fill="#000000"> &#160;</text>
<polygon fill="#ffffff" stroke="transparent" points="418.5,-1097.7 418.5,-1116.7 458.5,-1116.7 458.5,-1097.7 418.5,-1097.7"/>
<polygon fill="none" stroke="#000000" points="418.5,-1097.7 418.5,-1116.7 458.5,-1116.7 458.5,-1097.7 418.5,-1097.7"/>
<text text-anchor="start" x="449.3862" y="-1103.8" font-family="Helvetica,sans-Serif" font-size="11.00" fill="#000000"> &#160;</text>
</a>
</g>
</g>
<!-- csip_record_audit&#45;&gt;audit_revision -->
<g id="edge3" class="edge">
<title>csip_record_audit:w&#45;&gt;audit_revision:e</title>
<path fill="none" stroke="#000000" d="M288.008,-1125.5032C255.0398,-1124.4306 236.4689,-1118.1577 215,-1087.7 175.7351,-1031.9952 242.1524,-475.7 174,-475.7"/>
<polygon fill="#000000" stroke="#000000" points="294.5007,-1125.5913 302.4511,-1129.2997 298.5004,-1125.6456 302.5,-1125.7 302.5,-1125.7 302.5,-1125.7 298.5004,-1125.6456 302.5489,-1122.1003 294.5007,-1125.5913 294.5007,-1125.5913"/>
<ellipse fill="none" stroke="#000000" cx="291.301" cy="-1125.5478" rx="3.2" ry="3.2"/>
</g>
<!-- decision_and_actions_audit -->
<g id="node5" class="node">
<title>decision_and_actions_audit</title>
<g id="a_node5"><a xlink:href="../../tables/decision_and_actions_audit.html" xlink:title="decision_and_actions_audit" target="_top">
<polygon fill="#ffffff" stroke="transparent" points="269.5,-1016.2 269.5,-1077.2 491.5,-1077.2 491.5,-1016.2 269.5,-1016.2"/>
<polygon fill="#f5f5f5" stroke="transparent" points="269.5,-1053.7 269.5,-1076.7 491.5,-1076.7 491.5,-1053.7 269.5,-1053.7"/>
<polygon fill="none" stroke="#000000" points="269.5,-1053.7 269.5,-1076.7 491.5,-1076.7 491.5,-1053.7 269.5,-1053.7"/>
<text text-anchor="start" x="274.5" y="-1062.3" font-family="Helvetica,sans-Serif" font-weight="bold" font-size="11.00" fill="#000000">decision_and_actions_audit</text>
<text text-anchor="start" x="457.0219" y="-1061.8" font-family="Helvetica,sans-Serif" font-size="11.00" fill="#000000">[table]</text>
<polygon fill="none" stroke="#000000" points="269.5,-1034.7 269.5,-1053.7 491.5,-1053.7 491.5,-1034.7 269.5,-1034.7"/>
<text text-anchor="start" x="272.5" y="-1040.8" font-family="Helvetica,sans-Serif" font-size="11.00" fill="#000000">...</text>
<polygon fill="#ffffff" stroke="transparent" points="269.5,-1015.7 269.5,-1034.7 378.5,-1034.7 378.5,-1015.7 269.5,-1015.7"/>
<polygon fill="none" stroke="#000000" points="269.5,-1015.7 269.5,-1034.7 378.5,-1034.7 378.5,-1015.7 269.5,-1015.7"/>
<text text-anchor="start" x="272.5" y="-1021.8" font-family="Helvetica,sans-Serif" font-size="11.00" fill="#000000">&lt; 1</text>
<polygon fill="#ffffff" stroke="transparent" points="378.5,-1015.7 378.5,-1034.7 434.5,-1034.7 434.5,-1015.7 378.5,-1015.7"/>
<polygon fill="none" stroke="#000000" points="378.5,-1015.7 378.5,-1034.7 434.5,-1034.7 434.5,-1015.7 378.5,-1015.7"/>
<text text-anchor="start" x="425.3862" y="-1021.8" font-family="Helvetica,sans-Serif" font-size="11.00" fill="#000000"> &#160;</text>
<polygon fill="#ffffff" stroke="transparent" points="434.5,-1015.7 434.5,-1034.7 491.5,-1034.7 491.5,-1015.7 434.5,-1015.7"/>
<polygon fill="none" stroke="#000000" points="434.5,-1015.7 434.5,-1034.7 491.5,-1034.7 491.5,-1015.7 434.5,-1015.7"/>
<text text-anchor="start" x="482.3862" y="-1021.8" font-family="Helvetica,sans-Serif" font-size="11.00" fill="#000000"> &#160;</text>
</a>
</g>
</g>
<!-- decision_and_actions_audit&#45;&gt;audit_revision -->
<g id="edge4" class="edge">
<title>decision_and_actions_audit:w&#45;&gt;audit_revision:e</title>
<path fill="none" stroke="#000000" d="M255.0336,-1042.4438C236.0388,-1038.7116 226.9694,-1026.6262 215,-1005.7 185.6743,-954.4296 233.0648,-475.7 174,-475.7"/>
<polygon fill="#000000" stroke="#000000" points="261.53,-1043.0079 269.1885,-1047.2865 265.515,-1043.3539 269.5,-1043.7 269.5,-1043.7 269.5,-1043.7 265.515,-1043.3539 269.8115,-1040.1135 261.53,-1043.0079 261.53,-1043.0079"/>
<ellipse fill="none" stroke="#000000" cx="258.342" cy="-1042.731" rx="3.2" ry="3.2"/>
</g>
<!-- identified_need_audit -->
<g id="node6" class="node">
<title>identified_need_audit</title>
<g id="a_node6"><a xlink:href="../../tables/identified_need_audit.html" xlink:title="identified_need_audit" target="_top">
<polygon fill="#ffffff" stroke="transparent" points="223,-530.7 223,-994.7 538,-994.7 538,-530.7 223,-530.7"/>
<polygon fill="#f5f5f5" stroke="transparent" points="225.5,-969.7 225.5,-992.7 536.5,-992.7 536.5,-969.7 225.5,-969.7"/>
<polygon fill="none" stroke="#000000" points="225.5,-969.7 225.5,-992.7 536.5,-992.7 536.5,-969.7 225.5,-969.7"/>
<text text-anchor="start" x="230.5" y="-978.3" font-family="Helvetica,sans-Serif" font-weight="bold" font-size="11.00" fill="#000000">identified_need_audit</text>
<text text-anchor="start" x="501.5437" y="-977.8" font-family="Helvetica,sans-Serif" font-size="11.00" fill="#000000">[table]</text>
<polygon fill="none" stroke="#000000" points="225.5,-947.7 225.5,-969.7 442.5,-969.7 442.5,-947.7 225.5,-947.7"/>
<image xlink:href="../../images/primaryKeys.png" width="11px" height="12px" preserveAspectRatio="xMinYMin meet" x="230.5" y="-964.7"/>
<text text-anchor="start" x="245.5" y="-954.8" font-family="Helvetica,sans-Serif" font-size="11.00" fill="#000000">rev_id</text>
<polygon fill="none" stroke="#000000" points="442.5,-947.7 442.5,-969.7 536.5,-969.7 536.5,-947.7 442.5,-947.7"/>
<text text-anchor="start" x="445.5" y="-955.4" font-family="Helvetica,sans-Serif" font-size="11.00" fill="#000000">int8[19]</text>
<polygon fill="none" stroke="#000000" points="225.5,-925.7 225.5,-947.7 442.5,-947.7 442.5,-925.7 225.5,-925.7"/>
<text text-anchor="start" x="245.5" y="-932.8" font-family="Helvetica,sans-Serif" font-size="11.00" fill="#000000">rev_type</text>
<polygon fill="none" stroke="#000000" points="442.5,-925.7 442.5,-947.7 536.5,-947.7 536.5,-925.7 442.5,-925.7"/>
<text text-anchor="start" x="445.5" y="-933.4" font-family="Helvetica,sans-Serif" font-size="11.00" fill="#000000">int2[5]</text>
<polygon fill="none" stroke="#000000" points="225.5,-903.7 225.5,-925.7 442.5,-925.7 442.5,-903.7 225.5,-903.7"/>
<image xlink:href="../../images/primaryKeys.png" width="11px" height="12px" preserveAspectRatio="xMinYMin meet" x="230.5" y="-920.7"/>
<text text-anchor="start" x="245.5" y="-910.8" font-family="Helvetica,sans-Serif" font-size="11.00" fill="#000000">identified_need_id</text>
<polygon fill="none" stroke="#000000" points="442.5,-903.7 442.5,-925.7 536.5,-925.7 536.5,-903.7 442.5,-903.7"/>
<text text-anchor="start" x="445.4758" y="-911.4" font-family="Helvetica,sans-Serif" font-size="11.00" fill="#000000">uuid[2147483647]</text>
<polygon fill="none" stroke="#000000" points="225.5,-881.7 225.5,-903.7 442.5,-903.7 442.5,-881.7 225.5,-881.7"/>
<image xlink:href="../../images/foreignKeys.png" width="11px" height="12px" preserveAspectRatio="xMinYMin meet" x="230.5" y="-898.7"/>
<text text-anchor="start" x="245.5" y="-888.8" font-family="Helvetica,sans-Serif" font-size="11.00" fill="#000000">plan_id</text>
<polygon fill="none" stroke="#000000" points="442.5,-881.7 442.5,-903.7 536.5,-903.7 536.5,-881.7 442.5,-881.7"/>
<text text-anchor="start" x="445.4758" y="-889.4" font-family="Helvetica,sans-Serif" font-size="11.00" fill="#000000">uuid[2147483647]</text>
<polygon fill="none" stroke="#000000" points="225.5,-859.7 225.5,-881.7 442.5,-881.7 442.5,-859.7 225.5,-859.7"/>
<text text-anchor="start" x="245.5" y="-866.8" font-family="Helvetica,sans-Serif" font-size="11.00" fill="#000000">identified_need</text>
<polygon fill="none" stroke="#000000" points="442.5,-859.7 442.5,-881.7 536.5,-881.7 536.5,-859.7 442.5,-859.7"/>
<text text-anchor="start" x="445.5" y="-867.4" font-family="Helvetica,sans-Serif" font-size="11.00" fill="#000000">text[2147483647]</text>
<polygon fill="none" stroke="#000000" points="225.5,-837.7 225.5,-859.7 442.5,-859.7 442.5,-837.7 225.5,-837.7"/>
<text text-anchor="start" x="245.5" y="-844.8" font-family="Helvetica,sans-Serif" font-size="11.00" fill="#000000">responsible_person</text>
<polygon fill="none" stroke="#000000" points="442.5,-837.7 442.5,-859.7 536.5,-859.7 536.5,-837.7 442.5,-837.7"/>
<text text-anchor="start" x="445.5" y="-845.4" font-family="Helvetica,sans-Serif" font-size="11.00" fill="#000000">varchar[100]</text>
<polygon fill="none" stroke="#000000" points="225.5,-815.7 225.5,-837.7 442.5,-837.7 442.5,-815.7 225.5,-815.7"/>
<text text-anchor="start" x="245.5" y="-822.8" font-family="Helvetica,sans-Serif" font-size="11.00" fill="#000000">created_date</text>
<polygon fill="none" stroke="#000000" points="442.5,-815.7 442.5,-837.7 536.5,-837.7 536.5,-815.7 442.5,-815.7"/>
<text text-anchor="start" x="445.5" y="-823.4" font-family="Helvetica,sans-Serif" font-size="11.00" fill="#000000">date[13]</text>
<polygon fill="none" stroke="#000000" points="225.5,-793.7 225.5,-815.7 442.5,-815.7 442.5,-793.7 225.5,-793.7"/>
<text text-anchor="start" x="245.5" y="-800.8" font-family="Helvetica,sans-Serif" font-size="11.00" fill="#000000">target_date</text>
<polygon fill="none" stroke="#000000" points="442.5,-793.7 442.5,-815.7 536.5,-815.7 536.5,-793.7 442.5,-793.7"/>
<text text-anchor="start" x="445.5" y="-801.4" font-family="Helvetica,sans-Serif" font-size="11.00" fill="#000000">date[13]</text>
<polygon fill="none" stroke="#000000" points="225.5,-771.7 225.5,-793.7 442.5,-793.7 442.5,-771.7 225.5,-771.7"/>
<text text-anchor="start" x="245.5" y="-778.8" font-family="Helvetica,sans-Serif" font-size="11.00" fill="#000000">closed_date</text>
<polygon fill="none" stroke="#000000" points="442.5,-771.7 442.5,-793.7 536.5,-793.7 536.5,-771.7 442.5,-771.7"/>
<text text-anchor="start" x="445.5" y="-779.4" font-family="Helvetica,sans-Serif" font-size="11.00" fill="#000000">date[13]</text>
<polygon fill="none" stroke="#000000" points="225.5,-749.7 225.5,-771.7 442.5,-771.7 442.5,-749.7 225.5,-749.7"/>
<text text-anchor="start" x="245.5" y="-756.8" font-family="Helvetica,sans-Serif" font-size="11.00" fill="#000000">intervention</text>
<polygon fill="none" stroke="#000000" points="442.5,-749.7 442.5,-771.7 536.5,-771.7 536.5,-749.7 442.5,-749.7"/>
<text text-anchor="start" x="445.5" y="-757.4" font-family="Helvetica,sans-Serif" font-size="11.00" fill="#000000">text[2147483647]</text>
<polygon fill="none" stroke="#000000" points="225.5,-727.7 225.5,-749.7 442.5,-749.7 442.5,-727.7 225.5,-727.7"/>
<text text-anchor="start" x="245.5" y="-734.8" font-family="Helvetica,sans-Serif" font-size="11.00" fill="#000000">progression</text>
<polygon fill="none" stroke="#000000" points="442.5,-727.7 442.5,-749.7 536.5,-749.7 536.5,-727.7 442.5,-727.7"/>
<text text-anchor="start" x="445.5" y="-735.4" font-family="Helvetica,sans-Serif" font-size="11.00" fill="#000000">text[2147483647]</text>
<polygon fill="none" stroke="#000000" points="225.5,-705.7 225.5,-727.7 442.5,-727.7 442.5,-705.7 225.5,-705.7"/>
<text text-anchor="start" x="245.5" y="-712.8" font-family="Helvetica,sans-Serif" font-size="11.00" fill="#000000">identified_need_modified</text>
<polygon fill="none" stroke="#000000" points="442.5,-705.7 442.5,-727.7 536.5,-727.7 536.5,-705.7 442.5,-705.7"/>
<text text-anchor="start" x="445.5" y="-713.4" font-family="Helvetica,sans-Serif" font-size="11.00" fill="#000000">bool[1]</text>
<polygon fill="none" stroke="#000000" points="225.5,-683.7 225.5,-705.7 442.5,-705.7 442.5,-683.7 225.5,-683.7"/>
<text text-anchor="start" x="245.5" y="-690.8" font-family="Helvetica,sans-Serif" font-size="11.00" fill="#000000">responsible_person_modified</text>
<polygon fill="none" stroke="#000000" points="442.5,-683.7 442.5,-705.7 536.5,-705.7 536.5,-683.7 442.5,-683.7"/>
<text text-anchor="start" x="445.5" y="-691.4" font-family="Helvetica,sans-Serif" font-size="11.00" fill="#000000">bool[1]</text>
<polygon fill="none" stroke="#000000" points="225.5,-661.7 225.5,-683.7 442.5,-683.7 442.5,-661.7 225.5,-661.7"/>
<text text-anchor="start" x="245.5" y="-668.8" font-family="Helvetica,sans-Serif" font-size="11.00" fill="#000000">created_date_modified</text>
<polygon fill="none" stroke="#000000" points="442.5,-661.7 442.5,-683.7 536.5,-683.7 536.5,-661.7 442.5,-661.7"/>
<text text-anchor="start" x="445.5" y="-669.4" font-family="Helvetica,sans-Serif" font-size="11.00" fill="#000000">bool[1]</text>
<polygon fill="none" stroke="#000000" points="225.5,-639.7 225.5,-661.7 442.5,-661.7 442.5,-639.7 225.5,-639.7"/>
<text text-anchor="start" x="245.5" y="-646.8" font-family="Helvetica,sans-Serif" font-size="11.00" fill="#000000">target_date_modified</text>
<polygon fill="none" stroke="#000000" points="442.5,-639.7 442.5,-661.7 536.5,-661.7 536.5,-639.7 442.5,-639.7"/>
<text text-anchor="start" x="445.5" y="-647.4" font-family="Helvetica,sans-Serif" font-size="11.00" fill="#000000">bool[1]</text>
<polygon fill="none" stroke="#000000" points="225.5,-617.7 225.5,-639.7 442.5,-639.7 442.5,-617.7 225.5,-617.7"/>
<text text-anchor="start" x="245.5" y="-624.8" font-family="Helvetica,sans-Serif" font-size="11.00" fill="#000000">closed_date_modified</text>
<polygon fill="none" stroke="#000000" points="442.5,-617.7 442.5,-639.7 536.5,-639.7 536.5,-617.7 442.5,-617.7"/>
<text text-anchor="start" x="445.5" y="-625.4" font-family="Helvetica,sans-Serif" font-size="11.00" fill="#000000">bool[1]</text>
<polygon fill="none" stroke="#000000" points="225.5,-595.7 225.5,-617.7 442.5,-617.7 442.5,-595.7 225.5,-595.7"/>
<text text-anchor="start" x="245.5" y="-602.8" font-family="Helvetica,sans-Serif" font-size="11.00" fill="#000000">intervention_modified</text>
<polygon fill="none" stroke="#000000" points="442.5,-595.7 442.5,-617.7 536.5,-617.7 536.5,-595.7 442.5,-595.7"/>
<text text-anchor="start" x="445.5" y="-603.4" font-family="Helvetica,sans-Serif" font-size="11.00" fill="#000000">bool[1]</text>
<polygon fill="none" stroke="#000000" points="225.5,-573.7 225.5,-595.7 442.5,-595.7 442.5,-573.7 225.5,-573.7"/>
<text text-anchor="start" x="245.5" y="-580.8" font-family="Helvetica,sans-Serif" font-size="11.00" fill="#000000">progression_modified</text>
<polygon fill="none" stroke="#000000" points="442.5,-573.7 442.5,-595.7 536.5,-595.7 536.5,-573.7 442.5,-573.7"/>
<text text-anchor="start" x="445.5" y="-581.4" font-family="Helvetica,sans-Serif" font-size="11.00" fill="#000000">bool[1]</text>
<polygon fill="none" stroke="#000000" points="225.5,-551.7 225.5,-573.7 442.5,-573.7 442.5,-551.7 225.5,-551.7"/>
<image xlink:href="../../images/foreignKeys.png" width="11px" height="12px" preserveAspectRatio="xMinYMin meet" x="230.5" y="-568.7"/>
<text text-anchor="start" x="245.5" y="-558.8" font-family="Helvetica,sans-Serif" font-size="11.00" fill="#000000">legacy_id</text>
<polygon fill="none" stroke="#000000" points="442.5,-551.7 442.5,-573.7 536.5,-573.7 536.5,-551.7 442.5,-551.7"/>
<text text-anchor="start" x="445.5" y="-559.4" font-family="Helvetica,sans-Serif" font-size="11.00" fill="#000000">int8[19]</text>
<polygon fill="#ffffff" stroke="transparent" points="225.5,-532.7 225.5,-551.7 338.5,-551.7 338.5,-532.7 225.5,-532.7"/>
<polygon fill="none" stroke="#000000" points="225.5,-532.7 225.5,-551.7 338.5,-551.7 338.5,-532.7 225.5,-532.7"/>
<text text-anchor="start" x="228.5" y="-538.8" font-family="Helvetica,sans-Serif" font-size="11.00" fill="#000000">&lt; 1</text>
<polygon fill="#ffffff" stroke="transparent" points="338.5,-532.7 338.5,-551.7 442.5,-551.7 442.5,-532.7 338.5,-532.7"/>
<polygon fill="none" stroke="#000000" points="338.5,-532.7 338.5,-551.7 442.5,-551.7 442.5,-532.7 338.5,-532.7"/>
<text text-anchor="start" x="433.3862" y="-538.8" font-family="Helvetica,sans-Serif" font-size="11.00" fill="#000000"> &#160;</text>
<polygon fill="#ffffff" stroke="transparent" points="442.5,-532.7 442.5,-551.7 536.5,-551.7 536.5,-532.7 442.5,-532.7"/>
<polygon fill="none" stroke="#000000" points="442.5,-532.7 442.5,-551.7 536.5,-551.7 536.5,-532.7 442.5,-532.7"/>
<text text-anchor="start" x="517.9053" y="-538.8" font-family="Helvetica,sans-Serif" font-size="11.00" fill="#000000">0 &gt;</text>
<polygon fill="none" stroke="#000000" stroke-width="2" points="224,-531.7 224,-993.7 537,-993.7 537,-531.7 224,-531.7"/>
</a>
</g>
</g>
<!-- identified_need_audit&#45;&gt;audit_revision -->
<g id="edge5" class="edge">
<title>identified_need_audit:w&#45;&gt;audit_revision:e</title>
<path fill="none" stroke="#000000" d="M211.0912,-955.0899C133.5512,-910.8908 276.4603,-475.7 174,-475.7"/>
<polygon fill="#000000" stroke="#000000" points="217.7399,-956.7557 224.6251,-962.1921 221.6199,-957.7278 225.5,-958.7 225.5,-958.7 225.5,-958.7 221.6199,-957.7278 226.3749,-955.2079 217.7399,-956.7557 217.7399,-956.7557"/>
<ellipse fill="none" stroke="#000000" cx="214.6358" cy="-955.9779" rx="3.2" ry="3.2"/>
</g>
<!-- interview_audit -->
<g id="node7" class="node">
<title>interview_audit</title>
<g id="a_node7"><a xlink:href="../../tables/interview_audit.html" xlink:title="interview_audit" target="_top">
<polygon fill="#ffffff" stroke="transparent" points="309,-448.2 309,-509.2 452,-509.2 452,-448.2 309,-448.2"/>
<polygon fill="#f5f5f5" stroke="transparent" points="309.5,-485.7 309.5,-508.7 452.5,-508.7 452.5,-485.7 309.5,-485.7"/>
<polygon fill="none" stroke="#000000" points="309.5,-485.7 309.5,-508.7 452.5,-508.7 452.5,-485.7 309.5,-485.7"/>
<text text-anchor="start" x="314.5" y="-494.3" font-family="Helvetica,sans-Serif" font-weight="bold" font-size="11.00" fill="#000000">interview_audit</text>
<text text-anchor="start" x="418.0219" y="-493.8" font-family="Helvetica,sans-Serif" font-size="11.00" fill="#000000">[table]</text>
<polygon fill="none" stroke="#000000" points="309.5,-466.7 309.5,-485.7 452.5,-485.7 452.5,-466.7 309.5,-466.7"/>
<text text-anchor="start" x="312.5" y="-472.8" font-family="Helvetica,sans-Serif" font-size="11.00" fill="#000000">...</text>
<polygon fill="#ffffff" stroke="transparent" points="309.5,-447.7 309.5,-466.7 379.5,-466.7 379.5,-447.7 309.5,-447.7"/>
<polygon fill="none" stroke="#000000" points="309.5,-447.7 309.5,-466.7 379.5,-466.7 379.5,-447.7 309.5,-447.7"/>
<text text-anchor="start" x="312.5" y="-453.8" font-family="Helvetica,sans-Serif" font-size="11.00" fill="#000000">&lt; 1</text>
<polygon fill="#ffffff" stroke="transparent" points="379.5,-447.7 379.5,-466.7 415.5,-466.7 415.5,-447.7 379.5,-447.7"/>
<polygon fill="none" stroke="#000000" points="379.5,-447.7 379.5,-466.7 415.5,-466.7 415.5,-447.7 379.5,-447.7"/>
<text text-anchor="start" x="406.3862" y="-453.8" font-family="Helvetica,sans-Serif" font-size="11.00" fill="#000000"> &#160;</text>
<polygon fill="#ffffff" stroke="transparent" points="415.5,-447.7 415.5,-466.7 452.5,-466.7 452.5,-447.7 415.5,-447.7"/>
<polygon fill="none" stroke="#000000" points="415.5,-447.7 415.5,-466.7 452.5,-466.7 452.5,-447.7 415.5,-447.7"/>
<text text-anchor="start" x="443.3862" y="-453.8" font-family="Helvetica,sans-Serif" font-size="11.00" fill="#000000"> &#160;</text>
</a>
</g>
</g>
<!-- interview_audit&#45;&gt;audit_revision -->
<g id="edge6" class="edge">
<title>interview_audit:w&#45;&gt;audit_revision:e</title>
<path fill="none" stroke="#000000" d="M294.9173,-475.7C246.3565,-475.7 229.0469,-475.7 174,-475.7"/>
<polygon fill="#000000" stroke="#000000" points="301.5,-475.7001 309.5,-479.3 305.5,-475.7 309.5,-475.7 309.5,-475.7 309.5,-475.7 305.5,-475.7 309.5,-472.1 301.5,-475.7001 301.5,-475.7001"/>
<ellipse fill="none" stroke="#000000" cx="298.3" cy="-475.7001" rx="3.2" ry="3.2"/>
</g>
<!-- investigation_audit -->
<g id="node8" class="node">
<title>investigation_audit</title>
<g id="a_node8"><a xlink:href="../../tables/investigation_audit.html" xlink:title="investigation_audit" target="_top">
<polygon fill="#ffffff" stroke="transparent" points="296,-366.2 296,-427.2 465,-427.2 465,-366.2 296,-366.2"/>
<polygon fill="#f5f5f5" stroke="transparent" points="296.5,-403.7 296.5,-426.7 465.5,-426.7 465.5,-403.7 296.5,-403.7"/>
<polygon fill="none" stroke="#000000" points="296.5,-403.7 296.5,-426.7 465.5,-426.7 465.5,-403.7 296.5,-403.7"/>
<text text-anchor="start" x="301.5" y="-412.3" font-family="Helvetica,sans-Serif" font-weight="bold" font-size="11.00" fill="#000000">investigation_audit</text>
<text text-anchor="start" x="431.0219" y="-411.8" font-family="Helvetica,sans-Serif" font-size="11.00" fill="#000000">[table]</text>
<polygon fill="none" stroke="#000000" points="296.5,-384.7 296.5,-403.7 465.5,-403.7 465.5,-384.7 296.5,-384.7"/>
<text text-anchor="start" x="299.5" y="-390.8" font-family="Helvetica,sans-Serif" font-size="11.00" fill="#000000">...</text>
<polygon fill="#ffffff" stroke="transparent" points="296.5,-365.7 296.5,-384.7 379.5,-384.7 379.5,-365.7 296.5,-365.7"/>
<polygon fill="none" stroke="#000000" points="296.5,-365.7 296.5,-384.7 379.5,-384.7 379.5,-365.7 296.5,-365.7"/>
<text text-anchor="start" x="299.5" y="-371.8" font-family="Helvetica,sans-Serif" font-size="11.00" fill="#000000">&lt; 1</text>
<polygon fill="#ffffff" stroke="transparent" points="379.5,-365.7 379.5,-384.7 422.5,-384.7 422.5,-365.7 379.5,-365.7"/>
<polygon fill="none" stroke="#000000" points="379.5,-365.7 379.5,-384.7 422.5,-384.7 422.5,-365.7 379.5,-365.7"/>
<text text-anchor="start" x="413.3862" y="-371.8" font-family="Helvetica,sans-Serif" font-size="11.00" fill="#000000"> &#160;</text>
<polygon fill="#ffffff" stroke="transparent" points="422.5,-365.7 422.5,-384.7 465.5,-384.7 465.5,-365.7 422.5,-365.7"/>
<polygon fill="none" stroke="#000000" points="422.5,-365.7 422.5,-384.7 465.5,-384.7 465.5,-365.7 422.5,-365.7"/>
<text text-anchor="start" x="456.3862" y="-371.8" font-family="Helvetica,sans-Serif" font-size="11.00" fill="#000000"> &#160;</text>
</a>
</g>
</g>
<!-- investigation_audit&#45;&gt;audit_revision -->
<g id="edge7" class="edge">
<title>investigation_audit:w&#45;&gt;audit_revision:e</title>
<path fill="none" stroke="#000000" d="M281.7712,-394.7227C253.0436,-399.0925 244.0272,-416.9229 215,-437.7 194.7969,-452.161 198.8452,-475.7 174,-475.7"/>
<polygon fill="#000000" stroke="#000000" points="288.5192,-394.2542 296.7494,-397.2914 292.5096,-393.9771 296.5,-393.7 296.5,-393.7 296.5,-393.7 292.5096,-393.9771 296.2506,-390.1086 288.5192,-394.2542 288.5192,-394.2542"/>
<ellipse fill="none" stroke="#000000" cx="285.3269" cy="-394.4759" rx="3.2" ry="3.2"/>
</g>
<!-- plan_audit -->
<g id="node9" class="node">
<title>plan_audit</title>
<g id="a_node9"><a xlink:href="../../tables/plan_audit.html" xlink:title="plan_audit" target="_top">
<polygon fill="#ffffff" stroke="transparent" points="326,-284.2 326,-345.2 435,-345.2 435,-284.2 326,-284.2"/>
<polygon fill="#f5f5f5" stroke="transparent" points="326.5,-321.7 326.5,-344.7 435.5,-344.7 435.5,-321.7 326.5,-321.7"/>
<polygon fill="none" stroke="#000000" points="326.5,-321.7 326.5,-344.7 435.5,-344.7 435.5,-321.7 326.5,-321.7"/>
<text text-anchor="start" x="331.5" y="-330.3" font-family="Helvetica,sans-Serif" font-weight="bold" font-size="11.00" fill="#000000">plan_audit</text>
<text text-anchor="start" x="401.0219" y="-329.8" font-family="Helvetica,sans-Serif" font-size="11.00" fill="#000000">[table]</text>
<polygon fill="none" stroke="#000000" points="326.5,-302.7 326.5,-321.7 435.5,-321.7 435.5,-302.7 326.5,-302.7"/>
<text text-anchor="start" x="329.5" y="-308.8" font-family="Helvetica,sans-Serif" font-size="11.00" fill="#000000">...</text>
<polygon fill="#ffffff" stroke="transparent" points="326.5,-283.7 326.5,-302.7 379.5,-302.7 379.5,-283.7 326.5,-283.7"/>
<polygon fill="none" stroke="#000000" points="326.5,-283.7 326.5,-302.7 379.5,-302.7 379.5,-283.7 326.5,-283.7"/>
<text text-anchor="start" x="329.5" y="-289.8" font-family="Helvetica,sans-Serif" font-size="11.00" fill="#000000">&lt; 1</text>
<polygon fill="#ffffff" stroke="transparent" points="379.5,-283.7 379.5,-302.7 407.5,-302.7 407.5,-283.7 379.5,-283.7"/>
<polygon fill="none" stroke="#000000" points="379.5,-283.7 379.5,-302.7 407.5,-302.7 407.5,-283.7 379.5,-283.7"/>
<text text-anchor="start" x="398.3862" y="-289.8" font-family="Helvetica,sans-Serif" font-size="11.00" fill="#000000"> &#160;</text>
<polygon fill="#ffffff" stroke="transparent" points="407.5,-283.7 407.5,-302.7 435.5,-302.7 435.5,-283.7 407.5,-283.7"/>
<polygon fill="none" stroke="#000000" points="407.5,-283.7 407.5,-302.7 435.5,-302.7 435.5,-283.7 407.5,-283.7"/>
<text text-anchor="start" x="426.3862" y="-289.8" font-family="Helvetica,sans-Serif" font-size="11.00" fill="#000000"> &#160;</text>
</a>
</g>
</g>
<!-- plan_audit&#45;&gt;audit_revision -->
<g id="edge8" class="edge">
<title>plan_audit:w&#45;&gt;audit_revision:e</title>
<path fill="none" stroke="#000000" d="M312.0377,-311.8743C268.9807,-313.0483 248.2622,-320.8496 215,-355.7 176.087,-396.471 230.3604,-475.7 174,-475.7"/>
<polygon fill="#000000" stroke="#000000" points="318.5006,-311.7964 326.5434,-315.2997 322.5003,-311.7482 326.5,-311.7 326.5,-311.7 326.5,-311.7 322.5003,-311.7482 326.4566,-308.1003 318.5006,-311.7964 318.5006,-311.7964"/>
<ellipse fill="none" stroke="#000000" cx="315.3008" cy="-311.835" rx="3.2" ry="3.2"/>
</g>
<!-- referral_audit -->
<g id="node10" class="node">
<title>referral_audit</title>
<g id="a_node10"><a xlink:href="../../tables/referral_audit.html" xlink:title="referral_audit" target="_top">
<polygon fill="#ffffff" stroke="transparent" points="315,-202.2 315,-263.2 446,-263.2 446,-202.2 315,-202.2"/>
<polygon fill="#f5f5f5" stroke="transparent" points="315.5,-239.7 315.5,-262.7 446.5,-262.7 446.5,-239.7 315.5,-239.7"/>
<polygon fill="none" stroke="#000000" points="315.5,-239.7 315.5,-262.7 446.5,-262.7 446.5,-239.7 315.5,-239.7"/>
<text text-anchor="start" x="320.5" y="-248.3" font-family="Helvetica,sans-Serif" font-weight="bold" font-size="11.00" fill="#000000">referral_audit</text>
<text text-anchor="start" x="412.0219" y="-247.8" font-family="Helvetica,sans-Serif" font-size="11.00" fill="#000000">[table]</text>
<polygon fill="none" stroke="#000000" points="315.5,-220.7 315.5,-239.7 446.5,-239.7 446.5,-220.7 315.5,-220.7"/>
<text text-anchor="start" x="318.5" y="-226.8" font-family="Helvetica,sans-Serif" font-size="11.00" fill="#000000">...</text>
<polygon fill="#ffffff" stroke="transparent" points="315.5,-201.7 315.5,-220.7 379.5,-220.7 379.5,-201.7 315.5,-201.7"/>
<polygon fill="none" stroke="#000000" points="315.5,-201.7 315.5,-220.7 379.5,-220.7 379.5,-201.7 315.5,-201.7"/>
<text text-anchor="start" x="318.5" y="-207.8" font-family="Helvetica,sans-Serif" font-size="11.00" fill="#000000">&lt; 1</text>
<polygon fill="#ffffff" stroke="transparent" points="379.5,-201.7 379.5,-220.7 412.5,-220.7 412.5,-201.7 379.5,-201.7"/>
<polygon fill="none" stroke="#000000" points="379.5,-201.7 379.5,-220.7 412.5,-220.7 412.5,-201.7 379.5,-201.7"/>
<text text-anchor="start" x="403.3862" y="-207.8" font-family="Helvetica,sans-Serif" font-size="11.00" fill="#000000"> &#160;</text>
<polygon fill="#ffffff" stroke="transparent" points="412.5,-201.7 412.5,-220.7 446.5,-220.7 446.5,-201.7 412.5,-201.7"/>
<polygon fill="none" stroke="#000000" points="412.5,-201.7 412.5,-220.7 446.5,-220.7 446.5,-201.7 412.5,-201.7"/>
<text text-anchor="start" x="437.3862" y="-207.8" font-family="Helvetica,sans-Serif" font-size="11.00" fill="#000000"> &#160;</text>
</a>
</g>
</g>
<!-- referral_audit&#45;&gt;audit_revision -->
<g id="edge9" class="edge">
<title>referral_audit:w&#45;&gt;audit_revision:e</title>
<path fill="none" stroke="#000000" d="M300.9511,-229.9325C262.1811,-231.333 242.3987,-239.7621 215,-273.7 157.4552,-344.979 265.6084,-475.7 174,-475.7"/>
<polygon fill="#000000" stroke="#000000" points="307.501,-229.8279 315.5576,-233.2995 311.5005,-229.764 315.5,-229.7 315.5,-229.7 315.5,-229.7 311.5005,-229.764 315.4424,-226.1005 307.501,-229.8279 307.501,-229.8279"/>
<ellipse fill="none" stroke="#000000" cx="304.3014" cy="-229.8791" rx="3.2" ry="3.2"/>
</g>
<!-- review_audit -->
<g id="node11" class="node">
<title>review_audit</title>
<g id="a_node11"><a xlink:href="../../tables/review_audit.html" xlink:title="review_audit" target="_top">
<polygon fill="#ffffff" stroke="transparent" points="318,-120.2 318,-181.2 443,-181.2 443,-120.2 318,-120.2"/>
<polygon fill="#f5f5f5" stroke="transparent" points="318.5,-157.7 318.5,-180.7 443.5,-180.7 443.5,-157.7 318.5,-157.7"/>
<polygon fill="none" stroke="#000000" points="318.5,-157.7 318.5,-180.7 443.5,-180.7 443.5,-157.7 318.5,-157.7"/>
<text text-anchor="start" x="323.5" y="-166.3" font-family="Helvetica,sans-Serif" font-weight="bold" font-size="11.00" fill="#000000">review_audit</text>
<text text-anchor="start" x="409.0219" y="-165.8" font-family="Helvetica,sans-Serif" font-size="11.00" fill="#000000">[table]</text>
<polygon fill="none" stroke="#000000" points="318.5,-138.7 318.5,-157.7 443.5,-157.7 443.5,-138.7 318.5,-138.7"/>
<text text-anchor="start" x="321.5" y="-144.8" font-family="Helvetica,sans-Serif" font-size="11.00" fill="#000000">...</text>
<polygon fill="#ffffff" stroke="transparent" points="318.5,-119.7 318.5,-138.7 379.5,-138.7 379.5,-119.7 318.5,-119.7"/>
<polygon fill="none" stroke="#000000" points="318.5,-119.7 318.5,-138.7 379.5,-138.7 379.5,-119.7 318.5,-119.7"/>
<text text-anchor="start" x="321.5" y="-125.8" font-family="Helvetica,sans-Serif" font-size="11.00" fill="#000000">&lt; 1</text>
<polygon fill="#ffffff" stroke="transparent" points="379.5,-119.7 379.5,-138.7 411.5,-138.7 411.5,-119.7 379.5,-119.7"/>
<polygon fill="none" stroke="#000000" points="379.5,-119.7 379.5,-138.7 411.5,-138.7 411.5,-119.7 379.5,-119.7"/>
<text text-anchor="start" x="402.3862" y="-125.8" font-family="Helvetica,sans-Serif" font-size="11.00" fill="#000000"> &#160;</text>
<polygon fill="#ffffff" stroke="transparent" points="411.5,-119.7 411.5,-138.7 443.5,-138.7 443.5,-119.7 411.5,-119.7"/>
<polygon fill="none" stroke="#000000" points="411.5,-119.7 411.5,-138.7 443.5,-138.7 443.5,-119.7 411.5,-119.7"/>
<text text-anchor="start" x="434.3862" y="-125.8" font-family="Helvetica,sans-Serif" font-size="11.00" fill="#000000"> &#160;</text>
</a>
</g>
</g>
<!-- review_audit&#45;&gt;audit_revision -->
<g id="edge10" class="edge">
<title>review_audit:w&#45;&gt;audit_revision:e</title>
<path fill="none" stroke="#000000" d="M304.0687,-147.8682C263.762,-148.9557 242.3951,-156.1162 215,-191.7 176.1011,-242.2263 237.7654,-475.7 174,-475.7"/>
<polygon fill="#000000" stroke="#000000" points="310.5005,-147.7933 318.542,-151.2998 314.5003,-147.7467 318.5,-147.7 318.5,-147.7 318.5,-147.7 314.5003,-147.7467 318.458,-144.1002 310.5005,-147.7933 310.5005,-147.7933"/>
<ellipse fill="none" stroke="#000000" cx="307.3008" cy="-147.8306" rx="3.2" ry="3.2"/>
</g>
<!-- safer_custody_screening_outcome_audit -->
<g id="node12" class="node">
<title>safer_custody_screening_outcome_audit</title>
<g id="a_node12"><a xlink:href="../../tables/safer_custody_screening_outcome_audit.html" xlink:title="safer_custody_screening_outcome_audit" target="_top">
<polygon fill="#ffffff" stroke="transparent" points="225.5,-38.2 225.5,-99.2 535.5,-99.2 535.5,-38.2 225.5,-38.2"/>
<polygon fill="#f5f5f5" stroke="transparent" points="225.5,-75.7 225.5,-98.7 535.5,-98.7 535.5,-75.7 225.5,-75.7"/>
<polygon fill="none" stroke="#000000" points="225.5,-75.7 225.5,-98.7 535.5,-98.7 535.5,-75.7 225.5,-75.7"/>
<text text-anchor="start" x="230.5" y="-84.3" font-family="Helvetica,sans-Serif" font-weight="bold" font-size="11.00" fill="#000000">safer_custody_screening_outcome_audit</text>
<text text-anchor="start" x="501.0219" y="-83.8" font-family="Helvetica,sans-Serif" font-size="11.00" fill="#000000">[table]</text>
<polygon fill="none" stroke="#000000" points="225.5,-56.7 225.5,-75.7 535.5,-75.7 535.5,-56.7 225.5,-56.7"/>
<text text-anchor="start" x="228.5" y="-62.8" font-family="Helvetica,sans-Serif" font-size="11.00" fill="#000000">...</text>
<polygon fill="#ffffff" stroke="transparent" points="225.5,-37.7 225.5,-56.7 378.5,-56.7 378.5,-37.7 225.5,-37.7"/>
<polygon fill="none" stroke="#000000" points="225.5,-37.7 225.5,-56.7 378.5,-56.7 378.5,-37.7 225.5,-37.7"/>
<text text-anchor="start" x="228.5" y="-43.8" font-family="Helvetica,sans-Serif" font-size="11.00" fill="#000000">&lt; 1</text>
<polygon fill="#ffffff" stroke="transparent" points="378.5,-37.7 378.5,-56.7 456.5,-56.7 456.5,-37.7 378.5,-37.7"/>
<polygon fill="none" stroke="#000000" points="378.5,-37.7 378.5,-56.7 456.5,-56.7 456.5,-37.7 378.5,-37.7"/>
<text text-anchor="start" x="447.3862" y="-43.8" font-family="Helvetica,sans-Serif" font-size="11.00" fill="#000000"> &#160;</text>
<polygon fill="#ffffff" stroke="transparent" points="456.5,-37.7 456.5,-56.7 535.5,-56.7 535.5,-37.7 456.5,-37.7"/>
<polygon fill="none" stroke="#000000" points="456.5,-37.7 456.5,-56.7 535.5,-56.7 535.5,-37.7 456.5,-37.7"/>
<text text-anchor="start" x="526.3862" y="-43.8" font-family="Helvetica,sans-Serif" font-size="11.00" fill="#000000"> &#160;</text>
</a>
</g>
</g>
<!-- safer_custody_screening_outcome_audit&#45;&gt;audit_revision -->
<g id="edge11" class="edge">
<title>safer_custody_screening_outcome_audit:w&#45;&gt;audit_revision:e</title>
<path fill="none" stroke="#000000" d="M211.5753,-69.7579C148.3908,-112.3393 260.4466,-475.7 174,-475.7"/>
<polygon fill="#000000" stroke="#000000" points="217.8195,-67.9383 226.5072,-69.1562 221.6597,-66.8191 225.5,-65.7 225.5,-65.7 225.5,-65.7 221.6597,-66.8191 224.4928,-62.2438 217.8195,-67.9383 217.8195,-67.9383"/>
<ellipse fill="none" stroke="#000000" cx="214.7473" cy="-68.8336" rx="3.2" ry="3.2"/>
</g>
</g>
</svg>
