<?xml version="1.0" encoding="UTF-8" standalone="no"?>
<!DOCTYPE svg PUBLIC "-//W3C//DTD SVG 1.1//EN"
 "http://www.w3.org/Graphics/SVG/1.1/DTD/svg11.dtd">
<!-- Generated by graphviz version 2.40.1 (20161225.0304)
 -->
<!-- Title: oneDegreeRelationshipsDiagramImplied Pages: 1 -->
<svg width="496pt" height="355pt"
 viewBox="0.00 0.00 496.00 354.70" xmlns="http://www.w3.org/2000/svg" xmlns:xlink="http://www.w3.org/1999/xlink">
<g id="graph0" class="graph" transform="scale(1 1) rotate(0) translate(4 350.7)">
<title>oneDegreeRelationshipsDiagramImplied</title>
<polygon fill="#ffffff" stroke="transparent" points="-4,4 -4,-350.7 492,-350.7 492,4 -4,4"/>
<text text-anchor="middle" x="72.4936" y="-7.3" font-family="Helvetica,sans-Serif" font-size="11.00" fill="#000000">Generated by SchemaSpy</text>
<!-- identified_need -->
<g id="node1" class="node">
<title>identified_need</title>
<g id="a_node1"><a xlink:href="../../tables/identified_need.html" xlink:title="identified_need" target="_top">
<polygon fill="#ffffff" stroke="transparent" points="230,-54.7 230,-342.7 480,-342.7 480,-54.7 230,-54.7"/>
<polygon fill="#f5f5f5" stroke="transparent" points="232,-317.7 232,-340.7 478,-340.7 478,-317.7 232,-317.7"/>
<polygon fill="none" stroke="#000000" points="232,-317.7 232,-340.7 478,-340.7 478,-317.7 232,-317.7"/>
<text text-anchor="start" x="237" y="-326.3" font-family="Helvetica,sans-Serif" font-weight="bold" font-size="11.00" fill="#000000">identified_need</text>
<text text-anchor="start" x="443.0437" y="-325.8" font-family="Helvetica,sans-Serif" font-size="11.00" fill="#000000">[table]</text>
<polygon fill="none" stroke="#000000" points="232,-295.7 232,-317.7 384,-317.7 384,-295.7 232,-295.7"/>
<image xlink:href="../../images/primaryKeys.png" width="11px" height="12px" preserveAspectRatio="xMinYMin meet" x="237" y="-312.7"/>
<text text-anchor="start" x="252" y="-302.8" font-family="Helvetica,sans-Serif" font-size="11.00" fill="#000000">identified_need_id</text>
<polygon fill="none" stroke="#000000" points="384,-295.7 384,-317.7 478,-317.7 478,-295.7 384,-295.7"/>
<text text-anchor="start" x="386.9758" y="-303.4" font-family="Helvetica,sans-Serif" font-size="11.00" fill="#000000">uuid[2147483647]</text>
<polygon fill="#ffffff" stroke="transparent" points="232,-273.7 232,-295.7 384,-295.7 384,-273.7 232,-273.7"/>
<polygon fill="none" stroke="#000000" points="232,-273.7 232,-295.7 384,-295.7 384,-273.7 232,-273.7"/>
<image xlink:href="../../images/foreignKeys.png" width="11px" height="12px" preserveAspectRatio="xMinYMin meet" x="237" y="-290.7"/>
<text text-anchor="start" x="252" y="-280.8" font-family="Helvetica,sans-Serif" font-size="11.00" fill="#000000">plan_id</text>
<polygon fill="none" stroke="#000000" points="384,-273.7 384,-295.7 478,-295.7 478,-273.7 384,-273.7"/>
<text text-anchor="start" x="386.9758" y="-281.4" font-family="Helvetica,sans-Serif" font-size="11.00" fill="#000000">uuid[2147483647]</text>
<polygon fill="none" stroke="#000000" points="232,-251.7 232,-273.7 384,-273.7 384,-251.7 232,-251.7"/>
<text text-anchor="start" x="252" y="-258.8" font-family="Helvetica,sans-Serif" font-size="11.00" fill="#000000">identified_need</text>
<polygon fill="none" stroke="#000000" points="384,-251.7 384,-273.7 478,-273.7 478,-251.7 384,-251.7"/>
<text text-anchor="start" x="387" y="-259.4" font-family="Helvetica,sans-Serif" font-size="11.00" fill="#000000">text[2147483647]</text>
<polygon fill="none" stroke="#000000" points="232,-229.7 232,-251.7 384,-251.7 384,-229.7 232,-229.7"/>
<text text-anchor="start" x="252" y="-236.8" font-family="Helvetica,sans-Serif" font-size="11.00" fill="#000000">responsible_person</text>
<polygon fill="none" stroke="#000000" points="384,-229.7 384,-251.7 478,-251.7 478,-229.7 384,-229.7"/>
<text text-anchor="start" x="387" y="-237.4" font-family="Helvetica,sans-Serif" font-size="11.00" fill="#000000">varchar[100]</text>
<polygon fill="none" stroke="#000000" points="232,-207.7 232,-229.7 384,-229.7 384,-207.7 232,-207.7"/>
<text text-anchor="start" x="252" y="-214.8" font-family="Helvetica,sans-Serif" font-size="11.00" fill="#000000">created_date</text>
<polygon fill="none" stroke="#000000" points="384,-207.7 384,-229.7 478,-229.7 478,-207.7 384,-207.7"/>
<text text-anchor="start" x="387" y="-215.4" font-family="Helvetica,sans-Serif" font-size="11.00" fill="#000000">date[13]</text>
<polygon fill="none" stroke="#000000" points="232,-185.7 232,-207.7 384,-207.7 384,-185.7 232,-185.7"/>
<text text-anchor="start" x="252" y="-192.8" font-family="Helvetica,sans-Serif" font-size="11.00" fill="#000000">target_date</text>
<polygon fill="none" stroke="#000000" points="384,-185.7 384,-207.7 478,-207.7 478,-185.7 384,-185.7"/>
<text text-anchor="start" x="387" y="-193.4" font-family="Helvetica,sans-Serif" font-size="11.00" fill="#000000">date[13]</text>
<polygon fill="none" stroke="#000000" points="232,-163.7 232,-185.7 384,-185.7 384,-163.7 232,-163.7"/>
<text text-anchor="start" x="252" y="-170.8" font-family="Helvetica,sans-Serif" font-size="11.00" fill="#000000">closed_date</text>
<polygon fill="none" stroke="#000000" points="384,-163.7 384,-185.7 478,-185.7 478,-163.7 384,-163.7"/>
<text text-anchor="start" x="387" y="-171.4" font-family="Helvetica,sans-Serif" font-size="11.00" fill="#000000">date[13]</text>
<polygon fill="none" stroke="#000000" points="232,-141.7 232,-163.7 384,-163.7 384,-141.7 232,-141.7"/>
<text text-anchor="start" x="252" y="-148.8" font-family="Helvetica,sans-Serif" font-size="11.00" fill="#000000">intervention</text>
<polygon fill="none" stroke="#000000" points="384,-141.7 384,-163.7 478,-163.7 478,-141.7 384,-141.7"/>
<text text-anchor="start" x="387" y="-149.4" font-family="Helvetica,sans-Serif" font-size="11.00" fill="#000000">text[2147483647]</text>
<polygon fill="none" stroke="#000000" points="232,-119.7 232,-141.7 384,-141.7 384,-119.7 232,-119.7"/>
<text text-anchor="start" x="252" y="-126.8" font-family="Helvetica,sans-Serif" font-size="11.00" fill="#000000">progression</text>
<polygon fill="none" stroke="#000000" points="384,-119.7 384,-141.7 478,-141.7 478,-119.7 384,-119.7"/>
<text text-anchor="start" x="387" y="-127.4" font-family="Helvetica,sans-Serif" font-size="11.00" fill="#000000">text[2147483647]</text>
<polygon fill="none" stroke="#000000" points="232,-97.7 232,-119.7 384,-119.7 384,-97.7 232,-97.7"/>
<text text-anchor="start" x="252" y="-104.8" font-family="Helvetica,sans-Serif" font-size="11.00" fill="#000000">version</text>
<polygon fill="none" stroke="#000000" points="384,-97.7 384,-119.7 478,-119.7 478,-97.7 384,-97.7"/>
<text text-anchor="start" x="387" y="-105.4" font-family="Helvetica,sans-Serif" font-size="11.00" fill="#000000">int4[10]</text>
<polygon fill="#ffffff" stroke="transparent" points="232,-75.7 232,-97.7 384,-97.7 384,-75.7 232,-75.7"/>
<polygon fill="none" stroke="#000000" points="232,-75.7 232,-97.7 384,-97.7 384,-75.7 232,-75.7"/>
<image xlink:href="../../images/foreignKeys.png" width="11px" height="12px" preserveAspectRatio="xMinYMin meet" x="237" y="-92.7"/>
<text text-anchor="start" x="252" y="-82.8" font-family="Helvetica,sans-Serif" font-size="11.00" fill="#000000">legacy_id</text>
<polygon fill="none" stroke="#000000" points="384,-75.7 384,-97.7 478,-97.7 478,-75.7 384,-75.7"/>
<text text-anchor="start" x="387" y="-83.4" font-family="Helvetica,sans-Serif" font-size="11.00" fill="#000000">int8[19]</text>
<polygon fill="#ffffff" stroke="transparent" points="232,-56.7 232,-75.7 312,-75.7 312,-56.7 232,-56.7"/>
<polygon fill="none" stroke="#000000" points="232,-56.7 232,-75.7 312,-75.7 312,-56.7 232,-56.7"/>
<text text-anchor="start" x="235" y="-62.8" font-family="Helvetica,sans-Serif" font-size="11.00" fill="#000000">&lt; 2</text>
<polygon fill="#ffffff" stroke="transparent" points="312,-56.7 312,-75.7 384,-75.7 384,-56.7 312,-56.7"/>
<polygon fill="none" stroke="#000000" points="312,-56.7 312,-75.7 384,-75.7 384,-56.7 312,-56.7"/>
<text text-anchor="start" x="374.8862" y="-62.8" font-family="Helvetica,sans-Serif" font-size="11.00" fill="#000000"> &#160;</text>
<polygon fill="#ffffff" stroke="transparent" points="384,-56.7 384,-75.7 478,-75.7 478,-56.7 384,-56.7"/>
<polygon fill="none" stroke="#000000" points="384,-56.7 384,-75.7 478,-75.7 478,-56.7 384,-56.7"/>
<text text-anchor="start" x="459.4053" y="-62.8" font-family="Helvetica,sans-Serif" font-size="11.00" fill="#000000">0 &gt;</text>
<polygon fill="none" stroke="#000000" stroke-width="2" points="231,-55.7 231,-341.7 479,-341.7 479,-55.7 231,-55.7"/>
</a>
</g>
</g>
<!-- audit_revision -->
<g id="node2" class="node">
<title>audit_revision</title>
<g id="a_node2"><a xlink:href="../../tables/audit_revision.html" xlink:title="audit_revision" target="_top">
<polygon fill="#ffffff" stroke="transparent" points="11.5,-38.2 11.5,-121.2 177.5,-121.2 177.5,-38.2 11.5,-38.2"/>
<polygon fill="#f5f5f5" stroke="transparent" points="11.5,-97.7 11.5,-120.7 177.5,-120.7 177.5,-97.7 11.5,-97.7"/>
<polygon fill="none" stroke="#000000" points="11.5,-97.7 11.5,-120.7 177.5,-120.7 177.5,-97.7 11.5,-97.7"/>
<text text-anchor="start" x="16.5" y="-106.3" font-family="Helvetica,sans-Serif" font-weight="bold" font-size="11.00" fill="#000000">audit_revision</text>
<text text-anchor="start" x="142.5437" y="-105.8" font-family="Helvetica,sans-Serif" font-size="11.00" fill="#000000">[table]</text>
<polygon fill="none" stroke="#000000" points="11.5,-75.7 11.5,-97.7 177.5,-97.7 177.5,-75.7 11.5,-75.7"/>
<image xlink:href="../../images/primaryKeys.png" width="11px" height="12px" preserveAspectRatio="xMinYMin meet" x="16.5" y="-92.7"/>
<text text-anchor="start" x="31.5" y="-82.8" font-family="Helvetica,sans-Serif" font-size="11.00" fill="#000000">id</text>
<polygon fill="none" stroke="#000000" points="11.5,-56.7 11.5,-75.7 177.5,-75.7 177.5,-56.7 11.5,-56.7"/>
<text text-anchor="start" x="14.5" y="-62.8" font-family="Helvetica,sans-Serif" font-size="11.00" fill="#000000">...</text>
<polygon fill="#ffffff" stroke="transparent" points="11.5,-37.7 11.5,-56.7 80.5,-56.7 80.5,-37.7 11.5,-37.7"/>
<polygon fill="none" stroke="#000000" points="11.5,-37.7 11.5,-56.7 80.5,-56.7 80.5,-37.7 11.5,-37.7"/>
<text text-anchor="start" x="14.5" y="-43.8" font-family="Helvetica,sans-Serif" font-size="11.00" fill="#000000"> &#160;</text>
<polygon fill="#ffffff" stroke="transparent" points="80.5,-37.7 80.5,-56.7 121.5,-56.7 121.5,-37.7 80.5,-37.7"/>
<polygon fill="none" stroke="#000000" points="80.5,-37.7 80.5,-56.7 121.5,-56.7 121.5,-37.7 80.5,-37.7"/>
<text text-anchor="start" x="112.3862" y="-43.8" font-family="Helvetica,sans-Serif" font-size="11.00" fill="#000000"> &#160;</text>
<polygon fill="#ffffff" stroke="transparent" points="121.5,-37.7 121.5,-56.7 177.5,-56.7 177.5,-37.7 121.5,-37.7"/>
<polygon fill="none" stroke="#000000" points="121.5,-37.7 121.5,-56.7 177.5,-56.7 177.5,-37.7 121.5,-37.7"/>
<text text-anchor="start" x="152.7904" y="-43.8" font-family="Helvetica,sans-Serif" font-size="11.00" fill="#000000">33 &gt;</text>
</a>
</g>
</g>
<!-- identified_need&#45;&gt;audit_revision -->
<g id="edge1" class="edge">
<title>identified_need:w&#45;&gt;audit_revision:e</title>
<path fill="none" stroke="#000000" stroke-dasharray="5,2" d="M221.3846,-86.7C205.3018,-86.7 197.7483,-86.7 177.5,-86.7"/>
<polygon fill="#000000" stroke="#000000" points="231.2,-82.7 231.2,-90.7 229.6,-90.7 229.6,-82.7 231.2,-82.7"/>
<polyline fill="none" stroke="#000000" points="232,-86.7 228,-86.7 "/>
<ellipse fill="none" stroke="#000000" cx="224.8" cy="-86.7001" rx="3.2" ry="3.2"/>
</g>
<!-- plan -->
<g id="node3" class="node">
<title>plan</title>
<g id="a_node3"><a xlink:href="../../tables/plan.html" xlink:title="plan" target="_top">
<polygon fill="#ffffff" stroke="transparent" points="8,-236.2 8,-319.2 181,-319.2 181,-236.2 8,-236.2"/>
<polygon fill="#f5f5f5" stroke="transparent" points="8.5,-295.7 8.5,-318.7 181.5,-318.7 181.5,-295.7 8.5,-295.7"/>
<polygon fill="none" stroke="#000000" points="8.5,-295.7 8.5,-318.7 181.5,-318.7 181.5,-295.7 8.5,-295.7"/>
<text text-anchor="start" x="13.5" y="-304.3" font-family="Helvetica,sans-Serif" font-weight="bold" font-size="11.00" fill="#000000">plan</text>
<text text-anchor="start" x="146.5437" y="-303.8" font-family="Helvetica,sans-Serif" font-size="11.00" fill="#000000">[table]</text>
<polygon fill="none" stroke="#000000" points="8.5,-273.7 8.5,-295.7 181.5,-295.7 181.5,-273.7 8.5,-273.7"/>
<image xlink:href="../../images/primaryKeys.png" width="11px" height="12px" preserveAspectRatio="xMinYMin meet" x="13.5" y="-290.7"/>
<text text-anchor="start" x="28.5" y="-280.8" font-family="Helvetica,sans-Serif" font-size="11.00" fill="#000000">plan_id</text>
<polygon fill="none" stroke="#000000" points="8.5,-254.7 8.5,-273.7 181.5,-273.7 181.5,-254.7 8.5,-254.7"/>
<text text-anchor="start" x="11.5" y="-260.8" font-family="Helvetica,sans-Serif" font-size="11.00" fill="#000000">...</text>
<polygon fill="#ffffff" stroke="transparent" points="8.5,-235.7 8.5,-254.7 88.5,-254.7 88.5,-235.7 8.5,-235.7"/>
<polygon fill="none" stroke="#000000" points="8.5,-235.7 8.5,-254.7 88.5,-254.7 88.5,-235.7 8.5,-235.7"/>
<text text-anchor="start" x="11.5" y="-241.8" font-family="Helvetica,sans-Serif" font-size="11.00" fill="#000000">&lt; 1</text>
<polygon fill="#ffffff" stroke="transparent" points="88.5,-235.7 88.5,-254.7 130.5,-254.7 130.5,-235.7 88.5,-235.7"/>
<polygon fill="none" stroke="#000000" points="88.5,-235.7 88.5,-254.7 130.5,-254.7 130.5,-235.7 88.5,-235.7"/>
<text text-anchor="start" x="121.3862" y="-241.8" font-family="Helvetica,sans-Serif" font-size="11.00" fill="#000000"> &#160;</text>
<polygon fill="#ffffff" stroke="transparent" points="130.5,-235.7 130.5,-254.7 181.5,-254.7 181.5,-235.7 130.5,-235.7"/>
<polygon fill="none" stroke="#000000" points="130.5,-235.7 130.5,-254.7 181.5,-254.7 181.5,-235.7 130.5,-235.7"/>
<text text-anchor="start" x="162.9053" y="-241.8" font-family="Helvetica,sans-Serif" font-size="11.00" fill="#000000">2 &gt;</text>
</a>
</g>
</g>
<!-- identified_need&#45;&gt;plan -->
<g id="edge2" class="edge">
<title>identified_need:w&#45;&gt;plan:e</title>
<path fill="none" stroke="#000000" d="M217.4203,-284.7C205.5435,-284.7 198.158,-284.7 181.5,-284.7"/>
<polygon fill="#000000" stroke="#000000" points="224,-284.7001 232,-288.3 228,-284.7 232,-284.7 232,-284.7 232,-284.7 228,-284.7 232,-281.1 224,-284.7001 224,-284.7001"/>
<ellipse fill="none" stroke="#000000" cx="220.8" cy="-284.7001" rx="3.2" ry="3.2"/>
</g>
</g>
</svg>
