<?xml version="1.0" encoding="UTF-8" standalone="no"?>
<!DOCTYPE svg PUBLIC "-//W3C//DTD SVG 1.1//EN"
 "http://www.w3.org/Graphics/SVG/1.1/DTD/svg11.dtd">
<!-- Generated by graphviz version 2.40.1 (20161225.0304)
 -->
<!-- Title: oneDegreeRelationshipsDiagram Pages: 1 -->
<svg width="554pt" height="514pt"
 viewBox="0.00 0.00 554.00 514.20" xmlns="http://www.w3.org/2000/svg" xmlns:xlink="http://www.w3.org/1999/xlink">
<g id="graph0" class="graph" transform="scale(1 1) rotate(0) translate(4 510.2)">
<title>oneDegreeRelationshipsDiagram</title>
<polygon fill="#ffffff" stroke="transparent" points="-4,4 -4,-510.2 550,-510.2 550,4 -4,4"/>
<text text-anchor="middle" x="72.4936" y="-7.3" font-family="Helvetica,sans-Serif" font-size="11.00" fill="#000000">Generated by SchemaSpy</text>
<!-- identified_need_audit -->
<g id="node1" class="node">
<title>identified_need_audit</title>
<g id="a_node1"><a xlink:href="../../tables/identified_need_audit.html" xlink:title="identified_need_audit" target="_top">
<polygon fill="#ffffff" stroke="transparent" points="223,-38.2 223,-502.2 538,-502.2 538,-38.2 223,-38.2"/>
<polygon fill="#f5f5f5" stroke="transparent" points="225.5,-477.2 225.5,-500.2 536.5,-500.2 536.5,-477.2 225.5,-477.2"/>
<polygon fill="none" stroke="#000000" points="225.5,-477.2 225.5,-500.2 536.5,-500.2 536.5,-477.2 225.5,-477.2"/>
<text text-anchor="start" x="230.5" y="-485.8" font-family="Helvetica,sans-Serif" font-weight="bold" font-size="11.00" fill="#000000">identified_need_audit</text>
<text text-anchor="start" x="501.5437" y="-485.3" font-family="Helvetica,sans-Serif" font-size="11.00" fill="#000000">[table]</text>
<polygon fill="none" stroke="#000000" points="225.5,-455.2 225.5,-477.2 442.5,-477.2 442.5,-455.2 225.5,-455.2"/>
<image xlink:href="../../images/primaryKeys.png" width="11px" height="12px" preserveAspectRatio="xMinYMin meet" x="230.5" y="-472.2"/>
<text text-anchor="start" x="245.5" y="-462.3" font-family="Helvetica,sans-Serif" font-size="11.00" fill="#000000">rev_id</text>
<polygon fill="none" stroke="#000000" points="442.5,-455.2 442.5,-477.2 536.5,-477.2 536.5,-455.2 442.5,-455.2"/>
<text text-anchor="start" x="445.5" y="-462.9" font-family="Helvetica,sans-Serif" font-size="11.00" fill="#000000">int8[19]</text>
<polygon fill="none" stroke="#000000" points="225.5,-433.2 225.5,-455.2 442.5,-455.2 442.5,-433.2 225.5,-433.2"/>
<text text-anchor="start" x="245.5" y="-440.3" font-family="Helvetica,sans-Serif" font-size="11.00" fill="#000000">rev_type</text>
<polygon fill="none" stroke="#000000" points="442.5,-433.2 442.5,-455.2 536.5,-455.2 536.5,-433.2 442.5,-433.2"/>
<text text-anchor="start" x="445.5" y="-440.9" font-family="Helvetica,sans-Serif" font-size="11.00" fill="#000000">int2[5]</text>
<polygon fill="none" stroke="#000000" points="225.5,-411.2 225.5,-433.2 442.5,-433.2 442.5,-411.2 225.5,-411.2"/>
<image xlink:href="../../images/primaryKeys.png" width="11px" height="12px" preserveAspectRatio="xMinYMin meet" x="230.5" y="-428.2"/>
<text text-anchor="start" x="245.5" y="-418.3" font-family="Helvetica,sans-Serif" font-size="11.00" fill="#000000">identified_need_id</text>
<polygon fill="none" stroke="#000000" points="442.5,-411.2 442.5,-433.2 536.5,-433.2 536.5,-411.2 442.5,-411.2"/>
<text text-anchor="start" x="445.4758" y="-418.9" font-family="Helvetica,sans-Serif" font-size="11.00" fill="#000000">uuid[2147483647]</text>
<polygon fill="none" stroke="#000000" points="225.5,-389.2 225.5,-411.2 442.5,-411.2 442.5,-389.2 225.5,-389.2"/>
<image xlink:href="../../images/foreignKeys.png" width="11px" height="12px" preserveAspectRatio="xMinYMin meet" x="230.5" y="-406.2"/>
<text text-anchor="start" x="245.5" y="-396.3" font-family="Helvetica,sans-Serif" font-size="11.00" fill="#000000">plan_id</text>
<polygon fill="none" stroke="#000000" points="442.5,-389.2 442.5,-411.2 536.5,-411.2 536.5,-389.2 442.5,-389.2"/>
<text text-anchor="start" x="445.4758" y="-396.9" font-family="Helvetica,sans-Serif" font-size="11.00" fill="#000000">uuid[2147483647]</text>
<polygon fill="none" stroke="#000000" points="225.5,-367.2 225.5,-389.2 442.5,-389.2 442.5,-367.2 225.5,-367.2"/>
<text text-anchor="start" x="245.5" y="-374.3" font-family="Helvetica,sans-Serif" font-size="11.00" fill="#000000">identified_need</text>
<polygon fill="none" stroke="#000000" points="442.5,-367.2 442.5,-389.2 536.5,-389.2 536.5,-367.2 442.5,-367.2"/>
<text text-anchor="start" x="445.5" y="-374.9" font-family="Helvetica,sans-Serif" font-size="11.00" fill="#000000">text[2147483647]</text>
<polygon fill="none" stroke="#000000" points="225.5,-345.2 225.5,-367.2 442.5,-367.2 442.5,-345.2 225.5,-345.2"/>
<text text-anchor="start" x="245.5" y="-352.3" font-family="Helvetica,sans-Serif" font-size="11.00" fill="#000000">responsible_person</text>
<polygon fill="none" stroke="#000000" points="442.5,-345.2 442.5,-367.2 536.5,-367.2 536.5,-345.2 442.5,-345.2"/>
<text text-anchor="start" x="445.5" y="-352.9" font-family="Helvetica,sans-Serif" font-size="11.00" fill="#000000">varchar[100]</text>
<polygon fill="none" stroke="#000000" points="225.5,-323.2 225.5,-345.2 442.5,-345.2 442.5,-323.2 225.5,-323.2"/>
<text text-anchor="start" x="245.5" y="-330.3" font-family="Helvetica,sans-Serif" font-size="11.00" fill="#000000">created_date</text>
<polygon fill="none" stroke="#000000" points="442.5,-323.2 442.5,-345.2 536.5,-345.2 536.5,-323.2 442.5,-323.2"/>
<text text-anchor="start" x="445.5" y="-330.9" font-family="Helvetica,sans-Serif" font-size="11.00" fill="#000000">date[13]</text>
<polygon fill="none" stroke="#000000" points="225.5,-301.2 225.5,-323.2 442.5,-323.2 442.5,-301.2 225.5,-301.2"/>
<text text-anchor="start" x="245.5" y="-308.3" font-family="Helvetica,sans-Serif" font-size="11.00" fill="#000000">target_date</text>
<polygon fill="none" stroke="#000000" points="442.5,-301.2 442.5,-323.2 536.5,-323.2 536.5,-301.2 442.5,-301.2"/>
<text text-anchor="start" x="445.5" y="-308.9" font-family="Helvetica,sans-Serif" font-size="11.00" fill="#000000">date[13]</text>
<polygon fill="none" stroke="#000000" points="225.5,-279.2 225.5,-301.2 442.5,-301.2 442.5,-279.2 225.5,-279.2"/>
<text text-anchor="start" x="245.5" y="-286.3" font-family="Helvetica,sans-Serif" font-size="11.00" fill="#000000">closed_date</text>
<polygon fill="none" stroke="#000000" points="442.5,-279.2 442.5,-301.2 536.5,-301.2 536.5,-279.2 442.5,-279.2"/>
<text text-anchor="start" x="445.5" y="-286.9" font-family="Helvetica,sans-Serif" font-size="11.00" fill="#000000">date[13]</text>
<polygon fill="none" stroke="#000000" points="225.5,-257.2 225.5,-279.2 442.5,-279.2 442.5,-257.2 225.5,-257.2"/>
<text text-anchor="start" x="245.5" y="-264.3" font-family="Helvetica,sans-Serif" font-size="11.00" fill="#000000">intervention</text>
<polygon fill="none" stroke="#000000" points="442.5,-257.2 442.5,-279.2 536.5,-279.2 536.5,-257.2 442.5,-257.2"/>
<text text-anchor="start" x="445.5" y="-264.9" font-family="Helvetica,sans-Serif" font-size="11.00" fill="#000000">text[2147483647]</text>
<polygon fill="none" stroke="#000000" points="225.5,-235.2 225.5,-257.2 442.5,-257.2 442.5,-235.2 225.5,-235.2"/>
<text text-anchor="start" x="245.5" y="-242.3" font-family="Helvetica,sans-Serif" font-size="11.00" fill="#000000">progression</text>
<polygon fill="none" stroke="#000000" points="442.5,-235.2 442.5,-257.2 536.5,-257.2 536.5,-235.2 442.5,-235.2"/>
<text text-anchor="start" x="445.5" y="-242.9" font-family="Helvetica,sans-Serif" font-size="11.00" fill="#000000">text[2147483647]</text>
<polygon fill="none" stroke="#000000" points="225.5,-213.2 225.5,-235.2 442.5,-235.2 442.5,-213.2 225.5,-213.2"/>
<text text-anchor="start" x="245.5" y="-220.3" font-family="Helvetica,sans-Serif" font-size="11.00" fill="#000000">identified_need_modified</text>
<polygon fill="none" stroke="#000000" points="442.5,-213.2 442.5,-235.2 536.5,-235.2 536.5,-213.2 442.5,-213.2"/>
<text text-anchor="start" x="445.5" y="-220.9" font-family="Helvetica,sans-Serif" font-size="11.00" fill="#000000">bool[1]</text>
<polygon fill="none" stroke="#000000" points="225.5,-191.2 225.5,-213.2 442.5,-213.2 442.5,-191.2 225.5,-191.2"/>
<text text-anchor="start" x="245.5" y="-198.3" font-family="Helvetica,sans-Serif" font-size="11.00" fill="#000000">responsible_person_modified</text>
<polygon fill="none" stroke="#000000" points="442.5,-191.2 442.5,-213.2 536.5,-213.2 536.5,-191.2 442.5,-191.2"/>
<text text-anchor="start" x="445.5" y="-198.9" font-family="Helvetica,sans-Serif" font-size="11.00" fill="#000000">bool[1]</text>
<polygon fill="none" stroke="#000000" points="225.5,-169.2 225.5,-191.2 442.5,-191.2 442.5,-169.2 225.5,-169.2"/>
<text text-anchor="start" x="245.5" y="-176.3" font-family="Helvetica,sans-Serif" font-size="11.00" fill="#000000">created_date_modified</text>
<polygon fill="none" stroke="#000000" points="442.5,-169.2 442.5,-191.2 536.5,-191.2 536.5,-169.2 442.5,-169.2"/>
<text text-anchor="start" x="445.5" y="-176.9" font-family="Helvetica,sans-Serif" font-size="11.00" fill="#000000">bool[1]</text>
<polygon fill="none" stroke="#000000" points="225.5,-147.2 225.5,-169.2 442.5,-169.2 442.5,-147.2 225.5,-147.2"/>
<text text-anchor="start" x="245.5" y="-154.3" font-family="Helvetica,sans-Serif" font-size="11.00" fill="#000000">target_date_modified</text>
<polygon fill="none" stroke="#000000" points="442.5,-147.2 442.5,-169.2 536.5,-169.2 536.5,-147.2 442.5,-147.2"/>
<text text-anchor="start" x="445.5" y="-154.9" font-family="Helvetica,sans-Serif" font-size="11.00" fill="#000000">bool[1]</text>
<polygon fill="none" stroke="#000000" points="225.5,-125.2 225.5,-147.2 442.5,-147.2 442.5,-125.2 225.5,-125.2"/>
<text text-anchor="start" x="245.5" y="-132.3" font-family="Helvetica,sans-Serif" font-size="11.00" fill="#000000">closed_date_modified</text>
<polygon fill="none" stroke="#000000" points="442.5,-125.2 442.5,-147.2 536.5,-147.2 536.5,-125.2 442.5,-125.2"/>
<text text-anchor="start" x="445.5" y="-132.9" font-family="Helvetica,sans-Serif" font-size="11.00" fill="#000000">bool[1]</text>
<polygon fill="none" stroke="#000000" points="225.5,-103.2 225.5,-125.2 442.5,-125.2 442.5,-103.2 225.5,-103.2"/>
<text text-anchor="start" x="245.5" y="-110.3" font-family="Helvetica,sans-Serif" font-size="11.00" fill="#000000">intervention_modified</text>
<polygon fill="none" stroke="#000000" points="442.5,-103.2 442.5,-125.2 536.5,-125.2 536.5,-103.2 442.5,-103.2"/>
<text text-anchor="start" x="445.5" y="-110.9" font-family="Helvetica,sans-Serif" font-size="11.00" fill="#000000">bool[1]</text>
<polygon fill="none" stroke="#000000" points="225.5,-81.2 225.5,-103.2 442.5,-103.2 442.5,-81.2 225.5,-81.2"/>
<text text-anchor="start" x="245.5" y="-88.3" font-family="Helvetica,sans-Serif" font-size="11.00" fill="#000000">progression_modified</text>
<polygon fill="none" stroke="#000000" points="442.5,-81.2 442.5,-103.2 536.5,-103.2 536.5,-81.2 442.5,-81.2"/>
<text text-anchor="start" x="445.5" y="-88.9" font-family="Helvetica,sans-Serif" font-size="11.00" fill="#000000">bool[1]</text>
<polygon fill="none" stroke="#000000" points="225.5,-59.2 225.5,-81.2 442.5,-81.2 442.5,-59.2 225.5,-59.2"/>
<image xlink:href="../../images/foreignKeys.png" width="11px" height="12px" preserveAspectRatio="xMinYMin meet" x="230.5" y="-76.2"/>
<text text-anchor="start" x="245.5" y="-66.3" font-family="Helvetica,sans-Serif" font-size="11.00" fill="#000000">legacy_id</text>
<polygon fill="none" stroke="#000000" points="442.5,-59.2 442.5,-81.2 536.5,-81.2 536.5,-59.2 442.5,-59.2"/>
<text text-anchor="start" x="445.5" y="-66.9" font-family="Helvetica,sans-Serif" font-size="11.00" fill="#000000">int8[19]</text>
<polygon fill="#ffffff" stroke="transparent" points="225.5,-40.2 225.5,-59.2 338.5,-59.2 338.5,-40.2 225.5,-40.2"/>
<polygon fill="none" stroke="#000000" points="225.5,-40.2 225.5,-59.2 338.5,-59.2 338.5,-40.2 225.5,-40.2"/>
<text text-anchor="start" x="228.5" y="-46.3" font-family="Helvetica,sans-Serif" font-size="11.00" fill="#000000">&lt; 1</text>
<polygon fill="#ffffff" stroke="transparent" points="338.5,-40.2 338.5,-59.2 442.5,-59.2 442.5,-40.2 338.5,-40.2"/>
<polygon fill="none" stroke="#000000" points="338.5,-40.2 338.5,-59.2 442.5,-59.2 442.5,-40.2 338.5,-40.2"/>
<text text-anchor="start" x="433.3862" y="-46.3" font-family="Helvetica,sans-Serif" font-size="11.00" fill="#000000"> &#160;</text>
<polygon fill="#ffffff" stroke="transparent" points="442.5,-40.2 442.5,-59.2 536.5,-59.2 536.5,-40.2 442.5,-40.2"/>
<polygon fill="none" stroke="#000000" points="442.5,-40.2 442.5,-59.2 536.5,-59.2 536.5,-40.2 442.5,-40.2"/>
<text text-anchor="start" x="517.9053" y="-46.3" font-family="Helvetica,sans-Serif" font-size="11.00" fill="#000000">0 &gt;</text>
<polygon fill="none" stroke="#000000" stroke-width="2" points="224,-39.2 224,-501.2 537,-501.2 537,-39.2 224,-39.2"/>
</a>
</g>
</g>
<!-- audit_revision -->
<g id="node2" class="node">
<title>audit_revision</title>
<g id="a_node2"><a xlink:href="../../tables/audit_revision.html" xlink:title="audit_revision" target="_top">
<polygon fill="#ffffff" stroke="transparent" points="8,-417.7 8,-500.7 174,-500.7 174,-417.7 8,-417.7"/>
<polygon fill="#f5f5f5" stroke="transparent" points="8,-477.2 8,-500.2 174,-500.2 174,-477.2 8,-477.2"/>
<polygon fill="none" stroke="#000000" points="8,-477.2 8,-500.2 174,-500.2 174,-477.2 8,-477.2"/>
<text text-anchor="start" x="13" y="-485.8" font-family="Helvetica,sans-Serif" font-weight="bold" font-size="11.00" fill="#000000">audit_revision</text>
<text text-anchor="start" x="139.0437" y="-485.3" font-family="Helvetica,sans-Serif" font-size="11.00" fill="#000000">[table]</text>
<polygon fill="none" stroke="#000000" points="8,-455.2 8,-477.2 174,-477.2 174,-455.2 8,-455.2"/>
<image xlink:href="../../images/primaryKeys.png" width="11px" height="12px" preserveAspectRatio="xMinYMin meet" x="13" y="-472.2"/>
<text text-anchor="start" x="28" y="-462.3" font-family="Helvetica,sans-Serif" font-size="11.00" fill="#000000">id</text>
<polygon fill="none" stroke="#000000" points="8,-436.2 8,-455.2 174,-455.2 174,-436.2 8,-436.2"/>
<text text-anchor="start" x="11" y="-442.3" font-family="Helvetica,sans-Serif" font-size="11.00" fill="#000000">...</text>
<polygon fill="#ffffff" stroke="transparent" points="8,-417.2 8,-436.2 77,-436.2 77,-417.2 8,-417.2"/>
<polygon fill="none" stroke="#000000" points="8,-417.2 8,-436.2 77,-436.2 77,-417.2 8,-417.2"/>
<text text-anchor="start" x="11" y="-423.3" font-family="Helvetica,sans-Serif" font-size="11.00" fill="#000000"> &#160;</text>
<polygon fill="#ffffff" stroke="transparent" points="77,-417.2 77,-436.2 118,-436.2 118,-417.2 77,-417.2"/>
<polygon fill="none" stroke="#000000" points="77,-417.2 77,-436.2 118,-436.2 118,-417.2 77,-417.2"/>
<text text-anchor="start" x="108.8862" y="-423.3" font-family="Helvetica,sans-Serif" font-size="11.00" fill="#000000"> &#160;</text>
<polygon fill="#ffffff" stroke="transparent" points="118,-417.2 118,-436.2 174,-436.2 174,-417.2 118,-417.2"/>
<polygon fill="none" stroke="#000000" points="118,-417.2 118,-436.2 174,-436.2 174,-417.2 118,-417.2"/>
<text text-anchor="start" x="149.2904" y="-423.3" font-family="Helvetica,sans-Serif" font-size="11.00" fill="#000000">12 &gt;</text>
</a>
</g>
</g>
<!-- identified_need_audit&#45;&gt;audit_revision -->
<g id="edge1" class="edge">
<title>identified_need_audit:w&#45;&gt;audit_revision:e</title>
<path fill="none" stroke="#000000" d="M211.0156,-466.2C198.6771,-466.2 191.1667,-466.2 174,-466.2"/>
<polygon fill="#000000" stroke="#000000" points="217.5,-466.2001 225.5,-469.8 221.5,-466.2 225.5,-466.2 225.5,-466.2 225.5,-466.2 221.5,-466.2 225.5,-462.6 217.5,-466.2001 217.5,-466.2001"/>
<ellipse fill="none" stroke="#000000" cx="214.3" cy="-466.2001" rx="3.2" ry="3.2"/>
</g>
</g>
</svg>
