<?xml version="1.0" encoding="UTF-8" standalone="no"?>
<!DOCTYPE svg PUBLIC "-//W3C//DTD SVG 1.1//EN"
 "http://www.w3.org/Graphics/SVG/1.1/DTD/svg11.dtd">
<!-- Generated by graphviz version 2.40.1 (20161225.0304)
 -->
<!-- Title: twoDegreesRelationshipsDiagram Pages: 1 -->
<svg width="554pt" height="1417pt"
 viewBox="0.00 0.00 554.00 1417.20" xmlns="http://www.w3.org/2000/svg" xmlns:xlink="http://www.w3.org/1999/xlink">
<g id="graph0" class="graph" transform="scale(1 1) rotate(0) translate(4 1413.2)">
<title>twoDegreesRelationshipsDiagram</title>
<polygon fill="#ffffff" stroke="transparent" points="-4,4 -4,-1413.2 550,-1413.2 550,4 -4,4"/>
<text text-anchor="middle" x="72.4936" y="-7.3" font-family="Helvetica,sans-Serif" font-size="11.00" fill="#000000">Generated by SchemaSpy</text>
<!-- attendee_audit -->
<g id="node1" class="node">
<title>attendee_audit</title>
<g id="a_node1"><a xlink:href="../../tables/attendee_audit.html" xlink:title="attendee_audit" target="_top">
<polygon fill="#ffffff" stroke="transparent" points="310,-1344.2 310,-1405.2 451,-1405.2 451,-1344.2 310,-1344.2"/>
<polygon fill="#f5f5f5" stroke="transparent" points="310.5,-1381.7 310.5,-1404.7 451.5,-1404.7 451.5,-1381.7 310.5,-1381.7"/>
<polygon fill="none" stroke="#000000" points="310.5,-1381.7 310.5,-1404.7 451.5,-1404.7 451.5,-1381.7 310.5,-1381.7"/>
<text text-anchor="start" x="315.5" y="-1390.3" font-family="Helvetica,sans-Serif" font-weight="bold" font-size="11.00" fill="#000000">attendee_audit</text>
<text text-anchor="start" x="417.0219" y="-1389.8" font-family="Helvetica,sans-Serif" font-size="11.00" fill="#000000">[table]</text>
<polygon fill="none" stroke="#000000" points="310.5,-1362.7 310.5,-1381.7 451.5,-1381.7 451.5,-1362.7 310.5,-1362.7"/>
<text text-anchor="start" x="313.5" y="-1368.8" font-family="Helvetica,sans-Serif" font-size="11.00" fill="#000000">...</text>
<polygon fill="#ffffff" stroke="transparent" points="310.5,-1343.7 310.5,-1362.7 379.5,-1362.7 379.5,-1343.7 310.5,-1343.7"/>
<polygon fill="none" stroke="#000000" points="310.5,-1343.7 310.5,-1362.7 379.5,-1362.7 379.5,-1343.7 310.5,-1343.7"/>
<text text-anchor="start" x="313.5" y="-1349.8" font-family="Helvetica,sans-Serif" font-size="11.00" fill="#000000">&lt; 1</text>
<polygon fill="#ffffff" stroke="transparent" points="379.5,-1343.7 379.5,-1362.7 415.5,-1362.7 415.5,-1343.7 379.5,-1343.7"/>
<polygon fill="none" stroke="#000000" points="379.5,-1343.7 379.5,-1362.7 415.5,-1362.7 415.5,-1343.7 379.5,-1343.7"/>
<text text-anchor="start" x="406.3862" y="-1349.8" font-family="Helvetica,sans-Serif" font-size="11.00" fill="#000000"> &#160;</text>
<polygon fill="#ffffff" stroke="transparent" points="415.5,-1343.7 415.5,-1362.7 451.5,-1362.7 451.5,-1343.7 415.5,-1343.7"/>
<polygon fill="none" stroke="#000000" points="415.5,-1343.7 415.5,-1362.7 451.5,-1362.7 451.5,-1343.7 415.5,-1343.7"/>
<text text-anchor="start" x="442.3862" y="-1349.8" font-family="Helvetica,sans-Serif" font-size="11.00" fill="#000000"> &#160;</text>
</a>
</g>
</g>
<!-- audit_revision -->
<g id="node2" class="node">
<title>audit_revision</title>
<g id="a_node2"><a xlink:href="../../tables/audit_revision.html" xlink:title="audit_revision" target="_top">
<polygon fill="#ffffff" stroke="transparent" points="8,-468.2 8,-551.2 174,-551.2 174,-468.2 8,-468.2"/>
<polygon fill="#f5f5f5" stroke="transparent" points="8,-527.7 8,-550.7 174,-550.7 174,-527.7 8,-527.7"/>
<polygon fill="none" stroke="#000000" points="8,-527.7 8,-550.7 174,-550.7 174,-527.7 8,-527.7"/>
<text text-anchor="start" x="13" y="-536.3" font-family="Helvetica,sans-Serif" font-weight="bold" font-size="11.00" fill="#000000">audit_revision</text>
<text text-anchor="start" x="139.0437" y="-535.8" font-family="Helvetica,sans-Serif" font-size="11.00" fill="#000000">[table]</text>
<polygon fill="none" stroke="#000000" points="8,-505.7 8,-527.7 174,-527.7 174,-505.7 8,-505.7"/>
<image xlink:href="../../images/primaryKeys.png" width="11px" height="12px" preserveAspectRatio="xMinYMin meet" x="13" y="-522.7"/>
<text text-anchor="start" x="28" y="-512.8" font-family="Helvetica,sans-Serif" font-size="11.00" fill="#000000">id</text>
<polygon fill="none" stroke="#000000" points="8,-486.7 8,-505.7 174,-505.7 174,-486.7 8,-486.7"/>
<text text-anchor="start" x="11" y="-492.8" font-family="Helvetica,sans-Serif" font-size="11.00" fill="#000000">...</text>
<polygon fill="#ffffff" stroke="transparent" points="8,-467.7 8,-486.7 77,-486.7 77,-467.7 8,-467.7"/>
<polygon fill="none" stroke="#000000" points="8,-467.7 8,-486.7 77,-486.7 77,-467.7 8,-467.7"/>
<text text-anchor="start" x="11" y="-473.8" font-family="Helvetica,sans-Serif" font-size="11.00" fill="#000000"> &#160;</text>
<polygon fill="#ffffff" stroke="transparent" points="77,-467.7 77,-486.7 118,-486.7 118,-467.7 77,-467.7"/>
<polygon fill="none" stroke="#000000" points="77,-467.7 77,-486.7 118,-486.7 118,-467.7 77,-467.7"/>
<text text-anchor="start" x="108.8862" y="-473.8" font-family="Helvetica,sans-Serif" font-size="11.00" fill="#000000"> &#160;</text>
<polygon fill="#ffffff" stroke="transparent" points="118,-467.7 118,-486.7 174,-486.7 174,-467.7 118,-467.7"/>
<polygon fill="none" stroke="#000000" points="118,-467.7 118,-486.7 174,-486.7 174,-467.7 118,-467.7"/>
<text text-anchor="start" x="149.2904" y="-473.8" font-family="Helvetica,sans-Serif" font-size="11.00" fill="#000000">12 &gt;</text>
</a>
</g>
</g>
<!-- attendee_audit&#45;&gt;audit_revision -->
<g id="edge1" class="edge">
<title>attendee_audit:w&#45;&gt;audit_revision:e</title>
<path fill="none" stroke="#000000" d="M295.8022,-1371.6157C259.5117,-1371.0414 238.5725,-1366.6409 215,-1333.7 162.1058,-1259.7841 264.892,-516.7 174,-516.7"/>
<polygon fill="#000000" stroke="#000000" points="302.5001,-1371.6541 310.4793,-1375.2999 306.5001,-1371.677 310.5,-1371.7 310.5,-1371.7 310.5,-1371.7 306.5001,-1371.677 310.5207,-1368.1001 302.5001,-1371.6541 302.5001,-1371.6541"/>
<ellipse fill="none" stroke="#000000" cx="299.3002" cy="-1371.6357" rx="3.2" ry="3.2"/>
</g>
<!-- contributory_factor_audit -->
<g id="node3" class="node">
<title>contributory_factor_audit</title>
<g id="a_node3"><a xlink:href="../../tables/contributory_factor_audit.html" xlink:title="contributory_factor_audit" target="_top">
<polygon fill="#ffffff" stroke="transparent" points="275.5,-1262.2 275.5,-1323.2 485.5,-1323.2 485.5,-1262.2 275.5,-1262.2"/>
<polygon fill="#f5f5f5" stroke="transparent" points="275.5,-1299.7 275.5,-1322.7 485.5,-1322.7 485.5,-1299.7 275.5,-1299.7"/>
<polygon fill="none" stroke="#000000" points="275.5,-1299.7 275.5,-1322.7 485.5,-1322.7 485.5,-1299.7 275.5,-1299.7"/>
<text text-anchor="start" x="280.5" y="-1308.3" font-family="Helvetica,sans-Serif" font-weight="bold" font-size="11.00" fill="#000000">contributory_factor_audit</text>
<text text-anchor="start" x="451.0219" y="-1307.8" font-family="Helvetica,sans-Serif" font-size="11.00" fill="#000000">[table]</text>
<polygon fill="none" stroke="#000000" points="275.5,-1280.7 275.5,-1299.7 485.5,-1299.7 485.5,-1280.7 275.5,-1280.7"/>
<text text-anchor="start" x="278.5" y="-1286.8" font-family="Helvetica,sans-Serif" font-size="11.00" fill="#000000">...</text>
<polygon fill="#ffffff" stroke="transparent" points="275.5,-1261.7 275.5,-1280.7 378.5,-1280.7 378.5,-1261.7 275.5,-1261.7"/>
<polygon fill="none" stroke="#000000" points="275.5,-1261.7 275.5,-1280.7 378.5,-1280.7 378.5,-1261.7 275.5,-1261.7"/>
<text text-anchor="start" x="278.5" y="-1267.8" font-family="Helvetica,sans-Serif" font-size="11.00" fill="#000000">&lt; 1</text>
<polygon fill="#ffffff" stroke="transparent" points="378.5,-1261.7 378.5,-1280.7 431.5,-1280.7 431.5,-1261.7 378.5,-1261.7"/>
<polygon fill="none" stroke="#000000" points="378.5,-1261.7 378.5,-1280.7 431.5,-1280.7 431.5,-1261.7 378.5,-1261.7"/>
<text text-anchor="start" x="422.3862" y="-1267.8" font-family="Helvetica,sans-Serif" font-size="11.00" fill="#000000"> &#160;</text>
<polygon fill="#ffffff" stroke="transparent" points="431.5,-1261.7 431.5,-1280.7 485.5,-1280.7 485.5,-1261.7 431.5,-1261.7"/>
<polygon fill="none" stroke="#000000" points="431.5,-1261.7 431.5,-1280.7 485.5,-1280.7 485.5,-1261.7 431.5,-1261.7"/>
<text text-anchor="start" x="476.3862" y="-1267.8" font-family="Helvetica,sans-Serif" font-size="11.00" fill="#000000"> &#160;</text>
</a>
</g>
</g>
<!-- contributory_factor_audit&#45;&gt;audit_revision -->
<g id="edge2" class="edge">
<title>contributory_factor_audit:w&#45;&gt;audit_revision:e</title>
<path fill="none" stroke="#000000" d="M261.0119,-1288.77C239.4095,-1285.6513 228.4208,-1274.4567 215,-1251.7 173.4498,-1181.2459 255.7936,-516.7 174,-516.7"/>
<polygon fill="#000000" stroke="#000000" points="267.5164,-1289.1875 275.2694,-1293.2926 271.5082,-1289.4437 275.5,-1289.7 275.5,-1289.7 275.5,-1289.7 271.5082,-1289.4437 275.7306,-1286.1074 267.5164,-1289.1875 267.5164,-1289.1875"/>
<ellipse fill="none" stroke="#000000" cx="264.323" cy="-1288.9824" rx="3.2" ry="3.2"/>
</g>
<!-- csip_record_audit -->
<g id="node4" class="node">
<title>csip_record_audit</title>
<g id="a_node4"><a xlink:href="../../tables/csip_record_audit.html" xlink:title="csip_record_audit" target="_top">
<polygon fill="#ffffff" stroke="transparent" points="302.5,-1180.2 302.5,-1241.2 458.5,-1241.2 458.5,-1180.2 302.5,-1180.2"/>
<polygon fill="#f5f5f5" stroke="transparent" points="302.5,-1217.7 302.5,-1240.7 458.5,-1240.7 458.5,-1217.7 302.5,-1217.7"/>
<polygon fill="none" stroke="#000000" points="302.5,-1217.7 302.5,-1240.7 458.5,-1240.7 458.5,-1217.7 302.5,-1217.7"/>
<text text-anchor="start" x="307.5" y="-1226.3" font-family="Helvetica,sans-Serif" font-weight="bold" font-size="11.00" fill="#000000">csip_record_audit</text>
<text text-anchor="start" x="424.0219" y="-1225.8" font-family="Helvetica,sans-Serif" font-size="11.00" fill="#000000">[table]</text>
<polygon fill="none" stroke="#000000" points="302.5,-1198.7 302.5,-1217.7 458.5,-1217.7 458.5,-1198.7 302.5,-1198.7"/>
<text text-anchor="start" x="305.5" y="-1204.8" font-family="Helvetica,sans-Serif" font-size="11.00" fill="#000000">...</text>
<polygon fill="#ffffff" stroke="transparent" points="302.5,-1179.7 302.5,-1198.7 378.5,-1198.7 378.5,-1179.7 302.5,-1179.7"/>
<polygon fill="none" stroke="#000000" points="302.5,-1179.7 302.5,-1198.7 378.5,-1198.7 378.5,-1179.7 302.5,-1179.7"/>
<text text-anchor="start" x="305.5" y="-1185.8" font-family="Helvetica,sans-Serif" font-size="11.00" fill="#000000">&lt; 1</text>
<polygon fill="#ffffff" stroke="transparent" points="378.5,-1179.7 378.5,-1198.7 418.5,-1198.7 418.5,-1179.7 378.5,-1179.7"/>
<polygon fill="none" stroke="#000000" points="378.5,-1179.7 378.5,-1198.7 418.5,-1198.7 418.5,-1179.7 378.5,-1179.7"/>
<text text-anchor="start" x="409.3862" y="-1185.8" font-family="Helvetica,sans-Serif" font-size="11.00" fill="#000000"> &#160;</text>
<polygon fill="#ffffff" stroke="transparent" points="418.5,-1179.7 418.5,-1198.7 458.5,-1198.7 458.5,-1179.7 418.5,-1179.7"/>
<polygon fill="none" stroke="#000000" points="418.5,-1179.7 418.5,-1198.7 458.5,-1198.7 458.5,-1179.7 418.5,-1179.7"/>
<text text-anchor="start" x="449.3862" y="-1185.8" font-family="Helvetica,sans-Serif" font-size="11.00" fill="#000000"> &#160;</text>
</a>
</g>
</g>
<!-- csip_record_audit&#45;&gt;audit_revision -->
<g id="edge3" class="edge">
<title>csip_record_audit:w&#45;&gt;audit_revision:e</title>
<path fill="none" stroke="#000000" d="M288.0052,-1207.5051C255.0244,-1206.4415 236.4051,-1200.2026 215,-1169.7 173.2405,-1110.1919 246.6984,-516.7 174,-516.7"/>
<polygon fill="#000000" stroke="#000000" points="294.5007,-1207.5924 302.4516,-1211.2997 298.5004,-1207.6462 302.5,-1207.7 302.5,-1207.7 302.5,-1207.7 298.5004,-1207.6462 302.5484,-1204.1003 294.5007,-1207.5924 294.5007,-1207.5924"/>
<ellipse fill="none" stroke="#000000" cx="291.301" cy="-1207.5494" rx="3.2" ry="3.2"/>
</g>
<!-- decision_and_actions_audit -->
<g id="node5" class="node">
<title>decision_and_actions_audit</title>
<g id="a_node5"><a xlink:href="../../tables/decision_and_actions_audit.html" xlink:title="decision_and_actions_audit" target="_top">
<polygon fill="#ffffff" stroke="transparent" points="269.5,-1098.2 269.5,-1159.2 491.5,-1159.2 491.5,-1098.2 269.5,-1098.2"/>
<polygon fill="#f5f5f5" stroke="transparent" points="269.5,-1135.7 269.5,-1158.7 491.5,-1158.7 491.5,-1135.7 269.5,-1135.7"/>
<polygon fill="none" stroke="#000000" points="269.5,-1135.7 269.5,-1158.7 491.5,-1158.7 491.5,-1135.7 269.5,-1135.7"/>
<text text-anchor="start" x="274.5" y="-1144.3" font-family="Helvetica,sans-Serif" font-weight="bold" font-size="11.00" fill="#000000">decision_and_actions_audit</text>
<text text-anchor="start" x="457.0219" y="-1143.8" font-family="Helvetica,sans-Serif" font-size="11.00" fill="#000000">[table]</text>
<polygon fill="none" stroke="#000000" points="269.5,-1116.7 269.5,-1135.7 491.5,-1135.7 491.5,-1116.7 269.5,-1116.7"/>
<text text-anchor="start" x="272.5" y="-1122.8" font-family="Helvetica,sans-Serif" font-size="11.00" fill="#000000">...</text>
<polygon fill="#ffffff" stroke="transparent" points="269.5,-1097.7 269.5,-1116.7 378.5,-1116.7 378.5,-1097.7 269.5,-1097.7"/>
<polygon fill="none" stroke="#000000" points="269.5,-1097.7 269.5,-1116.7 378.5,-1116.7 378.5,-1097.7 269.5,-1097.7"/>
<text text-anchor="start" x="272.5" y="-1103.8" font-family="Helvetica,sans-Serif" font-size="11.00" fill="#000000">&lt; 1</text>
<polygon fill="#ffffff" stroke="transparent" points="378.5,-1097.7 378.5,-1116.7 434.5,-1116.7 434.5,-1097.7 378.5,-1097.7"/>
<polygon fill="none" stroke="#000000" points="378.5,-1097.7 378.5,-1116.7 434.5,-1116.7 434.5,-1097.7 378.5,-1097.7"/>
<text text-anchor="start" x="425.3862" y="-1103.8" font-family="Helvetica,sans-Serif" font-size="11.00" fill="#000000"> &#160;</text>
<polygon fill="#ffffff" stroke="transparent" points="434.5,-1097.7 434.5,-1116.7 491.5,-1116.7 491.5,-1097.7 434.5,-1097.7"/>
<polygon fill="none" stroke="#000000" points="434.5,-1097.7 434.5,-1116.7 491.5,-1116.7 491.5,-1097.7 434.5,-1097.7"/>
<text text-anchor="start" x="482.3862" y="-1103.8" font-family="Helvetica,sans-Serif" font-size="11.00" fill="#000000"> &#160;</text>
</a>
</g>
</g>
<!-- decision_and_actions_audit&#45;&gt;audit_revision -->
<g id="edge4" class="edge">
<title>decision_and_actions_audit:w&#45;&gt;audit_revision:e</title>
<path fill="none" stroke="#000000" d="M255.0278,-1124.4471C236.0175,-1120.7237 226.9115,-1108.6592 215,-1087.7 183.5713,-1032.3991 237.6078,-516.7 174,-516.7"/>
<polygon fill="#000000" stroke="#000000" points="261.5298,-1125.01 269.1895,-1129.2866 265.5149,-1125.355 269.5,-1125.7 269.5,-1125.7 269.5,-1125.7 265.5149,-1125.355 269.8105,-1122.1134 261.5298,-1125.01 261.5298,-1125.01"/>
<ellipse fill="none" stroke="#000000" cx="258.3417" cy="-1124.734" rx="3.2" ry="3.2"/>
</g>
<!-- identified_need_audit -->
<g id="node6" class="node">
<title>identified_need_audit</title>
<g id="a_node6"><a xlink:href="../../tables/identified_need_audit.html" xlink:title="identified_need_audit" target="_top">
<polygon fill="#ffffff" stroke="transparent" points="223,-612.7 223,-1076.7 538,-1076.7 538,-612.7 223,-612.7"/>
<polygon fill="#f5f5f5" stroke="transparent" points="225.5,-1051.7 225.5,-1074.7 536.5,-1074.7 536.5,-1051.7 225.5,-1051.7"/>
<polygon fill="none" stroke="#000000" points="225.5,-1051.7 225.5,-1074.7 536.5,-1074.7 536.5,-1051.7 225.5,-1051.7"/>
<text text-anchor="start" x="230.5" y="-1060.3" font-family="Helvetica,sans-Serif" font-weight="bold" font-size="11.00" fill="#000000">identified_need_audit</text>
<text text-anchor="start" x="501.5437" y="-1059.8" font-family="Helvetica,sans-Serif" font-size="11.00" fill="#000000">[table]</text>
<polygon fill="none" stroke="#000000" points="225.5,-1029.7 225.5,-1051.7 442.5,-1051.7 442.5,-1029.7 225.5,-1029.7"/>
<image xlink:href="../../images/primaryKeys.png" width="11px" height="12px" preserveAspectRatio="xMinYMin meet" x="230.5" y="-1046.7"/>
<text text-anchor="start" x="245.5" y="-1036.8" font-family="Helvetica,sans-Serif" font-size="11.00" fill="#000000">rev_id</text>
<polygon fill="none" stroke="#000000" points="442.5,-1029.7 442.5,-1051.7 536.5,-1051.7 536.5,-1029.7 442.5,-1029.7"/>
<text text-anchor="start" x="445.5" y="-1037.4" font-family="Helvetica,sans-Serif" font-size="11.00" fill="#000000">int8[19]</text>
<polygon fill="none" stroke="#000000" points="225.5,-1007.7 225.5,-1029.7 442.5,-1029.7 442.5,-1007.7 225.5,-1007.7"/>
<text text-anchor="start" x="245.5" y="-1014.8" font-family="Helvetica,sans-Serif" font-size="11.00" fill="#000000">rev_type</text>
<polygon fill="none" stroke="#000000" points="442.5,-1007.7 442.5,-1029.7 536.5,-1029.7 536.5,-1007.7 442.5,-1007.7"/>
<text text-anchor="start" x="445.5" y="-1015.4" font-family="Helvetica,sans-Serif" font-size="11.00" fill="#000000">int2[5]</text>
<polygon fill="none" stroke="#000000" points="225.5,-985.7 225.5,-1007.7 442.5,-1007.7 442.5,-985.7 225.5,-985.7"/>
<image xlink:href="../../images/primaryKeys.png" width="11px" height="12px" preserveAspectRatio="xMinYMin meet" x="230.5" y="-1002.7"/>
<text text-anchor="start" x="245.5" y="-992.8" font-family="Helvetica,sans-Serif" font-size="11.00" fill="#000000">identified_need_id</text>
<polygon fill="none" stroke="#000000" points="442.5,-985.7 442.5,-1007.7 536.5,-1007.7 536.5,-985.7 442.5,-985.7"/>
<text text-anchor="start" x="445.4758" y="-993.4" font-family="Helvetica,sans-Serif" font-size="11.00" fill="#000000">uuid[2147483647]</text>
<polygon fill="none" stroke="#000000" points="225.5,-963.7 225.5,-985.7 442.5,-985.7 442.5,-963.7 225.5,-963.7"/>
<image xlink:href="../../images/foreignKeys.png" width="11px" height="12px" preserveAspectRatio="xMinYMin meet" x="230.5" y="-980.7"/>
<text text-anchor="start" x="245.5" y="-970.8" font-family="Helvetica,sans-Serif" font-size="11.00" fill="#000000">plan_id</text>
<polygon fill="none" stroke="#000000" points="442.5,-963.7 442.5,-985.7 536.5,-985.7 536.5,-963.7 442.5,-963.7"/>
<text text-anchor="start" x="445.4758" y="-971.4" font-family="Helvetica,sans-Serif" font-size="11.00" fill="#000000">uuid[2147483647]</text>
<polygon fill="none" stroke="#000000" points="225.5,-941.7 225.5,-963.7 442.5,-963.7 442.5,-941.7 225.5,-941.7"/>
<text text-anchor="start" x="245.5" y="-948.8" font-family="Helvetica,sans-Serif" font-size="11.00" fill="#000000">identified_need</text>
<polygon fill="none" stroke="#000000" points="442.5,-941.7 442.5,-963.7 536.5,-963.7 536.5,-941.7 442.5,-941.7"/>
<text text-anchor="start" x="445.5" y="-949.4" font-family="Helvetica,sans-Serif" font-size="11.00" fill="#000000">text[2147483647]</text>
<polygon fill="none" stroke="#000000" points="225.5,-919.7 225.5,-941.7 442.5,-941.7 442.5,-919.7 225.5,-919.7"/>
<text text-anchor="start" x="245.5" y="-926.8" font-family="Helvetica,sans-Serif" font-size="11.00" fill="#000000">responsible_person</text>
<polygon fill="none" stroke="#000000" points="442.5,-919.7 442.5,-941.7 536.5,-941.7 536.5,-919.7 442.5,-919.7"/>
<text text-anchor="start" x="445.5" y="-927.4" font-family="Helvetica,sans-Serif" font-size="11.00" fill="#000000">varchar[100]</text>
<polygon fill="none" stroke="#000000" points="225.5,-897.7 225.5,-919.7 442.5,-919.7 442.5,-897.7 225.5,-897.7"/>
<text text-anchor="start" x="245.5" y="-904.8" font-family="Helvetica,sans-Serif" font-size="11.00" fill="#000000">created_date</text>
<polygon fill="none" stroke="#000000" points="442.5,-897.7 442.5,-919.7 536.5,-919.7 536.5,-897.7 442.5,-897.7"/>
<text text-anchor="start" x="445.5" y="-905.4" font-family="Helvetica,sans-Serif" font-size="11.00" fill="#000000">date[13]</text>
<polygon fill="none" stroke="#000000" points="225.5,-875.7 225.5,-897.7 442.5,-897.7 442.5,-875.7 225.5,-875.7"/>
<text text-anchor="start" x="245.5" y="-882.8" font-family="Helvetica,sans-Serif" font-size="11.00" fill="#000000">target_date</text>
<polygon fill="none" stroke="#000000" points="442.5,-875.7 442.5,-897.7 536.5,-897.7 536.5,-875.7 442.5,-875.7"/>
<text text-anchor="start" x="445.5" y="-883.4" font-family="Helvetica,sans-Serif" font-size="11.00" fill="#000000">date[13]</text>
<polygon fill="none" stroke="#000000" points="225.5,-853.7 225.5,-875.7 442.5,-875.7 442.5,-853.7 225.5,-853.7"/>
<text text-anchor="start" x="245.5" y="-860.8" font-family="Helvetica,sans-Serif" font-size="11.00" fill="#000000">closed_date</text>
<polygon fill="none" stroke="#000000" points="442.5,-853.7 442.5,-875.7 536.5,-875.7 536.5,-853.7 442.5,-853.7"/>
<text text-anchor="start" x="445.5" y="-861.4" font-family="Helvetica,sans-Serif" font-size="11.00" fill="#000000">date[13]</text>
<polygon fill="none" stroke="#000000" points="225.5,-831.7 225.5,-853.7 442.5,-853.7 442.5,-831.7 225.5,-831.7"/>
<text text-anchor="start" x="245.5" y="-838.8" font-family="Helvetica,sans-Serif" font-size="11.00" fill="#000000">intervention</text>
<polygon fill="none" stroke="#000000" points="442.5,-831.7 442.5,-853.7 536.5,-853.7 536.5,-831.7 442.5,-831.7"/>
<text text-anchor="start" x="445.5" y="-839.4" font-family="Helvetica,sans-Serif" font-size="11.00" fill="#000000">text[2147483647]</text>
<polygon fill="none" stroke="#000000" points="225.5,-809.7 225.5,-831.7 442.5,-831.7 442.5,-809.7 225.5,-809.7"/>
<text text-anchor="start" x="245.5" y="-816.8" font-family="Helvetica,sans-Serif" font-size="11.00" fill="#000000">progression</text>
<polygon fill="none" stroke="#000000" points="442.5,-809.7 442.5,-831.7 536.5,-831.7 536.5,-809.7 442.5,-809.7"/>
<text text-anchor="start" x="445.5" y="-817.4" font-family="Helvetica,sans-Serif" font-size="11.00" fill="#000000">text[2147483647]</text>
<polygon fill="none" stroke="#000000" points="225.5,-787.7 225.5,-809.7 442.5,-809.7 442.5,-787.7 225.5,-787.7"/>
<text text-anchor="start" x="245.5" y="-794.8" font-family="Helvetica,sans-Serif" font-size="11.00" fill="#000000">identified_need_modified</text>
<polygon fill="none" stroke="#000000" points="442.5,-787.7 442.5,-809.7 536.5,-809.7 536.5,-787.7 442.5,-787.7"/>
<text text-anchor="start" x="445.5" y="-795.4" font-family="Helvetica,sans-Serif" font-size="11.00" fill="#000000">bool[1]</text>
<polygon fill="none" stroke="#000000" points="225.5,-765.7 225.5,-787.7 442.5,-787.7 442.5,-765.7 225.5,-765.7"/>
<text text-anchor="start" x="245.5" y="-772.8" font-family="Helvetica,sans-Serif" font-size="11.00" fill="#000000">responsible_person_modified</text>
<polygon fill="none" stroke="#000000" points="442.5,-765.7 442.5,-787.7 536.5,-787.7 536.5,-765.7 442.5,-765.7"/>
<text text-anchor="start" x="445.5" y="-773.4" font-family="Helvetica,sans-Serif" font-size="11.00" fill="#000000">bool[1]</text>
<polygon fill="none" stroke="#000000" points="225.5,-743.7 225.5,-765.7 442.5,-765.7 442.5,-743.7 225.5,-743.7"/>
<text text-anchor="start" x="245.5" y="-750.8" font-family="Helvetica,sans-Serif" font-size="11.00" fill="#000000">created_date_modified</text>
<polygon fill="none" stroke="#000000" points="442.5,-743.7 442.5,-765.7 536.5,-765.7 536.5,-743.7 442.5,-743.7"/>
<text text-anchor="start" x="445.5" y="-751.4" font-family="Helvetica,sans-Serif" font-size="11.00" fill="#000000">bool[1]</text>
<polygon fill="none" stroke="#000000" points="225.5,-721.7 225.5,-743.7 442.5,-743.7 442.5,-721.7 225.5,-721.7"/>
<text text-anchor="start" x="245.5" y="-728.8" font-family="Helvetica,sans-Serif" font-size="11.00" fill="#000000">target_date_modified</text>
<polygon fill="none" stroke="#000000" points="442.5,-721.7 442.5,-743.7 536.5,-743.7 536.5,-721.7 442.5,-721.7"/>
<text text-anchor="start" x="445.5" y="-729.4" font-family="Helvetica,sans-Serif" font-size="11.00" fill="#000000">bool[1]</text>
<polygon fill="none" stroke="#000000" points="225.5,-699.7 225.5,-721.7 442.5,-721.7 442.5,-699.7 225.5,-699.7"/>
<text text-anchor="start" x="245.5" y="-706.8" font-family="Helvetica,sans-Serif" font-size="11.00" fill="#000000">closed_date_modified</text>
<polygon fill="none" stroke="#000000" points="442.5,-699.7 442.5,-721.7 536.5,-721.7 536.5,-699.7 442.5,-699.7"/>
<text text-anchor="start" x="445.5" y="-707.4" font-family="Helvetica,sans-Serif" font-size="11.00" fill="#000000">bool[1]</text>
<polygon fill="none" stroke="#000000" points="225.5,-677.7 225.5,-699.7 442.5,-699.7 442.5,-677.7 225.5,-677.7"/>
<text text-anchor="start" x="245.5" y="-684.8" font-family="Helvetica,sans-Serif" font-size="11.00" fill="#000000">intervention_modified</text>
<polygon fill="none" stroke="#000000" points="442.5,-677.7 442.5,-699.7 536.5,-699.7 536.5,-677.7 442.5,-677.7"/>
<text text-anchor="start" x="445.5" y="-685.4" font-family="Helvetica,sans-Serif" font-size="11.00" fill="#000000">bool[1]</text>
<polygon fill="none" stroke="#000000" points="225.5,-655.7 225.5,-677.7 442.5,-677.7 442.5,-655.7 225.5,-655.7"/>
<text text-anchor="start" x="245.5" y="-662.8" font-family="Helvetica,sans-Serif" font-size="11.00" fill="#000000">progression_modified</text>
<polygon fill="none" stroke="#000000" points="442.5,-655.7 442.5,-677.7 536.5,-677.7 536.5,-655.7 442.5,-655.7"/>
<text text-anchor="start" x="445.5" y="-663.4" font-family="Helvetica,sans-Serif" font-size="11.00" fill="#000000">bool[1]</text>
<polygon fill="none" stroke="#000000" points="225.5,-633.7 225.5,-655.7 442.5,-655.7 442.5,-633.7 225.5,-633.7"/>
<image xlink:href="../../images/foreignKeys.png" width="11px" height="12px" preserveAspectRatio="xMinYMin meet" x="230.5" y="-650.7"/>
<text text-anchor="start" x="245.5" y="-640.8" font-family="Helvetica,sans-Serif" font-size="11.00" fill="#000000">legacy_id</text>
<polygon fill="none" stroke="#000000" points="442.5,-633.7 442.5,-655.7 536.5,-655.7 536.5,-633.7 442.5,-633.7"/>
<text text-anchor="start" x="445.5" y="-641.4" font-family="Helvetica,sans-Serif" font-size="11.00" fill="#000000">int8[19]</text>
<polygon fill="#ffffff" stroke="transparent" points="225.5,-614.7 225.5,-633.7 338.5,-633.7 338.5,-614.7 225.5,-614.7"/>
<polygon fill="none" stroke="#000000" points="225.5,-614.7 225.5,-633.7 338.5,-633.7 338.5,-614.7 225.5,-614.7"/>
<text text-anchor="start" x="228.5" y="-620.8" font-family="Helvetica,sans-Serif" font-size="11.00" fill="#000000">&lt; 1</text>
<polygon fill="#ffffff" stroke="transparent" points="338.5,-614.7 338.5,-633.7 442.5,-633.7 442.5,-614.7 338.5,-614.7"/>
<polygon fill="none" stroke="#000000" points="338.5,-614.7 338.5,-633.7 442.5,-633.7 442.5,-614.7 338.5,-614.7"/>
<text text-anchor="start" x="433.3862" y="-620.8" font-family="Helvetica,sans-Serif" font-size="11.00" fill="#000000"> &#160;</text>
<polygon fill="#ffffff" stroke="transparent" points="442.5,-614.7 442.5,-633.7 536.5,-633.7 536.5,-614.7 442.5,-614.7"/>
<polygon fill="none" stroke="#000000" points="442.5,-614.7 442.5,-633.7 536.5,-633.7 536.5,-614.7 442.5,-614.7"/>
<text text-anchor="start" x="517.9053" y="-620.8" font-family="Helvetica,sans-Serif" font-size="11.00" fill="#000000">0 &gt;</text>
<polygon fill="none" stroke="#000000" stroke-width="2" points="224,-613.7 224,-1075.7 537,-1075.7 537,-613.7 224,-613.7"/>
</a>
</g>
</g>
<!-- identified_need_audit&#45;&gt;audit_revision -->
<g id="edge5" class="edge">
<title>identified_need_audit:w&#45;&gt;audit_revision:e</title>
<path fill="none" stroke="#000000" d="M213.9408,-1031.605C176.4756,-962.0232 227.9322,-516.7 174,-516.7"/>
<polygon fill="#000000" stroke="#000000" points="219.2128,-1035.7531 223.2739,-1043.5292 222.3564,-1038.2266 225.5,-1040.7 225.5,-1040.7 225.5,-1040.7 222.3564,-1038.2266 227.7261,-1037.8708 219.2128,-1035.7531 219.2128,-1035.7531"/>
<ellipse fill="none" stroke="#000000" cx="216.6979" cy="-1033.7744" rx="3.2" ry="3.2"/>
</g>
<!-- interview_audit -->
<g id="node7" class="node">
<title>interview_audit</title>
<g id="a_node7"><a xlink:href="../../tables/interview_audit.html" xlink:title="interview_audit" target="_top">
<polygon fill="#ffffff" stroke="transparent" points="309,-530.2 309,-591.2 452,-591.2 452,-530.2 309,-530.2"/>
<polygon fill="#f5f5f5" stroke="transparent" points="309.5,-567.7 309.5,-590.7 452.5,-590.7 452.5,-567.7 309.5,-567.7"/>
<polygon fill="none" stroke="#000000" points="309.5,-567.7 309.5,-590.7 452.5,-590.7 452.5,-567.7 309.5,-567.7"/>
<text text-anchor="start" x="314.5" y="-576.3" font-family="Helvetica,sans-Serif" font-weight="bold" font-size="11.00" fill="#000000">interview_audit</text>
<text text-anchor="start" x="418.0219" y="-575.8" font-family="Helvetica,sans-Serif" font-size="11.00" fill="#000000">[table]</text>
<polygon fill="none" stroke="#000000" points="309.5,-548.7 309.5,-567.7 452.5,-567.7 452.5,-548.7 309.5,-548.7"/>
<text text-anchor="start" x="312.5" y="-554.8" font-family="Helvetica,sans-Serif" font-size="11.00" fill="#000000">...</text>
<polygon fill="#ffffff" stroke="transparent" points="309.5,-529.7 309.5,-548.7 379.5,-548.7 379.5,-529.7 309.5,-529.7"/>
<polygon fill="none" stroke="#000000" points="309.5,-529.7 309.5,-548.7 379.5,-548.7 379.5,-529.7 309.5,-529.7"/>
<text text-anchor="start" x="312.5" y="-535.8" font-family="Helvetica,sans-Serif" font-size="11.00" fill="#000000">&lt; 1</text>
<polygon fill="#ffffff" stroke="transparent" points="379.5,-529.7 379.5,-548.7 415.5,-548.7 415.5,-529.7 379.5,-529.7"/>
<polygon fill="none" stroke="#000000" points="379.5,-529.7 379.5,-548.7 415.5,-548.7 415.5,-529.7 379.5,-529.7"/>
<text text-anchor="start" x="406.3862" y="-535.8" font-family="Helvetica,sans-Serif" font-size="11.00" fill="#000000"> &#160;</text>
<polygon fill="#ffffff" stroke="transparent" points="415.5,-529.7 415.5,-548.7 452.5,-548.7 452.5,-529.7 415.5,-529.7"/>
<polygon fill="none" stroke="#000000" points="415.5,-529.7 415.5,-548.7 452.5,-548.7 452.5,-529.7 415.5,-529.7"/>
<text text-anchor="start" x="443.3862" y="-535.8" font-family="Helvetica,sans-Serif" font-size="11.00" fill="#000000"> &#160;</text>
</a>
</g>
</g>
<!-- interview_audit&#45;&gt;audit_revision -->
<g id="edge6" class="edge">
<title>interview_audit:w&#45;&gt;audit_revision:e</title>
<path fill="none" stroke="#000000" d="M295.0324,-556.9176C244.6376,-551.2493 231.7574,-516.7 174,-516.7"/>
<polygon fill="#000000" stroke="#000000" points="301.5117,-557.2679 309.3056,-561.2947 305.5058,-557.484 309.5,-557.7 309.5,-557.7 309.5,-557.7 305.5058,-557.484 309.6944,-554.1053 301.5117,-557.2679 301.5117,-557.2679"/>
<ellipse fill="none" stroke="#000000" cx="298.3163" cy="-557.0951" rx="3.2" ry="3.2"/>
</g>
<!-- investigation_audit -->
<g id="node8" class="node">
<title>investigation_audit</title>
<g id="a_node8"><a xlink:href="../../tables/investigation_audit.html" xlink:title="investigation_audit" target="_top">
<polygon fill="#ffffff" stroke="transparent" points="296,-448.2 296,-509.2 465,-509.2 465,-448.2 296,-448.2"/>
<polygon fill="#f5f5f5" stroke="transparent" points="296.5,-485.7 296.5,-508.7 465.5,-508.7 465.5,-485.7 296.5,-485.7"/>
<polygon fill="none" stroke="#000000" points="296.5,-485.7 296.5,-508.7 465.5,-508.7 465.5,-485.7 296.5,-485.7"/>
<text text-anchor="start" x="301.5" y="-494.3" font-family="Helvetica,sans-Serif" font-weight="bold" font-size="11.00" fill="#000000">investigation_audit</text>
<text text-anchor="start" x="431.0219" y="-493.8" font-family="Helvetica,sans-Serif" font-size="11.00" fill="#000000">[table]</text>
<polygon fill="none" stroke="#000000" points="296.5,-466.7 296.5,-485.7 465.5,-485.7 465.5,-466.7 296.5,-466.7"/>
<text text-anchor="start" x="299.5" y="-472.8" font-family="Helvetica,sans-Serif" font-size="11.00" fill="#000000">...</text>
<polygon fill="#ffffff" stroke="transparent" points="296.5,-447.7 296.5,-466.7 379.5,-466.7 379.5,-447.7 296.5,-447.7"/>
<polygon fill="none" stroke="#000000" points="296.5,-447.7 296.5,-466.7 379.5,-466.7 379.5,-447.7 296.5,-447.7"/>
<text text-anchor="start" x="299.5" y="-453.8" font-family="Helvetica,sans-Serif" font-size="11.00" fill="#000000">&lt; 1</text>
<polygon fill="#ffffff" stroke="transparent" points="379.5,-447.7 379.5,-466.7 422.5,-466.7 422.5,-447.7 379.5,-447.7"/>
<polygon fill="none" stroke="#000000" points="379.5,-447.7 379.5,-466.7 422.5,-466.7 422.5,-447.7 379.5,-447.7"/>
<text text-anchor="start" x="413.3862" y="-453.8" font-family="Helvetica,sans-Serif" font-size="11.00" fill="#000000"> &#160;</text>
<polygon fill="#ffffff" stroke="transparent" points="422.5,-447.7 422.5,-466.7 465.5,-466.7 465.5,-447.7 422.5,-447.7"/>
<polygon fill="none" stroke="#000000" points="422.5,-447.7 422.5,-466.7 465.5,-466.7 465.5,-447.7 422.5,-447.7"/>
<text text-anchor="start" x="456.3862" y="-453.8" font-family="Helvetica,sans-Serif" font-size="11.00" fill="#000000"> &#160;</text>
</a>
</g>
</g>
<!-- investigation_audit&#45;&gt;audit_revision -->
<g id="edge7" class="edge">
<title>investigation_audit:w&#45;&gt;audit_revision:e</title>
<path fill="none" stroke="#000000" d="M281.8695,-476.673C237.259,-482.8819 226.1426,-516.7 174,-516.7"/>
<polygon fill="#000000" stroke="#000000" points="288.5176,-476.2309 296.7389,-479.2921 292.5088,-475.9655 296.5,-475.7 296.5,-475.7 296.5,-475.7 292.5088,-475.9655 296.2611,-472.1079 288.5176,-476.2309 288.5176,-476.2309"/>
<ellipse fill="none" stroke="#000000" cx="285.3247" cy="-476.4433" rx="3.2" ry="3.2"/>
</g>
<!-- person_summary_audit -->
<g id="node9" class="node">
<title>person_summary_audit</title>
<g id="a_node9"><a xlink:href="../../tables/person_summary_audit.html" xlink:title="person_summary_audit" target="_top">
<polygon fill="#ffffff" stroke="transparent" points="283,-366.2 283,-427.2 478,-427.2 478,-366.2 283,-366.2"/>
<polygon fill="#f5f5f5" stroke="transparent" points="283.5,-403.7 283.5,-426.7 478.5,-426.7 478.5,-403.7 283.5,-403.7"/>
<polygon fill="none" stroke="#000000" points="283.5,-403.7 283.5,-426.7 478.5,-426.7 478.5,-403.7 283.5,-403.7"/>
<text text-anchor="start" x="288.5" y="-412.3" font-family="Helvetica,sans-Serif" font-weight="bold" font-size="11.00" fill="#000000">person_summary_audit</text>
<text text-anchor="start" x="444.0219" y="-411.8" font-family="Helvetica,sans-Serif" font-size="11.00" fill="#000000">[table]</text>
<polygon fill="none" stroke="#000000" points="283.5,-384.7 283.5,-403.7 478.5,-403.7 478.5,-384.7 283.5,-384.7"/>
<text text-anchor="start" x="286.5" y="-390.8" font-family="Helvetica,sans-Serif" font-size="11.00" fill="#000000">...</text>
<polygon fill="#ffffff" stroke="transparent" points="283.5,-365.7 283.5,-384.7 379.5,-384.7 379.5,-365.7 283.5,-365.7"/>
<polygon fill="none" stroke="#000000" points="283.5,-365.7 283.5,-384.7 379.5,-384.7 379.5,-365.7 283.5,-365.7"/>
<text text-anchor="start" x="286.5" y="-371.8" font-family="Helvetica,sans-Serif" font-size="11.00" fill="#000000">&lt; 1</text>
<polygon fill="#ffffff" stroke="transparent" points="379.5,-365.7 379.5,-384.7 428.5,-384.7 428.5,-365.7 379.5,-365.7"/>
<polygon fill="none" stroke="#000000" points="379.5,-365.7 379.5,-384.7 428.5,-384.7 428.5,-365.7 379.5,-365.7"/>
<text text-anchor="start" x="419.3862" y="-371.8" font-family="Helvetica,sans-Serif" font-size="11.00" fill="#000000"> &#160;</text>
<polygon fill="#ffffff" stroke="transparent" points="428.5,-365.7 428.5,-384.7 478.5,-384.7 478.5,-365.7 428.5,-365.7"/>
<polygon fill="none" stroke="#000000" points="428.5,-365.7 428.5,-384.7 478.5,-384.7 478.5,-365.7 428.5,-365.7"/>
<text text-anchor="start" x="469.3862" y="-371.8" font-family="Helvetica,sans-Serif" font-size="11.00" fill="#000000"> &#160;</text>
</a>
</g>
</g>
<!-- person_summary_audit&#45;&gt;audit_revision -->
<g id="edge8" class="edge">
<title>person_summary_audit:w&#45;&gt;audit_revision:e</title>
<path fill="none" stroke="#000000" d="M269.1078,-394.8155C244.5974,-399.0333 235.7603,-414.9305 215,-437.7 188.3477,-466.9317 213.5581,-516.7 174,-516.7"/>
<polygon fill="#000000" stroke="#000000" points="275.5239,-394.3183 283.7782,-397.2892 279.512,-394.0091 283.5,-393.7 283.5,-393.7 283.5,-393.7 279.512,-394.0091 283.2218,-390.1108 275.5239,-394.3183 275.5239,-394.3183"/>
<ellipse fill="none" stroke="#000000" cx="272.3335" cy="-394.5656" rx="3.2" ry="3.2"/>
</g>
<!-- plan_audit -->
<g id="node10" class="node">
<title>plan_audit</title>
<g id="a_node10"><a xlink:href="../../tables/plan_audit.html" xlink:title="plan_audit" target="_top">
<polygon fill="#ffffff" stroke="transparent" points="326,-284.2 326,-345.2 435,-345.2 435,-284.2 326,-284.2"/>
<polygon fill="#f5f5f5" stroke="transparent" points="326.5,-321.7 326.5,-344.7 435.5,-344.7 435.5,-321.7 326.5,-321.7"/>
<polygon fill="none" stroke="#000000" points="326.5,-321.7 326.5,-344.7 435.5,-344.7 435.5,-321.7 326.5,-321.7"/>
<text text-anchor="start" x="331.5" y="-330.3" font-family="Helvetica,sans-Serif" font-weight="bold" font-size="11.00" fill="#000000">plan_audit</text>
<text text-anchor="start" x="401.0219" y="-329.8" font-family="Helvetica,sans-Serif" font-size="11.00" fill="#000000">[table]</text>
<polygon fill="none" stroke="#000000" points="326.5,-302.7 326.5,-321.7 435.5,-321.7 435.5,-302.7 326.5,-302.7"/>
<text text-anchor="start" x="329.5" y="-308.8" font-family="Helvetica,sans-Serif" font-size="11.00" fill="#000000">...</text>
<polygon fill="#ffffff" stroke="transparent" points="326.5,-283.7 326.5,-302.7 379.5,-302.7 379.5,-283.7 326.5,-283.7"/>
<polygon fill="none" stroke="#000000" points="326.5,-283.7 326.5,-302.7 379.5,-302.7 379.5,-283.7 326.5,-283.7"/>
<text text-anchor="start" x="329.5" y="-289.8" font-family="Helvetica,sans-Serif" font-size="11.00" fill="#000000">&lt; 1</text>
<polygon fill="#ffffff" stroke="transparent" points="379.5,-283.7 379.5,-302.7 407.5,-302.7 407.5,-283.7 379.5,-283.7"/>
<polygon fill="none" stroke="#000000" points="379.5,-283.7 379.5,-302.7 407.5,-302.7 407.5,-283.7 379.5,-283.7"/>
<text text-anchor="start" x="398.3862" y="-289.8" font-family="Helvetica,sans-Serif" font-size="11.00" fill="#000000"> &#160;</text>
<polygon fill="#ffffff" stroke="transparent" points="407.5,-283.7 407.5,-302.7 435.5,-302.7 435.5,-283.7 407.5,-283.7"/>
<polygon fill="none" stroke="#000000" points="407.5,-283.7 407.5,-302.7 435.5,-302.7 435.5,-283.7 407.5,-283.7"/>
<text text-anchor="start" x="426.3862" y="-289.8" font-family="Helvetica,sans-Serif" font-size="11.00" fill="#000000"> &#160;</text>
</a>
</g>
</g>
<!-- plan_audit&#45;&gt;audit_revision -->
<g id="edge9" class="edge">
<title>plan_audit:w&#45;&gt;audit_revision:e</title>
<path fill="none" stroke="#000000" d="M311.9987,-311.8385C268.7092,-312.7994 246.8442,-319.5493 215,-355.7 166.1924,-411.1081 247.8393,-516.7 174,-516.7"/>
<polygon fill="#000000" stroke="#000000" points="318.5004,-311.7765 326.5344,-315.2998 322.5002,-311.7382 326.5,-311.7 326.5,-311.7 326.5,-311.7 322.5002,-311.7382 326.4656,-308.1002 318.5004,-311.7765 318.5004,-311.7765"/>
<ellipse fill="none" stroke="#000000" cx="315.3005" cy="-311.8071" rx="3.2" ry="3.2"/>
</g>
<!-- referral_audit -->
<g id="node11" class="node">
<title>referral_audit</title>
<g id="a_node11"><a xlink:href="../../tables/referral_audit.html" xlink:title="referral_audit" target="_top">
<polygon fill="#ffffff" stroke="transparent" points="315,-202.2 315,-263.2 446,-263.2 446,-202.2 315,-202.2"/>
<polygon fill="#f5f5f5" stroke="transparent" points="315.5,-239.7 315.5,-262.7 446.5,-262.7 446.5,-239.7 315.5,-239.7"/>
<polygon fill="none" stroke="#000000" points="315.5,-239.7 315.5,-262.7 446.5,-262.7 446.5,-239.7 315.5,-239.7"/>
<text text-anchor="start" x="320.5" y="-248.3" font-family="Helvetica,sans-Serif" font-weight="bold" font-size="11.00" fill="#000000">referral_audit</text>
<text text-anchor="start" x="412.0219" y="-247.8" font-family="Helvetica,sans-Serif" font-size="11.00" fill="#000000">[table]</text>
<polygon fill="none" stroke="#000000" points="315.5,-220.7 315.5,-239.7 446.5,-239.7 446.5,-220.7 315.5,-220.7"/>
<text text-anchor="start" x="318.5" y="-226.8" font-family="Helvetica,sans-Serif" font-size="11.00" fill="#000000">...</text>
<polygon fill="#ffffff" stroke="transparent" points="315.5,-201.7 315.5,-220.7 379.5,-220.7 379.5,-201.7 315.5,-201.7"/>
<polygon fill="none" stroke="#000000" points="315.5,-201.7 315.5,-220.7 379.5,-220.7 379.5,-201.7 315.5,-201.7"/>
<text text-anchor="start" x="318.5" y="-207.8" font-family="Helvetica,sans-Serif" font-size="11.00" fill="#000000">&lt; 1</text>
<polygon fill="#ffffff" stroke="transparent" points="379.5,-201.7 379.5,-220.7 412.5,-220.7 412.5,-201.7 379.5,-201.7"/>
<polygon fill="none" stroke="#000000" points="379.5,-201.7 379.5,-220.7 412.5,-220.7 412.5,-201.7 379.5,-201.7"/>
<text text-anchor="start" x="403.3862" y="-207.8" font-family="Helvetica,sans-Serif" font-size="11.00" fill="#000000"> &#160;</text>
<polygon fill="#ffffff" stroke="transparent" points="412.5,-201.7 412.5,-220.7 446.5,-220.7 446.5,-201.7 412.5,-201.7"/>
<polygon fill="none" stroke="#000000" points="412.5,-201.7 412.5,-220.7 446.5,-220.7 446.5,-201.7 412.5,-201.7"/>
<text text-anchor="start" x="437.3862" y="-207.8" font-family="Helvetica,sans-Serif" font-size="11.00" fill="#000000"> &#160;</text>
</a>
</g>
</g>
<!-- referral_audit&#45;&gt;audit_revision -->
<g id="edge10" class="edge">
<title>referral_audit:w&#45;&gt;audit_revision:e</title>
<path fill="none" stroke="#000000" d="M300.9323,-229.9176C262.0618,-231.2384 241.8333,-239.3133 215,-273.7 181.3097,-316.8738 228.7632,-516.7 174,-516.7"/>
<polygon fill="#000000" stroke="#000000" points="307.5009,-229.8195 315.5538,-233.2996 311.5004,-229.7598 315.5,-229.7 315.5,-229.7 315.5,-229.7 311.5004,-229.7598 315.4462,-226.1004 307.5009,-229.8195 307.5009,-229.8195"/>
<ellipse fill="none" stroke="#000000" cx="304.3012" cy="-229.8673" rx="3.2" ry="3.2"/>
</g>
<!-- review_audit -->
<g id="node12" class="node">
<title>review_audit</title>
<g id="a_node12"><a xlink:href="../../tables/review_audit.html" xlink:title="review_audit" target="_top">
<polygon fill="#ffffff" stroke="transparent" points="318,-120.2 318,-181.2 443,-181.2 443,-120.2 318,-120.2"/>
<polygon fill="#f5f5f5" stroke="transparent" points="318.5,-157.7 318.5,-180.7 443.5,-180.7 443.5,-157.7 318.5,-157.7"/>
<polygon fill="none" stroke="#000000" points="318.5,-157.7 318.5,-180.7 443.5,-180.7 443.5,-157.7 318.5,-157.7"/>
<text text-anchor="start" x="323.5" y="-166.3" font-family="Helvetica,sans-Serif" font-weight="bold" font-size="11.00" fill="#000000">review_audit</text>
<text text-anchor="start" x="409.0219" y="-165.8" font-family="Helvetica,sans-Serif" font-size="11.00" fill="#000000">[table]</text>
<polygon fill="none" stroke="#000000" points="318.5,-138.7 318.5,-157.7 443.5,-157.7 443.5,-138.7 318.5,-138.7"/>
<text text-anchor="start" x="321.5" y="-144.8" font-family="Helvetica,sans-Serif" font-size="11.00" fill="#000000">...</text>
<polygon fill="#ffffff" stroke="transparent" points="318.5,-119.7 318.5,-138.7 379.5,-138.7 379.5,-119.7 318.5,-119.7"/>
<polygon fill="none" stroke="#000000" points="318.5,-119.7 318.5,-138.7 379.5,-138.7 379.5,-119.7 318.5,-119.7"/>
<text text-anchor="start" x="321.5" y="-125.8" font-family="Helvetica,sans-Serif" font-size="11.00" fill="#000000">&lt; 1</text>
<polygon fill="#ffffff" stroke="transparent" points="379.5,-119.7 379.5,-138.7 411.5,-138.7 411.5,-119.7 379.5,-119.7"/>
<polygon fill="none" stroke="#000000" points="379.5,-119.7 379.5,-138.7 411.5,-138.7 411.5,-119.7 379.5,-119.7"/>
<text text-anchor="start" x="402.3862" y="-125.8" font-family="Helvetica,sans-Serif" font-size="11.00" fill="#000000"> &#160;</text>
<polygon fill="#ffffff" stroke="transparent" points="411.5,-119.7 411.5,-138.7 443.5,-138.7 443.5,-119.7 411.5,-119.7"/>
<polygon fill="none" stroke="#000000" points="411.5,-119.7 411.5,-138.7 443.5,-138.7 443.5,-119.7 411.5,-119.7"/>
<text text-anchor="start" x="434.3862" y="-125.8" font-family="Helvetica,sans-Serif" font-size="11.00" fill="#000000"> &#160;</text>
</a>
</g>
</g>
<!-- review_audit&#45;&gt;audit_revision -->
<g id="edge11" class="edge">
<title>review_audit:w&#45;&gt;audit_revision:e</title>
<path fill="none" stroke="#000000" d="M304.0588,-147.8607C263.6972,-148.9062 242.0758,-155.8726 215,-191.7 171.1106,-249.7757 246.7947,-516.7 174,-516.7"/>
<polygon fill="#000000" stroke="#000000" points="310.5005,-147.7891 318.5401,-151.2998 314.5002,-147.7445 318.5,-147.7 318.5,-147.7 318.5,-147.7 314.5002,-147.7445 318.4599,-144.1002 310.5005,-147.7891 310.5005,-147.7891"/>
<ellipse fill="none" stroke="#000000" cx="307.3007" cy="-147.8247" rx="3.2" ry="3.2"/>
</g>
<!-- safer_custody_screening_outcome_audit -->
<g id="node13" class="node">
<title>safer_custody_screening_outcome_audit</title>
<g id="a_node13"><a xlink:href="../../tables/safer_custody_screening_outcome_audit.html" xlink:title="safer_custody_screening_outcome_audit" target="_top">
<polygon fill="#ffffff" stroke="transparent" points="225.5,-38.2 225.5,-99.2 535.5,-99.2 535.5,-38.2 225.5,-38.2"/>
<polygon fill="#f5f5f5" stroke="transparent" points="225.5,-75.7 225.5,-98.7 535.5,-98.7 535.5,-75.7 225.5,-75.7"/>
<polygon fill="none" stroke="#000000" points="225.5,-75.7 225.5,-98.7 535.5,-98.7 535.5,-75.7 225.5,-75.7"/>
<text text-anchor="start" x="230.5" y="-84.3" font-family="Helvetica,sans-Serif" font-weight="bold" font-size="11.00" fill="#000000">safer_custody_screening_outcome_audit</text>
<text text-anchor="start" x="501.0219" y="-83.8" font-family="Helvetica,sans-Serif" font-size="11.00" fill="#000000">[table]</text>
<polygon fill="none" stroke="#000000" points="225.5,-56.7 225.5,-75.7 535.5,-75.7 535.5,-56.7 225.5,-56.7"/>
<text text-anchor="start" x="228.5" y="-62.8" font-family="Helvetica,sans-Serif" font-size="11.00" fill="#000000">...</text>
<polygon fill="#ffffff" stroke="transparent" points="225.5,-37.7 225.5,-56.7 378.5,-56.7 378.5,-37.7 225.5,-37.7"/>
<polygon fill="none" stroke="#000000" points="225.5,-37.7 225.5,-56.7 378.5,-56.7 378.5,-37.7 225.5,-37.7"/>
<text text-anchor="start" x="228.5" y="-43.8" font-family="Helvetica,sans-Serif" font-size="11.00" fill="#000000">&lt; 1</text>
<polygon fill="#ffffff" stroke="transparent" points="378.5,-37.7 378.5,-56.7 456.5,-56.7 456.5,-37.7 378.5,-37.7"/>
<polygon fill="none" stroke="#000000" points="378.5,-37.7 378.5,-56.7 456.5,-56.7 456.5,-37.7 378.5,-37.7"/>
<text text-anchor="start" x="447.3862" y="-43.8" font-family="Helvetica,sans-Serif" font-size="11.00" fill="#000000"> &#160;</text>
<polygon fill="#ffffff" stroke="transparent" points="456.5,-37.7 456.5,-56.7 535.5,-56.7 535.5,-37.7 456.5,-37.7"/>
<polygon fill="none" stroke="#000000" points="456.5,-37.7 456.5,-56.7 535.5,-56.7 535.5,-37.7 456.5,-37.7"/>
<text text-anchor="start" x="526.3862" y="-43.8" font-family="Helvetica,sans-Serif" font-size="11.00" fill="#000000"> &#160;</text>
</a>
</g>
</g>
<!-- safer_custody_screening_outcome_audit&#45;&gt;audit_revision -->
<g id="edge12" class="edge">
<title>safer_custody_screening_outcome_audit:w&#45;&gt;audit_revision:e</title>
<path fill="none" stroke="#000000" d="M211.5629,-69.3303C139.7745,-112.0122 269.554,-516.7 174,-516.7"/>
<polygon fill="#000000" stroke="#000000" points="217.7583,-67.7166 226.4075,-69.1838 221.6292,-66.7083 225.5,-65.7 225.5,-65.7 225.5,-65.7 221.6292,-66.7083 224.5925,-62.2162 217.7583,-67.7166 217.7583,-67.7166"/>
<ellipse fill="none" stroke="#000000" cx="214.6616" cy="-68.5232" rx="3.2" ry="3.2"/>
</g>
</g>
</svg>
