<?xml version="1.0" encoding="UTF-8" standalone="no"?>
<!DOCTYPE svg PUBLIC "-//W3C//DTD SVG 1.1//EN"
 "http://www.w3.org/Graphics/SVG/1.1/DTD/svg11.dtd">
<!-- Generated by graphviz version 2.40.1 (20161225.0304)
 -->
<!-- Title: twoDegreesRelationshipsDiagram Pages: 1 -->
<svg width="660pt" height="421pt"
 viewBox="0.00 0.00 660.00 420.70" xmlns="http://www.w3.org/2000/svg" xmlns:xlink="http://www.w3.org/1999/xlink">
<g id="graph0" class="graph" transform="scale(1 1) rotate(0) translate(4 416.7)">
<title>twoDegreesRelationshipsDiagram</title>
<polygon fill="#ffffff" stroke="transparent" points="-4,4 -4,-416.7 656,-416.7 656,4 -4,4"/>
<text text-anchor="middle" x="72.4936" y="-7.3" font-family="Helvetica,sans-Serif" font-size="11.00" fill="#000000">Generated by SchemaSpy</text>
<!-- identified_need -->
<g id="node1" class="node">
<title>identified_need</title>
<g id="a_node1"><a xlink:href="../../tables/identified_need.html" xlink:title="identified_need" target="_top">
<polygon fill="#ffffff" stroke="transparent" points="394,-120.7 394,-408.7 644,-408.7 644,-120.7 394,-120.7"/>
<polygon fill="#f5f5f5" stroke="transparent" points="396,-383.7 396,-406.7 642,-406.7 642,-383.7 396,-383.7"/>
<polygon fill="none" stroke="#000000" points="396,-383.7 396,-406.7 642,-406.7 642,-383.7 396,-383.7"/>
<text text-anchor="start" x="401" y="-392.3" font-family="Helvetica,sans-Serif" font-weight="bold" font-size="11.00" fill="#000000">identified_need</text>
<text text-anchor="start" x="607.0437" y="-391.8" font-family="Helvetica,sans-Serif" font-size="11.00" fill="#000000">[table]</text>
<polygon fill="none" stroke="#000000" points="396,-361.7 396,-383.7 548,-383.7 548,-361.7 396,-361.7"/>
<image xlink:href="../../images/primaryKeys.png" width="11px" height="12px" preserveAspectRatio="xMinYMin meet" x="401" y="-378.7"/>
<text text-anchor="start" x="416" y="-368.8" font-family="Helvetica,sans-Serif" font-size="11.00" fill="#000000">identified_need_id</text>
<polygon fill="none" stroke="#000000" points="548,-361.7 548,-383.7 642,-383.7 642,-361.7 548,-361.7"/>
<text text-anchor="start" x="550.9758" y="-369.4" font-family="Helvetica,sans-Serif" font-size="11.00" fill="#000000">uuid[2147483647]</text>
<polygon fill="#ffffff" stroke="transparent" points="396,-339.7 396,-361.7 548,-361.7 548,-339.7 396,-339.7"/>
<polygon fill="none" stroke="#000000" points="396,-339.7 396,-361.7 548,-361.7 548,-339.7 396,-339.7"/>
<image xlink:href="../../images/foreignKeys.png" width="11px" height="12px" preserveAspectRatio="xMinYMin meet" x="401" y="-356.7"/>
<text text-anchor="start" x="416" y="-346.8" font-family="Helvetica,sans-Serif" font-size="11.00" fill="#000000">plan_id</text>
<polygon fill="none" stroke="#000000" points="548,-339.7 548,-361.7 642,-361.7 642,-339.7 548,-339.7"/>
<text text-anchor="start" x="550.9758" y="-347.4" font-family="Helvetica,sans-Serif" font-size="11.00" fill="#000000">uuid[2147483647]</text>
<polygon fill="none" stroke="#000000" points="396,-317.7 396,-339.7 548,-339.7 548,-317.7 396,-317.7"/>
<text text-anchor="start" x="416" y="-324.8" font-family="Helvetica,sans-Serif" font-size="11.00" fill="#000000">identified_need</text>
<polygon fill="none" stroke="#000000" points="548,-317.7 548,-339.7 642,-339.7 642,-317.7 548,-317.7"/>
<text text-anchor="start" x="551" y="-325.4" font-family="Helvetica,sans-Serif" font-size="11.00" fill="#000000">text[2147483647]</text>
<polygon fill="none" stroke="#000000" points="396,-295.7 396,-317.7 548,-317.7 548,-295.7 396,-295.7"/>
<text text-anchor="start" x="416" y="-302.8" font-family="Helvetica,sans-Serif" font-size="11.00" fill="#000000">responsible_person</text>
<polygon fill="none" stroke="#000000" points="548,-295.7 548,-317.7 642,-317.7 642,-295.7 548,-295.7"/>
<text text-anchor="start" x="551" y="-303.4" font-family="Helvetica,sans-Serif" font-size="11.00" fill="#000000">varchar[100]</text>
<polygon fill="none" stroke="#000000" points="396,-273.7 396,-295.7 548,-295.7 548,-273.7 396,-273.7"/>
<text text-anchor="start" x="416" y="-280.8" font-family="Helvetica,sans-Serif" font-size="11.00" fill="#000000">created_date</text>
<polygon fill="none" stroke="#000000" points="548,-273.7 548,-295.7 642,-295.7 642,-273.7 548,-273.7"/>
<text text-anchor="start" x="551" y="-281.4" font-family="Helvetica,sans-Serif" font-size="11.00" fill="#000000">date[13]</text>
<polygon fill="none" stroke="#000000" points="396,-251.7 396,-273.7 548,-273.7 548,-251.7 396,-251.7"/>
<text text-anchor="start" x="416" y="-258.8" font-family="Helvetica,sans-Serif" font-size="11.00" fill="#000000">target_date</text>
<polygon fill="none" stroke="#000000" points="548,-251.7 548,-273.7 642,-273.7 642,-251.7 548,-251.7"/>
<text text-anchor="start" x="551" y="-259.4" font-family="Helvetica,sans-Serif" font-size="11.00" fill="#000000">date[13]</text>
<polygon fill="none" stroke="#000000" points="396,-229.7 396,-251.7 548,-251.7 548,-229.7 396,-229.7"/>
<text text-anchor="start" x="416" y="-236.8" font-family="Helvetica,sans-Serif" font-size="11.00" fill="#000000">closed_date</text>
<polygon fill="none" stroke="#000000" points="548,-229.7 548,-251.7 642,-251.7 642,-229.7 548,-229.7"/>
<text text-anchor="start" x="551" y="-237.4" font-family="Helvetica,sans-Serif" font-size="11.00" fill="#000000">date[13]</text>
<polygon fill="none" stroke="#000000" points="396,-207.7 396,-229.7 548,-229.7 548,-207.7 396,-207.7"/>
<text text-anchor="start" x="416" y="-214.8" font-family="Helvetica,sans-Serif" font-size="11.00" fill="#000000">intervention</text>
<polygon fill="none" stroke="#000000" points="548,-207.7 548,-229.7 642,-229.7 642,-207.7 548,-207.7"/>
<text text-anchor="start" x="551" y="-215.4" font-family="Helvetica,sans-Serif" font-size="11.00" fill="#000000">text[2147483647]</text>
<polygon fill="none" stroke="#000000" points="396,-185.7 396,-207.7 548,-207.7 548,-185.7 396,-185.7"/>
<text text-anchor="start" x="416" y="-192.8" font-family="Helvetica,sans-Serif" font-size="11.00" fill="#000000">progression</text>
<polygon fill="none" stroke="#000000" points="548,-185.7 548,-207.7 642,-207.7 642,-185.7 548,-185.7"/>
<text text-anchor="start" x="551" y="-193.4" font-family="Helvetica,sans-Serif" font-size="11.00" fill="#000000">text[2147483647]</text>
<polygon fill="none" stroke="#000000" points="396,-163.7 396,-185.7 548,-185.7 548,-163.7 396,-163.7"/>
<text text-anchor="start" x="416" y="-170.8" font-family="Helvetica,sans-Serif" font-size="11.00" fill="#000000">version</text>
<polygon fill="none" stroke="#000000" points="548,-163.7 548,-185.7 642,-185.7 642,-163.7 548,-163.7"/>
<text text-anchor="start" x="551" y="-171.4" font-family="Helvetica,sans-Serif" font-size="11.00" fill="#000000">int4[10]</text>
<polygon fill="#ffffff" stroke="transparent" points="396,-141.7 396,-163.7 548,-163.7 548,-141.7 396,-141.7"/>
<polygon fill="none" stroke="#000000" points="396,-141.7 396,-163.7 548,-163.7 548,-141.7 396,-141.7"/>
<image xlink:href="../../images/foreignKeys.png" width="11px" height="12px" preserveAspectRatio="xMinYMin meet" x="401" y="-158.7"/>
<text text-anchor="start" x="416" y="-148.8" font-family="Helvetica,sans-Serif" font-size="11.00" fill="#000000">legacy_id</text>
<polygon fill="none" stroke="#000000" points="548,-141.7 548,-163.7 642,-163.7 642,-141.7 548,-141.7"/>
<text text-anchor="start" x="551" y="-149.4" font-family="Helvetica,sans-Serif" font-size="11.00" fill="#000000">int8[19]</text>
<polygon fill="#ffffff" stroke="transparent" points="396,-122.7 396,-141.7 476,-141.7 476,-122.7 396,-122.7"/>
<polygon fill="none" stroke="#000000" points="396,-122.7 396,-141.7 476,-141.7 476,-122.7 396,-122.7"/>
<text text-anchor="start" x="399" y="-128.8" font-family="Helvetica,sans-Serif" font-size="11.00" fill="#000000">&lt; 1</text>
<polygon fill="#ffffff" stroke="transparent" points="476,-122.7 476,-141.7 548,-141.7 548,-122.7 476,-122.7"/>
<polygon fill="none" stroke="#000000" points="476,-122.7 476,-141.7 548,-141.7 548,-122.7 476,-122.7"/>
<text text-anchor="start" x="538.8862" y="-128.8" font-family="Helvetica,sans-Serif" font-size="11.00" fill="#000000"> &#160;</text>
<polygon fill="#ffffff" stroke="transparent" points="548,-122.7 548,-141.7 642,-141.7 642,-122.7 548,-122.7"/>
<polygon fill="none" stroke="#000000" points="548,-122.7 548,-141.7 642,-141.7 642,-122.7 548,-122.7"/>
<text text-anchor="start" x="623.4053" y="-128.8" font-family="Helvetica,sans-Serif" font-size="11.00" fill="#000000">0 &gt;</text>
<polygon fill="none" stroke="#000000" stroke-width="2" points="395,-121.7 395,-407.7 643,-407.7 643,-121.7 395,-121.7"/>
</a>
</g>
</g>
<!-- plan -->
<g id="node2" class="node">
<title>plan</title>
<g id="a_node2"><a xlink:href="../../tables/plan.html" xlink:title="plan" target="_top">
<polygon fill="#ffffff" stroke="transparent" points="172,-159.2 172,-242.2 345,-242.2 345,-159.2 172,-159.2"/>
<polygon fill="#f5f5f5" stroke="transparent" points="172.5,-218.7 172.5,-241.7 345.5,-241.7 345.5,-218.7 172.5,-218.7"/>
<polygon fill="none" stroke="#000000" points="172.5,-218.7 172.5,-241.7 345.5,-241.7 345.5,-218.7 172.5,-218.7"/>
<text text-anchor="start" x="177.5" y="-227.3" font-family="Helvetica,sans-Serif" font-weight="bold" font-size="11.00" fill="#000000">plan</text>
<text text-anchor="start" x="310.5437" y="-226.8" font-family="Helvetica,sans-Serif" font-size="11.00" fill="#000000">[table]</text>
<polygon fill="none" stroke="#000000" points="172.5,-196.7 172.5,-218.7 345.5,-218.7 345.5,-196.7 172.5,-196.7"/>
<image xlink:href="../../images/primaryKeys.png" width="11px" height="12px" preserveAspectRatio="xMinYMin meet" x="177.5" y="-213.7"/>
<text text-anchor="start" x="192.5" y="-203.8" font-family="Helvetica,sans-Serif" font-size="11.00" fill="#000000">plan_id</text>
<polygon fill="none" stroke="#000000" points="172.5,-177.7 172.5,-196.7 345.5,-196.7 345.5,-177.7 172.5,-177.7"/>
<text text-anchor="start" x="175.5" y="-183.8" font-family="Helvetica,sans-Serif" font-size="11.00" fill="#000000">...</text>
<polygon fill="#ffffff" stroke="transparent" points="172.5,-158.7 172.5,-177.7 252.5,-177.7 252.5,-158.7 172.5,-158.7"/>
<polygon fill="none" stroke="#000000" points="172.5,-158.7 172.5,-177.7 252.5,-177.7 252.5,-158.7 172.5,-158.7"/>
<text text-anchor="start" x="175.5" y="-164.8" font-family="Helvetica,sans-Serif" font-size="11.00" fill="#000000">&lt; 1</text>
<polygon fill="#ffffff" stroke="transparent" points="252.5,-158.7 252.5,-177.7 294.5,-177.7 294.5,-158.7 252.5,-158.7"/>
<polygon fill="none" stroke="#000000" points="252.5,-158.7 252.5,-177.7 294.5,-177.7 294.5,-158.7 252.5,-158.7"/>
<text text-anchor="start" x="285.3862" y="-164.8" font-family="Helvetica,sans-Serif" font-size="11.00" fill="#000000"> &#160;</text>
<polygon fill="#ffffff" stroke="transparent" points="294.5,-158.7 294.5,-177.7 345.5,-177.7 345.5,-158.7 294.5,-158.7"/>
<polygon fill="none" stroke="#000000" points="294.5,-158.7 294.5,-177.7 345.5,-177.7 345.5,-158.7 294.5,-158.7"/>
<text text-anchor="start" x="326.9053" y="-164.8" font-family="Helvetica,sans-Serif" font-size="11.00" fill="#000000">2 &gt;</text>
</a>
</g>
</g>
<!-- identified_need&#45;&gt;plan -->
<g id="edge1" class="edge">
<title>identified_need:w&#45;&gt;plan:e</title>
<path fill="none" stroke="#000000" d="M381.7915,-347.7132C341.9672,-327.178 407.1099,-207.7 345.5,-207.7"/>
<polygon fill="#000000" stroke="#000000" points="388.1711,-349.0543 395.2594,-354.223 392.0855,-349.8771 396,-350.7 396,-350.7 396,-350.7 392.0855,-349.8771 396.7406,-347.177 388.1711,-349.0543 388.1711,-349.0543"/>
<ellipse fill="none" stroke="#000000" cx="385.0395" cy="-348.396" rx="3.2" ry="3.2"/>
</g>
<!-- csip_record -->
<g id="node3" class="node">
<title>csip_record</title>
<g id="a_node3"><a xlink:href="../../tables/csip_record.html" xlink:title="csip_record" target="_top">
<polygon fill="#ffffff" stroke="transparent" points="8,-180.2 8,-241.2 123,-241.2 123,-180.2 8,-180.2"/>
<polygon fill="#f5f5f5" stroke="transparent" points="8.5,-217.7 8.5,-240.7 123.5,-240.7 123.5,-217.7 8.5,-217.7"/>
<polygon fill="none" stroke="#000000" points="8.5,-217.7 8.5,-240.7 123.5,-240.7 123.5,-217.7 8.5,-217.7"/>
<text text-anchor="start" x="13.5" y="-226.3" font-family="Helvetica,sans-Serif" font-weight="bold" font-size="11.00" fill="#000000">csip_record</text>
<text text-anchor="start" x="89.0219" y="-225.8" font-family="Helvetica,sans-Serif" font-size="11.00" fill="#000000">[table]</text>
<polygon fill="none" stroke="#000000" points="8.5,-198.7 8.5,-217.7 123.5,-217.7 123.5,-198.7 8.5,-198.7"/>
<text text-anchor="start" x="11.5" y="-204.8" font-family="Helvetica,sans-Serif" font-size="11.00" fill="#000000">...</text>
<polygon fill="#ffffff" stroke="transparent" points="8.5,-179.7 8.5,-198.7 59.5,-198.7 59.5,-179.7 8.5,-179.7"/>
<polygon fill="none" stroke="#000000" points="8.5,-179.7 8.5,-198.7 59.5,-198.7 59.5,-179.7 8.5,-179.7"/>
<text text-anchor="start" x="11.5" y="-185.8" font-family="Helvetica,sans-Serif" font-size="11.00" fill="#000000">&lt; 2</text>
<polygon fill="#ffffff" stroke="transparent" points="59.5,-179.7 59.5,-198.7 86.5,-198.7 86.5,-179.7 59.5,-179.7"/>
<polygon fill="none" stroke="#000000" points="59.5,-179.7 59.5,-198.7 86.5,-198.7 86.5,-179.7 59.5,-179.7"/>
<text text-anchor="start" x="77.3862" y="-185.8" font-family="Helvetica,sans-Serif" font-size="11.00" fill="#000000"> &#160;</text>
<polygon fill="#ffffff" stroke="transparent" points="86.5,-179.7 86.5,-198.7 123.5,-198.7 123.5,-179.7 86.5,-179.7"/>
<polygon fill="none" stroke="#000000" points="86.5,-179.7 86.5,-198.7 123.5,-198.7 123.5,-179.7 86.5,-179.7"/>
<text text-anchor="start" x="104.9053" y="-185.8" font-family="Helvetica,sans-Serif" font-size="11.00" fill="#000000">2 &gt;</text>
</a>
</g>
</g>
<!-- plan&#45;&gt;csip_record -->
<g id="edge2" class="edge">
<title>plan:w&#45;&gt;csip_record:e</title>
<path fill="none" stroke="#000000" d="M161.7573,-207.7C148.1063,-207.7 141.1944,-207.7 123.5,-207.7"/>
<polygon fill="#000000" stroke="#000000" points="171.7,-203.7 171.7,-211.7 170.1,-211.7 170.1,-203.7 171.7,-203.7"/>
<polyline fill="none" stroke="#000000" points="172.5,-207.7 168.5,-207.7 "/>
<ellipse fill="none" stroke="#000000" cx="165.3" cy="-207.7001" rx="3.2" ry="3.2"/>
</g>
<!-- review -->
<g id="node4" class="node">
<title>review</title>
<g id="a_node4"><a xlink:href="../../tables/review.html" xlink:title="review" target="_top">
<polygon fill="#ffffff" stroke="transparent" points="477,-38.2 477,-99.2 561,-99.2 561,-38.2 477,-38.2"/>
<polygon fill="#f5f5f5" stroke="transparent" points="477,-75.7 477,-98.7 561,-98.7 561,-75.7 477,-75.7"/>
<polygon fill="none" stroke="#000000" points="477,-75.7 477,-98.7 561,-98.7 561,-75.7 477,-75.7"/>
<text text-anchor="start" x="482" y="-84.3" font-family="Helvetica,sans-Serif" font-weight="bold" font-size="11.00" fill="#000000">review</text>
<text text-anchor="start" x="526.5219" y="-83.8" font-family="Helvetica,sans-Serif" font-size="11.00" fill="#000000">[table]</text>
<polygon fill="none" stroke="#000000" points="477,-56.7 477,-75.7 561,-75.7 561,-56.7 477,-56.7"/>
<text text-anchor="start" x="480" y="-62.8" font-family="Helvetica,sans-Serif" font-size="11.00" fill="#000000">...</text>
<polygon fill="#ffffff" stroke="transparent" points="477,-37.7 477,-56.7 513,-56.7 513,-37.7 477,-37.7"/>
<polygon fill="none" stroke="#000000" points="477,-37.7 477,-56.7 513,-56.7 513,-37.7 477,-37.7"/>
<text text-anchor="start" x="480" y="-43.8" font-family="Helvetica,sans-Serif" font-size="11.00" fill="#000000">&lt; 1</text>
<polygon fill="#ffffff" stroke="transparent" points="513,-37.7 513,-56.7 532,-56.7 532,-37.7 513,-37.7"/>
<polygon fill="none" stroke="#000000" points="513,-37.7 513,-56.7 532,-56.7 532,-37.7 513,-37.7"/>
<text text-anchor="start" x="522.8862" y="-43.8" font-family="Helvetica,sans-Serif" font-size="11.00" fill="#000000"> &#160;</text>
<polygon fill="#ffffff" stroke="transparent" points="532,-37.7 532,-56.7 561,-56.7 561,-37.7 532,-37.7"/>
<polygon fill="none" stroke="#000000" points="532,-37.7 532,-56.7 561,-56.7 561,-37.7 532,-37.7"/>
<text text-anchor="start" x="542.4053" y="-43.8" font-family="Helvetica,sans-Serif" font-size="11.00" fill="#000000">1 &gt;</text>
</a>
</g>
</g>
<!-- review&#45;&gt;plan -->
<g id="edge3" class="edge">
<title>review:w&#45;&gt;plan:e</title>
<path fill="none" stroke="#000000" d="M462.3043,-66.2124C428.1451,-68.8207 413.2539,-81.6517 386,-110.7 354.0345,-144.7701 392.218,-207.7 345.5,-207.7"/>
<polygon fill="#000000" stroke="#000000" points="469.0049,-65.9788 477.1255,-69.2978 473.0024,-65.8394 477,-65.7 477,-65.7 477,-65.7 473.0024,-65.8394 476.8745,-62.1022 469.0049,-65.9788 469.0049,-65.9788"/>
<ellipse fill="none" stroke="#000000" cx="465.8068" cy="-66.0903" rx="3.2" ry="3.2"/>
</g>
</g>
</svg>
