<?xml version="1.0" encoding="UTF-8" standalone="no"?>
<!DOCTYPE svg PUBLIC "-//W3C//DTD SVG 1.1//EN"
 "http://www.w3.org/Graphics/SVG/1.1/DTD/svg11.dtd">
<!-- Generated by graphviz version 2.40.1 (20161225.0304)
 -->
<!-- Title: oneDegreeRelationshipsDiagramImplied Pages: 1 -->
<svg width="561pt" height="514pt"
 viewBox="0.00 0.00 561.00 514.20" xmlns="http://www.w3.org/2000/svg" xmlns:xlink="http://www.w3.org/1999/xlink">
<g id="graph0" class="graph" transform="scale(1 1) rotate(0) translate(4 510.2)">
<title>oneDegreeRelationshipsDiagramImplied</title>
<polygon fill="#ffffff" stroke="transparent" points="-4,4 -4,-510.2 557,-510.2 557,4 -4,4"/>
<text text-anchor="middle" x="72.4936" y="-7.3" font-family="Helvetica,sans-Serif" font-size="11.00" fill="#000000">Generated by SchemaSpy</text>
<!-- identified_need_audit -->
<g id="node1" class="node">
<title>identified_need_audit</title>
<g id="a_node1"><a xlink:href="../../tables/identified_need_audit.html" xlink:title="identified_need_audit" target="_top">
<polygon fill="#ffffff" stroke="transparent" points="230,-38.2 230,-502.2 545,-502.2 545,-38.2 230,-38.2"/>
<polygon fill="#f5f5f5" stroke="transparent" points="232.5,-477.2 232.5,-500.2 543.5,-500.2 543.5,-477.2 232.5,-477.2"/>
<polygon fill="none" stroke="#000000" points="232.5,-477.2 232.5,-500.2 543.5,-500.2 543.5,-477.2 232.5,-477.2"/>
<text text-anchor="start" x="237.5" y="-485.8" font-family="Helvetica,sans-Serif" font-weight="bold" font-size="11.00" fill="#000000">identified_need_audit</text>
<text text-anchor="start" x="508.5437" y="-485.3" font-family="Helvetica,sans-Serif" font-size="11.00" fill="#000000">[table]</text>
<polygon fill="none" stroke="#000000" points="232.5,-455.2 232.5,-477.2 449.5,-477.2 449.5,-455.2 232.5,-455.2"/>
<image xlink:href="../../images/primaryKeys.png" width="11px" height="12px" preserveAspectRatio="xMinYMin meet" x="237.5" y="-472.2"/>
<text text-anchor="start" x="252.5" y="-462.3" font-family="Helvetica,sans-Serif" font-size="11.00" fill="#000000">rev_id</text>
<polygon fill="none" stroke="#000000" points="449.5,-455.2 449.5,-477.2 543.5,-477.2 543.5,-455.2 449.5,-455.2"/>
<text text-anchor="start" x="452.5" y="-462.9" font-family="Helvetica,sans-Serif" font-size="11.00" fill="#000000">int8[19]</text>
<polygon fill="none" stroke="#000000" points="232.5,-433.2 232.5,-455.2 449.5,-455.2 449.5,-433.2 232.5,-433.2"/>
<text text-anchor="start" x="252.5" y="-440.3" font-family="Helvetica,sans-Serif" font-size="11.00" fill="#000000">rev_type</text>
<polygon fill="none" stroke="#000000" points="449.5,-433.2 449.5,-455.2 543.5,-455.2 543.5,-433.2 449.5,-433.2"/>
<text text-anchor="start" x="452.5" y="-440.9" font-family="Helvetica,sans-Serif" font-size="11.00" fill="#000000">int2[5]</text>
<polygon fill="none" stroke="#000000" points="232.5,-411.2 232.5,-433.2 449.5,-433.2 449.5,-411.2 232.5,-411.2"/>
<image xlink:href="../../images/primaryKeys.png" width="11px" height="12px" preserveAspectRatio="xMinYMin meet" x="237.5" y="-428.2"/>
<text text-anchor="start" x="252.5" y="-418.3" font-family="Helvetica,sans-Serif" font-size="11.00" fill="#000000">identified_need_id</text>
<polygon fill="none" stroke="#000000" points="449.5,-411.2 449.5,-433.2 543.5,-433.2 543.5,-411.2 449.5,-411.2"/>
<text text-anchor="start" x="452.4758" y="-418.9" font-family="Helvetica,sans-Serif" font-size="11.00" fill="#000000">uuid[2147483647]</text>
<polygon fill="none" stroke="#000000" points="232.5,-389.2 232.5,-411.2 449.5,-411.2 449.5,-389.2 232.5,-389.2"/>
<image xlink:href="../../images/foreignKeys.png" width="11px" height="12px" preserveAspectRatio="xMinYMin meet" x="237.5" y="-406.2"/>
<text text-anchor="start" x="252.5" y="-396.3" font-family="Helvetica,sans-Serif" font-size="11.00" fill="#000000">plan_id</text>
<polygon fill="none" stroke="#000000" points="449.5,-389.2 449.5,-411.2 543.5,-411.2 543.5,-389.2 449.5,-389.2"/>
<text text-anchor="start" x="452.4758" y="-396.9" font-family="Helvetica,sans-Serif" font-size="11.00" fill="#000000">uuid[2147483647]</text>
<polygon fill="none" stroke="#000000" points="232.5,-367.2 232.5,-389.2 449.5,-389.2 449.5,-367.2 232.5,-367.2"/>
<text text-anchor="start" x="252.5" y="-374.3" font-family="Helvetica,sans-Serif" font-size="11.00" fill="#000000">identified_need</text>
<polygon fill="none" stroke="#000000" points="449.5,-367.2 449.5,-389.2 543.5,-389.2 543.5,-367.2 449.5,-367.2"/>
<text text-anchor="start" x="452.5" y="-374.9" font-family="Helvetica,sans-Serif" font-size="11.00" fill="#000000">text[2147483647]</text>
<polygon fill="none" stroke="#000000" points="232.5,-345.2 232.5,-367.2 449.5,-367.2 449.5,-345.2 232.5,-345.2"/>
<text text-anchor="start" x="252.5" y="-352.3" font-family="Helvetica,sans-Serif" font-size="11.00" fill="#000000">responsible_person</text>
<polygon fill="none" stroke="#000000" points="449.5,-345.2 449.5,-367.2 543.5,-367.2 543.5,-345.2 449.5,-345.2"/>
<text text-anchor="start" x="452.5" y="-352.9" font-family="Helvetica,sans-Serif" font-size="11.00" fill="#000000">varchar[100]</text>
<polygon fill="none" stroke="#000000" points="232.5,-323.2 232.5,-345.2 449.5,-345.2 449.5,-323.2 232.5,-323.2"/>
<text text-anchor="start" x="252.5" y="-330.3" font-family="Helvetica,sans-Serif" font-size="11.00" fill="#000000">created_date</text>
<polygon fill="none" stroke="#000000" points="449.5,-323.2 449.5,-345.2 543.5,-345.2 543.5,-323.2 449.5,-323.2"/>
<text text-anchor="start" x="452.5" y="-330.9" font-family="Helvetica,sans-Serif" font-size="11.00" fill="#000000">date[13]</text>
<polygon fill="none" stroke="#000000" points="232.5,-301.2 232.5,-323.2 449.5,-323.2 449.5,-301.2 232.5,-301.2"/>
<text text-anchor="start" x="252.5" y="-308.3" font-family="Helvetica,sans-Serif" font-size="11.00" fill="#000000">target_date</text>
<polygon fill="none" stroke="#000000" points="449.5,-301.2 449.5,-323.2 543.5,-323.2 543.5,-301.2 449.5,-301.2"/>
<text text-anchor="start" x="452.5" y="-308.9" font-family="Helvetica,sans-Serif" font-size="11.00" fill="#000000">date[13]</text>
<polygon fill="none" stroke="#000000" points="232.5,-279.2 232.5,-301.2 449.5,-301.2 449.5,-279.2 232.5,-279.2"/>
<text text-anchor="start" x="252.5" y="-286.3" font-family="Helvetica,sans-Serif" font-size="11.00" fill="#000000">closed_date</text>
<polygon fill="none" stroke="#000000" points="449.5,-279.2 449.5,-301.2 543.5,-301.2 543.5,-279.2 449.5,-279.2"/>
<text text-anchor="start" x="452.5" y="-286.9" font-family="Helvetica,sans-Serif" font-size="11.00" fill="#000000">date[13]</text>
<polygon fill="none" stroke="#000000" points="232.5,-257.2 232.5,-279.2 449.5,-279.2 449.5,-257.2 232.5,-257.2"/>
<text text-anchor="start" x="252.5" y="-264.3" font-family="Helvetica,sans-Serif" font-size="11.00" fill="#000000">intervention</text>
<polygon fill="none" stroke="#000000" points="449.5,-257.2 449.5,-279.2 543.5,-279.2 543.5,-257.2 449.5,-257.2"/>
<text text-anchor="start" x="452.5" y="-264.9" font-family="Helvetica,sans-Serif" font-size="11.00" fill="#000000">text[2147483647]</text>
<polygon fill="none" stroke="#000000" points="232.5,-235.2 232.5,-257.2 449.5,-257.2 449.5,-235.2 232.5,-235.2"/>
<text text-anchor="start" x="252.5" y="-242.3" font-family="Helvetica,sans-Serif" font-size="11.00" fill="#000000">progression</text>
<polygon fill="none" stroke="#000000" points="449.5,-235.2 449.5,-257.2 543.5,-257.2 543.5,-235.2 449.5,-235.2"/>
<text text-anchor="start" x="452.5" y="-242.9" font-family="Helvetica,sans-Serif" font-size="11.00" fill="#000000">text[2147483647]</text>
<polygon fill="none" stroke="#000000" points="232.5,-213.2 232.5,-235.2 449.5,-235.2 449.5,-213.2 232.5,-213.2"/>
<text text-anchor="start" x="252.5" y="-220.3" font-family="Helvetica,sans-Serif" font-size="11.00" fill="#000000">identified_need_modified</text>
<polygon fill="none" stroke="#000000" points="449.5,-213.2 449.5,-235.2 543.5,-235.2 543.5,-213.2 449.5,-213.2"/>
<text text-anchor="start" x="452.5" y="-220.9" font-family="Helvetica,sans-Serif" font-size="11.00" fill="#000000">bool[1]</text>
<polygon fill="none" stroke="#000000" points="232.5,-191.2 232.5,-213.2 449.5,-213.2 449.5,-191.2 232.5,-191.2"/>
<text text-anchor="start" x="252.5" y="-198.3" font-family="Helvetica,sans-Serif" font-size="11.00" fill="#000000">responsible_person_modified</text>
<polygon fill="none" stroke="#000000" points="449.5,-191.2 449.5,-213.2 543.5,-213.2 543.5,-191.2 449.5,-191.2"/>
<text text-anchor="start" x="452.5" y="-198.9" font-family="Helvetica,sans-Serif" font-size="11.00" fill="#000000">bool[1]</text>
<polygon fill="none" stroke="#000000" points="232.5,-169.2 232.5,-191.2 449.5,-191.2 449.5,-169.2 232.5,-169.2"/>
<text text-anchor="start" x="252.5" y="-176.3" font-family="Helvetica,sans-Serif" font-size="11.00" fill="#000000">created_date_modified</text>
<polygon fill="none" stroke="#000000" points="449.5,-169.2 449.5,-191.2 543.5,-191.2 543.5,-169.2 449.5,-169.2"/>
<text text-anchor="start" x="452.5" y="-176.9" font-family="Helvetica,sans-Serif" font-size="11.00" fill="#000000">bool[1]</text>
<polygon fill="none" stroke="#000000" points="232.5,-147.2 232.5,-169.2 449.5,-169.2 449.5,-147.2 232.5,-147.2"/>
<text text-anchor="start" x="252.5" y="-154.3" font-family="Helvetica,sans-Serif" font-size="11.00" fill="#000000">target_date_modified</text>
<polygon fill="none" stroke="#000000" points="449.5,-147.2 449.5,-169.2 543.5,-169.2 543.5,-147.2 449.5,-147.2"/>
<text text-anchor="start" x="452.5" y="-154.9" font-family="Helvetica,sans-Serif" font-size="11.00" fill="#000000">bool[1]</text>
<polygon fill="none" stroke="#000000" points="232.5,-125.2 232.5,-147.2 449.5,-147.2 449.5,-125.2 232.5,-125.2"/>
<text text-anchor="start" x="252.5" y="-132.3" font-family="Helvetica,sans-Serif" font-size="11.00" fill="#000000">closed_date_modified</text>
<polygon fill="none" stroke="#000000" points="449.5,-125.2 449.5,-147.2 543.5,-147.2 543.5,-125.2 449.5,-125.2"/>
<text text-anchor="start" x="452.5" y="-132.9" font-family="Helvetica,sans-Serif" font-size="11.00" fill="#000000">bool[1]</text>
<polygon fill="none" stroke="#000000" points="232.5,-103.2 232.5,-125.2 449.5,-125.2 449.5,-103.2 232.5,-103.2"/>
<text text-anchor="start" x="252.5" y="-110.3" font-family="Helvetica,sans-Serif" font-size="11.00" fill="#000000">intervention_modified</text>
<polygon fill="none" stroke="#000000" points="449.5,-103.2 449.5,-125.2 543.5,-125.2 543.5,-103.2 449.5,-103.2"/>
<text text-anchor="start" x="452.5" y="-110.9" font-family="Helvetica,sans-Serif" font-size="11.00" fill="#000000">bool[1]</text>
<polygon fill="none" stroke="#000000" points="232.5,-81.2 232.5,-103.2 449.5,-103.2 449.5,-81.2 232.5,-81.2"/>
<text text-anchor="start" x="252.5" y="-88.3" font-family="Helvetica,sans-Serif" font-size="11.00" fill="#000000">progression_modified</text>
<polygon fill="none" stroke="#000000" points="449.5,-81.2 449.5,-103.2 543.5,-103.2 543.5,-81.2 449.5,-81.2"/>
<text text-anchor="start" x="452.5" y="-88.9" font-family="Helvetica,sans-Serif" font-size="11.00" fill="#000000">bool[1]</text>
<polygon fill="none" stroke="#000000" points="232.5,-59.2 232.5,-81.2 449.5,-81.2 449.5,-59.2 232.5,-59.2"/>
<image xlink:href="../../images/foreignKeys.png" width="11px" height="12px" preserveAspectRatio="xMinYMin meet" x="237.5" y="-76.2"/>
<text text-anchor="start" x="252.5" y="-66.3" font-family="Helvetica,sans-Serif" font-size="11.00" fill="#000000">legacy_id</text>
<polygon fill="none" stroke="#000000" points="449.5,-59.2 449.5,-81.2 543.5,-81.2 543.5,-59.2 449.5,-59.2"/>
<text text-anchor="start" x="452.5" y="-66.9" font-family="Helvetica,sans-Serif" font-size="11.00" fill="#000000">int8[19]</text>
<polygon fill="#ffffff" stroke="transparent" points="232.5,-40.2 232.5,-59.2 345.5,-59.2 345.5,-40.2 232.5,-40.2"/>
<polygon fill="none" stroke="#000000" points="232.5,-40.2 232.5,-59.2 345.5,-59.2 345.5,-40.2 232.5,-40.2"/>
<text text-anchor="start" x="235.5" y="-46.3" font-family="Helvetica,sans-Serif" font-size="11.00" fill="#000000">&lt; 3</text>
<polygon fill="#ffffff" stroke="transparent" points="345.5,-40.2 345.5,-59.2 449.5,-59.2 449.5,-40.2 345.5,-40.2"/>
<polygon fill="none" stroke="#000000" points="345.5,-40.2 345.5,-59.2 449.5,-59.2 449.5,-40.2 345.5,-40.2"/>
<text text-anchor="start" x="440.3862" y="-46.3" font-family="Helvetica,sans-Serif" font-size="11.00" fill="#000000"> &#160;</text>
<polygon fill="#ffffff" stroke="transparent" points="449.5,-40.2 449.5,-59.2 543.5,-59.2 543.5,-40.2 449.5,-40.2"/>
<polygon fill="none" stroke="#000000" points="449.5,-40.2 449.5,-59.2 543.5,-59.2 543.5,-40.2 449.5,-40.2"/>
<text text-anchor="start" x="524.9053" y="-46.3" font-family="Helvetica,sans-Serif" font-size="11.00" fill="#000000">0 &gt;</text>
<polygon fill="none" stroke="#000000" stroke-width="2" points="231,-39.2 231,-501.2 544,-501.2 544,-39.2 231,-39.2"/>
</a>
</g>
</g>
<!-- audit_revision -->
<g id="node2" class="node">
<title>audit_revision</title>
<g id="a_node2"><a xlink:href="../../tables/audit_revision.html" xlink:title="audit_revision" target="_top">
<polygon fill="#ffffff" stroke="transparent" points="11.5,-123.7 11.5,-206.7 177.5,-206.7 177.5,-123.7 11.5,-123.7"/>
<polygon fill="#f5f5f5" stroke="transparent" points="11.5,-183.2 11.5,-206.2 177.5,-206.2 177.5,-183.2 11.5,-183.2"/>
<polygon fill="none" stroke="#000000" points="11.5,-183.2 11.5,-206.2 177.5,-206.2 177.5,-183.2 11.5,-183.2"/>
<text text-anchor="start" x="16.5" y="-191.8" font-family="Helvetica,sans-Serif" font-weight="bold" font-size="11.00" fill="#000000">audit_revision</text>
<text text-anchor="start" x="142.5437" y="-191.3" font-family="Helvetica,sans-Serif" font-size="11.00" fill="#000000">[table]</text>
<polygon fill="none" stroke="#000000" points="11.5,-161.2 11.5,-183.2 177.5,-183.2 177.5,-161.2 11.5,-161.2"/>
<image xlink:href="../../images/primaryKeys.png" width="11px" height="12px" preserveAspectRatio="xMinYMin meet" x="16.5" y="-178.2"/>
<text text-anchor="start" x="31.5" y="-168.3" font-family="Helvetica,sans-Serif" font-size="11.00" fill="#000000">id</text>
<polygon fill="none" stroke="#000000" points="11.5,-142.2 11.5,-161.2 177.5,-161.2 177.5,-142.2 11.5,-142.2"/>
<text text-anchor="start" x="14.5" y="-148.3" font-family="Helvetica,sans-Serif" font-size="11.00" fill="#000000">...</text>
<polygon fill="#ffffff" stroke="transparent" points="11.5,-123.2 11.5,-142.2 80.5,-142.2 80.5,-123.2 11.5,-123.2"/>
<polygon fill="none" stroke="#000000" points="11.5,-123.2 11.5,-142.2 80.5,-142.2 80.5,-123.2 11.5,-123.2"/>
<text text-anchor="start" x="14.5" y="-129.3" font-family="Helvetica,sans-Serif" font-size="11.00" fill="#000000"> &#160;</text>
<polygon fill="#ffffff" stroke="transparent" points="80.5,-123.2 80.5,-142.2 121.5,-142.2 121.5,-123.2 80.5,-123.2"/>
<polygon fill="none" stroke="#000000" points="80.5,-123.2 80.5,-142.2 121.5,-142.2 121.5,-123.2 80.5,-123.2"/>
<text text-anchor="start" x="112.3862" y="-129.3" font-family="Helvetica,sans-Serif" font-size="11.00" fill="#000000"> &#160;</text>
<polygon fill="#ffffff" stroke="transparent" points="121.5,-123.2 121.5,-142.2 177.5,-142.2 177.5,-123.2 121.5,-123.2"/>
<polygon fill="none" stroke="#000000" points="121.5,-123.2 121.5,-142.2 177.5,-142.2 177.5,-123.2 121.5,-123.2"/>
<text text-anchor="start" x="152.7904" y="-129.3" font-family="Helvetica,sans-Serif" font-size="11.00" fill="#000000">33 &gt;</text>
</a>
</g>
</g>
<!-- identified_need_audit&#45;&gt;audit_revision -->
<g id="edge1" class="edge">
<title>identified_need_audit:w&#45;&gt;audit_revision:e</title>
<path fill="none" stroke="#000000" stroke-dasharray="5,2" d="M218.5384,-73.8302C190.5959,-92.0004 223.1694,-172.2 177.5,-172.2"/>
<polygon fill="#000000" stroke="#000000" points="224.7574,-72.2132 233.406,-73.6841 228.6287,-71.2066 232.5,-70.2 232.5,-70.2 232.5,-70.2 228.6287,-71.2066 231.594,-66.7159 224.7574,-72.2132 224.7574,-72.2132"/>
<ellipse fill="none" stroke="#000000" cx="221.6604" cy="-73.0185" rx="3.2" ry="3.2"/>
</g>
<!-- identified_need_audit&#45;&gt;audit_revision -->
<g id="edge3" class="edge">
<title>identified_need_audit:w&#45;&gt;audit_revision:e</title>
<path fill="none" stroke="#000000" d="M218.8986,-460.5895C177.8475,-419.944 238.5144,-172.2 177.5,-172.2"/>
<polygon fill="#000000" stroke="#000000" points="225.1045,-463.1493 231.1272,-469.528 228.8022,-464.6747 232.5,-466.2 232.5,-466.2 232.5,-466.2 228.8022,-464.6747 233.8728,-462.872 225.1045,-463.1493 225.1045,-463.1493"/>
<ellipse fill="none" stroke="#000000" cx="222.1463" cy="-461.9291" rx="3.2" ry="3.2"/>
</g>
<!-- plan -->
<g id="node3" class="node">
<title>plan</title>
<g id="a_node3"><a xlink:href="../../tables/plan.html" xlink:title="plan" target="_top">
<polygon fill="#ffffff" stroke="transparent" points="8,-329.7 8,-434.7 181,-434.7 181,-329.7 8,-329.7"/>
<polygon fill="#f5f5f5" stroke="transparent" points="8.5,-411.2 8.5,-434.2 181.5,-434.2 181.5,-411.2 8.5,-411.2"/>
<polygon fill="none" stroke="#000000" points="8.5,-411.2 8.5,-434.2 181.5,-434.2 181.5,-411.2 8.5,-411.2"/>
<text text-anchor="start" x="13.5" y="-419.8" font-family="Helvetica,sans-Serif" font-weight="bold" font-size="11.00" fill="#000000">plan</text>
<text text-anchor="start" x="146.5437" y="-419.3" font-family="Helvetica,sans-Serif" font-size="11.00" fill="#000000">[table]</text>
<polygon fill="none" stroke="#000000" points="8.5,-389.2 8.5,-411.2 181.5,-411.2 181.5,-389.2 8.5,-389.2"/>
<image xlink:href="../../images/primaryKeys.png" width="11px" height="12px" preserveAspectRatio="xMinYMin meet" x="13.5" y="-406.2"/>
<text text-anchor="start" x="28.5" y="-396.3" font-family="Helvetica,sans-Serif" font-size="11.00" fill="#000000">plan_id</text>
<polygon fill="#ffffff" stroke="transparent" points="8.5,-367.2 8.5,-389.2 181.5,-389.2 181.5,-367.2 8.5,-367.2"/>
<polygon fill="none" stroke="#000000" points="8.5,-367.2 8.5,-389.2 181.5,-389.2 181.5,-367.2 8.5,-367.2"/>
<text text-anchor="start" x="28.5" y="-374.3" font-family="Helvetica,sans-Serif" font-size="11.00" fill="#000000">next_review_date</text>
<polygon fill="none" stroke="#000000" points="8.5,-348.2 8.5,-367.2 181.5,-367.2 181.5,-348.2 8.5,-348.2"/>
<text text-anchor="start" x="11.5" y="-354.3" font-family="Helvetica,sans-Serif" font-size="11.00" fill="#000000">...</text>
<polygon fill="#ffffff" stroke="transparent" points="8.5,-329.2 8.5,-348.2 88.5,-348.2 88.5,-329.2 8.5,-329.2"/>
<polygon fill="none" stroke="#000000" points="8.5,-329.2 8.5,-348.2 88.5,-348.2 88.5,-329.2 8.5,-329.2"/>
<text text-anchor="start" x="11.5" y="-335.3" font-family="Helvetica,sans-Serif" font-size="11.00" fill="#000000">&lt; 1</text>
<polygon fill="#ffffff" stroke="transparent" points="88.5,-329.2 88.5,-348.2 130.5,-348.2 130.5,-329.2 88.5,-329.2"/>
<polygon fill="none" stroke="#000000" points="88.5,-329.2 88.5,-348.2 130.5,-348.2 130.5,-329.2 88.5,-329.2"/>
<text text-anchor="start" x="121.3862" y="-335.3" font-family="Helvetica,sans-Serif" font-size="11.00" fill="#000000"> &#160;</text>
<polygon fill="#ffffff" stroke="transparent" points="130.5,-329.2 130.5,-348.2 181.5,-348.2 181.5,-329.2 130.5,-329.2"/>
<polygon fill="none" stroke="#000000" points="130.5,-329.2 130.5,-348.2 181.5,-348.2 181.5,-329.2 130.5,-329.2"/>
<text text-anchor="start" x="162.9053" y="-335.3" font-family="Helvetica,sans-Serif" font-size="11.00" fill="#000000">4 &gt;</text>
</a>
</g>
</g>
<!-- identified_need_audit&#45;&gt;plan -->
<g id="edge2" class="edge">
<title>identified_need_audit:w&#45;&gt;plan:e</title>
<path fill="none" stroke="#000000" stroke-dasharray="5,2" d="M217.776,-400.2C205.7815,-400.2 198.3229,-400.2 181.5,-400.2"/>
<polygon fill="#000000" stroke="#000000" points="224.5,-400.2001 232.5,-403.8 228.5,-400.2 232.5,-400.2 232.5,-400.2 232.5,-400.2 228.5,-400.2 232.5,-396.6 224.5,-400.2001 224.5,-400.2001"/>
<ellipse fill="none" stroke="#000000" cx="221.3" cy="-400.2001" rx="3.2" ry="3.2"/>
</g>
</g>
</svg>
