<?xml version="1.0" encoding="UTF-8" standalone="no"?>
<!DOCTYPE svg PUBLIC "-//W3C//DTD SVG 1.1//EN"
 "http://www.w3.org/Graphics/SVG/1.1/DTD/svg11.dtd">
<!-- Generated by graphviz version 2.40.1 (20161225.0304)
 -->
<!-- Title: oneDegreeRelationshipsDiagram Pages: 1 -->
<svg width="496pt" height="338pt"
 viewBox="0.00 0.00 496.00 338.20" xmlns="http://www.w3.org/2000/svg" xmlns:xlink="http://www.w3.org/1999/xlink">
<g id="graph0" class="graph" transform="scale(1 1) rotate(0) translate(4 334.2)">
<title>oneDegreeRelationshipsDiagram</title>
<polygon fill="#ffffff" stroke="transparent" points="-4,4 -4,-334.2 492,-334.2 492,4 -4,4"/>
<text text-anchor="middle" x="72.4936" y="-7.3" font-family="Helvetica,sans-Serif" font-size="11.00" fill="#000000">Generated by SchemaSpy</text>
<!-- identified_need -->
<g id="node1" class="node">
<title>identified_need</title>
<g id="a_node1"><a xlink:href="../../tables/identified_need.html" xlink:title="identified_need" target="_top">
<polygon fill="#ffffff" stroke="transparent" points="230,-38.2 230,-326.2 480,-326.2 480,-38.2 230,-38.2"/>
<polygon fill="#f5f5f5" stroke="transparent" points="232,-301.2 232,-324.2 478,-324.2 478,-301.2 232,-301.2"/>
<polygon fill="none" stroke="#000000" points="232,-301.2 232,-324.2 478,-324.2 478,-301.2 232,-301.2"/>
<text text-anchor="start" x="237" y="-309.8" font-family="Helvetica,sans-Serif" font-weight="bold" font-size="11.00" fill="#000000">identified_need</text>
<text text-anchor="start" x="443.0437" y="-309.3" font-family="Helvetica,sans-Serif" font-size="11.00" fill="#000000">[table]</text>
<polygon fill="none" stroke="#000000" points="232,-279.2 232,-301.2 384,-301.2 384,-279.2 232,-279.2"/>
<image xlink:href="../../images/primaryKeys.png" width="11px" height="12px" preserveAspectRatio="xMinYMin meet" x="237" y="-296.2"/>
<text text-anchor="start" x="252" y="-286.3" font-family="Helvetica,sans-Serif" font-size="11.00" fill="#000000">identified_need_id</text>
<polygon fill="none" stroke="#000000" points="384,-279.2 384,-301.2 478,-301.2 478,-279.2 384,-279.2"/>
<text text-anchor="start" x="386.9758" y="-286.9" font-family="Helvetica,sans-Serif" font-size="11.00" fill="#000000">uuid[2147483647]</text>
<polygon fill="#ffffff" stroke="transparent" points="232,-257.2 232,-279.2 384,-279.2 384,-257.2 232,-257.2"/>
<polygon fill="none" stroke="#000000" points="232,-257.2 232,-279.2 384,-279.2 384,-257.2 232,-257.2"/>
<image xlink:href="../../images/foreignKeys.png" width="11px" height="12px" preserveAspectRatio="xMinYMin meet" x="237" y="-274.2"/>
<text text-anchor="start" x="252" y="-264.3" font-family="Helvetica,sans-Serif" font-size="11.00" fill="#000000">plan_id</text>
<polygon fill="none" stroke="#000000" points="384,-257.2 384,-279.2 478,-279.2 478,-257.2 384,-257.2"/>
<text text-anchor="start" x="386.9758" y="-264.9" font-family="Helvetica,sans-Serif" font-size="11.00" fill="#000000">uuid[2147483647]</text>
<polygon fill="none" stroke="#000000" points="232,-235.2 232,-257.2 384,-257.2 384,-235.2 232,-235.2"/>
<text text-anchor="start" x="252" y="-242.3" font-family="Helvetica,sans-Serif" font-size="11.00" fill="#000000">identified_need</text>
<polygon fill="none" stroke="#000000" points="384,-235.2 384,-257.2 478,-257.2 478,-235.2 384,-235.2"/>
<text text-anchor="start" x="387" y="-242.9" font-family="Helvetica,sans-Serif" font-size="11.00" fill="#000000">text[2147483647]</text>
<polygon fill="none" stroke="#000000" points="232,-213.2 232,-235.2 384,-235.2 384,-213.2 232,-213.2"/>
<text text-anchor="start" x="252" y="-220.3" font-family="Helvetica,sans-Serif" font-size="11.00" fill="#000000">responsible_person</text>
<polygon fill="none" stroke="#000000" points="384,-213.2 384,-235.2 478,-235.2 478,-213.2 384,-213.2"/>
<text text-anchor="start" x="387" y="-220.9" font-family="Helvetica,sans-Serif" font-size="11.00" fill="#000000">varchar[100]</text>
<polygon fill="none" stroke="#000000" points="232,-191.2 232,-213.2 384,-213.2 384,-191.2 232,-191.2"/>
<text text-anchor="start" x="252" y="-198.3" font-family="Helvetica,sans-Serif" font-size="11.00" fill="#000000">created_date</text>
<polygon fill="none" stroke="#000000" points="384,-191.2 384,-213.2 478,-213.2 478,-191.2 384,-191.2"/>
<text text-anchor="start" x="387" y="-198.9" font-family="Helvetica,sans-Serif" font-size="11.00" fill="#000000">date[13]</text>
<polygon fill="none" stroke="#000000" points="232,-169.2 232,-191.2 384,-191.2 384,-169.2 232,-169.2"/>
<text text-anchor="start" x="252" y="-176.3" font-family="Helvetica,sans-Serif" font-size="11.00" fill="#000000">target_date</text>
<polygon fill="none" stroke="#000000" points="384,-169.2 384,-191.2 478,-191.2 478,-169.2 384,-169.2"/>
<text text-anchor="start" x="387" y="-176.9" font-family="Helvetica,sans-Serif" font-size="11.00" fill="#000000">date[13]</text>
<polygon fill="none" stroke="#000000" points="232,-147.2 232,-169.2 384,-169.2 384,-147.2 232,-147.2"/>
<text text-anchor="start" x="252" y="-154.3" font-family="Helvetica,sans-Serif" font-size="11.00" fill="#000000">closed_date</text>
<polygon fill="none" stroke="#000000" points="384,-147.2 384,-169.2 478,-169.2 478,-147.2 384,-147.2"/>
<text text-anchor="start" x="387" y="-154.9" font-family="Helvetica,sans-Serif" font-size="11.00" fill="#000000">date[13]</text>
<polygon fill="none" stroke="#000000" points="232,-125.2 232,-147.2 384,-147.2 384,-125.2 232,-125.2"/>
<text text-anchor="start" x="252" y="-132.3" font-family="Helvetica,sans-Serif" font-size="11.00" fill="#000000">intervention</text>
<polygon fill="none" stroke="#000000" points="384,-125.2 384,-147.2 478,-147.2 478,-125.2 384,-125.2"/>
<text text-anchor="start" x="387" y="-132.9" font-family="Helvetica,sans-Serif" font-size="11.00" fill="#000000">text[2147483647]</text>
<polygon fill="none" stroke="#000000" points="232,-103.2 232,-125.2 384,-125.2 384,-103.2 232,-103.2"/>
<text text-anchor="start" x="252" y="-110.3" font-family="Helvetica,sans-Serif" font-size="11.00" fill="#000000">progression</text>
<polygon fill="none" stroke="#000000" points="384,-103.2 384,-125.2 478,-125.2 478,-103.2 384,-103.2"/>
<text text-anchor="start" x="387" y="-110.9" font-family="Helvetica,sans-Serif" font-size="11.00" fill="#000000">text[2147483647]</text>
<polygon fill="none" stroke="#000000" points="232,-81.2 232,-103.2 384,-103.2 384,-81.2 232,-81.2"/>
<text text-anchor="start" x="252" y="-88.3" font-family="Helvetica,sans-Serif" font-size="11.00" fill="#000000">version</text>
<polygon fill="none" stroke="#000000" points="384,-81.2 384,-103.2 478,-103.2 478,-81.2 384,-81.2"/>
<text text-anchor="start" x="387" y="-88.9" font-family="Helvetica,sans-Serif" font-size="11.00" fill="#000000">int4[10]</text>
<polygon fill="#ffffff" stroke="transparent" points="232,-59.2 232,-81.2 384,-81.2 384,-59.2 232,-59.2"/>
<polygon fill="none" stroke="#000000" points="232,-59.2 232,-81.2 384,-81.2 384,-59.2 232,-59.2"/>
<image xlink:href="../../images/foreignKeys.png" width="11px" height="12px" preserveAspectRatio="xMinYMin meet" x="237" y="-76.2"/>
<text text-anchor="start" x="252" y="-66.3" font-family="Helvetica,sans-Serif" font-size="11.00" fill="#000000">legacy_id</text>
<polygon fill="none" stroke="#000000" points="384,-59.2 384,-81.2 478,-81.2 478,-59.2 384,-59.2"/>
<text text-anchor="start" x="387" y="-66.9" font-family="Helvetica,sans-Serif" font-size="11.00" fill="#000000">int8[19]</text>
<polygon fill="#ffffff" stroke="transparent" points="232,-40.2 232,-59.2 312,-59.2 312,-40.2 232,-40.2"/>
<polygon fill="none" stroke="#000000" points="232,-40.2 232,-59.2 312,-59.2 312,-40.2 232,-40.2"/>
<text text-anchor="start" x="235" y="-46.3" font-family="Helvetica,sans-Serif" font-size="11.00" fill="#000000">&lt; 1</text>
<polygon fill="#ffffff" stroke="transparent" points="312,-40.2 312,-59.2 384,-59.2 384,-40.2 312,-40.2"/>
<polygon fill="none" stroke="#000000" points="312,-40.2 312,-59.2 384,-59.2 384,-40.2 312,-40.2"/>
<text text-anchor="start" x="374.8862" y="-46.3" font-family="Helvetica,sans-Serif" font-size="11.00" fill="#000000"> &#160;</text>
<polygon fill="#ffffff" stroke="transparent" points="384,-40.2 384,-59.2 478,-59.2 478,-40.2 384,-40.2"/>
<polygon fill="none" stroke="#000000" points="384,-40.2 384,-59.2 478,-59.2 478,-40.2 384,-40.2"/>
<text text-anchor="start" x="459.4053" y="-46.3" font-family="Helvetica,sans-Serif" font-size="11.00" fill="#000000">0 &gt;</text>
<polygon fill="none" stroke="#000000" stroke-width="2" points="231,-39.2 231,-325.2 479,-325.2 479,-39.2 231,-39.2"/>
</a>
</g>
</g>
<!-- plan -->
<g id="node2" class="node">
<title>plan</title>
<g id="a_node2"><a xlink:href="../../tables/plan.html" xlink:title="plan" target="_top">
<polygon fill="#ffffff" stroke="transparent" points="8,-197.7 8,-302.7 181,-302.7 181,-197.7 8,-197.7"/>
<polygon fill="#f5f5f5" stroke="transparent" points="8.5,-279.2 8.5,-302.2 181.5,-302.2 181.5,-279.2 8.5,-279.2"/>
<polygon fill="none" stroke="#000000" points="8.5,-279.2 8.5,-302.2 181.5,-302.2 181.5,-279.2 8.5,-279.2"/>
<text text-anchor="start" x="13.5" y="-287.8" font-family="Helvetica,sans-Serif" font-weight="bold" font-size="11.00" fill="#000000">plan</text>
<text text-anchor="start" x="146.5437" y="-287.3" font-family="Helvetica,sans-Serif" font-size="11.00" fill="#000000">[table]</text>
<polygon fill="none" stroke="#000000" points="8.5,-257.2 8.5,-279.2 181.5,-279.2 181.5,-257.2 8.5,-257.2"/>
<image xlink:href="../../images/primaryKeys.png" width="11px" height="12px" preserveAspectRatio="xMinYMin meet" x="13.5" y="-274.2"/>
<text text-anchor="start" x="28.5" y="-264.3" font-family="Helvetica,sans-Serif" font-size="11.00" fill="#000000">plan_id</text>
<polygon fill="#ffffff" stroke="transparent" points="8.5,-235.2 8.5,-257.2 181.5,-257.2 181.5,-235.2 8.5,-235.2"/>
<polygon fill="none" stroke="#000000" points="8.5,-235.2 8.5,-257.2 181.5,-257.2 181.5,-235.2 8.5,-235.2"/>
<text text-anchor="start" x="28.5" y="-242.3" font-family="Helvetica,sans-Serif" font-size="11.00" fill="#000000">next_review_date</text>
<polygon fill="none" stroke="#000000" points="8.5,-216.2 8.5,-235.2 181.5,-235.2 181.5,-216.2 8.5,-216.2"/>
<text text-anchor="start" x="11.5" y="-222.3" font-family="Helvetica,sans-Serif" font-size="11.00" fill="#000000">...</text>
<polygon fill="#ffffff" stroke="transparent" points="8.5,-197.2 8.5,-216.2 88.5,-216.2 88.5,-197.2 8.5,-197.2"/>
<polygon fill="none" stroke="#000000" points="8.5,-197.2 8.5,-216.2 88.5,-216.2 88.5,-197.2 8.5,-197.2"/>
<text text-anchor="start" x="11.5" y="-203.3" font-family="Helvetica,sans-Serif" font-size="11.00" fill="#000000">&lt; 1</text>
<polygon fill="#ffffff" stroke="transparent" points="88.5,-197.2 88.5,-216.2 130.5,-216.2 130.5,-197.2 88.5,-197.2"/>
<polygon fill="none" stroke="#000000" points="88.5,-197.2 88.5,-216.2 130.5,-216.2 130.5,-197.2 88.5,-197.2"/>
<text text-anchor="start" x="121.3862" y="-203.3" font-family="Helvetica,sans-Serif" font-size="11.00" fill="#000000"> &#160;</text>
<polygon fill="#ffffff" stroke="transparent" points="130.5,-197.2 130.5,-216.2 181.5,-216.2 181.5,-197.2 130.5,-197.2"/>
<polygon fill="none" stroke="#000000" points="130.5,-197.2 130.5,-216.2 181.5,-216.2 181.5,-197.2 130.5,-197.2"/>
<text text-anchor="start" x="162.9053" y="-203.3" font-family="Helvetica,sans-Serif" font-size="11.00" fill="#000000">2 &gt;</text>
</a>
</g>
</g>
<!-- identified_need&#45;&gt;plan -->
<g id="edge1" class="edge">
<title>identified_need:w&#45;&gt;plan:e</title>
<path fill="none" stroke="#000000" d="M217.4203,-268.2C205.5435,-268.2 198.158,-268.2 181.5,-268.2"/>
<polygon fill="#000000" stroke="#000000" points="224,-268.2001 232,-271.8 228,-268.2 232,-268.2 232,-268.2 232,-268.2 228,-268.2 232,-264.6 224,-268.2001 224,-268.2001"/>
<ellipse fill="none" stroke="#000000" cx="220.8" cy="-268.2001" rx="3.2" ry="3.2"/>
</g>
</g>
</svg>
