<?xml version="1.0" encoding="UTF-8" standalone="no"?>
<!DOCTYPE svg PUBLIC "-//W3C//DTD SVG 1.1//EN"
 "http://www.w3.org/Graphics/SVG/1.1/DTD/svg11.dtd">
<!-- Generated by graphviz version 2.40.1 (20161225.0304)
 -->
<!-- Title: oneDegreeRelationshipsDiagramImplied Pages: 1 -->
<svg width="570pt" height="382pt"
 viewBox="0.00 0.00 570.00 382.20" xmlns="http://www.w3.org/2000/svg" xmlns:xlink="http://www.w3.org/1999/xlink">
<g id="graph0" class="graph" transform="scale(1 1) rotate(0) translate(4 378.2)">
<title>oneDegreeRelationshipsDiagramImplied</title>
<polygon fill="#ffffff" stroke="transparent" points="-4,4 -4,-378.2 566,-378.2 566,4 -4,4"/>
<text text-anchor="middle" x="72.4936" y="-7.3" font-family="Helvetica,sans-Serif" font-size="11.00" fill="#000000">Generated by SchemaSpy</text>
<!-- interview_audit -->
<g id="node1" class="node">
<title>interview_audit</title>
<g id="a_node1"><a xlink:href="../../tables/interview_audit.html" xlink:title="interview_audit" target="_top">
<polygon fill="#ffffff" stroke="transparent" points="258,-38.2 258,-370.2 554,-370.2 554,-38.2 258,-38.2"/>
<polygon fill="#f5f5f5" stroke="transparent" points="260,-345.2 260,-368.2 552,-368.2 552,-345.2 260,-345.2"/>
<polygon fill="none" stroke="#000000" points="260,-345.2 260,-368.2 552,-368.2 552,-345.2 260,-345.2"/>
<text text-anchor="start" x="265" y="-353.8" font-family="Helvetica,sans-Serif" font-weight="bold" font-size="11.00" fill="#000000">interview_audit</text>
<text text-anchor="start" x="517.0437" y="-353.3" font-family="Helvetica,sans-Serif" font-size="11.00" fill="#000000">[table]</text>
<polygon fill="none" stroke="#000000" points="260,-323.2 260,-345.2 458,-345.2 458,-323.2 260,-323.2"/>
<image xlink:href="../../images/primaryKeys.png" width="11px" height="12px" preserveAspectRatio="xMinYMin meet" x="265" y="-340.2"/>
<text text-anchor="start" x="280" y="-330.3" font-family="Helvetica,sans-Serif" font-size="11.00" fill="#000000">rev_id</text>
<polygon fill="none" stroke="#000000" points="458,-323.2 458,-345.2 552,-345.2 552,-323.2 458,-323.2"/>
<text text-anchor="start" x="461" y="-330.9" font-family="Helvetica,sans-Serif" font-size="11.00" fill="#000000">int8[19]</text>
<polygon fill="none" stroke="#000000" points="260,-301.2 260,-323.2 458,-323.2 458,-301.2 260,-301.2"/>
<text text-anchor="start" x="280" y="-308.3" font-family="Helvetica,sans-Serif" font-size="11.00" fill="#000000">rev_type</text>
<polygon fill="none" stroke="#000000" points="458,-301.2 458,-323.2 552,-323.2 552,-301.2 458,-301.2"/>
<text text-anchor="start" x="461" y="-308.9" font-family="Helvetica,sans-Serif" font-size="11.00" fill="#000000">int2[5]</text>
<polygon fill="none" stroke="#000000" points="260,-279.2 260,-301.2 458,-301.2 458,-279.2 260,-279.2"/>
<image xlink:href="../../images/primaryKeys.png" width="11px" height="12px" preserveAspectRatio="xMinYMin meet" x="265" y="-296.2"/>
<text text-anchor="start" x="280" y="-286.3" font-family="Helvetica,sans-Serif" font-size="11.00" fill="#000000">interview_id</text>
<polygon fill="none" stroke="#000000" points="458,-279.2 458,-301.2 552,-301.2 552,-279.2 458,-279.2"/>
<text text-anchor="start" x="460.9758" y="-286.9" font-family="Helvetica,sans-Serif" font-size="11.00" fill="#000000">uuid[2147483647]</text>
<polygon fill="none" stroke="#000000" points="260,-257.2 260,-279.2 458,-279.2 458,-257.2 260,-257.2"/>
<image xlink:href="../../images/foreignKeys.png" width="11px" height="12px" preserveAspectRatio="xMinYMin meet" x="265" y="-274.2"/>
<text text-anchor="start" x="280" y="-264.3" font-family="Helvetica,sans-Serif" font-size="11.00" fill="#000000">investigation_id</text>
<polygon fill="none" stroke="#000000" points="458,-257.2 458,-279.2 552,-279.2 552,-257.2 458,-257.2"/>
<text text-anchor="start" x="460.9758" y="-264.9" font-family="Helvetica,sans-Serif" font-size="11.00" fill="#000000">uuid[2147483647]</text>
<polygon fill="none" stroke="#000000" points="260,-235.2 260,-257.2 458,-257.2 458,-235.2 260,-235.2"/>
<text text-anchor="start" x="280" y="-242.3" font-family="Helvetica,sans-Serif" font-size="11.00" fill="#000000">interviewee</text>
<polygon fill="none" stroke="#000000" points="458,-235.2 458,-257.2 552,-257.2 552,-235.2 458,-235.2"/>
<text text-anchor="start" x="461" y="-242.9" font-family="Helvetica,sans-Serif" font-size="11.00" fill="#000000">varchar[100]</text>
<polygon fill="none" stroke="#000000" points="260,-213.2 260,-235.2 458,-235.2 458,-213.2 260,-213.2"/>
<text text-anchor="start" x="280" y="-220.3" font-family="Helvetica,sans-Serif" font-size="11.00" fill="#000000">interview_date</text>
<polygon fill="none" stroke="#000000" points="458,-213.2 458,-235.2 552,-235.2 552,-213.2 458,-213.2"/>
<text text-anchor="start" x="461" y="-220.9" font-family="Helvetica,sans-Serif" font-size="11.00" fill="#000000">date[13]</text>
<polygon fill="none" stroke="#000000" points="260,-191.2 260,-213.2 458,-213.2 458,-191.2 260,-191.2"/>
<image xlink:href="../../images/foreignKeys.png" width="11px" height="12px" preserveAspectRatio="xMinYMin meet" x="265" y="-208.2"/>
<text text-anchor="start" x="280" y="-198.3" font-family="Helvetica,sans-Serif" font-size="11.00" fill="#000000">interviewee_role_id</text>
<polygon fill="none" stroke="#000000" points="458,-191.2 458,-213.2 552,-213.2 552,-191.2 458,-191.2"/>
<text text-anchor="start" x="461" y="-198.9" font-family="Helvetica,sans-Serif" font-size="11.00" fill="#000000">int8[19]</text>
<polygon fill="none" stroke="#000000" points="260,-169.2 260,-191.2 458,-191.2 458,-169.2 260,-169.2"/>
<text text-anchor="start" x="280" y="-176.3" font-family="Helvetica,sans-Serif" font-size="11.00" fill="#000000">interview_text</text>
<polygon fill="none" stroke="#000000" points="458,-169.2 458,-191.2 552,-191.2 552,-169.2 458,-169.2"/>
<text text-anchor="start" x="461" y="-176.9" font-family="Helvetica,sans-Serif" font-size="11.00" fill="#000000">text[2147483647]</text>
<polygon fill="none" stroke="#000000" points="260,-147.2 260,-169.2 458,-169.2 458,-147.2 260,-147.2"/>
<text text-anchor="start" x="280" y="-154.3" font-family="Helvetica,sans-Serif" font-size="11.00" fill="#000000">interviewee_modified</text>
<polygon fill="none" stroke="#000000" points="458,-147.2 458,-169.2 552,-169.2 552,-147.2 458,-147.2"/>
<text text-anchor="start" x="461" y="-154.9" font-family="Helvetica,sans-Serif" font-size="11.00" fill="#000000">bool[1]</text>
<polygon fill="none" stroke="#000000" points="260,-125.2 260,-147.2 458,-147.2 458,-125.2 260,-125.2"/>
<text text-anchor="start" x="280" y="-132.3" font-family="Helvetica,sans-Serif" font-size="11.00" fill="#000000">interview_date_modified</text>
<polygon fill="none" stroke="#000000" points="458,-125.2 458,-147.2 552,-147.2 552,-125.2 458,-125.2"/>
<text text-anchor="start" x="461" y="-132.9" font-family="Helvetica,sans-Serif" font-size="11.00" fill="#000000">bool[1]</text>
<polygon fill="none" stroke="#000000" points="260,-103.2 260,-125.2 458,-125.2 458,-103.2 260,-103.2"/>
<text text-anchor="start" x="280" y="-110.3" font-family="Helvetica,sans-Serif" font-size="11.00" fill="#000000">interviewee_role_modified</text>
<polygon fill="none" stroke="#000000" points="458,-103.2 458,-125.2 552,-125.2 552,-103.2 458,-103.2"/>
<text text-anchor="start" x="461" y="-110.9" font-family="Helvetica,sans-Serif" font-size="11.00" fill="#000000">bool[1]</text>
<polygon fill="none" stroke="#000000" points="260,-81.2 260,-103.2 458,-103.2 458,-81.2 260,-81.2"/>
<text text-anchor="start" x="280" y="-88.3" font-family="Helvetica,sans-Serif" font-size="11.00" fill="#000000">interview_text_modified</text>
<polygon fill="none" stroke="#000000" points="458,-81.2 458,-103.2 552,-103.2 552,-81.2 458,-81.2"/>
<text text-anchor="start" x="461" y="-88.9" font-family="Helvetica,sans-Serif" font-size="11.00" fill="#000000">bool[1]</text>
<polygon fill="none" stroke="#000000" points="260,-59.2 260,-81.2 458,-81.2 458,-59.2 260,-59.2"/>
<image xlink:href="../../images/foreignKeys.png" width="11px" height="12px" preserveAspectRatio="xMinYMin meet" x="265" y="-76.2"/>
<text text-anchor="start" x="280" y="-66.3" font-family="Helvetica,sans-Serif" font-size="11.00" fill="#000000">legacy_id</text>
<polygon fill="none" stroke="#000000" points="458,-59.2 458,-81.2 552,-81.2 552,-59.2 458,-59.2"/>
<text text-anchor="start" x="461" y="-66.9" font-family="Helvetica,sans-Serif" font-size="11.00" fill="#000000">int8[19]</text>
<polygon fill="#ffffff" stroke="transparent" points="260,-40.2 260,-59.2 363,-59.2 363,-40.2 260,-40.2"/>
<polygon fill="none" stroke="#000000" points="260,-40.2 260,-59.2 363,-59.2 363,-40.2 260,-40.2"/>
<text text-anchor="start" x="263" y="-46.3" font-family="Helvetica,sans-Serif" font-size="11.00" fill="#000000">&lt; 4</text>
<polygon fill="#ffffff" stroke="transparent" points="363,-40.2 363,-59.2 458,-59.2 458,-40.2 363,-40.2"/>
<polygon fill="none" stroke="#000000" points="363,-40.2 363,-59.2 458,-59.2 458,-40.2 363,-40.2"/>
<text text-anchor="start" x="448.8862" y="-46.3" font-family="Helvetica,sans-Serif" font-size="11.00" fill="#000000"> &#160;</text>
<polygon fill="#ffffff" stroke="transparent" points="458,-40.2 458,-59.2 552,-59.2 552,-40.2 458,-40.2"/>
<polygon fill="none" stroke="#000000" points="458,-40.2 458,-59.2 552,-59.2 552,-40.2 458,-40.2"/>
<text text-anchor="start" x="533.4053" y="-46.3" font-family="Helvetica,sans-Serif" font-size="11.00" fill="#000000">0 &gt;</text>
<polygon fill="none" stroke="#000000" stroke-width="2" points="259,-39.2 259,-369.2 553,-369.2 553,-39.2 259,-39.2"/>
</a>
</g>
</g>
<!-- audit_revision -->
<g id="node2" class="node">
<title>audit_revision</title>
<g id="a_node2"><a xlink:href="../../tables/audit_revision.html" xlink:title="audit_revision" target="_top">
<polygon fill="#ffffff" stroke="transparent" points="25.5,-134.7 25.5,-217.7 191.5,-217.7 191.5,-134.7 25.5,-134.7"/>
<polygon fill="#f5f5f5" stroke="transparent" points="25.5,-194.2 25.5,-217.2 191.5,-217.2 191.5,-194.2 25.5,-194.2"/>
<polygon fill="none" stroke="#000000" points="25.5,-194.2 25.5,-217.2 191.5,-217.2 191.5,-194.2 25.5,-194.2"/>
<text text-anchor="start" x="30.5" y="-202.8" font-family="Helvetica,sans-Serif" font-weight="bold" font-size="11.00" fill="#000000">audit_revision</text>
<text text-anchor="start" x="156.5437" y="-202.3" font-family="Helvetica,sans-Serif" font-size="11.00" fill="#000000">[table]</text>
<polygon fill="none" stroke="#000000" points="25.5,-172.2 25.5,-194.2 191.5,-194.2 191.5,-172.2 25.5,-172.2"/>
<image xlink:href="../../images/primaryKeys.png" width="11px" height="12px" preserveAspectRatio="xMinYMin meet" x="30.5" y="-189.2"/>
<text text-anchor="start" x="45.5" y="-179.3" font-family="Helvetica,sans-Serif" font-size="11.00" fill="#000000">id</text>
<polygon fill="none" stroke="#000000" points="25.5,-153.2 25.5,-172.2 191.5,-172.2 191.5,-153.2 25.5,-153.2"/>
<text text-anchor="start" x="28.5" y="-159.3" font-family="Helvetica,sans-Serif" font-size="11.00" fill="#000000">...</text>
<polygon fill="#ffffff" stroke="transparent" points="25.5,-134.2 25.5,-153.2 94.5,-153.2 94.5,-134.2 25.5,-134.2"/>
<polygon fill="none" stroke="#000000" points="25.5,-134.2 25.5,-153.2 94.5,-153.2 94.5,-134.2 25.5,-134.2"/>
<text text-anchor="start" x="28.5" y="-140.3" font-family="Helvetica,sans-Serif" font-size="11.00" fill="#000000"> &#160;</text>
<polygon fill="#ffffff" stroke="transparent" points="94.5,-134.2 94.5,-153.2 135.5,-153.2 135.5,-134.2 94.5,-134.2"/>
<polygon fill="none" stroke="#000000" points="94.5,-134.2 94.5,-153.2 135.5,-153.2 135.5,-134.2 94.5,-134.2"/>
<text text-anchor="start" x="126.3862" y="-140.3" font-family="Helvetica,sans-Serif" font-size="11.00" fill="#000000"> &#160;</text>
<polygon fill="#ffffff" stroke="transparent" points="135.5,-134.2 135.5,-153.2 191.5,-153.2 191.5,-134.2 135.5,-134.2"/>
<polygon fill="none" stroke="#000000" points="135.5,-134.2 135.5,-153.2 191.5,-153.2 191.5,-134.2 135.5,-134.2"/>
<text text-anchor="start" x="166.7904" y="-140.3" font-family="Helvetica,sans-Serif" font-size="11.00" fill="#000000">33 &gt;</text>
</a>
</g>
</g>
<!-- interview_audit&#45;&gt;audit_revision -->
<g id="edge1" class="edge">
<title>interview_audit:w&#45;&gt;audit_revision:e</title>
<path fill="none" stroke="#000000" stroke-dasharray="5,2" d="M245.4899,-200.6452C225.7265,-196.1074 217.5403,-183.2 191.5,-183.2"/>
<polygon fill="#000000" stroke="#000000" points="252.0455,-201.3476 259.6164,-205.7795 256.0228,-201.7738 260,-202.2 260,-202.2 260,-202.2 256.0228,-201.7738 260.3836,-198.6205 252.0455,-201.3476 252.0455,-201.3476"/>
<ellipse fill="none" stroke="#000000" cx="248.8638" cy="-201.0066" rx="3.2" ry="3.2"/>
</g>
<!-- interview_audit&#45;&gt;audit_revision -->
<g id="edge3" class="edge">
<title>interview_audit:w&#45;&gt;audit_revision:e</title>
<path fill="none" stroke="#000000" stroke-dasharray="5,2" d="M245.6745,-73.2225C209.8059,-91.1927 244.4941,-183.2 191.5,-183.2"/>
<polygon fill="#000000" stroke="#000000" points="252.1723,-71.8516 260.7432,-73.7225 256.0862,-71.0258 260,-70.2 260,-70.2 260,-70.2 256.0862,-71.0258 259.2568,-66.6775 252.1723,-71.8516 252.1723,-71.8516"/>
<ellipse fill="none" stroke="#000000" cx="249.0413" cy="-72.5122" rx="3.2" ry="3.2"/>
</g>
<!-- interview_audit&#45;&gt;audit_revision -->
<g id="edge4" class="edge">
<title>interview_audit:w&#45;&gt;audit_revision:e</title>
<path fill="none" stroke="#000000" d="M245.6809,-331.7051C197.439,-312.0722 259.5803,-183.2 191.5,-183.2"/>
<polygon fill="#000000" stroke="#000000" points="252.1187,-332.8268 259.382,-337.7466 256.0594,-333.5134 260,-334.2 260,-334.2 260,-334.2 256.0594,-333.5134 260.618,-330.6534 252.1187,-332.8268 252.1187,-332.8268"/>
<ellipse fill="none" stroke="#000000" cx="248.9662" cy="-332.2775" rx="3.2" ry="3.2"/>
</g>
<!-- investigation -->
<g id="node3" class="node">
<title>investigation</title>
<g id="a_node3"><a xlink:href="../../tables/investigation.html" xlink:title="investigation" target="_top">
<polygon fill="#ffffff" stroke="transparent" points="8,-238.7 8,-321.7 209,-321.7 209,-238.7 8,-238.7"/>
<polygon fill="#f5f5f5" stroke="transparent" points="8.5,-298.2 8.5,-321.2 209.5,-321.2 209.5,-298.2 8.5,-298.2"/>
<polygon fill="none" stroke="#000000" points="8.5,-298.2 8.5,-321.2 209.5,-321.2 209.5,-298.2 8.5,-298.2"/>
<text text-anchor="start" x="13.5" y="-306.8" font-family="Helvetica,sans-Serif" font-weight="bold" font-size="11.00" fill="#000000">investigation</text>
<text text-anchor="start" x="174.5437" y="-306.3" font-family="Helvetica,sans-Serif" font-size="11.00" fill="#000000">[table]</text>
<polygon fill="none" stroke="#000000" points="8.5,-276.2 8.5,-298.2 209.5,-298.2 209.5,-276.2 8.5,-276.2"/>
<image xlink:href="../../images/primaryKeys.png" width="11px" height="12px" preserveAspectRatio="xMinYMin meet" x="13.5" y="-293.2"/>
<text text-anchor="start" x="28.5" y="-283.3" font-family="Helvetica,sans-Serif" font-size="11.00" fill="#000000">investigation_id</text>
<polygon fill="none" stroke="#000000" points="8.5,-257.2 8.5,-276.2 209.5,-276.2 209.5,-257.2 8.5,-257.2"/>
<text text-anchor="start" x="11.5" y="-263.3" font-family="Helvetica,sans-Serif" font-size="11.00" fill="#000000">...</text>
<polygon fill="#ffffff" stroke="transparent" points="8.5,-238.2 8.5,-257.2 102.5,-257.2 102.5,-238.2 8.5,-238.2"/>
<polygon fill="none" stroke="#000000" points="8.5,-238.2 8.5,-257.2 102.5,-257.2 102.5,-238.2 8.5,-238.2"/>
<text text-anchor="start" x="11.5" y="-244.3" font-family="Helvetica,sans-Serif" font-size="11.00" fill="#000000">&lt; 1</text>
<polygon fill="#ffffff" stroke="transparent" points="102.5,-238.2 102.5,-257.2 151.5,-257.2 151.5,-238.2 102.5,-238.2"/>
<polygon fill="none" stroke="#000000" points="102.5,-238.2 102.5,-257.2 151.5,-257.2 151.5,-238.2 102.5,-238.2"/>
<text text-anchor="start" x="142.3862" y="-244.3" font-family="Helvetica,sans-Serif" font-size="11.00" fill="#000000"> &#160;</text>
<polygon fill="#ffffff" stroke="transparent" points="151.5,-238.2 151.5,-257.2 209.5,-257.2 209.5,-238.2 151.5,-238.2"/>
<polygon fill="none" stroke="#000000" points="151.5,-238.2 151.5,-257.2 209.5,-257.2 209.5,-238.2 151.5,-238.2"/>
<text text-anchor="start" x="190.9053" y="-244.3" font-family="Helvetica,sans-Serif" font-size="11.00" fill="#000000">2 &gt;</text>
</a>
</g>
</g>
<!-- interview_audit&#45;&gt;investigation -->
<g id="edge2" class="edge">
<title>interview_audit:w&#45;&gt;investigation:e</title>
<path fill="none" stroke="#000000" stroke-dasharray="5,2" d="M245.7405,-271.0035C233.532,-276.2887 227.6727,-287.2 209.5,-287.2"/>
<polygon fill="#000000" stroke="#000000" points="252.1503,-269.7433 260.6945,-271.7324 256.0751,-268.9717 260,-268.2 260,-268.2 260,-268.2 256.0751,-268.9717 259.3055,-264.6676 252.1503,-269.7433 252.1503,-269.7433"/>
<ellipse fill="none" stroke="#000000" cx="249.0104" cy="-270.3607" rx="3.2" ry="3.2"/>
</g>
</g>
</svg>
