<?xml version="1.0" encoding="UTF-8" standalone="no"?>
<!DOCTYPE svg PUBLIC "-//W3C//DTD SVG 1.1//EN"
 "http://www.w3.org/Graphics/SVG/1.1/DTD/svg11.dtd">
<!-- Generated by graphviz version 2.40.1 (20161225.0304)
 -->
<!-- Title: oneDegreeRelationshipsDiagram Pages: 1 -->
<svg width="524pt" height="308pt"
 viewBox="0.00 0.00 524.00 307.70" xmlns="http://www.w3.org/2000/svg" xmlns:xlink="http://www.w3.org/1999/xlink">
<g id="graph0" class="graph" transform="scale(1 1) rotate(0) translate(4 303.7)">
<title>oneDegreeRelationshipsDiagram</title>
<polygon fill="#ffffff" stroke="transparent" points="-4,4 -4,-303.7 520,-303.7 520,4 -4,4"/>
<text text-anchor="middle" x="72.4936" y="-7.3" font-family="Helvetica,sans-Serif" font-size="11.00" fill="#000000">Generated by SchemaSpy</text>
<!-- interview -->
<g id="node1" class="node">
<title>interview</title>
<g id="a_node1"><a xlink:href="../../tables/interview.html" xlink:title="interview" target="_top">
<polygon fill="#ffffff" stroke="transparent" points="258,-73.7 258,-295.7 508,-295.7 508,-73.7 258,-73.7"/>
<polygon fill="#f5f5f5" stroke="transparent" points="260,-270.7 260,-293.7 506,-293.7 506,-270.7 260,-270.7"/>
<polygon fill="none" stroke="#000000" points="260,-270.7 260,-293.7 506,-293.7 506,-270.7 260,-270.7"/>
<text text-anchor="start" x="265" y="-279.3" font-family="Helvetica,sans-Serif" font-weight="bold" font-size="11.00" fill="#000000">interview</text>
<text text-anchor="start" x="471.0437" y="-278.8" font-family="Helvetica,sans-Serif" font-size="11.00" fill="#000000">[table]</text>
<polygon fill="none" stroke="#000000" points="260,-248.7 260,-270.7 412,-270.7 412,-248.7 260,-248.7"/>
<image xlink:href="../../images/primaryKeys.png" width="11px" height="12px" preserveAspectRatio="xMinYMin meet" x="265" y="-265.7"/>
<text text-anchor="start" x="280" y="-255.8" font-family="Helvetica,sans-Serif" font-size="11.00" fill="#000000">interview_id</text>
<polygon fill="none" stroke="#000000" points="412,-248.7 412,-270.7 506,-270.7 506,-248.7 412,-248.7"/>
<text text-anchor="start" x="414.9758" y="-256.4" font-family="Helvetica,sans-Serif" font-size="11.00" fill="#000000">uuid[2147483647]</text>
<polygon fill="#ffffff" stroke="transparent" points="260,-226.7 260,-248.7 412,-248.7 412,-226.7 260,-226.7"/>
<polygon fill="none" stroke="#000000" points="260,-226.7 260,-248.7 412,-248.7 412,-226.7 260,-226.7"/>
<image xlink:href="../../images/foreignKeys.png" width="11px" height="12px" preserveAspectRatio="xMinYMin meet" x="265" y="-243.7"/>
<text text-anchor="start" x="280" y="-233.8" font-family="Helvetica,sans-Serif" font-size="11.00" fill="#000000">investigation_id</text>
<polygon fill="none" stroke="#000000" points="412,-226.7 412,-248.7 506,-248.7 506,-226.7 412,-226.7"/>
<text text-anchor="start" x="414.9758" y="-234.4" font-family="Helvetica,sans-Serif" font-size="11.00" fill="#000000">uuid[2147483647]</text>
<polygon fill="none" stroke="#000000" points="260,-204.7 260,-226.7 412,-226.7 412,-204.7 260,-204.7"/>
<text text-anchor="start" x="280" y="-211.8" font-family="Helvetica,sans-Serif" font-size="11.00" fill="#000000">interviewee</text>
<polygon fill="none" stroke="#000000" points="412,-204.7 412,-226.7 506,-226.7 506,-204.7 412,-204.7"/>
<text text-anchor="start" x="415" y="-212.4" font-family="Helvetica,sans-Serif" font-size="11.00" fill="#000000">varchar[100]</text>
<polygon fill="none" stroke="#000000" points="260,-182.7 260,-204.7 412,-204.7 412,-182.7 260,-182.7"/>
<text text-anchor="start" x="280" y="-189.8" font-family="Helvetica,sans-Serif" font-size="11.00" fill="#000000">interview_date</text>
<polygon fill="none" stroke="#000000" points="412,-182.7 412,-204.7 506,-204.7 506,-182.7 412,-182.7"/>
<text text-anchor="start" x="415" y="-190.4" font-family="Helvetica,sans-Serif" font-size="11.00" fill="#000000">date[13]</text>
<polygon fill="#ffffff" stroke="transparent" points="260,-160.7 260,-182.7 412,-182.7 412,-160.7 260,-160.7"/>
<polygon fill="none" stroke="#000000" points="260,-160.7 260,-182.7 412,-182.7 412,-160.7 260,-160.7"/>
<image xlink:href="../../images/foreignKeys.png" width="11px" height="12px" preserveAspectRatio="xMinYMin meet" x="265" y="-177.7"/>
<text text-anchor="start" x="280" y="-167.8" font-family="Helvetica,sans-Serif" font-size="11.00" fill="#000000">interviewee_role_id</text>
<polygon fill="none" stroke="#000000" points="412,-160.7 412,-182.7 506,-182.7 506,-160.7 412,-160.7"/>
<text text-anchor="start" x="415" y="-168.4" font-family="Helvetica,sans-Serif" font-size="11.00" fill="#000000">int4[10]</text>
<polygon fill="none" stroke="#000000" points="260,-138.7 260,-160.7 412,-160.7 412,-138.7 260,-138.7"/>
<text text-anchor="start" x="280" y="-145.8" font-family="Helvetica,sans-Serif" font-size="11.00" fill="#000000">interview_text</text>
<polygon fill="none" stroke="#000000" points="412,-138.7 412,-160.7 506,-160.7 506,-138.7 412,-138.7"/>
<text text-anchor="start" x="415" y="-146.4" font-family="Helvetica,sans-Serif" font-size="11.00" fill="#000000">text[2147483647]</text>
<polygon fill="none" stroke="#000000" points="260,-116.7 260,-138.7 412,-138.7 412,-116.7 260,-116.7"/>
<text text-anchor="start" x="280" y="-123.8" font-family="Helvetica,sans-Serif" font-size="11.00" fill="#000000">version</text>
<polygon fill="none" stroke="#000000" points="412,-116.7 412,-138.7 506,-138.7 506,-116.7 412,-116.7"/>
<text text-anchor="start" x="415" y="-124.4" font-family="Helvetica,sans-Serif" font-size="11.00" fill="#000000">int4[10]</text>
<polygon fill="#ffffff" stroke="transparent" points="260,-94.7 260,-116.7 412,-116.7 412,-94.7 260,-94.7"/>
<polygon fill="none" stroke="#000000" points="260,-94.7 260,-116.7 412,-116.7 412,-94.7 260,-94.7"/>
<image xlink:href="../../images/foreignKeys.png" width="11px" height="12px" preserveAspectRatio="xMinYMin meet" x="265" y="-111.7"/>
<text text-anchor="start" x="280" y="-101.8" font-family="Helvetica,sans-Serif" font-size="11.00" fill="#000000">legacy_id</text>
<polygon fill="none" stroke="#000000" points="412,-94.7 412,-116.7 506,-116.7 506,-94.7 412,-94.7"/>
<text text-anchor="start" x="415" y="-102.4" font-family="Helvetica,sans-Serif" font-size="11.00" fill="#000000">int8[19]</text>
<polygon fill="#ffffff" stroke="transparent" points="260,-75.7 260,-94.7 340,-94.7 340,-75.7 260,-75.7"/>
<polygon fill="none" stroke="#000000" points="260,-75.7 260,-94.7 340,-94.7 340,-75.7 260,-75.7"/>
<text text-anchor="start" x="263" y="-81.8" font-family="Helvetica,sans-Serif" font-size="11.00" fill="#000000">&lt; 2</text>
<polygon fill="#ffffff" stroke="transparent" points="340,-75.7 340,-94.7 412,-94.7 412,-75.7 340,-75.7"/>
<polygon fill="none" stroke="#000000" points="340,-75.7 340,-94.7 412,-94.7 412,-75.7 340,-75.7"/>
<text text-anchor="start" x="402.8862" y="-81.8" font-family="Helvetica,sans-Serif" font-size="11.00" fill="#000000"> &#160;</text>
<polygon fill="#ffffff" stroke="transparent" points="412,-75.7 412,-94.7 506,-94.7 506,-75.7 412,-75.7"/>
<polygon fill="none" stroke="#000000" points="412,-75.7 412,-94.7 506,-94.7 506,-75.7 412,-75.7"/>
<text text-anchor="start" x="487.4053" y="-81.8" font-family="Helvetica,sans-Serif" font-size="11.00" fill="#000000">0 &gt;</text>
<polygon fill="none" stroke="#000000" stroke-width="2" points="259,-74.7 259,-294.7 507,-294.7 507,-74.7 259,-74.7"/>
</a>
</g>
</g>
<!-- reference_data -->
<g id="node2" class="node">
<title>reference_data</title>
<g id="a_node2"><a xlink:href="../../tables/reference_data.html" xlink:title="reference_data" target="_top">
<polygon fill="#ffffff" stroke="transparent" points="38,-38.2 38,-187.2 179,-187.2 179,-38.2 38,-38.2"/>
<polygon fill="#f5f5f5" stroke="transparent" points="38.5,-163.7 38.5,-186.7 179.5,-186.7 179.5,-163.7 38.5,-163.7"/>
<polygon fill="none" stroke="#000000" points="38.5,-163.7 38.5,-186.7 179.5,-186.7 179.5,-163.7 38.5,-163.7"/>
<text text-anchor="start" x="43.5" y="-172.3" font-family="Helvetica,sans-Serif" font-weight="bold" font-size="11.00" fill="#000000">reference_data</text>
<text text-anchor="start" x="145.0219" y="-171.8" font-family="Helvetica,sans-Serif" font-size="11.00" fill="#000000">[table]</text>
<polygon fill="none" stroke="#000000" points="38.5,-141.7 38.5,-163.7 179.5,-163.7 179.5,-141.7 38.5,-141.7"/>
<image xlink:href="../../images/primaryKeys.png" width="11px" height="12px" preserveAspectRatio="xMinYMin meet" x="43.5" y="-158.7"/>
<text text-anchor="start" x="58.5" y="-148.8" font-family="Helvetica,sans-Serif" font-size="11.00" fill="#000000">reference_data_id</text>
<polygon fill="#ffffff" stroke="transparent" points="38.5,-119.7 38.5,-141.7 179.5,-141.7 179.5,-119.7 38.5,-119.7"/>
<polygon fill="none" stroke="#000000" points="38.5,-119.7 38.5,-141.7 179.5,-141.7 179.5,-119.7 38.5,-119.7"/>
<text text-anchor="start" x="58.5" y="-126.8" font-family="Helvetica,sans-Serif" font-size="11.00" fill="#000000">domain</text>
<polygon fill="#ffffff" stroke="transparent" points="38.5,-97.7 38.5,-119.7 179.5,-119.7 179.5,-97.7 38.5,-97.7"/>
<polygon fill="none" stroke="#000000" points="38.5,-97.7 38.5,-119.7 179.5,-119.7 179.5,-97.7 38.5,-97.7"/>
<text text-anchor="start" x="58.5" y="-104.8" font-family="Helvetica,sans-Serif" font-size="11.00" fill="#000000">code</text>
<polygon fill="#ffffff" stroke="transparent" points="38.5,-75.7 38.5,-97.7 179.5,-97.7 179.5,-75.7 38.5,-75.7"/>
<polygon fill="none" stroke="#000000" points="38.5,-75.7 38.5,-97.7 179.5,-97.7 179.5,-75.7 38.5,-75.7"/>
<text text-anchor="start" x="58.5" y="-82.8" font-family="Helvetica,sans-Serif" font-size="11.00" fill="#000000">list_sequence</text>
<polygon fill="none" stroke="#000000" points="38.5,-56.7 38.5,-75.7 179.5,-75.7 179.5,-56.7 38.5,-56.7"/>
<text text-anchor="start" x="41.5" y="-62.8" font-family="Helvetica,sans-Serif" font-size="11.00" fill="#000000">...</text>
<polygon fill="#ffffff" stroke="transparent" points="38.5,-37.7 38.5,-56.7 76.5,-56.7 76.5,-37.7 38.5,-37.7"/>
<polygon fill="none" stroke="#000000" points="38.5,-37.7 38.5,-56.7 76.5,-56.7 76.5,-37.7 38.5,-37.7"/>
<text text-anchor="start" x="41.5" y="-43.8" font-family="Helvetica,sans-Serif" font-size="11.00" fill="#000000"> &#160;</text>
<polygon fill="#ffffff" stroke="transparent" points="76.5,-37.7 76.5,-56.7 139.5,-56.7 139.5,-37.7 76.5,-37.7"/>
<polygon fill="none" stroke="#000000" points="76.5,-37.7 76.5,-56.7 139.5,-56.7 139.5,-37.7 76.5,-37.7"/>
<text text-anchor="start" x="91.8807" y="-43.8" font-family="Helvetica,sans-Serif" font-size="11.00" fill="#000000">122 rows</text>
<polygon fill="#ffffff" stroke="transparent" points="139.5,-37.7 139.5,-56.7 179.5,-56.7 179.5,-37.7 139.5,-37.7"/>
<polygon fill="none" stroke="#000000" points="139.5,-37.7 139.5,-56.7 179.5,-56.7 179.5,-37.7 139.5,-37.7"/>
<text text-anchor="start" x="154.7904" y="-43.8" font-family="Helvetica,sans-Serif" font-size="11.00" fill="#000000">10 &gt;</text>
</a>
</g>
</g>
<!-- interview&#45;&gt;reference_data -->
<g id="edge1" class="edge">
<title>interview:w&#45;&gt;reference_data:e</title>
<path fill="none" stroke="#000000" d="M245.4038,-170.5684C220.5113,-166.478 210.8041,-152.7 179.5,-152.7"/>
<polygon fill="#000000" stroke="#000000" points="252.0239,-171.0816 259.7217,-175.2892 256.012,-171.3908 260,-171.7 260,-171.7 260,-171.7 256.012,-171.3908 260.2783,-168.1108 252.0239,-171.0816 252.0239,-171.0816"/>
<ellipse fill="none" stroke="#000000" cx="248.8335" cy="-170.8342" rx="3.2" ry="3.2"/>
</g>
<!-- investigation -->
<g id="node3" class="node">
<title>investigation</title>
<g id="a_node3"><a xlink:href="../../tables/investigation.html" xlink:title="investigation" target="_top">
<polygon fill="#ffffff" stroke="transparent" points="8,-208.2 8,-291.2 209,-291.2 209,-208.2 8,-208.2"/>
<polygon fill="#f5f5f5" stroke="transparent" points="8.5,-267.7 8.5,-290.7 209.5,-290.7 209.5,-267.7 8.5,-267.7"/>
<polygon fill="none" stroke="#000000" points="8.5,-267.7 8.5,-290.7 209.5,-290.7 209.5,-267.7 8.5,-267.7"/>
<text text-anchor="start" x="13.5" y="-276.3" font-family="Helvetica,sans-Serif" font-weight="bold" font-size="11.00" fill="#000000">investigation</text>
<text text-anchor="start" x="174.5437" y="-275.8" font-family="Helvetica,sans-Serif" font-size="11.00" fill="#000000">[table]</text>
<polygon fill="none" stroke="#000000" points="8.5,-245.7 8.5,-267.7 209.5,-267.7 209.5,-245.7 8.5,-245.7"/>
<image xlink:href="../../images/primaryKeys.png" width="11px" height="12px" preserveAspectRatio="xMinYMin meet" x="13.5" y="-262.7"/>
<text text-anchor="start" x="28.5" y="-252.8" font-family="Helvetica,sans-Serif" font-size="11.00" fill="#000000">investigation_id</text>
<polygon fill="none" stroke="#000000" points="8.5,-226.7 8.5,-245.7 209.5,-245.7 209.5,-226.7 8.5,-226.7"/>
<text text-anchor="start" x="11.5" y="-232.8" font-family="Helvetica,sans-Serif" font-size="11.00" fill="#000000">...</text>
<polygon fill="#ffffff" stroke="transparent" points="8.5,-207.7 8.5,-226.7 102.5,-226.7 102.5,-207.7 8.5,-207.7"/>
<polygon fill="none" stroke="#000000" points="8.5,-207.7 8.5,-226.7 102.5,-226.7 102.5,-207.7 8.5,-207.7"/>
<text text-anchor="start" x="11.5" y="-213.8" font-family="Helvetica,sans-Serif" font-size="11.00" fill="#000000">&lt; 1</text>
<polygon fill="#ffffff" stroke="transparent" points="102.5,-207.7 102.5,-226.7 151.5,-226.7 151.5,-207.7 102.5,-207.7"/>
<polygon fill="none" stroke="#000000" points="102.5,-207.7 102.5,-226.7 151.5,-226.7 151.5,-207.7 102.5,-207.7"/>
<text text-anchor="start" x="142.3862" y="-213.8" font-family="Helvetica,sans-Serif" font-size="11.00" fill="#000000"> &#160;</text>
<polygon fill="#ffffff" stroke="transparent" points="151.5,-207.7 151.5,-226.7 209.5,-226.7 209.5,-207.7 151.5,-207.7"/>
<polygon fill="none" stroke="#000000" points="151.5,-207.7 151.5,-226.7 209.5,-226.7 209.5,-207.7 151.5,-207.7"/>
<text text-anchor="start" x="190.9053" y="-213.8" font-family="Helvetica,sans-Serif" font-size="11.00" fill="#000000">1 &gt;</text>
</a>
</g>
</g>
<!-- interview&#45;&gt;investigation -->
<g id="edge2" class="edge">
<title>interview:w&#45;&gt;investigation:e</title>
<path fill="none" stroke="#000000" d="M245.7405,-240.5035C233.532,-245.7887 227.6727,-256.7 209.5,-256.7"/>
<polygon fill="#000000" stroke="#000000" points="252.1503,-239.2433 260.6945,-241.2324 256.0751,-238.4717 260,-237.7 260,-237.7 260,-237.7 256.0751,-238.4717 259.3055,-234.1676 252.1503,-239.2433 252.1503,-239.2433"/>
<ellipse fill="none" stroke="#000000" cx="249.0104" cy="-239.8607" rx="3.2" ry="3.2"/>
</g>
</g>
</svg>
