<?xml version="1.0" encoding="UTF-8" standalone="no"?>
<!DOCTYPE svg PUBLIC "-//W3C//DTD SVG 1.1//EN"
 "http://www.w3.org/Graphics/SVG/1.1/DTD/svg11.dtd">
<!-- Generated by graphviz version 2.40.1 (20161225.0304)
 -->
<!-- Title: oneDegreeRelationshipsDiagramImplied Pages: 1 -->
<svg width="514pt" height="407pt"
 viewBox="0.00 0.00 514.00 407.20" xmlns="http://www.w3.org/2000/svg" xmlns:xlink="http://www.w3.org/1999/xlink">
<g id="graph0" class="graph" transform="scale(1 1) rotate(0) translate(4 403.2)">
<title>oneDegreeRelationshipsDiagramImplied</title>
<polygon fill="#ffffff" stroke="transparent" points="-4,4 -4,-403.2 510,-403.2 510,4 -4,4"/>
<text text-anchor="middle" x="72.4936" y="-7.3" font-family="Helvetica,sans-Serif" font-size="11.00" fill="#000000">Generated by SchemaSpy</text>
<!-- interview -->
<g id="node1" class="node">
<title>interview</title>
<g id="a_node1"><a xlink:href="../../tables/interview.html" xlink:title="interview" target="_top">
<polygon fill="#ffffff" stroke="transparent" points="248,-158.7 248,-380.7 498,-380.7 498,-158.7 248,-158.7"/>
<polygon fill="#f5f5f5" stroke="transparent" points="250,-355.7 250,-378.7 496,-378.7 496,-355.7 250,-355.7"/>
<polygon fill="none" stroke="#000000" points="250,-355.7 250,-378.7 496,-378.7 496,-355.7 250,-355.7"/>
<text text-anchor="start" x="255" y="-364.3" font-family="Helvetica,sans-Serif" font-weight="bold" font-size="11.00" fill="#000000">interview</text>
<text text-anchor="start" x="461.0437" y="-363.8" font-family="Helvetica,sans-Serif" font-size="11.00" fill="#000000">[table]</text>
<polygon fill="none" stroke="#000000" points="250,-333.7 250,-355.7 402,-355.7 402,-333.7 250,-333.7"/>
<image xlink:href="../../images/primaryKeys.png" width="11px" height="12px" preserveAspectRatio="xMinYMin meet" x="255" y="-350.7"/>
<text text-anchor="start" x="270" y="-340.8" font-family="Helvetica,sans-Serif" font-size="11.00" fill="#000000">interview_id</text>
<polygon fill="none" stroke="#000000" points="402,-333.7 402,-355.7 496,-355.7 496,-333.7 402,-333.7"/>
<text text-anchor="start" x="404.9758" y="-341.4" font-family="Helvetica,sans-Serif" font-size="11.00" fill="#000000">uuid[2147483647]</text>
<polygon fill="#ffffff" stroke="transparent" points="250,-311.7 250,-333.7 402,-333.7 402,-311.7 250,-311.7"/>
<polygon fill="none" stroke="#000000" points="250,-311.7 250,-333.7 402,-333.7 402,-311.7 250,-311.7"/>
<image xlink:href="../../images/foreignKeys.png" width="11px" height="12px" preserveAspectRatio="xMinYMin meet" x="255" y="-328.7"/>
<text text-anchor="start" x="270" y="-318.8" font-family="Helvetica,sans-Serif" font-size="11.00" fill="#000000">investigation_id</text>
<polygon fill="none" stroke="#000000" points="402,-311.7 402,-333.7 496,-333.7 496,-311.7 402,-311.7"/>
<text text-anchor="start" x="404.9758" y="-319.4" font-family="Helvetica,sans-Serif" font-size="11.00" fill="#000000">uuid[2147483647]</text>
<polygon fill="none" stroke="#000000" points="250,-289.7 250,-311.7 402,-311.7 402,-289.7 250,-289.7"/>
<text text-anchor="start" x="270" y="-296.8" font-family="Helvetica,sans-Serif" font-size="11.00" fill="#000000">interviewee</text>
<polygon fill="none" stroke="#000000" points="402,-289.7 402,-311.7 496,-311.7 496,-289.7 402,-289.7"/>
<text text-anchor="start" x="405" y="-297.4" font-family="Helvetica,sans-Serif" font-size="11.00" fill="#000000">varchar[100]</text>
<polygon fill="none" stroke="#000000" points="250,-267.7 250,-289.7 402,-289.7 402,-267.7 250,-267.7"/>
<text text-anchor="start" x="270" y="-274.8" font-family="Helvetica,sans-Serif" font-size="11.00" fill="#000000">interview_date</text>
<polygon fill="none" stroke="#000000" points="402,-267.7 402,-289.7 496,-289.7 496,-267.7 402,-267.7"/>
<text text-anchor="start" x="405" y="-275.4" font-family="Helvetica,sans-Serif" font-size="11.00" fill="#000000">date[13]</text>
<polygon fill="#ffffff" stroke="transparent" points="250,-245.7 250,-267.7 402,-267.7 402,-245.7 250,-245.7"/>
<polygon fill="none" stroke="#000000" points="250,-245.7 250,-267.7 402,-267.7 402,-245.7 250,-245.7"/>
<image xlink:href="../../images/foreignKeys.png" width="11px" height="12px" preserveAspectRatio="xMinYMin meet" x="255" y="-262.7"/>
<text text-anchor="start" x="270" y="-252.8" font-family="Helvetica,sans-Serif" font-size="11.00" fill="#000000">interviewee_role_id</text>
<polygon fill="none" stroke="#000000" points="402,-245.7 402,-267.7 496,-267.7 496,-245.7 402,-245.7"/>
<text text-anchor="start" x="405" y="-253.4" font-family="Helvetica,sans-Serif" font-size="11.00" fill="#000000">int4[10]</text>
<polygon fill="none" stroke="#000000" points="250,-223.7 250,-245.7 402,-245.7 402,-223.7 250,-223.7"/>
<text text-anchor="start" x="270" y="-230.8" font-family="Helvetica,sans-Serif" font-size="11.00" fill="#000000">interview_text</text>
<polygon fill="none" stroke="#000000" points="402,-223.7 402,-245.7 496,-245.7 496,-223.7 402,-223.7"/>
<text text-anchor="start" x="405" y="-231.4" font-family="Helvetica,sans-Serif" font-size="11.00" fill="#000000">text[2147483647]</text>
<polygon fill="none" stroke="#000000" points="250,-201.7 250,-223.7 402,-223.7 402,-201.7 250,-201.7"/>
<text text-anchor="start" x="270" y="-208.8" font-family="Helvetica,sans-Serif" font-size="11.00" fill="#000000">version</text>
<polygon fill="none" stroke="#000000" points="402,-201.7 402,-223.7 496,-223.7 496,-201.7 402,-201.7"/>
<text text-anchor="start" x="405" y="-209.4" font-family="Helvetica,sans-Serif" font-size="11.00" fill="#000000">int4[10]</text>
<polygon fill="#ffffff" stroke="transparent" points="250,-179.7 250,-201.7 402,-201.7 402,-179.7 250,-179.7"/>
<polygon fill="none" stroke="#000000" points="250,-179.7 250,-201.7 402,-201.7 402,-179.7 250,-179.7"/>
<image xlink:href="../../images/foreignKeys.png" width="11px" height="12px" preserveAspectRatio="xMinYMin meet" x="255" y="-196.7"/>
<text text-anchor="start" x="270" y="-186.8" font-family="Helvetica,sans-Serif" font-size="11.00" fill="#000000">legacy_id</text>
<polygon fill="none" stroke="#000000" points="402,-179.7 402,-201.7 496,-201.7 496,-179.7 402,-179.7"/>
<text text-anchor="start" x="405" y="-187.4" font-family="Helvetica,sans-Serif" font-size="11.00" fill="#000000">int8[19]</text>
<polygon fill="#ffffff" stroke="transparent" points="250,-160.7 250,-179.7 330,-179.7 330,-160.7 250,-160.7"/>
<polygon fill="none" stroke="#000000" points="250,-160.7 250,-179.7 330,-179.7 330,-160.7 250,-160.7"/>
<text text-anchor="start" x="253" y="-166.8" font-family="Helvetica,sans-Serif" font-size="11.00" fill="#000000">&lt; 3</text>
<polygon fill="#ffffff" stroke="transparent" points="330,-160.7 330,-179.7 402,-179.7 402,-160.7 330,-160.7"/>
<polygon fill="none" stroke="#000000" points="330,-160.7 330,-179.7 402,-179.7 402,-160.7 330,-160.7"/>
<text text-anchor="start" x="392.8862" y="-166.8" font-family="Helvetica,sans-Serif" font-size="11.00" fill="#000000"> &#160;</text>
<polygon fill="#ffffff" stroke="transparent" points="402,-160.7 402,-179.7 496,-179.7 496,-160.7 402,-160.7"/>
<polygon fill="none" stroke="#000000" points="402,-160.7 402,-179.7 496,-179.7 496,-160.7 402,-160.7"/>
<text text-anchor="start" x="477.4053" y="-166.8" font-family="Helvetica,sans-Serif" font-size="11.00" fill="#000000">0 &gt;</text>
<polygon fill="none" stroke="#000000" stroke-width="2" points="249,-159.7 249,-379.7 497,-379.7 497,-159.7 249,-159.7"/>
</a>
</g>
</g>
<!-- reference_data -->
<g id="node2" class="node">
<title>reference_data</title>
<g id="a_node2"><a xlink:href="../../tables/reference_data.html" xlink:title="reference_data" target="_top">
<polygon fill="#ffffff" stroke="transparent" points="33,-142.2 33,-291.2 174,-291.2 174,-142.2 33,-142.2"/>
<polygon fill="#f5f5f5" stroke="transparent" points="33.5,-267.7 33.5,-290.7 174.5,-290.7 174.5,-267.7 33.5,-267.7"/>
<polygon fill="none" stroke="#000000" points="33.5,-267.7 33.5,-290.7 174.5,-290.7 174.5,-267.7 33.5,-267.7"/>
<text text-anchor="start" x="38.5" y="-276.3" font-family="Helvetica,sans-Serif" font-weight="bold" font-size="11.00" fill="#000000">reference_data</text>
<text text-anchor="start" x="140.0219" y="-275.8" font-family="Helvetica,sans-Serif" font-size="11.00" fill="#000000">[table]</text>
<polygon fill="none" stroke="#000000" points="33.5,-245.7 33.5,-267.7 174.5,-267.7 174.5,-245.7 33.5,-245.7"/>
<image xlink:href="../../images/primaryKeys.png" width="11px" height="12px" preserveAspectRatio="xMinYMin meet" x="38.5" y="-262.7"/>
<text text-anchor="start" x="53.5" y="-252.8" font-family="Helvetica,sans-Serif" font-size="11.00" fill="#000000">reference_data_id</text>
<polygon fill="#ffffff" stroke="transparent" points="33.5,-223.7 33.5,-245.7 174.5,-245.7 174.5,-223.7 33.5,-223.7"/>
<polygon fill="none" stroke="#000000" points="33.5,-223.7 33.5,-245.7 174.5,-245.7 174.5,-223.7 33.5,-223.7"/>
<text text-anchor="start" x="53.5" y="-230.8" font-family="Helvetica,sans-Serif" font-size="11.00" fill="#000000">domain</text>
<polygon fill="#ffffff" stroke="transparent" points="33.5,-201.7 33.5,-223.7 174.5,-223.7 174.5,-201.7 33.5,-201.7"/>
<polygon fill="none" stroke="#000000" points="33.5,-201.7 33.5,-223.7 174.5,-223.7 174.5,-201.7 33.5,-201.7"/>
<text text-anchor="start" x="53.5" y="-208.8" font-family="Helvetica,sans-Serif" font-size="11.00" fill="#000000">code</text>
<polygon fill="#ffffff" stroke="transparent" points="33.5,-179.7 33.5,-201.7 174.5,-201.7 174.5,-179.7 33.5,-179.7"/>
<polygon fill="none" stroke="#000000" points="33.5,-179.7 33.5,-201.7 174.5,-201.7 174.5,-179.7 33.5,-179.7"/>
<text text-anchor="start" x="53.5" y="-186.8" font-family="Helvetica,sans-Serif" font-size="11.00" fill="#000000">list_sequence</text>
<polygon fill="none" stroke="#000000" points="33.5,-160.7 33.5,-179.7 174.5,-179.7 174.5,-160.7 33.5,-160.7"/>
<text text-anchor="start" x="36.5" y="-166.8" font-family="Helvetica,sans-Serif" font-size="11.00" fill="#000000">...</text>
<polygon fill="#ffffff" stroke="transparent" points="33.5,-141.7 33.5,-160.7 71.5,-160.7 71.5,-141.7 33.5,-141.7"/>
<polygon fill="none" stroke="#000000" points="33.5,-141.7 33.5,-160.7 71.5,-160.7 71.5,-141.7 33.5,-141.7"/>
<text text-anchor="start" x="36.5" y="-147.8" font-family="Helvetica,sans-Serif" font-size="11.00" fill="#000000"> &#160;</text>
<polygon fill="#ffffff" stroke="transparent" points="71.5,-141.7 71.5,-160.7 134.5,-160.7 134.5,-141.7 71.5,-141.7"/>
<polygon fill="none" stroke="#000000" points="71.5,-141.7 71.5,-160.7 134.5,-160.7 134.5,-141.7 71.5,-141.7"/>
<text text-anchor="start" x="86.8807" y="-147.8" font-family="Helvetica,sans-Serif" font-size="11.00" fill="#000000">122 rows</text>
<polygon fill="#ffffff" stroke="transparent" points="134.5,-141.7 134.5,-160.7 174.5,-160.7 174.5,-141.7 134.5,-141.7"/>
<polygon fill="none" stroke="#000000" points="134.5,-141.7 134.5,-160.7 174.5,-160.7 174.5,-141.7 134.5,-141.7"/>
<text text-anchor="start" x="149.7904" y="-147.8" font-family="Helvetica,sans-Serif" font-size="11.00" fill="#000000">10 &gt;</text>
</a>
</g>
</g>
<!-- interview&#45;&gt;reference_data -->
<g id="edge1" class="edge">
<title>interview:w&#45;&gt;reference_data:e</title>
<path fill="none" stroke="#000000" d="M235.2943,-256.7C213.0144,-256.7 202.5503,-256.7 174.5,-256.7"/>
<polygon fill="#000000" stroke="#000000" points="242,-256.7001 250,-260.3 246,-256.7 250,-256.7 250,-256.7 250,-256.7 246,-256.7 250,-253.1 242,-256.7001 242,-256.7001"/>
<ellipse fill="none" stroke="#000000" cx="238.8" cy="-256.7001" rx="3.2" ry="3.2"/>
</g>
<!-- investigation -->
<g id="node3" class="node">
<title>investigation</title>
<g id="a_node3"><a xlink:href="../../tables/investigation.html" xlink:title="investigation" target="_top">
<polygon fill="#ffffff" stroke="transparent" points="8,-312.2 8,-395.2 199,-395.2 199,-312.2 8,-312.2"/>
<polygon fill="#f5f5f5" stroke="transparent" points="8.5,-371.7 8.5,-394.7 199.5,-394.7 199.5,-371.7 8.5,-371.7"/>
<polygon fill="none" stroke="#000000" points="8.5,-371.7 8.5,-394.7 199.5,-394.7 199.5,-371.7 8.5,-371.7"/>
<text text-anchor="start" x="13.5" y="-380.3" font-family="Helvetica,sans-Serif" font-weight="bold" font-size="11.00" fill="#000000">investigation</text>
<text text-anchor="start" x="164.5437" y="-379.8" font-family="Helvetica,sans-Serif" font-size="11.00" fill="#000000">[table]</text>
<polygon fill="none" stroke="#000000" points="8.5,-349.7 8.5,-371.7 199.5,-371.7 199.5,-349.7 8.5,-349.7"/>
<image xlink:href="../../images/primaryKeys.png" width="11px" height="12px" preserveAspectRatio="xMinYMin meet" x="13.5" y="-366.7"/>
<text text-anchor="start" x="28.5" y="-356.8" font-family="Helvetica,sans-Serif" font-size="11.00" fill="#000000">investigation_id</text>
<polygon fill="none" stroke="#000000" points="8.5,-330.7 8.5,-349.7 199.5,-349.7 199.5,-330.7 8.5,-330.7"/>
<text text-anchor="start" x="11.5" y="-336.8" font-family="Helvetica,sans-Serif" font-size="11.00" fill="#000000">...</text>
<polygon fill="#ffffff" stroke="transparent" points="8.5,-311.7 8.5,-330.7 97.5,-330.7 97.5,-311.7 8.5,-311.7"/>
<polygon fill="none" stroke="#000000" points="8.5,-311.7 8.5,-330.7 97.5,-330.7 97.5,-311.7 8.5,-311.7"/>
<text text-anchor="start" x="11.5" y="-317.8" font-family="Helvetica,sans-Serif" font-size="11.00" fill="#000000">&lt; 1</text>
<polygon fill="#ffffff" stroke="transparent" points="97.5,-311.7 97.5,-330.7 143.5,-330.7 143.5,-311.7 97.5,-311.7"/>
<polygon fill="none" stroke="#000000" points="97.5,-311.7 97.5,-330.7 143.5,-330.7 143.5,-311.7 97.5,-311.7"/>
<text text-anchor="start" x="134.3862" y="-317.8" font-family="Helvetica,sans-Serif" font-size="11.00" fill="#000000"> &#160;</text>
<polygon fill="#ffffff" stroke="transparent" points="143.5,-311.7 143.5,-330.7 199.5,-330.7 199.5,-311.7 143.5,-311.7"/>
<polygon fill="none" stroke="#000000" points="143.5,-311.7 143.5,-330.7 199.5,-330.7 199.5,-311.7 143.5,-311.7"/>
<text text-anchor="start" x="180.9053" y="-317.8" font-family="Helvetica,sans-Serif" font-size="11.00" fill="#000000">1 &gt;</text>
</a>
</g>
</g>
<!-- interview&#45;&gt;investigation -->
<g id="edge2" class="edge">
<title>interview:w&#45;&gt;investigation:e</title>
<path fill="none" stroke="#000000" d="M236.0985,-327.0591C222.804,-337.0405 221.6639,-360.7 199.5,-360.7"/>
<polygon fill="#000000" stroke="#000000" points="242.3665,-325.0937 251.0771,-326.1351 246.1832,-323.8968 250,-322.7 250,-322.7 250,-322.7 246.1832,-323.8968 248.9229,-319.2649 242.3665,-325.0937 242.3665,-325.0937"/>
<ellipse fill="none" stroke="#000000" cx="239.3131" cy="-326.0511" rx="3.2" ry="3.2"/>
</g>
<!-- audit_revision -->
<g id="node4" class="node">
<title>audit_revision</title>
<g id="a_node4"><a xlink:href="../../tables/audit_revision.html" xlink:title="audit_revision" target="_top">
<polygon fill="#ffffff" stroke="transparent" points="20.5,-38.2 20.5,-121.2 186.5,-121.2 186.5,-38.2 20.5,-38.2"/>
<polygon fill="#f5f5f5" stroke="transparent" points="20.5,-97.7 20.5,-120.7 186.5,-120.7 186.5,-97.7 20.5,-97.7"/>
<polygon fill="none" stroke="#000000" points="20.5,-97.7 20.5,-120.7 186.5,-120.7 186.5,-97.7 20.5,-97.7"/>
<text text-anchor="start" x="25.5" y="-106.3" font-family="Helvetica,sans-Serif" font-weight="bold" font-size="11.00" fill="#000000">audit_revision</text>
<text text-anchor="start" x="151.5437" y="-105.8" font-family="Helvetica,sans-Serif" font-size="11.00" fill="#000000">[table]</text>
<polygon fill="none" stroke="#000000" points="20.5,-75.7 20.5,-97.7 186.5,-97.7 186.5,-75.7 20.5,-75.7"/>
<image xlink:href="../../images/primaryKeys.png" width="11px" height="12px" preserveAspectRatio="xMinYMin meet" x="25.5" y="-92.7"/>
<text text-anchor="start" x="40.5" y="-82.8" font-family="Helvetica,sans-Serif" font-size="11.00" fill="#000000">id</text>
<polygon fill="none" stroke="#000000" points="20.5,-56.7 20.5,-75.7 186.5,-75.7 186.5,-56.7 20.5,-56.7"/>
<text text-anchor="start" x="23.5" y="-62.8" font-family="Helvetica,sans-Serif" font-size="11.00" fill="#000000">...</text>
<polygon fill="#ffffff" stroke="transparent" points="20.5,-37.7 20.5,-56.7 89.5,-56.7 89.5,-37.7 20.5,-37.7"/>
<polygon fill="none" stroke="#000000" points="20.5,-37.7 20.5,-56.7 89.5,-56.7 89.5,-37.7 20.5,-37.7"/>
<text text-anchor="start" x="23.5" y="-43.8" font-family="Helvetica,sans-Serif" font-size="11.00" fill="#000000"> &#160;</text>
<polygon fill="#ffffff" stroke="transparent" points="89.5,-37.7 89.5,-56.7 130.5,-56.7 130.5,-37.7 89.5,-37.7"/>
<polygon fill="none" stroke="#000000" points="89.5,-37.7 89.5,-56.7 130.5,-56.7 130.5,-37.7 89.5,-37.7"/>
<text text-anchor="start" x="121.3862" y="-43.8" font-family="Helvetica,sans-Serif" font-size="11.00" fill="#000000"> &#160;</text>
<polygon fill="#ffffff" stroke="transparent" points="130.5,-37.7 130.5,-56.7 186.5,-56.7 186.5,-37.7 130.5,-37.7"/>
<polygon fill="none" stroke="#000000" points="130.5,-37.7 130.5,-56.7 186.5,-56.7 186.5,-37.7 130.5,-37.7"/>
<text text-anchor="start" x="161.7904" y="-43.8" font-family="Helvetica,sans-Serif" font-size="11.00" fill="#000000">33 &gt;</text>
</a>
</g>
</g>
<!-- interview&#45;&gt;audit_revision -->
<g id="edge3" class="edge">
<title>interview:w&#45;&gt;audit_revision:e</title>
<path fill="none" stroke="#000000" stroke-dasharray="5,2" d="M239.4962,-189.0664C201.9499,-175.8354 236.6376,-86.7 186.5,-86.7"/>
<polygon fill="#000000" stroke="#000000" points="249.8242,-186.6246 248.5948,-194.5295 247.0138,-194.2836 248.2432,-186.3787 249.8242,-186.6246"/>
<polyline fill="none" stroke="#000000" points="250,-190.7 246.0475,-190.0853 "/>
<ellipse fill="none" stroke="#000000" cx="242.8855" cy="-189.5935" rx="3.2" ry="3.2"/>
</g>
</g>
</svg>
