<?xml version="1.0" encoding="UTF-8" standalone="no"?>
<!DOCTYPE svg PUBLIC "-//W3C//DTD SVG 1.1//EN"
 "http://www.w3.org/Graphics/SVG/1.1/DTD/svg11.dtd">
<!-- Generated by graphviz version 2.40.1 (20161225.0304)
 -->
<!-- Title: twoDegreesRelationshipsDiagram Pages: 1 -->
<svg width="1085pt" height="486pt"
 viewBox="0.00 0.00 1085.00 486.07" xmlns="http://www.w3.org/2000/svg" xmlns:xlink="http://www.w3.org/1999/xlink">
<g id="graph0" class="graph" transform="scale(1 1) rotate(0) translate(4 482.0711)">
<title>twoDegreesRelationshipsDiagram</title>
<polygon fill="#ffffff" stroke="transparent" points="-4,4 -4,-482.0711 1081,-482.0711 1081,4 -4,4"/>
<text text-anchor="middle" x="72.4936" y="-7.3" font-family="Helvetica,sans-Serif" font-size="11.00" fill="#000000">Generated by SchemaSpy</text>
<!-- contributory_factor -->
<g id="node1" class="node">
<title>contributory_factor</title>
<g id="a_node1"><a xlink:href="../../tables/contributory_factor.html" xlink:title="contributory_factor" target="_top">
<polygon fill="#ffffff" stroke="transparent" points="551,-413.0711 551,-474.0711 720,-474.0711 720,-413.0711 551,-413.0711"/>
<polygon fill="#f5f5f5" stroke="transparent" points="551.5,-450.5711 551.5,-473.5711 720.5,-473.5711 720.5,-450.5711 551.5,-450.5711"/>
<polygon fill="none" stroke="#000000" points="551.5,-450.5711 551.5,-473.5711 720.5,-473.5711 720.5,-450.5711 551.5,-450.5711"/>
<text text-anchor="start" x="556.5" y="-459.1711" font-family="Helvetica,sans-Serif" font-weight="bold" font-size="11.00" fill="#000000">contributory_factor</text>
<text text-anchor="start" x="686.0219" y="-458.6711" font-family="Helvetica,sans-Serif" font-size="11.00" fill="#000000">[table]</text>
<polygon fill="none" stroke="#000000" points="551.5,-431.5711 551.5,-450.5711 720.5,-450.5711 720.5,-431.5711 551.5,-431.5711"/>
<text text-anchor="start" x="554.5" y="-437.6711" font-family="Helvetica,sans-Serif" font-size="11.00" fill="#000000">...</text>
<polygon fill="#ffffff" stroke="transparent" points="551.5,-412.5711 551.5,-431.5711 634.5,-431.5711 634.5,-412.5711 551.5,-412.5711"/>
<polygon fill="none" stroke="#000000" points="551.5,-412.5711 551.5,-431.5711 634.5,-431.5711 634.5,-412.5711 551.5,-412.5711"/>
<text text-anchor="start" x="554.5" y="-418.6711" font-family="Helvetica,sans-Serif" font-size="11.00" fill="#000000">&lt; 2</text>
<polygon fill="#ffffff" stroke="transparent" points="634.5,-412.5711 634.5,-431.5711 677.5,-431.5711 677.5,-412.5711 634.5,-412.5711"/>
<polygon fill="none" stroke="#000000" points="634.5,-412.5711 634.5,-431.5711 677.5,-431.5711 677.5,-412.5711 634.5,-412.5711"/>
<text text-anchor="start" x="668.3862" y="-418.6711" font-family="Helvetica,sans-Serif" font-size="11.00" fill="#000000"> &#160;</text>
<polygon fill="#ffffff" stroke="transparent" points="677.5,-412.5711 677.5,-431.5711 720.5,-431.5711 720.5,-412.5711 677.5,-412.5711"/>
<polygon fill="none" stroke="#000000" points="677.5,-412.5711 677.5,-431.5711 720.5,-431.5711 720.5,-412.5711 677.5,-412.5711"/>
<text text-anchor="start" x="711.3862" y="-418.6711" font-family="Helvetica,sans-Serif" font-size="11.00" fill="#000000"> &#160;</text>
</a>
</g>
</g>
<!-- reference_data -->
<g id="node2" class="node">
<title>reference_data</title>
<g id="a_node2"><a xlink:href="../../tables/reference_data.html" xlink:title="reference_data" target="_top">
<polygon fill="#ffffff" stroke="transparent" points="8,-205.0711 8,-354.0711 149,-354.0711 149,-205.0711 8,-205.0711"/>
<polygon fill="#f5f5f5" stroke="transparent" points="8.5,-330.5711 8.5,-353.5711 149.5,-353.5711 149.5,-330.5711 8.5,-330.5711"/>
<polygon fill="none" stroke="#000000" points="8.5,-330.5711 8.5,-353.5711 149.5,-353.5711 149.5,-330.5711 8.5,-330.5711"/>
<text text-anchor="start" x="13.5" y="-339.1711" font-family="Helvetica,sans-Serif" font-weight="bold" font-size="11.00" fill="#000000">reference_data</text>
<text text-anchor="start" x="115.0219" y="-338.6711" font-family="Helvetica,sans-Serif" font-size="11.00" fill="#000000">[table]</text>
<polygon fill="none" stroke="#000000" points="8.5,-308.5711 8.5,-330.5711 149.5,-330.5711 149.5,-308.5711 8.5,-308.5711"/>
<image xlink:href="../../images/primaryKeys.png" width="11px" height="12px" preserveAspectRatio="xMinYMin meet" x="13.5" y="-325.571"/>
<text text-anchor="start" x="28.5" y="-315.6711" font-family="Helvetica,sans-Serif" font-size="11.00" fill="#000000">reference_data_id</text>
<polygon fill="#ffffff" stroke="transparent" points="8.5,-286.5711 8.5,-308.5711 149.5,-308.5711 149.5,-286.5711 8.5,-286.5711"/>
<polygon fill="none" stroke="#000000" points="8.5,-286.5711 8.5,-308.5711 149.5,-308.5711 149.5,-286.5711 8.5,-286.5711"/>
<text text-anchor="start" x="28.5" y="-293.6711" font-family="Helvetica,sans-Serif" font-size="11.00" fill="#000000">domain</text>
<polygon fill="#ffffff" stroke="transparent" points="8.5,-264.5711 8.5,-286.5711 149.5,-286.5711 149.5,-264.5711 8.5,-264.5711"/>
<polygon fill="none" stroke="#000000" points="8.5,-264.5711 8.5,-286.5711 149.5,-286.5711 149.5,-264.5711 8.5,-264.5711"/>
<text text-anchor="start" x="28.5" y="-271.6711" font-family="Helvetica,sans-Serif" font-size="11.00" fill="#000000">code</text>
<polygon fill="#ffffff" stroke="transparent" points="8.5,-242.5711 8.5,-264.5711 149.5,-264.5711 149.5,-242.5711 8.5,-242.5711"/>
<polygon fill="none" stroke="#000000" points="8.5,-242.5711 8.5,-264.5711 149.5,-264.5711 149.5,-242.5711 8.5,-242.5711"/>
<text text-anchor="start" x="28.5" y="-249.6711" font-family="Helvetica,sans-Serif" font-size="11.00" fill="#000000">list_sequence</text>
<polygon fill="none" stroke="#000000" points="8.5,-223.5711 8.5,-242.5711 149.5,-242.5711 149.5,-223.5711 8.5,-223.5711"/>
<text text-anchor="start" x="11.5" y="-229.6711" font-family="Helvetica,sans-Serif" font-size="11.00" fill="#000000">...</text>
<polygon fill="#ffffff" stroke="transparent" points="8.5,-204.5711 8.5,-223.5711 46.5,-223.5711 46.5,-204.5711 8.5,-204.5711"/>
<polygon fill="none" stroke="#000000" points="8.5,-204.5711 8.5,-223.5711 46.5,-223.5711 46.5,-204.5711 8.5,-204.5711"/>
<text text-anchor="start" x="11.5" y="-210.6711" font-family="Helvetica,sans-Serif" font-size="11.00" fill="#000000"> &#160;</text>
<polygon fill="#ffffff" stroke="transparent" points="46.5,-204.5711 46.5,-223.5711 109.5,-223.5711 109.5,-204.5711 46.5,-204.5711"/>
<polygon fill="none" stroke="#000000" points="46.5,-204.5711 46.5,-223.5711 109.5,-223.5711 109.5,-204.5711 46.5,-204.5711"/>
<text text-anchor="start" x="61.8807" y="-210.6711" font-family="Helvetica,sans-Serif" font-size="11.00" fill="#000000">122 rows</text>
<polygon fill="#ffffff" stroke="transparent" points="109.5,-204.5711 109.5,-223.5711 149.5,-223.5711 149.5,-204.5711 109.5,-204.5711"/>
<polygon fill="none" stroke="#000000" points="109.5,-204.5711 109.5,-223.5711 149.5,-223.5711 149.5,-204.5711 109.5,-204.5711"/>
<text text-anchor="start" x="124.7904" y="-210.6711" font-family="Helvetica,sans-Serif" font-size="11.00" fill="#000000">10 &gt;</text>
</a>
</g>
</g>
<!-- contributory_factor&#45;&gt;reference_data -->
<g id="edge1" class="edge">
<title>contributory_factor:w&#45;&gt;reference_data:e</title>
<path fill="none" stroke="#000000" d="M536.8892,-440.5911C383.9405,-440.9899 327.0895,-446.3535 190,-365.5711 166.5322,-351.7423 176.7392,-319.5711 149.5,-319.5711"/>
<polygon fill="#000000" stroke="#000000" points="543.5,-440.5821 551.505,-444.1711 547.5,-440.5766 551.5,-440.5711 551.5,-440.5711 551.5,-440.5711 547.5,-440.5766 551.495,-436.9711 543.5,-440.5821 543.5,-440.5821"/>
<ellipse fill="none" stroke="#000000" cx="540.3" cy="-440.5865" rx="3.2" ry="3.2"/>
</g>
<!-- referral -->
<g id="node3" class="node">
<title>referral</title>
<g id="a_node3"><a xlink:href="../../tables/referral.html" xlink:title="referral" target="_top">
<polygon fill="#ffffff" stroke="transparent" points="362,-330.0711 362,-391.0711 452,-391.0711 452,-330.0711 362,-330.0711"/>
<polygon fill="#f5f5f5" stroke="transparent" points="362,-367.5711 362,-390.5711 452,-390.5711 452,-367.5711 362,-367.5711"/>
<polygon fill="none" stroke="#000000" points="362,-367.5711 362,-390.5711 452,-390.5711 452,-367.5711 362,-367.5711"/>
<text text-anchor="start" x="367" y="-376.1711" font-family="Helvetica,sans-Serif" font-weight="bold" font-size="11.00" fill="#000000">referral</text>
<text text-anchor="start" x="417.5219" y="-375.6711" font-family="Helvetica,sans-Serif" font-size="11.00" fill="#000000">[table]</text>
<polygon fill="none" stroke="#000000" points="362,-348.5711 362,-367.5711 452,-367.5711 452,-348.5711 362,-348.5711"/>
<text text-anchor="start" x="365" y="-354.6711" font-family="Helvetica,sans-Serif" font-size="11.00" fill="#000000">...</text>
<polygon fill="#ffffff" stroke="transparent" points="362,-329.5711 362,-348.5711 401,-348.5711 401,-329.5711 362,-329.5711"/>
<polygon fill="none" stroke="#000000" points="362,-329.5711 362,-348.5711 401,-348.5711 401,-329.5711 362,-329.5711"/>
<text text-anchor="start" x="365" y="-335.6711" font-family="Helvetica,sans-Serif" font-size="11.00" fill="#000000">&lt; 5</text>
<polygon fill="#ffffff" stroke="transparent" points="401,-329.5711 401,-348.5711 422,-348.5711 422,-329.5711 401,-329.5711"/>
<polygon fill="none" stroke="#000000" points="401,-329.5711 401,-348.5711 422,-348.5711 422,-329.5711 401,-329.5711"/>
<text text-anchor="start" x="412.8862" y="-335.6711" font-family="Helvetica,sans-Serif" font-size="11.00" fill="#000000"> &#160;</text>
<polygon fill="#ffffff" stroke="transparent" points="422,-329.5711 422,-348.5711 452,-348.5711 452,-329.5711 422,-329.5711"/>
<polygon fill="none" stroke="#000000" points="422,-329.5711 422,-348.5711 452,-348.5711 452,-329.5711 422,-329.5711"/>
<text text-anchor="start" x="433.4053" y="-335.6711" font-family="Helvetica,sans-Serif" font-size="11.00" fill="#000000">4 &gt;</text>
</a>
</g>
</g>
<!-- contributory_factor&#45;&gt;referral -->
<g id="edge2" class="edge">
<title>contributory_factor:w&#45;&gt;referral:e</title>
<path fill="none" stroke="#000000" d="M537.1438,-438.9257C518.4697,-434.0576 512.3868,-419.0325 493,-402.5711 472.3756,-385.0587 479.0564,-357.5711 452,-357.5711"/>
<polygon fill="#000000" stroke="#000000" points="543.552,-439.6601 551.0901,-444.1477 547.526,-440.1156 551.5,-440.5711 551.5,-440.5711 551.5,-440.5711 547.526,-440.1156 551.9099,-436.9945 543.552,-439.6601 543.552,-439.6601"/>
<ellipse fill="none" stroke="#000000" cx="540.3728" cy="-439.2957" rx="3.2" ry="3.2"/>
</g>
<!-- referral&#45;&gt;reference_data -->
<g id="edge10" class="edge">
<title>referral:w&#45;&gt;reference_data:e</title>
<path fill="none" stroke="#000000" d="M347.6029,-356.0344C300.2284,-348.9252 170.5811,-319.5711 149.5,-319.5711"/>
<polygon fill="#000000" stroke="#000000" points="354.0452,-356.722 361.6179,-361.1508 358.0226,-357.1465 362,-357.5711 362,-357.5711 362,-357.5711 358.0226,-357.1465 362.3821,-353.9914 354.0452,-356.722 354.0452,-356.722"/>
<ellipse fill="none" stroke="#000000" cx="350.8633" cy="-356.3823" rx="3.2" ry="3.2"/>
</g>
<!-- referral&#45;&gt;reference_data -->
<g id="edge11" class="edge">
<title>referral:w&#45;&gt;reference_data:e</title>
<path fill="none" stroke="#000000" d="M347.6872,-355.3622C263.7216,-340.7741 240.4768,-307.2439 149.5,-319.5711"/>
<polygon fill="#000000" stroke="#000000" points="354.0936,-356.3508 361.4509,-361.129 358.0468,-356.961 362,-357.5711 362,-357.5711 362,-357.5711 358.0468,-356.961 362.5491,-354.0132 354.0936,-356.3508 354.0936,-356.3508"/>
<ellipse fill="none" stroke="#000000" cx="350.931" cy="-355.8627" rx="3.2" ry="3.2"/>
</g>
<!-- referral&#45;&gt;reference_data -->
<g id="edge12" class="edge">
<title>referral:w&#45;&gt;reference_data:e</title>
<path fill="none" stroke="#000000" d="M347.4279,-357.2652C263.6737,-353.6689 240.3832,-319.5711 149.5,-319.5711"/>
<polygon fill="#000000" stroke="#000000" points="354.0018,-357.4031 361.9244,-361.1703 358.0009,-357.4871 362,-357.5711 362,-357.5711 362,-357.5711 358.0009,-357.4871 362.0756,-353.9719 354.0018,-357.4031 354.0018,-357.4031"/>
<ellipse fill="none" stroke="#000000" cx="350.8025" cy="-357.336" rx="3.2" ry="3.2"/>
</g>
<!-- referral&#45;&gt;reference_data -->
<g id="edge13" class="edge">
<title>referral:w&#45;&gt;reference_data:e</title>
<path fill="none" stroke="#000000" d="M347.6872,-359.1903C263.7216,-366.7045 240.4768,-331.8982 149.5,-319.5711"/>
<polygon fill="#000000" stroke="#000000" points="354.0507,-358.4704 362.4047,-361.1483 358.0254,-358.0208 362,-357.5711 362,-357.5711 362,-357.5711 358.0254,-358.0208 361.5953,-353.9939 354.0507,-358.4704 354.0507,-358.4704"/>
<ellipse fill="none" stroke="#000000" cx="350.871" cy="-358.8302" rx="3.2" ry="3.2"/>
</g>
<!-- csip_record -->
<g id="node4" class="node">
<title>csip_record</title>
<g id="a_node4"><a xlink:href="../../tables/csip_record.html" xlink:title="csip_record" target="_top">
<polygon fill="#ffffff" stroke="transparent" points="198,-254.0711 198,-315.0711 313,-315.0711 313,-254.0711 198,-254.0711"/>
<polygon fill="#f5f5f5" stroke="transparent" points="198.5,-291.5711 198.5,-314.5711 313.5,-314.5711 313.5,-291.5711 198.5,-291.5711"/>
<polygon fill="none" stroke="#000000" points="198.5,-291.5711 198.5,-314.5711 313.5,-314.5711 313.5,-291.5711 198.5,-291.5711"/>
<text text-anchor="start" x="203.5" y="-300.1711" font-family="Helvetica,sans-Serif" font-weight="bold" font-size="11.00" fill="#000000">csip_record</text>
<text text-anchor="start" x="279.0219" y="-299.6711" font-family="Helvetica,sans-Serif" font-size="11.00" fill="#000000">[table]</text>
<polygon fill="none" stroke="#000000" points="198.5,-272.5711 198.5,-291.5711 313.5,-291.5711 313.5,-272.5711 198.5,-272.5711"/>
<text text-anchor="start" x="201.5" y="-278.6711" font-family="Helvetica,sans-Serif" font-size="11.00" fill="#000000">...</text>
<polygon fill="#ffffff" stroke="transparent" points="198.5,-253.5711 198.5,-272.5711 249.5,-272.5711 249.5,-253.5711 198.5,-253.5711"/>
<polygon fill="none" stroke="#000000" points="198.5,-253.5711 198.5,-272.5711 249.5,-272.5711 249.5,-253.5711 198.5,-253.5711"/>
<text text-anchor="start" x="201.5" y="-259.6711" font-family="Helvetica,sans-Serif" font-size="11.00" fill="#000000">&lt; 2</text>
<polygon fill="#ffffff" stroke="transparent" points="249.5,-253.5711 249.5,-272.5711 276.5,-272.5711 276.5,-253.5711 249.5,-253.5711"/>
<polygon fill="none" stroke="#000000" points="249.5,-253.5711 249.5,-272.5711 276.5,-272.5711 276.5,-253.5711 249.5,-253.5711"/>
<text text-anchor="start" x="267.3862" y="-259.6711" font-family="Helvetica,sans-Serif" font-size="11.00" fill="#000000"> &#160;</text>
<polygon fill="#ffffff" stroke="transparent" points="276.5,-253.5711 276.5,-272.5711 313.5,-272.5711 313.5,-253.5711 276.5,-253.5711"/>
<polygon fill="none" stroke="#000000" points="276.5,-253.5711 276.5,-272.5711 313.5,-272.5711 313.5,-253.5711 276.5,-253.5711"/>
<text text-anchor="start" x="294.9053" y="-259.6711" font-family="Helvetica,sans-Serif" font-size="11.00" fill="#000000">2 &gt;</text>
</a>
</g>
</g>
<!-- referral&#45;&gt;csip_record -->
<g id="edge14" class="edge">
<title>referral:w&#45;&gt;csip_record:e</title>
<path fill="none" stroke="#000000" d="M351.5464,-355.2132C327.8066,-342.3852 349.3436,-281.5711 313.5,-281.5711"/>
<polygon fill="#000000" stroke="#000000" points="362.0997,-353.4931 360.3395,-361.297 358.7787,-360.945 360.539,-353.141 362.0997,-353.4931"/>
<polyline fill="none" stroke="#000000" points="362,-357.5711 358.098,-356.6909 "/>
<ellipse fill="none" stroke="#000000" cx="354.9764" cy="-355.9868" rx="3.2" ry="3.2"/>
</g>
<!-- csip_record&#45;&gt;reference_data -->
<g id="edge3" class="edge">
<title>csip_record:w&#45;&gt;reference_data:e</title>
<path fill="none" stroke="#000000" d="M184.5438,-286.2306C172.0061,-296.3777 171.0306,-319.5711 149.5,-319.5711"/>
<polygon fill="#000000" stroke="#000000" points="190.9118,-284.1046 199.6401,-284.9858 194.7059,-282.8378 198.5,-281.5711 198.5,-281.5711 198.5,-281.5711 194.7059,-282.8378 197.3599,-278.1564 190.9118,-284.1046 190.9118,-284.1046"/>
<ellipse fill="none" stroke="#000000" cx="187.8765" cy="-285.118" rx="3.2" ry="3.2"/>
</g>
<!-- decision_and_actions -->
<g id="node5" class="node">
<title>decision_and_actions</title>
<g id="a_node5"><a xlink:href="../../tables/decision_and_actions.html" xlink:title="decision_and_actions" target="_top">
<polygon fill="#ffffff" stroke="transparent" points="545,-227.0711 545,-288.0711 726,-288.0711 726,-227.0711 545,-227.0711"/>
<polygon fill="#f5f5f5" stroke="transparent" points="545.5,-264.5711 545.5,-287.5711 726.5,-287.5711 726.5,-264.5711 545.5,-264.5711"/>
<polygon fill="none" stroke="#000000" points="545.5,-264.5711 545.5,-287.5711 726.5,-287.5711 726.5,-264.5711 545.5,-264.5711"/>
<text text-anchor="start" x="550.5" y="-273.1711" font-family="Helvetica,sans-Serif" font-weight="bold" font-size="11.00" fill="#000000">decision_and_actions</text>
<text text-anchor="start" x="692.0219" y="-272.6711" font-family="Helvetica,sans-Serif" font-size="11.00" fill="#000000">[table]</text>
<polygon fill="none" stroke="#000000" points="545.5,-245.5711 545.5,-264.5711 726.5,-264.5711 726.5,-245.5711 545.5,-245.5711"/>
<text text-anchor="start" x="548.5" y="-251.6711" font-family="Helvetica,sans-Serif" font-size="11.00" fill="#000000">...</text>
<polygon fill="#ffffff" stroke="transparent" points="545.5,-226.5711 545.5,-245.5711 634.5,-245.5711 634.5,-226.5711 545.5,-226.5711"/>
<polygon fill="none" stroke="#000000" points="545.5,-226.5711 545.5,-245.5711 634.5,-245.5711 634.5,-226.5711 545.5,-226.5711"/>
<text text-anchor="start" x="548.5" y="-232.6711" font-family="Helvetica,sans-Serif" font-size="11.00" fill="#000000">&lt; 3</text>
<polygon fill="#ffffff" stroke="transparent" points="634.5,-226.5711 634.5,-245.5711 680.5,-245.5711 680.5,-226.5711 634.5,-226.5711"/>
<polygon fill="none" stroke="#000000" points="634.5,-226.5711 634.5,-245.5711 680.5,-245.5711 680.5,-226.5711 634.5,-226.5711"/>
<text text-anchor="start" x="671.3862" y="-232.6711" font-family="Helvetica,sans-Serif" font-size="11.00" fill="#000000"> &#160;</text>
<polygon fill="#ffffff" stroke="transparent" points="680.5,-226.5711 680.5,-245.5711 726.5,-245.5711 726.5,-226.5711 680.5,-226.5711"/>
<polygon fill="none" stroke="#000000" points="680.5,-226.5711 680.5,-245.5711 726.5,-245.5711 726.5,-226.5711 680.5,-226.5711"/>
<text text-anchor="start" x="717.3862" y="-232.6711" font-family="Helvetica,sans-Serif" font-size="11.00" fill="#000000"> &#160;</text>
</a>
</g>
</g>
<!-- decision_and_actions&#45;&gt;reference_data -->
<g id="edge5" class="edge">
<title>decision_and_actions:w&#45;&gt;reference_data:e</title>
<path fill="none" stroke="#000000" d="M530.957,-254.3086C383.4844,-248.9687 321.2994,-164.761 190,-243.5711 157.1832,-263.2688 187.7745,-319.5711 149.5,-319.5711"/>
<polygon fill="#000000" stroke="#000000" points="537.5013,-254.4267 545.435,-258.1705 541.5007,-254.4989 545.5,-254.5711 545.5,-254.5711 545.5,-254.5711 541.5007,-254.4989 545.565,-250.9717 537.5013,-254.4267 537.5013,-254.4267"/>
<ellipse fill="none" stroke="#000000" cx="534.3018" cy="-254.3689" rx="3.2" ry="3.2"/>
</g>
<!-- decision_and_actions&#45;&gt;reference_data -->
<g id="edge6" class="edge">
<title>decision_and_actions:w&#45;&gt;reference_data:e</title>
<path fill="none" stroke="#000000" d="M530.9635,-254.3246C383.5798,-249.3099 322.1506,-170.2831 190,-247.5711 158.3072,-266.1066 186.2151,-319.5711 149.5,-319.5711"/>
<polygon fill="#000000" stroke="#000000" points="537.5012,-254.4354 545.4389,-258.1706 541.5006,-254.5032 545.5,-254.5711 545.5,-254.5711 545.5,-254.5711 541.5006,-254.5032 545.5611,-250.9716 537.5012,-254.4354 537.5012,-254.4354"/>
<ellipse fill="none" stroke="#000000" cx="534.3016" cy="-254.3811" rx="3.2" ry="3.2"/>
</g>
<!-- decision_and_actions&#45;&gt;referral -->
<g id="edge4" class="edge">
<title>decision_and_actions:w&#45;&gt;referral:e</title>
<path fill="none" stroke="#000000" d="M535.0657,-255.6C514.3475,-260.1359 510.8876,-278.9919 493,-298.5711 471.462,-322.1459 483.932,-357.5711 452,-357.5711"/>
<polygon fill="#000000" stroke="#000000" points="544.3113,-250.6689 545.0964,-258.6303 543.5041,-258.7873 542.719,-250.8259 544.3113,-250.6689"/>
<polyline fill="none" stroke="#000000" points="545.5,-254.5711 541.5193,-254.9636 "/>
<ellipse fill="none" stroke="#000000" cx="538.3348" cy="-255.2777" rx="3.2" ry="3.2"/>
</g>
<!-- interview -->
<g id="node6" class="node">
<title>interview</title>
<g id="a_node6"><a xlink:href="../../tables/interview.html" xlink:title="interview" target="_top">
<polygon fill="#ffffff" stroke="transparent" points="819,-107.5711 819,-329.5711 1069,-329.5711 1069,-107.5711 819,-107.5711"/>
<polygon fill="#f5f5f5" stroke="transparent" points="821,-304.5711 821,-327.5711 1067,-327.5711 1067,-304.5711 821,-304.5711"/>
<polygon fill="none" stroke="#000000" points="821,-304.5711 821,-327.5711 1067,-327.5711 1067,-304.5711 821,-304.5711"/>
<text text-anchor="start" x="826" y="-313.1711" font-family="Helvetica,sans-Serif" font-weight="bold" font-size="11.00" fill="#000000">interview</text>
<text text-anchor="start" x="1032.0437" y="-312.6711" font-family="Helvetica,sans-Serif" font-size="11.00" fill="#000000">[table]</text>
<polygon fill="none" stroke="#000000" points="821,-282.5711 821,-304.5711 973,-304.5711 973,-282.5711 821,-282.5711"/>
<image xlink:href="../../images/primaryKeys.png" width="11px" height="12px" preserveAspectRatio="xMinYMin meet" x="826" y="-299.571"/>
<text text-anchor="start" x="841" y="-289.6711" font-family="Helvetica,sans-Serif" font-size="11.00" fill="#000000">interview_id</text>
<polygon fill="none" stroke="#000000" points="973,-282.5711 973,-304.5711 1067,-304.5711 1067,-282.5711 973,-282.5711"/>
<text text-anchor="start" x="975.9758" y="-290.2711" font-family="Helvetica,sans-Serif" font-size="11.00" fill="#000000">uuid[2147483647]</text>
<polygon fill="#ffffff" stroke="transparent" points="821,-260.5711 821,-282.5711 973,-282.5711 973,-260.5711 821,-260.5711"/>
<polygon fill="none" stroke="#000000" points="821,-260.5711 821,-282.5711 973,-282.5711 973,-260.5711 821,-260.5711"/>
<image xlink:href="../../images/foreignKeys.png" width="11px" height="12px" preserveAspectRatio="xMinYMin meet" x="826" y="-277.571"/>
<text text-anchor="start" x="841" y="-267.6711" font-family="Helvetica,sans-Serif" font-size="11.00" fill="#000000">investigation_id</text>
<polygon fill="none" stroke="#000000" points="973,-260.5711 973,-282.5711 1067,-282.5711 1067,-260.5711 973,-260.5711"/>
<text text-anchor="start" x="975.9758" y="-268.2711" font-family="Helvetica,sans-Serif" font-size="11.00" fill="#000000">uuid[2147483647]</text>
<polygon fill="none" stroke="#000000" points="821,-238.5711 821,-260.5711 973,-260.5711 973,-238.5711 821,-238.5711"/>
<text text-anchor="start" x="841" y="-245.6711" font-family="Helvetica,sans-Serif" font-size="11.00" fill="#000000">interviewee</text>
<polygon fill="none" stroke="#000000" points="973,-238.5711 973,-260.5711 1067,-260.5711 1067,-238.5711 973,-238.5711"/>
<text text-anchor="start" x="976" y="-246.2711" font-family="Helvetica,sans-Serif" font-size="11.00" fill="#000000">varchar[100]</text>
<polygon fill="none" stroke="#000000" points="821,-216.5711 821,-238.5711 973,-238.5711 973,-216.5711 821,-216.5711"/>
<text text-anchor="start" x="841" y="-223.6711" font-family="Helvetica,sans-Serif" font-size="11.00" fill="#000000">interview_date</text>
<polygon fill="none" stroke="#000000" points="973,-216.5711 973,-238.5711 1067,-238.5711 1067,-216.5711 973,-216.5711"/>
<text text-anchor="start" x="976" y="-224.2711" font-family="Helvetica,sans-Serif" font-size="11.00" fill="#000000">date[13]</text>
<polygon fill="#ffffff" stroke="transparent" points="821,-194.5711 821,-216.5711 973,-216.5711 973,-194.5711 821,-194.5711"/>
<polygon fill="none" stroke="#000000" points="821,-194.5711 821,-216.5711 973,-216.5711 973,-194.5711 821,-194.5711"/>
<image xlink:href="../../images/foreignKeys.png" width="11px" height="12px" preserveAspectRatio="xMinYMin meet" x="826" y="-211.571"/>
<text text-anchor="start" x="841" y="-201.6711" font-family="Helvetica,sans-Serif" font-size="11.00" fill="#000000">interviewee_role_id</text>
<polygon fill="none" stroke="#000000" points="973,-194.5711 973,-216.5711 1067,-216.5711 1067,-194.5711 973,-194.5711"/>
<text text-anchor="start" x="976" y="-202.2711" font-family="Helvetica,sans-Serif" font-size="11.00" fill="#000000">int4[10]</text>
<polygon fill="none" stroke="#000000" points="821,-172.5711 821,-194.5711 973,-194.5711 973,-172.5711 821,-172.5711"/>
<text text-anchor="start" x="841" y="-179.6711" font-family="Helvetica,sans-Serif" font-size="11.00" fill="#000000">interview_text</text>
<polygon fill="none" stroke="#000000" points="973,-172.5711 973,-194.5711 1067,-194.5711 1067,-172.5711 973,-172.5711"/>
<text text-anchor="start" x="976" y="-180.2711" font-family="Helvetica,sans-Serif" font-size="11.00" fill="#000000">text[2147483647]</text>
<polygon fill="none" stroke="#000000" points="821,-150.5711 821,-172.5711 973,-172.5711 973,-150.5711 821,-150.5711"/>
<text text-anchor="start" x="841" y="-157.6711" font-family="Helvetica,sans-Serif" font-size="11.00" fill="#000000">version</text>
<polygon fill="none" stroke="#000000" points="973,-150.5711 973,-172.5711 1067,-172.5711 1067,-150.5711 973,-150.5711"/>
<text text-anchor="start" x="976" y="-158.2711" font-family="Helvetica,sans-Serif" font-size="11.00" fill="#000000">int4[10]</text>
<polygon fill="#ffffff" stroke="transparent" points="821,-128.5711 821,-150.5711 973,-150.5711 973,-128.5711 821,-128.5711"/>
<polygon fill="none" stroke="#000000" points="821,-128.5711 821,-150.5711 973,-150.5711 973,-128.5711 821,-128.5711"/>
<image xlink:href="../../images/foreignKeys.png" width="11px" height="12px" preserveAspectRatio="xMinYMin meet" x="826" y="-145.571"/>
<text text-anchor="start" x="841" y="-135.6711" font-family="Helvetica,sans-Serif" font-size="11.00" fill="#000000">legacy_id</text>
<polygon fill="none" stroke="#000000" points="973,-128.5711 973,-150.5711 1067,-150.5711 1067,-128.5711 973,-128.5711"/>
<text text-anchor="start" x="976" y="-136.2711" font-family="Helvetica,sans-Serif" font-size="11.00" fill="#000000">int8[19]</text>
<polygon fill="#ffffff" stroke="transparent" points="821,-109.5711 821,-128.5711 901,-128.5711 901,-109.5711 821,-109.5711"/>
<polygon fill="none" stroke="#000000" points="821,-109.5711 821,-128.5711 901,-128.5711 901,-109.5711 821,-109.5711"/>
<text text-anchor="start" x="824" y="-115.6711" font-family="Helvetica,sans-Serif" font-size="11.00" fill="#000000">&lt; 2</text>
<polygon fill="#ffffff" stroke="transparent" points="901,-109.5711 901,-128.5711 973,-128.5711 973,-109.5711 901,-109.5711"/>
<polygon fill="none" stroke="#000000" points="901,-109.5711 901,-128.5711 973,-128.5711 973,-109.5711 901,-109.5711"/>
<text text-anchor="start" x="963.8862" y="-115.6711" font-family="Helvetica,sans-Serif" font-size="11.00" fill="#000000"> &#160;</text>
<polygon fill="#ffffff" stroke="transparent" points="973,-109.5711 973,-128.5711 1067,-128.5711 1067,-109.5711 973,-109.5711"/>
<polygon fill="none" stroke="#000000" points="973,-109.5711 973,-128.5711 1067,-128.5711 1067,-109.5711 973,-109.5711"/>
<text text-anchor="start" x="1048.4053" y="-115.6711" font-family="Helvetica,sans-Serif" font-size="11.00" fill="#000000">0 &gt;</text>
<polygon fill="none" stroke="#000000" stroke-width="2" points="820,-108.5711 820,-328.5711 1068,-328.5711 1068,-108.5711 820,-108.5711"/>
</a>
</g>
</g>
<!-- interview&#45;&gt;reference_data -->
<g id="edge7" class="edge">
<title>interview:w&#45;&gt;reference_data:e</title>
<path fill="none" stroke="#000000" d="M806.9394,-201.3289C791.3385,-188.4176 804.6164,-149.5685 778,-134.5711 550.1629,-6.1928 390.0404,11.8764 190,-156.5711 132.9005,-204.6527 224.1472,-319.5711 149.5,-319.5711"/>
<polygon fill="#000000" stroke="#000000" points="813.341,-203.2603 819.9601,-209.0176 817.1705,-204.4157 821,-205.5711 821,-205.5711 821,-205.5711 817.1705,-204.4157 822.0399,-202.1245 813.341,-203.2603 813.341,-203.2603"/>
<ellipse fill="none" stroke="#000000" cx="810.2774" cy="-202.336" rx="3.2" ry="3.2"/>
</g>
<!-- investigation -->
<g id="node7" class="node">
<title>investigation</title>
<g id="a_node7"><a xlink:href="../../tables/investigation.html" xlink:title="investigation" target="_top">
<polygon fill="#ffffff" stroke="transparent" points="540,-309.0711 540,-392.0711 731,-392.0711 731,-309.0711 540,-309.0711"/>
<polygon fill="#f5f5f5" stroke="transparent" points="540.5,-368.5711 540.5,-391.5711 731.5,-391.5711 731.5,-368.5711 540.5,-368.5711"/>
<polygon fill="none" stroke="#000000" points="540.5,-368.5711 540.5,-391.5711 731.5,-391.5711 731.5,-368.5711 540.5,-368.5711"/>
<text text-anchor="start" x="545.5" y="-377.1711" font-family="Helvetica,sans-Serif" font-weight="bold" font-size="11.00" fill="#000000">investigation</text>
<text text-anchor="start" x="696.5437" y="-376.6711" font-family="Helvetica,sans-Serif" font-size="11.00" fill="#000000">[table]</text>
<polygon fill="none" stroke="#000000" points="540.5,-346.5711 540.5,-368.5711 731.5,-368.5711 731.5,-346.5711 540.5,-346.5711"/>
<image xlink:href="../../images/primaryKeys.png" width="11px" height="12px" preserveAspectRatio="xMinYMin meet" x="545.5" y="-363.571"/>
<text text-anchor="start" x="560.5" y="-353.6711" font-family="Helvetica,sans-Serif" font-size="11.00" fill="#000000">investigation_id</text>
<polygon fill="none" stroke="#000000" points="540.5,-327.5711 540.5,-346.5711 731.5,-346.5711 731.5,-327.5711 540.5,-327.5711"/>
<text text-anchor="start" x="543.5" y="-333.6711" font-family="Helvetica,sans-Serif" font-size="11.00" fill="#000000">...</text>
<polygon fill="#ffffff" stroke="transparent" points="540.5,-308.5711 540.5,-327.5711 629.5,-327.5711 629.5,-308.5711 540.5,-308.5711"/>
<polygon fill="none" stroke="#000000" points="540.5,-308.5711 540.5,-327.5711 629.5,-327.5711 629.5,-308.5711 540.5,-308.5711"/>
<text text-anchor="start" x="543.5" y="-314.6711" font-family="Helvetica,sans-Serif" font-size="11.00" fill="#000000">&lt; 1</text>
<polygon fill="#ffffff" stroke="transparent" points="629.5,-308.5711 629.5,-327.5711 675.5,-327.5711 675.5,-308.5711 629.5,-308.5711"/>
<polygon fill="none" stroke="#000000" points="629.5,-308.5711 629.5,-327.5711 675.5,-327.5711 675.5,-308.5711 629.5,-308.5711"/>
<text text-anchor="start" x="666.3862" y="-314.6711" font-family="Helvetica,sans-Serif" font-size="11.00" fill="#000000"> &#160;</text>
<polygon fill="#ffffff" stroke="transparent" points="675.5,-308.5711 675.5,-327.5711 731.5,-327.5711 731.5,-308.5711 675.5,-308.5711"/>
<polygon fill="none" stroke="#000000" points="675.5,-308.5711 675.5,-327.5711 731.5,-327.5711 731.5,-308.5711 675.5,-308.5711"/>
<text text-anchor="start" x="712.9053" y="-314.6711" font-family="Helvetica,sans-Serif" font-size="11.00" fill="#000000">1 &gt;</text>
</a>
</g>
</g>
<!-- interview&#45;&gt;investigation -->
<g id="edge8" class="edge">
<title>interview:w&#45;&gt;investigation:e</title>
<path fill="none" stroke="#000000" d="M806.3843,-274.0522C769.282,-288.1528 781.0626,-357.5711 731.5,-357.5711"/>
<polygon fill="#000000" stroke="#000000" points="813.1128,-272.91 821.6025,-275.1203 817.0564,-272.2405 821,-271.5711 821,-271.5711 821,-271.5711 817.0564,-272.2405 820.3975,-268.0219 813.1128,-272.91 813.1128,-272.91"/>
<ellipse fill="none" stroke="#000000" cx="809.958" cy="-273.4456" rx="3.2" ry="3.2"/>
</g>
<!-- investigation&#45;&gt;referral -->
<g id="edge9" class="edge">
<title>investigation:w&#45;&gt;referral:e</title>
<path fill="none" stroke="#000000" d="M529.7656,-357.5711C498.9648,-357.5711 487.4922,-357.5711 452,-357.5711"/>
<polygon fill="#000000" stroke="#000000" points="539.7,-353.5711 539.7,-361.5711 538.1,-361.5711 538.1,-353.5711 539.7,-353.5711"/>
<polyline fill="none" stroke="#000000" points="540.5,-357.5711 536.5,-357.5711 "/>
<ellipse fill="none" stroke="#000000" cx="533.3" cy="-357.5712" rx="3.2" ry="3.2"/>
</g>
<!-- safer_custody_screening_outcome -->
<g id="node8" class="node">
<title>safer_custody_screening_outcome</title>
<g id="a_node8"><a xlink:href="../../tables/safer_custody_screening_outcome.html" xlink:title="safer_custody_screening_outcome" target="_top">
<polygon fill="#ffffff" stroke="transparent" points="501,-145.0711 501,-206.0711 770,-206.0711 770,-145.0711 501,-145.0711"/>
<polygon fill="#f5f5f5" stroke="transparent" points="501.5,-182.5711 501.5,-205.5711 770.5,-205.5711 770.5,-182.5711 501.5,-182.5711"/>
<polygon fill="none" stroke="#000000" points="501.5,-182.5711 501.5,-205.5711 770.5,-205.5711 770.5,-182.5711 501.5,-182.5711"/>
<text text-anchor="start" x="506.5" y="-191.1711" font-family="Helvetica,sans-Serif" font-weight="bold" font-size="11.00" fill="#000000">safer_custody_screening_outcome</text>
<text text-anchor="start" x="736.0219" y="-190.6711" font-family="Helvetica,sans-Serif" font-size="11.00" fill="#000000">[table]</text>
<polygon fill="none" stroke="#000000" points="501.5,-163.5711 501.5,-182.5711 770.5,-182.5711 770.5,-163.5711 501.5,-163.5711"/>
<text text-anchor="start" x="504.5" y="-169.6711" font-family="Helvetica,sans-Serif" font-size="11.00" fill="#000000">...</text>
<polygon fill="#ffffff" stroke="transparent" points="501.5,-144.5711 501.5,-163.5711 634.5,-163.5711 634.5,-144.5711 501.5,-144.5711"/>
<polygon fill="none" stroke="#000000" points="501.5,-144.5711 501.5,-163.5711 634.5,-163.5711 634.5,-144.5711 501.5,-144.5711"/>
<text text-anchor="start" x="504.5" y="-150.6711" font-family="Helvetica,sans-Serif" font-size="11.00" fill="#000000">&lt; 2</text>
<polygon fill="#ffffff" stroke="transparent" points="634.5,-144.5711 634.5,-163.5711 702.5,-163.5711 702.5,-144.5711 634.5,-144.5711"/>
<polygon fill="none" stroke="#000000" points="634.5,-144.5711 634.5,-163.5711 702.5,-163.5711 702.5,-144.5711 634.5,-144.5711"/>
<text text-anchor="start" x="693.3862" y="-150.6711" font-family="Helvetica,sans-Serif" font-size="11.00" fill="#000000"> &#160;</text>
<polygon fill="#ffffff" stroke="transparent" points="702.5,-144.5711 702.5,-163.5711 770.5,-163.5711 770.5,-144.5711 702.5,-144.5711"/>
<polygon fill="none" stroke="#000000" points="702.5,-144.5711 702.5,-163.5711 770.5,-163.5711 770.5,-144.5711 702.5,-144.5711"/>
<text text-anchor="start" x="761.3862" y="-150.6711" font-family="Helvetica,sans-Serif" font-size="11.00" fill="#000000"> &#160;</text>
</a>
</g>
</g>
<!-- safer_custody_screening_outcome&#45;&gt;reference_data -->
<g id="edge15" class="edge">
<title>safer_custody_screening_outcome:w&#45;&gt;reference_data:e</title>
<path fill="none" stroke="#000000" d="M487.07,-172.3995C357.5728,-169.3336 295.6257,-127.1946 190,-210.5711 149.4347,-242.5917 201.1804,-319.5711 149.5,-319.5711"/>
<polygon fill="#000000" stroke="#000000" points="493.5006,-172.4759 501.4572,-176.1708 497.5003,-172.5235 501.5,-172.5711 501.5,-172.5711 501.5,-172.5711 497.5003,-172.5235 501.5428,-168.9713 493.5006,-172.4759 493.5006,-172.4759"/>
<ellipse fill="none" stroke="#000000" cx="490.3008" cy="-172.4379" rx="3.2" ry="3.2"/>
</g>
<!-- safer_custody_screening_outcome&#45;&gt;referral -->
<g id="edge16" class="edge">
<title>safer_custody_screening_outcome:w&#45;&gt;referral:e</title>
<path fill="none" stroke="#000000" d="M490.8452,-173.7525C427.2515,-189.5083 533.1248,-357.5711 452,-357.5711"/>
<polygon fill="#000000" stroke="#000000" points="500.264,-168.6836 501.1457,-176.6349 499.5555,-176.8112 498.6738,-168.86 500.264,-168.6836"/>
<polyline fill="none" stroke="#000000" points="501.5,-172.5711 497.5244,-173.0119 "/>
<ellipse fill="none" stroke="#000000" cx="494.3439" cy="-173.3646" rx="3.2" ry="3.2"/>
</g>
</g>
</svg>
