<?xml version="1.0" encoding="UTF-8" standalone="no"?>
<!DOCTYPE svg PUBLIC "-//W3C//DTD SVG 1.1//EN"
 "http://www.w3.org/Graphics/SVG/1.1/DTD/svg11.dtd">
<!-- Generated by graphviz version 2.40.1 (20161225.0304)
 -->
<!-- Title: oneDegreeRelationshipsDiagramImplied Pages: 1 -->
<svg width="524pt" height="407pt"
 viewBox="0.00 0.00 524.00 407.20" xmlns="http://www.w3.org/2000/svg" xmlns:xlink="http://www.w3.org/1999/xlink">
<g id="graph0" class="graph" transform="scale(1 1) rotate(0) translate(4 403.2)">
<title>oneDegreeRelationshipsDiagramImplied</title>
<polygon fill="#ffffff" stroke="transparent" points="-4,4 -4,-403.2 520,-403.2 520,4 -4,4"/>
<text text-anchor="middle" x="72.4936" y="-7.3" font-family="Helvetica,sans-Serif" font-size="11.00" fill="#000000">Generated by SchemaSpy</text>
<!-- interview -->
<g id="node1" class="node">
<title>interview</title>
<g id="a_node1"><a xlink:href="../../tables/interview.html" xlink:title="interview" target="_top">
<polygon fill="#ffffff" stroke="transparent" points="258,-158.7 258,-380.7 508,-380.7 508,-158.7 258,-158.7"/>
<polygon fill="#f5f5f5" stroke="transparent" points="260,-355.7 260,-378.7 506,-378.7 506,-355.7 260,-355.7"/>
<polygon fill="none" stroke="#000000" points="260,-355.7 260,-378.7 506,-378.7 506,-355.7 260,-355.7"/>
<text text-anchor="start" x="265" y="-364.3" font-family="Helvetica,sans-Serif" font-weight="bold" font-size="11.00" fill="#000000">interview</text>
<text text-anchor="start" x="471.0437" y="-363.8" font-family="Helvetica,sans-Serif" font-size="11.00" fill="#000000">[table]</text>
<polygon fill="none" stroke="#000000" points="260,-333.7 260,-355.7 412,-355.7 412,-333.7 260,-333.7"/>
<image xlink:href="../../images/primaryKeys.png" width="11px" height="12px" preserveAspectRatio="xMinYMin meet" x="265" y="-350.7"/>
<text text-anchor="start" x="280" y="-340.8" font-family="Helvetica,sans-Serif" font-size="11.00" fill="#000000">interview_id</text>
<polygon fill="none" stroke="#000000" points="412,-333.7 412,-355.7 506,-355.7 506,-333.7 412,-333.7"/>
<text text-anchor="start" x="414.9758" y="-341.4" font-family="Helvetica,sans-Serif" font-size="11.00" fill="#000000">uuid[2147483647]</text>
<polygon fill="#ffffff" stroke="transparent" points="260,-311.7 260,-333.7 412,-333.7 412,-311.7 260,-311.7"/>
<polygon fill="none" stroke="#000000" points="260,-311.7 260,-333.7 412,-333.7 412,-311.7 260,-311.7"/>
<image xlink:href="../../images/foreignKeys.png" width="11px" height="12px" preserveAspectRatio="xMinYMin meet" x="265" y="-328.7"/>
<text text-anchor="start" x="280" y="-318.8" font-family="Helvetica,sans-Serif" font-size="11.00" fill="#000000">investigation_id</text>
<polygon fill="none" stroke="#000000" points="412,-311.7 412,-333.7 506,-333.7 506,-311.7 412,-311.7"/>
<text text-anchor="start" x="414.9758" y="-319.4" font-family="Helvetica,sans-Serif" font-size="11.00" fill="#000000">uuid[2147483647]</text>
<polygon fill="none" stroke="#000000" points="260,-289.7 260,-311.7 412,-311.7 412,-289.7 260,-289.7"/>
<text text-anchor="start" x="280" y="-296.8" font-family="Helvetica,sans-Serif" font-size="11.00" fill="#000000">interviewee</text>
<polygon fill="none" stroke="#000000" points="412,-289.7 412,-311.7 506,-311.7 506,-289.7 412,-289.7"/>
<text text-anchor="start" x="415" y="-297.4" font-family="Helvetica,sans-Serif" font-size="11.00" fill="#000000">varchar[100]</text>
<polygon fill="none" stroke="#000000" points="260,-267.7 260,-289.7 412,-289.7 412,-267.7 260,-267.7"/>
<text text-anchor="start" x="280" y="-274.8" font-family="Helvetica,sans-Serif" font-size="11.00" fill="#000000">interview_date</text>
<polygon fill="none" stroke="#000000" points="412,-267.7 412,-289.7 506,-289.7 506,-267.7 412,-267.7"/>
<text text-anchor="start" x="415" y="-275.4" font-family="Helvetica,sans-Serif" font-size="11.00" fill="#000000">date[13]</text>
<polygon fill="#ffffff" stroke="transparent" points="260,-245.7 260,-267.7 412,-267.7 412,-245.7 260,-245.7"/>
<polygon fill="none" stroke="#000000" points="260,-245.7 260,-267.7 412,-267.7 412,-245.7 260,-245.7"/>
<image xlink:href="../../images/foreignKeys.png" width="11px" height="12px" preserveAspectRatio="xMinYMin meet" x="265" y="-262.7"/>
<text text-anchor="start" x="280" y="-252.8" font-family="Helvetica,sans-Serif" font-size="11.00" fill="#000000">interviewee_role_id</text>
<polygon fill="none" stroke="#000000" points="412,-245.7 412,-267.7 506,-267.7 506,-245.7 412,-245.7"/>
<text text-anchor="start" x="415" y="-253.4" font-family="Helvetica,sans-Serif" font-size="11.00" fill="#000000">int4[10]</text>
<polygon fill="none" stroke="#000000" points="260,-223.7 260,-245.7 412,-245.7 412,-223.7 260,-223.7"/>
<text text-anchor="start" x="280" y="-230.8" font-family="Helvetica,sans-Serif" font-size="11.00" fill="#000000">interview_text</text>
<polygon fill="none" stroke="#000000" points="412,-223.7 412,-245.7 506,-245.7 506,-223.7 412,-223.7"/>
<text text-anchor="start" x="415" y="-231.4" font-family="Helvetica,sans-Serif" font-size="11.00" fill="#000000">text[2147483647]</text>
<polygon fill="none" stroke="#000000" points="260,-201.7 260,-223.7 412,-223.7 412,-201.7 260,-201.7"/>
<text text-anchor="start" x="280" y="-208.8" font-family="Helvetica,sans-Serif" font-size="11.00" fill="#000000">version</text>
<polygon fill="none" stroke="#000000" points="412,-201.7 412,-223.7 506,-223.7 506,-201.7 412,-201.7"/>
<text text-anchor="start" x="415" y="-209.4" font-family="Helvetica,sans-Serif" font-size="11.00" fill="#000000">int4[10]</text>
<polygon fill="#ffffff" stroke="transparent" points="260,-179.7 260,-201.7 412,-201.7 412,-179.7 260,-179.7"/>
<polygon fill="none" stroke="#000000" points="260,-179.7 260,-201.7 412,-201.7 412,-179.7 260,-179.7"/>
<image xlink:href="../../images/foreignKeys.png" width="11px" height="12px" preserveAspectRatio="xMinYMin meet" x="265" y="-196.7"/>
<text text-anchor="start" x="280" y="-186.8" font-family="Helvetica,sans-Serif" font-size="11.00" fill="#000000">legacy_id</text>
<polygon fill="none" stroke="#000000" points="412,-179.7 412,-201.7 506,-201.7 506,-179.7 412,-179.7"/>
<text text-anchor="start" x="415" y="-187.4" font-family="Helvetica,sans-Serif" font-size="11.00" fill="#000000">int8[19]</text>
<polygon fill="#ffffff" stroke="transparent" points="260,-160.7 260,-179.7 340,-179.7 340,-160.7 260,-160.7"/>
<polygon fill="none" stroke="#000000" points="260,-160.7 260,-179.7 340,-179.7 340,-160.7 260,-160.7"/>
<text text-anchor="start" x="263" y="-166.8" font-family="Helvetica,sans-Serif" font-size="11.00" fill="#000000">&lt; 3</text>
<polygon fill="#ffffff" stroke="transparent" points="340,-160.7 340,-179.7 412,-179.7 412,-160.7 340,-160.7"/>
<polygon fill="none" stroke="#000000" points="340,-160.7 340,-179.7 412,-179.7 412,-160.7 340,-160.7"/>
<text text-anchor="start" x="402.8862" y="-166.8" font-family="Helvetica,sans-Serif" font-size="11.00" fill="#000000"> &#160;</text>
<polygon fill="#ffffff" stroke="transparent" points="412,-160.7 412,-179.7 506,-179.7 506,-160.7 412,-160.7"/>
<polygon fill="none" stroke="#000000" points="412,-160.7 412,-179.7 506,-179.7 506,-160.7 412,-160.7"/>
<text text-anchor="start" x="487.4053" y="-166.8" font-family="Helvetica,sans-Serif" font-size="11.00" fill="#000000">0 &gt;</text>
<polygon fill="none" stroke="#000000" stroke-width="2" points="259,-159.7 259,-379.7 507,-379.7 507,-159.7 259,-159.7"/>
</a>
</g>
</g>
<!-- reference_data -->
<g id="node2" class="node">
<title>reference_data</title>
<g id="a_node2"><a xlink:href="../../tables/reference_data.html" xlink:title="reference_data" target="_top">
<polygon fill="#ffffff" stroke="transparent" points="38,-142.2 38,-291.2 179,-291.2 179,-142.2 38,-142.2"/>
<polygon fill="#f5f5f5" stroke="transparent" points="38.5,-267.7 38.5,-290.7 179.5,-290.7 179.5,-267.7 38.5,-267.7"/>
<polygon fill="none" stroke="#000000" points="38.5,-267.7 38.5,-290.7 179.5,-290.7 179.5,-267.7 38.5,-267.7"/>
<text text-anchor="start" x="43.5" y="-276.3" font-family="Helvetica,sans-Serif" font-weight="bold" font-size="11.00" fill="#000000">reference_data</text>
<text text-anchor="start" x="145.0219" y="-275.8" font-family="Helvetica,sans-Serif" font-size="11.00" fill="#000000">[table]</text>
<polygon fill="none" stroke="#000000" points="38.5,-245.7 38.5,-267.7 179.5,-267.7 179.5,-245.7 38.5,-245.7"/>
<image xlink:href="../../images/primaryKeys.png" width="11px" height="12px" preserveAspectRatio="xMinYMin meet" x="43.5" y="-262.7"/>
<text text-anchor="start" x="58.5" y="-252.8" font-family="Helvetica,sans-Serif" font-size="11.00" fill="#000000">reference_data_id</text>
<polygon fill="#ffffff" stroke="transparent" points="38.5,-223.7 38.5,-245.7 179.5,-245.7 179.5,-223.7 38.5,-223.7"/>
<polygon fill="none" stroke="#000000" points="38.5,-223.7 38.5,-245.7 179.5,-245.7 179.5,-223.7 38.5,-223.7"/>
<text text-anchor="start" x="58.5" y="-230.8" font-family="Helvetica,sans-Serif" font-size="11.00" fill="#000000">domain</text>
<polygon fill="#ffffff" stroke="transparent" points="38.5,-201.7 38.5,-223.7 179.5,-223.7 179.5,-201.7 38.5,-201.7"/>
<polygon fill="none" stroke="#000000" points="38.5,-201.7 38.5,-223.7 179.5,-223.7 179.5,-201.7 38.5,-201.7"/>
<text text-anchor="start" x="58.5" y="-208.8" font-family="Helvetica,sans-Serif" font-size="11.00" fill="#000000">code</text>
<polygon fill="#ffffff" stroke="transparent" points="38.5,-179.7 38.5,-201.7 179.5,-201.7 179.5,-179.7 38.5,-179.7"/>
<polygon fill="none" stroke="#000000" points="38.5,-179.7 38.5,-201.7 179.5,-201.7 179.5,-179.7 38.5,-179.7"/>
<text text-anchor="start" x="58.5" y="-186.8" font-family="Helvetica,sans-Serif" font-size="11.00" fill="#000000">list_sequence</text>
<polygon fill="none" stroke="#000000" points="38.5,-160.7 38.5,-179.7 179.5,-179.7 179.5,-160.7 38.5,-160.7"/>
<text text-anchor="start" x="41.5" y="-166.8" font-family="Helvetica,sans-Serif" font-size="11.00" fill="#000000">...</text>
<polygon fill="#ffffff" stroke="transparent" points="38.5,-141.7 38.5,-160.7 76.5,-160.7 76.5,-141.7 38.5,-141.7"/>
<polygon fill="none" stroke="#000000" points="38.5,-141.7 38.5,-160.7 76.5,-160.7 76.5,-141.7 38.5,-141.7"/>
<text text-anchor="start" x="41.5" y="-147.8" font-family="Helvetica,sans-Serif" font-size="11.00" fill="#000000"> &#160;</text>
<polygon fill="#ffffff" stroke="transparent" points="76.5,-141.7 76.5,-160.7 139.5,-160.7 139.5,-141.7 76.5,-141.7"/>
<polygon fill="none" stroke="#000000" points="76.5,-141.7 76.5,-160.7 139.5,-160.7 139.5,-141.7 76.5,-141.7"/>
<text text-anchor="start" x="91.8807" y="-147.8" font-family="Helvetica,sans-Serif" font-size="11.00" fill="#000000">122 rows</text>
<polygon fill="#ffffff" stroke="transparent" points="139.5,-141.7 139.5,-160.7 179.5,-160.7 179.5,-141.7 139.5,-141.7"/>
<polygon fill="none" stroke="#000000" points="139.5,-141.7 139.5,-160.7 179.5,-160.7 179.5,-141.7 139.5,-141.7"/>
<text text-anchor="start" x="154.7904" y="-147.8" font-family="Helvetica,sans-Serif" font-size="11.00" fill="#000000">10 &gt;</text>
</a>
</g>
</g>
<!-- interview&#45;&gt;reference_data -->
<g id="edge1" class="edge">
<title>interview:w&#45;&gt;reference_data:e</title>
<path fill="none" stroke="#000000" d="M245.327,-256.7C220.8742,-256.7 209.8273,-256.7 179.5,-256.7"/>
<polygon fill="#000000" stroke="#000000" points="252,-256.7001 260,-260.3 256,-256.7 260,-256.7 260,-256.7 260,-256.7 256,-256.7 260,-253.1 252,-256.7001 252,-256.7001"/>
<ellipse fill="none" stroke="#000000" cx="248.8" cy="-256.7001" rx="3.2" ry="3.2"/>
</g>
<!-- investigation -->
<g id="node3" class="node">
<title>investigation</title>
<g id="a_node3"><a xlink:href="../../tables/investigation.html" xlink:title="investigation" target="_top">
<polygon fill="#ffffff" stroke="transparent" points="8,-312.2 8,-395.2 209,-395.2 209,-312.2 8,-312.2"/>
<polygon fill="#f5f5f5" stroke="transparent" points="8.5,-371.7 8.5,-394.7 209.5,-394.7 209.5,-371.7 8.5,-371.7"/>
<polygon fill="none" stroke="#000000" points="8.5,-371.7 8.5,-394.7 209.5,-394.7 209.5,-371.7 8.5,-371.7"/>
<text text-anchor="start" x="13.5" y="-380.3" font-family="Helvetica,sans-Serif" font-weight="bold" font-size="11.00" fill="#000000">investigation</text>
<text text-anchor="start" x="174.5437" y="-379.8" font-family="Helvetica,sans-Serif" font-size="11.00" fill="#000000">[table]</text>
<polygon fill="none" stroke="#000000" points="8.5,-349.7 8.5,-371.7 209.5,-371.7 209.5,-349.7 8.5,-349.7"/>
<image xlink:href="../../images/primaryKeys.png" width="11px" height="12px" preserveAspectRatio="xMinYMin meet" x="13.5" y="-366.7"/>
<text text-anchor="start" x="28.5" y="-356.8" font-family="Helvetica,sans-Serif" font-size="11.00" fill="#000000">investigation_id</text>
<polygon fill="none" stroke="#000000" points="8.5,-330.7 8.5,-349.7 209.5,-349.7 209.5,-330.7 8.5,-330.7"/>
<text text-anchor="start" x="11.5" y="-336.8" font-family="Helvetica,sans-Serif" font-size="11.00" fill="#000000">...</text>
<polygon fill="#ffffff" stroke="transparent" points="8.5,-311.7 8.5,-330.7 102.5,-330.7 102.5,-311.7 8.5,-311.7"/>
<polygon fill="none" stroke="#000000" points="8.5,-311.7 8.5,-330.7 102.5,-330.7 102.5,-311.7 8.5,-311.7"/>
<text text-anchor="start" x="11.5" y="-317.8" font-family="Helvetica,sans-Serif" font-size="11.00" fill="#000000">&lt; 1</text>
<polygon fill="#ffffff" stroke="transparent" points="102.5,-311.7 102.5,-330.7 151.5,-330.7 151.5,-311.7 102.5,-311.7"/>
<polygon fill="none" stroke="#000000" points="102.5,-311.7 102.5,-330.7 151.5,-330.7 151.5,-311.7 102.5,-311.7"/>
<text text-anchor="start" x="142.3862" y="-317.8" font-family="Helvetica,sans-Serif" font-size="11.00" fill="#000000"> &#160;</text>
<polygon fill="#ffffff" stroke="transparent" points="151.5,-311.7 151.5,-330.7 209.5,-330.7 209.5,-311.7 151.5,-311.7"/>
<polygon fill="none" stroke="#000000" points="151.5,-311.7 151.5,-330.7 209.5,-330.7 209.5,-311.7 151.5,-311.7"/>
<text text-anchor="start" x="190.9053" y="-317.8" font-family="Helvetica,sans-Serif" font-size="11.00" fill="#000000">1 &gt;</text>
</a>
</g>
</g>
<!-- interview&#45;&gt;investigation -->
<g id="edge2" class="edge">
<title>interview:w&#45;&gt;investigation:e</title>
<path fill="none" stroke="#000000" d="M246.0985,-327.0591C232.804,-337.0405 231.6639,-360.7 209.5,-360.7"/>
<polygon fill="#000000" stroke="#000000" points="252.3665,-325.0937 261.0771,-326.1351 256.1832,-323.8968 260,-322.7 260,-322.7 260,-322.7 256.1832,-323.8968 258.9229,-319.2649 252.3665,-325.0937 252.3665,-325.0937"/>
<ellipse fill="none" stroke="#000000" cx="249.3131" cy="-326.0511" rx="3.2" ry="3.2"/>
</g>
<!-- audit_revision -->
<g id="node4" class="node">
<title>audit_revision</title>
<g id="a_node4"><a xlink:href="../../tables/audit_revision.html" xlink:title="audit_revision" target="_top">
<polygon fill="#ffffff" stroke="transparent" points="25.5,-38.2 25.5,-121.2 191.5,-121.2 191.5,-38.2 25.5,-38.2"/>
<polygon fill="#f5f5f5" stroke="transparent" points="25.5,-97.7 25.5,-120.7 191.5,-120.7 191.5,-97.7 25.5,-97.7"/>
<polygon fill="none" stroke="#000000" points="25.5,-97.7 25.5,-120.7 191.5,-120.7 191.5,-97.7 25.5,-97.7"/>
<text text-anchor="start" x="30.5" y="-106.3" font-family="Helvetica,sans-Serif" font-weight="bold" font-size="11.00" fill="#000000">audit_revision</text>
<text text-anchor="start" x="156.5437" y="-105.8" font-family="Helvetica,sans-Serif" font-size="11.00" fill="#000000">[table]</text>
<polygon fill="none" stroke="#000000" points="25.5,-75.7 25.5,-97.7 191.5,-97.7 191.5,-75.7 25.5,-75.7"/>
<image xlink:href="../../images/primaryKeys.png" width="11px" height="12px" preserveAspectRatio="xMinYMin meet" x="30.5" y="-92.7"/>
<text text-anchor="start" x="45.5" y="-82.8" font-family="Helvetica,sans-Serif" font-size="11.00" fill="#000000">id</text>
<polygon fill="none" stroke="#000000" points="25.5,-56.7 25.5,-75.7 191.5,-75.7 191.5,-56.7 25.5,-56.7"/>
<text text-anchor="start" x="28.5" y="-62.8" font-family="Helvetica,sans-Serif" font-size="11.00" fill="#000000">...</text>
<polygon fill="#ffffff" stroke="transparent" points="25.5,-37.7 25.5,-56.7 94.5,-56.7 94.5,-37.7 25.5,-37.7"/>
<polygon fill="none" stroke="#000000" points="25.5,-37.7 25.5,-56.7 94.5,-56.7 94.5,-37.7 25.5,-37.7"/>
<text text-anchor="start" x="28.5" y="-43.8" font-family="Helvetica,sans-Serif" font-size="11.00" fill="#000000"> &#160;</text>
<polygon fill="#ffffff" stroke="transparent" points="94.5,-37.7 94.5,-56.7 135.5,-56.7 135.5,-37.7 94.5,-37.7"/>
<polygon fill="none" stroke="#000000" points="94.5,-37.7 94.5,-56.7 135.5,-56.7 135.5,-37.7 94.5,-37.7"/>
<text text-anchor="start" x="126.3862" y="-43.8" font-family="Helvetica,sans-Serif" font-size="11.00" fill="#000000"> &#160;</text>
<polygon fill="#ffffff" stroke="transparent" points="135.5,-37.7 135.5,-56.7 191.5,-56.7 191.5,-37.7 135.5,-37.7"/>
<polygon fill="none" stroke="#000000" points="135.5,-37.7 135.5,-56.7 191.5,-56.7 191.5,-37.7 135.5,-37.7"/>
<text text-anchor="start" x="166.7904" y="-43.8" font-family="Helvetica,sans-Serif" font-size="11.00" fill="#000000">32 &gt;</text>
</a>
</g>
</g>
<!-- interview&#45;&gt;audit_revision -->
<g id="edge3" class="edge">
<title>interview:w&#45;&gt;audit_revision:e</title>
<path fill="none" stroke="#000000" stroke-dasharray="5,2" d="M249.704,-189.2298C210.1039,-176.5892 242.956,-86.7 191.5,-86.7"/>
<polygon fill="#000000" stroke="#000000" points="259.7735,-186.6271 258.6426,-194.5467 257.0586,-194.3206 258.1896,-186.4009 259.7735,-186.6271"/>
<polyline fill="none" stroke="#000000" points="260,-190.7 256.0402,-190.1345 "/>
<ellipse fill="none" stroke="#000000" cx="252.8723" cy="-189.6822" rx="3.2" ry="3.2"/>
</g>
</g>
</svg>
