<?xml version="1.0" encoding="UTF-8" standalone="no"?>
<!DOCTYPE svg PUBLIC "-//W3C//DTD SVG 1.1//EN"
 "http://www.w3.org/Graphics/SVG/1.1/DTD/svg11.dtd">
<!-- Generated by graphviz version 2.40.1 (20161225.0304)
 -->
<!-- Title: twoDegreesRelationshipsDiagramImplied Pages: 1 -->
<svg width="1356pt" height="1444pt"
 viewBox="0.00 0.00 1356.00 1444.44" xmlns="http://www.w3.org/2000/svg" xmlns:xlink="http://www.w3.org/1999/xlink">
<g id="graph0" class="graph" transform="scale(1 1) rotate(0) translate(4 1440.4376)">
<title>twoDegreesRelationshipsDiagramImplied</title>
<polygon fill="#ffffff" stroke="transparent" points="-4,4 -4,-1440.4376 1352,-1440.4376 1352,4 -4,4"/>
<text text-anchor="middle" x="72.4936" y="-7.3" font-family="Helvetica,sans-Serif" font-size="11.00" fill="#000000">Generated by SchemaSpy</text>
<!-- attendee -->
<g id="node1" class="node">
<title>attendee</title>
<g id="a_node1"><a xlink:href="../../tables/attendee.html" xlink:title="attendee" target="_top">
<polygon fill="#ffffff" stroke="transparent" points="602.5,-926.4376 602.5,-987.4376 702.5,-987.4376 702.5,-926.4376 602.5,-926.4376"/>
<polygon fill="#f5f5f5" stroke="transparent" points="602.5,-963.9376 602.5,-986.9376 702.5,-986.9376 702.5,-963.9376 602.5,-963.9376"/>
<polygon fill="none" stroke="#000000" points="602.5,-963.9376 602.5,-986.9376 702.5,-986.9376 702.5,-963.9376 602.5,-963.9376"/>
<text text-anchor="start" x="607.5" y="-972.5376" font-family="Helvetica,sans-Serif" font-weight="bold" font-size="11.00" fill="#000000">attendee</text>
<text text-anchor="start" x="668.0219" y="-972.0376" font-family="Helvetica,sans-Serif" font-size="11.00" fill="#000000">[table]</text>
<polygon fill="none" stroke="#000000" points="602.5,-944.9376 602.5,-963.9376 702.5,-963.9376 702.5,-944.9376 602.5,-944.9376"/>
<text text-anchor="start" x="605.5" y="-951.0376" font-family="Helvetica,sans-Serif" font-size="11.00" fill="#000000">...</text>
<polygon fill="#ffffff" stroke="transparent" points="602.5,-925.9376 602.5,-944.9376 650.5,-944.9376 650.5,-925.9376 602.5,-925.9376"/>
<polygon fill="none" stroke="#000000" points="602.5,-925.9376 602.5,-944.9376 650.5,-944.9376 650.5,-925.9376 602.5,-925.9376"/>
<text text-anchor="start" x="605.5" y="-932.0376" font-family="Helvetica,sans-Serif" font-size="11.00" fill="#000000">&lt; 2</text>
<polygon fill="#ffffff" stroke="transparent" points="650.5,-925.9376 650.5,-944.9376 676.5,-944.9376 676.5,-925.9376 650.5,-925.9376"/>
<polygon fill="none" stroke="#000000" points="650.5,-925.9376 650.5,-944.9376 676.5,-944.9376 676.5,-925.9376 650.5,-925.9376"/>
<text text-anchor="start" x="667.3862" y="-932.0376" font-family="Helvetica,sans-Serif" font-size="11.00" fill="#000000"> &#160;</text>
<polygon fill="#ffffff" stroke="transparent" points="676.5,-925.9376 676.5,-944.9376 702.5,-944.9376 702.5,-925.9376 676.5,-925.9376"/>
<polygon fill="none" stroke="#000000" points="676.5,-925.9376 676.5,-944.9376 702.5,-944.9376 702.5,-925.9376 676.5,-925.9376"/>
<text text-anchor="start" x="693.3862" y="-932.0376" font-family="Helvetica,sans-Serif" font-size="11.00" fill="#000000"> &#160;</text>
</a>
</g>
</g>
<!-- audit_revision -->
<g id="node2" class="node">
<title>audit_revision</title>
<g id="a_node2"><a xlink:href="../../tables/audit_revision.html" xlink:title="audit_revision" target="_top">
<polygon fill="#ffffff" stroke="transparent" points="8,-969.4376 8,-1052.4376 174,-1052.4376 174,-969.4376 8,-969.4376"/>
<polygon fill="#f5f5f5" stroke="transparent" points="8,-1028.9376 8,-1051.9376 174,-1051.9376 174,-1028.9376 8,-1028.9376"/>
<polygon fill="none" stroke="#000000" points="8,-1028.9376 8,-1051.9376 174,-1051.9376 174,-1028.9376 8,-1028.9376"/>
<text text-anchor="start" x="13" y="-1037.5376" font-family="Helvetica,sans-Serif" font-weight="bold" font-size="11.00" fill="#000000">audit_revision</text>
<text text-anchor="start" x="139.0437" y="-1037.0376" font-family="Helvetica,sans-Serif" font-size="11.00" fill="#000000">[table]</text>
<polygon fill="none" stroke="#000000" points="8,-1006.9376 8,-1028.9376 174,-1028.9376 174,-1006.9376 8,-1006.9376"/>
<image xlink:href="../../images/primaryKeys.png" width="11px" height="12px" preserveAspectRatio="xMinYMin meet" x="13" y="-1023.94"/>
<text text-anchor="start" x="28" y="-1014.0376" font-family="Helvetica,sans-Serif" font-size="11.00" fill="#000000">id</text>
<polygon fill="none" stroke="#000000" points="8,-987.9376 8,-1006.9376 174,-1006.9376 174,-987.9376 8,-987.9376"/>
<text text-anchor="start" x="11" y="-994.0376" font-family="Helvetica,sans-Serif" font-size="11.00" fill="#000000">...</text>
<polygon fill="#ffffff" stroke="transparent" points="8,-968.9376 8,-987.9376 77,-987.9376 77,-968.9376 8,-968.9376"/>
<polygon fill="none" stroke="#000000" points="8,-968.9376 8,-987.9376 77,-987.9376 77,-968.9376 8,-968.9376"/>
<text text-anchor="start" x="11" y="-975.0376" font-family="Helvetica,sans-Serif" font-size="11.00" fill="#000000"> &#160;</text>
<polygon fill="#ffffff" stroke="transparent" points="77,-968.9376 77,-987.9376 118,-987.9376 118,-968.9376 77,-968.9376"/>
<polygon fill="none" stroke="#000000" points="77,-968.9376 77,-987.9376 118,-987.9376 118,-968.9376 77,-968.9376"/>
<text text-anchor="start" x="108.8862" y="-975.0376" font-family="Helvetica,sans-Serif" font-size="11.00" fill="#000000"> &#160;</text>
<polygon fill="#ffffff" stroke="transparent" points="118,-968.9376 118,-987.9376 174,-987.9376 174,-968.9376 118,-968.9376"/>
<polygon fill="none" stroke="#000000" points="118,-968.9376 118,-987.9376 174,-987.9376 174,-968.9376 118,-968.9376"/>
<text text-anchor="start" x="149.2904" y="-975.0376" font-family="Helvetica,sans-Serif" font-size="11.00" fill="#000000">32 &gt;</text>
</a>
</g>
</g>
<!-- attendee&#45;&gt;audit_revision -->
<g id="edge1" class="edge">
<title>attendee:w&#45;&gt;audit_revision:e</title>
<path fill="none" stroke="#000000" stroke-dasharray="5,2" d="M591.9936,-954.9851C571.0497,-959.5263 566.6379,-977.6129 541,-984.9376 521.3164,-990.5612 194.4711,-1017.9376 174,-1017.9376"/>
<polygon fill="#000000" stroke="#000000" points="601.3071,-950.0367 602.1008,-957.9973 600.5087,-958.156 599.715,-950.1955 601.3071,-950.0367"/>
<polyline fill="none" stroke="#000000" points="602.5,-953.9376 598.5197,-954.3345 "/>
<ellipse fill="none" stroke="#000000" cx="595.3355" cy="-954.6519" rx="3.2" ry="3.2"/>
</g>
<!-- review -->
<g id="node3" class="node">
<title>review</title>
<g id="a_node3"><a xlink:href="../../tables/review.html" xlink:title="review" target="_top">
<polygon fill="#ffffff" stroke="transparent" points="336,-913.4376 336,-974.4376 420,-974.4376 420,-913.4376 336,-913.4376"/>
<polygon fill="#f5f5f5" stroke="transparent" points="336,-950.9376 336,-973.9376 420,-973.9376 420,-950.9376 336,-950.9376"/>
<polygon fill="none" stroke="#000000" points="336,-950.9376 336,-973.9376 420,-973.9376 420,-950.9376 336,-950.9376"/>
<text text-anchor="start" x="341" y="-959.5376" font-family="Helvetica,sans-Serif" font-weight="bold" font-size="11.00" fill="#000000">review</text>
<text text-anchor="start" x="385.5219" y="-959.0376" font-family="Helvetica,sans-Serif" font-size="11.00" fill="#000000">[table]</text>
<polygon fill="none" stroke="#000000" points="336,-931.9376 336,-950.9376 420,-950.9376 420,-931.9376 336,-931.9376"/>
<text text-anchor="start" x="339" y="-938.0376" font-family="Helvetica,sans-Serif" font-size="11.00" fill="#000000">...</text>
<polygon fill="#ffffff" stroke="transparent" points="336,-912.9376 336,-931.9376 372,-931.9376 372,-912.9376 336,-912.9376"/>
<polygon fill="none" stroke="#000000" points="336,-912.9376 336,-931.9376 372,-931.9376 372,-912.9376 336,-912.9376"/>
<text text-anchor="start" x="339" y="-919.0376" font-family="Helvetica,sans-Serif" font-size="11.00" fill="#000000">&lt; 2</text>
<polygon fill="#ffffff" stroke="transparent" points="372,-912.9376 372,-931.9376 391,-931.9376 391,-912.9376 372,-912.9376"/>
<polygon fill="none" stroke="#000000" points="372,-912.9376 372,-931.9376 391,-931.9376 391,-912.9376 372,-912.9376"/>
<text text-anchor="start" x="381.8862" y="-919.0376" font-family="Helvetica,sans-Serif" font-size="11.00" fill="#000000"> &#160;</text>
<polygon fill="#ffffff" stroke="transparent" points="391,-912.9376 391,-931.9376 420,-931.9376 420,-912.9376 391,-912.9376"/>
<polygon fill="none" stroke="#000000" points="391,-912.9376 391,-931.9376 420,-931.9376 420,-912.9376 391,-912.9376"/>
<text text-anchor="start" x="401.4053" y="-919.0376" font-family="Helvetica,sans-Serif" font-size="11.00" fill="#000000">2 &gt;</text>
</a>
</g>
</g>
<!-- attendee&#45;&gt;review -->
<g id="edge2" class="edge">
<title>attendee:w&#45;&gt;review:e</title>
<path fill="none" stroke="#000000" d="M587.9432,-953.7916C518.46,-952.3634 496.2343,-940.9376 420,-940.9376"/>
<polygon fill="#000000" stroke="#000000" points="594.5004,-953.8573 602.4639,-957.5375 598.5002,-953.8975 602.5,-953.9376 602.5,-953.9376 602.5,-953.9376 598.5002,-953.8975 602.5361,-950.3378 594.5004,-953.8573 594.5004,-953.8573"/>
<ellipse fill="none" stroke="#000000" cx="591.3006" cy="-953.8252" rx="3.2" ry="3.2"/>
</g>
<!-- review&#45;&gt;audit_revision -->
<g id="edge46" class="edge">
<title>review:w&#45;&gt;audit_revision:e</title>
<path fill="none" stroke="#000000" stroke-dasharray="5,2" d="M325.3587,-941.1887C276.4021,-943.6013 262.5868,-963.1483 215,-988.9376 195.3767,-999.5724 196.3198,-1017.9376 174,-1017.9376"/>
<polygon fill="#000000" stroke="#000000" points="335.1058,-936.9576 335.2946,-944.9554 333.6951,-944.9932 333.5063,-936.9954 335.1058,-936.9576"/>
<polyline fill="none" stroke="#000000" points="336,-940.9376 332.0011,-941.032 "/>
<ellipse fill="none" stroke="#000000" cx="328.802" cy="-941.1075" rx="3.2" ry="3.2"/>
</g>
<!-- attendee_audit -->
<g id="node4" class="node">
<title>attendee_audit</title>
<g id="a_node4"><a xlink:href="../../tables/attendee_audit.html" xlink:title="attendee_audit" target="_top">
<polygon fill="#ffffff" stroke="transparent" points="582,-792.4376 582,-853.4376 723,-853.4376 723,-792.4376 582,-792.4376"/>
<polygon fill="#f5f5f5" stroke="transparent" points="582.5,-829.9376 582.5,-852.9376 723.5,-852.9376 723.5,-829.9376 582.5,-829.9376"/>
<polygon fill="none" stroke="#000000" points="582.5,-829.9376 582.5,-852.9376 723.5,-852.9376 723.5,-829.9376 582.5,-829.9376"/>
<text text-anchor="start" x="587.5" y="-838.5376" font-family="Helvetica,sans-Serif" font-weight="bold" font-size="11.00" fill="#000000">attendee_audit</text>
<text text-anchor="start" x="689.0219" y="-838.0376" font-family="Helvetica,sans-Serif" font-size="11.00" fill="#000000">[table]</text>
<polygon fill="none" stroke="#000000" points="582.5,-810.9376 582.5,-829.9376 723.5,-829.9376 723.5,-810.9376 582.5,-810.9376"/>
<text text-anchor="start" x="585.5" y="-817.0376" font-family="Helvetica,sans-Serif" font-size="11.00" fill="#000000">...</text>
<polygon fill="#ffffff" stroke="transparent" points="582.5,-791.9376 582.5,-810.9376 651.5,-810.9376 651.5,-791.9376 582.5,-791.9376"/>
<polygon fill="none" stroke="#000000" points="582.5,-791.9376 582.5,-810.9376 651.5,-810.9376 651.5,-791.9376 582.5,-791.9376"/>
<text text-anchor="start" x="585.5" y="-798.0376" font-family="Helvetica,sans-Serif" font-size="11.00" fill="#000000">&lt; 3</text>
<polygon fill="#ffffff" stroke="transparent" points="651.5,-791.9376 651.5,-810.9376 687.5,-810.9376 687.5,-791.9376 651.5,-791.9376"/>
<polygon fill="none" stroke="#000000" points="651.5,-791.9376 651.5,-810.9376 687.5,-810.9376 687.5,-791.9376 651.5,-791.9376"/>
<text text-anchor="start" x="678.3862" y="-798.0376" font-family="Helvetica,sans-Serif" font-size="11.00" fill="#000000"> &#160;</text>
<polygon fill="#ffffff" stroke="transparent" points="687.5,-791.9376 687.5,-810.9376 723.5,-810.9376 723.5,-791.9376 687.5,-791.9376"/>
<polygon fill="none" stroke="#000000" points="687.5,-791.9376 687.5,-810.9376 723.5,-810.9376 723.5,-791.9376 687.5,-791.9376"/>
<text text-anchor="start" x="714.3862" y="-798.0376" font-family="Helvetica,sans-Serif" font-size="11.00" fill="#000000"> &#160;</text>
</a>
</g>
</g>
<!-- attendee_audit&#45;&gt;audit_revision -->
<g id="edge3" class="edge">
<title>attendee_audit:w&#45;&gt;audit_revision:e</title>
<path fill="none" stroke="#000000" stroke-dasharray="5,2" d="M567.8866,-819.5085C476.9684,-814.7073 274.8267,-772.1449 215,-820.9376 145.695,-877.4606 263.4317,-1017.9376 174,-1017.9376"/>
<polygon fill="#000000" stroke="#000000" points="574.5034,-819.7028 582.3943,-823.5361 578.5017,-819.8202 582.5,-819.9376 582.5,-819.9376 582.5,-819.9376 578.5017,-819.8202 582.6057,-816.3392 574.5034,-819.7028 574.5034,-819.7028"/>
<ellipse fill="none" stroke="#000000" cx="571.3048" cy="-819.6088" rx="3.2" ry="3.2"/>
</g>
<!-- attendee_audit&#45;&gt;audit_revision -->
<g id="edge4" class="edge">
<title>attendee_audit:w&#45;&gt;audit_revision:e</title>
<path fill="none" stroke="#000000" d="M567.8841,-819.5412C476.9445,-815.1103 274.6669,-775.9388 215,-824.9376 147.2308,-880.5902 261.6919,-1017.9376 174,-1017.9376"/>
<polygon fill="#000000" stroke="#000000" points="574.5029,-819.7207 582.4024,-823.5363 578.5015,-819.8292 582.5,-819.9376 582.5,-819.9376 582.5,-819.9376 578.5015,-819.8292 582.5976,-816.339 574.5029,-819.7207 574.5029,-819.7207"/>
<ellipse fill="none" stroke="#000000" cx="571.3041" cy="-819.6339" rx="3.2" ry="3.2"/>
</g>
<!-- attendee_audit&#45;&gt;review -->
<g id="edge5" class="edge">
<title>attendee_audit:w&#45;&gt;review:e</title>
<path fill="none" stroke="#000000" stroke-dasharray="5,2" d="M568.477,-823.3754C549.1224,-835.987 567.7321,-880.1587 541,-902.9376 498.0963,-939.4966 476.3674,-940.9376 420,-940.9376"/>
<polygon fill="#000000" stroke="#000000" points="574.7301,-821.8425 583.3572,-823.4341 578.615,-820.8901 582.5,-819.9376 582.5,-819.9376 582.5,-819.9376 578.615,-820.8901 581.6428,-816.4412 574.7301,-821.8425 574.7301,-821.8425"/>
<ellipse fill="none" stroke="#000000" cx="571.6221" cy="-822.6044" rx="3.2" ry="3.2"/>
</g>
<!-- contributory_factor -->
<g id="node5" class="node">
<title>contributory_factor</title>
<g id="a_node5"><a xlink:href="../../tables/contributory_factor.html" xlink:title="contributory_factor" target="_top">
<polygon fill="#ffffff" stroke="transparent" points="822,-338.4376 822,-399.4376 991,-399.4376 991,-338.4376 822,-338.4376"/>
<polygon fill="#f5f5f5" stroke="transparent" points="822.5,-375.9376 822.5,-398.9376 991.5,-398.9376 991.5,-375.9376 822.5,-375.9376"/>
<polygon fill="none" stroke="#000000" points="822.5,-375.9376 822.5,-398.9376 991.5,-398.9376 991.5,-375.9376 822.5,-375.9376"/>
<text text-anchor="start" x="827.5" y="-384.5376" font-family="Helvetica,sans-Serif" font-weight="bold" font-size="11.00" fill="#000000">contributory_factor</text>
<text text-anchor="start" x="957.0219" y="-384.0376" font-family="Helvetica,sans-Serif" font-size="11.00" fill="#000000">[table]</text>
<polygon fill="none" stroke="#000000" points="822.5,-356.9376 822.5,-375.9376 991.5,-375.9376 991.5,-356.9376 822.5,-356.9376"/>
<text text-anchor="start" x="825.5" y="-363.0376" font-family="Helvetica,sans-Serif" font-size="11.00" fill="#000000">...</text>
<polygon fill="#ffffff" stroke="transparent" points="822.5,-337.9376 822.5,-356.9376 905.5,-356.9376 905.5,-337.9376 822.5,-337.9376"/>
<polygon fill="none" stroke="#000000" points="822.5,-337.9376 822.5,-356.9376 905.5,-356.9376 905.5,-337.9376 822.5,-337.9376"/>
<text text-anchor="start" x="825.5" y="-344.0376" font-family="Helvetica,sans-Serif" font-size="11.00" fill="#000000">&lt; 3</text>
<polygon fill="#ffffff" stroke="transparent" points="905.5,-337.9376 905.5,-356.9376 948.5,-356.9376 948.5,-337.9376 905.5,-337.9376"/>
<polygon fill="none" stroke="#000000" points="905.5,-337.9376 905.5,-356.9376 948.5,-356.9376 948.5,-337.9376 905.5,-337.9376"/>
<text text-anchor="start" x="939.3862" y="-344.0376" font-family="Helvetica,sans-Serif" font-size="11.00" fill="#000000"> &#160;</text>
<polygon fill="#ffffff" stroke="transparent" points="948.5,-337.9376 948.5,-356.9376 991.5,-356.9376 991.5,-337.9376 948.5,-337.9376"/>
<polygon fill="none" stroke="#000000" points="948.5,-337.9376 948.5,-356.9376 991.5,-356.9376 991.5,-337.9376 948.5,-337.9376"/>
<text text-anchor="start" x="982.3862" y="-344.0376" font-family="Helvetica,sans-Serif" font-size="11.00" fill="#000000"> &#160;</text>
</a>
</g>
</g>
<!-- contributory_factor&#45;&gt;audit_revision -->
<g id="edge7" class="edge">
<title>contributory_factor:w&#45;&gt;audit_revision:e</title>
<path fill="none" stroke="#000000" stroke-dasharray="5,2" d="M811.8609,-366.1796C613.2754,-375.4144 720.7558,-646.5152 541,-753.9376 415.4997,-828.9369 320.9374,-697.1782 215,-797.9376 142.9311,-866.484 273.4613,-1017.9376 174,-1017.9376"/>
<polygon fill="#000000" stroke="#000000" points="821.6092,-361.9569 821.7912,-369.9548 820.1916,-369.9912 820.0096,-361.9933 821.6092,-361.9569"/>
<polyline fill="none" stroke="#000000" points="822.5,-365.9376 818.501,-366.0286 "/>
<ellipse fill="none" stroke="#000000" cx="815.3019" cy="-366.1014" rx="3.2" ry="3.2"/>
</g>
<!-- reference_data -->
<g id="node6" class="node">
<title>reference_data</title>
<g id="a_node6"><a xlink:href="../../tables/reference_data.html" xlink:title="reference_data" target="_top">
<polygon fill="#ffffff" stroke="transparent" points="20.5,-117.4376 20.5,-266.4376 161.5,-266.4376 161.5,-117.4376 20.5,-117.4376"/>
<polygon fill="#f5f5f5" stroke="transparent" points="21,-242.9376 21,-265.9376 162,-265.9376 162,-242.9376 21,-242.9376"/>
<polygon fill="none" stroke="#000000" points="21,-242.9376 21,-265.9376 162,-265.9376 162,-242.9376 21,-242.9376"/>
<text text-anchor="start" x="26" y="-251.5376" font-family="Helvetica,sans-Serif" font-weight="bold" font-size="11.00" fill="#000000">reference_data</text>
<text text-anchor="start" x="127.5219" y="-251.0376" font-family="Helvetica,sans-Serif" font-size="11.00" fill="#000000">[table]</text>
<polygon fill="none" stroke="#000000" points="21,-220.9376 21,-242.9376 162,-242.9376 162,-220.9376 21,-220.9376"/>
<image xlink:href="../../images/primaryKeys.png" width="11px" height="12px" preserveAspectRatio="xMinYMin meet" x="26" y="-237.938"/>
<text text-anchor="start" x="41" y="-228.0376" font-family="Helvetica,sans-Serif" font-size="11.00" fill="#000000">reference_data_id</text>
<polygon fill="#ffffff" stroke="transparent" points="21,-198.9376 21,-220.9376 162,-220.9376 162,-198.9376 21,-198.9376"/>
<polygon fill="none" stroke="#000000" points="21,-198.9376 21,-220.9376 162,-220.9376 162,-198.9376 21,-198.9376"/>
<text text-anchor="start" x="41" y="-206.0376" font-family="Helvetica,sans-Serif" font-size="11.00" fill="#000000">domain</text>
<polygon fill="#ffffff" stroke="transparent" points="21,-176.9376 21,-198.9376 162,-198.9376 162,-176.9376 21,-176.9376"/>
<polygon fill="none" stroke="#000000" points="21,-176.9376 21,-198.9376 162,-198.9376 162,-176.9376 21,-176.9376"/>
<text text-anchor="start" x="41" y="-184.0376" font-family="Helvetica,sans-Serif" font-size="11.00" fill="#000000">code</text>
<polygon fill="#ffffff" stroke="transparent" points="21,-154.9376 21,-176.9376 162,-176.9376 162,-154.9376 21,-154.9376"/>
<polygon fill="none" stroke="#000000" points="21,-154.9376 21,-176.9376 162,-176.9376 162,-154.9376 21,-154.9376"/>
<text text-anchor="start" x="41" y="-162.0376" font-family="Helvetica,sans-Serif" font-size="11.00" fill="#000000">list_sequence</text>
<polygon fill="none" stroke="#000000" points="21,-135.9376 21,-154.9376 162,-154.9376 162,-135.9376 21,-135.9376"/>
<text text-anchor="start" x="24" y="-142.0376" font-family="Helvetica,sans-Serif" font-size="11.00" fill="#000000">...</text>
<polygon fill="#ffffff" stroke="transparent" points="21,-116.9376 21,-135.9376 59,-135.9376 59,-116.9376 21,-116.9376"/>
<polygon fill="none" stroke="#000000" points="21,-116.9376 21,-135.9376 59,-135.9376 59,-116.9376 21,-116.9376"/>
<text text-anchor="start" x="24" y="-123.0376" font-family="Helvetica,sans-Serif" font-size="11.00" fill="#000000"> &#160;</text>
<polygon fill="#ffffff" stroke="transparent" points="59,-116.9376 59,-135.9376 122,-135.9376 122,-116.9376 59,-116.9376"/>
<polygon fill="none" stroke="#000000" points="59,-116.9376 59,-135.9376 122,-135.9376 122,-116.9376 59,-116.9376"/>
<text text-anchor="start" x="74.3807" y="-123.0376" font-family="Helvetica,sans-Serif" font-size="11.00" fill="#000000">112 rows</text>
<polygon fill="#ffffff" stroke="transparent" points="122,-116.9376 122,-135.9376 162,-135.9376 162,-116.9376 122,-116.9376"/>
<polygon fill="none" stroke="#000000" points="122,-116.9376 122,-135.9376 162,-135.9376 162,-116.9376 122,-116.9376"/>
<text text-anchor="start" x="137.2904" y="-123.0376" font-family="Helvetica,sans-Serif" font-size="11.00" fill="#000000">10 &gt;</text>
</a>
</g>
</g>
<!-- contributory_factor&#45;&gt;reference_data -->
<g id="edge6" class="edge">
<title>contributory_factor:w&#45;&gt;reference_data:e</title>
<path fill="none" stroke="#000000" d="M807.9369,-365.7596C692.1106,-362.8675 662.215,-325.4286 541,-303.9376 397.0424,-278.4145 354.2294,-304.5513 215,-259.9376 189.6299,-251.8082 188.6407,-231.9376 162,-231.9376"/>
<polygon fill="#000000" stroke="#000000" points="814.5006,-365.8398 822.456,-369.5374 818.5003,-365.8887 822.5,-365.9376 822.5,-365.9376 822.5,-365.9376 818.5003,-365.8887 822.544,-362.3379 814.5006,-365.8398 814.5006,-365.8398"/>
<ellipse fill="none" stroke="#000000" cx="811.3008" cy="-365.8006" rx="3.2" ry="3.2"/>
</g>
<!-- referral -->
<g id="node7" class="node">
<title>referral</title>
<g id="a_node7"><a xlink:href="../../tables/referral.html" xlink:title="referral" target="_top">
<polygon fill="#ffffff" stroke="transparent" points="607.5,-204.4376 607.5,-265.4376 697.5,-265.4376 697.5,-204.4376 607.5,-204.4376"/>
<polygon fill="#f5f5f5" stroke="transparent" points="607.5,-241.9376 607.5,-264.9376 697.5,-264.9376 697.5,-241.9376 607.5,-241.9376"/>
<polygon fill="none" stroke="#000000" points="607.5,-241.9376 607.5,-264.9376 697.5,-264.9376 697.5,-241.9376 607.5,-241.9376"/>
<text text-anchor="start" x="612.5" y="-250.5376" font-family="Helvetica,sans-Serif" font-weight="bold" font-size="11.00" fill="#000000">referral</text>
<text text-anchor="start" x="663.0219" y="-250.0376" font-family="Helvetica,sans-Serif" font-size="11.00" fill="#000000">[table]</text>
<polygon fill="none" stroke="#000000" points="607.5,-222.9376 607.5,-241.9376 697.5,-241.9376 697.5,-222.9376 607.5,-222.9376"/>
<text text-anchor="start" x="610.5" y="-229.0376" font-family="Helvetica,sans-Serif" font-size="11.00" fill="#000000">...</text>
<polygon fill="#ffffff" stroke="transparent" points="607.5,-203.9376 607.5,-222.9376 646.5,-222.9376 646.5,-203.9376 607.5,-203.9376"/>
<polygon fill="none" stroke="#000000" points="607.5,-203.9376 607.5,-222.9376 646.5,-222.9376 646.5,-203.9376 607.5,-203.9376"/>
<text text-anchor="start" x="610.5" y="-210.0376" font-family="Helvetica,sans-Serif" font-size="11.00" fill="#000000">&lt; 5</text>
<polygon fill="#ffffff" stroke="transparent" points="646.5,-203.9376 646.5,-222.9376 667.5,-222.9376 667.5,-203.9376 646.5,-203.9376"/>
<polygon fill="none" stroke="#000000" points="646.5,-203.9376 646.5,-222.9376 667.5,-222.9376 667.5,-203.9376 646.5,-203.9376"/>
<text text-anchor="start" x="658.3862" y="-210.0376" font-family="Helvetica,sans-Serif" font-size="11.00" fill="#000000"> &#160;</text>
<polygon fill="#ffffff" stroke="transparent" points="667.5,-203.9376 667.5,-222.9376 697.5,-222.9376 697.5,-203.9376 667.5,-203.9376"/>
<polygon fill="none" stroke="#000000" points="667.5,-203.9376 667.5,-222.9376 697.5,-222.9376 697.5,-203.9376 667.5,-203.9376"/>
<text text-anchor="start" x="678.9053" y="-210.0376" font-family="Helvetica,sans-Serif" font-size="11.00" fill="#000000">5 &gt;</text>
</a>
</g>
</g>
<!-- contributory_factor&#45;&gt;referral -->
<g id="edge8" class="edge">
<title>contributory_factor:w&#45;&gt;referral:e</title>
<path fill="none" stroke="#000000" d="M808.1062,-364.908C765.7121,-358.3642 759.8001,-321.5145 731,-279.9376 716.1863,-258.552 723.5152,-231.9376 697.5,-231.9376"/>
<polygon fill="#000000" stroke="#000000" points="814.5204,-365.3668 822.2431,-369.5285 818.5102,-365.6522 822.5,-365.9376 822.5,-365.9376 822.5,-365.9376 818.5102,-365.6522 822.7569,-362.3468 814.5204,-365.3668 814.5204,-365.3668"/>
<ellipse fill="none" stroke="#000000" cx="811.3285" cy="-365.1385" rx="3.2" ry="3.2"/>
</g>
<!-- referral&#45;&gt;reference_data -->
<g id="edge36" class="edge">
<title>referral:w&#45;&gt;reference_data:e</title>
<path fill="none" stroke="#000000" d="M592.9797,-231.9376C406.9426,-231.9376 355.0693,-231.9376 162,-231.9376"/>
<polygon fill="#000000" stroke="#000000" points="599.5,-231.9377 607.5,-235.5376 603.5,-231.9377 607.5,-231.9376 607.5,-231.9376 607.5,-231.9376 603.5,-231.9377 607.5,-228.3376 599.5,-231.9377 599.5,-231.9377"/>
<ellipse fill="none" stroke="#000000" cx="596.3" cy="-231.9377" rx="3.2" ry="3.2"/>
</g>
<!-- referral&#45;&gt;reference_data -->
<g id="edge37" class="edge">
<title>referral:w&#45;&gt;reference_data:e</title>
<path fill="none" stroke="#000000" d="M592.9797,-230.9906C406.9426,-218.9457 355.0693,-219.2614 162,-231.9376"/>
<polygon fill="#000000" stroke="#000000" points="599.517,-231.4169 607.2657,-235.53 603.5085,-231.6773 607.5,-231.9376 607.5,-231.9376 607.5,-231.9376 603.5085,-231.6773 607.7343,-228.3453 599.517,-231.4169 599.517,-231.4169"/>
<ellipse fill="none" stroke="#000000" cx="596.3237" cy="-231.2087" rx="3.2" ry="3.2"/>
</g>
<!-- referral&#45;&gt;reference_data -->
<g id="edge38" class="edge">
<title>referral:w&#45;&gt;reference_data:e</title>
<path fill="none" stroke="#000000" d="M592.9797,-231.9376C406.9426,-231.9376 355.0693,-231.9376 162,-231.9376"/>
<polygon fill="#000000" stroke="#000000" points="599.5,-231.9377 607.5,-235.5376 603.5,-231.9377 607.5,-231.9376 607.5,-231.9376 607.5,-231.9376 603.5,-231.9377 607.5,-228.3376 599.5,-231.9377 599.5,-231.9377"/>
<ellipse fill="none" stroke="#000000" cx="596.3" cy="-231.9377" rx="3.2" ry="3.2"/>
</g>
<!-- referral&#45;&gt;reference_data -->
<g id="edge39" class="edge">
<title>referral:w&#45;&gt;reference_data:e</title>
<path fill="none" stroke="#000000" d="M592.9797,-232.8846C406.9426,-244.9296 355.0693,-244.6139 162,-231.9376"/>
<polygon fill="#000000" stroke="#000000" points="599.517,-232.4583 607.7343,-235.53 603.5085,-232.198 607.5,-231.9376 607.5,-231.9376 607.5,-231.9376 603.5085,-232.198 607.2657,-228.3453 599.517,-232.4583 599.517,-232.4583"/>
<ellipse fill="none" stroke="#000000" cx="596.3237" cy="-232.6666" rx="3.2" ry="3.2"/>
</g>
<!-- csip_record -->
<g id="node9" class="node">
<title>csip_record</title>
<g id="a_node9"><a xlink:href="../../tables/csip_record.html" xlink:title="csip_record" target="_top">
<polygon fill="#ffffff" stroke="transparent" points="320.5,-314.4376 320.5,-375.4376 435.5,-375.4376 435.5,-314.4376 320.5,-314.4376"/>
<polygon fill="#f5f5f5" stroke="transparent" points="321,-351.9376 321,-374.9376 436,-374.9376 436,-351.9376 321,-351.9376"/>
<polygon fill="none" stroke="#000000" points="321,-351.9376 321,-374.9376 436,-374.9376 436,-351.9376 321,-351.9376"/>
<text text-anchor="start" x="326" y="-360.5376" font-family="Helvetica,sans-Serif" font-weight="bold" font-size="11.00" fill="#000000">csip_record</text>
<text text-anchor="start" x="401.5219" y="-360.0376" font-family="Helvetica,sans-Serif" font-size="11.00" fill="#000000">[table]</text>
<polygon fill="none" stroke="#000000" points="321,-332.9376 321,-351.9376 436,-351.9376 436,-332.9376 321,-332.9376"/>
<text text-anchor="start" x="324" y="-339.0376" font-family="Helvetica,sans-Serif" font-size="11.00" fill="#000000">...</text>
<polygon fill="#ffffff" stroke="transparent" points="321,-313.9376 321,-332.9376 372,-332.9376 372,-313.9376 321,-313.9376"/>
<polygon fill="none" stroke="#000000" points="321,-313.9376 321,-332.9376 372,-332.9376 372,-313.9376 321,-313.9376"/>
<text text-anchor="start" x="324" y="-320.0376" font-family="Helvetica,sans-Serif" font-size="11.00" fill="#000000">&lt; 3</text>
<polygon fill="#ffffff" stroke="transparent" points="372,-313.9376 372,-332.9376 399,-332.9376 399,-313.9376 372,-313.9376"/>
<polygon fill="none" stroke="#000000" points="372,-313.9376 372,-332.9376 399,-332.9376 399,-313.9376 372,-313.9376"/>
<text text-anchor="start" x="389.8862" y="-320.0376" font-family="Helvetica,sans-Serif" font-size="11.00" fill="#000000"> &#160;</text>
<polygon fill="#ffffff" stroke="transparent" points="399,-313.9376 399,-332.9376 436,-332.9376 436,-313.9376 399,-313.9376"/>
<polygon fill="none" stroke="#000000" points="399,-313.9376 399,-332.9376 436,-332.9376 436,-313.9376 399,-313.9376"/>
<text text-anchor="start" x="417.4053" y="-320.0376" font-family="Helvetica,sans-Serif" font-size="11.00" fill="#000000">2 &gt;</text>
</a>
</g>
</g>
<!-- referral&#45;&gt;csip_record -->
<g id="edge40" class="edge">
<title>referral:w&#45;&gt;csip_record:e</title>
<path fill="none" stroke="#000000" d="M596.8493,-232.4776C517.566,-240.776 522.8395,-341.9376 436,-341.9376"/>
<polygon fill="#000000" stroke="#000000" points="606.4985,-227.9833 606.9036,-235.973 605.3056,-236.054 604.9005,-228.0643 606.4985,-227.9833"/>
<polyline fill="none" stroke="#000000" points="607.5,-231.9376 603.5051,-232.1402 "/>
<ellipse fill="none" stroke="#000000" cx="600.3092" cy="-232.3023" rx="3.2" ry="3.2"/>
</g>
<!-- contributory_factor_audit -->
<g id="node8" class="node">
<title>contributory_factor_audit</title>
<g id="a_node8"><a xlink:href="../../tables/contributory_factor_audit.html" xlink:title="contributory_factor_audit" target="_top">
<polygon fill="#ffffff" stroke="transparent" points="801.5,-991.4376 801.5,-1052.4376 1011.5,-1052.4376 1011.5,-991.4376 801.5,-991.4376"/>
<polygon fill="#f5f5f5" stroke="transparent" points="801.5,-1028.9376 801.5,-1051.9376 1011.5,-1051.9376 1011.5,-1028.9376 801.5,-1028.9376"/>
<polygon fill="none" stroke="#000000" points="801.5,-1028.9376 801.5,-1051.9376 1011.5,-1051.9376 1011.5,-1028.9376 801.5,-1028.9376"/>
<text text-anchor="start" x="806.5" y="-1037.5376" font-family="Helvetica,sans-Serif" font-weight="bold" font-size="11.00" fill="#000000">contributory_factor_audit</text>
<text text-anchor="start" x="977.0219" y="-1037.0376" font-family="Helvetica,sans-Serif" font-size="11.00" fill="#000000">[table]</text>
<polygon fill="none" stroke="#000000" points="801.5,-1009.9376 801.5,-1028.9376 1011.5,-1028.9376 1011.5,-1009.9376 801.5,-1009.9376"/>
<text text-anchor="start" x="804.5" y="-1016.0376" font-family="Helvetica,sans-Serif" font-size="11.00" fill="#000000">...</text>
<polygon fill="#ffffff" stroke="transparent" points="801.5,-990.9376 801.5,-1009.9376 904.5,-1009.9376 904.5,-990.9376 801.5,-990.9376"/>
<polygon fill="none" stroke="#000000" points="801.5,-990.9376 801.5,-1009.9376 904.5,-1009.9376 904.5,-990.9376 801.5,-990.9376"/>
<text text-anchor="start" x="804.5" y="-997.0376" font-family="Helvetica,sans-Serif" font-size="11.00" fill="#000000">&lt; 4</text>
<polygon fill="#ffffff" stroke="transparent" points="904.5,-990.9376 904.5,-1009.9376 957.5,-1009.9376 957.5,-990.9376 904.5,-990.9376"/>
<polygon fill="none" stroke="#000000" points="904.5,-990.9376 904.5,-1009.9376 957.5,-1009.9376 957.5,-990.9376 904.5,-990.9376"/>
<text text-anchor="start" x="948.3862" y="-997.0376" font-family="Helvetica,sans-Serif" font-size="11.00" fill="#000000"> &#160;</text>
<polygon fill="#ffffff" stroke="transparent" points="957.5,-990.9376 957.5,-1009.9376 1011.5,-1009.9376 1011.5,-990.9376 957.5,-990.9376"/>
<polygon fill="none" stroke="#000000" points="957.5,-990.9376 957.5,-1009.9376 1011.5,-1009.9376 1011.5,-990.9376 957.5,-990.9376"/>
<text text-anchor="start" x="1002.3862" y="-997.0376" font-family="Helvetica,sans-Serif" font-size="11.00" fill="#000000"> &#160;</text>
</a>
</g>
</g>
<!-- contributory_factor_audit&#45;&gt;audit_revision -->
<g id="edge9" class="edge">
<title>contributory_factor_audit:w&#45;&gt;audit_revision:e</title>
<path fill="none" stroke="#000000" stroke-dasharray="5,2" d="M786.9846,-1018.9367C520.095,-1018.9028 447.9869,-1017.9376 174,-1017.9376"/>
<polygon fill="#000000" stroke="#000000" points="793.5,-1018.9371 801.4997,-1022.5376 797.5,-1018.9374 801.5,-1018.9376 801.5,-1018.9376 801.5,-1018.9376 797.5,-1018.9374 801.5003,-1015.3376 793.5,-1018.9371 793.5,-1018.9371"/>
<ellipse fill="none" stroke="#000000" cx="790.3" cy="-1018.9368" rx="3.2" ry="3.2"/>
</g>
<!-- contributory_factor_audit&#45;&gt;audit_revision -->
<g id="edge10" class="edge">
<title>contributory_factor_audit:w&#45;&gt;audit_revision:e</title>
<path fill="none" stroke="#000000" stroke-dasharray="5,2" d="M786.9846,-1018.6259C520.095,-1012.9046 447.9869,-1012.0431 174,-1017.9376"/>
<polygon fill="#000000" stroke="#000000" points="793.5018,-1018.7658 801.4227,-1022.5368 797.5009,-1018.8517 801.5,-1018.9376 801.5,-1018.9376 801.5,-1018.9376 797.5009,-1018.8517 801.5773,-1015.3385 793.5018,-1018.7658 793.5018,-1018.7658"/>
<ellipse fill="none" stroke="#000000" cx="790.3026" cy="-1018.6971" rx="3.2" ry="3.2"/>
</g>
<!-- contributory_factor_audit&#45;&gt;audit_revision -->
<g id="edge12" class="edge">
<title>contributory_factor_audit:w&#45;&gt;audit_revision:e</title>
<path fill="none" stroke="#000000" d="M786.9846,-1019.2994C520.095,-1025.9006 447.9869,-1024.8146 174,-1017.9376"/>
<polygon fill="#000000" stroke="#000000" points="793.5025,-1019.137 801.5897,-1022.5365 797.5012,-1019.0373 801.5,-1018.9376 801.5,-1018.9376 801.5,-1018.9376 797.5012,-1019.0373 801.4103,-1015.3388 793.5025,-1019.137 793.5025,-1019.137"/>
<ellipse fill="none" stroke="#000000" cx="790.3035" cy="-1019.2167" rx="3.2" ry="3.2"/>
</g>
<!-- contributory_factor_audit&#45;&gt;referral -->
<g id="edge11" class="edge">
<title>contributory_factor_audit:w&#45;&gt;referral:e</title>
<path fill="none" stroke="#000000" stroke-dasharray="5,2" d="M788.4174,-1012.134C720.7348,-935.2132 780.881,-231.9376 697.5,-231.9376"/>
<polygon fill="#000000" stroke="#000000" points="794.4024,-1015.2465 799.839,-1022.1315 797.9512,-1017.0921 801.5,-1018.9376 801.5,-1018.9376 801.5,-1018.9376 797.9512,-1017.0921 803.161,-1015.7437 794.4024,-1015.2465 794.4024,-1015.2465"/>
<ellipse fill="none" stroke="#000000" cx="791.5634" cy="-1013.77" rx="3.2" ry="3.2"/>
</g>
<!-- csip_record&#45;&gt;audit_revision -->
<g id="edge13" class="edge">
<title>csip_record:w&#45;&gt;audit_revision:e</title>
<path fill="none" stroke="#000000" stroke-dasharray="5,2" d="M310.322,-342.1418C263.6857,-344.0223 241.8365,-359.2364 215,-401.9376 178.4994,-460.016 242.5959,-1017.9376 174,-1017.9376"/>
<polygon fill="#000000" stroke="#000000" points="320.1236,-337.9537 320.2767,-345.9522 318.6769,-345.9828 318.5239,-337.9843 320.1236,-337.9537"/>
<polyline fill="none" stroke="#000000" points="321,-341.9376 317.0007,-342.0141 "/>
<ellipse fill="none" stroke="#000000" cx="313.8013" cy="-342.0753" rx="3.2" ry="3.2"/>
</g>
<!-- csip_record&#45;&gt;reference_data -->
<g id="edge14" class="edge">
<title>csip_record:w&#45;&gt;reference_data:e</title>
<path fill="none" stroke="#000000" d="M306.349,-341.5563C266.9913,-339.3317 251.357,-327.1765 215,-299.9376 184.3341,-276.9626 200.3177,-231.9376 162,-231.9376"/>
<polygon fill="#000000" stroke="#000000" points="313.0027,-341.7294 320.9063,-345.5364 317.0014,-341.8335 321,-341.9376 321,-341.9376 321,-341.9376 317.0014,-341.8335 321.0937,-338.3389 313.0027,-341.7294 313.0027,-341.7294"/>
<ellipse fill="none" stroke="#000000" cx="309.8038" cy="-341.6461" rx="3.2" ry="3.2"/>
</g>
<!-- csip_record_audit -->
<g id="node10" class="node">
<title>csip_record_audit</title>
<g id="a_node10"><a xlink:href="../../tables/csip_record_audit.html" xlink:title="csip_record_audit" target="_top">
<polygon fill="#ffffff" stroke="transparent" points="300,-831.4376 300,-892.4376 456,-892.4376 456,-831.4376 300,-831.4376"/>
<polygon fill="#f5f5f5" stroke="transparent" points="300,-868.9376 300,-891.9376 456,-891.9376 456,-868.9376 300,-868.9376"/>
<polygon fill="none" stroke="#000000" points="300,-868.9376 300,-891.9376 456,-891.9376 456,-868.9376 300,-868.9376"/>
<text text-anchor="start" x="305" y="-877.5376" font-family="Helvetica,sans-Serif" font-weight="bold" font-size="11.00" fill="#000000">csip_record_audit</text>
<text text-anchor="start" x="421.5219" y="-877.0376" font-family="Helvetica,sans-Serif" font-size="11.00" fill="#000000">[table]</text>
<polygon fill="none" stroke="#000000" points="300,-849.9376 300,-868.9376 456,-868.9376 456,-849.9376 300,-849.9376"/>
<text text-anchor="start" x="303" y="-856.0376" font-family="Helvetica,sans-Serif" font-size="11.00" fill="#000000">...</text>
<polygon fill="#ffffff" stroke="transparent" points="300,-830.9376 300,-849.9376 376,-849.9376 376,-830.9376 300,-830.9376"/>
<polygon fill="none" stroke="#000000" points="300,-830.9376 300,-849.9376 376,-849.9376 376,-830.9376 300,-830.9376"/>
<text text-anchor="start" x="303" y="-837.0376" font-family="Helvetica,sans-Serif" font-size="11.00" fill="#000000">&lt; 3</text>
<polygon fill="#ffffff" stroke="transparent" points="376,-830.9376 376,-849.9376 416,-849.9376 416,-830.9376 376,-830.9376"/>
<polygon fill="none" stroke="#000000" points="376,-830.9376 376,-849.9376 416,-849.9376 416,-830.9376 376,-830.9376"/>
<text text-anchor="start" x="406.8862" y="-837.0376" font-family="Helvetica,sans-Serif" font-size="11.00" fill="#000000"> &#160;</text>
<polygon fill="#ffffff" stroke="transparent" points="416,-830.9376 416,-849.9376 456,-849.9376 456,-830.9376 416,-830.9376"/>
<polygon fill="none" stroke="#000000" points="416,-830.9376 416,-849.9376 456,-849.9376 456,-830.9376 416,-830.9376"/>
<text text-anchor="start" x="446.8862" y="-837.0376" font-family="Helvetica,sans-Serif" font-size="11.00" fill="#000000"> &#160;</text>
</a>
</g>
</g>
<!-- csip_record_audit&#45;&gt;audit_revision -->
<g id="edge15" class="edge">
<title>csip_record_audit:w&#45;&gt;audit_revision:e</title>
<path fill="none" stroke="#000000" stroke-dasharray="5,2" d="M285.2819,-857.5335C253.6296,-856.2408 239.4819,-868.9002 215,-896.9376 179.31,-937.8109 228.2623,-1011.9376 174,-1017.9376"/>
<polygon fill="#000000" stroke="#000000" points="292.0362,-858.1778 299.6581,-862.5214 296.0181,-858.5577 300,-858.9376 300,-858.9376 300,-858.9376 296.0181,-858.5577 300.3419,-855.3539 292.0362,-858.1778 292.0362,-858.1778"/>
<ellipse fill="none" stroke="#000000" cx="288.8506" cy="-857.8739" rx="3.2" ry="3.2"/>
</g>
<!-- csip_record_audit&#45;&gt;audit_revision -->
<g id="edge16" class="edge">
<title>csip_record_audit:w&#45;&gt;audit_revision:e</title>
<path fill="none" stroke="#000000" d="M285.7068,-861.7255C253.7557,-869.1281 239.5912,-881.775 215,-909.9376 179.31,-950.8109 228.2623,-1024.9376 174,-1017.9376"/>
<polygon fill="#000000" stroke="#000000" points="292.148,-860.4692 300.6892,-862.471 296.074,-859.7034 300,-858.9376 300,-858.9376 300,-858.9376 296.074,-859.7034 299.3108,-855.4042 292.148,-860.4692 292.148,-860.4692"/>
<ellipse fill="none" stroke="#000000" cx="289.0072" cy="-861.0819" rx="3.2" ry="3.2"/>
</g>
<!-- decision_and_actions -->
<g id="node11" class="node">
<title>decision_and_actions</title>
<g id="a_node11"><a xlink:href="../../tables/decision_and_actions.html" xlink:title="decision_and_actions" target="_top">
<polygon fill="#ffffff" stroke="transparent" points="816,-42.4376 816,-103.4376 997,-103.4376 997,-42.4376 816,-42.4376"/>
<polygon fill="#f5f5f5" stroke="transparent" points="816.5,-79.9376 816.5,-102.9376 997.5,-102.9376 997.5,-79.9376 816.5,-79.9376"/>
<polygon fill="none" stroke="#000000" points="816.5,-79.9376 816.5,-102.9376 997.5,-102.9376 997.5,-79.9376 816.5,-79.9376"/>
<text text-anchor="start" x="821.5" y="-88.5376" font-family="Helvetica,sans-Serif" font-weight="bold" font-size="11.00" fill="#000000">decision_and_actions</text>
<text text-anchor="start" x="963.0219" y="-88.0376" font-family="Helvetica,sans-Serif" font-size="11.00" fill="#000000">[table]</text>
<polygon fill="none" stroke="#000000" points="816.5,-60.9376 816.5,-79.9376 997.5,-79.9376 997.5,-60.9376 816.5,-60.9376"/>
<text text-anchor="start" x="819.5" y="-67.0376" font-family="Helvetica,sans-Serif" font-size="11.00" fill="#000000">...</text>
<polygon fill="#ffffff" stroke="transparent" points="816.5,-41.9376 816.5,-60.9376 905.5,-60.9376 905.5,-41.9376 816.5,-41.9376"/>
<polygon fill="none" stroke="#000000" points="816.5,-41.9376 816.5,-60.9376 905.5,-60.9376 905.5,-41.9376 816.5,-41.9376"/>
<text text-anchor="start" x="819.5" y="-48.0376" font-family="Helvetica,sans-Serif" font-size="11.00" fill="#000000">&lt; 3</text>
<polygon fill="#ffffff" stroke="transparent" points="905.5,-41.9376 905.5,-60.9376 951.5,-60.9376 951.5,-41.9376 905.5,-41.9376"/>
<polygon fill="none" stroke="#000000" points="905.5,-41.9376 905.5,-60.9376 951.5,-60.9376 951.5,-41.9376 905.5,-41.9376"/>
<text text-anchor="start" x="942.3862" y="-48.0376" font-family="Helvetica,sans-Serif" font-size="11.00" fill="#000000"> &#160;</text>
<polygon fill="#ffffff" stroke="transparent" points="951.5,-41.9376 951.5,-60.9376 997.5,-60.9376 997.5,-41.9376 951.5,-41.9376"/>
<polygon fill="none" stroke="#000000" points="951.5,-41.9376 951.5,-60.9376 997.5,-60.9376 997.5,-41.9376 951.5,-41.9376"/>
<text text-anchor="start" x="988.3862" y="-48.0376" font-family="Helvetica,sans-Serif" font-size="11.00" fill="#000000"> &#160;</text>
</a>
</g>
</g>
<!-- decision_and_actions&#45;&gt;reference_data -->
<g id="edge18" class="edge">
<title>decision_and_actions:w&#45;&gt;reference_data:e</title>
<path fill="none" stroke="#000000" d="M801.7303,-69.8314C544.0815,-66.126 431.0953,32.3316 215,-117.9376 169.1265,-149.8374 217.8746,-231.9376 162,-231.9376"/>
<polygon fill="#000000" stroke="#000000" points="808.5002,-69.88 816.4741,-73.5375 812.5001,-69.9088 816.5,-69.9376 816.5,-69.9376 816.5,-69.9376 812.5001,-69.9088 816.5259,-66.3377 808.5002,-69.88 808.5002,-69.88"/>
<ellipse fill="none" stroke="#000000" cx="805.3003" cy="-69.857" rx="3.2" ry="3.2"/>
</g>
<!-- decision_and_actions&#45;&gt;reference_data -->
<g id="edge19" class="edge">
<title>decision_and_actions:w&#45;&gt;reference_data:e</title>
<path fill="none" stroke="#000000" d="M801.7231,-69.8362C543.9641,-66.2989 431.7543,27.634 215,-121.9376 170.3344,-152.7592 216.2677,-231.9376 162,-231.9376"/>
<polygon fill="#000000" stroke="#000000" points="808.5002,-69.8827 816.4753,-73.5375 812.5001,-69.9101 816.5,-69.9376 816.5,-69.9376 816.5,-69.9376 812.5001,-69.9101 816.5247,-66.3377 808.5002,-69.8827 808.5002,-69.8827"/>
<ellipse fill="none" stroke="#000000" cx="805.3003" cy="-69.8607" rx="3.2" ry="3.2"/>
</g>
<!-- decision_and_actions&#45;&gt;referral -->
<g id="edge17" class="edge">
<title>decision_and_actions:w&#45;&gt;referral:e</title>
<path fill="none" stroke="#000000" d="M805.7855,-70.8092C732.0155,-83.5604 782.999,-231.9376 697.5,-231.9376"/>
<polygon fill="#000000" stroke="#000000" points="815.3783,-66.0157 816.027,-73.9893 814.4323,-74.1191 813.7835,-66.1454 815.3783,-66.0157"/>
<polyline fill="none" stroke="#000000" points="816.5,-69.9376 812.5132,-70.262 "/>
<ellipse fill="none" stroke="#000000" cx="809.3237" cy="-70.5215" rx="3.2" ry="3.2"/>
</g>
<!-- decision_and_actions_audit -->
<g id="node12" class="node">
<title>decision_and_actions_audit</title>
<g id="a_node12"><a xlink:href="../../tables/decision_and_actions_audit.html" xlink:title="decision_and_actions_audit" target="_top">
<polygon fill="#ffffff" stroke="transparent" points="267,-682.4376 267,-743.4376 489,-743.4376 489,-682.4376 267,-682.4376"/>
<polygon fill="#f5f5f5" stroke="transparent" points="267,-719.9376 267,-742.9376 489,-742.9376 489,-719.9376 267,-719.9376"/>
<polygon fill="none" stroke="#000000" points="267,-719.9376 267,-742.9376 489,-742.9376 489,-719.9376 267,-719.9376"/>
<text text-anchor="start" x="272" y="-728.5376" font-family="Helvetica,sans-Serif" font-weight="bold" font-size="11.00" fill="#000000">decision_and_actions_audit</text>
<text text-anchor="start" x="454.5219" y="-728.0376" font-family="Helvetica,sans-Serif" font-size="11.00" fill="#000000">[table]</text>
<polygon fill="none" stroke="#000000" points="267,-700.9376 267,-719.9376 489,-719.9376 489,-700.9376 267,-700.9376"/>
<text text-anchor="start" x="270" y="-707.0376" font-family="Helvetica,sans-Serif" font-size="11.00" fill="#000000">...</text>
<polygon fill="#ffffff" stroke="transparent" points="267,-681.9376 267,-700.9376 376,-700.9376 376,-681.9376 267,-681.9376"/>
<polygon fill="none" stroke="#000000" points="267,-681.9376 267,-700.9376 376,-700.9376 376,-681.9376 267,-681.9376"/>
<text text-anchor="start" x="270" y="-688.0376" font-family="Helvetica,sans-Serif" font-size="11.00" fill="#000000">&lt; 3</text>
<polygon fill="#ffffff" stroke="transparent" points="376,-681.9376 376,-700.9376 432,-700.9376 432,-681.9376 376,-681.9376"/>
<polygon fill="none" stroke="#000000" points="376,-681.9376 376,-700.9376 432,-700.9376 432,-681.9376 376,-681.9376"/>
<text text-anchor="start" x="422.8862" y="-688.0376" font-family="Helvetica,sans-Serif" font-size="11.00" fill="#000000"> &#160;</text>
<polygon fill="#ffffff" stroke="transparent" points="432,-681.9376 432,-700.9376 489,-700.9376 489,-681.9376 432,-681.9376"/>
<polygon fill="none" stroke="#000000" points="432,-681.9376 432,-700.9376 489,-700.9376 489,-681.9376 432,-681.9376"/>
<text text-anchor="start" x="479.8862" y="-688.0376" font-family="Helvetica,sans-Serif" font-size="11.00" fill="#000000"> &#160;</text>
</a>
</g>
</g>
<!-- decision_and_actions_audit&#45;&gt;audit_revision -->
<g id="edge20" class="edge">
<title>decision_and_actions_audit:w&#45;&gt;audit_revision:e</title>
<path fill="none" stroke="#000000" stroke-dasharray="5,2" d="M252.886,-706.0514C233.3123,-704.1235 227.2785,-721.9671 215,-744.9376 187.4263,-796.5223 232.4917,-1004.9376 174,-1017.9376"/>
<polygon fill="#000000" stroke="#000000" points="259.287,-707.8138 266.0443,-713.4085 263.1435,-708.8757 267,-709.9376 267,-709.9376 267,-709.9376 263.1435,-708.8757 267.9557,-706.4668 259.287,-707.8138 259.287,-707.8138"/>
<ellipse fill="none" stroke="#000000" cx="256.2019" cy="-706.9643" rx="3.2" ry="3.2"/>
</g>
<!-- decision_and_actions_audit&#45;&gt;audit_revision -->
<g id="edge21" class="edge">
<title>decision_and_actions_audit:w&#45;&gt;audit_revision:e</title>
<path fill="none" stroke="#000000" d="M252.6099,-711.7464C233.2552,-717.292 227.2206,-735.0754 215,-757.9376 187.4263,-809.5223 232.4917,-1017.9376 174,-1017.9376"/>
<polygon fill="#000000" stroke="#000000" points="259.0625,-710.9354 267.449,-713.5095 263.0312,-710.4365 267,-709.9376 267,-709.9376 267,-709.9376 263.0312,-710.4365 266.551,-706.3657 259.0625,-710.9354 259.0625,-710.9354"/>
<ellipse fill="none" stroke="#000000" cx="255.8874" cy="-711.3345" rx="3.2" ry="3.2"/>
</g>
<!-- decision_and_actions_audit&#45;&gt;audit_revision -->
<g id="edge22" class="edge">
<title>decision_and_actions_audit:w&#45;&gt;audit_revision:e</title>
<path fill="none" stroke="#000000" stroke-dasharray="5,2" d="M254.0085,-716.5641C233.5378,-729.452 227.5102,-747.5337 215,-770.9376 187.4263,-822.5223 232.4917,-1030.9376 174,-1017.9376"/>
<polygon fill="#000000" stroke="#000000" points="259.8735,-713.5726 268.6357,-713.1446 263.4367,-711.7551 267,-709.9376 267,-709.9376 267,-709.9376 263.4367,-711.7551 265.3643,-706.7307 259.8735,-713.5726 259.8735,-713.5726"/>
<ellipse fill="none" stroke="#000000" cx="257.0229" cy="-715.0266" rx="3.2" ry="3.2"/>
</g>
<!-- identified_need -->
<g id="node13" class="node">
<title>identified_need</title>
<g id="a_node13"><a xlink:href="../../tables/identified_need.html" xlink:title="identified_need" target="_top">
<polygon fill="#ffffff" stroke="transparent" points="306.5,-600.4376 306.5,-661.4376 449.5,-661.4376 449.5,-600.4376 306.5,-600.4376"/>
<polygon fill="#f5f5f5" stroke="transparent" points="307,-637.9376 307,-660.9376 450,-660.9376 450,-637.9376 307,-637.9376"/>
<polygon fill="none" stroke="#000000" points="307,-637.9376 307,-660.9376 450,-660.9376 450,-637.9376 307,-637.9376"/>
<text text-anchor="start" x="312" y="-646.5376" font-family="Helvetica,sans-Serif" font-weight="bold" font-size="11.00" fill="#000000">identified_need</text>
<text text-anchor="start" x="415.5219" y="-646.0376" font-family="Helvetica,sans-Serif" font-size="11.00" fill="#000000">[table]</text>
<polygon fill="none" stroke="#000000" points="307,-618.9376 307,-637.9376 450,-637.9376 450,-618.9376 307,-618.9376"/>
<text text-anchor="start" x="310" y="-625.0376" font-family="Helvetica,sans-Serif" font-size="11.00" fill="#000000">...</text>
<polygon fill="#ffffff" stroke="transparent" points="307,-599.9376 307,-618.9376 377,-618.9376 377,-599.9376 307,-599.9376"/>
<polygon fill="none" stroke="#000000" points="307,-599.9376 307,-618.9376 377,-618.9376 377,-599.9376 307,-599.9376"/>
<text text-anchor="start" x="310" y="-606.0376" font-family="Helvetica,sans-Serif" font-size="11.00" fill="#000000">&lt; 2</text>
<polygon fill="#ffffff" stroke="transparent" points="377,-599.9376 377,-618.9376 413,-618.9376 413,-599.9376 377,-599.9376"/>
<polygon fill="none" stroke="#000000" points="377,-599.9376 377,-618.9376 413,-618.9376 413,-599.9376 377,-599.9376"/>
<text text-anchor="start" x="403.8862" y="-606.0376" font-family="Helvetica,sans-Serif" font-size="11.00" fill="#000000"> &#160;</text>
<polygon fill="#ffffff" stroke="transparent" points="413,-599.9376 413,-618.9376 450,-618.9376 450,-599.9376 413,-599.9376"/>
<polygon fill="none" stroke="#000000" points="413,-599.9376 413,-618.9376 450,-618.9376 450,-599.9376 413,-599.9376"/>
<text text-anchor="start" x="440.8862" y="-606.0376" font-family="Helvetica,sans-Serif" font-size="11.00" fill="#000000"> &#160;</text>
</a>
</g>
</g>
<!-- identified_need&#45;&gt;audit_revision -->
<g id="edge23" class="edge">
<title>identified_need:w&#45;&gt;audit_revision:e</title>
<path fill="none" stroke="#000000" stroke-dasharray="5,2" d="M296.3341,-628.0943C258.3053,-629.3099 239.2195,-638.1068 215,-671.9376 169.9292,-734.8943 251.4268,-1017.9376 174,-1017.9376"/>
<polygon fill="#000000" stroke="#000000" points="306.1413,-623.9498 306.2589,-631.949 304.6591,-631.9725 304.5415,-623.9733 306.1413,-623.9498"/>
<polyline fill="none" stroke="#000000" points="307,-627.9376 303.0004,-627.9964 "/>
<ellipse fill="none" stroke="#000000" cx="299.8008" cy="-628.0435" rx="3.2" ry="3.2"/>
</g>
<!-- identified_need_audit -->
<g id="node14" class="node">
<title>identified_need_audit</title>
<g id="a_node14"><a xlink:href="../../tables/identified_need_audit.html" xlink:title="identified_need_audit" target="_top">
<polygon fill="#ffffff" stroke="transparent" points="286,-518.4376 286,-579.4376 470,-579.4376 470,-518.4376 286,-518.4376"/>
<polygon fill="#f5f5f5" stroke="transparent" points="286,-555.9376 286,-578.9376 470,-578.9376 470,-555.9376 286,-555.9376"/>
<polygon fill="none" stroke="#000000" points="286,-555.9376 286,-578.9376 470,-578.9376 470,-555.9376 286,-555.9376"/>
<text text-anchor="start" x="291" y="-564.5376" font-family="Helvetica,sans-Serif" font-weight="bold" font-size="11.00" fill="#000000">identified_need_audit</text>
<text text-anchor="start" x="435.5219" y="-564.0376" font-family="Helvetica,sans-Serif" font-size="11.00" fill="#000000">[table]</text>
<polygon fill="none" stroke="#000000" points="286,-536.9376 286,-555.9376 470,-555.9376 470,-536.9376 286,-536.9376"/>
<text text-anchor="start" x="289" y="-543.0376" font-family="Helvetica,sans-Serif" font-size="11.00" fill="#000000">...</text>
<polygon fill="#ffffff" stroke="transparent" points="286,-517.9376 286,-536.9376 376,-536.9376 376,-517.9376 286,-517.9376"/>
<polygon fill="none" stroke="#000000" points="286,-517.9376 286,-536.9376 376,-536.9376 376,-517.9376 286,-517.9376"/>
<text text-anchor="start" x="289" y="-524.0376" font-family="Helvetica,sans-Serif" font-size="11.00" fill="#000000">&lt; 3</text>
<polygon fill="#ffffff" stroke="transparent" points="376,-517.9376 376,-536.9376 423,-536.9376 423,-517.9376 376,-517.9376"/>
<polygon fill="none" stroke="#000000" points="376,-517.9376 376,-536.9376 423,-536.9376 423,-517.9376 376,-517.9376"/>
<text text-anchor="start" x="413.8862" y="-524.0376" font-family="Helvetica,sans-Serif" font-size="11.00" fill="#000000"> &#160;</text>
<polygon fill="#ffffff" stroke="transparent" points="423,-517.9376 423,-536.9376 470,-536.9376 470,-517.9376 423,-517.9376"/>
<polygon fill="none" stroke="#000000" points="423,-517.9376 423,-536.9376 470,-536.9376 470,-517.9376 423,-517.9376"/>
<text text-anchor="start" x="460.8862" y="-524.0376" font-family="Helvetica,sans-Serif" font-size="11.00" fill="#000000"> &#160;</text>
</a>
</g>
</g>
<!-- identified_need_audit&#45;&gt;audit_revision -->
<g id="edge24" class="edge">
<title>identified_need_audit:w&#45;&gt;audit_revision:e</title>
<path fill="none" stroke="#000000" stroke-dasharray="5,2" d="M271.6148,-544.5034C244.7524,-543.8201 231.8316,-556.8357 215,-583.9376 189.7956,-624.5212 221.7733,-1011.9376 174,-1017.9376"/>
<polygon fill="#000000" stroke="#000000" points="278.0395,-545.1439 285.6428,-549.5199 282.0197,-545.5408 286,-545.9376 286,-545.9376 286,-545.9376 282.0197,-545.5408 286.3572,-542.3554 278.0395,-545.1439 278.0395,-545.1439"/>
<ellipse fill="none" stroke="#000000" cx="274.8553" cy="-544.8264" rx="3.2" ry="3.2"/>
</g>
<!-- identified_need_audit&#45;&gt;audit_revision -->
<g id="edge25" class="edge">
<title>identified_need_audit:w&#45;&gt;audit_revision:e</title>
<path fill="none" stroke="#000000" d="M271.6148,-549.2527C244.7524,-556.8201 231.8316,-569.8357 215,-596.9376 189.7956,-637.5212 221.7733,-1024.9376 174,-1017.9376"/>
<polygon fill="#000000" stroke="#000000" points="278.2043,-547.7342 286.8085,-549.4457 282.1022,-546.8359 286,-545.9376 286,-545.9376 286,-545.9376 282.1022,-546.8359 285.1915,-542.4296 278.2043,-547.7342 278.2043,-547.7342"/>
<ellipse fill="none" stroke="#000000" cx="275.0861" cy="-548.4528" rx="3.2" ry="3.2"/>
</g>
<!-- interview -->
<g id="node15" class="node">
<title>interview</title>
<g id="a_node15"><a xlink:href="../../tables/interview.html" xlink:title="interview" target="_top">
<polygon fill="#ffffff" stroke="transparent" points="1090,-118.9376 1090,-340.9376 1340,-340.9376 1340,-118.9376 1090,-118.9376"/>
<polygon fill="#f5f5f5" stroke="transparent" points="1092,-315.9376 1092,-338.9376 1338,-338.9376 1338,-315.9376 1092,-315.9376"/>
<polygon fill="none" stroke="#000000" points="1092,-315.9376 1092,-338.9376 1338,-338.9376 1338,-315.9376 1092,-315.9376"/>
<text text-anchor="start" x="1097" y="-324.5376" font-family="Helvetica,sans-Serif" font-weight="bold" font-size="11.00" fill="#000000">interview</text>
<text text-anchor="start" x="1303.0437" y="-324.0376" font-family="Helvetica,sans-Serif" font-size="11.00" fill="#000000">[table]</text>
<polygon fill="none" stroke="#000000" points="1092,-293.9376 1092,-315.9376 1244,-315.9376 1244,-293.9376 1092,-293.9376"/>
<image xlink:href="../../images/primaryKeys.png" width="11px" height="12px" preserveAspectRatio="xMinYMin meet" x="1097" y="-310.938"/>
<text text-anchor="start" x="1112" y="-301.0376" font-family="Helvetica,sans-Serif" font-size="11.00" fill="#000000">interview_id</text>
<polygon fill="none" stroke="#000000" points="1244,-293.9376 1244,-315.9376 1338,-315.9376 1338,-293.9376 1244,-293.9376"/>
<text text-anchor="start" x="1246.9758" y="-301.6376" font-family="Helvetica,sans-Serif" font-size="11.00" fill="#000000">uuid[2147483647]</text>
<polygon fill="#ffffff" stroke="transparent" points="1092,-271.9376 1092,-293.9376 1244,-293.9376 1244,-271.9376 1092,-271.9376"/>
<polygon fill="none" stroke="#000000" points="1092,-271.9376 1092,-293.9376 1244,-293.9376 1244,-271.9376 1092,-271.9376"/>
<image xlink:href="../../images/foreignKeys.png" width="11px" height="12px" preserveAspectRatio="xMinYMin meet" x="1097" y="-288.938"/>
<text text-anchor="start" x="1112" y="-279.0376" font-family="Helvetica,sans-Serif" font-size="11.00" fill="#000000">investigation_id</text>
<polygon fill="none" stroke="#000000" points="1244,-271.9376 1244,-293.9376 1338,-293.9376 1338,-271.9376 1244,-271.9376"/>
<text text-anchor="start" x="1246.9758" y="-279.6376" font-family="Helvetica,sans-Serif" font-size="11.00" fill="#000000">uuid[2147483647]</text>
<polygon fill="none" stroke="#000000" points="1092,-249.9376 1092,-271.9376 1244,-271.9376 1244,-249.9376 1092,-249.9376"/>
<text text-anchor="start" x="1112" y="-257.0376" font-family="Helvetica,sans-Serif" font-size="11.00" fill="#000000">interviewee</text>
<polygon fill="none" stroke="#000000" points="1244,-249.9376 1244,-271.9376 1338,-271.9376 1338,-249.9376 1244,-249.9376"/>
<text text-anchor="start" x="1247" y="-257.6376" font-family="Helvetica,sans-Serif" font-size="11.00" fill="#000000">varchar[100]</text>
<polygon fill="none" stroke="#000000" points="1092,-227.9376 1092,-249.9376 1244,-249.9376 1244,-227.9376 1092,-227.9376"/>
<text text-anchor="start" x="1112" y="-235.0376" font-family="Helvetica,sans-Serif" font-size="11.00" fill="#000000">interview_date</text>
<polygon fill="none" stroke="#000000" points="1244,-227.9376 1244,-249.9376 1338,-249.9376 1338,-227.9376 1244,-227.9376"/>
<text text-anchor="start" x="1247" y="-235.6376" font-family="Helvetica,sans-Serif" font-size="11.00" fill="#000000">date[13]</text>
<polygon fill="#ffffff" stroke="transparent" points="1092,-205.9376 1092,-227.9376 1244,-227.9376 1244,-205.9376 1092,-205.9376"/>
<polygon fill="none" stroke="#000000" points="1092,-205.9376 1092,-227.9376 1244,-227.9376 1244,-205.9376 1092,-205.9376"/>
<image xlink:href="../../images/foreignKeys.png" width="11px" height="12px" preserveAspectRatio="xMinYMin meet" x="1097" y="-222.938"/>
<text text-anchor="start" x="1112" y="-213.0376" font-family="Helvetica,sans-Serif" font-size="11.00" fill="#000000">interviewee_role_id</text>
<polygon fill="none" stroke="#000000" points="1244,-205.9376 1244,-227.9376 1338,-227.9376 1338,-205.9376 1244,-205.9376"/>
<text text-anchor="start" x="1247" y="-213.6376" font-family="Helvetica,sans-Serif" font-size="11.00" fill="#000000">int4[10]</text>
<polygon fill="none" stroke="#000000" points="1092,-183.9376 1092,-205.9376 1244,-205.9376 1244,-183.9376 1092,-183.9376"/>
<text text-anchor="start" x="1112" y="-191.0376" font-family="Helvetica,sans-Serif" font-size="11.00" fill="#000000">interview_text</text>
<polygon fill="none" stroke="#000000" points="1244,-183.9376 1244,-205.9376 1338,-205.9376 1338,-183.9376 1244,-183.9376"/>
<text text-anchor="start" x="1247" y="-191.6376" font-family="Helvetica,sans-Serif" font-size="11.00" fill="#000000">text[2147483647]</text>
<polygon fill="none" stroke="#000000" points="1092,-161.9376 1092,-183.9376 1244,-183.9376 1244,-161.9376 1092,-161.9376"/>
<text text-anchor="start" x="1112" y="-169.0376" font-family="Helvetica,sans-Serif" font-size="11.00" fill="#000000">version</text>
<polygon fill="none" stroke="#000000" points="1244,-161.9376 1244,-183.9376 1338,-183.9376 1338,-161.9376 1244,-161.9376"/>
<text text-anchor="start" x="1247" y="-169.6376" font-family="Helvetica,sans-Serif" font-size="11.00" fill="#000000">int4[10]</text>
<polygon fill="#ffffff" stroke="transparent" points="1092,-139.9376 1092,-161.9376 1244,-161.9376 1244,-139.9376 1092,-139.9376"/>
<polygon fill="none" stroke="#000000" points="1092,-139.9376 1092,-161.9376 1244,-161.9376 1244,-139.9376 1092,-139.9376"/>
<image xlink:href="../../images/foreignKeys.png" width="11px" height="12px" preserveAspectRatio="xMinYMin meet" x="1097" y="-156.938"/>
<text text-anchor="start" x="1112" y="-147.0376" font-family="Helvetica,sans-Serif" font-size="11.00" fill="#000000">legacy_id</text>
<polygon fill="none" stroke="#000000" points="1244,-139.9376 1244,-161.9376 1338,-161.9376 1338,-139.9376 1244,-139.9376"/>
<text text-anchor="start" x="1247" y="-147.6376" font-family="Helvetica,sans-Serif" font-size="11.00" fill="#000000">int8[19]</text>
<polygon fill="#ffffff" stroke="transparent" points="1092,-120.9376 1092,-139.9376 1172,-139.9376 1172,-120.9376 1092,-120.9376"/>
<polygon fill="none" stroke="#000000" points="1092,-120.9376 1092,-139.9376 1172,-139.9376 1172,-120.9376 1092,-120.9376"/>
<text text-anchor="start" x="1095" y="-127.0376" font-family="Helvetica,sans-Serif" font-size="11.00" fill="#000000">&lt; 3</text>
<polygon fill="#ffffff" stroke="transparent" points="1172,-120.9376 1172,-139.9376 1244,-139.9376 1244,-120.9376 1172,-120.9376"/>
<polygon fill="none" stroke="#000000" points="1172,-120.9376 1172,-139.9376 1244,-139.9376 1244,-120.9376 1172,-120.9376"/>
<text text-anchor="start" x="1234.8862" y="-127.0376" font-family="Helvetica,sans-Serif" font-size="11.00" fill="#000000"> &#160;</text>
<polygon fill="#ffffff" stroke="transparent" points="1244,-120.9376 1244,-139.9376 1338,-139.9376 1338,-120.9376 1244,-120.9376"/>
<polygon fill="none" stroke="#000000" points="1244,-120.9376 1244,-139.9376 1338,-139.9376 1338,-120.9376 1244,-120.9376"/>
<text text-anchor="start" x="1319.4053" y="-127.0376" font-family="Helvetica,sans-Serif" font-size="11.00" fill="#000000">0 &gt;</text>
<polygon fill="none" stroke="#000000" stroke-width="2" points="1091,-119.9376 1091,-339.9376 1339,-339.9376 1339,-119.9376 1091,-119.9376"/>
</a>
</g>
</g>
<!-- interview&#45;&gt;audit_revision -->
<g id="edge28" class="edge">
<title>interview:w&#45;&gt;audit_revision:e</title>
<path fill="none" stroke="#000000" stroke-dasharray="5,2" d="M1081.8708,-153.7412C1041.1,-179.4635 1090.2102,-374.3203 1049,-409.9376 908.7546,-531.1494 349.3078,-298.1781 215,-425.9376 167.2266,-471.3818 239.9353,-1017.9376 174,-1017.9376"/>
<polygon fill="#000000" stroke="#000000" points="1090.162,-147.296 1092.296,-155.0061 1090.754,-155.4329 1088.6199,-147.7228 1090.162,-147.296"/>
<polyline fill="none" stroke="#000000" points="1092,-150.9376 1088.1449,-152.0047 "/>
<ellipse fill="none" stroke="#000000" cx="1085.0609" cy="-152.8583" rx="3.2" ry="3.2"/>
</g>
<!-- interview&#45;&gt;reference_data -->
<g id="edge26" class="edge">
<title>interview:w&#45;&gt;reference_data:e</title>
<path fill="none" stroke="#000000" d="M1077.9366,-212.844C1061.3174,-199.6304 1076.792,-158.0393 1049,-141.9376 994.1996,-110.1882 827.26,-138.8912 764,-141.9376 519.1494,-153.7291 445.0321,-110.2257 215,-194.9376 188.0421,-204.8652 190.7278,-231.9376 162,-231.9376"/>
<polygon fill="#000000" stroke="#000000" points="1084.3188,-214.7017 1090.9938,-220.3942 1088.1594,-215.8197 1092,-216.9376 1092,-216.9376 1092,-216.9376 1088.1594,-215.8197 1093.0062,-213.4811 1084.3188,-214.7017 1084.3188,-214.7017"/>
<ellipse fill="none" stroke="#000000" cx="1081.2463" cy="-213.8074" rx="3.2" ry="3.2"/>
</g>
<!-- investigation -->
<g id="node16" class="node">
<title>investigation</title>
<g id="a_node16"><a xlink:href="../../tables/investigation.html" xlink:title="investigation" target="_top">
<polygon fill="#ffffff" stroke="transparent" points="806,-234.4376 806,-317.4376 1007,-317.4376 1007,-234.4376 806,-234.4376"/>
<polygon fill="#f5f5f5" stroke="transparent" points="806.5,-293.9376 806.5,-316.9376 1007.5,-316.9376 1007.5,-293.9376 806.5,-293.9376"/>
<polygon fill="none" stroke="#000000" points="806.5,-293.9376 806.5,-316.9376 1007.5,-316.9376 1007.5,-293.9376 806.5,-293.9376"/>
<text text-anchor="start" x="811.5" y="-302.5376" font-family="Helvetica,sans-Serif" font-weight="bold" font-size="11.00" fill="#000000">investigation</text>
<text text-anchor="start" x="972.5437" y="-302.0376" font-family="Helvetica,sans-Serif" font-size="11.00" fill="#000000">[table]</text>
<polygon fill="none" stroke="#000000" points="806.5,-271.9376 806.5,-293.9376 1007.5,-293.9376 1007.5,-271.9376 806.5,-271.9376"/>
<image xlink:href="../../images/primaryKeys.png" width="11px" height="12px" preserveAspectRatio="xMinYMin meet" x="811.5" y="-288.938"/>
<text text-anchor="start" x="826.5" y="-279.0376" font-family="Helvetica,sans-Serif" font-size="11.00" fill="#000000">investigation_id</text>
<polygon fill="none" stroke="#000000" points="806.5,-252.9376 806.5,-271.9376 1007.5,-271.9376 1007.5,-252.9376 806.5,-252.9376"/>
<text text-anchor="start" x="809.5" y="-259.0376" font-family="Helvetica,sans-Serif" font-size="11.00" fill="#000000">...</text>
<polygon fill="#ffffff" stroke="transparent" points="806.5,-233.9376 806.5,-252.9376 900.5,-252.9376 900.5,-233.9376 806.5,-233.9376"/>
<polygon fill="none" stroke="#000000" points="806.5,-233.9376 806.5,-252.9376 900.5,-252.9376 900.5,-233.9376 806.5,-233.9376"/>
<text text-anchor="start" x="809.5" y="-240.0376" font-family="Helvetica,sans-Serif" font-size="11.00" fill="#000000">&lt; 1</text>
<polygon fill="#ffffff" stroke="transparent" points="900.5,-233.9376 900.5,-252.9376 949.5,-252.9376 949.5,-233.9376 900.5,-233.9376"/>
<polygon fill="none" stroke="#000000" points="900.5,-233.9376 900.5,-252.9376 949.5,-252.9376 949.5,-233.9376 900.5,-233.9376"/>
<text text-anchor="start" x="940.3862" y="-240.0376" font-family="Helvetica,sans-Serif" font-size="11.00" fill="#000000"> &#160;</text>
<polygon fill="#ffffff" stroke="transparent" points="949.5,-233.9376 949.5,-252.9376 1007.5,-252.9376 1007.5,-233.9376 949.5,-233.9376"/>
<polygon fill="none" stroke="#000000" points="949.5,-233.9376 949.5,-252.9376 1007.5,-252.9376 1007.5,-233.9376 949.5,-233.9376"/>
<text text-anchor="start" x="988.9053" y="-240.0376" font-family="Helvetica,sans-Serif" font-size="11.00" fill="#000000">2 &gt;</text>
</a>
</g>
</g>
<!-- interview&#45;&gt;investigation -->
<g id="edge27" class="edge">
<title>interview:w&#45;&gt;investigation:e</title>
<path fill="none" stroke="#000000" d="M1077.3112,-282.9376C1051.1421,-282.9376 1039.6276,-282.9376 1007.5,-282.9376"/>
<polygon fill="#000000" stroke="#000000" points="1084,-282.9377 1092,-286.5376 1088,-282.9377 1092,-282.9376 1092,-282.9376 1092,-282.9376 1088,-282.9377 1092,-279.3376 1084,-282.9377 1084,-282.9377"/>
<ellipse fill="none" stroke="#000000" cx="1080.8" cy="-282.9377" rx="3.2" ry="3.2"/>
</g>
<!-- investigation&#45;&gt;referral -->
<g id="edge33" class="edge">
<title>investigation:w&#45;&gt;referral:e</title>
<path fill="none" stroke="#000000" d="M795.9454,-282.2167C752.4752,-276.0179 747.2243,-231.9376 697.5,-231.9376"/>
<polygon fill="#000000" stroke="#000000" points="805.9745,-278.8924 805.4292,-286.8738 803.833,-286.7648 804.3782,-278.7834 805.9745,-278.8924"/>
<polyline fill="none" stroke="#000000" points="806.5,-282.9376 802.5093,-282.665 "/>
<ellipse fill="none" stroke="#000000" cx="799.3167" cy="-282.4469" rx="3.2" ry="3.2"/>
</g>
<!-- interview_audit -->
<g id="node17" class="node">
<title>interview_audit</title>
<g id="a_node17"><a xlink:href="../../tables/interview_audit.html" xlink:title="interview_audit" target="_top">
<polygon fill="#ffffff" stroke="transparent" points="1143.5,-1061.4376 1143.5,-1122.4376 1286.5,-1122.4376 1286.5,-1061.4376 1143.5,-1061.4376"/>
<polygon fill="#f5f5f5" stroke="transparent" points="1144,-1098.9376 1144,-1121.9376 1287,-1121.9376 1287,-1098.9376 1144,-1098.9376"/>
<polygon fill="none" stroke="#000000" points="1144,-1098.9376 1144,-1121.9376 1287,-1121.9376 1287,-1098.9376 1144,-1098.9376"/>
<text text-anchor="start" x="1149" y="-1107.5376" font-family="Helvetica,sans-Serif" font-weight="bold" font-size="11.00" fill="#000000">interview_audit</text>
<text text-anchor="start" x="1252.5219" y="-1107.0376" font-family="Helvetica,sans-Serif" font-size="11.00" fill="#000000">[table]</text>
<polygon fill="none" stroke="#000000" points="1144,-1079.9376 1144,-1098.9376 1287,-1098.9376 1287,-1079.9376 1144,-1079.9376"/>
<text text-anchor="start" x="1147" y="-1086.0376" font-family="Helvetica,sans-Serif" font-size="11.00" fill="#000000">...</text>
<polygon fill="#ffffff" stroke="transparent" points="1144,-1060.9376 1144,-1079.9376 1214,-1079.9376 1214,-1060.9376 1144,-1060.9376"/>
<polygon fill="none" stroke="#000000" points="1144,-1060.9376 1144,-1079.9376 1214,-1079.9376 1214,-1060.9376 1144,-1060.9376"/>
<text text-anchor="start" x="1147" y="-1067.0376" font-family="Helvetica,sans-Serif" font-size="11.00" fill="#000000">&lt; 4</text>
<polygon fill="#ffffff" stroke="transparent" points="1214,-1060.9376 1214,-1079.9376 1250,-1079.9376 1250,-1060.9376 1214,-1060.9376"/>
<polygon fill="none" stroke="#000000" points="1214,-1060.9376 1214,-1079.9376 1250,-1079.9376 1250,-1060.9376 1214,-1060.9376"/>
<text text-anchor="start" x="1240.8862" y="-1067.0376" font-family="Helvetica,sans-Serif" font-size="11.00" fill="#000000"> &#160;</text>
<polygon fill="#ffffff" stroke="transparent" points="1250,-1060.9376 1250,-1079.9376 1287,-1079.9376 1287,-1060.9376 1250,-1060.9376"/>
<polygon fill="none" stroke="#000000" points="1250,-1060.9376 1250,-1079.9376 1287,-1079.9376 1287,-1060.9376 1250,-1060.9376"/>
<text text-anchor="start" x="1277.8862" y="-1067.0376" font-family="Helvetica,sans-Serif" font-size="11.00" fill="#000000"> &#160;</text>
</a>
</g>
</g>
<!-- interview_audit&#45;&gt;audit_revision -->
<g id="edge29" class="edge">
<title>interview_audit:w&#45;&gt;audit_revision:e</title>
<path fill="none" stroke="#000000" stroke-dasharray="5,2" d="M1129.5853,-1088.9629C727.7484,-1090.3743 608.53,-1149.9487 215,-1039.9376 195.0838,-1034.3701 194.6798,-1017.9376 174,-1017.9376"/>
<polygon fill="#000000" stroke="#000000" points="1136,-1088.9517 1144.0063,-1092.5376 1140,-1088.9447 1144,-1088.9376 1144,-1088.9376 1144,-1088.9376 1140,-1088.9447 1143.9937,-1085.3376 1136,-1088.9517 1136,-1088.9517"/>
<ellipse fill="none" stroke="#000000" cx="1132.8" cy="-1088.9574" rx="3.2" ry="3.2"/>
</g>
<!-- interview_audit&#45;&gt;audit_revision -->
<g id="edge31" class="edge">
<title>interview_audit:w&#45;&gt;audit_revision:e</title>
<path fill="none" stroke="#000000" stroke-dasharray="5,2" d="M1129.5835,-1088.7468C727.7451,-1083.9363 612.4478,-1125.2385 215,-1029.9376 195.6476,-1025.2973 193.901,-1011.9376 174,-1017.9376"/>
<polygon fill="#000000" stroke="#000000" points="1136.0007,-1088.8317 1143.9523,-1092.5373 1140.0004,-1088.8846 1144,-1088.9376 1144,-1088.9376 1144,-1088.9376 1140.0004,-1088.8846 1144.0477,-1085.3379 1136.0007,-1088.8317 1136.0007,-1088.8317"/>
<ellipse fill="none" stroke="#000000" cx="1132.801" cy="-1088.7893" rx="3.2" ry="3.2"/>
</g>
<!-- interview_audit&#45;&gt;audit_revision -->
<g id="edge32" class="edge">
<title>interview_audit:w&#45;&gt;audit_revision:e</title>
<path fill="none" stroke="#000000" d="M1129.5835,-1089.1985C727.7451,-1096.9363 612.4478,-1138.2385 215,-1042.9376 195.6476,-1038.2973 193.901,-1024.9376 174,-1017.9376"/>
<polygon fill="#000000" stroke="#000000" points="1136.0013,-1089.0824 1144.0651,-1092.537 1140.0007,-1089.01 1144,-1088.9376 1144,-1088.9376 1144,-1088.9376 1140.0007,-1089.01 1143.9349,-1085.3382 1136.0013,-1089.0824 1136.0013,-1089.0824"/>
<ellipse fill="none" stroke="#000000" cx="1132.8018" cy="-1089.1403" rx="3.2" ry="3.2"/>
</g>
<!-- interview_audit&#45;&gt;investigation -->
<g id="edge30" class="edge">
<title>interview_audit:w&#45;&gt;investigation:e</title>
<path fill="none" stroke="#000000" stroke-dasharray="5,2" d="M1129.5302,-1087.0349C974.8583,-1043.9317 1184.0168,-282.9376 1007.5,-282.9376"/>
<polygon fill="#000000" stroke="#000000" points="1136.0683,-1087.8946 1143.5306,-1092.5069 1140.0341,-1088.4161 1144,-1088.9376 1144,-1088.9376 1144,-1088.9376 1140.0341,-1088.4161 1144.4694,-1085.3684 1136.0683,-1087.8946 1136.0683,-1087.8946"/>
<ellipse fill="none" stroke="#000000" cx="1132.8956" cy="-1087.4774" rx="3.2" ry="3.2"/>
</g>
<!-- investigation_audit -->
<g id="node18" class="node">
<title>investigation_audit</title>
<g id="a_node18"><a xlink:href="../../tables/investigation_audit.html" xlink:title="investigation_audit" target="_top">
<polygon fill="#ffffff" stroke="transparent" points="293.5,-436.4376 293.5,-497.4376 462.5,-497.4376 462.5,-436.4376 293.5,-436.4376"/>
<polygon fill="#f5f5f5" stroke="transparent" points="294,-473.9376 294,-496.9376 463,-496.9376 463,-473.9376 294,-473.9376"/>
<polygon fill="none" stroke="#000000" points="294,-473.9376 294,-496.9376 463,-496.9376 463,-473.9376 294,-473.9376"/>
<text text-anchor="start" x="299" y="-482.5376" font-family="Helvetica,sans-Serif" font-weight="bold" font-size="11.00" fill="#000000">investigation_audit</text>
<text text-anchor="start" x="428.5219" y="-482.0376" font-family="Helvetica,sans-Serif" font-size="11.00" fill="#000000">[table]</text>
<polygon fill="none" stroke="#000000" points="294,-454.9376 294,-473.9376 463,-473.9376 463,-454.9376 294,-454.9376"/>
<text text-anchor="start" x="297" y="-461.0376" font-family="Helvetica,sans-Serif" font-size="11.00" fill="#000000">...</text>
<polygon fill="#ffffff" stroke="transparent" points="294,-435.9376 294,-454.9376 377,-454.9376 377,-435.9376 294,-435.9376"/>
<polygon fill="none" stroke="#000000" points="294,-435.9376 294,-454.9376 377,-454.9376 377,-435.9376 294,-435.9376"/>
<text text-anchor="start" x="297" y="-442.0376" font-family="Helvetica,sans-Serif" font-size="11.00" fill="#000000">&lt; 1</text>
<polygon fill="#ffffff" stroke="transparent" points="377,-435.9376 377,-454.9376 420,-454.9376 420,-435.9376 377,-435.9376"/>
<polygon fill="none" stroke="#000000" points="377,-435.9376 377,-454.9376 420,-454.9376 420,-435.9376 377,-435.9376"/>
<text text-anchor="start" x="410.8862" y="-442.0376" font-family="Helvetica,sans-Serif" font-size="11.00" fill="#000000"> &#160;</text>
<polygon fill="#ffffff" stroke="transparent" points="420,-435.9376 420,-454.9376 463,-454.9376 463,-435.9376 420,-435.9376"/>
<polygon fill="none" stroke="#000000" points="420,-435.9376 420,-454.9376 463,-454.9376 463,-435.9376 420,-435.9376"/>
<text text-anchor="start" x="453.8862" y="-442.0376" font-family="Helvetica,sans-Serif" font-size="11.00" fill="#000000"> &#160;</text>
</a>
</g>
</g>
<!-- investigation_audit&#45;&gt;audit_revision -->
<g id="edge34" class="edge">
<title>investigation_audit:w&#45;&gt;audit_revision:e</title>
<path fill="none" stroke="#000000" d="M279.5507,-464.4746C249.3308,-466.9584 233.9338,-478.4904 215,-507.9376 184.2542,-555.7556 230.8495,-1017.9376 174,-1017.9376"/>
<polygon fill="#000000" stroke="#000000" points="286.0055,-464.2348 294.1337,-467.5351 290.0028,-464.0862 294,-463.9376 294,-463.9376 294,-463.9376 290.0028,-464.0862 293.8663,-460.3401 286.0055,-464.2348 286.0055,-464.2348"/>
<ellipse fill="none" stroke="#000000" cx="282.8077" cy="-464.3536" rx="3.2" ry="3.2"/>
</g>
<!-- plan_audit -->
<g id="node19" class="node">
<title>plan_audit</title>
<g id="a_node19"><a xlink:href="../../tables/plan_audit.html" xlink:title="plan_audit" target="_top">
<polygon fill="#ffffff" stroke="transparent" points="323.5,-1371.4376 323.5,-1432.4376 432.5,-1432.4376 432.5,-1371.4376 323.5,-1371.4376"/>
<polygon fill="#f5f5f5" stroke="transparent" points="324,-1408.9376 324,-1431.9376 433,-1431.9376 433,-1408.9376 324,-1408.9376"/>
<polygon fill="none" stroke="#000000" points="324,-1408.9376 324,-1431.9376 433,-1431.9376 433,-1408.9376 324,-1408.9376"/>
<text text-anchor="start" x="329" y="-1417.5376" font-family="Helvetica,sans-Serif" font-weight="bold" font-size="11.00" fill="#000000">plan_audit</text>
<text text-anchor="start" x="398.5219" y="-1417.0376" font-family="Helvetica,sans-Serif" font-size="11.00" fill="#000000">[table]</text>
<polygon fill="none" stroke="#000000" points="324,-1389.9376 324,-1408.9376 433,-1408.9376 433,-1389.9376 324,-1389.9376"/>
<text text-anchor="start" x="327" y="-1396.0376" font-family="Helvetica,sans-Serif" font-size="11.00" fill="#000000">...</text>
<polygon fill="#ffffff" stroke="transparent" points="324,-1370.9376 324,-1389.9376 377,-1389.9376 377,-1370.9376 324,-1370.9376"/>
<polygon fill="none" stroke="#000000" points="324,-1370.9376 324,-1389.9376 377,-1389.9376 377,-1370.9376 324,-1370.9376"/>
<text text-anchor="start" x="327" y="-1377.0376" font-family="Helvetica,sans-Serif" font-size="11.00" fill="#000000">&lt; 1</text>
<polygon fill="#ffffff" stroke="transparent" points="377,-1370.9376 377,-1389.9376 405,-1389.9376 405,-1370.9376 377,-1370.9376"/>
<polygon fill="none" stroke="#000000" points="377,-1370.9376 377,-1389.9376 405,-1389.9376 405,-1370.9376 377,-1370.9376"/>
<text text-anchor="start" x="395.8862" y="-1377.0376" font-family="Helvetica,sans-Serif" font-size="11.00" fill="#000000"> &#160;</text>
<polygon fill="#ffffff" stroke="transparent" points="405,-1370.9376 405,-1389.9376 433,-1389.9376 433,-1370.9376 405,-1370.9376"/>
<polygon fill="none" stroke="#000000" points="405,-1370.9376 405,-1389.9376 433,-1389.9376 433,-1370.9376 405,-1370.9376"/>
<text text-anchor="start" x="423.8862" y="-1377.0376" font-family="Helvetica,sans-Serif" font-size="11.00" fill="#000000"> &#160;</text>
</a>
</g>
</g>
<!-- plan_audit&#45;&gt;audit_revision -->
<g id="edge35" class="edge">
<title>plan_audit:w&#45;&gt;audit_revision:e</title>
<path fill="none" stroke="#000000" d="M309.4036,-1398.9533C267.5405,-1398.9165 243.9441,-1396.9389 215,-1360.9376 166.9006,-1301.1105 250.7648,-1017.9376 174,-1017.9376"/>
<polygon fill="#000000" stroke="#000000" points="316,-1398.9462 324.0039,-1402.5376 320,-1398.9419 324,-1398.9376 324,-1398.9376 324,-1398.9376 320,-1398.9419 323.9961,-1395.3376 316,-1398.9462 316,-1398.9462"/>
<ellipse fill="none" stroke="#000000" cx="312.8" cy="-1398.9497" rx="3.2" ry="3.2"/>
</g>
<!-- referral_audit -->
<g id="node20" class="node">
<title>referral_audit</title>
<g id="a_node20"><a xlink:href="../../tables/referral_audit.html" xlink:title="referral_audit" target="_top">
<polygon fill="#ffffff" stroke="transparent" points="312.5,-1289.4376 312.5,-1350.4376 443.5,-1350.4376 443.5,-1289.4376 312.5,-1289.4376"/>
<polygon fill="#f5f5f5" stroke="transparent" points="313,-1326.9376 313,-1349.9376 444,-1349.9376 444,-1326.9376 313,-1326.9376"/>
<polygon fill="none" stroke="#000000" points="313,-1326.9376 313,-1349.9376 444,-1349.9376 444,-1326.9376 313,-1326.9376"/>
<text text-anchor="start" x="318" y="-1335.5376" font-family="Helvetica,sans-Serif" font-weight="bold" font-size="11.00" fill="#000000">referral_audit</text>
<text text-anchor="start" x="409.5219" y="-1335.0376" font-family="Helvetica,sans-Serif" font-size="11.00" fill="#000000">[table]</text>
<polygon fill="none" stroke="#000000" points="313,-1307.9376 313,-1326.9376 444,-1326.9376 444,-1307.9376 313,-1307.9376"/>
<text text-anchor="start" x="316" y="-1314.0376" font-family="Helvetica,sans-Serif" font-size="11.00" fill="#000000">...</text>
<polygon fill="#ffffff" stroke="transparent" points="313,-1288.9376 313,-1307.9376 377,-1307.9376 377,-1288.9376 313,-1288.9376"/>
<polygon fill="none" stroke="#000000" points="313,-1288.9376 313,-1307.9376 377,-1307.9376 377,-1288.9376 313,-1288.9376"/>
<text text-anchor="start" x="316" y="-1295.0376" font-family="Helvetica,sans-Serif" font-size="11.00" fill="#000000">&lt; 5</text>
<polygon fill="#ffffff" stroke="transparent" points="377,-1288.9376 377,-1307.9376 410,-1307.9376 410,-1288.9376 377,-1288.9376"/>
<polygon fill="none" stroke="#000000" points="377,-1288.9376 377,-1307.9376 410,-1307.9376 410,-1288.9376 377,-1288.9376"/>
<text text-anchor="start" x="400.8862" y="-1295.0376" font-family="Helvetica,sans-Serif" font-size="11.00" fill="#000000"> &#160;</text>
<polygon fill="#ffffff" stroke="transparent" points="410,-1288.9376 410,-1307.9376 444,-1307.9376 444,-1288.9376 410,-1288.9376"/>
<polygon fill="none" stroke="#000000" points="410,-1288.9376 410,-1307.9376 444,-1307.9376 444,-1288.9376 410,-1288.9376"/>
<text text-anchor="start" x="434.8862" y="-1295.0376" font-family="Helvetica,sans-Serif" font-size="11.00" fill="#000000"> &#160;</text>
</a>
</g>
</g>
<!-- referral_audit&#45;&gt;audit_revision -->
<g id="edge41" class="edge">
<title>referral_audit:w&#45;&gt;audit_revision:e</title>
<path fill="none" stroke="#000000" stroke-dasharray="5,2" d="M299.9919,-1309.9627C261.9236,-1290.2885 241.4517,-1285.7585 215,-1252.9376 178.158,-1207.2246 232.7113,-991.9376 174,-1017.9376"/>
<polygon fill="#000000" stroke="#000000" points="305.9496,-1313.1572 311.2988,-1320.1103 309.4748,-1315.0474 313,-1316.9376 313,-1316.9376 313,-1316.9376 309.4748,-1315.0474 314.7012,-1313.7649 305.9496,-1313.1572 305.9496,-1313.1572"/>
<ellipse fill="none" stroke="#000000" cx="303.1294" cy="-1311.645" rx="3.2" ry="3.2"/>
</g>
<!-- referral_audit&#45;&gt;audit_revision -->
<g id="edge42" class="edge">
<title>referral_audit:w&#45;&gt;audit_revision:e</title>
<path fill="none" stroke="#000000" stroke-dasharray="5,2" d="M299.0071,-1313.1498C261.5686,-1303.2079 241.2226,-1298.4743 215,-1265.9376 178.158,-1220.2246 232.7113,-1004.9376 174,-1017.9376"/>
<polygon fill="#000000" stroke="#000000" points="305.2779,-1314.8472 312.0593,-1320.4126 309.139,-1315.8924 313,-1316.9376 313,-1316.9376 313,-1316.9376 309.139,-1315.8924 313.9407,-1313.4627 305.2779,-1314.8472 305.2779,-1314.8472"/>
<ellipse fill="none" stroke="#000000" cx="302.1891" cy="-1314.0111" rx="3.2" ry="3.2"/>
</g>
<!-- referral_audit&#45;&gt;audit_revision -->
<g id="edge43" class="edge">
<title>referral_audit:w&#45;&gt;audit_revision:e</title>
<path fill="none" stroke="#000000" stroke-dasharray="5,2" d="M298.5176,-1316.8359C261.3908,-1316.166 241.1081,-1311.3322 215,-1278.9376 178.158,-1233.2246 232.7113,-1017.9376 174,-1017.9376"/>
<polygon fill="#000000" stroke="#000000" points="305.0002,-1316.8814 312.9747,-1320.5375 309.0001,-1316.9095 313,-1316.9376 313,-1316.9376 313,-1316.9376 309.0001,-1316.9095 313.0253,-1313.3377 305.0002,-1316.8814 305.0002,-1316.8814"/>
<ellipse fill="none" stroke="#000000" cx="301.8003" cy="-1316.8589" rx="3.2" ry="3.2"/>
</g>
<!-- referral_audit&#45;&gt;audit_revision -->
<g id="edge44" class="edge">
<title>referral_audit:w&#45;&gt;audit_revision:e</title>
<path fill="none" stroke="#000000" stroke-dasharray="5,2" d="M299.0071,-1320.5392C261.5686,-1329.2079 241.2226,-1324.4743 215,-1291.9376 178.158,-1246.2246 232.7113,-1030.9376 174,-1017.9376"/>
<polygon fill="#000000" stroke="#000000" points="305.2525,-1318.9318 313.8974,-1320.424 309.1263,-1317.9347 313,-1316.9376 313,-1316.9376 313,-1316.9376 309.1263,-1317.9347 312.1026,-1313.4513 305.2525,-1318.9318 305.2525,-1318.9318"/>
<ellipse fill="none" stroke="#000000" cx="302.1535" cy="-1319.7294" rx="3.2" ry="3.2"/>
</g>
<!-- referral_audit&#45;&gt;audit_revision -->
<g id="edge45" class="edge">
<title>referral_audit:w&#45;&gt;audit_revision:e</title>
<path fill="none" stroke="#000000" d="M299.9919,-1323.7578C261.9236,-1342.2885 241.4517,-1337.7585 215,-1304.9376 178.158,-1259.2246 232.7113,-1043.9376 174,-1017.9376"/>
<polygon fill="#000000" stroke="#000000" points="305.9148,-1320.6525 314.6717,-1320.126 309.4574,-1318.795 313,-1316.9376 313,-1316.9376 313,-1316.9376 309.4574,-1318.795 311.3283,-1313.7493 305.9148,-1320.6525 305.9148,-1320.6525"/>
<ellipse fill="none" stroke="#000000" cx="303.0807" cy="-1322.1384" rx="3.2" ry="3.2"/>
</g>
<!-- review_audit -->
<g id="node21" class="node">
<title>review_audit</title>
<g id="a_node21"><a xlink:href="../../tables/review_audit.html" xlink:title="review_audit" target="_top">
<polygon fill="#ffffff" stroke="transparent" points="315.5,-1207.4376 315.5,-1268.4376 440.5,-1268.4376 440.5,-1207.4376 315.5,-1207.4376"/>
<polygon fill="#f5f5f5" stroke="transparent" points="316,-1244.9376 316,-1267.9376 441,-1267.9376 441,-1244.9376 316,-1244.9376"/>
<polygon fill="none" stroke="#000000" points="316,-1244.9376 316,-1267.9376 441,-1267.9376 441,-1244.9376 316,-1244.9376"/>
<text text-anchor="start" x="321" y="-1253.5376" font-family="Helvetica,sans-Serif" font-weight="bold" font-size="11.00" fill="#000000">review_audit</text>
<text text-anchor="start" x="406.5219" y="-1253.0376" font-family="Helvetica,sans-Serif" font-size="11.00" fill="#000000">[table]</text>
<polygon fill="none" stroke="#000000" points="316,-1225.9376 316,-1244.9376 441,-1244.9376 441,-1225.9376 316,-1225.9376"/>
<text text-anchor="start" x="319" y="-1232.0376" font-family="Helvetica,sans-Serif" font-size="11.00" fill="#000000">...</text>
<polygon fill="#ffffff" stroke="transparent" points="316,-1206.9376 316,-1225.9376 377,-1225.9376 377,-1206.9376 316,-1206.9376"/>
<polygon fill="none" stroke="#000000" points="316,-1206.9376 316,-1225.9376 377,-1225.9376 377,-1206.9376 316,-1206.9376"/>
<text text-anchor="start" x="319" y="-1213.0376" font-family="Helvetica,sans-Serif" font-size="11.00" fill="#000000">&lt; 3</text>
<polygon fill="#ffffff" stroke="transparent" points="377,-1206.9376 377,-1225.9376 409,-1225.9376 409,-1206.9376 377,-1206.9376"/>
<polygon fill="none" stroke="#000000" points="377,-1206.9376 377,-1225.9376 409,-1225.9376 409,-1206.9376 377,-1206.9376"/>
<text text-anchor="start" x="399.8862" y="-1213.0376" font-family="Helvetica,sans-Serif" font-size="11.00" fill="#000000"> &#160;</text>
<polygon fill="#ffffff" stroke="transparent" points="409,-1206.9376 409,-1225.9376 441,-1225.9376 441,-1206.9376 409,-1206.9376"/>
<polygon fill="none" stroke="#000000" points="409,-1206.9376 409,-1225.9376 441,-1225.9376 441,-1206.9376 409,-1206.9376"/>
<text text-anchor="start" x="431.8862" y="-1213.0376" font-family="Helvetica,sans-Serif" font-size="11.00" fill="#000000"> &#160;</text>
</a>
</g>
</g>
<!-- review_audit&#45;&gt;audit_revision -->
<g id="edge47" class="edge">
<title>review_audit:w&#45;&gt;audit_revision:e</title>
<path fill="none" stroke="#000000" stroke-dasharray="5,2" d="M301.6655,-1233.1316C263.3952,-1228.16 243.2264,-1223.247 215,-1190.9376 161.3033,-1129.4738 255.6158,-1011.9376 174,-1017.9376"/>
<polygon fill="#000000" stroke="#000000" points="308.0627,-1233.9376 315.55,-1238.5094 312.0314,-1234.4376 316,-1234.9376 316,-1234.9376 316,-1234.9376 312.0314,-1234.4376 316.45,-1231.3659 308.0627,-1233.9376 308.0627,-1233.9376"/>
<ellipse fill="none" stroke="#000000" cx="304.8878" cy="-1233.5376" rx="3.2" ry="3.2"/>
</g>
<!-- review_audit&#45;&gt;audit_revision -->
<g id="edge48" class="edge">
<title>review_audit:w&#45;&gt;audit_revision:e</title>
<path fill="none" stroke="#000000" d="M301.6655,-1236.8264C263.3952,-1241.16 243.2264,-1236.247 215,-1203.9376 161.3033,-1142.4738 255.6158,-1024.9376 174,-1017.9376"/>
<polygon fill="#000000" stroke="#000000" points="308.0686,-1235.9827 316.4703,-1238.5068 312.0343,-1235.4602 316,-1234.9376 316,-1234.9376 316,-1234.9376 312.0343,-1235.4602 315.5297,-1231.3685 308.0686,-1235.9827 308.0686,-1235.9827"/>
<ellipse fill="none" stroke="#000000" cx="304.896" cy="-1236.4008" rx="3.2" ry="3.2"/>
</g>
<!-- safer_custody_screening_outcome -->
<g id="node22" class="node">
<title>safer_custody_screening_outcome</title>
<g id="a_node22"><a xlink:href="../../tables/safer_custody_screening_outcome.html" xlink:title="safer_custody_screening_outcome" target="_top">
<polygon fill="#ffffff" stroke="transparent" points="772,-152.4376 772,-213.4376 1041,-213.4376 1041,-152.4376 772,-152.4376"/>
<polygon fill="#f5f5f5" stroke="transparent" points="772.5,-189.9376 772.5,-212.9376 1041.5,-212.9376 1041.5,-189.9376 772.5,-189.9376"/>
<polygon fill="none" stroke="#000000" points="772.5,-189.9376 772.5,-212.9376 1041.5,-212.9376 1041.5,-189.9376 772.5,-189.9376"/>
<text text-anchor="start" x="777.5" y="-198.5376" font-family="Helvetica,sans-Serif" font-weight="bold" font-size="11.00" fill="#000000">safer_custody_screening_outcome</text>
<text text-anchor="start" x="1007.0219" y="-198.0376" font-family="Helvetica,sans-Serif" font-size="11.00" fill="#000000">[table]</text>
<polygon fill="none" stroke="#000000" points="772.5,-170.9376 772.5,-189.9376 1041.5,-189.9376 1041.5,-170.9376 772.5,-170.9376"/>
<text text-anchor="start" x="775.5" y="-177.0376" font-family="Helvetica,sans-Serif" font-size="11.00" fill="#000000">...</text>
<polygon fill="#ffffff" stroke="transparent" points="772.5,-151.9376 772.5,-170.9376 905.5,-170.9376 905.5,-151.9376 772.5,-151.9376"/>
<polygon fill="none" stroke="#000000" points="772.5,-151.9376 772.5,-170.9376 905.5,-170.9376 905.5,-151.9376 772.5,-151.9376"/>
<text text-anchor="start" x="775.5" y="-158.0376" font-family="Helvetica,sans-Serif" font-size="11.00" fill="#000000">&lt; 2</text>
<polygon fill="#ffffff" stroke="transparent" points="905.5,-151.9376 905.5,-170.9376 973.5,-170.9376 973.5,-151.9376 905.5,-151.9376"/>
<polygon fill="none" stroke="#000000" points="905.5,-151.9376 905.5,-170.9376 973.5,-170.9376 973.5,-151.9376 905.5,-151.9376"/>
<text text-anchor="start" x="964.3862" y="-158.0376" font-family="Helvetica,sans-Serif" font-size="11.00" fill="#000000"> &#160;</text>
<polygon fill="#ffffff" stroke="transparent" points="973.5,-151.9376 973.5,-170.9376 1041.5,-170.9376 1041.5,-151.9376 973.5,-151.9376"/>
<polygon fill="none" stroke="#000000" points="973.5,-151.9376 973.5,-170.9376 1041.5,-170.9376 1041.5,-151.9376 973.5,-151.9376"/>
<text text-anchor="start" x="1032.3862" y="-158.0376" font-family="Helvetica,sans-Serif" font-size="11.00" fill="#000000"> &#160;</text>
</a>
</g>
</g>
<!-- safer_custody_screening_outcome&#45;&gt;reference_data -->
<g id="edge49" class="edge">
<title>safer_custody_screening_outcome:w&#45;&gt;reference_data:e</title>
<path fill="none" stroke="#000000" d="M758.0881,-180.0022C681.3643,-180.7121 657.1571,-187.171 574,-193.9376 528.1794,-197.6661 207.9721,-231.9376 162,-231.9376"/>
<polygon fill="#000000" stroke="#000000" points="764.5001,-179.9735 772.5161,-183.5376 768.5,-179.9556 772.5,-179.9376 772.5,-179.9376 772.5,-179.9376 768.5,-179.9556 772.4839,-176.3377 764.5001,-179.9735 764.5001,-179.9735"/>
<ellipse fill="none" stroke="#000000" cx="761.3001" cy="-179.9879" rx="3.2" ry="3.2"/>
</g>
<!-- safer_custody_screening_outcome&#45;&gt;referral -->
<g id="edge50" class="edge">
<title>safer_custody_screening_outcome:w&#45;&gt;referral:e</title>
<path fill="none" stroke="#000000" d="M761.8654,-181.3285C732.6892,-189.598 734.1004,-231.9376 697.5,-231.9376"/>
<polygon fill="#000000" stroke="#000000" points="771.188,-176.0752 772.2255,-184.0076 770.639,-184.2151 769.6015,-176.2827 771.188,-176.0752"/>
<polyline fill="none" stroke="#000000" points="772.5,-179.9376 768.5338,-180.4564 "/>
<ellipse fill="none" stroke="#000000" cx="765.3608" cy="-180.8714" rx="3.2" ry="3.2"/>
</g>
<!-- safer_custody_screening_outcome_audit -->
<g id="node23" class="node">
<title>safer_custody_screening_outcome_audit</title>
<g id="a_node23"><a xlink:href="../../tables/safer_custody_screening_outcome_audit.html" xlink:title="safer_custody_screening_outcome_audit" target="_top">
<polygon fill="#ffffff" stroke="transparent" points="223,-1125.4376 223,-1186.4376 533,-1186.4376 533,-1125.4376 223,-1125.4376"/>
<polygon fill="#f5f5f5" stroke="transparent" points="223,-1162.9376 223,-1185.9376 533,-1185.9376 533,-1162.9376 223,-1162.9376"/>
<polygon fill="none" stroke="#000000" points="223,-1162.9376 223,-1185.9376 533,-1185.9376 533,-1162.9376 223,-1162.9376"/>
<text text-anchor="start" x="228" y="-1171.5376" font-family="Helvetica,sans-Serif" font-weight="bold" font-size="11.00" fill="#000000">safer_custody_screening_outcome_audit</text>
<text text-anchor="start" x="498.5219" y="-1171.0376" font-family="Helvetica,sans-Serif" font-size="11.00" fill="#000000">[table]</text>
<polygon fill="none" stroke="#000000" points="223,-1143.9376 223,-1162.9376 533,-1162.9376 533,-1143.9376 223,-1143.9376"/>
<text text-anchor="start" x="226" y="-1150.0376" font-family="Helvetica,sans-Serif" font-size="11.00" fill="#000000">...</text>
<polygon fill="#ffffff" stroke="transparent" points="223,-1124.9376 223,-1143.9376 376,-1143.9376 376,-1124.9376 223,-1124.9376"/>
<polygon fill="none" stroke="#000000" points="223,-1124.9376 223,-1143.9376 376,-1143.9376 376,-1124.9376 223,-1124.9376"/>
<text text-anchor="start" x="226" y="-1131.0376" font-family="Helvetica,sans-Serif" font-size="11.00" fill="#000000">&lt; 2</text>
<polygon fill="#ffffff" stroke="transparent" points="376,-1124.9376 376,-1143.9376 454,-1143.9376 454,-1124.9376 376,-1124.9376"/>
<polygon fill="none" stroke="#000000" points="376,-1124.9376 376,-1143.9376 454,-1143.9376 454,-1124.9376 376,-1124.9376"/>
<text text-anchor="start" x="444.8862" y="-1131.0376" font-family="Helvetica,sans-Serif" font-size="11.00" fill="#000000"> &#160;</text>
<polygon fill="#ffffff" stroke="transparent" points="454,-1124.9376 454,-1143.9376 533,-1143.9376 533,-1124.9376 454,-1124.9376"/>
<polygon fill="none" stroke="#000000" points="454,-1124.9376 454,-1143.9376 533,-1143.9376 533,-1124.9376 454,-1124.9376"/>
<text text-anchor="start" x="523.8862" y="-1131.0376" font-family="Helvetica,sans-Serif" font-size="11.00" fill="#000000"> &#160;</text>
</a>
</g>
</g>
<!-- safer_custody_screening_outcome_audit&#45;&gt;audit_revision -->
<g id="edge51" class="edge">
<title>safer_custody_screening_outcome_audit:w&#45;&gt;audit_revision:e</title>
<path fill="none" stroke="#000000" stroke-dasharray="5,2" d="M209.0396,-1148.3924C172.154,-1123.818 232.0953,-1012.4767 174,-1017.9376"/>
<polygon fill="#000000" stroke="#000000" points="215.393,-1150.4609 221.8855,-1156.3608 219.1965,-1151.6993 223,-1152.9376 223,-1152.9376 223,-1152.9376 219.1965,-1151.6993 224.1145,-1149.5145 215.393,-1150.4609 215.393,-1150.4609"/>
<ellipse fill="none" stroke="#000000" cx="212.3502" cy="-1149.4702" rx="3.2" ry="3.2"/>
</g>
<!-- safer_custody_screening_outcome_audit&#45;&gt;audit_revision -->
<g id="edge52" class="edge">
<title>safer_custody_screening_outcome_audit:w&#45;&gt;audit_revision:e</title>
<path fill="none" stroke="#000000" d="M208.5701,-1151.3847C172.6664,-1135.7501 231.846,-1024.2814 174,-1017.9376"/>
<polygon fill="#000000" stroke="#000000" points="215.0459,-1152.0816 222.6148,-1156.517 219.023,-1152.5096 223,-1152.9376 223,-1152.9376 223,-1152.9376 219.023,-1152.5096 223.3852,-1149.3583 215.0459,-1152.0816 215.0459,-1152.0816"/>
<ellipse fill="none" stroke="#000000" cx="211.8643" cy="-1151.7392" rx="3.2" ry="3.2"/>
</g>
</g>
</svg>
