<?xml version="1.0" encoding="UTF-8" standalone="no"?>
<!DOCTYPE svg PUBLIC "-//W3C//DTD SVG 1.1//EN"
 "http://www.w3.org/Graphics/SVG/1.1/DTD/svg11.dtd">
<!-- Generated by graphviz version 2.40.1 (20161225.0304)
 -->
<!-- Title: oneDegreeRelationshipsDiagramImplied Pages: 1 -->
<svg width="560pt" height="382pt"
 viewBox="0.00 0.00 560.00 382.20" xmlns="http://www.w3.org/2000/svg" xmlns:xlink="http://www.w3.org/1999/xlink">
<g id="graph0" class="graph" transform="scale(1 1) rotate(0) translate(4 378.2)">
<title>oneDegreeRelationshipsDiagramImplied</title>
<polygon fill="#ffffff" stroke="transparent" points="-4,4 -4,-378.2 556,-378.2 556,4 -4,4"/>
<text text-anchor="middle" x="72.4936" y="-7.3" font-family="Helvetica,sans-Serif" font-size="11.00" fill="#000000">Generated by SchemaSpy</text>
<!-- interview_audit -->
<g id="node1" class="node">
<title>interview_audit</title>
<g id="a_node1"><a xlink:href="../../tables/interview_audit.html" xlink:title="interview_audit" target="_top">
<polygon fill="#ffffff" stroke="transparent" points="248,-38.2 248,-370.2 544,-370.2 544,-38.2 248,-38.2"/>
<polygon fill="#f5f5f5" stroke="transparent" points="250,-345.2 250,-368.2 542,-368.2 542,-345.2 250,-345.2"/>
<polygon fill="none" stroke="#000000" points="250,-345.2 250,-368.2 542,-368.2 542,-345.2 250,-345.2"/>
<text text-anchor="start" x="255" y="-353.8" font-family="Helvetica,sans-Serif" font-weight="bold" font-size="11.00" fill="#000000">interview_audit</text>
<text text-anchor="start" x="507.0437" y="-353.3" font-family="Helvetica,sans-Serif" font-size="11.00" fill="#000000">[table]</text>
<polygon fill="none" stroke="#000000" points="250,-323.2 250,-345.2 448,-345.2 448,-323.2 250,-323.2"/>
<image xlink:href="../../images/primaryKeys.png" width="11px" height="12px" preserveAspectRatio="xMinYMin meet" x="255" y="-340.2"/>
<text text-anchor="start" x="270" y="-330.3" font-family="Helvetica,sans-Serif" font-size="11.00" fill="#000000">rev_id</text>
<polygon fill="none" stroke="#000000" points="448,-323.2 448,-345.2 542,-345.2 542,-323.2 448,-323.2"/>
<text text-anchor="start" x="451" y="-330.9" font-family="Helvetica,sans-Serif" font-size="11.00" fill="#000000">int8[19]</text>
<polygon fill="none" stroke="#000000" points="250,-301.2 250,-323.2 448,-323.2 448,-301.2 250,-301.2"/>
<text text-anchor="start" x="270" y="-308.3" font-family="Helvetica,sans-Serif" font-size="11.00" fill="#000000">rev_type</text>
<polygon fill="none" stroke="#000000" points="448,-301.2 448,-323.2 542,-323.2 542,-301.2 448,-301.2"/>
<text text-anchor="start" x="451" y="-308.9" font-family="Helvetica,sans-Serif" font-size="11.00" fill="#000000">int2[5]</text>
<polygon fill="none" stroke="#000000" points="250,-279.2 250,-301.2 448,-301.2 448,-279.2 250,-279.2"/>
<image xlink:href="../../images/primaryKeys.png" width="11px" height="12px" preserveAspectRatio="xMinYMin meet" x="255" y="-296.2"/>
<text text-anchor="start" x="270" y="-286.3" font-family="Helvetica,sans-Serif" font-size="11.00" fill="#000000">interview_id</text>
<polygon fill="none" stroke="#000000" points="448,-279.2 448,-301.2 542,-301.2 542,-279.2 448,-279.2"/>
<text text-anchor="start" x="450.9758" y="-286.9" font-family="Helvetica,sans-Serif" font-size="11.00" fill="#000000">uuid[2147483647]</text>
<polygon fill="none" stroke="#000000" points="250,-257.2 250,-279.2 448,-279.2 448,-257.2 250,-257.2"/>
<image xlink:href="../../images/foreignKeys.png" width="11px" height="12px" preserveAspectRatio="xMinYMin meet" x="255" y="-274.2"/>
<text text-anchor="start" x="270" y="-264.3" font-family="Helvetica,sans-Serif" font-size="11.00" fill="#000000">investigation_id</text>
<polygon fill="none" stroke="#000000" points="448,-257.2 448,-279.2 542,-279.2 542,-257.2 448,-257.2"/>
<text text-anchor="start" x="450.9758" y="-264.9" font-family="Helvetica,sans-Serif" font-size="11.00" fill="#000000">uuid[2147483647]</text>
<polygon fill="none" stroke="#000000" points="250,-235.2 250,-257.2 448,-257.2 448,-235.2 250,-235.2"/>
<text text-anchor="start" x="270" y="-242.3" font-family="Helvetica,sans-Serif" font-size="11.00" fill="#000000">interviewee</text>
<polygon fill="none" stroke="#000000" points="448,-235.2 448,-257.2 542,-257.2 542,-235.2 448,-235.2"/>
<text text-anchor="start" x="451" y="-242.9" font-family="Helvetica,sans-Serif" font-size="11.00" fill="#000000">varchar[100]</text>
<polygon fill="none" stroke="#000000" points="250,-213.2 250,-235.2 448,-235.2 448,-213.2 250,-213.2"/>
<text text-anchor="start" x="270" y="-220.3" font-family="Helvetica,sans-Serif" font-size="11.00" fill="#000000">interview_date</text>
<polygon fill="none" stroke="#000000" points="448,-213.2 448,-235.2 542,-235.2 542,-213.2 448,-213.2"/>
<text text-anchor="start" x="451" y="-220.9" font-family="Helvetica,sans-Serif" font-size="11.00" fill="#000000">date[13]</text>
<polygon fill="none" stroke="#000000" points="250,-191.2 250,-213.2 448,-213.2 448,-191.2 250,-191.2"/>
<image xlink:href="../../images/foreignKeys.png" width="11px" height="12px" preserveAspectRatio="xMinYMin meet" x="255" y="-208.2"/>
<text text-anchor="start" x="270" y="-198.3" font-family="Helvetica,sans-Serif" font-size="11.00" fill="#000000">interviewee_role_id</text>
<polygon fill="none" stroke="#000000" points="448,-191.2 448,-213.2 542,-213.2 542,-191.2 448,-191.2"/>
<text text-anchor="start" x="451" y="-198.9" font-family="Helvetica,sans-Serif" font-size="11.00" fill="#000000">int8[19]</text>
<polygon fill="none" stroke="#000000" points="250,-169.2 250,-191.2 448,-191.2 448,-169.2 250,-169.2"/>
<text text-anchor="start" x="270" y="-176.3" font-family="Helvetica,sans-Serif" font-size="11.00" fill="#000000">interview_text</text>
<polygon fill="none" stroke="#000000" points="448,-169.2 448,-191.2 542,-191.2 542,-169.2 448,-169.2"/>
<text text-anchor="start" x="451" y="-176.9" font-family="Helvetica,sans-Serif" font-size="11.00" fill="#000000">text[2147483647]</text>
<polygon fill="none" stroke="#000000" points="250,-147.2 250,-169.2 448,-169.2 448,-147.2 250,-147.2"/>
<text text-anchor="start" x="270" y="-154.3" font-family="Helvetica,sans-Serif" font-size="11.00" fill="#000000">interviewee_modified</text>
<polygon fill="none" stroke="#000000" points="448,-147.2 448,-169.2 542,-169.2 542,-147.2 448,-147.2"/>
<text text-anchor="start" x="451" y="-154.9" font-family="Helvetica,sans-Serif" font-size="11.00" fill="#000000">bool[1]</text>
<polygon fill="none" stroke="#000000" points="250,-125.2 250,-147.2 448,-147.2 448,-125.2 250,-125.2"/>
<text text-anchor="start" x="270" y="-132.3" font-family="Helvetica,sans-Serif" font-size="11.00" fill="#000000">interview_date_modified</text>
<polygon fill="none" stroke="#000000" points="448,-125.2 448,-147.2 542,-147.2 542,-125.2 448,-125.2"/>
<text text-anchor="start" x="451" y="-132.9" font-family="Helvetica,sans-Serif" font-size="11.00" fill="#000000">bool[1]</text>
<polygon fill="none" stroke="#000000" points="250,-103.2 250,-125.2 448,-125.2 448,-103.2 250,-103.2"/>
<text text-anchor="start" x="270" y="-110.3" font-family="Helvetica,sans-Serif" font-size="11.00" fill="#000000">interviewee_role_modified</text>
<polygon fill="none" stroke="#000000" points="448,-103.2 448,-125.2 542,-125.2 542,-103.2 448,-103.2"/>
<text text-anchor="start" x="451" y="-110.9" font-family="Helvetica,sans-Serif" font-size="11.00" fill="#000000">bool[1]</text>
<polygon fill="none" stroke="#000000" points="250,-81.2 250,-103.2 448,-103.2 448,-81.2 250,-81.2"/>
<text text-anchor="start" x="270" y="-88.3" font-family="Helvetica,sans-Serif" font-size="11.00" fill="#000000">interview_text_modified</text>
<polygon fill="none" stroke="#000000" points="448,-81.2 448,-103.2 542,-103.2 542,-81.2 448,-81.2"/>
<text text-anchor="start" x="451" y="-88.9" font-family="Helvetica,sans-Serif" font-size="11.00" fill="#000000">bool[1]</text>
<polygon fill="none" stroke="#000000" points="250,-59.2 250,-81.2 448,-81.2 448,-59.2 250,-59.2"/>
<image xlink:href="../../images/foreignKeys.png" width="11px" height="12px" preserveAspectRatio="xMinYMin meet" x="255" y="-76.2"/>
<text text-anchor="start" x="270" y="-66.3" font-family="Helvetica,sans-Serif" font-size="11.00" fill="#000000">legacy_id</text>
<polygon fill="none" stroke="#000000" points="448,-59.2 448,-81.2 542,-81.2 542,-59.2 448,-59.2"/>
<text text-anchor="start" x="451" y="-66.9" font-family="Helvetica,sans-Serif" font-size="11.00" fill="#000000">int8[19]</text>
<polygon fill="#ffffff" stroke="transparent" points="250,-40.2 250,-59.2 353,-59.2 353,-40.2 250,-40.2"/>
<polygon fill="none" stroke="#000000" points="250,-40.2 250,-59.2 353,-59.2 353,-40.2 250,-40.2"/>
<text text-anchor="start" x="253" y="-46.3" font-family="Helvetica,sans-Serif" font-size="11.00" fill="#000000">&lt; 4</text>
<polygon fill="#ffffff" stroke="transparent" points="353,-40.2 353,-59.2 448,-59.2 448,-40.2 353,-40.2"/>
<polygon fill="none" stroke="#000000" points="353,-40.2 353,-59.2 448,-59.2 448,-40.2 353,-40.2"/>
<text text-anchor="start" x="438.8862" y="-46.3" font-family="Helvetica,sans-Serif" font-size="11.00" fill="#000000"> &#160;</text>
<polygon fill="#ffffff" stroke="transparent" points="448,-40.2 448,-59.2 542,-59.2 542,-40.2 448,-40.2"/>
<polygon fill="none" stroke="#000000" points="448,-40.2 448,-59.2 542,-59.2 542,-40.2 448,-40.2"/>
<text text-anchor="start" x="523.4053" y="-46.3" font-family="Helvetica,sans-Serif" font-size="11.00" fill="#000000">0 &gt;</text>
<polygon fill="none" stroke="#000000" stroke-width="2" points="249,-39.2 249,-369.2 543,-369.2 543,-39.2 249,-39.2"/>
</a>
</g>
</g>
<!-- audit_revision -->
<g id="node2" class="node">
<title>audit_revision</title>
<g id="a_node2"><a xlink:href="../../tables/audit_revision.html" xlink:title="audit_revision" target="_top">
<polygon fill="#ffffff" stroke="transparent" points="20.5,-134.7 20.5,-217.7 186.5,-217.7 186.5,-134.7 20.5,-134.7"/>
<polygon fill="#f5f5f5" stroke="transparent" points="20.5,-194.2 20.5,-217.2 186.5,-217.2 186.5,-194.2 20.5,-194.2"/>
<polygon fill="none" stroke="#000000" points="20.5,-194.2 20.5,-217.2 186.5,-217.2 186.5,-194.2 20.5,-194.2"/>
<text text-anchor="start" x="25.5" y="-202.8" font-family="Helvetica,sans-Serif" font-weight="bold" font-size="11.00" fill="#000000">audit_revision</text>
<text text-anchor="start" x="151.5437" y="-202.3" font-family="Helvetica,sans-Serif" font-size="11.00" fill="#000000">[table]</text>
<polygon fill="none" stroke="#000000" points="20.5,-172.2 20.5,-194.2 186.5,-194.2 186.5,-172.2 20.5,-172.2"/>
<image xlink:href="../../images/primaryKeys.png" width="11px" height="12px" preserveAspectRatio="xMinYMin meet" x="25.5" y="-189.2"/>
<text text-anchor="start" x="40.5" y="-179.3" font-family="Helvetica,sans-Serif" font-size="11.00" fill="#000000">id</text>
<polygon fill="none" stroke="#000000" points="20.5,-153.2 20.5,-172.2 186.5,-172.2 186.5,-153.2 20.5,-153.2"/>
<text text-anchor="start" x="23.5" y="-159.3" font-family="Helvetica,sans-Serif" font-size="11.00" fill="#000000">...</text>
<polygon fill="#ffffff" stroke="transparent" points="20.5,-134.2 20.5,-153.2 89.5,-153.2 89.5,-134.2 20.5,-134.2"/>
<polygon fill="none" stroke="#000000" points="20.5,-134.2 20.5,-153.2 89.5,-153.2 89.5,-134.2 20.5,-134.2"/>
<text text-anchor="start" x="23.5" y="-140.3" font-family="Helvetica,sans-Serif" font-size="11.00" fill="#000000"> &#160;</text>
<polygon fill="#ffffff" stroke="transparent" points="89.5,-134.2 89.5,-153.2 130.5,-153.2 130.5,-134.2 89.5,-134.2"/>
<polygon fill="none" stroke="#000000" points="89.5,-134.2 89.5,-153.2 130.5,-153.2 130.5,-134.2 89.5,-134.2"/>
<text text-anchor="start" x="121.3862" y="-140.3" font-family="Helvetica,sans-Serif" font-size="11.00" fill="#000000"> &#160;</text>
<polygon fill="#ffffff" stroke="transparent" points="130.5,-134.2 130.5,-153.2 186.5,-153.2 186.5,-134.2 130.5,-134.2"/>
<polygon fill="none" stroke="#000000" points="130.5,-134.2 130.5,-153.2 186.5,-153.2 186.5,-134.2 130.5,-134.2"/>
<text text-anchor="start" x="161.7904" y="-140.3" font-family="Helvetica,sans-Serif" font-size="11.00" fill="#000000">33 &gt;</text>
</a>
</g>
</g>
<!-- interview_audit&#45;&gt;audit_revision -->
<g id="edge1" class="edge">
<title>interview_audit:w&#45;&gt;audit_revision:e</title>
<path fill="none" stroke="#000000" stroke-dasharray="5,2" d="M235.4695,-200.3782C217.8757,-195.6227 210.3199,-183.2 186.5,-183.2"/>
<polygon fill="#000000" stroke="#000000" points="242.0621,-201.2047 249.5521,-205.772 246.0311,-201.7024 250,-202.2 250,-202.2 250,-202.2 246.0311,-201.7024 250.4479,-198.628 242.0621,-201.2047 242.0621,-201.2047"/>
<ellipse fill="none" stroke="#000000" cx="238.887" cy="-200.8066" rx="3.2" ry="3.2"/>
</g>
<!-- interview_audit&#45;&gt;audit_revision -->
<g id="edge3" class="edge">
<title>interview_audit:w&#45;&gt;audit_revision:e</title>
<path fill="none" stroke="#000000" stroke-dasharray="5,2" d="M235.6014,-73.46C201.7687,-91.9875 238.2578,-183.2 186.5,-183.2"/>
<polygon fill="#000000" stroke="#000000" points="242.1975,-71.9666 250.795,-73.7111 246.0987,-71.0833 250,-70.2 250,-70.2 250,-70.2 246.0987,-71.0833 249.205,-66.6889 242.1975,-71.9666 242.1975,-71.9666"/>
<ellipse fill="none" stroke="#000000" cx="239.0765" cy="-72.6733" rx="3.2" ry="3.2"/>
</g>
<!-- interview_audit&#45;&gt;audit_revision -->
<g id="edge4" class="edge">
<title>interview_audit:w&#45;&gt;audit_revision:e</title>
<path fill="none" stroke="#000000" d="M235.6254,-331.5791C189.08,-311.5279 253.616,-183.2 186.5,-183.2"/>
<polygon fill="#000000" stroke="#000000" points="242.1297,-332.765 249.3542,-337.7416 246.0649,-333.4825 250,-334.2 250,-334.2 250,-334.2 246.0649,-333.4825 250.6458,-330.6584 242.1297,-332.765 242.1297,-332.765"/>
<ellipse fill="none" stroke="#000000" cx="238.9816" cy="-332.191" rx="3.2" ry="3.2"/>
</g>
<!-- investigation -->
<g id="node3" class="node">
<title>investigation</title>
<g id="a_node3"><a xlink:href="../../tables/investigation.html" xlink:title="investigation" target="_top">
<polygon fill="#ffffff" stroke="transparent" points="8,-238.7 8,-321.7 199,-321.7 199,-238.7 8,-238.7"/>
<polygon fill="#f5f5f5" stroke="transparent" points="8.5,-298.2 8.5,-321.2 199.5,-321.2 199.5,-298.2 8.5,-298.2"/>
<polygon fill="none" stroke="#000000" points="8.5,-298.2 8.5,-321.2 199.5,-321.2 199.5,-298.2 8.5,-298.2"/>
<text text-anchor="start" x="13.5" y="-306.8" font-family="Helvetica,sans-Serif" font-weight="bold" font-size="11.00" fill="#000000">investigation</text>
<text text-anchor="start" x="164.5437" y="-306.3" font-family="Helvetica,sans-Serif" font-size="11.00" fill="#000000">[table]</text>
<polygon fill="none" stroke="#000000" points="8.5,-276.2 8.5,-298.2 199.5,-298.2 199.5,-276.2 8.5,-276.2"/>
<image xlink:href="../../images/primaryKeys.png" width="11px" height="12px" preserveAspectRatio="xMinYMin meet" x="13.5" y="-293.2"/>
<text text-anchor="start" x="28.5" y="-283.3" font-family="Helvetica,sans-Serif" font-size="11.00" fill="#000000">investigation_id</text>
<polygon fill="none" stroke="#000000" points="8.5,-257.2 8.5,-276.2 199.5,-276.2 199.5,-257.2 8.5,-257.2"/>
<text text-anchor="start" x="11.5" y="-263.3" font-family="Helvetica,sans-Serif" font-size="11.00" fill="#000000">...</text>
<polygon fill="#ffffff" stroke="transparent" points="8.5,-238.2 8.5,-257.2 97.5,-257.2 97.5,-238.2 8.5,-238.2"/>
<polygon fill="none" stroke="#000000" points="8.5,-238.2 8.5,-257.2 97.5,-257.2 97.5,-238.2 8.5,-238.2"/>
<text text-anchor="start" x="11.5" y="-244.3" font-family="Helvetica,sans-Serif" font-size="11.00" fill="#000000">&lt; 1</text>
<polygon fill="#ffffff" stroke="transparent" points="97.5,-238.2 97.5,-257.2 143.5,-257.2 143.5,-238.2 97.5,-238.2"/>
<polygon fill="none" stroke="#000000" points="97.5,-238.2 97.5,-257.2 143.5,-257.2 143.5,-238.2 97.5,-238.2"/>
<text text-anchor="start" x="134.3862" y="-244.3" font-family="Helvetica,sans-Serif" font-size="11.00" fill="#000000"> &#160;</text>
<polygon fill="#ffffff" stroke="transparent" points="143.5,-238.2 143.5,-257.2 199.5,-257.2 199.5,-238.2 143.5,-238.2"/>
<polygon fill="none" stroke="#000000" points="143.5,-238.2 143.5,-257.2 199.5,-257.2 199.5,-238.2 143.5,-238.2"/>
<text text-anchor="start" x="180.9053" y="-244.3" font-family="Helvetica,sans-Serif" font-size="11.00" fill="#000000">2 &gt;</text>
</a>
</g>
</g>
<!-- interview_audit&#45;&gt;investigation -->
<g id="edge2" class="edge">
<title>interview_audit:w&#45;&gt;investigation:e</title>
<path fill="none" stroke="#000000" stroke-dasharray="5,2" d="M235.7405,-271.0035C223.532,-276.2887 217.6727,-287.2 199.5,-287.2"/>
<polygon fill="#000000" stroke="#000000" points="242.1503,-269.7433 250.6945,-271.7324 246.0751,-268.9717 250,-268.2 250,-268.2 250,-268.2 246.0751,-268.9717 249.3055,-264.6676 242.1503,-269.7433 242.1503,-269.7433"/>
<ellipse fill="none" stroke="#000000" cx="239.0104" cy="-270.3607" rx="3.2" ry="3.2"/>
</g>
</g>
</svg>
