<?xml version="1.0" encoding="UTF-8" standalone="no"?>
<!DOCTYPE svg PUBLIC "-//W3C//DTD SVG 1.1//EN"
 "http://www.w3.org/Graphics/SVG/1.1/DTD/svg11.dtd">
<!-- Generated by graphviz version 2.40.1 (20161225.0304)
 -->
<!-- Title: twoDegreesRelationshipsDiagram Pages: 1 -->
<svg width="549pt" height="1285pt"
 viewBox="0.00 0.00 549.00 1285.20" xmlns="http://www.w3.org/2000/svg" xmlns:xlink="http://www.w3.org/1999/xlink">
<g id="graph0" class="graph" transform="scale(1 1) rotate(0) translate(4 1281.2)">
<title>twoDegreesRelationshipsDiagram</title>
<polygon fill="#ffffff" stroke="transparent" points="-4,4 -4,-1281.2 545,-1281.2 545,4 -4,4"/>
<text text-anchor="middle" x="72.4936" y="-7.3" font-family="Helvetica,sans-Serif" font-size="11.00" fill="#000000">Generated by SchemaSpy</text>
<!-- attendee_audit -->
<g id="node1" class="node">
<title>attendee_audit</title>
<g id="a_node1"><a xlink:href="../../tables/attendee_audit.html" xlink:title="attendee_audit" target="_top">
<polygon fill="#ffffff" stroke="transparent" points="307.5,-1212.2 307.5,-1273.2 448.5,-1273.2 448.5,-1212.2 307.5,-1212.2"/>
<polygon fill="#f5f5f5" stroke="transparent" points="308,-1249.7 308,-1272.7 449,-1272.7 449,-1249.7 308,-1249.7"/>
<polygon fill="none" stroke="#000000" points="308,-1249.7 308,-1272.7 449,-1272.7 449,-1249.7 308,-1249.7"/>
<text text-anchor="start" x="313" y="-1258.3" font-family="Helvetica,sans-Serif" font-weight="bold" font-size="11.00" fill="#000000">attendee_audit</text>
<text text-anchor="start" x="414.5219" y="-1257.8" font-family="Helvetica,sans-Serif" font-size="11.00" fill="#000000">[table]</text>
<polygon fill="none" stroke="#000000" points="308,-1230.7 308,-1249.7 449,-1249.7 449,-1230.7 308,-1230.7"/>
<text text-anchor="start" x="311" y="-1236.8" font-family="Helvetica,sans-Serif" font-size="11.00" fill="#000000">...</text>
<polygon fill="#ffffff" stroke="transparent" points="308,-1211.7 308,-1230.7 377,-1230.7 377,-1211.7 308,-1211.7"/>
<polygon fill="none" stroke="#000000" points="308,-1211.7 308,-1230.7 377,-1230.7 377,-1211.7 308,-1211.7"/>
<text text-anchor="start" x="311" y="-1217.8" font-family="Helvetica,sans-Serif" font-size="11.00" fill="#000000">&lt; 1</text>
<polygon fill="#ffffff" stroke="transparent" points="377,-1211.7 377,-1230.7 413,-1230.7 413,-1211.7 377,-1211.7"/>
<polygon fill="none" stroke="#000000" points="377,-1211.7 377,-1230.7 413,-1230.7 413,-1211.7 377,-1211.7"/>
<text text-anchor="start" x="403.8862" y="-1217.8" font-family="Helvetica,sans-Serif" font-size="11.00" fill="#000000"> &#160;</text>
<polygon fill="#ffffff" stroke="transparent" points="413,-1211.7 413,-1230.7 449,-1230.7 449,-1211.7 413,-1211.7"/>
<polygon fill="none" stroke="#000000" points="413,-1211.7 413,-1230.7 449,-1230.7 449,-1211.7 413,-1211.7"/>
<text text-anchor="start" x="439.8862" y="-1217.8" font-family="Helvetica,sans-Serif" font-size="11.00" fill="#000000"> &#160;</text>
</a>
</g>
</g>
<!-- audit_revision -->
<g id="node2" class="node">
<title>audit_revision</title>
<g id="a_node2"><a xlink:href="../../tables/audit_revision.html" xlink:title="audit_revision" target="_top">
<polygon fill="#ffffff" stroke="transparent" points="8,-602.2 8,-685.2 174,-685.2 174,-602.2 8,-602.2"/>
<polygon fill="#f5f5f5" stroke="transparent" points="8,-661.7 8,-684.7 174,-684.7 174,-661.7 8,-661.7"/>
<polygon fill="none" stroke="#000000" points="8,-661.7 8,-684.7 174,-684.7 174,-661.7 8,-661.7"/>
<text text-anchor="start" x="13" y="-670.3" font-family="Helvetica,sans-Serif" font-weight="bold" font-size="11.00" fill="#000000">audit_revision</text>
<text text-anchor="start" x="139.0437" y="-669.8" font-family="Helvetica,sans-Serif" font-size="11.00" fill="#000000">[table]</text>
<polygon fill="none" stroke="#000000" points="8,-639.7 8,-661.7 174,-661.7 174,-639.7 8,-639.7"/>
<image xlink:href="../../images/primaryKeys.png" width="11px" height="12px" preserveAspectRatio="xMinYMin meet" x="13" y="-656.7"/>
<text text-anchor="start" x="28" y="-646.8" font-family="Helvetica,sans-Serif" font-size="11.00" fill="#000000">id</text>
<polygon fill="none" stroke="#000000" points="8,-620.7 8,-639.7 174,-639.7 174,-620.7 8,-620.7"/>
<text text-anchor="start" x="11" y="-626.8" font-family="Helvetica,sans-Serif" font-size="11.00" fill="#000000">...</text>
<polygon fill="#ffffff" stroke="transparent" points="8,-601.7 8,-620.7 77,-620.7 77,-601.7 8,-601.7"/>
<polygon fill="none" stroke="#000000" points="8,-601.7 8,-620.7 77,-620.7 77,-601.7 8,-601.7"/>
<text text-anchor="start" x="11" y="-607.8" font-family="Helvetica,sans-Serif" font-size="11.00" fill="#000000"> &#160;</text>
<polygon fill="#ffffff" stroke="transparent" points="77,-601.7 77,-620.7 118,-620.7 118,-601.7 77,-601.7"/>
<polygon fill="none" stroke="#000000" points="77,-601.7 77,-620.7 118,-620.7 118,-601.7 77,-601.7"/>
<text text-anchor="start" x="108.8862" y="-607.8" font-family="Helvetica,sans-Serif" font-size="11.00" fill="#000000"> &#160;</text>
<polygon fill="#ffffff" stroke="transparent" points="118,-601.7 118,-620.7 174,-620.7 174,-601.7 118,-601.7"/>
<polygon fill="none" stroke="#000000" points="118,-601.7 118,-620.7 174,-620.7 174,-601.7 118,-601.7"/>
<text text-anchor="start" x="149.2904" y="-607.8" font-family="Helvetica,sans-Serif" font-size="11.00" fill="#000000">12 &gt;</text>
</a>
</g>
</g>
<!-- attendee_audit&#45;&gt;audit_revision -->
<g id="edge1" class="edge">
<title>attendee_audit:w&#45;&gt;audit_revision:e</title>
<path fill="none" stroke="#000000" d="M293.1888,-1239.5703C258.1138,-1238.7884 238.1779,-1233.5838 215,-1201.7 178.9018,-1152.0429 235.3915,-650.7 174,-650.7"/>
<polygon fill="#000000" stroke="#000000" points="300.0003,-1239.6299 307.9685,-1243.2999 304.0002,-1239.665 308,-1239.7 308,-1239.7 308,-1239.7 304.0002,-1239.665 308.0315,-1236.1001 300.0003,-1239.6299 300.0003,-1239.6299"/>
<ellipse fill="none" stroke="#000000" cx="296.8004" cy="-1239.6019" rx="3.2" ry="3.2"/>
</g>
<!-- contributory_factor_audit -->
<g id="node3" class="node">
<title>contributory_factor_audit</title>
<g id="a_node3"><a xlink:href="../../tables/contributory_factor_audit.html" xlink:title="contributory_factor_audit" target="_top">
<polygon fill="#ffffff" stroke="transparent" points="273,-1130.2 273,-1191.2 483,-1191.2 483,-1130.2 273,-1130.2"/>
<polygon fill="#f5f5f5" stroke="transparent" points="273,-1167.7 273,-1190.7 483,-1190.7 483,-1167.7 273,-1167.7"/>
<polygon fill="none" stroke="#000000" points="273,-1167.7 273,-1190.7 483,-1190.7 483,-1167.7 273,-1167.7"/>
<text text-anchor="start" x="278" y="-1176.3" font-family="Helvetica,sans-Serif" font-weight="bold" font-size="11.00" fill="#000000">contributory_factor_audit</text>
<text text-anchor="start" x="448.5219" y="-1175.8" font-family="Helvetica,sans-Serif" font-size="11.00" fill="#000000">[table]</text>
<polygon fill="none" stroke="#000000" points="273,-1148.7 273,-1167.7 483,-1167.7 483,-1148.7 273,-1148.7"/>
<text text-anchor="start" x="276" y="-1154.8" font-family="Helvetica,sans-Serif" font-size="11.00" fill="#000000">...</text>
<polygon fill="#ffffff" stroke="transparent" points="273,-1129.7 273,-1148.7 376,-1148.7 376,-1129.7 273,-1129.7"/>
<polygon fill="none" stroke="#000000" points="273,-1129.7 273,-1148.7 376,-1148.7 376,-1129.7 273,-1129.7"/>
<text text-anchor="start" x="276" y="-1135.8" font-family="Helvetica,sans-Serif" font-size="11.00" fill="#000000">&lt; 1</text>
<polygon fill="#ffffff" stroke="transparent" points="376,-1129.7 376,-1148.7 429,-1148.7 429,-1129.7 376,-1129.7"/>
<polygon fill="none" stroke="#000000" points="376,-1129.7 376,-1148.7 429,-1148.7 429,-1129.7 376,-1129.7"/>
<text text-anchor="start" x="419.8862" y="-1135.8" font-family="Helvetica,sans-Serif" font-size="11.00" fill="#000000"> &#160;</text>
<polygon fill="#ffffff" stroke="transparent" points="429,-1129.7 429,-1148.7 483,-1148.7 483,-1129.7 429,-1129.7"/>
<polygon fill="none" stroke="#000000" points="429,-1129.7 429,-1148.7 483,-1148.7 483,-1129.7 429,-1129.7"/>
<text text-anchor="start" x="473.8862" y="-1135.8" font-family="Helvetica,sans-Serif" font-size="11.00" fill="#000000"> &#160;</text>
</a>
</g>
</g>
<!-- contributory_factor_audit&#45;&gt;audit_revision -->
<g id="edge2" class="edge">
<title>contributory_factor_audit:w&#45;&gt;audit_revision:e</title>
<path fill="none" stroke="#000000" d="M258.4219,-1156.611C238.0494,-1153.1786 228.0374,-1141.4993 215,-1119.7 188.1507,-1074.8064 226.3099,-650.7 174,-650.7"/>
<polygon fill="#000000" stroke="#000000" points="265.0222,-1157.104 272.7318,-1161.29 269.0111,-1157.402 273,-1157.7 273,-1157.7 273,-1157.7 269.0111,-1157.402 273.2682,-1154.11 265.0222,-1157.104 265.0222,-1157.104"/>
<ellipse fill="none" stroke="#000000" cx="261.8311" cy="-1156.8656" rx="3.2" ry="3.2"/>
</g>
<!-- csip_record_audit -->
<g id="node4" class="node">
<title>csip_record_audit</title>
<g id="a_node4"><a xlink:href="../../tables/csip_record_audit.html" xlink:title="csip_record_audit" target="_top">
<polygon fill="#ffffff" stroke="transparent" points="300,-1048.2 300,-1109.2 456,-1109.2 456,-1048.2 300,-1048.2"/>
<polygon fill="#f5f5f5" stroke="transparent" points="300,-1085.7 300,-1108.7 456,-1108.7 456,-1085.7 300,-1085.7"/>
<polygon fill="none" stroke="#000000" points="300,-1085.7 300,-1108.7 456,-1108.7 456,-1085.7 300,-1085.7"/>
<text text-anchor="start" x="305" y="-1094.3" font-family="Helvetica,sans-Serif" font-weight="bold" font-size="11.00" fill="#000000">csip_record_audit</text>
<text text-anchor="start" x="421.5219" y="-1093.8" font-family="Helvetica,sans-Serif" font-size="11.00" fill="#000000">[table]</text>
<polygon fill="none" stroke="#000000" points="300,-1066.7 300,-1085.7 456,-1085.7 456,-1066.7 300,-1066.7"/>
<text text-anchor="start" x="303" y="-1072.8" font-family="Helvetica,sans-Serif" font-size="11.00" fill="#000000">...</text>
<polygon fill="#ffffff" stroke="transparent" points="300,-1047.7 300,-1066.7 376,-1066.7 376,-1047.7 300,-1047.7"/>
<polygon fill="none" stroke="#000000" points="300,-1047.7 300,-1066.7 376,-1066.7 376,-1047.7 300,-1047.7"/>
<text text-anchor="start" x="303" y="-1053.8" font-family="Helvetica,sans-Serif" font-size="11.00" fill="#000000">&lt; 1</text>
<polygon fill="#ffffff" stroke="transparent" points="376,-1047.7 376,-1066.7 416,-1066.7 416,-1047.7 376,-1047.7"/>
<polygon fill="none" stroke="#000000" points="376,-1047.7 376,-1066.7 416,-1066.7 416,-1047.7 376,-1047.7"/>
<text text-anchor="start" x="406.8862" y="-1053.8" font-family="Helvetica,sans-Serif" font-size="11.00" fill="#000000"> &#160;</text>
<polygon fill="#ffffff" stroke="transparent" points="416,-1047.7 416,-1066.7 456,-1066.7 456,-1047.7 416,-1047.7"/>
<polygon fill="none" stroke="#000000" points="416,-1047.7 416,-1066.7 456,-1066.7 456,-1047.7 416,-1047.7"/>
<text text-anchor="start" x="446.8862" y="-1053.8" font-family="Helvetica,sans-Serif" font-size="11.00" fill="#000000"> &#160;</text>
</a>
</g>
</g>
<!-- csip_record_audit&#45;&gt;audit_revision -->
<g id="edge3" class="edge">
<title>csip_record_audit:w&#45;&gt;audit_revision:e</title>
<path fill="none" stroke="#000000" d="M285.4639,-1075.4407C253.7139,-1074.1189 236.2726,-1067.0007 215,-1037.7 164.192,-967.7175 260.4813,-650.7 174,-650.7"/>
<polygon fill="#000000" stroke="#000000" points="292.0013,-1075.5572 299.9358,-1079.2994 296.0006,-1075.6286 300,-1075.7 300,-1075.7 300,-1075.7 296.0006,-1075.6286 300.0642,-1072.1006 292.0013,-1075.5572 292.0013,-1075.5572"/>
<ellipse fill="none" stroke="#000000" cx="288.8018" cy="-1075.5001" rx="3.2" ry="3.2"/>
</g>
<!-- decision_and_actions_audit -->
<g id="node5" class="node">
<title>decision_and_actions_audit</title>
<g id="a_node5"><a xlink:href="../../tables/decision_and_actions_audit.html" xlink:title="decision_and_actions_audit" target="_top">
<polygon fill="#ffffff" stroke="transparent" points="267,-966.2 267,-1027.2 489,-1027.2 489,-966.2 267,-966.2"/>
<polygon fill="#f5f5f5" stroke="transparent" points="267,-1003.7 267,-1026.7 489,-1026.7 489,-1003.7 267,-1003.7"/>
<polygon fill="none" stroke="#000000" points="267,-1003.7 267,-1026.7 489,-1026.7 489,-1003.7 267,-1003.7"/>
<text text-anchor="start" x="272" y="-1012.3" font-family="Helvetica,sans-Serif" font-weight="bold" font-size="11.00" fill="#000000">decision_and_actions_audit</text>
<text text-anchor="start" x="454.5219" y="-1011.8" font-family="Helvetica,sans-Serif" font-size="11.00" fill="#000000">[table]</text>
<polygon fill="none" stroke="#000000" points="267,-984.7 267,-1003.7 489,-1003.7 489,-984.7 267,-984.7"/>
<text text-anchor="start" x="270" y="-990.8" font-family="Helvetica,sans-Serif" font-size="11.00" fill="#000000">...</text>
<polygon fill="#ffffff" stroke="transparent" points="267,-965.7 267,-984.7 376,-984.7 376,-965.7 267,-965.7"/>
<polygon fill="none" stroke="#000000" points="267,-965.7 267,-984.7 376,-984.7 376,-965.7 267,-965.7"/>
<text text-anchor="start" x="270" y="-971.8" font-family="Helvetica,sans-Serif" font-size="11.00" fill="#000000">&lt; 1</text>
<polygon fill="#ffffff" stroke="transparent" points="376,-965.7 376,-984.7 432,-984.7 432,-965.7 376,-965.7"/>
<polygon fill="none" stroke="#000000" points="376,-965.7 376,-984.7 432,-984.7 432,-965.7 376,-965.7"/>
<text text-anchor="start" x="422.8862" y="-971.8" font-family="Helvetica,sans-Serif" font-size="11.00" fill="#000000"> &#160;</text>
<polygon fill="#ffffff" stroke="transparent" points="432,-965.7 432,-984.7 489,-984.7 489,-965.7 432,-965.7"/>
<polygon fill="none" stroke="#000000" points="432,-965.7 432,-984.7 489,-984.7 489,-965.7 432,-965.7"/>
<text text-anchor="start" x="479.8862" y="-971.8" font-family="Helvetica,sans-Serif" font-size="11.00" fill="#000000"> &#160;</text>
</a>
</g>
</g>
<!-- decision_and_actions_audit&#45;&gt;audit_revision -->
<g id="edge4" class="edge">
<title>decision_and_actions_audit:w&#45;&gt;audit_revision:e</title>
<path fill="none" stroke="#000000" d="M252.568,-992.2427C234.8136,-988.1601 226.8338,-975.5916 215,-955.7 180.035,-896.9268 242.3874,-650.7 174,-650.7"/>
<polygon fill="#000000" stroke="#000000" points="259.0405,-992.8962 266.6383,-997.2818 263.0202,-993.2981 267,-993.7 267,-993.7 267,-993.7 263.0202,-993.2981 267.3617,-990.1182 259.0405,-992.8962 259.0405,-992.8962"/>
<ellipse fill="none" stroke="#000000" cx="255.8567" cy="-992.5747" rx="3.2" ry="3.2"/>
</g>
<!-- identified_need_audit -->
<g id="node6" class="node">
<title>identified_need_audit</title>
<g id="a_node6"><a xlink:href="../../tables/identified_need_audit.html" xlink:title="identified_need_audit" target="_top">
<polygon fill="#ffffff" stroke="transparent" points="286,-884.2 286,-945.2 470,-945.2 470,-884.2 286,-884.2"/>
<polygon fill="#f5f5f5" stroke="transparent" points="286,-921.7 286,-944.7 470,-944.7 470,-921.7 286,-921.7"/>
<polygon fill="none" stroke="#000000" points="286,-921.7 286,-944.7 470,-944.7 470,-921.7 286,-921.7"/>
<text text-anchor="start" x="291" y="-930.3" font-family="Helvetica,sans-Serif" font-weight="bold" font-size="11.00" fill="#000000">identified_need_audit</text>
<text text-anchor="start" x="435.5219" y="-929.8" font-family="Helvetica,sans-Serif" font-size="11.00" fill="#000000">[table]</text>
<polygon fill="none" stroke="#000000" points="286,-902.7 286,-921.7 470,-921.7 470,-902.7 286,-902.7"/>
<text text-anchor="start" x="289" y="-908.8" font-family="Helvetica,sans-Serif" font-size="11.00" fill="#000000">...</text>
<polygon fill="#ffffff" stroke="transparent" points="286,-883.7 286,-902.7 376,-902.7 376,-883.7 286,-883.7"/>
<polygon fill="none" stroke="#000000" points="286,-883.7 286,-902.7 376,-902.7 376,-883.7 286,-883.7"/>
<text text-anchor="start" x="289" y="-889.8" font-family="Helvetica,sans-Serif" font-size="11.00" fill="#000000">&lt; 1</text>
<polygon fill="#ffffff" stroke="transparent" points="376,-883.7 376,-902.7 423,-902.7 423,-883.7 376,-883.7"/>
<polygon fill="none" stroke="#000000" points="376,-883.7 376,-902.7 423,-902.7 423,-883.7 376,-883.7"/>
<text text-anchor="start" x="413.8862" y="-889.8" font-family="Helvetica,sans-Serif" font-size="11.00" fill="#000000"> &#160;</text>
<polygon fill="#ffffff" stroke="transparent" points="423,-883.7 423,-902.7 470,-902.7 470,-883.7 423,-883.7"/>
<polygon fill="none" stroke="#000000" points="423,-883.7 423,-902.7 470,-902.7 470,-883.7 423,-883.7"/>
<text text-anchor="start" x="460.8862" y="-889.8" font-family="Helvetica,sans-Serif" font-size="11.00" fill="#000000"> &#160;</text>
</a>
</g>
</g>
<!-- identified_need_audit&#45;&gt;audit_revision -->
<g id="edge5" class="edge">
<title>identified_need_audit:w&#45;&gt;audit_revision:e</title>
<path fill="none" stroke="#000000" d="M271.4015,-911.0639C245.8673,-908.564 232.9709,-898.3164 215,-873.7 185.2908,-833.0045 224.3862,-650.7 174,-650.7"/>
<polygon fill="#000000" stroke="#000000" points="278.0076,-911.3517 285.8433,-915.2966 282.0038,-911.5258 286,-911.7 286,-911.7 286,-911.7 282.0038,-911.5258 286.1567,-908.1034 278.0076,-911.3517 278.0076,-911.3517"/>
<ellipse fill="none" stroke="#000000" cx="274.8106" cy="-911.2124" rx="3.2" ry="3.2"/>
</g>
<!-- interview_audit -->
<g id="node7" class="node">
<title>interview_audit</title>
<g id="a_node7"><a xlink:href="../../tables/interview_audit.html" xlink:title="interview_audit" target="_top">
<polygon fill="#ffffff" stroke="transparent" points="230,-530.7 230,-862.7 526,-862.7 526,-530.7 230,-530.7"/>
<polygon fill="#f5f5f5" stroke="transparent" points="232,-837.7 232,-860.7 524,-860.7 524,-837.7 232,-837.7"/>
<polygon fill="none" stroke="#000000" points="232,-837.7 232,-860.7 524,-860.7 524,-837.7 232,-837.7"/>
<text text-anchor="start" x="237" y="-846.3" font-family="Helvetica,sans-Serif" font-weight="bold" font-size="11.00" fill="#000000">interview_audit</text>
<text text-anchor="start" x="489.0437" y="-845.8" font-family="Helvetica,sans-Serif" font-size="11.00" fill="#000000">[table]</text>
<polygon fill="none" stroke="#000000" points="232,-815.7 232,-837.7 430,-837.7 430,-815.7 232,-815.7"/>
<image xlink:href="../../images/primaryKeys.png" width="11px" height="12px" preserveAspectRatio="xMinYMin meet" x="237" y="-832.7"/>
<text text-anchor="start" x="252" y="-822.8" font-family="Helvetica,sans-Serif" font-size="11.00" fill="#000000">rev_id</text>
<polygon fill="none" stroke="#000000" points="430,-815.7 430,-837.7 524,-837.7 524,-815.7 430,-815.7"/>
<text text-anchor="start" x="433" y="-823.4" font-family="Helvetica,sans-Serif" font-size="11.00" fill="#000000">int8[19]</text>
<polygon fill="none" stroke="#000000" points="232,-793.7 232,-815.7 430,-815.7 430,-793.7 232,-793.7"/>
<text text-anchor="start" x="252" y="-800.8" font-family="Helvetica,sans-Serif" font-size="11.00" fill="#000000">rev_type</text>
<polygon fill="none" stroke="#000000" points="430,-793.7 430,-815.7 524,-815.7 524,-793.7 430,-793.7"/>
<text text-anchor="start" x="433" y="-801.4" font-family="Helvetica,sans-Serif" font-size="11.00" fill="#000000">int2[5]</text>
<polygon fill="none" stroke="#000000" points="232,-771.7 232,-793.7 430,-793.7 430,-771.7 232,-771.7"/>
<image xlink:href="../../images/primaryKeys.png" width="11px" height="12px" preserveAspectRatio="xMinYMin meet" x="237" y="-788.7"/>
<text text-anchor="start" x="252" y="-778.8" font-family="Helvetica,sans-Serif" font-size="11.00" fill="#000000">interview_id</text>
<polygon fill="none" stroke="#000000" points="430,-771.7 430,-793.7 524,-793.7 524,-771.7 430,-771.7"/>
<text text-anchor="start" x="432.9758" y="-779.4" font-family="Helvetica,sans-Serif" font-size="11.00" fill="#000000">uuid[2147483647]</text>
<polygon fill="none" stroke="#000000" points="232,-749.7 232,-771.7 430,-771.7 430,-749.7 232,-749.7"/>
<image xlink:href="../../images/foreignKeys.png" width="11px" height="12px" preserveAspectRatio="xMinYMin meet" x="237" y="-766.7"/>
<text text-anchor="start" x="252" y="-756.8" font-family="Helvetica,sans-Serif" font-size="11.00" fill="#000000">investigation_id</text>
<polygon fill="none" stroke="#000000" points="430,-749.7 430,-771.7 524,-771.7 524,-749.7 430,-749.7"/>
<text text-anchor="start" x="432.9758" y="-757.4" font-family="Helvetica,sans-Serif" font-size="11.00" fill="#000000">uuid[2147483647]</text>
<polygon fill="none" stroke="#000000" points="232,-727.7 232,-749.7 430,-749.7 430,-727.7 232,-727.7"/>
<text text-anchor="start" x="252" y="-734.8" font-family="Helvetica,sans-Serif" font-size="11.00" fill="#000000">interviewee</text>
<polygon fill="none" stroke="#000000" points="430,-727.7 430,-749.7 524,-749.7 524,-727.7 430,-727.7"/>
<text text-anchor="start" x="433" y="-735.4" font-family="Helvetica,sans-Serif" font-size="11.00" fill="#000000">varchar[100]</text>
<polygon fill="none" stroke="#000000" points="232,-705.7 232,-727.7 430,-727.7 430,-705.7 232,-705.7"/>
<text text-anchor="start" x="252" y="-712.8" font-family="Helvetica,sans-Serif" font-size="11.00" fill="#000000">interview_date</text>
<polygon fill="none" stroke="#000000" points="430,-705.7 430,-727.7 524,-727.7 524,-705.7 430,-705.7"/>
<text text-anchor="start" x="433" y="-713.4" font-family="Helvetica,sans-Serif" font-size="11.00" fill="#000000">date[13]</text>
<polygon fill="none" stroke="#000000" points="232,-683.7 232,-705.7 430,-705.7 430,-683.7 232,-683.7"/>
<image xlink:href="../../images/foreignKeys.png" width="11px" height="12px" preserveAspectRatio="xMinYMin meet" x="237" y="-700.7"/>
<text text-anchor="start" x="252" y="-690.8" font-family="Helvetica,sans-Serif" font-size="11.00" fill="#000000">interviewee_role_id</text>
<polygon fill="none" stroke="#000000" points="430,-683.7 430,-705.7 524,-705.7 524,-683.7 430,-683.7"/>
<text text-anchor="start" x="433" y="-691.4" font-family="Helvetica,sans-Serif" font-size="11.00" fill="#000000">int8[19]</text>
<polygon fill="none" stroke="#000000" points="232,-661.7 232,-683.7 430,-683.7 430,-661.7 232,-661.7"/>
<text text-anchor="start" x="252" y="-668.8" font-family="Helvetica,sans-Serif" font-size="11.00" fill="#000000">interview_text</text>
<polygon fill="none" stroke="#000000" points="430,-661.7 430,-683.7 524,-683.7 524,-661.7 430,-661.7"/>
<text text-anchor="start" x="433" y="-669.4" font-family="Helvetica,sans-Serif" font-size="11.00" fill="#000000">text[2147483647]</text>
<polygon fill="none" stroke="#000000" points="232,-639.7 232,-661.7 430,-661.7 430,-639.7 232,-639.7"/>
<text text-anchor="start" x="252" y="-646.8" font-family="Helvetica,sans-Serif" font-size="11.00" fill="#000000">interviewee_modified</text>
<polygon fill="none" stroke="#000000" points="430,-639.7 430,-661.7 524,-661.7 524,-639.7 430,-639.7"/>
<text text-anchor="start" x="433" y="-647.4" font-family="Helvetica,sans-Serif" font-size="11.00" fill="#000000">bool[1]</text>
<polygon fill="none" stroke="#000000" points="232,-617.7 232,-639.7 430,-639.7 430,-617.7 232,-617.7"/>
<text text-anchor="start" x="252" y="-624.8" font-family="Helvetica,sans-Serif" font-size="11.00" fill="#000000">interview_date_modified</text>
<polygon fill="none" stroke="#000000" points="430,-617.7 430,-639.7 524,-639.7 524,-617.7 430,-617.7"/>
<text text-anchor="start" x="433" y="-625.4" font-family="Helvetica,sans-Serif" font-size="11.00" fill="#000000">bool[1]</text>
<polygon fill="none" stroke="#000000" points="232,-595.7 232,-617.7 430,-617.7 430,-595.7 232,-595.7"/>
<text text-anchor="start" x="252" y="-602.8" font-family="Helvetica,sans-Serif" font-size="11.00" fill="#000000">interviewee_role_modified</text>
<polygon fill="none" stroke="#000000" points="430,-595.7 430,-617.7 524,-617.7 524,-595.7 430,-595.7"/>
<text text-anchor="start" x="433" y="-603.4" font-family="Helvetica,sans-Serif" font-size="11.00" fill="#000000">bool[1]</text>
<polygon fill="none" stroke="#000000" points="232,-573.7 232,-595.7 430,-595.7 430,-573.7 232,-573.7"/>
<text text-anchor="start" x="252" y="-580.8" font-family="Helvetica,sans-Serif" font-size="11.00" fill="#000000">interview_text_modified</text>
<polygon fill="none" stroke="#000000" points="430,-573.7 430,-595.7 524,-595.7 524,-573.7 430,-573.7"/>
<text text-anchor="start" x="433" y="-581.4" font-family="Helvetica,sans-Serif" font-size="11.00" fill="#000000">bool[1]</text>
<polygon fill="none" stroke="#000000" points="232,-551.7 232,-573.7 430,-573.7 430,-551.7 232,-551.7"/>
<image xlink:href="../../images/foreignKeys.png" width="11px" height="12px" preserveAspectRatio="xMinYMin meet" x="237" y="-568.7"/>
<text text-anchor="start" x="252" y="-558.8" font-family="Helvetica,sans-Serif" font-size="11.00" fill="#000000">legacy_id</text>
<polygon fill="none" stroke="#000000" points="430,-551.7 430,-573.7 524,-573.7 524,-551.7 430,-551.7"/>
<text text-anchor="start" x="433" y="-559.4" font-family="Helvetica,sans-Serif" font-size="11.00" fill="#000000">int8[19]</text>
<polygon fill="#ffffff" stroke="transparent" points="232,-532.7 232,-551.7 335,-551.7 335,-532.7 232,-532.7"/>
<polygon fill="none" stroke="#000000" points="232,-532.7 232,-551.7 335,-551.7 335,-532.7 232,-532.7"/>
<text text-anchor="start" x="235" y="-538.8" font-family="Helvetica,sans-Serif" font-size="11.00" fill="#000000">&lt; 1</text>
<polygon fill="#ffffff" stroke="transparent" points="335,-532.7 335,-551.7 430,-551.7 430,-532.7 335,-532.7"/>
<polygon fill="none" stroke="#000000" points="335,-532.7 335,-551.7 430,-551.7 430,-532.7 335,-532.7"/>
<text text-anchor="start" x="420.8862" y="-538.8" font-family="Helvetica,sans-Serif" font-size="11.00" fill="#000000"> &#160;</text>
<polygon fill="#ffffff" stroke="transparent" points="430,-532.7 430,-551.7 524,-551.7 524,-532.7 430,-532.7"/>
<polygon fill="none" stroke="#000000" points="430,-532.7 430,-551.7 524,-551.7 524,-532.7 430,-532.7"/>
<text text-anchor="start" x="505.4053" y="-538.8" font-family="Helvetica,sans-Serif" font-size="11.00" fill="#000000">0 &gt;</text>
<polygon fill="none" stroke="#000000" stroke-width="2" points="231,-531.7 231,-861.7 525,-861.7 525,-531.7 231,-531.7"/>
</a>
</g>
</g>
<!-- interview_audit&#45;&gt;audit_revision -->
<g id="edge6" class="edge">
<title>interview_audit:w&#45;&gt;audit_revision:e</title>
<path fill="none" stroke="#000000" d="M217.6396,-824.3451C163.3469,-803.4599 250.7301,-650.7 174,-650.7"/>
<polygon fill="#000000" stroke="#000000" points="224.1054,-825.4054 231.4174,-830.2526 228.0527,-826.0527 232,-826.7 232,-826.7 232,-826.7 228.0527,-826.0527 232.5826,-823.1474 224.1054,-825.4054 224.1054,-825.4054"/>
<ellipse fill="none" stroke="#000000" cx="220.9476" cy="-824.8875" rx="3.2" ry="3.2"/>
</g>
<!-- investigation_audit -->
<g id="node8" class="node">
<title>investigation_audit</title>
<g id="a_node8"><a xlink:href="../../tables/investigation_audit.html" xlink:title="investigation_audit" target="_top">
<polygon fill="#ffffff" stroke="transparent" points="293.5,-448.2 293.5,-509.2 462.5,-509.2 462.5,-448.2 293.5,-448.2"/>
<polygon fill="#f5f5f5" stroke="transparent" points="294,-485.7 294,-508.7 463,-508.7 463,-485.7 294,-485.7"/>
<polygon fill="none" stroke="#000000" points="294,-485.7 294,-508.7 463,-508.7 463,-485.7 294,-485.7"/>
<text text-anchor="start" x="299" y="-494.3" font-family="Helvetica,sans-Serif" font-weight="bold" font-size="11.00" fill="#000000">investigation_audit</text>
<text text-anchor="start" x="428.5219" y="-493.8" font-family="Helvetica,sans-Serif" font-size="11.00" fill="#000000">[table]</text>
<polygon fill="none" stroke="#000000" points="294,-466.7 294,-485.7 463,-485.7 463,-466.7 294,-466.7"/>
<text text-anchor="start" x="297" y="-472.8" font-family="Helvetica,sans-Serif" font-size="11.00" fill="#000000">...</text>
<polygon fill="#ffffff" stroke="transparent" points="294,-447.7 294,-466.7 377,-466.7 377,-447.7 294,-447.7"/>
<polygon fill="none" stroke="#000000" points="294,-447.7 294,-466.7 377,-466.7 377,-447.7 294,-447.7"/>
<text text-anchor="start" x="297" y="-453.8" font-family="Helvetica,sans-Serif" font-size="11.00" fill="#000000">&lt; 1</text>
<polygon fill="#ffffff" stroke="transparent" points="377,-447.7 377,-466.7 420,-466.7 420,-447.7 377,-447.7"/>
<polygon fill="none" stroke="#000000" points="377,-447.7 377,-466.7 420,-466.7 420,-447.7 377,-447.7"/>
<text text-anchor="start" x="410.8862" y="-453.8" font-family="Helvetica,sans-Serif" font-size="11.00" fill="#000000"> &#160;</text>
<polygon fill="#ffffff" stroke="transparent" points="420,-447.7 420,-466.7 463,-466.7 463,-447.7 420,-447.7"/>
<polygon fill="none" stroke="#000000" points="420,-447.7 420,-466.7 463,-466.7 463,-447.7 420,-447.7"/>
<text text-anchor="start" x="453.8862" y="-453.8" font-family="Helvetica,sans-Serif" font-size="11.00" fill="#000000"> &#160;</text>
</a>
</g>
</g>
<!-- investigation_audit&#45;&gt;audit_revision -->
<g id="edge7" class="edge">
<title>investigation_audit:w&#45;&gt;audit_revision:e</title>
<path fill="none" stroke="#000000" d="M279.2472,-476.4277C249.8692,-479.6176 237.0135,-493.4367 215,-520.7 176.9405,-567.8359 234.5832,-650.7 174,-650.7"/>
<polygon fill="#000000" stroke="#000000" points="286.0097,-476.0942 294.1774,-479.2956 290.0049,-475.8971 294,-475.7 294,-475.7 294,-475.7 290.0049,-475.8971 293.8226,-472.1044 286.0097,-476.0942 286.0097,-476.0942"/>
<ellipse fill="none" stroke="#000000" cx="282.8136" cy="-476.2519" rx="3.2" ry="3.2"/>
</g>
<!-- person_summary_audit -->
<g id="node9" class="node">
<title>person_summary_audit</title>
<g id="a_node9"><a xlink:href="../../tables/person_summary_audit.html" xlink:title="person_summary_audit" target="_top">
<polygon fill="#ffffff" stroke="transparent" points="280.5,-366.2 280.5,-427.2 475.5,-427.2 475.5,-366.2 280.5,-366.2"/>
<polygon fill="#f5f5f5" stroke="transparent" points="281,-403.7 281,-426.7 476,-426.7 476,-403.7 281,-403.7"/>
<polygon fill="none" stroke="#000000" points="281,-403.7 281,-426.7 476,-426.7 476,-403.7 281,-403.7"/>
<text text-anchor="start" x="286" y="-412.3" font-family="Helvetica,sans-Serif" font-weight="bold" font-size="11.00" fill="#000000">person_summary_audit</text>
<text text-anchor="start" x="441.5219" y="-411.8" font-family="Helvetica,sans-Serif" font-size="11.00" fill="#000000">[table]</text>
<polygon fill="none" stroke="#000000" points="281,-384.7 281,-403.7 476,-403.7 476,-384.7 281,-384.7"/>
<text text-anchor="start" x="284" y="-390.8" font-family="Helvetica,sans-Serif" font-size="11.00" fill="#000000">...</text>
<polygon fill="#ffffff" stroke="transparent" points="281,-365.7 281,-384.7 377,-384.7 377,-365.7 281,-365.7"/>
<polygon fill="none" stroke="#000000" points="281,-365.7 281,-384.7 377,-384.7 377,-365.7 281,-365.7"/>
<text text-anchor="start" x="284" y="-371.8" font-family="Helvetica,sans-Serif" font-size="11.00" fill="#000000">&lt; 1</text>
<polygon fill="#ffffff" stroke="transparent" points="377,-365.7 377,-384.7 426,-384.7 426,-365.7 377,-365.7"/>
<polygon fill="none" stroke="#000000" points="377,-365.7 377,-384.7 426,-384.7 426,-365.7 377,-365.7"/>
<text text-anchor="start" x="416.8862" y="-371.8" font-family="Helvetica,sans-Serif" font-size="11.00" fill="#000000"> &#160;</text>
<polygon fill="#ffffff" stroke="transparent" points="426,-365.7 426,-384.7 476,-384.7 476,-365.7 426,-365.7"/>
<polygon fill="none" stroke="#000000" points="426,-365.7 426,-384.7 476,-384.7 476,-365.7 426,-365.7"/>
<text text-anchor="start" x="466.8862" y="-371.8" font-family="Helvetica,sans-Serif" font-size="11.00" fill="#000000"> &#160;</text>
</a>
</g>
</g>
<!-- person_summary_audit&#45;&gt;audit_revision -->
<g id="edge8" class="edge">
<title>person_summary_audit:w&#45;&gt;audit_revision:e</title>
<path fill="none" stroke="#000000" d="M266.4459,-394.7194C242.1305,-398.5015 231.5385,-412.8102 215,-437.7 188.3234,-477.8474 222.2022,-650.7 174,-650.7"/>
<polygon fill="#000000" stroke="#000000" points="273.0196,-394.259 281.2516,-397.2912 277.0098,-393.9795 281,-393.7 281,-393.7 281,-393.7 277.0098,-393.9795 280.7484,-390.1088 273.0196,-394.259 273.0196,-394.259"/>
<ellipse fill="none" stroke="#000000" cx="269.8274" cy="-394.4826" rx="3.2" ry="3.2"/>
</g>
<!-- plan_audit -->
<g id="node10" class="node">
<title>plan_audit</title>
<g id="a_node10"><a xlink:href="../../tables/plan_audit.html" xlink:title="plan_audit" target="_top">
<polygon fill="#ffffff" stroke="transparent" points="323.5,-284.2 323.5,-345.2 432.5,-345.2 432.5,-284.2 323.5,-284.2"/>
<polygon fill="#f5f5f5" stroke="transparent" points="324,-321.7 324,-344.7 433,-344.7 433,-321.7 324,-321.7"/>
<polygon fill="none" stroke="#000000" points="324,-321.7 324,-344.7 433,-344.7 433,-321.7 324,-321.7"/>
<text text-anchor="start" x="329" y="-330.3" font-family="Helvetica,sans-Serif" font-weight="bold" font-size="11.00" fill="#000000">plan_audit</text>
<text text-anchor="start" x="398.5219" y="-329.8" font-family="Helvetica,sans-Serif" font-size="11.00" fill="#000000">[table]</text>
<polygon fill="none" stroke="#000000" points="324,-302.7 324,-321.7 433,-321.7 433,-302.7 324,-302.7"/>
<text text-anchor="start" x="327" y="-308.8" font-family="Helvetica,sans-Serif" font-size="11.00" fill="#000000">...</text>
<polygon fill="#ffffff" stroke="transparent" points="324,-283.7 324,-302.7 377,-302.7 377,-283.7 324,-283.7"/>
<polygon fill="none" stroke="#000000" points="324,-283.7 324,-302.7 377,-302.7 377,-283.7 324,-283.7"/>
<text text-anchor="start" x="327" y="-289.8" font-family="Helvetica,sans-Serif" font-size="11.00" fill="#000000">&lt; 1</text>
<polygon fill="#ffffff" stroke="transparent" points="377,-283.7 377,-302.7 405,-302.7 405,-283.7 377,-283.7"/>
<polygon fill="none" stroke="#000000" points="377,-283.7 377,-302.7 405,-302.7 405,-283.7 377,-283.7"/>
<text text-anchor="start" x="395.8862" y="-289.8" font-family="Helvetica,sans-Serif" font-size="11.00" fill="#000000"> &#160;</text>
<polygon fill="#ffffff" stroke="transparent" points="405,-283.7 405,-302.7 433,-302.7 433,-283.7 405,-283.7"/>
<polygon fill="none" stroke="#000000" points="405,-283.7 405,-302.7 433,-302.7 433,-283.7 405,-283.7"/>
<text text-anchor="start" x="423.8862" y="-289.8" font-family="Helvetica,sans-Serif" font-size="11.00" fill="#000000"> &#160;</text>
</a>
</g>
</g>
<!-- plan_audit&#45;&gt;audit_revision -->
<g id="edge9" class="edge">
<title>plan_audit:w&#45;&gt;audit_revision:e</title>
<path fill="none" stroke="#000000" d="M309.4522,-311.8136C266.8774,-312.6153 244,-318.5349 215,-355.7 174.2839,-407.8799 240.1857,-650.7 174,-650.7"/>
<polygon fill="#000000" stroke="#000000" points="316.0002,-311.7625 324.0281,-315.2999 320.0001,-311.7313 324,-311.7 324,-311.7 324,-311.7 320.0001,-311.7313 323.9719,-308.1001 316.0002,-311.7625 316.0002,-311.7625"/>
<ellipse fill="none" stroke="#000000" cx="312.8003" cy="-311.7875" rx="3.2" ry="3.2"/>
</g>
<!-- referral_audit -->
<g id="node11" class="node">
<title>referral_audit</title>
<g id="a_node11"><a xlink:href="../../tables/referral_audit.html" xlink:title="referral_audit" target="_top">
<polygon fill="#ffffff" stroke="transparent" points="312.5,-202.2 312.5,-263.2 443.5,-263.2 443.5,-202.2 312.5,-202.2"/>
<polygon fill="#f5f5f5" stroke="transparent" points="313,-239.7 313,-262.7 444,-262.7 444,-239.7 313,-239.7"/>
<polygon fill="none" stroke="#000000" points="313,-239.7 313,-262.7 444,-262.7 444,-239.7 313,-239.7"/>
<text text-anchor="start" x="318" y="-248.3" font-family="Helvetica,sans-Serif" font-weight="bold" font-size="11.00" fill="#000000">referral_audit</text>
<text text-anchor="start" x="409.5219" y="-247.8" font-family="Helvetica,sans-Serif" font-size="11.00" fill="#000000">[table]</text>
<polygon fill="none" stroke="#000000" points="313,-220.7 313,-239.7 444,-239.7 444,-220.7 313,-220.7"/>
<text text-anchor="start" x="316" y="-226.8" font-family="Helvetica,sans-Serif" font-size="11.00" fill="#000000">...</text>
<polygon fill="#ffffff" stroke="transparent" points="313,-201.7 313,-220.7 377,-220.7 377,-201.7 313,-201.7"/>
<polygon fill="none" stroke="#000000" points="313,-201.7 313,-220.7 377,-220.7 377,-201.7 313,-201.7"/>
<text text-anchor="start" x="316" y="-207.8" font-family="Helvetica,sans-Serif" font-size="11.00" fill="#000000">&lt; 1</text>
<polygon fill="#ffffff" stroke="transparent" points="377,-201.7 377,-220.7 410,-220.7 410,-201.7 377,-201.7"/>
<polygon fill="none" stroke="#000000" points="377,-201.7 377,-220.7 410,-220.7 410,-201.7 377,-201.7"/>
<text text-anchor="start" x="400.8862" y="-207.8" font-family="Helvetica,sans-Serif" font-size="11.00" fill="#000000"> &#160;</text>
<polygon fill="#ffffff" stroke="transparent" points="410,-201.7 410,-220.7 444,-220.7 444,-201.7 410,-201.7"/>
<polygon fill="none" stroke="#000000" points="410,-201.7 410,-220.7 444,-220.7 444,-201.7 410,-201.7"/>
<text text-anchor="start" x="434.8862" y="-207.8" font-family="Helvetica,sans-Serif" font-size="11.00" fill="#000000"> &#160;</text>
</a>
</g>
</g>
<!-- referral_audit&#45;&gt;audit_revision -->
<g id="edge10" class="edge">
<title>referral_audit:w&#45;&gt;audit_revision:e</title>
<path fill="none" stroke="#000000" d="M298.4596,-229.9208C260.4219,-231.2396 240.057,-239.2294 215,-273.7 165.4499,-341.8653 258.2718,-650.7 174,-650.7"/>
<polygon fill="#000000" stroke="#000000" points="305.0009,-229.8215 313.0547,-233.2996 309.0005,-229.7608 313,-229.7 313,-229.7 313,-229.7 309.0005,-229.7608 312.9453,-226.1004 305.0009,-229.8215 305.0009,-229.8215"/>
<ellipse fill="none" stroke="#000000" cx="301.8013" cy="-229.8701" rx="3.2" ry="3.2"/>
</g>
<!-- review_audit -->
<g id="node12" class="node">
<title>review_audit</title>
<g id="a_node12"><a xlink:href="../../tables/review_audit.html" xlink:title="review_audit" target="_top">
<polygon fill="#ffffff" stroke="transparent" points="315.5,-120.2 315.5,-181.2 440.5,-181.2 440.5,-120.2 315.5,-120.2"/>
<polygon fill="#f5f5f5" stroke="transparent" points="316,-157.7 316,-180.7 441,-180.7 441,-157.7 316,-157.7"/>
<polygon fill="none" stroke="#000000" points="316,-157.7 316,-180.7 441,-180.7 441,-157.7 316,-157.7"/>
<text text-anchor="start" x="321" y="-166.3" font-family="Helvetica,sans-Serif" font-weight="bold" font-size="11.00" fill="#000000">review_audit</text>
<text text-anchor="start" x="406.5219" y="-165.8" font-family="Helvetica,sans-Serif" font-size="11.00" fill="#000000">[table]</text>
<polygon fill="none" stroke="#000000" points="316,-138.7 316,-157.7 441,-157.7 441,-138.7 316,-138.7"/>
<text text-anchor="start" x="319" y="-144.8" font-family="Helvetica,sans-Serif" font-size="11.00" fill="#000000">...</text>
<polygon fill="#ffffff" stroke="transparent" points="316,-119.7 316,-138.7 377,-138.7 377,-119.7 316,-119.7"/>
<polygon fill="none" stroke="#000000" points="316,-119.7 316,-138.7 377,-138.7 377,-119.7 316,-119.7"/>
<text text-anchor="start" x="319" y="-125.8" font-family="Helvetica,sans-Serif" font-size="11.00" fill="#000000">&lt; 1</text>
<polygon fill="#ffffff" stroke="transparent" points="377,-119.7 377,-138.7 409,-138.7 409,-119.7 377,-119.7"/>
<polygon fill="none" stroke="#000000" points="377,-119.7 377,-138.7 409,-138.7 409,-119.7 377,-119.7"/>
<text text-anchor="start" x="399.8862" y="-125.8" font-family="Helvetica,sans-Serif" font-size="11.00" fill="#000000"> &#160;</text>
<polygon fill="#ffffff" stroke="transparent" points="409,-119.7 409,-138.7 441,-138.7 441,-119.7 409,-119.7"/>
<polygon fill="none" stroke="#000000" points="409,-119.7 409,-138.7 441,-138.7 441,-119.7 409,-119.7"/>
<text text-anchor="start" x="431.8862" y="-125.8" font-family="Helvetica,sans-Serif" font-size="11.00" fill="#000000"> &#160;</text>
</a>
</g>
</g>
<!-- review_audit&#45;&gt;audit_revision -->
<g id="edge11" class="edge">
<title>review_audit:w&#45;&gt;audit_revision:e</title>
<path fill="none" stroke="#000000" d="M301.5819,-147.8721C262.1344,-148.9656 240.6657,-156.0903 215,-191.7 185.0613,-233.2383 225.2031,-650.7 174,-650.7"/>
<polygon fill="#000000" stroke="#000000" points="308.0006,-147.7955 316.043,-151.2997 312.0003,-147.7478 316,-147.7 316,-147.7 316,-147.7 312.0003,-147.7478 315.957,-144.1003 308.0006,-147.7955 308.0006,-147.7955"/>
<ellipse fill="none" stroke="#000000" cx="304.8008" cy="-147.8338" rx="3.2" ry="3.2"/>
</g>
<!-- safer_custody_screening_outcome_audit -->
<g id="node13" class="node">
<title>safer_custody_screening_outcome_audit</title>
<g id="a_node13"><a xlink:href="../../tables/safer_custody_screening_outcome_audit.html" xlink:title="safer_custody_screening_outcome_audit" target="_top">
<polygon fill="#ffffff" stroke="transparent" points="223,-38.2 223,-99.2 533,-99.2 533,-38.2 223,-38.2"/>
<polygon fill="#f5f5f5" stroke="transparent" points="223,-75.7 223,-98.7 533,-98.7 533,-75.7 223,-75.7"/>
<polygon fill="none" stroke="#000000" points="223,-75.7 223,-98.7 533,-98.7 533,-75.7 223,-75.7"/>
<text text-anchor="start" x="228" y="-84.3" font-family="Helvetica,sans-Serif" font-weight="bold" font-size="11.00" fill="#000000">safer_custody_screening_outcome_audit</text>
<text text-anchor="start" x="498.5219" y="-83.8" font-family="Helvetica,sans-Serif" font-size="11.00" fill="#000000">[table]</text>
<polygon fill="none" stroke="#000000" points="223,-56.7 223,-75.7 533,-75.7 533,-56.7 223,-56.7"/>
<text text-anchor="start" x="226" y="-62.8" font-family="Helvetica,sans-Serif" font-size="11.00" fill="#000000">...</text>
<polygon fill="#ffffff" stroke="transparent" points="223,-37.7 223,-56.7 376,-56.7 376,-37.7 223,-37.7"/>
<polygon fill="none" stroke="#000000" points="223,-37.7 223,-56.7 376,-56.7 376,-37.7 223,-37.7"/>
<text text-anchor="start" x="226" y="-43.8" font-family="Helvetica,sans-Serif" font-size="11.00" fill="#000000">&lt; 1</text>
<polygon fill="#ffffff" stroke="transparent" points="376,-37.7 376,-56.7 454,-56.7 454,-37.7 376,-37.7"/>
<polygon fill="none" stroke="#000000" points="376,-37.7 376,-56.7 454,-56.7 454,-37.7 376,-37.7"/>
<text text-anchor="start" x="444.8862" y="-43.8" font-family="Helvetica,sans-Serif" font-size="11.00" fill="#000000"> &#160;</text>
<polygon fill="#ffffff" stroke="transparent" points="454,-37.7 454,-56.7 533,-56.7 533,-37.7 454,-37.7"/>
<polygon fill="none" stroke="#000000" points="454,-37.7 454,-56.7 533,-56.7 533,-37.7 454,-37.7"/>
<text text-anchor="start" x="523.8862" y="-43.8" font-family="Helvetica,sans-Serif" font-size="11.00" fill="#000000"> &#160;</text>
</a>
</g>
</g>
<!-- safer_custody_screening_outcome_audit&#45;&gt;audit_revision -->
<g id="edge12" class="edge">
<title>safer_custody_screening_outcome_audit:w&#45;&gt;audit_revision:e</title>
<path fill="none" stroke="#000000" d="M211.0462,-74.4236C168.7792,-147.1957 234.5139,-650.7 174,-650.7"/>
<polygon fill="#000000" stroke="#000000" points="216.5378,-70.416 225.1222,-68.608 219.7689,-68.058 223,-65.7 223,-65.7 223,-65.7 219.7689,-68.058 220.8778,-62.792 216.5378,-70.416 216.5378,-70.416"/>
<ellipse fill="none" stroke="#000000" cx="213.9529" cy="-72.3024" rx="3.2" ry="3.2"/>
</g>
</g>
</svg>
