<?xml version="1.0" encoding="UTF-8" standalone="no"?>
<!DOCTYPE svg PUBLIC "-//W3C//DTD SVG 1.1//EN"
 "http://www.w3.org/Graphics/SVG/1.1/DTD/svg11.dtd">
<!-- Generated by graphviz version 2.40.1 (20161225.0304)
 -->
<!-- Title: twoDegreesRelationshipsDiagram Pages: 1 -->
<svg width="549pt" height="1203pt"
 viewBox="0.00 0.00 549.00 1203.20" xmlns="http://www.w3.org/2000/svg" xmlns:xlink="http://www.w3.org/1999/xlink">
<g id="graph0" class="graph" transform="scale(1 1) rotate(0) translate(4 1199.2)">
<title>twoDegreesRelationshipsDiagram</title>
<polygon fill="#ffffff" stroke="transparent" points="-4,4 -4,-1199.2 545,-1199.2 545,4 -4,4"/>
<text text-anchor="middle" x="72.4936" y="-7.3" font-family="Helvetica,sans-Serif" font-size="11.00" fill="#000000">Generated by SchemaSpy</text>
<!-- attendee_audit -->
<g id="node1" class="node">
<title>attendee_audit</title>
<g id="a_node1"><a xlink:href="../../tables/attendee_audit.html" xlink:title="attendee_audit" target="_top">
<polygon fill="#ffffff" stroke="transparent" points="307.5,-1130.2 307.5,-1191.2 448.5,-1191.2 448.5,-1130.2 307.5,-1130.2"/>
<polygon fill="#f5f5f5" stroke="transparent" points="308,-1167.7 308,-1190.7 449,-1190.7 449,-1167.7 308,-1167.7"/>
<polygon fill="none" stroke="#000000" points="308,-1167.7 308,-1190.7 449,-1190.7 449,-1167.7 308,-1167.7"/>
<text text-anchor="start" x="313" y="-1176.3" font-family="Helvetica,sans-Serif" font-weight="bold" font-size="11.00" fill="#000000">attendee_audit</text>
<text text-anchor="start" x="414.5219" y="-1175.8" font-family="Helvetica,sans-Serif" font-size="11.00" fill="#000000">[table]</text>
<polygon fill="none" stroke="#000000" points="308,-1148.7 308,-1167.7 449,-1167.7 449,-1148.7 308,-1148.7"/>
<text text-anchor="start" x="311" y="-1154.8" font-family="Helvetica,sans-Serif" font-size="11.00" fill="#000000">...</text>
<polygon fill="#ffffff" stroke="transparent" points="308,-1129.7 308,-1148.7 377,-1148.7 377,-1129.7 308,-1129.7"/>
<polygon fill="none" stroke="#000000" points="308,-1129.7 308,-1148.7 377,-1148.7 377,-1129.7 308,-1129.7"/>
<text text-anchor="start" x="311" y="-1135.8" font-family="Helvetica,sans-Serif" font-size="11.00" fill="#000000">&lt; 1</text>
<polygon fill="#ffffff" stroke="transparent" points="377,-1129.7 377,-1148.7 413,-1148.7 413,-1129.7 377,-1129.7"/>
<polygon fill="none" stroke="#000000" points="377,-1129.7 377,-1148.7 413,-1148.7 413,-1129.7 377,-1129.7"/>
<text text-anchor="start" x="403.8862" y="-1135.8" font-family="Helvetica,sans-Serif" font-size="11.00" fill="#000000"> &#160;</text>
<polygon fill="#ffffff" stroke="transparent" points="413,-1129.7 413,-1148.7 449,-1148.7 449,-1129.7 413,-1129.7"/>
<polygon fill="none" stroke="#000000" points="413,-1129.7 413,-1148.7 449,-1148.7 449,-1129.7 413,-1129.7"/>
<text text-anchor="start" x="439.8862" y="-1135.8" font-family="Helvetica,sans-Serif" font-size="11.00" fill="#000000"> &#160;</text>
</a>
</g>
</g>
<!-- audit_revision -->
<g id="node2" class="node">
<title>audit_revision</title>
<g id="a_node2"><a xlink:href="../../tables/audit_revision.html" xlink:title="audit_revision" target="_top">
<polygon fill="#ffffff" stroke="transparent" points="8,-696.2 8,-779.2 174,-779.2 174,-696.2 8,-696.2"/>
<polygon fill="#f5f5f5" stroke="transparent" points="8,-755.7 8,-778.7 174,-778.7 174,-755.7 8,-755.7"/>
<polygon fill="none" stroke="#000000" points="8,-755.7 8,-778.7 174,-778.7 174,-755.7 8,-755.7"/>
<text text-anchor="start" x="13" y="-764.3" font-family="Helvetica,sans-Serif" font-weight="bold" font-size="11.00" fill="#000000">audit_revision</text>
<text text-anchor="start" x="139.0437" y="-763.8" font-family="Helvetica,sans-Serif" font-size="11.00" fill="#000000">[table]</text>
<polygon fill="none" stroke="#000000" points="8,-733.7 8,-755.7 174,-755.7 174,-733.7 8,-733.7"/>
<image xlink:href="../../images/primaryKeys.png" width="11px" height="12px" preserveAspectRatio="xMinYMin meet" x="13" y="-750.7"/>
<text text-anchor="start" x="28" y="-740.8" font-family="Helvetica,sans-Serif" font-size="11.00" fill="#000000">id</text>
<polygon fill="none" stroke="#000000" points="8,-714.7 8,-733.7 174,-733.7 174,-714.7 8,-714.7"/>
<text text-anchor="start" x="11" y="-720.8" font-family="Helvetica,sans-Serif" font-size="11.00" fill="#000000">...</text>
<polygon fill="#ffffff" stroke="transparent" points="8,-695.7 8,-714.7 77,-714.7 77,-695.7 8,-695.7"/>
<polygon fill="none" stroke="#000000" points="8,-695.7 8,-714.7 77,-714.7 77,-695.7 8,-695.7"/>
<text text-anchor="start" x="11" y="-701.8" font-family="Helvetica,sans-Serif" font-size="11.00" fill="#000000"> &#160;</text>
<polygon fill="#ffffff" stroke="transparent" points="77,-695.7 77,-714.7 118,-714.7 118,-695.7 77,-695.7"/>
<polygon fill="none" stroke="#000000" points="77,-695.7 77,-714.7 118,-714.7 118,-695.7 77,-695.7"/>
<text text-anchor="start" x="108.8862" y="-701.8" font-family="Helvetica,sans-Serif" font-size="11.00" fill="#000000"> &#160;</text>
<polygon fill="#ffffff" stroke="transparent" points="118,-695.7 118,-714.7 174,-714.7 174,-695.7 118,-695.7"/>
<polygon fill="none" stroke="#000000" points="118,-695.7 118,-714.7 174,-714.7 174,-695.7 118,-695.7"/>
<text text-anchor="start" x="149.2904" y="-701.8" font-family="Helvetica,sans-Serif" font-size="11.00" fill="#000000">11 &gt;</text>
</a>
</g>
</g>
<!-- attendee_audit&#45;&gt;audit_revision -->
<g id="edge1" class="edge">
<title>attendee_audit:w&#45;&gt;audit_revision:e</title>
<path fill="none" stroke="#000000" d="M293.2114,-1157.5536C258.2423,-1156.6932 238.7264,-1151.1777 215,-1119.7 164.5414,-1052.7568 257.8299,-744.7 174,-744.7"/>
<polygon fill="#000000" stroke="#000000" points="300.0004,-1157.6208 307.9643,-1161.2998 304.0002,-1157.6604 308,-1157.7 308,-1157.7 308,-1157.7 304.0002,-1157.6604 308.0357,-1154.1002 300.0004,-1157.6208 300.0004,-1157.6208"/>
<ellipse fill="none" stroke="#000000" cx="296.8005" cy="-1157.5891" rx="3.2" ry="3.2"/>
</g>
<!-- contributory_factor_audit -->
<g id="node3" class="node">
<title>contributory_factor_audit</title>
<g id="a_node3"><a xlink:href="../../tables/contributory_factor_audit.html" xlink:title="contributory_factor_audit" target="_top">
<polygon fill="#ffffff" stroke="transparent" points="273,-1048.2 273,-1109.2 483,-1109.2 483,-1048.2 273,-1048.2"/>
<polygon fill="#f5f5f5" stroke="transparent" points="273,-1085.7 273,-1108.7 483,-1108.7 483,-1085.7 273,-1085.7"/>
<polygon fill="none" stroke="#000000" points="273,-1085.7 273,-1108.7 483,-1108.7 483,-1085.7 273,-1085.7"/>
<text text-anchor="start" x="278" y="-1094.3" font-family="Helvetica,sans-Serif" font-weight="bold" font-size="11.00" fill="#000000">contributory_factor_audit</text>
<text text-anchor="start" x="448.5219" y="-1093.8" font-family="Helvetica,sans-Serif" font-size="11.00" fill="#000000">[table]</text>
<polygon fill="none" stroke="#000000" points="273,-1066.7 273,-1085.7 483,-1085.7 483,-1066.7 273,-1066.7"/>
<text text-anchor="start" x="276" y="-1072.8" font-family="Helvetica,sans-Serif" font-size="11.00" fill="#000000">...</text>
<polygon fill="#ffffff" stroke="transparent" points="273,-1047.7 273,-1066.7 376,-1066.7 376,-1047.7 273,-1047.7"/>
<polygon fill="none" stroke="#000000" points="273,-1047.7 273,-1066.7 376,-1066.7 376,-1047.7 273,-1047.7"/>
<text text-anchor="start" x="276" y="-1053.8" font-family="Helvetica,sans-Serif" font-size="11.00" fill="#000000">&lt; 1</text>
<polygon fill="#ffffff" stroke="transparent" points="376,-1047.7 376,-1066.7 429,-1066.7 429,-1047.7 376,-1047.7"/>
<polygon fill="none" stroke="#000000" points="376,-1047.7 376,-1066.7 429,-1066.7 429,-1047.7 376,-1047.7"/>
<text text-anchor="start" x="419.8862" y="-1053.8" font-family="Helvetica,sans-Serif" font-size="11.00" fill="#000000"> &#160;</text>
<polygon fill="#ffffff" stroke="transparent" points="429,-1047.7 429,-1066.7 483,-1066.7 483,-1047.7 429,-1047.7"/>
<polygon fill="none" stroke="#000000" points="429,-1047.7 429,-1066.7 483,-1066.7 483,-1047.7 429,-1047.7"/>
<text text-anchor="start" x="473.8862" y="-1053.8" font-family="Helvetica,sans-Serif" font-size="11.00" fill="#000000"> &#160;</text>
</a>
</g>
</g>
<!-- contributory_factor_audit&#45;&gt;audit_revision -->
<g id="edge2" class="edge">
<title>contributory_factor_audit:w&#45;&gt;audit_revision:e</title>
<path fill="none" stroke="#000000" d="M258.4739,-1074.579C238.2465,-1071.0573 228.5979,-1059.1542 215,-1037.7 179.8038,-982.169 239.7455,-744.7 174,-744.7"/>
<polygon fill="#000000" stroke="#000000" points="265.0237,-1075.0844 272.723,-1079.2893 269.0119,-1075.3922 273,-1075.7 273,-1075.7 273,-1075.7 269.0119,-1075.3922 273.277,-1072.1107 265.0237,-1075.0844 265.0237,-1075.0844"/>
<ellipse fill="none" stroke="#000000" cx="261.8332" cy="-1074.8382" rx="3.2" ry="3.2"/>
</g>
<!-- csip_record_audit -->
<g id="node4" class="node">
<title>csip_record_audit</title>
<g id="a_node4"><a xlink:href="../../tables/csip_record_audit.html" xlink:title="csip_record_audit" target="_top">
<polygon fill="#ffffff" stroke="transparent" points="300,-966.2 300,-1027.2 456,-1027.2 456,-966.2 300,-966.2"/>
<polygon fill="#f5f5f5" stroke="transparent" points="300,-1003.7 300,-1026.7 456,-1026.7 456,-1003.7 300,-1003.7"/>
<polygon fill="none" stroke="#000000" points="300,-1003.7 300,-1026.7 456,-1026.7 456,-1003.7 300,-1003.7"/>
<text text-anchor="start" x="305" y="-1012.3" font-family="Helvetica,sans-Serif" font-weight="bold" font-size="11.00" fill="#000000">csip_record_audit</text>
<text text-anchor="start" x="421.5219" y="-1011.8" font-family="Helvetica,sans-Serif" font-size="11.00" fill="#000000">[table]</text>
<polygon fill="none" stroke="#000000" points="300,-984.7 300,-1003.7 456,-1003.7 456,-984.7 300,-984.7"/>
<text text-anchor="start" x="303" y="-990.8" font-family="Helvetica,sans-Serif" font-size="11.00" fill="#000000">...</text>
<polygon fill="#ffffff" stroke="transparent" points="300,-965.7 300,-984.7 376,-984.7 376,-965.7 300,-965.7"/>
<polygon fill="none" stroke="#000000" points="300,-965.7 300,-984.7 376,-984.7 376,-965.7 300,-965.7"/>
<text text-anchor="start" x="303" y="-971.8" font-family="Helvetica,sans-Serif" font-size="11.00" fill="#000000">&lt; 1</text>
<polygon fill="#ffffff" stroke="transparent" points="376,-965.7 376,-984.7 416,-984.7 416,-965.7 376,-965.7"/>
<polygon fill="none" stroke="#000000" points="376,-965.7 376,-984.7 416,-984.7 416,-965.7 376,-965.7"/>
<text text-anchor="start" x="406.8862" y="-971.8" font-family="Helvetica,sans-Serif" font-size="11.00" fill="#000000"> &#160;</text>
<polygon fill="#ffffff" stroke="transparent" points="416,-965.7 416,-984.7 456,-984.7 456,-965.7 416,-965.7"/>
<polygon fill="none" stroke="#000000" points="416,-965.7 416,-984.7 456,-984.7 456,-965.7 416,-965.7"/>
<text text-anchor="start" x="446.8862" y="-971.8" font-family="Helvetica,sans-Serif" font-size="11.00" fill="#000000"> &#160;</text>
</a>
</g>
</g>
<!-- csip_record_audit&#45;&gt;audit_revision -->
<g id="edge3" class="edge">
<title>csip_record_audit:w&#45;&gt;audit_revision:e</title>
<path fill="none" stroke="#000000" d="M285.5223,-993.3963C254.0252,-991.8825 237.5177,-984.055 215,-955.7 155.5896,-880.8888 269.5318,-744.7 174,-744.7"/>
<polygon fill="#000000" stroke="#000000" points="292.0018,-993.5322 299.9245,-997.2992 296.0009,-993.6161 300,-993.7 300,-993.7 300,-993.7 296.0009,-993.6161 300.0755,-990.1008 292.0018,-993.5322 292.0018,-993.5322"/>
<ellipse fill="none" stroke="#000000" cx="288.8025" cy="-993.4651" rx="3.2" ry="3.2"/>
</g>
<!-- decision_and_actions_audit -->
<g id="node5" class="node">
<title>decision_and_actions_audit</title>
<g id="a_node5"><a xlink:href="../../tables/decision_and_actions_audit.html" xlink:title="decision_and_actions_audit" target="_top">
<polygon fill="#ffffff" stroke="transparent" points="267,-884.2 267,-945.2 489,-945.2 489,-884.2 267,-884.2"/>
<polygon fill="#f5f5f5" stroke="transparent" points="267,-921.7 267,-944.7 489,-944.7 489,-921.7 267,-921.7"/>
<polygon fill="none" stroke="#000000" points="267,-921.7 267,-944.7 489,-944.7 489,-921.7 267,-921.7"/>
<text text-anchor="start" x="272" y="-930.3" font-family="Helvetica,sans-Serif" font-weight="bold" font-size="11.00" fill="#000000">decision_and_actions_audit</text>
<text text-anchor="start" x="454.5219" y="-929.8" font-family="Helvetica,sans-Serif" font-size="11.00" fill="#000000">[table]</text>
<polygon fill="none" stroke="#000000" points="267,-902.7 267,-921.7 489,-921.7 489,-902.7 267,-902.7"/>
<text text-anchor="start" x="270" y="-908.8" font-family="Helvetica,sans-Serif" font-size="11.00" fill="#000000">...</text>
<polygon fill="#ffffff" stroke="transparent" points="267,-883.7 267,-902.7 376,-902.7 376,-883.7 267,-883.7"/>
<polygon fill="none" stroke="#000000" points="267,-883.7 267,-902.7 376,-902.7 376,-883.7 267,-883.7"/>
<text text-anchor="start" x="270" y="-889.8" font-family="Helvetica,sans-Serif" font-size="11.00" fill="#000000">&lt; 1</text>
<polygon fill="#ffffff" stroke="transparent" points="376,-883.7 376,-902.7 432,-902.7 432,-883.7 376,-883.7"/>
<polygon fill="none" stroke="#000000" points="376,-883.7 376,-902.7 432,-902.7 432,-883.7 376,-883.7"/>
<text text-anchor="start" x="422.8862" y="-889.8" font-family="Helvetica,sans-Serif" font-size="11.00" fill="#000000"> &#160;</text>
<polygon fill="#ffffff" stroke="transparent" points="432,-883.7 432,-902.7 489,-902.7 489,-883.7 432,-883.7"/>
<polygon fill="none" stroke="#000000" points="432,-883.7 432,-902.7 489,-902.7 489,-883.7 432,-883.7"/>
<text text-anchor="start" x="479.8862" y="-889.8" font-family="Helvetica,sans-Serif" font-size="11.00" fill="#000000"> &#160;</text>
</a>
</g>
</g>
<!-- decision_and_actions_audit&#45;&gt;audit_revision -->
<g id="edge4" class="edge">
<title>decision_and_actions_audit:w&#45;&gt;audit_revision:e</title>
<path fill="none" stroke="#000000" d="M252.5032,-910.0572C235.3913,-905.6092 228.4531,-892.3967 215,-873.7 179.8631,-824.8681 234.1595,-744.7 174,-744.7"/>
<polygon fill="#000000" stroke="#000000" points="259.0509,-910.7991 266.5946,-915.2771 263.0254,-911.2496 267,-911.7 267,-911.7 267,-911.7 263.0254,-911.2496 267.4054,-908.1229 259.0509,-910.7991 259.0509,-910.7991"/>
<ellipse fill="none" stroke="#000000" cx="255.8712" cy="-910.4388" rx="3.2" ry="3.2"/>
</g>
<!-- identified_need_audit -->
<g id="node6" class="node">
<title>identified_need_audit</title>
<g id="a_node6"><a xlink:href="../../tables/identified_need_audit.html" xlink:title="identified_need_audit" target="_top">
<polygon fill="#ffffff" stroke="transparent" points="286,-802.2 286,-863.2 470,-863.2 470,-802.2 286,-802.2"/>
<polygon fill="#f5f5f5" stroke="transparent" points="286,-839.7 286,-862.7 470,-862.7 470,-839.7 286,-839.7"/>
<polygon fill="none" stroke="#000000" points="286,-839.7 286,-862.7 470,-862.7 470,-839.7 286,-839.7"/>
<text text-anchor="start" x="291" y="-848.3" font-family="Helvetica,sans-Serif" font-weight="bold" font-size="11.00" fill="#000000">identified_need_audit</text>
<text text-anchor="start" x="435.5219" y="-847.8" font-family="Helvetica,sans-Serif" font-size="11.00" fill="#000000">[table]</text>
<polygon fill="none" stroke="#000000" points="286,-820.7 286,-839.7 470,-839.7 470,-820.7 286,-820.7"/>
<text text-anchor="start" x="289" y="-826.8" font-family="Helvetica,sans-Serif" font-size="11.00" fill="#000000">...</text>
<polygon fill="#ffffff" stroke="transparent" points="286,-801.7 286,-820.7 376,-820.7 376,-801.7 286,-801.7"/>
<polygon fill="none" stroke="#000000" points="286,-801.7 286,-820.7 376,-820.7 376,-801.7 286,-801.7"/>
<text text-anchor="start" x="289" y="-807.8" font-family="Helvetica,sans-Serif" font-size="11.00" fill="#000000">&lt; 1</text>
<polygon fill="#ffffff" stroke="transparent" points="376,-801.7 376,-820.7 423,-820.7 423,-801.7 376,-801.7"/>
<polygon fill="none" stroke="#000000" points="376,-801.7 376,-820.7 423,-820.7 423,-801.7 376,-801.7"/>
<text text-anchor="start" x="413.8862" y="-807.8" font-family="Helvetica,sans-Serif" font-size="11.00" fill="#000000"> &#160;</text>
<polygon fill="#ffffff" stroke="transparent" points="423,-801.7 423,-820.7 470,-820.7 470,-801.7 423,-801.7"/>
<polygon fill="none" stroke="#000000" points="423,-801.7 423,-820.7 470,-820.7 470,-801.7 423,-801.7"/>
<text text-anchor="start" x="460.8862" y="-807.8" font-family="Helvetica,sans-Serif" font-size="11.00" fill="#000000"> &#160;</text>
</a>
</g>
</g>
<!-- identified_need_audit&#45;&gt;audit_revision -->
<g id="edge5" class="edge">
<title>identified_need_audit:w&#45;&gt;audit_revision:e</title>
<path fill="none" stroke="#000000" d="M271.4579,-828.6387C247.5299,-824.7617 238.7337,-810.5978 215,-791.7 193.3147,-774.4332 201.7199,-744.7 174,-744.7"/>
<polygon fill="#000000" stroke="#000000" points="278.0212,-829.1177 285.7379,-833.2905 282.0106,-829.4088 286,-829.7 286,-829.7 286,-829.7 282.0106,-829.4088 286.2621,-826.1095 278.0212,-829.1177 278.0212,-829.1177"/>
<ellipse fill="none" stroke="#000000" cx="274.8297" cy="-828.8847" rx="3.2" ry="3.2"/>
</g>
<!-- interview_audit -->
<g id="node7" class="node">
<title>interview_audit</title>
<g id="a_node7"><a xlink:href="../../tables/interview_audit.html" xlink:title="interview_audit" target="_top">
<polygon fill="#ffffff" stroke="transparent" points="230,-448.7 230,-780.7 526,-780.7 526,-448.7 230,-448.7"/>
<polygon fill="#f5f5f5" stroke="transparent" points="232,-755.7 232,-778.7 524,-778.7 524,-755.7 232,-755.7"/>
<polygon fill="none" stroke="#000000" points="232,-755.7 232,-778.7 524,-778.7 524,-755.7 232,-755.7"/>
<text text-anchor="start" x="237" y="-764.3" font-family="Helvetica,sans-Serif" font-weight="bold" font-size="11.00" fill="#000000">interview_audit</text>
<text text-anchor="start" x="489.0437" y="-763.8" font-family="Helvetica,sans-Serif" font-size="11.00" fill="#000000">[table]</text>
<polygon fill="none" stroke="#000000" points="232,-733.7 232,-755.7 430,-755.7 430,-733.7 232,-733.7"/>
<image xlink:href="../../images/primaryKeys.png" width="11px" height="12px" preserveAspectRatio="xMinYMin meet" x="237" y="-750.7"/>
<text text-anchor="start" x="252" y="-740.8" font-family="Helvetica,sans-Serif" font-size="11.00" fill="#000000">rev_id</text>
<polygon fill="none" stroke="#000000" points="430,-733.7 430,-755.7 524,-755.7 524,-733.7 430,-733.7"/>
<text text-anchor="start" x="433" y="-741.4" font-family="Helvetica,sans-Serif" font-size="11.00" fill="#000000">int8[19]</text>
<polygon fill="none" stroke="#000000" points="232,-711.7 232,-733.7 430,-733.7 430,-711.7 232,-711.7"/>
<text text-anchor="start" x="252" y="-718.8" font-family="Helvetica,sans-Serif" font-size="11.00" fill="#000000">rev_type</text>
<polygon fill="none" stroke="#000000" points="430,-711.7 430,-733.7 524,-733.7 524,-711.7 430,-711.7"/>
<text text-anchor="start" x="433" y="-719.4" font-family="Helvetica,sans-Serif" font-size="11.00" fill="#000000">int2[5]</text>
<polygon fill="none" stroke="#000000" points="232,-689.7 232,-711.7 430,-711.7 430,-689.7 232,-689.7"/>
<image xlink:href="../../images/primaryKeys.png" width="11px" height="12px" preserveAspectRatio="xMinYMin meet" x="237" y="-706.7"/>
<text text-anchor="start" x="252" y="-696.8" font-family="Helvetica,sans-Serif" font-size="11.00" fill="#000000">interview_id</text>
<polygon fill="none" stroke="#000000" points="430,-689.7 430,-711.7 524,-711.7 524,-689.7 430,-689.7"/>
<text text-anchor="start" x="432.9758" y="-697.4" font-family="Helvetica,sans-Serif" font-size="11.00" fill="#000000">uuid[2147483647]</text>
<polygon fill="none" stroke="#000000" points="232,-667.7 232,-689.7 430,-689.7 430,-667.7 232,-667.7"/>
<image xlink:href="../../images/foreignKeys.png" width="11px" height="12px" preserveAspectRatio="xMinYMin meet" x="237" y="-684.7"/>
<text text-anchor="start" x="252" y="-674.8" font-family="Helvetica,sans-Serif" font-size="11.00" fill="#000000">investigation_id</text>
<polygon fill="none" stroke="#000000" points="430,-667.7 430,-689.7 524,-689.7 524,-667.7 430,-667.7"/>
<text text-anchor="start" x="432.9758" y="-675.4" font-family="Helvetica,sans-Serif" font-size="11.00" fill="#000000">uuid[2147483647]</text>
<polygon fill="none" stroke="#000000" points="232,-645.7 232,-667.7 430,-667.7 430,-645.7 232,-645.7"/>
<text text-anchor="start" x="252" y="-652.8" font-family="Helvetica,sans-Serif" font-size="11.00" fill="#000000">interviewee</text>
<polygon fill="none" stroke="#000000" points="430,-645.7 430,-667.7 524,-667.7 524,-645.7 430,-645.7"/>
<text text-anchor="start" x="433" y="-653.4" font-family="Helvetica,sans-Serif" font-size="11.00" fill="#000000">varchar[100]</text>
<polygon fill="none" stroke="#000000" points="232,-623.7 232,-645.7 430,-645.7 430,-623.7 232,-623.7"/>
<text text-anchor="start" x="252" y="-630.8" font-family="Helvetica,sans-Serif" font-size="11.00" fill="#000000">interview_date</text>
<polygon fill="none" stroke="#000000" points="430,-623.7 430,-645.7 524,-645.7 524,-623.7 430,-623.7"/>
<text text-anchor="start" x="433" y="-631.4" font-family="Helvetica,sans-Serif" font-size="11.00" fill="#000000">date[13]</text>
<polygon fill="none" stroke="#000000" points="232,-601.7 232,-623.7 430,-623.7 430,-601.7 232,-601.7"/>
<image xlink:href="../../images/foreignKeys.png" width="11px" height="12px" preserveAspectRatio="xMinYMin meet" x="237" y="-618.7"/>
<text text-anchor="start" x="252" y="-608.8" font-family="Helvetica,sans-Serif" font-size="11.00" fill="#000000">interviewee_role_id</text>
<polygon fill="none" stroke="#000000" points="430,-601.7 430,-623.7 524,-623.7 524,-601.7 430,-601.7"/>
<text text-anchor="start" x="433" y="-609.4" font-family="Helvetica,sans-Serif" font-size="11.00" fill="#000000">int8[19]</text>
<polygon fill="none" stroke="#000000" points="232,-579.7 232,-601.7 430,-601.7 430,-579.7 232,-579.7"/>
<text text-anchor="start" x="252" y="-586.8" font-family="Helvetica,sans-Serif" font-size="11.00" fill="#000000">interview_text</text>
<polygon fill="none" stroke="#000000" points="430,-579.7 430,-601.7 524,-601.7 524,-579.7 430,-579.7"/>
<text text-anchor="start" x="433" y="-587.4" font-family="Helvetica,sans-Serif" font-size="11.00" fill="#000000">text[2147483647]</text>
<polygon fill="none" stroke="#000000" points="232,-557.7 232,-579.7 430,-579.7 430,-557.7 232,-557.7"/>
<text text-anchor="start" x="252" y="-564.8" font-family="Helvetica,sans-Serif" font-size="11.00" fill="#000000">interviewee_modified</text>
<polygon fill="none" stroke="#000000" points="430,-557.7 430,-579.7 524,-579.7 524,-557.7 430,-557.7"/>
<text text-anchor="start" x="433" y="-565.4" font-family="Helvetica,sans-Serif" font-size="11.00" fill="#000000">bool[1]</text>
<polygon fill="none" stroke="#000000" points="232,-535.7 232,-557.7 430,-557.7 430,-535.7 232,-535.7"/>
<text text-anchor="start" x="252" y="-542.8" font-family="Helvetica,sans-Serif" font-size="11.00" fill="#000000">interview_date_modified</text>
<polygon fill="none" stroke="#000000" points="430,-535.7 430,-557.7 524,-557.7 524,-535.7 430,-535.7"/>
<text text-anchor="start" x="433" y="-543.4" font-family="Helvetica,sans-Serif" font-size="11.00" fill="#000000">bool[1]</text>
<polygon fill="none" stroke="#000000" points="232,-513.7 232,-535.7 430,-535.7 430,-513.7 232,-513.7"/>
<text text-anchor="start" x="252" y="-520.8" font-family="Helvetica,sans-Serif" font-size="11.00" fill="#000000">interviewee_role_modified</text>
<polygon fill="none" stroke="#000000" points="430,-513.7 430,-535.7 524,-535.7 524,-513.7 430,-513.7"/>
<text text-anchor="start" x="433" y="-521.4" font-family="Helvetica,sans-Serif" font-size="11.00" fill="#000000">bool[1]</text>
<polygon fill="none" stroke="#000000" points="232,-491.7 232,-513.7 430,-513.7 430,-491.7 232,-491.7"/>
<text text-anchor="start" x="252" y="-498.8" font-family="Helvetica,sans-Serif" font-size="11.00" fill="#000000">interview_text_modified</text>
<polygon fill="none" stroke="#000000" points="430,-491.7 430,-513.7 524,-513.7 524,-491.7 430,-491.7"/>
<text text-anchor="start" x="433" y="-499.4" font-family="Helvetica,sans-Serif" font-size="11.00" fill="#000000">bool[1]</text>
<polygon fill="none" stroke="#000000" points="232,-469.7 232,-491.7 430,-491.7 430,-469.7 232,-469.7"/>
<image xlink:href="../../images/foreignKeys.png" width="11px" height="12px" preserveAspectRatio="xMinYMin meet" x="237" y="-486.7"/>
<text text-anchor="start" x="252" y="-476.8" font-family="Helvetica,sans-Serif" font-size="11.00" fill="#000000">legacy_id</text>
<polygon fill="none" stroke="#000000" points="430,-469.7 430,-491.7 524,-491.7 524,-469.7 430,-469.7"/>
<text text-anchor="start" x="433" y="-477.4" font-family="Helvetica,sans-Serif" font-size="11.00" fill="#000000">int8[19]</text>
<polygon fill="#ffffff" stroke="transparent" points="232,-450.7 232,-469.7 335,-469.7 335,-450.7 232,-450.7"/>
<polygon fill="none" stroke="#000000" points="232,-450.7 232,-469.7 335,-469.7 335,-450.7 232,-450.7"/>
<text text-anchor="start" x="235" y="-456.8" font-family="Helvetica,sans-Serif" font-size="11.00" fill="#000000">&lt; 1</text>
<polygon fill="#ffffff" stroke="transparent" points="335,-450.7 335,-469.7 430,-469.7 430,-450.7 335,-450.7"/>
<polygon fill="none" stroke="#000000" points="335,-450.7 335,-469.7 430,-469.7 430,-450.7 335,-450.7"/>
<text text-anchor="start" x="420.8862" y="-456.8" font-family="Helvetica,sans-Serif" font-size="11.00" fill="#000000"> &#160;</text>
<polygon fill="#ffffff" stroke="transparent" points="430,-450.7 430,-469.7 524,-469.7 524,-450.7 430,-450.7"/>
<polygon fill="none" stroke="#000000" points="430,-450.7 430,-469.7 524,-469.7 524,-450.7 430,-450.7"/>
<text text-anchor="start" x="505.4053" y="-456.8" font-family="Helvetica,sans-Serif" font-size="11.00" fill="#000000">0 &gt;</text>
<polygon fill="none" stroke="#000000" stroke-width="2" points="231,-449.7 231,-779.7 525,-779.7 525,-449.7 231,-449.7"/>
</a>
</g>
</g>
<!-- interview_audit&#45;&gt;audit_revision -->
<g id="edge6" class="edge">
<title>interview_audit:w&#45;&gt;audit_revision:e</title>
<path fill="none" stroke="#000000" d="M217.454,-744.7C202.4776,-744.7 194.1389,-744.7 174,-744.7"/>
<polygon fill="#000000" stroke="#000000" points="224,-744.7001 232,-748.3 228,-744.7 232,-744.7 232,-744.7 232,-744.7 228,-744.7 232,-741.1 224,-744.7001 224,-744.7001"/>
<ellipse fill="none" stroke="#000000" cx="220.8" cy="-744.7001" rx="3.2" ry="3.2"/>
</g>
<!-- investigation_audit -->
<g id="node8" class="node">
<title>investigation_audit</title>
<g id="a_node8"><a xlink:href="../../tables/investigation_audit.html" xlink:title="investigation_audit" target="_top">
<polygon fill="#ffffff" stroke="transparent" points="293.5,-366.2 293.5,-427.2 462.5,-427.2 462.5,-366.2 293.5,-366.2"/>
<polygon fill="#f5f5f5" stroke="transparent" points="294,-403.7 294,-426.7 463,-426.7 463,-403.7 294,-403.7"/>
<polygon fill="none" stroke="#000000" points="294,-403.7 294,-426.7 463,-426.7 463,-403.7 294,-403.7"/>
<text text-anchor="start" x="299" y="-412.3" font-family="Helvetica,sans-Serif" font-weight="bold" font-size="11.00" fill="#000000">investigation_audit</text>
<text text-anchor="start" x="428.5219" y="-411.8" font-family="Helvetica,sans-Serif" font-size="11.00" fill="#000000">[table]</text>
<polygon fill="none" stroke="#000000" points="294,-384.7 294,-403.7 463,-403.7 463,-384.7 294,-384.7"/>
<text text-anchor="start" x="297" y="-390.8" font-family="Helvetica,sans-Serif" font-size="11.00" fill="#000000">...</text>
<polygon fill="#ffffff" stroke="transparent" points="294,-365.7 294,-384.7 377,-384.7 377,-365.7 294,-365.7"/>
<polygon fill="none" stroke="#000000" points="294,-365.7 294,-384.7 377,-384.7 377,-365.7 294,-365.7"/>
<text text-anchor="start" x="297" y="-371.8" font-family="Helvetica,sans-Serif" font-size="11.00" fill="#000000">&lt; 1</text>
<polygon fill="#ffffff" stroke="transparent" points="377,-365.7 377,-384.7 420,-384.7 420,-365.7 377,-365.7"/>
<polygon fill="none" stroke="#000000" points="377,-365.7 377,-384.7 420,-384.7 420,-365.7 377,-365.7"/>
<text text-anchor="start" x="410.8862" y="-371.8" font-family="Helvetica,sans-Serif" font-size="11.00" fill="#000000"> &#160;</text>
<polygon fill="#ffffff" stroke="transparent" points="420,-365.7 420,-384.7 463,-384.7 463,-365.7 420,-365.7"/>
<polygon fill="none" stroke="#000000" points="420,-365.7 420,-384.7 463,-384.7 463,-365.7 420,-365.7"/>
<text text-anchor="start" x="453.8862" y="-371.8" font-family="Helvetica,sans-Serif" font-size="11.00" fill="#000000"> &#160;</text>
</a>
</g>
</g>
<!-- investigation_audit&#45;&gt;audit_revision -->
<g id="edge7" class="edge">
<title>investigation_audit:w&#45;&gt;audit_revision:e</title>
<path fill="none" stroke="#000000" d="M279.5236,-394.2955C249.3561,-397.0289 234.674,-409.5127 215,-438.7 176.6526,-495.5901 242.6077,-744.7 174,-744.7"/>
<polygon fill="#000000" stroke="#000000" points="286.0068,-394.0289 294.148,-397.297 290.0034,-393.8644 294,-393.7 294,-393.7 294,-393.7 290.0034,-393.8644 293.852,-390.103 286.0068,-394.0289 286.0068,-394.0289"/>
<ellipse fill="none" stroke="#000000" cx="282.8095" cy="-394.1604" rx="3.2" ry="3.2"/>
</g>
<!-- plan_audit -->
<g id="node9" class="node">
<title>plan_audit</title>
<g id="a_node9"><a xlink:href="../../tables/plan_audit.html" xlink:title="plan_audit" target="_top">
<polygon fill="#ffffff" stroke="transparent" points="323.5,-284.2 323.5,-345.2 432.5,-345.2 432.5,-284.2 323.5,-284.2"/>
<polygon fill="#f5f5f5" stroke="transparent" points="324,-321.7 324,-344.7 433,-344.7 433,-321.7 324,-321.7"/>
<polygon fill="none" stroke="#000000" points="324,-321.7 324,-344.7 433,-344.7 433,-321.7 324,-321.7"/>
<text text-anchor="start" x="329" y="-330.3" font-family="Helvetica,sans-Serif" font-weight="bold" font-size="11.00" fill="#000000">plan_audit</text>
<text text-anchor="start" x="398.5219" y="-329.8" font-family="Helvetica,sans-Serif" font-size="11.00" fill="#000000">[table]</text>
<polygon fill="none" stroke="#000000" points="324,-302.7 324,-321.7 433,-321.7 433,-302.7 324,-302.7"/>
<text text-anchor="start" x="327" y="-308.8" font-family="Helvetica,sans-Serif" font-size="11.00" fill="#000000">...</text>
<polygon fill="#ffffff" stroke="transparent" points="324,-283.7 324,-302.7 377,-302.7 377,-283.7 324,-283.7"/>
<polygon fill="none" stroke="#000000" points="324,-283.7 324,-302.7 377,-302.7 377,-283.7 324,-283.7"/>
<text text-anchor="start" x="327" y="-289.8" font-family="Helvetica,sans-Serif" font-size="11.00" fill="#000000">&lt; 1</text>
<polygon fill="#ffffff" stroke="transparent" points="377,-283.7 377,-302.7 405,-302.7 405,-283.7 377,-283.7"/>
<polygon fill="none" stroke="#000000" points="377,-283.7 377,-302.7 405,-302.7 405,-283.7 377,-283.7"/>
<text text-anchor="start" x="395.8862" y="-289.8" font-family="Helvetica,sans-Serif" font-size="11.00" fill="#000000"> &#160;</text>
<polygon fill="#ffffff" stroke="transparent" points="405,-283.7 405,-302.7 433,-302.7 433,-283.7 405,-283.7"/>
<polygon fill="none" stroke="#000000" points="405,-283.7 405,-302.7 433,-302.7 433,-283.7 405,-283.7"/>
<text text-anchor="start" x="423.8862" y="-289.8" font-family="Helvetica,sans-Serif" font-size="11.00" fill="#000000"> &#160;</text>
</a>
</g>
</g>
<!-- plan_audit&#45;&gt;audit_revision -->
<g id="edge8" class="edge">
<title>plan_audit:w&#45;&gt;audit_revision:e</title>
<path fill="none" stroke="#000000" d="M309.4345,-311.8C266.7565,-312.5226 243.3813,-318.0602 215,-355.7 162.6675,-425.1044 260.9233,-744.7 174,-744.7"/>
<polygon fill="#000000" stroke="#000000" points="316.0002,-311.755 324.0247,-315.2999 320.0001,-311.7275 324,-311.7 324,-311.7 324,-311.7 320.0001,-311.7275 323.9753,-308.1001 316.0002,-311.755 316.0002,-311.755"/>
<ellipse fill="none" stroke="#000000" cx="312.8003" cy="-311.777" rx="3.2" ry="3.2"/>
</g>
<!-- referral_audit -->
<g id="node10" class="node">
<title>referral_audit</title>
<g id="a_node10"><a xlink:href="../../tables/referral_audit.html" xlink:title="referral_audit" target="_top">
<polygon fill="#ffffff" stroke="transparent" points="312.5,-202.2 312.5,-263.2 443.5,-263.2 443.5,-202.2 312.5,-202.2"/>
<polygon fill="#f5f5f5" stroke="transparent" points="313,-239.7 313,-262.7 444,-262.7 444,-239.7 313,-239.7"/>
<polygon fill="none" stroke="#000000" points="313,-239.7 313,-262.7 444,-262.7 444,-239.7 313,-239.7"/>
<text text-anchor="start" x="318" y="-248.3" font-family="Helvetica,sans-Serif" font-weight="bold" font-size="11.00" fill="#000000">referral_audit</text>
<text text-anchor="start" x="409.5219" y="-247.8" font-family="Helvetica,sans-Serif" font-size="11.00" fill="#000000">[table]</text>
<polygon fill="none" stroke="#000000" points="313,-220.7 313,-239.7 444,-239.7 444,-220.7 313,-220.7"/>
<text text-anchor="start" x="316" y="-226.8" font-family="Helvetica,sans-Serif" font-size="11.00" fill="#000000">...</text>
<polygon fill="#ffffff" stroke="transparent" points="313,-201.7 313,-220.7 377,-220.7 377,-201.7 313,-201.7"/>
<polygon fill="none" stroke="#000000" points="313,-201.7 313,-220.7 377,-220.7 377,-201.7 313,-201.7"/>
<text text-anchor="start" x="316" y="-207.8" font-family="Helvetica,sans-Serif" font-size="11.00" fill="#000000">&lt; 1</text>
<polygon fill="#ffffff" stroke="transparent" points="377,-201.7 377,-220.7 410,-220.7 410,-201.7 377,-201.7"/>
<polygon fill="none" stroke="#000000" points="377,-201.7 377,-220.7 410,-220.7 410,-201.7 377,-201.7"/>
<text text-anchor="start" x="400.8862" y="-207.8" font-family="Helvetica,sans-Serif" font-size="11.00" fill="#000000"> &#160;</text>
<polygon fill="#ffffff" stroke="transparent" points="410,-201.7 410,-220.7 444,-220.7 444,-201.7 410,-201.7"/>
<polygon fill="none" stroke="#000000" points="410,-201.7 410,-220.7 444,-220.7 444,-201.7 410,-201.7"/>
<text text-anchor="start" x="434.8862" y="-207.8" font-family="Helvetica,sans-Serif" font-size="11.00" fill="#000000"> &#160;</text>
</a>
</g>
</g>
<!-- referral_audit&#45;&gt;audit_revision -->
<g id="edge9" class="edge">
<title>referral_audit:w&#45;&gt;audit_revision:e</title>
<path fill="none" stroke="#000000" d="M298.4467,-229.9116C260.342,-231.1822 239.6851,-238.9621 215,-273.7 184.5712,-316.5208 226.5312,-744.7 174,-744.7"/>
<polygon fill="#000000" stroke="#000000" points="305.0008,-229.8163 313.0524,-233.2996 309.0004,-229.7582 313,-229.7 313,-229.7 313,-229.7 309.0004,-229.7582 312.9476,-226.1004 305.0008,-229.8163 305.0008,-229.8163"/>
<ellipse fill="none" stroke="#000000" cx="301.8012" cy="-229.8629" rx="3.2" ry="3.2"/>
</g>
<!-- review_audit -->
<g id="node11" class="node">
<title>review_audit</title>
<g id="a_node11"><a xlink:href="../../tables/review_audit.html" xlink:title="review_audit" target="_top">
<polygon fill="#ffffff" stroke="transparent" points="315.5,-120.2 315.5,-181.2 440.5,-181.2 440.5,-120.2 315.5,-120.2"/>
<polygon fill="#f5f5f5" stroke="transparent" points="316,-157.7 316,-180.7 441,-180.7 441,-157.7 316,-157.7"/>
<polygon fill="none" stroke="#000000" points="316,-157.7 316,-180.7 441,-180.7 441,-157.7 316,-157.7"/>
<text text-anchor="start" x="321" y="-166.3" font-family="Helvetica,sans-Serif" font-weight="bold" font-size="11.00" fill="#000000">review_audit</text>
<text text-anchor="start" x="406.5219" y="-165.8" font-family="Helvetica,sans-Serif" font-size="11.00" fill="#000000">[table]</text>
<polygon fill="none" stroke="#000000" points="316,-138.7 316,-157.7 441,-157.7 441,-138.7 316,-138.7"/>
<text text-anchor="start" x="319" y="-144.8" font-family="Helvetica,sans-Serif" font-size="11.00" fill="#000000">...</text>
<polygon fill="#ffffff" stroke="transparent" points="316,-119.7 316,-138.7 377,-138.7 377,-119.7 316,-119.7"/>
<polygon fill="none" stroke="#000000" points="316,-119.7 316,-138.7 377,-138.7 377,-119.7 316,-119.7"/>
<text text-anchor="start" x="319" y="-125.8" font-family="Helvetica,sans-Serif" font-size="11.00" fill="#000000">&lt; 1</text>
<polygon fill="#ffffff" stroke="transparent" points="377,-119.7 377,-138.7 409,-138.7 409,-119.7 377,-119.7"/>
<polygon fill="none" stroke="#000000" points="377,-119.7 377,-138.7 409,-138.7 409,-119.7 377,-119.7"/>
<text text-anchor="start" x="399.8862" y="-125.8" font-family="Helvetica,sans-Serif" font-size="11.00" fill="#000000"> &#160;</text>
<polygon fill="#ffffff" stroke="transparent" points="409,-119.7 409,-138.7 441,-138.7 441,-119.7 409,-119.7"/>
<polygon fill="none" stroke="#000000" points="409,-119.7 409,-138.7 441,-138.7 441,-119.7 409,-119.7"/>
<text text-anchor="start" x="431.8862" y="-125.8" font-family="Helvetica,sans-Serif" font-size="11.00" fill="#000000"> &#160;</text>
</a>
</g>
</g>
<!-- review_audit&#45;&gt;audit_revision -->
<g id="edge10" class="edge">
<title>review_audit:w&#45;&gt;audit_revision:e</title>
<path fill="none" stroke="#000000" d="M301.5733,-147.8659C262.0787,-148.9257 240.3964,-155.8978 215,-191.7 179.3525,-241.9536 235.6131,-744.7 174,-744.7"/>
<polygon fill="#000000" stroke="#000000" points="308.0005,-147.7921 316.0414,-151.2998 312.0003,-147.746 316,-147.7 316,-147.7 316,-147.7 312.0003,-147.746 315.9586,-144.1002 308.0005,-147.7921 308.0005,-147.7921"/>
<ellipse fill="none" stroke="#000000" cx="304.8007" cy="-147.8289" rx="3.2" ry="3.2"/>
</g>
<!-- safer_custody_screening_outcome_audit -->
<g id="node12" class="node">
<title>safer_custody_screening_outcome_audit</title>
<g id="a_node12"><a xlink:href="../../tables/safer_custody_screening_outcome_audit.html" xlink:title="safer_custody_screening_outcome_audit" target="_top">
<polygon fill="#ffffff" stroke="transparent" points="223,-38.2 223,-99.2 533,-99.2 533,-38.2 223,-38.2"/>
<polygon fill="#f5f5f5" stroke="transparent" points="223,-75.7 223,-98.7 533,-98.7 533,-75.7 223,-75.7"/>
<polygon fill="none" stroke="#000000" points="223,-75.7 223,-98.7 533,-98.7 533,-75.7 223,-75.7"/>
<text text-anchor="start" x="228" y="-84.3" font-family="Helvetica,sans-Serif" font-weight="bold" font-size="11.00" fill="#000000">safer_custody_screening_outcome_audit</text>
<text text-anchor="start" x="498.5219" y="-83.8" font-family="Helvetica,sans-Serif" font-size="11.00" fill="#000000">[table]</text>
<polygon fill="none" stroke="#000000" points="223,-56.7 223,-75.7 533,-75.7 533,-56.7 223,-56.7"/>
<text text-anchor="start" x="226" y="-62.8" font-family="Helvetica,sans-Serif" font-size="11.00" fill="#000000">...</text>
<polygon fill="#ffffff" stroke="transparent" points="223,-37.7 223,-56.7 376,-56.7 376,-37.7 223,-37.7"/>
<polygon fill="none" stroke="#000000" points="223,-37.7 223,-56.7 376,-56.7 376,-37.7 223,-37.7"/>
<text text-anchor="start" x="226" y="-43.8" font-family="Helvetica,sans-Serif" font-size="11.00" fill="#000000">&lt; 1</text>
<polygon fill="#ffffff" stroke="transparent" points="376,-37.7 376,-56.7 454,-56.7 454,-37.7 376,-37.7"/>
<polygon fill="none" stroke="#000000" points="376,-37.7 376,-56.7 454,-56.7 454,-37.7 376,-37.7"/>
<text text-anchor="start" x="444.8862" y="-43.8" font-family="Helvetica,sans-Serif" font-size="11.00" fill="#000000"> &#160;</text>
<polygon fill="#ffffff" stroke="transparent" points="454,-37.7 454,-56.7 533,-56.7 533,-37.7 454,-37.7"/>
<polygon fill="none" stroke="#000000" points="454,-37.7 454,-56.7 533,-56.7 533,-37.7 454,-37.7"/>
<text text-anchor="start" x="523.8862" y="-43.8" font-family="Helvetica,sans-Serif" font-size="11.00" fill="#000000"> &#160;</text>
</a>
</g>
</g>
<!-- safer_custody_screening_outcome_audit&#45;&gt;audit_revision -->
<g id="edge11" class="edge">
<title>safer_custody_screening_outcome_audit:w&#45;&gt;audit_revision:e</title>
<path fill="none" stroke="#000000" d="M210.4963,-73.7985C159.8049,-150.4066 244.7654,-744.7 174,-744.7"/>
<polygon fill="#000000" stroke="#000000" points="216.2854,-70.049 224.9571,-68.7216 219.6427,-67.8745 223,-65.7 223,-65.7 223,-65.7 219.6427,-67.8745 221.0429,-62.6784 216.2854,-70.049 216.2854,-70.049"/>
<ellipse fill="none" stroke="#000000" cx="213.5995" cy="-71.7886" rx="3.2" ry="3.2"/>
</g>
</g>
</svg>
