<?xml version="1.0" encoding="UTF-8" standalone="no"?>
<!DOCTYPE svg PUBLIC "-//W3C//DTD SVG 1.1//EN"
 "http://www.w3.org/Graphics/SVG/1.1/DTD/svg11.dtd">
<!-- Generated by graphviz version 2.40.1 (20161225.0304)
 -->
<!-- Title: oneDegreeRelationshipsDiagram Pages: 1 -->
<svg width="535pt" height="382pt"
 viewBox="0.00 0.00 535.00 382.20" xmlns="http://www.w3.org/2000/svg" xmlns:xlink="http://www.w3.org/1999/xlink">
<g id="graph0" class="graph" transform="scale(1 1) rotate(0) translate(4 378.2)">
<title>oneDegreeRelationshipsDiagram</title>
<polygon fill="#ffffff" stroke="transparent" points="-4,4 -4,-378.2 531,-378.2 531,4 -4,4"/>
<text text-anchor="middle" x="72.4936" y="-7.3" font-family="Helvetica,sans-Serif" font-size="11.00" fill="#000000">Generated by SchemaSpy</text>
<!-- interview_audit -->
<g id="node1" class="node">
<title>interview_audit</title>
<g id="a_node1"><a xlink:href="../../tables/interview_audit.html" xlink:title="interview_audit" target="_top">
<polygon fill="#ffffff" stroke="transparent" points="223,-38.2 223,-370.2 519,-370.2 519,-38.2 223,-38.2"/>
<polygon fill="#f5f5f5" stroke="transparent" points="225,-345.2 225,-368.2 517,-368.2 517,-345.2 225,-345.2"/>
<polygon fill="none" stroke="#000000" points="225,-345.2 225,-368.2 517,-368.2 517,-345.2 225,-345.2"/>
<text text-anchor="start" x="230" y="-353.8" font-family="Helvetica,sans-Serif" font-weight="bold" font-size="11.00" fill="#000000">interview_audit</text>
<text text-anchor="start" x="482.0437" y="-353.3" font-family="Helvetica,sans-Serif" font-size="11.00" fill="#000000">[table]</text>
<polygon fill="none" stroke="#000000" points="225,-323.2 225,-345.2 423,-345.2 423,-323.2 225,-323.2"/>
<image xlink:href="../../images/primaryKeys.png" width="11px" height="12px" preserveAspectRatio="xMinYMin meet" x="230" y="-340.2"/>
<text text-anchor="start" x="245" y="-330.3" font-family="Helvetica,sans-Serif" font-size="11.00" fill="#000000">rev_id</text>
<polygon fill="none" stroke="#000000" points="423,-323.2 423,-345.2 517,-345.2 517,-323.2 423,-323.2"/>
<text text-anchor="start" x="426" y="-330.9" font-family="Helvetica,sans-Serif" font-size="11.00" fill="#000000">int8[19]</text>
<polygon fill="none" stroke="#000000" points="225,-301.2 225,-323.2 423,-323.2 423,-301.2 225,-301.2"/>
<text text-anchor="start" x="245" y="-308.3" font-family="Helvetica,sans-Serif" font-size="11.00" fill="#000000">rev_type</text>
<polygon fill="none" stroke="#000000" points="423,-301.2 423,-323.2 517,-323.2 517,-301.2 423,-301.2"/>
<text text-anchor="start" x="426" y="-308.9" font-family="Helvetica,sans-Serif" font-size="11.00" fill="#000000">int2[5]</text>
<polygon fill="none" stroke="#000000" points="225,-279.2 225,-301.2 423,-301.2 423,-279.2 225,-279.2"/>
<image xlink:href="../../images/primaryKeys.png" width="11px" height="12px" preserveAspectRatio="xMinYMin meet" x="230" y="-296.2"/>
<text text-anchor="start" x="245" y="-286.3" font-family="Helvetica,sans-Serif" font-size="11.00" fill="#000000">interview_id</text>
<polygon fill="none" stroke="#000000" points="423,-279.2 423,-301.2 517,-301.2 517,-279.2 423,-279.2"/>
<text text-anchor="start" x="425.9758" y="-286.9" font-family="Helvetica,sans-Serif" font-size="11.00" fill="#000000">uuid[2147483647]</text>
<polygon fill="none" stroke="#000000" points="225,-257.2 225,-279.2 423,-279.2 423,-257.2 225,-257.2"/>
<image xlink:href="../../images/foreignKeys.png" width="11px" height="12px" preserveAspectRatio="xMinYMin meet" x="230" y="-274.2"/>
<text text-anchor="start" x="245" y="-264.3" font-family="Helvetica,sans-Serif" font-size="11.00" fill="#000000">investigation_id</text>
<polygon fill="none" stroke="#000000" points="423,-257.2 423,-279.2 517,-279.2 517,-257.2 423,-257.2"/>
<text text-anchor="start" x="425.9758" y="-264.9" font-family="Helvetica,sans-Serif" font-size="11.00" fill="#000000">uuid[2147483647]</text>
<polygon fill="none" stroke="#000000" points="225,-235.2 225,-257.2 423,-257.2 423,-235.2 225,-235.2"/>
<text text-anchor="start" x="245" y="-242.3" font-family="Helvetica,sans-Serif" font-size="11.00" fill="#000000">interviewee</text>
<polygon fill="none" stroke="#000000" points="423,-235.2 423,-257.2 517,-257.2 517,-235.2 423,-235.2"/>
<text text-anchor="start" x="426" y="-242.9" font-family="Helvetica,sans-Serif" font-size="11.00" fill="#000000">varchar[100]</text>
<polygon fill="none" stroke="#000000" points="225,-213.2 225,-235.2 423,-235.2 423,-213.2 225,-213.2"/>
<text text-anchor="start" x="245" y="-220.3" font-family="Helvetica,sans-Serif" font-size="11.00" fill="#000000">interview_date</text>
<polygon fill="none" stroke="#000000" points="423,-213.2 423,-235.2 517,-235.2 517,-213.2 423,-213.2"/>
<text text-anchor="start" x="426" y="-220.9" font-family="Helvetica,sans-Serif" font-size="11.00" fill="#000000">date[13]</text>
<polygon fill="none" stroke="#000000" points="225,-191.2 225,-213.2 423,-213.2 423,-191.2 225,-191.2"/>
<image xlink:href="../../images/foreignKeys.png" width="11px" height="12px" preserveAspectRatio="xMinYMin meet" x="230" y="-208.2"/>
<text text-anchor="start" x="245" y="-198.3" font-family="Helvetica,sans-Serif" font-size="11.00" fill="#000000">interviewee_role_id</text>
<polygon fill="none" stroke="#000000" points="423,-191.2 423,-213.2 517,-213.2 517,-191.2 423,-191.2"/>
<text text-anchor="start" x="426" y="-198.9" font-family="Helvetica,sans-Serif" font-size="11.00" fill="#000000">int8[19]</text>
<polygon fill="none" stroke="#000000" points="225,-169.2 225,-191.2 423,-191.2 423,-169.2 225,-169.2"/>
<text text-anchor="start" x="245" y="-176.3" font-family="Helvetica,sans-Serif" font-size="11.00" fill="#000000">interview_text</text>
<polygon fill="none" stroke="#000000" points="423,-169.2 423,-191.2 517,-191.2 517,-169.2 423,-169.2"/>
<text text-anchor="start" x="426" y="-176.9" font-family="Helvetica,sans-Serif" font-size="11.00" fill="#000000">text[2147483647]</text>
<polygon fill="none" stroke="#000000" points="225,-147.2 225,-169.2 423,-169.2 423,-147.2 225,-147.2"/>
<text text-anchor="start" x="245" y="-154.3" font-family="Helvetica,sans-Serif" font-size="11.00" fill="#000000">interviewee_modified</text>
<polygon fill="none" stroke="#000000" points="423,-147.2 423,-169.2 517,-169.2 517,-147.2 423,-147.2"/>
<text text-anchor="start" x="426" y="-154.9" font-family="Helvetica,sans-Serif" font-size="11.00" fill="#000000">bool[1]</text>
<polygon fill="none" stroke="#000000" points="225,-125.2 225,-147.2 423,-147.2 423,-125.2 225,-125.2"/>
<text text-anchor="start" x="245" y="-132.3" font-family="Helvetica,sans-Serif" font-size="11.00" fill="#000000">interview_date_modified</text>
<polygon fill="none" stroke="#000000" points="423,-125.2 423,-147.2 517,-147.2 517,-125.2 423,-125.2"/>
<text text-anchor="start" x="426" y="-132.9" font-family="Helvetica,sans-Serif" font-size="11.00" fill="#000000">bool[1]</text>
<polygon fill="none" stroke="#000000" points="225,-103.2 225,-125.2 423,-125.2 423,-103.2 225,-103.2"/>
<text text-anchor="start" x="245" y="-110.3" font-family="Helvetica,sans-Serif" font-size="11.00" fill="#000000">interviewee_role_modified</text>
<polygon fill="none" stroke="#000000" points="423,-103.2 423,-125.2 517,-125.2 517,-103.2 423,-103.2"/>
<text text-anchor="start" x="426" y="-110.9" font-family="Helvetica,sans-Serif" font-size="11.00" fill="#000000">bool[1]</text>
<polygon fill="none" stroke="#000000" points="225,-81.2 225,-103.2 423,-103.2 423,-81.2 225,-81.2"/>
<text text-anchor="start" x="245" y="-88.3" font-family="Helvetica,sans-Serif" font-size="11.00" fill="#000000">interview_text_modified</text>
<polygon fill="none" stroke="#000000" points="423,-81.2 423,-103.2 517,-103.2 517,-81.2 423,-81.2"/>
<text text-anchor="start" x="426" y="-88.9" font-family="Helvetica,sans-Serif" font-size="11.00" fill="#000000">bool[1]</text>
<polygon fill="none" stroke="#000000" points="225,-59.2 225,-81.2 423,-81.2 423,-59.2 225,-59.2"/>
<image xlink:href="../../images/foreignKeys.png" width="11px" height="12px" preserveAspectRatio="xMinYMin meet" x="230" y="-76.2"/>
<text text-anchor="start" x="245" y="-66.3" font-family="Helvetica,sans-Serif" font-size="11.00" fill="#000000">legacy_id</text>
<polygon fill="none" stroke="#000000" points="423,-59.2 423,-81.2 517,-81.2 517,-59.2 423,-59.2"/>
<text text-anchor="start" x="426" y="-66.9" font-family="Helvetica,sans-Serif" font-size="11.00" fill="#000000">int8[19]</text>
<polygon fill="#ffffff" stroke="transparent" points="225,-40.2 225,-59.2 328,-59.2 328,-40.2 225,-40.2"/>
<polygon fill="none" stroke="#000000" points="225,-40.2 225,-59.2 328,-59.2 328,-40.2 225,-40.2"/>
<text text-anchor="start" x="228" y="-46.3" font-family="Helvetica,sans-Serif" font-size="11.00" fill="#000000">&lt; 1</text>
<polygon fill="#ffffff" stroke="transparent" points="328,-40.2 328,-59.2 423,-59.2 423,-40.2 328,-40.2"/>
<polygon fill="none" stroke="#000000" points="328,-40.2 328,-59.2 423,-59.2 423,-40.2 328,-40.2"/>
<text text-anchor="start" x="413.8862" y="-46.3" font-family="Helvetica,sans-Serif" font-size="11.00" fill="#000000"> &#160;</text>
<polygon fill="#ffffff" stroke="transparent" points="423,-40.2 423,-59.2 517,-59.2 517,-40.2 423,-40.2"/>
<polygon fill="none" stroke="#000000" points="423,-40.2 423,-59.2 517,-59.2 517,-40.2 423,-40.2"/>
<text text-anchor="start" x="498.4053" y="-46.3" font-family="Helvetica,sans-Serif" font-size="11.00" fill="#000000">0 &gt;</text>
<polygon fill="none" stroke="#000000" stroke-width="2" points="224,-39.2 224,-369.2 518,-369.2 518,-39.2 224,-39.2"/>
</a>
</g>
</g>
<!-- audit_revision -->
<g id="node2" class="node">
<title>audit_revision</title>
<g id="a_node2"><a xlink:href="../../tables/audit_revision.html" xlink:title="audit_revision" target="_top">
<polygon fill="#ffffff" stroke="transparent" points="8,-285.7 8,-368.7 174,-368.7 174,-285.7 8,-285.7"/>
<polygon fill="#f5f5f5" stroke="transparent" points="8,-345.2 8,-368.2 174,-368.2 174,-345.2 8,-345.2"/>
<polygon fill="none" stroke="#000000" points="8,-345.2 8,-368.2 174,-368.2 174,-345.2 8,-345.2"/>
<text text-anchor="start" x="13" y="-353.8" font-family="Helvetica,sans-Serif" font-weight="bold" font-size="11.00" fill="#000000">audit_revision</text>
<text text-anchor="start" x="139.0437" y="-353.3" font-family="Helvetica,sans-Serif" font-size="11.00" fill="#000000">[table]</text>
<polygon fill="none" stroke="#000000" points="8,-323.2 8,-345.2 174,-345.2 174,-323.2 8,-323.2"/>
<image xlink:href="../../images/primaryKeys.png" width="11px" height="12px" preserveAspectRatio="xMinYMin meet" x="13" y="-340.2"/>
<text text-anchor="start" x="28" y="-330.3" font-family="Helvetica,sans-Serif" font-size="11.00" fill="#000000">id</text>
<polygon fill="none" stroke="#000000" points="8,-304.2 8,-323.2 174,-323.2 174,-304.2 8,-304.2"/>
<text text-anchor="start" x="11" y="-310.3" font-family="Helvetica,sans-Serif" font-size="11.00" fill="#000000">...</text>
<polygon fill="#ffffff" stroke="transparent" points="8,-285.2 8,-304.2 77,-304.2 77,-285.2 8,-285.2"/>
<polygon fill="none" stroke="#000000" points="8,-285.2 8,-304.2 77,-304.2 77,-285.2 8,-285.2"/>
<text text-anchor="start" x="11" y="-291.3" font-family="Helvetica,sans-Serif" font-size="11.00" fill="#000000"> &#160;</text>
<polygon fill="#ffffff" stroke="transparent" points="77,-285.2 77,-304.2 118,-304.2 118,-285.2 77,-285.2"/>
<polygon fill="none" stroke="#000000" points="77,-285.2 77,-304.2 118,-304.2 118,-285.2 77,-285.2"/>
<text text-anchor="start" x="108.8862" y="-291.3" font-family="Helvetica,sans-Serif" font-size="11.00" fill="#000000"> &#160;</text>
<polygon fill="#ffffff" stroke="transparent" points="118,-285.2 118,-304.2 174,-304.2 174,-285.2 118,-285.2"/>
<polygon fill="none" stroke="#000000" points="118,-285.2 118,-304.2 174,-304.2 174,-285.2 118,-285.2"/>
<text text-anchor="start" x="149.2904" y="-291.3" font-family="Helvetica,sans-Serif" font-size="11.00" fill="#000000">12 &gt;</text>
</a>
</g>
</g>
<!-- interview_audit&#45;&gt;audit_revision -->
<g id="edge1" class="edge">
<title>interview_audit:w&#45;&gt;audit_revision:e</title>
<path fill="none" stroke="#000000" d="M210.276,-334.2C198.2815,-334.2 190.8229,-334.2 174,-334.2"/>
<polygon fill="#000000" stroke="#000000" points="217,-334.2001 225,-337.8 221,-334.2 225,-334.2 225,-334.2 225,-334.2 221,-334.2 225,-330.6 217,-334.2001 217,-334.2001"/>
<ellipse fill="none" stroke="#000000" cx="213.8" cy="-334.2001" rx="3.2" ry="3.2"/>
</g>
</g>
</svg>
