<?xml version="1.0" encoding="UTF-8" standalone="no"?>
<!DOCTYPE svg PUBLIC "-//W3C//DTD SVG 1.1//EN"
 "http://www.w3.org/Graphics/SVG/1.1/DTD/svg11.dtd">
<!-- Generated by graphviz version 2.40.1 (20161225.0304)
 -->
<!-- Title: oneDegreeRelationshipsDiagram Pages: 1 -->
<svg width="514pt" height="308pt"
 viewBox="0.00 0.00 514.00 307.70" xmlns="http://www.w3.org/2000/svg" xmlns:xlink="http://www.w3.org/1999/xlink">
<g id="graph0" class="graph" transform="scale(1 1) rotate(0) translate(4 303.7)">
<title>oneDegreeRelationshipsDiagram</title>
<polygon fill="#ffffff" stroke="transparent" points="-4,4 -4,-303.7 510,-303.7 510,4 -4,4"/>
<text text-anchor="middle" x="72.4936" y="-7.3" font-family="Helvetica,sans-Serif" font-size="11.00" fill="#000000">Generated by SchemaSpy</text>
<!-- interview -->
<g id="node1" class="node">
<title>interview</title>
<g id="a_node1"><a xlink:href="../../tables/interview.html" xlink:title="interview" target="_top">
<polygon fill="#ffffff" stroke="transparent" points="248,-73.7 248,-295.7 498,-295.7 498,-73.7 248,-73.7"/>
<polygon fill="#f5f5f5" stroke="transparent" points="250,-270.7 250,-293.7 496,-293.7 496,-270.7 250,-270.7"/>
<polygon fill="none" stroke="#000000" points="250,-270.7 250,-293.7 496,-293.7 496,-270.7 250,-270.7"/>
<text text-anchor="start" x="255" y="-279.3" font-family="Helvetica,sans-Serif" font-weight="bold" font-size="11.00" fill="#000000">interview</text>
<text text-anchor="start" x="461.0437" y="-278.8" font-family="Helvetica,sans-Serif" font-size="11.00" fill="#000000">[table]</text>
<polygon fill="none" stroke="#000000" points="250,-248.7 250,-270.7 402,-270.7 402,-248.7 250,-248.7"/>
<image xlink:href="../../images/primaryKeys.png" width="11px" height="12px" preserveAspectRatio="xMinYMin meet" x="255" y="-265.7"/>
<text text-anchor="start" x="270" y="-255.8" font-family="Helvetica,sans-Serif" font-size="11.00" fill="#000000">interview_id</text>
<polygon fill="none" stroke="#000000" points="402,-248.7 402,-270.7 496,-270.7 496,-248.7 402,-248.7"/>
<text text-anchor="start" x="404.9758" y="-256.4" font-family="Helvetica,sans-Serif" font-size="11.00" fill="#000000">uuid[2147483647]</text>
<polygon fill="#ffffff" stroke="transparent" points="250,-226.7 250,-248.7 402,-248.7 402,-226.7 250,-226.7"/>
<polygon fill="none" stroke="#000000" points="250,-226.7 250,-248.7 402,-248.7 402,-226.7 250,-226.7"/>
<image xlink:href="../../images/foreignKeys.png" width="11px" height="12px" preserveAspectRatio="xMinYMin meet" x="255" y="-243.7"/>
<text text-anchor="start" x="270" y="-233.8" font-family="Helvetica,sans-Serif" font-size="11.00" fill="#000000">investigation_id</text>
<polygon fill="none" stroke="#000000" points="402,-226.7 402,-248.7 496,-248.7 496,-226.7 402,-226.7"/>
<text text-anchor="start" x="404.9758" y="-234.4" font-family="Helvetica,sans-Serif" font-size="11.00" fill="#000000">uuid[2147483647]</text>
<polygon fill="none" stroke="#000000" points="250,-204.7 250,-226.7 402,-226.7 402,-204.7 250,-204.7"/>
<text text-anchor="start" x="270" y="-211.8" font-family="Helvetica,sans-Serif" font-size="11.00" fill="#000000">interviewee</text>
<polygon fill="none" stroke="#000000" points="402,-204.7 402,-226.7 496,-226.7 496,-204.7 402,-204.7"/>
<text text-anchor="start" x="405" y="-212.4" font-family="Helvetica,sans-Serif" font-size="11.00" fill="#000000">varchar[100]</text>
<polygon fill="none" stroke="#000000" points="250,-182.7 250,-204.7 402,-204.7 402,-182.7 250,-182.7"/>
<text text-anchor="start" x="270" y="-189.8" font-family="Helvetica,sans-Serif" font-size="11.00" fill="#000000">interview_date</text>
<polygon fill="none" stroke="#000000" points="402,-182.7 402,-204.7 496,-204.7 496,-182.7 402,-182.7"/>
<text text-anchor="start" x="405" y="-190.4" font-family="Helvetica,sans-Serif" font-size="11.00" fill="#000000">date[13]</text>
<polygon fill="#ffffff" stroke="transparent" points="250,-160.7 250,-182.7 402,-182.7 402,-160.7 250,-160.7"/>
<polygon fill="none" stroke="#000000" points="250,-160.7 250,-182.7 402,-182.7 402,-160.7 250,-160.7"/>
<image xlink:href="../../images/foreignKeys.png" width="11px" height="12px" preserveAspectRatio="xMinYMin meet" x="255" y="-177.7"/>
<text text-anchor="start" x="270" y="-167.8" font-family="Helvetica,sans-Serif" font-size="11.00" fill="#000000">interviewee_role_id</text>
<polygon fill="none" stroke="#000000" points="402,-160.7 402,-182.7 496,-182.7 496,-160.7 402,-160.7"/>
<text text-anchor="start" x="405" y="-168.4" font-family="Helvetica,sans-Serif" font-size="11.00" fill="#000000">int4[10]</text>
<polygon fill="none" stroke="#000000" points="250,-138.7 250,-160.7 402,-160.7 402,-138.7 250,-138.7"/>
<text text-anchor="start" x="270" y="-145.8" font-family="Helvetica,sans-Serif" font-size="11.00" fill="#000000">interview_text</text>
<polygon fill="none" stroke="#000000" points="402,-138.7 402,-160.7 496,-160.7 496,-138.7 402,-138.7"/>
<text text-anchor="start" x="405" y="-146.4" font-family="Helvetica,sans-Serif" font-size="11.00" fill="#000000">text[2147483647]</text>
<polygon fill="none" stroke="#000000" points="250,-116.7 250,-138.7 402,-138.7 402,-116.7 250,-116.7"/>
<text text-anchor="start" x="270" y="-123.8" font-family="Helvetica,sans-Serif" font-size="11.00" fill="#000000">version</text>
<polygon fill="none" stroke="#000000" points="402,-116.7 402,-138.7 496,-138.7 496,-116.7 402,-116.7"/>
<text text-anchor="start" x="405" y="-124.4" font-family="Helvetica,sans-Serif" font-size="11.00" fill="#000000">int4[10]</text>
<polygon fill="#ffffff" stroke="transparent" points="250,-94.7 250,-116.7 402,-116.7 402,-94.7 250,-94.7"/>
<polygon fill="none" stroke="#000000" points="250,-94.7 250,-116.7 402,-116.7 402,-94.7 250,-94.7"/>
<image xlink:href="../../images/foreignKeys.png" width="11px" height="12px" preserveAspectRatio="xMinYMin meet" x="255" y="-111.7"/>
<text text-anchor="start" x="270" y="-101.8" font-family="Helvetica,sans-Serif" font-size="11.00" fill="#000000">legacy_id</text>
<polygon fill="none" stroke="#000000" points="402,-94.7 402,-116.7 496,-116.7 496,-94.7 402,-94.7"/>
<text text-anchor="start" x="405" y="-102.4" font-family="Helvetica,sans-Serif" font-size="11.00" fill="#000000">int8[19]</text>
<polygon fill="#ffffff" stroke="transparent" points="250,-75.7 250,-94.7 330,-94.7 330,-75.7 250,-75.7"/>
<polygon fill="none" stroke="#000000" points="250,-75.7 250,-94.7 330,-94.7 330,-75.7 250,-75.7"/>
<text text-anchor="start" x="253" y="-81.8" font-family="Helvetica,sans-Serif" font-size="11.00" fill="#000000">&lt; 2</text>
<polygon fill="#ffffff" stroke="transparent" points="330,-75.7 330,-94.7 402,-94.7 402,-75.7 330,-75.7"/>
<polygon fill="none" stroke="#000000" points="330,-75.7 330,-94.7 402,-94.7 402,-75.7 330,-75.7"/>
<text text-anchor="start" x="392.8862" y="-81.8" font-family="Helvetica,sans-Serif" font-size="11.00" fill="#000000"> &#160;</text>
<polygon fill="#ffffff" stroke="transparent" points="402,-75.7 402,-94.7 496,-94.7 496,-75.7 402,-75.7"/>
<polygon fill="none" stroke="#000000" points="402,-75.7 402,-94.7 496,-94.7 496,-75.7 402,-75.7"/>
<text text-anchor="start" x="477.4053" y="-81.8" font-family="Helvetica,sans-Serif" font-size="11.00" fill="#000000">0 &gt;</text>
<polygon fill="none" stroke="#000000" stroke-width="2" points="249,-74.7 249,-294.7 497,-294.7 497,-74.7 249,-74.7"/>
</a>
</g>
</g>
<!-- reference_data -->
<g id="node2" class="node">
<title>reference_data</title>
<g id="a_node2"><a xlink:href="../../tables/reference_data.html" xlink:title="reference_data" target="_top">
<polygon fill="#ffffff" stroke="transparent" points="33,-38.2 33,-187.2 174,-187.2 174,-38.2 33,-38.2"/>
<polygon fill="#f5f5f5" stroke="transparent" points="33.5,-163.7 33.5,-186.7 174.5,-186.7 174.5,-163.7 33.5,-163.7"/>
<polygon fill="none" stroke="#000000" points="33.5,-163.7 33.5,-186.7 174.5,-186.7 174.5,-163.7 33.5,-163.7"/>
<text text-anchor="start" x="38.5" y="-172.3" font-family="Helvetica,sans-Serif" font-weight="bold" font-size="11.00" fill="#000000">reference_data</text>
<text text-anchor="start" x="140.0219" y="-171.8" font-family="Helvetica,sans-Serif" font-size="11.00" fill="#000000">[table]</text>
<polygon fill="none" stroke="#000000" points="33.5,-141.7 33.5,-163.7 174.5,-163.7 174.5,-141.7 33.5,-141.7"/>
<image xlink:href="../../images/primaryKeys.png" width="11px" height="12px" preserveAspectRatio="xMinYMin meet" x="38.5" y="-158.7"/>
<text text-anchor="start" x="53.5" y="-148.8" font-family="Helvetica,sans-Serif" font-size="11.00" fill="#000000">reference_data_id</text>
<polygon fill="#ffffff" stroke="transparent" points="33.5,-119.7 33.5,-141.7 174.5,-141.7 174.5,-119.7 33.5,-119.7"/>
<polygon fill="none" stroke="#000000" points="33.5,-119.7 33.5,-141.7 174.5,-141.7 174.5,-119.7 33.5,-119.7"/>
<text text-anchor="start" x="53.5" y="-126.8" font-family="Helvetica,sans-Serif" font-size="11.00" fill="#000000">domain</text>
<polygon fill="#ffffff" stroke="transparent" points="33.5,-97.7 33.5,-119.7 174.5,-119.7 174.5,-97.7 33.5,-97.7"/>
<polygon fill="none" stroke="#000000" points="33.5,-97.7 33.5,-119.7 174.5,-119.7 174.5,-97.7 33.5,-97.7"/>
<text text-anchor="start" x="53.5" y="-104.8" font-family="Helvetica,sans-Serif" font-size="11.00" fill="#000000">code</text>
<polygon fill="#ffffff" stroke="transparent" points="33.5,-75.7 33.5,-97.7 174.5,-97.7 174.5,-75.7 33.5,-75.7"/>
<polygon fill="none" stroke="#000000" points="33.5,-75.7 33.5,-97.7 174.5,-97.7 174.5,-75.7 33.5,-75.7"/>
<text text-anchor="start" x="53.5" y="-82.8" font-family="Helvetica,sans-Serif" font-size="11.00" fill="#000000">list_sequence</text>
<polygon fill="none" stroke="#000000" points="33.5,-56.7 33.5,-75.7 174.5,-75.7 174.5,-56.7 33.5,-56.7"/>
<text text-anchor="start" x="36.5" y="-62.8" font-family="Helvetica,sans-Serif" font-size="11.00" fill="#000000">...</text>
<polygon fill="#ffffff" stroke="transparent" points="33.5,-37.7 33.5,-56.7 71.5,-56.7 71.5,-37.7 33.5,-37.7"/>
<polygon fill="none" stroke="#000000" points="33.5,-37.7 33.5,-56.7 71.5,-56.7 71.5,-37.7 33.5,-37.7"/>
<text text-anchor="start" x="36.5" y="-43.8" font-family="Helvetica,sans-Serif" font-size="11.00" fill="#000000"> &#160;</text>
<polygon fill="#ffffff" stroke="transparent" points="71.5,-37.7 71.5,-56.7 134.5,-56.7 134.5,-37.7 71.5,-37.7"/>
<polygon fill="none" stroke="#000000" points="71.5,-37.7 71.5,-56.7 134.5,-56.7 134.5,-37.7 71.5,-37.7"/>
<text text-anchor="start" x="86.8807" y="-43.8" font-family="Helvetica,sans-Serif" font-size="11.00" fill="#000000">122 rows</text>
<polygon fill="#ffffff" stroke="transparent" points="134.5,-37.7 134.5,-56.7 174.5,-56.7 174.5,-37.7 134.5,-37.7"/>
<polygon fill="none" stroke="#000000" points="134.5,-37.7 134.5,-56.7 174.5,-56.7 174.5,-37.7 134.5,-37.7"/>
<text text-anchor="start" x="149.7904" y="-43.8" font-family="Helvetica,sans-Serif" font-size="11.00" fill="#000000">10 &gt;</text>
</a>
</g>
</g>
<!-- interview&#45;&gt;reference_data -->
<g id="edge1" class="edge">
<title>interview:w&#45;&gt;reference_data:e</title>
<path fill="none" stroke="#000000" d="M235.6376,-170.4534C212.7395,-166.2264 203.6953,-152.7 174.5,-152.7"/>
<polygon fill="#000000" stroke="#000000" points="242.03,-171.0082 249.6887,-175.2865 246.015,-171.3541 250,-171.7 250,-171.7 250,-171.7 246.015,-171.3541 250.3113,-168.1135 242.03,-171.0082 242.03,-171.0082"/>
<ellipse fill="none" stroke="#000000" cx="238.842" cy="-170.7314" rx="3.2" ry="3.2"/>
</g>
<!-- investigation -->
<g id="node3" class="node">
<title>investigation</title>
<g id="a_node3"><a xlink:href="../../tables/investigation.html" xlink:title="investigation" target="_top">
<polygon fill="#ffffff" stroke="transparent" points="8,-208.2 8,-291.2 199,-291.2 199,-208.2 8,-208.2"/>
<polygon fill="#f5f5f5" stroke="transparent" points="8.5,-267.7 8.5,-290.7 199.5,-290.7 199.5,-267.7 8.5,-267.7"/>
<polygon fill="none" stroke="#000000" points="8.5,-267.7 8.5,-290.7 199.5,-290.7 199.5,-267.7 8.5,-267.7"/>
<text text-anchor="start" x="13.5" y="-276.3" font-family="Helvetica,sans-Serif" font-weight="bold" font-size="11.00" fill="#000000">investigation</text>
<text text-anchor="start" x="164.5437" y="-275.8" font-family="Helvetica,sans-Serif" font-size="11.00" fill="#000000">[table]</text>
<polygon fill="none" stroke="#000000" points="8.5,-245.7 8.5,-267.7 199.5,-267.7 199.5,-245.7 8.5,-245.7"/>
<image xlink:href="../../images/primaryKeys.png" width="11px" height="12px" preserveAspectRatio="xMinYMin meet" x="13.5" y="-262.7"/>
<text text-anchor="start" x="28.5" y="-252.8" font-family="Helvetica,sans-Serif" font-size="11.00" fill="#000000">investigation_id</text>
<polygon fill="none" stroke="#000000" points="8.5,-226.7 8.5,-245.7 199.5,-245.7 199.5,-226.7 8.5,-226.7"/>
<text text-anchor="start" x="11.5" y="-232.8" font-family="Helvetica,sans-Serif" font-size="11.00" fill="#000000">...</text>
<polygon fill="#ffffff" stroke="transparent" points="8.5,-207.7 8.5,-226.7 97.5,-226.7 97.5,-207.7 8.5,-207.7"/>
<polygon fill="none" stroke="#000000" points="8.5,-207.7 8.5,-226.7 97.5,-226.7 97.5,-207.7 8.5,-207.7"/>
<text text-anchor="start" x="11.5" y="-213.8" font-family="Helvetica,sans-Serif" font-size="11.00" fill="#000000">&lt; 1</text>
<polygon fill="#ffffff" stroke="transparent" points="97.5,-207.7 97.5,-226.7 143.5,-226.7 143.5,-207.7 97.5,-207.7"/>
<polygon fill="none" stroke="#000000" points="97.5,-207.7 97.5,-226.7 143.5,-226.7 143.5,-207.7 97.5,-207.7"/>
<text text-anchor="start" x="134.3862" y="-213.8" font-family="Helvetica,sans-Serif" font-size="11.00" fill="#000000"> &#160;</text>
<polygon fill="#ffffff" stroke="transparent" points="143.5,-207.7 143.5,-226.7 199.5,-226.7 199.5,-207.7 143.5,-207.7"/>
<polygon fill="none" stroke="#000000" points="143.5,-207.7 143.5,-226.7 199.5,-226.7 199.5,-207.7 143.5,-207.7"/>
<text text-anchor="start" x="180.9053" y="-213.8" font-family="Helvetica,sans-Serif" font-size="11.00" fill="#000000">1 &gt;</text>
</a>
</g>
</g>
<!-- interview&#45;&gt;investigation -->
<g id="edge2" class="edge">
<title>interview:w&#45;&gt;investigation:e</title>
<path fill="none" stroke="#000000" d="M235.7405,-240.5035C223.532,-245.7887 217.6727,-256.7 199.5,-256.7"/>
<polygon fill="#000000" stroke="#000000" points="242.1503,-239.2433 250.6945,-241.2324 246.0751,-238.4717 250,-237.7 250,-237.7 250,-237.7 246.0751,-238.4717 249.3055,-234.1676 242.1503,-239.2433 242.1503,-239.2433"/>
<ellipse fill="none" stroke="#000000" cx="239.0104" cy="-239.8607" rx="3.2" ry="3.2"/>
</g>
</g>
</svg>
