<?xml version="1.0" encoding="UTF-8" standalone="no"?>
<!DOCTYPE svg PUBLIC "-//W3C//DTD SVG 1.1//EN"
 "http://www.w3.org/Graphics/SVG/1.1/DTD/svg11.dtd">
<!-- Generated by graphviz version 2.40.1 (20161225.0304)
 -->
<!-- Title: oneDegreeRelationshipsDiagram Pages: 1 -->
<svg width="832pt" height="293pt"
 viewBox="0.00 0.00 832.00 292.70" xmlns="http://www.w3.org/2000/svg" xmlns:xlink="http://www.w3.org/1999/xlink">
<g id="graph0" class="graph" transform="scale(1 1) rotate(0) translate(4 288.7)">
<title>oneDegreeRelationshipsDiagram</title>
<polygon fill="#ffffff" stroke="transparent" points="-4,4 -4,-288.7 828,-288.7 828,4 -4,4"/>
<text text-anchor="middle" x="72.4936" y="-7.3" font-family="Helvetica,sans-Serif" font-size="11.00" fill="#000000">Generated by SchemaSpy</text>
<!-- interview -->
<g id="node1" class="node">
<title>interview</title>
<g id="a_node1"><a xlink:href="../../tables/interview.html" xlink:title="interview" target="_top">
<polygon fill="#ffffff" stroke="transparent" points="664,-131.7 664,-280.7 816,-280.7 816,-131.7 664,-131.7"/>
<polygon fill="#f5f5f5" stroke="transparent" points="664,-257.2 664,-280.2 816,-280.2 816,-257.2 664,-257.2"/>
<polygon fill="none" stroke="#000000" points="664,-257.2 664,-280.2 816,-280.2 816,-257.2 664,-257.2"/>
<text text-anchor="start" x="669" y="-265.8" font-family="Helvetica,sans-Serif" font-weight="bold" font-size="11.00" fill="#000000">interview</text>
<text text-anchor="start" x="781.0437" y="-265.3" font-family="Helvetica,sans-Serif" font-size="11.00" fill="#000000">[table]</text>
<polygon fill="none" stroke="#000000" points="664,-235.2 664,-257.2 816,-257.2 816,-235.2 664,-235.2"/>
<image xlink:href="../../images/primaryKeys.png" width="11px" height="12px" preserveAspectRatio="xMinYMin meet" x="669" y="-252.2"/>
<text text-anchor="start" x="684" y="-242.3" font-family="Helvetica,sans-Serif" font-size="11.00" fill="#000000">interview_id</text>
<polygon fill="#ffffff" stroke="transparent" points="664,-213.2 664,-235.2 816,-235.2 816,-213.2 664,-213.2"/>
<polygon fill="none" stroke="#000000" points="664,-213.2 664,-235.2 816,-235.2 816,-213.2 664,-213.2"/>
<image xlink:href="../../images/foreignKeys.png" width="11px" height="12px" preserveAspectRatio="xMinYMin meet" x="669" y="-230.2"/>
<text text-anchor="start" x="684" y="-220.3" font-family="Helvetica,sans-Serif" font-size="11.00" fill="#000000">investigation_id</text>
<polygon fill="#ffffff" stroke="transparent" points="664,-191.2 664,-213.2 816,-213.2 816,-191.2 664,-191.2"/>
<polygon fill="none" stroke="#000000" points="664,-191.2 664,-213.2 816,-213.2 816,-191.2 664,-191.2"/>
<image xlink:href="../../images/foreignKeys.png" width="11px" height="12px" preserveAspectRatio="xMinYMin meet" x="669" y="-208.2"/>
<text text-anchor="start" x="684" y="-198.3" font-family="Helvetica,sans-Serif" font-size="11.00" fill="#000000">interviewee_role_id</text>
<polygon fill="#ffffff" stroke="transparent" points="664,-169.2 664,-191.2 816,-191.2 816,-169.2 664,-169.2"/>
<polygon fill="none" stroke="#000000" points="664,-169.2 664,-191.2 816,-191.2 816,-169.2 664,-169.2"/>
<image xlink:href="../../images/foreignKeys.png" width="11px" height="12px" preserveAspectRatio="xMinYMin meet" x="669" y="-186.2"/>
<text text-anchor="start" x="684" y="-176.3" font-family="Helvetica,sans-Serif" font-size="11.00" fill="#000000">legacy_id</text>
<polygon fill="none" stroke="#000000" points="664,-150.2 664,-169.2 816,-169.2 816,-150.2 664,-150.2"/>
<text text-anchor="start" x="667" y="-156.3" font-family="Helvetica,sans-Serif" font-size="11.00" fill="#000000">...</text>
<polygon fill="#ffffff" stroke="transparent" points="664,-131.2 664,-150.2 738,-150.2 738,-131.2 664,-131.2"/>
<polygon fill="none" stroke="#000000" points="664,-131.2 664,-150.2 738,-150.2 738,-131.2 664,-131.2"/>
<text text-anchor="start" x="667" y="-137.3" font-family="Helvetica,sans-Serif" font-size="11.00" fill="#000000">&lt; 2</text>
<polygon fill="#ffffff" stroke="transparent" points="738,-131.2 738,-150.2 777,-150.2 777,-131.2 738,-131.2"/>
<polygon fill="none" stroke="#000000" points="738,-131.2 738,-150.2 777,-150.2 777,-131.2 738,-131.2"/>
<text text-anchor="start" x="767.8862" y="-137.3" font-family="Helvetica,sans-Serif" font-size="11.00" fill="#000000"> &#160;</text>
<polygon fill="#ffffff" stroke="transparent" points="777,-131.2 777,-150.2 816,-150.2 816,-131.2 777,-131.2"/>
<polygon fill="none" stroke="#000000" points="777,-131.2 777,-150.2 816,-150.2 816,-131.2 777,-131.2"/>
<text text-anchor="start" x="806.8862" y="-137.3" font-family="Helvetica,sans-Serif" font-size="11.00" fill="#000000"> &#160;</text>
</a>
</g>
</g>
<!-- investigation -->
<g id="node2" class="node">
<title>investigation</title>
<g id="a_node2"><a xlink:href="../../tables/investigation.html" xlink:title="investigation" target="_top">
<polygon fill="#ffffff" stroke="transparent" points="326,-38.2 326,-260.2 615,-260.2 615,-38.2 326,-38.2"/>
<polygon fill="#f5f5f5" stroke="transparent" points="328.5,-235.2 328.5,-258.2 613.5,-258.2 613.5,-235.2 328.5,-235.2"/>
<polygon fill="none" stroke="#000000" points="328.5,-235.2 328.5,-258.2 613.5,-258.2 613.5,-235.2 328.5,-235.2"/>
<text text-anchor="start" x="333.5" y="-243.8" font-family="Helvetica,sans-Serif" font-weight="bold" font-size="11.00" fill="#000000">investigation</text>
<text text-anchor="start" x="578.5437" y="-243.3" font-family="Helvetica,sans-Serif" font-size="11.00" fill="#000000">[table]</text>
<polygon fill="none" stroke="#000000" points="328.5,-213.2 328.5,-235.2 519.5,-235.2 519.5,-213.2 328.5,-213.2"/>
<image xlink:href="../../images/primaryKeys.png" width="11px" height="12px" preserveAspectRatio="xMinYMin meet" x="333.5" y="-230.2"/>
<text text-anchor="start" x="348.5" y="-220.3" font-family="Helvetica,sans-Serif" font-size="11.00" fill="#000000">investigation_id</text>
<polygon fill="none" stroke="#000000" points="519.5,-213.2 519.5,-235.2 613.5,-235.2 613.5,-213.2 519.5,-213.2"/>
<text text-anchor="start" x="522.4758" y="-220.9" font-family="Helvetica,sans-Serif" font-size="11.00" fill="#000000">uuid[2147483647]</text>
<polygon fill="none" stroke="#000000" points="328.5,-191.2 328.5,-213.2 519.5,-213.2 519.5,-191.2 328.5,-191.2"/>
<text text-anchor="start" x="348.5" y="-198.3" font-family="Helvetica,sans-Serif" font-size="11.00" fill="#000000">staff_involved</text>
<polygon fill="none" stroke="#000000" points="519.5,-191.2 519.5,-213.2 613.5,-213.2 613.5,-191.2 519.5,-191.2"/>
<text text-anchor="start" x="522.5" y="-198.9" font-family="Helvetica,sans-Serif" font-size="11.00" fill="#000000">text[2147483647]</text>
<polygon fill="none" stroke="#000000" points="328.5,-169.2 328.5,-191.2 519.5,-191.2 519.5,-169.2 328.5,-169.2"/>
<text text-anchor="start" x="348.5" y="-176.3" font-family="Helvetica,sans-Serif" font-size="11.00" fill="#000000">evidence_secured</text>
<polygon fill="none" stroke="#000000" points="519.5,-169.2 519.5,-191.2 613.5,-191.2 613.5,-169.2 519.5,-169.2"/>
<text text-anchor="start" x="522.5" y="-176.9" font-family="Helvetica,sans-Serif" font-size="11.00" fill="#000000">text[2147483647]</text>
<polygon fill="none" stroke="#000000" points="328.5,-147.2 328.5,-169.2 519.5,-169.2 519.5,-147.2 328.5,-147.2"/>
<text text-anchor="start" x="348.5" y="-154.3" font-family="Helvetica,sans-Serif" font-size="11.00" fill="#000000">occurrence_reason</text>
<polygon fill="none" stroke="#000000" points="519.5,-147.2 519.5,-169.2 613.5,-169.2 613.5,-147.2 519.5,-147.2"/>
<text text-anchor="start" x="522.5" y="-154.9" font-family="Helvetica,sans-Serif" font-size="11.00" fill="#000000">text[2147483647]</text>
<polygon fill="none" stroke="#000000" points="328.5,-125.2 328.5,-147.2 519.5,-147.2 519.5,-125.2 328.5,-125.2"/>
<text text-anchor="start" x="348.5" y="-132.3" font-family="Helvetica,sans-Serif" font-size="11.00" fill="#000000">persons_usual_behaviour</text>
<polygon fill="none" stroke="#000000" points="519.5,-125.2 519.5,-147.2 613.5,-147.2 613.5,-125.2 519.5,-125.2"/>
<text text-anchor="start" x="522.5" y="-132.9" font-family="Helvetica,sans-Serif" font-size="11.00" fill="#000000">text[2147483647]</text>
<polygon fill="none" stroke="#000000" points="328.5,-103.2 328.5,-125.2 519.5,-125.2 519.5,-103.2 328.5,-103.2"/>
<text text-anchor="start" x="348.5" y="-110.3" font-family="Helvetica,sans-Serif" font-size="11.00" fill="#000000">persons_trigger</text>
<polygon fill="none" stroke="#000000" points="519.5,-103.2 519.5,-125.2 613.5,-125.2 613.5,-103.2 519.5,-103.2"/>
<text text-anchor="start" x="522.5" y="-110.9" font-family="Helvetica,sans-Serif" font-size="11.00" fill="#000000">text[2147483647]</text>
<polygon fill="none" stroke="#000000" points="328.5,-81.2 328.5,-103.2 519.5,-103.2 519.5,-81.2 328.5,-81.2"/>
<text text-anchor="start" x="348.5" y="-88.3" font-family="Helvetica,sans-Serif" font-size="11.00" fill="#000000">protective_factors</text>
<polygon fill="none" stroke="#000000" points="519.5,-81.2 519.5,-103.2 613.5,-103.2 613.5,-81.2 519.5,-81.2"/>
<text text-anchor="start" x="522.5" y="-88.9" font-family="Helvetica,sans-Serif" font-size="11.00" fill="#000000">text[2147483647]</text>
<polygon fill="none" stroke="#000000" points="328.5,-59.2 328.5,-81.2 519.5,-81.2 519.5,-59.2 328.5,-59.2"/>
<text text-anchor="start" x="348.5" y="-66.3" font-family="Helvetica,sans-Serif" font-size="11.00" fill="#000000">version</text>
<polygon fill="none" stroke="#000000" points="519.5,-59.2 519.5,-81.2 613.5,-81.2 613.5,-59.2 519.5,-59.2"/>
<text text-anchor="start" x="522.5" y="-66.9" font-family="Helvetica,sans-Serif" font-size="11.00" fill="#000000">int4[10]</text>
<polygon fill="#ffffff" stroke="transparent" points="328.5,-40.2 328.5,-59.2 428.5,-59.2 428.5,-40.2 328.5,-40.2"/>
<polygon fill="none" stroke="#000000" points="328.5,-40.2 328.5,-59.2 428.5,-59.2 428.5,-40.2 328.5,-40.2"/>
<text text-anchor="start" x="331.5" y="-46.3" font-family="Helvetica,sans-Serif" font-size="11.00" fill="#000000">&lt; 1</text>
<polygon fill="#ffffff" stroke="transparent" points="428.5,-40.2 428.5,-59.2 519.5,-59.2 519.5,-40.2 428.5,-40.2"/>
<polygon fill="none" stroke="#000000" points="428.5,-40.2 428.5,-59.2 519.5,-59.2 519.5,-40.2 428.5,-40.2"/>
<text text-anchor="start" x="510.3862" y="-46.3" font-family="Helvetica,sans-Serif" font-size="11.00" fill="#000000"> &#160;</text>
<polygon fill="#ffffff" stroke="transparent" points="519.5,-40.2 519.5,-59.2 613.5,-59.2 613.5,-40.2 519.5,-40.2"/>
<polygon fill="none" stroke="#000000" points="519.5,-40.2 519.5,-59.2 613.5,-59.2 613.5,-40.2 519.5,-40.2"/>
<text text-anchor="start" x="594.9053" y="-46.3" font-family="Helvetica,sans-Serif" font-size="11.00" fill="#000000">1 &gt;</text>
<polygon fill="none" stroke="#000000" stroke-width="2" points="327,-39.2 327,-259.2 614,-259.2 614,-39.2 327,-39.2"/>
</a>
</g>
</g>
<!-- interview&#45;&gt;investigation -->
<g id="edge1" class="edge">
<title>interview:w&#45;&gt;investigation:e</title>
<path fill="none" stroke="#000000" d="M649.4203,-224.2C637.5435,-224.2 630.158,-224.2 613.5,-224.2"/>
<polygon fill="#000000" stroke="#000000" points="656,-224.2001 664,-227.8 660,-224.2 664,-224.2 664,-224.2 664,-224.2 660,-224.2 664,-220.6 656,-224.2001 656,-224.2001"/>
<ellipse fill="none" stroke="#000000" cx="652.8" cy="-224.2001" rx="3.2" ry="3.2"/>
</g>
<!-- referral -->
<g id="node3" class="node">
<title>referral</title>
<g id="a_node3"><a xlink:href="../../tables/referral.html" xlink:title="referral" target="_top">
<polygon fill="#ffffff" stroke="transparent" points="8,-65.7 8,-258.7 277,-258.7 277,-65.7 8,-65.7"/>
<polygon fill="#f5f5f5" stroke="transparent" points="8.5,-235.2 8.5,-258.2 277.5,-258.2 277.5,-235.2 8.5,-235.2"/>
<polygon fill="none" stroke="#000000" points="8.5,-235.2 8.5,-258.2 277.5,-258.2 277.5,-235.2 8.5,-235.2"/>
<text text-anchor="start" x="13.5" y="-243.8" font-family="Helvetica,sans-Serif" font-weight="bold" font-size="11.00" fill="#000000">referral</text>
<text text-anchor="start" x="242.5437" y="-243.3" font-family="Helvetica,sans-Serif" font-size="11.00" fill="#000000">[table]</text>
<polygon fill="none" stroke="#000000" points="8.5,-213.2 8.5,-235.2 277.5,-235.2 277.5,-213.2 8.5,-213.2"/>
<image xlink:href="../../images/primaryKeys.png" width="11px" height="12px" preserveAspectRatio="xMinYMin meet" x="13.5" y="-230.2"/>
<text text-anchor="start" x="28.5" y="-220.3" font-family="Helvetica,sans-Serif" font-size="11.00" fill="#000000">referral_id</text>
<polygon fill="#ffffff" stroke="transparent" points="8.5,-191.2 8.5,-213.2 277.5,-213.2 277.5,-191.2 8.5,-191.2"/>
<polygon fill="none" stroke="#000000" points="8.5,-191.2 8.5,-213.2 277.5,-213.2 277.5,-191.2 8.5,-191.2"/>
<image xlink:href="../../images/foreignKeys.png" width="11px" height="12px" preserveAspectRatio="xMinYMin meet" x="13.5" y="-208.2"/>
<text text-anchor="start" x="28.5" y="-198.3" font-family="Helvetica,sans-Serif" font-size="11.00" fill="#000000">incident_type_id</text>
<polygon fill="#ffffff" stroke="transparent" points="8.5,-169.2 8.5,-191.2 277.5,-191.2 277.5,-169.2 8.5,-169.2"/>
<polygon fill="none" stroke="#000000" points="8.5,-169.2 8.5,-191.2 277.5,-191.2 277.5,-169.2 8.5,-169.2"/>
<image xlink:href="../../images/foreignKeys.png" width="11px" height="12px" preserveAspectRatio="xMinYMin meet" x="13.5" y="-186.2"/>
<text text-anchor="start" x="28.5" y="-176.3" font-family="Helvetica,sans-Serif" font-size="11.00" fill="#000000">incident_location_id</text>
<polygon fill="#ffffff" stroke="transparent" points="8.5,-147.2 8.5,-169.2 277.5,-169.2 277.5,-147.2 8.5,-147.2"/>
<polygon fill="none" stroke="#000000" points="8.5,-147.2 8.5,-169.2 277.5,-169.2 277.5,-147.2 8.5,-147.2"/>
<image xlink:href="../../images/foreignKeys.png" width="11px" height="12px" preserveAspectRatio="xMinYMin meet" x="13.5" y="-164.2"/>
<text text-anchor="start" x="28.5" y="-154.3" font-family="Helvetica,sans-Serif" font-size="11.00" fill="#000000">referer_area_of_work_id</text>
<polygon fill="#ffffff" stroke="transparent" points="8.5,-125.2 8.5,-147.2 277.5,-147.2 277.5,-125.2 8.5,-125.2"/>
<polygon fill="none" stroke="#000000" points="8.5,-125.2 8.5,-147.2 277.5,-147.2 277.5,-125.2 8.5,-125.2"/>
<text text-anchor="start" x="28.5" y="-132.3" font-family="Helvetica,sans-Serif" font-size="11.00" fill="#000000">referral_date</text>
<polygon fill="#ffffff" stroke="transparent" points="8.5,-103.2 8.5,-125.2 277.5,-125.2 277.5,-103.2 8.5,-103.2"/>
<polygon fill="none" stroke="#000000" points="8.5,-103.2 8.5,-125.2 277.5,-125.2 277.5,-103.2 8.5,-103.2"/>
<image xlink:href="../../images/foreignKeys.png" width="11px" height="12px" preserveAspectRatio="xMinYMin meet" x="13.5" y="-120.2"/>
<text text-anchor="start" x="28.5" y="-110.3" font-family="Helvetica,sans-Serif" font-size="11.00" fill="#000000">incident_involvement_id</text>
<polygon fill="none" stroke="#000000" points="8.5,-84.2 8.5,-103.2 277.5,-103.2 277.5,-84.2 8.5,-84.2"/>
<text text-anchor="start" x="11.5" y="-90.3" font-family="Helvetica,sans-Serif" font-size="11.00" fill="#000000">...</text>
<polygon fill="#ffffff" stroke="transparent" points="8.5,-65.2 8.5,-84.2 136.5,-84.2 136.5,-65.2 8.5,-65.2"/>
<polygon fill="none" stroke="#000000" points="8.5,-65.2 8.5,-84.2 136.5,-84.2 136.5,-65.2 8.5,-65.2"/>
<text text-anchor="start" x="11.5" y="-71.3" font-family="Helvetica,sans-Serif" font-size="11.00" fill="#000000">&lt; 5</text>
<polygon fill="#ffffff" stroke="transparent" points="136.5,-65.2 136.5,-84.2 202.5,-84.2 202.5,-65.2 136.5,-65.2"/>
<polygon fill="none" stroke="#000000" points="136.5,-65.2 136.5,-84.2 202.5,-84.2 202.5,-65.2 136.5,-65.2"/>
<text text-anchor="start" x="193.3862" y="-71.3" font-family="Helvetica,sans-Serif" font-size="11.00" fill="#000000"> &#160;</text>
<polygon fill="#ffffff" stroke="transparent" points="202.5,-65.2 202.5,-84.2 277.5,-84.2 277.5,-65.2 202.5,-65.2"/>
<polygon fill="none" stroke="#000000" points="202.5,-65.2 202.5,-84.2 277.5,-84.2 277.5,-65.2 202.5,-65.2"/>
<text text-anchor="start" x="258.9053" y="-71.3" font-family="Helvetica,sans-Serif" font-size="11.00" fill="#000000">4 &gt;</text>
</a>
</g>
</g>
<!-- investigation&#45;&gt;referral -->
<g id="edge2" class="edge">
<title>investigation:w&#45;&gt;referral:e</title>
<path fill="none" stroke="#000000" d="M317.7307,-224.2C303.248,-224.2 296.0938,-224.2 277.5,-224.2"/>
<polygon fill="#000000" stroke="#000000" points="327.7,-220.2 327.7,-228.2 326.1,-228.2 326.1,-220.2 327.7,-220.2"/>
<polyline fill="none" stroke="#000000" points="328.5,-224.2 324.5,-224.2 "/>
<ellipse fill="none" stroke="#000000" cx="321.3" cy="-224.2001" rx="3.2" ry="3.2"/>
</g>
</g>
</svg>
