<?xml version="1.0" encoding="UTF-8" standalone="no"?>
<!DOCTYPE svg PUBLIC "-//W3C//DTD SVG 1.1//EN"
 "http://www.w3.org/Graphics/SVG/1.1/DTD/svg11.dtd">
<!-- Generated by graphviz version 2.40.1 (20161225.0304)
 -->
<!-- Title: twoDegreesRelationshipsDiagram Pages: 1 -->
<svg width="593pt" height="1329pt"
 viewBox="0.00 0.00 593.00 1329.20" xmlns="http://www.w3.org/2000/svg" xmlns:xlink="http://www.w3.org/1999/xlink">
<g id="graph0" class="graph" transform="scale(1 1) rotate(0) translate(4 1325.2)">
<title>twoDegreesRelationshipsDiagram</title>
<polygon fill="#ffffff" stroke="transparent" points="-4,4 -4,-1325.2 589,-1325.2 589,4 -4,4"/>
<text text-anchor="middle" x="72.4936" y="-7.3" font-family="Helvetica,sans-Serif" font-size="11.00" fill="#000000">Generated by SchemaSpy</text>
<!-- attendee_audit -->
<g id="node1" class="node">
<title>attendee_audit</title>
<g id="a_node1"><a xlink:href="../../tables/attendee_audit.html" xlink:title="attendee_audit" target="_top">
<polygon fill="#ffffff" stroke="transparent" points="329.5,-1256.2 329.5,-1317.2 470.5,-1317.2 470.5,-1256.2 329.5,-1256.2"/>
<polygon fill="#f5f5f5" stroke="transparent" points="330,-1293.7 330,-1316.7 471,-1316.7 471,-1293.7 330,-1293.7"/>
<polygon fill="none" stroke="#000000" points="330,-1293.7 330,-1316.7 471,-1316.7 471,-1293.7 330,-1293.7"/>
<text text-anchor="start" x="335" y="-1302.3" font-family="Helvetica,sans-Serif" font-weight="bold" font-size="11.00" fill="#000000">attendee_audit</text>
<text text-anchor="start" x="436.5219" y="-1301.8" font-family="Helvetica,sans-Serif" font-size="11.00" fill="#000000">[table]</text>
<polygon fill="none" stroke="#000000" points="330,-1274.7 330,-1293.7 471,-1293.7 471,-1274.7 330,-1274.7"/>
<text text-anchor="start" x="333" y="-1280.8" font-family="Helvetica,sans-Serif" font-size="11.00" fill="#000000">...</text>
<polygon fill="#ffffff" stroke="transparent" points="330,-1255.7 330,-1274.7 399,-1274.7 399,-1255.7 330,-1255.7"/>
<polygon fill="none" stroke="#000000" points="330,-1255.7 330,-1274.7 399,-1274.7 399,-1255.7 330,-1255.7"/>
<text text-anchor="start" x="333" y="-1261.8" font-family="Helvetica,sans-Serif" font-size="11.00" fill="#000000">&lt; 1</text>
<polygon fill="#ffffff" stroke="transparent" points="399,-1255.7 399,-1274.7 435,-1274.7 435,-1255.7 399,-1255.7"/>
<polygon fill="none" stroke="#000000" points="399,-1255.7 399,-1274.7 435,-1274.7 435,-1255.7 399,-1255.7"/>
<text text-anchor="start" x="425.8862" y="-1261.8" font-family="Helvetica,sans-Serif" font-size="11.00" fill="#000000"> &#160;</text>
<polygon fill="#ffffff" stroke="transparent" points="435,-1255.7 435,-1274.7 471,-1274.7 471,-1255.7 435,-1255.7"/>
<polygon fill="none" stroke="#000000" points="435,-1255.7 435,-1274.7 471,-1274.7 471,-1255.7 435,-1255.7"/>
<text text-anchor="start" x="461.8862" y="-1261.8" font-family="Helvetica,sans-Serif" font-size="11.00" fill="#000000"> &#160;</text>
</a>
</g>
</g>
<!-- audit_revision -->
<g id="node2" class="node">
<title>audit_revision</title>
<g id="a_node2"><a xlink:href="../../tables/audit_revision.html" xlink:title="audit_revision" target="_top">
<polygon fill="#ffffff" stroke="transparent" points="8,-782.2 8,-865.2 174,-865.2 174,-782.2 8,-782.2"/>
<polygon fill="#f5f5f5" stroke="transparent" points="8,-841.7 8,-864.7 174,-864.7 174,-841.7 8,-841.7"/>
<polygon fill="none" stroke="#000000" points="8,-841.7 8,-864.7 174,-864.7 174,-841.7 8,-841.7"/>
<text text-anchor="start" x="13" y="-850.3" font-family="Helvetica,sans-Serif" font-weight="bold" font-size="11.00" fill="#000000">audit_revision</text>
<text text-anchor="start" x="139.0437" y="-849.8" font-family="Helvetica,sans-Serif" font-size="11.00" fill="#000000">[table]</text>
<polygon fill="none" stroke="#000000" points="8,-819.7 8,-841.7 174,-841.7 174,-819.7 8,-819.7"/>
<image xlink:href="../../images/primaryKeys.png" width="11px" height="12px" preserveAspectRatio="xMinYMin meet" x="13" y="-836.7"/>
<text text-anchor="start" x="28" y="-826.8" font-family="Helvetica,sans-Serif" font-size="11.00" fill="#000000">id</text>
<polygon fill="none" stroke="#000000" points="8,-800.7 8,-819.7 174,-819.7 174,-800.7 8,-800.7"/>
<text text-anchor="start" x="11" y="-806.8" font-family="Helvetica,sans-Serif" font-size="11.00" fill="#000000">...</text>
<polygon fill="#ffffff" stroke="transparent" points="8,-781.7 8,-800.7 77,-800.7 77,-781.7 8,-781.7"/>
<polygon fill="none" stroke="#000000" points="8,-781.7 8,-800.7 77,-800.7 77,-781.7 8,-781.7"/>
<text text-anchor="start" x="11" y="-787.8" font-family="Helvetica,sans-Serif" font-size="11.00" fill="#000000"> &#160;</text>
<polygon fill="#ffffff" stroke="transparent" points="77,-781.7 77,-800.7 118,-800.7 118,-781.7 77,-781.7"/>
<polygon fill="none" stroke="#000000" points="77,-781.7 77,-800.7 118,-800.7 118,-781.7 77,-781.7"/>
<text text-anchor="start" x="108.8862" y="-787.8" font-family="Helvetica,sans-Serif" font-size="11.00" fill="#000000"> &#160;</text>
<polygon fill="#ffffff" stroke="transparent" points="118,-781.7 118,-800.7 174,-800.7 174,-781.7 118,-781.7"/>
<polygon fill="none" stroke="#000000" points="118,-781.7 118,-800.7 174,-800.7 174,-781.7 118,-781.7"/>
<text text-anchor="start" x="149.2904" y="-787.8" font-family="Helvetica,sans-Serif" font-size="11.00" fill="#000000">12 &gt;</text>
</a>
</g>
</g>
<!-- attendee_audit&#45;&gt;audit_revision -->
<g id="edge1" class="edge">
<title>attendee_audit:w&#45;&gt;audit_revision:e</title>
<path fill="none" stroke="#000000" d="M315.5273,-1283.7648C270.9552,-1284.0495 245.4867,-1283.783 215,-1245.7 157.0852,-1173.3548 266.6712,-830.7 174,-830.7"/>
<polygon fill="#000000" stroke="#000000" points="322.0001,-1283.7359 330.0161,-1287.3 326,-1283.7179 330,-1283.7 330,-1283.7 330,-1283.7 326,-1283.7179 329.9839,-1280.1 322.0001,-1283.7359 322.0001,-1283.7359"/>
<ellipse fill="none" stroke="#000000" cx="318.8001" cy="-1283.7502" rx="3.2" ry="3.2"/>
</g>
<!-- contributory_factor_audit -->
<g id="node3" class="node">
<title>contributory_factor_audit</title>
<g id="a_node3"><a xlink:href="../../tables/contributory_factor_audit.html" xlink:title="contributory_factor_audit" target="_top">
<polygon fill="#ffffff" stroke="transparent" points="295,-1174.2 295,-1235.2 505,-1235.2 505,-1174.2 295,-1174.2"/>
<polygon fill="#f5f5f5" stroke="transparent" points="295,-1211.7 295,-1234.7 505,-1234.7 505,-1211.7 295,-1211.7"/>
<polygon fill="none" stroke="#000000" points="295,-1211.7 295,-1234.7 505,-1234.7 505,-1211.7 295,-1211.7"/>
<text text-anchor="start" x="300" y="-1220.3" font-family="Helvetica,sans-Serif" font-weight="bold" font-size="11.00" fill="#000000">contributory_factor_audit</text>
<text text-anchor="start" x="470.5219" y="-1219.8" font-family="Helvetica,sans-Serif" font-size="11.00" fill="#000000">[table]</text>
<polygon fill="none" stroke="#000000" points="295,-1192.7 295,-1211.7 505,-1211.7 505,-1192.7 295,-1192.7"/>
<text text-anchor="start" x="298" y="-1198.8" font-family="Helvetica,sans-Serif" font-size="11.00" fill="#000000">...</text>
<polygon fill="#ffffff" stroke="transparent" points="295,-1173.7 295,-1192.7 398,-1192.7 398,-1173.7 295,-1173.7"/>
<polygon fill="none" stroke="#000000" points="295,-1173.7 295,-1192.7 398,-1192.7 398,-1173.7 295,-1173.7"/>
<text text-anchor="start" x="298" y="-1179.8" font-family="Helvetica,sans-Serif" font-size="11.00" fill="#000000">&lt; 1</text>
<polygon fill="#ffffff" stroke="transparent" points="398,-1173.7 398,-1192.7 451,-1192.7 451,-1173.7 398,-1173.7"/>
<polygon fill="none" stroke="#000000" points="398,-1173.7 398,-1192.7 451,-1192.7 451,-1173.7 398,-1173.7"/>
<text text-anchor="start" x="441.8862" y="-1179.8" font-family="Helvetica,sans-Serif" font-size="11.00" fill="#000000"> &#160;</text>
<polygon fill="#ffffff" stroke="transparent" points="451,-1173.7 451,-1192.7 505,-1192.7 505,-1173.7 451,-1173.7"/>
<polygon fill="none" stroke="#000000" points="451,-1173.7 451,-1192.7 505,-1192.7 505,-1173.7 451,-1173.7"/>
<text text-anchor="start" x="495.8862" y="-1179.8" font-family="Helvetica,sans-Serif" font-size="11.00" fill="#000000"> &#160;</text>
</a>
</g>
</g>
<!-- contributory_factor_audit&#45;&gt;audit_revision -->
<g id="edge2" class="edge">
<title>contributory_factor_audit:w&#45;&gt;audit_revision:e</title>
<path fill="none" stroke="#000000" d="M280.4039,-1201.3321C250.8643,-1199.63 234.9703,-1191.3836 215,-1163.7 171.3803,-1103.2324 248.5588,-830.7 174,-830.7"/>
<polygon fill="#000000" stroke="#000000" points="287.0025,-1201.4984 294.9093,-1205.2989 291.0013,-1201.5992 295,-1201.7 295,-1201.7 295,-1201.7 291.0013,-1201.5992 295.0907,-1198.1011 287.0025,-1201.4984 287.0025,-1201.4984"/>
<ellipse fill="none" stroke="#000000" cx="283.8036" cy="-1201.4177" rx="3.2" ry="3.2"/>
</g>
<!-- csip_record_audit -->
<g id="node4" class="node">
<title>csip_record_audit</title>
<g id="a_node4"><a xlink:href="../../tables/csip_record_audit.html" xlink:title="csip_record_audit" target="_top">
<polygon fill="#ffffff" stroke="transparent" points="322,-1092.2 322,-1153.2 478,-1153.2 478,-1092.2 322,-1092.2"/>
<polygon fill="#f5f5f5" stroke="transparent" points="322,-1129.7 322,-1152.7 478,-1152.7 478,-1129.7 322,-1129.7"/>
<polygon fill="none" stroke="#000000" points="322,-1129.7 322,-1152.7 478,-1152.7 478,-1129.7 322,-1129.7"/>
<text text-anchor="start" x="327" y="-1138.3" font-family="Helvetica,sans-Serif" font-weight="bold" font-size="11.00" fill="#000000">csip_record_audit</text>
<text text-anchor="start" x="443.5219" y="-1137.8" font-family="Helvetica,sans-Serif" font-size="11.00" fill="#000000">[table]</text>
<polygon fill="none" stroke="#000000" points="322,-1110.7 322,-1129.7 478,-1129.7 478,-1110.7 322,-1110.7"/>
<text text-anchor="start" x="325" y="-1116.8" font-family="Helvetica,sans-Serif" font-size="11.00" fill="#000000">...</text>
<polygon fill="#ffffff" stroke="transparent" points="322,-1091.7 322,-1110.7 398,-1110.7 398,-1091.7 322,-1091.7"/>
<polygon fill="none" stroke="#000000" points="322,-1091.7 322,-1110.7 398,-1110.7 398,-1091.7 322,-1091.7"/>
<text text-anchor="start" x="325" y="-1097.8" font-family="Helvetica,sans-Serif" font-size="11.00" fill="#000000">&lt; 1</text>
<polygon fill="#ffffff" stroke="transparent" points="398,-1091.7 398,-1110.7 438,-1110.7 438,-1091.7 398,-1091.7"/>
<polygon fill="none" stroke="#000000" points="398,-1091.7 398,-1110.7 438,-1110.7 438,-1091.7 398,-1091.7"/>
<text text-anchor="start" x="428.8862" y="-1097.8" font-family="Helvetica,sans-Serif" font-size="11.00" fill="#000000"> &#160;</text>
<polygon fill="#ffffff" stroke="transparent" points="438,-1091.7 438,-1110.7 478,-1110.7 478,-1091.7 438,-1091.7"/>
<polygon fill="none" stroke="#000000" points="438,-1091.7 438,-1110.7 478,-1110.7 478,-1091.7 438,-1091.7"/>
<text text-anchor="start" x="468.8862" y="-1097.8" font-family="Helvetica,sans-Serif" font-size="11.00" fill="#000000"> &#160;</text>
</a>
</g>
</g>
<!-- csip_record_audit&#45;&gt;audit_revision -->
<g id="edge3" class="edge">
<title>csip_record_audit:w&#45;&gt;audit_revision:e</title>
<path fill="none" stroke="#000000" d="M307.4009,-1119.6807C266.537,-1119.4424 244.0607,-1116.5023 215,-1081.7 178.7755,-1038.3184 230.517,-830.7 174,-830.7"/>
<polygon fill="#000000" stroke="#000000" points="314,-1119.6894 321.9952,-1123.3 318,-1119.6947 322,-1119.7 322,-1119.7 322,-1119.7 318,-1119.6947 322.0048,-1116.1 314,-1119.6894 314,-1119.6894"/>
<ellipse fill="none" stroke="#000000" cx="310.8" cy="-1119.6851" rx="3.2" ry="3.2"/>
</g>
<!-- decision_and_actions_audit -->
<g id="node5" class="node">
<title>decision_and_actions_audit</title>
<g id="a_node5"><a xlink:href="../../tables/decision_and_actions_audit.html" xlink:title="decision_and_actions_audit" target="_top">
<polygon fill="#ffffff" stroke="transparent" points="289,-1010.2 289,-1071.2 511,-1071.2 511,-1010.2 289,-1010.2"/>
<polygon fill="#f5f5f5" stroke="transparent" points="289,-1047.7 289,-1070.7 511,-1070.7 511,-1047.7 289,-1047.7"/>
<polygon fill="none" stroke="#000000" points="289,-1047.7 289,-1070.7 511,-1070.7 511,-1047.7 289,-1047.7"/>
<text text-anchor="start" x="294" y="-1056.3" font-family="Helvetica,sans-Serif" font-weight="bold" font-size="11.00" fill="#000000">decision_and_actions_audit</text>
<text text-anchor="start" x="476.5219" y="-1055.8" font-family="Helvetica,sans-Serif" font-size="11.00" fill="#000000">[table]</text>
<polygon fill="none" stroke="#000000" points="289,-1028.7 289,-1047.7 511,-1047.7 511,-1028.7 289,-1028.7"/>
<text text-anchor="start" x="292" y="-1034.8" font-family="Helvetica,sans-Serif" font-size="11.00" fill="#000000">...</text>
<polygon fill="#ffffff" stroke="transparent" points="289,-1009.7 289,-1028.7 398,-1028.7 398,-1009.7 289,-1009.7"/>
<polygon fill="none" stroke="#000000" points="289,-1009.7 289,-1028.7 398,-1028.7 398,-1009.7 289,-1009.7"/>
<text text-anchor="start" x="292" y="-1015.8" font-family="Helvetica,sans-Serif" font-size="11.00" fill="#000000">&lt; 1</text>
<polygon fill="#ffffff" stroke="transparent" points="398,-1009.7 398,-1028.7 454,-1028.7 454,-1009.7 398,-1009.7"/>
<polygon fill="none" stroke="#000000" points="398,-1009.7 398,-1028.7 454,-1028.7 454,-1009.7 398,-1009.7"/>
<text text-anchor="start" x="444.8862" y="-1015.8" font-family="Helvetica,sans-Serif" font-size="11.00" fill="#000000"> &#160;</text>
<polygon fill="#ffffff" stroke="transparent" points="454,-1009.7 454,-1028.7 511,-1028.7 511,-1009.7 454,-1009.7"/>
<polygon fill="none" stroke="#000000" points="454,-1009.7 454,-1028.7 511,-1028.7 511,-1009.7 454,-1009.7"/>
<text text-anchor="start" x="501.8862" y="-1015.8" font-family="Helvetica,sans-Serif" font-size="11.00" fill="#000000"> &#160;</text>
</a>
</g>
</g>
<!-- decision_and_actions_audit&#45;&gt;audit_revision -->
<g id="edge4" class="edge">
<title>decision_and_actions_audit:w&#45;&gt;audit_revision:e</title>
<path fill="none" stroke="#000000" d="M274.3042,-1037.1051C247.7555,-1034.6914 234.5712,-1024.5458 215,-999.7 167.1738,-938.9844 251.2899,-830.7 174,-830.7"/>
<polygon fill="#000000" stroke="#000000" points="281.0065,-1037.3764 288.8544,-1041.2971 285.0033,-1037.5382 289,-1037.7 289,-1037.7 289,-1037.7 285.0033,-1037.5382 289.1456,-1034.1029 281.0065,-1037.3764 281.0065,-1037.3764"/>
<ellipse fill="none" stroke="#000000" cx="277.8092" cy="-1037.2469" rx="3.2" ry="3.2"/>
</g>
<!-- identified_need_audit -->
<g id="node6" class="node">
<title>identified_need_audit</title>
<g id="a_node6"><a xlink:href="../../tables/identified_need_audit.html" xlink:title="identified_need_audit" target="_top">
<polygon fill="#ffffff" stroke="transparent" points="308,-928.2 308,-989.2 492,-989.2 492,-928.2 308,-928.2"/>
<polygon fill="#f5f5f5" stroke="transparent" points="308,-965.7 308,-988.7 492,-988.7 492,-965.7 308,-965.7"/>
<polygon fill="none" stroke="#000000" points="308,-965.7 308,-988.7 492,-988.7 492,-965.7 308,-965.7"/>
<text text-anchor="start" x="313" y="-974.3" font-family="Helvetica,sans-Serif" font-weight="bold" font-size="11.00" fill="#000000">identified_need_audit</text>
<text text-anchor="start" x="457.5219" y="-973.8" font-family="Helvetica,sans-Serif" font-size="11.00" fill="#000000">[table]</text>
<polygon fill="none" stroke="#000000" points="308,-946.7 308,-965.7 492,-965.7 492,-946.7 308,-946.7"/>
<text text-anchor="start" x="311" y="-952.8" font-family="Helvetica,sans-Serif" font-size="11.00" fill="#000000">...</text>
<polygon fill="#ffffff" stroke="transparent" points="308,-927.7 308,-946.7 398,-946.7 398,-927.7 308,-927.7"/>
<polygon fill="none" stroke="#000000" points="308,-927.7 308,-946.7 398,-946.7 398,-927.7 308,-927.7"/>
<text text-anchor="start" x="311" y="-933.8" font-family="Helvetica,sans-Serif" font-size="11.00" fill="#000000">&lt; 1</text>
<polygon fill="#ffffff" stroke="transparent" points="398,-927.7 398,-946.7 445,-946.7 445,-927.7 398,-927.7"/>
<polygon fill="none" stroke="#000000" points="398,-927.7 398,-946.7 445,-946.7 445,-927.7 398,-927.7"/>
<text text-anchor="start" x="435.8862" y="-933.8" font-family="Helvetica,sans-Serif" font-size="11.00" fill="#000000"> &#160;</text>
<polygon fill="#ffffff" stroke="transparent" points="445,-927.7 445,-946.7 492,-946.7 492,-927.7 445,-927.7"/>
<polygon fill="none" stroke="#000000" points="445,-927.7 445,-946.7 492,-946.7 492,-927.7 445,-927.7"/>
<text text-anchor="start" x="482.8862" y="-933.8" font-family="Helvetica,sans-Serif" font-size="11.00" fill="#000000"> &#160;</text>
</a>
</g>
</g>
<!-- identified_need_audit&#45;&gt;audit_revision -->
<g id="edge5" class="edge">
<title>identified_need_audit:w&#45;&gt;audit_revision:e</title>
<path fill="none" stroke="#000000" d="M293.412,-955.3745C259.3834,-953.6746 243.5948,-944.8317 215,-917.7 183.9917,-888.2782 216.7453,-830.7 174,-830.7"/>
<polygon fill="#000000" stroke="#000000" points="300.002,-955.5215 307.9197,-959.2991 304.001,-955.6108 308,-955.7 308,-955.7 308,-955.7 304.001,-955.6108 308.0803,-952.1009 300.002,-955.5215 300.002,-955.5215"/>
<ellipse fill="none" stroke="#000000" cx="296.8028" cy="-955.4501" rx="3.2" ry="3.2"/>
</g>
<!-- interview_audit -->
<g id="node7" class="node">
<title>interview_audit</title>
<g id="a_node7"><a xlink:href="../../tables/interview_audit.html" xlink:title="interview_audit" target="_top">
<polygon fill="#ffffff" stroke="transparent" points="328.5,-846.2 328.5,-907.2 471.5,-907.2 471.5,-846.2 328.5,-846.2"/>
<polygon fill="#f5f5f5" stroke="transparent" points="329,-883.7 329,-906.7 472,-906.7 472,-883.7 329,-883.7"/>
<polygon fill="none" stroke="#000000" points="329,-883.7 329,-906.7 472,-906.7 472,-883.7 329,-883.7"/>
<text text-anchor="start" x="334" y="-892.3" font-family="Helvetica,sans-Serif" font-weight="bold" font-size="11.00" fill="#000000">interview_audit</text>
<text text-anchor="start" x="437.5219" y="-891.8" font-family="Helvetica,sans-Serif" font-size="11.00" fill="#000000">[table]</text>
<polygon fill="none" stroke="#000000" points="329,-864.7 329,-883.7 472,-883.7 472,-864.7 329,-864.7"/>
<text text-anchor="start" x="332" y="-870.8" font-family="Helvetica,sans-Serif" font-size="11.00" fill="#000000">...</text>
<polygon fill="#ffffff" stroke="transparent" points="329,-845.7 329,-864.7 399,-864.7 399,-845.7 329,-845.7"/>
<polygon fill="none" stroke="#000000" points="329,-845.7 329,-864.7 399,-864.7 399,-845.7 329,-845.7"/>
<text text-anchor="start" x="332" y="-851.8" font-family="Helvetica,sans-Serif" font-size="11.00" fill="#000000">&lt; 1</text>
<polygon fill="#ffffff" stroke="transparent" points="399,-845.7 399,-864.7 435,-864.7 435,-845.7 399,-845.7"/>
<polygon fill="none" stroke="#000000" points="399,-845.7 399,-864.7 435,-864.7 435,-845.7 399,-845.7"/>
<text text-anchor="start" x="425.8862" y="-851.8" font-family="Helvetica,sans-Serif" font-size="11.00" fill="#000000"> &#160;</text>
<polygon fill="#ffffff" stroke="transparent" points="435,-845.7 435,-864.7 472,-864.7 472,-845.7 435,-845.7"/>
<polygon fill="none" stroke="#000000" points="435,-845.7 435,-864.7 472,-864.7 472,-845.7 435,-845.7"/>
<text text-anchor="start" x="462.8862" y="-851.8" font-family="Helvetica,sans-Serif" font-size="11.00" fill="#000000"> &#160;</text>
</a>
</g>
</g>
<!-- interview_audit&#45;&gt;audit_revision -->
<g id="edge6" class="edge">
<title>interview_audit:w&#45;&gt;audit_revision:e</title>
<path fill="none" stroke="#000000" d="M314.3879,-873.0588C255.4617,-867.7097 240.3243,-830.7 174,-830.7"/>
<polygon fill="#000000" stroke="#000000" points="321.0077,-873.3492 328.8421,-877.2965 325.0038,-873.5246 329,-873.7 329,-873.7 329,-873.7 325.0038,-873.5246 329.1579,-870.1035 321.0077,-873.3492 321.0077,-873.3492"/>
<ellipse fill="none" stroke="#000000" cx="317.8108" cy="-873.2089" rx="3.2" ry="3.2"/>
</g>
<!-- investigation_audit -->
<g id="node8" class="node">
<title>investigation_audit</title>
<g id="a_node8"><a xlink:href="../../tables/investigation_audit.html" xlink:title="investigation_audit" target="_top">
<polygon fill="#ffffff" stroke="transparent" points="223,-448.7 223,-824.7 577,-824.7 577,-448.7 223,-448.7"/>
<polygon fill="#f5f5f5" stroke="transparent" points="225,-799.7 225,-822.7 575,-822.7 575,-799.7 225,-799.7"/>
<polygon fill="none" stroke="#000000" points="225,-799.7 225,-822.7 575,-822.7 575,-799.7 225,-799.7"/>
<text text-anchor="start" x="230" y="-808.3" font-family="Helvetica,sans-Serif" font-weight="bold" font-size="11.00" fill="#000000">investigation_audit</text>
<text text-anchor="start" x="540.0437" y="-807.8" font-family="Helvetica,sans-Serif" font-size="11.00" fill="#000000">[table]</text>
<polygon fill="none" stroke="#000000" points="225,-777.7 225,-799.7 481,-799.7 481,-777.7 225,-777.7"/>
<image xlink:href="../../images/primaryKeys.png" width="11px" height="12px" preserveAspectRatio="xMinYMin meet" x="230" y="-794.7"/>
<text text-anchor="start" x="245" y="-784.8" font-family="Helvetica,sans-Serif" font-size="11.00" fill="#000000">rev_id</text>
<polygon fill="none" stroke="#000000" points="481,-777.7 481,-799.7 575,-799.7 575,-777.7 481,-777.7"/>
<text text-anchor="start" x="484" y="-785.4" font-family="Helvetica,sans-Serif" font-size="11.00" fill="#000000">int8[19]</text>
<polygon fill="none" stroke="#000000" points="225,-755.7 225,-777.7 481,-777.7 481,-755.7 225,-755.7"/>
<text text-anchor="start" x="245" y="-762.8" font-family="Helvetica,sans-Serif" font-size="11.00" fill="#000000">rev_type</text>
<polygon fill="none" stroke="#000000" points="481,-755.7 481,-777.7 575,-777.7 575,-755.7 481,-755.7"/>
<text text-anchor="start" x="484" y="-763.4" font-family="Helvetica,sans-Serif" font-size="11.00" fill="#000000">int2[5]</text>
<polygon fill="none" stroke="#000000" points="225,-733.7 225,-755.7 481,-755.7 481,-733.7 225,-733.7"/>
<image xlink:href="../../images/primaryKeys.png" width="11px" height="12px" preserveAspectRatio="xMinYMin meet" x="230" y="-750.7"/>
<text text-anchor="start" x="245" y="-740.8" font-family="Helvetica,sans-Serif" font-size="11.00" fill="#000000">investigation_id</text>
<polygon fill="none" stroke="#000000" points="481,-733.7 481,-755.7 575,-755.7 575,-733.7 481,-733.7"/>
<text text-anchor="start" x="483.9758" y="-741.4" font-family="Helvetica,sans-Serif" font-size="11.00" fill="#000000">uuid[2147483647]</text>
<polygon fill="none" stroke="#000000" points="225,-711.7 225,-733.7 481,-733.7 481,-711.7 225,-711.7"/>
<text text-anchor="start" x="245" y="-718.8" font-family="Helvetica,sans-Serif" font-size="11.00" fill="#000000">staff_involved</text>
<polygon fill="none" stroke="#000000" points="481,-711.7 481,-733.7 575,-733.7 575,-711.7 481,-711.7"/>
<text text-anchor="start" x="484" y="-719.4" font-family="Helvetica,sans-Serif" font-size="11.00" fill="#000000">text[2147483647]</text>
<polygon fill="none" stroke="#000000" points="225,-689.7 225,-711.7 481,-711.7 481,-689.7 225,-689.7"/>
<text text-anchor="start" x="245" y="-696.8" font-family="Helvetica,sans-Serif" font-size="11.00" fill="#000000">evidence_secured</text>
<polygon fill="none" stroke="#000000" points="481,-689.7 481,-711.7 575,-711.7 575,-689.7 481,-689.7"/>
<text text-anchor="start" x="484" y="-697.4" font-family="Helvetica,sans-Serif" font-size="11.00" fill="#000000">text[2147483647]</text>
<polygon fill="none" stroke="#000000" points="225,-667.7 225,-689.7 481,-689.7 481,-667.7 225,-667.7"/>
<text text-anchor="start" x="245" y="-674.8" font-family="Helvetica,sans-Serif" font-size="11.00" fill="#000000">occurrence_reason</text>
<polygon fill="none" stroke="#000000" points="481,-667.7 481,-689.7 575,-689.7 575,-667.7 481,-667.7"/>
<text text-anchor="start" x="484" y="-675.4" font-family="Helvetica,sans-Serif" font-size="11.00" fill="#000000">text[2147483647]</text>
<polygon fill="none" stroke="#000000" points="225,-645.7 225,-667.7 481,-667.7 481,-645.7 225,-645.7"/>
<text text-anchor="start" x="245" y="-652.8" font-family="Helvetica,sans-Serif" font-size="11.00" fill="#000000">persons_usual_behaviour</text>
<polygon fill="none" stroke="#000000" points="481,-645.7 481,-667.7 575,-667.7 575,-645.7 481,-645.7"/>
<text text-anchor="start" x="484" y="-653.4" font-family="Helvetica,sans-Serif" font-size="11.00" fill="#000000">text[2147483647]</text>
<polygon fill="none" stroke="#000000" points="225,-623.7 225,-645.7 481,-645.7 481,-623.7 225,-623.7"/>
<text text-anchor="start" x="245" y="-630.8" font-family="Helvetica,sans-Serif" font-size="11.00" fill="#000000">persons_trigger</text>
<polygon fill="none" stroke="#000000" points="481,-623.7 481,-645.7 575,-645.7 575,-623.7 481,-623.7"/>
<text text-anchor="start" x="484" y="-631.4" font-family="Helvetica,sans-Serif" font-size="11.00" fill="#000000">text[2147483647]</text>
<polygon fill="none" stroke="#000000" points="225,-601.7 225,-623.7 481,-623.7 481,-601.7 225,-601.7"/>
<text text-anchor="start" x="245" y="-608.8" font-family="Helvetica,sans-Serif" font-size="11.00" fill="#000000">protective_factors</text>
<polygon fill="none" stroke="#000000" points="481,-601.7 481,-623.7 575,-623.7 575,-601.7 481,-601.7"/>
<text text-anchor="start" x="484" y="-609.4" font-family="Helvetica,sans-Serif" font-size="11.00" fill="#000000">text[2147483647]</text>
<polygon fill="none" stroke="#000000" points="225,-579.7 225,-601.7 481,-601.7 481,-579.7 225,-579.7"/>
<text text-anchor="start" x="245" y="-586.8" font-family="Helvetica,sans-Serif" font-size="11.00" fill="#000000">staff_involved_modified</text>
<polygon fill="none" stroke="#000000" points="481,-579.7 481,-601.7 575,-601.7 575,-579.7 481,-579.7"/>
<text text-anchor="start" x="484" y="-587.4" font-family="Helvetica,sans-Serif" font-size="11.00" fill="#000000">bool[1]</text>
<polygon fill="none" stroke="#000000" points="225,-557.7 225,-579.7 481,-579.7 481,-557.7 225,-557.7"/>
<text text-anchor="start" x="245" y="-564.8" font-family="Helvetica,sans-Serif" font-size="11.00" fill="#000000">evidence_secured_modified</text>
<polygon fill="none" stroke="#000000" points="481,-557.7 481,-579.7 575,-579.7 575,-557.7 481,-557.7"/>
<text text-anchor="start" x="484" y="-565.4" font-family="Helvetica,sans-Serif" font-size="11.00" fill="#000000">bool[1]</text>
<polygon fill="none" stroke="#000000" points="225,-535.7 225,-557.7 481,-557.7 481,-535.7 225,-535.7"/>
<text text-anchor="start" x="245" y="-542.8" font-family="Helvetica,sans-Serif" font-size="11.00" fill="#000000">occurrence_reason_modified</text>
<polygon fill="none" stroke="#000000" points="481,-535.7 481,-557.7 575,-557.7 575,-535.7 481,-535.7"/>
<text text-anchor="start" x="484" y="-543.4" font-family="Helvetica,sans-Serif" font-size="11.00" fill="#000000">bool[1]</text>
<polygon fill="none" stroke="#000000" points="225,-513.7 225,-535.7 481,-535.7 481,-513.7 225,-513.7"/>
<text text-anchor="start" x="245" y="-520.8" font-family="Helvetica,sans-Serif" font-size="11.00" fill="#000000">persons_usual_behaviour_modified</text>
<polygon fill="none" stroke="#000000" points="481,-513.7 481,-535.7 575,-535.7 575,-513.7 481,-513.7"/>
<text text-anchor="start" x="484" y="-521.4" font-family="Helvetica,sans-Serif" font-size="11.00" fill="#000000">bool[1]</text>
<polygon fill="none" stroke="#000000" points="225,-491.7 225,-513.7 481,-513.7 481,-491.7 225,-491.7"/>
<text text-anchor="start" x="245" y="-498.8" font-family="Helvetica,sans-Serif" font-size="11.00" fill="#000000">persons_trigger_modified</text>
<polygon fill="none" stroke="#000000" points="481,-491.7 481,-513.7 575,-513.7 575,-491.7 481,-491.7"/>
<text text-anchor="start" x="484" y="-499.4" font-family="Helvetica,sans-Serif" font-size="11.00" fill="#000000">bool[1]</text>
<polygon fill="none" stroke="#000000" points="225,-469.7 225,-491.7 481,-491.7 481,-469.7 225,-469.7"/>
<text text-anchor="start" x="245" y="-476.8" font-family="Helvetica,sans-Serif" font-size="11.00" fill="#000000">protective_factors_modified</text>
<polygon fill="none" stroke="#000000" points="481,-469.7 481,-491.7 575,-491.7 575,-469.7 481,-469.7"/>
<text text-anchor="start" x="484" y="-477.4" font-family="Helvetica,sans-Serif" font-size="11.00" fill="#000000">bool[1]</text>
<polygon fill="#ffffff" stroke="transparent" points="225,-450.7 225,-469.7 357,-469.7 357,-450.7 225,-450.7"/>
<polygon fill="none" stroke="#000000" points="225,-450.7 225,-469.7 357,-469.7 357,-450.7 225,-450.7"/>
<text text-anchor="start" x="228" y="-456.8" font-family="Helvetica,sans-Serif" font-size="11.00" fill="#000000">&lt; 1</text>
<polygon fill="#ffffff" stroke="transparent" points="357,-450.7 357,-469.7 481,-469.7 481,-450.7 357,-450.7"/>
<polygon fill="none" stroke="#000000" points="357,-450.7 357,-469.7 481,-469.7 481,-450.7 357,-450.7"/>
<text text-anchor="start" x="471.8862" y="-456.8" font-family="Helvetica,sans-Serif" font-size="11.00" fill="#000000"> &#160;</text>
<polygon fill="#ffffff" stroke="transparent" points="481,-450.7 481,-469.7 575,-469.7 575,-450.7 481,-450.7"/>
<polygon fill="none" stroke="#000000" points="481,-450.7 481,-469.7 575,-469.7 575,-450.7 481,-450.7"/>
<text text-anchor="start" x="556.4053" y="-456.8" font-family="Helvetica,sans-Serif" font-size="11.00" fill="#000000">0 &gt;</text>
<polygon fill="none" stroke="#000000" stroke-width="2" points="224,-449.7 224,-823.7 576,-823.7 576,-449.7 224,-449.7"/>
</a>
</g>
</g>
<!-- investigation_audit&#45;&gt;audit_revision -->
<g id="edge7" class="edge">
<title>investigation_audit:w&#45;&gt;audit_revision:e</title>
<path fill="none" stroke="#000000" d="M211.0759,-793.1947C197.2452,-804.0296 197.3991,-830.7 174,-830.7"/>
<polygon fill="#000000" stroke="#000000" points="217.3868,-791.1576 226.1059,-792.1259 221.1934,-789.9288 225,-788.7 225,-788.7 225,-788.7 221.1934,-789.9288 223.8941,-785.2741 217.3868,-791.1576 217.3868,-791.1576"/>
<ellipse fill="none" stroke="#000000" cx="214.3416" cy="-792.1406" rx="3.2" ry="3.2"/>
</g>
<!-- person_summary_audit -->
<g id="node9" class="node">
<title>person_summary_audit</title>
<g id="a_node9"><a xlink:href="../../tables/person_summary_audit.html" xlink:title="person_summary_audit" target="_top">
<polygon fill="#ffffff" stroke="transparent" points="302.5,-366.2 302.5,-427.2 497.5,-427.2 497.5,-366.2 302.5,-366.2"/>
<polygon fill="#f5f5f5" stroke="transparent" points="303,-403.7 303,-426.7 498,-426.7 498,-403.7 303,-403.7"/>
<polygon fill="none" stroke="#000000" points="303,-403.7 303,-426.7 498,-426.7 498,-403.7 303,-403.7"/>
<text text-anchor="start" x="308" y="-412.3" font-family="Helvetica,sans-Serif" font-weight="bold" font-size="11.00" fill="#000000">person_summary_audit</text>
<text text-anchor="start" x="463.5219" y="-411.8" font-family="Helvetica,sans-Serif" font-size="11.00" fill="#000000">[table]</text>
<polygon fill="none" stroke="#000000" points="303,-384.7 303,-403.7 498,-403.7 498,-384.7 303,-384.7"/>
<text text-anchor="start" x="306" y="-390.8" font-family="Helvetica,sans-Serif" font-size="11.00" fill="#000000">...</text>
<polygon fill="#ffffff" stroke="transparent" points="303,-365.7 303,-384.7 399,-384.7 399,-365.7 303,-365.7"/>
<polygon fill="none" stroke="#000000" points="303,-365.7 303,-384.7 399,-384.7 399,-365.7 303,-365.7"/>
<text text-anchor="start" x="306" y="-371.8" font-family="Helvetica,sans-Serif" font-size="11.00" fill="#000000">&lt; 1</text>
<polygon fill="#ffffff" stroke="transparent" points="399,-365.7 399,-384.7 448,-384.7 448,-365.7 399,-365.7"/>
<polygon fill="none" stroke="#000000" points="399,-365.7 399,-384.7 448,-384.7 448,-365.7 399,-365.7"/>
<text text-anchor="start" x="438.8862" y="-371.8" font-family="Helvetica,sans-Serif" font-size="11.00" fill="#000000"> &#160;</text>
<polygon fill="#ffffff" stroke="transparent" points="448,-365.7 448,-384.7 498,-384.7 498,-365.7 448,-365.7"/>
<polygon fill="none" stroke="#000000" points="448,-365.7 448,-384.7 498,-384.7 498,-365.7 448,-365.7"/>
<text text-anchor="start" x="488.8862" y="-371.8" font-family="Helvetica,sans-Serif" font-size="11.00" fill="#000000"> &#160;</text>
</a>
</g>
</g>
<!-- person_summary_audit&#45;&gt;audit_revision -->
<g id="edge8" class="edge">
<title>person_summary_audit:w&#45;&gt;audit_revision:e</title>
<path fill="none" stroke="#000000" d="M288.5254,-394.0915C254.4886,-396.1332 236.934,-406.7186 215,-438.7 165.4615,-510.9309 261.5863,-830.7 174,-830.7"/>
<polygon fill="#000000" stroke="#000000" points="295.0029,-393.9164 303.0974,-397.2987 299.0015,-393.8082 303,-393.7 303,-393.7 303,-393.7 299.0015,-393.8082 302.9026,-390.1013 295.0029,-393.9164 295.0029,-393.9164"/>
<ellipse fill="none" stroke="#000000" cx="291.8041" cy="-394.0029" rx="3.2" ry="3.2"/>
</g>
<!-- plan_audit -->
<g id="node10" class="node">
<title>plan_audit</title>
<g id="a_node10"><a xlink:href="../../tables/plan_audit.html" xlink:title="plan_audit" target="_top">
<polygon fill="#ffffff" stroke="transparent" points="345.5,-284.2 345.5,-345.2 454.5,-345.2 454.5,-284.2 345.5,-284.2"/>
<polygon fill="#f5f5f5" stroke="transparent" points="346,-321.7 346,-344.7 455,-344.7 455,-321.7 346,-321.7"/>
<polygon fill="none" stroke="#000000" points="346,-321.7 346,-344.7 455,-344.7 455,-321.7 346,-321.7"/>
<text text-anchor="start" x="351" y="-330.3" font-family="Helvetica,sans-Serif" font-weight="bold" font-size="11.00" fill="#000000">plan_audit</text>
<text text-anchor="start" x="420.5219" y="-329.8" font-family="Helvetica,sans-Serif" font-size="11.00" fill="#000000">[table]</text>
<polygon fill="none" stroke="#000000" points="346,-302.7 346,-321.7 455,-321.7 455,-302.7 346,-302.7"/>
<text text-anchor="start" x="349" y="-308.8" font-family="Helvetica,sans-Serif" font-size="11.00" fill="#000000">...</text>
<polygon fill="#ffffff" stroke="transparent" points="346,-283.7 346,-302.7 399,-302.7 399,-283.7 346,-283.7"/>
<polygon fill="none" stroke="#000000" points="346,-283.7 346,-302.7 399,-302.7 399,-283.7 346,-283.7"/>
<text text-anchor="start" x="349" y="-289.8" font-family="Helvetica,sans-Serif" font-size="11.00" fill="#000000">&lt; 1</text>
<polygon fill="#ffffff" stroke="transparent" points="399,-283.7 399,-302.7 427,-302.7 427,-283.7 399,-283.7"/>
<polygon fill="none" stroke="#000000" points="399,-283.7 399,-302.7 427,-302.7 427,-283.7 399,-283.7"/>
<text text-anchor="start" x="417.8862" y="-289.8" font-family="Helvetica,sans-Serif" font-size="11.00" fill="#000000"> &#160;</text>
<polygon fill="#ffffff" stroke="transparent" points="427,-283.7 427,-302.7 455,-302.7 455,-283.7 427,-283.7"/>
<polygon fill="none" stroke="#000000" points="427,-283.7 427,-302.7 455,-302.7 455,-283.7 427,-283.7"/>
<text text-anchor="start" x="445.8862" y="-289.8" font-family="Helvetica,sans-Serif" font-size="11.00" fill="#000000"> &#160;</text>
</a>
</g>
</g>
<!-- plan_audit&#45;&gt;audit_revision -->
<g id="edge9" class="edge">
<title>plan_audit:w&#45;&gt;audit_revision:e</title>
<path fill="none" stroke="#000000" d="M331.467,-311.645C279.352,-311.3519 249.8534,-311.3831 215,-355.7 182.2523,-397.3394 226.974,-830.7 174,-830.7"/>
<polygon fill="#000000" stroke="#000000" points="338.0001,-311.6697 345.9864,-315.3 342,-311.6848 346,-311.7 346,-311.7 346,-311.7 342,-311.6848 346.0136,-308.1 338.0001,-311.6697 338.0001,-311.6697"/>
<ellipse fill="none" stroke="#000000" cx="334.8001" cy="-311.6576" rx="3.2" ry="3.2"/>
</g>
<!-- referral_audit -->
<g id="node11" class="node">
<title>referral_audit</title>
<g id="a_node11"><a xlink:href="../../tables/referral_audit.html" xlink:title="referral_audit" target="_top">
<polygon fill="#ffffff" stroke="transparent" points="334.5,-202.2 334.5,-263.2 465.5,-263.2 465.5,-202.2 334.5,-202.2"/>
<polygon fill="#f5f5f5" stroke="transparent" points="335,-239.7 335,-262.7 466,-262.7 466,-239.7 335,-239.7"/>
<polygon fill="none" stroke="#000000" points="335,-239.7 335,-262.7 466,-262.7 466,-239.7 335,-239.7"/>
<text text-anchor="start" x="340" y="-248.3" font-family="Helvetica,sans-Serif" font-weight="bold" font-size="11.00" fill="#000000">referral_audit</text>
<text text-anchor="start" x="431.5219" y="-247.8" font-family="Helvetica,sans-Serif" font-size="11.00" fill="#000000">[table]</text>
<polygon fill="none" stroke="#000000" points="335,-220.7 335,-239.7 466,-239.7 466,-220.7 335,-220.7"/>
<text text-anchor="start" x="338" y="-226.8" font-family="Helvetica,sans-Serif" font-size="11.00" fill="#000000">...</text>
<polygon fill="#ffffff" stroke="transparent" points="335,-201.7 335,-220.7 399,-220.7 399,-201.7 335,-201.7"/>
<polygon fill="none" stroke="#000000" points="335,-201.7 335,-220.7 399,-220.7 399,-201.7 335,-201.7"/>
<text text-anchor="start" x="338" y="-207.8" font-family="Helvetica,sans-Serif" font-size="11.00" fill="#000000">&lt; 1</text>
<polygon fill="#ffffff" stroke="transparent" points="399,-201.7 399,-220.7 432,-220.7 432,-201.7 399,-201.7"/>
<polygon fill="none" stroke="#000000" points="399,-201.7 399,-220.7 432,-220.7 432,-201.7 399,-201.7"/>
<text text-anchor="start" x="422.8862" y="-207.8" font-family="Helvetica,sans-Serif" font-size="11.00" fill="#000000"> &#160;</text>
<polygon fill="#ffffff" stroke="transparent" points="432,-201.7 432,-220.7 466,-220.7 466,-201.7 432,-201.7"/>
<polygon fill="none" stroke="#000000" points="432,-201.7 432,-220.7 466,-220.7 466,-201.7 432,-201.7"/>
<text text-anchor="start" x="456.8862" y="-207.8" font-family="Helvetica,sans-Serif" font-size="11.00" fill="#000000"> &#160;</text>
</a>
</g>
</g>
<!-- referral_audit&#45;&gt;audit_revision -->
<g id="edge10" class="edge">
<title>referral_audit:w&#45;&gt;audit_revision:e</title>
<path fill="none" stroke="#000000" d="M320.339,-229.7023C272.9451,-229.8352 246.1415,-232.429 215,-273.7 177.6218,-323.2364 236.0563,-830.7 174,-830.7"/>
<polygon fill="#000000" stroke="#000000" points="327,-229.7013 335.0006,-233.3 331,-229.7006 335,-229.7 335,-229.7 335,-229.7 331,-229.7006 334.9994,-226.1 327,-229.7013 327,-229.7013"/>
<ellipse fill="none" stroke="#000000" cx="323.8" cy="-229.7018" rx="3.2" ry="3.2"/>
</g>
<!-- review_audit -->
<g id="node12" class="node">
<title>review_audit</title>
<g id="a_node12"><a xlink:href="../../tables/review_audit.html" xlink:title="review_audit" target="_top">
<polygon fill="#ffffff" stroke="transparent" points="337.5,-120.2 337.5,-181.2 462.5,-181.2 462.5,-120.2 337.5,-120.2"/>
<polygon fill="#f5f5f5" stroke="transparent" points="338,-157.7 338,-180.7 463,-180.7 463,-157.7 338,-157.7"/>
<polygon fill="none" stroke="#000000" points="338,-157.7 338,-180.7 463,-180.7 463,-157.7 338,-157.7"/>
<text text-anchor="start" x="343" y="-166.3" font-family="Helvetica,sans-Serif" font-weight="bold" font-size="11.00" fill="#000000">review_audit</text>
<text text-anchor="start" x="428.5219" y="-165.8" font-family="Helvetica,sans-Serif" font-size="11.00" fill="#000000">[table]</text>
<polygon fill="none" stroke="#000000" points="338,-138.7 338,-157.7 463,-157.7 463,-138.7 338,-138.7"/>
<text text-anchor="start" x="341" y="-144.8" font-family="Helvetica,sans-Serif" font-size="11.00" fill="#000000">...</text>
<polygon fill="#ffffff" stroke="transparent" points="338,-119.7 338,-138.7 399,-138.7 399,-119.7 338,-119.7"/>
<polygon fill="none" stroke="#000000" points="338,-119.7 338,-138.7 399,-138.7 399,-119.7 338,-119.7"/>
<text text-anchor="start" x="341" y="-125.8" font-family="Helvetica,sans-Serif" font-size="11.00" fill="#000000">&lt; 1</text>
<polygon fill="#ffffff" stroke="transparent" points="399,-119.7 399,-138.7 431,-138.7 431,-119.7 399,-119.7"/>
<polygon fill="none" stroke="#000000" points="399,-119.7 399,-138.7 431,-138.7 431,-119.7 399,-119.7"/>
<text text-anchor="start" x="421.8862" y="-125.8" font-family="Helvetica,sans-Serif" font-size="11.00" fill="#000000"> &#160;</text>
<polygon fill="#ffffff" stroke="transparent" points="431,-119.7 431,-138.7 463,-138.7 463,-119.7 431,-119.7"/>
<polygon fill="none" stroke="#000000" points="431,-119.7 431,-138.7 463,-138.7 463,-119.7 431,-119.7"/>
<text text-anchor="start" x="453.8862" y="-125.8" font-family="Helvetica,sans-Serif" font-size="11.00" fill="#000000"> &#160;</text>
</a>
</g>
</g>
<!-- review_audit&#45;&gt;audit_revision -->
<g id="edge11" class="edge">
<title>review_audit:w&#45;&gt;audit_revision:e</title>
<path fill="none" stroke="#000000" d="M323.3192,-147.6797C274.6285,-147.6596 246.8654,-149.4039 215,-191.7 172.1893,-248.5242 245.146,-830.7 174,-830.7"/>
<polygon fill="#000000" stroke="#000000" points="330,-147.6889 337.995,-151.3 334,-147.6945 338,-147.7 338,-147.7 338,-147.7 334,-147.6945 338.005,-144.1 330,-147.6889 330,-147.6889"/>
<ellipse fill="none" stroke="#000000" cx="326.8" cy="-147.6845" rx="3.2" ry="3.2"/>
</g>
<!-- safer_custody_screening_outcome_audit -->
<g id="node13" class="node">
<title>safer_custody_screening_outcome_audit</title>
<g id="a_node13"><a xlink:href="../../tables/safer_custody_screening_outcome_audit.html" xlink:title="safer_custody_screening_outcome_audit" target="_top">
<polygon fill="#ffffff" stroke="transparent" points="245,-38.2 245,-99.2 555,-99.2 555,-38.2 245,-38.2"/>
<polygon fill="#f5f5f5" stroke="transparent" points="245,-75.7 245,-98.7 555,-98.7 555,-75.7 245,-75.7"/>
<polygon fill="none" stroke="#000000" points="245,-75.7 245,-98.7 555,-98.7 555,-75.7 245,-75.7"/>
<text text-anchor="start" x="250" y="-84.3" font-family="Helvetica,sans-Serif" font-weight="bold" font-size="11.00" fill="#000000">safer_custody_screening_outcome_audit</text>
<text text-anchor="start" x="520.5219" y="-83.8" font-family="Helvetica,sans-Serif" font-size="11.00" fill="#000000">[table]</text>
<polygon fill="none" stroke="#000000" points="245,-56.7 245,-75.7 555,-75.7 555,-56.7 245,-56.7"/>
<text text-anchor="start" x="248" y="-62.8" font-family="Helvetica,sans-Serif" font-size="11.00" fill="#000000">...</text>
<polygon fill="#ffffff" stroke="transparent" points="245,-37.7 245,-56.7 398,-56.7 398,-37.7 245,-37.7"/>
<polygon fill="none" stroke="#000000" points="245,-37.7 245,-56.7 398,-56.7 398,-37.7 245,-37.7"/>
<text text-anchor="start" x="248" y="-43.8" font-family="Helvetica,sans-Serif" font-size="11.00" fill="#000000">&lt; 1</text>
<polygon fill="#ffffff" stroke="transparent" points="398,-37.7 398,-56.7 476,-56.7 476,-37.7 398,-37.7"/>
<polygon fill="none" stroke="#000000" points="398,-37.7 398,-56.7 476,-56.7 476,-37.7 398,-37.7"/>
<text text-anchor="start" x="466.8862" y="-43.8" font-family="Helvetica,sans-Serif" font-size="11.00" fill="#000000"> &#160;</text>
<polygon fill="#ffffff" stroke="transparent" points="476,-37.7 476,-56.7 555,-56.7 555,-37.7 476,-37.7"/>
<polygon fill="none" stroke="#000000" points="476,-37.7 476,-56.7 555,-56.7 555,-37.7 476,-37.7"/>
<text text-anchor="start" x="545.8862" y="-43.8" font-family="Helvetica,sans-Serif" font-size="11.00" fill="#000000"> &#160;</text>
</a>
</g>
</g>
<!-- safer_custody_screening_outcome_audit&#45;&gt;audit_revision -->
<g id="edge12" class="edge">
<title>safer_custody_screening_outcome_audit:w&#45;&gt;audit_revision:e</title>
<path fill="none" stroke="#000000" d="M231.0895,-69.6492C221.4023,-76.887 220.6526,-93.0678 215,-109.7 202.09,-147.6864 214.1203,-830.7 174,-830.7"/>
<polygon fill="#000000" stroke="#000000" points="237.3041,-67.8849 245.9832,-69.1631 241.1521,-66.7925 245,-65.7 245,-65.7 245,-65.7 241.1521,-66.7925 244.0168,-62.2369 237.3041,-67.8849 237.3041,-67.8849"/>
<ellipse fill="none" stroke="#000000" cx="234.2258" cy="-68.7589" rx="3.2" ry="3.2"/>
</g>
</g>
</svg>
