<?xml version="1.0" encoding="UTF-8" standalone="no"?>
<!DOCTYPE svg PUBLIC "-//W3C//DTD SVG 1.1//EN"
 "http://www.w3.org/Graphics/SVG/1.1/DTD/svg11.dtd">
<!-- Generated by graphviz version 2.40.1 (20161225.0304)
 -->
<!-- Title: twoDegreesRelationshipsDiagram Pages: 1 -->
<svg width="1185pt" height="565pt"
 viewBox="0.00 0.00 1185.00 564.76" xmlns="http://www.w3.org/2000/svg" xmlns:xlink="http://www.w3.org/1999/xlink">
<g id="graph0" class="graph" transform="scale(1 1) rotate(0) translate(4 560.7588)">
<title>twoDegreesRelationshipsDiagram</title>
<polygon fill="#ffffff" stroke="transparent" points="-4,4 -4,-560.7588 1181,-560.7588 1181,4 -4,4"/>
<text text-anchor="middle" x="72.4936" y="-7.3" font-family="Helvetica,sans-Serif" font-size="11.00" fill="#000000">Generated by SchemaSpy</text>
<!-- contributory_factor -->
<g id="node1" class="node">
<title>contributory_factor</title>
<g id="a_node1"><a xlink:href="../../tables/contributory_factor.html" xlink:title="contributory_factor" target="_top">
<polygon fill="#ffffff" stroke="transparent" points="739,-491.7588 739,-552.7588 908,-552.7588 908,-491.7588 739,-491.7588"/>
<polygon fill="#f5f5f5" stroke="transparent" points="739.5,-529.2588 739.5,-552.2588 908.5,-552.2588 908.5,-529.2588 739.5,-529.2588"/>
<polygon fill="none" stroke="#000000" points="739.5,-529.2588 739.5,-552.2588 908.5,-552.2588 908.5,-529.2588 739.5,-529.2588"/>
<text text-anchor="start" x="744.5" y="-537.8588" font-family="Helvetica,sans-Serif" font-weight="bold" font-size="11.00" fill="#000000">contributory_factor</text>
<text text-anchor="start" x="874.0219" y="-537.3588" font-family="Helvetica,sans-Serif" font-size="11.00" fill="#000000">[table]</text>
<polygon fill="none" stroke="#000000" points="739.5,-510.2588 739.5,-529.2588 908.5,-529.2588 908.5,-510.2588 739.5,-510.2588"/>
<text text-anchor="start" x="742.5" y="-516.3588" font-family="Helvetica,sans-Serif" font-size="11.00" fill="#000000">...</text>
<polygon fill="#ffffff" stroke="transparent" points="739.5,-491.2588 739.5,-510.2588 822.5,-510.2588 822.5,-491.2588 739.5,-491.2588"/>
<polygon fill="none" stroke="#000000" points="739.5,-491.2588 739.5,-510.2588 822.5,-510.2588 822.5,-491.2588 739.5,-491.2588"/>
<text text-anchor="start" x="742.5" y="-497.3588" font-family="Helvetica,sans-Serif" font-size="11.00" fill="#000000">&lt; 2</text>
<polygon fill="#ffffff" stroke="transparent" points="822.5,-491.2588 822.5,-510.2588 865.5,-510.2588 865.5,-491.2588 822.5,-491.2588"/>
<polygon fill="none" stroke="#000000" points="822.5,-491.2588 822.5,-510.2588 865.5,-510.2588 865.5,-491.2588 822.5,-491.2588"/>
<text text-anchor="start" x="856.3862" y="-497.3588" font-family="Helvetica,sans-Serif" font-size="11.00" fill="#000000"> &#160;</text>
<polygon fill="#ffffff" stroke="transparent" points="865.5,-491.2588 865.5,-510.2588 908.5,-510.2588 908.5,-491.2588 865.5,-491.2588"/>
<polygon fill="none" stroke="#000000" points="865.5,-491.2588 865.5,-510.2588 908.5,-510.2588 908.5,-491.2588 865.5,-491.2588"/>
<text text-anchor="start" x="899.3862" y="-497.3588" font-family="Helvetica,sans-Serif" font-size="11.00" fill="#000000"> &#160;</text>
</a>
</g>
</g>
<!-- reference_data -->
<g id="node2" class="node">
<title>reference_data</title>
<g id="a_node2"><a xlink:href="../../tables/reference_data.html" xlink:title="reference_data" target="_top">
<polygon fill="#ffffff" stroke="transparent" points="8,-245.7588 8,-306.7588 148,-306.7588 148,-245.7588 8,-245.7588"/>
<polygon fill="#f5f5f5" stroke="transparent" points="8,-283.2588 8,-306.2588 148,-306.2588 148,-283.2588 8,-283.2588"/>
<polygon fill="none" stroke="#000000" points="8,-283.2588 8,-306.2588 148,-306.2588 148,-283.2588 8,-283.2588"/>
<text text-anchor="start" x="13" y="-291.8588" font-family="Helvetica,sans-Serif" font-weight="bold" font-size="11.00" fill="#000000">reference_data</text>
<text text-anchor="start" x="113.5219" y="-291.3588" font-family="Helvetica,sans-Serif" font-size="11.00" fill="#000000">[table]</text>
<polygon fill="none" stroke="#000000" points="8,-264.2588 8,-283.2588 148,-283.2588 148,-264.2588 8,-264.2588"/>
<text text-anchor="start" x="11" y="-270.3588" font-family="Helvetica,sans-Serif" font-size="11.00" fill="#000000">...</text>
<polygon fill="#ffffff" stroke="transparent" points="8,-245.2588 8,-264.2588 45,-264.2588 45,-245.2588 8,-245.2588"/>
<polygon fill="none" stroke="#000000" points="8,-245.2588 8,-264.2588 45,-264.2588 45,-245.2588 8,-245.2588"/>
<text text-anchor="start" x="11" y="-251.3588" font-family="Helvetica,sans-Serif" font-size="11.00" fill="#000000"> &#160;</text>
<polygon fill="#ffffff" stroke="transparent" points="45,-245.2588 45,-264.2588 108,-264.2588 108,-245.2588 45,-245.2588"/>
<polygon fill="none" stroke="#000000" points="45,-245.2588 45,-264.2588 108,-264.2588 108,-245.2588 45,-245.2588"/>
<text text-anchor="start" x="60.3807" y="-251.3588" font-family="Helvetica,sans-Serif" font-size="11.00" fill="#000000">112 rows</text>
<polygon fill="#ffffff" stroke="transparent" points="108,-245.2588 108,-264.2588 148,-264.2588 148,-245.2588 108,-245.2588"/>
<polygon fill="none" stroke="#000000" points="108,-245.2588 108,-264.2588 148,-264.2588 148,-245.2588 108,-245.2588"/>
<text text-anchor="start" x="123.2904" y="-251.3588" font-family="Helvetica,sans-Serif" font-size="11.00" fill="#000000">10 &gt;</text>
</a>
</g>
</g>
<!-- contributory_factor&#45;&gt;reference_data -->
<g id="edge1" class="edge">
<title>contributory_factor:w&#45;&gt;reference_data:e</title>
<path fill="none" stroke="#000000" d="M724.7952,-519.3573C487.3064,-522.5304 368.5302,-600.1496 189,-437.2588 133.3576,-386.7735 223.1321,-273.2588 148,-273.2588"/>
<polygon fill="#000000" stroke="#000000" points="731.5002,-519.3124 739.5242,-522.8587 735.5001,-519.2856 739.5,-519.2588 739.5,-519.2588 739.5,-519.2588 735.5001,-519.2856 739.4758,-515.6588 731.5002,-519.3124 731.5002,-519.3124"/>
<ellipse fill="none" stroke="#000000" cx="728.3003" cy="-519.3339" rx="3.2" ry="3.2"/>
</g>
<!-- referral -->
<g id="node3" class="node">
<title>referral</title>
<g id="a_node3"><a xlink:href="../../tables/referral.html" xlink:title="referral" target="_top">
<polygon fill="#ffffff" stroke="transparent" points="361,-223.7588 361,-416.7588 630,-416.7588 630,-223.7588 361,-223.7588"/>
<polygon fill="#f5f5f5" stroke="transparent" points="361.5,-393.2588 361.5,-416.2588 630.5,-416.2588 630.5,-393.2588 361.5,-393.2588"/>
<polygon fill="none" stroke="#000000" points="361.5,-393.2588 361.5,-416.2588 630.5,-416.2588 630.5,-393.2588 361.5,-393.2588"/>
<text text-anchor="start" x="366.5" y="-401.8588" font-family="Helvetica,sans-Serif" font-weight="bold" font-size="11.00" fill="#000000">referral</text>
<text text-anchor="start" x="595.5437" y="-401.3588" font-family="Helvetica,sans-Serif" font-size="11.00" fill="#000000">[table]</text>
<polygon fill="none" stroke="#000000" points="361.5,-371.2588 361.5,-393.2588 630.5,-393.2588 630.5,-371.2588 361.5,-371.2588"/>
<image xlink:href="../../images/primaryKeys.png" width="11px" height="12px" preserveAspectRatio="xMinYMin meet" x="366.5" y="-388.259"/>
<text text-anchor="start" x="381.5" y="-378.3588" font-family="Helvetica,sans-Serif" font-size="11.00" fill="#000000">referral_id</text>
<polygon fill="#ffffff" stroke="transparent" points="361.5,-349.2588 361.5,-371.2588 630.5,-371.2588 630.5,-349.2588 361.5,-349.2588"/>
<polygon fill="none" stroke="#000000" points="361.5,-349.2588 361.5,-371.2588 630.5,-371.2588 630.5,-349.2588 361.5,-349.2588"/>
<image xlink:href="../../images/foreignKeys.png" width="11px" height="12px" preserveAspectRatio="xMinYMin meet" x="366.5" y="-366.259"/>
<text text-anchor="start" x="381.5" y="-356.3588" font-family="Helvetica,sans-Serif" font-size="11.00" fill="#000000">incident_type_id</text>
<polygon fill="#ffffff" stroke="transparent" points="361.5,-327.2588 361.5,-349.2588 630.5,-349.2588 630.5,-327.2588 361.5,-327.2588"/>
<polygon fill="none" stroke="#000000" points="361.5,-327.2588 361.5,-349.2588 630.5,-349.2588 630.5,-327.2588 361.5,-327.2588"/>
<image xlink:href="../../images/foreignKeys.png" width="11px" height="12px" preserveAspectRatio="xMinYMin meet" x="366.5" y="-344.259"/>
<text text-anchor="start" x="381.5" y="-334.3588" font-family="Helvetica,sans-Serif" font-size="11.00" fill="#000000">incident_location_id</text>
<polygon fill="#ffffff" stroke="transparent" points="361.5,-305.2588 361.5,-327.2588 630.5,-327.2588 630.5,-305.2588 361.5,-305.2588"/>
<polygon fill="none" stroke="#000000" points="361.5,-305.2588 361.5,-327.2588 630.5,-327.2588 630.5,-305.2588 361.5,-305.2588"/>
<image xlink:href="../../images/foreignKeys.png" width="11px" height="12px" preserveAspectRatio="xMinYMin meet" x="366.5" y="-322.259"/>
<text text-anchor="start" x="381.5" y="-312.3588" font-family="Helvetica,sans-Serif" font-size="11.00" fill="#000000">referer_area_of_work_id</text>
<polygon fill="#ffffff" stroke="transparent" points="361.5,-283.2588 361.5,-305.2588 630.5,-305.2588 630.5,-283.2588 361.5,-283.2588"/>
<polygon fill="none" stroke="#000000" points="361.5,-283.2588 361.5,-305.2588 630.5,-305.2588 630.5,-283.2588 361.5,-283.2588"/>
<text text-anchor="start" x="381.5" y="-290.3588" font-family="Helvetica,sans-Serif" font-size="11.00" fill="#000000">referral_date</text>
<polygon fill="#ffffff" stroke="transparent" points="361.5,-261.2588 361.5,-283.2588 630.5,-283.2588 630.5,-261.2588 361.5,-261.2588"/>
<polygon fill="none" stroke="#000000" points="361.5,-261.2588 361.5,-283.2588 630.5,-283.2588 630.5,-261.2588 361.5,-261.2588"/>
<image xlink:href="../../images/foreignKeys.png" width="11px" height="12px" preserveAspectRatio="xMinYMin meet" x="366.5" y="-278.259"/>
<text text-anchor="start" x="381.5" y="-268.3588" font-family="Helvetica,sans-Serif" font-size="11.00" fill="#000000">incident_involvement_id</text>
<polygon fill="none" stroke="#000000" points="361.5,-242.2588 361.5,-261.2588 630.5,-261.2588 630.5,-242.2588 361.5,-242.2588"/>
<text text-anchor="start" x="364.5" y="-248.3588" font-family="Helvetica,sans-Serif" font-size="11.00" fill="#000000">...</text>
<polygon fill="#ffffff" stroke="transparent" points="361.5,-223.2588 361.5,-242.2588 489.5,-242.2588 489.5,-223.2588 361.5,-223.2588"/>
<polygon fill="none" stroke="#000000" points="361.5,-223.2588 361.5,-242.2588 489.5,-242.2588 489.5,-223.2588 361.5,-223.2588"/>
<text text-anchor="start" x="364.5" y="-229.3588" font-family="Helvetica,sans-Serif" font-size="11.00" fill="#000000">&lt; 5</text>
<polygon fill="#ffffff" stroke="transparent" points="489.5,-223.2588 489.5,-242.2588 555.5,-242.2588 555.5,-223.2588 489.5,-223.2588"/>
<polygon fill="none" stroke="#000000" points="489.5,-223.2588 489.5,-242.2588 555.5,-242.2588 555.5,-223.2588 489.5,-223.2588"/>
<text text-anchor="start" x="546.3862" y="-229.3588" font-family="Helvetica,sans-Serif" font-size="11.00" fill="#000000"> &#160;</text>
<polygon fill="#ffffff" stroke="transparent" points="555.5,-223.2588 555.5,-242.2588 630.5,-242.2588 630.5,-223.2588 555.5,-223.2588"/>
<polygon fill="none" stroke="#000000" points="555.5,-223.2588 555.5,-242.2588 630.5,-242.2588 630.5,-223.2588 555.5,-223.2588"/>
<text text-anchor="start" x="611.9053" y="-229.3588" font-family="Helvetica,sans-Serif" font-size="11.00" fill="#000000">4 &gt;</text>
</a>
</g>
</g>
<!-- contributory_factor&#45;&gt;referral -->
<g id="edge2" class="edge">
<title>contributory_factor:w&#45;&gt;referral:e</title>
<path fill="none" stroke="#000000" d="M724.8162,-518.374C701.0772,-515.1745 690.5088,-503.2205 671,-481.2588 639.428,-445.7171 678.0395,-382.2588 630.5,-382.2588"/>
<polygon fill="#000000" stroke="#000000" points="731.5145,-518.7775 739.2835,-522.8522 735.5072,-519.0182 739.5,-519.2588 739.5,-519.2588 739.5,-519.2588 735.5072,-519.0182 739.7165,-515.6653 731.5145,-518.7775 731.5145,-518.7775"/>
<ellipse fill="none" stroke="#000000" cx="728.3203" cy="-518.5851" rx="3.2" ry="3.2"/>
</g>
<!-- referral&#45;&gt;reference_data -->
<g id="edge10" class="edge">
<title>referral:w&#45;&gt;reference_data:e</title>
<path fill="none" stroke="#000000" d="M347.061,-272.2668C263.9104,-272.3614 237.886,-273.2588 148,-273.2588"/>
<polygon fill="#000000" stroke="#000000" points="353.5,-272.2633 361.502,-275.8588 357.5,-272.261 361.5,-272.2588 361.5,-272.2588 361.5,-272.2588 357.5,-272.261 361.498,-268.6588 353.5,-272.2633 353.5,-272.2633"/>
<ellipse fill="none" stroke="#000000" cx="350.3" cy="-272.2651" rx="3.2" ry="3.2"/>
</g>
<!-- referral&#45;&gt;reference_data -->
<g id="edge11" class="edge">
<title>referral:w&#45;&gt;reference_data:e</title>
<path fill="none" stroke="#000000" d="M347.0198,-336.4283C306.2656,-329.311 204.7132,-303.5616 189,-297.2588 169.4031,-289.3981 169.1146,-273.2588 148,-273.2588"/>
<polygon fill="#000000" stroke="#000000" points="353.5632,-337.2554 361.0485,-341.8303 357.5316,-337.7571 361.5,-338.2588 361.5,-338.2588 361.5,-338.2588 357.5316,-337.7571 361.9515,-334.6872 353.5632,-337.2554 353.5632,-337.2554"/>
<ellipse fill="none" stroke="#000000" cx="350.3884" cy="-336.8541" rx="3.2" ry="3.2"/>
</g>
<!-- referral&#45;&gt;reference_data -->
<g id="edge12" class="edge">
<title>referral:w&#45;&gt;reference_data:e</title>
<path fill="none" stroke="#000000" d="M346.9714,-358.7898C305.9637,-353.0511 203.3824,-332.03 189,-323.2588 164.4646,-308.2957 176.7381,-273.2588 148,-273.2588"/>
<polygon fill="#000000" stroke="#000000" points="353.5406,-359.454 361.1378,-363.8405 357.5203,-359.8564 361.5,-360.2588 361.5,-360.2588 361.5,-360.2588 357.5203,-359.8564 361.8622,-356.677 353.5406,-359.454 353.5406,-359.454"/>
<ellipse fill="none" stroke="#000000" cx="350.3568" cy="-359.1321" rx="3.2" ry="3.2"/>
</g>
<!-- referral&#45;&gt;reference_data -->
<g id="edge13" class="edge">
<title>referral:w&#45;&gt;reference_data:e</title>
<path fill="none" stroke="#000000" d="M347.1503,-313.3279C338.538,-309.2889 333.4469,-302.0788 320,-298.2588 301.4231,-292.9814 167.3119,-273.2588 148,-273.2588"/>
<polygon fill="#000000" stroke="#000000" points="353.6618,-314.6578 360.7796,-319.7859 357.5809,-315.4583 361.5,-316.2588 361.5,-316.2588 361.5,-316.2588 357.5809,-315.4583 362.2204,-312.7316 353.6618,-314.6578 353.6618,-314.6578"/>
<ellipse fill="none" stroke="#000000" cx="350.5265" cy="-314.0174" rx="3.2" ry="3.2"/>
</g>
<!-- csip_record -->
<g id="node4" class="node">
<title>csip_record</title>
<g id="a_node4"><a xlink:href="../../tables/csip_record.html" xlink:title="csip_record" target="_top">
<polygon fill="#ffffff" stroke="transparent" points="197,-365.7588 197,-426.7588 312,-426.7588 312,-365.7588 197,-365.7588"/>
<polygon fill="#f5f5f5" stroke="transparent" points="197.5,-403.2588 197.5,-426.2588 312.5,-426.2588 312.5,-403.2588 197.5,-403.2588"/>
<polygon fill="none" stroke="#000000" points="197.5,-403.2588 197.5,-426.2588 312.5,-426.2588 312.5,-403.2588 197.5,-403.2588"/>
<text text-anchor="start" x="202.5" y="-411.8588" font-family="Helvetica,sans-Serif" font-weight="bold" font-size="11.00" fill="#000000">csip_record</text>
<text text-anchor="start" x="278.0219" y="-411.3588" font-family="Helvetica,sans-Serif" font-size="11.00" fill="#000000">[table]</text>
<polygon fill="none" stroke="#000000" points="197.5,-384.2588 197.5,-403.2588 312.5,-403.2588 312.5,-384.2588 197.5,-384.2588"/>
<text text-anchor="start" x="200.5" y="-390.3588" font-family="Helvetica,sans-Serif" font-size="11.00" fill="#000000">...</text>
<polygon fill="#ffffff" stroke="transparent" points="197.5,-365.2588 197.5,-384.2588 248.5,-384.2588 248.5,-365.2588 197.5,-365.2588"/>
<polygon fill="none" stroke="#000000" points="197.5,-365.2588 197.5,-384.2588 248.5,-384.2588 248.5,-365.2588 197.5,-365.2588"/>
<text text-anchor="start" x="200.5" y="-371.3588" font-family="Helvetica,sans-Serif" font-size="11.00" fill="#000000">&lt; 2</text>
<polygon fill="#ffffff" stroke="transparent" points="248.5,-365.2588 248.5,-384.2588 275.5,-384.2588 275.5,-365.2588 248.5,-365.2588"/>
<polygon fill="none" stroke="#000000" points="248.5,-365.2588 248.5,-384.2588 275.5,-384.2588 275.5,-365.2588 248.5,-365.2588"/>
<text text-anchor="start" x="266.3862" y="-371.3588" font-family="Helvetica,sans-Serif" font-size="11.00" fill="#000000"> &#160;</text>
<polygon fill="#ffffff" stroke="transparent" points="275.5,-365.2588 275.5,-384.2588 312.5,-384.2588 312.5,-365.2588 275.5,-365.2588"/>
<polygon fill="none" stroke="#000000" points="275.5,-365.2588 275.5,-384.2588 312.5,-384.2588 312.5,-365.2588 275.5,-365.2588"/>
<text text-anchor="start" x="293.9053" y="-371.3588" font-family="Helvetica,sans-Serif" font-size="11.00" fill="#000000">2 &gt;</text>
</a>
</g>
</g>
<!-- referral&#45;&gt;csip_record -->
<g id="edge14" class="edge">
<title>referral:w&#45;&gt;csip_record:e</title>
<path fill="none" stroke="#000000" d="M350.9994,-383.1966C337.0333,-385.8567 330.8092,-393.2588 312.5,-393.2588"/>
<polygon fill="#000000" stroke="#000000" points="360.3473,-378.3458 361.059,-386.3141 359.4654,-386.4564 358.7536,-378.4881 360.3473,-378.3458"/>
<polyline fill="none" stroke="#000000" points="361.5,-382.2588 357.5159,-382.6146 "/>
<ellipse fill="none" stroke="#000000" cx="354.3285" cy="-382.8993" rx="3.2" ry="3.2"/>
</g>
<!-- csip_record&#45;&gt;reference_data -->
<g id="edge3" class="edge">
<title>csip_record:w&#45;&gt;reference_data:e</title>
<path fill="none" stroke="#000000" d="M183.4869,-389.7968C151.9156,-370.1216 199.8333,-273.2588 148,-273.2588"/>
<polygon fill="#000000" stroke="#000000" points="189.7335,-391.34 196.6366,-396.7537 193.6168,-392.2994 197.5,-393.2588 197.5,-393.2588 197.5,-393.2588 193.6168,-392.2994 198.3634,-389.7638 189.7335,-391.34 189.7335,-391.34"/>
<ellipse fill="none" stroke="#000000" cx="186.6269" cy="-390.5725" rx="3.2" ry="3.2"/>
</g>
<!-- decision_and_actions -->
<g id="node5" class="node">
<title>decision_and_actions</title>
<g id="a_node5"><a xlink:href="../../tables/decision_and_actions.html" xlink:title="decision_and_actions" target="_top">
<polygon fill="#ffffff" stroke="transparent" points="733,-165.7588 733,-226.7588 914,-226.7588 914,-165.7588 733,-165.7588"/>
<polygon fill="#f5f5f5" stroke="transparent" points="733.5,-203.2588 733.5,-226.2588 914.5,-226.2588 914.5,-203.2588 733.5,-203.2588"/>
<polygon fill="none" stroke="#000000" points="733.5,-203.2588 733.5,-226.2588 914.5,-226.2588 914.5,-203.2588 733.5,-203.2588"/>
<text text-anchor="start" x="738.5" y="-211.8588" font-family="Helvetica,sans-Serif" font-weight="bold" font-size="11.00" fill="#000000">decision_and_actions</text>
<text text-anchor="start" x="880.0219" y="-211.3588" font-family="Helvetica,sans-Serif" font-size="11.00" fill="#000000">[table]</text>
<polygon fill="none" stroke="#000000" points="733.5,-184.2588 733.5,-203.2588 914.5,-203.2588 914.5,-184.2588 733.5,-184.2588"/>
<text text-anchor="start" x="736.5" y="-190.3588" font-family="Helvetica,sans-Serif" font-size="11.00" fill="#000000">...</text>
<polygon fill="#ffffff" stroke="transparent" points="733.5,-165.2588 733.5,-184.2588 822.5,-184.2588 822.5,-165.2588 733.5,-165.2588"/>
<polygon fill="none" stroke="#000000" points="733.5,-165.2588 733.5,-184.2588 822.5,-184.2588 822.5,-165.2588 733.5,-165.2588"/>
<text text-anchor="start" x="736.5" y="-171.3588" font-family="Helvetica,sans-Serif" font-size="11.00" fill="#000000">&lt; 3</text>
<polygon fill="#ffffff" stroke="transparent" points="822.5,-165.2588 822.5,-184.2588 868.5,-184.2588 868.5,-165.2588 822.5,-165.2588"/>
<polygon fill="none" stroke="#000000" points="822.5,-165.2588 822.5,-184.2588 868.5,-184.2588 868.5,-165.2588 822.5,-165.2588"/>
<text text-anchor="start" x="859.3862" y="-171.3588" font-family="Helvetica,sans-Serif" font-size="11.00" fill="#000000"> &#160;</text>
<polygon fill="#ffffff" stroke="transparent" points="868.5,-165.2588 868.5,-184.2588 914.5,-184.2588 914.5,-165.2588 868.5,-165.2588"/>
<polygon fill="none" stroke="#000000" points="868.5,-165.2588 868.5,-184.2588 914.5,-184.2588 914.5,-165.2588 868.5,-165.2588"/>
<text text-anchor="start" x="905.3862" y="-171.3588" font-family="Helvetica,sans-Serif" font-size="11.00" fill="#000000"> &#160;</text>
</a>
</g>
</g>
<!-- decision_and_actions&#45;&gt;reference_data -->
<g id="edge5" class="edge">
<title>decision_and_actions:w&#45;&gt;reference_data:e</title>
<path fill="none" stroke="#000000" d="M718.9322,-193.2382C561.4595,-192.797 515.0518,-185.6712 353,-213.2588 306.2065,-221.2248 195.4667,-273.2588 148,-273.2588"/>
<polygon fill="#000000" stroke="#000000" points="725.5,-193.2474 733.4949,-196.8588 729.5,-193.2531 733.5,-193.2588 733.5,-193.2588 733.5,-193.2588 729.5,-193.2531 733.5051,-189.6588 725.5,-193.2474 725.5,-193.2474"/>
<ellipse fill="none" stroke="#000000" cx="722.3" cy="-193.2429" rx="3.2" ry="3.2"/>
</g>
<!-- decision_and_actions&#45;&gt;reference_data -->
<g id="edge6" class="edge">
<title>decision_and_actions:w&#45;&gt;reference_data:e</title>
<path fill="none" stroke="#000000" d="M718.9242,-193.2499C561.3746,-193.063 515.2536,-190.2699 353,-217.2588 306.4154,-225.0075 195.2247,-273.2588 148,-273.2588"/>
<polygon fill="#000000" stroke="#000000" points="725.5,-193.2538 733.4978,-196.8588 729.5,-193.2563 733.5,-193.2588 733.5,-193.2588 733.5,-193.2588 729.5,-193.2563 733.5022,-189.6588 725.5,-193.2538 725.5,-193.2538"/>
<ellipse fill="none" stroke="#000000" cx="722.3" cy="-193.2518" rx="3.2" ry="3.2"/>
</g>
<!-- decision_and_actions&#45;&gt;referral -->
<g id="edge4" class="edge">
<title>decision_and_actions:w&#45;&gt;referral:e</title>
<path fill="none" stroke="#000000" d="M722.7992,-193.9029C697.1708,-197.2422 688.3989,-213.3896 671,-238.2588 632.8884,-292.7336 696.9831,-382.2588 630.5,-382.2588"/>
<polygon fill="#000000" stroke="#000000" points="732.4611,-189.3141 732.9418,-197.2996 731.3447,-197.3958 730.8639,-189.4102 732.4611,-189.3141"/>
<polyline fill="none" stroke="#000000" points="733.5,-193.2588 729.5072,-193.4991 "/>
<ellipse fill="none" stroke="#000000" cx="726.313" cy="-193.6915" rx="3.2" ry="3.2"/>
</g>
<!-- interview -->
<g id="node6" class="node">
<title>interview</title>
<g id="a_node6"><a xlink:href="../../tables/interview.html" xlink:title="interview" target="_top">
<polygon fill="#ffffff" stroke="transparent" points="1017,-164.7588 1017,-313.7588 1169,-313.7588 1169,-164.7588 1017,-164.7588"/>
<polygon fill="#f5f5f5" stroke="transparent" points="1017,-290.2588 1017,-313.2588 1169,-313.2588 1169,-290.2588 1017,-290.2588"/>
<polygon fill="none" stroke="#000000" points="1017,-290.2588 1017,-313.2588 1169,-313.2588 1169,-290.2588 1017,-290.2588"/>
<text text-anchor="start" x="1022" y="-298.8588" font-family="Helvetica,sans-Serif" font-weight="bold" font-size="11.00" fill="#000000">interview</text>
<text text-anchor="start" x="1134.0437" y="-298.3588" font-family="Helvetica,sans-Serif" font-size="11.00" fill="#000000">[table]</text>
<polygon fill="none" stroke="#000000" points="1017,-268.2588 1017,-290.2588 1169,-290.2588 1169,-268.2588 1017,-268.2588"/>
<image xlink:href="../../images/primaryKeys.png" width="11px" height="12px" preserveAspectRatio="xMinYMin meet" x="1022" y="-285.259"/>
<text text-anchor="start" x="1037" y="-275.3588" font-family="Helvetica,sans-Serif" font-size="11.00" fill="#000000">interview_id</text>
<polygon fill="#ffffff" stroke="transparent" points="1017,-246.2588 1017,-268.2588 1169,-268.2588 1169,-246.2588 1017,-246.2588"/>
<polygon fill="none" stroke="#000000" points="1017,-246.2588 1017,-268.2588 1169,-268.2588 1169,-246.2588 1017,-246.2588"/>
<image xlink:href="../../images/foreignKeys.png" width="11px" height="12px" preserveAspectRatio="xMinYMin meet" x="1022" y="-263.259"/>
<text text-anchor="start" x="1037" y="-253.3588" font-family="Helvetica,sans-Serif" font-size="11.00" fill="#000000">investigation_id</text>
<polygon fill="#ffffff" stroke="transparent" points="1017,-224.2588 1017,-246.2588 1169,-246.2588 1169,-224.2588 1017,-224.2588"/>
<polygon fill="none" stroke="#000000" points="1017,-224.2588 1017,-246.2588 1169,-246.2588 1169,-224.2588 1017,-224.2588"/>
<image xlink:href="../../images/foreignKeys.png" width="11px" height="12px" preserveAspectRatio="xMinYMin meet" x="1022" y="-241.259"/>
<text text-anchor="start" x="1037" y="-231.3588" font-family="Helvetica,sans-Serif" font-size="11.00" fill="#000000">interviewee_role_id</text>
<polygon fill="#ffffff" stroke="transparent" points="1017,-202.2588 1017,-224.2588 1169,-224.2588 1169,-202.2588 1017,-202.2588"/>
<polygon fill="none" stroke="#000000" points="1017,-202.2588 1017,-224.2588 1169,-224.2588 1169,-202.2588 1017,-202.2588"/>
<image xlink:href="../../images/foreignKeys.png" width="11px" height="12px" preserveAspectRatio="xMinYMin meet" x="1022" y="-219.259"/>
<text text-anchor="start" x="1037" y="-209.3588" font-family="Helvetica,sans-Serif" font-size="11.00" fill="#000000">legacy_id</text>
<polygon fill="none" stroke="#000000" points="1017,-183.2588 1017,-202.2588 1169,-202.2588 1169,-183.2588 1017,-183.2588"/>
<text text-anchor="start" x="1020" y="-189.3588" font-family="Helvetica,sans-Serif" font-size="11.00" fill="#000000">...</text>
<polygon fill="#ffffff" stroke="transparent" points="1017,-164.2588 1017,-183.2588 1091,-183.2588 1091,-164.2588 1017,-164.2588"/>
<polygon fill="none" stroke="#000000" points="1017,-164.2588 1017,-183.2588 1091,-183.2588 1091,-164.2588 1017,-164.2588"/>
<text text-anchor="start" x="1020" y="-170.3588" font-family="Helvetica,sans-Serif" font-size="11.00" fill="#000000">&lt; 2</text>
<polygon fill="#ffffff" stroke="transparent" points="1091,-164.2588 1091,-183.2588 1130,-183.2588 1130,-164.2588 1091,-164.2588"/>
<polygon fill="none" stroke="#000000" points="1091,-164.2588 1091,-183.2588 1130,-183.2588 1130,-164.2588 1091,-164.2588"/>
<text text-anchor="start" x="1120.8862" y="-170.3588" font-family="Helvetica,sans-Serif" font-size="11.00" fill="#000000"> &#160;</text>
<polygon fill="#ffffff" stroke="transparent" points="1130,-164.2588 1130,-183.2588 1169,-183.2588 1169,-164.2588 1130,-164.2588"/>
<polygon fill="none" stroke="#000000" points="1130,-164.2588 1130,-183.2588 1169,-183.2588 1169,-164.2588 1130,-164.2588"/>
<text text-anchor="start" x="1159.8862" y="-170.3588" font-family="Helvetica,sans-Serif" font-size="11.00" fill="#000000"> &#160;</text>
</a>
</g>
</g>
<!-- interview&#45;&gt;reference_data -->
<g id="edge7" class="edge">
<title>interview:w&#45;&gt;reference_data:e</title>
<path fill="none" stroke="#000000" d="M1002.4842,-233.217C956.1671,-217.5065 1030.0278,-115.3163 976,-73.2588 869.0334,10.0086 806.352,-65.8326 671,-73.2588 454.1733,-85.1551 347.1936,-4.4967 189,-153.2588 147.942,-191.8688 204.3604,-273.2588 148,-273.2588"/>
<polygon fill="#000000" stroke="#000000" points="1009.078,-234.1444 1016.4986,-238.8237 1013.039,-234.7016 1017,-235.2588 1017,-235.2588 1017,-235.2588 1013.039,-234.7016 1017.5014,-231.6938 1009.078,-234.1444 1009.078,-234.1444"/>
<ellipse fill="none" stroke="#000000" cx="1005.9092" cy="-233.6987" rx="3.2" ry="3.2"/>
</g>
<!-- investigation -->
<g id="node7" class="node">
<title>investigation</title>
<g id="a_node7"><a xlink:href="../../tables/investigation.html" xlink:title="investigation" target="_top">
<polygon fill="#ffffff" stroke="transparent" points="679,-248.2588 679,-470.2588 968,-470.2588 968,-248.2588 679,-248.2588"/>
<polygon fill="#f5f5f5" stroke="transparent" points="681.5,-445.2588 681.5,-468.2588 966.5,-468.2588 966.5,-445.2588 681.5,-445.2588"/>
<polygon fill="none" stroke="#000000" points="681.5,-445.2588 681.5,-468.2588 966.5,-468.2588 966.5,-445.2588 681.5,-445.2588"/>
<text text-anchor="start" x="686.5" y="-453.8588" font-family="Helvetica,sans-Serif" font-weight="bold" font-size="11.00" fill="#000000">investigation</text>
<text text-anchor="start" x="931.5437" y="-453.3588" font-family="Helvetica,sans-Serif" font-size="11.00" fill="#000000">[table]</text>
<polygon fill="none" stroke="#000000" points="681.5,-423.2588 681.5,-445.2588 872.5,-445.2588 872.5,-423.2588 681.5,-423.2588"/>
<image xlink:href="../../images/primaryKeys.png" width="11px" height="12px" preserveAspectRatio="xMinYMin meet" x="686.5" y="-440.259"/>
<text text-anchor="start" x="701.5" y="-430.3588" font-family="Helvetica,sans-Serif" font-size="11.00" fill="#000000">investigation_id</text>
<polygon fill="none" stroke="#000000" points="872.5,-423.2588 872.5,-445.2588 966.5,-445.2588 966.5,-423.2588 872.5,-423.2588"/>
<text text-anchor="start" x="875.4758" y="-430.9588" font-family="Helvetica,sans-Serif" font-size="11.00" fill="#000000">uuid[2147483647]</text>
<polygon fill="none" stroke="#000000" points="681.5,-401.2588 681.5,-423.2588 872.5,-423.2588 872.5,-401.2588 681.5,-401.2588"/>
<text text-anchor="start" x="701.5" y="-408.3588" font-family="Helvetica,sans-Serif" font-size="11.00" fill="#000000">staff_involved</text>
<polygon fill="none" stroke="#000000" points="872.5,-401.2588 872.5,-423.2588 966.5,-423.2588 966.5,-401.2588 872.5,-401.2588"/>
<text text-anchor="start" x="875.5" y="-408.9588" font-family="Helvetica,sans-Serif" font-size="11.00" fill="#000000">text[2147483647]</text>
<polygon fill="none" stroke="#000000" points="681.5,-379.2588 681.5,-401.2588 872.5,-401.2588 872.5,-379.2588 681.5,-379.2588"/>
<text text-anchor="start" x="701.5" y="-386.3588" font-family="Helvetica,sans-Serif" font-size="11.00" fill="#000000">evidence_secured</text>
<polygon fill="none" stroke="#000000" points="872.5,-379.2588 872.5,-401.2588 966.5,-401.2588 966.5,-379.2588 872.5,-379.2588"/>
<text text-anchor="start" x="875.5" y="-386.9588" font-family="Helvetica,sans-Serif" font-size="11.00" fill="#000000">text[2147483647]</text>
<polygon fill="none" stroke="#000000" points="681.5,-357.2588 681.5,-379.2588 872.5,-379.2588 872.5,-357.2588 681.5,-357.2588"/>
<text text-anchor="start" x="701.5" y="-364.3588" font-family="Helvetica,sans-Serif" font-size="11.00" fill="#000000">occurrence_reason</text>
<polygon fill="none" stroke="#000000" points="872.5,-357.2588 872.5,-379.2588 966.5,-379.2588 966.5,-357.2588 872.5,-357.2588"/>
<text text-anchor="start" x="875.5" y="-364.9588" font-family="Helvetica,sans-Serif" font-size="11.00" fill="#000000">text[2147483647]</text>
<polygon fill="none" stroke="#000000" points="681.5,-335.2588 681.5,-357.2588 872.5,-357.2588 872.5,-335.2588 681.5,-335.2588"/>
<text text-anchor="start" x="701.5" y="-342.3588" font-family="Helvetica,sans-Serif" font-size="11.00" fill="#000000">persons_usual_behaviour</text>
<polygon fill="none" stroke="#000000" points="872.5,-335.2588 872.5,-357.2588 966.5,-357.2588 966.5,-335.2588 872.5,-335.2588"/>
<text text-anchor="start" x="875.5" y="-342.9588" font-family="Helvetica,sans-Serif" font-size="11.00" fill="#000000">text[2147483647]</text>
<polygon fill="none" stroke="#000000" points="681.5,-313.2588 681.5,-335.2588 872.5,-335.2588 872.5,-313.2588 681.5,-313.2588"/>
<text text-anchor="start" x="701.5" y="-320.3588" font-family="Helvetica,sans-Serif" font-size="11.00" fill="#000000">persons_trigger</text>
<polygon fill="none" stroke="#000000" points="872.5,-313.2588 872.5,-335.2588 966.5,-335.2588 966.5,-313.2588 872.5,-313.2588"/>
<text text-anchor="start" x="875.5" y="-320.9588" font-family="Helvetica,sans-Serif" font-size="11.00" fill="#000000">text[2147483647]</text>
<polygon fill="none" stroke="#000000" points="681.5,-291.2588 681.5,-313.2588 872.5,-313.2588 872.5,-291.2588 681.5,-291.2588"/>
<text text-anchor="start" x="701.5" y="-298.3588" font-family="Helvetica,sans-Serif" font-size="11.00" fill="#000000">protective_factors</text>
<polygon fill="none" stroke="#000000" points="872.5,-291.2588 872.5,-313.2588 966.5,-313.2588 966.5,-291.2588 872.5,-291.2588"/>
<text text-anchor="start" x="875.5" y="-298.9588" font-family="Helvetica,sans-Serif" font-size="11.00" fill="#000000">text[2147483647]</text>
<polygon fill="none" stroke="#000000" points="681.5,-269.2588 681.5,-291.2588 872.5,-291.2588 872.5,-269.2588 681.5,-269.2588"/>
<text text-anchor="start" x="701.5" y="-276.3588" font-family="Helvetica,sans-Serif" font-size="11.00" fill="#000000">version</text>
<polygon fill="none" stroke="#000000" points="872.5,-269.2588 872.5,-291.2588 966.5,-291.2588 966.5,-269.2588 872.5,-269.2588"/>
<text text-anchor="start" x="875.5" y="-276.9588" font-family="Helvetica,sans-Serif" font-size="11.00" fill="#000000">int4[10]</text>
<polygon fill="#ffffff" stroke="transparent" points="681.5,-250.2588 681.5,-269.2588 781.5,-269.2588 781.5,-250.2588 681.5,-250.2588"/>
<polygon fill="none" stroke="#000000" points="681.5,-250.2588 681.5,-269.2588 781.5,-269.2588 781.5,-250.2588 681.5,-250.2588"/>
<text text-anchor="start" x="684.5" y="-256.3588" font-family="Helvetica,sans-Serif" font-size="11.00" fill="#000000">&lt; 1</text>
<polygon fill="#ffffff" stroke="transparent" points="781.5,-250.2588 781.5,-269.2588 872.5,-269.2588 872.5,-250.2588 781.5,-250.2588"/>
<polygon fill="none" stroke="#000000" points="781.5,-250.2588 781.5,-269.2588 872.5,-269.2588 872.5,-250.2588 781.5,-250.2588"/>
<text text-anchor="start" x="863.3862" y="-256.3588" font-family="Helvetica,sans-Serif" font-size="11.00" fill="#000000"> &#160;</text>
<polygon fill="#ffffff" stroke="transparent" points="872.5,-250.2588 872.5,-269.2588 966.5,-269.2588 966.5,-250.2588 872.5,-250.2588"/>
<polygon fill="none" stroke="#000000" points="872.5,-250.2588 872.5,-269.2588 966.5,-269.2588 966.5,-250.2588 872.5,-250.2588"/>
<text text-anchor="start" x="947.9053" y="-256.3588" font-family="Helvetica,sans-Serif" font-size="11.00" fill="#000000">1 &gt;</text>
<polygon fill="none" stroke="#000000" stroke-width="2" points="680,-249.2588 680,-469.2588 967,-469.2588 967,-249.2588 680,-249.2588"/>
</a>
</g>
</g>
<!-- interview&#45;&gt;investigation -->
<g id="edge8" class="edge">
<title>interview:w&#45;&gt;investigation:e</title>
<path fill="none" stroke="#000000" d="M1002.4995,-259.7609C950.1368,-281.2743 1042.5539,-434.2588 966.5,-434.2588"/>
<polygon fill="#000000" stroke="#000000" points="1009.1165,-258.6191 1017.6122,-260.8063 1013.0583,-257.9389 1017,-257.2588 1017,-257.2588 1017,-257.2588 1013.0583,-257.9389 1016.3878,-253.7112 1009.1165,-258.6191 1009.1165,-258.6191"/>
<ellipse fill="none" stroke="#000000" cx="1005.9631" cy="-259.1633" rx="3.2" ry="3.2"/>
</g>
<!-- investigation&#45;&gt;referral -->
<g id="edge9" class="edge">
<title>investigation:w&#45;&gt;referral:e</title>
<path fill="none" stroke="#000000" d="M671.3422,-432.0244C651.8438,-422.0713 658.8249,-382.2588 630.5,-382.2588"/>
<polygon fill="#000000" stroke="#000000" points="681.578,-430.1803 679.8593,-437.9935 678.2967,-437.6498 680.0154,-429.8365 681.578,-430.1803"/>
<polyline fill="none" stroke="#000000" points="681.5,-434.2588 677.5934,-433.3994 "/>
<ellipse fill="none" stroke="#000000" cx="674.4681" cy="-432.7119" rx="3.2" ry="3.2"/>
</g>
<!-- safer_custody_screening_outcome -->
<g id="node8" class="node">
<title>safer_custody_screening_outcome</title>
<g id="a_node8"><a xlink:href="../../tables/safer_custody_screening_outcome.html" xlink:title="safer_custody_screening_outcome" target="_top">
<polygon fill="#ffffff" stroke="transparent" points="689,-83.7588 689,-144.7588 958,-144.7588 958,-83.7588 689,-83.7588"/>
<polygon fill="#f5f5f5" stroke="transparent" points="689.5,-121.2588 689.5,-144.2588 958.5,-144.2588 958.5,-121.2588 689.5,-121.2588"/>
<polygon fill="none" stroke="#000000" points="689.5,-121.2588 689.5,-144.2588 958.5,-144.2588 958.5,-121.2588 689.5,-121.2588"/>
<text text-anchor="start" x="694.5" y="-129.8588" font-family="Helvetica,sans-Serif" font-weight="bold" font-size="11.00" fill="#000000">safer_custody_screening_outcome</text>
<text text-anchor="start" x="924.0219" y="-129.3588" font-family="Helvetica,sans-Serif" font-size="11.00" fill="#000000">[table]</text>
<polygon fill="none" stroke="#000000" points="689.5,-102.2588 689.5,-121.2588 958.5,-121.2588 958.5,-102.2588 689.5,-102.2588"/>
<text text-anchor="start" x="692.5" y="-108.3588" font-family="Helvetica,sans-Serif" font-size="11.00" fill="#000000">...</text>
<polygon fill="#ffffff" stroke="transparent" points="689.5,-83.2588 689.5,-102.2588 822.5,-102.2588 822.5,-83.2588 689.5,-83.2588"/>
<polygon fill="none" stroke="#000000" points="689.5,-83.2588 689.5,-102.2588 822.5,-102.2588 822.5,-83.2588 689.5,-83.2588"/>
<text text-anchor="start" x="692.5" y="-89.3588" font-family="Helvetica,sans-Serif" font-size="11.00" fill="#000000">&lt; 2</text>
<polygon fill="#ffffff" stroke="transparent" points="822.5,-83.2588 822.5,-102.2588 890.5,-102.2588 890.5,-83.2588 822.5,-83.2588"/>
<polygon fill="none" stroke="#000000" points="822.5,-83.2588 822.5,-102.2588 890.5,-102.2588 890.5,-83.2588 822.5,-83.2588"/>
<text text-anchor="start" x="881.3862" y="-89.3588" font-family="Helvetica,sans-Serif" font-size="11.00" fill="#000000"> &#160;</text>
<polygon fill="#ffffff" stroke="transparent" points="890.5,-83.2588 890.5,-102.2588 958.5,-102.2588 958.5,-83.2588 890.5,-83.2588"/>
<polygon fill="none" stroke="#000000" points="890.5,-83.2588 890.5,-102.2588 958.5,-102.2588 958.5,-83.2588 890.5,-83.2588"/>
<text text-anchor="start" x="949.3862" y="-89.3588" font-family="Helvetica,sans-Serif" font-size="11.00" fill="#000000"> &#160;</text>
</a>
</g>
</g>
<!-- safer_custody_screening_outcome&#45;&gt;reference_data -->
<g id="edge15" class="edge">
<title>safer_custody_screening_outcome:w&#45;&gt;reference_data:e</title>
<path fill="none" stroke="#000000" d="M675.0177,-111.2473C458.1983,-110.9211 378.3762,-104.5932 189,-222.2588 164.2969,-237.6076 177.0831,-273.2588 148,-273.2588"/>
<polygon fill="#000000" stroke="#000000" points="681.5,-111.2524 689.4971,-114.8588 685.5,-111.2556 689.5,-111.2588 689.5,-111.2588 689.5,-111.2588 685.5,-111.2556 689.5029,-107.6588 681.5,-111.2524 681.5,-111.2524"/>
<ellipse fill="none" stroke="#000000" cx="678.3" cy="-111.2498" rx="3.2" ry="3.2"/>
</g>
<!-- safer_custody_screening_outcome&#45;&gt;referral -->
<g id="edge16" class="edge">
<title>safer_custody_screening_outcome:w&#45;&gt;referral:e</title>
<path fill="none" stroke="#000000" d="M679.3577,-114.3022C635.4085,-144.0752 688.2809,-382.2588 630.5,-382.2588"/>
<polygon fill="#000000" stroke="#000000" points="687.5841,-107.6575 689.8834,-115.3199 688.351,-115.7798 686.0516,-108.1173 687.5841,-107.6575"/>
<polyline fill="none" stroke="#000000" points="689.5,-111.2588 685.6688,-112.4084 "/>
<ellipse fill="none" stroke="#000000" cx="682.6038" cy="-113.3282" rx="3.2" ry="3.2"/>
</g>
</g>
</svg>
