<?xml version="1.0" encoding="UTF-8" standalone="no"?>
<!DOCTYPE svg PUBLIC "-//W3C//DTD SVG 1.1//EN"
 "http://www.w3.org/Graphics/SVG/1.1/DTD/svg11.dtd">
<!-- Generated by graphviz version 2.40.1 (20161225.0304)
 -->
<!-- Title: twoDegreesRelationshipsDiagram Pages: 1 -->
<svg width="1195pt" height="626pt"
 viewBox="0.00 0.00 1195.00 626.08" xmlns="http://www.w3.org/2000/svg" xmlns:xlink="http://www.w3.org/1999/xlink">
<g id="graph0" class="graph" transform="scale(1 1) rotate(0) translate(4 622.083)">
<title>twoDegreesRelationshipsDiagram</title>
<polygon fill="#ffffff" stroke="transparent" points="-4,4 -4,-622.083 1191,-622.083 1191,4 -4,4"/>
<text text-anchor="middle" x="72.4936" y="-7.3" font-family="Helvetica,sans-Serif" font-size="11.00" fill="#000000">Generated by SchemaSpy</text>
<!-- contributory_factor -->
<g id="node1" class="node">
<title>contributory_factor</title>
<g id="a_node1"><a xlink:href="../../tables/contributory_factor.html" xlink:title="contributory_factor" target="_top">
<polygon fill="#ffffff" stroke="transparent" points="744,-553.083 744,-614.083 913,-614.083 913,-553.083 744,-553.083"/>
<polygon fill="#f5f5f5" stroke="transparent" points="744.5,-590.583 744.5,-613.583 913.5,-613.583 913.5,-590.583 744.5,-590.583"/>
<polygon fill="none" stroke="#000000" points="744.5,-590.583 744.5,-613.583 913.5,-613.583 913.5,-590.583 744.5,-590.583"/>
<text text-anchor="start" x="749.5" y="-599.183" font-family="Helvetica,sans-Serif" font-weight="bold" font-size="11.00" fill="#000000">contributory_factor</text>
<text text-anchor="start" x="879.0219" y="-598.683" font-family="Helvetica,sans-Serif" font-size="11.00" fill="#000000">[table]</text>
<polygon fill="none" stroke="#000000" points="744.5,-571.583 744.5,-590.583 913.5,-590.583 913.5,-571.583 744.5,-571.583"/>
<text text-anchor="start" x="747.5" y="-577.683" font-family="Helvetica,sans-Serif" font-size="11.00" fill="#000000">...</text>
<polygon fill="#ffffff" stroke="transparent" points="744.5,-552.583 744.5,-571.583 827.5,-571.583 827.5,-552.583 744.5,-552.583"/>
<polygon fill="none" stroke="#000000" points="744.5,-552.583 744.5,-571.583 827.5,-571.583 827.5,-552.583 744.5,-552.583"/>
<text text-anchor="start" x="747.5" y="-558.683" font-family="Helvetica,sans-Serif" font-size="11.00" fill="#000000">&lt; 2</text>
<polygon fill="#ffffff" stroke="transparent" points="827.5,-552.583 827.5,-571.583 870.5,-571.583 870.5,-552.583 827.5,-552.583"/>
<polygon fill="none" stroke="#000000" points="827.5,-552.583 827.5,-571.583 870.5,-571.583 870.5,-552.583 827.5,-552.583"/>
<text text-anchor="start" x="861.3862" y="-558.683" font-family="Helvetica,sans-Serif" font-size="11.00" fill="#000000"> &#160;</text>
<polygon fill="#ffffff" stroke="transparent" points="870.5,-552.583 870.5,-571.583 913.5,-571.583 913.5,-552.583 870.5,-552.583"/>
<polygon fill="none" stroke="#000000" points="870.5,-552.583 870.5,-571.583 913.5,-571.583 913.5,-552.583 870.5,-552.583"/>
<text text-anchor="start" x="904.3862" y="-558.683" font-family="Helvetica,sans-Serif" font-size="11.00" fill="#000000"> &#160;</text>
</a>
</g>
</g>
<!-- reference_data -->
<g id="node2" class="node">
<title>reference_data</title>
<g id="a_node2"><a xlink:href="../../tables/reference_data.html" xlink:title="reference_data" target="_top">
<polygon fill="#ffffff" stroke="transparent" points="8,-263.083 8,-324.083 148,-324.083 148,-263.083 8,-263.083"/>
<polygon fill="#f5f5f5" stroke="transparent" points="8,-300.583 8,-323.583 148,-323.583 148,-300.583 8,-300.583"/>
<polygon fill="none" stroke="#000000" points="8,-300.583 8,-323.583 148,-323.583 148,-300.583 8,-300.583"/>
<text text-anchor="start" x="13" y="-309.183" font-family="Helvetica,sans-Serif" font-weight="bold" font-size="11.00" fill="#000000">reference_data</text>
<text text-anchor="start" x="113.5219" y="-308.683" font-family="Helvetica,sans-Serif" font-size="11.00" fill="#000000">[table]</text>
<polygon fill="none" stroke="#000000" points="8,-281.583 8,-300.583 148,-300.583 148,-281.583 8,-281.583"/>
<text text-anchor="start" x="11" y="-287.683" font-family="Helvetica,sans-Serif" font-size="11.00" fill="#000000">...</text>
<polygon fill="#ffffff" stroke="transparent" points="8,-262.583 8,-281.583 45,-281.583 45,-262.583 8,-262.583"/>
<polygon fill="none" stroke="#000000" points="8,-262.583 8,-281.583 45,-281.583 45,-262.583 8,-262.583"/>
<text text-anchor="start" x="11" y="-268.683" font-family="Helvetica,sans-Serif" font-size="11.00" fill="#000000"> &#160;</text>
<polygon fill="#ffffff" stroke="transparent" points="45,-262.583 45,-281.583 108,-281.583 108,-262.583 45,-262.583"/>
<polygon fill="none" stroke="#000000" points="45,-262.583 45,-281.583 108,-281.583 108,-262.583 45,-262.583"/>
<text text-anchor="start" x="60.3807" y="-268.683" font-family="Helvetica,sans-Serif" font-size="11.00" fill="#000000">122 rows</text>
<polygon fill="#ffffff" stroke="transparent" points="108,-262.583 108,-281.583 148,-281.583 148,-262.583 108,-262.583"/>
<polygon fill="none" stroke="#000000" points="108,-262.583 108,-281.583 148,-281.583 148,-262.583 108,-262.583"/>
<text text-anchor="start" x="123.2904" y="-268.683" font-family="Helvetica,sans-Serif" font-size="11.00" fill="#000000">10 &gt;</text>
</a>
</g>
</g>
<!-- contributory_factor&#45;&gt;reference_data -->
<g id="edge1" class="edge">
<title>contributory_factor:w&#45;&gt;reference_data:e</title>
<path fill="none" stroke="#000000" d="M729.8158,-580.6393C486.5757,-582.4896 366.429,-628.163 189,-454.583 135.2942,-402.0423 223.1321,-290.583 148,-290.583"/>
<polygon fill="#000000" stroke="#000000" points="736.5001,-580.6137 744.5138,-584.183 740.5,-580.5984 744.5,-580.583 744.5,-580.583 744.5,-580.583 740.5,-580.5984 744.4862,-576.983 736.5001,-580.6137 736.5001,-580.6137"/>
<ellipse fill="none" stroke="#000000" cx="733.3001" cy="-580.626" rx="3.2" ry="3.2"/>
</g>
<!-- referral -->
<g id="node3" class="node">
<title>referral</title>
<g id="a_node3"><a xlink:href="../../tables/referral.html" xlink:title="referral" target="_top">
<polygon fill="#ffffff" stroke="transparent" points="361,-241.083 361,-434.083 630,-434.083 630,-241.083 361,-241.083"/>
<polygon fill="#f5f5f5" stroke="transparent" points="361.5,-410.583 361.5,-433.583 630.5,-433.583 630.5,-410.583 361.5,-410.583"/>
<polygon fill="none" stroke="#000000" points="361.5,-410.583 361.5,-433.583 630.5,-433.583 630.5,-410.583 361.5,-410.583"/>
<text text-anchor="start" x="366.5" y="-419.183" font-family="Helvetica,sans-Serif" font-weight="bold" font-size="11.00" fill="#000000">referral</text>
<text text-anchor="start" x="595.5437" y="-418.683" font-family="Helvetica,sans-Serif" font-size="11.00" fill="#000000">[table]</text>
<polygon fill="none" stroke="#000000" points="361.5,-388.583 361.5,-410.583 630.5,-410.583 630.5,-388.583 361.5,-388.583"/>
<image xlink:href="../../images/primaryKeys.png" width="11px" height="12px" preserveAspectRatio="xMinYMin meet" x="366.5" y="-405.583"/>
<text text-anchor="start" x="381.5" y="-395.683" font-family="Helvetica,sans-Serif" font-size="11.00" fill="#000000">referral_id</text>
<polygon fill="#ffffff" stroke="transparent" points="361.5,-366.583 361.5,-388.583 630.5,-388.583 630.5,-366.583 361.5,-366.583"/>
<polygon fill="none" stroke="#000000" points="361.5,-366.583 361.5,-388.583 630.5,-388.583 630.5,-366.583 361.5,-366.583"/>
<image xlink:href="../../images/foreignKeys.png" width="11px" height="12px" preserveAspectRatio="xMinYMin meet" x="366.5" y="-383.583"/>
<text text-anchor="start" x="381.5" y="-373.683" font-family="Helvetica,sans-Serif" font-size="11.00" fill="#000000">incident_type_id</text>
<polygon fill="#ffffff" stroke="transparent" points="361.5,-344.583 361.5,-366.583 630.5,-366.583 630.5,-344.583 361.5,-344.583"/>
<polygon fill="none" stroke="#000000" points="361.5,-344.583 361.5,-366.583 630.5,-366.583 630.5,-344.583 361.5,-344.583"/>
<image xlink:href="../../images/foreignKeys.png" width="11px" height="12px" preserveAspectRatio="xMinYMin meet" x="366.5" y="-361.583"/>
<text text-anchor="start" x="381.5" y="-351.683" font-family="Helvetica,sans-Serif" font-size="11.00" fill="#000000">incident_location_id</text>
<polygon fill="#ffffff" stroke="transparent" points="361.5,-322.583 361.5,-344.583 630.5,-344.583 630.5,-322.583 361.5,-322.583"/>
<polygon fill="none" stroke="#000000" points="361.5,-322.583 361.5,-344.583 630.5,-344.583 630.5,-322.583 361.5,-322.583"/>
<image xlink:href="../../images/foreignKeys.png" width="11px" height="12px" preserveAspectRatio="xMinYMin meet" x="366.5" y="-339.583"/>
<text text-anchor="start" x="381.5" y="-329.683" font-family="Helvetica,sans-Serif" font-size="11.00" fill="#000000">referer_area_of_work_id</text>
<polygon fill="#ffffff" stroke="transparent" points="361.5,-300.583 361.5,-322.583 630.5,-322.583 630.5,-300.583 361.5,-300.583"/>
<polygon fill="none" stroke="#000000" points="361.5,-300.583 361.5,-322.583 630.5,-322.583 630.5,-300.583 361.5,-300.583"/>
<text text-anchor="start" x="381.5" y="-307.683" font-family="Helvetica,sans-Serif" font-size="11.00" fill="#000000">referral_date</text>
<polygon fill="#ffffff" stroke="transparent" points="361.5,-278.583 361.5,-300.583 630.5,-300.583 630.5,-278.583 361.5,-278.583"/>
<polygon fill="none" stroke="#000000" points="361.5,-278.583 361.5,-300.583 630.5,-300.583 630.5,-278.583 361.5,-278.583"/>
<image xlink:href="../../images/foreignKeys.png" width="11px" height="12px" preserveAspectRatio="xMinYMin meet" x="366.5" y="-295.583"/>
<text text-anchor="start" x="381.5" y="-285.683" font-family="Helvetica,sans-Serif" font-size="11.00" fill="#000000">incident_involvement_id</text>
<polygon fill="none" stroke="#000000" points="361.5,-259.583 361.5,-278.583 630.5,-278.583 630.5,-259.583 361.5,-259.583"/>
<text text-anchor="start" x="364.5" y="-265.683" font-family="Helvetica,sans-Serif" font-size="11.00" fill="#000000">...</text>
<polygon fill="#ffffff" stroke="transparent" points="361.5,-240.583 361.5,-259.583 489.5,-259.583 489.5,-240.583 361.5,-240.583"/>
<polygon fill="none" stroke="#000000" points="361.5,-240.583 361.5,-259.583 489.5,-259.583 489.5,-240.583 361.5,-240.583"/>
<text text-anchor="start" x="364.5" y="-246.683" font-family="Helvetica,sans-Serif" font-size="11.00" fill="#000000">&lt; 5</text>
<polygon fill="#ffffff" stroke="transparent" points="489.5,-240.583 489.5,-259.583 555.5,-259.583 555.5,-240.583 489.5,-240.583"/>
<polygon fill="none" stroke="#000000" points="489.5,-240.583 489.5,-259.583 555.5,-259.583 555.5,-240.583 489.5,-240.583"/>
<text text-anchor="start" x="546.3862" y="-246.683" font-family="Helvetica,sans-Serif" font-size="11.00" fill="#000000"> &#160;</text>
<polygon fill="#ffffff" stroke="transparent" points="555.5,-240.583 555.5,-259.583 630.5,-259.583 630.5,-240.583 555.5,-240.583"/>
<polygon fill="none" stroke="#000000" points="555.5,-240.583 555.5,-259.583 630.5,-259.583 630.5,-240.583 555.5,-240.583"/>
<text text-anchor="start" x="611.9053" y="-246.683" font-family="Helvetica,sans-Serif" font-size="11.00" fill="#000000">4 &gt;</text>
</a>
</g>
</g>
<!-- contributory_factor&#45;&gt;referral -->
<g id="edge2" class="edge">
<title>contributory_factor:w&#45;&gt;referral:e</title>
<path fill="none" stroke="#000000" d="M729.9157,-579.9581C703.6289,-577.4358 690.8988,-566.9493 671,-542.583 629.2182,-491.4206 696.5553,-399.583 630.5,-399.583"/>
<polygon fill="#000000" stroke="#000000" points="736.5073,-580.2405 744.3459,-584.1797 740.5037,-580.4117 744.5,-580.583 744.5,-580.583 744.5,-580.583 740.5037,-580.4117 744.6541,-576.9863 736.5073,-580.2405 736.5073,-580.2405"/>
<ellipse fill="none" stroke="#000000" cx="733.3103" cy="-580.1034" rx="3.2" ry="3.2"/>
</g>
<!-- referral&#45;&gt;reference_data -->
<g id="edge10" class="edge">
<title>referral:w&#45;&gt;reference_data:e</title>
<path fill="none" stroke="#000000" d="M347.061,-289.591C263.9104,-289.6857 237.886,-290.583 148,-290.583"/>
<polygon fill="#000000" stroke="#000000" points="353.5,-289.5875 361.502,-293.183 357.5,-289.5852 361.5,-289.583 361.5,-289.583 361.5,-289.583 357.5,-289.5852 361.498,-285.983 353.5,-289.5875 353.5,-289.5875"/>
<ellipse fill="none" stroke="#000000" cx="350.3" cy="-289.5893" rx="3.2" ry="3.2"/>
</g>
<!-- referral&#45;&gt;reference_data -->
<g id="edge11" class="edge">
<title>referral:w&#45;&gt;reference_data:e</title>
<path fill="none" stroke="#000000" d="M347.0198,-353.7526C306.2656,-346.6352 204.7132,-320.8859 189,-314.583 169.4031,-306.7223 169.1146,-290.583 148,-290.583"/>
<polygon fill="#000000" stroke="#000000" points="353.5632,-354.5797 361.0485,-359.1546 357.5316,-355.0813 361.5,-355.583 361.5,-355.583 361.5,-355.583 357.5316,-355.0813 361.9515,-352.0114 353.5632,-354.5797 353.5632,-354.5797"/>
<ellipse fill="none" stroke="#000000" cx="350.3884" cy="-354.1783" rx="3.2" ry="3.2"/>
</g>
<!-- referral&#45;&gt;reference_data -->
<g id="edge12" class="edge">
<title>referral:w&#45;&gt;reference_data:e</title>
<path fill="none" stroke="#000000" d="M346.9714,-376.1141C305.9637,-370.3753 203.3824,-349.3542 189,-340.583 164.4646,-325.62 176.7381,-290.583 148,-290.583"/>
<polygon fill="#000000" stroke="#000000" points="353.5406,-376.7782 361.1378,-381.1647 357.5203,-377.1806 361.5,-377.583 361.5,-377.583 361.5,-377.583 357.5203,-377.1806 361.8622,-374.0012 353.5406,-376.7782 353.5406,-376.7782"/>
<ellipse fill="none" stroke="#000000" cx="350.3568" cy="-376.4563" rx="3.2" ry="3.2"/>
</g>
<!-- referral&#45;&gt;reference_data -->
<g id="edge13" class="edge">
<title>referral:w&#45;&gt;reference_data:e</title>
<path fill="none" stroke="#000000" d="M347.1503,-330.6521C338.538,-326.6131 333.4469,-319.4031 320,-315.583 301.4231,-310.3056 167.3119,-290.583 148,-290.583"/>
<polygon fill="#000000" stroke="#000000" points="353.6618,-331.982 360.7796,-337.1102 357.5809,-332.7825 361.5,-333.583 361.5,-333.583 361.5,-333.583 357.5809,-332.7825 362.2204,-330.0558 353.6618,-331.982 353.6618,-331.982"/>
<ellipse fill="none" stroke="#000000" cx="350.5265" cy="-331.3416" rx="3.2" ry="3.2"/>
</g>
<!-- csip_record -->
<g id="node4" class="node">
<title>csip_record</title>
<g id="a_node4"><a xlink:href="../../tables/csip_record.html" xlink:title="csip_record" target="_top">
<polygon fill="#ffffff" stroke="transparent" points="197,-383.083 197,-444.083 312,-444.083 312,-383.083 197,-383.083"/>
<polygon fill="#f5f5f5" stroke="transparent" points="197.5,-420.583 197.5,-443.583 312.5,-443.583 312.5,-420.583 197.5,-420.583"/>
<polygon fill="none" stroke="#000000" points="197.5,-420.583 197.5,-443.583 312.5,-443.583 312.5,-420.583 197.5,-420.583"/>
<text text-anchor="start" x="202.5" y="-429.183" font-family="Helvetica,sans-Serif" font-weight="bold" font-size="11.00" fill="#000000">csip_record</text>
<text text-anchor="start" x="278.0219" y="-428.683" font-family="Helvetica,sans-Serif" font-size="11.00" fill="#000000">[table]</text>
<polygon fill="none" stroke="#000000" points="197.5,-401.583 197.5,-420.583 312.5,-420.583 312.5,-401.583 197.5,-401.583"/>
<text text-anchor="start" x="200.5" y="-407.683" font-family="Helvetica,sans-Serif" font-size="11.00" fill="#000000">...</text>
<polygon fill="#ffffff" stroke="transparent" points="197.5,-382.583 197.5,-401.583 248.5,-401.583 248.5,-382.583 197.5,-382.583"/>
<polygon fill="none" stroke="#000000" points="197.5,-382.583 197.5,-401.583 248.5,-401.583 248.5,-382.583 197.5,-382.583"/>
<text text-anchor="start" x="200.5" y="-388.683" font-family="Helvetica,sans-Serif" font-size="11.00" fill="#000000">&lt; 2</text>
<polygon fill="#ffffff" stroke="transparent" points="248.5,-382.583 248.5,-401.583 275.5,-401.583 275.5,-382.583 248.5,-382.583"/>
<polygon fill="none" stroke="#000000" points="248.5,-382.583 248.5,-401.583 275.5,-401.583 275.5,-382.583 248.5,-382.583"/>
<text text-anchor="start" x="266.3862" y="-388.683" font-family="Helvetica,sans-Serif" font-size="11.00" fill="#000000"> &#160;</text>
<polygon fill="#ffffff" stroke="transparent" points="275.5,-382.583 275.5,-401.583 312.5,-401.583 312.5,-382.583 275.5,-382.583"/>
<polygon fill="none" stroke="#000000" points="275.5,-382.583 275.5,-401.583 312.5,-401.583 312.5,-382.583 275.5,-382.583"/>
<text text-anchor="start" x="293.9053" y="-388.683" font-family="Helvetica,sans-Serif" font-size="11.00" fill="#000000">2 &gt;</text>
</a>
</g>
</g>
<!-- referral&#45;&gt;csip_record -->
<g id="edge14" class="edge">
<title>referral:w&#45;&gt;csip_record:e</title>
<path fill="none" stroke="#000000" d="M350.9994,-400.5208C337.0333,-403.181 330.8092,-410.583 312.5,-410.583"/>
<polygon fill="#000000" stroke="#000000" points="360.3473,-395.67 361.059,-403.6383 359.4654,-403.7807 358.7536,-395.8124 360.3473,-395.67"/>
<polyline fill="none" stroke="#000000" points="361.5,-399.583 357.5159,-399.9389 "/>
<ellipse fill="none" stroke="#000000" cx="354.3285" cy="-400.2236" rx="3.2" ry="3.2"/>
</g>
<!-- csip_record&#45;&gt;reference_data -->
<g id="edge3" class="edge">
<title>csip_record:w&#45;&gt;reference_data:e</title>
<path fill="none" stroke="#000000" d="M183.4869,-407.121C151.9156,-387.4458 199.8333,-290.583 148,-290.583"/>
<polygon fill="#000000" stroke="#000000" points="189.7335,-408.6642 196.6366,-414.0779 193.6168,-409.6236 197.5,-410.583 197.5,-410.583 197.5,-410.583 193.6168,-409.6236 198.3634,-407.0881 189.7335,-408.6642 189.7335,-408.6642"/>
<ellipse fill="none" stroke="#000000" cx="186.6269" cy="-407.8967" rx="3.2" ry="3.2"/>
</g>
<!-- decision_and_actions -->
<g id="node5" class="node">
<title>decision_and_actions</title>
<g id="a_node5"><a xlink:href="../../tables/decision_and_actions.html" xlink:title="decision_and_actions" target="_top">
<polygon fill="#ffffff" stroke="transparent" points="738,-183.083 738,-244.083 919,-244.083 919,-183.083 738,-183.083"/>
<polygon fill="#f5f5f5" stroke="transparent" points="738.5,-220.583 738.5,-243.583 919.5,-243.583 919.5,-220.583 738.5,-220.583"/>
<polygon fill="none" stroke="#000000" points="738.5,-220.583 738.5,-243.583 919.5,-243.583 919.5,-220.583 738.5,-220.583"/>
<text text-anchor="start" x="743.5" y="-229.183" font-family="Helvetica,sans-Serif" font-weight="bold" font-size="11.00" fill="#000000">decision_and_actions</text>
<text text-anchor="start" x="885.0219" y="-228.683" font-family="Helvetica,sans-Serif" font-size="11.00" fill="#000000">[table]</text>
<polygon fill="none" stroke="#000000" points="738.5,-201.583 738.5,-220.583 919.5,-220.583 919.5,-201.583 738.5,-201.583"/>
<text text-anchor="start" x="741.5" y="-207.683" font-family="Helvetica,sans-Serif" font-size="11.00" fill="#000000">...</text>
<polygon fill="#ffffff" stroke="transparent" points="738.5,-182.583 738.5,-201.583 827.5,-201.583 827.5,-182.583 738.5,-182.583"/>
<polygon fill="none" stroke="#000000" points="738.5,-182.583 738.5,-201.583 827.5,-201.583 827.5,-182.583 738.5,-182.583"/>
<text text-anchor="start" x="741.5" y="-188.683" font-family="Helvetica,sans-Serif" font-size="11.00" fill="#000000">&lt; 3</text>
<polygon fill="#ffffff" stroke="transparent" points="827.5,-182.583 827.5,-201.583 873.5,-201.583 873.5,-182.583 827.5,-182.583"/>
<polygon fill="none" stroke="#000000" points="827.5,-182.583 827.5,-201.583 873.5,-201.583 873.5,-182.583 827.5,-182.583"/>
<text text-anchor="start" x="864.3862" y="-188.683" font-family="Helvetica,sans-Serif" font-size="11.00" fill="#000000"> &#160;</text>
<polygon fill="#ffffff" stroke="transparent" points="873.5,-182.583 873.5,-201.583 919.5,-201.583 919.5,-182.583 873.5,-182.583"/>
<polygon fill="none" stroke="#000000" points="873.5,-182.583 873.5,-201.583 919.5,-201.583 919.5,-182.583 873.5,-182.583"/>
<text text-anchor="start" x="910.3862" y="-188.683" font-family="Helvetica,sans-Serif" font-size="11.00" fill="#000000"> &#160;</text>
</a>
</g>
</g>
<!-- decision_and_actions&#45;&gt;reference_data -->
<g id="edge5" class="edge">
<title>decision_and_actions:w&#45;&gt;reference_data:e</title>
<path fill="none" stroke="#000000" d="M723.7413,-210.5617C564.2047,-210.1033 517.185,-202.6898 353,-230.583 306.2038,-238.5331 195.4667,-290.583 148,-290.583"/>
<polygon fill="#000000" stroke="#000000" points="730.5,-210.5714 738.4948,-214.183 734.5,-210.5772 738.5,-210.583 738.5,-210.583 738.5,-210.583 734.5,-210.5772 738.5052,-206.983 730.5,-210.5714 730.5,-210.5714"/>
<ellipse fill="none" stroke="#000000" cx="727.3" cy="-210.5667" rx="3.2" ry="3.2"/>
</g>
<!-- decision_and_actions&#45;&gt;reference_data -->
<g id="edge6" class="edge">
<title>decision_and_actions:w&#45;&gt;reference_data:e</title>
<path fill="none" stroke="#000000" d="M723.7334,-210.5733C564.1212,-210.3705 517.3884,-207.3079 353,-234.583 306.4122,-242.3128 195.2247,-290.583 148,-290.583"/>
<polygon fill="#000000" stroke="#000000" points="730.5,-210.5777 738.4976,-214.183 734.5,-210.5804 738.5,-210.583 738.5,-210.583 738.5,-210.583 734.5,-210.5804 738.5024,-206.983 730.5,-210.5777 730.5,-210.5777"/>
<ellipse fill="none" stroke="#000000" cx="727.3" cy="-210.5756" rx="3.2" ry="3.2"/>
</g>
<!-- decision_and_actions&#45;&gt;referral -->
<g id="edge4" class="edge">
<title>decision_and_actions:w&#45;&gt;referral:e</title>
<path fill="none" stroke="#000000" d="M727.9099,-211.1084C700.1612,-214.0713 689.9619,-229.493 671,-255.583 631.9135,-309.3626 696.9831,-399.583 630.5,-399.583"/>
<polygon fill="#000000" stroke="#000000" points="737.5027,-206.6276 737.8992,-214.6177 736.3012,-214.697 735.9047,-206.7069 737.5027,-206.6276"/>
<polyline fill="none" stroke="#000000" points="738.5,-210.583 734.5049,-210.7813 "/>
<ellipse fill="none" stroke="#000000" cx="731.3088" cy="-210.9399" rx="3.2" ry="3.2"/>
</g>
<!-- interview -->
<g id="node6" class="node">
<title>interview</title>
<g id="a_node6"><a xlink:href="../../tables/interview.html" xlink:title="interview" target="_top">
<polygon fill="#ffffff" stroke="transparent" points="1027,-204.083 1027,-353.083 1179,-353.083 1179,-204.083 1027,-204.083"/>
<polygon fill="#f5f5f5" stroke="transparent" points="1027,-329.583 1027,-352.583 1179,-352.583 1179,-329.583 1027,-329.583"/>
<polygon fill="none" stroke="#000000" points="1027,-329.583 1027,-352.583 1179,-352.583 1179,-329.583 1027,-329.583"/>
<text text-anchor="start" x="1032" y="-338.183" font-family="Helvetica,sans-Serif" font-weight="bold" font-size="11.00" fill="#000000">interview</text>
<text text-anchor="start" x="1144.0437" y="-337.683" font-family="Helvetica,sans-Serif" font-size="11.00" fill="#000000">[table]</text>
<polygon fill="none" stroke="#000000" points="1027,-307.583 1027,-329.583 1179,-329.583 1179,-307.583 1027,-307.583"/>
<image xlink:href="../../images/primaryKeys.png" width="11px" height="12px" preserveAspectRatio="xMinYMin meet" x="1032" y="-324.583"/>
<text text-anchor="start" x="1047" y="-314.683" font-family="Helvetica,sans-Serif" font-size="11.00" fill="#000000">interview_id</text>
<polygon fill="#ffffff" stroke="transparent" points="1027,-285.583 1027,-307.583 1179,-307.583 1179,-285.583 1027,-285.583"/>
<polygon fill="none" stroke="#000000" points="1027,-285.583 1027,-307.583 1179,-307.583 1179,-285.583 1027,-285.583"/>
<image xlink:href="../../images/foreignKeys.png" width="11px" height="12px" preserveAspectRatio="xMinYMin meet" x="1032" y="-302.583"/>
<text text-anchor="start" x="1047" y="-292.683" font-family="Helvetica,sans-Serif" font-size="11.00" fill="#000000">investigation_id</text>
<polygon fill="#ffffff" stroke="transparent" points="1027,-263.583 1027,-285.583 1179,-285.583 1179,-263.583 1027,-263.583"/>
<polygon fill="none" stroke="#000000" points="1027,-263.583 1027,-285.583 1179,-285.583 1179,-263.583 1027,-263.583"/>
<image xlink:href="../../images/foreignKeys.png" width="11px" height="12px" preserveAspectRatio="xMinYMin meet" x="1032" y="-280.583"/>
<text text-anchor="start" x="1047" y="-270.683" font-family="Helvetica,sans-Serif" font-size="11.00" fill="#000000">interviewee_role_id</text>
<polygon fill="#ffffff" stroke="transparent" points="1027,-241.583 1027,-263.583 1179,-263.583 1179,-241.583 1027,-241.583"/>
<polygon fill="none" stroke="#000000" points="1027,-241.583 1027,-263.583 1179,-263.583 1179,-241.583 1027,-241.583"/>
<image xlink:href="../../images/foreignKeys.png" width="11px" height="12px" preserveAspectRatio="xMinYMin meet" x="1032" y="-258.583"/>
<text text-anchor="start" x="1047" y="-248.683" font-family="Helvetica,sans-Serif" font-size="11.00" fill="#000000">legacy_id</text>
<polygon fill="none" stroke="#000000" points="1027,-222.583 1027,-241.583 1179,-241.583 1179,-222.583 1027,-222.583"/>
<text text-anchor="start" x="1030" y="-228.683" font-family="Helvetica,sans-Serif" font-size="11.00" fill="#000000">...</text>
<polygon fill="#ffffff" stroke="transparent" points="1027,-203.583 1027,-222.583 1101,-222.583 1101,-203.583 1027,-203.583"/>
<polygon fill="none" stroke="#000000" points="1027,-203.583 1027,-222.583 1101,-222.583 1101,-203.583 1027,-203.583"/>
<text text-anchor="start" x="1030" y="-209.683" font-family="Helvetica,sans-Serif" font-size="11.00" fill="#000000">&lt; 2</text>
<polygon fill="#ffffff" stroke="transparent" points="1101,-203.583 1101,-222.583 1140,-222.583 1140,-203.583 1101,-203.583"/>
<polygon fill="none" stroke="#000000" points="1101,-203.583 1101,-222.583 1140,-222.583 1140,-203.583 1101,-203.583"/>
<text text-anchor="start" x="1130.8862" y="-209.683" font-family="Helvetica,sans-Serif" font-size="11.00" fill="#000000"> &#160;</text>
<polygon fill="#ffffff" stroke="transparent" points="1140,-203.583 1140,-222.583 1179,-222.583 1179,-203.583 1140,-203.583"/>
<polygon fill="none" stroke="#000000" points="1140,-203.583 1140,-222.583 1179,-222.583 1179,-203.583 1140,-203.583"/>
<text text-anchor="start" x="1169.8862" y="-209.683" font-family="Helvetica,sans-Serif" font-size="11.00" fill="#000000"> &#160;</text>
</a>
</g>
</g>
<!-- interview&#45;&gt;reference_data -->
<g id="edge7" class="edge">
<title>interview:w&#45;&gt;reference_data:e</title>
<path fill="none" stroke="#000000" d="M1012.3919,-272.8055C957.1923,-256.9618 1046.901,-139.4072 986,-90.583 847.1369,20.7434 318.8477,-47.8615 189,-169.583 147.5743,-208.4161 204.7811,-290.583 148,-290.583"/>
<polygon fill="#000000" stroke="#000000" points="1019.0586,-273.6167 1026.5651,-278.1566 1023.0293,-274.0998 1027,-274.583 1027,-274.583 1027,-274.583 1023.0293,-274.0998 1027.4349,-271.0093 1019.0586,-273.6167 1019.0586,-273.6167"/>
<ellipse fill="none" stroke="#000000" cx="1015.882" cy="-273.2301" rx="3.2" ry="3.2"/>
</g>
<!-- investigation -->
<g id="node7" class="node">
<title>investigation</title>
<g id="a_node7"><a xlink:href="../../tables/investigation.html" xlink:title="investigation" target="_top">
<polygon fill="#ffffff" stroke="transparent" points="679,-265.583 679,-531.583 978,-531.583 978,-265.583 679,-265.583"/>
<polygon fill="#f5f5f5" stroke="transparent" points="681.5,-506.583 681.5,-529.583 976.5,-529.583 976.5,-506.583 681.5,-506.583"/>
<polygon fill="none" stroke="#000000" points="681.5,-506.583 681.5,-529.583 976.5,-529.583 976.5,-506.583 681.5,-506.583"/>
<text text-anchor="start" x="686.5" y="-515.183" font-family="Helvetica,sans-Serif" font-weight="bold" font-size="11.00" fill="#000000">investigation</text>
<text text-anchor="start" x="941.5437" y="-514.683" font-family="Helvetica,sans-Serif" font-size="11.00" fill="#000000">[table]</text>
<polygon fill="none" stroke="#000000" points="681.5,-484.583 681.5,-506.583 882.5,-506.583 882.5,-484.583 681.5,-484.583"/>
<image xlink:href="../../images/primaryKeys.png" width="11px" height="12px" preserveAspectRatio="xMinYMin meet" x="686.5" y="-501.583"/>
<text text-anchor="start" x="701.5" y="-491.683" font-family="Helvetica,sans-Serif" font-size="11.00" fill="#000000">investigation_id</text>
<polygon fill="none" stroke="#000000" points="882.5,-484.583 882.5,-506.583 976.5,-506.583 976.5,-484.583 882.5,-484.583"/>
<text text-anchor="start" x="885.4758" y="-492.283" font-family="Helvetica,sans-Serif" font-size="11.00" fill="#000000">uuid[2147483647]</text>
<polygon fill="none" stroke="#000000" points="681.5,-462.583 681.5,-484.583 882.5,-484.583 882.5,-462.583 681.5,-462.583"/>
<text text-anchor="start" x="701.5" y="-469.683" font-family="Helvetica,sans-Serif" font-size="11.00" fill="#000000">staff_involved</text>
<polygon fill="none" stroke="#000000" points="882.5,-462.583 882.5,-484.583 976.5,-484.583 976.5,-462.583 882.5,-462.583"/>
<text text-anchor="start" x="885.5" y="-470.283" font-family="Helvetica,sans-Serif" font-size="11.00" fill="#000000">text[2147483647]</text>
<polygon fill="none" stroke="#000000" points="681.5,-440.583 681.5,-462.583 882.5,-462.583 882.5,-440.583 681.5,-440.583"/>
<text text-anchor="start" x="701.5" y="-447.683" font-family="Helvetica,sans-Serif" font-size="11.00" fill="#000000">evidence_secured</text>
<polygon fill="none" stroke="#000000" points="882.5,-440.583 882.5,-462.583 976.5,-462.583 976.5,-440.583 882.5,-440.583"/>
<text text-anchor="start" x="885.5" y="-448.283" font-family="Helvetica,sans-Serif" font-size="11.00" fill="#000000">text[2147483647]</text>
<polygon fill="none" stroke="#000000" points="681.5,-418.583 681.5,-440.583 882.5,-440.583 882.5,-418.583 681.5,-418.583"/>
<text text-anchor="start" x="701.5" y="-425.683" font-family="Helvetica,sans-Serif" font-size="11.00" fill="#000000">occurrence_reason</text>
<polygon fill="none" stroke="#000000" points="882.5,-418.583 882.5,-440.583 976.5,-440.583 976.5,-418.583 882.5,-418.583"/>
<text text-anchor="start" x="885.5" y="-426.283" font-family="Helvetica,sans-Serif" font-size="11.00" fill="#000000">text[2147483647]</text>
<polygon fill="none" stroke="#000000" points="681.5,-396.583 681.5,-418.583 882.5,-418.583 882.5,-396.583 681.5,-396.583"/>
<text text-anchor="start" x="701.5" y="-403.683" font-family="Helvetica,sans-Serif" font-size="11.00" fill="#000000">persons_usual_behaviour</text>
<polygon fill="none" stroke="#000000" points="882.5,-396.583 882.5,-418.583 976.5,-418.583 976.5,-396.583 882.5,-396.583"/>
<text text-anchor="start" x="885.5" y="-404.283" font-family="Helvetica,sans-Serif" font-size="11.00" fill="#000000">text[2147483647]</text>
<polygon fill="none" stroke="#000000" points="681.5,-374.583 681.5,-396.583 882.5,-396.583 882.5,-374.583 681.5,-374.583"/>
<text text-anchor="start" x="701.5" y="-381.683" font-family="Helvetica,sans-Serif" font-size="11.00" fill="#000000">persons_trigger</text>
<polygon fill="none" stroke="#000000" points="882.5,-374.583 882.5,-396.583 976.5,-396.583 976.5,-374.583 882.5,-374.583"/>
<text text-anchor="start" x="885.5" y="-382.283" font-family="Helvetica,sans-Serif" font-size="11.00" fill="#000000">text[2147483647]</text>
<polygon fill="none" stroke="#000000" points="681.5,-352.583 681.5,-374.583 882.5,-374.583 882.5,-352.583 681.5,-352.583"/>
<text text-anchor="start" x="701.5" y="-359.683" font-family="Helvetica,sans-Serif" font-size="11.00" fill="#000000">protective_factors</text>
<polygon fill="none" stroke="#000000" points="882.5,-352.583 882.5,-374.583 976.5,-374.583 976.5,-352.583 882.5,-352.583"/>
<text text-anchor="start" x="885.5" y="-360.283" font-family="Helvetica,sans-Serif" font-size="11.00" fill="#000000">text[2147483647]</text>
<polygon fill="none" stroke="#000000" points="681.5,-330.583 681.5,-352.583 882.5,-352.583 882.5,-330.583 681.5,-330.583"/>
<text text-anchor="start" x="701.5" y="-337.683" font-family="Helvetica,sans-Serif" font-size="11.00" fill="#000000">version</text>
<polygon fill="none" stroke="#000000" points="882.5,-330.583 882.5,-352.583 976.5,-352.583 976.5,-330.583 882.5,-330.583"/>
<text text-anchor="start" x="885.5" y="-338.283" font-family="Helvetica,sans-Serif" font-size="11.00" fill="#000000">int4[10]</text>
<polygon fill="none" stroke="#000000" points="681.5,-308.583 681.5,-330.583 882.5,-330.583 882.5,-308.583 681.5,-308.583"/>
<text text-anchor="start" x="701.5" y="-315.683" font-family="Helvetica,sans-Serif" font-size="11.00" fill="#000000">recorded_by</text>
<polygon fill="none" stroke="#000000" points="882.5,-308.583 882.5,-330.583 976.5,-330.583 976.5,-308.583 882.5,-308.583"/>
<text text-anchor="start" x="885.5" y="-316.283" font-family="Helvetica,sans-Serif" font-size="11.00" fill="#000000">varchar[64]</text>
<polygon fill="none" stroke="#000000" points="681.5,-286.583 681.5,-308.583 882.5,-308.583 882.5,-286.583 681.5,-286.583"/>
<text text-anchor="start" x="701.5" y="-293.683" font-family="Helvetica,sans-Serif" font-size="11.00" fill="#000000">recorded_by_display_name</text>
<polygon fill="none" stroke="#000000" points="882.5,-286.583 882.5,-308.583 976.5,-308.583 976.5,-286.583 882.5,-286.583"/>
<text text-anchor="start" x="885.5" y="-294.283" font-family="Helvetica,sans-Serif" font-size="11.00" fill="#000000">varchar[255]</text>
<polygon fill="#ffffff" stroke="transparent" points="681.5,-267.583 681.5,-286.583 786.5,-286.583 786.5,-267.583 681.5,-267.583"/>
<polygon fill="none" stroke="#000000" points="681.5,-267.583 681.5,-286.583 786.5,-286.583 786.5,-267.583 681.5,-267.583"/>
<text text-anchor="start" x="684.5" y="-273.683" font-family="Helvetica,sans-Serif" font-size="11.00" fill="#000000">&lt; 1</text>
<polygon fill="#ffffff" stroke="transparent" points="786.5,-267.583 786.5,-286.583 882.5,-286.583 882.5,-267.583 786.5,-267.583"/>
<polygon fill="none" stroke="#000000" points="786.5,-267.583 786.5,-286.583 882.5,-286.583 882.5,-267.583 786.5,-267.583"/>
<text text-anchor="start" x="873.3862" y="-273.683" font-family="Helvetica,sans-Serif" font-size="11.00" fill="#000000"> &#160;</text>
<polygon fill="#ffffff" stroke="transparent" points="882.5,-267.583 882.5,-286.583 976.5,-286.583 976.5,-267.583 882.5,-267.583"/>
<polygon fill="none" stroke="#000000" points="882.5,-267.583 882.5,-286.583 976.5,-286.583 976.5,-267.583 882.5,-267.583"/>
<text text-anchor="start" x="957.9053" y="-273.683" font-family="Helvetica,sans-Serif" font-size="11.00" fill="#000000">1 &gt;</text>
<polygon fill="none" stroke="#000000" stroke-width="2" points="680,-266.583 680,-530.583 977,-530.583 977,-266.583 680,-266.583"/>
</a>
</g>
</g>
<!-- interview&#45;&gt;investigation -->
<g id="edge8" class="edge">
<title>interview:w&#45;&gt;investigation:e</title>
<path fill="none" stroke="#000000" d="M1012.3982,-298.8179C951.3796,-320.6806 1062.0449,-495.583 976.5,-495.583"/>
<polygon fill="#000000" stroke="#000000" points="1019.0921,-297.7934 1027.5447,-300.1416 1023.046,-297.1882 1027,-296.583 1027,-296.583 1027,-296.583 1023.046,-297.1882 1026.4553,-293.0244 1019.0921,-297.7934 1019.0921,-297.7934"/>
<ellipse fill="none" stroke="#000000" cx="1015.9289" cy="-298.2775" rx="3.2" ry="3.2"/>
</g>
<!-- investigation&#45;&gt;referral -->
<g id="edge9" class="edge">
<title>investigation:w&#45;&gt;referral:e</title>
<path fill="none" stroke="#000000" d="M671.0062,-493.5779C640.3347,-479.792 674.6618,-399.583 630.5,-399.583"/>
<polygon fill="#000000" stroke="#000000" points="681.465,-491.5039 679.9635,-499.3618 678.3919,-499.0615 679.8934,-491.2036 681.465,-491.5039"/>
<polyline fill="none" stroke="#000000" points="681.5,-495.583 677.5711,-494.8322 "/>
<ellipse fill="none" stroke="#000000" cx="674.4279" cy="-494.2316" rx="3.2" ry="3.2"/>
</g>
<!-- safer_custody_screening_outcome -->
<g id="node8" class="node">
<title>safer_custody_screening_outcome</title>
<g id="a_node8"><a xlink:href="../../tables/safer_custody_screening_outcome.html" xlink:title="safer_custody_screening_outcome" target="_top">
<polygon fill="#ffffff" stroke="transparent" points="694,-101.083 694,-162.083 963,-162.083 963,-101.083 694,-101.083"/>
<polygon fill="#f5f5f5" stroke="transparent" points="694.5,-138.583 694.5,-161.583 963.5,-161.583 963.5,-138.583 694.5,-138.583"/>
<polygon fill="none" stroke="#000000" points="694.5,-138.583 694.5,-161.583 963.5,-161.583 963.5,-138.583 694.5,-138.583"/>
<text text-anchor="start" x="699.5" y="-147.183" font-family="Helvetica,sans-Serif" font-weight="bold" font-size="11.00" fill="#000000">safer_custody_screening_outcome</text>
<text text-anchor="start" x="929.0219" y="-146.683" font-family="Helvetica,sans-Serif" font-size="11.00" fill="#000000">[table]</text>
<polygon fill="none" stroke="#000000" points="694.5,-119.583 694.5,-138.583 963.5,-138.583 963.5,-119.583 694.5,-119.583"/>
<text text-anchor="start" x="697.5" y="-125.683" font-family="Helvetica,sans-Serif" font-size="11.00" fill="#000000">...</text>
<polygon fill="#ffffff" stroke="transparent" points="694.5,-100.583 694.5,-119.583 827.5,-119.583 827.5,-100.583 694.5,-100.583"/>
<polygon fill="none" stroke="#000000" points="694.5,-100.583 694.5,-119.583 827.5,-119.583 827.5,-100.583 694.5,-100.583"/>
<text text-anchor="start" x="697.5" y="-106.683" font-family="Helvetica,sans-Serif" font-size="11.00" fill="#000000">&lt; 2</text>
<polygon fill="#ffffff" stroke="transparent" points="827.5,-100.583 827.5,-119.583 895.5,-119.583 895.5,-100.583 827.5,-100.583"/>
<polygon fill="none" stroke="#000000" points="827.5,-100.583 827.5,-119.583 895.5,-119.583 895.5,-100.583 827.5,-100.583"/>
<text text-anchor="start" x="886.3862" y="-106.683" font-family="Helvetica,sans-Serif" font-size="11.00" fill="#000000"> &#160;</text>
<polygon fill="#ffffff" stroke="transparent" points="895.5,-100.583 895.5,-119.583 963.5,-119.583 963.5,-100.583 895.5,-100.583"/>
<polygon fill="none" stroke="#000000" points="895.5,-100.583 895.5,-119.583 963.5,-119.583 963.5,-100.583 895.5,-100.583"/>
<text text-anchor="start" x="954.3862" y="-106.683" font-family="Helvetica,sans-Serif" font-size="11.00" fill="#000000"> &#160;</text>
</a>
</g>
</g>
<!-- safer_custody_screening_outcome&#45;&gt;reference_data -->
<g id="edge15" class="edge">
<title>safer_custody_screening_outcome:w&#45;&gt;reference_data:e</title>
<path fill="none" stroke="#000000" d="M679.8797,-128.5703C460.9909,-128.2058 380.304,-120.9969 189,-239.583 164.2809,-254.9059 177.0831,-290.583 148,-290.583"/>
<polygon fill="#000000" stroke="#000000" points="686.5,-128.576 694.4968,-132.183 690.5,-128.5795 694.5,-128.583 694.5,-128.583 694.5,-128.583 690.5,-128.5795 694.5032,-124.983 686.5,-128.576 686.5,-128.576"/>
<ellipse fill="none" stroke="#000000" cx="683.3" cy="-128.5732" rx="3.2" ry="3.2"/>
</g>
<!-- safer_custody_screening_outcome&#45;&gt;referral -->
<g id="edge16" class="edge">
<title>safer_custody_screening_outcome:w&#45;&gt;referral:e</title>
<path fill="none" stroke="#000000" d="M684.2638,-131.6264C639.6157,-161.3994 688.5114,-399.583 630.5,-399.583"/>
<polygon fill="#000000" stroke="#000000" points="692.5932,-124.9769 694.8732,-132.6451 693.3395,-133.1011 691.0595,-125.4329 692.5932,-124.9769"/>
<polyline fill="none" stroke="#000000" points="694.5,-128.583 690.6659,-129.723 "/>
<ellipse fill="none" stroke="#000000" cx="687.5986" cy="-130.635" rx="3.2" ry="3.2"/>
</g>
</g>
</svg>
