<?xml version="1.0" encoding="UTF-8" standalone="no"?>
<!DOCTYPE svg PUBLIC "-//W3C//DTD SVG 1.1//EN"
 "http://www.w3.org/Graphics/SVG/1.1/DTD/svg11.dtd">
<!-- Generated by graphviz version 2.40.1 (20161225.0304)
 -->
<!-- Title: twoDegreesRelationshipsDiagram Pages: 1 -->
<svg width="604pt" height="1335pt"
 viewBox="0.00 0.00 604.00 1335.20" xmlns="http://www.w3.org/2000/svg" xmlns:xlink="http://www.w3.org/1999/xlink">
<g id="graph0" class="graph" transform="scale(1 1) rotate(0) translate(4 1331.2)">
<title>twoDegreesRelationshipsDiagram</title>
<polygon fill="#ffffff" stroke="transparent" points="-4,4 -4,-1331.2 600,-1331.2 600,4 -4,4"/>
<text text-anchor="middle" x="72.4936" y="-7.3" font-family="Helvetica,sans-Serif" font-size="11.00" fill="#000000">Generated by SchemaSpy</text>
<!-- attendee_audit -->
<g id="node1" class="node">
<title>attendee_audit</title>
<g id="a_node1"><a xlink:href="../../tables/attendee_audit.html" xlink:title="attendee_audit" target="_top">
<polygon fill="#ffffff" stroke="transparent" points="335,-1262.2 335,-1323.2 476,-1323.2 476,-1262.2 335,-1262.2"/>
<polygon fill="#f5f5f5" stroke="transparent" points="335.5,-1299.7 335.5,-1322.7 476.5,-1322.7 476.5,-1299.7 335.5,-1299.7"/>
<polygon fill="none" stroke="#000000" points="335.5,-1299.7 335.5,-1322.7 476.5,-1322.7 476.5,-1299.7 335.5,-1299.7"/>
<text text-anchor="start" x="340.5" y="-1308.3" font-family="Helvetica,sans-Serif" font-weight="bold" font-size="11.00" fill="#000000">attendee_audit</text>
<text text-anchor="start" x="442.0219" y="-1307.8" font-family="Helvetica,sans-Serif" font-size="11.00" fill="#000000">[table]</text>
<polygon fill="none" stroke="#000000" points="335.5,-1280.7 335.5,-1299.7 476.5,-1299.7 476.5,-1280.7 335.5,-1280.7"/>
<text text-anchor="start" x="338.5" y="-1286.8" font-family="Helvetica,sans-Serif" font-size="11.00" fill="#000000">...</text>
<polygon fill="#ffffff" stroke="transparent" points="335.5,-1261.7 335.5,-1280.7 404.5,-1280.7 404.5,-1261.7 335.5,-1261.7"/>
<polygon fill="none" stroke="#000000" points="335.5,-1261.7 335.5,-1280.7 404.5,-1280.7 404.5,-1261.7 335.5,-1261.7"/>
<text text-anchor="start" x="338.5" y="-1267.8" font-family="Helvetica,sans-Serif" font-size="11.00" fill="#000000">&lt; 1</text>
<polygon fill="#ffffff" stroke="transparent" points="404.5,-1261.7 404.5,-1280.7 440.5,-1280.7 440.5,-1261.7 404.5,-1261.7"/>
<polygon fill="none" stroke="#000000" points="404.5,-1261.7 404.5,-1280.7 440.5,-1280.7 440.5,-1261.7 404.5,-1261.7"/>
<text text-anchor="start" x="431.3862" y="-1267.8" font-family="Helvetica,sans-Serif" font-size="11.00" fill="#000000"> &#160;</text>
<polygon fill="#ffffff" stroke="transparent" points="440.5,-1261.7 440.5,-1280.7 476.5,-1280.7 476.5,-1261.7 440.5,-1261.7"/>
<polygon fill="none" stroke="#000000" points="440.5,-1261.7 440.5,-1280.7 476.5,-1280.7 476.5,-1261.7 440.5,-1261.7"/>
<text text-anchor="start" x="467.3862" y="-1267.8" font-family="Helvetica,sans-Serif" font-size="11.00" fill="#000000"> &#160;</text>
</a>
</g>
</g>
<!-- audit_revision -->
<g id="node2" class="node">
<title>audit_revision</title>
<g id="a_node2"><a xlink:href="../../tables/audit_revision.html" xlink:title="audit_revision" target="_top">
<polygon fill="#ffffff" stroke="transparent" points="8,-831.2 8,-914.2 174,-914.2 174,-831.2 8,-831.2"/>
<polygon fill="#f5f5f5" stroke="transparent" points="8,-890.7 8,-913.7 174,-913.7 174,-890.7 8,-890.7"/>
<polygon fill="none" stroke="#000000" points="8,-890.7 8,-913.7 174,-913.7 174,-890.7 8,-890.7"/>
<text text-anchor="start" x="13" y="-899.3" font-family="Helvetica,sans-Serif" font-weight="bold" font-size="11.00" fill="#000000">audit_revision</text>
<text text-anchor="start" x="139.0437" y="-898.8" font-family="Helvetica,sans-Serif" font-size="11.00" fill="#000000">[table]</text>
<polygon fill="none" stroke="#000000" points="8,-868.7 8,-890.7 174,-890.7 174,-868.7 8,-868.7"/>
<image xlink:href="../../images/primaryKeys.png" width="11px" height="12px" preserveAspectRatio="xMinYMin meet" x="13" y="-885.7"/>
<text text-anchor="start" x="28" y="-875.8" font-family="Helvetica,sans-Serif" font-size="11.00" fill="#000000">id</text>
<polygon fill="none" stroke="#000000" points="8,-849.7 8,-868.7 174,-868.7 174,-849.7 8,-849.7"/>
<text text-anchor="start" x="11" y="-855.8" font-family="Helvetica,sans-Serif" font-size="11.00" fill="#000000">...</text>
<polygon fill="#ffffff" stroke="transparent" points="8,-830.7 8,-849.7 77,-849.7 77,-830.7 8,-830.7"/>
<polygon fill="none" stroke="#000000" points="8,-830.7 8,-849.7 77,-849.7 77,-830.7 8,-830.7"/>
<text text-anchor="start" x="11" y="-836.8" font-family="Helvetica,sans-Serif" font-size="11.00" fill="#000000"> &#160;</text>
<polygon fill="#ffffff" stroke="transparent" points="77,-830.7 77,-849.7 118,-849.7 118,-830.7 77,-830.7"/>
<polygon fill="none" stroke="#000000" points="77,-830.7 77,-849.7 118,-849.7 118,-830.7 77,-830.7"/>
<text text-anchor="start" x="108.8862" y="-836.8" font-family="Helvetica,sans-Serif" font-size="11.00" fill="#000000"> &#160;</text>
<polygon fill="#ffffff" stroke="transparent" points="118,-830.7 118,-849.7 174,-849.7 174,-830.7 118,-830.7"/>
<polygon fill="none" stroke="#000000" points="118,-830.7 118,-849.7 174,-849.7 174,-830.7 118,-830.7"/>
<text text-anchor="start" x="149.2904" y="-836.8" font-family="Helvetica,sans-Serif" font-size="11.00" fill="#000000">11 &gt;</text>
</a>
</g>
</g>
<!-- attendee_audit&#45;&gt;audit_revision -->
<g id="edge1" class="edge">
<title>attendee_audit:w&#45;&gt;audit_revision:e</title>
<path fill="none" stroke="#000000" d="M321.0041,-1289.7914C274.1305,-1290.276 247.4366,-1291.1984 215,-1251.7 162.2187,-1187.4277 257.1672,-879.7 174,-879.7"/>
<polygon fill="#000000" stroke="#000000" points="327.5002,-1289.7505 335.5227,-1293.2999 331.5001,-1289.7252 335.5,-1289.7 335.5,-1289.7 335.5,-1289.7 331.5001,-1289.7252 335.4773,-1286.1001 327.5002,-1289.7505 327.5002,-1289.7505"/>
<ellipse fill="none" stroke="#000000" cx="324.3002" cy="-1289.7707" rx="3.2" ry="3.2"/>
</g>
<!-- contributory_factor_audit -->
<g id="node3" class="node">
<title>contributory_factor_audit</title>
<g id="a_node3"><a xlink:href="../../tables/contributory_factor_audit.html" xlink:title="contributory_factor_audit" target="_top">
<polygon fill="#ffffff" stroke="transparent" points="300.5,-1180.2 300.5,-1241.2 510.5,-1241.2 510.5,-1180.2 300.5,-1180.2"/>
<polygon fill="#f5f5f5" stroke="transparent" points="300.5,-1217.7 300.5,-1240.7 510.5,-1240.7 510.5,-1217.7 300.5,-1217.7"/>
<polygon fill="none" stroke="#000000" points="300.5,-1217.7 300.5,-1240.7 510.5,-1240.7 510.5,-1217.7 300.5,-1217.7"/>
<text text-anchor="start" x="305.5" y="-1226.3" font-family="Helvetica,sans-Serif" font-weight="bold" font-size="11.00" fill="#000000">contributory_factor_audit</text>
<text text-anchor="start" x="476.0219" y="-1225.8" font-family="Helvetica,sans-Serif" font-size="11.00" fill="#000000">[table]</text>
<polygon fill="none" stroke="#000000" points="300.5,-1198.7 300.5,-1217.7 510.5,-1217.7 510.5,-1198.7 300.5,-1198.7"/>
<text text-anchor="start" x="303.5" y="-1204.8" font-family="Helvetica,sans-Serif" font-size="11.00" fill="#000000">...</text>
<polygon fill="#ffffff" stroke="transparent" points="300.5,-1179.7 300.5,-1198.7 403.5,-1198.7 403.5,-1179.7 300.5,-1179.7"/>
<polygon fill="none" stroke="#000000" points="300.5,-1179.7 300.5,-1198.7 403.5,-1198.7 403.5,-1179.7 300.5,-1179.7"/>
<text text-anchor="start" x="303.5" y="-1185.8" font-family="Helvetica,sans-Serif" font-size="11.00" fill="#000000">&lt; 1</text>
<polygon fill="#ffffff" stroke="transparent" points="403.5,-1179.7 403.5,-1198.7 456.5,-1198.7 456.5,-1179.7 403.5,-1179.7"/>
<polygon fill="none" stroke="#000000" points="403.5,-1179.7 403.5,-1198.7 456.5,-1198.7 456.5,-1179.7 403.5,-1179.7"/>
<text text-anchor="start" x="447.3862" y="-1185.8" font-family="Helvetica,sans-Serif" font-size="11.00" fill="#000000"> &#160;</text>
<polygon fill="#ffffff" stroke="transparent" points="456.5,-1179.7 456.5,-1198.7 510.5,-1198.7 510.5,-1179.7 456.5,-1179.7"/>
<polygon fill="none" stroke="#000000" points="456.5,-1179.7 456.5,-1198.7 510.5,-1198.7 510.5,-1179.7 456.5,-1179.7"/>
<text text-anchor="start" x="501.3862" y="-1185.8" font-family="Helvetica,sans-Serif" font-size="11.00" fill="#000000"> &#160;</text>
</a>
</g>
</g>
<!-- contributory_factor_audit&#45;&gt;audit_revision -->
<g id="edge2" class="edge">
<title>contributory_factor_audit:w&#45;&gt;audit_revision:e</title>
<path fill="none" stroke="#000000" d="M285.9145,-1207.4286C254.1029,-1206.0545 236.9191,-1198.743 215,-1169.7 175.7923,-1117.7495 239.0853,-879.7 174,-879.7"/>
<polygon fill="#000000" stroke="#000000" points="292.5014,-1207.5511 300.433,-1211.2994 296.5007,-1207.6256 300.5,-1207.7 300.5,-1207.7 300.5,-1207.7 296.5007,-1207.6256 300.567,-1204.1006 292.5014,-1207.5511 292.5014,-1207.5511"/>
<ellipse fill="none" stroke="#000000" cx="289.3019" cy="-1207.4915" rx="3.2" ry="3.2"/>
</g>
<!-- csip_record_audit -->
<g id="node4" class="node">
<title>csip_record_audit</title>
<g id="a_node4"><a xlink:href="../../tables/csip_record_audit.html" xlink:title="csip_record_audit" target="_top">
<polygon fill="#ffffff" stroke="transparent" points="327.5,-1098.2 327.5,-1159.2 483.5,-1159.2 483.5,-1098.2 327.5,-1098.2"/>
<polygon fill="#f5f5f5" stroke="transparent" points="327.5,-1135.7 327.5,-1158.7 483.5,-1158.7 483.5,-1135.7 327.5,-1135.7"/>
<polygon fill="none" stroke="#000000" points="327.5,-1135.7 327.5,-1158.7 483.5,-1158.7 483.5,-1135.7 327.5,-1135.7"/>
<text text-anchor="start" x="332.5" y="-1144.3" font-family="Helvetica,sans-Serif" font-weight="bold" font-size="11.00" fill="#000000">csip_record_audit</text>
<text text-anchor="start" x="449.0219" y="-1143.8" font-family="Helvetica,sans-Serif" font-size="11.00" fill="#000000">[table]</text>
<polygon fill="none" stroke="#000000" points="327.5,-1116.7 327.5,-1135.7 483.5,-1135.7 483.5,-1116.7 327.5,-1116.7"/>
<text text-anchor="start" x="330.5" y="-1122.8" font-family="Helvetica,sans-Serif" font-size="11.00" fill="#000000">...</text>
<polygon fill="#ffffff" stroke="transparent" points="327.5,-1097.7 327.5,-1116.7 403.5,-1116.7 403.5,-1097.7 327.5,-1097.7"/>
<polygon fill="none" stroke="#000000" points="327.5,-1097.7 327.5,-1116.7 403.5,-1116.7 403.5,-1097.7 327.5,-1097.7"/>
<text text-anchor="start" x="330.5" y="-1103.8" font-family="Helvetica,sans-Serif" font-size="11.00" fill="#000000">&lt; 1</text>
<polygon fill="#ffffff" stroke="transparent" points="403.5,-1097.7 403.5,-1116.7 443.5,-1116.7 443.5,-1097.7 403.5,-1097.7"/>
<polygon fill="none" stroke="#000000" points="403.5,-1097.7 403.5,-1116.7 443.5,-1116.7 443.5,-1097.7 403.5,-1097.7"/>
<text text-anchor="start" x="434.3862" y="-1103.8" font-family="Helvetica,sans-Serif" font-size="11.00" fill="#000000"> &#160;</text>
<polygon fill="#ffffff" stroke="transparent" points="443.5,-1097.7 443.5,-1116.7 483.5,-1116.7 483.5,-1097.7 443.5,-1097.7"/>
<polygon fill="none" stroke="#000000" points="443.5,-1097.7 443.5,-1116.7 483.5,-1116.7 483.5,-1097.7 443.5,-1097.7"/>
<text text-anchor="start" x="474.3862" y="-1103.8" font-family="Helvetica,sans-Serif" font-size="11.00" fill="#000000"> &#160;</text>
</a>
</g>
</g>
<!-- csip_record_audit&#45;&gt;audit_revision -->
<g id="edge3" class="edge">
<title>csip_record_audit:w&#45;&gt;audit_revision:e</title>
<path fill="none" stroke="#000000" d="M313.0797,-1125.7085C269.8622,-1125.6432 246.4629,-1123.5848 215,-1087.7 152.8823,-1016.8522 268.2233,-879.7 174,-879.7"/>
<polygon fill="#000000" stroke="#000000" points="319.5,-1125.7048 327.5021,-1129.3 323.5,-1125.7024 327.5,-1125.7 327.5,-1125.7 327.5,-1125.7 323.5,-1125.7024 327.4979,-1122.1 319.5,-1125.7048 319.5,-1125.7048"/>
<ellipse fill="none" stroke="#000000" cx="316.3" cy="-1125.7067" rx="3.2" ry="3.2"/>
</g>
<!-- decision_and_actions_audit -->
<g id="node5" class="node">
<title>decision_and_actions_audit</title>
<g id="a_node5"><a xlink:href="../../tables/decision_and_actions_audit.html" xlink:title="decision_and_actions_audit" target="_top">
<polygon fill="#ffffff" stroke="transparent" points="294.5,-1016.2 294.5,-1077.2 516.5,-1077.2 516.5,-1016.2 294.5,-1016.2"/>
<polygon fill="#f5f5f5" stroke="transparent" points="294.5,-1053.7 294.5,-1076.7 516.5,-1076.7 516.5,-1053.7 294.5,-1053.7"/>
<polygon fill="none" stroke="#000000" points="294.5,-1053.7 294.5,-1076.7 516.5,-1076.7 516.5,-1053.7 294.5,-1053.7"/>
<text text-anchor="start" x="299.5" y="-1062.3" font-family="Helvetica,sans-Serif" font-weight="bold" font-size="11.00" fill="#000000">decision_and_actions_audit</text>
<text text-anchor="start" x="482.0219" y="-1061.8" font-family="Helvetica,sans-Serif" font-size="11.00" fill="#000000">[table]</text>
<polygon fill="none" stroke="#000000" points="294.5,-1034.7 294.5,-1053.7 516.5,-1053.7 516.5,-1034.7 294.5,-1034.7"/>
<text text-anchor="start" x="297.5" y="-1040.8" font-family="Helvetica,sans-Serif" font-size="11.00" fill="#000000">...</text>
<polygon fill="#ffffff" stroke="transparent" points="294.5,-1015.7 294.5,-1034.7 403.5,-1034.7 403.5,-1015.7 294.5,-1015.7"/>
<polygon fill="none" stroke="#000000" points="294.5,-1015.7 294.5,-1034.7 403.5,-1034.7 403.5,-1015.7 294.5,-1015.7"/>
<text text-anchor="start" x="297.5" y="-1021.8" font-family="Helvetica,sans-Serif" font-size="11.00" fill="#000000">&lt; 1</text>
<polygon fill="#ffffff" stroke="transparent" points="403.5,-1015.7 403.5,-1034.7 459.5,-1034.7 459.5,-1015.7 403.5,-1015.7"/>
<polygon fill="none" stroke="#000000" points="403.5,-1015.7 403.5,-1034.7 459.5,-1034.7 459.5,-1015.7 403.5,-1015.7"/>
<text text-anchor="start" x="450.3862" y="-1021.8" font-family="Helvetica,sans-Serif" font-size="11.00" fill="#000000"> &#160;</text>
<polygon fill="#ffffff" stroke="transparent" points="459.5,-1015.7 459.5,-1034.7 516.5,-1034.7 516.5,-1015.7 459.5,-1015.7"/>
<polygon fill="none" stroke="#000000" points="459.5,-1015.7 459.5,-1034.7 516.5,-1034.7 516.5,-1015.7 459.5,-1015.7"/>
<text text-anchor="start" x="507.3862" y="-1021.8" font-family="Helvetica,sans-Serif" font-size="11.00" fill="#000000"> &#160;</text>
</a>
</g>
</g>
<!-- decision_and_actions_audit&#45;&gt;audit_revision -->
<g id="edge4" class="edge">
<title>decision_and_actions_audit:w&#45;&gt;audit_revision:e</title>
<path fill="none" stroke="#000000" d="M279.7273,-1043.1889C251.1558,-1040.9712 237.2862,-1031.1226 215,-1005.7 176.1797,-961.4164 232.8901,-879.7 174,-879.7"/>
<polygon fill="#000000" stroke="#000000" points="286.5048,-1043.4233 294.3755,-1047.2978 290.5024,-1043.5617 294.5,-1043.7 294.5,-1043.7 294.5,-1043.7 290.5024,-1043.5617 294.6245,-1040.1022 286.5048,-1043.4233 286.5048,-1043.4233"/>
<ellipse fill="none" stroke="#000000" cx="283.3067" cy="-1043.3127" rx="3.2" ry="3.2"/>
</g>
<!-- identified_need_audit -->
<g id="node6" class="node">
<title>identified_need_audit</title>
<g id="a_node6"><a xlink:href="../../tables/identified_need_audit.html" xlink:title="identified_need_audit" target="_top">
<polygon fill="#ffffff" stroke="transparent" points="313.5,-934.2 313.5,-995.2 497.5,-995.2 497.5,-934.2 313.5,-934.2"/>
<polygon fill="#f5f5f5" stroke="transparent" points="313.5,-971.7 313.5,-994.7 497.5,-994.7 497.5,-971.7 313.5,-971.7"/>
<polygon fill="none" stroke="#000000" points="313.5,-971.7 313.5,-994.7 497.5,-994.7 497.5,-971.7 313.5,-971.7"/>
<text text-anchor="start" x="318.5" y="-980.3" font-family="Helvetica,sans-Serif" font-weight="bold" font-size="11.00" fill="#000000">identified_need_audit</text>
<text text-anchor="start" x="463.0219" y="-979.8" font-family="Helvetica,sans-Serif" font-size="11.00" fill="#000000">[table]</text>
<polygon fill="none" stroke="#000000" points="313.5,-952.7 313.5,-971.7 497.5,-971.7 497.5,-952.7 313.5,-952.7"/>
<text text-anchor="start" x="316.5" y="-958.8" font-family="Helvetica,sans-Serif" font-size="11.00" fill="#000000">...</text>
<polygon fill="#ffffff" stroke="transparent" points="313.5,-933.7 313.5,-952.7 403.5,-952.7 403.5,-933.7 313.5,-933.7"/>
<polygon fill="none" stroke="#000000" points="313.5,-933.7 313.5,-952.7 403.5,-952.7 403.5,-933.7 313.5,-933.7"/>
<text text-anchor="start" x="316.5" y="-939.8" font-family="Helvetica,sans-Serif" font-size="11.00" fill="#000000">&lt; 1</text>
<polygon fill="#ffffff" stroke="transparent" points="403.5,-933.7 403.5,-952.7 450.5,-952.7 450.5,-933.7 403.5,-933.7"/>
<polygon fill="none" stroke="#000000" points="403.5,-933.7 403.5,-952.7 450.5,-952.7 450.5,-933.7 403.5,-933.7"/>
<text text-anchor="start" x="441.3862" y="-939.8" font-family="Helvetica,sans-Serif" font-size="11.00" fill="#000000"> &#160;</text>
<polygon fill="#ffffff" stroke="transparent" points="450.5,-933.7 450.5,-952.7 497.5,-952.7 497.5,-933.7 450.5,-933.7"/>
<polygon fill="none" stroke="#000000" points="450.5,-933.7 450.5,-952.7 497.5,-952.7 497.5,-933.7 450.5,-933.7"/>
<text text-anchor="start" x="488.3862" y="-939.8" font-family="Helvetica,sans-Serif" font-size="11.00" fill="#000000"> &#160;</text>
</a>
</g>
</g>
<!-- identified_need_audit&#45;&gt;audit_revision -->
<g id="edge5" class="edge">
<title>identified_need_audit:w&#45;&gt;audit_revision:e</title>
<path fill="none" stroke="#000000" d="M298.7832,-961.2446C263.3634,-958.8576 249.47,-947.0017 215,-923.7 192.8555,-908.7303 200.7296,-879.7 174,-879.7"/>
<polygon fill="#000000" stroke="#000000" points="305.5038,-961.4525 313.3886,-965.2983 309.5019,-961.5763 313.5,-961.7 313.5,-961.7 313.5,-961.7 309.5019,-961.5763 313.6114,-958.1017 305.5038,-961.4525 305.5038,-961.4525"/>
<ellipse fill="none" stroke="#000000" cx="302.3054" cy="-961.3535" rx="3.2" ry="3.2"/>
</g>
<!-- interview_audit -->
<g id="node7" class="node">
<title>interview_audit</title>
<g id="a_node7"><a xlink:href="../../tables/interview_audit.html" xlink:title="interview_audit" target="_top">
<polygon fill="#ffffff" stroke="transparent" points="334,-852.2 334,-913.2 477,-913.2 477,-852.2 334,-852.2"/>
<polygon fill="#f5f5f5" stroke="transparent" points="334.5,-889.7 334.5,-912.7 477.5,-912.7 477.5,-889.7 334.5,-889.7"/>
<polygon fill="none" stroke="#000000" points="334.5,-889.7 334.5,-912.7 477.5,-912.7 477.5,-889.7 334.5,-889.7"/>
<text text-anchor="start" x="339.5" y="-898.3" font-family="Helvetica,sans-Serif" font-weight="bold" font-size="11.00" fill="#000000">interview_audit</text>
<text text-anchor="start" x="443.0219" y="-897.8" font-family="Helvetica,sans-Serif" font-size="11.00" fill="#000000">[table]</text>
<polygon fill="none" stroke="#000000" points="334.5,-870.7 334.5,-889.7 477.5,-889.7 477.5,-870.7 334.5,-870.7"/>
<text text-anchor="start" x="337.5" y="-876.8" font-family="Helvetica,sans-Serif" font-size="11.00" fill="#000000">...</text>
<polygon fill="#ffffff" stroke="transparent" points="334.5,-851.7 334.5,-870.7 404.5,-870.7 404.5,-851.7 334.5,-851.7"/>
<polygon fill="none" stroke="#000000" points="334.5,-851.7 334.5,-870.7 404.5,-870.7 404.5,-851.7 334.5,-851.7"/>
<text text-anchor="start" x="337.5" y="-857.8" font-family="Helvetica,sans-Serif" font-size="11.00" fill="#000000">&lt; 1</text>
<polygon fill="#ffffff" stroke="transparent" points="404.5,-851.7 404.5,-870.7 440.5,-870.7 440.5,-851.7 404.5,-851.7"/>
<polygon fill="none" stroke="#000000" points="404.5,-851.7 404.5,-870.7 440.5,-870.7 440.5,-851.7 404.5,-851.7"/>
<text text-anchor="start" x="431.3862" y="-857.8" font-family="Helvetica,sans-Serif" font-size="11.00" fill="#000000"> &#160;</text>
<polygon fill="#ffffff" stroke="transparent" points="440.5,-851.7 440.5,-870.7 477.5,-870.7 477.5,-851.7 440.5,-851.7"/>
<polygon fill="none" stroke="#000000" points="440.5,-851.7 440.5,-870.7 477.5,-870.7 477.5,-851.7 440.5,-851.7"/>
<text text-anchor="start" x="468.3862" y="-857.8" font-family="Helvetica,sans-Serif" font-size="11.00" fill="#000000"> &#160;</text>
</a>
</g>
</g>
<!-- interview_audit&#45;&gt;audit_revision -->
<g id="edge6" class="edge">
<title>interview_audit:w&#45;&gt;audit_revision:e</title>
<path fill="none" stroke="#000000" d="M319.833,-879.7C260.3098,-879.7 240.1784,-879.7 174,-879.7"/>
<polygon fill="#000000" stroke="#000000" points="326.5,-879.7001 334.5,-883.3 330.5,-879.7 334.5,-879.7 334.5,-879.7 334.5,-879.7 330.5,-879.7 334.5,-876.1 326.5,-879.7001 326.5,-879.7001"/>
<ellipse fill="none" stroke="#000000" cx="323.3" cy="-879.7001" rx="3.2" ry="3.2"/>
</g>
<!-- investigation_audit -->
<g id="node8" class="node">
<title>investigation_audit</title>
<g id="a_node8"><a xlink:href="../../tables/investigation_audit.html" xlink:title="investigation_audit" target="_top">
<polygon fill="#ffffff" stroke="transparent" points="223,-366.7 223,-830.7 588,-830.7 588,-366.7 223,-366.7"/>
<polygon fill="#f5f5f5" stroke="transparent" points="225.5,-805.7 225.5,-828.7 586.5,-828.7 586.5,-805.7 225.5,-805.7"/>
<polygon fill="none" stroke="#000000" points="225.5,-805.7 225.5,-828.7 586.5,-828.7 586.5,-805.7 225.5,-805.7"/>
<text text-anchor="start" x="230.5" y="-814.3" font-family="Helvetica,sans-Serif" font-weight="bold" font-size="11.00" fill="#000000">investigation_audit</text>
<text text-anchor="start" x="551.5437" y="-813.8" font-family="Helvetica,sans-Serif" font-size="11.00" fill="#000000">[table]</text>
<polygon fill="none" stroke="#000000" points="225.5,-783.7 225.5,-805.7 492.5,-805.7 492.5,-783.7 225.5,-783.7"/>
<image xlink:href="../../images/primaryKeys.png" width="11px" height="12px" preserveAspectRatio="xMinYMin meet" x="230.5" y="-800.7"/>
<text text-anchor="start" x="245.5" y="-790.8" font-family="Helvetica,sans-Serif" font-size="11.00" fill="#000000">rev_id</text>
<polygon fill="none" stroke="#000000" points="492.5,-783.7 492.5,-805.7 586.5,-805.7 586.5,-783.7 492.5,-783.7"/>
<text text-anchor="start" x="495.5" y="-791.4" font-family="Helvetica,sans-Serif" font-size="11.00" fill="#000000">int8[19]</text>
<polygon fill="none" stroke="#000000" points="225.5,-761.7 225.5,-783.7 492.5,-783.7 492.5,-761.7 225.5,-761.7"/>
<text text-anchor="start" x="245.5" y="-768.8" font-family="Helvetica,sans-Serif" font-size="11.00" fill="#000000">rev_type</text>
<polygon fill="none" stroke="#000000" points="492.5,-761.7 492.5,-783.7 586.5,-783.7 586.5,-761.7 492.5,-761.7"/>
<text text-anchor="start" x="495.5" y="-769.4" font-family="Helvetica,sans-Serif" font-size="11.00" fill="#000000">int2[5]</text>
<polygon fill="none" stroke="#000000" points="225.5,-739.7 225.5,-761.7 492.5,-761.7 492.5,-739.7 225.5,-739.7"/>
<image xlink:href="../../images/primaryKeys.png" width="11px" height="12px" preserveAspectRatio="xMinYMin meet" x="230.5" y="-756.7"/>
<text text-anchor="start" x="245.5" y="-746.8" font-family="Helvetica,sans-Serif" font-size="11.00" fill="#000000">investigation_id</text>
<polygon fill="none" stroke="#000000" points="492.5,-739.7 492.5,-761.7 586.5,-761.7 586.5,-739.7 492.5,-739.7"/>
<text text-anchor="start" x="495.4758" y="-747.4" font-family="Helvetica,sans-Serif" font-size="11.00" fill="#000000">uuid[2147483647]</text>
<polygon fill="none" stroke="#000000" points="225.5,-717.7 225.5,-739.7 492.5,-739.7 492.5,-717.7 225.5,-717.7"/>
<text text-anchor="start" x="245.5" y="-724.8" font-family="Helvetica,sans-Serif" font-size="11.00" fill="#000000">staff_involved</text>
<polygon fill="none" stroke="#000000" points="492.5,-717.7 492.5,-739.7 586.5,-739.7 586.5,-717.7 492.5,-717.7"/>
<text text-anchor="start" x="495.5" y="-725.4" font-family="Helvetica,sans-Serif" font-size="11.00" fill="#000000">text[2147483647]</text>
<polygon fill="none" stroke="#000000" points="225.5,-695.7 225.5,-717.7 492.5,-717.7 492.5,-695.7 225.5,-695.7"/>
<text text-anchor="start" x="245.5" y="-702.8" font-family="Helvetica,sans-Serif" font-size="11.00" fill="#000000">evidence_secured</text>
<polygon fill="none" stroke="#000000" points="492.5,-695.7 492.5,-717.7 586.5,-717.7 586.5,-695.7 492.5,-695.7"/>
<text text-anchor="start" x="495.5" y="-703.4" font-family="Helvetica,sans-Serif" font-size="11.00" fill="#000000">text[2147483647]</text>
<polygon fill="none" stroke="#000000" points="225.5,-673.7 225.5,-695.7 492.5,-695.7 492.5,-673.7 225.5,-673.7"/>
<text text-anchor="start" x="245.5" y="-680.8" font-family="Helvetica,sans-Serif" font-size="11.00" fill="#000000">occurrence_reason</text>
<polygon fill="none" stroke="#000000" points="492.5,-673.7 492.5,-695.7 586.5,-695.7 586.5,-673.7 492.5,-673.7"/>
<text text-anchor="start" x="495.5" y="-681.4" font-family="Helvetica,sans-Serif" font-size="11.00" fill="#000000">text[2147483647]</text>
<polygon fill="none" stroke="#000000" points="225.5,-651.7 225.5,-673.7 492.5,-673.7 492.5,-651.7 225.5,-651.7"/>
<text text-anchor="start" x="245.5" y="-658.8" font-family="Helvetica,sans-Serif" font-size="11.00" fill="#000000">persons_usual_behaviour</text>
<polygon fill="none" stroke="#000000" points="492.5,-651.7 492.5,-673.7 586.5,-673.7 586.5,-651.7 492.5,-651.7"/>
<text text-anchor="start" x="495.5" y="-659.4" font-family="Helvetica,sans-Serif" font-size="11.00" fill="#000000">text[2147483647]</text>
<polygon fill="none" stroke="#000000" points="225.5,-629.7 225.5,-651.7 492.5,-651.7 492.5,-629.7 225.5,-629.7"/>
<text text-anchor="start" x="245.5" y="-636.8" font-family="Helvetica,sans-Serif" font-size="11.00" fill="#000000">persons_trigger</text>
<polygon fill="none" stroke="#000000" points="492.5,-629.7 492.5,-651.7 586.5,-651.7 586.5,-629.7 492.5,-629.7"/>
<text text-anchor="start" x="495.5" y="-637.4" font-family="Helvetica,sans-Serif" font-size="11.00" fill="#000000">text[2147483647]</text>
<polygon fill="none" stroke="#000000" points="225.5,-607.7 225.5,-629.7 492.5,-629.7 492.5,-607.7 225.5,-607.7"/>
<text text-anchor="start" x="245.5" y="-614.8" font-family="Helvetica,sans-Serif" font-size="11.00" fill="#000000">protective_factors</text>
<polygon fill="none" stroke="#000000" points="492.5,-607.7 492.5,-629.7 586.5,-629.7 586.5,-607.7 492.5,-607.7"/>
<text text-anchor="start" x="495.5" y="-615.4" font-family="Helvetica,sans-Serif" font-size="11.00" fill="#000000">text[2147483647]</text>
<polygon fill="none" stroke="#000000" points="225.5,-585.7 225.5,-607.7 492.5,-607.7 492.5,-585.7 225.5,-585.7"/>
<text text-anchor="start" x="245.5" y="-592.8" font-family="Helvetica,sans-Serif" font-size="11.00" fill="#000000">staff_involved_modified</text>
<polygon fill="none" stroke="#000000" points="492.5,-585.7 492.5,-607.7 586.5,-607.7 586.5,-585.7 492.5,-585.7"/>
<text text-anchor="start" x="495.5" y="-593.4" font-family="Helvetica,sans-Serif" font-size="11.00" fill="#000000">bool[1]</text>
<polygon fill="none" stroke="#000000" points="225.5,-563.7 225.5,-585.7 492.5,-585.7 492.5,-563.7 225.5,-563.7"/>
<text text-anchor="start" x="245.5" y="-570.8" font-family="Helvetica,sans-Serif" font-size="11.00" fill="#000000">evidence_secured_modified</text>
<polygon fill="none" stroke="#000000" points="492.5,-563.7 492.5,-585.7 586.5,-585.7 586.5,-563.7 492.5,-563.7"/>
<text text-anchor="start" x="495.5" y="-571.4" font-family="Helvetica,sans-Serif" font-size="11.00" fill="#000000">bool[1]</text>
<polygon fill="none" stroke="#000000" points="225.5,-541.7 225.5,-563.7 492.5,-563.7 492.5,-541.7 225.5,-541.7"/>
<text text-anchor="start" x="245.5" y="-548.8" font-family="Helvetica,sans-Serif" font-size="11.00" fill="#000000">occurrence_reason_modified</text>
<polygon fill="none" stroke="#000000" points="492.5,-541.7 492.5,-563.7 586.5,-563.7 586.5,-541.7 492.5,-541.7"/>
<text text-anchor="start" x="495.5" y="-549.4" font-family="Helvetica,sans-Serif" font-size="11.00" fill="#000000">bool[1]</text>
<polygon fill="none" stroke="#000000" points="225.5,-519.7 225.5,-541.7 492.5,-541.7 492.5,-519.7 225.5,-519.7"/>
<text text-anchor="start" x="245.5" y="-526.8" font-family="Helvetica,sans-Serif" font-size="11.00" fill="#000000">persons_usual_behaviour_modified</text>
<polygon fill="none" stroke="#000000" points="492.5,-519.7 492.5,-541.7 586.5,-541.7 586.5,-519.7 492.5,-519.7"/>
<text text-anchor="start" x="495.5" y="-527.4" font-family="Helvetica,sans-Serif" font-size="11.00" fill="#000000">bool[1]</text>
<polygon fill="none" stroke="#000000" points="225.5,-497.7 225.5,-519.7 492.5,-519.7 492.5,-497.7 225.5,-497.7"/>
<text text-anchor="start" x="245.5" y="-504.8" font-family="Helvetica,sans-Serif" font-size="11.00" fill="#000000">persons_trigger_modified</text>
<polygon fill="none" stroke="#000000" points="492.5,-497.7 492.5,-519.7 586.5,-519.7 586.5,-497.7 492.5,-497.7"/>
<text text-anchor="start" x="495.5" y="-505.4" font-family="Helvetica,sans-Serif" font-size="11.00" fill="#000000">bool[1]</text>
<polygon fill="none" stroke="#000000" points="225.5,-475.7 225.5,-497.7 492.5,-497.7 492.5,-475.7 225.5,-475.7"/>
<text text-anchor="start" x="245.5" y="-482.8" font-family="Helvetica,sans-Serif" font-size="11.00" fill="#000000">protective_factors_modified</text>
<polygon fill="none" stroke="#000000" points="492.5,-475.7 492.5,-497.7 586.5,-497.7 586.5,-475.7 492.5,-475.7"/>
<text text-anchor="start" x="495.5" y="-483.4" font-family="Helvetica,sans-Serif" font-size="11.00" fill="#000000">bool[1]</text>
<polygon fill="none" stroke="#000000" points="225.5,-453.7 225.5,-475.7 492.5,-475.7 492.5,-453.7 225.5,-453.7"/>
<text text-anchor="start" x="245.5" y="-460.8" font-family="Helvetica,sans-Serif" font-size="11.00" fill="#000000">recorded_by</text>
<polygon fill="none" stroke="#000000" points="492.5,-453.7 492.5,-475.7 586.5,-475.7 586.5,-453.7 492.5,-453.7"/>
<text text-anchor="start" x="495.5" y="-461.4" font-family="Helvetica,sans-Serif" font-size="11.00" fill="#000000">varchar[64]</text>
<polygon fill="none" stroke="#000000" points="225.5,-431.7 225.5,-453.7 492.5,-453.7 492.5,-431.7 225.5,-431.7"/>
<text text-anchor="start" x="245.5" y="-438.8" font-family="Helvetica,sans-Serif" font-size="11.00" fill="#000000">recorded_by_display_name</text>
<polygon fill="none" stroke="#000000" points="492.5,-431.7 492.5,-453.7 586.5,-453.7 586.5,-431.7 492.5,-431.7"/>
<text text-anchor="start" x="495.5" y="-439.4" font-family="Helvetica,sans-Serif" font-size="11.00" fill="#000000">varchar[255]</text>
<polygon fill="none" stroke="#000000" points="225.5,-409.7 225.5,-431.7 492.5,-431.7 492.5,-409.7 225.5,-409.7"/>
<text text-anchor="start" x="245.5" y="-416.8" font-family="Helvetica,sans-Serif" font-size="11.00" fill="#000000">recorded_by_modified</text>
<polygon fill="none" stroke="#000000" points="492.5,-409.7 492.5,-431.7 586.5,-431.7 586.5,-409.7 492.5,-409.7"/>
<text text-anchor="start" x="495.5" y="-417.4" font-family="Helvetica,sans-Serif" font-size="11.00" fill="#000000">bool[1]</text>
<polygon fill="none" stroke="#000000" points="225.5,-387.7 225.5,-409.7 492.5,-409.7 492.5,-387.7 225.5,-387.7"/>
<text text-anchor="start" x="245.5" y="-394.8" font-family="Helvetica,sans-Serif" font-size="11.00" fill="#000000">recorded_by_display_name_modified</text>
<polygon fill="none" stroke="#000000" points="492.5,-387.7 492.5,-409.7 586.5,-409.7 586.5,-387.7 492.5,-387.7"/>
<text text-anchor="start" x="495.5" y="-395.4" font-family="Helvetica,sans-Serif" font-size="11.00" fill="#000000">bool[1]</text>
<polygon fill="#ffffff" stroke="transparent" points="225.5,-368.7 225.5,-387.7 363.5,-387.7 363.5,-368.7 225.5,-368.7"/>
<polygon fill="none" stroke="#000000" points="225.5,-368.7 225.5,-387.7 363.5,-387.7 363.5,-368.7 225.5,-368.7"/>
<text text-anchor="start" x="228.5" y="-374.8" font-family="Helvetica,sans-Serif" font-size="11.00" fill="#000000">&lt; 1</text>
<polygon fill="#ffffff" stroke="transparent" points="363.5,-368.7 363.5,-387.7 492.5,-387.7 492.5,-368.7 363.5,-368.7"/>
<polygon fill="none" stroke="#000000" points="363.5,-368.7 363.5,-387.7 492.5,-387.7 492.5,-368.7 363.5,-368.7"/>
<text text-anchor="start" x="483.3862" y="-374.8" font-family="Helvetica,sans-Serif" font-size="11.00" fill="#000000"> &#160;</text>
<polygon fill="#ffffff" stroke="transparent" points="492.5,-368.7 492.5,-387.7 586.5,-387.7 586.5,-368.7 492.5,-368.7"/>
<polygon fill="none" stroke="#000000" points="492.5,-368.7 492.5,-387.7 586.5,-387.7 586.5,-368.7 492.5,-368.7"/>
<text text-anchor="start" x="567.9053" y="-374.8" font-family="Helvetica,sans-Serif" font-size="11.00" fill="#000000">0 &gt;</text>
<polygon fill="none" stroke="#000000" stroke-width="2" points="224,-367.7 224,-829.7 587,-829.7 587,-367.7 224,-367.7"/>
</a>
</g>
</g>
<!-- investigation_audit&#45;&gt;audit_revision -->
<g id="edge7" class="edge">
<title>investigation_audit:w&#45;&gt;audit_revision:e</title>
<path fill="none" stroke="#000000" d="M211.5119,-799.032C189.8888,-816.3534 212.1318,-879.7 174,-879.7"/>
<polygon fill="#000000" stroke="#000000" points="217.8581,-797.0667 226.565,-798.1389 221.679,-795.8833 225.5,-794.7 225.5,-794.7 225.5,-794.7 221.679,-795.8833 224.435,-791.2611 217.8581,-797.0667 217.8581,-797.0667"/>
<ellipse fill="none" stroke="#000000" cx="214.8013" cy="-798.0134" rx="3.2" ry="3.2"/>
</g>
<!-- plan_audit -->
<g id="node9" class="node">
<title>plan_audit</title>
<g id="a_node9"><a xlink:href="../../tables/plan_audit.html" xlink:title="plan_audit" target="_top">
<polygon fill="#ffffff" stroke="transparent" points="351,-284.2 351,-345.2 460,-345.2 460,-284.2 351,-284.2"/>
<polygon fill="#f5f5f5" stroke="transparent" points="351.5,-321.7 351.5,-344.7 460.5,-344.7 460.5,-321.7 351.5,-321.7"/>
<polygon fill="none" stroke="#000000" points="351.5,-321.7 351.5,-344.7 460.5,-344.7 460.5,-321.7 351.5,-321.7"/>
<text text-anchor="start" x="356.5" y="-330.3" font-family="Helvetica,sans-Serif" font-weight="bold" font-size="11.00" fill="#000000">plan_audit</text>
<text text-anchor="start" x="426.0219" y="-329.8" font-family="Helvetica,sans-Serif" font-size="11.00" fill="#000000">[table]</text>
<polygon fill="none" stroke="#000000" points="351.5,-302.7 351.5,-321.7 460.5,-321.7 460.5,-302.7 351.5,-302.7"/>
<text text-anchor="start" x="354.5" y="-308.8" font-family="Helvetica,sans-Serif" font-size="11.00" fill="#000000">...</text>
<polygon fill="#ffffff" stroke="transparent" points="351.5,-283.7 351.5,-302.7 404.5,-302.7 404.5,-283.7 351.5,-283.7"/>
<polygon fill="none" stroke="#000000" points="351.5,-283.7 351.5,-302.7 404.5,-302.7 404.5,-283.7 351.5,-283.7"/>
<text text-anchor="start" x="354.5" y="-289.8" font-family="Helvetica,sans-Serif" font-size="11.00" fill="#000000">&lt; 1</text>
<polygon fill="#ffffff" stroke="transparent" points="404.5,-283.7 404.5,-302.7 432.5,-302.7 432.5,-283.7 404.5,-283.7"/>
<polygon fill="none" stroke="#000000" points="404.5,-283.7 404.5,-302.7 432.5,-302.7 432.5,-283.7 404.5,-283.7"/>
<text text-anchor="start" x="423.3862" y="-289.8" font-family="Helvetica,sans-Serif" font-size="11.00" fill="#000000"> &#160;</text>
<polygon fill="#ffffff" stroke="transparent" points="432.5,-283.7 432.5,-302.7 460.5,-302.7 460.5,-283.7 432.5,-283.7"/>
<polygon fill="none" stroke="#000000" points="432.5,-283.7 432.5,-302.7 460.5,-302.7 460.5,-283.7 432.5,-283.7"/>
<text text-anchor="start" x="451.3862" y="-289.8" font-family="Helvetica,sans-Serif" font-size="11.00" fill="#000000"> &#160;</text>
</a>
</g>
</g>
<!-- plan_audit&#45;&gt;audit_revision -->
<g id="edge8" class="edge">
<title>plan_audit:w&#45;&gt;audit_revision:e</title>
<path fill="none" stroke="#000000" d="M337.0728,-311.6327C282.3976,-311.2176 251.3507,-310.3707 215,-356.7 179.0187,-402.5585 232.2894,-879.7 174,-879.7"/>
<polygon fill="#000000" stroke="#000000" points="343.5001,-311.6627 351.4832,-315.3 347.5,-311.6813 351.5,-311.7 351.5,-311.7 351.5,-311.7 347.5,-311.6813 351.5168,-308.1 343.5001,-311.6627 343.5001,-311.6627"/>
<ellipse fill="none" stroke="#000000" cx="340.3001" cy="-311.6477" rx="3.2" ry="3.2"/>
</g>
<!-- referral_audit -->
<g id="node10" class="node">
<title>referral_audit</title>
<g id="a_node10"><a xlink:href="../../tables/referral_audit.html" xlink:title="referral_audit" target="_top">
<polygon fill="#ffffff" stroke="transparent" points="340,-202.2 340,-263.2 471,-263.2 471,-202.2 340,-202.2"/>
<polygon fill="#f5f5f5" stroke="transparent" points="340.5,-239.7 340.5,-262.7 471.5,-262.7 471.5,-239.7 340.5,-239.7"/>
<polygon fill="none" stroke="#000000" points="340.5,-239.7 340.5,-262.7 471.5,-262.7 471.5,-239.7 340.5,-239.7"/>
<text text-anchor="start" x="345.5" y="-248.3" font-family="Helvetica,sans-Serif" font-weight="bold" font-size="11.00" fill="#000000">referral_audit</text>
<text text-anchor="start" x="437.0219" y="-247.8" font-family="Helvetica,sans-Serif" font-size="11.00" fill="#000000">[table]</text>
<polygon fill="none" stroke="#000000" points="340.5,-220.7 340.5,-239.7 471.5,-239.7 471.5,-220.7 340.5,-220.7"/>
<text text-anchor="start" x="343.5" y="-226.8" font-family="Helvetica,sans-Serif" font-size="11.00" fill="#000000">...</text>
<polygon fill="#ffffff" stroke="transparent" points="340.5,-201.7 340.5,-220.7 404.5,-220.7 404.5,-201.7 340.5,-201.7"/>
<polygon fill="none" stroke="#000000" points="340.5,-201.7 340.5,-220.7 404.5,-220.7 404.5,-201.7 340.5,-201.7"/>
<text text-anchor="start" x="343.5" y="-207.8" font-family="Helvetica,sans-Serif" font-size="11.00" fill="#000000">&lt; 1</text>
<polygon fill="#ffffff" stroke="transparent" points="404.5,-201.7 404.5,-220.7 437.5,-220.7 437.5,-201.7 404.5,-201.7"/>
<polygon fill="none" stroke="#000000" points="404.5,-201.7 404.5,-220.7 437.5,-220.7 437.5,-201.7 404.5,-201.7"/>
<text text-anchor="start" x="428.3862" y="-207.8" font-family="Helvetica,sans-Serif" font-size="11.00" fill="#000000"> &#160;</text>
<polygon fill="#ffffff" stroke="transparent" points="437.5,-201.7 437.5,-220.7 471.5,-220.7 471.5,-201.7 437.5,-201.7"/>
<polygon fill="none" stroke="#000000" points="437.5,-201.7 437.5,-220.7 471.5,-220.7 471.5,-201.7 437.5,-201.7"/>
<text text-anchor="start" x="462.3862" y="-207.8" font-family="Helvetica,sans-Serif" font-size="11.00" fill="#000000"> &#160;</text>
</a>
</g>
</g>
<!-- referral_audit&#45;&gt;audit_revision -->
<g id="edge9" class="edge">
<title>referral_audit:w&#45;&gt;audit_revision:e</title>
<path fill="none" stroke="#000000" d="M325.8719,-229.6665C276.0964,-229.5484 247.721,-230.7086 215,-273.7 174.1269,-327.4022 241.4873,-879.7 174,-879.7"/>
<polygon fill="#000000" stroke="#000000" points="332.5,-229.6816 340.4917,-233.3 336.5,-229.6908 340.5,-229.7 340.5,-229.7 340.5,-229.7 336.5,-229.6908 340.5083,-226.1 332.5,-229.6816 332.5,-229.6816"/>
<ellipse fill="none" stroke="#000000" cx="329.3" cy="-229.6743" rx="3.2" ry="3.2"/>
</g>
<!-- review_audit -->
<g id="node11" class="node">
<title>review_audit</title>
<g id="a_node11"><a xlink:href="../../tables/review_audit.html" xlink:title="review_audit" target="_top">
<polygon fill="#ffffff" stroke="transparent" points="343,-120.2 343,-181.2 468,-181.2 468,-120.2 343,-120.2"/>
<polygon fill="#f5f5f5" stroke="transparent" points="343.5,-157.7 343.5,-180.7 468.5,-180.7 468.5,-157.7 343.5,-157.7"/>
<polygon fill="none" stroke="#000000" points="343.5,-157.7 343.5,-180.7 468.5,-180.7 468.5,-157.7 343.5,-157.7"/>
<text text-anchor="start" x="348.5" y="-166.3" font-family="Helvetica,sans-Serif" font-weight="bold" font-size="11.00" fill="#000000">review_audit</text>
<text text-anchor="start" x="434.0219" y="-165.8" font-family="Helvetica,sans-Serif" font-size="11.00" fill="#000000">[table]</text>
<polygon fill="none" stroke="#000000" points="343.5,-138.7 343.5,-157.7 468.5,-157.7 468.5,-138.7 343.5,-138.7"/>
<text text-anchor="start" x="346.5" y="-144.8" font-family="Helvetica,sans-Serif" font-size="11.00" fill="#000000">...</text>
<polygon fill="#ffffff" stroke="transparent" points="343.5,-119.7 343.5,-138.7 404.5,-138.7 404.5,-119.7 343.5,-119.7"/>
<polygon fill="none" stroke="#000000" points="343.5,-119.7 343.5,-138.7 404.5,-138.7 404.5,-119.7 343.5,-119.7"/>
<text text-anchor="start" x="346.5" y="-125.8" font-family="Helvetica,sans-Serif" font-size="11.00" fill="#000000">&lt; 1</text>
<polygon fill="#ffffff" stroke="transparent" points="404.5,-119.7 404.5,-138.7 436.5,-138.7 436.5,-119.7 404.5,-119.7"/>
<polygon fill="none" stroke="#000000" points="404.5,-119.7 404.5,-138.7 436.5,-138.7 436.5,-119.7 404.5,-119.7"/>
<text text-anchor="start" x="427.3862" y="-125.8" font-family="Helvetica,sans-Serif" font-size="11.00" fill="#000000"> &#160;</text>
<polygon fill="#ffffff" stroke="transparent" points="436.5,-119.7 436.5,-138.7 468.5,-138.7 468.5,-119.7 436.5,-119.7"/>
<polygon fill="none" stroke="#000000" points="436.5,-119.7 436.5,-138.7 468.5,-138.7 468.5,-119.7 436.5,-119.7"/>
<text text-anchor="start" x="459.3862" y="-125.8" font-family="Helvetica,sans-Serif" font-size="11.00" fill="#000000"> &#160;</text>
</a>
</g>
</g>
<!-- review_audit&#45;&gt;audit_revision -->
<g id="edge10" class="edge">
<title>review_audit:w&#45;&gt;audit_revision:e</title>
<path fill="none" stroke="#000000" d="M328.8794,-147.6476C277.7925,-147.3874 248.4739,-147.6863 215,-191.7 168.642,-252.6544 250.5801,-879.7 174,-879.7"/>
<polygon fill="#000000" stroke="#000000" points="335.5001,-147.6713 343.4871,-151.3 339.5,-147.6856 343.5,-147.7 343.5,-147.7 343.5,-147.7 339.5,-147.6856 343.5129,-144.1 335.5001,-147.6713 335.5001,-147.6713"/>
<ellipse fill="none" stroke="#000000" cx="332.3001" cy="-147.6598" rx="3.2" ry="3.2"/>
</g>
<!-- safer_custody_screening_outcome_audit -->
<g id="node12" class="node">
<title>safer_custody_screening_outcome_audit</title>
<g id="a_node12"><a xlink:href="../../tables/safer_custody_screening_outcome_audit.html" xlink:title="safer_custody_screening_outcome_audit" target="_top">
<polygon fill="#ffffff" stroke="transparent" points="250.5,-38.2 250.5,-99.2 560.5,-99.2 560.5,-38.2 250.5,-38.2"/>
<polygon fill="#f5f5f5" stroke="transparent" points="250.5,-75.7 250.5,-98.7 560.5,-98.7 560.5,-75.7 250.5,-75.7"/>
<polygon fill="none" stroke="#000000" points="250.5,-75.7 250.5,-98.7 560.5,-98.7 560.5,-75.7 250.5,-75.7"/>
<text text-anchor="start" x="255.5" y="-84.3" font-family="Helvetica,sans-Serif" font-weight="bold" font-size="11.00" fill="#000000">safer_custody_screening_outcome_audit</text>
<text text-anchor="start" x="526.0219" y="-83.8" font-family="Helvetica,sans-Serif" font-size="11.00" fill="#000000">[table]</text>
<polygon fill="none" stroke="#000000" points="250.5,-56.7 250.5,-75.7 560.5,-75.7 560.5,-56.7 250.5,-56.7"/>
<text text-anchor="start" x="253.5" y="-62.8" font-family="Helvetica,sans-Serif" font-size="11.00" fill="#000000">...</text>
<polygon fill="#ffffff" stroke="transparent" points="250.5,-37.7 250.5,-56.7 403.5,-56.7 403.5,-37.7 250.5,-37.7"/>
<polygon fill="none" stroke="#000000" points="250.5,-37.7 250.5,-56.7 403.5,-56.7 403.5,-37.7 250.5,-37.7"/>
<text text-anchor="start" x="253.5" y="-43.8" font-family="Helvetica,sans-Serif" font-size="11.00" fill="#000000">&lt; 1</text>
<polygon fill="#ffffff" stroke="transparent" points="403.5,-37.7 403.5,-56.7 481.5,-56.7 481.5,-37.7 403.5,-37.7"/>
<polygon fill="none" stroke="#000000" points="403.5,-37.7 403.5,-56.7 481.5,-56.7 481.5,-37.7 403.5,-37.7"/>
<text text-anchor="start" x="472.3862" y="-43.8" font-family="Helvetica,sans-Serif" font-size="11.00" fill="#000000"> &#160;</text>
<polygon fill="#ffffff" stroke="transparent" points="481.5,-37.7 481.5,-56.7 560.5,-56.7 560.5,-37.7 481.5,-37.7"/>
<polygon fill="none" stroke="#000000" points="481.5,-37.7 481.5,-56.7 560.5,-56.7 560.5,-37.7 481.5,-37.7"/>
<text text-anchor="start" x="551.3862" y="-43.8" font-family="Helvetica,sans-Serif" font-size="11.00" fill="#000000"> &#160;</text>
</a>
</g>
</g>
<!-- safer_custody_screening_outcome_audit&#45;&gt;audit_revision -->
<g id="edge11" class="edge">
<title>safer_custody_screening_outcome_audit:w&#45;&gt;audit_revision:e</title>
<path fill="none" stroke="#000000" d="M236.3423,-68.8578C224.3082,-75.4877 221.8856,-91.7367 215,-109.7 199.6672,-149.7004 216.8384,-879.7 174,-879.7"/>
<polygon fill="#000000" stroke="#000000" points="242.6919,-67.4416 251.2837,-69.2137 246.5959,-66.5708 250.5,-65.7 250.5,-65.7 250.5,-65.7 246.5959,-66.5708 249.7163,-62.1863 242.6919,-67.4416 242.6919,-67.4416"/>
<ellipse fill="none" stroke="#000000" cx="239.5686" cy="-68.1382" rx="3.2" ry="3.2"/>
</g>
</g>
</svg>
