<?xml version="1.0" encoding="UTF-8" standalone="no"?>
<!DOCTYPE svg PUBLIC "-//W3C//DTD SVG 1.1//EN"
 "http://www.w3.org/Graphics/SVG/1.1/DTD/svg11.dtd">
<!-- Generated by graphviz version 2.40.1 (20161225.0304)
 -->
<!-- Title: oneDegreeRelationshipsDiagram Pages: 1 -->
<svg width="593pt" height="426pt"
 viewBox="0.00 0.00 593.00 426.20" xmlns="http://www.w3.org/2000/svg" xmlns:xlink="http://www.w3.org/1999/xlink">
<g id="graph0" class="graph" transform="scale(1 1) rotate(0) translate(4 422.2)">
<title>oneDegreeRelationshipsDiagram</title>
<polygon fill="#ffffff" stroke="transparent" points="-4,4 -4,-422.2 589,-422.2 589,4 -4,4"/>
<text text-anchor="middle" x="72.4936" y="-7.3" font-family="Helvetica,sans-Serif" font-size="11.00" fill="#000000">Generated by SchemaSpy</text>
<!-- investigation_audit -->
<g id="node1" class="node">
<title>investigation_audit</title>
<g id="a_node1"><a xlink:href="../../tables/investigation_audit.html" xlink:title="investigation_audit" target="_top">
<polygon fill="#ffffff" stroke="transparent" points="223,-38.2 223,-414.2 577,-414.2 577,-38.2 223,-38.2"/>
<polygon fill="#f5f5f5" stroke="transparent" points="225,-389.2 225,-412.2 575,-412.2 575,-389.2 225,-389.2"/>
<polygon fill="none" stroke="#000000" points="225,-389.2 225,-412.2 575,-412.2 575,-389.2 225,-389.2"/>
<text text-anchor="start" x="230" y="-397.8" font-family="Helvetica,sans-Serif" font-weight="bold" font-size="11.00" fill="#000000">investigation_audit</text>
<text text-anchor="start" x="540.0437" y="-397.3" font-family="Helvetica,sans-Serif" font-size="11.00" fill="#000000">[table]</text>
<polygon fill="none" stroke="#000000" points="225,-367.2 225,-389.2 481,-389.2 481,-367.2 225,-367.2"/>
<image xlink:href="../../images/primaryKeys.png" width="11px" height="12px" preserveAspectRatio="xMinYMin meet" x="230" y="-384.2"/>
<text text-anchor="start" x="245" y="-374.3" font-family="Helvetica,sans-Serif" font-size="11.00" fill="#000000">rev_id</text>
<polygon fill="none" stroke="#000000" points="481,-367.2 481,-389.2 575,-389.2 575,-367.2 481,-367.2"/>
<text text-anchor="start" x="484" y="-374.9" font-family="Helvetica,sans-Serif" font-size="11.00" fill="#000000">int8[19]</text>
<polygon fill="none" stroke="#000000" points="225,-345.2 225,-367.2 481,-367.2 481,-345.2 225,-345.2"/>
<text text-anchor="start" x="245" y="-352.3" font-family="Helvetica,sans-Serif" font-size="11.00" fill="#000000">rev_type</text>
<polygon fill="none" stroke="#000000" points="481,-345.2 481,-367.2 575,-367.2 575,-345.2 481,-345.2"/>
<text text-anchor="start" x="484" y="-352.9" font-family="Helvetica,sans-Serif" font-size="11.00" fill="#000000">int2[5]</text>
<polygon fill="none" stroke="#000000" points="225,-323.2 225,-345.2 481,-345.2 481,-323.2 225,-323.2"/>
<image xlink:href="../../images/primaryKeys.png" width="11px" height="12px" preserveAspectRatio="xMinYMin meet" x="230" y="-340.2"/>
<text text-anchor="start" x="245" y="-330.3" font-family="Helvetica,sans-Serif" font-size="11.00" fill="#000000">investigation_id</text>
<polygon fill="none" stroke="#000000" points="481,-323.2 481,-345.2 575,-345.2 575,-323.2 481,-323.2"/>
<text text-anchor="start" x="483.9758" y="-330.9" font-family="Helvetica,sans-Serif" font-size="11.00" fill="#000000">uuid[2147483647]</text>
<polygon fill="none" stroke="#000000" points="225,-301.2 225,-323.2 481,-323.2 481,-301.2 225,-301.2"/>
<text text-anchor="start" x="245" y="-308.3" font-family="Helvetica,sans-Serif" font-size="11.00" fill="#000000">staff_involved</text>
<polygon fill="none" stroke="#000000" points="481,-301.2 481,-323.2 575,-323.2 575,-301.2 481,-301.2"/>
<text text-anchor="start" x="484" y="-308.9" font-family="Helvetica,sans-Serif" font-size="11.00" fill="#000000">text[2147483647]</text>
<polygon fill="none" stroke="#000000" points="225,-279.2 225,-301.2 481,-301.2 481,-279.2 225,-279.2"/>
<text text-anchor="start" x="245" y="-286.3" font-family="Helvetica,sans-Serif" font-size="11.00" fill="#000000">evidence_secured</text>
<polygon fill="none" stroke="#000000" points="481,-279.2 481,-301.2 575,-301.2 575,-279.2 481,-279.2"/>
<text text-anchor="start" x="484" y="-286.9" font-family="Helvetica,sans-Serif" font-size="11.00" fill="#000000">text[2147483647]</text>
<polygon fill="none" stroke="#000000" points="225,-257.2 225,-279.2 481,-279.2 481,-257.2 225,-257.2"/>
<text text-anchor="start" x="245" y="-264.3" font-family="Helvetica,sans-Serif" font-size="11.00" fill="#000000">occurrence_reason</text>
<polygon fill="none" stroke="#000000" points="481,-257.2 481,-279.2 575,-279.2 575,-257.2 481,-257.2"/>
<text text-anchor="start" x="484" y="-264.9" font-family="Helvetica,sans-Serif" font-size="11.00" fill="#000000">text[2147483647]</text>
<polygon fill="none" stroke="#000000" points="225,-235.2 225,-257.2 481,-257.2 481,-235.2 225,-235.2"/>
<text text-anchor="start" x="245" y="-242.3" font-family="Helvetica,sans-Serif" font-size="11.00" fill="#000000">persons_usual_behaviour</text>
<polygon fill="none" stroke="#000000" points="481,-235.2 481,-257.2 575,-257.2 575,-235.2 481,-235.2"/>
<text text-anchor="start" x="484" y="-242.9" font-family="Helvetica,sans-Serif" font-size="11.00" fill="#000000">text[2147483647]</text>
<polygon fill="none" stroke="#000000" points="225,-213.2 225,-235.2 481,-235.2 481,-213.2 225,-213.2"/>
<text text-anchor="start" x="245" y="-220.3" font-family="Helvetica,sans-Serif" font-size="11.00" fill="#000000">persons_trigger</text>
<polygon fill="none" stroke="#000000" points="481,-213.2 481,-235.2 575,-235.2 575,-213.2 481,-213.2"/>
<text text-anchor="start" x="484" y="-220.9" font-family="Helvetica,sans-Serif" font-size="11.00" fill="#000000">text[2147483647]</text>
<polygon fill="none" stroke="#000000" points="225,-191.2 225,-213.2 481,-213.2 481,-191.2 225,-191.2"/>
<text text-anchor="start" x="245" y="-198.3" font-family="Helvetica,sans-Serif" font-size="11.00" fill="#000000">protective_factors</text>
<polygon fill="none" stroke="#000000" points="481,-191.2 481,-213.2 575,-213.2 575,-191.2 481,-191.2"/>
<text text-anchor="start" x="484" y="-198.9" font-family="Helvetica,sans-Serif" font-size="11.00" fill="#000000">text[2147483647]</text>
<polygon fill="none" stroke="#000000" points="225,-169.2 225,-191.2 481,-191.2 481,-169.2 225,-169.2"/>
<text text-anchor="start" x="245" y="-176.3" font-family="Helvetica,sans-Serif" font-size="11.00" fill="#000000">staff_involved_modified</text>
<polygon fill="none" stroke="#000000" points="481,-169.2 481,-191.2 575,-191.2 575,-169.2 481,-169.2"/>
<text text-anchor="start" x="484" y="-176.9" font-family="Helvetica,sans-Serif" font-size="11.00" fill="#000000">bool[1]</text>
<polygon fill="none" stroke="#000000" points="225,-147.2 225,-169.2 481,-169.2 481,-147.2 225,-147.2"/>
<text text-anchor="start" x="245" y="-154.3" font-family="Helvetica,sans-Serif" font-size="11.00" fill="#000000">evidence_secured_modified</text>
<polygon fill="none" stroke="#000000" points="481,-147.2 481,-169.2 575,-169.2 575,-147.2 481,-147.2"/>
<text text-anchor="start" x="484" y="-154.9" font-family="Helvetica,sans-Serif" font-size="11.00" fill="#000000">bool[1]</text>
<polygon fill="none" stroke="#000000" points="225,-125.2 225,-147.2 481,-147.2 481,-125.2 225,-125.2"/>
<text text-anchor="start" x="245" y="-132.3" font-family="Helvetica,sans-Serif" font-size="11.00" fill="#000000">occurrence_reason_modified</text>
<polygon fill="none" stroke="#000000" points="481,-125.2 481,-147.2 575,-147.2 575,-125.2 481,-125.2"/>
<text text-anchor="start" x="484" y="-132.9" font-family="Helvetica,sans-Serif" font-size="11.00" fill="#000000">bool[1]</text>
<polygon fill="none" stroke="#000000" points="225,-103.2 225,-125.2 481,-125.2 481,-103.2 225,-103.2"/>
<text text-anchor="start" x="245" y="-110.3" font-family="Helvetica,sans-Serif" font-size="11.00" fill="#000000">persons_usual_behaviour_modified</text>
<polygon fill="none" stroke="#000000" points="481,-103.2 481,-125.2 575,-125.2 575,-103.2 481,-103.2"/>
<text text-anchor="start" x="484" y="-110.9" font-family="Helvetica,sans-Serif" font-size="11.00" fill="#000000">bool[1]</text>
<polygon fill="none" stroke="#000000" points="225,-81.2 225,-103.2 481,-103.2 481,-81.2 225,-81.2"/>
<text text-anchor="start" x="245" y="-88.3" font-family="Helvetica,sans-Serif" font-size="11.00" fill="#000000">persons_trigger_modified</text>
<polygon fill="none" stroke="#000000" points="481,-81.2 481,-103.2 575,-103.2 575,-81.2 481,-81.2"/>
<text text-anchor="start" x="484" y="-88.9" font-family="Helvetica,sans-Serif" font-size="11.00" fill="#000000">bool[1]</text>
<polygon fill="none" stroke="#000000" points="225,-59.2 225,-81.2 481,-81.2 481,-59.2 225,-59.2"/>
<text text-anchor="start" x="245" y="-66.3" font-family="Helvetica,sans-Serif" font-size="11.00" fill="#000000">protective_factors_modified</text>
<polygon fill="none" stroke="#000000" points="481,-59.2 481,-81.2 575,-81.2 575,-59.2 481,-59.2"/>
<text text-anchor="start" x="484" y="-66.9" font-family="Helvetica,sans-Serif" font-size="11.00" fill="#000000">bool[1]</text>
<polygon fill="#ffffff" stroke="transparent" points="225,-40.2 225,-59.2 357,-59.2 357,-40.2 225,-40.2"/>
<polygon fill="none" stroke="#000000" points="225,-40.2 225,-59.2 357,-59.2 357,-40.2 225,-40.2"/>
<text text-anchor="start" x="228" y="-46.3" font-family="Helvetica,sans-Serif" font-size="11.00" fill="#000000">&lt; 1</text>
<polygon fill="#ffffff" stroke="transparent" points="357,-40.2 357,-59.2 481,-59.2 481,-40.2 357,-40.2"/>
<polygon fill="none" stroke="#000000" points="357,-40.2 357,-59.2 481,-59.2 481,-40.2 357,-40.2"/>
<text text-anchor="start" x="471.8862" y="-46.3" font-family="Helvetica,sans-Serif" font-size="11.00" fill="#000000"> &#160;</text>
<polygon fill="#ffffff" stroke="transparent" points="481,-40.2 481,-59.2 575,-59.2 575,-40.2 481,-40.2"/>
<polygon fill="none" stroke="#000000" points="481,-40.2 481,-59.2 575,-59.2 575,-40.2 481,-40.2"/>
<text text-anchor="start" x="556.4053" y="-46.3" font-family="Helvetica,sans-Serif" font-size="11.00" fill="#000000">0 &gt;</text>
<polygon fill="none" stroke="#000000" stroke-width="2" points="224,-39.2 224,-413.2 576,-413.2 576,-39.2 224,-39.2"/>
</a>
</g>
</g>
<!-- audit_revision -->
<g id="node2" class="node">
<title>audit_revision</title>
<g id="a_node2"><a xlink:href="../../tables/audit_revision.html" xlink:title="audit_revision" target="_top">
<polygon fill="#ffffff" stroke="transparent" points="8,-329.7 8,-412.7 174,-412.7 174,-329.7 8,-329.7"/>
<polygon fill="#f5f5f5" stroke="transparent" points="8,-389.2 8,-412.2 174,-412.2 174,-389.2 8,-389.2"/>
<polygon fill="none" stroke="#000000" points="8,-389.2 8,-412.2 174,-412.2 174,-389.2 8,-389.2"/>
<text text-anchor="start" x="13" y="-397.8" font-family="Helvetica,sans-Serif" font-weight="bold" font-size="11.00" fill="#000000">audit_revision</text>
<text text-anchor="start" x="139.0437" y="-397.3" font-family="Helvetica,sans-Serif" font-size="11.00" fill="#000000">[table]</text>
<polygon fill="none" stroke="#000000" points="8,-367.2 8,-389.2 174,-389.2 174,-367.2 8,-367.2"/>
<image xlink:href="../../images/primaryKeys.png" width="11px" height="12px" preserveAspectRatio="xMinYMin meet" x="13" y="-384.2"/>
<text text-anchor="start" x="28" y="-374.3" font-family="Helvetica,sans-Serif" font-size="11.00" fill="#000000">id</text>
<polygon fill="none" stroke="#000000" points="8,-348.2 8,-367.2 174,-367.2 174,-348.2 8,-348.2"/>
<text text-anchor="start" x="11" y="-354.3" font-family="Helvetica,sans-Serif" font-size="11.00" fill="#000000">...</text>
<polygon fill="#ffffff" stroke="transparent" points="8,-329.2 8,-348.2 77,-348.2 77,-329.2 8,-329.2"/>
<polygon fill="none" stroke="#000000" points="8,-329.2 8,-348.2 77,-348.2 77,-329.2 8,-329.2"/>
<text text-anchor="start" x="11" y="-335.3" font-family="Helvetica,sans-Serif" font-size="11.00" fill="#000000"> &#160;</text>
<polygon fill="#ffffff" stroke="transparent" points="77,-329.2 77,-348.2 118,-348.2 118,-329.2 77,-329.2"/>
<polygon fill="none" stroke="#000000" points="77,-329.2 77,-348.2 118,-348.2 118,-329.2 77,-329.2"/>
<text text-anchor="start" x="108.8862" y="-335.3" font-family="Helvetica,sans-Serif" font-size="11.00" fill="#000000"> &#160;</text>
<polygon fill="#ffffff" stroke="transparent" points="118,-329.2 118,-348.2 174,-348.2 174,-329.2 118,-329.2"/>
<polygon fill="none" stroke="#000000" points="118,-329.2 118,-348.2 174,-348.2 174,-329.2 118,-329.2"/>
<text text-anchor="start" x="149.2904" y="-335.3" font-family="Helvetica,sans-Serif" font-size="11.00" fill="#000000">12 &gt;</text>
</a>
</g>
</g>
<!-- investigation_audit&#45;&gt;audit_revision -->
<g id="edge1" class="edge">
<title>investigation_audit:w&#45;&gt;audit_revision:e</title>
<path fill="none" stroke="#000000" d="M210.276,-378.2C198.2815,-378.2 190.8229,-378.2 174,-378.2"/>
<polygon fill="#000000" stroke="#000000" points="217,-378.2001 225,-381.8 221,-378.2 225,-378.2 225,-378.2 225,-378.2 221,-378.2 225,-374.6 217,-378.2001 217,-378.2001"/>
<ellipse fill="none" stroke="#000000" cx="213.8" cy="-378.2001" rx="3.2" ry="3.2"/>
</g>
</g>
</svg>
