<?xml version="1.0" encoding="UTF-8" standalone="no"?>
<!DOCTYPE svg PUBLIC "-//W3C//DTD SVG 1.1//EN"
 "http://www.w3.org/Graphics/SVG/1.1/DTD/svg11.dtd">
<!-- Generated by graphviz version 2.40.1 (20161225.0304)
 -->
<!-- Title: oneDegreeRelationshipsDiagramImplied Pages: 1 -->
<svg width="888pt" height="433pt"
 viewBox="0.00 0.00 888.00 432.70" xmlns="http://www.w3.org/2000/svg" xmlns:xlink="http://www.w3.org/1999/xlink">
<g id="graph0" class="graph" transform="scale(1 1) rotate(0) translate(4 428.7)">
<title>oneDegreeRelationshipsDiagramImplied</title>
<polygon fill="#ffffff" stroke="transparent" points="-4,4 -4,-428.7 884,-428.7 884,4 -4,4"/>
<text text-anchor="middle" x="72.4936" y="-7.3" font-family="Helvetica,sans-Serif" font-size="11.00" fill="#000000">Generated by SchemaSpy</text>
<!-- interview -->
<g id="node1" class="node">
<title>interview</title>
<g id="a_node1"><a xlink:href="../../tables/interview.html" xlink:title="interview" target="_top">
<polygon fill="#ffffff" stroke="transparent" points="697,-271.7 697,-420.7 849,-420.7 849,-271.7 697,-271.7"/>
<polygon fill="#f5f5f5" stroke="transparent" points="697,-397.2 697,-420.2 849,-420.2 849,-397.2 697,-397.2"/>
<polygon fill="none" stroke="#000000" points="697,-397.2 697,-420.2 849,-420.2 849,-397.2 697,-397.2"/>
<text text-anchor="start" x="702" y="-405.8" font-family="Helvetica,sans-Serif" font-weight="bold" font-size="11.00" fill="#000000">interview</text>
<text text-anchor="start" x="814.0437" y="-405.3" font-family="Helvetica,sans-Serif" font-size="11.00" fill="#000000">[table]</text>
<polygon fill="none" stroke="#000000" points="697,-375.2 697,-397.2 849,-397.2 849,-375.2 697,-375.2"/>
<image xlink:href="../../images/primaryKeys.png" width="11px" height="12px" preserveAspectRatio="xMinYMin meet" x="702" y="-392.2"/>
<text text-anchor="start" x="717" y="-382.3" font-family="Helvetica,sans-Serif" font-size="11.00" fill="#000000">interview_id</text>
<polygon fill="#ffffff" stroke="transparent" points="697,-353.2 697,-375.2 849,-375.2 849,-353.2 697,-353.2"/>
<polygon fill="none" stroke="#000000" points="697,-353.2 697,-375.2 849,-375.2 849,-353.2 697,-353.2"/>
<image xlink:href="../../images/foreignKeys.png" width="11px" height="12px" preserveAspectRatio="xMinYMin meet" x="702" y="-370.2"/>
<text text-anchor="start" x="717" y="-360.3" font-family="Helvetica,sans-Serif" font-size="11.00" fill="#000000">investigation_id</text>
<polygon fill="#ffffff" stroke="transparent" points="697,-331.2 697,-353.2 849,-353.2 849,-331.2 697,-331.2"/>
<polygon fill="none" stroke="#000000" points="697,-331.2 697,-353.2 849,-353.2 849,-331.2 697,-331.2"/>
<image xlink:href="../../images/foreignKeys.png" width="11px" height="12px" preserveAspectRatio="xMinYMin meet" x="702" y="-348.2"/>
<text text-anchor="start" x="717" y="-338.3" font-family="Helvetica,sans-Serif" font-size="11.00" fill="#000000">interviewee_role_id</text>
<polygon fill="#ffffff" stroke="transparent" points="697,-309.2 697,-331.2 849,-331.2 849,-309.2 697,-309.2"/>
<polygon fill="none" stroke="#000000" points="697,-309.2 697,-331.2 849,-331.2 849,-309.2 697,-309.2"/>
<image xlink:href="../../images/foreignKeys.png" width="11px" height="12px" preserveAspectRatio="xMinYMin meet" x="702" y="-326.2"/>
<text text-anchor="start" x="717" y="-316.3" font-family="Helvetica,sans-Serif" font-size="11.00" fill="#000000">legacy_id</text>
<polygon fill="none" stroke="#000000" points="697,-290.2 697,-309.2 849,-309.2 849,-290.2 697,-290.2"/>
<text text-anchor="start" x="700" y="-296.3" font-family="Helvetica,sans-Serif" font-size="11.00" fill="#000000">...</text>
<polygon fill="#ffffff" stroke="transparent" points="697,-271.2 697,-290.2 771,-290.2 771,-271.2 697,-271.2"/>
<polygon fill="none" stroke="#000000" points="697,-271.2 697,-290.2 771,-290.2 771,-271.2 697,-271.2"/>
<text text-anchor="start" x="700" y="-277.3" font-family="Helvetica,sans-Serif" font-size="11.00" fill="#000000">&lt; 2</text>
<polygon fill="#ffffff" stroke="transparent" points="771,-271.2 771,-290.2 810,-290.2 810,-271.2 771,-271.2"/>
<polygon fill="none" stroke="#000000" points="771,-271.2 771,-290.2 810,-290.2 810,-271.2 771,-271.2"/>
<text text-anchor="start" x="800.8862" y="-277.3" font-family="Helvetica,sans-Serif" font-size="11.00" fill="#000000"> &#160;</text>
<polygon fill="#ffffff" stroke="transparent" points="810,-271.2 810,-290.2 849,-290.2 849,-271.2 810,-271.2"/>
<polygon fill="none" stroke="#000000" points="810,-271.2 810,-290.2 849,-290.2 849,-271.2 810,-271.2"/>
<text text-anchor="start" x="839.8862" y="-277.3" font-family="Helvetica,sans-Serif" font-size="11.00" fill="#000000"> &#160;</text>
</a>
</g>
</g>
<!-- investigation -->
<g id="node2" class="node">
<title>investigation</title>
<g id="a_node2"><a xlink:href="../../tables/investigation.html" xlink:title="investigation" target="_top">
<polygon fill="#ffffff" stroke="transparent" points="326,-38.2 326,-304.2 625,-304.2 625,-38.2 326,-38.2"/>
<polygon fill="#f5f5f5" stroke="transparent" points="328.5,-279.2 328.5,-302.2 623.5,-302.2 623.5,-279.2 328.5,-279.2"/>
<polygon fill="none" stroke="#000000" points="328.5,-279.2 328.5,-302.2 623.5,-302.2 623.5,-279.2 328.5,-279.2"/>
<text text-anchor="start" x="333.5" y="-287.8" font-family="Helvetica,sans-Serif" font-weight="bold" font-size="11.00" fill="#000000">investigation</text>
<text text-anchor="start" x="588.5437" y="-287.3" font-family="Helvetica,sans-Serif" font-size="11.00" fill="#000000">[table]</text>
<polygon fill="none" stroke="#000000" points="328.5,-257.2 328.5,-279.2 529.5,-279.2 529.5,-257.2 328.5,-257.2"/>
<image xlink:href="../../images/primaryKeys.png" width="11px" height="12px" preserveAspectRatio="xMinYMin meet" x="333.5" y="-274.2"/>
<text text-anchor="start" x="348.5" y="-264.3" font-family="Helvetica,sans-Serif" font-size="11.00" fill="#000000">investigation_id</text>
<polygon fill="none" stroke="#000000" points="529.5,-257.2 529.5,-279.2 623.5,-279.2 623.5,-257.2 529.5,-257.2"/>
<text text-anchor="start" x="532.4758" y="-264.9" font-family="Helvetica,sans-Serif" font-size="11.00" fill="#000000">uuid[2147483647]</text>
<polygon fill="none" stroke="#000000" points="328.5,-235.2 328.5,-257.2 529.5,-257.2 529.5,-235.2 328.5,-235.2"/>
<text text-anchor="start" x="348.5" y="-242.3" font-family="Helvetica,sans-Serif" font-size="11.00" fill="#000000">staff_involved</text>
<polygon fill="none" stroke="#000000" points="529.5,-235.2 529.5,-257.2 623.5,-257.2 623.5,-235.2 529.5,-235.2"/>
<text text-anchor="start" x="532.5" y="-242.9" font-family="Helvetica,sans-Serif" font-size="11.00" fill="#000000">text[2147483647]</text>
<polygon fill="none" stroke="#000000" points="328.5,-213.2 328.5,-235.2 529.5,-235.2 529.5,-213.2 328.5,-213.2"/>
<text text-anchor="start" x="348.5" y="-220.3" font-family="Helvetica,sans-Serif" font-size="11.00" fill="#000000">evidence_secured</text>
<polygon fill="none" stroke="#000000" points="529.5,-213.2 529.5,-235.2 623.5,-235.2 623.5,-213.2 529.5,-213.2"/>
<text text-anchor="start" x="532.5" y="-220.9" font-family="Helvetica,sans-Serif" font-size="11.00" fill="#000000">text[2147483647]</text>
<polygon fill="none" stroke="#000000" points="328.5,-191.2 328.5,-213.2 529.5,-213.2 529.5,-191.2 328.5,-191.2"/>
<text text-anchor="start" x="348.5" y="-198.3" font-family="Helvetica,sans-Serif" font-size="11.00" fill="#000000">occurrence_reason</text>
<polygon fill="none" stroke="#000000" points="529.5,-191.2 529.5,-213.2 623.5,-213.2 623.5,-191.2 529.5,-191.2"/>
<text text-anchor="start" x="532.5" y="-198.9" font-family="Helvetica,sans-Serif" font-size="11.00" fill="#000000">text[2147483647]</text>
<polygon fill="none" stroke="#000000" points="328.5,-169.2 328.5,-191.2 529.5,-191.2 529.5,-169.2 328.5,-169.2"/>
<text text-anchor="start" x="348.5" y="-176.3" font-family="Helvetica,sans-Serif" font-size="11.00" fill="#000000">persons_usual_behaviour</text>
<polygon fill="none" stroke="#000000" points="529.5,-169.2 529.5,-191.2 623.5,-191.2 623.5,-169.2 529.5,-169.2"/>
<text text-anchor="start" x="532.5" y="-176.9" font-family="Helvetica,sans-Serif" font-size="11.00" fill="#000000">text[2147483647]</text>
<polygon fill="none" stroke="#000000" points="328.5,-147.2 328.5,-169.2 529.5,-169.2 529.5,-147.2 328.5,-147.2"/>
<text text-anchor="start" x="348.5" y="-154.3" font-family="Helvetica,sans-Serif" font-size="11.00" fill="#000000">persons_trigger</text>
<polygon fill="none" stroke="#000000" points="529.5,-147.2 529.5,-169.2 623.5,-169.2 623.5,-147.2 529.5,-147.2"/>
<text text-anchor="start" x="532.5" y="-154.9" font-family="Helvetica,sans-Serif" font-size="11.00" fill="#000000">text[2147483647]</text>
<polygon fill="none" stroke="#000000" points="328.5,-125.2 328.5,-147.2 529.5,-147.2 529.5,-125.2 328.5,-125.2"/>
<text text-anchor="start" x="348.5" y="-132.3" font-family="Helvetica,sans-Serif" font-size="11.00" fill="#000000">protective_factors</text>
<polygon fill="none" stroke="#000000" points="529.5,-125.2 529.5,-147.2 623.5,-147.2 623.5,-125.2 529.5,-125.2"/>
<text text-anchor="start" x="532.5" y="-132.9" font-family="Helvetica,sans-Serif" font-size="11.00" fill="#000000">text[2147483647]</text>
<polygon fill="none" stroke="#000000" points="328.5,-103.2 328.5,-125.2 529.5,-125.2 529.5,-103.2 328.5,-103.2"/>
<text text-anchor="start" x="348.5" y="-110.3" font-family="Helvetica,sans-Serif" font-size="11.00" fill="#000000">version</text>
<polygon fill="none" stroke="#000000" points="529.5,-103.2 529.5,-125.2 623.5,-125.2 623.5,-103.2 529.5,-103.2"/>
<text text-anchor="start" x="532.5" y="-110.9" font-family="Helvetica,sans-Serif" font-size="11.00" fill="#000000">int4[10]</text>
<polygon fill="none" stroke="#000000" points="328.5,-81.2 328.5,-103.2 529.5,-103.2 529.5,-81.2 328.5,-81.2"/>
<text text-anchor="start" x="348.5" y="-88.3" font-family="Helvetica,sans-Serif" font-size="11.00" fill="#000000">recorded_by</text>
<polygon fill="none" stroke="#000000" points="529.5,-81.2 529.5,-103.2 623.5,-103.2 623.5,-81.2 529.5,-81.2"/>
<text text-anchor="start" x="532.5" y="-88.9" font-family="Helvetica,sans-Serif" font-size="11.00" fill="#000000">varchar[64]</text>
<polygon fill="none" stroke="#000000" points="328.5,-59.2 328.5,-81.2 529.5,-81.2 529.5,-59.2 328.5,-59.2"/>
<text text-anchor="start" x="348.5" y="-66.3" font-family="Helvetica,sans-Serif" font-size="11.00" fill="#000000">recorded_by_display_name</text>
<polygon fill="none" stroke="#000000" points="529.5,-59.2 529.5,-81.2 623.5,-81.2 623.5,-59.2 529.5,-59.2"/>
<text text-anchor="start" x="532.5" y="-66.9" font-family="Helvetica,sans-Serif" font-size="11.00" fill="#000000">varchar[255]</text>
<polygon fill="#ffffff" stroke="transparent" points="328.5,-40.2 328.5,-59.2 433.5,-59.2 433.5,-40.2 328.5,-40.2"/>
<polygon fill="none" stroke="#000000" points="328.5,-40.2 328.5,-59.2 433.5,-59.2 433.5,-40.2 328.5,-40.2"/>
<text text-anchor="start" x="331.5" y="-46.3" font-family="Helvetica,sans-Serif" font-size="11.00" fill="#000000">&lt; 1</text>
<polygon fill="#ffffff" stroke="transparent" points="433.5,-40.2 433.5,-59.2 529.5,-59.2 529.5,-40.2 433.5,-40.2"/>
<polygon fill="none" stroke="#000000" points="433.5,-40.2 433.5,-59.2 529.5,-59.2 529.5,-40.2 433.5,-40.2"/>
<text text-anchor="start" x="520.3862" y="-46.3" font-family="Helvetica,sans-Serif" font-size="11.00" fill="#000000"> &#160;</text>
<polygon fill="#ffffff" stroke="transparent" points="529.5,-40.2 529.5,-59.2 623.5,-59.2 623.5,-40.2 529.5,-40.2"/>
<polygon fill="none" stroke="#000000" points="529.5,-40.2 529.5,-59.2 623.5,-59.2 623.5,-40.2 529.5,-40.2"/>
<text text-anchor="start" x="604.9053" y="-46.3" font-family="Helvetica,sans-Serif" font-size="11.00" fill="#000000">2 &gt;</text>
<polygon fill="none" stroke="#000000" stroke-width="2" points="327,-39.2 327,-303.2 624,-303.2 624,-39.2 327,-39.2"/>
</a>
</g>
</g>
<!-- interview&#45;&gt;investigation -->
<g id="edge1" class="edge">
<title>interview:w&#45;&gt;investigation:e</title>
<path fill="none" stroke="#000000" d="M682.7187,-361.2216C649.4543,-345.0179 671.5685,-268.2 623.5,-268.2"/>
<polygon fill="#000000" stroke="#000000" points="689.1685,-362.5667 696.265,-367.7242 693.0842,-363.3833 697,-364.2 697,-364.2 697,-364.2 693.0842,-363.3833 697.735,-360.6758 689.1685,-362.5667 689.1685,-362.5667"/>
<ellipse fill="none" stroke="#000000" cx="686.0359" cy="-361.9134" rx="3.2" ry="3.2"/>
</g>
<!-- referral -->
<g id="node4" class="node">
<title>referral</title>
<g id="a_node4"><a xlink:href="../../tables/referral.html" xlink:title="referral" target="_top">
<polygon fill="#ffffff" stroke="transparent" points="8,-109.7 8,-302.7 277,-302.7 277,-109.7 8,-109.7"/>
<polygon fill="#f5f5f5" stroke="transparent" points="8.5,-279.2 8.5,-302.2 277.5,-302.2 277.5,-279.2 8.5,-279.2"/>
<polygon fill="none" stroke="#000000" points="8.5,-279.2 8.5,-302.2 277.5,-302.2 277.5,-279.2 8.5,-279.2"/>
<text text-anchor="start" x="13.5" y="-287.8" font-family="Helvetica,sans-Serif" font-weight="bold" font-size="11.00" fill="#000000">referral</text>
<text text-anchor="start" x="242.5437" y="-287.3" font-family="Helvetica,sans-Serif" font-size="11.00" fill="#000000">[table]</text>
<polygon fill="none" stroke="#000000" points="8.5,-257.2 8.5,-279.2 277.5,-279.2 277.5,-257.2 8.5,-257.2"/>
<image xlink:href="../../images/primaryKeys.png" width="11px" height="12px" preserveAspectRatio="xMinYMin meet" x="13.5" y="-274.2"/>
<text text-anchor="start" x="28.5" y="-264.3" font-family="Helvetica,sans-Serif" font-size="11.00" fill="#000000">referral_id</text>
<polygon fill="#ffffff" stroke="transparent" points="8.5,-235.2 8.5,-257.2 277.5,-257.2 277.5,-235.2 8.5,-235.2"/>
<polygon fill="none" stroke="#000000" points="8.5,-235.2 8.5,-257.2 277.5,-257.2 277.5,-235.2 8.5,-235.2"/>
<image xlink:href="../../images/foreignKeys.png" width="11px" height="12px" preserveAspectRatio="xMinYMin meet" x="13.5" y="-252.2"/>
<text text-anchor="start" x="28.5" y="-242.3" font-family="Helvetica,sans-Serif" font-size="11.00" fill="#000000">incident_type_id</text>
<polygon fill="#ffffff" stroke="transparent" points="8.5,-213.2 8.5,-235.2 277.5,-235.2 277.5,-213.2 8.5,-213.2"/>
<polygon fill="none" stroke="#000000" points="8.5,-213.2 8.5,-235.2 277.5,-235.2 277.5,-213.2 8.5,-213.2"/>
<image xlink:href="../../images/foreignKeys.png" width="11px" height="12px" preserveAspectRatio="xMinYMin meet" x="13.5" y="-230.2"/>
<text text-anchor="start" x="28.5" y="-220.3" font-family="Helvetica,sans-Serif" font-size="11.00" fill="#000000">incident_location_id</text>
<polygon fill="#ffffff" stroke="transparent" points="8.5,-191.2 8.5,-213.2 277.5,-213.2 277.5,-191.2 8.5,-191.2"/>
<polygon fill="none" stroke="#000000" points="8.5,-191.2 8.5,-213.2 277.5,-213.2 277.5,-191.2 8.5,-191.2"/>
<image xlink:href="../../images/foreignKeys.png" width="11px" height="12px" preserveAspectRatio="xMinYMin meet" x="13.5" y="-208.2"/>
<text text-anchor="start" x="28.5" y="-198.3" font-family="Helvetica,sans-Serif" font-size="11.00" fill="#000000">referer_area_of_work_id</text>
<polygon fill="#ffffff" stroke="transparent" points="8.5,-169.2 8.5,-191.2 277.5,-191.2 277.5,-169.2 8.5,-169.2"/>
<polygon fill="none" stroke="#000000" points="8.5,-169.2 8.5,-191.2 277.5,-191.2 277.5,-169.2 8.5,-169.2"/>
<text text-anchor="start" x="28.5" y="-176.3" font-family="Helvetica,sans-Serif" font-size="11.00" fill="#000000">referral_date</text>
<polygon fill="#ffffff" stroke="transparent" points="8.5,-147.2 8.5,-169.2 277.5,-169.2 277.5,-147.2 8.5,-147.2"/>
<polygon fill="none" stroke="#000000" points="8.5,-147.2 8.5,-169.2 277.5,-169.2 277.5,-147.2 8.5,-147.2"/>
<image xlink:href="../../images/foreignKeys.png" width="11px" height="12px" preserveAspectRatio="xMinYMin meet" x="13.5" y="-164.2"/>
<text text-anchor="start" x="28.5" y="-154.3" font-family="Helvetica,sans-Serif" font-size="11.00" fill="#000000">incident_involvement_id</text>
<polygon fill="none" stroke="#000000" points="8.5,-128.2 8.5,-147.2 277.5,-147.2 277.5,-128.2 8.5,-128.2"/>
<text text-anchor="start" x="11.5" y="-134.3" font-family="Helvetica,sans-Serif" font-size="11.00" fill="#000000">...</text>
<polygon fill="#ffffff" stroke="transparent" points="8.5,-109.2 8.5,-128.2 136.5,-128.2 136.5,-109.2 8.5,-109.2"/>
<polygon fill="none" stroke="#000000" points="8.5,-109.2 8.5,-128.2 136.5,-128.2 136.5,-109.2 8.5,-109.2"/>
<text text-anchor="start" x="11.5" y="-115.3" font-family="Helvetica,sans-Serif" font-size="11.00" fill="#000000">&lt; 5</text>
<polygon fill="#ffffff" stroke="transparent" points="136.5,-109.2 136.5,-128.2 202.5,-128.2 202.5,-109.2 136.5,-109.2"/>
<polygon fill="none" stroke="#000000" points="136.5,-109.2 136.5,-128.2 202.5,-128.2 202.5,-109.2 136.5,-109.2"/>
<text text-anchor="start" x="193.3862" y="-115.3" font-family="Helvetica,sans-Serif" font-size="11.00" fill="#000000"> &#160;</text>
<polygon fill="#ffffff" stroke="transparent" points="202.5,-109.2 202.5,-128.2 277.5,-128.2 277.5,-109.2 202.5,-109.2"/>
<polygon fill="none" stroke="#000000" points="202.5,-109.2 202.5,-128.2 277.5,-128.2 277.5,-109.2 202.5,-109.2"/>
<text text-anchor="start" x="258.9053" y="-115.3" font-family="Helvetica,sans-Serif" font-size="11.00" fill="#000000">4 &gt;</text>
</a>
</g>
</g>
<!-- investigation&#45;&gt;referral -->
<g id="edge3" class="edge">
<title>investigation:w&#45;&gt;referral:e</title>
<path fill="none" stroke="#000000" d="M317.7307,-268.2C303.248,-268.2 296.0938,-268.2 277.5,-268.2"/>
<polygon fill="#000000" stroke="#000000" points="327.7,-264.2 327.7,-272.2 326.1,-272.2 326.1,-264.2 327.7,-264.2"/>
<polyline fill="none" stroke="#000000" points="328.5,-268.2 324.5,-268.2 "/>
<ellipse fill="none" stroke="#000000" cx="321.3" cy="-268.2001" rx="3.2" ry="3.2"/>
</g>
<!-- interview_audit -->
<g id="node3" class="node">
<title>interview_audit</title>
<g id="a_node3"><a xlink:href="../../tables/interview_audit.html" xlink:title="interview_audit" target="_top">
<polygon fill="#ffffff" stroke="transparent" points="674,-79.7 674,-250.7 872,-250.7 872,-79.7 674,-79.7"/>
<polygon fill="#f5f5f5" stroke="transparent" points="674,-227.2 674,-250.2 872,-250.2 872,-227.2 674,-227.2"/>
<polygon fill="none" stroke="#000000" points="674,-227.2 674,-250.2 872,-250.2 872,-227.2 674,-227.2"/>
<text text-anchor="start" x="679" y="-235.8" font-family="Helvetica,sans-Serif" font-weight="bold" font-size="11.00" fill="#000000">interview_audit</text>
<text text-anchor="start" x="837.0437" y="-235.3" font-family="Helvetica,sans-Serif" font-size="11.00" fill="#000000">[table]</text>
<polygon fill="none" stroke="#000000" points="674,-205.2 674,-227.2 872,-227.2 872,-205.2 674,-205.2"/>
<image xlink:href="../../images/primaryKeys.png" width="11px" height="12px" preserveAspectRatio="xMinYMin meet" x="679" y="-222.2"/>
<text text-anchor="start" x="694" y="-212.3" font-family="Helvetica,sans-Serif" font-size="11.00" fill="#000000">rev_id</text>
<polygon fill="none" stroke="#000000" points="674,-183.2 674,-205.2 872,-205.2 872,-183.2 674,-183.2"/>
<image xlink:href="../../images/primaryKeys.png" width="11px" height="12px" preserveAspectRatio="xMinYMin meet" x="679" y="-200.2"/>
<text text-anchor="start" x="694" y="-190.3" font-family="Helvetica,sans-Serif" font-size="11.00" fill="#000000">interview_id</text>
<polygon fill="none" stroke="#000000" points="674,-161.2 674,-183.2 872,-183.2 872,-161.2 674,-161.2"/>
<image xlink:href="../../images/foreignKeys.png" width="11px" height="12px" preserveAspectRatio="xMinYMin meet" x="679" y="-178.2"/>
<text text-anchor="start" x="694" y="-168.3" font-family="Helvetica,sans-Serif" font-size="11.00" fill="#000000">investigation_id</text>
<polygon fill="none" stroke="#000000" points="674,-139.2 674,-161.2 872,-161.2 872,-139.2 674,-139.2"/>
<image xlink:href="../../images/foreignKeys.png" width="11px" height="12px" preserveAspectRatio="xMinYMin meet" x="679" y="-156.2"/>
<text text-anchor="start" x="694" y="-146.3" font-family="Helvetica,sans-Serif" font-size="11.00" fill="#000000">interviewee_role_id</text>
<polygon fill="none" stroke="#000000" points="674,-117.2 674,-139.2 872,-139.2 872,-117.2 674,-117.2"/>
<image xlink:href="../../images/foreignKeys.png" width="11px" height="12px" preserveAspectRatio="xMinYMin meet" x="679" y="-134.2"/>
<text text-anchor="start" x="694" y="-124.3" font-family="Helvetica,sans-Serif" font-size="11.00" fill="#000000">legacy_id</text>
<polygon fill="none" stroke="#000000" points="674,-98.2 674,-117.2 872,-117.2 872,-98.2 674,-98.2"/>
<text text-anchor="start" x="677" y="-104.3" font-family="Helvetica,sans-Serif" font-size="11.00" fill="#000000">...</text>
<polygon fill="#ffffff" stroke="transparent" points="674,-79.2 674,-98.2 771,-98.2 771,-79.2 674,-79.2"/>
<polygon fill="none" stroke="#000000" points="674,-79.2 674,-98.2 771,-98.2 771,-79.2 674,-79.2"/>
<text text-anchor="start" x="677" y="-85.3" font-family="Helvetica,sans-Serif" font-size="11.00" fill="#000000">&lt; 4</text>
<polygon fill="#ffffff" stroke="transparent" points="771,-79.2 771,-98.2 821,-98.2 821,-79.2 771,-79.2"/>
<polygon fill="none" stroke="#000000" points="771,-79.2 771,-98.2 821,-98.2 821,-79.2 771,-79.2"/>
<text text-anchor="start" x="811.8862" y="-85.3" font-family="Helvetica,sans-Serif" font-size="11.00" fill="#000000"> &#160;</text>
<polygon fill="#ffffff" stroke="transparent" points="821,-79.2 821,-98.2 872,-98.2 872,-79.2 821,-79.2"/>
<polygon fill="none" stroke="#000000" points="821,-79.2 821,-98.2 872,-98.2 872,-79.2 821,-79.2"/>
<text text-anchor="start" x="862.8862" y="-85.3" font-family="Helvetica,sans-Serif" font-size="11.00" fill="#000000"> &#160;</text>
</a>
</g>
</g>
<!-- interview_audit&#45;&gt;investigation -->
<g id="edge2" class="edge">
<title>interview_audit:w&#45;&gt;investigation:e</title>
<path fill="none" stroke="#000000" stroke-dasharray="5,2" d="M659.9659,-176.325C635.7993,-194.7 665.6837,-268.2 623.5,-268.2"/>
<polygon fill="#000000" stroke="#000000" points="666.3247,-174.456 675.0152,-175.6539 670.1623,-173.328 674,-172.2 674,-172.2 674,-172.2 670.1623,-173.328 672.9848,-168.7461 666.3247,-174.456 666.3247,-174.456"/>
<ellipse fill="none" stroke="#000000" cx="663.2545" cy="-175.3584" rx="3.2" ry="3.2"/>
</g>
</g>
</svg>
