<?xml version="1.0" encoding="UTF-8" standalone="no"?>
<!DOCTYPE svg PUBLIC "-//W3C//DTD SVG 1.1//EN"
 "http://www.w3.org/Graphics/SVG/1.1/DTD/svg11.dtd">
<!-- Generated by graphviz version 2.40.1 (20161225.0304)
 -->
<!-- Title: twoDegreesRelationshipsDiagram Pages: 1 -->
<svg width="604pt" height="1417pt"
 viewBox="0.00 0.00 604.00 1417.20" xmlns="http://www.w3.org/2000/svg" xmlns:xlink="http://www.w3.org/1999/xlink">
<g id="graph0" class="graph" transform="scale(1 1) rotate(0) translate(4 1413.2)">
<title>twoDegreesRelationshipsDiagram</title>
<polygon fill="#ffffff" stroke="transparent" points="-4,4 -4,-1413.2 600,-1413.2 600,4 -4,4"/>
<text text-anchor="middle" x="72.4936" y="-7.3" font-family="Helvetica,sans-Serif" font-size="11.00" fill="#000000">Generated by SchemaSpy</text>
<!-- attendee_audit -->
<g id="node1" class="node">
<title>attendee_audit</title>
<g id="a_node1"><a xlink:href="../../tables/attendee_audit.html" xlink:title="attendee_audit" target="_top">
<polygon fill="#ffffff" stroke="transparent" points="335,-1344.2 335,-1405.2 476,-1405.2 476,-1344.2 335,-1344.2"/>
<polygon fill="#f5f5f5" stroke="transparent" points="335.5,-1381.7 335.5,-1404.7 476.5,-1404.7 476.5,-1381.7 335.5,-1381.7"/>
<polygon fill="none" stroke="#000000" points="335.5,-1381.7 335.5,-1404.7 476.5,-1404.7 476.5,-1381.7 335.5,-1381.7"/>
<text text-anchor="start" x="340.5" y="-1390.3" font-family="Helvetica,sans-Serif" font-weight="bold" font-size="11.00" fill="#000000">attendee_audit</text>
<text text-anchor="start" x="442.0219" y="-1389.8" font-family="Helvetica,sans-Serif" font-size="11.00" fill="#000000">[table]</text>
<polygon fill="none" stroke="#000000" points="335.5,-1362.7 335.5,-1381.7 476.5,-1381.7 476.5,-1362.7 335.5,-1362.7"/>
<text text-anchor="start" x="338.5" y="-1368.8" font-family="Helvetica,sans-Serif" font-size="11.00" fill="#000000">...</text>
<polygon fill="#ffffff" stroke="transparent" points="335.5,-1343.7 335.5,-1362.7 404.5,-1362.7 404.5,-1343.7 335.5,-1343.7"/>
<polygon fill="none" stroke="#000000" points="335.5,-1343.7 335.5,-1362.7 404.5,-1362.7 404.5,-1343.7 335.5,-1343.7"/>
<text text-anchor="start" x="338.5" y="-1349.8" font-family="Helvetica,sans-Serif" font-size="11.00" fill="#000000">&lt; 1</text>
<polygon fill="#ffffff" stroke="transparent" points="404.5,-1343.7 404.5,-1362.7 440.5,-1362.7 440.5,-1343.7 404.5,-1343.7"/>
<polygon fill="none" stroke="#000000" points="404.5,-1343.7 404.5,-1362.7 440.5,-1362.7 440.5,-1343.7 404.5,-1343.7"/>
<text text-anchor="start" x="431.3862" y="-1349.8" font-family="Helvetica,sans-Serif" font-size="11.00" fill="#000000"> &#160;</text>
<polygon fill="#ffffff" stroke="transparent" points="440.5,-1343.7 440.5,-1362.7 476.5,-1362.7 476.5,-1343.7 440.5,-1343.7"/>
<polygon fill="none" stroke="#000000" points="440.5,-1343.7 440.5,-1362.7 476.5,-1362.7 476.5,-1343.7 440.5,-1343.7"/>
<text text-anchor="start" x="467.3862" y="-1349.8" font-family="Helvetica,sans-Serif" font-size="11.00" fill="#000000"> &#160;</text>
</a>
</g>
</g>
<!-- audit_revision -->
<g id="node2" class="node">
<title>audit_revision</title>
<g id="a_node2"><a xlink:href="../../tables/audit_revision.html" xlink:title="audit_revision" target="_top">
<polygon fill="#ffffff" stroke="transparent" points="8,-870.2 8,-953.2 174,-953.2 174,-870.2 8,-870.2"/>
<polygon fill="#f5f5f5" stroke="transparent" points="8,-929.7 8,-952.7 174,-952.7 174,-929.7 8,-929.7"/>
<polygon fill="none" stroke="#000000" points="8,-929.7 8,-952.7 174,-952.7 174,-929.7 8,-929.7"/>
<text text-anchor="start" x="13" y="-938.3" font-family="Helvetica,sans-Serif" font-weight="bold" font-size="11.00" fill="#000000">audit_revision</text>
<text text-anchor="start" x="139.0437" y="-937.8" font-family="Helvetica,sans-Serif" font-size="11.00" fill="#000000">[table]</text>
<polygon fill="none" stroke="#000000" points="8,-907.7 8,-929.7 174,-929.7 174,-907.7 8,-907.7"/>
<image xlink:href="../../images/primaryKeys.png" width="11px" height="12px" preserveAspectRatio="xMinYMin meet" x="13" y="-924.7"/>
<text text-anchor="start" x="28" y="-914.8" font-family="Helvetica,sans-Serif" font-size="11.00" fill="#000000">id</text>
<polygon fill="none" stroke="#000000" points="8,-888.7 8,-907.7 174,-907.7 174,-888.7 8,-888.7"/>
<text text-anchor="start" x="11" y="-894.8" font-family="Helvetica,sans-Serif" font-size="11.00" fill="#000000">...</text>
<polygon fill="#ffffff" stroke="transparent" points="8,-869.7 8,-888.7 77,-888.7 77,-869.7 8,-869.7"/>
<polygon fill="none" stroke="#000000" points="8,-869.7 8,-888.7 77,-888.7 77,-869.7 8,-869.7"/>
<text text-anchor="start" x="11" y="-875.8" font-family="Helvetica,sans-Serif" font-size="11.00" fill="#000000"> &#160;</text>
<polygon fill="#ffffff" stroke="transparent" points="77,-869.7 77,-888.7 118,-888.7 118,-869.7 77,-869.7"/>
<polygon fill="none" stroke="#000000" points="77,-869.7 77,-888.7 118,-888.7 118,-869.7 77,-869.7"/>
<text text-anchor="start" x="108.8862" y="-875.8" font-family="Helvetica,sans-Serif" font-size="11.00" fill="#000000"> &#160;</text>
<polygon fill="#ffffff" stroke="transparent" points="118,-869.7 118,-888.7 174,-888.7 174,-869.7 118,-869.7"/>
<polygon fill="none" stroke="#000000" points="118,-869.7 118,-888.7 174,-888.7 174,-869.7 118,-869.7"/>
<text text-anchor="start" x="149.2904" y="-875.8" font-family="Helvetica,sans-Serif" font-size="11.00" fill="#000000">12 &gt;</text>
</a>
</g>
</g>
<!-- attendee_audit&#45;&gt;audit_revision -->
<g id="edge1" class="edge">
<title>attendee_audit:w&#45;&gt;audit_revision:e</title>
<path fill="none" stroke="#000000" d="M320.9987,-1371.7958C274.0903,-1372.3088 247.213,-1373.3809 215,-1333.7 156.5925,-1261.752 266.6712,-918.7 174,-918.7"/>
<polygon fill="#000000" stroke="#000000" points="327.5002,-1371.7529 335.5238,-1375.2999 331.5001,-1371.7265 335.5,-1371.7 335.5,-1371.7 335.5,-1371.7 331.5001,-1371.7265 335.4762,-1368.1001 327.5002,-1371.7529 327.5002,-1371.7529"/>
<ellipse fill="none" stroke="#000000" cx="324.3002" cy="-1371.7741" rx="3.2" ry="3.2"/>
</g>
<!-- contributory_factor_audit -->
<g id="node3" class="node">
<title>contributory_factor_audit</title>
<g id="a_node3"><a xlink:href="../../tables/contributory_factor_audit.html" xlink:title="contributory_factor_audit" target="_top">
<polygon fill="#ffffff" stroke="transparent" points="300.5,-1262.2 300.5,-1323.2 510.5,-1323.2 510.5,-1262.2 300.5,-1262.2"/>
<polygon fill="#f5f5f5" stroke="transparent" points="300.5,-1299.7 300.5,-1322.7 510.5,-1322.7 510.5,-1299.7 300.5,-1299.7"/>
<polygon fill="none" stroke="#000000" points="300.5,-1299.7 300.5,-1322.7 510.5,-1322.7 510.5,-1299.7 300.5,-1299.7"/>
<text text-anchor="start" x="305.5" y="-1308.3" font-family="Helvetica,sans-Serif" font-weight="bold" font-size="11.00" fill="#000000">contributory_factor_audit</text>
<text text-anchor="start" x="476.0219" y="-1307.8" font-family="Helvetica,sans-Serif" font-size="11.00" fill="#000000">[table]</text>
<polygon fill="none" stroke="#000000" points="300.5,-1280.7 300.5,-1299.7 510.5,-1299.7 510.5,-1280.7 300.5,-1280.7"/>
<text text-anchor="start" x="303.5" y="-1286.8" font-family="Helvetica,sans-Serif" font-size="11.00" fill="#000000">...</text>
<polygon fill="#ffffff" stroke="transparent" points="300.5,-1261.7 300.5,-1280.7 403.5,-1280.7 403.5,-1261.7 300.5,-1261.7"/>
<polygon fill="none" stroke="#000000" points="300.5,-1261.7 300.5,-1280.7 403.5,-1280.7 403.5,-1261.7 300.5,-1261.7"/>
<text text-anchor="start" x="303.5" y="-1267.8" font-family="Helvetica,sans-Serif" font-size="11.00" fill="#000000">&lt; 1</text>
<polygon fill="#ffffff" stroke="transparent" points="403.5,-1261.7 403.5,-1280.7 456.5,-1280.7 456.5,-1261.7 403.5,-1261.7"/>
<polygon fill="none" stroke="#000000" points="403.5,-1261.7 403.5,-1280.7 456.5,-1280.7 456.5,-1261.7 403.5,-1261.7"/>
<text text-anchor="start" x="447.3862" y="-1267.8" font-family="Helvetica,sans-Serif" font-size="11.00" fill="#000000"> &#160;</text>
<polygon fill="#ffffff" stroke="transparent" points="456.5,-1261.7 456.5,-1280.7 510.5,-1280.7 510.5,-1261.7 456.5,-1261.7"/>
<polygon fill="none" stroke="#000000" points="456.5,-1261.7 456.5,-1280.7 510.5,-1280.7 510.5,-1261.7 456.5,-1261.7"/>
<text text-anchor="start" x="501.3862" y="-1267.8" font-family="Helvetica,sans-Serif" font-size="11.00" fill="#000000"> &#160;</text>
</a>
</g>
</g>
<!-- contributory_factor_audit&#45;&gt;audit_revision -->
<g id="edge2" class="edge">
<title>contributory_factor_audit:w&#45;&gt;audit_revision:e</title>
<path fill="none" stroke="#000000" d="M285.9022,-1289.4377C254.0376,-1288.1034 236.6577,-1280.9385 215,-1251.7 170.6211,-1191.7873 248.5588,-918.7 174,-918.7"/>
<polygon fill="#000000" stroke="#000000" points="292.5013,-1289.5562 300.4353,-1293.2994 296.5006,-1289.6281 300.5,-1289.7 300.5,-1289.7 300.5,-1289.7 296.5006,-1289.6281 300.5647,-1286.1006 292.5013,-1289.5562 292.5013,-1289.5562"/>
<ellipse fill="none" stroke="#000000" cx="289.3018" cy="-1289.4987" rx="3.2" ry="3.2"/>
</g>
<!-- csip_record_audit -->
<g id="node4" class="node">
<title>csip_record_audit</title>
<g id="a_node4"><a xlink:href="../../tables/csip_record_audit.html" xlink:title="csip_record_audit" target="_top">
<polygon fill="#ffffff" stroke="transparent" points="327.5,-1180.2 327.5,-1241.2 483.5,-1241.2 483.5,-1180.2 327.5,-1180.2"/>
<polygon fill="#f5f5f5" stroke="transparent" points="327.5,-1217.7 327.5,-1240.7 483.5,-1240.7 483.5,-1217.7 327.5,-1217.7"/>
<polygon fill="none" stroke="#000000" points="327.5,-1217.7 327.5,-1240.7 483.5,-1240.7 483.5,-1217.7 327.5,-1217.7"/>
<text text-anchor="start" x="332.5" y="-1226.3" font-family="Helvetica,sans-Serif" font-weight="bold" font-size="11.00" fill="#000000">csip_record_audit</text>
<text text-anchor="start" x="449.0219" y="-1225.8" font-family="Helvetica,sans-Serif" font-size="11.00" fill="#000000">[table]</text>
<polygon fill="none" stroke="#000000" points="327.5,-1198.7 327.5,-1217.7 483.5,-1217.7 483.5,-1198.7 327.5,-1198.7"/>
<text text-anchor="start" x="330.5" y="-1204.8" font-family="Helvetica,sans-Serif" font-size="11.00" fill="#000000">...</text>
<polygon fill="#ffffff" stroke="transparent" points="327.5,-1179.7 327.5,-1198.7 403.5,-1198.7 403.5,-1179.7 327.5,-1179.7"/>
<polygon fill="none" stroke="#000000" points="327.5,-1179.7 327.5,-1198.7 403.5,-1198.7 403.5,-1179.7 327.5,-1179.7"/>
<text text-anchor="start" x="330.5" y="-1185.8" font-family="Helvetica,sans-Serif" font-size="11.00" fill="#000000">&lt; 1</text>
<polygon fill="#ffffff" stroke="transparent" points="403.5,-1179.7 403.5,-1198.7 443.5,-1198.7 443.5,-1179.7 403.5,-1179.7"/>
<polygon fill="none" stroke="#000000" points="403.5,-1179.7 403.5,-1198.7 443.5,-1198.7 443.5,-1179.7 403.5,-1179.7"/>
<text text-anchor="start" x="434.3862" y="-1185.8" font-family="Helvetica,sans-Serif" font-size="11.00" fill="#000000"> &#160;</text>
<polygon fill="#ffffff" stroke="transparent" points="443.5,-1179.7 443.5,-1198.7 483.5,-1198.7 483.5,-1179.7 443.5,-1179.7"/>
<polygon fill="none" stroke="#000000" points="443.5,-1179.7 443.5,-1198.7 483.5,-1198.7 483.5,-1179.7 443.5,-1179.7"/>
<text text-anchor="start" x="474.3862" y="-1185.8" font-family="Helvetica,sans-Serif" font-size="11.00" fill="#000000"> &#160;</text>
</a>
</g>
</g>
<!-- csip_record_audit&#45;&gt;audit_revision -->
<g id="edge3" class="edge">
<title>csip_record_audit:w&#45;&gt;audit_revision:e</title>
<path fill="none" stroke="#000000" d="M313.0635,-1207.7225C269.7491,-1207.7407 245.872,-1206.0944 215,-1169.7 178.4404,-1126.6005 230.517,-918.7 174,-918.7"/>
<polygon fill="#000000" stroke="#000000" points="319.5,-1207.7125 327.5056,-1211.3 323.5,-1207.7063 327.5,-1207.7 327.5,-1207.7 327.5,-1207.7 323.5,-1207.7063 327.4944,-1204.1 319.5,-1207.7125 319.5,-1207.7125"/>
<ellipse fill="none" stroke="#000000" cx="316.3" cy="-1207.7175" rx="3.2" ry="3.2"/>
</g>
<!-- decision_and_actions_audit -->
<g id="node5" class="node">
<title>decision_and_actions_audit</title>
<g id="a_node5"><a xlink:href="../../tables/decision_and_actions_audit.html" xlink:title="decision_and_actions_audit" target="_top">
<polygon fill="#ffffff" stroke="transparent" points="294.5,-1098.2 294.5,-1159.2 516.5,-1159.2 516.5,-1098.2 294.5,-1098.2"/>
<polygon fill="#f5f5f5" stroke="transparent" points="294.5,-1135.7 294.5,-1158.7 516.5,-1158.7 516.5,-1135.7 294.5,-1135.7"/>
<polygon fill="none" stroke="#000000" points="294.5,-1135.7 294.5,-1158.7 516.5,-1158.7 516.5,-1135.7 294.5,-1135.7"/>
<text text-anchor="start" x="299.5" y="-1144.3" font-family="Helvetica,sans-Serif" font-weight="bold" font-size="11.00" fill="#000000">decision_and_actions_audit</text>
<text text-anchor="start" x="482.0219" y="-1143.8" font-family="Helvetica,sans-Serif" font-size="11.00" fill="#000000">[table]</text>
<polygon fill="none" stroke="#000000" points="294.5,-1116.7 294.5,-1135.7 516.5,-1135.7 516.5,-1116.7 294.5,-1116.7"/>
<text text-anchor="start" x="297.5" y="-1122.8" font-family="Helvetica,sans-Serif" font-size="11.00" fill="#000000">...</text>
<polygon fill="#ffffff" stroke="transparent" points="294.5,-1097.7 294.5,-1116.7 403.5,-1116.7 403.5,-1097.7 294.5,-1097.7"/>
<polygon fill="none" stroke="#000000" points="294.5,-1097.7 294.5,-1116.7 403.5,-1116.7 403.5,-1097.7 294.5,-1097.7"/>
<text text-anchor="start" x="297.5" y="-1103.8" font-family="Helvetica,sans-Serif" font-size="11.00" fill="#000000">&lt; 1</text>
<polygon fill="#ffffff" stroke="transparent" points="403.5,-1097.7 403.5,-1116.7 459.5,-1116.7 459.5,-1097.7 403.5,-1097.7"/>
<polygon fill="none" stroke="#000000" points="403.5,-1097.7 403.5,-1116.7 459.5,-1116.7 459.5,-1097.7 403.5,-1097.7"/>
<text text-anchor="start" x="450.3862" y="-1103.8" font-family="Helvetica,sans-Serif" font-size="11.00" fill="#000000"> &#160;</text>
<polygon fill="#ffffff" stroke="transparent" points="459.5,-1097.7 459.5,-1116.7 516.5,-1116.7 516.5,-1097.7 459.5,-1097.7"/>
<polygon fill="none" stroke="#000000" points="459.5,-1097.7 459.5,-1116.7 516.5,-1116.7 516.5,-1097.7 459.5,-1097.7"/>
<text text-anchor="start" x="507.3862" y="-1103.8" font-family="Helvetica,sans-Serif" font-size="11.00" fill="#000000"> &#160;</text>
</a>
</g>
</g>
<!-- decision_and_actions_audit&#45;&gt;audit_revision -->
<g id="edge4" class="edge">
<title>decision_and_actions_audit:w&#45;&gt;audit_revision:e</title>
<path fill="none" stroke="#000000" d="M280.0634,-1125.2629C251.0171,-1123.2826 236.3929,-1114.0759 215,-1087.7 166.313,-1027.6725 251.2899,-918.7 174,-918.7"/>
<polygon fill="#000000" stroke="#000000" points="286.5037,-1125.4579 294.391,-1129.2984 290.5018,-1125.5789 294.5,-1125.7 294.5,-1125.7 294.5,-1125.7 290.5018,-1125.5789 294.609,-1122.1016 286.5037,-1125.4579 286.5037,-1125.4579"/>
<ellipse fill="none" stroke="#000000" cx="283.3051" cy="-1125.361" rx="3.2" ry="3.2"/>
</g>
<!-- identified_need_audit -->
<g id="node6" class="node">
<title>identified_need_audit</title>
<g id="a_node6"><a xlink:href="../../tables/identified_need_audit.html" xlink:title="identified_need_audit" target="_top">
<polygon fill="#ffffff" stroke="transparent" points="313.5,-1016.2 313.5,-1077.2 497.5,-1077.2 497.5,-1016.2 313.5,-1016.2"/>
<polygon fill="#f5f5f5" stroke="transparent" points="313.5,-1053.7 313.5,-1076.7 497.5,-1076.7 497.5,-1053.7 313.5,-1053.7"/>
<polygon fill="none" stroke="#000000" points="313.5,-1053.7 313.5,-1076.7 497.5,-1076.7 497.5,-1053.7 313.5,-1053.7"/>
<text text-anchor="start" x="318.5" y="-1062.3" font-family="Helvetica,sans-Serif" font-weight="bold" font-size="11.00" fill="#000000">identified_need_audit</text>
<text text-anchor="start" x="463.0219" y="-1061.8" font-family="Helvetica,sans-Serif" font-size="11.00" fill="#000000">[table]</text>
<polygon fill="none" stroke="#000000" points="313.5,-1034.7 313.5,-1053.7 497.5,-1053.7 497.5,-1034.7 313.5,-1034.7"/>
<text text-anchor="start" x="316.5" y="-1040.8" font-family="Helvetica,sans-Serif" font-size="11.00" fill="#000000">...</text>
<polygon fill="#ffffff" stroke="transparent" points="313.5,-1015.7 313.5,-1034.7 403.5,-1034.7 403.5,-1015.7 313.5,-1015.7"/>
<polygon fill="none" stroke="#000000" points="313.5,-1015.7 313.5,-1034.7 403.5,-1034.7 403.5,-1015.7 313.5,-1015.7"/>
<text text-anchor="start" x="316.5" y="-1021.8" font-family="Helvetica,sans-Serif" font-size="11.00" fill="#000000">&lt; 1</text>
<polygon fill="#ffffff" stroke="transparent" points="403.5,-1015.7 403.5,-1034.7 450.5,-1034.7 450.5,-1015.7 403.5,-1015.7"/>
<polygon fill="none" stroke="#000000" points="403.5,-1015.7 403.5,-1034.7 450.5,-1034.7 450.5,-1015.7 403.5,-1015.7"/>
<text text-anchor="start" x="441.3862" y="-1021.8" font-family="Helvetica,sans-Serif" font-size="11.00" fill="#000000"> &#160;</text>
<polygon fill="#ffffff" stroke="transparent" points="450.5,-1015.7 450.5,-1034.7 497.5,-1034.7 497.5,-1015.7 450.5,-1015.7"/>
<polygon fill="none" stroke="#000000" points="450.5,-1015.7 450.5,-1034.7 497.5,-1034.7 497.5,-1015.7 450.5,-1015.7"/>
<text text-anchor="start" x="488.3862" y="-1021.8" font-family="Helvetica,sans-Serif" font-size="11.00" fill="#000000"> &#160;</text>
</a>
</g>
</g>
<!-- identified_need_audit&#45;&gt;audit_revision -->
<g id="edge5" class="edge">
<title>identified_need_audit:w&#45;&gt;audit_revision:e</title>
<path fill="none" stroke="#000000" d="M298.629,-1043.4386C262.4557,-1041.999 245.4634,-1034.0396 215,-1005.7 183.7033,-976.5851 216.7453,-918.7 174,-918.7"/>
<polygon fill="#000000" stroke="#000000" points="305.5012,-1043.5593 313.4367,-1047.2994 309.5006,-1043.6297 313.5,-1043.7 313.5,-1043.7 313.5,-1043.7 309.5006,-1043.6297 313.5633,-1040.1006 305.5012,-1043.5593 305.5012,-1043.5593"/>
<ellipse fill="none" stroke="#000000" cx="302.3017" cy="-1043.5031" rx="3.2" ry="3.2"/>
</g>
<!-- interview_audit -->
<g id="node7" class="node">
<title>interview_audit</title>
<g id="a_node7"><a xlink:href="../../tables/interview_audit.html" xlink:title="interview_audit" target="_top">
<polygon fill="#ffffff" stroke="transparent" points="334,-934.2 334,-995.2 477,-995.2 477,-934.2 334,-934.2"/>
<polygon fill="#f5f5f5" stroke="transparent" points="334.5,-971.7 334.5,-994.7 477.5,-994.7 477.5,-971.7 334.5,-971.7"/>
<polygon fill="none" stroke="#000000" points="334.5,-971.7 334.5,-994.7 477.5,-994.7 477.5,-971.7 334.5,-971.7"/>
<text text-anchor="start" x="339.5" y="-980.3" font-family="Helvetica,sans-Serif" font-weight="bold" font-size="11.00" fill="#000000">interview_audit</text>
<text text-anchor="start" x="443.0219" y="-979.8" font-family="Helvetica,sans-Serif" font-size="11.00" fill="#000000">[table]</text>
<polygon fill="none" stroke="#000000" points="334.5,-952.7 334.5,-971.7 477.5,-971.7 477.5,-952.7 334.5,-952.7"/>
<text text-anchor="start" x="337.5" y="-958.8" font-family="Helvetica,sans-Serif" font-size="11.00" fill="#000000">...</text>
<polygon fill="#ffffff" stroke="transparent" points="334.5,-933.7 334.5,-952.7 404.5,-952.7 404.5,-933.7 334.5,-933.7"/>
<polygon fill="none" stroke="#000000" points="334.5,-933.7 334.5,-952.7 404.5,-952.7 404.5,-933.7 334.5,-933.7"/>
<text text-anchor="start" x="337.5" y="-939.8" font-family="Helvetica,sans-Serif" font-size="11.00" fill="#000000">&lt; 1</text>
<polygon fill="#ffffff" stroke="transparent" points="404.5,-933.7 404.5,-952.7 440.5,-952.7 440.5,-933.7 404.5,-933.7"/>
<polygon fill="none" stroke="#000000" points="404.5,-933.7 404.5,-952.7 440.5,-952.7 440.5,-933.7 404.5,-933.7"/>
<text text-anchor="start" x="431.3862" y="-939.8" font-family="Helvetica,sans-Serif" font-size="11.00" fill="#000000"> &#160;</text>
<polygon fill="#ffffff" stroke="transparent" points="440.5,-933.7 440.5,-952.7 477.5,-952.7 477.5,-933.7 440.5,-933.7"/>
<polygon fill="none" stroke="#000000" points="440.5,-933.7 440.5,-952.7 477.5,-952.7 477.5,-933.7 440.5,-933.7"/>
<text text-anchor="start" x="468.3862" y="-939.8" font-family="Helvetica,sans-Serif" font-size="11.00" fill="#000000"> &#160;</text>
</a>
</g>
</g>
<!-- interview_audit&#45;&gt;audit_revision -->
<g id="edge6" class="edge">
<title>interview_audit:w&#45;&gt;audit_revision:e</title>
<path fill="none" stroke="#000000" d="M319.7855,-961.0921C258.5489,-955.8657 242.6565,-918.7 174,-918.7"/>
<polygon fill="#000000" stroke="#000000" points="326.5068,-961.3697 334.3514,-965.2969 330.5034,-961.5349 334.5,-961.7 334.5,-961.7 334.5,-961.7 330.5034,-961.5349 334.6486,-958.1031 326.5068,-961.3697 326.5068,-961.3697"/>
<ellipse fill="none" stroke="#000000" cx="323.3095" cy="-961.2376" rx="3.2" ry="3.2"/>
</g>
<!-- investigation_audit -->
<g id="node8" class="node">
<title>investigation_audit</title>
<g id="a_node8"><a xlink:href="../../tables/investigation_audit.html" xlink:title="investigation_audit" target="_top">
<polygon fill="#ffffff" stroke="transparent" points="223,-448.7 223,-912.7 588,-912.7 588,-448.7 223,-448.7"/>
<polygon fill="#f5f5f5" stroke="transparent" points="225.5,-887.7 225.5,-910.7 586.5,-910.7 586.5,-887.7 225.5,-887.7"/>
<polygon fill="none" stroke="#000000" points="225.5,-887.7 225.5,-910.7 586.5,-910.7 586.5,-887.7 225.5,-887.7"/>
<text text-anchor="start" x="230.5" y="-896.3" font-family="Helvetica,sans-Serif" font-weight="bold" font-size="11.00" fill="#000000">investigation_audit</text>
<text text-anchor="start" x="551.5437" y="-895.8" font-family="Helvetica,sans-Serif" font-size="11.00" fill="#000000">[table]</text>
<polygon fill="none" stroke="#000000" points="225.5,-865.7 225.5,-887.7 492.5,-887.7 492.5,-865.7 225.5,-865.7"/>
<image xlink:href="../../images/primaryKeys.png" width="11px" height="12px" preserveAspectRatio="xMinYMin meet" x="230.5" y="-882.7"/>
<text text-anchor="start" x="245.5" y="-872.8" font-family="Helvetica,sans-Serif" font-size="11.00" fill="#000000">rev_id</text>
<polygon fill="none" stroke="#000000" points="492.5,-865.7 492.5,-887.7 586.5,-887.7 586.5,-865.7 492.5,-865.7"/>
<text text-anchor="start" x="495.5" y="-873.4" font-family="Helvetica,sans-Serif" font-size="11.00" fill="#000000">int8[19]</text>
<polygon fill="none" stroke="#000000" points="225.5,-843.7 225.5,-865.7 492.5,-865.7 492.5,-843.7 225.5,-843.7"/>
<text text-anchor="start" x="245.5" y="-850.8" font-family="Helvetica,sans-Serif" font-size="11.00" fill="#000000">rev_type</text>
<polygon fill="none" stroke="#000000" points="492.5,-843.7 492.5,-865.7 586.5,-865.7 586.5,-843.7 492.5,-843.7"/>
<text text-anchor="start" x="495.5" y="-851.4" font-family="Helvetica,sans-Serif" font-size="11.00" fill="#000000">int2[5]</text>
<polygon fill="none" stroke="#000000" points="225.5,-821.7 225.5,-843.7 492.5,-843.7 492.5,-821.7 225.5,-821.7"/>
<image xlink:href="../../images/primaryKeys.png" width="11px" height="12px" preserveAspectRatio="xMinYMin meet" x="230.5" y="-838.7"/>
<text text-anchor="start" x="245.5" y="-828.8" font-family="Helvetica,sans-Serif" font-size="11.00" fill="#000000">investigation_id</text>
<polygon fill="none" stroke="#000000" points="492.5,-821.7 492.5,-843.7 586.5,-843.7 586.5,-821.7 492.5,-821.7"/>
<text text-anchor="start" x="495.4758" y="-829.4" font-family="Helvetica,sans-Serif" font-size="11.00" fill="#000000">uuid[2147483647]</text>
<polygon fill="none" stroke="#000000" points="225.5,-799.7 225.5,-821.7 492.5,-821.7 492.5,-799.7 225.5,-799.7"/>
<text text-anchor="start" x="245.5" y="-806.8" font-family="Helvetica,sans-Serif" font-size="11.00" fill="#000000">staff_involved</text>
<polygon fill="none" stroke="#000000" points="492.5,-799.7 492.5,-821.7 586.5,-821.7 586.5,-799.7 492.5,-799.7"/>
<text text-anchor="start" x="495.5" y="-807.4" font-family="Helvetica,sans-Serif" font-size="11.00" fill="#000000">text[2147483647]</text>
<polygon fill="none" stroke="#000000" points="225.5,-777.7 225.5,-799.7 492.5,-799.7 492.5,-777.7 225.5,-777.7"/>
<text text-anchor="start" x="245.5" y="-784.8" font-family="Helvetica,sans-Serif" font-size="11.00" fill="#000000">evidence_secured</text>
<polygon fill="none" stroke="#000000" points="492.5,-777.7 492.5,-799.7 586.5,-799.7 586.5,-777.7 492.5,-777.7"/>
<text text-anchor="start" x="495.5" y="-785.4" font-family="Helvetica,sans-Serif" font-size="11.00" fill="#000000">text[2147483647]</text>
<polygon fill="none" stroke="#000000" points="225.5,-755.7 225.5,-777.7 492.5,-777.7 492.5,-755.7 225.5,-755.7"/>
<text text-anchor="start" x="245.5" y="-762.8" font-family="Helvetica,sans-Serif" font-size="11.00" fill="#000000">occurrence_reason</text>
<polygon fill="none" stroke="#000000" points="492.5,-755.7 492.5,-777.7 586.5,-777.7 586.5,-755.7 492.5,-755.7"/>
<text text-anchor="start" x="495.5" y="-763.4" font-family="Helvetica,sans-Serif" font-size="11.00" fill="#000000">text[2147483647]</text>
<polygon fill="none" stroke="#000000" points="225.5,-733.7 225.5,-755.7 492.5,-755.7 492.5,-733.7 225.5,-733.7"/>
<text text-anchor="start" x="245.5" y="-740.8" font-family="Helvetica,sans-Serif" font-size="11.00" fill="#000000">persons_usual_behaviour</text>
<polygon fill="none" stroke="#000000" points="492.5,-733.7 492.5,-755.7 586.5,-755.7 586.5,-733.7 492.5,-733.7"/>
<text text-anchor="start" x="495.5" y="-741.4" font-family="Helvetica,sans-Serif" font-size="11.00" fill="#000000">text[2147483647]</text>
<polygon fill="none" stroke="#000000" points="225.5,-711.7 225.5,-733.7 492.5,-733.7 492.5,-711.7 225.5,-711.7"/>
<text text-anchor="start" x="245.5" y="-718.8" font-family="Helvetica,sans-Serif" font-size="11.00" fill="#000000">persons_trigger</text>
<polygon fill="none" stroke="#000000" points="492.5,-711.7 492.5,-733.7 586.5,-733.7 586.5,-711.7 492.5,-711.7"/>
<text text-anchor="start" x="495.5" y="-719.4" font-family="Helvetica,sans-Serif" font-size="11.00" fill="#000000">text[2147483647]</text>
<polygon fill="none" stroke="#000000" points="225.5,-689.7 225.5,-711.7 492.5,-711.7 492.5,-689.7 225.5,-689.7"/>
<text text-anchor="start" x="245.5" y="-696.8" font-family="Helvetica,sans-Serif" font-size="11.00" fill="#000000">protective_factors</text>
<polygon fill="none" stroke="#000000" points="492.5,-689.7 492.5,-711.7 586.5,-711.7 586.5,-689.7 492.5,-689.7"/>
<text text-anchor="start" x="495.5" y="-697.4" font-family="Helvetica,sans-Serif" font-size="11.00" fill="#000000">text[2147483647]</text>
<polygon fill="none" stroke="#000000" points="225.5,-667.7 225.5,-689.7 492.5,-689.7 492.5,-667.7 225.5,-667.7"/>
<text text-anchor="start" x="245.5" y="-674.8" font-family="Helvetica,sans-Serif" font-size="11.00" fill="#000000">staff_involved_modified</text>
<polygon fill="none" stroke="#000000" points="492.5,-667.7 492.5,-689.7 586.5,-689.7 586.5,-667.7 492.5,-667.7"/>
<text text-anchor="start" x="495.5" y="-675.4" font-family="Helvetica,sans-Serif" font-size="11.00" fill="#000000">bool[1]</text>
<polygon fill="none" stroke="#000000" points="225.5,-645.7 225.5,-667.7 492.5,-667.7 492.5,-645.7 225.5,-645.7"/>
<text text-anchor="start" x="245.5" y="-652.8" font-family="Helvetica,sans-Serif" font-size="11.00" fill="#000000">evidence_secured_modified</text>
<polygon fill="none" stroke="#000000" points="492.5,-645.7 492.5,-667.7 586.5,-667.7 586.5,-645.7 492.5,-645.7"/>
<text text-anchor="start" x="495.5" y="-653.4" font-family="Helvetica,sans-Serif" font-size="11.00" fill="#000000">bool[1]</text>
<polygon fill="none" stroke="#000000" points="225.5,-623.7 225.5,-645.7 492.5,-645.7 492.5,-623.7 225.5,-623.7"/>
<text text-anchor="start" x="245.5" y="-630.8" font-family="Helvetica,sans-Serif" font-size="11.00" fill="#000000">occurrence_reason_modified</text>
<polygon fill="none" stroke="#000000" points="492.5,-623.7 492.5,-645.7 586.5,-645.7 586.5,-623.7 492.5,-623.7"/>
<text text-anchor="start" x="495.5" y="-631.4" font-family="Helvetica,sans-Serif" font-size="11.00" fill="#000000">bool[1]</text>
<polygon fill="none" stroke="#000000" points="225.5,-601.7 225.5,-623.7 492.5,-623.7 492.5,-601.7 225.5,-601.7"/>
<text text-anchor="start" x="245.5" y="-608.8" font-family="Helvetica,sans-Serif" font-size="11.00" fill="#000000">persons_usual_behaviour_modified</text>
<polygon fill="none" stroke="#000000" points="492.5,-601.7 492.5,-623.7 586.5,-623.7 586.5,-601.7 492.5,-601.7"/>
<text text-anchor="start" x="495.5" y="-609.4" font-family="Helvetica,sans-Serif" font-size="11.00" fill="#000000">bool[1]</text>
<polygon fill="none" stroke="#000000" points="225.5,-579.7 225.5,-601.7 492.5,-601.7 492.5,-579.7 225.5,-579.7"/>
<text text-anchor="start" x="245.5" y="-586.8" font-family="Helvetica,sans-Serif" font-size="11.00" fill="#000000">persons_trigger_modified</text>
<polygon fill="none" stroke="#000000" points="492.5,-579.7 492.5,-601.7 586.5,-601.7 586.5,-579.7 492.5,-579.7"/>
<text text-anchor="start" x="495.5" y="-587.4" font-family="Helvetica,sans-Serif" font-size="11.00" fill="#000000">bool[1]</text>
<polygon fill="none" stroke="#000000" points="225.5,-557.7 225.5,-579.7 492.5,-579.7 492.5,-557.7 225.5,-557.7"/>
<text text-anchor="start" x="245.5" y="-564.8" font-family="Helvetica,sans-Serif" font-size="11.00" fill="#000000">protective_factors_modified</text>
<polygon fill="none" stroke="#000000" points="492.5,-557.7 492.5,-579.7 586.5,-579.7 586.5,-557.7 492.5,-557.7"/>
<text text-anchor="start" x="495.5" y="-565.4" font-family="Helvetica,sans-Serif" font-size="11.00" fill="#000000">bool[1]</text>
<polygon fill="none" stroke="#000000" points="225.5,-535.7 225.5,-557.7 492.5,-557.7 492.5,-535.7 225.5,-535.7"/>
<text text-anchor="start" x="245.5" y="-542.8" font-family="Helvetica,sans-Serif" font-size="11.00" fill="#000000">recorded_by</text>
<polygon fill="none" stroke="#000000" points="492.5,-535.7 492.5,-557.7 586.5,-557.7 586.5,-535.7 492.5,-535.7"/>
<text text-anchor="start" x="495.5" y="-543.4" font-family="Helvetica,sans-Serif" font-size="11.00" fill="#000000">varchar[64]</text>
<polygon fill="none" stroke="#000000" points="225.5,-513.7 225.5,-535.7 492.5,-535.7 492.5,-513.7 225.5,-513.7"/>
<text text-anchor="start" x="245.5" y="-520.8" font-family="Helvetica,sans-Serif" font-size="11.00" fill="#000000">recorded_by_display_name</text>
<polygon fill="none" stroke="#000000" points="492.5,-513.7 492.5,-535.7 586.5,-535.7 586.5,-513.7 492.5,-513.7"/>
<text text-anchor="start" x="495.5" y="-521.4" font-family="Helvetica,sans-Serif" font-size="11.00" fill="#000000">varchar[255]</text>
<polygon fill="none" stroke="#000000" points="225.5,-491.7 225.5,-513.7 492.5,-513.7 492.5,-491.7 225.5,-491.7"/>
<text text-anchor="start" x="245.5" y="-498.8" font-family="Helvetica,sans-Serif" font-size="11.00" fill="#000000">recorded_by_modified</text>
<polygon fill="none" stroke="#000000" points="492.5,-491.7 492.5,-513.7 586.5,-513.7 586.5,-491.7 492.5,-491.7"/>
<text text-anchor="start" x="495.5" y="-499.4" font-family="Helvetica,sans-Serif" font-size="11.00" fill="#000000">bool[1]</text>
<polygon fill="none" stroke="#000000" points="225.5,-469.7 225.5,-491.7 492.5,-491.7 492.5,-469.7 225.5,-469.7"/>
<text text-anchor="start" x="245.5" y="-476.8" font-family="Helvetica,sans-Serif" font-size="11.00" fill="#000000">recorded_by_display_name_modified</text>
<polygon fill="none" stroke="#000000" points="492.5,-469.7 492.5,-491.7 586.5,-491.7 586.5,-469.7 492.5,-469.7"/>
<text text-anchor="start" x="495.5" y="-477.4" font-family="Helvetica,sans-Serif" font-size="11.00" fill="#000000">bool[1]</text>
<polygon fill="#ffffff" stroke="transparent" points="225.5,-450.7 225.5,-469.7 363.5,-469.7 363.5,-450.7 225.5,-450.7"/>
<polygon fill="none" stroke="#000000" points="225.5,-450.7 225.5,-469.7 363.5,-469.7 363.5,-450.7 225.5,-450.7"/>
<text text-anchor="start" x="228.5" y="-456.8" font-family="Helvetica,sans-Serif" font-size="11.00" fill="#000000">&lt; 1</text>
<polygon fill="#ffffff" stroke="transparent" points="363.5,-450.7 363.5,-469.7 492.5,-469.7 492.5,-450.7 363.5,-450.7"/>
<polygon fill="none" stroke="#000000" points="363.5,-450.7 363.5,-469.7 492.5,-469.7 492.5,-450.7 363.5,-450.7"/>
<text text-anchor="start" x="483.3862" y="-456.8" font-family="Helvetica,sans-Serif" font-size="11.00" fill="#000000"> &#160;</text>
<polygon fill="#ffffff" stroke="transparent" points="492.5,-450.7 492.5,-469.7 586.5,-469.7 586.5,-450.7 492.5,-450.7"/>
<polygon fill="none" stroke="#000000" points="492.5,-450.7 492.5,-469.7 586.5,-469.7 586.5,-450.7 492.5,-450.7"/>
<text text-anchor="start" x="567.9053" y="-456.8" font-family="Helvetica,sans-Serif" font-size="11.00" fill="#000000">0 &gt;</text>
<polygon fill="none" stroke="#000000" stroke-width="2" points="224,-449.7 224,-911.7 587,-911.7 587,-449.7 224,-449.7"/>
</a>
</g>
</g>
<!-- investigation_audit&#45;&gt;audit_revision -->
<g id="edge7" class="edge">
<title>investigation_audit:w&#45;&gt;audit_revision:e</title>
<path fill="none" stroke="#000000" d="M211.4729,-881.1947C197.5092,-892.0296 197.5361,-918.7 174,-918.7"/>
<polygon fill="#000000" stroke="#000000" points="217.8816,-879.1412 226.5986,-880.1283 221.6908,-877.9206 225.5,-876.7 225.5,-876.7 225.5,-876.7 221.6908,-877.9206 224.4014,-873.2717 217.8816,-879.1412 217.8816,-879.1412"/>
<ellipse fill="none" stroke="#000000" cx="214.8342" cy="-880.1177" rx="3.2" ry="3.2"/>
</g>
<!-- person_summary_audit -->
<g id="node9" class="node">
<title>person_summary_audit</title>
<g id="a_node9"><a xlink:href="../../tables/person_summary_audit.html" xlink:title="person_summary_audit" target="_top">
<polygon fill="#ffffff" stroke="transparent" points="308,-366.2 308,-427.2 503,-427.2 503,-366.2 308,-366.2"/>
<polygon fill="#f5f5f5" stroke="transparent" points="308.5,-403.7 308.5,-426.7 503.5,-426.7 503.5,-403.7 308.5,-403.7"/>
<polygon fill="none" stroke="#000000" points="308.5,-403.7 308.5,-426.7 503.5,-426.7 503.5,-403.7 308.5,-403.7"/>
<text text-anchor="start" x="313.5" y="-412.3" font-family="Helvetica,sans-Serif" font-weight="bold" font-size="11.00" fill="#000000">person_summary_audit</text>
<text text-anchor="start" x="469.0219" y="-411.8" font-family="Helvetica,sans-Serif" font-size="11.00" fill="#000000">[table]</text>
<polygon fill="none" stroke="#000000" points="308.5,-384.7 308.5,-403.7 503.5,-403.7 503.5,-384.7 308.5,-384.7"/>
<text text-anchor="start" x="311.5" y="-390.8" font-family="Helvetica,sans-Serif" font-size="11.00" fill="#000000">...</text>
<polygon fill="#ffffff" stroke="transparent" points="308.5,-365.7 308.5,-384.7 404.5,-384.7 404.5,-365.7 308.5,-365.7"/>
<polygon fill="none" stroke="#000000" points="308.5,-365.7 308.5,-384.7 404.5,-384.7 404.5,-365.7 308.5,-365.7"/>
<text text-anchor="start" x="311.5" y="-371.8" font-family="Helvetica,sans-Serif" font-size="11.00" fill="#000000">&lt; 1</text>
<polygon fill="#ffffff" stroke="transparent" points="404.5,-365.7 404.5,-384.7 453.5,-384.7 453.5,-365.7 404.5,-365.7"/>
<polygon fill="none" stroke="#000000" points="404.5,-365.7 404.5,-384.7 453.5,-384.7 453.5,-365.7 404.5,-365.7"/>
<text text-anchor="start" x="444.3862" y="-371.8" font-family="Helvetica,sans-Serif" font-size="11.00" fill="#000000"> &#160;</text>
<polygon fill="#ffffff" stroke="transparent" points="453.5,-365.7 453.5,-384.7 503.5,-384.7 503.5,-365.7 453.5,-365.7"/>
<polygon fill="none" stroke="#000000" points="453.5,-365.7 453.5,-384.7 503.5,-384.7 503.5,-365.7 453.5,-365.7"/>
<text text-anchor="start" x="494.3862" y="-371.8" font-family="Helvetica,sans-Serif" font-size="11.00" fill="#000000"> &#160;</text>
</a>
</g>
</g>
<!-- person_summary_audit&#45;&gt;audit_revision -->
<g id="edge8" class="edge">
<title>person_summary_audit:w&#45;&gt;audit_revision:e</title>
<path fill="none" stroke="#000000" d="M293.7429,-394.0055C257.5149,-395.6907 238.2157,-405.0352 215,-438.7 184.6119,-482.7654 227.5275,-918.7 174,-918.7"/>
<polygon fill="#000000" stroke="#000000" points="300.5017,-393.8657 308.5745,-397.2992 304.5009,-393.7828 308.5,-393.7 308.5,-393.7 308.5,-393.7 304.5009,-393.7828 308.4255,-390.1008 300.5017,-393.8657 300.5017,-393.8657"/>
<ellipse fill="none" stroke="#000000" cx="297.3024" cy="-393.9319" rx="3.2" ry="3.2"/>
</g>
<!-- plan_audit -->
<g id="node10" class="node">
<title>plan_audit</title>
<g id="a_node10"><a xlink:href="../../tables/plan_audit.html" xlink:title="plan_audit" target="_top">
<polygon fill="#ffffff" stroke="transparent" points="351,-284.2 351,-345.2 460,-345.2 460,-284.2 351,-284.2"/>
<polygon fill="#f5f5f5" stroke="transparent" points="351.5,-321.7 351.5,-344.7 460.5,-344.7 460.5,-321.7 351.5,-321.7"/>
<polygon fill="none" stroke="#000000" points="351.5,-321.7 351.5,-344.7 460.5,-344.7 460.5,-321.7 351.5,-321.7"/>
<text text-anchor="start" x="356.5" y="-330.3" font-family="Helvetica,sans-Serif" font-weight="bold" font-size="11.00" fill="#000000">plan_audit</text>
<text text-anchor="start" x="426.0219" y="-329.8" font-family="Helvetica,sans-Serif" font-size="11.00" fill="#000000">[table]</text>
<polygon fill="none" stroke="#000000" points="351.5,-302.7 351.5,-321.7 460.5,-321.7 460.5,-302.7 351.5,-302.7"/>
<text text-anchor="start" x="354.5" y="-308.8" font-family="Helvetica,sans-Serif" font-size="11.00" fill="#000000">...</text>
<polygon fill="#ffffff" stroke="transparent" points="351.5,-283.7 351.5,-302.7 404.5,-302.7 404.5,-283.7 351.5,-283.7"/>
<polygon fill="none" stroke="#000000" points="351.5,-283.7 351.5,-302.7 404.5,-302.7 404.5,-283.7 351.5,-283.7"/>
<text text-anchor="start" x="354.5" y="-289.8" font-family="Helvetica,sans-Serif" font-size="11.00" fill="#000000">&lt; 1</text>
<polygon fill="#ffffff" stroke="transparent" points="404.5,-283.7 404.5,-302.7 432.5,-302.7 432.5,-283.7 404.5,-283.7"/>
<polygon fill="none" stroke="#000000" points="404.5,-283.7 404.5,-302.7 432.5,-302.7 432.5,-283.7 404.5,-283.7"/>
<text text-anchor="start" x="423.3862" y="-289.8" font-family="Helvetica,sans-Serif" font-size="11.00" fill="#000000"> &#160;</text>
<polygon fill="#ffffff" stroke="transparent" points="432.5,-283.7 432.5,-302.7 460.5,-302.7 460.5,-283.7 432.5,-283.7"/>
<polygon fill="none" stroke="#000000" points="432.5,-283.7 432.5,-302.7 460.5,-302.7 460.5,-283.7 432.5,-283.7"/>
<text text-anchor="start" x="451.3862" y="-289.8" font-family="Helvetica,sans-Serif" font-size="11.00" fill="#000000"> &#160;</text>
</a>
</g>
</g>
<!-- plan_audit&#45;&gt;audit_revision -->
<g id="edge9" class="edge">
<title>plan_audit:w&#45;&gt;audit_revision:e</title>
<path fill="none" stroke="#000000" d="M337.0993,-311.6176C282.5063,-311.0862 251.2974,-309.4903 215,-355.7 176.2562,-405.0242 236.7212,-918.7 174,-918.7"/>
<polygon fill="#000000" stroke="#000000" points="343.5001,-311.6542 351.4794,-315.2999 347.5001,-311.6771 351.5,-311.7 351.5,-311.7 351.5,-311.7 347.5001,-311.6771 351.5206,-308.1001 343.5001,-311.6542 343.5001,-311.6542"/>
<ellipse fill="none" stroke="#000000" cx="340.3002" cy="-311.6358" rx="3.2" ry="3.2"/>
</g>
<!-- referral_audit -->
<g id="node11" class="node">
<title>referral_audit</title>
<g id="a_node11"><a xlink:href="../../tables/referral_audit.html" xlink:title="referral_audit" target="_top">
<polygon fill="#ffffff" stroke="transparent" points="340,-202.2 340,-263.2 471,-263.2 471,-202.2 340,-202.2"/>
<polygon fill="#f5f5f5" stroke="transparent" points="340.5,-239.7 340.5,-262.7 471.5,-262.7 471.5,-239.7 340.5,-239.7"/>
<polygon fill="none" stroke="#000000" points="340.5,-239.7 340.5,-262.7 471.5,-262.7 471.5,-239.7 340.5,-239.7"/>
<text text-anchor="start" x="345.5" y="-248.3" font-family="Helvetica,sans-Serif" font-weight="bold" font-size="11.00" fill="#000000">referral_audit</text>
<text text-anchor="start" x="437.0219" y="-247.8" font-family="Helvetica,sans-Serif" font-size="11.00" fill="#000000">[table]</text>
<polygon fill="none" stroke="#000000" points="340.5,-220.7 340.5,-239.7 471.5,-239.7 471.5,-220.7 340.5,-220.7"/>
<text text-anchor="start" x="343.5" y="-226.8" font-family="Helvetica,sans-Serif" font-size="11.00" fill="#000000">...</text>
<polygon fill="#ffffff" stroke="transparent" points="340.5,-201.7 340.5,-220.7 404.5,-220.7 404.5,-201.7 340.5,-201.7"/>
<polygon fill="none" stroke="#000000" points="340.5,-201.7 340.5,-220.7 404.5,-220.7 404.5,-201.7 340.5,-201.7"/>
<text text-anchor="start" x="343.5" y="-207.8" font-family="Helvetica,sans-Serif" font-size="11.00" fill="#000000">&lt; 1</text>
<polygon fill="#ffffff" stroke="transparent" points="404.5,-201.7 404.5,-220.7 437.5,-220.7 437.5,-201.7 404.5,-201.7"/>
<polygon fill="none" stroke="#000000" points="404.5,-201.7 404.5,-220.7 437.5,-220.7 437.5,-201.7 404.5,-201.7"/>
<text text-anchor="start" x="428.3862" y="-207.8" font-family="Helvetica,sans-Serif" font-size="11.00" fill="#000000"> &#160;</text>
<polygon fill="#ffffff" stroke="transparent" points="437.5,-201.7 437.5,-220.7 471.5,-220.7 471.5,-201.7 437.5,-201.7"/>
<polygon fill="none" stroke="#000000" points="437.5,-201.7 437.5,-220.7 471.5,-220.7 471.5,-201.7 437.5,-201.7"/>
<text text-anchor="start" x="462.3862" y="-207.8" font-family="Helvetica,sans-Serif" font-size="11.00" fill="#000000"> &#160;</text>
</a>
</g>
</g>
<!-- referral_audit&#45;&gt;audit_revision -->
<g id="edge10" class="edge">
<title>referral_audit:w&#45;&gt;audit_revision:e</title>
<path fill="none" stroke="#000000" d="M325.8699,-229.665C276.0813,-229.537 247.6334,-230.6421 215,-273.7 171.6246,-330.9314 245.8113,-918.7 174,-918.7"/>
<polygon fill="#000000" stroke="#000000" points="332.5,-229.6808 340.4914,-233.3 336.5,-229.6904 340.5,-229.7 340.5,-229.7 340.5,-229.7 336.5,-229.6904 340.5086,-226.1 332.5,-229.6808 332.5,-229.6808"/>
<ellipse fill="none" stroke="#000000" cx="329.3" cy="-229.6731" rx="3.2" ry="3.2"/>
</g>
<!-- review_audit -->
<g id="node12" class="node">
<title>review_audit</title>
<g id="a_node12"><a xlink:href="../../tables/review_audit.html" xlink:title="review_audit" target="_top">
<polygon fill="#ffffff" stroke="transparent" points="343,-120.2 343,-181.2 468,-181.2 468,-120.2 343,-120.2"/>
<polygon fill="#f5f5f5" stroke="transparent" points="343.5,-157.7 343.5,-180.7 468.5,-180.7 468.5,-157.7 343.5,-157.7"/>
<polygon fill="none" stroke="#000000" points="343.5,-157.7 343.5,-180.7 468.5,-180.7 468.5,-157.7 343.5,-157.7"/>
<text text-anchor="start" x="348.5" y="-166.3" font-family="Helvetica,sans-Serif" font-weight="bold" font-size="11.00" fill="#000000">review_audit</text>
<text text-anchor="start" x="434.0219" y="-165.8" font-family="Helvetica,sans-Serif" font-size="11.00" fill="#000000">[table]</text>
<polygon fill="none" stroke="#000000" points="343.5,-138.7 343.5,-157.7 468.5,-157.7 468.5,-138.7 343.5,-138.7"/>
<text text-anchor="start" x="346.5" y="-144.8" font-family="Helvetica,sans-Serif" font-size="11.00" fill="#000000">...</text>
<polygon fill="#ffffff" stroke="transparent" points="343.5,-119.7 343.5,-138.7 404.5,-138.7 404.5,-119.7 343.5,-119.7"/>
<polygon fill="none" stroke="#000000" points="343.5,-119.7 343.5,-138.7 404.5,-138.7 404.5,-119.7 343.5,-119.7"/>
<text text-anchor="start" x="346.5" y="-125.8" font-family="Helvetica,sans-Serif" font-size="11.00" fill="#000000">&lt; 1</text>
<polygon fill="#ffffff" stroke="transparent" points="404.5,-119.7 404.5,-138.7 436.5,-138.7 436.5,-119.7 404.5,-119.7"/>
<polygon fill="none" stroke="#000000" points="404.5,-119.7 404.5,-138.7 436.5,-138.7 436.5,-119.7 404.5,-119.7"/>
<text text-anchor="start" x="427.3862" y="-125.8" font-family="Helvetica,sans-Serif" font-size="11.00" fill="#000000"> &#160;</text>
<polygon fill="#ffffff" stroke="transparent" points="436.5,-119.7 436.5,-138.7 468.5,-138.7 468.5,-119.7 436.5,-119.7"/>
<polygon fill="none" stroke="#000000" points="436.5,-119.7 436.5,-138.7 468.5,-138.7 468.5,-119.7 436.5,-119.7"/>
<text text-anchor="start" x="459.3862" y="-125.8" font-family="Helvetica,sans-Serif" font-size="11.00" fill="#000000"> &#160;</text>
</a>
</g>
</g>
<!-- review_audit&#45;&gt;audit_revision -->
<g id="edge11" class="edge">
<title>review_audit:w&#45;&gt;audit_revision:e</title>
<path fill="none" stroke="#000000" d="M328.8779,-147.6465C277.7807,-147.3784 248.4038,-147.6331 215,-191.7 166.1258,-256.1757 254.9061,-918.7 174,-918.7"/>
<polygon fill="#000000" stroke="#000000" points="335.5001,-147.6707 343.4868,-151.3 339.5,-147.6853 343.5,-147.7 343.5,-147.7 343.5,-147.7 339.5,-147.6853 343.5132,-144.1 335.5001,-147.6707 335.5001,-147.6707"/>
<ellipse fill="none" stroke="#000000" cx="332.3001" cy="-147.6589" rx="3.2" ry="3.2"/>
</g>
<!-- safer_custody_screening_outcome_audit -->
<g id="node13" class="node">
<title>safer_custody_screening_outcome_audit</title>
<g id="a_node13"><a xlink:href="../../tables/safer_custody_screening_outcome_audit.html" xlink:title="safer_custody_screening_outcome_audit" target="_top">
<polygon fill="#ffffff" stroke="transparent" points="250.5,-38.2 250.5,-99.2 560.5,-99.2 560.5,-38.2 250.5,-38.2"/>
<polygon fill="#f5f5f5" stroke="transparent" points="250.5,-75.7 250.5,-98.7 560.5,-98.7 560.5,-75.7 250.5,-75.7"/>
<polygon fill="none" stroke="#000000" points="250.5,-75.7 250.5,-98.7 560.5,-98.7 560.5,-75.7 250.5,-75.7"/>
<text text-anchor="start" x="255.5" y="-84.3" font-family="Helvetica,sans-Serif" font-weight="bold" font-size="11.00" fill="#000000">safer_custody_screening_outcome_audit</text>
<text text-anchor="start" x="526.0219" y="-83.8" font-family="Helvetica,sans-Serif" font-size="11.00" fill="#000000">[table]</text>
<polygon fill="none" stroke="#000000" points="250.5,-56.7 250.5,-75.7 560.5,-75.7 560.5,-56.7 250.5,-56.7"/>
<text text-anchor="start" x="253.5" y="-62.8" font-family="Helvetica,sans-Serif" font-size="11.00" fill="#000000">...</text>
<polygon fill="#ffffff" stroke="transparent" points="250.5,-37.7 250.5,-56.7 403.5,-56.7 403.5,-37.7 250.5,-37.7"/>
<polygon fill="none" stroke="#000000" points="250.5,-37.7 250.5,-56.7 403.5,-56.7 403.5,-37.7 250.5,-37.7"/>
<text text-anchor="start" x="253.5" y="-43.8" font-family="Helvetica,sans-Serif" font-size="11.00" fill="#000000">&lt; 1</text>
<polygon fill="#ffffff" stroke="transparent" points="403.5,-37.7 403.5,-56.7 481.5,-56.7 481.5,-37.7 403.5,-37.7"/>
<polygon fill="none" stroke="#000000" points="403.5,-37.7 403.5,-56.7 481.5,-56.7 481.5,-37.7 403.5,-37.7"/>
<text text-anchor="start" x="472.3862" y="-43.8" font-family="Helvetica,sans-Serif" font-size="11.00" fill="#000000"> &#160;</text>
<polygon fill="#ffffff" stroke="transparent" points="481.5,-37.7 481.5,-56.7 560.5,-56.7 560.5,-37.7 481.5,-37.7"/>
<polygon fill="none" stroke="#000000" points="481.5,-37.7 481.5,-56.7 560.5,-56.7 560.5,-37.7 481.5,-37.7"/>
<text text-anchor="start" x="551.3862" y="-43.8" font-family="Helvetica,sans-Serif" font-size="11.00" fill="#000000"> &#160;</text>
</a>
</g>
</g>
<!-- safer_custody_screening_outcome_audit&#45;&gt;audit_revision -->
<g id="edge12" class="edge">
<title>safer_custody_screening_outcome_audit:w&#45;&gt;audit_revision:e</title>
<path fill="none" stroke="#000000" d="M236.3385,-68.8563C224.2974,-75.4836 221.8626,-91.7279 215,-109.7 198.9466,-151.7414 219.0021,-918.7 174,-918.7"/>
<polygon fill="#000000" stroke="#000000" points="242.6916,-67.4404 251.2832,-69.2138 246.5958,-66.5702 250.5,-65.7 250.5,-65.7 250.5,-65.7 246.5958,-66.5702 249.7168,-62.1862 242.6916,-67.4404 242.6916,-67.4404"/>
<ellipse fill="none" stroke="#000000" cx="239.5682" cy="-68.1365" rx="3.2" ry="3.2"/>
</g>
</g>
</svg>
