<?xml version="1.0" encoding="UTF-8" standalone="no"?>
<!DOCTYPE svg PUBLIC "-//W3C//DTD SVG 1.1//EN"
 "http://www.w3.org/Graphics/SVG/1.1/DTD/svg11.dtd">
<!-- Generated by graphviz version 2.40.1 (20161225.0304)
 -->
<!-- Title: oneDegreeRelationshipsDiagram Pages: 1 -->
<svg width="842pt" height="337pt"
 viewBox="0.00 0.00 842.00 336.70" xmlns="http://www.w3.org/2000/svg" xmlns:xlink="http://www.w3.org/1999/xlink">
<g id="graph0" class="graph" transform="scale(1 1) rotate(0) translate(4 332.7)">
<title>oneDegreeRelationshipsDiagram</title>
<polygon fill="#ffffff" stroke="transparent" points="-4,4 -4,-332.7 838,-332.7 838,4 -4,4"/>
<text text-anchor="middle" x="72.4936" y="-7.3" font-family="Helvetica,sans-Serif" font-size="11.00" fill="#000000">Generated by SchemaSpy</text>
<!-- interview -->
<g id="node1" class="node">
<title>interview</title>
<g id="a_node1"><a xlink:href="../../tables/interview.html" xlink:title="interview" target="_top">
<polygon fill="#ffffff" stroke="transparent" points="674,-175.7 674,-324.7 826,-324.7 826,-175.7 674,-175.7"/>
<polygon fill="#f5f5f5" stroke="transparent" points="674,-301.2 674,-324.2 826,-324.2 826,-301.2 674,-301.2"/>
<polygon fill="none" stroke="#000000" points="674,-301.2 674,-324.2 826,-324.2 826,-301.2 674,-301.2"/>
<text text-anchor="start" x="679" y="-309.8" font-family="Helvetica,sans-Serif" font-weight="bold" font-size="11.00" fill="#000000">interview</text>
<text text-anchor="start" x="791.0437" y="-309.3" font-family="Helvetica,sans-Serif" font-size="11.00" fill="#000000">[table]</text>
<polygon fill="none" stroke="#000000" points="674,-279.2 674,-301.2 826,-301.2 826,-279.2 674,-279.2"/>
<image xlink:href="../../images/primaryKeys.png" width="11px" height="12px" preserveAspectRatio="xMinYMin meet" x="679" y="-296.2"/>
<text text-anchor="start" x="694" y="-286.3" font-family="Helvetica,sans-Serif" font-size="11.00" fill="#000000">interview_id</text>
<polygon fill="#ffffff" stroke="transparent" points="674,-257.2 674,-279.2 826,-279.2 826,-257.2 674,-257.2"/>
<polygon fill="none" stroke="#000000" points="674,-257.2 674,-279.2 826,-279.2 826,-257.2 674,-257.2"/>
<image xlink:href="../../images/foreignKeys.png" width="11px" height="12px" preserveAspectRatio="xMinYMin meet" x="679" y="-274.2"/>
<text text-anchor="start" x="694" y="-264.3" font-family="Helvetica,sans-Serif" font-size="11.00" fill="#000000">investigation_id</text>
<polygon fill="#ffffff" stroke="transparent" points="674,-235.2 674,-257.2 826,-257.2 826,-235.2 674,-235.2"/>
<polygon fill="none" stroke="#000000" points="674,-235.2 674,-257.2 826,-257.2 826,-235.2 674,-235.2"/>
<image xlink:href="../../images/foreignKeys.png" width="11px" height="12px" preserveAspectRatio="xMinYMin meet" x="679" y="-252.2"/>
<text text-anchor="start" x="694" y="-242.3" font-family="Helvetica,sans-Serif" font-size="11.00" fill="#000000">interviewee_role_id</text>
<polygon fill="#ffffff" stroke="transparent" points="674,-213.2 674,-235.2 826,-235.2 826,-213.2 674,-213.2"/>
<polygon fill="none" stroke="#000000" points="674,-213.2 674,-235.2 826,-235.2 826,-213.2 674,-213.2"/>
<image xlink:href="../../images/foreignKeys.png" width="11px" height="12px" preserveAspectRatio="xMinYMin meet" x="679" y="-230.2"/>
<text text-anchor="start" x="694" y="-220.3" font-family="Helvetica,sans-Serif" font-size="11.00" fill="#000000">legacy_id</text>
<polygon fill="none" stroke="#000000" points="674,-194.2 674,-213.2 826,-213.2 826,-194.2 674,-194.2"/>
<text text-anchor="start" x="677" y="-200.3" font-family="Helvetica,sans-Serif" font-size="11.00" fill="#000000">...</text>
<polygon fill="#ffffff" stroke="transparent" points="674,-175.2 674,-194.2 748,-194.2 748,-175.2 674,-175.2"/>
<polygon fill="none" stroke="#000000" points="674,-175.2 674,-194.2 748,-194.2 748,-175.2 674,-175.2"/>
<text text-anchor="start" x="677" y="-181.3" font-family="Helvetica,sans-Serif" font-size="11.00" fill="#000000">&lt; 2</text>
<polygon fill="#ffffff" stroke="transparent" points="748,-175.2 748,-194.2 787,-194.2 787,-175.2 748,-175.2"/>
<polygon fill="none" stroke="#000000" points="748,-175.2 748,-194.2 787,-194.2 787,-175.2 748,-175.2"/>
<text text-anchor="start" x="777.8862" y="-181.3" font-family="Helvetica,sans-Serif" font-size="11.00" fill="#000000"> &#160;</text>
<polygon fill="#ffffff" stroke="transparent" points="787,-175.2 787,-194.2 826,-194.2 826,-175.2 787,-175.2"/>
<polygon fill="none" stroke="#000000" points="787,-175.2 787,-194.2 826,-194.2 826,-175.2 787,-175.2"/>
<text text-anchor="start" x="816.8862" y="-181.3" font-family="Helvetica,sans-Serif" font-size="11.00" fill="#000000"> &#160;</text>
</a>
</g>
</g>
<!-- investigation -->
<g id="node2" class="node">
<title>investigation</title>
<g id="a_node2"><a xlink:href="../../tables/investigation.html" xlink:title="investigation" target="_top">
<polygon fill="#ffffff" stroke="transparent" points="326,-38.2 326,-304.2 625,-304.2 625,-38.2 326,-38.2"/>
<polygon fill="#f5f5f5" stroke="transparent" points="328.5,-279.2 328.5,-302.2 623.5,-302.2 623.5,-279.2 328.5,-279.2"/>
<polygon fill="none" stroke="#000000" points="328.5,-279.2 328.5,-302.2 623.5,-302.2 623.5,-279.2 328.5,-279.2"/>
<text text-anchor="start" x="333.5" y="-287.8" font-family="Helvetica,sans-Serif" font-weight="bold" font-size="11.00" fill="#000000">investigation</text>
<text text-anchor="start" x="588.5437" y="-287.3" font-family="Helvetica,sans-Serif" font-size="11.00" fill="#000000">[table]</text>
<polygon fill="none" stroke="#000000" points="328.5,-257.2 328.5,-279.2 529.5,-279.2 529.5,-257.2 328.5,-257.2"/>
<image xlink:href="../../images/primaryKeys.png" width="11px" height="12px" preserveAspectRatio="xMinYMin meet" x="333.5" y="-274.2"/>
<text text-anchor="start" x="348.5" y="-264.3" font-family="Helvetica,sans-Serif" font-size="11.00" fill="#000000">investigation_id</text>
<polygon fill="none" stroke="#000000" points="529.5,-257.2 529.5,-279.2 623.5,-279.2 623.5,-257.2 529.5,-257.2"/>
<text text-anchor="start" x="532.4758" y="-264.9" font-family="Helvetica,sans-Serif" font-size="11.00" fill="#000000">uuid[2147483647]</text>
<polygon fill="none" stroke="#000000" points="328.5,-235.2 328.5,-257.2 529.5,-257.2 529.5,-235.2 328.5,-235.2"/>
<text text-anchor="start" x="348.5" y="-242.3" font-family="Helvetica,sans-Serif" font-size="11.00" fill="#000000">staff_involved</text>
<polygon fill="none" stroke="#000000" points="529.5,-235.2 529.5,-257.2 623.5,-257.2 623.5,-235.2 529.5,-235.2"/>
<text text-anchor="start" x="532.5" y="-242.9" font-family="Helvetica,sans-Serif" font-size="11.00" fill="#000000">text[2147483647]</text>
<polygon fill="none" stroke="#000000" points="328.5,-213.2 328.5,-235.2 529.5,-235.2 529.5,-213.2 328.5,-213.2"/>
<text text-anchor="start" x="348.5" y="-220.3" font-family="Helvetica,sans-Serif" font-size="11.00" fill="#000000">evidence_secured</text>
<polygon fill="none" stroke="#000000" points="529.5,-213.2 529.5,-235.2 623.5,-235.2 623.5,-213.2 529.5,-213.2"/>
<text text-anchor="start" x="532.5" y="-220.9" font-family="Helvetica,sans-Serif" font-size="11.00" fill="#000000">text[2147483647]</text>
<polygon fill="none" stroke="#000000" points="328.5,-191.2 328.5,-213.2 529.5,-213.2 529.5,-191.2 328.5,-191.2"/>
<text text-anchor="start" x="348.5" y="-198.3" font-family="Helvetica,sans-Serif" font-size="11.00" fill="#000000">occurrence_reason</text>
<polygon fill="none" stroke="#000000" points="529.5,-191.2 529.5,-213.2 623.5,-213.2 623.5,-191.2 529.5,-191.2"/>
<text text-anchor="start" x="532.5" y="-198.9" font-family="Helvetica,sans-Serif" font-size="11.00" fill="#000000">text[2147483647]</text>
<polygon fill="none" stroke="#000000" points="328.5,-169.2 328.5,-191.2 529.5,-191.2 529.5,-169.2 328.5,-169.2"/>
<text text-anchor="start" x="348.5" y="-176.3" font-family="Helvetica,sans-Serif" font-size="11.00" fill="#000000">persons_usual_behaviour</text>
<polygon fill="none" stroke="#000000" points="529.5,-169.2 529.5,-191.2 623.5,-191.2 623.5,-169.2 529.5,-169.2"/>
<text text-anchor="start" x="532.5" y="-176.9" font-family="Helvetica,sans-Serif" font-size="11.00" fill="#000000">text[2147483647]</text>
<polygon fill="none" stroke="#000000" points="328.5,-147.2 328.5,-169.2 529.5,-169.2 529.5,-147.2 328.5,-147.2"/>
<text text-anchor="start" x="348.5" y="-154.3" font-family="Helvetica,sans-Serif" font-size="11.00" fill="#000000">persons_trigger</text>
<polygon fill="none" stroke="#000000" points="529.5,-147.2 529.5,-169.2 623.5,-169.2 623.5,-147.2 529.5,-147.2"/>
<text text-anchor="start" x="532.5" y="-154.9" font-family="Helvetica,sans-Serif" font-size="11.00" fill="#000000">text[2147483647]</text>
<polygon fill="none" stroke="#000000" points="328.5,-125.2 328.5,-147.2 529.5,-147.2 529.5,-125.2 328.5,-125.2"/>
<text text-anchor="start" x="348.5" y="-132.3" font-family="Helvetica,sans-Serif" font-size="11.00" fill="#000000">protective_factors</text>
<polygon fill="none" stroke="#000000" points="529.5,-125.2 529.5,-147.2 623.5,-147.2 623.5,-125.2 529.5,-125.2"/>
<text text-anchor="start" x="532.5" y="-132.9" font-family="Helvetica,sans-Serif" font-size="11.00" fill="#000000">text[2147483647]</text>
<polygon fill="none" stroke="#000000" points="328.5,-103.2 328.5,-125.2 529.5,-125.2 529.5,-103.2 328.5,-103.2"/>
<text text-anchor="start" x="348.5" y="-110.3" font-family="Helvetica,sans-Serif" font-size="11.00" fill="#000000">version</text>
<polygon fill="none" stroke="#000000" points="529.5,-103.2 529.5,-125.2 623.5,-125.2 623.5,-103.2 529.5,-103.2"/>
<text text-anchor="start" x="532.5" y="-110.9" font-family="Helvetica,sans-Serif" font-size="11.00" fill="#000000">int4[10]</text>
<polygon fill="none" stroke="#000000" points="328.5,-81.2 328.5,-103.2 529.5,-103.2 529.5,-81.2 328.5,-81.2"/>
<text text-anchor="start" x="348.5" y="-88.3" font-family="Helvetica,sans-Serif" font-size="11.00" fill="#000000">recorded_by</text>
<polygon fill="none" stroke="#000000" points="529.5,-81.2 529.5,-103.2 623.5,-103.2 623.5,-81.2 529.5,-81.2"/>
<text text-anchor="start" x="532.5" y="-88.9" font-family="Helvetica,sans-Serif" font-size="11.00" fill="#000000">varchar[64]</text>
<polygon fill="none" stroke="#000000" points="328.5,-59.2 328.5,-81.2 529.5,-81.2 529.5,-59.2 328.5,-59.2"/>
<text text-anchor="start" x="348.5" y="-66.3" font-family="Helvetica,sans-Serif" font-size="11.00" fill="#000000">recorded_by_display_name</text>
<polygon fill="none" stroke="#000000" points="529.5,-59.2 529.5,-81.2 623.5,-81.2 623.5,-59.2 529.5,-59.2"/>
<text text-anchor="start" x="532.5" y="-66.9" font-family="Helvetica,sans-Serif" font-size="11.00" fill="#000000">varchar[255]</text>
<polygon fill="#ffffff" stroke="transparent" points="328.5,-40.2 328.5,-59.2 433.5,-59.2 433.5,-40.2 328.5,-40.2"/>
<polygon fill="none" stroke="#000000" points="328.5,-40.2 328.5,-59.2 433.5,-59.2 433.5,-40.2 328.5,-40.2"/>
<text text-anchor="start" x="331.5" y="-46.3" font-family="Helvetica,sans-Serif" font-size="11.00" fill="#000000">&lt; 1</text>
<polygon fill="#ffffff" stroke="transparent" points="433.5,-40.2 433.5,-59.2 529.5,-59.2 529.5,-40.2 433.5,-40.2"/>
<polygon fill="none" stroke="#000000" points="433.5,-40.2 433.5,-59.2 529.5,-59.2 529.5,-40.2 433.5,-40.2"/>
<text text-anchor="start" x="520.3862" y="-46.3" font-family="Helvetica,sans-Serif" font-size="11.00" fill="#000000"> &#160;</text>
<polygon fill="#ffffff" stroke="transparent" points="529.5,-40.2 529.5,-59.2 623.5,-59.2 623.5,-40.2 529.5,-40.2"/>
<polygon fill="none" stroke="#000000" points="529.5,-40.2 529.5,-59.2 623.5,-59.2 623.5,-40.2 529.5,-40.2"/>
<text text-anchor="start" x="604.9053" y="-46.3" font-family="Helvetica,sans-Serif" font-size="11.00" fill="#000000">1 &gt;</text>
<polygon fill="none" stroke="#000000" stroke-width="2" points="327,-39.2 327,-303.2 624,-303.2 624,-39.2 327,-39.2"/>
</a>
</g>
</g>
<!-- interview&#45;&gt;investigation -->
<g id="edge1" class="edge">
<title>interview:w&#45;&gt;investigation:e</title>
<path fill="none" stroke="#000000" d="M659.4203,-268.2C647.5435,-268.2 640.158,-268.2 623.5,-268.2"/>
<polygon fill="#000000" stroke="#000000" points="666,-268.2001 674,-271.8 670,-268.2 674,-268.2 674,-268.2 674,-268.2 670,-268.2 674,-264.6 666,-268.2001 666,-268.2001"/>
<ellipse fill="none" stroke="#000000" cx="662.8" cy="-268.2001" rx="3.2" ry="3.2"/>
</g>
<!-- referral -->
<g id="node3" class="node">
<title>referral</title>
<g id="a_node3"><a xlink:href="../../tables/referral.html" xlink:title="referral" target="_top">
<polygon fill="#ffffff" stroke="transparent" points="8,-109.7 8,-302.7 277,-302.7 277,-109.7 8,-109.7"/>
<polygon fill="#f5f5f5" stroke="transparent" points="8.5,-279.2 8.5,-302.2 277.5,-302.2 277.5,-279.2 8.5,-279.2"/>
<polygon fill="none" stroke="#000000" points="8.5,-279.2 8.5,-302.2 277.5,-302.2 277.5,-279.2 8.5,-279.2"/>
<text text-anchor="start" x="13.5" y="-287.8" font-family="Helvetica,sans-Serif" font-weight="bold" font-size="11.00" fill="#000000">referral</text>
<text text-anchor="start" x="242.5437" y="-287.3" font-family="Helvetica,sans-Serif" font-size="11.00" fill="#000000">[table]</text>
<polygon fill="none" stroke="#000000" points="8.5,-257.2 8.5,-279.2 277.5,-279.2 277.5,-257.2 8.5,-257.2"/>
<image xlink:href="../../images/primaryKeys.png" width="11px" height="12px" preserveAspectRatio="xMinYMin meet" x="13.5" y="-274.2"/>
<text text-anchor="start" x="28.5" y="-264.3" font-family="Helvetica,sans-Serif" font-size="11.00" fill="#000000">referral_id</text>
<polygon fill="#ffffff" stroke="transparent" points="8.5,-235.2 8.5,-257.2 277.5,-257.2 277.5,-235.2 8.5,-235.2"/>
<polygon fill="none" stroke="#000000" points="8.5,-235.2 8.5,-257.2 277.5,-257.2 277.5,-235.2 8.5,-235.2"/>
<image xlink:href="../../images/foreignKeys.png" width="11px" height="12px" preserveAspectRatio="xMinYMin meet" x="13.5" y="-252.2"/>
<text text-anchor="start" x="28.5" y="-242.3" font-family="Helvetica,sans-Serif" font-size="11.00" fill="#000000">incident_type_id</text>
<polygon fill="#ffffff" stroke="transparent" points="8.5,-213.2 8.5,-235.2 277.5,-235.2 277.5,-213.2 8.5,-213.2"/>
<polygon fill="none" stroke="#000000" points="8.5,-213.2 8.5,-235.2 277.5,-235.2 277.5,-213.2 8.5,-213.2"/>
<image xlink:href="../../images/foreignKeys.png" width="11px" height="12px" preserveAspectRatio="xMinYMin meet" x="13.5" y="-230.2"/>
<text text-anchor="start" x="28.5" y="-220.3" font-family="Helvetica,sans-Serif" font-size="11.00" fill="#000000">incident_location_id</text>
<polygon fill="#ffffff" stroke="transparent" points="8.5,-191.2 8.5,-213.2 277.5,-213.2 277.5,-191.2 8.5,-191.2"/>
<polygon fill="none" stroke="#000000" points="8.5,-191.2 8.5,-213.2 277.5,-213.2 277.5,-191.2 8.5,-191.2"/>
<image xlink:href="../../images/foreignKeys.png" width="11px" height="12px" preserveAspectRatio="xMinYMin meet" x="13.5" y="-208.2"/>
<text text-anchor="start" x="28.5" y="-198.3" font-family="Helvetica,sans-Serif" font-size="11.00" fill="#000000">referer_area_of_work_id</text>
<polygon fill="#ffffff" stroke="transparent" points="8.5,-169.2 8.5,-191.2 277.5,-191.2 277.5,-169.2 8.5,-169.2"/>
<polygon fill="none" stroke="#000000" points="8.5,-169.2 8.5,-191.2 277.5,-191.2 277.5,-169.2 8.5,-169.2"/>
<text text-anchor="start" x="28.5" y="-176.3" font-family="Helvetica,sans-Serif" font-size="11.00" fill="#000000">referral_date</text>
<polygon fill="#ffffff" stroke="transparent" points="8.5,-147.2 8.5,-169.2 277.5,-169.2 277.5,-147.2 8.5,-147.2"/>
<polygon fill="none" stroke="#000000" points="8.5,-147.2 8.5,-169.2 277.5,-169.2 277.5,-147.2 8.5,-147.2"/>
<image xlink:href="../../images/foreignKeys.png" width="11px" height="12px" preserveAspectRatio="xMinYMin meet" x="13.5" y="-164.2"/>
<text text-anchor="start" x="28.5" y="-154.3" font-family="Helvetica,sans-Serif" font-size="11.00" fill="#000000">incident_involvement_id</text>
<polygon fill="none" stroke="#000000" points="8.5,-128.2 8.5,-147.2 277.5,-147.2 277.5,-128.2 8.5,-128.2"/>
<text text-anchor="start" x="11.5" y="-134.3" font-family="Helvetica,sans-Serif" font-size="11.00" fill="#000000">...</text>
<polygon fill="#ffffff" stroke="transparent" points="8.5,-109.2 8.5,-128.2 136.5,-128.2 136.5,-109.2 8.5,-109.2"/>
<polygon fill="none" stroke="#000000" points="8.5,-109.2 8.5,-128.2 136.5,-128.2 136.5,-109.2 8.5,-109.2"/>
<text text-anchor="start" x="11.5" y="-115.3" font-family="Helvetica,sans-Serif" font-size="11.00" fill="#000000">&lt; 5</text>
<polygon fill="#ffffff" stroke="transparent" points="136.5,-109.2 136.5,-128.2 202.5,-128.2 202.5,-109.2 136.5,-109.2"/>
<polygon fill="none" stroke="#000000" points="136.5,-109.2 136.5,-128.2 202.5,-128.2 202.5,-109.2 136.5,-109.2"/>
<text text-anchor="start" x="193.3862" y="-115.3" font-family="Helvetica,sans-Serif" font-size="11.00" fill="#000000"> &#160;</text>
<polygon fill="#ffffff" stroke="transparent" points="202.5,-109.2 202.5,-128.2 277.5,-128.2 277.5,-109.2 202.5,-109.2"/>
<polygon fill="none" stroke="#000000" points="202.5,-109.2 202.5,-128.2 277.5,-128.2 277.5,-109.2 202.5,-109.2"/>
<text text-anchor="start" x="258.9053" y="-115.3" font-family="Helvetica,sans-Serif" font-size="11.00" fill="#000000">4 &gt;</text>
</a>
</g>
</g>
<!-- investigation&#45;&gt;referral -->
<g id="edge2" class="edge">
<title>investigation:w&#45;&gt;referral:e</title>
<path fill="none" stroke="#000000" d="M317.7307,-268.2C303.248,-268.2 296.0938,-268.2 277.5,-268.2"/>
<polygon fill="#000000" stroke="#000000" points="327.7,-264.2 327.7,-272.2 326.1,-272.2 326.1,-264.2 327.7,-264.2"/>
<polyline fill="none" stroke="#000000" points="328.5,-268.2 324.5,-268.2 "/>
<ellipse fill="none" stroke="#000000" cx="321.3" cy="-268.2001" rx="3.2" ry="3.2"/>
</g>
</g>
</svg>
