<?xml version="1.0" encoding="UTF-8" standalone="no"?>
<!DOCTYPE svg PUBLIC "-//W3C//DTD SVG 1.1//EN"
 "http://www.w3.org/Graphics/SVG/1.1/DTD/svg11.dtd">
<!-- Generated by graphviz version 2.40.1 (20161225.0304)
 -->
<!-- Title: oneDegreeRelationshipsDiagramImplied Pages: 1 -->
<svg width="604pt" height="514pt"
 viewBox="0.00 0.00 604.00 514.20" xmlns="http://www.w3.org/2000/svg" xmlns:xlink="http://www.w3.org/1999/xlink">
<g id="graph0" class="graph" transform="scale(1 1) rotate(0) translate(4 510.2)">
<title>oneDegreeRelationshipsDiagramImplied</title>
<polygon fill="#ffffff" stroke="transparent" points="-4,4 -4,-510.2 600,-510.2 600,4 -4,4"/>
<text text-anchor="middle" x="72.4936" y="-7.3" font-family="Helvetica,sans-Serif" font-size="11.00" fill="#000000">Generated by SchemaSpy</text>
<!-- investigation_audit -->
<g id="node1" class="node">
<title>investigation_audit</title>
<g id="a_node1"><a xlink:href="../../tables/investigation_audit.html" xlink:title="investigation_audit" target="_top">
<polygon fill="#ffffff" stroke="transparent" points="223,-38.2 223,-502.2 588,-502.2 588,-38.2 223,-38.2"/>
<polygon fill="#f5f5f5" stroke="transparent" points="225.5,-477.2 225.5,-500.2 586.5,-500.2 586.5,-477.2 225.5,-477.2"/>
<polygon fill="none" stroke="#000000" points="225.5,-477.2 225.5,-500.2 586.5,-500.2 586.5,-477.2 225.5,-477.2"/>
<text text-anchor="start" x="230.5" y="-485.8" font-family="Helvetica,sans-Serif" font-weight="bold" font-size="11.00" fill="#000000">investigation_audit</text>
<text text-anchor="start" x="551.5437" y="-485.3" font-family="Helvetica,sans-Serif" font-size="11.00" fill="#000000">[table]</text>
<polygon fill="none" stroke="#000000" points="225.5,-455.2 225.5,-477.2 492.5,-477.2 492.5,-455.2 225.5,-455.2"/>
<image xlink:href="../../images/primaryKeys.png" width="11px" height="12px" preserveAspectRatio="xMinYMin meet" x="230.5" y="-472.2"/>
<text text-anchor="start" x="245.5" y="-462.3" font-family="Helvetica,sans-Serif" font-size="11.00" fill="#000000">rev_id</text>
<polygon fill="none" stroke="#000000" points="492.5,-455.2 492.5,-477.2 586.5,-477.2 586.5,-455.2 492.5,-455.2"/>
<text text-anchor="start" x="495.5" y="-462.9" font-family="Helvetica,sans-Serif" font-size="11.00" fill="#000000">int8[19]</text>
<polygon fill="none" stroke="#000000" points="225.5,-433.2 225.5,-455.2 492.5,-455.2 492.5,-433.2 225.5,-433.2"/>
<text text-anchor="start" x="245.5" y="-440.3" font-family="Helvetica,sans-Serif" font-size="11.00" fill="#000000">rev_type</text>
<polygon fill="none" stroke="#000000" points="492.5,-433.2 492.5,-455.2 586.5,-455.2 586.5,-433.2 492.5,-433.2"/>
<text text-anchor="start" x="495.5" y="-440.9" font-family="Helvetica,sans-Serif" font-size="11.00" fill="#000000">int2[5]</text>
<polygon fill="none" stroke="#000000" points="225.5,-411.2 225.5,-433.2 492.5,-433.2 492.5,-411.2 225.5,-411.2"/>
<image xlink:href="../../images/primaryKeys.png" width="11px" height="12px" preserveAspectRatio="xMinYMin meet" x="230.5" y="-428.2"/>
<text text-anchor="start" x="245.5" y="-418.3" font-family="Helvetica,sans-Serif" font-size="11.00" fill="#000000">investigation_id</text>
<polygon fill="none" stroke="#000000" points="492.5,-411.2 492.5,-433.2 586.5,-433.2 586.5,-411.2 492.5,-411.2"/>
<text text-anchor="start" x="495.4758" y="-418.9" font-family="Helvetica,sans-Serif" font-size="11.00" fill="#000000">uuid[2147483647]</text>
<polygon fill="none" stroke="#000000" points="225.5,-389.2 225.5,-411.2 492.5,-411.2 492.5,-389.2 225.5,-389.2"/>
<text text-anchor="start" x="245.5" y="-396.3" font-family="Helvetica,sans-Serif" font-size="11.00" fill="#000000">staff_involved</text>
<polygon fill="none" stroke="#000000" points="492.5,-389.2 492.5,-411.2 586.5,-411.2 586.5,-389.2 492.5,-389.2"/>
<text text-anchor="start" x="495.5" y="-396.9" font-family="Helvetica,sans-Serif" font-size="11.00" fill="#000000">text[2147483647]</text>
<polygon fill="none" stroke="#000000" points="225.5,-367.2 225.5,-389.2 492.5,-389.2 492.5,-367.2 225.5,-367.2"/>
<text text-anchor="start" x="245.5" y="-374.3" font-family="Helvetica,sans-Serif" font-size="11.00" fill="#000000">evidence_secured</text>
<polygon fill="none" stroke="#000000" points="492.5,-367.2 492.5,-389.2 586.5,-389.2 586.5,-367.2 492.5,-367.2"/>
<text text-anchor="start" x="495.5" y="-374.9" font-family="Helvetica,sans-Serif" font-size="11.00" fill="#000000">text[2147483647]</text>
<polygon fill="none" stroke="#000000" points="225.5,-345.2 225.5,-367.2 492.5,-367.2 492.5,-345.2 225.5,-345.2"/>
<text text-anchor="start" x="245.5" y="-352.3" font-family="Helvetica,sans-Serif" font-size="11.00" fill="#000000">occurrence_reason</text>
<polygon fill="none" stroke="#000000" points="492.5,-345.2 492.5,-367.2 586.5,-367.2 586.5,-345.2 492.5,-345.2"/>
<text text-anchor="start" x="495.5" y="-352.9" font-family="Helvetica,sans-Serif" font-size="11.00" fill="#000000">text[2147483647]</text>
<polygon fill="none" stroke="#000000" points="225.5,-323.2 225.5,-345.2 492.5,-345.2 492.5,-323.2 225.5,-323.2"/>
<text text-anchor="start" x="245.5" y="-330.3" font-family="Helvetica,sans-Serif" font-size="11.00" fill="#000000">persons_usual_behaviour</text>
<polygon fill="none" stroke="#000000" points="492.5,-323.2 492.5,-345.2 586.5,-345.2 586.5,-323.2 492.5,-323.2"/>
<text text-anchor="start" x="495.5" y="-330.9" font-family="Helvetica,sans-Serif" font-size="11.00" fill="#000000">text[2147483647]</text>
<polygon fill="none" stroke="#000000" points="225.5,-301.2 225.5,-323.2 492.5,-323.2 492.5,-301.2 225.5,-301.2"/>
<text text-anchor="start" x="245.5" y="-308.3" font-family="Helvetica,sans-Serif" font-size="11.00" fill="#000000">persons_trigger</text>
<polygon fill="none" stroke="#000000" points="492.5,-301.2 492.5,-323.2 586.5,-323.2 586.5,-301.2 492.5,-301.2"/>
<text text-anchor="start" x="495.5" y="-308.9" font-family="Helvetica,sans-Serif" font-size="11.00" fill="#000000">text[2147483647]</text>
<polygon fill="none" stroke="#000000" points="225.5,-279.2 225.5,-301.2 492.5,-301.2 492.5,-279.2 225.5,-279.2"/>
<text text-anchor="start" x="245.5" y="-286.3" font-family="Helvetica,sans-Serif" font-size="11.00" fill="#000000">protective_factors</text>
<polygon fill="none" stroke="#000000" points="492.5,-279.2 492.5,-301.2 586.5,-301.2 586.5,-279.2 492.5,-279.2"/>
<text text-anchor="start" x="495.5" y="-286.9" font-family="Helvetica,sans-Serif" font-size="11.00" fill="#000000">text[2147483647]</text>
<polygon fill="none" stroke="#000000" points="225.5,-257.2 225.5,-279.2 492.5,-279.2 492.5,-257.2 225.5,-257.2"/>
<text text-anchor="start" x="245.5" y="-264.3" font-family="Helvetica,sans-Serif" font-size="11.00" fill="#000000">staff_involved_modified</text>
<polygon fill="none" stroke="#000000" points="492.5,-257.2 492.5,-279.2 586.5,-279.2 586.5,-257.2 492.5,-257.2"/>
<text text-anchor="start" x="495.5" y="-264.9" font-family="Helvetica,sans-Serif" font-size="11.00" fill="#000000">bool[1]</text>
<polygon fill="none" stroke="#000000" points="225.5,-235.2 225.5,-257.2 492.5,-257.2 492.5,-235.2 225.5,-235.2"/>
<text text-anchor="start" x="245.5" y="-242.3" font-family="Helvetica,sans-Serif" font-size="11.00" fill="#000000">evidence_secured_modified</text>
<polygon fill="none" stroke="#000000" points="492.5,-235.2 492.5,-257.2 586.5,-257.2 586.5,-235.2 492.5,-235.2"/>
<text text-anchor="start" x="495.5" y="-242.9" font-family="Helvetica,sans-Serif" font-size="11.00" fill="#000000">bool[1]</text>
<polygon fill="none" stroke="#000000" points="225.5,-213.2 225.5,-235.2 492.5,-235.2 492.5,-213.2 225.5,-213.2"/>
<text text-anchor="start" x="245.5" y="-220.3" font-family="Helvetica,sans-Serif" font-size="11.00" fill="#000000">occurrence_reason_modified</text>
<polygon fill="none" stroke="#000000" points="492.5,-213.2 492.5,-235.2 586.5,-235.2 586.5,-213.2 492.5,-213.2"/>
<text text-anchor="start" x="495.5" y="-220.9" font-family="Helvetica,sans-Serif" font-size="11.00" fill="#000000">bool[1]</text>
<polygon fill="none" stroke="#000000" points="225.5,-191.2 225.5,-213.2 492.5,-213.2 492.5,-191.2 225.5,-191.2"/>
<text text-anchor="start" x="245.5" y="-198.3" font-family="Helvetica,sans-Serif" font-size="11.00" fill="#000000">persons_usual_behaviour_modified</text>
<polygon fill="none" stroke="#000000" points="492.5,-191.2 492.5,-213.2 586.5,-213.2 586.5,-191.2 492.5,-191.2"/>
<text text-anchor="start" x="495.5" y="-198.9" font-family="Helvetica,sans-Serif" font-size="11.00" fill="#000000">bool[1]</text>
<polygon fill="none" stroke="#000000" points="225.5,-169.2 225.5,-191.2 492.5,-191.2 492.5,-169.2 225.5,-169.2"/>
<text text-anchor="start" x="245.5" y="-176.3" font-family="Helvetica,sans-Serif" font-size="11.00" fill="#000000">persons_trigger_modified</text>
<polygon fill="none" stroke="#000000" points="492.5,-169.2 492.5,-191.2 586.5,-191.2 586.5,-169.2 492.5,-169.2"/>
<text text-anchor="start" x="495.5" y="-176.9" font-family="Helvetica,sans-Serif" font-size="11.00" fill="#000000">bool[1]</text>
<polygon fill="none" stroke="#000000" points="225.5,-147.2 225.5,-169.2 492.5,-169.2 492.5,-147.2 225.5,-147.2"/>
<text text-anchor="start" x="245.5" y="-154.3" font-family="Helvetica,sans-Serif" font-size="11.00" fill="#000000">protective_factors_modified</text>
<polygon fill="none" stroke="#000000" points="492.5,-147.2 492.5,-169.2 586.5,-169.2 586.5,-147.2 492.5,-147.2"/>
<text text-anchor="start" x="495.5" y="-154.9" font-family="Helvetica,sans-Serif" font-size="11.00" fill="#000000">bool[1]</text>
<polygon fill="none" stroke="#000000" points="225.5,-125.2 225.5,-147.2 492.5,-147.2 492.5,-125.2 225.5,-125.2"/>
<text text-anchor="start" x="245.5" y="-132.3" font-family="Helvetica,sans-Serif" font-size="11.00" fill="#000000">recorded_by</text>
<polygon fill="none" stroke="#000000" points="492.5,-125.2 492.5,-147.2 586.5,-147.2 586.5,-125.2 492.5,-125.2"/>
<text text-anchor="start" x="495.5" y="-132.9" font-family="Helvetica,sans-Serif" font-size="11.00" fill="#000000">varchar[64]</text>
<polygon fill="none" stroke="#000000" points="225.5,-103.2 225.5,-125.2 492.5,-125.2 492.5,-103.2 225.5,-103.2"/>
<text text-anchor="start" x="245.5" y="-110.3" font-family="Helvetica,sans-Serif" font-size="11.00" fill="#000000">recorded_by_display_name</text>
<polygon fill="none" stroke="#000000" points="492.5,-103.2 492.5,-125.2 586.5,-125.2 586.5,-103.2 492.5,-103.2"/>
<text text-anchor="start" x="495.5" y="-110.9" font-family="Helvetica,sans-Serif" font-size="11.00" fill="#000000">varchar[255]</text>
<polygon fill="none" stroke="#000000" points="225.5,-81.2 225.5,-103.2 492.5,-103.2 492.5,-81.2 225.5,-81.2"/>
<text text-anchor="start" x="245.5" y="-88.3" font-family="Helvetica,sans-Serif" font-size="11.00" fill="#000000">recorded_by_modified</text>
<polygon fill="none" stroke="#000000" points="492.5,-81.2 492.5,-103.2 586.5,-103.2 586.5,-81.2 492.5,-81.2"/>
<text text-anchor="start" x="495.5" y="-88.9" font-family="Helvetica,sans-Serif" font-size="11.00" fill="#000000">bool[1]</text>
<polygon fill="none" stroke="#000000" points="225.5,-59.2 225.5,-81.2 492.5,-81.2 492.5,-59.2 225.5,-59.2"/>
<text text-anchor="start" x="245.5" y="-66.3" font-family="Helvetica,sans-Serif" font-size="11.00" fill="#000000">recorded_by_display_name_modified</text>
<polygon fill="none" stroke="#000000" points="492.5,-59.2 492.5,-81.2 586.5,-81.2 586.5,-59.2 492.5,-59.2"/>
<text text-anchor="start" x="495.5" y="-66.9" font-family="Helvetica,sans-Serif" font-size="11.00" fill="#000000">bool[1]</text>
<polygon fill="#ffffff" stroke="transparent" points="225.5,-40.2 225.5,-59.2 363.5,-59.2 363.5,-40.2 225.5,-40.2"/>
<polygon fill="none" stroke="#000000" points="225.5,-40.2 225.5,-59.2 363.5,-59.2 363.5,-40.2 225.5,-40.2"/>
<text text-anchor="start" x="228.5" y="-46.3" font-family="Helvetica,sans-Serif" font-size="11.00" fill="#000000">&lt; 1</text>
<polygon fill="#ffffff" stroke="transparent" points="363.5,-40.2 363.5,-59.2 492.5,-59.2 492.5,-40.2 363.5,-40.2"/>
<polygon fill="none" stroke="#000000" points="363.5,-40.2 363.5,-59.2 492.5,-59.2 492.5,-40.2 363.5,-40.2"/>
<text text-anchor="start" x="483.3862" y="-46.3" font-family="Helvetica,sans-Serif" font-size="11.00" fill="#000000"> &#160;</text>
<polygon fill="#ffffff" stroke="transparent" points="492.5,-40.2 492.5,-59.2 586.5,-59.2 586.5,-40.2 492.5,-40.2"/>
<polygon fill="none" stroke="#000000" points="492.5,-40.2 492.5,-59.2 586.5,-59.2 586.5,-40.2 492.5,-40.2"/>
<text text-anchor="start" x="567.9053" y="-46.3" font-family="Helvetica,sans-Serif" font-size="11.00" fill="#000000">0 &gt;</text>
<polygon fill="none" stroke="#000000" stroke-width="2" points="224,-39.2 224,-501.2 587,-501.2 587,-39.2 224,-39.2"/>
</a>
</g>
</g>
<!-- audit_revision -->
<g id="node2" class="node">
<title>audit_revision</title>
<g id="a_node2"><a xlink:href="../../tables/audit_revision.html" xlink:title="audit_revision" target="_top">
<polygon fill="#ffffff" stroke="transparent" points="8,-417.7 8,-500.7 174,-500.7 174,-417.7 8,-417.7"/>
<polygon fill="#f5f5f5" stroke="transparent" points="8,-477.2 8,-500.2 174,-500.2 174,-477.2 8,-477.2"/>
<polygon fill="none" stroke="#000000" points="8,-477.2 8,-500.2 174,-500.2 174,-477.2 8,-477.2"/>
<text text-anchor="start" x="13" y="-485.8" font-family="Helvetica,sans-Serif" font-weight="bold" font-size="11.00" fill="#000000">audit_revision</text>
<text text-anchor="start" x="139.0437" y="-485.3" font-family="Helvetica,sans-Serif" font-size="11.00" fill="#000000">[table]</text>
<polygon fill="none" stroke="#000000" points="8,-455.2 8,-477.2 174,-477.2 174,-455.2 8,-455.2"/>
<image xlink:href="../../images/primaryKeys.png" width="11px" height="12px" preserveAspectRatio="xMinYMin meet" x="13" y="-472.2"/>
<text text-anchor="start" x="28" y="-462.3" font-family="Helvetica,sans-Serif" font-size="11.00" fill="#000000">id</text>
<polygon fill="none" stroke="#000000" points="8,-436.2 8,-455.2 174,-455.2 174,-436.2 8,-436.2"/>
<text text-anchor="start" x="11" y="-442.3" font-family="Helvetica,sans-Serif" font-size="11.00" fill="#000000">...</text>
<polygon fill="#ffffff" stroke="transparent" points="8,-417.2 8,-436.2 77,-436.2 77,-417.2 8,-417.2"/>
<polygon fill="none" stroke="#000000" points="8,-417.2 8,-436.2 77,-436.2 77,-417.2 8,-417.2"/>
<text text-anchor="start" x="11" y="-423.3" font-family="Helvetica,sans-Serif" font-size="11.00" fill="#000000"> &#160;</text>
<polygon fill="#ffffff" stroke="transparent" points="77,-417.2 77,-436.2 118,-436.2 118,-417.2 77,-417.2"/>
<polygon fill="none" stroke="#000000" points="77,-417.2 77,-436.2 118,-436.2 118,-417.2 77,-417.2"/>
<text text-anchor="start" x="108.8862" y="-423.3" font-family="Helvetica,sans-Serif" font-size="11.00" fill="#000000"> &#160;</text>
<polygon fill="#ffffff" stroke="transparent" points="118,-417.2 118,-436.2 174,-436.2 174,-417.2 118,-417.2"/>
<polygon fill="none" stroke="#000000" points="118,-417.2 118,-436.2 174,-436.2 174,-417.2 118,-417.2"/>
<text text-anchor="start" x="149.2904" y="-423.3" font-family="Helvetica,sans-Serif" font-size="11.00" fill="#000000">12 &gt;</text>
</a>
</g>
</g>
<!-- investigation_audit&#45;&gt;audit_revision -->
<g id="edge1" class="edge">
<title>investigation_audit:w&#45;&gt;audit_revision:e</title>
<path fill="none" stroke="#000000" d="M211.0156,-466.2C198.6771,-466.2 191.1667,-466.2 174,-466.2"/>
<polygon fill="#000000" stroke="#000000" points="217.5,-466.2001 225.5,-469.8 221.5,-466.2 225.5,-466.2 225.5,-466.2 225.5,-466.2 221.5,-466.2 225.5,-462.6 217.5,-466.2001 217.5,-466.2001"/>
<ellipse fill="none" stroke="#000000" cx="214.3" cy="-466.2001" rx="3.2" ry="3.2"/>
</g>
</g>
</svg>
