<?xml version="1.0" encoding="UTF-8" standalone="no"?>
<!DOCTYPE svg PUBLIC "-//W3C//DTD SVG 1.1//EN"
 "http://www.w3.org/Graphics/SVG/1.1/DTD/svg11.dtd">
<!-- Generated by graphviz version 2.40.1 (20161225.0304)
 -->
<!-- Title: oneDegreeRelationshipsDiagramImplied Pages: 1 -->
<svg width="878pt" height="391pt"
 viewBox="0.00 0.00 878.00 391.20" xmlns="http://www.w3.org/2000/svg" xmlns:xlink="http://www.w3.org/1999/xlink">
<g id="graph0" class="graph" transform="scale(1 1) rotate(0) translate(4 387.2)">
<title>oneDegreeRelationshipsDiagramImplied</title>
<polygon fill="#ffffff" stroke="transparent" points="-4,4 -4,-387.2 874,-387.2 874,4 -4,4"/>
<text text-anchor="middle" x="72.4936" y="-7.3" font-family="Helvetica,sans-Serif" font-size="11.00" fill="#000000">Generated by SchemaSpy</text>
<!-- interview -->
<g id="node1" class="node">
<title>interview</title>
<g id="a_node1"><a xlink:href="../../tables/interview.html" xlink:title="interview" target="_top">
<polygon fill="#ffffff" stroke="transparent" points="687,-230.2 687,-379.2 839,-379.2 839,-230.2 687,-230.2"/>
<polygon fill="#f5f5f5" stroke="transparent" points="687,-355.7 687,-378.7 839,-378.7 839,-355.7 687,-355.7"/>
<polygon fill="none" stroke="#000000" points="687,-355.7 687,-378.7 839,-378.7 839,-355.7 687,-355.7"/>
<text text-anchor="start" x="692" y="-364.3" font-family="Helvetica,sans-Serif" font-weight="bold" font-size="11.00" fill="#000000">interview</text>
<text text-anchor="start" x="804.0437" y="-363.8" font-family="Helvetica,sans-Serif" font-size="11.00" fill="#000000">[table]</text>
<polygon fill="none" stroke="#000000" points="687,-333.7 687,-355.7 839,-355.7 839,-333.7 687,-333.7"/>
<image xlink:href="../../images/primaryKeys.png" width="11px" height="12px" preserveAspectRatio="xMinYMin meet" x="692" y="-350.7"/>
<text text-anchor="start" x="707" y="-340.8" font-family="Helvetica,sans-Serif" font-size="11.00" fill="#000000">interview_id</text>
<polygon fill="#ffffff" stroke="transparent" points="687,-311.7 687,-333.7 839,-333.7 839,-311.7 687,-311.7"/>
<polygon fill="none" stroke="#000000" points="687,-311.7 687,-333.7 839,-333.7 839,-311.7 687,-311.7"/>
<image xlink:href="../../images/foreignKeys.png" width="11px" height="12px" preserveAspectRatio="xMinYMin meet" x="692" y="-328.7"/>
<text text-anchor="start" x="707" y="-318.8" font-family="Helvetica,sans-Serif" font-size="11.00" fill="#000000">investigation_id</text>
<polygon fill="#ffffff" stroke="transparent" points="687,-289.7 687,-311.7 839,-311.7 839,-289.7 687,-289.7"/>
<polygon fill="none" stroke="#000000" points="687,-289.7 687,-311.7 839,-311.7 839,-289.7 687,-289.7"/>
<image xlink:href="../../images/foreignKeys.png" width="11px" height="12px" preserveAspectRatio="xMinYMin meet" x="692" y="-306.7"/>
<text text-anchor="start" x="707" y="-296.8" font-family="Helvetica,sans-Serif" font-size="11.00" fill="#000000">interviewee_role_id</text>
<polygon fill="#ffffff" stroke="transparent" points="687,-267.7 687,-289.7 839,-289.7 839,-267.7 687,-267.7"/>
<polygon fill="none" stroke="#000000" points="687,-267.7 687,-289.7 839,-289.7 839,-267.7 687,-267.7"/>
<image xlink:href="../../images/foreignKeys.png" width="11px" height="12px" preserveAspectRatio="xMinYMin meet" x="692" y="-284.7"/>
<text text-anchor="start" x="707" y="-274.8" font-family="Helvetica,sans-Serif" font-size="11.00" fill="#000000">legacy_id</text>
<polygon fill="none" stroke="#000000" points="687,-248.7 687,-267.7 839,-267.7 839,-248.7 687,-248.7"/>
<text text-anchor="start" x="690" y="-254.8" font-family="Helvetica,sans-Serif" font-size="11.00" fill="#000000">...</text>
<polygon fill="#ffffff" stroke="transparent" points="687,-229.7 687,-248.7 761,-248.7 761,-229.7 687,-229.7"/>
<polygon fill="none" stroke="#000000" points="687,-229.7 687,-248.7 761,-248.7 761,-229.7 687,-229.7"/>
<text text-anchor="start" x="690" y="-235.8" font-family="Helvetica,sans-Serif" font-size="11.00" fill="#000000">&lt; 2</text>
<polygon fill="#ffffff" stroke="transparent" points="761,-229.7 761,-248.7 800,-248.7 800,-229.7 761,-229.7"/>
<polygon fill="none" stroke="#000000" points="761,-229.7 761,-248.7 800,-248.7 800,-229.7 761,-229.7"/>
<text text-anchor="start" x="790.8862" y="-235.8" font-family="Helvetica,sans-Serif" font-size="11.00" fill="#000000"> &#160;</text>
<polygon fill="#ffffff" stroke="transparent" points="800,-229.7 800,-248.7 839,-248.7 839,-229.7 800,-229.7"/>
<polygon fill="none" stroke="#000000" points="800,-229.7 800,-248.7 839,-248.7 839,-229.7 800,-229.7"/>
<text text-anchor="start" x="829.8862" y="-235.8" font-family="Helvetica,sans-Serif" font-size="11.00" fill="#000000"> &#160;</text>
</a>
</g>
</g>
<!-- investigation -->
<g id="node2" class="node">
<title>investigation</title>
<g id="a_node2"><a xlink:href="../../tables/investigation.html" xlink:title="investigation" target="_top">
<polygon fill="#ffffff" stroke="transparent" points="326,-40.7 326,-262.7 615,-262.7 615,-40.7 326,-40.7"/>
<polygon fill="#f5f5f5" stroke="transparent" points="328.5,-237.7 328.5,-260.7 613.5,-260.7 613.5,-237.7 328.5,-237.7"/>
<polygon fill="none" stroke="#000000" points="328.5,-237.7 328.5,-260.7 613.5,-260.7 613.5,-237.7 328.5,-237.7"/>
<text text-anchor="start" x="333.5" y="-246.3" font-family="Helvetica,sans-Serif" font-weight="bold" font-size="11.00" fill="#000000">investigation</text>
<text text-anchor="start" x="578.5437" y="-245.8" font-family="Helvetica,sans-Serif" font-size="11.00" fill="#000000">[table]</text>
<polygon fill="none" stroke="#000000" points="328.5,-215.7 328.5,-237.7 519.5,-237.7 519.5,-215.7 328.5,-215.7"/>
<image xlink:href="../../images/primaryKeys.png" width="11px" height="12px" preserveAspectRatio="xMinYMin meet" x="333.5" y="-232.7"/>
<text text-anchor="start" x="348.5" y="-222.8" font-family="Helvetica,sans-Serif" font-size="11.00" fill="#000000">investigation_id</text>
<polygon fill="none" stroke="#000000" points="519.5,-215.7 519.5,-237.7 613.5,-237.7 613.5,-215.7 519.5,-215.7"/>
<text text-anchor="start" x="522.4758" y="-223.4" font-family="Helvetica,sans-Serif" font-size="11.00" fill="#000000">uuid[2147483647]</text>
<polygon fill="none" stroke="#000000" points="328.5,-193.7 328.5,-215.7 519.5,-215.7 519.5,-193.7 328.5,-193.7"/>
<text text-anchor="start" x="348.5" y="-200.8" font-family="Helvetica,sans-Serif" font-size="11.00" fill="#000000">staff_involved</text>
<polygon fill="none" stroke="#000000" points="519.5,-193.7 519.5,-215.7 613.5,-215.7 613.5,-193.7 519.5,-193.7"/>
<text text-anchor="start" x="522.5" y="-201.4" font-family="Helvetica,sans-Serif" font-size="11.00" fill="#000000">text[2147483647]</text>
<polygon fill="none" stroke="#000000" points="328.5,-171.7 328.5,-193.7 519.5,-193.7 519.5,-171.7 328.5,-171.7"/>
<text text-anchor="start" x="348.5" y="-178.8" font-family="Helvetica,sans-Serif" font-size="11.00" fill="#000000">evidence_secured</text>
<polygon fill="none" stroke="#000000" points="519.5,-171.7 519.5,-193.7 613.5,-193.7 613.5,-171.7 519.5,-171.7"/>
<text text-anchor="start" x="522.5" y="-179.4" font-family="Helvetica,sans-Serif" font-size="11.00" fill="#000000">text[2147483647]</text>
<polygon fill="none" stroke="#000000" points="328.5,-149.7 328.5,-171.7 519.5,-171.7 519.5,-149.7 328.5,-149.7"/>
<text text-anchor="start" x="348.5" y="-156.8" font-family="Helvetica,sans-Serif" font-size="11.00" fill="#000000">occurrence_reason</text>
<polygon fill="none" stroke="#000000" points="519.5,-149.7 519.5,-171.7 613.5,-171.7 613.5,-149.7 519.5,-149.7"/>
<text text-anchor="start" x="522.5" y="-157.4" font-family="Helvetica,sans-Serif" font-size="11.00" fill="#000000">text[2147483647]</text>
<polygon fill="none" stroke="#000000" points="328.5,-127.7 328.5,-149.7 519.5,-149.7 519.5,-127.7 328.5,-127.7"/>
<text text-anchor="start" x="348.5" y="-134.8" font-family="Helvetica,sans-Serif" font-size="11.00" fill="#000000">persons_usual_behaviour</text>
<polygon fill="none" stroke="#000000" points="519.5,-127.7 519.5,-149.7 613.5,-149.7 613.5,-127.7 519.5,-127.7"/>
<text text-anchor="start" x="522.5" y="-135.4" font-family="Helvetica,sans-Serif" font-size="11.00" fill="#000000">text[2147483647]</text>
<polygon fill="none" stroke="#000000" points="328.5,-105.7 328.5,-127.7 519.5,-127.7 519.5,-105.7 328.5,-105.7"/>
<text text-anchor="start" x="348.5" y="-112.8" font-family="Helvetica,sans-Serif" font-size="11.00" fill="#000000">persons_trigger</text>
<polygon fill="none" stroke="#000000" points="519.5,-105.7 519.5,-127.7 613.5,-127.7 613.5,-105.7 519.5,-105.7"/>
<text text-anchor="start" x="522.5" y="-113.4" font-family="Helvetica,sans-Serif" font-size="11.00" fill="#000000">text[2147483647]</text>
<polygon fill="none" stroke="#000000" points="328.5,-83.7 328.5,-105.7 519.5,-105.7 519.5,-83.7 328.5,-83.7"/>
<text text-anchor="start" x="348.5" y="-90.8" font-family="Helvetica,sans-Serif" font-size="11.00" fill="#000000">protective_factors</text>
<polygon fill="none" stroke="#000000" points="519.5,-83.7 519.5,-105.7 613.5,-105.7 613.5,-83.7 519.5,-83.7"/>
<text text-anchor="start" x="522.5" y="-91.4" font-family="Helvetica,sans-Serif" font-size="11.00" fill="#000000">text[2147483647]</text>
<polygon fill="none" stroke="#000000" points="328.5,-61.7 328.5,-83.7 519.5,-83.7 519.5,-61.7 328.5,-61.7"/>
<text text-anchor="start" x="348.5" y="-68.8" font-family="Helvetica,sans-Serif" font-size="11.00" fill="#000000">version</text>
<polygon fill="none" stroke="#000000" points="519.5,-61.7 519.5,-83.7 613.5,-83.7 613.5,-61.7 519.5,-61.7"/>
<text text-anchor="start" x="522.5" y="-69.4" font-family="Helvetica,sans-Serif" font-size="11.00" fill="#000000">int4[10]</text>
<polygon fill="#ffffff" stroke="transparent" points="328.5,-42.7 328.5,-61.7 428.5,-61.7 428.5,-42.7 328.5,-42.7"/>
<polygon fill="none" stroke="#000000" points="328.5,-42.7 328.5,-61.7 428.5,-61.7 428.5,-42.7 328.5,-42.7"/>
<text text-anchor="start" x="331.5" y="-48.8" font-family="Helvetica,sans-Serif" font-size="11.00" fill="#000000">&lt; 1</text>
<polygon fill="#ffffff" stroke="transparent" points="428.5,-42.7 428.5,-61.7 519.5,-61.7 519.5,-42.7 428.5,-42.7"/>
<polygon fill="none" stroke="#000000" points="428.5,-42.7 428.5,-61.7 519.5,-61.7 519.5,-42.7 428.5,-42.7"/>
<text text-anchor="start" x="510.3862" y="-48.8" font-family="Helvetica,sans-Serif" font-size="11.00" fill="#000000"> &#160;</text>
<polygon fill="#ffffff" stroke="transparent" points="519.5,-42.7 519.5,-61.7 613.5,-61.7 613.5,-42.7 519.5,-42.7"/>
<polygon fill="none" stroke="#000000" points="519.5,-42.7 519.5,-61.7 613.5,-61.7 613.5,-42.7 519.5,-42.7"/>
<text text-anchor="start" x="594.9053" y="-48.8" font-family="Helvetica,sans-Serif" font-size="11.00" fill="#000000">2 &gt;</text>
<polygon fill="none" stroke="#000000" stroke-width="2" points="327,-41.7 327,-261.7 614,-261.7 614,-41.7 327,-41.7"/>
</a>
</g>
</g>
<!-- interview&#45;&gt;investigation -->
<g id="edge1" class="edge">
<title>interview:w&#45;&gt;investigation:e</title>
<path fill="none" stroke="#000000" d="M672.7187,-319.7216C639.4543,-303.5179 661.5685,-226.7 613.5,-226.7"/>
<polygon fill="#000000" stroke="#000000" points="679.1685,-321.0667 686.265,-326.2242 683.0842,-321.8833 687,-322.7 687,-322.7 687,-322.7 683.0842,-321.8833 687.735,-319.1758 679.1685,-321.0667 679.1685,-321.0667"/>
<ellipse fill="none" stroke="#000000" cx="676.0359" cy="-320.4134" rx="3.2" ry="3.2"/>
</g>
<!-- referral -->
<g id="node4" class="node">
<title>referral</title>
<g id="a_node4"><a xlink:href="../../tables/referral.html" xlink:title="referral" target="_top">
<polygon fill="#ffffff" stroke="transparent" points="8,-68.2 8,-261.2 277,-261.2 277,-68.2 8,-68.2"/>
<polygon fill="#f5f5f5" stroke="transparent" points="8.5,-237.7 8.5,-260.7 277.5,-260.7 277.5,-237.7 8.5,-237.7"/>
<polygon fill="none" stroke="#000000" points="8.5,-237.7 8.5,-260.7 277.5,-260.7 277.5,-237.7 8.5,-237.7"/>
<text text-anchor="start" x="13.5" y="-246.3" font-family="Helvetica,sans-Serif" font-weight="bold" font-size="11.00" fill="#000000">referral</text>
<text text-anchor="start" x="242.5437" y="-245.8" font-family="Helvetica,sans-Serif" font-size="11.00" fill="#000000">[table]</text>
<polygon fill="none" stroke="#000000" points="8.5,-215.7 8.5,-237.7 277.5,-237.7 277.5,-215.7 8.5,-215.7"/>
<image xlink:href="../../images/primaryKeys.png" width="11px" height="12px" preserveAspectRatio="xMinYMin meet" x="13.5" y="-232.7"/>
<text text-anchor="start" x="28.5" y="-222.8" font-family="Helvetica,sans-Serif" font-size="11.00" fill="#000000">referral_id</text>
<polygon fill="#ffffff" stroke="transparent" points="8.5,-193.7 8.5,-215.7 277.5,-215.7 277.5,-193.7 8.5,-193.7"/>
<polygon fill="none" stroke="#000000" points="8.5,-193.7 8.5,-215.7 277.5,-215.7 277.5,-193.7 8.5,-193.7"/>
<image xlink:href="../../images/foreignKeys.png" width="11px" height="12px" preserveAspectRatio="xMinYMin meet" x="13.5" y="-210.7"/>
<text text-anchor="start" x="28.5" y="-200.8" font-family="Helvetica,sans-Serif" font-size="11.00" fill="#000000">incident_type_id</text>
<polygon fill="#ffffff" stroke="transparent" points="8.5,-171.7 8.5,-193.7 277.5,-193.7 277.5,-171.7 8.5,-171.7"/>
<polygon fill="none" stroke="#000000" points="8.5,-171.7 8.5,-193.7 277.5,-193.7 277.5,-171.7 8.5,-171.7"/>
<image xlink:href="../../images/foreignKeys.png" width="11px" height="12px" preserveAspectRatio="xMinYMin meet" x="13.5" y="-188.7"/>
<text text-anchor="start" x="28.5" y="-178.8" font-family="Helvetica,sans-Serif" font-size="11.00" fill="#000000">incident_location_id</text>
<polygon fill="#ffffff" stroke="transparent" points="8.5,-149.7 8.5,-171.7 277.5,-171.7 277.5,-149.7 8.5,-149.7"/>
<polygon fill="none" stroke="#000000" points="8.5,-149.7 8.5,-171.7 277.5,-171.7 277.5,-149.7 8.5,-149.7"/>
<image xlink:href="../../images/foreignKeys.png" width="11px" height="12px" preserveAspectRatio="xMinYMin meet" x="13.5" y="-166.7"/>
<text text-anchor="start" x="28.5" y="-156.8" font-family="Helvetica,sans-Serif" font-size="11.00" fill="#000000">referer_area_of_work_id</text>
<polygon fill="#ffffff" stroke="transparent" points="8.5,-127.7 8.5,-149.7 277.5,-149.7 277.5,-127.7 8.5,-127.7"/>
<polygon fill="none" stroke="#000000" points="8.5,-127.7 8.5,-149.7 277.5,-149.7 277.5,-127.7 8.5,-127.7"/>
<text text-anchor="start" x="28.5" y="-134.8" font-family="Helvetica,sans-Serif" font-size="11.00" fill="#000000">referral_date</text>
<polygon fill="#ffffff" stroke="transparent" points="8.5,-105.7 8.5,-127.7 277.5,-127.7 277.5,-105.7 8.5,-105.7"/>
<polygon fill="none" stroke="#000000" points="8.5,-105.7 8.5,-127.7 277.5,-127.7 277.5,-105.7 8.5,-105.7"/>
<image xlink:href="../../images/foreignKeys.png" width="11px" height="12px" preserveAspectRatio="xMinYMin meet" x="13.5" y="-122.7"/>
<text text-anchor="start" x="28.5" y="-112.8" font-family="Helvetica,sans-Serif" font-size="11.00" fill="#000000">incident_involvement_id</text>
<polygon fill="none" stroke="#000000" points="8.5,-86.7 8.5,-105.7 277.5,-105.7 277.5,-86.7 8.5,-86.7"/>
<text text-anchor="start" x="11.5" y="-92.8" font-family="Helvetica,sans-Serif" font-size="11.00" fill="#000000">...</text>
<polygon fill="#ffffff" stroke="transparent" points="8.5,-67.7 8.5,-86.7 136.5,-86.7 136.5,-67.7 8.5,-67.7"/>
<polygon fill="none" stroke="#000000" points="8.5,-67.7 8.5,-86.7 136.5,-86.7 136.5,-67.7 8.5,-67.7"/>
<text text-anchor="start" x="11.5" y="-73.8" font-family="Helvetica,sans-Serif" font-size="11.00" fill="#000000">&lt; 5</text>
<polygon fill="#ffffff" stroke="transparent" points="136.5,-67.7 136.5,-86.7 202.5,-86.7 202.5,-67.7 136.5,-67.7"/>
<polygon fill="none" stroke="#000000" points="136.5,-67.7 136.5,-86.7 202.5,-86.7 202.5,-67.7 136.5,-67.7"/>
<text text-anchor="start" x="193.3862" y="-73.8" font-family="Helvetica,sans-Serif" font-size="11.00" fill="#000000"> &#160;</text>
<polygon fill="#ffffff" stroke="transparent" points="202.5,-67.7 202.5,-86.7 277.5,-86.7 277.5,-67.7 202.5,-67.7"/>
<polygon fill="none" stroke="#000000" points="202.5,-67.7 202.5,-86.7 277.5,-86.7 277.5,-67.7 202.5,-67.7"/>
<text text-anchor="start" x="258.9053" y="-73.8" font-family="Helvetica,sans-Serif" font-size="11.00" fill="#000000">4 &gt;</text>
</a>
</g>
</g>
<!-- investigation&#45;&gt;referral -->
<g id="edge3" class="edge">
<title>investigation:w&#45;&gt;referral:e</title>
<path fill="none" stroke="#000000" d="M317.7307,-226.7C303.248,-226.7 296.0938,-226.7 277.5,-226.7"/>
<polygon fill="#000000" stroke="#000000" points="327.7,-222.7 327.7,-230.7 326.1,-230.7 326.1,-222.7 327.7,-222.7"/>
<polyline fill="none" stroke="#000000" points="328.5,-226.7 324.5,-226.7 "/>
<ellipse fill="none" stroke="#000000" cx="321.3" cy="-226.7001" rx="3.2" ry="3.2"/>
</g>
<!-- interview_audit -->
<g id="node3" class="node">
<title>interview_audit</title>
<g id="a_node3"><a xlink:href="../../tables/interview_audit.html" xlink:title="interview_audit" target="_top">
<polygon fill="#ffffff" stroke="transparent" points="664,-38.2 664,-209.2 862,-209.2 862,-38.2 664,-38.2"/>
<polygon fill="#f5f5f5" stroke="transparent" points="664,-185.7 664,-208.7 862,-208.7 862,-185.7 664,-185.7"/>
<polygon fill="none" stroke="#000000" points="664,-185.7 664,-208.7 862,-208.7 862,-185.7 664,-185.7"/>
<text text-anchor="start" x="669" y="-194.3" font-family="Helvetica,sans-Serif" font-weight="bold" font-size="11.00" fill="#000000">interview_audit</text>
<text text-anchor="start" x="827.0437" y="-193.8" font-family="Helvetica,sans-Serif" font-size="11.00" fill="#000000">[table]</text>
<polygon fill="none" stroke="#000000" points="664,-163.7 664,-185.7 862,-185.7 862,-163.7 664,-163.7"/>
<image xlink:href="../../images/primaryKeys.png" width="11px" height="12px" preserveAspectRatio="xMinYMin meet" x="669" y="-180.7"/>
<text text-anchor="start" x="684" y="-170.8" font-family="Helvetica,sans-Serif" font-size="11.00" fill="#000000">rev_id</text>
<polygon fill="none" stroke="#000000" points="664,-141.7 664,-163.7 862,-163.7 862,-141.7 664,-141.7"/>
<image xlink:href="../../images/primaryKeys.png" width="11px" height="12px" preserveAspectRatio="xMinYMin meet" x="669" y="-158.7"/>
<text text-anchor="start" x="684" y="-148.8" font-family="Helvetica,sans-Serif" font-size="11.00" fill="#000000">interview_id</text>
<polygon fill="none" stroke="#000000" points="664,-119.7 664,-141.7 862,-141.7 862,-119.7 664,-119.7"/>
<image xlink:href="../../images/foreignKeys.png" width="11px" height="12px" preserveAspectRatio="xMinYMin meet" x="669" y="-136.7"/>
<text text-anchor="start" x="684" y="-126.8" font-family="Helvetica,sans-Serif" font-size="11.00" fill="#000000">investigation_id</text>
<polygon fill="none" stroke="#000000" points="664,-97.7 664,-119.7 862,-119.7 862,-97.7 664,-97.7"/>
<image xlink:href="../../images/foreignKeys.png" width="11px" height="12px" preserveAspectRatio="xMinYMin meet" x="669" y="-114.7"/>
<text text-anchor="start" x="684" y="-104.8" font-family="Helvetica,sans-Serif" font-size="11.00" fill="#000000">interviewee_role_id</text>
<polygon fill="none" stroke="#000000" points="664,-75.7 664,-97.7 862,-97.7 862,-75.7 664,-75.7"/>
<image xlink:href="../../images/foreignKeys.png" width="11px" height="12px" preserveAspectRatio="xMinYMin meet" x="669" y="-92.7"/>
<text text-anchor="start" x="684" y="-82.8" font-family="Helvetica,sans-Serif" font-size="11.00" fill="#000000">legacy_id</text>
<polygon fill="none" stroke="#000000" points="664,-56.7 664,-75.7 862,-75.7 862,-56.7 664,-56.7"/>
<text text-anchor="start" x="667" y="-62.8" font-family="Helvetica,sans-Serif" font-size="11.00" fill="#000000">...</text>
<polygon fill="#ffffff" stroke="transparent" points="664,-37.7 664,-56.7 761,-56.7 761,-37.7 664,-37.7"/>
<polygon fill="none" stroke="#000000" points="664,-37.7 664,-56.7 761,-56.7 761,-37.7 664,-37.7"/>
<text text-anchor="start" x="667" y="-43.8" font-family="Helvetica,sans-Serif" font-size="11.00" fill="#000000">&lt; 4</text>
<polygon fill="#ffffff" stroke="transparent" points="761,-37.7 761,-56.7 811,-56.7 811,-37.7 761,-37.7"/>
<polygon fill="none" stroke="#000000" points="761,-37.7 761,-56.7 811,-56.7 811,-37.7 761,-37.7"/>
<text text-anchor="start" x="801.8862" y="-43.8" font-family="Helvetica,sans-Serif" font-size="11.00" fill="#000000"> &#160;</text>
<polygon fill="#ffffff" stroke="transparent" points="811,-37.7 811,-56.7 862,-56.7 862,-37.7 811,-37.7"/>
<polygon fill="none" stroke="#000000" points="811,-37.7 811,-56.7 862,-56.7 862,-37.7 811,-37.7"/>
<text text-anchor="start" x="852.8862" y="-43.8" font-family="Helvetica,sans-Serif" font-size="11.00" fill="#000000"> &#160;</text>
</a>
</g>
</g>
<!-- interview_audit&#45;&gt;investigation -->
<g id="edge2" class="edge">
<title>interview_audit:w&#45;&gt;investigation:e</title>
<path fill="none" stroke="#000000" stroke-dasharray="5,2" d="M649.9659,-134.825C625.7993,-153.2 655.6837,-226.7 613.5,-226.7"/>
<polygon fill="#000000" stroke="#000000" points="656.3247,-132.956 665.0152,-134.1539 660.1623,-131.828 664,-130.7 664,-130.7 664,-130.7 660.1623,-131.828 662.9848,-127.2461 656.3247,-132.956 656.3247,-132.956"/>
<ellipse fill="none" stroke="#000000" cx="653.2545" cy="-133.8584" rx="3.2" ry="3.2"/>
</g>
</g>
</svg>
