<?xml version="1.0" encoding="UTF-8" standalone="no"?>
<!DOCTYPE svg PUBLIC "-//W3C//DTD SVG 1.1//EN"
 "http://www.w3.org/Graphics/SVG/1.1/DTD/svg11.dtd">
<!-- Generated by graphviz version 2.40.1 (20161225.0304)
 -->
<!-- Title: twoDegreesRelationshipsDiagram Pages: 1 -->
<svg width="668pt" height="377pt"
 viewBox="0.00 0.00 668.00 376.70" xmlns="http://www.w3.org/2000/svg" xmlns:xlink="http://www.w3.org/1999/xlink">
<g id="graph0" class="graph" transform="scale(1 1) rotate(0) translate(4 372.7)">
<title>twoDegreesRelationshipsDiagram</title>
<polygon fill="#ffffff" stroke="transparent" points="-4,4 -4,-372.7 664,-372.7 664,4 -4,4"/>
<text text-anchor="middle" x="72.4936" y="-7.3" font-family="Helvetica,sans-Serif" font-size="11.00" fill="#000000">Generated by SchemaSpy</text>
<!-- csip_record -->
<g id="node1" class="node">
<title>csip_record</title>
<g id="a_node1"><a xlink:href="../../tables/csip_record.html" xlink:title="csip_record" target="_top">
<polygon fill="#ffffff" stroke="transparent" points="303,-108.2 303,-257.2 513,-257.2 513,-108.2 303,-108.2"/>
<polygon fill="#f5f5f5" stroke="transparent" points="303,-233.7 303,-256.7 513,-256.7 513,-233.7 303,-233.7"/>
<polygon fill="none" stroke="#000000" points="303,-233.7 303,-256.7 513,-256.7 513,-233.7 303,-233.7"/>
<text text-anchor="start" x="308" y="-242.3" font-family="Helvetica,sans-Serif" font-weight="bold" font-size="11.00" fill="#000000">csip_record</text>
<text text-anchor="start" x="478.0437" y="-241.8" font-family="Helvetica,sans-Serif" font-size="11.00" fill="#000000">[table]</text>
<polygon fill="none" stroke="#000000" points="303,-211.7 303,-233.7 513,-233.7 513,-211.7 303,-211.7"/>
<image xlink:href="../../images/primaryKeys.png" width="11px" height="12px" preserveAspectRatio="xMinYMin meet" x="308" y="-228.7"/>
<text text-anchor="start" x="323" y="-218.8" font-family="Helvetica,sans-Serif" font-size="11.00" fill="#000000">record_id</text>
<polygon fill="#ffffff" stroke="transparent" points="303,-189.7 303,-211.7 513,-211.7 513,-189.7 303,-189.7"/>
<polygon fill="none" stroke="#000000" points="303,-189.7 303,-211.7 513,-211.7 513,-189.7 303,-189.7"/>
<image xlink:href="../../images/foreignKeys.png" width="11px" height="12px" preserveAspectRatio="xMinYMin meet" x="308" y="-206.7"/>
<text text-anchor="start" x="323" y="-196.8" font-family="Helvetica,sans-Serif" font-size="11.00" fill="#000000">prison_number</text>
<polygon fill="#ffffff" stroke="transparent" points="303,-167.7 303,-189.7 513,-189.7 513,-167.7 303,-167.7"/>
<polygon fill="none" stroke="#000000" points="303,-167.7 303,-189.7 513,-189.7 513,-167.7 303,-167.7"/>
<image xlink:href="../../images/foreignKeys.png" width="11px" height="12px" preserveAspectRatio="xMinYMin meet" x="308" y="-184.7"/>
<text text-anchor="start" x="323" y="-174.8" font-family="Helvetica,sans-Serif" font-size="11.00" fill="#000000">legacy_id</text>
<polygon fill="#ffffff" stroke="transparent" points="303,-145.7 303,-167.7 513,-167.7 513,-145.7 303,-145.7"/>
<polygon fill="none" stroke="#000000" points="303,-145.7 303,-167.7 513,-167.7 513,-145.7 303,-145.7"/>
<image xlink:href="../../images/foreignKeys.png" width="11px" height="12px" preserveAspectRatio="xMinYMin meet" x="308" y="-162.7"/>
<text text-anchor="start" x="323" y="-152.8" font-family="Helvetica,sans-Serif" font-size="11.00" fill="#000000">status_id</text>
<polygon fill="none" stroke="#000000" points="303,-126.7 303,-145.7 513,-145.7 513,-126.7 303,-126.7"/>
<text text-anchor="start" x="306" y="-132.8" font-family="Helvetica,sans-Serif" font-size="11.00" fill="#000000">...</text>
<polygon fill="#ffffff" stroke="transparent" points="303,-107.7 303,-126.7 402,-126.7 402,-107.7 303,-107.7"/>
<polygon fill="none" stroke="#000000" points="303,-107.7 303,-126.7 402,-126.7 402,-107.7 303,-107.7"/>
<text text-anchor="start" x="306" y="-113.8" font-family="Helvetica,sans-Serif" font-size="11.00" fill="#000000">&lt; 2</text>
<polygon fill="#ffffff" stroke="transparent" points="402,-107.7 402,-126.7 453,-126.7 453,-107.7 402,-107.7"/>
<polygon fill="none" stroke="#000000" points="402,-107.7 402,-126.7 453,-126.7 453,-107.7 402,-107.7"/>
<text text-anchor="start" x="443.8862" y="-113.8" font-family="Helvetica,sans-Serif" font-size="11.00" fill="#000000"> &#160;</text>
<polygon fill="#ffffff" stroke="transparent" points="453,-107.7 453,-126.7 513,-126.7 513,-107.7 453,-107.7"/>
<polygon fill="none" stroke="#000000" points="453,-107.7 453,-126.7 513,-126.7 513,-107.7 453,-107.7"/>
<text text-anchor="start" x="494.4053" y="-113.8" font-family="Helvetica,sans-Serif" font-size="11.00" fill="#000000">2 &gt;</text>
</a>
</g>
</g>
<!-- person_summary -->
<g id="node2" class="node">
<title>person_summary</title>
<g id="a_node2"><a xlink:href="../../tables/person_summary.html" xlink:title="person_summary" target="_top">
<polygon fill="#ffffff" stroke="transparent" points="8,-120.7 8,-364.7 254,-364.7 254,-120.7 8,-120.7"/>
<polygon fill="#f5f5f5" stroke="transparent" points="10,-339.7 10,-362.7 252,-362.7 252,-339.7 10,-339.7"/>
<polygon fill="none" stroke="#000000" points="10,-339.7 10,-362.7 252,-362.7 252,-339.7 10,-339.7"/>
<text text-anchor="start" x="15" y="-348.3" font-family="Helvetica,sans-Serif" font-weight="bold" font-size="11.00" fill="#000000">person_summary</text>
<text text-anchor="start" x="217.0437" y="-347.8" font-family="Helvetica,sans-Serif" font-size="11.00" fill="#000000">[table]</text>
<polygon fill="none" stroke="#000000" points="10,-317.7 10,-339.7 191,-339.7 191,-317.7 10,-317.7"/>
<image xlink:href="../../images/primaryKeys.png" width="11px" height="12px" preserveAspectRatio="xMinYMin meet" x="15" y="-334.7"/>
<text text-anchor="start" x="30" y="-324.8" font-family="Helvetica,sans-Serif" font-size="11.00" fill="#000000">prison_number</text>
<polygon fill="none" stroke="#000000" points="191,-317.7 191,-339.7 252,-339.7 252,-317.7 191,-317.7"/>
<text text-anchor="start" x="193.994" y="-325.4" font-family="Helvetica,sans-Serif" font-size="11.00" fill="#000000">varchar[10]</text>
<polygon fill="none" stroke="#000000" points="10,-295.7 10,-317.7 191,-317.7 191,-295.7 10,-295.7"/>
<text text-anchor="start" x="30" y="-302.8" font-family="Helvetica,sans-Serif" font-size="11.00" fill="#000000">first_name</text>
<polygon fill="none" stroke="#000000" points="191,-295.7 191,-317.7 252,-317.7 252,-295.7 191,-295.7"/>
<text text-anchor="start" x="193.994" y="-303.4" font-family="Helvetica,sans-Serif" font-size="11.00" fill="#000000">varchar[64]</text>
<polygon fill="none" stroke="#000000" points="10,-273.7 10,-295.7 191,-295.7 191,-273.7 10,-273.7"/>
<text text-anchor="start" x="30" y="-280.8" font-family="Helvetica,sans-Serif" font-size="11.00" fill="#000000">last_name</text>
<polygon fill="none" stroke="#000000" points="191,-273.7 191,-295.7 252,-295.7 252,-273.7 191,-273.7"/>
<text text-anchor="start" x="193.994" y="-281.4" font-family="Helvetica,sans-Serif" font-size="11.00" fill="#000000">varchar[64]</text>
<polygon fill="none" stroke="#000000" points="10,-251.7 10,-273.7 191,-273.7 191,-251.7 10,-251.7"/>
<text text-anchor="start" x="30" y="-258.8" font-family="Helvetica,sans-Serif" font-size="11.00" fill="#000000">status</text>
<polygon fill="none" stroke="#000000" points="191,-251.7 191,-273.7 252,-273.7 252,-251.7 191,-251.7"/>
<text text-anchor="start" x="193.994" y="-259.4" font-family="Helvetica,sans-Serif" font-size="11.00" fill="#000000">varchar[16]</text>
<polygon fill="#ffffff" stroke="transparent" points="10,-229.7 10,-251.7 191,-251.7 191,-229.7 10,-229.7"/>
<polygon fill="none" stroke="#000000" points="10,-229.7 10,-251.7 191,-251.7 191,-229.7 10,-229.7"/>
<text text-anchor="start" x="30" y="-236.8" font-family="Helvetica,sans-Serif" font-size="11.00" fill="#000000">prison_code</text>
<polygon fill="none" stroke="#000000" points="191,-229.7 191,-251.7 252,-251.7 252,-229.7 191,-229.7"/>
<text text-anchor="start" x="193.994" y="-237.4" font-family="Helvetica,sans-Serif" font-size="11.00" fill="#000000">varchar[16]</text>
<polygon fill="none" stroke="#000000" points="10,-207.7 10,-229.7 191,-229.7 191,-207.7 10,-207.7"/>
<text text-anchor="start" x="30" y="-214.8" font-family="Helvetica,sans-Serif" font-size="11.00" fill="#000000">cell_location</text>
<polygon fill="none" stroke="#000000" points="191,-207.7 191,-229.7 252,-229.7 252,-207.7 191,-207.7"/>
<text text-anchor="start" x="193.994" y="-215.4" font-family="Helvetica,sans-Serif" font-size="11.00" fill="#000000">varchar[64]</text>
<polygon fill="none" stroke="#000000" points="10,-185.7 10,-207.7 191,-207.7 191,-185.7 10,-185.7"/>
<text text-anchor="start" x="30" y="-192.8" font-family="Helvetica,sans-Serif" font-size="11.00" fill="#000000">version</text>
<polygon fill="none" stroke="#000000" points="191,-185.7 191,-207.7 252,-207.7 252,-185.7 191,-185.7"/>
<text text-anchor="start" x="194" y="-193.4" font-family="Helvetica,sans-Serif" font-size="11.00" fill="#000000">int4[10]</text>
<polygon fill="none" stroke="#000000" points="10,-163.7 10,-185.7 191,-185.7 191,-163.7 10,-163.7"/>
<text text-anchor="start" x="30" y="-170.8" font-family="Helvetica,sans-Serif" font-size="11.00" fill="#000000">restricted_patient</text>
<polygon fill="none" stroke="#000000" points="191,-163.7 191,-185.7 252,-185.7 252,-163.7 191,-163.7"/>
<text text-anchor="start" x="194" y="-171.4" font-family="Helvetica,sans-Serif" font-size="11.00" fill="#000000">bool[1]</text>
<polygon fill="#ffffff" stroke="transparent" points="10,-141.7 10,-163.7 191,-163.7 191,-141.7 10,-141.7"/>
<polygon fill="none" stroke="#000000" points="10,-141.7 10,-163.7 191,-163.7 191,-141.7 10,-141.7"/>
<text text-anchor="start" x="30" y="-148.8" font-family="Helvetica,sans-Serif" font-size="11.00" fill="#000000">supporting_prison_code</text>
<polygon fill="none" stroke="#000000" points="191,-141.7 191,-163.7 252,-163.7 252,-141.7 191,-141.7"/>
<text text-anchor="start" x="193.994" y="-149.4" font-family="Helvetica,sans-Serif" font-size="11.00" fill="#000000">varchar[16]</text>
<polygon fill="#ffffff" stroke="transparent" points="10,-122.7 10,-141.7 105,-141.7 105,-122.7 10,-122.7"/>
<polygon fill="none" stroke="#000000" points="10,-122.7 10,-141.7 105,-141.7 105,-122.7 10,-122.7"/>
<text text-anchor="start" x="13" y="-128.8" font-family="Helvetica,sans-Serif" font-size="11.00" fill="#000000">&lt; 0</text>
<polygon fill="#ffffff" stroke="transparent" points="105,-122.7 105,-141.7 191,-141.7 191,-122.7 105,-122.7"/>
<polygon fill="none" stroke="#000000" points="105,-122.7 105,-141.7 191,-141.7 191,-122.7 105,-122.7"/>
<text text-anchor="start" x="181.8862" y="-128.8" font-family="Helvetica,sans-Serif" font-size="11.00" fill="#000000"> &#160;</text>
<polygon fill="#ffffff" stroke="transparent" points="191,-122.7 191,-141.7 252,-141.7 252,-122.7 191,-122.7"/>
<polygon fill="none" stroke="#000000" points="191,-122.7 191,-141.7 252,-141.7 252,-122.7 191,-122.7"/>
<text text-anchor="start" x="233.4053" y="-128.8" font-family="Helvetica,sans-Serif" font-size="11.00" fill="#000000">1 &gt;</text>
<polygon fill="none" stroke="#000000" stroke-width="2" points="9,-121.7 9,-363.7 253,-363.7 253,-121.7 9,-121.7"/>
</a>
</g>
</g>
<!-- csip_record&#45;&gt;person_summary -->
<g id="edge1" class="edge">
<title>csip_record:w&#45;&gt;person_summary:e</title>
<path fill="none" stroke="#000000" d="M288.6089,-204.1237C254.4563,-224.4793 307.258,-328.7 252,-328.7"/>
<polygon fill="#000000" stroke="#000000" points="295.2172,-202.5516 303.8332,-204.2023 299.1086,-201.6258 303,-200.7 303,-200.7 303,-200.7 299.1086,-201.6258 302.1668,-197.1977 295.2172,-202.5516 295.2172,-202.5516"/>
<ellipse fill="none" stroke="#000000" cx="292.1041" cy="-203.2922" rx="3.2" ry="3.2"/>
</g>
<!-- reference_data -->
<g id="node3" class="node">
<title>reference_data</title>
<g id="a_node3"><a xlink:href="../../tables/reference_data.html" xlink:title="reference_data" target="_top">
<polygon fill="#ffffff" stroke="transparent" points="61,-38.2 61,-99.2 201,-99.2 201,-38.2 61,-38.2"/>
<polygon fill="#f5f5f5" stroke="transparent" points="61,-75.7 61,-98.7 201,-98.7 201,-75.7 61,-75.7"/>
<polygon fill="none" stroke="#000000" points="61,-75.7 61,-98.7 201,-98.7 201,-75.7 61,-75.7"/>
<text text-anchor="start" x="66" y="-84.3" font-family="Helvetica,sans-Serif" font-weight="bold" font-size="11.00" fill="#000000">reference_data</text>
<text text-anchor="start" x="166.5219" y="-83.8" font-family="Helvetica,sans-Serif" font-size="11.00" fill="#000000">[table]</text>
<polygon fill="none" stroke="#000000" points="61,-56.7 61,-75.7 201,-75.7 201,-56.7 61,-56.7"/>
<text text-anchor="start" x="64" y="-62.8" font-family="Helvetica,sans-Serif" font-size="11.00" fill="#000000">...</text>
<polygon fill="#ffffff" stroke="transparent" points="61,-37.7 61,-56.7 98,-56.7 98,-37.7 61,-37.7"/>
<polygon fill="none" stroke="#000000" points="61,-37.7 61,-56.7 98,-56.7 98,-37.7 61,-37.7"/>
<text text-anchor="start" x="64" y="-43.8" font-family="Helvetica,sans-Serif" font-size="11.00" fill="#000000"> &#160;</text>
<polygon fill="#ffffff" stroke="transparent" points="98,-37.7 98,-56.7 161,-56.7 161,-37.7 98,-37.7"/>
<polygon fill="none" stroke="#000000" points="98,-37.7 98,-56.7 161,-56.7 161,-37.7 98,-37.7"/>
<text text-anchor="start" x="113.3807" y="-43.8" font-family="Helvetica,sans-Serif" font-size="11.00" fill="#000000">122 rows</text>
<polygon fill="#ffffff" stroke="transparent" points="161,-37.7 161,-56.7 201,-56.7 201,-37.7 161,-37.7"/>
<polygon fill="none" stroke="#000000" points="161,-37.7 161,-56.7 201,-56.7 201,-37.7 161,-37.7"/>
<text text-anchor="start" x="176.2904" y="-43.8" font-family="Helvetica,sans-Serif" font-size="11.00" fill="#000000">10 &gt;</text>
</a>
</g>
</g>
<!-- csip_record&#45;&gt;reference_data -->
<g id="edge2" class="edge">
<title>csip_record:w&#45;&gt;reference_data:e</title>
<path fill="none" stroke="#000000" d="M288.9153,-152.8838C277.2367,-144.6836 277.6536,-124.9701 262,-110.7 237.1028,-88.0033 234.6899,-65.7 201,-65.7"/>
<polygon fill="#000000" stroke="#000000" points="295.2784,-154.6078 302.0585,-160.1747 299.1392,-155.6539 303,-156.7 303,-156.7 303,-156.7 299.1392,-155.6539 303.9415,-153.2253 295.2784,-154.6078 295.2784,-154.6078"/>
<ellipse fill="none" stroke="#000000" cx="292.1898" cy="-153.7709" rx="3.2" ry="3.2"/>
</g>
<!-- plan -->
<g id="node4" class="node">
<title>plan</title>
<g id="a_node4"><a xlink:href="../../tables/plan.html" xlink:title="plan" target="_top">
<polygon fill="#ffffff" stroke="transparent" points="573,-195.2 573,-256.2 641,-256.2 641,-195.2 573,-195.2"/>
<polygon fill="#f5f5f5" stroke="transparent" points="573,-232.7 573,-255.7 641,-255.7 641,-232.7 573,-232.7"/>
<polygon fill="none" stroke="#000000" points="573,-232.7 573,-255.7 641,-255.7 641,-232.7 573,-232.7"/>
<text text-anchor="start" x="578" y="-241.3" font-family="Helvetica,sans-Serif" font-weight="bold" font-size="11.00" fill="#000000">plan</text>
<text text-anchor="start" x="606.5219" y="-240.8" font-family="Helvetica,sans-Serif" font-size="11.00" fill="#000000">[table]</text>
<polygon fill="none" stroke="#000000" points="573,-213.7 573,-232.7 641,-232.7 641,-213.7 573,-213.7"/>
<text text-anchor="start" x="576" y="-219.8" font-family="Helvetica,sans-Serif" font-size="11.00" fill="#000000">...</text>
<polygon fill="#ffffff" stroke="transparent" points="573,-194.7 573,-213.7 601,-213.7 601,-194.7 573,-194.7"/>
<polygon fill="none" stroke="#000000" points="573,-194.7 573,-213.7 601,-213.7 601,-194.7 573,-194.7"/>
<text text-anchor="start" x="576" y="-200.8" font-family="Helvetica,sans-Serif" font-size="11.00" fill="#000000">&lt; 1</text>
<polygon fill="#ffffff" stroke="transparent" points="601,-194.7 601,-213.7 616,-213.7 616,-194.7 601,-194.7"/>
<polygon fill="none" stroke="#000000" points="601,-194.7 601,-213.7 616,-213.7 616,-194.7 601,-194.7"/>
<text text-anchor="start" x="606.8862" y="-200.8" font-family="Helvetica,sans-Serif" font-size="11.00" fill="#000000"> &#160;</text>
<polygon fill="#ffffff" stroke="transparent" points="616,-194.7 616,-213.7 641,-213.7 641,-194.7 616,-194.7"/>
<polygon fill="none" stroke="#000000" points="616,-194.7 616,-213.7 641,-213.7 641,-194.7 616,-194.7"/>
<text text-anchor="start" x="622.4053" y="-200.8" font-family="Helvetica,sans-Serif" font-size="11.00" fill="#000000">2 &gt;</text>
</a>
</g>
</g>
<!-- plan&#45;&gt;csip_record -->
<g id="edge3" class="edge">
<title>plan:w&#45;&gt;csip_record:e</title>
<path fill="none" stroke="#000000" d="M562.5701,-222.7C543.9885,-222.7 535.8125,-222.7 513,-222.7"/>
<polygon fill="#000000" stroke="#000000" points="572.2,-218.7 572.2,-226.7 570.6,-226.7 570.6,-218.7 572.2,-218.7"/>
<polyline fill="none" stroke="#000000" points="573,-222.7 569,-222.7 "/>
<ellipse fill="none" stroke="#000000" cx="565.8" cy="-222.7001" rx="3.2" ry="3.2"/>
</g>
<!-- referral -->
<g id="node5" class="node">
<title>referral</title>
<g id="a_node5"><a xlink:href="../../tables/referral.html" xlink:title="referral" target="_top">
<polygon fill="#ffffff" stroke="transparent" points="562,-38.2 562,-99.2 652,-99.2 652,-38.2 562,-38.2"/>
<polygon fill="#f5f5f5" stroke="transparent" points="562,-75.7 562,-98.7 652,-98.7 652,-75.7 562,-75.7"/>
<polygon fill="none" stroke="#000000" points="562,-75.7 562,-98.7 652,-98.7 652,-75.7 562,-75.7"/>
<text text-anchor="start" x="567" y="-84.3" font-family="Helvetica,sans-Serif" font-weight="bold" font-size="11.00" fill="#000000">referral</text>
<text text-anchor="start" x="617.5219" y="-83.8" font-family="Helvetica,sans-Serif" font-size="11.00" fill="#000000">[table]</text>
<polygon fill="none" stroke="#000000" points="562,-56.7 562,-75.7 652,-75.7 652,-56.7 562,-56.7"/>
<text text-anchor="start" x="565" y="-62.8" font-family="Helvetica,sans-Serif" font-size="11.00" fill="#000000">...</text>
<polygon fill="#ffffff" stroke="transparent" points="562,-37.7 562,-56.7 601,-56.7 601,-37.7 562,-37.7"/>
<polygon fill="none" stroke="#000000" points="562,-37.7 562,-56.7 601,-56.7 601,-37.7 562,-37.7"/>
<text text-anchor="start" x="565" y="-43.8" font-family="Helvetica,sans-Serif" font-size="11.00" fill="#000000">&lt; 5</text>
<polygon fill="#ffffff" stroke="transparent" points="601,-37.7 601,-56.7 622,-56.7 622,-37.7 601,-37.7"/>
<polygon fill="none" stroke="#000000" points="601,-37.7 601,-56.7 622,-56.7 622,-37.7 601,-37.7"/>
<text text-anchor="start" x="612.8862" y="-43.8" font-family="Helvetica,sans-Serif" font-size="11.00" fill="#000000"> &#160;</text>
<polygon fill="#ffffff" stroke="transparent" points="622,-37.7 622,-56.7 652,-56.7 652,-37.7 622,-37.7"/>
<polygon fill="none" stroke="#000000" points="622,-37.7 622,-56.7 652,-56.7 652,-37.7 622,-37.7"/>
<text text-anchor="start" x="633.4053" y="-43.8" font-family="Helvetica,sans-Serif" font-size="11.00" fill="#000000">4 &gt;</text>
</a>
</g>
</g>
<!-- referral&#45;&gt;csip_record -->
<g id="edge8" class="edge">
<title>referral:w&#45;&gt;csip_record:e</title>
<path fill="none" stroke="#000000" d="M551.4797,-67.0573C499.0241,-82.4023 582.0998,-222.7 513,-222.7"/>
<polygon fill="#000000" stroke="#000000" points="560.6947,-61.8352 561.7184,-69.7695 560.1316,-69.9742 559.1079,-62.04 560.6947,-61.8352"/>
<polyline fill="none" stroke="#000000" points="562,-65.7 558.0329,-66.2118 "/>
<ellipse fill="none" stroke="#000000" cx="554.8592" cy="-66.6213" rx="3.2" ry="3.2"/>
</g>
<!-- referral&#45;&gt;reference_data -->
<g id="edge4" class="edge">
<title>referral:w&#45;&gt;reference_data:e</title>
<path fill="none" stroke="#000000" d="M547.3035,-65.7C398.9311,-65.7 356.4306,-65.7 201,-65.7"/>
<polygon fill="#000000" stroke="#000000" points="554,-65.7001 562,-69.3 558,-65.7 562,-65.7 562,-65.7 562,-65.7 558,-65.7 562,-62.1 554,-65.7001 554,-65.7001"/>
<ellipse fill="none" stroke="#000000" cx="550.8" cy="-65.7001" rx="3.2" ry="3.2"/>
</g>
<!-- referral&#45;&gt;reference_data -->
<g id="edge5" class="edge">
<title>referral:w&#45;&gt;reference_data:e</title>
<path fill="none" stroke="#000000" d="M547.3035,-64.5193C398.9311,-52.7127 356.4306,-53.1063 201,-65.7"/>
<polygon fill="#000000" stroke="#000000" points="554.0257,-65.0593 561.7117,-69.2884 558.0128,-65.3797 562,-65.7 562,-65.7 562,-65.7 558.0128,-65.3797 562.2883,-62.1116 554.0257,-65.0593 554.0257,-65.0593"/>
<ellipse fill="none" stroke="#000000" cx="550.836" cy="-64.8031" rx="3.2" ry="3.2"/>
</g>
<!-- referral&#45;&gt;reference_data -->
<g id="edge6" class="edge">
<title>referral:w&#45;&gt;reference_data:e</title>
<path fill="none" stroke="#000000" d="M547.3035,-65.7C398.9311,-65.7 356.4306,-65.7 201,-65.7"/>
<polygon fill="#000000" stroke="#000000" points="554,-65.7001 562,-69.3 558,-65.7 562,-65.7 562,-65.7 562,-65.7 558,-65.7 562,-62.1 554,-65.7001 554,-65.7001"/>
<ellipse fill="none" stroke="#000000" cx="550.8" cy="-65.7001" rx="3.2" ry="3.2"/>
</g>
<!-- referral&#45;&gt;reference_data -->
<g id="edge7" class="edge">
<title>referral:w&#45;&gt;reference_data:e</title>
<path fill="none" stroke="#000000" d="M547.3035,-66.8807C398.9311,-78.6873 356.4306,-78.2938 201,-65.7"/>
<polygon fill="#000000" stroke="#000000" points="554.0257,-66.3407 562.2883,-69.2884 558.0128,-66.0203 562,-65.7 562,-65.7 562,-65.7 558.0128,-66.0203 561.7117,-62.1116 554.0257,-66.3407 554.0257,-66.3407"/>
<ellipse fill="none" stroke="#000000" cx="550.836" cy="-66.5969" rx="3.2" ry="3.2"/>
</g>
</g>
</svg>
