<?xml version="1.0" encoding="UTF-8" standalone="no"?>
<!DOCTYPE svg PUBLIC "-//W3C//DTD SVG 1.1//EN"
 "http://www.w3.org/Graphics/SVG/1.1/DTD/svg11.dtd">
<!-- Generated by graphviz version 2.40.1 (20161225.0304)
 -->
<!-- Title: oneDegreeRelationshipsDiagramImplied Pages: 1 -->
<svg width="529pt" height="507pt"
 viewBox="0.00 0.00 529.00 506.70" xmlns="http://www.w3.org/2000/svg" xmlns:xlink="http://www.w3.org/1999/xlink">
<g id="graph0" class="graph" transform="scale(1 1) rotate(0) translate(4 502.7)">
<title>oneDegreeRelationshipsDiagramImplied</title>
<polygon fill="#ffffff" stroke="transparent" points="-4,4 -4,-502.7 525,-502.7 525,4 -4,4"/>
<text text-anchor="middle" x="72.4936" y="-7.3" font-family="Helvetica,sans-Serif" font-size="11.00" fill="#000000">Generated by SchemaSpy</text>
<!-- csip_record -->
<g id="node1" class="node">
<title>csip_record</title>
<g id="a_node1"><a xlink:href="../../tables/csip_record.html" xlink:title="csip_record" target="_top">
<polygon fill="#ffffff" stroke="transparent" points="303,-345.7 303,-494.7 513,-494.7 513,-345.7 303,-345.7"/>
<polygon fill="#f5f5f5" stroke="transparent" points="303,-471.2 303,-494.2 513,-494.2 513,-471.2 303,-471.2"/>
<polygon fill="none" stroke="#000000" points="303,-471.2 303,-494.2 513,-494.2 513,-471.2 303,-471.2"/>
<text text-anchor="start" x="308" y="-479.8" font-family="Helvetica,sans-Serif" font-weight="bold" font-size="11.00" fill="#000000">csip_record</text>
<text text-anchor="start" x="478.0437" y="-479.3" font-family="Helvetica,sans-Serif" font-size="11.00" fill="#000000">[table]</text>
<polygon fill="none" stroke="#000000" points="303,-449.2 303,-471.2 513,-471.2 513,-449.2 303,-449.2"/>
<image xlink:href="../../images/primaryKeys.png" width="11px" height="12px" preserveAspectRatio="xMinYMin meet" x="308" y="-466.2"/>
<text text-anchor="start" x="323" y="-456.3" font-family="Helvetica,sans-Serif" font-size="11.00" fill="#000000">record_id</text>
<polygon fill="#ffffff" stroke="transparent" points="303,-427.2 303,-449.2 513,-449.2 513,-427.2 303,-427.2"/>
<polygon fill="none" stroke="#000000" points="303,-427.2 303,-449.2 513,-449.2 513,-427.2 303,-427.2"/>
<image xlink:href="../../images/foreignKeys.png" width="11px" height="12px" preserveAspectRatio="xMinYMin meet" x="308" y="-444.2"/>
<text text-anchor="start" x="323" y="-434.3" font-family="Helvetica,sans-Serif" font-size="11.00" fill="#000000">prison_number</text>
<polygon fill="#ffffff" stroke="transparent" points="303,-405.2 303,-427.2 513,-427.2 513,-405.2 303,-405.2"/>
<polygon fill="none" stroke="#000000" points="303,-405.2 303,-427.2 513,-427.2 513,-405.2 303,-405.2"/>
<image xlink:href="../../images/foreignKeys.png" width="11px" height="12px" preserveAspectRatio="xMinYMin meet" x="308" y="-422.2"/>
<text text-anchor="start" x="323" y="-412.3" font-family="Helvetica,sans-Serif" font-size="11.00" fill="#000000">legacy_id</text>
<polygon fill="#ffffff" stroke="transparent" points="303,-383.2 303,-405.2 513,-405.2 513,-383.2 303,-383.2"/>
<polygon fill="none" stroke="#000000" points="303,-383.2 303,-405.2 513,-405.2 513,-383.2 303,-383.2"/>
<image xlink:href="../../images/foreignKeys.png" width="11px" height="12px" preserveAspectRatio="xMinYMin meet" x="308" y="-400.2"/>
<text text-anchor="start" x="323" y="-390.3" font-family="Helvetica,sans-Serif" font-size="11.00" fill="#000000">status_id</text>
<polygon fill="none" stroke="#000000" points="303,-364.2 303,-383.2 513,-383.2 513,-364.2 303,-364.2"/>
<text text-anchor="start" x="306" y="-370.3" font-family="Helvetica,sans-Serif" font-size="11.00" fill="#000000">...</text>
<polygon fill="#ffffff" stroke="transparent" points="303,-345.2 303,-364.2 402,-364.2 402,-345.2 303,-345.2"/>
<polygon fill="none" stroke="#000000" points="303,-345.2 303,-364.2 402,-364.2 402,-345.2 303,-345.2"/>
<text text-anchor="start" x="306" y="-351.3" font-family="Helvetica,sans-Serif" font-size="11.00" fill="#000000">&lt; 2</text>
<polygon fill="#ffffff" stroke="transparent" points="402,-345.2 402,-364.2 453,-364.2 453,-345.2 402,-345.2"/>
<polygon fill="none" stroke="#000000" points="402,-345.2 402,-364.2 453,-364.2 453,-345.2 402,-345.2"/>
<text text-anchor="start" x="443.8862" y="-351.3" font-family="Helvetica,sans-Serif" font-size="11.00" fill="#000000"> &#160;</text>
<polygon fill="#ffffff" stroke="transparent" points="453,-345.2 453,-364.2 513,-364.2 513,-345.2 453,-345.2"/>
<polygon fill="none" stroke="#000000" points="453,-345.2 453,-364.2 513,-364.2 513,-345.2 453,-345.2"/>
<text text-anchor="start" x="494.4053" y="-351.3" font-family="Helvetica,sans-Serif" font-size="11.00" fill="#000000">2 &gt;</text>
</a>
</g>
</g>
<!-- person_summary -->
<g id="node2" class="node">
<title>person_summary</title>
<g id="a_node2"><a xlink:href="../../tables/person_summary.html" xlink:title="person_summary" target="_top">
<polygon fill="#ffffff" stroke="transparent" points="8,-38.2 8,-282.2 254,-282.2 254,-38.2 8,-38.2"/>
<polygon fill="#f5f5f5" stroke="transparent" points="10,-257.2 10,-280.2 252,-280.2 252,-257.2 10,-257.2"/>
<polygon fill="none" stroke="#000000" points="10,-257.2 10,-280.2 252,-280.2 252,-257.2 10,-257.2"/>
<text text-anchor="start" x="15" y="-265.8" font-family="Helvetica,sans-Serif" font-weight="bold" font-size="11.00" fill="#000000">person_summary</text>
<text text-anchor="start" x="217.0437" y="-265.3" font-family="Helvetica,sans-Serif" font-size="11.00" fill="#000000">[table]</text>
<polygon fill="none" stroke="#000000" points="10,-235.2 10,-257.2 191,-257.2 191,-235.2 10,-235.2"/>
<image xlink:href="../../images/primaryKeys.png" width="11px" height="12px" preserveAspectRatio="xMinYMin meet" x="15" y="-252.2"/>
<text text-anchor="start" x="30" y="-242.3" font-family="Helvetica,sans-Serif" font-size="11.00" fill="#000000">prison_number</text>
<polygon fill="none" stroke="#000000" points="191,-235.2 191,-257.2 252,-257.2 252,-235.2 191,-235.2"/>
<text text-anchor="start" x="193.994" y="-242.9" font-family="Helvetica,sans-Serif" font-size="11.00" fill="#000000">varchar[10]</text>
<polygon fill="none" stroke="#000000" points="10,-213.2 10,-235.2 191,-235.2 191,-213.2 10,-213.2"/>
<text text-anchor="start" x="30" y="-220.3" font-family="Helvetica,sans-Serif" font-size="11.00" fill="#000000">first_name</text>
<polygon fill="none" stroke="#000000" points="191,-213.2 191,-235.2 252,-235.2 252,-213.2 191,-213.2"/>
<text text-anchor="start" x="193.994" y="-220.9" font-family="Helvetica,sans-Serif" font-size="11.00" fill="#000000">varchar[64]</text>
<polygon fill="none" stroke="#000000" points="10,-191.2 10,-213.2 191,-213.2 191,-191.2 10,-191.2"/>
<text text-anchor="start" x="30" y="-198.3" font-family="Helvetica,sans-Serif" font-size="11.00" fill="#000000">last_name</text>
<polygon fill="none" stroke="#000000" points="191,-191.2 191,-213.2 252,-213.2 252,-191.2 191,-191.2"/>
<text text-anchor="start" x="193.994" y="-198.9" font-family="Helvetica,sans-Serif" font-size="11.00" fill="#000000">varchar[64]</text>
<polygon fill="none" stroke="#000000" points="10,-169.2 10,-191.2 191,-191.2 191,-169.2 10,-169.2"/>
<text text-anchor="start" x="30" y="-176.3" font-family="Helvetica,sans-Serif" font-size="11.00" fill="#000000">status</text>
<polygon fill="none" stroke="#000000" points="191,-169.2 191,-191.2 252,-191.2 252,-169.2 191,-169.2"/>
<text text-anchor="start" x="193.994" y="-176.9" font-family="Helvetica,sans-Serif" font-size="11.00" fill="#000000">varchar[16]</text>
<polygon fill="#ffffff" stroke="transparent" points="10,-147.2 10,-169.2 191,-169.2 191,-147.2 10,-147.2"/>
<polygon fill="none" stroke="#000000" points="10,-147.2 10,-169.2 191,-169.2 191,-147.2 10,-147.2"/>
<text text-anchor="start" x="30" y="-154.3" font-family="Helvetica,sans-Serif" font-size="11.00" fill="#000000">prison_code</text>
<polygon fill="none" stroke="#000000" points="191,-147.2 191,-169.2 252,-169.2 252,-147.2 191,-147.2"/>
<text text-anchor="start" x="193.994" y="-154.9" font-family="Helvetica,sans-Serif" font-size="11.00" fill="#000000">varchar[16]</text>
<polygon fill="none" stroke="#000000" points="10,-125.2 10,-147.2 191,-147.2 191,-125.2 10,-125.2"/>
<text text-anchor="start" x="30" y="-132.3" font-family="Helvetica,sans-Serif" font-size="11.00" fill="#000000">cell_location</text>
<polygon fill="none" stroke="#000000" points="191,-125.2 191,-147.2 252,-147.2 252,-125.2 191,-125.2"/>
<text text-anchor="start" x="193.994" y="-132.9" font-family="Helvetica,sans-Serif" font-size="11.00" fill="#000000">varchar[64]</text>
<polygon fill="none" stroke="#000000" points="10,-103.2 10,-125.2 191,-125.2 191,-103.2 10,-103.2"/>
<text text-anchor="start" x="30" y="-110.3" font-family="Helvetica,sans-Serif" font-size="11.00" fill="#000000">version</text>
<polygon fill="none" stroke="#000000" points="191,-103.2 191,-125.2 252,-125.2 252,-103.2 191,-103.2"/>
<text text-anchor="start" x="194" y="-110.9" font-family="Helvetica,sans-Serif" font-size="11.00" fill="#000000">int4[10]</text>
<polygon fill="none" stroke="#000000" points="10,-81.2 10,-103.2 191,-103.2 191,-81.2 10,-81.2"/>
<text text-anchor="start" x="30" y="-88.3" font-family="Helvetica,sans-Serif" font-size="11.00" fill="#000000">restricted_patient</text>
<polygon fill="none" stroke="#000000" points="191,-81.2 191,-103.2 252,-103.2 252,-81.2 191,-81.2"/>
<text text-anchor="start" x="194" y="-88.9" font-family="Helvetica,sans-Serif" font-size="11.00" fill="#000000">bool[1]</text>
<polygon fill="#ffffff" stroke="transparent" points="10,-59.2 10,-81.2 191,-81.2 191,-59.2 10,-59.2"/>
<polygon fill="none" stroke="#000000" points="10,-59.2 10,-81.2 191,-81.2 191,-59.2 10,-59.2"/>
<text text-anchor="start" x="30" y="-66.3" font-family="Helvetica,sans-Serif" font-size="11.00" fill="#000000">supporting_prison_code</text>
<polygon fill="none" stroke="#000000" points="191,-59.2 191,-81.2 252,-81.2 252,-59.2 191,-59.2"/>
<text text-anchor="start" x="193.994" y="-66.9" font-family="Helvetica,sans-Serif" font-size="11.00" fill="#000000">varchar[16]</text>
<polygon fill="#ffffff" stroke="transparent" points="10,-40.2 10,-59.2 105,-59.2 105,-40.2 10,-40.2"/>
<polygon fill="none" stroke="#000000" points="10,-40.2 10,-59.2 105,-59.2 105,-40.2 10,-40.2"/>
<text text-anchor="start" x="13" y="-46.3" font-family="Helvetica,sans-Serif" font-size="11.00" fill="#000000">&lt; 0</text>
<polygon fill="#ffffff" stroke="transparent" points="105,-40.2 105,-59.2 191,-59.2 191,-40.2 105,-40.2"/>
<polygon fill="none" stroke="#000000" points="105,-40.2 105,-59.2 191,-59.2 191,-40.2 105,-40.2"/>
<text text-anchor="start" x="181.8862" y="-46.3" font-family="Helvetica,sans-Serif" font-size="11.00" fill="#000000"> &#160;</text>
<polygon fill="#ffffff" stroke="transparent" points="191,-40.2 191,-59.2 252,-59.2 252,-40.2 191,-40.2"/>
<polygon fill="none" stroke="#000000" points="191,-40.2 191,-59.2 252,-59.2 252,-40.2 191,-40.2"/>
<text text-anchor="start" x="233.4053" y="-46.3" font-family="Helvetica,sans-Serif" font-size="11.00" fill="#000000">3 &gt;</text>
<polygon fill="none" stroke="#000000" stroke-width="2" points="9,-39.2 9,-281.2 253,-281.2 253,-39.2 9,-39.2"/>
</a>
</g>
</g>
<!-- csip_record&#45;&gt;person_summary -->
<g id="edge1" class="edge">
<title>csip_record:w&#45;&gt;person_summary:e</title>
<path fill="none" stroke="#000000" d="M288.4788,-435.91C230.0077,-414.2476 334.6017,-246.2 252,-246.2"/>
<polygon fill="#000000" stroke="#000000" points="295.0977,-436.9538 302.4392,-441.7561 299.0488,-437.5769 303,-438.2 303,-438.2 303,-438.2 299.0488,-437.5769 303.5608,-434.6439 295.0977,-436.9538 295.0977,-436.9538"/>
<ellipse fill="none" stroke="#000000" cx="291.9367" cy="-436.4553" rx="3.2" ry="3.2"/>
</g>
<!-- csip_record_audit -->
<g id="node3" class="node">
<title>csip_record_audit</title>
<g id="a_node3"><a xlink:href="../../tables/csip_record_audit.html" xlink:title="csip_record_audit" target="_top">
<polygon fill="#ffffff" stroke="transparent" points="303,-175.7 303,-324.7 513,-324.7 513,-175.7 303,-175.7"/>
<polygon fill="#f5f5f5" stroke="transparent" points="303,-301.2 303,-324.2 513,-324.2 513,-301.2 303,-301.2"/>
<polygon fill="none" stroke="#000000" points="303,-301.2 303,-324.2 513,-324.2 513,-301.2 303,-301.2"/>
<text text-anchor="start" x="308" y="-309.8" font-family="Helvetica,sans-Serif" font-weight="bold" font-size="11.00" fill="#000000">csip_record_audit</text>
<text text-anchor="start" x="478.0437" y="-309.3" font-family="Helvetica,sans-Serif" font-size="11.00" fill="#000000">[table]</text>
<polygon fill="none" stroke="#000000" points="303,-279.2 303,-301.2 513,-301.2 513,-279.2 303,-279.2"/>
<image xlink:href="../../images/primaryKeys.png" width="11px" height="12px" preserveAspectRatio="xMinYMin meet" x="308" y="-296.2"/>
<text text-anchor="start" x="323" y="-286.3" font-family="Helvetica,sans-Serif" font-size="11.00" fill="#000000">rev_id</text>
<polygon fill="none" stroke="#000000" points="303,-257.2 303,-279.2 513,-279.2 513,-257.2 303,-257.2"/>
<image xlink:href="../../images/primaryKeys.png" width="11px" height="12px" preserveAspectRatio="xMinYMin meet" x="308" y="-274.2"/>
<text text-anchor="start" x="323" y="-264.3" font-family="Helvetica,sans-Serif" font-size="11.00" fill="#000000">record_id</text>
<polygon fill="none" stroke="#000000" points="303,-235.2 303,-257.2 513,-257.2 513,-235.2 303,-235.2"/>
<image xlink:href="../../images/foreignKeys.png" width="11px" height="12px" preserveAspectRatio="xMinYMin meet" x="308" y="-252.2"/>
<text text-anchor="start" x="323" y="-242.3" font-family="Helvetica,sans-Serif" font-size="11.00" fill="#000000">prison_number</text>
<polygon fill="none" stroke="#000000" points="303,-213.2 303,-235.2 513,-235.2 513,-213.2 303,-213.2"/>
<image xlink:href="../../images/foreignKeys.png" width="11px" height="12px" preserveAspectRatio="xMinYMin meet" x="308" y="-230.2"/>
<text text-anchor="start" x="323" y="-220.3" font-family="Helvetica,sans-Serif" font-size="11.00" fill="#000000">legacy_id</text>
<polygon fill="none" stroke="#000000" points="303,-194.2 303,-213.2 513,-213.2 513,-194.2 303,-194.2"/>
<text text-anchor="start" x="306" y="-200.3" font-family="Helvetica,sans-Serif" font-size="11.00" fill="#000000">...</text>
<polygon fill="#ffffff" stroke="transparent" points="303,-175.2 303,-194.2 406,-194.2 406,-175.2 303,-175.2"/>
<polygon fill="none" stroke="#000000" points="303,-175.2 303,-194.2 406,-194.2 406,-175.2 303,-175.2"/>
<text text-anchor="start" x="306" y="-181.3" font-family="Helvetica,sans-Serif" font-size="11.00" fill="#000000">&lt; 3</text>
<polygon fill="#ffffff" stroke="transparent" points="406,-175.2 406,-194.2 459,-194.2 459,-175.2 406,-175.2"/>
<polygon fill="none" stroke="#000000" points="406,-175.2 406,-194.2 459,-194.2 459,-175.2 406,-175.2"/>
<text text-anchor="start" x="449.8862" y="-181.3" font-family="Helvetica,sans-Serif" font-size="11.00" fill="#000000"> &#160;</text>
<polygon fill="#ffffff" stroke="transparent" points="459,-175.2 459,-194.2 513,-194.2 513,-175.2 459,-175.2"/>
<polygon fill="none" stroke="#000000" points="459,-175.2 459,-194.2 513,-194.2 513,-175.2 459,-175.2"/>
<text text-anchor="start" x="503.8862" y="-181.3" font-family="Helvetica,sans-Serif" font-size="11.00" fill="#000000"> &#160;</text>
</a>
</g>
</g>
<!-- csip_record_audit&#45;&gt;person_summary -->
<g id="edge2" class="edge">
<title>csip_record_audit:w&#45;&gt;person_summary:e</title>
<path fill="none" stroke="#000000" stroke-dasharray="5,2" d="M288.276,-246.2C276.2815,-246.2 268.8229,-246.2 252,-246.2"/>
<polygon fill="#000000" stroke="#000000" points="295,-246.2001 303,-249.8 299,-246.2 303,-246.2 303,-246.2 303,-246.2 299,-246.2 303,-242.6 295,-246.2001 295,-246.2001"/>
<ellipse fill="none" stroke="#000000" cx="291.8" cy="-246.2001" rx="3.2" ry="3.2"/>
</g>
<!-- csip_summary -->
<g id="node4" class="node">
<title>csip_summary</title>
<g id="a_node4"><a xlink:href="../../tables/csip_summary.html" xlink:title="csip_summary" target="_top">
<polygon fill="#ffffff" stroke="transparent" points="317.5,-90.2 317.5,-154.2 498.5,-154.2 498.5,-90.2 317.5,-90.2"/>
<polygon fill="#f5f5f5" stroke="transparent" points="318,-131.2 318,-154.2 499,-154.2 499,-131.2 318,-131.2"/>
<polygon fill="none" stroke="#000000" points="318,-131.2 318,-154.2 499,-154.2 499,-131.2 318,-131.2"/>
<text text-anchor="start" x="323" y="-139.8" font-family="Helvetica,sans-Serif" font-weight="bold" font-size="11.00" fill="#000000">csip_summary</text>
<text text-anchor="start" x="465.8895" y="-139.3" font-family="Helvetica,sans-Serif" font-size="11.00" fill="#000000">[view]</text>
<polygon fill="none" stroke="#000000" points="318,-109.2 318,-131.2 499,-131.2 499,-109.2 318,-109.2"/>
<image xlink:href="../../images/foreignKeys.png" width="11px" height="12px" preserveAspectRatio="xMinYMin meet" x="323" y="-126.2"/>
<text text-anchor="start" x="338" y="-116.3" font-family="Helvetica,sans-Serif" font-size="11.00" fill="#000000">prison_number</text>
<polygon fill="none" stroke="#000000" points="318,-90.2 318,-109.2 499,-109.2 499,-90.2 318,-90.2"/>
<text text-anchor="start" x="321" y="-96.3" font-family="Helvetica,sans-Serif" font-size="11.00" fill="#000000">...</text>
</a>
</g>
</g>
<!-- csip_summary&#45;&gt;person_summary -->
<g id="edge3" class="edge">
<title>csip_summary:w&#45;&gt;person_summary:e</title>
<path fill="none" stroke="#000000" stroke-dasharray="5,2" d="M303.7759,-123.0684C264.6438,-141.8236 309.5377,-246.2 252,-246.2"/>
<polygon fill="#000000" stroke="#000000" points="310.1579,-121.7815 318.7117,-123.729 314.0789,-120.9907 318,-120.2 318,-120.2 318,-120.2 314.0789,-120.9907 317.2883,-116.671 310.1579,-121.7815 310.1579,-121.7815"/>
<ellipse fill="none" stroke="#000000" cx="307.021" cy="-122.4141" rx="3.2" ry="3.2"/>
</g>
</g>
</svg>
