<?xml version="1.0" encoding="UTF-8" standalone="no"?>
<!DOCTYPE svg PUBLIC "-//W3C//DTD SVG 1.1//EN"
 "http://www.w3.org/Graphics/SVG/1.1/DTD/svg11.dtd">
<!-- Generated by graphviz version 2.40.1 (20161225.0304)
 -->
<!-- Title: twoDegreesRelationshipsDiagramImplied Pages: 1 -->
<svg width="668pt" height="525pt"
 viewBox="0.00 0.00 668.00 525.20" xmlns="http://www.w3.org/2000/svg" xmlns:xlink="http://www.w3.org/1999/xlink">
<g id="graph0" class="graph" transform="scale(1 1) rotate(0) translate(4 521.2)">
<title>twoDegreesRelationshipsDiagramImplied</title>
<polygon fill="#ffffff" stroke="transparent" points="-4,4 -4,-521.2 664,-521.2 664,4 -4,4"/>
<text text-anchor="middle" x="72.4936" y="-7.3" font-family="Helvetica,sans-Serif" font-size="11.00" fill="#000000">Generated by SchemaSpy</text>
<!-- csip_record -->
<g id="node1" class="node">
<title>csip_record</title>
<g id="a_node1"><a xlink:href="../../tables/csip_record.html" xlink:title="csip_record" target="_top">
<polygon fill="#ffffff" stroke="transparent" points="303,-194.2 303,-343.2 513,-343.2 513,-194.2 303,-194.2"/>
<polygon fill="#f5f5f5" stroke="transparent" points="303,-319.7 303,-342.7 513,-342.7 513,-319.7 303,-319.7"/>
<polygon fill="none" stroke="#000000" points="303,-319.7 303,-342.7 513,-342.7 513,-319.7 303,-319.7"/>
<text text-anchor="start" x="308" y="-328.3" font-family="Helvetica,sans-Serif" font-weight="bold" font-size="11.00" fill="#000000">csip_record</text>
<text text-anchor="start" x="478.0437" y="-327.8" font-family="Helvetica,sans-Serif" font-size="11.00" fill="#000000">[table]</text>
<polygon fill="none" stroke="#000000" points="303,-297.7 303,-319.7 513,-319.7 513,-297.7 303,-297.7"/>
<image xlink:href="../../images/primaryKeys.png" width="11px" height="12px" preserveAspectRatio="xMinYMin meet" x="308" y="-314.7"/>
<text text-anchor="start" x="323" y="-304.8" font-family="Helvetica,sans-Serif" font-size="11.00" fill="#000000">record_id</text>
<polygon fill="#ffffff" stroke="transparent" points="303,-275.7 303,-297.7 513,-297.7 513,-275.7 303,-275.7"/>
<polygon fill="none" stroke="#000000" points="303,-275.7 303,-297.7 513,-297.7 513,-275.7 303,-275.7"/>
<image xlink:href="../../images/foreignKeys.png" width="11px" height="12px" preserveAspectRatio="xMinYMin meet" x="308" y="-292.7"/>
<text text-anchor="start" x="323" y="-282.8" font-family="Helvetica,sans-Serif" font-size="11.00" fill="#000000">prison_number</text>
<polygon fill="#ffffff" stroke="transparent" points="303,-253.7 303,-275.7 513,-275.7 513,-253.7 303,-253.7"/>
<polygon fill="none" stroke="#000000" points="303,-253.7 303,-275.7 513,-275.7 513,-253.7 303,-253.7"/>
<image xlink:href="../../images/foreignKeys.png" width="11px" height="12px" preserveAspectRatio="xMinYMin meet" x="308" y="-270.7"/>
<text text-anchor="start" x="323" y="-260.8" font-family="Helvetica,sans-Serif" font-size="11.00" fill="#000000">legacy_id</text>
<polygon fill="#ffffff" stroke="transparent" points="303,-231.7 303,-253.7 513,-253.7 513,-231.7 303,-231.7"/>
<polygon fill="none" stroke="#000000" points="303,-231.7 303,-253.7 513,-253.7 513,-231.7 303,-231.7"/>
<image xlink:href="../../images/foreignKeys.png" width="11px" height="12px" preserveAspectRatio="xMinYMin meet" x="308" y="-248.7"/>
<text text-anchor="start" x="323" y="-238.8" font-family="Helvetica,sans-Serif" font-size="11.00" fill="#000000">status_id</text>
<polygon fill="none" stroke="#000000" points="303,-212.7 303,-231.7 513,-231.7 513,-212.7 303,-212.7"/>
<text text-anchor="start" x="306" y="-218.8" font-family="Helvetica,sans-Serif" font-size="11.00" fill="#000000">...</text>
<polygon fill="#ffffff" stroke="transparent" points="303,-193.7 303,-212.7 402,-212.7 402,-193.7 303,-193.7"/>
<polygon fill="none" stroke="#000000" points="303,-193.7 303,-212.7 402,-212.7 402,-193.7 303,-193.7"/>
<text text-anchor="start" x="306" y="-199.8" font-family="Helvetica,sans-Serif" font-size="11.00" fill="#000000">&lt; 3</text>
<polygon fill="#ffffff" stroke="transparent" points="402,-193.7 402,-212.7 453,-212.7 453,-193.7 402,-193.7"/>
<polygon fill="none" stroke="#000000" points="402,-193.7 402,-212.7 453,-212.7 453,-193.7 402,-193.7"/>
<text text-anchor="start" x="443.8862" y="-199.8" font-family="Helvetica,sans-Serif" font-size="11.00" fill="#000000"> &#160;</text>
<polygon fill="#ffffff" stroke="transparent" points="453,-193.7 453,-212.7 513,-212.7 513,-193.7 453,-193.7"/>
<polygon fill="none" stroke="#000000" points="453,-193.7 453,-212.7 513,-212.7 513,-193.7 453,-193.7"/>
<text text-anchor="start" x="494.4053" y="-199.8" font-family="Helvetica,sans-Serif" font-size="11.00" fill="#000000">2 &gt;</text>
</a>
</g>
</g>
<!-- audit_revision -->
<g id="node2" class="node">
<title>audit_revision</title>
<g id="a_node2"><a xlink:href="../../tables/audit_revision.html" xlink:title="audit_revision" target="_top">
<polygon fill="#ffffff" stroke="transparent" points="64,-386.2 64,-447.2 198,-447.2 198,-386.2 64,-386.2"/>
<polygon fill="#f5f5f5" stroke="transparent" points="64,-423.7 64,-446.7 198,-446.7 198,-423.7 64,-423.7"/>
<polygon fill="none" stroke="#000000" points="64,-423.7 64,-446.7 198,-446.7 198,-423.7 64,-423.7"/>
<text text-anchor="start" x="69" y="-432.3" font-family="Helvetica,sans-Serif" font-weight="bold" font-size="11.00" fill="#000000">audit_revision</text>
<text text-anchor="start" x="163.5219" y="-431.8" font-family="Helvetica,sans-Serif" font-size="11.00" fill="#000000">[table]</text>
<polygon fill="none" stroke="#000000" points="64,-404.7 64,-423.7 198,-423.7 198,-404.7 64,-404.7"/>
<text text-anchor="start" x="67" y="-410.8" font-family="Helvetica,sans-Serif" font-size="11.00" fill="#000000">...</text>
<polygon fill="#ffffff" stroke="transparent" points="64,-385.7 64,-404.7 117,-404.7 117,-385.7 64,-385.7"/>
<polygon fill="none" stroke="#000000" points="64,-385.7 64,-404.7 117,-404.7 117,-385.7 64,-385.7"/>
<text text-anchor="start" x="67" y="-391.8" font-family="Helvetica,sans-Serif" font-size="11.00" fill="#000000"> &#160;</text>
<polygon fill="#ffffff" stroke="transparent" points="117,-385.7 117,-404.7 150,-404.7 150,-385.7 117,-385.7"/>
<polygon fill="none" stroke="#000000" points="117,-385.7 117,-404.7 150,-404.7 150,-385.7 117,-385.7"/>
<text text-anchor="start" x="140.8862" y="-391.8" font-family="Helvetica,sans-Serif" font-size="11.00" fill="#000000"> &#160;</text>
<polygon fill="#ffffff" stroke="transparent" points="150,-385.7 150,-404.7 198,-404.7 198,-385.7 150,-385.7"/>
<polygon fill="none" stroke="#000000" points="150,-385.7 150,-404.7 198,-404.7 198,-385.7 150,-385.7"/>
<text text-anchor="start" x="173.2904" y="-391.8" font-family="Helvetica,sans-Serif" font-size="11.00" fill="#000000">33 &gt;</text>
</a>
</g>
</g>
<!-- csip_record&#45;&gt;audit_revision -->
<g id="edge1" class="edge">
<title>csip_record:w&#45;&gt;audit_revision:e</title>
<path fill="none" stroke="#000000" stroke-dasharray="5,2" d="M292.4567,-265.9301C257.288,-275.4206 292.6217,-337.6088 262,-374.7 240.7935,-400.3869 231.3096,-413.7 198,-413.7"/>
<polygon fill="#000000" stroke="#000000" points="301.7418,-260.8197 302.669,-268.7658 301.0797,-268.9512 300.1526,-261.0051 301.7418,-260.8197"/>
<polyline fill="none" stroke="#000000" points="303,-264.7 299.0269,-265.1636 "/>
<ellipse fill="none" stroke="#000000" cx="295.8485" cy="-265.5344" rx="3.2" ry="3.2"/>
</g>
<!-- person_summary -->
<g id="node3" class="node">
<title>person_summary</title>
<g id="a_node3"><a xlink:href="../../tables/person_summary.html" xlink:title="person_summary" target="_top">
<polygon fill="#ffffff" stroke="transparent" points="8,-120.7 8,-364.7 254,-364.7 254,-120.7 8,-120.7"/>
<polygon fill="#f5f5f5" stroke="transparent" points="10,-339.7 10,-362.7 252,-362.7 252,-339.7 10,-339.7"/>
<polygon fill="none" stroke="#000000" points="10,-339.7 10,-362.7 252,-362.7 252,-339.7 10,-339.7"/>
<text text-anchor="start" x="15" y="-348.3" font-family="Helvetica,sans-Serif" font-weight="bold" font-size="11.00" fill="#000000">person_summary</text>
<text text-anchor="start" x="217.0437" y="-347.8" font-family="Helvetica,sans-Serif" font-size="11.00" fill="#000000">[table]</text>
<polygon fill="none" stroke="#000000" points="10,-317.7 10,-339.7 191,-339.7 191,-317.7 10,-317.7"/>
<image xlink:href="../../images/primaryKeys.png" width="11px" height="12px" preserveAspectRatio="xMinYMin meet" x="15" y="-334.7"/>
<text text-anchor="start" x="30" y="-324.8" font-family="Helvetica,sans-Serif" font-size="11.00" fill="#000000">prison_number</text>
<polygon fill="none" stroke="#000000" points="191,-317.7 191,-339.7 252,-339.7 252,-317.7 191,-317.7"/>
<text text-anchor="start" x="193.994" y="-325.4" font-family="Helvetica,sans-Serif" font-size="11.00" fill="#000000">varchar[10]</text>
<polygon fill="none" stroke="#000000" points="10,-295.7 10,-317.7 191,-317.7 191,-295.7 10,-295.7"/>
<text text-anchor="start" x="30" y="-302.8" font-family="Helvetica,sans-Serif" font-size="11.00" fill="#000000">first_name</text>
<polygon fill="none" stroke="#000000" points="191,-295.7 191,-317.7 252,-317.7 252,-295.7 191,-295.7"/>
<text text-anchor="start" x="193.994" y="-303.4" font-family="Helvetica,sans-Serif" font-size="11.00" fill="#000000">varchar[64]</text>
<polygon fill="none" stroke="#000000" points="10,-273.7 10,-295.7 191,-295.7 191,-273.7 10,-273.7"/>
<text text-anchor="start" x="30" y="-280.8" font-family="Helvetica,sans-Serif" font-size="11.00" fill="#000000">last_name</text>
<polygon fill="none" stroke="#000000" points="191,-273.7 191,-295.7 252,-295.7 252,-273.7 191,-273.7"/>
<text text-anchor="start" x="193.994" y="-281.4" font-family="Helvetica,sans-Serif" font-size="11.00" fill="#000000">varchar[64]</text>
<polygon fill="none" stroke="#000000" points="10,-251.7 10,-273.7 191,-273.7 191,-251.7 10,-251.7"/>
<text text-anchor="start" x="30" y="-258.8" font-family="Helvetica,sans-Serif" font-size="11.00" fill="#000000">status</text>
<polygon fill="none" stroke="#000000" points="191,-251.7 191,-273.7 252,-273.7 252,-251.7 191,-251.7"/>
<text text-anchor="start" x="193.994" y="-259.4" font-family="Helvetica,sans-Serif" font-size="11.00" fill="#000000">varchar[16]</text>
<polygon fill="#ffffff" stroke="transparent" points="10,-229.7 10,-251.7 191,-251.7 191,-229.7 10,-229.7"/>
<polygon fill="none" stroke="#000000" points="10,-229.7 10,-251.7 191,-251.7 191,-229.7 10,-229.7"/>
<text text-anchor="start" x="30" y="-236.8" font-family="Helvetica,sans-Serif" font-size="11.00" fill="#000000">prison_code</text>
<polygon fill="none" stroke="#000000" points="191,-229.7 191,-251.7 252,-251.7 252,-229.7 191,-229.7"/>
<text text-anchor="start" x="193.994" y="-237.4" font-family="Helvetica,sans-Serif" font-size="11.00" fill="#000000">varchar[16]</text>
<polygon fill="none" stroke="#000000" points="10,-207.7 10,-229.7 191,-229.7 191,-207.7 10,-207.7"/>
<text text-anchor="start" x="30" y="-214.8" font-family="Helvetica,sans-Serif" font-size="11.00" fill="#000000">cell_location</text>
<polygon fill="none" stroke="#000000" points="191,-207.7 191,-229.7 252,-229.7 252,-207.7 191,-207.7"/>
<text text-anchor="start" x="193.994" y="-215.4" font-family="Helvetica,sans-Serif" font-size="11.00" fill="#000000">varchar[64]</text>
<polygon fill="none" stroke="#000000" points="10,-185.7 10,-207.7 191,-207.7 191,-185.7 10,-185.7"/>
<text text-anchor="start" x="30" y="-192.8" font-family="Helvetica,sans-Serif" font-size="11.00" fill="#000000">version</text>
<polygon fill="none" stroke="#000000" points="191,-185.7 191,-207.7 252,-207.7 252,-185.7 191,-185.7"/>
<text text-anchor="start" x="194" y="-193.4" font-family="Helvetica,sans-Serif" font-size="11.00" fill="#000000">int4[10]</text>
<polygon fill="none" stroke="#000000" points="10,-163.7 10,-185.7 191,-185.7 191,-163.7 10,-163.7"/>
<text text-anchor="start" x="30" y="-170.8" font-family="Helvetica,sans-Serif" font-size="11.00" fill="#000000">restricted_patient</text>
<polygon fill="none" stroke="#000000" points="191,-163.7 191,-185.7 252,-185.7 252,-163.7 191,-163.7"/>
<text text-anchor="start" x="194" y="-171.4" font-family="Helvetica,sans-Serif" font-size="11.00" fill="#000000">bool[1]</text>
<polygon fill="#ffffff" stroke="transparent" points="10,-141.7 10,-163.7 191,-163.7 191,-141.7 10,-141.7"/>
<polygon fill="none" stroke="#000000" points="10,-141.7 10,-163.7 191,-163.7 191,-141.7 10,-141.7"/>
<text text-anchor="start" x="30" y="-148.8" font-family="Helvetica,sans-Serif" font-size="11.00" fill="#000000">supporting_prison_code</text>
<polygon fill="none" stroke="#000000" points="191,-141.7 191,-163.7 252,-163.7 252,-141.7 191,-141.7"/>
<text text-anchor="start" x="193.994" y="-149.4" font-family="Helvetica,sans-Serif" font-size="11.00" fill="#000000">varchar[16]</text>
<polygon fill="#ffffff" stroke="transparent" points="10,-122.7 10,-141.7 105,-141.7 105,-122.7 10,-122.7"/>
<polygon fill="none" stroke="#000000" points="10,-122.7 10,-141.7 105,-141.7 105,-122.7 10,-122.7"/>
<text text-anchor="start" x="13" y="-128.8" font-family="Helvetica,sans-Serif" font-size="11.00" fill="#000000">&lt; 0</text>
<polygon fill="#ffffff" stroke="transparent" points="105,-122.7 105,-141.7 191,-141.7 191,-122.7 105,-122.7"/>
<polygon fill="none" stroke="#000000" points="105,-122.7 105,-141.7 191,-141.7 191,-122.7 105,-122.7"/>
<text text-anchor="start" x="181.8862" y="-128.8" font-family="Helvetica,sans-Serif" font-size="11.00" fill="#000000"> &#160;</text>
<polygon fill="#ffffff" stroke="transparent" points="191,-122.7 191,-141.7 252,-141.7 252,-122.7 191,-122.7"/>
<polygon fill="none" stroke="#000000" points="191,-122.7 191,-141.7 252,-141.7 252,-122.7 191,-122.7"/>
<text text-anchor="start" x="233.4053" y="-128.8" font-family="Helvetica,sans-Serif" font-size="11.00" fill="#000000">3 &gt;</text>
<polygon fill="none" stroke="#000000" stroke-width="2" points="9,-121.7 9,-363.7 253,-363.7 253,-121.7 9,-121.7"/>
</a>
</g>
</g>
<!-- csip_record&#45;&gt;person_summary -->
<g id="edge2" class="edge">
<title>csip_record:w&#45;&gt;person_summary:e</title>
<path fill="none" stroke="#000000" d="M289.0759,-291.1947C275.2452,-302.0296 275.3991,-328.7 252,-328.7"/>
<polygon fill="#000000" stroke="#000000" points="295.3868,-289.1576 304.1059,-290.1259 299.1934,-287.9288 303,-286.7 303,-286.7 303,-286.7 299.1934,-287.9288 301.8941,-283.2741 295.3868,-289.1576 295.3868,-289.1576"/>
<ellipse fill="none" stroke="#000000" cx="292.3416" cy="-290.1406" rx="3.2" ry="3.2"/>
</g>
<!-- reference_data -->
<g id="node4" class="node">
<title>reference_data</title>
<g id="a_node4"><a xlink:href="../../tables/reference_data.html" xlink:title="reference_data" target="_top">
<polygon fill="#ffffff" stroke="transparent" points="61,-38.2 61,-99.2 201,-99.2 201,-38.2 61,-38.2"/>
<polygon fill="#f5f5f5" stroke="transparent" points="61,-75.7 61,-98.7 201,-98.7 201,-75.7 61,-75.7"/>
<polygon fill="none" stroke="#000000" points="61,-75.7 61,-98.7 201,-98.7 201,-75.7 61,-75.7"/>
<text text-anchor="start" x="66" y="-84.3" font-family="Helvetica,sans-Serif" font-weight="bold" font-size="11.00" fill="#000000">reference_data</text>
<text text-anchor="start" x="166.5219" y="-83.8" font-family="Helvetica,sans-Serif" font-size="11.00" fill="#000000">[table]</text>
<polygon fill="none" stroke="#000000" points="61,-56.7 61,-75.7 201,-75.7 201,-56.7 61,-56.7"/>
<text text-anchor="start" x="64" y="-62.8" font-family="Helvetica,sans-Serif" font-size="11.00" fill="#000000">...</text>
<polygon fill="#ffffff" stroke="transparent" points="61,-37.7 61,-56.7 98,-56.7 98,-37.7 61,-37.7"/>
<polygon fill="none" stroke="#000000" points="61,-37.7 61,-56.7 98,-56.7 98,-37.7 61,-37.7"/>
<text text-anchor="start" x="64" y="-43.8" font-family="Helvetica,sans-Serif" font-size="11.00" fill="#000000"> &#160;</text>
<polygon fill="#ffffff" stroke="transparent" points="98,-37.7 98,-56.7 161,-56.7 161,-37.7 98,-37.7"/>
<polygon fill="none" stroke="#000000" points="98,-37.7 98,-56.7 161,-56.7 161,-37.7 98,-37.7"/>
<text text-anchor="start" x="113.3807" y="-43.8" font-family="Helvetica,sans-Serif" font-size="11.00" fill="#000000">112 rows</text>
<polygon fill="#ffffff" stroke="transparent" points="161,-37.7 161,-56.7 201,-56.7 201,-37.7 161,-37.7"/>
<polygon fill="none" stroke="#000000" points="161,-37.7 161,-56.7 201,-56.7 201,-37.7 161,-37.7"/>
<text text-anchor="start" x="176.2904" y="-43.8" font-family="Helvetica,sans-Serif" font-size="11.00" fill="#000000">10 &gt;</text>
</a>
</g>
</g>
<!-- csip_record&#45;&gt;reference_data -->
<g id="edge3" class="edge">
<title>csip_record:w&#45;&gt;reference_data:e</title>
<path fill="none" stroke="#000000" d="M288.5603,-240.6132C250.9993,-227.4708 294.6837,-155.2431 262,-109.7 242.51,-82.5417 234.428,-65.7 201,-65.7"/>
<polygon fill="#000000" stroke="#000000" points="295.0823,-241.5557 302.4851,-246.263 299.0411,-242.1278 303,-242.7 303,-242.7 303,-242.7 299.0411,-242.1278 303.5149,-239.137 295.0823,-241.5557 295.0823,-241.5557"/>
<ellipse fill="none" stroke="#000000" cx="291.9152" cy="-241.098" rx="3.2" ry="3.2"/>
</g>
<!-- csip_record_audit -->
<g id="node5" class="node">
<title>csip_record_audit</title>
<g id="a_node5"><a xlink:href="../../tables/csip_record_audit.html" xlink:title="csip_record_audit" target="_top">
<polygon fill="#ffffff" stroke="transparent" points="303,-364.2 303,-513.2 513,-513.2 513,-364.2 303,-364.2"/>
<polygon fill="#f5f5f5" stroke="transparent" points="303,-489.7 303,-512.7 513,-512.7 513,-489.7 303,-489.7"/>
<polygon fill="none" stroke="#000000" points="303,-489.7 303,-512.7 513,-512.7 513,-489.7 303,-489.7"/>
<text text-anchor="start" x="308" y="-498.3" font-family="Helvetica,sans-Serif" font-weight="bold" font-size="11.00" fill="#000000">csip_record_audit</text>
<text text-anchor="start" x="478.0437" y="-497.8" font-family="Helvetica,sans-Serif" font-size="11.00" fill="#000000">[table]</text>
<polygon fill="none" stroke="#000000" points="303,-467.7 303,-489.7 513,-489.7 513,-467.7 303,-467.7"/>
<image xlink:href="../../images/primaryKeys.png" width="11px" height="12px" preserveAspectRatio="xMinYMin meet" x="308" y="-484.7"/>
<text text-anchor="start" x="323" y="-474.8" font-family="Helvetica,sans-Serif" font-size="11.00" fill="#000000">rev_id</text>
<polygon fill="none" stroke="#000000" points="303,-445.7 303,-467.7 513,-467.7 513,-445.7 303,-445.7"/>
<image xlink:href="../../images/primaryKeys.png" width="11px" height="12px" preserveAspectRatio="xMinYMin meet" x="308" y="-462.7"/>
<text text-anchor="start" x="323" y="-452.8" font-family="Helvetica,sans-Serif" font-size="11.00" fill="#000000">record_id</text>
<polygon fill="none" stroke="#000000" points="303,-423.7 303,-445.7 513,-445.7 513,-423.7 303,-423.7"/>
<image xlink:href="../../images/foreignKeys.png" width="11px" height="12px" preserveAspectRatio="xMinYMin meet" x="308" y="-440.7"/>
<text text-anchor="start" x="323" y="-430.8" font-family="Helvetica,sans-Serif" font-size="11.00" fill="#000000">prison_number</text>
<polygon fill="none" stroke="#000000" points="303,-401.7 303,-423.7 513,-423.7 513,-401.7 303,-401.7"/>
<image xlink:href="../../images/foreignKeys.png" width="11px" height="12px" preserveAspectRatio="xMinYMin meet" x="308" y="-418.7"/>
<text text-anchor="start" x="323" y="-408.8" font-family="Helvetica,sans-Serif" font-size="11.00" fill="#000000">legacy_id</text>
<polygon fill="none" stroke="#000000" points="303,-382.7 303,-401.7 513,-401.7 513,-382.7 303,-382.7"/>
<text text-anchor="start" x="306" y="-388.8" font-family="Helvetica,sans-Serif" font-size="11.00" fill="#000000">...</text>
<polygon fill="#ffffff" stroke="transparent" points="303,-363.7 303,-382.7 406,-382.7 406,-363.7 303,-363.7"/>
<polygon fill="none" stroke="#000000" points="303,-363.7 303,-382.7 406,-382.7 406,-363.7 303,-363.7"/>
<text text-anchor="start" x="306" y="-369.8" font-family="Helvetica,sans-Serif" font-size="11.00" fill="#000000">&lt; 3</text>
<polygon fill="#ffffff" stroke="transparent" points="406,-363.7 406,-382.7 459,-382.7 459,-363.7 406,-363.7"/>
<polygon fill="none" stroke="#000000" points="406,-363.7 406,-382.7 459,-382.7 459,-363.7 406,-363.7"/>
<text text-anchor="start" x="449.8862" y="-369.8" font-family="Helvetica,sans-Serif" font-size="11.00" fill="#000000"> &#160;</text>
<polygon fill="#ffffff" stroke="transparent" points="459,-363.7 459,-382.7 513,-382.7 513,-363.7 459,-363.7"/>
<polygon fill="none" stroke="#000000" points="459,-363.7 459,-382.7 513,-382.7 513,-363.7 459,-363.7"/>
<text text-anchor="start" x="503.8862" y="-369.8" font-family="Helvetica,sans-Serif" font-size="11.00" fill="#000000"> &#160;</text>
</a>
</g>
</g>
<!-- csip_record_audit&#45;&gt;audit_revision -->
<g id="edge4" class="edge">
<title>csip_record_audit:w&#45;&gt;audit_revision:e</title>
<path fill="none" stroke="#000000" stroke-dasharray="5,2" d="M288.3858,-412.7356C253.2397,-412.9137 239.3821,-413.7 198,-413.7"/>
<polygon fill="#000000" stroke="#000000" points="295,-412.7195 303.0088,-416.3 299,-412.7098 303,-412.7 303,-412.7 303,-412.7 299,-412.7098 302.9912,-409.1 295,-412.7195 295,-412.7195"/>
<ellipse fill="none" stroke="#000000" cx="291.8" cy="-412.7274" rx="3.2" ry="3.2"/>
</g>
<!-- csip_record_audit&#45;&gt;audit_revision -->
<g id="edge6" class="edge">
<title>csip_record_audit:w&#45;&gt;audit_revision:e</title>
<path fill="none" stroke="#000000" d="M288.5161,-476.9614C248.4778,-466.6246 247.525,-413.7 198,-413.7"/>
<polygon fill="#000000" stroke="#000000" points="295.057,-477.7465 302.5709,-482.2743 299.0285,-478.2233 303,-478.7 303,-478.7 303,-478.7 299.0285,-478.2233 303.4291,-475.1257 295.057,-477.7465 295.057,-477.7465"/>
<ellipse fill="none" stroke="#000000" cx="291.8798" cy="-477.3651" rx="3.2" ry="3.2"/>
</g>
<!-- csip_record_audit&#45;&gt;person_summary -->
<g id="edge5" class="edge">
<title>csip_record_audit:w&#45;&gt;person_summary:e</title>
<path fill="none" stroke="#000000" stroke-dasharray="5,2" d="M288.9998,-430.9274C261.4963,-412.0446 298.358,-328.7 252,-328.7"/>
<polygon fill="#000000" stroke="#000000" points="295.2755,-432.6185 302.0633,-438.176 299.1378,-433.6592 303,-434.7 303,-434.7 303,-434.7 299.1378,-433.6592 303.9367,-431.224 295.2755,-432.6185 295.2755,-432.6185"/>
<ellipse fill="none" stroke="#000000" cx="292.1857" cy="-431.7859" rx="3.2" ry="3.2"/>
</g>
<!-- csip_summary -->
<g id="node6" class="node">
<title>csip_summary</title>
<g id="a_node6"><a xlink:href="../../tables/csip_summary.html" xlink:title="csip_summary" target="_top">
<polygon fill="#ffffff" stroke="transparent" points="317.5,-108.7 317.5,-172.7 498.5,-172.7 498.5,-108.7 317.5,-108.7"/>
<polygon fill="#f5f5f5" stroke="transparent" points="318,-149.7 318,-172.7 499,-172.7 499,-149.7 318,-149.7"/>
<polygon fill="none" stroke="#000000" points="318,-149.7 318,-172.7 499,-172.7 499,-149.7 318,-149.7"/>
<text text-anchor="start" x="323" y="-158.3" font-family="Helvetica,sans-Serif" font-weight="bold" font-size="11.00" fill="#000000">csip_summary</text>
<text text-anchor="start" x="465.8895" y="-157.8" font-family="Helvetica,sans-Serif" font-size="11.00" fill="#000000">[view]</text>
<polygon fill="none" stroke="#000000" points="318,-127.7 318,-149.7 499,-149.7 499,-127.7 318,-127.7"/>
<image xlink:href="../../images/foreignKeys.png" width="11px" height="12px" preserveAspectRatio="xMinYMin meet" x="323" y="-144.7"/>
<text text-anchor="start" x="338" y="-134.8" font-family="Helvetica,sans-Serif" font-size="11.00" fill="#000000">prison_number</text>
<polygon fill="none" stroke="#000000" points="318,-108.7 318,-127.7 499,-127.7 499,-108.7 318,-108.7"/>
<text text-anchor="start" x="321" y="-114.8" font-family="Helvetica,sans-Serif" font-size="11.00" fill="#000000">...</text>
</a>
</g>
</g>
<!-- csip_summary&#45;&gt;person_summary -->
<g id="edge7" class="edge">
<title>csip_summary:w&#45;&gt;person_summary:e</title>
<path fill="none" stroke="#000000" stroke-dasharray="5,2" d="M303.5092,-140.8338C241.9146,-161.7078 335.807,-328.7 252,-328.7"/>
<polygon fill="#000000" stroke="#000000" points="310.0853,-139.8655 318.5245,-142.2616 314.0427,-139.2827 318,-138.7 318,-138.7 318,-138.7 314.0427,-139.2827 317.4755,-135.1384 310.0853,-139.8655 310.0853,-139.8655"/>
<ellipse fill="none" stroke="#000000" cx="306.9195" cy="-140.3317" rx="3.2" ry="3.2"/>
</g>
<!-- plan -->
<g id="node7" class="node">
<title>plan</title>
<g id="a_node7"><a xlink:href="../../tables/plan.html" xlink:title="plan" target="_top">
<polygon fill="#ffffff" stroke="transparent" points="573,-281.2 573,-342.2 641,-342.2 641,-281.2 573,-281.2"/>
<polygon fill="#f5f5f5" stroke="transparent" points="573,-318.7 573,-341.7 641,-341.7 641,-318.7 573,-318.7"/>
<polygon fill="none" stroke="#000000" points="573,-318.7 573,-341.7 641,-341.7 641,-318.7 573,-318.7"/>
<text text-anchor="start" x="578" y="-327.3" font-family="Helvetica,sans-Serif" font-weight="bold" font-size="11.00" fill="#000000">plan</text>
<text text-anchor="start" x="606.5219" y="-326.8" font-family="Helvetica,sans-Serif" font-size="11.00" fill="#000000">[table]</text>
<polygon fill="none" stroke="#000000" points="573,-299.7 573,-318.7 641,-318.7 641,-299.7 573,-299.7"/>
<text text-anchor="start" x="576" y="-305.8" font-family="Helvetica,sans-Serif" font-size="11.00" fill="#000000">...</text>
<polygon fill="#ffffff" stroke="transparent" points="573,-280.7 573,-299.7 601,-299.7 601,-280.7 573,-280.7"/>
<polygon fill="none" stroke="#000000" points="573,-280.7 573,-299.7 601,-299.7 601,-280.7 573,-280.7"/>
<text text-anchor="start" x="576" y="-286.8" font-family="Helvetica,sans-Serif" font-size="11.00" fill="#000000">&lt; 1</text>
<polygon fill="#ffffff" stroke="transparent" points="601,-280.7 601,-299.7 616,-299.7 616,-280.7 601,-280.7"/>
<polygon fill="none" stroke="#000000" points="601,-280.7 601,-299.7 616,-299.7 616,-280.7 601,-280.7"/>
<text text-anchor="start" x="606.8862" y="-286.8" font-family="Helvetica,sans-Serif" font-size="11.00" fill="#000000"> &#160;</text>
<polygon fill="#ffffff" stroke="transparent" points="616,-280.7 616,-299.7 641,-299.7 641,-280.7 616,-280.7"/>
<polygon fill="none" stroke="#000000" points="616,-280.7 616,-299.7 641,-299.7 641,-280.7 616,-280.7"/>
<text text-anchor="start" x="622.4053" y="-286.8" font-family="Helvetica,sans-Serif" font-size="11.00" fill="#000000">2 &gt;</text>
</a>
</g>
</g>
<!-- plan&#45;&gt;csip_record -->
<g id="edge8" class="edge">
<title>plan:w&#45;&gt;csip_record:e</title>
<path fill="none" stroke="#000000" d="M562.5701,-308.7C543.9885,-308.7 535.8125,-308.7 513,-308.7"/>
<polygon fill="#000000" stroke="#000000" points="572.2,-304.7 572.2,-312.7 570.6,-312.7 570.6,-304.7 572.2,-304.7"/>
<polyline fill="none" stroke="#000000" points="573,-308.7 569,-308.7 "/>
<ellipse fill="none" stroke="#000000" cx="565.8" cy="-308.7001" rx="3.2" ry="3.2"/>
</g>
<!-- referral -->
<g id="node8" class="node">
<title>referral</title>
<g id="a_node8"><a xlink:href="../../tables/referral.html" xlink:title="referral" target="_top">
<polygon fill="#ffffff" stroke="transparent" points="562,-38.2 562,-99.2 652,-99.2 652,-38.2 562,-38.2"/>
<polygon fill="#f5f5f5" stroke="transparent" points="562,-75.7 562,-98.7 652,-98.7 652,-75.7 562,-75.7"/>
<polygon fill="none" stroke="#000000" points="562,-75.7 562,-98.7 652,-98.7 652,-75.7 562,-75.7"/>
<text text-anchor="start" x="567" y="-84.3" font-family="Helvetica,sans-Serif" font-weight="bold" font-size="11.00" fill="#000000">referral</text>
<text text-anchor="start" x="617.5219" y="-83.8" font-family="Helvetica,sans-Serif" font-size="11.00" fill="#000000">[table]</text>
<polygon fill="none" stroke="#000000" points="562,-56.7 562,-75.7 652,-75.7 652,-56.7 562,-56.7"/>
<text text-anchor="start" x="565" y="-62.8" font-family="Helvetica,sans-Serif" font-size="11.00" fill="#000000">...</text>
<polygon fill="#ffffff" stroke="transparent" points="562,-37.7 562,-56.7 601,-56.7 601,-37.7 562,-37.7"/>
<polygon fill="none" stroke="#000000" points="562,-37.7 562,-56.7 601,-56.7 601,-37.7 562,-37.7"/>
<text text-anchor="start" x="565" y="-43.8" font-family="Helvetica,sans-Serif" font-size="11.00" fill="#000000">&lt; 5</text>
<polygon fill="#ffffff" stroke="transparent" points="601,-37.7 601,-56.7 622,-56.7 622,-37.7 601,-37.7"/>
<polygon fill="none" stroke="#000000" points="601,-37.7 601,-56.7 622,-56.7 622,-37.7 601,-37.7"/>
<text text-anchor="start" x="612.8862" y="-43.8" font-family="Helvetica,sans-Serif" font-size="11.00" fill="#000000"> &#160;</text>
<polygon fill="#ffffff" stroke="transparent" points="622,-37.7 622,-56.7 652,-56.7 652,-37.7 622,-37.7"/>
<polygon fill="none" stroke="#000000" points="622,-37.7 622,-56.7 652,-56.7 652,-37.7 622,-37.7"/>
<text text-anchor="start" x="633.4053" y="-43.8" font-family="Helvetica,sans-Serif" font-size="11.00" fill="#000000">4 &gt;</text>
</a>
</g>
</g>
<!-- referral&#45;&gt;csip_record -->
<g id="edge13" class="edge">
<title>referral:w&#45;&gt;csip_record:e</title>
<path fill="none" stroke="#000000" d="M551.3995,-66.5799C463.5261,-82.4856 619.3005,-308.7 513,-308.7"/>
<polygon fill="#000000" stroke="#000000" points="560.8718,-61.7799 561.5337,-69.7525 559.9391,-69.8848 559.2773,-61.9123 560.8718,-61.7799"/>
<polyline fill="none" stroke="#000000" points="562,-65.7 558.0137,-66.0309 "/>
<ellipse fill="none" stroke="#000000" cx="554.8247" cy="-66.2957" rx="3.2" ry="3.2"/>
</g>
<!-- referral&#45;&gt;reference_data -->
<g id="edge9" class="edge">
<title>referral:w&#45;&gt;reference_data:e</title>
<path fill="none" stroke="#000000" d="M547.3035,-65.7C398.9311,-65.7 356.4306,-65.7 201,-65.7"/>
<polygon fill="#000000" stroke="#000000" points="554,-65.7001 562,-69.3 558,-65.7 562,-65.7 562,-65.7 562,-65.7 558,-65.7 562,-62.1 554,-65.7001 554,-65.7001"/>
<ellipse fill="none" stroke="#000000" cx="550.8" cy="-65.7001" rx="3.2" ry="3.2"/>
</g>
<!-- referral&#45;&gt;reference_data -->
<g id="edge10" class="edge">
<title>referral:w&#45;&gt;reference_data:e</title>
<path fill="none" stroke="#000000" d="M547.3035,-64.5193C398.9311,-52.7127 356.4306,-53.1062 201,-65.7"/>
<polygon fill="#000000" stroke="#000000" points="554.0257,-65.0593 561.7117,-69.2884 558.0128,-65.3797 562,-65.7 562,-65.7 562,-65.7 558.0128,-65.3797 562.2883,-62.1116 554.0257,-65.0593 554.0257,-65.0593"/>
<ellipse fill="none" stroke="#000000" cx="550.836" cy="-64.8031" rx="3.2" ry="3.2"/>
</g>
<!-- referral&#45;&gt;reference_data -->
<g id="edge11" class="edge">
<title>referral:w&#45;&gt;reference_data:e</title>
<path fill="none" stroke="#000000" d="M547.3035,-65.7C398.9311,-65.7 356.4306,-65.7 201,-65.7"/>
<polygon fill="#000000" stroke="#000000" points="554,-65.7001 562,-69.3 558,-65.7 562,-65.7 562,-65.7 562,-65.7 558,-65.7 562,-62.1 554,-65.7001 554,-65.7001"/>
<ellipse fill="none" stroke="#000000" cx="550.8" cy="-65.7001" rx="3.2" ry="3.2"/>
</g>
<!-- referral&#45;&gt;reference_data -->
<g id="edge12" class="edge">
<title>referral:w&#45;&gt;reference_data:e</title>
<path fill="none" stroke="#000000" d="M547.3035,-66.8807C398.9311,-78.6873 356.4306,-78.2937 201,-65.7"/>
<polygon fill="#000000" stroke="#000000" points="554.0257,-66.3407 562.2883,-69.2884 558.0128,-66.0203 562,-65.7 562,-65.7 562,-65.7 558.0128,-66.0203 561.7117,-62.1116 554.0257,-66.3407 554.0257,-66.3407"/>
<ellipse fill="none" stroke="#000000" cx="550.836" cy="-66.5969" rx="3.2" ry="3.2"/>
</g>
</g>
</svg>
