<?xml version="1.0" encoding="UTF-8" standalone="no"?>
<!DOCTYPE svg PUBLIC "-//W3C//DTD SVG 1.1//EN"
 "http://www.w3.org/Graphics/SVG/1.1/DTD/svg11.dtd">
<!-- Generated by graphviz version 2.40.1 (20161225.0304)
 -->
<!-- Title: oneDegreeRelationshipsDiagram Pages: 1 -->
<svg width="529pt" height="315pt"
 viewBox="0.00 0.00 529.00 314.70" xmlns="http://www.w3.org/2000/svg" xmlns:xlink="http://www.w3.org/1999/xlink">
<g id="graph0" class="graph" transform="scale(1 1) rotate(0) translate(4 310.7)">
<title>oneDegreeRelationshipsDiagram</title>
<polygon fill="#ffffff" stroke="transparent" points="-4,4 -4,-310.7 525,-310.7 525,4 -4,4"/>
<text text-anchor="middle" x="72.4936" y="-7.3" font-family="Helvetica,sans-Serif" font-size="11.00" fill="#000000">Generated by SchemaSpy</text>
<!-- csip_record -->
<g id="node1" class="node">
<title>csip_record</title>
<g id="a_node1"><a xlink:href="../../tables/csip_record.html" xlink:title="csip_record" target="_top">
<polygon fill="#ffffff" stroke="transparent" points="303,-153.7 303,-302.7 513,-302.7 513,-153.7 303,-153.7"/>
<polygon fill="#f5f5f5" stroke="transparent" points="303,-279.2 303,-302.2 513,-302.2 513,-279.2 303,-279.2"/>
<polygon fill="none" stroke="#000000" points="303,-279.2 303,-302.2 513,-302.2 513,-279.2 303,-279.2"/>
<text text-anchor="start" x="308" y="-287.8" font-family="Helvetica,sans-Serif" font-weight="bold" font-size="11.00" fill="#000000">csip_record</text>
<text text-anchor="start" x="478.0437" y="-287.3" font-family="Helvetica,sans-Serif" font-size="11.00" fill="#000000">[table]</text>
<polygon fill="none" stroke="#000000" points="303,-257.2 303,-279.2 513,-279.2 513,-257.2 303,-257.2"/>
<image xlink:href="../../images/primaryKeys.png" width="11px" height="12px" preserveAspectRatio="xMinYMin meet" x="308" y="-274.2"/>
<text text-anchor="start" x="323" y="-264.3" font-family="Helvetica,sans-Serif" font-size="11.00" fill="#000000">record_id</text>
<polygon fill="#ffffff" stroke="transparent" points="303,-235.2 303,-257.2 513,-257.2 513,-235.2 303,-235.2"/>
<polygon fill="none" stroke="#000000" points="303,-235.2 303,-257.2 513,-257.2 513,-235.2 303,-235.2"/>
<image xlink:href="../../images/foreignKeys.png" width="11px" height="12px" preserveAspectRatio="xMinYMin meet" x="308" y="-252.2"/>
<text text-anchor="start" x="323" y="-242.3" font-family="Helvetica,sans-Serif" font-size="11.00" fill="#000000">prison_number</text>
<polygon fill="#ffffff" stroke="transparent" points="303,-213.2 303,-235.2 513,-235.2 513,-213.2 303,-213.2"/>
<polygon fill="none" stroke="#000000" points="303,-213.2 303,-235.2 513,-235.2 513,-213.2 303,-213.2"/>
<image xlink:href="../../images/foreignKeys.png" width="11px" height="12px" preserveAspectRatio="xMinYMin meet" x="308" y="-230.2"/>
<text text-anchor="start" x="323" y="-220.3" font-family="Helvetica,sans-Serif" font-size="11.00" fill="#000000">legacy_id</text>
<polygon fill="#ffffff" stroke="transparent" points="303,-191.2 303,-213.2 513,-213.2 513,-191.2 303,-191.2"/>
<polygon fill="none" stroke="#000000" points="303,-191.2 303,-213.2 513,-213.2 513,-191.2 303,-191.2"/>
<image xlink:href="../../images/foreignKeys.png" width="11px" height="12px" preserveAspectRatio="xMinYMin meet" x="308" y="-208.2"/>
<text text-anchor="start" x="323" y="-198.3" font-family="Helvetica,sans-Serif" font-size="11.00" fill="#000000">status_id</text>
<polygon fill="none" stroke="#000000" points="303,-172.2 303,-191.2 513,-191.2 513,-172.2 303,-172.2"/>
<text text-anchor="start" x="306" y="-178.3" font-family="Helvetica,sans-Serif" font-size="11.00" fill="#000000">...</text>
<polygon fill="#ffffff" stroke="transparent" points="303,-153.2 303,-172.2 402,-172.2 402,-153.2 303,-153.2"/>
<polygon fill="none" stroke="#000000" points="303,-153.2 303,-172.2 402,-172.2 402,-153.2 303,-153.2"/>
<text text-anchor="start" x="306" y="-159.3" font-family="Helvetica,sans-Serif" font-size="11.00" fill="#000000">&lt; 2</text>
<polygon fill="#ffffff" stroke="transparent" points="402,-153.2 402,-172.2 453,-172.2 453,-153.2 402,-153.2"/>
<polygon fill="none" stroke="#000000" points="402,-153.2 402,-172.2 453,-172.2 453,-153.2 402,-153.2"/>
<text text-anchor="start" x="443.8862" y="-159.3" font-family="Helvetica,sans-Serif" font-size="11.00" fill="#000000"> &#160;</text>
<polygon fill="#ffffff" stroke="transparent" points="453,-153.2 453,-172.2 513,-172.2 513,-153.2 453,-153.2"/>
<polygon fill="none" stroke="#000000" points="453,-153.2 453,-172.2 513,-172.2 513,-153.2 453,-153.2"/>
<text text-anchor="start" x="494.4053" y="-159.3" font-family="Helvetica,sans-Serif" font-size="11.00" fill="#000000">2 &gt;</text>
</a>
</g>
</g>
<!-- person_summary -->
<g id="node2" class="node">
<title>person_summary</title>
<g id="a_node2"><a xlink:href="../../tables/person_summary.html" xlink:title="person_summary" target="_top">
<polygon fill="#ffffff" stroke="transparent" points="8,-38.2 8,-282.2 254,-282.2 254,-38.2 8,-38.2"/>
<polygon fill="#f5f5f5" stroke="transparent" points="10,-257.2 10,-280.2 252,-280.2 252,-257.2 10,-257.2"/>
<polygon fill="none" stroke="#000000" points="10,-257.2 10,-280.2 252,-280.2 252,-257.2 10,-257.2"/>
<text text-anchor="start" x="15" y="-265.8" font-family="Helvetica,sans-Serif" font-weight="bold" font-size="11.00" fill="#000000">person_summary</text>
<text text-anchor="start" x="217.0437" y="-265.3" font-family="Helvetica,sans-Serif" font-size="11.00" fill="#000000">[table]</text>
<polygon fill="none" stroke="#000000" points="10,-235.2 10,-257.2 191,-257.2 191,-235.2 10,-235.2"/>
<image xlink:href="../../images/primaryKeys.png" width="11px" height="12px" preserveAspectRatio="xMinYMin meet" x="15" y="-252.2"/>
<text text-anchor="start" x="30" y="-242.3" font-family="Helvetica,sans-Serif" font-size="11.00" fill="#000000">prison_number</text>
<polygon fill="none" stroke="#000000" points="191,-235.2 191,-257.2 252,-257.2 252,-235.2 191,-235.2"/>
<text text-anchor="start" x="193.994" y="-242.9" font-family="Helvetica,sans-Serif" font-size="11.00" fill="#000000">varchar[10]</text>
<polygon fill="none" stroke="#000000" points="10,-213.2 10,-235.2 191,-235.2 191,-213.2 10,-213.2"/>
<text text-anchor="start" x="30" y="-220.3" font-family="Helvetica,sans-Serif" font-size="11.00" fill="#000000">first_name</text>
<polygon fill="none" stroke="#000000" points="191,-213.2 191,-235.2 252,-235.2 252,-213.2 191,-213.2"/>
<text text-anchor="start" x="193.994" y="-220.9" font-family="Helvetica,sans-Serif" font-size="11.00" fill="#000000">varchar[64]</text>
<polygon fill="none" stroke="#000000" points="10,-191.2 10,-213.2 191,-213.2 191,-191.2 10,-191.2"/>
<text text-anchor="start" x="30" y="-198.3" font-family="Helvetica,sans-Serif" font-size="11.00" fill="#000000">last_name</text>
<polygon fill="none" stroke="#000000" points="191,-191.2 191,-213.2 252,-213.2 252,-191.2 191,-191.2"/>
<text text-anchor="start" x="193.994" y="-198.9" font-family="Helvetica,sans-Serif" font-size="11.00" fill="#000000">varchar[64]</text>
<polygon fill="none" stroke="#000000" points="10,-169.2 10,-191.2 191,-191.2 191,-169.2 10,-169.2"/>
<text text-anchor="start" x="30" y="-176.3" font-family="Helvetica,sans-Serif" font-size="11.00" fill="#000000">status</text>
<polygon fill="none" stroke="#000000" points="191,-169.2 191,-191.2 252,-191.2 252,-169.2 191,-169.2"/>
<text text-anchor="start" x="193.994" y="-176.9" font-family="Helvetica,sans-Serif" font-size="11.00" fill="#000000">varchar[16]</text>
<polygon fill="#ffffff" stroke="transparent" points="10,-147.2 10,-169.2 191,-169.2 191,-147.2 10,-147.2"/>
<polygon fill="none" stroke="#000000" points="10,-147.2 10,-169.2 191,-169.2 191,-147.2 10,-147.2"/>
<text text-anchor="start" x="30" y="-154.3" font-family="Helvetica,sans-Serif" font-size="11.00" fill="#000000">prison_code</text>
<polygon fill="none" stroke="#000000" points="191,-147.2 191,-169.2 252,-169.2 252,-147.2 191,-147.2"/>
<text text-anchor="start" x="193.994" y="-154.9" font-family="Helvetica,sans-Serif" font-size="11.00" fill="#000000">varchar[16]</text>
<polygon fill="none" stroke="#000000" points="10,-125.2 10,-147.2 191,-147.2 191,-125.2 10,-125.2"/>
<text text-anchor="start" x="30" y="-132.3" font-family="Helvetica,sans-Serif" font-size="11.00" fill="#000000">cell_location</text>
<polygon fill="none" stroke="#000000" points="191,-125.2 191,-147.2 252,-147.2 252,-125.2 191,-125.2"/>
<text text-anchor="start" x="193.994" y="-132.9" font-family="Helvetica,sans-Serif" font-size="11.00" fill="#000000">varchar[64]</text>
<polygon fill="none" stroke="#000000" points="10,-103.2 10,-125.2 191,-125.2 191,-103.2 10,-103.2"/>
<text text-anchor="start" x="30" y="-110.3" font-family="Helvetica,sans-Serif" font-size="11.00" fill="#000000">version</text>
<polygon fill="none" stroke="#000000" points="191,-103.2 191,-125.2 252,-125.2 252,-103.2 191,-103.2"/>
<text text-anchor="start" x="194" y="-110.9" font-family="Helvetica,sans-Serif" font-size="11.00" fill="#000000">int4[10]</text>
<polygon fill="none" stroke="#000000" points="10,-81.2 10,-103.2 191,-103.2 191,-81.2 10,-81.2"/>
<text text-anchor="start" x="30" y="-88.3" font-family="Helvetica,sans-Serif" font-size="11.00" fill="#000000">restricted_patient</text>
<polygon fill="none" stroke="#000000" points="191,-81.2 191,-103.2 252,-103.2 252,-81.2 191,-81.2"/>
<text text-anchor="start" x="194" y="-88.9" font-family="Helvetica,sans-Serif" font-size="11.00" fill="#000000">bool[1]</text>
<polygon fill="#ffffff" stroke="transparent" points="10,-59.2 10,-81.2 191,-81.2 191,-59.2 10,-59.2"/>
<polygon fill="none" stroke="#000000" points="10,-59.2 10,-81.2 191,-81.2 191,-59.2 10,-59.2"/>
<text text-anchor="start" x="30" y="-66.3" font-family="Helvetica,sans-Serif" font-size="11.00" fill="#000000">supporting_prison_code</text>
<polygon fill="none" stroke="#000000" points="191,-59.2 191,-81.2 252,-81.2 252,-59.2 191,-59.2"/>
<text text-anchor="start" x="193.994" y="-66.9" font-family="Helvetica,sans-Serif" font-size="11.00" fill="#000000">varchar[16]</text>
<polygon fill="#ffffff" stroke="transparent" points="10,-40.2 10,-59.2 105,-59.2 105,-40.2 10,-40.2"/>
<polygon fill="none" stroke="#000000" points="10,-40.2 10,-59.2 105,-59.2 105,-40.2 10,-40.2"/>
<text text-anchor="start" x="13" y="-46.3" font-family="Helvetica,sans-Serif" font-size="11.00" fill="#000000">&lt; 0</text>
<polygon fill="#ffffff" stroke="transparent" points="105,-40.2 105,-59.2 191,-59.2 191,-40.2 105,-40.2"/>
<polygon fill="none" stroke="#000000" points="105,-40.2 105,-59.2 191,-59.2 191,-40.2 105,-40.2"/>
<text text-anchor="start" x="181.8862" y="-46.3" font-family="Helvetica,sans-Serif" font-size="11.00" fill="#000000"> &#160;</text>
<polygon fill="#ffffff" stroke="transparent" points="191,-40.2 191,-59.2 252,-59.2 252,-40.2 191,-40.2"/>
<polygon fill="none" stroke="#000000" points="191,-40.2 191,-59.2 252,-59.2 252,-40.2 191,-40.2"/>
<text text-anchor="start" x="233.4053" y="-46.3" font-family="Helvetica,sans-Serif" font-size="11.00" fill="#000000">1 &gt;</text>
<polygon fill="none" stroke="#000000" stroke-width="2" points="9,-39.2 9,-281.2 253,-281.2 253,-39.2 9,-39.2"/>
</a>
</g>
</g>
<!-- csip_record&#45;&gt;person_summary -->
<g id="edge1" class="edge">
<title>csip_record:w&#45;&gt;person_summary:e</title>
<path fill="none" stroke="#000000" d="M288.276,-246.2C276.2815,-246.2 268.8229,-246.2 252,-246.2"/>
<polygon fill="#000000" stroke="#000000" points="295,-246.2001 303,-249.8 299,-246.2 303,-246.2 303,-246.2 303,-246.2 299,-246.2 303,-242.6 295,-246.2001 295,-246.2001"/>
<ellipse fill="none" stroke="#000000" cx="291.8" cy="-246.2001" rx="3.2" ry="3.2"/>
</g>
</g>
</svg>
