<?xml version="1.0" encoding="UTF-8" standalone="no"?>
<!DOCTYPE svg PUBLIC "-//W3C//DTD SVG 1.1//EN"
 "http://www.w3.org/Graphics/SVG/1.1/DTD/svg11.dtd">
<!-- Generated by graphviz version 2.40.1 (20161225.0304)
 -->
<!-- Title: oneDegreeRelationshipsDiagramImplied Pages: 1 -->
<svg width="551pt" height="470pt"
 viewBox="0.00 0.00 551.00 470.20" xmlns="http://www.w3.org/2000/svg" xmlns:xlink="http://www.w3.org/1999/xlink">
<g id="graph0" class="graph" transform="scale(1 1) rotate(0) translate(4 466.2)">
<title>oneDegreeRelationshipsDiagramImplied</title>
<polygon fill="#ffffff" stroke="transparent" points="-4,4 -4,-466.2 547,-466.2 547,4 -4,4"/>
<text text-anchor="middle" x="72.4936" y="-7.3" font-family="Helvetica,sans-Serif" font-size="11.00" fill="#000000">Generated by SchemaSpy</text>
<!-- person_summary_audit -->
<g id="node1" class="node">
<title>person_summary_audit</title>
<g id="a_node1"><a xlink:href="../../tables/person_summary_audit.html" xlink:title="person_summary_audit" target="_top">
<polygon fill="#ffffff" stroke="transparent" points="223,-38.2 223,-458.2 535,-458.2 535,-38.2 223,-38.2"/>
<polygon fill="#f5f5f5" stroke="transparent" points="225,-433.2 225,-456.2 533,-456.2 533,-433.2 225,-433.2"/>
<polygon fill="none" stroke="#000000" points="225,-433.2 225,-456.2 533,-456.2 533,-433.2 225,-433.2"/>
<text text-anchor="start" x="230" y="-441.8" font-family="Helvetica,sans-Serif" font-weight="bold" font-size="11.00" fill="#000000">person_summary_audit</text>
<text text-anchor="start" x="498.0437" y="-441.3" font-family="Helvetica,sans-Serif" font-size="11.00" fill="#000000">[table]</text>
<polygon fill="none" stroke="#000000" points="225,-411.2 225,-433.2 472,-433.2 472,-411.2 225,-411.2"/>
<image xlink:href="../../images/primaryKeys.png" width="11px" height="12px" preserveAspectRatio="xMinYMin meet" x="230" y="-428.2"/>
<text text-anchor="start" x="245" y="-418.3" font-family="Helvetica,sans-Serif" font-size="11.00" fill="#000000">rev_id</text>
<polygon fill="none" stroke="#000000" points="472,-411.2 472,-433.2 533,-433.2 533,-411.2 472,-411.2"/>
<text text-anchor="start" x="475" y="-418.9" font-family="Helvetica,sans-Serif" font-size="11.00" fill="#000000">int8[19]</text>
<polygon fill="none" stroke="#000000" points="225,-389.2 225,-411.2 472,-411.2 472,-389.2 225,-389.2"/>
<text text-anchor="start" x="245" y="-396.3" font-family="Helvetica,sans-Serif" font-size="11.00" fill="#000000">rev_type</text>
<polygon fill="none" stroke="#000000" points="472,-389.2 472,-411.2 533,-411.2 533,-389.2 472,-389.2"/>
<text text-anchor="start" x="475" y="-396.9" font-family="Helvetica,sans-Serif" font-size="11.00" fill="#000000">int2[5]</text>
<polygon fill="none" stroke="#000000" points="225,-367.2 225,-389.2 472,-389.2 472,-367.2 225,-367.2"/>
<image xlink:href="../../images/primaryKeys.png" width="11px" height="12px" preserveAspectRatio="xMinYMin meet" x="230" y="-384.2"/>
<text text-anchor="start" x="245" y="-374.3" font-family="Helvetica,sans-Serif" font-size="11.00" fill="#000000">prison_number</text>
<polygon fill="none" stroke="#000000" points="472,-367.2 472,-389.2 533,-389.2 533,-367.2 472,-367.2"/>
<text text-anchor="start" x="474.994" y="-374.9" font-family="Helvetica,sans-Serif" font-size="11.00" fill="#000000">varchar[10]</text>
<polygon fill="none" stroke="#000000" points="225,-345.2 225,-367.2 472,-367.2 472,-345.2 225,-345.2"/>
<text text-anchor="start" x="245" y="-352.3" font-family="Helvetica,sans-Serif" font-size="11.00" fill="#000000">first_name</text>
<polygon fill="none" stroke="#000000" points="472,-345.2 472,-367.2 533,-367.2 533,-345.2 472,-345.2"/>
<text text-anchor="start" x="474.994" y="-352.9" font-family="Helvetica,sans-Serif" font-size="11.00" fill="#000000">varchar[64]</text>
<polygon fill="none" stroke="#000000" points="225,-323.2 225,-345.2 472,-345.2 472,-323.2 225,-323.2"/>
<text text-anchor="start" x="245" y="-330.3" font-family="Helvetica,sans-Serif" font-size="11.00" fill="#000000">last_name</text>
<polygon fill="none" stroke="#000000" points="472,-323.2 472,-345.2 533,-345.2 533,-323.2 472,-323.2"/>
<text text-anchor="start" x="474.994" y="-330.9" font-family="Helvetica,sans-Serif" font-size="11.00" fill="#000000">varchar[64]</text>
<polygon fill="none" stroke="#000000" points="225,-301.2 225,-323.2 472,-323.2 472,-301.2 225,-301.2"/>
<text text-anchor="start" x="245" y="-308.3" font-family="Helvetica,sans-Serif" font-size="11.00" fill="#000000">status</text>
<polygon fill="none" stroke="#000000" points="472,-301.2 472,-323.2 533,-323.2 533,-301.2 472,-301.2"/>
<text text-anchor="start" x="474.994" y="-308.9" font-family="Helvetica,sans-Serif" font-size="11.00" fill="#000000">varchar[16]</text>
<polygon fill="none" stroke="#000000" points="225,-279.2 225,-301.2 472,-301.2 472,-279.2 225,-279.2"/>
<text text-anchor="start" x="245" y="-286.3" font-family="Helvetica,sans-Serif" font-size="11.00" fill="#000000">prison_code</text>
<polygon fill="none" stroke="#000000" points="472,-279.2 472,-301.2 533,-301.2 533,-279.2 472,-279.2"/>
<text text-anchor="start" x="474.994" y="-286.9" font-family="Helvetica,sans-Serif" font-size="11.00" fill="#000000">varchar[16]</text>
<polygon fill="none" stroke="#000000" points="225,-257.2 225,-279.2 472,-279.2 472,-257.2 225,-257.2"/>
<text text-anchor="start" x="245" y="-264.3" font-family="Helvetica,sans-Serif" font-size="11.00" fill="#000000">cell_location</text>
<polygon fill="none" stroke="#000000" points="472,-257.2 472,-279.2 533,-279.2 533,-257.2 472,-257.2"/>
<text text-anchor="start" x="474.994" y="-264.9" font-family="Helvetica,sans-Serif" font-size="11.00" fill="#000000">varchar[64]</text>
<polygon fill="none" stroke="#000000" points="225,-235.2 225,-257.2 472,-257.2 472,-235.2 225,-235.2"/>
<text text-anchor="start" x="245" y="-242.3" font-family="Helvetica,sans-Serif" font-size="11.00" fill="#000000">first_name_modified</text>
<polygon fill="none" stroke="#000000" points="472,-235.2 472,-257.2 533,-257.2 533,-235.2 472,-235.2"/>
<text text-anchor="start" x="475" y="-242.9" font-family="Helvetica,sans-Serif" font-size="11.00" fill="#000000">bool[1]</text>
<polygon fill="none" stroke="#000000" points="225,-213.2 225,-235.2 472,-235.2 472,-213.2 225,-213.2"/>
<text text-anchor="start" x="245" y="-220.3" font-family="Helvetica,sans-Serif" font-size="11.00" fill="#000000">last_name_modified</text>
<polygon fill="none" stroke="#000000" points="472,-213.2 472,-235.2 533,-235.2 533,-213.2 472,-213.2"/>
<text text-anchor="start" x="475" y="-220.9" font-family="Helvetica,sans-Serif" font-size="11.00" fill="#000000">bool[1]</text>
<polygon fill="none" stroke="#000000" points="225,-191.2 225,-213.2 472,-213.2 472,-191.2 225,-191.2"/>
<text text-anchor="start" x="245" y="-198.3" font-family="Helvetica,sans-Serif" font-size="11.00" fill="#000000">status_modified</text>
<polygon fill="none" stroke="#000000" points="472,-191.2 472,-213.2 533,-213.2 533,-191.2 472,-191.2"/>
<text text-anchor="start" x="475" y="-198.9" font-family="Helvetica,sans-Serif" font-size="11.00" fill="#000000">bool[1]</text>
<polygon fill="none" stroke="#000000" points="225,-169.2 225,-191.2 472,-191.2 472,-169.2 225,-169.2"/>
<text text-anchor="start" x="245" y="-176.3" font-family="Helvetica,sans-Serif" font-size="11.00" fill="#000000">prison_code_modified</text>
<polygon fill="none" stroke="#000000" points="472,-169.2 472,-191.2 533,-191.2 533,-169.2 472,-169.2"/>
<text text-anchor="start" x="475" y="-176.9" font-family="Helvetica,sans-Serif" font-size="11.00" fill="#000000">bool[1]</text>
<polygon fill="none" stroke="#000000" points="225,-147.2 225,-169.2 472,-169.2 472,-147.2 225,-147.2"/>
<text text-anchor="start" x="245" y="-154.3" font-family="Helvetica,sans-Serif" font-size="11.00" fill="#000000">cell_location_modified</text>
<polygon fill="none" stroke="#000000" points="472,-147.2 472,-169.2 533,-169.2 533,-147.2 472,-147.2"/>
<text text-anchor="start" x="475" y="-154.9" font-family="Helvetica,sans-Serif" font-size="11.00" fill="#000000">bool[1]</text>
<polygon fill="none" stroke="#000000" points="225,-125.2 225,-147.2 472,-147.2 472,-125.2 225,-125.2"/>
<text text-anchor="start" x="245" y="-132.3" font-family="Helvetica,sans-Serif" font-size="11.00" fill="#000000">restricted_patient</text>
<polygon fill="none" stroke="#000000" points="472,-125.2 472,-147.2 533,-147.2 533,-125.2 472,-125.2"/>
<text text-anchor="start" x="475" y="-132.9" font-family="Helvetica,sans-Serif" font-size="11.00" fill="#000000">bool[1]</text>
<polygon fill="none" stroke="#000000" points="225,-103.2 225,-125.2 472,-125.2 472,-103.2 225,-103.2"/>
<text text-anchor="start" x="245" y="-110.3" font-family="Helvetica,sans-Serif" font-size="11.00" fill="#000000">supporting_prison_code</text>
<polygon fill="none" stroke="#000000" points="472,-103.2 472,-125.2 533,-125.2 533,-103.2 472,-103.2"/>
<text text-anchor="start" x="474.994" y="-110.9" font-family="Helvetica,sans-Serif" font-size="11.00" fill="#000000">varchar[16]</text>
<polygon fill="none" stroke="#000000" points="225,-81.2 225,-103.2 472,-103.2 472,-81.2 225,-81.2"/>
<text text-anchor="start" x="245" y="-88.3" font-family="Helvetica,sans-Serif" font-size="11.00" fill="#000000">restricted_patient_modified</text>
<polygon fill="none" stroke="#000000" points="472,-81.2 472,-103.2 533,-103.2 533,-81.2 472,-81.2"/>
<text text-anchor="start" x="475" y="-88.9" font-family="Helvetica,sans-Serif" font-size="11.00" fill="#000000">bool[1]</text>
<polygon fill="none" stroke="#000000" points="225,-59.2 225,-81.2 472,-81.2 472,-59.2 225,-59.2"/>
<text text-anchor="start" x="245" y="-66.3" font-family="Helvetica,sans-Serif" font-size="11.00" fill="#000000">supporting_prison_code_modified</text>
<polygon fill="none" stroke="#000000" points="472,-59.2 472,-81.2 533,-81.2 533,-59.2 472,-59.2"/>
<text text-anchor="start" x="474.994" y="-66.9" font-family="Helvetica,sans-Serif" font-size="11.00" fill="#000000">varchar[16]</text>
<polygon fill="#ffffff" stroke="transparent" points="225,-40.2 225,-59.2 353,-59.2 353,-40.2 225,-40.2"/>
<polygon fill="none" stroke="#000000" points="225,-40.2 225,-59.2 353,-59.2 353,-40.2 225,-40.2"/>
<text text-anchor="start" x="228" y="-46.3" font-family="Helvetica,sans-Serif" font-size="11.00" fill="#000000">&lt; 1</text>
<polygon fill="#ffffff" stroke="transparent" points="353,-40.2 353,-59.2 472,-59.2 472,-40.2 353,-40.2"/>
<polygon fill="none" stroke="#000000" points="353,-40.2 353,-59.2 472,-59.2 472,-40.2 353,-40.2"/>
<text text-anchor="start" x="462.8862" y="-46.3" font-family="Helvetica,sans-Serif" font-size="11.00" fill="#000000"> &#160;</text>
<polygon fill="#ffffff" stroke="transparent" points="472,-40.2 472,-59.2 533,-59.2 533,-40.2 472,-40.2"/>
<polygon fill="none" stroke="#000000" points="472,-40.2 472,-59.2 533,-59.2 533,-40.2 472,-40.2"/>
<text text-anchor="start" x="514.4053" y="-46.3" font-family="Helvetica,sans-Serif" font-size="11.00" fill="#000000">0 &gt;</text>
<polygon fill="none" stroke="#000000" stroke-width="2" points="224,-39.2 224,-457.2 534,-457.2 534,-39.2 224,-39.2"/>
</a>
</g>
</g>
<!-- audit_revision -->
<g id="node2" class="node">
<title>audit_revision</title>
<g id="a_node2"><a xlink:href="../../tables/audit_revision.html" xlink:title="audit_revision" target="_top">
<polygon fill="#ffffff" stroke="transparent" points="8,-373.7 8,-456.7 174,-456.7 174,-373.7 8,-373.7"/>
<polygon fill="#f5f5f5" stroke="transparent" points="8,-433.2 8,-456.2 174,-456.2 174,-433.2 8,-433.2"/>
<polygon fill="none" stroke="#000000" points="8,-433.2 8,-456.2 174,-456.2 174,-433.2 8,-433.2"/>
<text text-anchor="start" x="13" y="-441.8" font-family="Helvetica,sans-Serif" font-weight="bold" font-size="11.00" fill="#000000">audit_revision</text>
<text text-anchor="start" x="139.0437" y="-441.3" font-family="Helvetica,sans-Serif" font-size="11.00" fill="#000000">[table]</text>
<polygon fill="none" stroke="#000000" points="8,-411.2 8,-433.2 174,-433.2 174,-411.2 8,-411.2"/>
<image xlink:href="../../images/primaryKeys.png" width="11px" height="12px" preserveAspectRatio="xMinYMin meet" x="13" y="-428.2"/>
<text text-anchor="start" x="28" y="-418.3" font-family="Helvetica,sans-Serif" font-size="11.00" fill="#000000">id</text>
<polygon fill="none" stroke="#000000" points="8,-392.2 8,-411.2 174,-411.2 174,-392.2 8,-392.2"/>
<text text-anchor="start" x="11" y="-398.3" font-family="Helvetica,sans-Serif" font-size="11.00" fill="#000000">...</text>
<polygon fill="#ffffff" stroke="transparent" points="8,-373.2 8,-392.2 77,-392.2 77,-373.2 8,-373.2"/>
<polygon fill="none" stroke="#000000" points="8,-373.2 8,-392.2 77,-392.2 77,-373.2 8,-373.2"/>
<text text-anchor="start" x="11" y="-379.3" font-family="Helvetica,sans-Serif" font-size="11.00" fill="#000000"> &#160;</text>
<polygon fill="#ffffff" stroke="transparent" points="77,-373.2 77,-392.2 118,-392.2 118,-373.2 77,-373.2"/>
<polygon fill="none" stroke="#000000" points="77,-373.2 77,-392.2 118,-392.2 118,-373.2 77,-373.2"/>
<text text-anchor="start" x="108.8862" y="-379.3" font-family="Helvetica,sans-Serif" font-size="11.00" fill="#000000"> &#160;</text>
<polygon fill="#ffffff" stroke="transparent" points="118,-373.2 118,-392.2 174,-392.2 174,-373.2 118,-373.2"/>
<polygon fill="none" stroke="#000000" points="118,-373.2 118,-392.2 174,-392.2 174,-373.2 118,-373.2"/>
<text text-anchor="start" x="149.2904" y="-379.3" font-family="Helvetica,sans-Serif" font-size="11.00" fill="#000000">12 &gt;</text>
</a>
</g>
</g>
<!-- person_summary_audit&#45;&gt;audit_revision -->
<g id="edge1" class="edge">
<title>person_summary_audit:w&#45;&gt;audit_revision:e</title>
<path fill="none" stroke="#000000" d="M210.276,-422.2C198.2815,-422.2 190.8229,-422.2 174,-422.2"/>
<polygon fill="#000000" stroke="#000000" points="217,-422.2001 225,-425.8 221,-422.2 225,-422.2 225,-422.2 225,-422.2 221,-422.2 225,-418.6 217,-422.2001 217,-422.2001"/>
<ellipse fill="none" stroke="#000000" cx="213.8" cy="-422.2001" rx="3.2" ry="3.2"/>
</g>
</g>
</svg>
