<?xml version="1.0" encoding="UTF-8" standalone="no"?>
<!DOCTYPE svg PUBLIC "-//W3C//DTD SVG 1.1//EN"
 "http://www.w3.org/Graphics/SVG/1.1/DTD/svg11.dtd">
<!-- Generated by graphviz version 2.40.1 (20161225.0304)
 -->
<!-- Title: twoDegreesRelationshipsDiagram Pages: 1 -->
<svg width="551pt" height="1373pt"
 viewBox="0.00 0.00 551.00 1373.20" xmlns="http://www.w3.org/2000/svg" xmlns:xlink="http://www.w3.org/1999/xlink">
<g id="graph0" class="graph" transform="scale(1 1) rotate(0) translate(4 1369.2)">
<title>twoDegreesRelationshipsDiagram</title>
<polygon fill="#ffffff" stroke="transparent" points="-4,4 -4,-1369.2 547,-1369.2 547,4 -4,4"/>
<text text-anchor="middle" x="72.4936" y="-7.3" font-family="Helvetica,sans-Serif" font-size="11.00" fill="#000000">Generated by SchemaSpy</text>
<!-- attendee_audit -->
<g id="node1" class="node">
<title>attendee_audit</title>
<g id="a_node1"><a xlink:href="../../tables/attendee_audit.html" xlink:title="attendee_audit" target="_top">
<polygon fill="#ffffff" stroke="transparent" points="308.5,-1300.2 308.5,-1361.2 449.5,-1361.2 449.5,-1300.2 308.5,-1300.2"/>
<polygon fill="#f5f5f5" stroke="transparent" points="309,-1337.7 309,-1360.7 450,-1360.7 450,-1337.7 309,-1337.7"/>
<polygon fill="none" stroke="#000000" points="309,-1337.7 309,-1360.7 450,-1360.7 450,-1337.7 309,-1337.7"/>
<text text-anchor="start" x="314" y="-1346.3" font-family="Helvetica,sans-Serif" font-weight="bold" font-size="11.00" fill="#000000">attendee_audit</text>
<text text-anchor="start" x="415.5219" y="-1345.8" font-family="Helvetica,sans-Serif" font-size="11.00" fill="#000000">[table]</text>
<polygon fill="none" stroke="#000000" points="309,-1318.7 309,-1337.7 450,-1337.7 450,-1318.7 309,-1318.7"/>
<text text-anchor="start" x="312" y="-1324.8" font-family="Helvetica,sans-Serif" font-size="11.00" fill="#000000">...</text>
<polygon fill="#ffffff" stroke="transparent" points="309,-1299.7 309,-1318.7 378,-1318.7 378,-1299.7 309,-1299.7"/>
<polygon fill="none" stroke="#000000" points="309,-1299.7 309,-1318.7 378,-1318.7 378,-1299.7 309,-1299.7"/>
<text text-anchor="start" x="312" y="-1305.8" font-family="Helvetica,sans-Serif" font-size="11.00" fill="#000000">&lt; 1</text>
<polygon fill="#ffffff" stroke="transparent" points="378,-1299.7 378,-1318.7 414,-1318.7 414,-1299.7 378,-1299.7"/>
<polygon fill="none" stroke="#000000" points="378,-1299.7 378,-1318.7 414,-1318.7 414,-1299.7 378,-1299.7"/>
<text text-anchor="start" x="404.8862" y="-1305.8" font-family="Helvetica,sans-Serif" font-size="11.00" fill="#000000"> &#160;</text>
<polygon fill="#ffffff" stroke="transparent" points="414,-1299.7 414,-1318.7 450,-1318.7 450,-1299.7 414,-1299.7"/>
<polygon fill="none" stroke="#000000" points="414,-1299.7 414,-1318.7 450,-1318.7 450,-1299.7 414,-1299.7"/>
<text text-anchor="start" x="440.8862" y="-1305.8" font-family="Helvetica,sans-Serif" font-size="11.00" fill="#000000"> &#160;</text>
</a>
</g>
</g>
<!-- audit_revision -->
<g id="node2" class="node">
<title>audit_revision</title>
<g id="a_node2"><a xlink:href="../../tables/audit_revision.html" xlink:title="audit_revision" target="_top">
<polygon fill="#ffffff" stroke="transparent" points="8,-828.2 8,-911.2 174,-911.2 174,-828.2 8,-828.2"/>
<polygon fill="#f5f5f5" stroke="transparent" points="8,-887.7 8,-910.7 174,-910.7 174,-887.7 8,-887.7"/>
<polygon fill="none" stroke="#000000" points="8,-887.7 8,-910.7 174,-910.7 174,-887.7 8,-887.7"/>
<text text-anchor="start" x="13" y="-896.3" font-family="Helvetica,sans-Serif" font-weight="bold" font-size="11.00" fill="#000000">audit_revision</text>
<text text-anchor="start" x="139.0437" y="-895.8" font-family="Helvetica,sans-Serif" font-size="11.00" fill="#000000">[table]</text>
<polygon fill="none" stroke="#000000" points="8,-865.7 8,-887.7 174,-887.7 174,-865.7 8,-865.7"/>
<image xlink:href="../../images/primaryKeys.png" width="11px" height="12px" preserveAspectRatio="xMinYMin meet" x="13" y="-882.7"/>
<text text-anchor="start" x="28" y="-872.8" font-family="Helvetica,sans-Serif" font-size="11.00" fill="#000000">id</text>
<polygon fill="none" stroke="#000000" points="8,-846.7 8,-865.7 174,-865.7 174,-846.7 8,-846.7"/>
<text text-anchor="start" x="11" y="-852.8" font-family="Helvetica,sans-Serif" font-size="11.00" fill="#000000">...</text>
<polygon fill="#ffffff" stroke="transparent" points="8,-827.7 8,-846.7 77,-846.7 77,-827.7 8,-827.7"/>
<polygon fill="none" stroke="#000000" points="8,-827.7 8,-846.7 77,-846.7 77,-827.7 8,-827.7"/>
<text text-anchor="start" x="11" y="-833.8" font-family="Helvetica,sans-Serif" font-size="11.00" fill="#000000"> &#160;</text>
<polygon fill="#ffffff" stroke="transparent" points="77,-827.7 77,-846.7 118,-846.7 118,-827.7 77,-827.7"/>
<polygon fill="none" stroke="#000000" points="77,-827.7 77,-846.7 118,-846.7 118,-827.7 77,-827.7"/>
<text text-anchor="start" x="108.8862" y="-833.8" font-family="Helvetica,sans-Serif" font-size="11.00" fill="#000000"> &#160;</text>
<polygon fill="#ffffff" stroke="transparent" points="118,-827.7 118,-846.7 174,-846.7 174,-827.7 118,-827.7"/>
<polygon fill="none" stroke="#000000" points="118,-827.7 118,-846.7 174,-846.7 174,-827.7 118,-827.7"/>
<text text-anchor="start" x="149.2904" y="-833.8" font-family="Helvetica,sans-Serif" font-size="11.00" fill="#000000">12 &gt;</text>
</a>
</g>
</g>
<!-- attendee_audit&#45;&gt;audit_revision -->
<g id="edge1" class="edge">
<title>attendee_audit:w&#45;&gt;audit_revision:e</title>
<path fill="none" stroke="#000000" d="M294.5355,-1327.5788C258.9048,-1326.8245 238.9518,-1321.6832 215,-1289.7 159.7153,-1215.8774 266.2289,-876.7 174,-876.7"/>
<polygon fill="#000000" stroke="#000000" points="301.0003,-1327.6329 308.9698,-1331.2999 305.0001,-1327.6665 309,-1327.7 309,-1327.7 309,-1327.7 305.0001,-1327.6665 309.0302,-1324.1001 301.0003,-1327.6329 301.0003,-1327.6329"/>
<ellipse fill="none" stroke="#000000" cx="297.8004" cy="-1327.6061" rx="3.2" ry="3.2"/>
</g>
<!-- contributory_factor_audit -->
<g id="node3" class="node">
<title>contributory_factor_audit</title>
<g id="a_node3"><a xlink:href="../../tables/contributory_factor_audit.html" xlink:title="contributory_factor_audit" target="_top">
<polygon fill="#ffffff" stroke="transparent" points="274,-1218.2 274,-1279.2 484,-1279.2 484,-1218.2 274,-1218.2"/>
<polygon fill="#f5f5f5" stroke="transparent" points="274,-1255.7 274,-1278.7 484,-1278.7 484,-1255.7 274,-1255.7"/>
<polygon fill="none" stroke="#000000" points="274,-1255.7 274,-1278.7 484,-1278.7 484,-1255.7 274,-1255.7"/>
<text text-anchor="start" x="279" y="-1264.3" font-family="Helvetica,sans-Serif" font-weight="bold" font-size="11.00" fill="#000000">contributory_factor_audit</text>
<text text-anchor="start" x="449.5219" y="-1263.8" font-family="Helvetica,sans-Serif" font-size="11.00" fill="#000000">[table]</text>
<polygon fill="none" stroke="#000000" points="274,-1236.7 274,-1255.7 484,-1255.7 484,-1236.7 274,-1236.7"/>
<text text-anchor="start" x="277" y="-1242.8" font-family="Helvetica,sans-Serif" font-size="11.00" fill="#000000">...</text>
<polygon fill="#ffffff" stroke="transparent" points="274,-1217.7 274,-1236.7 377,-1236.7 377,-1217.7 274,-1217.7"/>
<polygon fill="none" stroke="#000000" points="274,-1217.7 274,-1236.7 377,-1236.7 377,-1217.7 274,-1217.7"/>
<text text-anchor="start" x="277" y="-1223.8" font-family="Helvetica,sans-Serif" font-size="11.00" fill="#000000">&lt; 1</text>
<polygon fill="#ffffff" stroke="transparent" points="377,-1217.7 377,-1236.7 430,-1236.7 430,-1217.7 377,-1217.7"/>
<polygon fill="none" stroke="#000000" points="377,-1217.7 377,-1236.7 430,-1236.7 430,-1217.7 377,-1217.7"/>
<text text-anchor="start" x="420.8862" y="-1223.8" font-family="Helvetica,sans-Serif" font-size="11.00" fill="#000000"> &#160;</text>
<polygon fill="#ffffff" stroke="transparent" points="430,-1217.7 430,-1236.7 484,-1236.7 484,-1217.7 430,-1217.7"/>
<polygon fill="none" stroke="#000000" points="430,-1217.7 430,-1236.7 484,-1236.7 484,-1217.7 430,-1217.7"/>
<text text-anchor="start" x="474.8862" y="-1223.8" font-family="Helvetica,sans-Serif" font-size="11.00" fill="#000000"> &#160;</text>
</a>
</g>
</g>
<!-- contributory_factor_audit&#45;&gt;audit_revision -->
<g id="edge2" class="edge">
<title>contributory_factor_audit:w&#45;&gt;audit_revision:e</title>
<path fill="none" stroke="#000000" d="M259.5588,-1244.6565C238.7949,-1241.2784 228.7404,-1229.5716 215,-1207.7 175.5719,-1144.9397 248.1177,-876.7 174,-876.7"/>
<polygon fill="#000000" stroke="#000000" points="266.0208,-1245.1234 273.7405,-1249.2906 270.0104,-1245.4117 274,-1245.7 274,-1245.7 274,-1245.7 270.0104,-1245.4117 274.2595,-1242.1094 266.0208,-1245.1234 266.0208,-1245.1234"/>
<ellipse fill="none" stroke="#000000" cx="262.8291" cy="-1244.8928" rx="3.2" ry="3.2"/>
</g>
<!-- csip_record_audit -->
<g id="node4" class="node">
<title>csip_record_audit</title>
<g id="a_node4"><a xlink:href="../../tables/csip_record_audit.html" xlink:title="csip_record_audit" target="_top">
<polygon fill="#ffffff" stroke="transparent" points="301,-1136.2 301,-1197.2 457,-1197.2 457,-1136.2 301,-1136.2"/>
<polygon fill="#f5f5f5" stroke="transparent" points="301,-1173.7 301,-1196.7 457,-1196.7 457,-1173.7 301,-1173.7"/>
<polygon fill="none" stroke="#000000" points="301,-1173.7 301,-1196.7 457,-1196.7 457,-1173.7 301,-1173.7"/>
<text text-anchor="start" x="306" y="-1182.3" font-family="Helvetica,sans-Serif" font-weight="bold" font-size="11.00" fill="#000000">csip_record_audit</text>
<text text-anchor="start" x="422.5219" y="-1181.8" font-family="Helvetica,sans-Serif" font-size="11.00" fill="#000000">[table]</text>
<polygon fill="none" stroke="#000000" points="301,-1154.7 301,-1173.7 457,-1173.7 457,-1154.7 301,-1154.7"/>
<text text-anchor="start" x="304" y="-1160.8" font-family="Helvetica,sans-Serif" font-size="11.00" fill="#000000">...</text>
<polygon fill="#ffffff" stroke="transparent" points="301,-1135.7 301,-1154.7 377,-1154.7 377,-1135.7 301,-1135.7"/>
<polygon fill="none" stroke="#000000" points="301,-1135.7 301,-1154.7 377,-1154.7 377,-1135.7 301,-1135.7"/>
<text text-anchor="start" x="304" y="-1141.8" font-family="Helvetica,sans-Serif" font-size="11.00" fill="#000000">&lt; 1</text>
<polygon fill="#ffffff" stroke="transparent" points="377,-1135.7 377,-1154.7 417,-1154.7 417,-1135.7 377,-1135.7"/>
<polygon fill="none" stroke="#000000" points="377,-1135.7 377,-1154.7 417,-1154.7 417,-1135.7 377,-1135.7"/>
<text text-anchor="start" x="407.8862" y="-1141.8" font-family="Helvetica,sans-Serif" font-size="11.00" fill="#000000"> &#160;</text>
<polygon fill="#ffffff" stroke="transparent" points="417,-1135.7 417,-1154.7 457,-1154.7 457,-1135.7 417,-1135.7"/>
<polygon fill="none" stroke="#000000" points="417,-1135.7 417,-1154.7 457,-1154.7 457,-1135.7 417,-1135.7"/>
<text text-anchor="start" x="447.8862" y="-1141.8" font-family="Helvetica,sans-Serif" font-size="11.00" fill="#000000"> &#160;</text>
</a>
</g>
</g>
<!-- csip_record_audit&#45;&gt;audit_revision -->
<g id="edge3" class="edge">
<title>csip_record_audit:w&#45;&gt;audit_revision:e</title>
<path fill="none" stroke="#000000" d="M286.3566,-1163.4223C254.4474,-1162.0208 237.3879,-1154.6084 215,-1125.7 180.6633,-1081.3628 230.0784,-876.7 174,-876.7"/>
<polygon fill="#000000" stroke="#000000" points="293.0014,-1163.5482 300.9317,-1167.2994 297.0007,-1163.6241 301,-1163.7 301,-1163.7 301,-1163.7 297.0007,-1163.6241 301.0683,-1160.1006 293.0014,-1163.5482 293.0014,-1163.5482"/>
<ellipse fill="none" stroke="#000000" cx="289.802" cy="-1163.4875" rx="3.2" ry="3.2"/>
</g>
<!-- decision_and_actions_audit -->
<g id="node5" class="node">
<title>decision_and_actions_audit</title>
<g id="a_node5"><a xlink:href="../../tables/decision_and_actions_audit.html" xlink:title="decision_and_actions_audit" target="_top">
<polygon fill="#ffffff" stroke="transparent" points="268,-1054.2 268,-1115.2 490,-1115.2 490,-1054.2 268,-1054.2"/>
<polygon fill="#f5f5f5" stroke="transparent" points="268,-1091.7 268,-1114.7 490,-1114.7 490,-1091.7 268,-1091.7"/>
<polygon fill="none" stroke="#000000" points="268,-1091.7 268,-1114.7 490,-1114.7 490,-1091.7 268,-1091.7"/>
<text text-anchor="start" x="273" y="-1100.3" font-family="Helvetica,sans-Serif" font-weight="bold" font-size="11.00" fill="#000000">decision_and_actions_audit</text>
<text text-anchor="start" x="455.5219" y="-1099.8" font-family="Helvetica,sans-Serif" font-size="11.00" fill="#000000">[table]</text>
<polygon fill="none" stroke="#000000" points="268,-1072.7 268,-1091.7 490,-1091.7 490,-1072.7 268,-1072.7"/>
<text text-anchor="start" x="271" y="-1078.8" font-family="Helvetica,sans-Serif" font-size="11.00" fill="#000000">...</text>
<polygon fill="#ffffff" stroke="transparent" points="268,-1053.7 268,-1072.7 377,-1072.7 377,-1053.7 268,-1053.7"/>
<polygon fill="none" stroke="#000000" points="268,-1053.7 268,-1072.7 377,-1072.7 377,-1053.7 268,-1053.7"/>
<text text-anchor="start" x="271" y="-1059.8" font-family="Helvetica,sans-Serif" font-size="11.00" fill="#000000">&lt; 1</text>
<polygon fill="#ffffff" stroke="transparent" points="377,-1053.7 377,-1072.7 433,-1072.7 433,-1053.7 377,-1053.7"/>
<polygon fill="none" stroke="#000000" points="377,-1053.7 377,-1072.7 433,-1072.7 433,-1053.7 377,-1053.7"/>
<text text-anchor="start" x="423.8862" y="-1059.8" font-family="Helvetica,sans-Serif" font-size="11.00" fill="#000000"> &#160;</text>
<polygon fill="#ffffff" stroke="transparent" points="433,-1053.7 433,-1072.7 490,-1072.7 490,-1053.7 433,-1053.7"/>
<polygon fill="none" stroke="#000000" points="433,-1053.7 433,-1072.7 490,-1072.7 490,-1053.7 433,-1053.7"/>
<text text-anchor="start" x="480.8862" y="-1059.8" font-family="Helvetica,sans-Serif" font-size="11.00" fill="#000000"> &#160;</text>
</a>
</g>
</g>
<!-- decision_and_actions_audit&#45;&gt;audit_revision -->
<g id="edge4" class="edge">
<title>decision_and_actions_audit:w&#45;&gt;audit_revision:e</title>
<path fill="none" stroke="#000000" d="M253.4796,-1080.19C235.7289,-1075.9766 228.1317,-1063.1122 215,-1043.7 172.1778,-980.3972 250.4264,-876.7 174,-876.7"/>
<polygon fill="#000000" stroke="#000000" points="260.0429,-1080.8725 267.6276,-1085.2807 264.0215,-1081.2862 268,-1081.7 268,-1081.7 268,-1081.7 264.0215,-1081.2862 268.3724,-1078.1193 260.0429,-1080.8725 260.0429,-1080.8725"/>
<ellipse fill="none" stroke="#000000" cx="256.8601" cy="-1080.5415" rx="3.2" ry="3.2"/>
</g>
<!-- identified_need_audit -->
<g id="node6" class="node">
<title>identified_need_audit</title>
<g id="a_node6"><a xlink:href="../../tables/identified_need_audit.html" xlink:title="identified_need_audit" target="_top">
<polygon fill="#ffffff" stroke="transparent" points="287,-972.2 287,-1033.2 471,-1033.2 471,-972.2 287,-972.2"/>
<polygon fill="#f5f5f5" stroke="transparent" points="287,-1009.7 287,-1032.7 471,-1032.7 471,-1009.7 287,-1009.7"/>
<polygon fill="none" stroke="#000000" points="287,-1009.7 287,-1032.7 471,-1032.7 471,-1009.7 287,-1009.7"/>
<text text-anchor="start" x="292" y="-1018.3" font-family="Helvetica,sans-Serif" font-weight="bold" font-size="11.00" fill="#000000">identified_need_audit</text>
<text text-anchor="start" x="436.5219" y="-1017.8" font-family="Helvetica,sans-Serif" font-size="11.00" fill="#000000">[table]</text>
<polygon fill="none" stroke="#000000" points="287,-990.7 287,-1009.7 471,-1009.7 471,-990.7 287,-990.7"/>
<text text-anchor="start" x="290" y="-996.8" font-family="Helvetica,sans-Serif" font-size="11.00" fill="#000000">...</text>
<polygon fill="#ffffff" stroke="transparent" points="287,-971.7 287,-990.7 377,-990.7 377,-971.7 287,-971.7"/>
<polygon fill="none" stroke="#000000" points="287,-971.7 287,-990.7 377,-990.7 377,-971.7 287,-971.7"/>
<text text-anchor="start" x="290" y="-977.8" font-family="Helvetica,sans-Serif" font-size="11.00" fill="#000000">&lt; 1</text>
<polygon fill="#ffffff" stroke="transparent" points="377,-971.7 377,-990.7 424,-990.7 424,-971.7 377,-971.7"/>
<polygon fill="none" stroke="#000000" points="377,-971.7 377,-990.7 424,-990.7 424,-971.7 377,-971.7"/>
<text text-anchor="start" x="414.8862" y="-977.8" font-family="Helvetica,sans-Serif" font-size="11.00" fill="#000000"> &#160;</text>
<polygon fill="#ffffff" stroke="transparent" points="424,-971.7 424,-990.7 471,-990.7 471,-971.7 424,-971.7"/>
<polygon fill="none" stroke="#000000" points="424,-971.7 424,-990.7 471,-990.7 471,-971.7 424,-971.7"/>
<text text-anchor="start" x="461.8862" y="-977.8" font-family="Helvetica,sans-Serif" font-size="11.00" fill="#000000"> &#160;</text>
</a>
</g>
</g>
<!-- identified_need_audit&#45;&gt;audit_revision -->
<g id="edge5" class="edge">
<title>identified_need_audit:w&#45;&gt;audit_revision:e</title>
<path fill="none" stroke="#000000" d="M272.4412,-998.9027C247.3229,-995.8402 236.3898,-983.8783 215,-961.7 185.8834,-931.5101 215.9429,-876.7 174,-876.7"/>
<polygon fill="#000000" stroke="#000000" points="279.012,-999.2625 286.8031,-1003.2946 283.006,-999.4813 287,-999.7 287,-999.7 287,-999.7 283.006,-999.4813 287.1969,-996.1054 279.012,-999.2625 279.012,-999.2625"/>
<ellipse fill="none" stroke="#000000" cx="275.8168" cy="-999.0875" rx="3.2" ry="3.2"/>
</g>
<!-- interview_audit -->
<g id="node7" class="node">
<title>interview_audit</title>
<g id="a_node7"><a xlink:href="../../tables/interview_audit.html" xlink:title="interview_audit" target="_top">
<polygon fill="#ffffff" stroke="transparent" points="307.5,-890.2 307.5,-951.2 450.5,-951.2 450.5,-890.2 307.5,-890.2"/>
<polygon fill="#f5f5f5" stroke="transparent" points="308,-927.7 308,-950.7 451,-950.7 451,-927.7 308,-927.7"/>
<polygon fill="none" stroke="#000000" points="308,-927.7 308,-950.7 451,-950.7 451,-927.7 308,-927.7"/>
<text text-anchor="start" x="313" y="-936.3" font-family="Helvetica,sans-Serif" font-weight="bold" font-size="11.00" fill="#000000">interview_audit</text>
<text text-anchor="start" x="416.5219" y="-935.8" font-family="Helvetica,sans-Serif" font-size="11.00" fill="#000000">[table]</text>
<polygon fill="none" stroke="#000000" points="308,-908.7 308,-927.7 451,-927.7 451,-908.7 308,-908.7"/>
<text text-anchor="start" x="311" y="-914.8" font-family="Helvetica,sans-Serif" font-size="11.00" fill="#000000">...</text>
<polygon fill="#ffffff" stroke="transparent" points="308,-889.7 308,-908.7 378,-908.7 378,-889.7 308,-889.7"/>
<polygon fill="none" stroke="#000000" points="308,-889.7 308,-908.7 378,-908.7 378,-889.7 308,-889.7"/>
<text text-anchor="start" x="311" y="-895.8" font-family="Helvetica,sans-Serif" font-size="11.00" fill="#000000">&lt; 1</text>
<polygon fill="#ffffff" stroke="transparent" points="378,-889.7 378,-908.7 414,-908.7 414,-889.7 378,-889.7"/>
<polygon fill="none" stroke="#000000" points="378,-889.7 378,-908.7 414,-908.7 414,-889.7 378,-889.7"/>
<text text-anchor="start" x="404.8862" y="-895.8" font-family="Helvetica,sans-Serif" font-size="11.00" fill="#000000"> &#160;</text>
<polygon fill="#ffffff" stroke="transparent" points="414,-889.7 414,-908.7 451,-908.7 451,-889.7 414,-889.7"/>
<polygon fill="none" stroke="#000000" points="414,-889.7 414,-908.7 451,-908.7 451,-889.7 414,-889.7"/>
<text text-anchor="start" x="441.8862" y="-895.8" font-family="Helvetica,sans-Serif" font-size="11.00" fill="#000000"> &#160;</text>
</a>
</g>
</g>
<!-- interview_audit&#45;&gt;audit_revision -->
<g id="edge6" class="edge">
<title>interview_audit:w&#45;&gt;audit_revision:e</title>
<path fill="none" stroke="#000000" d="M293.3637,-916.881C243.761,-911.1025 231.0503,-876.7 174,-876.7"/>
<polygon fill="#000000" stroke="#000000" points="300.0125,-917.253 307.7988,-921.2944 304.0062,-917.4765 308,-917.7 308,-917.7 308,-917.7 304.0062,-917.4765 308.2012,-914.1056 300.0125,-917.253 300.0125,-917.253"/>
<ellipse fill="none" stroke="#000000" cx="296.8175" cy="-917.0742" rx="3.2" ry="3.2"/>
</g>
<!-- investigation_audit -->
<g id="node8" class="node">
<title>investigation_audit</title>
<g id="a_node8"><a xlink:href="../../tables/investigation_audit.html" xlink:title="investigation_audit" target="_top">
<polygon fill="#ffffff" stroke="transparent" points="294.5,-808.2 294.5,-869.2 463.5,-869.2 463.5,-808.2 294.5,-808.2"/>
<polygon fill="#f5f5f5" stroke="transparent" points="295,-845.7 295,-868.7 464,-868.7 464,-845.7 295,-845.7"/>
<polygon fill="none" stroke="#000000" points="295,-845.7 295,-868.7 464,-868.7 464,-845.7 295,-845.7"/>
<text text-anchor="start" x="300" y="-854.3" font-family="Helvetica,sans-Serif" font-weight="bold" font-size="11.00" fill="#000000">investigation_audit</text>
<text text-anchor="start" x="429.5219" y="-853.8" font-family="Helvetica,sans-Serif" font-size="11.00" fill="#000000">[table]</text>
<polygon fill="none" stroke="#000000" points="295,-826.7 295,-845.7 464,-845.7 464,-826.7 295,-826.7"/>
<text text-anchor="start" x="298" y="-832.8" font-family="Helvetica,sans-Serif" font-size="11.00" fill="#000000">...</text>
<polygon fill="#ffffff" stroke="transparent" points="295,-807.7 295,-826.7 378,-826.7 378,-807.7 295,-807.7"/>
<polygon fill="none" stroke="#000000" points="295,-807.7 295,-826.7 378,-826.7 378,-807.7 295,-807.7"/>
<text text-anchor="start" x="298" y="-813.8" font-family="Helvetica,sans-Serif" font-size="11.00" fill="#000000">&lt; 1</text>
<polygon fill="#ffffff" stroke="transparent" points="378,-807.7 378,-826.7 421,-826.7 421,-807.7 378,-807.7"/>
<polygon fill="none" stroke="#000000" points="378,-807.7 378,-826.7 421,-826.7 421,-807.7 378,-807.7"/>
<text text-anchor="start" x="411.8862" y="-813.8" font-family="Helvetica,sans-Serif" font-size="11.00" fill="#000000"> &#160;</text>
<polygon fill="#ffffff" stroke="transparent" points="421,-807.7 421,-826.7 464,-826.7 464,-807.7 421,-807.7"/>
<polygon fill="none" stroke="#000000" points="421,-807.7 421,-826.7 464,-826.7 464,-807.7 421,-807.7"/>
<text text-anchor="start" x="454.8862" y="-813.8" font-family="Helvetica,sans-Serif" font-size="11.00" fill="#000000"> &#160;</text>
</a>
</g>
</g>
<!-- investigation_audit&#45;&gt;audit_revision -->
<g id="edge7" class="edge">
<title>investigation_audit:w&#45;&gt;audit_revision:e</title>
<path fill="none" stroke="#000000" d="M280.5341,-836.673C236.4375,-842.8819 225.5688,-876.7 174,-876.7"/>
<polygon fill="#000000" stroke="#000000" points="287.018,-836.237 295.2416,-839.2919 291.009,-835.9685 295,-835.7 295,-835.7 295,-835.7 291.009,-835.9685 294.7584,-832.1081 287.018,-836.237 287.018,-836.237"/>
<ellipse fill="none" stroke="#000000" cx="283.8253" cy="-836.4517" rx="3.2" ry="3.2"/>
</g>
<!-- person_summary_audit -->
<g id="node9" class="node">
<title>person_summary_audit</title>
<g id="a_node9"><a xlink:href="../../tables/person_summary_audit.html" xlink:title="person_summary_audit" target="_top">
<polygon fill="#ffffff" stroke="transparent" points="223,-366.7 223,-786.7 535,-786.7 535,-366.7 223,-366.7"/>
<polygon fill="#f5f5f5" stroke="transparent" points="225,-761.7 225,-784.7 533,-784.7 533,-761.7 225,-761.7"/>
<polygon fill="none" stroke="#000000" points="225,-761.7 225,-784.7 533,-784.7 533,-761.7 225,-761.7"/>
<text text-anchor="start" x="230" y="-770.3" font-family="Helvetica,sans-Serif" font-weight="bold" font-size="11.00" fill="#000000">person_summary_audit</text>
<text text-anchor="start" x="498.0437" y="-769.8" font-family="Helvetica,sans-Serif" font-size="11.00" fill="#000000">[table]</text>
<polygon fill="none" stroke="#000000" points="225,-739.7 225,-761.7 472,-761.7 472,-739.7 225,-739.7"/>
<image xlink:href="../../images/primaryKeys.png" width="11px" height="12px" preserveAspectRatio="xMinYMin meet" x="230" y="-756.7"/>
<text text-anchor="start" x="245" y="-746.8" font-family="Helvetica,sans-Serif" font-size="11.00" fill="#000000">rev_id</text>
<polygon fill="none" stroke="#000000" points="472,-739.7 472,-761.7 533,-761.7 533,-739.7 472,-739.7"/>
<text text-anchor="start" x="475" y="-747.4" font-family="Helvetica,sans-Serif" font-size="11.00" fill="#000000">int8[19]</text>
<polygon fill="none" stroke="#000000" points="225,-717.7 225,-739.7 472,-739.7 472,-717.7 225,-717.7"/>
<text text-anchor="start" x="245" y="-724.8" font-family="Helvetica,sans-Serif" font-size="11.00" fill="#000000">rev_type</text>
<polygon fill="none" stroke="#000000" points="472,-717.7 472,-739.7 533,-739.7 533,-717.7 472,-717.7"/>
<text text-anchor="start" x="475" y="-725.4" font-family="Helvetica,sans-Serif" font-size="11.00" fill="#000000">int2[5]</text>
<polygon fill="none" stroke="#000000" points="225,-695.7 225,-717.7 472,-717.7 472,-695.7 225,-695.7"/>
<image xlink:href="../../images/primaryKeys.png" width="11px" height="12px" preserveAspectRatio="xMinYMin meet" x="230" y="-712.7"/>
<text text-anchor="start" x="245" y="-702.8" font-family="Helvetica,sans-Serif" font-size="11.00" fill="#000000">prison_number</text>
<polygon fill="none" stroke="#000000" points="472,-695.7 472,-717.7 533,-717.7 533,-695.7 472,-695.7"/>
<text text-anchor="start" x="474.994" y="-703.4" font-family="Helvetica,sans-Serif" font-size="11.00" fill="#000000">varchar[10]</text>
<polygon fill="none" stroke="#000000" points="225,-673.7 225,-695.7 472,-695.7 472,-673.7 225,-673.7"/>
<text text-anchor="start" x="245" y="-680.8" font-family="Helvetica,sans-Serif" font-size="11.00" fill="#000000">first_name</text>
<polygon fill="none" stroke="#000000" points="472,-673.7 472,-695.7 533,-695.7 533,-673.7 472,-673.7"/>
<text text-anchor="start" x="474.994" y="-681.4" font-family="Helvetica,sans-Serif" font-size="11.00" fill="#000000">varchar[64]</text>
<polygon fill="none" stroke="#000000" points="225,-651.7 225,-673.7 472,-673.7 472,-651.7 225,-651.7"/>
<text text-anchor="start" x="245" y="-658.8" font-family="Helvetica,sans-Serif" font-size="11.00" fill="#000000">last_name</text>
<polygon fill="none" stroke="#000000" points="472,-651.7 472,-673.7 533,-673.7 533,-651.7 472,-651.7"/>
<text text-anchor="start" x="474.994" y="-659.4" font-family="Helvetica,sans-Serif" font-size="11.00" fill="#000000">varchar[64]</text>
<polygon fill="none" stroke="#000000" points="225,-629.7 225,-651.7 472,-651.7 472,-629.7 225,-629.7"/>
<text text-anchor="start" x="245" y="-636.8" font-family="Helvetica,sans-Serif" font-size="11.00" fill="#000000">status</text>
<polygon fill="none" stroke="#000000" points="472,-629.7 472,-651.7 533,-651.7 533,-629.7 472,-629.7"/>
<text text-anchor="start" x="474.994" y="-637.4" font-family="Helvetica,sans-Serif" font-size="11.00" fill="#000000">varchar[16]</text>
<polygon fill="none" stroke="#000000" points="225,-607.7 225,-629.7 472,-629.7 472,-607.7 225,-607.7"/>
<text text-anchor="start" x="245" y="-614.8" font-family="Helvetica,sans-Serif" font-size="11.00" fill="#000000">prison_code</text>
<polygon fill="none" stroke="#000000" points="472,-607.7 472,-629.7 533,-629.7 533,-607.7 472,-607.7"/>
<text text-anchor="start" x="474.994" y="-615.4" font-family="Helvetica,sans-Serif" font-size="11.00" fill="#000000">varchar[16]</text>
<polygon fill="none" stroke="#000000" points="225,-585.7 225,-607.7 472,-607.7 472,-585.7 225,-585.7"/>
<text text-anchor="start" x="245" y="-592.8" font-family="Helvetica,sans-Serif" font-size="11.00" fill="#000000">cell_location</text>
<polygon fill="none" stroke="#000000" points="472,-585.7 472,-607.7 533,-607.7 533,-585.7 472,-585.7"/>
<text text-anchor="start" x="474.994" y="-593.4" font-family="Helvetica,sans-Serif" font-size="11.00" fill="#000000">varchar[64]</text>
<polygon fill="none" stroke="#000000" points="225,-563.7 225,-585.7 472,-585.7 472,-563.7 225,-563.7"/>
<text text-anchor="start" x="245" y="-570.8" font-family="Helvetica,sans-Serif" font-size="11.00" fill="#000000">first_name_modified</text>
<polygon fill="none" stroke="#000000" points="472,-563.7 472,-585.7 533,-585.7 533,-563.7 472,-563.7"/>
<text text-anchor="start" x="475" y="-571.4" font-family="Helvetica,sans-Serif" font-size="11.00" fill="#000000">bool[1]</text>
<polygon fill="none" stroke="#000000" points="225,-541.7 225,-563.7 472,-563.7 472,-541.7 225,-541.7"/>
<text text-anchor="start" x="245" y="-548.8" font-family="Helvetica,sans-Serif" font-size="11.00" fill="#000000">last_name_modified</text>
<polygon fill="none" stroke="#000000" points="472,-541.7 472,-563.7 533,-563.7 533,-541.7 472,-541.7"/>
<text text-anchor="start" x="475" y="-549.4" font-family="Helvetica,sans-Serif" font-size="11.00" fill="#000000">bool[1]</text>
<polygon fill="none" stroke="#000000" points="225,-519.7 225,-541.7 472,-541.7 472,-519.7 225,-519.7"/>
<text text-anchor="start" x="245" y="-526.8" font-family="Helvetica,sans-Serif" font-size="11.00" fill="#000000">status_modified</text>
<polygon fill="none" stroke="#000000" points="472,-519.7 472,-541.7 533,-541.7 533,-519.7 472,-519.7"/>
<text text-anchor="start" x="475" y="-527.4" font-family="Helvetica,sans-Serif" font-size="11.00" fill="#000000">bool[1]</text>
<polygon fill="none" stroke="#000000" points="225,-497.7 225,-519.7 472,-519.7 472,-497.7 225,-497.7"/>
<text text-anchor="start" x="245" y="-504.8" font-family="Helvetica,sans-Serif" font-size="11.00" fill="#000000">prison_code_modified</text>
<polygon fill="none" stroke="#000000" points="472,-497.7 472,-519.7 533,-519.7 533,-497.7 472,-497.7"/>
<text text-anchor="start" x="475" y="-505.4" font-family="Helvetica,sans-Serif" font-size="11.00" fill="#000000">bool[1]</text>
<polygon fill="none" stroke="#000000" points="225,-475.7 225,-497.7 472,-497.7 472,-475.7 225,-475.7"/>
<text text-anchor="start" x="245" y="-482.8" font-family="Helvetica,sans-Serif" font-size="11.00" fill="#000000">cell_location_modified</text>
<polygon fill="none" stroke="#000000" points="472,-475.7 472,-497.7 533,-497.7 533,-475.7 472,-475.7"/>
<text text-anchor="start" x="475" y="-483.4" font-family="Helvetica,sans-Serif" font-size="11.00" fill="#000000">bool[1]</text>
<polygon fill="none" stroke="#000000" points="225,-453.7 225,-475.7 472,-475.7 472,-453.7 225,-453.7"/>
<text text-anchor="start" x="245" y="-460.8" font-family="Helvetica,sans-Serif" font-size="11.00" fill="#000000">restricted_patient</text>
<polygon fill="none" stroke="#000000" points="472,-453.7 472,-475.7 533,-475.7 533,-453.7 472,-453.7"/>
<text text-anchor="start" x="475" y="-461.4" font-family="Helvetica,sans-Serif" font-size="11.00" fill="#000000">bool[1]</text>
<polygon fill="none" stroke="#000000" points="225,-431.7 225,-453.7 472,-453.7 472,-431.7 225,-431.7"/>
<text text-anchor="start" x="245" y="-438.8" font-family="Helvetica,sans-Serif" font-size="11.00" fill="#000000">supporting_prison_code</text>
<polygon fill="none" stroke="#000000" points="472,-431.7 472,-453.7 533,-453.7 533,-431.7 472,-431.7"/>
<text text-anchor="start" x="474.994" y="-439.4" font-family="Helvetica,sans-Serif" font-size="11.00" fill="#000000">varchar[16]</text>
<polygon fill="none" stroke="#000000" points="225,-409.7 225,-431.7 472,-431.7 472,-409.7 225,-409.7"/>
<text text-anchor="start" x="245" y="-416.8" font-family="Helvetica,sans-Serif" font-size="11.00" fill="#000000">restricted_patient_modified</text>
<polygon fill="none" stroke="#000000" points="472,-409.7 472,-431.7 533,-431.7 533,-409.7 472,-409.7"/>
<text text-anchor="start" x="475" y="-417.4" font-family="Helvetica,sans-Serif" font-size="11.00" fill="#000000">bool[1]</text>
<polygon fill="none" stroke="#000000" points="225,-387.7 225,-409.7 472,-409.7 472,-387.7 225,-387.7"/>
<text text-anchor="start" x="245" y="-394.8" font-family="Helvetica,sans-Serif" font-size="11.00" fill="#000000">supporting_prison_code_modified</text>
<polygon fill="none" stroke="#000000" points="472,-387.7 472,-409.7 533,-409.7 533,-387.7 472,-387.7"/>
<text text-anchor="start" x="474.994" y="-395.4" font-family="Helvetica,sans-Serif" font-size="11.00" fill="#000000">varchar[16]</text>
<polygon fill="#ffffff" stroke="transparent" points="225,-368.7 225,-387.7 353,-387.7 353,-368.7 225,-368.7"/>
<polygon fill="none" stroke="#000000" points="225,-368.7 225,-387.7 353,-387.7 353,-368.7 225,-368.7"/>
<text text-anchor="start" x="228" y="-374.8" font-family="Helvetica,sans-Serif" font-size="11.00" fill="#000000">&lt; 1</text>
<polygon fill="#ffffff" stroke="transparent" points="353,-368.7 353,-387.7 472,-387.7 472,-368.7 353,-368.7"/>
<polygon fill="none" stroke="#000000" points="353,-368.7 353,-387.7 472,-387.7 472,-368.7 353,-368.7"/>
<text text-anchor="start" x="462.8862" y="-374.8" font-family="Helvetica,sans-Serif" font-size="11.00" fill="#000000"> &#160;</text>
<polygon fill="#ffffff" stroke="transparent" points="472,-368.7 472,-387.7 533,-387.7 533,-368.7 472,-368.7"/>
<polygon fill="none" stroke="#000000" points="472,-368.7 472,-387.7 533,-387.7 533,-368.7 472,-368.7"/>
<text text-anchor="start" x="514.4053" y="-374.8" font-family="Helvetica,sans-Serif" font-size="11.00" fill="#000000">0 &gt;</text>
<polygon fill="none" stroke="#000000" stroke-width="2" points="224,-367.7 224,-785.7 534,-785.7 534,-367.7 224,-367.7"/>
</a>
</g>
</g>
<!-- person_summary_audit&#45;&gt;audit_revision -->
<g id="edge8" class="edge">
<title>person_summary_audit:w&#45;&gt;audit_revision:e</title>
<path fill="none" stroke="#000000" d="M210.7844,-754.0702C176.9826,-774.1077 228.5136,-876.7 174,-876.7"/>
<polygon fill="#000000" stroke="#000000" points="217.2158,-752.5455 225.8305,-754.2029 221.1079,-751.6228 225,-750.7 225,-750.7 225,-750.7 221.1079,-751.6228 224.1695,-747.1971 217.2158,-752.5455 217.2158,-752.5455"/>
<ellipse fill="none" stroke="#000000" cx="214.1021" cy="-753.2837" rx="3.2" ry="3.2"/>
</g>
<!-- plan_audit -->
<g id="node10" class="node">
<title>plan_audit</title>
<g id="a_node10"><a xlink:href="../../tables/plan_audit.html" xlink:title="plan_audit" target="_top">
<polygon fill="#ffffff" stroke="transparent" points="324.5,-284.2 324.5,-345.2 433.5,-345.2 433.5,-284.2 324.5,-284.2"/>
<polygon fill="#f5f5f5" stroke="transparent" points="325,-321.7 325,-344.7 434,-344.7 434,-321.7 325,-321.7"/>
<polygon fill="none" stroke="#000000" points="325,-321.7 325,-344.7 434,-344.7 434,-321.7 325,-321.7"/>
<text text-anchor="start" x="330" y="-330.3" font-family="Helvetica,sans-Serif" font-weight="bold" font-size="11.00" fill="#000000">plan_audit</text>
<text text-anchor="start" x="399.5219" y="-329.8" font-family="Helvetica,sans-Serif" font-size="11.00" fill="#000000">[table]</text>
<polygon fill="none" stroke="#000000" points="325,-302.7 325,-321.7 434,-321.7 434,-302.7 325,-302.7"/>
<text text-anchor="start" x="328" y="-308.8" font-family="Helvetica,sans-Serif" font-size="11.00" fill="#000000">...</text>
<polygon fill="#ffffff" stroke="transparent" points="325,-283.7 325,-302.7 378,-302.7 378,-283.7 325,-283.7"/>
<polygon fill="none" stroke="#000000" points="325,-283.7 325,-302.7 378,-302.7 378,-283.7 325,-283.7"/>
<text text-anchor="start" x="328" y="-289.8" font-family="Helvetica,sans-Serif" font-size="11.00" fill="#000000">&lt; 1</text>
<polygon fill="#ffffff" stroke="transparent" points="378,-283.7 378,-302.7 406,-302.7 406,-283.7 378,-283.7"/>
<polygon fill="none" stroke="#000000" points="378,-283.7 378,-302.7 406,-302.7 406,-283.7 378,-283.7"/>
<text text-anchor="start" x="396.8862" y="-289.8" font-family="Helvetica,sans-Serif" font-size="11.00" fill="#000000"> &#160;</text>
<polygon fill="#ffffff" stroke="transparent" points="406,-283.7 406,-302.7 434,-302.7 434,-283.7 406,-283.7"/>
<polygon fill="none" stroke="#000000" points="406,-283.7 406,-302.7 434,-302.7 434,-283.7 406,-283.7"/>
<text text-anchor="start" x="424.8862" y="-289.8" font-family="Helvetica,sans-Serif" font-size="11.00" fill="#000000"> &#160;</text>
</a>
</g>
</g>
<!-- plan_audit&#45;&gt;audit_revision -->
<g id="edge9" class="edge">
<title>plan_audit:w&#45;&gt;audit_revision:e</title>
<path fill="none" stroke="#000000" d="M310.5425,-311.7975C267.1485,-312.5166 243.1637,-318.1198 215,-356.7 180.8277,-403.5111 231.9571,-876.7 174,-876.7"/>
<polygon fill="#000000" stroke="#000000" points="317.0002,-311.754 325.0243,-315.2999 321.0001,-311.727 325,-311.7 325,-311.7 325,-311.7 321.0001,-311.727 324.9757,-308.1001 317.0002,-311.754 317.0002,-311.754"/>
<ellipse fill="none" stroke="#000000" cx="313.8003" cy="-311.7756" rx="3.2" ry="3.2"/>
</g>
<!-- referral_audit -->
<g id="node11" class="node">
<title>referral_audit</title>
<g id="a_node11"><a xlink:href="../../tables/referral_audit.html" xlink:title="referral_audit" target="_top">
<polygon fill="#ffffff" stroke="transparent" points="313.5,-202.2 313.5,-263.2 444.5,-263.2 444.5,-202.2 313.5,-202.2"/>
<polygon fill="#f5f5f5" stroke="transparent" points="314,-239.7 314,-262.7 445,-262.7 445,-239.7 314,-239.7"/>
<polygon fill="none" stroke="#000000" points="314,-239.7 314,-262.7 445,-262.7 445,-239.7 314,-239.7"/>
<text text-anchor="start" x="319" y="-248.3" font-family="Helvetica,sans-Serif" font-weight="bold" font-size="11.00" fill="#000000">referral_audit</text>
<text text-anchor="start" x="410.5219" y="-247.8" font-family="Helvetica,sans-Serif" font-size="11.00" fill="#000000">[table]</text>
<polygon fill="none" stroke="#000000" points="314,-220.7 314,-239.7 445,-239.7 445,-220.7 314,-220.7"/>
<text text-anchor="start" x="317" y="-226.8" font-family="Helvetica,sans-Serif" font-size="11.00" fill="#000000">...</text>
<polygon fill="#ffffff" stroke="transparent" points="314,-201.7 314,-220.7 378,-220.7 378,-201.7 314,-201.7"/>
<polygon fill="none" stroke="#000000" points="314,-201.7 314,-220.7 378,-220.7 378,-201.7 314,-201.7"/>
<text text-anchor="start" x="317" y="-207.8" font-family="Helvetica,sans-Serif" font-size="11.00" fill="#000000">&lt; 1</text>
<polygon fill="#ffffff" stroke="transparent" points="378,-201.7 378,-220.7 411,-220.7 411,-201.7 378,-201.7"/>
<polygon fill="none" stroke="#000000" points="378,-201.7 378,-220.7 411,-220.7 411,-201.7 378,-201.7"/>
<text text-anchor="start" x="401.8862" y="-207.8" font-family="Helvetica,sans-Serif" font-size="11.00" fill="#000000"> &#160;</text>
<polygon fill="#ffffff" stroke="transparent" points="411,-201.7 411,-220.7 445,-220.7 445,-201.7 411,-201.7"/>
<polygon fill="none" stroke="#000000" points="411,-201.7 411,-220.7 445,-220.7 445,-201.7 411,-201.7"/>
<text text-anchor="start" x="435.8862" y="-207.8" font-family="Helvetica,sans-Serif" font-size="11.00" fill="#000000"> &#160;</text>
</a>
</g>
</g>
<!-- referral_audit&#45;&gt;audit_revision -->
<g id="edge10" class="edge">
<title>referral_audit:w&#45;&gt;audit_revision:e</title>
<path fill="none" stroke="#000000" d="M299.5614,-229.8872C260.896,-231.0462 239.6825,-238.4021 215,-273.7 176.5166,-328.7343 241.1547,-876.7 174,-876.7"/>
<polygon fill="#000000" stroke="#000000" points="306.0007,-229.8037 314.0467,-233.2997 310.0003,-229.7519 314,-229.7 314,-229.7 314,-229.7 310.0003,-229.7519 313.9533,-226.1003 306.0007,-229.8037 306.0007,-229.8037"/>
<ellipse fill="none" stroke="#000000" cx="302.8009" cy="-229.8452" rx="3.2" ry="3.2"/>
</g>
<!-- review_audit -->
<g id="node12" class="node">
<title>review_audit</title>
<g id="a_node12"><a xlink:href="../../tables/review_audit.html" xlink:title="review_audit" target="_top">
<polygon fill="#ffffff" stroke="transparent" points="316.5,-120.2 316.5,-181.2 441.5,-181.2 441.5,-120.2 316.5,-120.2"/>
<polygon fill="#f5f5f5" stroke="transparent" points="317,-157.7 317,-180.7 442,-180.7 442,-157.7 317,-157.7"/>
<polygon fill="none" stroke="#000000" points="317,-157.7 317,-180.7 442,-180.7 442,-157.7 317,-157.7"/>
<text text-anchor="start" x="322" y="-166.3" font-family="Helvetica,sans-Serif" font-weight="bold" font-size="11.00" fill="#000000">review_audit</text>
<text text-anchor="start" x="407.5219" y="-165.8" font-family="Helvetica,sans-Serif" font-size="11.00" fill="#000000">[table]</text>
<polygon fill="none" stroke="#000000" points="317,-138.7 317,-157.7 442,-157.7 442,-138.7 317,-138.7"/>
<text text-anchor="start" x="320" y="-144.8" font-family="Helvetica,sans-Serif" font-size="11.00" fill="#000000">...</text>
<polygon fill="#ffffff" stroke="transparent" points="317,-119.7 317,-138.7 378,-138.7 378,-119.7 317,-119.7"/>
<polygon fill="none" stroke="#000000" points="317,-119.7 317,-138.7 378,-138.7 378,-119.7 317,-119.7"/>
<text text-anchor="start" x="320" y="-125.8" font-family="Helvetica,sans-Serif" font-size="11.00" fill="#000000">&lt; 1</text>
<polygon fill="#ffffff" stroke="transparent" points="378,-119.7 378,-138.7 410,-138.7 410,-119.7 378,-119.7"/>
<polygon fill="none" stroke="#000000" points="378,-119.7 378,-138.7 410,-138.7 410,-119.7 378,-119.7"/>
<text text-anchor="start" x="400.8862" y="-125.8" font-family="Helvetica,sans-Serif" font-size="11.00" fill="#000000"> &#160;</text>
<polygon fill="#ffffff" stroke="transparent" points="410,-119.7 410,-138.7 442,-138.7 442,-119.7 410,-119.7"/>
<polygon fill="none" stroke="#000000" points="410,-119.7 410,-138.7 442,-138.7 442,-119.7 410,-119.7"/>
<text text-anchor="start" x="432.8862" y="-125.8" font-family="Helvetica,sans-Serif" font-size="11.00" fill="#000000"> &#160;</text>
</a>
</g>
</g>
<!-- review_audit&#45;&gt;audit_revision -->
<g id="edge11" class="edge">
<title>review_audit:w&#45;&gt;audit_revision:e</title>
<path fill="none" stroke="#000000" d="M302.4422,-147.852C262.5587,-148.8359 240.4157,-155.464 215,-191.7 171.2166,-254.1233 250.2473,-876.7 174,-876.7"/>
<polygon fill="#000000" stroke="#000000" points="309.0004,-147.7836 317.0376,-151.2998 313.0002,-147.7418 317,-147.7 317,-147.7 317,-147.7 313.0002,-147.7418 316.9624,-144.1002 309.0004,-147.7836 309.0004,-147.7836"/>
<ellipse fill="none" stroke="#000000" cx="305.8006" cy="-147.817" rx="3.2" ry="3.2"/>
</g>
<!-- safer_custody_screening_outcome_audit -->
<g id="node13" class="node">
<title>safer_custody_screening_outcome_audit</title>
<g id="a_node13"><a xlink:href="../../tables/safer_custody_screening_outcome_audit.html" xlink:title="safer_custody_screening_outcome_audit" target="_top">
<polygon fill="#ffffff" stroke="transparent" points="224,-38.2 224,-99.2 534,-99.2 534,-38.2 224,-38.2"/>
<polygon fill="#f5f5f5" stroke="transparent" points="224,-75.7 224,-98.7 534,-98.7 534,-75.7 224,-75.7"/>
<polygon fill="none" stroke="#000000" points="224,-75.7 224,-98.7 534,-98.7 534,-75.7 224,-75.7"/>
<text text-anchor="start" x="229" y="-84.3" font-family="Helvetica,sans-Serif" font-weight="bold" font-size="11.00" fill="#000000">safer_custody_screening_outcome_audit</text>
<text text-anchor="start" x="499.5219" y="-83.8" font-family="Helvetica,sans-Serif" font-size="11.00" fill="#000000">[table]</text>
<polygon fill="none" stroke="#000000" points="224,-56.7 224,-75.7 534,-75.7 534,-56.7 224,-56.7"/>
<text text-anchor="start" x="227" y="-62.8" font-family="Helvetica,sans-Serif" font-size="11.00" fill="#000000">...</text>
<polygon fill="#ffffff" stroke="transparent" points="224,-37.7 224,-56.7 377,-56.7 377,-37.7 224,-37.7"/>
<polygon fill="none" stroke="#000000" points="224,-37.7 224,-56.7 377,-56.7 377,-37.7 224,-37.7"/>
<text text-anchor="start" x="227" y="-43.8" font-family="Helvetica,sans-Serif" font-size="11.00" fill="#000000">&lt; 1</text>
<polygon fill="#ffffff" stroke="transparent" points="377,-37.7 377,-56.7 455,-56.7 455,-37.7 377,-37.7"/>
<polygon fill="none" stroke="#000000" points="377,-37.7 377,-56.7 455,-56.7 455,-37.7 377,-37.7"/>
<text text-anchor="start" x="445.8862" y="-43.8" font-family="Helvetica,sans-Serif" font-size="11.00" fill="#000000"> &#160;</text>
<polygon fill="#ffffff" stroke="transparent" points="455,-37.7 455,-56.7 534,-56.7 534,-37.7 455,-37.7"/>
<polygon fill="none" stroke="#000000" points="455,-37.7 455,-56.7 534,-56.7 534,-37.7 455,-37.7"/>
<text text-anchor="start" x="524.8862" y="-43.8" font-family="Helvetica,sans-Serif" font-size="11.00" fill="#000000"> &#160;</text>
</a>
</g>
</g>
<!-- safer_custody_screening_outcome_audit&#45;&gt;audit_revision -->
<g id="edge12" class="edge">
<title>safer_custody_screening_outcome_audit:w&#45;&gt;audit_revision:e</title>
<path fill="none" stroke="#000000" d="M211.0973,-72.7111C147.3378,-151.9776 259.3449,-876.7 174,-876.7"/>
<polygon fill="#000000" stroke="#000000" points="216.9707,-69.5196 225.7188,-68.8632 220.4854,-67.6098 224,-65.7 224,-65.7 224,-65.7 220.4854,-67.6098 222.2812,-62.5368 216.9707,-69.5196 216.9707,-69.5196"/>
<ellipse fill="none" stroke="#000000" cx="214.159" cy="-71.0475" rx="3.2" ry="3.2"/>
</g>
</g>
</svg>
