<?xml version="1.0" encoding="UTF-8" standalone="no"?>
<!DOCTYPE svg PUBLIC "-//W3C//DTD SVG 1.1//EN"
 "http://www.w3.org/Graphics/SVG/1.1/DTD/svg11.dtd">
<!-- Generated by graphviz version 2.40.1 (20161225.0304)
 -->
<!-- Title: oneDegreeRelationshipsDiagram Pages: 1 -->
<svg width="804pt" height="347pt"
 viewBox="0.00 0.00 804.00 347.20" xmlns="http://www.w3.org/2000/svg" xmlns:xlink="http://www.w3.org/1999/xlink">
<g id="graph0" class="graph" transform="scale(1 1) rotate(0) translate(4 343.2)">
<title>oneDegreeRelationshipsDiagram</title>
<polygon fill="#ffffff" stroke="transparent" points="-4,4 -4,-343.2 800,-343.2 800,4 -4,4"/>
<text text-anchor="middle" x="72.4936" y="-7.3" font-family="Helvetica,sans-Serif" font-size="11.00" fill="#000000">Generated by SchemaSpy</text>
<!-- identified_need -->
<g id="node1" class="node">
<title>identified_need</title>
<g id="a_node1"><a xlink:href="../../tables/identified_need.html" xlink:title="identified_need" target="_top">
<polygon fill="#ffffff" stroke="transparent" points="611.5,-208.2 611.5,-335.2 763.5,-335.2 763.5,-208.2 611.5,-208.2"/>
<polygon fill="#f5f5f5" stroke="transparent" points="611.5,-311.7 611.5,-334.7 763.5,-334.7 763.5,-311.7 611.5,-311.7"/>
<polygon fill="none" stroke="#000000" points="611.5,-311.7 611.5,-334.7 763.5,-334.7 763.5,-311.7 611.5,-311.7"/>
<text text-anchor="start" x="616.5" y="-320.3" font-family="Helvetica,sans-Serif" font-weight="bold" font-size="11.00" fill="#000000">identified_need</text>
<text text-anchor="start" x="728.5437" y="-319.8" font-family="Helvetica,sans-Serif" font-size="11.00" fill="#000000">[table]</text>
<polygon fill="none" stroke="#000000" points="611.5,-289.7 611.5,-311.7 763.5,-311.7 763.5,-289.7 611.5,-289.7"/>
<image xlink:href="../../images/primaryKeys.png" width="11px" height="12px" preserveAspectRatio="xMinYMin meet" x="616.5" y="-306.7"/>
<text text-anchor="start" x="631.5" y="-296.8" font-family="Helvetica,sans-Serif" font-size="11.00" fill="#000000">identified_need_id</text>
<polygon fill="#ffffff" stroke="transparent" points="611.5,-267.7 611.5,-289.7 763.5,-289.7 763.5,-267.7 611.5,-267.7"/>
<polygon fill="none" stroke="#000000" points="611.5,-267.7 611.5,-289.7 763.5,-289.7 763.5,-267.7 611.5,-267.7"/>
<image xlink:href="../../images/foreignKeys.png" width="11px" height="12px" preserveAspectRatio="xMinYMin meet" x="616.5" y="-284.7"/>
<text text-anchor="start" x="631.5" y="-274.8" font-family="Helvetica,sans-Serif" font-size="11.00" fill="#000000">plan_id</text>
<polygon fill="#ffffff" stroke="transparent" points="611.5,-245.7 611.5,-267.7 763.5,-267.7 763.5,-245.7 611.5,-245.7"/>
<polygon fill="none" stroke="#000000" points="611.5,-245.7 611.5,-267.7 763.5,-267.7 763.5,-245.7 611.5,-245.7"/>
<image xlink:href="../../images/foreignKeys.png" width="11px" height="12px" preserveAspectRatio="xMinYMin meet" x="616.5" y="-262.7"/>
<text text-anchor="start" x="631.5" y="-252.8" font-family="Helvetica,sans-Serif" font-size="11.00" fill="#000000">legacy_id</text>
<polygon fill="none" stroke="#000000" points="611.5,-226.7 611.5,-245.7 763.5,-245.7 763.5,-226.7 611.5,-226.7"/>
<text text-anchor="start" x="614.5" y="-232.8" font-family="Helvetica,sans-Serif" font-size="11.00" fill="#000000">...</text>
<polygon fill="#ffffff" stroke="transparent" points="611.5,-207.7 611.5,-226.7 685.5,-226.7 685.5,-207.7 611.5,-207.7"/>
<polygon fill="none" stroke="#000000" points="611.5,-207.7 611.5,-226.7 685.5,-226.7 685.5,-207.7 611.5,-207.7"/>
<text text-anchor="start" x="614.5" y="-213.8" font-family="Helvetica,sans-Serif" font-size="11.00" fill="#000000">&lt; 1</text>
<polygon fill="#ffffff" stroke="transparent" points="685.5,-207.7 685.5,-226.7 724.5,-226.7 724.5,-207.7 685.5,-207.7"/>
<polygon fill="none" stroke="#000000" points="685.5,-207.7 685.5,-226.7 724.5,-226.7 724.5,-207.7 685.5,-207.7"/>
<text text-anchor="start" x="715.3862" y="-213.8" font-family="Helvetica,sans-Serif" font-size="11.00" fill="#000000"> &#160;</text>
<polygon fill="#ffffff" stroke="transparent" points="724.5,-207.7 724.5,-226.7 763.5,-226.7 763.5,-207.7 724.5,-207.7"/>
<polygon fill="none" stroke="#000000" points="724.5,-207.7 724.5,-226.7 763.5,-226.7 763.5,-207.7 724.5,-207.7"/>
<text text-anchor="start" x="754.3862" y="-213.8" font-family="Helvetica,sans-Serif" font-size="11.00" fill="#000000"> &#160;</text>
</a>
</g>
</g>
<!-- plan -->
<g id="node2" class="node">
<title>plan</title>
<g id="a_node2"><a xlink:href="../../tables/plan.html" xlink:title="plan" target="_top">
<polygon fill="#ffffff" stroke="transparent" points="267,-84.7 267,-240.7 538,-240.7 538,-84.7 267,-84.7"/>
<polygon fill="#f5f5f5" stroke="transparent" points="269.5,-215.7 269.5,-238.7 536.5,-238.7 536.5,-215.7 269.5,-215.7"/>
<polygon fill="none" stroke="#000000" points="269.5,-215.7 269.5,-238.7 536.5,-238.7 536.5,-215.7 269.5,-215.7"/>
<text text-anchor="start" x="274.5" y="-224.3" font-family="Helvetica,sans-Serif" font-weight="bold" font-size="11.00" fill="#000000">plan</text>
<text text-anchor="start" x="501.5437" y="-223.8" font-family="Helvetica,sans-Serif" font-size="11.00" fill="#000000">[table]</text>
<polygon fill="none" stroke="#000000" points="269.5,-193.7 269.5,-215.7 442.5,-215.7 442.5,-193.7 269.5,-193.7"/>
<image xlink:href="../../images/primaryKeys.png" width="11px" height="12px" preserveAspectRatio="xMinYMin meet" x="274.5" y="-210.7"/>
<text text-anchor="start" x="289.5" y="-200.8" font-family="Helvetica,sans-Serif" font-size="11.00" fill="#000000">plan_id</text>
<polygon fill="none" stroke="#000000" points="442.5,-193.7 442.5,-215.7 536.5,-215.7 536.5,-193.7 442.5,-193.7"/>
<text text-anchor="start" x="445.4758" y="-201.4" font-family="Helvetica,sans-Serif" font-size="11.00" fill="#000000">uuid[2147483647]</text>
<polygon fill="none" stroke="#000000" points="269.5,-171.7 269.5,-193.7 442.5,-193.7 442.5,-171.7 269.5,-171.7"/>
<text text-anchor="start" x="289.5" y="-178.8" font-family="Helvetica,sans-Serif" font-size="11.00" fill="#000000">case_manager</text>
<polygon fill="none" stroke="#000000" points="442.5,-171.7 442.5,-193.7 536.5,-193.7 536.5,-171.7 442.5,-171.7"/>
<text text-anchor="start" x="445.5" y="-179.4" font-family="Helvetica,sans-Serif" font-size="11.00" fill="#000000">varchar[100]</text>
<polygon fill="none" stroke="#000000" points="269.5,-149.7 269.5,-171.7 442.5,-171.7 442.5,-149.7 269.5,-149.7"/>
<text text-anchor="start" x="289.5" y="-156.8" font-family="Helvetica,sans-Serif" font-size="11.00" fill="#000000">reason_for_plan</text>
<polygon fill="none" stroke="#000000" points="442.5,-149.7 442.5,-171.7 536.5,-171.7 536.5,-149.7 442.5,-149.7"/>
<text text-anchor="start" x="445.5" y="-157.4" font-family="Helvetica,sans-Serif" font-size="11.00" fill="#000000">varchar[240]</text>
<polygon fill="none" stroke="#000000" points="269.5,-127.7 269.5,-149.7 442.5,-149.7 442.5,-127.7 269.5,-127.7"/>
<text text-anchor="start" x="289.5" y="-134.8" font-family="Helvetica,sans-Serif" font-size="11.00" fill="#000000">first_case_review_date</text>
<polygon fill="none" stroke="#000000" points="442.5,-127.7 442.5,-149.7 536.5,-149.7 536.5,-127.7 442.5,-127.7"/>
<text text-anchor="start" x="445.5" y="-135.4" font-family="Helvetica,sans-Serif" font-size="11.00" fill="#000000">date[13]</text>
<polygon fill="none" stroke="#000000" points="269.5,-105.7 269.5,-127.7 442.5,-127.7 442.5,-105.7 269.5,-105.7"/>
<text text-anchor="start" x="289.5" y="-112.8" font-family="Helvetica,sans-Serif" font-size="11.00" fill="#000000">version</text>
<polygon fill="none" stroke="#000000" points="442.5,-105.7 442.5,-127.7 536.5,-127.7 536.5,-105.7 442.5,-105.7"/>
<text text-anchor="start" x="445.5" y="-113.4" font-family="Helvetica,sans-Serif" font-size="11.00" fill="#000000">int4[10]</text>
<polygon fill="#ffffff" stroke="transparent" points="269.5,-86.7 269.5,-105.7 360.5,-105.7 360.5,-86.7 269.5,-86.7"/>
<polygon fill="none" stroke="#000000" points="269.5,-86.7 269.5,-105.7 360.5,-105.7 360.5,-86.7 269.5,-86.7"/>
<text text-anchor="start" x="272.5" y="-92.8" font-family="Helvetica,sans-Serif" font-size="11.00" fill="#000000">&lt; 1</text>
<polygon fill="#ffffff" stroke="transparent" points="360.5,-86.7 360.5,-105.7 442.5,-105.7 442.5,-86.7 360.5,-86.7"/>
<polygon fill="none" stroke="#000000" points="360.5,-86.7 360.5,-105.7 442.5,-105.7 442.5,-86.7 360.5,-86.7"/>
<text text-anchor="start" x="433.3862" y="-92.8" font-family="Helvetica,sans-Serif" font-size="11.00" fill="#000000"> &#160;</text>
<polygon fill="#ffffff" stroke="transparent" points="442.5,-86.7 442.5,-105.7 536.5,-105.7 536.5,-86.7 442.5,-86.7"/>
<polygon fill="none" stroke="#000000" points="442.5,-86.7 442.5,-105.7 536.5,-105.7 536.5,-86.7 442.5,-86.7"/>
<text text-anchor="start" x="517.9053" y="-92.8" font-family="Helvetica,sans-Serif" font-size="11.00" fill="#000000">2 &gt;</text>
<polygon fill="none" stroke="#000000" stroke-width="2" points="268,-85.7 268,-239.7 537,-239.7 537,-85.7 268,-85.7"/>
</a>
</g>
</g>
<!-- identified_need&#45;&gt;plan -->
<g id="edge1" class="edge">
<title>identified_need:w&#45;&gt;plan:e</title>
<path fill="none" stroke="#000000" d="M597.1366,-275.7075C568.2304,-261.8632 577.6568,-204.7 536.5,-204.7"/>
<polygon fill="#000000" stroke="#000000" points="603.6682,-277.0682 610.7657,-282.2243 607.5841,-277.8841 611.5,-278.7 611.5,-278.7 611.5,-278.7 607.5841,-277.8841 612.2343,-275.1757 603.6682,-277.0682 603.6682,-277.0682"/>
<ellipse fill="none" stroke="#000000" cx="600.5354" cy="-276.4155" rx="3.2" ry="3.2"/>
</g>
<!-- csip_record -->
<g id="node3" class="node">
<title>csip_record</title>
<g id="a_node3"><a xlink:href="../../tables/csip_record.html" xlink:title="csip_record" target="_top">
<polygon fill="#ffffff" stroke="transparent" points="8,-90.2 8,-239.2 218,-239.2 218,-90.2 8,-90.2"/>
<polygon fill="#f5f5f5" stroke="transparent" points="8,-215.7 8,-238.7 218,-238.7 218,-215.7 8,-215.7"/>
<polygon fill="none" stroke="#000000" points="8,-215.7 8,-238.7 218,-238.7 218,-215.7 8,-215.7"/>
<text text-anchor="start" x="13" y="-224.3" font-family="Helvetica,sans-Serif" font-weight="bold" font-size="11.00" fill="#000000">csip_record</text>
<text text-anchor="start" x="183.0437" y="-223.8" font-family="Helvetica,sans-Serif" font-size="11.00" fill="#000000">[table]</text>
<polygon fill="none" stroke="#000000" points="8,-193.7 8,-215.7 218,-215.7 218,-193.7 8,-193.7"/>
<image xlink:href="../../images/primaryKeys.png" width="11px" height="12px" preserveAspectRatio="xMinYMin meet" x="13" y="-210.7"/>
<text text-anchor="start" x="28" y="-200.8" font-family="Helvetica,sans-Serif" font-size="11.00" fill="#000000">record_id</text>
<polygon fill="#ffffff" stroke="transparent" points="8,-171.7 8,-193.7 218,-193.7 218,-171.7 8,-171.7"/>
<polygon fill="none" stroke="#000000" points="8,-171.7 8,-193.7 218,-193.7 218,-171.7 8,-171.7"/>
<image xlink:href="../../images/foreignKeys.png" width="11px" height="12px" preserveAspectRatio="xMinYMin meet" x="13" y="-188.7"/>
<text text-anchor="start" x="28" y="-178.8" font-family="Helvetica,sans-Serif" font-size="11.00" fill="#000000">prison_number</text>
<polygon fill="#ffffff" stroke="transparent" points="8,-149.7 8,-171.7 218,-171.7 218,-149.7 8,-149.7"/>
<polygon fill="none" stroke="#000000" points="8,-149.7 8,-171.7 218,-171.7 218,-149.7 8,-149.7"/>
<image xlink:href="../../images/foreignKeys.png" width="11px" height="12px" preserveAspectRatio="xMinYMin meet" x="13" y="-166.7"/>
<text text-anchor="start" x="28" y="-156.8" font-family="Helvetica,sans-Serif" font-size="11.00" fill="#000000">legacy_id</text>
<polygon fill="#ffffff" stroke="transparent" points="8,-127.7 8,-149.7 218,-149.7 218,-127.7 8,-127.7"/>
<polygon fill="none" stroke="#000000" points="8,-127.7 8,-149.7 218,-149.7 218,-127.7 8,-127.7"/>
<image xlink:href="../../images/foreignKeys.png" width="11px" height="12px" preserveAspectRatio="xMinYMin meet" x="13" y="-144.7"/>
<text text-anchor="start" x="28" y="-134.8" font-family="Helvetica,sans-Serif" font-size="11.00" fill="#000000">status_id</text>
<polygon fill="none" stroke="#000000" points="8,-108.7 8,-127.7 218,-127.7 218,-108.7 8,-108.7"/>
<text text-anchor="start" x="11" y="-114.8" font-family="Helvetica,sans-Serif" font-size="11.00" fill="#000000">...</text>
<polygon fill="#ffffff" stroke="transparent" points="8,-89.7 8,-108.7 107,-108.7 107,-89.7 8,-89.7"/>
<polygon fill="none" stroke="#000000" points="8,-89.7 8,-108.7 107,-108.7 107,-89.7 8,-89.7"/>
<text text-anchor="start" x="11" y="-95.8" font-family="Helvetica,sans-Serif" font-size="11.00" fill="#000000">&lt; 2</text>
<polygon fill="#ffffff" stroke="transparent" points="107,-89.7 107,-108.7 158,-108.7 158,-89.7 107,-89.7"/>
<polygon fill="none" stroke="#000000" points="107,-89.7 107,-108.7 158,-108.7 158,-89.7 107,-89.7"/>
<text text-anchor="start" x="148.8862" y="-95.8" font-family="Helvetica,sans-Serif" font-size="11.00" fill="#000000"> &#160;</text>
<polygon fill="#ffffff" stroke="transparent" points="158,-89.7 158,-108.7 218,-108.7 218,-89.7 158,-89.7"/>
<polygon fill="none" stroke="#000000" points="158,-89.7 158,-108.7 218,-108.7 218,-89.7 158,-89.7"/>
<text text-anchor="start" x="199.4053" y="-95.8" font-family="Helvetica,sans-Serif" font-size="11.00" fill="#000000">2 &gt;</text>
</a>
</g>
</g>
<!-- plan&#45;&gt;csip_record -->
<g id="edge2" class="edge">
<title>plan:w&#45;&gt;csip_record:e</title>
<path fill="none" stroke="#000000" d="M259.045,-204.7C244.137,-204.7 236.9549,-204.7 218,-204.7"/>
<polygon fill="#000000" stroke="#000000" points="268.7,-200.7 268.7,-208.7 267.1,-208.7 267.1,-200.7 268.7,-200.7"/>
<polyline fill="none" stroke="#000000" points="269.5,-204.7 265.5,-204.7 "/>
<ellipse fill="none" stroke="#000000" cx="262.3" cy="-204.7001" rx="3.2" ry="3.2"/>
</g>
<!-- review -->
<g id="node4" class="node">
<title>review</title>
<g id="a_node4"><a xlink:href="../../tables/review.html" xlink:title="review" target="_top">
<polygon fill="#ffffff" stroke="transparent" points="587,-38.2 587,-187.2 788,-187.2 788,-38.2 587,-38.2"/>
<polygon fill="#f5f5f5" stroke="transparent" points="587.5,-163.7 587.5,-186.7 788.5,-186.7 788.5,-163.7 587.5,-163.7"/>
<polygon fill="none" stroke="#000000" points="587.5,-163.7 587.5,-186.7 788.5,-186.7 788.5,-163.7 587.5,-163.7"/>
<text text-anchor="start" x="592.5" y="-172.3" font-family="Helvetica,sans-Serif" font-weight="bold" font-size="11.00" fill="#000000">review</text>
<text text-anchor="start" x="753.5437" y="-171.8" font-family="Helvetica,sans-Serif" font-size="11.00" fill="#000000">[table]</text>
<polygon fill="none" stroke="#000000" points="587.5,-141.7 587.5,-163.7 788.5,-163.7 788.5,-141.7 587.5,-141.7"/>
<image xlink:href="../../images/primaryKeys.png" width="11px" height="12px" preserveAspectRatio="xMinYMin meet" x="592.5" y="-158.7"/>
<text text-anchor="start" x="607.5" y="-148.8" font-family="Helvetica,sans-Serif" font-size="11.00" fill="#000000">review_id</text>
<polygon fill="#ffffff" stroke="transparent" points="587.5,-119.7 587.5,-141.7 788.5,-141.7 788.5,-119.7 587.5,-119.7"/>
<polygon fill="none" stroke="#000000" points="587.5,-119.7 587.5,-141.7 788.5,-141.7 788.5,-119.7 587.5,-119.7"/>
<image xlink:href="../../images/foreignKeys.png" width="11px" height="12px" preserveAspectRatio="xMinYMin meet" x="592.5" y="-136.7"/>
<text text-anchor="start" x="607.5" y="-126.8" font-family="Helvetica,sans-Serif" font-size="11.00" fill="#000000">plan_id</text>
<polygon fill="#ffffff" stroke="transparent" points="587.5,-97.7 587.5,-119.7 788.5,-119.7 788.5,-97.7 587.5,-97.7"/>
<polygon fill="none" stroke="#000000" points="587.5,-97.7 587.5,-119.7 788.5,-119.7 788.5,-97.7 587.5,-97.7"/>
<text text-anchor="start" x="607.5" y="-104.8" font-family="Helvetica,sans-Serif" font-size="11.00" fill="#000000">review_sequence</text>
<polygon fill="#ffffff" stroke="transparent" points="587.5,-75.7 587.5,-97.7 788.5,-97.7 788.5,-75.7 587.5,-75.7"/>
<polygon fill="none" stroke="#000000" points="587.5,-75.7 587.5,-97.7 788.5,-97.7 788.5,-75.7 587.5,-75.7"/>
<image xlink:href="../../images/foreignKeys.png" width="11px" height="12px" preserveAspectRatio="xMinYMin meet" x="592.5" y="-92.7"/>
<text text-anchor="start" x="607.5" y="-82.8" font-family="Helvetica,sans-Serif" font-size="11.00" fill="#000000">legacy_id</text>
<polygon fill="none" stroke="#000000" points="587.5,-56.7 587.5,-75.7 788.5,-75.7 788.5,-56.7 587.5,-56.7"/>
<text text-anchor="start" x="590.5" y="-62.8" font-family="Helvetica,sans-Serif" font-size="11.00" fill="#000000">...</text>
<polygon fill="#ffffff" stroke="transparent" points="587.5,-37.7 587.5,-56.7 681.5,-56.7 681.5,-37.7 587.5,-37.7"/>
<polygon fill="none" stroke="#000000" points="587.5,-37.7 587.5,-56.7 681.5,-56.7 681.5,-37.7 587.5,-37.7"/>
<text text-anchor="start" x="590.5" y="-43.8" font-family="Helvetica,sans-Serif" font-size="11.00" fill="#000000">&lt; 1</text>
<polygon fill="#ffffff" stroke="transparent" points="681.5,-37.7 681.5,-56.7 730.5,-56.7 730.5,-37.7 681.5,-37.7"/>
<polygon fill="none" stroke="#000000" points="681.5,-37.7 681.5,-56.7 730.5,-56.7 730.5,-37.7 681.5,-37.7"/>
<text text-anchor="start" x="721.3862" y="-43.8" font-family="Helvetica,sans-Serif" font-size="11.00" fill="#000000"> &#160;</text>
<polygon fill="#ffffff" stroke="transparent" points="730.5,-37.7 730.5,-56.7 788.5,-56.7 788.5,-37.7 730.5,-37.7"/>
<polygon fill="none" stroke="#000000" points="730.5,-37.7 730.5,-56.7 788.5,-56.7 788.5,-37.7 730.5,-37.7"/>
<text text-anchor="start" x="769.9053" y="-43.8" font-family="Helvetica,sans-Serif" font-size="11.00" fill="#000000">1 &gt;</text>
</a>
</g>
</g>
<!-- review&#45;&gt;plan -->
<g id="edge3" class="edge">
<title>review:w&#45;&gt;plan:e</title>
<path fill="none" stroke="#000000" d="M573.5503,-135.329C554.7607,-151.5294 570.3581,-204.7 536.5,-204.7"/>
<polygon fill="#000000" stroke="#000000" points="579.9071,-133.2196 588.6338,-134.1168 583.7036,-131.9598 587.5,-130.7 587.5,-130.7 587.5,-130.7 583.7036,-131.9598 586.3662,-127.2832 579.9071,-133.2196 579.9071,-133.2196"/>
<ellipse fill="none" stroke="#000000" cx="576.87" cy="-134.2275" rx="3.2" ry="3.2"/>
</g>
</g>
</svg>
