<?xml version="1.0" encoding="UTF-8" standalone="no"?>
<!DOCTYPE svg PUBLIC "-//W3C//DTD SVG 1.1//EN"
 "http://www.w3.org/Graphics/SVG/1.1/DTD/svg11.dtd">
<!-- Generated by graphviz version 2.40.1 (20161225.0304)
 -->
<!-- Title: twoDegreesRelationshipsDiagram Pages: 1 -->
<svg width="1156pt" height="383pt"
 viewBox="0.00 0.00 1156.00 383.20" xmlns="http://www.w3.org/2000/svg" xmlns:xlink="http://www.w3.org/1999/xlink">
<g id="graph0" class="graph" transform="scale(1 1) rotate(0) translate(4 379.2)">
<title>twoDegreesRelationshipsDiagram</title>
<polygon fill="#ffffff" stroke="transparent" points="-4,4 -4,-379.2 1152,-379.2 1152,4 -4,4"/>
<text text-anchor="middle" x="72.4936" y="-7.3" font-family="Helvetica,sans-Serif" font-size="11.00" fill="#000000">Generated by SchemaSpy</text>
<!-- attendee -->
<g id="node1" class="node">
<title>attendee</title>
<g id="a_node1"><a xlink:href="../../tables/attendee.html" xlink:title="attendee" target="_top">
<polygon fill="#ffffff" stroke="transparent" points="1040,-309.2 1040,-370.2 1140,-370.2 1140,-309.2 1040,-309.2"/>
<polygon fill="#f5f5f5" stroke="transparent" points="1040,-346.7 1040,-369.7 1140,-369.7 1140,-346.7 1040,-346.7"/>
<polygon fill="none" stroke="#000000" points="1040,-346.7 1040,-369.7 1140,-369.7 1140,-346.7 1040,-346.7"/>
<text text-anchor="start" x="1045" y="-355.3" font-family="Helvetica,sans-Serif" font-weight="bold" font-size="11.00" fill="#000000">attendee</text>
<text text-anchor="start" x="1105.5219" y="-354.8" font-family="Helvetica,sans-Serif" font-size="11.00" fill="#000000">[table]</text>
<polygon fill="none" stroke="#000000" points="1040,-327.7 1040,-346.7 1140,-346.7 1140,-327.7 1040,-327.7"/>
<text text-anchor="start" x="1043" y="-333.8" font-family="Helvetica,sans-Serif" font-size="11.00" fill="#000000">...</text>
<polygon fill="#ffffff" stroke="transparent" points="1040,-308.7 1040,-327.7 1088,-327.7 1088,-308.7 1040,-308.7"/>
<polygon fill="none" stroke="#000000" points="1040,-308.7 1040,-327.7 1088,-327.7 1088,-308.7 1040,-308.7"/>
<text text-anchor="start" x="1043" y="-314.8" font-family="Helvetica,sans-Serif" font-size="11.00" fill="#000000">&lt; 1</text>
<polygon fill="#ffffff" stroke="transparent" points="1088,-308.7 1088,-327.7 1114,-327.7 1114,-308.7 1088,-308.7"/>
<polygon fill="none" stroke="#000000" points="1088,-308.7 1088,-327.7 1114,-327.7 1114,-308.7 1088,-308.7"/>
<text text-anchor="start" x="1104.8862" y="-314.8" font-family="Helvetica,sans-Serif" font-size="11.00" fill="#000000"> &#160;</text>
<polygon fill="#ffffff" stroke="transparent" points="1114,-308.7 1114,-327.7 1140,-327.7 1140,-308.7 1114,-308.7"/>
<polygon fill="none" stroke="#000000" points="1114,-308.7 1114,-327.7 1140,-327.7 1140,-308.7 1114,-308.7"/>
<text text-anchor="start" x="1130.8862" y="-314.8" font-family="Helvetica,sans-Serif" font-size="11.00" fill="#000000"> &#160;</text>
</a>
</g>
</g>
<!-- review -->
<g id="node2" class="node">
<title>review</title>
<g id="a_node2"><a xlink:href="../../tables/review.html" xlink:title="review" target="_top">
<polygon fill="#ffffff" stroke="transparent" points="790,-244.2 790,-371.2 991,-371.2 991,-244.2 790,-244.2"/>
<polygon fill="#f5f5f5" stroke="transparent" points="790.5,-347.7 790.5,-370.7 991.5,-370.7 991.5,-347.7 790.5,-347.7"/>
<polygon fill="none" stroke="#000000" points="790.5,-347.7 790.5,-370.7 991.5,-370.7 991.5,-347.7 790.5,-347.7"/>
<text text-anchor="start" x="795.5" y="-356.3" font-family="Helvetica,sans-Serif" font-weight="bold" font-size="11.00" fill="#000000">review</text>
<text text-anchor="start" x="956.5437" y="-355.8" font-family="Helvetica,sans-Serif" font-size="11.00" fill="#000000">[table]</text>
<polygon fill="none" stroke="#000000" points="790.5,-325.7 790.5,-347.7 991.5,-347.7 991.5,-325.7 790.5,-325.7"/>
<image xlink:href="../../images/primaryKeys.png" width="11px" height="12px" preserveAspectRatio="xMinYMin meet" x="795.5" y="-342.7"/>
<text text-anchor="start" x="810.5" y="-332.8" font-family="Helvetica,sans-Serif" font-size="11.00" fill="#000000">review_id</text>
<polygon fill="#ffffff" stroke="transparent" points="790.5,-303.7 790.5,-325.7 991.5,-325.7 991.5,-303.7 790.5,-303.7"/>
<polygon fill="none" stroke="#000000" points="790.5,-303.7 790.5,-325.7 991.5,-325.7 991.5,-303.7 790.5,-303.7"/>
<image xlink:href="../../images/foreignKeys.png" width="11px" height="12px" preserveAspectRatio="xMinYMin meet" x="795.5" y="-320.7"/>
<text text-anchor="start" x="810.5" y="-310.8" font-family="Helvetica,sans-Serif" font-size="11.00" fill="#000000">plan_id</text>
<polygon fill="#ffffff" stroke="transparent" points="790.5,-281.7 790.5,-303.7 991.5,-303.7 991.5,-281.7 790.5,-281.7"/>
<polygon fill="none" stroke="#000000" points="790.5,-281.7 790.5,-303.7 991.5,-303.7 991.5,-281.7 790.5,-281.7"/>
<image xlink:href="../../images/foreignKeys.png" width="11px" height="12px" preserveAspectRatio="xMinYMin meet" x="795.5" y="-298.7"/>
<text text-anchor="start" x="810.5" y="-288.8" font-family="Helvetica,sans-Serif" font-size="11.00" fill="#000000">legacy_id</text>
<polygon fill="none" stroke="#000000" points="790.5,-262.7 790.5,-281.7 991.5,-281.7 991.5,-262.7 790.5,-262.7"/>
<text text-anchor="start" x="793.5" y="-268.8" font-family="Helvetica,sans-Serif" font-size="11.00" fill="#000000">...</text>
<polygon fill="#ffffff" stroke="transparent" points="790.5,-243.7 790.5,-262.7 884.5,-262.7 884.5,-243.7 790.5,-243.7"/>
<polygon fill="none" stroke="#000000" points="790.5,-243.7 790.5,-262.7 884.5,-262.7 884.5,-243.7 790.5,-243.7"/>
<text text-anchor="start" x="793.5" y="-249.8" font-family="Helvetica,sans-Serif" font-size="11.00" fill="#000000">&lt; 1</text>
<polygon fill="#ffffff" stroke="transparent" points="884.5,-243.7 884.5,-262.7 933.5,-262.7 933.5,-243.7 884.5,-243.7"/>
<polygon fill="none" stroke="#000000" points="884.5,-243.7 884.5,-262.7 933.5,-262.7 933.5,-243.7 884.5,-243.7"/>
<text text-anchor="start" x="924.3862" y="-249.8" font-family="Helvetica,sans-Serif" font-size="11.00" fill="#000000"> &#160;</text>
<polygon fill="#ffffff" stroke="transparent" points="933.5,-243.7 933.5,-262.7 991.5,-262.7 991.5,-243.7 933.5,-243.7"/>
<polygon fill="none" stroke="#000000" points="933.5,-243.7 933.5,-262.7 991.5,-262.7 991.5,-243.7 933.5,-243.7"/>
<text text-anchor="start" x="972.9053" y="-249.8" font-family="Helvetica,sans-Serif" font-size="11.00" fill="#000000">1 &gt;</text>
</a>
</g>
</g>
<!-- attendee&#45;&gt;review -->
<g id="edge1" class="edge">
<title>attendee:w&#45;&gt;review:e</title>
<path fill="none" stroke="#000000" d="M1025.2829,-336.7C1014.2886,-336.7 1007.1615,-336.7 991.5,-336.7"/>
<polygon fill="#000000" stroke="#000000" points="1032,-336.7001 1040,-340.3 1036,-336.7 1040,-336.7 1040,-336.7 1040,-336.7 1036,-336.7 1040,-333.1 1032,-336.7001 1032,-336.7001"/>
<ellipse fill="none" stroke="#000000" cx="1028.8" cy="-336.7001" rx="3.2" ry="3.2"/>
</g>
<!-- plan -->
<g id="node7" class="node">
<title>plan</title>
<g id="a_node7"><a xlink:href="../../tables/plan.html" xlink:title="plan" target="_top">
<polygon fill="#ffffff" stroke="transparent" points="470,-120.7 470,-276.7 741,-276.7 741,-120.7 470,-120.7"/>
<polygon fill="#f5f5f5" stroke="transparent" points="472.5,-251.7 472.5,-274.7 739.5,-274.7 739.5,-251.7 472.5,-251.7"/>
<polygon fill="none" stroke="#000000" points="472.5,-251.7 472.5,-274.7 739.5,-274.7 739.5,-251.7 472.5,-251.7"/>
<text text-anchor="start" x="477.5" y="-260.3" font-family="Helvetica,sans-Serif" font-weight="bold" font-size="11.00" fill="#000000">plan</text>
<text text-anchor="start" x="704.5437" y="-259.8" font-family="Helvetica,sans-Serif" font-size="11.00" fill="#000000">[table]</text>
<polygon fill="none" stroke="#000000" points="472.5,-229.7 472.5,-251.7 645.5,-251.7 645.5,-229.7 472.5,-229.7"/>
<image xlink:href="../../images/primaryKeys.png" width="11px" height="12px" preserveAspectRatio="xMinYMin meet" x="477.5" y="-246.7"/>
<text text-anchor="start" x="492.5" y="-236.8" font-family="Helvetica,sans-Serif" font-size="11.00" fill="#000000">plan_id</text>
<polygon fill="none" stroke="#000000" points="645.5,-229.7 645.5,-251.7 739.5,-251.7 739.5,-229.7 645.5,-229.7"/>
<text text-anchor="start" x="648.4758" y="-237.4" font-family="Helvetica,sans-Serif" font-size="11.00" fill="#000000">uuid[2147483647]</text>
<polygon fill="none" stroke="#000000" points="472.5,-207.7 472.5,-229.7 645.5,-229.7 645.5,-207.7 472.5,-207.7"/>
<text text-anchor="start" x="492.5" y="-214.8" font-family="Helvetica,sans-Serif" font-size="11.00" fill="#000000">case_manager</text>
<polygon fill="none" stroke="#000000" points="645.5,-207.7 645.5,-229.7 739.5,-229.7 739.5,-207.7 645.5,-207.7"/>
<text text-anchor="start" x="648.5" y="-215.4" font-family="Helvetica,sans-Serif" font-size="11.00" fill="#000000">varchar[100]</text>
<polygon fill="none" stroke="#000000" points="472.5,-185.7 472.5,-207.7 645.5,-207.7 645.5,-185.7 472.5,-185.7"/>
<text text-anchor="start" x="492.5" y="-192.8" font-family="Helvetica,sans-Serif" font-size="11.00" fill="#000000">reason_for_plan</text>
<polygon fill="none" stroke="#000000" points="645.5,-185.7 645.5,-207.7 739.5,-207.7 739.5,-185.7 645.5,-185.7"/>
<text text-anchor="start" x="648.5" y="-193.4" font-family="Helvetica,sans-Serif" font-size="11.00" fill="#000000">varchar[240]</text>
<polygon fill="none" stroke="#000000" points="472.5,-163.7 472.5,-185.7 645.5,-185.7 645.5,-163.7 472.5,-163.7"/>
<text text-anchor="start" x="492.5" y="-170.8" font-family="Helvetica,sans-Serif" font-size="11.00" fill="#000000">first_case_review_date</text>
<polygon fill="none" stroke="#000000" points="645.5,-163.7 645.5,-185.7 739.5,-185.7 739.5,-163.7 645.5,-163.7"/>
<text text-anchor="start" x="648.5" y="-171.4" font-family="Helvetica,sans-Serif" font-size="11.00" fill="#000000">date[13]</text>
<polygon fill="none" stroke="#000000" points="472.5,-141.7 472.5,-163.7 645.5,-163.7 645.5,-141.7 472.5,-141.7"/>
<text text-anchor="start" x="492.5" y="-148.8" font-family="Helvetica,sans-Serif" font-size="11.00" fill="#000000">version</text>
<polygon fill="none" stroke="#000000" points="645.5,-141.7 645.5,-163.7 739.5,-163.7 739.5,-141.7 645.5,-141.7"/>
<text text-anchor="start" x="648.5" y="-149.4" font-family="Helvetica,sans-Serif" font-size="11.00" fill="#000000">int4[10]</text>
<polygon fill="#ffffff" stroke="transparent" points="472.5,-122.7 472.5,-141.7 563.5,-141.7 563.5,-122.7 472.5,-122.7"/>
<polygon fill="none" stroke="#000000" points="472.5,-122.7 472.5,-141.7 563.5,-141.7 563.5,-122.7 472.5,-122.7"/>
<text text-anchor="start" x="475.5" y="-128.8" font-family="Helvetica,sans-Serif" font-size="11.00" fill="#000000">&lt; 1</text>
<polygon fill="#ffffff" stroke="transparent" points="563.5,-122.7 563.5,-141.7 645.5,-141.7 645.5,-122.7 563.5,-122.7"/>
<polygon fill="none" stroke="#000000" points="563.5,-122.7 563.5,-141.7 645.5,-141.7 645.5,-122.7 563.5,-122.7"/>
<text text-anchor="start" x="636.3862" y="-128.8" font-family="Helvetica,sans-Serif" font-size="11.00" fill="#000000"> &#160;</text>
<polygon fill="#ffffff" stroke="transparent" points="645.5,-122.7 645.5,-141.7 739.5,-141.7 739.5,-122.7 645.5,-122.7"/>
<polygon fill="none" stroke="#000000" points="645.5,-122.7 645.5,-141.7 739.5,-141.7 739.5,-122.7 645.5,-122.7"/>
<text text-anchor="start" x="720.9053" y="-128.8" font-family="Helvetica,sans-Serif" font-size="11.00" fill="#000000">2 &gt;</text>
<polygon fill="none" stroke="#000000" stroke-width="2" points="471,-121.7 471,-275.7 740,-275.7 740,-121.7 471,-121.7"/>
</a>
</g>
</g>
<!-- review&#45;&gt;plan -->
<g id="edge11" class="edge">
<title>review:w&#45;&gt;plan:e</title>
<path fill="none" stroke="#000000" d="M776.5503,-310.071C757.7607,-293.8706 773.3581,-240.7 739.5,-240.7"/>
<polygon fill="#000000" stroke="#000000" points="782.9071,-312.1804 789.3662,-318.1168 786.7036,-313.4402 790.5,-314.7 790.5,-314.7 790.5,-314.7 786.7036,-313.4402 791.6338,-311.2832 782.9071,-312.1804 782.9071,-312.1804"/>
<ellipse fill="none" stroke="#000000" cx="779.87" cy="-311.1725" rx="3.2" ry="3.2"/>
</g>
<!-- csip_record -->
<g id="node3" class="node">
<title>csip_record</title>
<g id="a_node3"><a xlink:href="../../tables/csip_record.html" xlink:title="csip_record" target="_top">
<polygon fill="#ffffff" stroke="transparent" points="211,-108.2 211,-257.2 421,-257.2 421,-108.2 211,-108.2"/>
<polygon fill="#f5f5f5" stroke="transparent" points="211,-233.7 211,-256.7 421,-256.7 421,-233.7 211,-233.7"/>
<polygon fill="none" stroke="#000000" points="211,-233.7 211,-256.7 421,-256.7 421,-233.7 211,-233.7"/>
<text text-anchor="start" x="216" y="-242.3" font-family="Helvetica,sans-Serif" font-weight="bold" font-size="11.00" fill="#000000">csip_record</text>
<text text-anchor="start" x="386.0437" y="-241.8" font-family="Helvetica,sans-Serif" font-size="11.00" fill="#000000">[table]</text>
<polygon fill="none" stroke="#000000" points="211,-211.7 211,-233.7 421,-233.7 421,-211.7 211,-211.7"/>
<image xlink:href="../../images/primaryKeys.png" width="11px" height="12px" preserveAspectRatio="xMinYMin meet" x="216" y="-228.7"/>
<text text-anchor="start" x="231" y="-218.8" font-family="Helvetica,sans-Serif" font-size="11.00" fill="#000000">record_id</text>
<polygon fill="#ffffff" stroke="transparent" points="211,-189.7 211,-211.7 421,-211.7 421,-189.7 211,-189.7"/>
<polygon fill="none" stroke="#000000" points="211,-189.7 211,-211.7 421,-211.7 421,-189.7 211,-189.7"/>
<image xlink:href="../../images/foreignKeys.png" width="11px" height="12px" preserveAspectRatio="xMinYMin meet" x="216" y="-206.7"/>
<text text-anchor="start" x="231" y="-196.8" font-family="Helvetica,sans-Serif" font-size="11.00" fill="#000000">prison_number</text>
<polygon fill="#ffffff" stroke="transparent" points="211,-167.7 211,-189.7 421,-189.7 421,-167.7 211,-167.7"/>
<polygon fill="none" stroke="#000000" points="211,-167.7 211,-189.7 421,-189.7 421,-167.7 211,-167.7"/>
<image xlink:href="../../images/foreignKeys.png" width="11px" height="12px" preserveAspectRatio="xMinYMin meet" x="216" y="-184.7"/>
<text text-anchor="start" x="231" y="-174.8" font-family="Helvetica,sans-Serif" font-size="11.00" fill="#000000">legacy_id</text>
<polygon fill="#ffffff" stroke="transparent" points="211,-145.7 211,-167.7 421,-167.7 421,-145.7 211,-145.7"/>
<polygon fill="none" stroke="#000000" points="211,-145.7 211,-167.7 421,-167.7 421,-145.7 211,-145.7"/>
<image xlink:href="../../images/foreignKeys.png" width="11px" height="12px" preserveAspectRatio="xMinYMin meet" x="216" y="-162.7"/>
<text text-anchor="start" x="231" y="-152.8" font-family="Helvetica,sans-Serif" font-size="11.00" fill="#000000">status_id</text>
<polygon fill="none" stroke="#000000" points="211,-126.7 211,-145.7 421,-145.7 421,-126.7 211,-126.7"/>
<text text-anchor="start" x="214" y="-132.8" font-family="Helvetica,sans-Serif" font-size="11.00" fill="#000000">...</text>
<polygon fill="#ffffff" stroke="transparent" points="211,-107.7 211,-126.7 310,-126.7 310,-107.7 211,-107.7"/>
<polygon fill="none" stroke="#000000" points="211,-107.7 211,-126.7 310,-126.7 310,-107.7 211,-107.7"/>
<text text-anchor="start" x="214" y="-113.8" font-family="Helvetica,sans-Serif" font-size="11.00" fill="#000000">&lt; 2</text>
<polygon fill="#ffffff" stroke="transparent" points="310,-107.7 310,-126.7 361,-126.7 361,-107.7 310,-107.7"/>
<polygon fill="none" stroke="#000000" points="310,-107.7 310,-126.7 361,-126.7 361,-107.7 310,-107.7"/>
<text text-anchor="start" x="351.8862" y="-113.8" font-family="Helvetica,sans-Serif" font-size="11.00" fill="#000000"> &#160;</text>
<polygon fill="#ffffff" stroke="transparent" points="361,-107.7 361,-126.7 421,-126.7 421,-107.7 361,-107.7"/>
<polygon fill="none" stroke="#000000" points="361,-107.7 361,-126.7 421,-126.7 421,-107.7 361,-107.7"/>
<text text-anchor="start" x="402.4053" y="-113.8" font-family="Helvetica,sans-Serif" font-size="11.00" fill="#000000">2 &gt;</text>
</a>
</g>
</g>
<!-- person_summary -->
<g id="node4" class="node">
<title>person_summary</title>
<g id="a_node4"><a xlink:href="../../tables/person_summary.html" xlink:title="person_summary" target="_top">
<polygon fill="#ffffff" stroke="transparent" points="8,-173.2 8,-234.2 162,-234.2 162,-173.2 8,-173.2"/>
<polygon fill="#f5f5f5" stroke="transparent" points="8,-210.7 8,-233.7 162,-233.7 162,-210.7 8,-210.7"/>
<polygon fill="none" stroke="#000000" points="8,-210.7 8,-233.7 162,-233.7 162,-210.7 8,-210.7"/>
<text text-anchor="start" x="13" y="-219.3" font-family="Helvetica,sans-Serif" font-weight="bold" font-size="11.00" fill="#000000">person_summary</text>
<text text-anchor="start" x="127.5219" y="-218.8" font-family="Helvetica,sans-Serif" font-size="11.00" fill="#000000">[table]</text>
<polygon fill="none" stroke="#000000" points="8,-191.7 8,-210.7 162,-210.7 162,-191.7 8,-191.7"/>
<text text-anchor="start" x="11" y="-197.8" font-family="Helvetica,sans-Serif" font-size="11.00" fill="#000000">...</text>
<polygon fill="#ffffff" stroke="transparent" points="8,-172.7 8,-191.7 74,-191.7 74,-172.7 8,-172.7"/>
<polygon fill="none" stroke="#000000" points="8,-172.7 8,-191.7 74,-191.7 74,-172.7 8,-172.7"/>
<text text-anchor="start" x="11" y="-178.8" font-family="Helvetica,sans-Serif" font-size="11.00" fill="#000000"> &#160;</text>
<polygon fill="#ffffff" stroke="transparent" points="74,-172.7 74,-191.7 113,-191.7 113,-172.7 74,-172.7"/>
<polygon fill="none" stroke="#000000" points="74,-172.7 74,-191.7 113,-191.7 113,-172.7 74,-172.7"/>
<text text-anchor="start" x="103.8862" y="-178.8" font-family="Helvetica,sans-Serif" font-size="11.00" fill="#000000"> &#160;</text>
<polygon fill="#ffffff" stroke="transparent" points="113,-172.7 113,-191.7 162,-191.7 162,-172.7 113,-172.7"/>
<polygon fill="none" stroke="#000000" points="113,-172.7 113,-191.7 162,-191.7 162,-172.7 113,-172.7"/>
<text text-anchor="start" x="143.4053" y="-178.8" font-family="Helvetica,sans-Serif" font-size="11.00" fill="#000000">1 &gt;</text>
</a>
</g>
</g>
<!-- csip_record&#45;&gt;person_summary -->
<g id="edge2" class="edge">
<title>csip_record:w&#45;&gt;person_summary:e</title>
<path fill="none" stroke="#000000" d="M196.4909,-200.7C185.1774,-200.7 177.9931,-200.7 162,-200.7"/>
<polygon fill="#000000" stroke="#000000" points="203,-200.7001 211,-204.3 207,-200.7 211,-200.7 211,-200.7 211,-200.7 207,-200.7 211,-197.1 203,-200.7001 203,-200.7001"/>
<ellipse fill="none" stroke="#000000" cx="199.8" cy="-200.7001" rx="3.2" ry="3.2"/>
</g>
<!-- reference_data -->
<g id="node5" class="node">
<title>reference_data</title>
<g id="a_node5"><a xlink:href="../../tables/reference_data.html" xlink:title="reference_data" target="_top">
<polygon fill="#ffffff" stroke="transparent" points="15,-38.2 15,-99.2 155,-99.2 155,-38.2 15,-38.2"/>
<polygon fill="#f5f5f5" stroke="transparent" points="15,-75.7 15,-98.7 155,-98.7 155,-75.7 15,-75.7"/>
<polygon fill="none" stroke="#000000" points="15,-75.7 15,-98.7 155,-98.7 155,-75.7 15,-75.7"/>
<text text-anchor="start" x="20" y="-84.3" font-family="Helvetica,sans-Serif" font-weight="bold" font-size="11.00" fill="#000000">reference_data</text>
<text text-anchor="start" x="120.5219" y="-83.8" font-family="Helvetica,sans-Serif" font-size="11.00" fill="#000000">[table]</text>
<polygon fill="none" stroke="#000000" points="15,-56.7 15,-75.7 155,-75.7 155,-56.7 15,-56.7"/>
<text text-anchor="start" x="18" y="-62.8" font-family="Helvetica,sans-Serif" font-size="11.00" fill="#000000">...</text>
<polygon fill="#ffffff" stroke="transparent" points="15,-37.7 15,-56.7 52,-56.7 52,-37.7 15,-37.7"/>
<polygon fill="none" stroke="#000000" points="15,-37.7 15,-56.7 52,-56.7 52,-37.7 15,-37.7"/>
<text text-anchor="start" x="18" y="-43.8" font-family="Helvetica,sans-Serif" font-size="11.00" fill="#000000"> &#160;</text>
<polygon fill="#ffffff" stroke="transparent" points="52,-37.7 52,-56.7 115,-56.7 115,-37.7 52,-37.7"/>
<polygon fill="none" stroke="#000000" points="52,-37.7 52,-56.7 115,-56.7 115,-37.7 52,-37.7"/>
<text text-anchor="start" x="67.3807" y="-43.8" font-family="Helvetica,sans-Serif" font-size="11.00" fill="#000000">122 rows</text>
<polygon fill="#ffffff" stroke="transparent" points="115,-37.7 115,-56.7 155,-56.7 155,-37.7 115,-37.7"/>
<polygon fill="none" stroke="#000000" points="115,-37.7 115,-56.7 155,-56.7 155,-37.7 115,-37.7"/>
<text text-anchor="start" x="130.2904" y="-43.8" font-family="Helvetica,sans-Serif" font-size="11.00" fill="#000000">10 &gt;</text>
</a>
</g>
</g>
<!-- csip_record&#45;&gt;reference_data -->
<g id="edge3" class="edge">
<title>csip_record:w&#45;&gt;reference_data:e</title>
<path fill="none" stroke="#000000" d="M196.907,-152.7898C171.9044,-135.3719 196.5529,-65.7 155,-65.7"/>
<polygon fill="#000000" stroke="#000000" points="203.2912,-154.5611 210.0375,-160.169 207.1456,-155.6306 211,-156.7 211,-156.7 211,-156.7 207.1456,-155.6306 211.9625,-153.231 203.2912,-154.5611 203.2912,-154.5611"/>
<ellipse fill="none" stroke="#000000" cx="200.2077" cy="-153.7056" rx="3.2" ry="3.2"/>
</g>
<!-- identified_need -->
<g id="node6" class="node">
<title>identified_need</title>
<g id="a_node6"><a xlink:href="../../tables/identified_need.html" xlink:title="identified_need" target="_top">
<polygon fill="#ffffff" stroke="transparent" points="814.5,-96.2 814.5,-223.2 966.5,-223.2 966.5,-96.2 814.5,-96.2"/>
<polygon fill="#f5f5f5" stroke="transparent" points="814.5,-199.7 814.5,-222.7 966.5,-222.7 966.5,-199.7 814.5,-199.7"/>
<polygon fill="none" stroke="#000000" points="814.5,-199.7 814.5,-222.7 966.5,-222.7 966.5,-199.7 814.5,-199.7"/>
<text text-anchor="start" x="819.5" y="-208.3" font-family="Helvetica,sans-Serif" font-weight="bold" font-size="11.00" fill="#000000">identified_need</text>
<text text-anchor="start" x="931.5437" y="-207.8" font-family="Helvetica,sans-Serif" font-size="11.00" fill="#000000">[table]</text>
<polygon fill="none" stroke="#000000" points="814.5,-177.7 814.5,-199.7 966.5,-199.7 966.5,-177.7 814.5,-177.7"/>
<image xlink:href="../../images/primaryKeys.png" width="11px" height="12px" preserveAspectRatio="xMinYMin meet" x="819.5" y="-194.7"/>
<text text-anchor="start" x="834.5" y="-184.8" font-family="Helvetica,sans-Serif" font-size="11.00" fill="#000000">identified_need_id</text>
<polygon fill="#ffffff" stroke="transparent" points="814.5,-155.7 814.5,-177.7 966.5,-177.7 966.5,-155.7 814.5,-155.7"/>
<polygon fill="none" stroke="#000000" points="814.5,-155.7 814.5,-177.7 966.5,-177.7 966.5,-155.7 814.5,-155.7"/>
<image xlink:href="../../images/foreignKeys.png" width="11px" height="12px" preserveAspectRatio="xMinYMin meet" x="819.5" y="-172.7"/>
<text text-anchor="start" x="834.5" y="-162.8" font-family="Helvetica,sans-Serif" font-size="11.00" fill="#000000">plan_id</text>
<polygon fill="#ffffff" stroke="transparent" points="814.5,-133.7 814.5,-155.7 966.5,-155.7 966.5,-133.7 814.5,-133.7"/>
<polygon fill="none" stroke="#000000" points="814.5,-133.7 814.5,-155.7 966.5,-155.7 966.5,-133.7 814.5,-133.7"/>
<image xlink:href="../../images/foreignKeys.png" width="11px" height="12px" preserveAspectRatio="xMinYMin meet" x="819.5" y="-150.7"/>
<text text-anchor="start" x="834.5" y="-140.8" font-family="Helvetica,sans-Serif" font-size="11.00" fill="#000000">legacy_id</text>
<polygon fill="none" stroke="#000000" points="814.5,-114.7 814.5,-133.7 966.5,-133.7 966.5,-114.7 814.5,-114.7"/>
<text text-anchor="start" x="817.5" y="-120.8" font-family="Helvetica,sans-Serif" font-size="11.00" fill="#000000">...</text>
<polygon fill="#ffffff" stroke="transparent" points="814.5,-95.7 814.5,-114.7 888.5,-114.7 888.5,-95.7 814.5,-95.7"/>
<polygon fill="none" stroke="#000000" points="814.5,-95.7 814.5,-114.7 888.5,-114.7 888.5,-95.7 814.5,-95.7"/>
<text text-anchor="start" x="817.5" y="-101.8" font-family="Helvetica,sans-Serif" font-size="11.00" fill="#000000">&lt; 1</text>
<polygon fill="#ffffff" stroke="transparent" points="888.5,-95.7 888.5,-114.7 927.5,-114.7 927.5,-95.7 888.5,-95.7"/>
<polygon fill="none" stroke="#000000" points="888.5,-95.7 888.5,-114.7 927.5,-114.7 927.5,-95.7 888.5,-95.7"/>
<text text-anchor="start" x="918.3862" y="-101.8" font-family="Helvetica,sans-Serif" font-size="11.00" fill="#000000"> &#160;</text>
<polygon fill="#ffffff" stroke="transparent" points="927.5,-95.7 927.5,-114.7 966.5,-114.7 966.5,-95.7 927.5,-95.7"/>
<polygon fill="none" stroke="#000000" points="927.5,-95.7 927.5,-114.7 966.5,-114.7 966.5,-95.7 927.5,-95.7"/>
<text text-anchor="start" x="957.3862" y="-101.8" font-family="Helvetica,sans-Serif" font-size="11.00" fill="#000000"> &#160;</text>
</a>
</g>
</g>
<!-- identified_need&#45;&gt;plan -->
<g id="edge4" class="edge">
<title>identified_need:w&#45;&gt;plan:e</title>
<path fill="none" stroke="#000000" d="M800.1366,-169.6925C771.2304,-183.5368 780.6568,-240.7 739.5,-240.7"/>
<polygon fill="#000000" stroke="#000000" points="806.6682,-168.3318 815.2343,-170.2243 810.5841,-167.5159 814.5,-166.7 814.5,-166.7 814.5,-166.7 810.5841,-167.5159 813.7657,-163.1757 806.6682,-168.3318 806.6682,-168.3318"/>
<ellipse fill="none" stroke="#000000" cx="803.5354" cy="-168.9845" rx="3.2" ry="3.2"/>
</g>
<!-- plan&#45;&gt;csip_record -->
<g id="edge5" class="edge">
<title>plan:w&#45;&gt;csip_record:e</title>
<path fill="none" stroke="#000000" d="M462.0936,-239.4055C446.6951,-235.2782 441.2687,-222.7 421,-222.7"/>
<polygon fill="#000000" stroke="#000000" points="472.1999,-236.6318 471.2123,-244.5706 469.6245,-244.3731 470.6122,-236.4343 472.1999,-236.6318"/>
<polyline fill="none" stroke="#000000" points="472.5,-240.7 468.5306,-240.2062 "/>
<ellipse fill="none" stroke="#000000" cx="465.3551" cy="-239.8111" rx="3.2" ry="3.2"/>
</g>
<!-- referral -->
<g id="node8" class="node">
<title>referral</title>
<g id="a_node8"><a xlink:href="../../tables/referral.html" xlink:title="referral" target="_top">
<polygon fill="#ffffff" stroke="transparent" points="560.5,-38.2 560.5,-99.2 650.5,-99.2 650.5,-38.2 560.5,-38.2"/>
<polygon fill="#f5f5f5" stroke="transparent" points="560.5,-75.7 560.5,-98.7 650.5,-98.7 650.5,-75.7 560.5,-75.7"/>
<polygon fill="none" stroke="#000000" points="560.5,-75.7 560.5,-98.7 650.5,-98.7 650.5,-75.7 560.5,-75.7"/>
<text text-anchor="start" x="565.5" y="-84.3" font-family="Helvetica,sans-Serif" font-weight="bold" font-size="11.00" fill="#000000">referral</text>
<text text-anchor="start" x="616.0219" y="-83.8" font-family="Helvetica,sans-Serif" font-size="11.00" fill="#000000">[table]</text>
<polygon fill="none" stroke="#000000" points="560.5,-56.7 560.5,-75.7 650.5,-75.7 650.5,-56.7 560.5,-56.7"/>
<text text-anchor="start" x="563.5" y="-62.8" font-family="Helvetica,sans-Serif" font-size="11.00" fill="#000000">...</text>
<polygon fill="#ffffff" stroke="transparent" points="560.5,-37.7 560.5,-56.7 599.5,-56.7 599.5,-37.7 560.5,-37.7"/>
<polygon fill="none" stroke="#000000" points="560.5,-37.7 560.5,-56.7 599.5,-56.7 599.5,-37.7 560.5,-37.7"/>
<text text-anchor="start" x="563.5" y="-43.8" font-family="Helvetica,sans-Serif" font-size="11.00" fill="#000000">&lt; 5</text>
<polygon fill="#ffffff" stroke="transparent" points="599.5,-37.7 599.5,-56.7 620.5,-56.7 620.5,-37.7 599.5,-37.7"/>
<polygon fill="none" stroke="#000000" points="599.5,-37.7 599.5,-56.7 620.5,-56.7 620.5,-37.7 599.5,-37.7"/>
<text text-anchor="start" x="611.3862" y="-43.8" font-family="Helvetica,sans-Serif" font-size="11.00" fill="#000000"> &#160;</text>
<polygon fill="#ffffff" stroke="transparent" points="620.5,-37.7 620.5,-56.7 650.5,-56.7 650.5,-37.7 620.5,-37.7"/>
<polygon fill="none" stroke="#000000" points="620.5,-37.7 620.5,-56.7 650.5,-56.7 650.5,-37.7 620.5,-37.7"/>
<text text-anchor="start" x="631.9053" y="-43.8" font-family="Helvetica,sans-Serif" font-size="11.00" fill="#000000">4 &gt;</text>
</a>
</g>
</g>
<!-- referral&#45;&gt;csip_record -->
<g id="edge10" class="edge">
<title>referral:w&#45;&gt;csip_record:e</title>
<path fill="none" stroke="#000000" d="M550.0467,-65.8625C509.7415,-67.2075 492.1728,-77.2711 462,-109.7 425.6073,-148.8139 474.4258,-222.7 421,-222.7"/>
<polygon fill="#000000" stroke="#000000" points="559.6379,-61.7129 559.7623,-69.712 558.1625,-69.7368 558.0381,-61.7378 559.6379,-61.7129"/>
<polyline fill="none" stroke="#000000" points="560.5,-65.7 556.5005,-65.7622 "/>
<ellipse fill="none" stroke="#000000" cx="553.3009" cy="-65.812" rx="3.2" ry="3.2"/>
</g>
<!-- referral&#45;&gt;reference_data -->
<g id="edge6" class="edge">
<title>referral:w&#45;&gt;reference_data:e</title>
<path fill="none" stroke="#000000" d="M546.0138,-65.7C377.7127,-65.7 330.2943,-65.7 155,-65.7"/>
<polygon fill="#000000" stroke="#000000" points="552.5,-65.7001 560.5,-69.3 556.5,-65.7 560.5,-65.7 560.5,-65.7 560.5,-65.7 556.5,-65.7 560.5,-62.1 552.5,-65.7001 552.5,-65.7001"/>
<ellipse fill="none" stroke="#000000" cx="549.3" cy="-65.7001" rx="3.2" ry="3.2"/>
</g>
<!-- referral&#45;&gt;reference_data -->
<g id="edge7" class="edge">
<title>referral:w&#45;&gt;reference_data:e</title>
<path fill="none" stroke="#000000" d="M546.0138,-64.6628C377.7127,-52.7097 330.2943,-53.0555 155,-65.7"/>
<polygon fill="#000000" stroke="#000000" points="552.5204,-65.1286 560.2429,-69.2908 556.5102,-65.4143 560.5,-65.7 560.5,-65.7 560.5,-65.7 556.5102,-65.4143 560.7571,-62.1092 552.5204,-65.1286 552.5204,-65.1286"/>
<ellipse fill="none" stroke="#000000" cx="549.3286" cy="-64.9" rx="3.2" ry="3.2"/>
</g>
<!-- referral&#45;&gt;reference_data -->
<g id="edge8" class="edge">
<title>referral:w&#45;&gt;reference_data:e</title>
<path fill="none" stroke="#000000" d="M546.0138,-65.7C377.7127,-65.7 330.2943,-65.7 155,-65.7"/>
<polygon fill="#000000" stroke="#000000" points="552.5,-65.7001 560.5,-69.3 556.5,-65.7 560.5,-65.7 560.5,-65.7 560.5,-65.7 556.5,-65.7 560.5,-62.1 552.5,-65.7001 552.5,-65.7001"/>
<ellipse fill="none" stroke="#000000" cx="549.3" cy="-65.7001" rx="3.2" ry="3.2"/>
</g>
<!-- referral&#45;&gt;reference_data -->
<g id="edge9" class="edge">
<title>referral:w&#45;&gt;reference_data:e</title>
<path fill="none" stroke="#000000" d="M546.0138,-66.7372C377.7127,-78.6903 330.2943,-78.3445 155,-65.7"/>
<polygon fill="#000000" stroke="#000000" points="552.5204,-66.2714 560.7571,-69.2908 556.5102,-65.9857 560.5,-65.7 560.5,-65.7 560.5,-65.7 556.5102,-65.9857 560.2429,-62.1092 552.5204,-66.2714 552.5204,-66.2714"/>
<ellipse fill="none" stroke="#000000" cx="549.3286" cy="-66.5" rx="3.2" ry="3.2"/>
</g>
</g>
</svg>
