<?xml version="1.0" encoding="UTF-8" standalone="no"?>
<!DOCTYPE svg PUBLIC "-//W3C//DTD SVG 1.1//EN"
 "http://www.w3.org/Graphics/SVG/1.1/DTD/svg11.dtd">
<!-- Generated by graphviz version 2.40.1 (20161225.0304)
 -->
<!-- Title: twoDegreesRelationshipsDiagram Pages: 1 -->
<svg width="575pt" height="1115pt"
 viewBox="0.00 0.00 575.00 1115.20" xmlns="http://www.w3.org/2000/svg" xmlns:xlink="http://www.w3.org/1999/xlink">
<g id="graph0" class="graph" transform="scale(1 1) rotate(0) translate(4 1111.2)">
<title>twoDegreesRelationshipsDiagram</title>
<polygon fill="#ffffff" stroke="transparent" points="-4,4 -4,-1111.2 571,-1111.2 571,4 -4,4"/>
<text text-anchor="middle" x="72.4936" y="-7.3" font-family="Helvetica,sans-Serif" font-size="11.00" fill="#000000">Generated by SchemaSpy</text>
<!-- attendee_audit -->
<g id="node1" class="node">
<title>attendee_audit</title>
<g id="a_node1"><a xlink:href="../../tables/attendee_audit.html" xlink:title="attendee_audit" target="_top">
<polygon fill="#ffffff" stroke="transparent" points="320.5,-1042.2 320.5,-1103.2 461.5,-1103.2 461.5,-1042.2 320.5,-1042.2"/>
<polygon fill="#f5f5f5" stroke="transparent" points="321,-1079.7 321,-1102.7 462,-1102.7 462,-1079.7 321,-1079.7"/>
<polygon fill="none" stroke="#000000" points="321,-1079.7 321,-1102.7 462,-1102.7 462,-1079.7 321,-1079.7"/>
<text text-anchor="start" x="326" y="-1088.3" font-family="Helvetica,sans-Serif" font-weight="bold" font-size="11.00" fill="#000000">attendee_audit</text>
<text text-anchor="start" x="427.5219" y="-1087.8" font-family="Helvetica,sans-Serif" font-size="11.00" fill="#000000">[table]</text>
<polygon fill="none" stroke="#000000" points="321,-1060.7 321,-1079.7 462,-1079.7 462,-1060.7 321,-1060.7"/>
<text text-anchor="start" x="324" y="-1066.8" font-family="Helvetica,sans-Serif" font-size="11.00" fill="#000000">...</text>
<polygon fill="#ffffff" stroke="transparent" points="321,-1041.7 321,-1060.7 390,-1060.7 390,-1041.7 321,-1041.7"/>
<polygon fill="none" stroke="#000000" points="321,-1041.7 321,-1060.7 390,-1060.7 390,-1041.7 321,-1041.7"/>
<text text-anchor="start" x="324" y="-1047.8" font-family="Helvetica,sans-Serif" font-size="11.00" fill="#000000">&lt; 1</text>
<polygon fill="#ffffff" stroke="transparent" points="390,-1041.7 390,-1060.7 426,-1060.7 426,-1041.7 390,-1041.7"/>
<polygon fill="none" stroke="#000000" points="390,-1041.7 390,-1060.7 426,-1060.7 426,-1041.7 390,-1041.7"/>
<text text-anchor="start" x="416.8862" y="-1047.8" font-family="Helvetica,sans-Serif" font-size="11.00" fill="#000000"> &#160;</text>
<polygon fill="#ffffff" stroke="transparent" points="426,-1041.7 426,-1060.7 462,-1060.7 462,-1041.7 426,-1041.7"/>
<polygon fill="none" stroke="#000000" points="426,-1041.7 426,-1060.7 462,-1060.7 462,-1041.7 426,-1041.7"/>
<text text-anchor="start" x="452.8862" y="-1047.8" font-family="Helvetica,sans-Serif" font-size="11.00" fill="#000000"> &#160;</text>
</a>
</g>
</g>
<!-- audit_revision -->
<g id="node2" class="node">
<title>audit_revision</title>
<g id="a_node2"><a xlink:href="../../tables/audit_revision.html" xlink:title="audit_revision" target="_top">
<polygon fill="#ffffff" stroke="transparent" points="8,-611.2 8,-694.2 174,-694.2 174,-611.2 8,-611.2"/>
<polygon fill="#f5f5f5" stroke="transparent" points="8,-670.7 8,-693.7 174,-693.7 174,-670.7 8,-670.7"/>
<polygon fill="none" stroke="#000000" points="8,-670.7 8,-693.7 174,-693.7 174,-670.7 8,-670.7"/>
<text text-anchor="start" x="13" y="-679.3" font-family="Helvetica,sans-Serif" font-weight="bold" font-size="11.00" fill="#000000">audit_revision</text>
<text text-anchor="start" x="139.0437" y="-678.8" font-family="Helvetica,sans-Serif" font-size="11.00" fill="#000000">[table]</text>
<polygon fill="none" stroke="#000000" points="8,-648.7 8,-670.7 174,-670.7 174,-648.7 8,-648.7"/>
<image xlink:href="../../images/primaryKeys.png" width="11px" height="12px" preserveAspectRatio="xMinYMin meet" x="13" y="-665.7"/>
<text text-anchor="start" x="28" y="-655.8" font-family="Helvetica,sans-Serif" font-size="11.00" fill="#000000">id</text>
<polygon fill="none" stroke="#000000" points="8,-629.7 8,-648.7 174,-648.7 174,-629.7 8,-629.7"/>
<text text-anchor="start" x="11" y="-635.8" font-family="Helvetica,sans-Serif" font-size="11.00" fill="#000000">...</text>
<polygon fill="#ffffff" stroke="transparent" points="8,-610.7 8,-629.7 77,-629.7 77,-610.7 8,-610.7"/>
<polygon fill="none" stroke="#000000" points="8,-610.7 8,-629.7 77,-629.7 77,-610.7 8,-610.7"/>
<text text-anchor="start" x="11" y="-616.8" font-family="Helvetica,sans-Serif" font-size="11.00" fill="#000000"> &#160;</text>
<polygon fill="#ffffff" stroke="transparent" points="77,-610.7 77,-629.7 118,-629.7 118,-610.7 77,-610.7"/>
<polygon fill="none" stroke="#000000" points="77,-610.7 77,-629.7 118,-629.7 118,-610.7 77,-610.7"/>
<text text-anchor="start" x="108.8862" y="-616.8" font-family="Helvetica,sans-Serif" font-size="11.00" fill="#000000"> &#160;</text>
<polygon fill="#ffffff" stroke="transparent" points="118,-610.7 118,-629.7 174,-629.7 174,-610.7 118,-610.7"/>
<polygon fill="none" stroke="#000000" points="118,-610.7 118,-629.7 174,-629.7 174,-610.7 118,-610.7"/>
<text text-anchor="start" x="149.2904" y="-616.8" font-family="Helvetica,sans-Serif" font-size="11.00" fill="#000000">11 &gt;</text>
</a>
</g>
</g>
<!-- attendee_audit&#45;&gt;audit_revision -->
<g id="edge1" class="edge">
<title>attendee_audit:w&#45;&gt;audit_revision:e</title>
<path fill="none" stroke="#000000" d="M306.4954,-1069.6959C265.8234,-1069.5424 242.8576,-1066.9947 215,-1031.7 163.4734,-966.4176 257.1672,-659.7 174,-659.7"/>
<polygon fill="#000000" stroke="#000000" points="313,-1069.6977 320.999,-1073.3 317,-1069.6988 321,-1069.7 321,-1069.7 321,-1069.7 317,-1069.6988 321.001,-1066.1 313,-1069.6977 313,-1069.6977"/>
<ellipse fill="none" stroke="#000000" cx="309.8" cy="-1069.6968" rx="3.2" ry="3.2"/>
</g>
<!-- contributory_factor_audit -->
<g id="node3" class="node">
<title>contributory_factor_audit</title>
<g id="a_node3"><a xlink:href="../../tables/contributory_factor_audit.html" xlink:title="contributory_factor_audit" target="_top">
<polygon fill="#ffffff" stroke="transparent" points="286,-960.2 286,-1021.2 496,-1021.2 496,-960.2 286,-960.2"/>
<polygon fill="#f5f5f5" stroke="transparent" points="286,-997.7 286,-1020.7 496,-1020.7 496,-997.7 286,-997.7"/>
<polygon fill="none" stroke="#000000" points="286,-997.7 286,-1020.7 496,-1020.7 496,-997.7 286,-997.7"/>
<text text-anchor="start" x="291" y="-1006.3" font-family="Helvetica,sans-Serif" font-weight="bold" font-size="11.00" fill="#000000">contributory_factor_audit</text>
<text text-anchor="start" x="461.5219" y="-1005.8" font-family="Helvetica,sans-Serif" font-size="11.00" fill="#000000">[table]</text>
<polygon fill="none" stroke="#000000" points="286,-978.7 286,-997.7 496,-997.7 496,-978.7 286,-978.7"/>
<text text-anchor="start" x="289" y="-984.8" font-family="Helvetica,sans-Serif" font-size="11.00" fill="#000000">...</text>
<polygon fill="#ffffff" stroke="transparent" points="286,-959.7 286,-978.7 389,-978.7 389,-959.7 286,-959.7"/>
<polygon fill="none" stroke="#000000" points="286,-959.7 286,-978.7 389,-978.7 389,-959.7 286,-959.7"/>
<text text-anchor="start" x="289" y="-965.8" font-family="Helvetica,sans-Serif" font-size="11.00" fill="#000000">&lt; 1</text>
<polygon fill="#ffffff" stroke="transparent" points="389,-959.7 389,-978.7 442,-978.7 442,-959.7 389,-959.7"/>
<polygon fill="none" stroke="#000000" points="389,-959.7 389,-978.7 442,-978.7 442,-959.7 389,-959.7"/>
<text text-anchor="start" x="432.8862" y="-965.8" font-family="Helvetica,sans-Serif" font-size="11.00" fill="#000000"> &#160;</text>
<polygon fill="#ffffff" stroke="transparent" points="442,-959.7 442,-978.7 496,-978.7 496,-959.7 442,-959.7"/>
<polygon fill="none" stroke="#000000" points="442,-959.7 442,-978.7 496,-978.7 496,-959.7 442,-959.7"/>
<text text-anchor="start" x="486.8862" y="-965.8" font-family="Helvetica,sans-Serif" font-size="11.00" fill="#000000"> &#160;</text>
</a>
</g>
</g>
<!-- contributory_factor_audit&#45;&gt;audit_revision -->
<g id="edge2" class="edge">
<title>contributory_factor_audit:w&#45;&gt;audit_revision:e</title>
<path fill="none" stroke="#000000" d="M271.3676,-987.0881C245.715,-984.6728 232.4578,-974.6829 215,-949.7 177.7194,-896.3497 239.0853,-659.7 174,-659.7"/>
<polygon fill="#000000" stroke="#000000" points="278.007,-987.3657 285.8496,-991.2969 282.0035,-987.5329 286,-987.7 286,-987.7 286,-987.7 282.0035,-987.5329 286.1504,-984.1031 278.007,-987.3657 278.007,-987.3657"/>
<ellipse fill="none" stroke="#000000" cx="274.8098" cy="-987.232" rx="3.2" ry="3.2"/>
</g>
<!-- csip_record_audit -->
<g id="node4" class="node">
<title>csip_record_audit</title>
<g id="a_node4"><a xlink:href="../../tables/csip_record_audit.html" xlink:title="csip_record_audit" target="_top">
<polygon fill="#ffffff" stroke="transparent" points="313,-878.2 313,-939.2 469,-939.2 469,-878.2 313,-878.2"/>
<polygon fill="#f5f5f5" stroke="transparent" points="313,-915.7 313,-938.7 469,-938.7 469,-915.7 313,-915.7"/>
<polygon fill="none" stroke="#000000" points="313,-915.7 313,-938.7 469,-938.7 469,-915.7 313,-915.7"/>
<text text-anchor="start" x="318" y="-924.3" font-family="Helvetica,sans-Serif" font-weight="bold" font-size="11.00" fill="#000000">csip_record_audit</text>
<text text-anchor="start" x="434.5219" y="-923.8" font-family="Helvetica,sans-Serif" font-size="11.00" fill="#000000">[table]</text>
<polygon fill="none" stroke="#000000" points="313,-896.7 313,-915.7 469,-915.7 469,-896.7 313,-896.7"/>
<text text-anchor="start" x="316" y="-902.8" font-family="Helvetica,sans-Serif" font-size="11.00" fill="#000000">...</text>
<polygon fill="#ffffff" stroke="transparent" points="313,-877.7 313,-896.7 389,-896.7 389,-877.7 313,-877.7"/>
<polygon fill="none" stroke="#000000" points="313,-877.7 313,-896.7 389,-896.7 389,-877.7 313,-877.7"/>
<text text-anchor="start" x="316" y="-883.8" font-family="Helvetica,sans-Serif" font-size="11.00" fill="#000000">&lt; 1</text>
<polygon fill="#ffffff" stroke="transparent" points="389,-877.7 389,-896.7 429,-896.7 429,-877.7 389,-877.7"/>
<polygon fill="none" stroke="#000000" points="389,-877.7 389,-896.7 429,-896.7 429,-877.7 389,-877.7"/>
<text text-anchor="start" x="419.8862" y="-883.8" font-family="Helvetica,sans-Serif" font-size="11.00" fill="#000000"> &#160;</text>
<polygon fill="#ffffff" stroke="transparent" points="429,-877.7 429,-896.7 469,-896.7 469,-877.7 429,-877.7"/>
<polygon fill="none" stroke="#000000" points="429,-877.7 429,-896.7 469,-896.7 469,-877.7 429,-877.7"/>
<text text-anchor="start" x="459.8862" y="-883.8" font-family="Helvetica,sans-Serif" font-size="11.00" fill="#000000"> &#160;</text>
</a>
</g>
</g>
<!-- csip_record_audit&#45;&gt;audit_revision -->
<g id="edge3" class="edge">
<title>csip_record_audit:w&#45;&gt;audit_revision:e</title>
<path fill="none" stroke="#000000" d="M298.54,-905.5799C261.5272,-904.8163 241.7317,-899.582 215,-867.7 154.4616,-795.498 268.2233,-659.7 174,-659.7"/>
<polygon fill="#000000" stroke="#000000" points="305.0003,-905.6335 312.9701,-909.2999 309.0001,-905.6667 313,-905.7 313,-905.7 313,-905.7 309.0001,-905.6667 313.0299,-902.1001 305.0003,-905.6335 305.0003,-905.6335"/>
<ellipse fill="none" stroke="#000000" cx="301.8004" cy="-905.6069" rx="3.2" ry="3.2"/>
</g>
<!-- decision_and_actions_audit -->
<g id="node5" class="node">
<title>decision_and_actions_audit</title>
<g id="a_node5"><a xlink:href="../../tables/decision_and_actions_audit.html" xlink:title="decision_and_actions_audit" target="_top">
<polygon fill="#ffffff" stroke="transparent" points="280,-796.2 280,-857.2 502,-857.2 502,-796.2 280,-796.2"/>
<polygon fill="#f5f5f5" stroke="transparent" points="280,-833.7 280,-856.7 502,-856.7 502,-833.7 280,-833.7"/>
<polygon fill="none" stroke="#000000" points="280,-833.7 280,-856.7 502,-856.7 502,-833.7 280,-833.7"/>
<text text-anchor="start" x="285" y="-842.3" font-family="Helvetica,sans-Serif" font-weight="bold" font-size="11.00" fill="#000000">decision_and_actions_audit</text>
<text text-anchor="start" x="467.5219" y="-841.8" font-family="Helvetica,sans-Serif" font-size="11.00" fill="#000000">[table]</text>
<polygon fill="none" stroke="#000000" points="280,-814.7 280,-833.7 502,-833.7 502,-814.7 280,-814.7"/>
<text text-anchor="start" x="283" y="-820.8" font-family="Helvetica,sans-Serif" font-size="11.00" fill="#000000">...</text>
<polygon fill="#ffffff" stroke="transparent" points="280,-795.7 280,-814.7 389,-814.7 389,-795.7 280,-795.7"/>
<polygon fill="none" stroke="#000000" points="280,-795.7 280,-814.7 389,-814.7 389,-795.7 280,-795.7"/>
<text text-anchor="start" x="283" y="-801.8" font-family="Helvetica,sans-Serif" font-size="11.00" fill="#000000">&lt; 1</text>
<polygon fill="#ffffff" stroke="transparent" points="389,-795.7 389,-814.7 445,-814.7 445,-795.7 389,-795.7"/>
<polygon fill="none" stroke="#000000" points="389,-795.7 389,-814.7 445,-814.7 445,-795.7 389,-795.7"/>
<text text-anchor="start" x="435.8862" y="-801.8" font-family="Helvetica,sans-Serif" font-size="11.00" fill="#000000"> &#160;</text>
<polygon fill="#ffffff" stroke="transparent" points="445,-795.7 445,-814.7 502,-814.7 502,-795.7 445,-795.7"/>
<polygon fill="none" stroke="#000000" points="445,-795.7 445,-814.7 502,-814.7 502,-795.7 445,-795.7"/>
<text text-anchor="start" x="492.8862" y="-801.8" font-family="Helvetica,sans-Serif" font-size="11.00" fill="#000000"> &#160;</text>
</a>
</g>
</g>
<!-- decision_and_actions_audit&#45;&gt;audit_revision -->
<g id="edge4" class="edge">
<title>decision_and_actions_audit:w&#45;&gt;audit_revision:e</title>
<path fill="none" stroke="#000000" d="M265.5485,-822.7722C242.8916,-819.5129 232.6318,-807.5851 215,-785.7 178.0538,-739.8412 232.8901,-659.7 174,-659.7"/>
<polygon fill="#000000" stroke="#000000" points="272.0164,-823.1874 279.7693,-827.2926 276.0082,-823.4437 280,-823.7 280,-823.7 280,-823.7 276.0082,-823.4437 280.2307,-820.1074 272.0164,-823.1874 272.0164,-823.1874"/>
<ellipse fill="none" stroke="#000000" cx="268.823" cy="-822.9823" rx="3.2" ry="3.2"/>
</g>
<!-- identified_need_audit -->
<g id="node6" class="node">
<title>identified_need_audit</title>
<g id="a_node6"><a xlink:href="../../tables/identified_need_audit.html" xlink:title="identified_need_audit" target="_top">
<polygon fill="#ffffff" stroke="transparent" points="299,-714.2 299,-775.2 483,-775.2 483,-714.2 299,-714.2"/>
<polygon fill="#f5f5f5" stroke="transparent" points="299,-751.7 299,-774.7 483,-774.7 483,-751.7 299,-751.7"/>
<polygon fill="none" stroke="#000000" points="299,-751.7 299,-774.7 483,-774.7 483,-751.7 299,-751.7"/>
<text text-anchor="start" x="304" y="-760.3" font-family="Helvetica,sans-Serif" font-weight="bold" font-size="11.00" fill="#000000">identified_need_audit</text>
<text text-anchor="start" x="448.5219" y="-759.8" font-family="Helvetica,sans-Serif" font-size="11.00" fill="#000000">[table]</text>
<polygon fill="none" stroke="#000000" points="299,-732.7 299,-751.7 483,-751.7 483,-732.7 299,-732.7"/>
<text text-anchor="start" x="302" y="-738.8" font-family="Helvetica,sans-Serif" font-size="11.00" fill="#000000">...</text>
<polygon fill="#ffffff" stroke="transparent" points="299,-713.7 299,-732.7 389,-732.7 389,-713.7 299,-713.7"/>
<polygon fill="none" stroke="#000000" points="299,-713.7 299,-732.7 389,-732.7 389,-713.7 299,-713.7"/>
<text text-anchor="start" x="302" y="-719.8" font-family="Helvetica,sans-Serif" font-size="11.00" fill="#000000">&lt; 1</text>
<polygon fill="#ffffff" stroke="transparent" points="389,-713.7 389,-732.7 436,-732.7 436,-713.7 389,-713.7"/>
<polygon fill="none" stroke="#000000" points="389,-713.7 389,-732.7 436,-732.7 436,-713.7 389,-713.7"/>
<text text-anchor="start" x="426.8862" y="-719.8" font-family="Helvetica,sans-Serif" font-size="11.00" fill="#000000"> &#160;</text>
<polygon fill="#ffffff" stroke="transparent" points="436,-713.7 436,-732.7 483,-732.7 483,-713.7 436,-713.7"/>
<polygon fill="none" stroke="#000000" points="436,-713.7 436,-732.7 483,-732.7 483,-713.7 436,-713.7"/>
<text text-anchor="start" x="473.8862" y="-719.8" font-family="Helvetica,sans-Serif" font-size="11.00" fill="#000000"> &#160;</text>
</a>
</g>
</g>
<!-- identified_need_audit&#45;&gt;audit_revision -->
<g id="edge5" class="edge">
<title>identified_need_audit:w&#45;&gt;audit_revision:e</title>
<path fill="none" stroke="#000000" d="M284.5937,-741.0063C255.1218,-737.902 243.9931,-724.5193 215,-703.7 193.2883,-688.1093 200.7296,-659.7 174,-659.7"/>
<polygon fill="#000000" stroke="#000000" points="291.0093,-741.3152 298.8268,-745.2958 295.0046,-741.5076 299,-741.7 299,-741.7 299,-741.7 295.0046,-741.5076 299.1732,-738.1042 291.0093,-741.3152 291.0093,-741.3152"/>
<ellipse fill="none" stroke="#000000" cx="287.813" cy="-741.1613" rx="3.2" ry="3.2"/>
</g>
<!-- interview_audit -->
<g id="node7" class="node">
<title>interview_audit</title>
<g id="a_node7"><a xlink:href="../../tables/interview_audit.html" xlink:title="interview_audit" target="_top">
<polygon fill="#ffffff" stroke="transparent" points="319.5,-632.2 319.5,-693.2 462.5,-693.2 462.5,-632.2 319.5,-632.2"/>
<polygon fill="#f5f5f5" stroke="transparent" points="320,-669.7 320,-692.7 463,-692.7 463,-669.7 320,-669.7"/>
<polygon fill="none" stroke="#000000" points="320,-669.7 320,-692.7 463,-692.7 463,-669.7 320,-669.7"/>
<text text-anchor="start" x="325" y="-678.3" font-family="Helvetica,sans-Serif" font-weight="bold" font-size="11.00" fill="#000000">interview_audit</text>
<text text-anchor="start" x="428.5219" y="-677.8" font-family="Helvetica,sans-Serif" font-size="11.00" fill="#000000">[table]</text>
<polygon fill="none" stroke="#000000" points="320,-650.7 320,-669.7 463,-669.7 463,-650.7 320,-650.7"/>
<text text-anchor="start" x="323" y="-656.8" font-family="Helvetica,sans-Serif" font-size="11.00" fill="#000000">...</text>
<polygon fill="#ffffff" stroke="transparent" points="320,-631.7 320,-650.7 390,-650.7 390,-631.7 320,-631.7"/>
<polygon fill="none" stroke="#000000" points="320,-631.7 320,-650.7 390,-650.7 390,-631.7 320,-631.7"/>
<text text-anchor="start" x="323" y="-637.8" font-family="Helvetica,sans-Serif" font-size="11.00" fill="#000000">&lt; 1</text>
<polygon fill="#ffffff" stroke="transparent" points="390,-631.7 390,-650.7 426,-650.7 426,-631.7 390,-631.7"/>
<polygon fill="none" stroke="#000000" points="390,-631.7 390,-650.7 426,-650.7 426,-631.7 390,-631.7"/>
<text text-anchor="start" x="416.8862" y="-637.8" font-family="Helvetica,sans-Serif" font-size="11.00" fill="#000000"> &#160;</text>
<polygon fill="#ffffff" stroke="transparent" points="426,-631.7 426,-650.7 463,-650.7 463,-631.7 426,-631.7"/>
<polygon fill="none" stroke="#000000" points="426,-631.7 426,-650.7 463,-650.7 463,-631.7 426,-631.7"/>
<text text-anchor="start" x="453.8862" y="-637.8" font-family="Helvetica,sans-Serif" font-size="11.00" fill="#000000"> &#160;</text>
</a>
</g>
</g>
<!-- interview_audit&#45;&gt;audit_revision -->
<g id="edge6" class="edge">
<title>interview_audit:w&#45;&gt;audit_revision:e</title>
<path fill="none" stroke="#000000" d="M305.2977,-659.7C252.2009,-659.7 233.6927,-659.7 174,-659.7"/>
<polygon fill="#000000" stroke="#000000" points="312,-659.7001 320,-663.3 316,-659.7 320,-659.7 320,-659.7 320,-659.7 316,-659.7 320,-656.1 312,-659.7001 312,-659.7001"/>
<ellipse fill="none" stroke="#000000" cx="308.8" cy="-659.7001" rx="3.2" ry="3.2"/>
</g>
<!-- investigation_audit -->
<g id="node8" class="node">
<title>investigation_audit</title>
<g id="a_node8"><a xlink:href="../../tables/investigation_audit.html" xlink:title="investigation_audit" target="_top">
<polygon fill="#ffffff" stroke="transparent" points="306.5,-550.2 306.5,-611.2 475.5,-611.2 475.5,-550.2 306.5,-550.2"/>
<polygon fill="#f5f5f5" stroke="transparent" points="307,-587.7 307,-610.7 476,-610.7 476,-587.7 307,-587.7"/>
<polygon fill="none" stroke="#000000" points="307,-587.7 307,-610.7 476,-610.7 476,-587.7 307,-587.7"/>
<text text-anchor="start" x="312" y="-596.3" font-family="Helvetica,sans-Serif" font-weight="bold" font-size="11.00" fill="#000000">investigation_audit</text>
<text text-anchor="start" x="441.5219" y="-595.8" font-family="Helvetica,sans-Serif" font-size="11.00" fill="#000000">[table]</text>
<polygon fill="none" stroke="#000000" points="307,-568.7 307,-587.7 476,-587.7 476,-568.7 307,-568.7"/>
<text text-anchor="start" x="310" y="-574.8" font-family="Helvetica,sans-Serif" font-size="11.00" fill="#000000">...</text>
<polygon fill="#ffffff" stroke="transparent" points="307,-549.7 307,-568.7 390,-568.7 390,-549.7 307,-549.7"/>
<polygon fill="none" stroke="#000000" points="307,-549.7 307,-568.7 390,-568.7 390,-549.7 307,-549.7"/>
<text text-anchor="start" x="310" y="-555.8" font-family="Helvetica,sans-Serif" font-size="11.00" fill="#000000">&lt; 1</text>
<polygon fill="#ffffff" stroke="transparent" points="390,-549.7 390,-568.7 433,-568.7 433,-549.7 390,-549.7"/>
<polygon fill="none" stroke="#000000" points="390,-549.7 390,-568.7 433,-568.7 433,-549.7 390,-549.7"/>
<text text-anchor="start" x="423.8862" y="-555.8" font-family="Helvetica,sans-Serif" font-size="11.00" fill="#000000"> &#160;</text>
<polygon fill="#ffffff" stroke="transparent" points="433,-549.7 433,-568.7 476,-568.7 476,-549.7 433,-549.7"/>
<polygon fill="none" stroke="#000000" points="433,-549.7 433,-568.7 476,-568.7 476,-549.7 433,-549.7"/>
<text text-anchor="start" x="466.8862" y="-555.8" font-family="Helvetica,sans-Serif" font-size="11.00" fill="#000000"> &#160;</text>
</a>
</g>
</g>
<!-- investigation_audit&#45;&gt;audit_revision -->
<g id="edge7" class="edge">
<title>investigation_audit:w&#45;&gt;audit_revision:e</title>
<path fill="none" stroke="#000000" d="M292.4508,-578.4447C259.1339,-582.138 248.097,-599.2135 215,-621.7 194.4492,-635.6624 198.8452,-659.7 174,-659.7"/>
<polygon fill="#000000" stroke="#000000" points="299.0105,-578.109 307.1841,-581.2953 303.0052,-577.9045 307,-577.7 307,-577.7 307,-577.7 303.0052,-577.9045 306.8159,-574.1047 299.0105,-578.109 299.0105,-578.109"/>
<ellipse fill="none" stroke="#000000" cx="295.8146" cy="-578.2726" rx="3.2" ry="3.2"/>
</g>
<!-- plan_audit -->
<g id="node9" class="node">
<title>plan_audit</title>
<g id="a_node9"><a xlink:href="../../tables/plan_audit.html" xlink:title="plan_audit" target="_top">
<polygon fill="#ffffff" stroke="transparent" points="223,-284.7 223,-528.7 559,-528.7 559,-284.7 223,-284.7"/>
<polygon fill="#f5f5f5" stroke="transparent" points="225,-503.7 225,-526.7 557,-526.7 557,-503.7 225,-503.7"/>
<polygon fill="none" stroke="#000000" points="225,-503.7 225,-526.7 557,-526.7 557,-503.7 225,-503.7"/>
<text text-anchor="start" x="230" y="-512.3" font-family="Helvetica,sans-Serif" font-weight="bold" font-size="11.00" fill="#000000">plan_audit</text>
<text text-anchor="start" x="522.0437" y="-511.8" font-family="Helvetica,sans-Serif" font-size="11.00" fill="#000000">[table]</text>
<polygon fill="none" stroke="#000000" points="225,-481.7 225,-503.7 463,-503.7 463,-481.7 225,-481.7"/>
<image xlink:href="../../images/primaryKeys.png" width="11px" height="12px" preserveAspectRatio="xMinYMin meet" x="230" y="-498.7"/>
<text text-anchor="start" x="245" y="-488.8" font-family="Helvetica,sans-Serif" font-size="11.00" fill="#000000">rev_id</text>
<polygon fill="none" stroke="#000000" points="463,-481.7 463,-503.7 557,-503.7 557,-481.7 463,-481.7"/>
<text text-anchor="start" x="466" y="-489.4" font-family="Helvetica,sans-Serif" font-size="11.00" fill="#000000">int8[19]</text>
<polygon fill="none" stroke="#000000" points="225,-459.7 225,-481.7 463,-481.7 463,-459.7 225,-459.7"/>
<text text-anchor="start" x="245" y="-466.8" font-family="Helvetica,sans-Serif" font-size="11.00" fill="#000000">rev_type</text>
<polygon fill="none" stroke="#000000" points="463,-459.7 463,-481.7 557,-481.7 557,-459.7 463,-459.7"/>
<text text-anchor="start" x="466" y="-467.4" font-family="Helvetica,sans-Serif" font-size="11.00" fill="#000000">int2[5]</text>
<polygon fill="none" stroke="#000000" points="225,-437.7 225,-459.7 463,-459.7 463,-437.7 225,-437.7"/>
<image xlink:href="../../images/primaryKeys.png" width="11px" height="12px" preserveAspectRatio="xMinYMin meet" x="230" y="-454.7"/>
<text text-anchor="start" x="245" y="-444.8" font-family="Helvetica,sans-Serif" font-size="11.00" fill="#000000">plan_id</text>
<polygon fill="none" stroke="#000000" points="463,-437.7 463,-459.7 557,-459.7 557,-437.7 463,-437.7"/>
<text text-anchor="start" x="465.9758" y="-445.4" font-family="Helvetica,sans-Serif" font-size="11.00" fill="#000000">uuid[2147483647]</text>
<polygon fill="none" stroke="#000000" points="225,-415.7 225,-437.7 463,-437.7 463,-415.7 225,-415.7"/>
<text text-anchor="start" x="245" y="-422.8" font-family="Helvetica,sans-Serif" font-size="11.00" fill="#000000">case_manager</text>
<polygon fill="none" stroke="#000000" points="463,-415.7 463,-437.7 557,-437.7 557,-415.7 463,-415.7"/>
<text text-anchor="start" x="466" y="-423.4" font-family="Helvetica,sans-Serif" font-size="11.00" fill="#000000">varchar[100]</text>
<polygon fill="none" stroke="#000000" points="225,-393.7 225,-415.7 463,-415.7 463,-393.7 225,-393.7"/>
<text text-anchor="start" x="245" y="-400.8" font-family="Helvetica,sans-Serif" font-size="11.00" fill="#000000">reason_for_plan</text>
<polygon fill="none" stroke="#000000" points="463,-393.7 463,-415.7 557,-415.7 557,-393.7 463,-393.7"/>
<text text-anchor="start" x="466" y="-401.4" font-family="Helvetica,sans-Serif" font-size="11.00" fill="#000000">varchar[240]</text>
<polygon fill="none" stroke="#000000" points="225,-371.7 225,-393.7 463,-393.7 463,-371.7 225,-371.7"/>
<text text-anchor="start" x="245" y="-378.8" font-family="Helvetica,sans-Serif" font-size="11.00" fill="#000000">first_case_review_date</text>
<polygon fill="none" stroke="#000000" points="463,-371.7 463,-393.7 557,-393.7 557,-371.7 463,-371.7"/>
<text text-anchor="start" x="466" y="-379.4" font-family="Helvetica,sans-Serif" font-size="11.00" fill="#000000">date[13]</text>
<polygon fill="none" stroke="#000000" points="225,-349.7 225,-371.7 463,-371.7 463,-349.7 225,-349.7"/>
<text text-anchor="start" x="245" y="-356.8" font-family="Helvetica,sans-Serif" font-size="11.00" fill="#000000">case_manager_modified</text>
<polygon fill="none" stroke="#000000" points="463,-349.7 463,-371.7 557,-371.7 557,-349.7 463,-349.7"/>
<text text-anchor="start" x="466" y="-357.4" font-family="Helvetica,sans-Serif" font-size="11.00" fill="#000000">bool[1]</text>
<polygon fill="none" stroke="#000000" points="225,-327.7 225,-349.7 463,-349.7 463,-327.7 225,-327.7"/>
<text text-anchor="start" x="245" y="-334.8" font-family="Helvetica,sans-Serif" font-size="11.00" fill="#000000">reason_for_plan_modified</text>
<polygon fill="none" stroke="#000000" points="463,-327.7 463,-349.7 557,-349.7 557,-327.7 463,-327.7"/>
<text text-anchor="start" x="466" y="-335.4" font-family="Helvetica,sans-Serif" font-size="11.00" fill="#000000">bool[1]</text>
<polygon fill="none" stroke="#000000" points="225,-305.7 225,-327.7 463,-327.7 463,-305.7 225,-305.7"/>
<text text-anchor="start" x="245" y="-312.8" font-family="Helvetica,sans-Serif" font-size="11.00" fill="#000000">first_case_review_date_modified</text>
<polygon fill="none" stroke="#000000" points="463,-305.7 463,-327.7 557,-327.7 557,-305.7 463,-305.7"/>
<text text-anchor="start" x="466" y="-313.4" font-family="Helvetica,sans-Serif" font-size="11.00" fill="#000000">bool[1]</text>
<polygon fill="#ffffff" stroke="transparent" points="225,-286.7 225,-305.7 348,-305.7 348,-286.7 225,-286.7"/>
<polygon fill="none" stroke="#000000" points="225,-286.7 225,-305.7 348,-305.7 348,-286.7 225,-286.7"/>
<text text-anchor="start" x="228" y="-292.8" font-family="Helvetica,sans-Serif" font-size="11.00" fill="#000000">&lt; 1</text>
<polygon fill="#ffffff" stroke="transparent" points="348,-286.7 348,-305.7 463,-305.7 463,-286.7 348,-286.7"/>
<polygon fill="none" stroke="#000000" points="348,-286.7 348,-305.7 463,-305.7 463,-286.7 348,-286.7"/>
<text text-anchor="start" x="453.8862" y="-292.8" font-family="Helvetica,sans-Serif" font-size="11.00" fill="#000000"> &#160;</text>
<polygon fill="#ffffff" stroke="transparent" points="463,-286.7 463,-305.7 557,-305.7 557,-286.7 463,-286.7"/>
<polygon fill="none" stroke="#000000" points="463,-286.7 463,-305.7 557,-305.7 557,-286.7 463,-286.7"/>
<text text-anchor="start" x="538.4053" y="-292.8" font-family="Helvetica,sans-Serif" font-size="11.00" fill="#000000">0 &gt;</text>
<polygon fill="none" stroke="#000000" stroke-width="2" points="224,-285.7 224,-527.7 558,-527.7 558,-285.7 224,-285.7"/>
</a>
</g>
</g>
<!-- plan_audit&#45;&gt;audit_revision -->
<g id="edge8" class="edge">
<title>plan_audit:w&#45;&gt;audit_revision:e</title>
<path fill="none" stroke="#000000" d="M210.5764,-495.3232C161.8613,-516.5692 245.8463,-659.7 174,-659.7"/>
<polygon fill="#000000" stroke="#000000" points="217.1291,-494.1315 225.6442,-496.2419 221.0646,-493.4158 225,-492.7 225,-492.7 225,-492.7 221.0646,-493.4158 224.3558,-489.1581 217.1291,-494.1315 217.1291,-494.1315"/>
<ellipse fill="none" stroke="#000000" cx="213.9808" cy="-494.7041" rx="3.2" ry="3.2"/>
</g>
<!-- referral_audit -->
<g id="node10" class="node">
<title>referral_audit</title>
<g id="a_node10"><a xlink:href="../../tables/referral_audit.html" xlink:title="referral_audit" target="_top">
<polygon fill="#ffffff" stroke="transparent" points="325.5,-202.2 325.5,-263.2 456.5,-263.2 456.5,-202.2 325.5,-202.2"/>
<polygon fill="#f5f5f5" stroke="transparent" points="326,-239.7 326,-262.7 457,-262.7 457,-239.7 326,-239.7"/>
<polygon fill="none" stroke="#000000" points="326,-239.7 326,-262.7 457,-262.7 457,-239.7 326,-239.7"/>
<text text-anchor="start" x="331" y="-248.3" font-family="Helvetica,sans-Serif" font-weight="bold" font-size="11.00" fill="#000000">referral_audit</text>
<text text-anchor="start" x="422.5219" y="-247.8" font-family="Helvetica,sans-Serif" font-size="11.00" fill="#000000">[table]</text>
<polygon fill="none" stroke="#000000" points="326,-220.7 326,-239.7 457,-239.7 457,-220.7 326,-220.7"/>
<text text-anchor="start" x="329" y="-226.8" font-family="Helvetica,sans-Serif" font-size="11.00" fill="#000000">...</text>
<polygon fill="#ffffff" stroke="transparent" points="326,-201.7 326,-220.7 390,-220.7 390,-201.7 326,-201.7"/>
<polygon fill="none" stroke="#000000" points="326,-201.7 326,-220.7 390,-220.7 390,-201.7 326,-201.7"/>
<text text-anchor="start" x="329" y="-207.8" font-family="Helvetica,sans-Serif" font-size="11.00" fill="#000000">&lt; 1</text>
<polygon fill="#ffffff" stroke="transparent" points="390,-201.7 390,-220.7 423,-220.7 423,-201.7 390,-201.7"/>
<polygon fill="none" stroke="#000000" points="390,-201.7 390,-220.7 423,-220.7 423,-201.7 390,-201.7"/>
<text text-anchor="start" x="413.8862" y="-207.8" font-family="Helvetica,sans-Serif" font-size="11.00" fill="#000000"> &#160;</text>
<polygon fill="#ffffff" stroke="transparent" points="423,-201.7 423,-220.7 457,-220.7 457,-201.7 423,-201.7"/>
<polygon fill="none" stroke="#000000" points="423,-201.7 423,-220.7 457,-220.7 457,-201.7 423,-201.7"/>
<text text-anchor="start" x="447.8862" y="-207.8" font-family="Helvetica,sans-Serif" font-size="11.00" fill="#000000"> &#160;</text>
</a>
</g>
</g>
<!-- referral_audit&#45;&gt;audit_revision -->
<g id="edge9" class="edge">
<title>referral_audit:w&#45;&gt;audit_revision:e</title>
<path fill="none" stroke="#000000" d="M311.4424,-229.8013C267.7848,-230.543 243.9742,-236.2575 215,-274.7 163.2138,-343.4092 260.0393,-659.7 174,-659.7"/>
<polygon fill="#000000" stroke="#000000" points="318.0002,-229.7557 326.0251,-233.2999 322.0001,-229.7279 326,-229.7 326,-229.7 326,-229.7 322.0001,-229.7279 325.9749,-226.1001 318.0002,-229.7557 318.0002,-229.7557"/>
<ellipse fill="none" stroke="#000000" cx="314.8003" cy="-229.778" rx="3.2" ry="3.2"/>
</g>
<!-- review_audit -->
<g id="node11" class="node">
<title>review_audit</title>
<g id="a_node11"><a xlink:href="../../tables/review_audit.html" xlink:title="review_audit" target="_top">
<polygon fill="#ffffff" stroke="transparent" points="328.5,-120.2 328.5,-181.2 453.5,-181.2 453.5,-120.2 328.5,-120.2"/>
<polygon fill="#f5f5f5" stroke="transparent" points="329,-157.7 329,-180.7 454,-180.7 454,-157.7 329,-157.7"/>
<polygon fill="none" stroke="#000000" points="329,-157.7 329,-180.7 454,-180.7 454,-157.7 329,-157.7"/>
<text text-anchor="start" x="334" y="-166.3" font-family="Helvetica,sans-Serif" font-weight="bold" font-size="11.00" fill="#000000">review_audit</text>
<text text-anchor="start" x="419.5219" y="-165.8" font-family="Helvetica,sans-Serif" font-size="11.00" fill="#000000">[table]</text>
<polygon fill="none" stroke="#000000" points="329,-138.7 329,-157.7 454,-157.7 454,-138.7 329,-138.7"/>
<text text-anchor="start" x="332" y="-144.8" font-family="Helvetica,sans-Serif" font-size="11.00" fill="#000000">...</text>
<polygon fill="#ffffff" stroke="transparent" points="329,-119.7 329,-138.7 390,-138.7 390,-119.7 329,-119.7"/>
<polygon fill="none" stroke="#000000" points="329,-119.7 329,-138.7 390,-138.7 390,-119.7 329,-119.7"/>
<text text-anchor="start" x="332" y="-125.8" font-family="Helvetica,sans-Serif" font-size="11.00" fill="#000000">&lt; 1</text>
<polygon fill="#ffffff" stroke="transparent" points="390,-119.7 390,-138.7 422,-138.7 422,-119.7 390,-119.7"/>
<polygon fill="none" stroke="#000000" points="390,-119.7 390,-138.7 422,-138.7 422,-119.7 390,-119.7"/>
<text text-anchor="start" x="412.8862" y="-125.8" font-family="Helvetica,sans-Serif" font-size="11.00" fill="#000000"> &#160;</text>
<polygon fill="#ffffff" stroke="transparent" points="422,-119.7 422,-138.7 454,-138.7 454,-119.7 422,-119.7"/>
<polygon fill="none" stroke="#000000" points="422,-119.7 422,-138.7 454,-138.7 454,-119.7 422,-119.7"/>
<text text-anchor="start" x="444.8862" y="-125.8" font-family="Helvetica,sans-Serif" font-size="11.00" fill="#000000"> &#160;</text>
</a>
</g>
</g>
<!-- review_audit&#45;&gt;audit_revision -->
<g id="edge10" class="edge">
<title>review_audit:w&#45;&gt;audit_revision:e</title>
<path fill="none" stroke="#000000" d="M314.4173,-147.7506C269.5706,-148.1884 244.5865,-152.3674 215,-191.7 183.6215,-233.415 226.1992,-659.7 174,-659.7"/>
<polygon fill="#000000" stroke="#000000" points="321,-147.7278 329.0125,-151.3 325,-147.7139 329,-147.7 329,-147.7 329,-147.7 325,-147.7139 328.9875,-144.1 321,-147.7278 321,-147.7278"/>
<ellipse fill="none" stroke="#000000" cx="317.8001" cy="-147.7389" rx="3.2" ry="3.2"/>
</g>
<!-- safer_custody_screening_outcome_audit -->
<g id="node12" class="node">
<title>safer_custody_screening_outcome_audit</title>
<g id="a_node12"><a xlink:href="../../tables/safer_custody_screening_outcome_audit.html" xlink:title="safer_custody_screening_outcome_audit" target="_top">
<polygon fill="#ffffff" stroke="transparent" points="236,-38.2 236,-99.2 546,-99.2 546,-38.2 236,-38.2"/>
<polygon fill="#f5f5f5" stroke="transparent" points="236,-75.7 236,-98.7 546,-98.7 546,-75.7 236,-75.7"/>
<polygon fill="none" stroke="#000000" points="236,-75.7 236,-98.7 546,-98.7 546,-75.7 236,-75.7"/>
<text text-anchor="start" x="241" y="-84.3" font-family="Helvetica,sans-Serif" font-weight="bold" font-size="11.00" fill="#000000">safer_custody_screening_outcome_audit</text>
<text text-anchor="start" x="511.5219" y="-83.8" font-family="Helvetica,sans-Serif" font-size="11.00" fill="#000000">[table]</text>
<polygon fill="none" stroke="#000000" points="236,-56.7 236,-75.7 546,-75.7 546,-56.7 236,-56.7"/>
<text text-anchor="start" x="239" y="-62.8" font-family="Helvetica,sans-Serif" font-size="11.00" fill="#000000">...</text>
<polygon fill="#ffffff" stroke="transparent" points="236,-37.7 236,-56.7 389,-56.7 389,-37.7 236,-37.7"/>
<polygon fill="none" stroke="#000000" points="236,-37.7 236,-56.7 389,-56.7 389,-37.7 236,-37.7"/>
<text text-anchor="start" x="239" y="-43.8" font-family="Helvetica,sans-Serif" font-size="11.00" fill="#000000">&lt; 1</text>
<polygon fill="#ffffff" stroke="transparent" points="389,-37.7 389,-56.7 467,-56.7 467,-37.7 389,-37.7"/>
<polygon fill="none" stroke="#000000" points="389,-37.7 389,-56.7 467,-56.7 467,-37.7 389,-37.7"/>
<text text-anchor="start" x="457.8862" y="-43.8" font-family="Helvetica,sans-Serif" font-size="11.00" fill="#000000"> &#160;</text>
<polygon fill="#ffffff" stroke="transparent" points="467,-37.7 467,-56.7 546,-56.7 546,-37.7 467,-37.7"/>
<polygon fill="none" stroke="#000000" points="467,-37.7 467,-56.7 546,-56.7 546,-37.7 467,-37.7"/>
<text text-anchor="start" x="536.8862" y="-43.8" font-family="Helvetica,sans-Serif" font-size="11.00" fill="#000000"> &#160;</text>
</a>
</g>
</g>
<!-- safer_custody_screening_outcome_audit&#45;&gt;audit_revision -->
<g id="edge11" class="edge">
<title>safer_custody_screening_outcome_audit:w&#45;&gt;audit_revision:e</title>
<path fill="none" stroke="#000000" d="M223.9402,-74.097C178.9084,-146.2946 235.6927,-659.7 174,-659.7"/>
<polygon fill="#000000" stroke="#000000" points="229.4347,-70.2713 238.0571,-68.6544 232.7173,-67.9857 236,-65.7 236,-65.7 236,-65.7 232.7173,-67.9857 233.9429,-62.7456 229.4347,-70.2713 229.4347,-70.2713"/>
<ellipse fill="none" stroke="#000000" cx="226.8086" cy="-72.0998" rx="3.2" ry="3.2"/>
</g>
</g>
</svg>
