<?xml version="1.0" encoding="UTF-8" standalone="no"?>
<!DOCTYPE svg PUBLIC "-//W3C//DTD SVG 1.1//EN"
 "http://www.w3.org/Graphics/SVG/1.1/DTD/svg11.dtd">
<!-- Generated by graphviz version 2.40.1 (20161225.0304)
 -->
<!-- Title: twoDegreesRelationshipsDiagramImplied Pages: 1 -->
<svg width="1156pt" height="558pt"
 viewBox="0.00 0.00 1156.00 558.25" xmlns="http://www.w3.org/2000/svg" xmlns:xlink="http://www.w3.org/1999/xlink">
<g id="graph0" class="graph" transform="scale(1 1) rotate(0) translate(4 554.2453)">
<title>twoDegreesRelationshipsDiagramImplied</title>
<polygon fill="#ffffff" stroke="transparent" points="-4,4 -4,-554.2453 1152,-554.2453 1152,4 -4,4"/>
<text text-anchor="middle" x="72.4936" y="-7.3" font-family="Helvetica,sans-Serif" font-size="11.00" fill="#000000">Generated by SchemaSpy</text>
<!-- attendee -->
<g id="node1" class="node">
<title>attendee</title>
<g id="a_node1"><a xlink:href="../../tables/attendee.html" xlink:title="attendee" target="_top">
<polygon fill="#ffffff" stroke="transparent" points="1040,-425.2 1040,-486.2 1140,-486.2 1140,-425.2 1040,-425.2"/>
<polygon fill="#f5f5f5" stroke="transparent" points="1040,-462.7 1040,-485.7 1140,-485.7 1140,-462.7 1040,-462.7"/>
<polygon fill="none" stroke="#000000" points="1040,-462.7 1040,-485.7 1140,-485.7 1140,-462.7 1040,-462.7"/>
<text text-anchor="start" x="1045" y="-471.3" font-family="Helvetica,sans-Serif" font-weight="bold" font-size="11.00" fill="#000000">attendee</text>
<text text-anchor="start" x="1105.5219" y="-470.8" font-family="Helvetica,sans-Serif" font-size="11.00" fill="#000000">[table]</text>
<polygon fill="none" stroke="#000000" points="1040,-443.7 1040,-462.7 1140,-462.7 1140,-443.7 1040,-443.7"/>
<text text-anchor="start" x="1043" y="-449.8" font-family="Helvetica,sans-Serif" font-size="11.00" fill="#000000">...</text>
<polygon fill="#ffffff" stroke="transparent" points="1040,-424.7 1040,-443.7 1088,-443.7 1088,-424.7 1040,-424.7"/>
<polygon fill="none" stroke="#000000" points="1040,-424.7 1040,-443.7 1088,-443.7 1088,-424.7 1040,-424.7"/>
<text text-anchor="start" x="1043" y="-430.8" font-family="Helvetica,sans-Serif" font-size="11.00" fill="#000000">&lt; 2</text>
<polygon fill="#ffffff" stroke="transparent" points="1088,-424.7 1088,-443.7 1114,-443.7 1114,-424.7 1088,-424.7"/>
<polygon fill="none" stroke="#000000" points="1088,-424.7 1088,-443.7 1114,-443.7 1114,-424.7 1088,-424.7"/>
<text text-anchor="start" x="1104.8862" y="-430.8" font-family="Helvetica,sans-Serif" font-size="11.00" fill="#000000"> &#160;</text>
<polygon fill="#ffffff" stroke="transparent" points="1114,-424.7 1114,-443.7 1140,-443.7 1140,-424.7 1114,-424.7"/>
<polygon fill="none" stroke="#000000" points="1114,-424.7 1114,-443.7 1140,-443.7 1140,-424.7 1114,-424.7"/>
<text text-anchor="start" x="1130.8862" y="-430.8" font-family="Helvetica,sans-Serif" font-size="11.00" fill="#000000"> &#160;</text>
</a>
</g>
</g>
<!-- audit_revision -->
<g id="node2" class="node">
<title>audit_revision</title>
<g id="a_node2"><a xlink:href="../../tables/audit_revision.html" xlink:title="audit_revision" target="_top">
<polygon fill="#ffffff" stroke="transparent" points="18,-378.2 18,-439.2 152,-439.2 152,-378.2 18,-378.2"/>
<polygon fill="#f5f5f5" stroke="transparent" points="18,-415.7 18,-438.7 152,-438.7 152,-415.7 18,-415.7"/>
<polygon fill="none" stroke="#000000" points="18,-415.7 18,-438.7 152,-438.7 152,-415.7 18,-415.7"/>
<text text-anchor="start" x="23" y="-424.3" font-family="Helvetica,sans-Serif" font-weight="bold" font-size="11.00" fill="#000000">audit_revision</text>
<text text-anchor="start" x="117.5219" y="-423.8" font-family="Helvetica,sans-Serif" font-size="11.00" fill="#000000">[table]</text>
<polygon fill="none" stroke="#000000" points="18,-396.7 18,-415.7 152,-415.7 152,-396.7 18,-396.7"/>
<text text-anchor="start" x="21" y="-402.8" font-family="Helvetica,sans-Serif" font-size="11.00" fill="#000000">...</text>
<polygon fill="#ffffff" stroke="transparent" points="18,-377.7 18,-396.7 71,-396.7 71,-377.7 18,-377.7"/>
<polygon fill="none" stroke="#000000" points="18,-377.7 18,-396.7 71,-396.7 71,-377.7 18,-377.7"/>
<text text-anchor="start" x="21" y="-383.8" font-family="Helvetica,sans-Serif" font-size="11.00" fill="#000000"> &#160;</text>
<polygon fill="#ffffff" stroke="transparent" points="71,-377.7 71,-396.7 104,-396.7 104,-377.7 71,-377.7"/>
<polygon fill="none" stroke="#000000" points="71,-377.7 71,-396.7 104,-396.7 104,-377.7 71,-377.7"/>
<text text-anchor="start" x="94.8862" y="-383.8" font-family="Helvetica,sans-Serif" font-size="11.00" fill="#000000"> &#160;</text>
<polygon fill="#ffffff" stroke="transparent" points="104,-377.7 104,-396.7 152,-396.7 152,-377.7 104,-377.7"/>
<polygon fill="none" stroke="#000000" points="104,-377.7 104,-396.7 152,-396.7 152,-377.7 104,-377.7"/>
<text text-anchor="start" x="127.2904" y="-383.8" font-family="Helvetica,sans-Serif" font-size="11.00" fill="#000000">32 &gt;</text>
</a>
</g>
</g>
<!-- attendee&#45;&gt;audit_revision -->
<g id="edge1" class="edge">
<title>attendee:w&#45;&gt;audit_revision:e</title>
<path fill="none" stroke="#000000" stroke-dasharray="5,2" d="M1029.7168,-454.3565C1002.8544,-464.743 1032.5007,-521.1483 999,-542.7 981.3459,-554.0573 549.2907,-551.5447 462,-539.7 343.9557,-523.6823 302.4525,-536.276 203,-470.7 172.3444,-450.4866 188.7198,-405.7 152,-405.7"/>
<polygon fill="#000000" stroke="#000000" points="1038.574,-448.8781 1039.8464,-456.7763 1038.2667,-457.0308 1036.9944,-449.1326 1038.574,-448.8781"/>
<polyline fill="none" stroke="#000000" points="1040,-452.7 1036.0509,-453.3362 "/>
<ellipse fill="none" stroke="#000000" cx="1032.8916" cy="-453.8451" rx="3.2" ry="3.2"/>
</g>
<!-- review -->
<g id="node3" class="node">
<title>review</title>
<g id="a_node3"><a xlink:href="../../tables/review.html" xlink:title="review" target="_top">
<polygon fill="#ffffff" stroke="transparent" points="790,-235.2 790,-384.2 991,-384.2 991,-235.2 790,-235.2"/>
<polygon fill="#f5f5f5" stroke="transparent" points="790.5,-360.7 790.5,-383.7 991.5,-383.7 991.5,-360.7 790.5,-360.7"/>
<polygon fill="none" stroke="#000000" points="790.5,-360.7 790.5,-383.7 991.5,-383.7 991.5,-360.7 790.5,-360.7"/>
<text text-anchor="start" x="795.5" y="-369.3" font-family="Helvetica,sans-Serif" font-weight="bold" font-size="11.00" fill="#000000">review</text>
<text text-anchor="start" x="956.5437" y="-368.8" font-family="Helvetica,sans-Serif" font-size="11.00" fill="#000000">[table]</text>
<polygon fill="none" stroke="#000000" points="790.5,-338.7 790.5,-360.7 991.5,-360.7 991.5,-338.7 790.5,-338.7"/>
<image xlink:href="../../images/primaryKeys.png" width="11px" height="12px" preserveAspectRatio="xMinYMin meet" x="795.5" y="-355.7"/>
<text text-anchor="start" x="810.5" y="-345.8" font-family="Helvetica,sans-Serif" font-size="11.00" fill="#000000">review_id</text>
<polygon fill="#ffffff" stroke="transparent" points="790.5,-316.7 790.5,-338.7 991.5,-338.7 991.5,-316.7 790.5,-316.7"/>
<polygon fill="none" stroke="#000000" points="790.5,-316.7 790.5,-338.7 991.5,-338.7 991.5,-316.7 790.5,-316.7"/>
<image xlink:href="../../images/foreignKeys.png" width="11px" height="12px" preserveAspectRatio="xMinYMin meet" x="795.5" y="-333.7"/>
<text text-anchor="start" x="810.5" y="-323.8" font-family="Helvetica,sans-Serif" font-size="11.00" fill="#000000">plan_id</text>
<polygon fill="#ffffff" stroke="transparent" points="790.5,-294.7 790.5,-316.7 991.5,-316.7 991.5,-294.7 790.5,-294.7"/>
<polygon fill="none" stroke="#000000" points="790.5,-294.7 790.5,-316.7 991.5,-316.7 991.5,-294.7 790.5,-294.7"/>
<text text-anchor="start" x="810.5" y="-301.8" font-family="Helvetica,sans-Serif" font-size="11.00" fill="#000000">review_sequence</text>
<polygon fill="#ffffff" stroke="transparent" points="790.5,-272.7 790.5,-294.7 991.5,-294.7 991.5,-272.7 790.5,-272.7"/>
<polygon fill="none" stroke="#000000" points="790.5,-272.7 790.5,-294.7 991.5,-294.7 991.5,-272.7 790.5,-272.7"/>
<image xlink:href="../../images/foreignKeys.png" width="11px" height="12px" preserveAspectRatio="xMinYMin meet" x="795.5" y="-289.7"/>
<text text-anchor="start" x="810.5" y="-279.8" font-family="Helvetica,sans-Serif" font-size="11.00" fill="#000000">legacy_id</text>
<polygon fill="none" stroke="#000000" points="790.5,-253.7 790.5,-272.7 991.5,-272.7 991.5,-253.7 790.5,-253.7"/>
<text text-anchor="start" x="793.5" y="-259.8" font-family="Helvetica,sans-Serif" font-size="11.00" fill="#000000">...</text>
<polygon fill="#ffffff" stroke="transparent" points="790.5,-234.7 790.5,-253.7 884.5,-253.7 884.5,-234.7 790.5,-234.7"/>
<polygon fill="none" stroke="#000000" points="790.5,-234.7 790.5,-253.7 884.5,-253.7 884.5,-234.7 790.5,-234.7"/>
<text text-anchor="start" x="793.5" y="-240.8" font-family="Helvetica,sans-Serif" font-size="11.00" fill="#000000">&lt; 2</text>
<polygon fill="#ffffff" stroke="transparent" points="884.5,-234.7 884.5,-253.7 933.5,-253.7 933.5,-234.7 884.5,-234.7"/>
<polygon fill="none" stroke="#000000" points="884.5,-234.7 884.5,-253.7 933.5,-253.7 933.5,-234.7 884.5,-234.7"/>
<text text-anchor="start" x="924.3862" y="-240.8" font-family="Helvetica,sans-Serif" font-size="11.00" fill="#000000"> &#160;</text>
<polygon fill="#ffffff" stroke="transparent" points="933.5,-234.7 933.5,-253.7 991.5,-253.7 991.5,-234.7 933.5,-234.7"/>
<polygon fill="none" stroke="#000000" points="933.5,-234.7 933.5,-253.7 991.5,-253.7 991.5,-234.7 933.5,-234.7"/>
<text text-anchor="start" x="972.9053" y="-240.8" font-family="Helvetica,sans-Serif" font-size="11.00" fill="#000000">1 &gt;</text>
</a>
</g>
</g>
<!-- attendee&#45;&gt;review -->
<g id="edge2" class="edge">
<title>attendee:w&#45;&gt;review:e</title>
<path fill="none" stroke="#000000" d="M1026.1345,-448.7881C1000.3336,-429.9739 1036.1693,-349.7 991.5,-349.7"/>
<polygon fill="#000000" stroke="#000000" points="1032.3006,-450.5277 1039.0225,-456.1647 1036.1503,-451.6138 1040,-452.7 1040,-452.7 1040,-452.7 1036.1503,-451.6138 1040.9775,-449.2353 1032.3006,-450.5277 1032.3006,-450.5277"/>
<ellipse fill="none" stroke="#000000" cx="1029.2208" cy="-449.6587" rx="3.2" ry="3.2"/>
</g>
<!-- review&#45;&gt;audit_revision -->
<g id="edge14" class="edge">
<title>review:w&#45;&gt;audit_revision:e</title>
<path fill="none" stroke="#000000" stroke-dasharray="5,2" d="M779.9892,-283.6716C642.4551,-282.9255 601.9867,-267.9727 462,-294.7 318.2528,-322.1453 298.3438,-405.7 152,-405.7"/>
<polygon fill="#000000" stroke="#000000" points="789.7109,-279.6978 789.6891,-287.6978 788.0891,-287.6935 788.1109,-279.6935 789.7109,-279.6978"/>
<polyline fill="none" stroke="#000000" points="790.5,-283.7 786.5,-283.6891 "/>
<ellipse fill="none" stroke="#000000" cx="783.3" cy="-283.6804" rx="3.2" ry="3.2"/>
</g>
<!-- plan -->
<g id="node8" class="node">
<title>plan</title>
<g id="a_node8"><a xlink:href="../../tables/plan.html" xlink:title="plan" target="_top">
<polygon fill="#ffffff" stroke="transparent" points="470,-305.7 470,-505.7 741,-505.7 741,-305.7 470,-305.7"/>
<polygon fill="#f5f5f5" stroke="transparent" points="472.5,-480.7 472.5,-503.7 739.5,-503.7 739.5,-480.7 472.5,-480.7"/>
<polygon fill="none" stroke="#000000" points="472.5,-480.7 472.5,-503.7 739.5,-503.7 739.5,-480.7 472.5,-480.7"/>
<text text-anchor="start" x="477.5" y="-489.3" font-family="Helvetica,sans-Serif" font-weight="bold" font-size="11.00" fill="#000000">plan</text>
<text text-anchor="start" x="704.5437" y="-488.8" font-family="Helvetica,sans-Serif" font-size="11.00" fill="#000000">[table]</text>
<polygon fill="none" stroke="#000000" points="472.5,-458.7 472.5,-480.7 645.5,-480.7 645.5,-458.7 472.5,-458.7"/>
<image xlink:href="../../images/primaryKeys.png" width="11px" height="12px" preserveAspectRatio="xMinYMin meet" x="477.5" y="-475.7"/>
<text text-anchor="start" x="492.5" y="-465.8" font-family="Helvetica,sans-Serif" font-size="11.00" fill="#000000">plan_id</text>
<polygon fill="none" stroke="#000000" points="645.5,-458.7 645.5,-480.7 739.5,-480.7 739.5,-458.7 645.5,-458.7"/>
<text text-anchor="start" x="648.4758" y="-466.4" font-family="Helvetica,sans-Serif" font-size="11.00" fill="#000000">uuid[2147483647]</text>
<polygon fill="none" stroke="#000000" points="472.5,-436.7 472.5,-458.7 645.5,-458.7 645.5,-436.7 472.5,-436.7"/>
<text text-anchor="start" x="492.5" y="-443.8" font-family="Helvetica,sans-Serif" font-size="11.00" fill="#000000">case_manager</text>
<polygon fill="none" stroke="#000000" points="645.5,-436.7 645.5,-458.7 739.5,-458.7 739.5,-436.7 645.5,-436.7"/>
<text text-anchor="start" x="648.5" y="-444.4" font-family="Helvetica,sans-Serif" font-size="11.00" fill="#000000">varchar[100]</text>
<polygon fill="none" stroke="#000000" points="472.5,-414.7 472.5,-436.7 645.5,-436.7 645.5,-414.7 472.5,-414.7"/>
<text text-anchor="start" x="492.5" y="-421.8" font-family="Helvetica,sans-Serif" font-size="11.00" fill="#000000">reason_for_plan</text>
<polygon fill="none" stroke="#000000" points="645.5,-414.7 645.5,-436.7 739.5,-436.7 739.5,-414.7 645.5,-414.7"/>
<text text-anchor="start" x="648.5" y="-422.4" font-family="Helvetica,sans-Serif" font-size="11.00" fill="#000000">varchar[240]</text>
<polygon fill="none" stroke="#000000" points="472.5,-392.7 472.5,-414.7 645.5,-414.7 645.5,-392.7 472.5,-392.7"/>
<text text-anchor="start" x="492.5" y="-399.8" font-family="Helvetica,sans-Serif" font-size="11.00" fill="#000000">first_case_review_date</text>
<polygon fill="none" stroke="#000000" points="645.5,-392.7 645.5,-414.7 739.5,-414.7 739.5,-392.7 645.5,-392.7"/>
<text text-anchor="start" x="648.5" y="-400.4" font-family="Helvetica,sans-Serif" font-size="11.00" fill="#000000">date[13]</text>
<polygon fill="none" stroke="#000000" points="472.5,-370.7 472.5,-392.7 645.5,-392.7 645.5,-370.7 472.5,-370.7"/>
<text text-anchor="start" x="492.5" y="-377.8" font-family="Helvetica,sans-Serif" font-size="11.00" fill="#000000">version</text>
<polygon fill="none" stroke="#000000" points="645.5,-370.7 645.5,-392.7 739.5,-392.7 739.5,-370.7 645.5,-370.7"/>
<text text-anchor="start" x="648.5" y="-378.4" font-family="Helvetica,sans-Serif" font-size="11.00" fill="#000000">int4[10]</text>
<polygon fill="#ffffff" stroke="transparent" points="472.5,-348.7 472.5,-370.7 645.5,-370.7 645.5,-348.7 472.5,-348.7"/>
<polygon fill="none" stroke="#000000" points="472.5,-348.7 472.5,-370.7 645.5,-370.7 645.5,-348.7 472.5,-348.7"/>
<text text-anchor="start" x="492.5" y="-355.8" font-family="Helvetica,sans-Serif" font-size="11.00" fill="#000000">next_review_date</text>
<polygon fill="none" stroke="#000000" points="645.5,-348.7 645.5,-370.7 739.5,-370.7 739.5,-348.7 645.5,-348.7"/>
<text text-anchor="start" x="648.5" y="-356.4" font-family="Helvetica,sans-Serif" font-size="11.00" fill="#000000">date[13]</text>
<polygon fill="none" stroke="#000000" points="472.5,-326.7 472.5,-348.7 645.5,-348.7 645.5,-326.7 472.5,-326.7"/>
<text text-anchor="start" x="492.5" y="-333.8" font-family="Helvetica,sans-Serif" font-size="11.00" fill="#000000">closed_date</text>
<polygon fill="none" stroke="#000000" points="645.5,-326.7 645.5,-348.7 739.5,-348.7 739.5,-326.7 645.5,-326.7"/>
<text text-anchor="start" x="648.5" y="-334.4" font-family="Helvetica,sans-Serif" font-size="11.00" fill="#000000">date[13]</text>
<polygon fill="#ffffff" stroke="transparent" points="472.5,-307.7 472.5,-326.7 563.5,-326.7 563.5,-307.7 472.5,-307.7"/>
<polygon fill="none" stroke="#000000" points="472.5,-307.7 472.5,-326.7 563.5,-326.7 563.5,-307.7 472.5,-307.7"/>
<text text-anchor="start" x="475.5" y="-313.8" font-family="Helvetica,sans-Serif" font-size="11.00" fill="#000000">&lt; 1</text>
<polygon fill="#ffffff" stroke="transparent" points="563.5,-307.7 563.5,-326.7 645.5,-326.7 645.5,-307.7 563.5,-307.7"/>
<polygon fill="none" stroke="#000000" points="563.5,-307.7 563.5,-326.7 645.5,-326.7 645.5,-307.7 563.5,-307.7"/>
<text text-anchor="start" x="636.3862" y="-313.8" font-family="Helvetica,sans-Serif" font-size="11.00" fill="#000000"> &#160;</text>
<polygon fill="#ffffff" stroke="transparent" points="645.5,-307.7 645.5,-326.7 739.5,-326.7 739.5,-307.7 645.5,-307.7"/>
<polygon fill="none" stroke="#000000" points="645.5,-307.7 645.5,-326.7 739.5,-326.7 739.5,-307.7 645.5,-307.7"/>
<text text-anchor="start" x="720.9053" y="-313.8" font-family="Helvetica,sans-Serif" font-size="11.00" fill="#000000">2 &gt;</text>
<polygon fill="none" stroke="#000000" stroke-width="2" points="471,-306.7 471,-504.7 740,-504.7 740,-306.7 471,-306.7"/>
</a>
</g>
</g>
<!-- review&#45;&gt;plan -->
<g id="edge15" class="edge">
<title>review:w&#45;&gt;plan:e</title>
<path fill="none" stroke="#000000" d="M776.3482,-330.6659C736.6184,-351.0575 800.7953,-469.7 739.5,-469.7"/>
<polygon fill="#000000" stroke="#000000" points="782.6701,-329.341 791.2384,-331.2235 786.5851,-328.5205 790.5,-327.7 790.5,-327.7 790.5,-327.7 786.5851,-328.5205 789.7616,-324.1765 782.6701,-329.341 782.6701,-329.341"/>
<ellipse fill="none" stroke="#000000" cx="779.5381" cy="-329.9974" rx="3.2" ry="3.2"/>
</g>
<!-- csip_record -->
<g id="node4" class="node">
<title>csip_record</title>
<g id="a_node4"><a xlink:href="../../tables/csip_record.html" xlink:title="csip_record" target="_top">
<polygon fill="#ffffff" stroke="transparent" points="211,-108.2 211,-257.2 421,-257.2 421,-108.2 211,-108.2"/>
<polygon fill="#f5f5f5" stroke="transparent" points="211,-233.7 211,-256.7 421,-256.7 421,-233.7 211,-233.7"/>
<polygon fill="none" stroke="#000000" points="211,-233.7 211,-256.7 421,-256.7 421,-233.7 211,-233.7"/>
<text text-anchor="start" x="216" y="-242.3" font-family="Helvetica,sans-Serif" font-weight="bold" font-size="11.00" fill="#000000">csip_record</text>
<text text-anchor="start" x="386.0437" y="-241.8" font-family="Helvetica,sans-Serif" font-size="11.00" fill="#000000">[table]</text>
<polygon fill="none" stroke="#000000" points="211,-211.7 211,-233.7 421,-233.7 421,-211.7 211,-211.7"/>
<image xlink:href="../../images/primaryKeys.png" width="11px" height="12px" preserveAspectRatio="xMinYMin meet" x="216" y="-228.7"/>
<text text-anchor="start" x="231" y="-218.8" font-family="Helvetica,sans-Serif" font-size="11.00" fill="#000000">record_id</text>
<polygon fill="#ffffff" stroke="transparent" points="211,-189.7 211,-211.7 421,-211.7 421,-189.7 211,-189.7"/>
<polygon fill="none" stroke="#000000" points="211,-189.7 211,-211.7 421,-211.7 421,-189.7 211,-189.7"/>
<image xlink:href="../../images/foreignKeys.png" width="11px" height="12px" preserveAspectRatio="xMinYMin meet" x="216" y="-206.7"/>
<text text-anchor="start" x="231" y="-196.8" font-family="Helvetica,sans-Serif" font-size="11.00" fill="#000000">prison_number</text>
<polygon fill="#ffffff" stroke="transparent" points="211,-167.7 211,-189.7 421,-189.7 421,-167.7 211,-167.7"/>
<polygon fill="none" stroke="#000000" points="211,-167.7 211,-189.7 421,-189.7 421,-167.7 211,-167.7"/>
<image xlink:href="../../images/foreignKeys.png" width="11px" height="12px" preserveAspectRatio="xMinYMin meet" x="216" y="-184.7"/>
<text text-anchor="start" x="231" y="-174.8" font-family="Helvetica,sans-Serif" font-size="11.00" fill="#000000">legacy_id</text>
<polygon fill="#ffffff" stroke="transparent" points="211,-145.7 211,-167.7 421,-167.7 421,-145.7 211,-145.7"/>
<polygon fill="none" stroke="#000000" points="211,-145.7 211,-167.7 421,-167.7 421,-145.7 211,-145.7"/>
<image xlink:href="../../images/foreignKeys.png" width="11px" height="12px" preserveAspectRatio="xMinYMin meet" x="216" y="-162.7"/>
<text text-anchor="start" x="231" y="-152.8" font-family="Helvetica,sans-Serif" font-size="11.00" fill="#000000">status_id</text>
<polygon fill="none" stroke="#000000" points="211,-126.7 211,-145.7 421,-145.7 421,-126.7 211,-126.7"/>
<text text-anchor="start" x="214" y="-132.8" font-family="Helvetica,sans-Serif" font-size="11.00" fill="#000000">...</text>
<polygon fill="#ffffff" stroke="transparent" points="211,-107.7 211,-126.7 310,-126.7 310,-107.7 211,-107.7"/>
<polygon fill="none" stroke="#000000" points="211,-107.7 211,-126.7 310,-126.7 310,-107.7 211,-107.7"/>
<text text-anchor="start" x="214" y="-113.8" font-family="Helvetica,sans-Serif" font-size="11.00" fill="#000000">&lt; 3</text>
<polygon fill="#ffffff" stroke="transparent" points="310,-107.7 310,-126.7 361,-126.7 361,-107.7 310,-107.7"/>
<polygon fill="none" stroke="#000000" points="310,-107.7 310,-126.7 361,-126.7 361,-107.7 310,-107.7"/>
<text text-anchor="start" x="351.8862" y="-113.8" font-family="Helvetica,sans-Serif" font-size="11.00" fill="#000000"> &#160;</text>
<polygon fill="#ffffff" stroke="transparent" points="361,-107.7 361,-126.7 421,-126.7 421,-107.7 361,-107.7"/>
<polygon fill="none" stroke="#000000" points="361,-107.7 361,-126.7 421,-126.7 421,-107.7 361,-107.7"/>
<text text-anchor="start" x="402.4053" y="-113.8" font-family="Helvetica,sans-Serif" font-size="11.00" fill="#000000">2 &gt;</text>
</a>
</g>
</g>
<!-- csip_record&#45;&gt;audit_revision -->
<g id="edge3" class="edge">
<title>csip_record:w&#45;&gt;audit_revision:e</title>
<path fill="none" stroke="#000000" stroke-dasharray="5,2" d="M200.4173,-179.6146C117.504,-195.2351 252.3726,-405.7 152,-405.7"/>
<polygon fill="#000000" stroke="#000000" points="209.8585,-174.7837 210.5474,-182.754 208.9534,-182.8918 208.2645,-174.9215 209.8585,-174.7837"/>
<polyline fill="none" stroke="#000000" points="211,-178.7 207.0149,-179.0445 "/>
<ellipse fill="none" stroke="#000000" cx="203.8267" cy="-179.32" rx="3.2" ry="3.2"/>
</g>
<!-- person_summary -->
<g id="node5" class="node">
<title>person_summary</title>
<g id="a_node5"><a xlink:href="../../tables/person_summary.html" xlink:title="person_summary" target="_top">
<polygon fill="#ffffff" stroke="transparent" points="8,-173.2 8,-234.2 162,-234.2 162,-173.2 8,-173.2"/>
<polygon fill="#f5f5f5" stroke="transparent" points="8,-210.7 8,-233.7 162,-233.7 162,-210.7 8,-210.7"/>
<polygon fill="none" stroke="#000000" points="8,-210.7 8,-233.7 162,-233.7 162,-210.7 8,-210.7"/>
<text text-anchor="start" x="13" y="-219.3" font-family="Helvetica,sans-Serif" font-weight="bold" font-size="11.00" fill="#000000">person_summary</text>
<text text-anchor="start" x="127.5219" y="-218.8" font-family="Helvetica,sans-Serif" font-size="11.00" fill="#000000">[table]</text>
<polygon fill="none" stroke="#000000" points="8,-191.7 8,-210.7 162,-210.7 162,-191.7 8,-191.7"/>
<text text-anchor="start" x="11" y="-197.8" font-family="Helvetica,sans-Serif" font-size="11.00" fill="#000000">...</text>
<polygon fill="#ffffff" stroke="transparent" points="8,-172.7 8,-191.7 74,-191.7 74,-172.7 8,-172.7"/>
<polygon fill="none" stroke="#000000" points="8,-172.7 8,-191.7 74,-191.7 74,-172.7 8,-172.7"/>
<text text-anchor="start" x="11" y="-178.8" font-family="Helvetica,sans-Serif" font-size="11.00" fill="#000000"> &#160;</text>
<polygon fill="#ffffff" stroke="transparent" points="74,-172.7 74,-191.7 113,-191.7 113,-172.7 74,-172.7"/>
<polygon fill="none" stroke="#000000" points="74,-172.7 74,-191.7 113,-191.7 113,-172.7 74,-172.7"/>
<text text-anchor="start" x="103.8862" y="-178.8" font-family="Helvetica,sans-Serif" font-size="11.00" fill="#000000"> &#160;</text>
<polygon fill="#ffffff" stroke="transparent" points="113,-172.7 113,-191.7 162,-191.7 162,-172.7 113,-172.7"/>
<polygon fill="none" stroke="#000000" points="113,-172.7 113,-191.7 162,-191.7 162,-172.7 113,-172.7"/>
<text text-anchor="start" x="143.4053" y="-178.8" font-family="Helvetica,sans-Serif" font-size="11.00" fill="#000000">1 &gt;</text>
</a>
</g>
</g>
<!-- csip_record&#45;&gt;person_summary -->
<g id="edge4" class="edge">
<title>csip_record:w&#45;&gt;person_summary:e</title>
<path fill="none" stroke="#000000" d="M196.4909,-200.7C185.1774,-200.7 177.9931,-200.7 162,-200.7"/>
<polygon fill="#000000" stroke="#000000" points="203,-200.7001 211,-204.3 207,-200.7 211,-200.7 211,-200.7 211,-200.7 207,-200.7 211,-197.1 203,-200.7001 203,-200.7001"/>
<ellipse fill="none" stroke="#000000" cx="199.8" cy="-200.7001" rx="3.2" ry="3.2"/>
</g>
<!-- reference_data -->
<g id="node6" class="node">
<title>reference_data</title>
<g id="a_node6"><a xlink:href="../../tables/reference_data.html" xlink:title="reference_data" target="_top">
<polygon fill="#ffffff" stroke="transparent" points="15,-38.2 15,-99.2 155,-99.2 155,-38.2 15,-38.2"/>
<polygon fill="#f5f5f5" stroke="transparent" points="15,-75.7 15,-98.7 155,-98.7 155,-75.7 15,-75.7"/>
<polygon fill="none" stroke="#000000" points="15,-75.7 15,-98.7 155,-98.7 155,-75.7 15,-75.7"/>
<text text-anchor="start" x="20" y="-84.3" font-family="Helvetica,sans-Serif" font-weight="bold" font-size="11.00" fill="#000000">reference_data</text>
<text text-anchor="start" x="120.5219" y="-83.8" font-family="Helvetica,sans-Serif" font-size="11.00" fill="#000000">[table]</text>
<polygon fill="none" stroke="#000000" points="15,-56.7 15,-75.7 155,-75.7 155,-56.7 15,-56.7"/>
<text text-anchor="start" x="18" y="-62.8" font-family="Helvetica,sans-Serif" font-size="11.00" fill="#000000">...</text>
<polygon fill="#ffffff" stroke="transparent" points="15,-37.7 15,-56.7 52,-56.7 52,-37.7 15,-37.7"/>
<polygon fill="none" stroke="#000000" points="15,-37.7 15,-56.7 52,-56.7 52,-37.7 15,-37.7"/>
<text text-anchor="start" x="18" y="-43.8" font-family="Helvetica,sans-Serif" font-size="11.00" fill="#000000"> &#160;</text>
<polygon fill="#ffffff" stroke="transparent" points="52,-37.7 52,-56.7 115,-56.7 115,-37.7 52,-37.7"/>
<polygon fill="none" stroke="#000000" points="52,-37.7 52,-56.7 115,-56.7 115,-37.7 52,-37.7"/>
<text text-anchor="start" x="67.3807" y="-43.8" font-family="Helvetica,sans-Serif" font-size="11.00" fill="#000000">122 rows</text>
<polygon fill="#ffffff" stroke="transparent" points="115,-37.7 115,-56.7 155,-56.7 155,-37.7 115,-37.7"/>
<polygon fill="none" stroke="#000000" points="115,-37.7 115,-56.7 155,-56.7 155,-37.7 115,-37.7"/>
<text text-anchor="start" x="130.2904" y="-43.8" font-family="Helvetica,sans-Serif" font-size="11.00" fill="#000000">10 &gt;</text>
</a>
</g>
</g>
<!-- csip_record&#45;&gt;reference_data -->
<g id="edge5" class="edge">
<title>csip_record:w&#45;&gt;reference_data:e</title>
<path fill="none" stroke="#000000" d="M196.907,-152.7898C171.9044,-135.3719 196.5529,-65.7 155,-65.7"/>
<polygon fill="#000000" stroke="#000000" points="203.2912,-154.5611 210.0375,-160.169 207.1456,-155.6306 211,-156.7 211,-156.7 211,-156.7 207.1456,-155.6306 211.9625,-153.231 203.2912,-154.5611 203.2912,-154.5611"/>
<ellipse fill="none" stroke="#000000" cx="200.2077" cy="-153.7056" rx="3.2" ry="3.2"/>
</g>
<!-- identified_need -->
<g id="node7" class="node">
<title>identified_need</title>
<g id="a_node7"><a xlink:href="../../tables/identified_need.html" xlink:title="identified_need" target="_top">
<polygon fill="#ffffff" stroke="transparent" points="814.5,-405.2 814.5,-532.2 966.5,-532.2 966.5,-405.2 814.5,-405.2"/>
<polygon fill="#f5f5f5" stroke="transparent" points="814.5,-508.7 814.5,-531.7 966.5,-531.7 966.5,-508.7 814.5,-508.7"/>
<polygon fill="none" stroke="#000000" points="814.5,-508.7 814.5,-531.7 966.5,-531.7 966.5,-508.7 814.5,-508.7"/>
<text text-anchor="start" x="819.5" y="-517.3" font-family="Helvetica,sans-Serif" font-weight="bold" font-size="11.00" fill="#000000">identified_need</text>
<text text-anchor="start" x="931.5437" y="-516.8" font-family="Helvetica,sans-Serif" font-size="11.00" fill="#000000">[table]</text>
<polygon fill="none" stroke="#000000" points="814.5,-486.7 814.5,-508.7 966.5,-508.7 966.5,-486.7 814.5,-486.7"/>
<image xlink:href="../../images/primaryKeys.png" width="11px" height="12px" preserveAspectRatio="xMinYMin meet" x="819.5" y="-503.7"/>
<text text-anchor="start" x="834.5" y="-493.8" font-family="Helvetica,sans-Serif" font-size="11.00" fill="#000000">identified_need_id</text>
<polygon fill="#ffffff" stroke="transparent" points="814.5,-464.7 814.5,-486.7 966.5,-486.7 966.5,-464.7 814.5,-464.7"/>
<polygon fill="none" stroke="#000000" points="814.5,-464.7 814.5,-486.7 966.5,-486.7 966.5,-464.7 814.5,-464.7"/>
<image xlink:href="../../images/foreignKeys.png" width="11px" height="12px" preserveAspectRatio="xMinYMin meet" x="819.5" y="-481.7"/>
<text text-anchor="start" x="834.5" y="-471.8" font-family="Helvetica,sans-Serif" font-size="11.00" fill="#000000">plan_id</text>
<polygon fill="#ffffff" stroke="transparent" points="814.5,-442.7 814.5,-464.7 966.5,-464.7 966.5,-442.7 814.5,-442.7"/>
<polygon fill="none" stroke="#000000" points="814.5,-442.7 814.5,-464.7 966.5,-464.7 966.5,-442.7 814.5,-442.7"/>
<image xlink:href="../../images/foreignKeys.png" width="11px" height="12px" preserveAspectRatio="xMinYMin meet" x="819.5" y="-459.7"/>
<text text-anchor="start" x="834.5" y="-449.8" font-family="Helvetica,sans-Serif" font-size="11.00" fill="#000000">legacy_id</text>
<polygon fill="none" stroke="#000000" points="814.5,-423.7 814.5,-442.7 966.5,-442.7 966.5,-423.7 814.5,-423.7"/>
<text text-anchor="start" x="817.5" y="-429.8" font-family="Helvetica,sans-Serif" font-size="11.00" fill="#000000">...</text>
<polygon fill="#ffffff" stroke="transparent" points="814.5,-404.7 814.5,-423.7 888.5,-423.7 888.5,-404.7 814.5,-404.7"/>
<polygon fill="none" stroke="#000000" points="814.5,-404.7 814.5,-423.7 888.5,-423.7 888.5,-404.7 814.5,-404.7"/>
<text text-anchor="start" x="817.5" y="-410.8" font-family="Helvetica,sans-Serif" font-size="11.00" fill="#000000">&lt; 2</text>
<polygon fill="#ffffff" stroke="transparent" points="888.5,-404.7 888.5,-423.7 927.5,-423.7 927.5,-404.7 888.5,-404.7"/>
<polygon fill="none" stroke="#000000" points="888.5,-404.7 888.5,-423.7 927.5,-423.7 927.5,-404.7 888.5,-404.7"/>
<text text-anchor="start" x="918.3862" y="-410.8" font-family="Helvetica,sans-Serif" font-size="11.00" fill="#000000"> &#160;</text>
<polygon fill="#ffffff" stroke="transparent" points="927.5,-404.7 927.5,-423.7 966.5,-423.7 966.5,-404.7 927.5,-404.7"/>
<polygon fill="none" stroke="#000000" points="927.5,-404.7 927.5,-423.7 966.5,-423.7 966.5,-404.7 927.5,-404.7"/>
<text text-anchor="start" x="957.3862" y="-410.8" font-family="Helvetica,sans-Serif" font-size="11.00" fill="#000000"> &#160;</text>
</a>
</g>
</g>
<!-- identified_need&#45;&gt;audit_revision -->
<g id="edge6" class="edge">
<title>identified_need:w&#45;&gt;audit_revision:e</title>
<path fill="none" stroke="#000000" stroke-dasharray="5,2" d="M804.0802,-454.9954C776.047,-462.7438 782.8065,-503.0806 749,-516.7 630.6848,-564.3649 587.6751,-538.5216 462,-516.7 317.8136,-491.6643 298.3438,-405.7 152,-405.7"/>
<polygon fill="#000000" stroke="#000000" points="813.2126,-449.8293 814.1996,-457.7681 812.6119,-457.9656 811.6248,-450.0267 813.2126,-449.8293"/>
<polyline fill="none" stroke="#000000" points="814.5,-453.7 810.5306,-454.1935 "/>
<ellipse fill="none" stroke="#000000" cx="807.355" cy="-454.5884" rx="3.2" ry="3.2"/>
</g>
<!-- identified_need&#45;&gt;plan -->
<g id="edge7" class="edge">
<title>identified_need:w&#45;&gt;plan:e</title>
<path fill="none" stroke="#000000" d="M799.8622,-475.2685C777.7142,-473.8927 767.4536,-469.7 739.5,-469.7"/>
<polygon fill="#000000" stroke="#000000" points="806.5035,-475.4642 814.3939,-479.2984 810.5017,-475.5821 814.5,-475.7 814.5,-475.7 814.5,-475.7 810.5017,-475.5821 814.6061,-472.1016 806.5035,-475.4642 806.5035,-475.4642"/>
<ellipse fill="none" stroke="#000000" cx="803.3049" cy="-475.3699" rx="3.2" ry="3.2"/>
</g>
<!-- plan&#45;&gt;csip_record -->
<g id="edge8" class="edge">
<title>plan:w&#45;&gt;csip_record:e</title>
<path fill="none" stroke="#000000" d="M461.9772,-468.8541C371.8395,-453.1038 529.3057,-222.7 421,-222.7"/>
<polygon fill="#000000" stroke="#000000" points="472.0231,-465.6487 471.382,-473.623 469.7871,-473.4948 470.4283,-465.5205 472.0231,-465.6487"/>
<polyline fill="none" stroke="#000000" points="472.5,-469.7 468.5129,-469.3794 "/>
<ellipse fill="none" stroke="#000000" cx="465.3232" cy="-469.123" rx="3.2" ry="3.2"/>
</g>
<!-- referral -->
<g id="node9" class="node">
<title>referral</title>
<g id="a_node9"><a xlink:href="../../tables/referral.html" xlink:title="referral" target="_top">
<polygon fill="#ffffff" stroke="transparent" points="560.5,-38.2 560.5,-99.2 650.5,-99.2 650.5,-38.2 560.5,-38.2"/>
<polygon fill="#f5f5f5" stroke="transparent" points="560.5,-75.7 560.5,-98.7 650.5,-98.7 650.5,-75.7 560.5,-75.7"/>
<polygon fill="none" stroke="#000000" points="560.5,-75.7 560.5,-98.7 650.5,-98.7 650.5,-75.7 560.5,-75.7"/>
<text text-anchor="start" x="565.5" y="-84.3" font-family="Helvetica,sans-Serif" font-weight="bold" font-size="11.00" fill="#000000">referral</text>
<text text-anchor="start" x="616.0219" y="-83.8" font-family="Helvetica,sans-Serif" font-size="11.00" fill="#000000">[table]</text>
<polygon fill="none" stroke="#000000" points="560.5,-56.7 560.5,-75.7 650.5,-75.7 650.5,-56.7 560.5,-56.7"/>
<text text-anchor="start" x="563.5" y="-62.8" font-family="Helvetica,sans-Serif" font-size="11.00" fill="#000000">...</text>
<polygon fill="#ffffff" stroke="transparent" points="560.5,-37.7 560.5,-56.7 599.5,-56.7 599.5,-37.7 560.5,-37.7"/>
<polygon fill="none" stroke="#000000" points="560.5,-37.7 560.5,-56.7 599.5,-56.7 599.5,-37.7 560.5,-37.7"/>
<text text-anchor="start" x="563.5" y="-43.8" font-family="Helvetica,sans-Serif" font-size="11.00" fill="#000000">&lt; 5</text>
<polygon fill="#ffffff" stroke="transparent" points="599.5,-37.7 599.5,-56.7 620.5,-56.7 620.5,-37.7 599.5,-37.7"/>
<polygon fill="none" stroke="#000000" points="599.5,-37.7 599.5,-56.7 620.5,-56.7 620.5,-37.7 599.5,-37.7"/>
<text text-anchor="start" x="611.3862" y="-43.8" font-family="Helvetica,sans-Serif" font-size="11.00" fill="#000000"> &#160;</text>
<polygon fill="#ffffff" stroke="transparent" points="620.5,-37.7 620.5,-56.7 650.5,-56.7 650.5,-37.7 620.5,-37.7"/>
<polygon fill="none" stroke="#000000" points="620.5,-37.7 620.5,-56.7 650.5,-56.7 650.5,-37.7 620.5,-37.7"/>
<text text-anchor="start" x="631.9053" y="-43.8" font-family="Helvetica,sans-Serif" font-size="11.00" fill="#000000">4 &gt;</text>
</a>
</g>
</g>
<!-- referral&#45;&gt;csip_record -->
<g id="edge13" class="edge">
<title>referral:w&#45;&gt;csip_record:e</title>
<path fill="none" stroke="#000000" d="M549.7043,-66.4707C470.7912,-78.3148 510.5146,-222.7 421,-222.7"/>
<polygon fill="#000000" stroke="#000000" points="559.4172,-61.7671 559.9869,-69.7468 558.391,-69.8608 557.8212,-61.8811 559.4172,-61.7671"/>
<polyline fill="none" stroke="#000000" points="560.5,-65.7 556.5102,-65.9849 "/>
<ellipse fill="none" stroke="#000000" cx="553.3183" cy="-66.2128" rx="3.2" ry="3.2"/>
</g>
<!-- referral&#45;&gt;reference_data -->
<g id="edge9" class="edge">
<title>referral:w&#45;&gt;reference_data:e</title>
<path fill="none" stroke="#000000" d="M546.0138,-65.7C377.7127,-65.7 330.2943,-65.7 155,-65.7"/>
<polygon fill="#000000" stroke="#000000" points="552.5,-65.7001 560.5,-69.3 556.5,-65.7 560.5,-65.7 560.5,-65.7 560.5,-65.7 556.5,-65.7 560.5,-62.1 552.5,-65.7001 552.5,-65.7001"/>
<ellipse fill="none" stroke="#000000" cx="549.3" cy="-65.7001" rx="3.2" ry="3.2"/>
</g>
<!-- referral&#45;&gt;reference_data -->
<g id="edge10" class="edge">
<title>referral:w&#45;&gt;reference_data:e</title>
<path fill="none" stroke="#000000" d="M546.0138,-64.6628C377.7127,-52.7097 330.2943,-53.0555 155,-65.7"/>
<polygon fill="#000000" stroke="#000000" points="552.5204,-65.1286 560.2429,-69.2908 556.5102,-65.4143 560.5,-65.7 560.5,-65.7 560.5,-65.7 556.5102,-65.4143 560.7571,-62.1092 552.5204,-65.1286 552.5204,-65.1286"/>
<ellipse fill="none" stroke="#000000" cx="549.3286" cy="-64.9" rx="3.2" ry="3.2"/>
</g>
<!-- referral&#45;&gt;reference_data -->
<g id="edge11" class="edge">
<title>referral:w&#45;&gt;reference_data:e</title>
<path fill="none" stroke="#000000" d="M546.0138,-65.7C377.7127,-65.7 330.2943,-65.7 155,-65.7"/>
<polygon fill="#000000" stroke="#000000" points="552.5,-65.7001 560.5,-69.3 556.5,-65.7 560.5,-65.7 560.5,-65.7 560.5,-65.7 556.5,-65.7 560.5,-62.1 552.5,-65.7001 552.5,-65.7001"/>
<ellipse fill="none" stroke="#000000" cx="549.3" cy="-65.7001" rx="3.2" ry="3.2"/>
</g>
<!-- referral&#45;&gt;reference_data -->
<g id="edge12" class="edge">
<title>referral:w&#45;&gt;reference_data:e</title>
<path fill="none" stroke="#000000" d="M546.0138,-66.7372C377.7127,-78.6903 330.2943,-78.3445 155,-65.7"/>
<polygon fill="#000000" stroke="#000000" points="552.5204,-66.2714 560.7571,-69.2908 556.5102,-65.9857 560.5,-65.7 560.5,-65.7 560.5,-65.7 556.5102,-65.9857 560.2429,-62.1092 552.5204,-66.2714 552.5204,-66.2714"/>
<ellipse fill="none" stroke="#000000" cx="549.3286" cy="-66.5" rx="3.2" ry="3.2"/>
</g>
</g>
</svg>
