<?xml version="1.0" encoding="UTF-8" standalone="no"?>
<!DOCTYPE svg PUBLIC "-//W3C//DTD SVG 1.1//EN"
 "http://www.w3.org/Graphics/SVG/1.1/DTD/svg11.dtd">
<!-- Generated by graphviz version 2.40.1 (20161225.0304)
 -->
<!-- Title: oneDegreeRelationshipsDiagramImplied Pages: 1 -->
<svg width="870pt" height="665pt"
 viewBox="0.00 0.00 870.00 665.20" xmlns="http://www.w3.org/2000/svg" xmlns:xlink="http://www.w3.org/1999/xlink">
<g id="graph0" class="graph" transform="scale(1 1) rotate(0) translate(4 661.2)">
<title>oneDegreeRelationshipsDiagramImplied</title>
<polygon fill="#ffffff" stroke="transparent" points="-4,4 -4,-661.2 866,-661.2 866,4 -4,4"/>
<text text-anchor="middle" x="72.4936" y="-7.3" font-family="Helvetica,sans-Serif" font-size="11.00" fill="#000000">Generated by SchemaSpy</text>
<!-- identified_need -->
<g id="node1" class="node">
<title>identified_need</title>
<g id="a_node1"><a xlink:href="../../tables/identified_need.html" xlink:title="identified_need" target="_top">
<polygon fill="#ffffff" stroke="transparent" points="644.5,-526.2 644.5,-653.2 796.5,-653.2 796.5,-526.2 644.5,-526.2"/>
<polygon fill="#f5f5f5" stroke="transparent" points="644.5,-629.7 644.5,-652.7 796.5,-652.7 796.5,-629.7 644.5,-629.7"/>
<polygon fill="none" stroke="#000000" points="644.5,-629.7 644.5,-652.7 796.5,-652.7 796.5,-629.7 644.5,-629.7"/>
<text text-anchor="start" x="649.5" y="-638.3" font-family="Helvetica,sans-Serif" font-weight="bold" font-size="11.00" fill="#000000">identified_need</text>
<text text-anchor="start" x="761.5437" y="-637.8" font-family="Helvetica,sans-Serif" font-size="11.00" fill="#000000">[table]</text>
<polygon fill="none" stroke="#000000" points="644.5,-607.7 644.5,-629.7 796.5,-629.7 796.5,-607.7 644.5,-607.7"/>
<image xlink:href="../../images/primaryKeys.png" width="11px" height="12px" preserveAspectRatio="xMinYMin meet" x="649.5" y="-624.7"/>
<text text-anchor="start" x="664.5" y="-614.8" font-family="Helvetica,sans-Serif" font-size="11.00" fill="#000000">identified_need_id</text>
<polygon fill="#ffffff" stroke="transparent" points="644.5,-585.7 644.5,-607.7 796.5,-607.7 796.5,-585.7 644.5,-585.7"/>
<polygon fill="none" stroke="#000000" points="644.5,-585.7 644.5,-607.7 796.5,-607.7 796.5,-585.7 644.5,-585.7"/>
<image xlink:href="../../images/foreignKeys.png" width="11px" height="12px" preserveAspectRatio="xMinYMin meet" x="649.5" y="-602.7"/>
<text text-anchor="start" x="664.5" y="-592.8" font-family="Helvetica,sans-Serif" font-size="11.00" fill="#000000">plan_id</text>
<polygon fill="#ffffff" stroke="transparent" points="644.5,-563.7 644.5,-585.7 796.5,-585.7 796.5,-563.7 644.5,-563.7"/>
<polygon fill="none" stroke="#000000" points="644.5,-563.7 644.5,-585.7 796.5,-585.7 796.5,-563.7 644.5,-563.7"/>
<image xlink:href="../../images/foreignKeys.png" width="11px" height="12px" preserveAspectRatio="xMinYMin meet" x="649.5" y="-580.7"/>
<text text-anchor="start" x="664.5" y="-570.8" font-family="Helvetica,sans-Serif" font-size="11.00" fill="#000000">legacy_id</text>
<polygon fill="none" stroke="#000000" points="644.5,-544.7 644.5,-563.7 796.5,-563.7 796.5,-544.7 644.5,-544.7"/>
<text text-anchor="start" x="647.5" y="-550.8" font-family="Helvetica,sans-Serif" font-size="11.00" fill="#000000">...</text>
<polygon fill="#ffffff" stroke="transparent" points="644.5,-525.7 644.5,-544.7 718.5,-544.7 718.5,-525.7 644.5,-525.7"/>
<polygon fill="none" stroke="#000000" points="644.5,-525.7 644.5,-544.7 718.5,-544.7 718.5,-525.7 644.5,-525.7"/>
<text text-anchor="start" x="647.5" y="-531.8" font-family="Helvetica,sans-Serif" font-size="11.00" fill="#000000">&lt; 1</text>
<polygon fill="#ffffff" stroke="transparent" points="718.5,-525.7 718.5,-544.7 757.5,-544.7 757.5,-525.7 718.5,-525.7"/>
<polygon fill="none" stroke="#000000" points="718.5,-525.7 718.5,-544.7 757.5,-544.7 757.5,-525.7 718.5,-525.7"/>
<text text-anchor="start" x="748.3862" y="-531.8" font-family="Helvetica,sans-Serif" font-size="11.00" fill="#000000"> &#160;</text>
<polygon fill="#ffffff" stroke="transparent" points="757.5,-525.7 757.5,-544.7 796.5,-544.7 796.5,-525.7 757.5,-525.7"/>
<polygon fill="none" stroke="#000000" points="757.5,-525.7 757.5,-544.7 796.5,-544.7 796.5,-525.7 757.5,-525.7"/>
<text text-anchor="start" x="787.3862" y="-531.8" font-family="Helvetica,sans-Serif" font-size="11.00" fill="#000000"> &#160;</text>
</a>
</g>
</g>
<!-- plan -->
<g id="node2" class="node">
<title>plan</title>
<g id="a_node2"><a xlink:href="../../tables/plan.html" xlink:title="plan" target="_top">
<polygon fill="#ffffff" stroke="transparent" points="267,-232.7 267,-388.7 538,-388.7 538,-232.7 267,-232.7"/>
<polygon fill="#f5f5f5" stroke="transparent" points="269.5,-363.7 269.5,-386.7 536.5,-386.7 536.5,-363.7 269.5,-363.7"/>
<polygon fill="none" stroke="#000000" points="269.5,-363.7 269.5,-386.7 536.5,-386.7 536.5,-363.7 269.5,-363.7"/>
<text text-anchor="start" x="274.5" y="-372.3" font-family="Helvetica,sans-Serif" font-weight="bold" font-size="11.00" fill="#000000">plan</text>
<text text-anchor="start" x="501.5437" y="-371.8" font-family="Helvetica,sans-Serif" font-size="11.00" fill="#000000">[table]</text>
<polygon fill="none" stroke="#000000" points="269.5,-341.7 269.5,-363.7 442.5,-363.7 442.5,-341.7 269.5,-341.7"/>
<image xlink:href="../../images/primaryKeys.png" width="11px" height="12px" preserveAspectRatio="xMinYMin meet" x="274.5" y="-358.7"/>
<text text-anchor="start" x="289.5" y="-348.8" font-family="Helvetica,sans-Serif" font-size="11.00" fill="#000000">plan_id</text>
<polygon fill="none" stroke="#000000" points="442.5,-341.7 442.5,-363.7 536.5,-363.7 536.5,-341.7 442.5,-341.7"/>
<text text-anchor="start" x="445.4758" y="-349.4" font-family="Helvetica,sans-Serif" font-size="11.00" fill="#000000">uuid[2147483647]</text>
<polygon fill="none" stroke="#000000" points="269.5,-319.7 269.5,-341.7 442.5,-341.7 442.5,-319.7 269.5,-319.7"/>
<text text-anchor="start" x="289.5" y="-326.8" font-family="Helvetica,sans-Serif" font-size="11.00" fill="#000000">case_manager</text>
<polygon fill="none" stroke="#000000" points="442.5,-319.7 442.5,-341.7 536.5,-341.7 536.5,-319.7 442.5,-319.7"/>
<text text-anchor="start" x="445.5" y="-327.4" font-family="Helvetica,sans-Serif" font-size="11.00" fill="#000000">varchar[100]</text>
<polygon fill="none" stroke="#000000" points="269.5,-297.7 269.5,-319.7 442.5,-319.7 442.5,-297.7 269.5,-297.7"/>
<text text-anchor="start" x="289.5" y="-304.8" font-family="Helvetica,sans-Serif" font-size="11.00" fill="#000000">reason_for_plan</text>
<polygon fill="none" stroke="#000000" points="442.5,-297.7 442.5,-319.7 536.5,-319.7 536.5,-297.7 442.5,-297.7"/>
<text text-anchor="start" x="445.5" y="-305.4" font-family="Helvetica,sans-Serif" font-size="11.00" fill="#000000">varchar[240]</text>
<polygon fill="none" stroke="#000000" points="269.5,-275.7 269.5,-297.7 442.5,-297.7 442.5,-275.7 269.5,-275.7"/>
<text text-anchor="start" x="289.5" y="-282.8" font-family="Helvetica,sans-Serif" font-size="11.00" fill="#000000">first_case_review_date</text>
<polygon fill="none" stroke="#000000" points="442.5,-275.7 442.5,-297.7 536.5,-297.7 536.5,-275.7 442.5,-275.7"/>
<text text-anchor="start" x="445.5" y="-283.4" font-family="Helvetica,sans-Serif" font-size="11.00" fill="#000000">date[13]</text>
<polygon fill="none" stroke="#000000" points="269.5,-253.7 269.5,-275.7 442.5,-275.7 442.5,-253.7 269.5,-253.7"/>
<text text-anchor="start" x="289.5" y="-260.8" font-family="Helvetica,sans-Serif" font-size="11.00" fill="#000000">version</text>
<polygon fill="none" stroke="#000000" points="442.5,-253.7 442.5,-275.7 536.5,-275.7 536.5,-253.7 442.5,-253.7"/>
<text text-anchor="start" x="445.5" y="-261.4" font-family="Helvetica,sans-Serif" font-size="11.00" fill="#000000">int4[10]</text>
<polygon fill="#ffffff" stroke="transparent" points="269.5,-234.7 269.5,-253.7 360.5,-253.7 360.5,-234.7 269.5,-234.7"/>
<polygon fill="none" stroke="#000000" points="269.5,-234.7 269.5,-253.7 360.5,-253.7 360.5,-234.7 269.5,-234.7"/>
<text text-anchor="start" x="272.5" y="-240.8" font-family="Helvetica,sans-Serif" font-size="11.00" fill="#000000">&lt; 1</text>
<polygon fill="#ffffff" stroke="transparent" points="360.5,-234.7 360.5,-253.7 442.5,-253.7 442.5,-234.7 360.5,-234.7"/>
<polygon fill="none" stroke="#000000" points="360.5,-234.7 360.5,-253.7 442.5,-253.7 442.5,-234.7 360.5,-234.7"/>
<text text-anchor="start" x="433.3862" y="-240.8" font-family="Helvetica,sans-Serif" font-size="11.00" fill="#000000"> &#160;</text>
<polygon fill="#ffffff" stroke="transparent" points="442.5,-234.7 442.5,-253.7 536.5,-253.7 536.5,-234.7 442.5,-234.7"/>
<polygon fill="none" stroke="#000000" points="442.5,-234.7 442.5,-253.7 536.5,-253.7 536.5,-234.7 442.5,-234.7"/>
<text text-anchor="start" x="517.9053" y="-240.8" font-family="Helvetica,sans-Serif" font-size="11.00" fill="#000000">4 &gt;</text>
<polygon fill="none" stroke="#000000" stroke-width="2" points="268,-233.7 268,-387.7 537,-387.7 537,-233.7 268,-233.7"/>
</a>
</g>
</g>
<!-- identified_need&#45;&gt;plan -->
<g id="edge1" class="edge">
<title>identified_need:w&#45;&gt;plan:e</title>
<path fill="none" stroke="#000000" d="M630.086,-595.1268C598.2828,-587.3794 597.42,-552.1859 579,-515.7 545.2595,-448.8676 611.3665,-352.7 536.5,-352.7"/>
<polygon fill="#000000" stroke="#000000" points="636.5472,-595.8319 644.1094,-600.2787 640.5236,-596.266 644.5,-596.7 644.5,-596.7 644.5,-596.7 640.5236,-596.266 644.8906,-593.1213 636.5472,-595.8319 636.5472,-595.8319"/>
<ellipse fill="none" stroke="#000000" cx="633.3661" cy="-595.4847" rx="3.2" ry="3.2"/>
</g>
<!-- csip_record -->
<g id="node4" class="node">
<title>csip_record</title>
<g id="a_node4"><a xlink:href="../../tables/csip_record.html" xlink:title="csip_record" target="_top">
<polygon fill="#ffffff" stroke="transparent" points="8,-238.2 8,-387.2 218,-387.2 218,-238.2 8,-238.2"/>
<polygon fill="#f5f5f5" stroke="transparent" points="8,-363.7 8,-386.7 218,-386.7 218,-363.7 8,-363.7"/>
<polygon fill="none" stroke="#000000" points="8,-363.7 8,-386.7 218,-386.7 218,-363.7 8,-363.7"/>
<text text-anchor="start" x="13" y="-372.3" font-family="Helvetica,sans-Serif" font-weight="bold" font-size="11.00" fill="#000000">csip_record</text>
<text text-anchor="start" x="183.0437" y="-371.8" font-family="Helvetica,sans-Serif" font-size="11.00" fill="#000000">[table]</text>
<polygon fill="none" stroke="#000000" points="8,-341.7 8,-363.7 218,-363.7 218,-341.7 8,-341.7"/>
<image xlink:href="../../images/primaryKeys.png" width="11px" height="12px" preserveAspectRatio="xMinYMin meet" x="13" y="-358.7"/>
<text text-anchor="start" x="28" y="-348.8" font-family="Helvetica,sans-Serif" font-size="11.00" fill="#000000">record_id</text>
<polygon fill="#ffffff" stroke="transparent" points="8,-319.7 8,-341.7 218,-341.7 218,-319.7 8,-319.7"/>
<polygon fill="none" stroke="#000000" points="8,-319.7 8,-341.7 218,-341.7 218,-319.7 8,-319.7"/>
<image xlink:href="../../images/foreignKeys.png" width="11px" height="12px" preserveAspectRatio="xMinYMin meet" x="13" y="-336.7"/>
<text text-anchor="start" x="28" y="-326.8" font-family="Helvetica,sans-Serif" font-size="11.00" fill="#000000">prison_number</text>
<polygon fill="#ffffff" stroke="transparent" points="8,-297.7 8,-319.7 218,-319.7 218,-297.7 8,-297.7"/>
<polygon fill="none" stroke="#000000" points="8,-297.7 8,-319.7 218,-319.7 218,-297.7 8,-297.7"/>
<image xlink:href="../../images/foreignKeys.png" width="11px" height="12px" preserveAspectRatio="xMinYMin meet" x="13" y="-314.7"/>
<text text-anchor="start" x="28" y="-304.8" font-family="Helvetica,sans-Serif" font-size="11.00" fill="#000000">legacy_id</text>
<polygon fill="#ffffff" stroke="transparent" points="8,-275.7 8,-297.7 218,-297.7 218,-275.7 8,-275.7"/>
<polygon fill="none" stroke="#000000" points="8,-275.7 8,-297.7 218,-297.7 218,-275.7 8,-275.7"/>
<image xlink:href="../../images/foreignKeys.png" width="11px" height="12px" preserveAspectRatio="xMinYMin meet" x="13" y="-292.7"/>
<text text-anchor="start" x="28" y="-282.8" font-family="Helvetica,sans-Serif" font-size="11.00" fill="#000000">status_id</text>
<polygon fill="none" stroke="#000000" points="8,-256.7 8,-275.7 218,-275.7 218,-256.7 8,-256.7"/>
<text text-anchor="start" x="11" y="-262.8" font-family="Helvetica,sans-Serif" font-size="11.00" fill="#000000">...</text>
<polygon fill="#ffffff" stroke="transparent" points="8,-237.7 8,-256.7 107,-256.7 107,-237.7 8,-237.7"/>
<polygon fill="none" stroke="#000000" points="8,-237.7 8,-256.7 107,-256.7 107,-237.7 8,-237.7"/>
<text text-anchor="start" x="11" y="-243.8" font-family="Helvetica,sans-Serif" font-size="11.00" fill="#000000">&lt; 2</text>
<polygon fill="#ffffff" stroke="transparent" points="107,-237.7 107,-256.7 158,-256.7 158,-237.7 107,-237.7"/>
<polygon fill="none" stroke="#000000" points="107,-237.7 107,-256.7 158,-256.7 158,-237.7 107,-237.7"/>
<text text-anchor="start" x="148.8862" y="-243.8" font-family="Helvetica,sans-Serif" font-size="11.00" fill="#000000"> &#160;</text>
<polygon fill="#ffffff" stroke="transparent" points="158,-237.7 158,-256.7 218,-256.7 218,-237.7 158,-237.7"/>
<polygon fill="none" stroke="#000000" points="158,-237.7 158,-256.7 218,-256.7 218,-237.7 158,-237.7"/>
<text text-anchor="start" x="199.4053" y="-243.8" font-family="Helvetica,sans-Serif" font-size="11.00" fill="#000000">2 &gt;</text>
</a>
</g>
</g>
<!-- plan&#45;&gt;csip_record -->
<g id="edge3" class="edge">
<title>plan:w&#45;&gt;csip_record:e</title>
<path fill="none" stroke="#000000" d="M259.045,-352.7C244.137,-352.7 236.9549,-352.7 218,-352.7"/>
<polygon fill="#000000" stroke="#000000" points="268.7,-348.7 268.7,-356.7 267.1,-356.7 267.1,-348.7 268.7,-348.7"/>
<polyline fill="none" stroke="#000000" points="269.5,-352.7 265.5,-352.7 "/>
<ellipse fill="none" stroke="#000000" cx="262.3" cy="-352.7001" rx="3.2" ry="3.2"/>
</g>
<!-- identified_need_audit -->
<g id="node3" class="node">
<title>identified_need_audit</title>
<g id="a_node3"><a xlink:href="../../tables/identified_need_audit.html" xlink:title="identified_need_audit" target="_top">
<polygon fill="#ffffff" stroke="transparent" points="612,-356.2 612,-505.2 829,-505.2 829,-356.2 612,-356.2"/>
<polygon fill="#f5f5f5" stroke="transparent" points="612.5,-481.7 612.5,-504.7 829.5,-504.7 829.5,-481.7 612.5,-481.7"/>
<polygon fill="none" stroke="#000000" points="612.5,-481.7 612.5,-504.7 829.5,-504.7 829.5,-481.7 612.5,-481.7"/>
<text text-anchor="start" x="617.5" y="-490.3" font-family="Helvetica,sans-Serif" font-weight="bold" font-size="11.00" fill="#000000">identified_need_audit</text>
<text text-anchor="start" x="794.5437" y="-489.8" font-family="Helvetica,sans-Serif" font-size="11.00" fill="#000000">[table]</text>
<polygon fill="none" stroke="#000000" points="612.5,-459.7 612.5,-481.7 829.5,-481.7 829.5,-459.7 612.5,-459.7"/>
<image xlink:href="../../images/primaryKeys.png" width="11px" height="12px" preserveAspectRatio="xMinYMin meet" x="617.5" y="-476.7"/>
<text text-anchor="start" x="632.5" y="-466.8" font-family="Helvetica,sans-Serif" font-size="11.00" fill="#000000">rev_id</text>
<polygon fill="none" stroke="#000000" points="612.5,-437.7 612.5,-459.7 829.5,-459.7 829.5,-437.7 612.5,-437.7"/>
<image xlink:href="../../images/primaryKeys.png" width="11px" height="12px" preserveAspectRatio="xMinYMin meet" x="617.5" y="-454.7"/>
<text text-anchor="start" x="632.5" y="-444.8" font-family="Helvetica,sans-Serif" font-size="11.00" fill="#000000">identified_need_id</text>
<polygon fill="none" stroke="#000000" points="612.5,-415.7 612.5,-437.7 829.5,-437.7 829.5,-415.7 612.5,-415.7"/>
<image xlink:href="../../images/foreignKeys.png" width="11px" height="12px" preserveAspectRatio="xMinYMin meet" x="617.5" y="-432.7"/>
<text text-anchor="start" x="632.5" y="-422.8" font-family="Helvetica,sans-Serif" font-size="11.00" fill="#000000">plan_id</text>
<polygon fill="none" stroke="#000000" points="612.5,-393.7 612.5,-415.7 829.5,-415.7 829.5,-393.7 612.5,-393.7"/>
<image xlink:href="../../images/foreignKeys.png" width="11px" height="12px" preserveAspectRatio="xMinYMin meet" x="617.5" y="-410.7"/>
<text text-anchor="start" x="632.5" y="-400.8" font-family="Helvetica,sans-Serif" font-size="11.00" fill="#000000">legacy_id</text>
<polygon fill="none" stroke="#000000" points="612.5,-374.7 612.5,-393.7 829.5,-393.7 829.5,-374.7 612.5,-374.7"/>
<text text-anchor="start" x="615.5" y="-380.8" font-family="Helvetica,sans-Serif" font-size="11.00" fill="#000000">...</text>
<polygon fill="#ffffff" stroke="transparent" points="612.5,-355.7 612.5,-374.7 719.5,-374.7 719.5,-355.7 612.5,-355.7"/>
<polygon fill="none" stroke="#000000" points="612.5,-355.7 612.5,-374.7 719.5,-374.7 719.5,-355.7 612.5,-355.7"/>
<text text-anchor="start" x="615.5" y="-361.8" font-family="Helvetica,sans-Serif" font-size="11.00" fill="#000000">&lt; 3</text>
<polygon fill="#ffffff" stroke="transparent" points="719.5,-355.7 719.5,-374.7 774.5,-374.7 774.5,-355.7 719.5,-355.7"/>
<polygon fill="none" stroke="#000000" points="719.5,-355.7 719.5,-374.7 774.5,-374.7 774.5,-355.7 719.5,-355.7"/>
<text text-anchor="start" x="765.3862" y="-361.8" font-family="Helvetica,sans-Serif" font-size="11.00" fill="#000000"> &#160;</text>
<polygon fill="#ffffff" stroke="transparent" points="774.5,-355.7 774.5,-374.7 829.5,-374.7 829.5,-355.7 774.5,-355.7"/>
<polygon fill="none" stroke="#000000" points="774.5,-355.7 774.5,-374.7 829.5,-374.7 829.5,-355.7 774.5,-355.7"/>
<text text-anchor="start" x="820.3862" y="-361.8" font-family="Helvetica,sans-Serif" font-size="11.00" fill="#000000"> &#160;</text>
</a>
</g>
</g>
<!-- identified_need_audit&#45;&gt;plan -->
<g id="edge2" class="edge">
<title>identified_need_audit:w&#45;&gt;plan:e</title>
<path fill="none" stroke="#000000" stroke-dasharray="5,2" d="M598.0194,-423.7075C568.8253,-409.8632 577.9357,-352.7 536.5,-352.7"/>
<polygon fill="#000000" stroke="#000000" points="604.6655,-425.0809 611.7714,-430.2255 608.5828,-425.8905 612.5,-426.7 612.5,-426.7 612.5,-426.7 608.5828,-425.8905 613.2286,-423.1745 604.6655,-425.0809 604.6655,-425.0809"/>
<ellipse fill="none" stroke="#000000" cx="601.5318" cy="-424.4333" rx="3.2" ry="3.2"/>
</g>
<!-- review -->
<g id="node5" class="node">
<title>review</title>
<g id="a_node5"><a xlink:href="../../tables/review.html" xlink:title="review" target="_top">
<polygon fill="#ffffff" stroke="transparent" points="620,-208.2 620,-335.2 821,-335.2 821,-208.2 620,-208.2"/>
<polygon fill="#f5f5f5" stroke="transparent" points="620.5,-311.7 620.5,-334.7 821.5,-334.7 821.5,-311.7 620.5,-311.7"/>
<polygon fill="none" stroke="#000000" points="620.5,-311.7 620.5,-334.7 821.5,-334.7 821.5,-311.7 620.5,-311.7"/>
<text text-anchor="start" x="625.5" y="-320.3" font-family="Helvetica,sans-Serif" font-weight="bold" font-size="11.00" fill="#000000">review</text>
<text text-anchor="start" x="786.5437" y="-319.8" font-family="Helvetica,sans-Serif" font-size="11.00" fill="#000000">[table]</text>
<polygon fill="none" stroke="#000000" points="620.5,-289.7 620.5,-311.7 821.5,-311.7 821.5,-289.7 620.5,-289.7"/>
<image xlink:href="../../images/primaryKeys.png" width="11px" height="12px" preserveAspectRatio="xMinYMin meet" x="625.5" y="-306.7"/>
<text text-anchor="start" x="640.5" y="-296.8" font-family="Helvetica,sans-Serif" font-size="11.00" fill="#000000">review_id</text>
<polygon fill="#ffffff" stroke="transparent" points="620.5,-267.7 620.5,-289.7 821.5,-289.7 821.5,-267.7 620.5,-267.7"/>
<polygon fill="none" stroke="#000000" points="620.5,-267.7 620.5,-289.7 821.5,-289.7 821.5,-267.7 620.5,-267.7"/>
<image xlink:href="../../images/foreignKeys.png" width="11px" height="12px" preserveAspectRatio="xMinYMin meet" x="625.5" y="-284.7"/>
<text text-anchor="start" x="640.5" y="-274.8" font-family="Helvetica,sans-Serif" font-size="11.00" fill="#000000">plan_id</text>
<polygon fill="#ffffff" stroke="transparent" points="620.5,-245.7 620.5,-267.7 821.5,-267.7 821.5,-245.7 620.5,-245.7"/>
<polygon fill="none" stroke="#000000" points="620.5,-245.7 620.5,-267.7 821.5,-267.7 821.5,-245.7 620.5,-245.7"/>
<image xlink:href="../../images/foreignKeys.png" width="11px" height="12px" preserveAspectRatio="xMinYMin meet" x="625.5" y="-262.7"/>
<text text-anchor="start" x="640.5" y="-252.8" font-family="Helvetica,sans-Serif" font-size="11.00" fill="#000000">legacy_id</text>
<polygon fill="none" stroke="#000000" points="620.5,-226.7 620.5,-245.7 821.5,-245.7 821.5,-226.7 620.5,-226.7"/>
<text text-anchor="start" x="623.5" y="-232.8" font-family="Helvetica,sans-Serif" font-size="11.00" fill="#000000">...</text>
<polygon fill="#ffffff" stroke="transparent" points="620.5,-207.7 620.5,-226.7 714.5,-226.7 714.5,-207.7 620.5,-207.7"/>
<polygon fill="none" stroke="#000000" points="620.5,-207.7 620.5,-226.7 714.5,-226.7 714.5,-207.7 620.5,-207.7"/>
<text text-anchor="start" x="623.5" y="-213.8" font-family="Helvetica,sans-Serif" font-size="11.00" fill="#000000">&lt; 1</text>
<polygon fill="#ffffff" stroke="transparent" points="714.5,-207.7 714.5,-226.7 763.5,-226.7 763.5,-207.7 714.5,-207.7"/>
<polygon fill="none" stroke="#000000" points="714.5,-207.7 714.5,-226.7 763.5,-226.7 763.5,-207.7 714.5,-207.7"/>
<text text-anchor="start" x="754.3862" y="-213.8" font-family="Helvetica,sans-Serif" font-size="11.00" fill="#000000"> &#160;</text>
<polygon fill="#ffffff" stroke="transparent" points="763.5,-207.7 763.5,-226.7 821.5,-226.7 821.5,-207.7 763.5,-207.7"/>
<polygon fill="none" stroke="#000000" points="763.5,-207.7 763.5,-226.7 821.5,-226.7 821.5,-207.7 763.5,-207.7"/>
<text text-anchor="start" x="802.9053" y="-213.8" font-family="Helvetica,sans-Serif" font-size="11.00" fill="#000000">1 &gt;</text>
</a>
</g>
</g>
<!-- review&#45;&gt;plan -->
<g id="edge4" class="edge">
<title>review:w&#45;&gt;plan:e</title>
<path fill="none" stroke="#000000" d="M605.9141,-281.3337C573.4221,-294.516 580.6178,-352.7 536.5,-352.7"/>
<polygon fill="#000000" stroke="#000000" points="612.6273,-280.1216 621.1397,-282.2427 616.5637,-279.4108 620.5,-278.7 620.5,-278.7 620.5,-278.7 616.5637,-279.4108 619.8603,-275.1573 612.6273,-280.1216 612.6273,-280.1216"/>
<ellipse fill="none" stroke="#000000" cx="609.4782" cy="-280.6902" rx="3.2" ry="3.2"/>
</g>
<!-- review_audit -->
<g id="node6" class="node">
<title>review_audit</title>
<g id="a_node6"><a xlink:href="../../tables/review_audit.html" xlink:title="review_audit" target="_top">
<polygon fill="#ffffff" stroke="transparent" points="587,-38.2 587,-187.2 854,-187.2 854,-38.2 587,-38.2"/>
<polygon fill="#f5f5f5" stroke="transparent" points="587.5,-163.7 587.5,-186.7 854.5,-186.7 854.5,-163.7 587.5,-163.7"/>
<polygon fill="none" stroke="#000000" points="587.5,-163.7 587.5,-186.7 854.5,-186.7 854.5,-163.7 587.5,-163.7"/>
<text text-anchor="start" x="592.5" y="-172.3" font-family="Helvetica,sans-Serif" font-weight="bold" font-size="11.00" fill="#000000">review_audit</text>
<text text-anchor="start" x="819.5437" y="-171.8" font-family="Helvetica,sans-Serif" font-size="11.00" fill="#000000">[table]</text>
<polygon fill="none" stroke="#000000" points="587.5,-141.7 587.5,-163.7 854.5,-163.7 854.5,-141.7 587.5,-141.7"/>
<image xlink:href="../../images/primaryKeys.png" width="11px" height="12px" preserveAspectRatio="xMinYMin meet" x="592.5" y="-158.7"/>
<text text-anchor="start" x="607.5" y="-148.8" font-family="Helvetica,sans-Serif" font-size="11.00" fill="#000000">rev_id</text>
<polygon fill="none" stroke="#000000" points="587.5,-119.7 587.5,-141.7 854.5,-141.7 854.5,-119.7 587.5,-119.7"/>
<image xlink:href="../../images/primaryKeys.png" width="11px" height="12px" preserveAspectRatio="xMinYMin meet" x="592.5" y="-136.7"/>
<text text-anchor="start" x="607.5" y="-126.8" font-family="Helvetica,sans-Serif" font-size="11.00" fill="#000000">review_id</text>
<polygon fill="none" stroke="#000000" points="587.5,-97.7 587.5,-119.7 854.5,-119.7 854.5,-97.7 587.5,-97.7"/>
<image xlink:href="../../images/foreignKeys.png" width="11px" height="12px" preserveAspectRatio="xMinYMin meet" x="592.5" y="-114.7"/>
<text text-anchor="start" x="607.5" y="-104.8" font-family="Helvetica,sans-Serif" font-size="11.00" fill="#000000">plan_id</text>
<polygon fill="none" stroke="#000000" points="587.5,-75.7 587.5,-97.7 854.5,-97.7 854.5,-75.7 587.5,-75.7"/>
<image xlink:href="../../images/foreignKeys.png" width="11px" height="12px" preserveAspectRatio="xMinYMin meet" x="592.5" y="-92.7"/>
<text text-anchor="start" x="607.5" y="-82.8" font-family="Helvetica,sans-Serif" font-size="11.00" fill="#000000">legacy_id</text>
<polygon fill="none" stroke="#000000" points="587.5,-56.7 587.5,-75.7 854.5,-75.7 854.5,-56.7 587.5,-56.7"/>
<text text-anchor="start" x="590.5" y="-62.8" font-family="Helvetica,sans-Serif" font-size="11.00" fill="#000000">...</text>
<polygon fill="#ffffff" stroke="transparent" points="587.5,-37.7 587.5,-56.7 719.5,-56.7 719.5,-37.7 587.5,-37.7"/>
<polygon fill="none" stroke="#000000" points="587.5,-37.7 587.5,-56.7 719.5,-56.7 719.5,-37.7 587.5,-37.7"/>
<text text-anchor="start" x="590.5" y="-43.8" font-family="Helvetica,sans-Serif" font-size="11.00" fill="#000000">&lt; 3</text>
<polygon fill="#ffffff" stroke="transparent" points="719.5,-37.7 719.5,-56.7 786.5,-56.7 786.5,-37.7 719.5,-37.7"/>
<polygon fill="none" stroke="#000000" points="719.5,-37.7 719.5,-56.7 786.5,-56.7 786.5,-37.7 719.5,-37.7"/>
<text text-anchor="start" x="777.3862" y="-43.8" font-family="Helvetica,sans-Serif" font-size="11.00" fill="#000000"> &#160;</text>
<polygon fill="#ffffff" stroke="transparent" points="786.5,-37.7 786.5,-56.7 854.5,-56.7 854.5,-37.7 786.5,-37.7"/>
<polygon fill="none" stroke="#000000" points="786.5,-37.7 786.5,-56.7 854.5,-56.7 854.5,-37.7 786.5,-37.7"/>
<text text-anchor="start" x="845.3862" y="-43.8" font-family="Helvetica,sans-Serif" font-size="11.00" fill="#000000"> &#160;</text>
</a>
</g>
</g>
<!-- review_audit&#45;&gt;plan -->
<g id="edge5" class="edge">
<title>review_audit:w&#45;&gt;plan:e</title>
<path fill="none" stroke="#000000" stroke-dasharray="5,2" d="M572.7251,-110.5237C493.3106,-132.852 641.662,-352.7 536.5,-352.7"/>
<polygon fill="#000000" stroke="#000000" points="579.5603,-109.6801 587.941,-112.2729 583.5301,-109.19 587.5,-108.7 587.5,-108.7 587.5,-108.7 583.5301,-109.19 587.059,-105.1271 579.5603,-109.6801 579.5603,-109.6801"/>
<ellipse fill="none" stroke="#000000" cx="576.3844" cy="-110.0721" rx="3.2" ry="3.2"/>
</g>
</g>
</svg>
