<?xml version="1.0" encoding="UTF-8" standalone="no"?>
<!DOCTYPE svg PUBLIC "-//W3C//DTD SVG 1.1//EN"
 "http://www.w3.org/Graphics/SVG/1.1/DTD/svg11.dtd">
<!-- Generated by graphviz version 2.40.1 (20161225.0304)
 -->
<!-- Title: twoDegreesRelationshipsDiagram Pages: 1 -->
<svg width="575pt" height="1197pt"
 viewBox="0.00 0.00 575.00 1197.20" xmlns="http://www.w3.org/2000/svg" xmlns:xlink="http://www.w3.org/1999/xlink">
<g id="graph0" class="graph" transform="scale(1 1) rotate(0) translate(4 1193.2)">
<title>twoDegreesRelationshipsDiagram</title>
<polygon fill="#ffffff" stroke="transparent" points="-4,4 -4,-1193.2 571,-1193.2 571,4 -4,4"/>
<text text-anchor="middle" x="72.4936" y="-7.3" font-family="Helvetica,sans-Serif" font-size="11.00" fill="#000000">Generated by SchemaSpy</text>
<!-- attendee_audit -->
<g id="node1" class="node">
<title>attendee_audit</title>
<g id="a_node1"><a xlink:href="../../tables/attendee_audit.html" xlink:title="attendee_audit" target="_top">
<polygon fill="#ffffff" stroke="transparent" points="320.5,-1124.2 320.5,-1185.2 461.5,-1185.2 461.5,-1124.2 320.5,-1124.2"/>
<polygon fill="#f5f5f5" stroke="transparent" points="321,-1161.7 321,-1184.7 462,-1184.7 462,-1161.7 321,-1161.7"/>
<polygon fill="none" stroke="#000000" points="321,-1161.7 321,-1184.7 462,-1184.7 462,-1161.7 321,-1161.7"/>
<text text-anchor="start" x="326" y="-1170.3" font-family="Helvetica,sans-Serif" font-weight="bold" font-size="11.00" fill="#000000">attendee_audit</text>
<text text-anchor="start" x="427.5219" y="-1169.8" font-family="Helvetica,sans-Serif" font-size="11.00" fill="#000000">[table]</text>
<polygon fill="none" stroke="#000000" points="321,-1142.7 321,-1161.7 462,-1161.7 462,-1142.7 321,-1142.7"/>
<text text-anchor="start" x="324" y="-1148.8" font-family="Helvetica,sans-Serif" font-size="11.00" fill="#000000">...</text>
<polygon fill="#ffffff" stroke="transparent" points="321,-1123.7 321,-1142.7 390,-1142.7 390,-1123.7 321,-1123.7"/>
<polygon fill="none" stroke="#000000" points="321,-1123.7 321,-1142.7 390,-1142.7 390,-1123.7 321,-1123.7"/>
<text text-anchor="start" x="324" y="-1129.8" font-family="Helvetica,sans-Serif" font-size="11.00" fill="#000000">&lt; 1</text>
<polygon fill="#ffffff" stroke="transparent" points="390,-1123.7 390,-1142.7 426,-1142.7 426,-1123.7 390,-1123.7"/>
<polygon fill="none" stroke="#000000" points="390,-1123.7 390,-1142.7 426,-1142.7 426,-1123.7 390,-1123.7"/>
<text text-anchor="start" x="416.8862" y="-1129.8" font-family="Helvetica,sans-Serif" font-size="11.00" fill="#000000"> &#160;</text>
<polygon fill="#ffffff" stroke="transparent" points="426,-1123.7 426,-1142.7 462,-1142.7 462,-1123.7 426,-1123.7"/>
<polygon fill="none" stroke="#000000" points="426,-1123.7 426,-1142.7 462,-1142.7 462,-1123.7 426,-1123.7"/>
<text text-anchor="start" x="452.8862" y="-1129.8" font-family="Helvetica,sans-Serif" font-size="11.00" fill="#000000"> &#160;</text>
</a>
</g>
</g>
<!-- audit_revision -->
<g id="node2" class="node">
<title>audit_revision</title>
<g id="a_node2"><a xlink:href="../../tables/audit_revision.html" xlink:title="audit_revision" target="_top">
<polygon fill="#ffffff" stroke="transparent" points="8,-652.2 8,-735.2 174,-735.2 174,-652.2 8,-652.2"/>
<polygon fill="#f5f5f5" stroke="transparent" points="8,-711.7 8,-734.7 174,-734.7 174,-711.7 8,-711.7"/>
<polygon fill="none" stroke="#000000" points="8,-711.7 8,-734.7 174,-734.7 174,-711.7 8,-711.7"/>
<text text-anchor="start" x="13" y="-720.3" font-family="Helvetica,sans-Serif" font-weight="bold" font-size="11.00" fill="#000000">audit_revision</text>
<text text-anchor="start" x="139.0437" y="-719.8" font-family="Helvetica,sans-Serif" font-size="11.00" fill="#000000">[table]</text>
<polygon fill="none" stroke="#000000" points="8,-689.7 8,-711.7 174,-711.7 174,-689.7 8,-689.7"/>
<image xlink:href="../../images/primaryKeys.png" width="11px" height="12px" preserveAspectRatio="xMinYMin meet" x="13" y="-706.7"/>
<text text-anchor="start" x="28" y="-696.8" font-family="Helvetica,sans-Serif" font-size="11.00" fill="#000000">id</text>
<polygon fill="none" stroke="#000000" points="8,-670.7 8,-689.7 174,-689.7 174,-670.7 8,-670.7"/>
<text text-anchor="start" x="11" y="-676.8" font-family="Helvetica,sans-Serif" font-size="11.00" fill="#000000">...</text>
<polygon fill="#ffffff" stroke="transparent" points="8,-651.7 8,-670.7 77,-670.7 77,-651.7 8,-651.7"/>
<polygon fill="none" stroke="#000000" points="8,-651.7 8,-670.7 77,-670.7 77,-651.7 8,-651.7"/>
<text text-anchor="start" x="11" y="-657.8" font-family="Helvetica,sans-Serif" font-size="11.00" fill="#000000"> &#160;</text>
<polygon fill="#ffffff" stroke="transparent" points="77,-651.7 77,-670.7 118,-670.7 118,-651.7 77,-651.7"/>
<polygon fill="none" stroke="#000000" points="77,-651.7 77,-670.7 118,-670.7 118,-651.7 77,-651.7"/>
<text text-anchor="start" x="108.8862" y="-657.8" font-family="Helvetica,sans-Serif" font-size="11.00" fill="#000000"> &#160;</text>
<polygon fill="#ffffff" stroke="transparent" points="118,-651.7 118,-670.7 174,-670.7 174,-651.7 118,-651.7"/>
<polygon fill="none" stroke="#000000" points="118,-651.7 118,-670.7 174,-670.7 174,-651.7 118,-651.7"/>
<text text-anchor="start" x="149.2904" y="-657.8" font-family="Helvetica,sans-Serif" font-size="11.00" fill="#000000">12 &gt;</text>
</a>
</g>
</g>
<!-- attendee_audit&#45;&gt;audit_revision -->
<g id="edge1" class="edge">
<title>attendee_audit:w&#45;&gt;audit_revision:e</title>
<path fill="none" stroke="#000000" d="M306.4895,-1151.7006C265.7845,-1151.573 242.6662,-1149.1449 215,-1113.7 158.2518,-1040.9964 266.2289,-700.7 174,-700.7"/>
<polygon fill="#000000" stroke="#000000" points="313,-1151.7004 321.0002,-1155.3 317,-1151.7002 321,-1151.7 321,-1151.7 321,-1151.7 317,-1151.7002 320.9998,-1148.1 313,-1151.7004 313,-1151.7004"/>
<ellipse fill="none" stroke="#000000" cx="309.8" cy="-1151.7005" rx="3.2" ry="3.2"/>
</g>
<!-- contributory_factor_audit -->
<g id="node3" class="node">
<title>contributory_factor_audit</title>
<g id="a_node3"><a xlink:href="../../tables/contributory_factor_audit.html" xlink:title="contributory_factor_audit" target="_top">
<polygon fill="#ffffff" stroke="transparent" points="286,-1042.2 286,-1103.2 496,-1103.2 496,-1042.2 286,-1042.2"/>
<polygon fill="#f5f5f5" stroke="transparent" points="286,-1079.7 286,-1102.7 496,-1102.7 496,-1079.7 286,-1079.7"/>
<polygon fill="none" stroke="#000000" points="286,-1079.7 286,-1102.7 496,-1102.7 496,-1079.7 286,-1079.7"/>
<text text-anchor="start" x="291" y="-1088.3" font-family="Helvetica,sans-Serif" font-weight="bold" font-size="11.00" fill="#000000">contributory_factor_audit</text>
<text text-anchor="start" x="461.5219" y="-1087.8" font-family="Helvetica,sans-Serif" font-size="11.00" fill="#000000">[table]</text>
<polygon fill="none" stroke="#000000" points="286,-1060.7 286,-1079.7 496,-1079.7 496,-1060.7 286,-1060.7"/>
<text text-anchor="start" x="289" y="-1066.8" font-family="Helvetica,sans-Serif" font-size="11.00" fill="#000000">...</text>
<polygon fill="#ffffff" stroke="transparent" points="286,-1041.7 286,-1060.7 389,-1060.7 389,-1041.7 286,-1041.7"/>
<polygon fill="none" stroke="#000000" points="286,-1041.7 286,-1060.7 389,-1060.7 389,-1041.7 286,-1041.7"/>
<text text-anchor="start" x="289" y="-1047.8" font-family="Helvetica,sans-Serif" font-size="11.00" fill="#000000">&lt; 1</text>
<polygon fill="#ffffff" stroke="transparent" points="389,-1041.7 389,-1060.7 442,-1060.7 442,-1041.7 389,-1041.7"/>
<polygon fill="none" stroke="#000000" points="389,-1041.7 389,-1060.7 442,-1060.7 442,-1041.7 389,-1041.7"/>
<text text-anchor="start" x="432.8862" y="-1047.8" font-family="Helvetica,sans-Serif" font-size="11.00" fill="#000000"> &#160;</text>
<polygon fill="#ffffff" stroke="transparent" points="442,-1041.7 442,-1060.7 496,-1060.7 496,-1041.7 442,-1041.7"/>
<polygon fill="none" stroke="#000000" points="442,-1041.7 442,-1060.7 496,-1060.7 496,-1041.7 442,-1041.7"/>
<text text-anchor="start" x="486.8862" y="-1047.8" font-family="Helvetica,sans-Serif" font-size="11.00" fill="#000000"> &#160;</text>
</a>
</g>
</g>
<!-- contributory_factor_audit&#45;&gt;audit_revision -->
<g id="edge2" class="edge">
<title>contributory_factor_audit:w&#45;&gt;audit_revision:e</title>
<path fill="none" stroke="#000000" d="M271.3533,-1069.098C245.651,-1066.7171 232.2422,-1056.8322 215,-1031.7 173.07,-970.5829 248.1177,-700.7 174,-700.7"/>
<polygon fill="#000000" stroke="#000000" points="278.0067,-1069.3714 285.8521,-1073.297 282.0034,-1069.5357 286,-1069.7 286,-1069.7 286,-1069.7 282.0034,-1069.5357 286.1479,-1066.103 278.0067,-1069.3714 278.0067,-1069.3714"/>
<ellipse fill="none" stroke="#000000" cx="274.8094" cy="-1069.24" rx="3.2" ry="3.2"/>
</g>
<!-- csip_record_audit -->
<g id="node4" class="node">
<title>csip_record_audit</title>
<g id="a_node4"><a xlink:href="../../tables/csip_record_audit.html" xlink:title="csip_record_audit" target="_top">
<polygon fill="#ffffff" stroke="transparent" points="313,-960.2 313,-1021.2 469,-1021.2 469,-960.2 313,-960.2"/>
<polygon fill="#f5f5f5" stroke="transparent" points="313,-997.7 313,-1020.7 469,-1020.7 469,-997.7 313,-997.7"/>
<polygon fill="none" stroke="#000000" points="313,-997.7 313,-1020.7 469,-1020.7 469,-997.7 313,-997.7"/>
<text text-anchor="start" x="318" y="-1006.3" font-family="Helvetica,sans-Serif" font-weight="bold" font-size="11.00" fill="#000000">csip_record_audit</text>
<text text-anchor="start" x="434.5219" y="-1005.8" font-family="Helvetica,sans-Serif" font-size="11.00" fill="#000000">[table]</text>
<polygon fill="none" stroke="#000000" points="313,-978.7 313,-997.7 469,-997.7 469,-978.7 313,-978.7"/>
<text text-anchor="start" x="316" y="-984.8" font-family="Helvetica,sans-Serif" font-size="11.00" fill="#000000">...</text>
<polygon fill="#ffffff" stroke="transparent" points="313,-959.7 313,-978.7 389,-978.7 389,-959.7 313,-959.7"/>
<polygon fill="none" stroke="#000000" points="313,-959.7 313,-978.7 389,-978.7 389,-959.7 313,-959.7"/>
<text text-anchor="start" x="316" y="-965.8" font-family="Helvetica,sans-Serif" font-size="11.00" fill="#000000">&lt; 1</text>
<polygon fill="#ffffff" stroke="transparent" points="389,-959.7 389,-978.7 429,-978.7 429,-959.7 389,-959.7"/>
<polygon fill="none" stroke="#000000" points="389,-959.7 389,-978.7 429,-978.7 429,-959.7 389,-959.7"/>
<text text-anchor="start" x="419.8862" y="-965.8" font-family="Helvetica,sans-Serif" font-size="11.00" fill="#000000"> &#160;</text>
<polygon fill="#ffffff" stroke="transparent" points="429,-959.7 429,-978.7 469,-978.7 469,-959.7 429,-959.7"/>
<polygon fill="none" stroke="#000000" points="429,-959.7 429,-978.7 469,-978.7 469,-959.7 429,-959.7"/>
<text text-anchor="start" x="459.8862" y="-965.8" font-family="Helvetica,sans-Serif" font-size="11.00" fill="#000000"> &#160;</text>
</a>
</g>
</g>
<!-- csip_record_audit&#45;&gt;audit_revision -->
<g id="edge3" class="edge">
<title>csip_record_audit:w&#45;&gt;audit_revision:e</title>
<path fill="none" stroke="#000000" d="M298.5219,-987.5948C261.4169,-986.9073 241.2275,-981.9981 215,-949.7 179.6493,-906.167 230.0784,-700.7 174,-700.7"/>
<polygon fill="#000000" stroke="#000000" points="305.0002,-987.6418 312.9738,-991.2999 309.0001,-987.6709 313,-987.7 313,-987.7 313,-987.7 309.0001,-987.6709 313.0262,-984.1001 305.0002,-987.6418 305.0002,-987.6418"/>
<ellipse fill="none" stroke="#000000" cx="301.8003" cy="-987.6185" rx="3.2" ry="3.2"/>
</g>
<!-- decision_and_actions_audit -->
<g id="node5" class="node">
<title>decision_and_actions_audit</title>
<g id="a_node5"><a xlink:href="../../tables/decision_and_actions_audit.html" xlink:title="decision_and_actions_audit" target="_top">
<polygon fill="#ffffff" stroke="transparent" points="280,-878.2 280,-939.2 502,-939.2 502,-878.2 280,-878.2"/>
<polygon fill="#f5f5f5" stroke="transparent" points="280,-915.7 280,-938.7 502,-938.7 502,-915.7 280,-915.7"/>
<polygon fill="none" stroke="#000000" points="280,-915.7 280,-938.7 502,-938.7 502,-915.7 280,-915.7"/>
<text text-anchor="start" x="285" y="-924.3" font-family="Helvetica,sans-Serif" font-weight="bold" font-size="11.00" fill="#000000">decision_and_actions_audit</text>
<text text-anchor="start" x="467.5219" y="-923.8" font-family="Helvetica,sans-Serif" font-size="11.00" fill="#000000">[table]</text>
<polygon fill="none" stroke="#000000" points="280,-896.7 280,-915.7 502,-915.7 502,-896.7 280,-896.7"/>
<text text-anchor="start" x="283" y="-902.8" font-family="Helvetica,sans-Serif" font-size="11.00" fill="#000000">...</text>
<polygon fill="#ffffff" stroke="transparent" points="280,-877.7 280,-896.7 389,-896.7 389,-877.7 280,-877.7"/>
<polygon fill="none" stroke="#000000" points="280,-877.7 280,-896.7 389,-896.7 389,-877.7 280,-877.7"/>
<text text-anchor="start" x="283" y="-883.8" font-family="Helvetica,sans-Serif" font-size="11.00" fill="#000000">&lt; 1</text>
<polygon fill="#ffffff" stroke="transparent" points="389,-877.7 389,-896.7 445,-896.7 445,-877.7 389,-877.7"/>
<polygon fill="none" stroke="#000000" points="389,-877.7 389,-896.7 445,-896.7 445,-877.7 389,-877.7"/>
<text text-anchor="start" x="435.8862" y="-883.8" font-family="Helvetica,sans-Serif" font-size="11.00" fill="#000000"> &#160;</text>
<polygon fill="#ffffff" stroke="transparent" points="445,-877.7 445,-896.7 502,-896.7 502,-877.7 445,-877.7"/>
<polygon fill="none" stroke="#000000" points="445,-877.7 445,-896.7 502,-896.7 502,-877.7 445,-877.7"/>
<text text-anchor="start" x="492.8862" y="-883.8" font-family="Helvetica,sans-Serif" font-size="11.00" fill="#000000"> &#160;</text>
</a>
</g>
</g>
<!-- decision_and_actions_audit&#45;&gt;audit_revision -->
<g id="edge4" class="edge">
<title>decision_and_actions_audit:w&#45;&gt;audit_revision:e</title>
<path fill="none" stroke="#000000" d="M265.4854,-904.8211C242.629,-901.7166 231.8119,-890.221 215,-867.7 169.2815,-806.4561 250.4264,-700.7 174,-700.7"/>
<polygon fill="#000000" stroke="#000000" points="272.0146,-905.2164 279.7824,-909.2934 276.0073,-905.4582 280,-905.7 280,-905.7 280,-905.7 276.0073,-905.4582 280.2176,-902.1066 272.0146,-905.2164 272.0146,-905.2164"/>
<ellipse fill="none" stroke="#000000" cx="268.8205" cy="-905.023" rx="3.2" ry="3.2"/>
</g>
<!-- identified_need_audit -->
<g id="node6" class="node">
<title>identified_need_audit</title>
<g id="a_node6"><a xlink:href="../../tables/identified_need_audit.html" xlink:title="identified_need_audit" target="_top">
<polygon fill="#ffffff" stroke="transparent" points="299,-796.2 299,-857.2 483,-857.2 483,-796.2 299,-796.2"/>
<polygon fill="#f5f5f5" stroke="transparent" points="299,-833.7 299,-856.7 483,-856.7 483,-833.7 299,-833.7"/>
<polygon fill="none" stroke="#000000" points="299,-833.7 299,-856.7 483,-856.7 483,-833.7 299,-833.7"/>
<text text-anchor="start" x="304" y="-842.3" font-family="Helvetica,sans-Serif" font-weight="bold" font-size="11.00" fill="#000000">identified_need_audit</text>
<text text-anchor="start" x="448.5219" y="-841.8" font-family="Helvetica,sans-Serif" font-size="11.00" fill="#000000">[table]</text>
<polygon fill="none" stroke="#000000" points="299,-814.7 299,-833.7 483,-833.7 483,-814.7 299,-814.7"/>
<text text-anchor="start" x="302" y="-820.8" font-family="Helvetica,sans-Serif" font-size="11.00" fill="#000000">...</text>
<polygon fill="#ffffff" stroke="transparent" points="299,-795.7 299,-814.7 389,-814.7 389,-795.7 299,-795.7"/>
<polygon fill="none" stroke="#000000" points="299,-795.7 299,-814.7 389,-814.7 389,-795.7 299,-795.7"/>
<text text-anchor="start" x="302" y="-801.8" font-family="Helvetica,sans-Serif" font-size="11.00" fill="#000000">&lt; 1</text>
<polygon fill="#ffffff" stroke="transparent" points="389,-795.7 389,-814.7 436,-814.7 436,-795.7 389,-795.7"/>
<polygon fill="none" stroke="#000000" points="389,-795.7 389,-814.7 436,-814.7 436,-795.7 389,-795.7"/>
<text text-anchor="start" x="426.8862" y="-801.8" font-family="Helvetica,sans-Serif" font-size="11.00" fill="#000000"> &#160;</text>
<polygon fill="#ffffff" stroke="transparent" points="436,-795.7 436,-814.7 483,-814.7 483,-795.7 436,-795.7"/>
<polygon fill="none" stroke="#000000" points="436,-795.7 436,-814.7 483,-814.7 483,-795.7 436,-795.7"/>
<text text-anchor="start" x="473.8862" y="-801.8" font-family="Helvetica,sans-Serif" font-size="11.00" fill="#000000"> &#160;</text>
</a>
</g>
</g>
<!-- identified_need_audit&#45;&gt;audit_revision -->
<g id="edge5" class="edge">
<title>identified_need_audit:w&#45;&gt;audit_revision:e</title>
<path fill="none" stroke="#000000" d="M284.4219,-823.2111C254.2335,-820.961 240.5478,-810.6269 215,-785.7 184.9793,-756.4089 215.9429,-700.7 174,-700.7"/>
<polygon fill="#000000" stroke="#000000" points="291.0045,-823.4318 298.8793,-827.298 295.0022,-823.5659 299,-823.7 299,-823.7 299,-823.7 295.0022,-823.5659 299.1207,-820.102 291.0045,-823.4318 291.0045,-823.4318"/>
<ellipse fill="none" stroke="#000000" cx="287.8063" cy="-823.3245" rx="3.2" ry="3.2"/>
</g>
<!-- interview_audit -->
<g id="node7" class="node">
<title>interview_audit</title>
<g id="a_node7"><a xlink:href="../../tables/interview_audit.html" xlink:title="interview_audit" target="_top">
<polygon fill="#ffffff" stroke="transparent" points="319.5,-714.2 319.5,-775.2 462.5,-775.2 462.5,-714.2 319.5,-714.2"/>
<polygon fill="#f5f5f5" stroke="transparent" points="320,-751.7 320,-774.7 463,-774.7 463,-751.7 320,-751.7"/>
<polygon fill="none" stroke="#000000" points="320,-751.7 320,-774.7 463,-774.7 463,-751.7 320,-751.7"/>
<text text-anchor="start" x="325" y="-760.3" font-family="Helvetica,sans-Serif" font-weight="bold" font-size="11.00" fill="#000000">interview_audit</text>
<text text-anchor="start" x="428.5219" y="-759.8" font-family="Helvetica,sans-Serif" font-size="11.00" fill="#000000">[table]</text>
<polygon fill="none" stroke="#000000" points="320,-732.7 320,-751.7 463,-751.7 463,-732.7 320,-732.7"/>
<text text-anchor="start" x="323" y="-738.8" font-family="Helvetica,sans-Serif" font-size="11.00" fill="#000000">...</text>
<polygon fill="#ffffff" stroke="transparent" points="320,-713.7 320,-732.7 390,-732.7 390,-713.7 320,-713.7"/>
<polygon fill="none" stroke="#000000" points="320,-713.7 320,-732.7 390,-732.7 390,-713.7 320,-713.7"/>
<text text-anchor="start" x="323" y="-719.8" font-family="Helvetica,sans-Serif" font-size="11.00" fill="#000000">&lt; 1</text>
<polygon fill="#ffffff" stroke="transparent" points="390,-713.7 390,-732.7 426,-732.7 426,-713.7 390,-713.7"/>
<polygon fill="none" stroke="#000000" points="390,-713.7 390,-732.7 426,-732.7 426,-713.7 390,-713.7"/>
<text text-anchor="start" x="416.8862" y="-719.8" font-family="Helvetica,sans-Serif" font-size="11.00" fill="#000000"> &#160;</text>
<polygon fill="#ffffff" stroke="transparent" points="426,-713.7 426,-732.7 463,-732.7 463,-713.7 426,-713.7"/>
<polygon fill="none" stroke="#000000" points="426,-713.7 426,-732.7 463,-732.7 463,-713.7 426,-713.7"/>
<text text-anchor="start" x="453.8862" y="-719.8" font-family="Helvetica,sans-Serif" font-size="11.00" fill="#000000"> &#160;</text>
</a>
</g>
</g>
<!-- interview_audit&#45;&gt;audit_revision -->
<g id="edge6" class="edge">
<title>interview_audit:w&#45;&gt;audit_revision:e</title>
<path fill="none" stroke="#000000" d="M305.5268,-741.0226C250.5684,-735.6918 236.265,-700.7 174,-700.7"/>
<polygon fill="#000000" stroke="#000000" points="312.0087,-741.3259 319.8317,-745.2961 316.0044,-741.513 320,-741.7 320,-741.7 320,-741.7 316.0044,-741.513 320.1683,-738.1039 312.0087,-741.3259 312.0087,-741.3259"/>
<ellipse fill="none" stroke="#000000" cx="308.8122" cy="-741.1763" rx="3.2" ry="3.2"/>
</g>
<!-- investigation_audit -->
<g id="node8" class="node">
<title>investigation_audit</title>
<g id="a_node8"><a xlink:href="../../tables/investigation_audit.html" xlink:title="investigation_audit" target="_top">
<polygon fill="#ffffff" stroke="transparent" points="306.5,-632.2 306.5,-693.2 475.5,-693.2 475.5,-632.2 306.5,-632.2"/>
<polygon fill="#f5f5f5" stroke="transparent" points="307,-669.7 307,-692.7 476,-692.7 476,-669.7 307,-669.7"/>
<polygon fill="none" stroke="#000000" points="307,-669.7 307,-692.7 476,-692.7 476,-669.7 307,-669.7"/>
<text text-anchor="start" x="312" y="-678.3" font-family="Helvetica,sans-Serif" font-weight="bold" font-size="11.00" fill="#000000">investigation_audit</text>
<text text-anchor="start" x="441.5219" y="-677.8" font-family="Helvetica,sans-Serif" font-size="11.00" fill="#000000">[table]</text>
<polygon fill="none" stroke="#000000" points="307,-650.7 307,-669.7 476,-669.7 476,-650.7 307,-650.7"/>
<text text-anchor="start" x="310" y="-656.8" font-family="Helvetica,sans-Serif" font-size="11.00" fill="#000000">...</text>
<polygon fill="#ffffff" stroke="transparent" points="307,-631.7 307,-650.7 390,-650.7 390,-631.7 307,-631.7"/>
<polygon fill="none" stroke="#000000" points="307,-631.7 307,-650.7 390,-650.7 390,-631.7 307,-631.7"/>
<text text-anchor="start" x="310" y="-637.8" font-family="Helvetica,sans-Serif" font-size="11.00" fill="#000000">&lt; 1</text>
<polygon fill="#ffffff" stroke="transparent" points="390,-631.7 390,-650.7 433,-650.7 433,-631.7 390,-631.7"/>
<polygon fill="none" stroke="#000000" points="390,-631.7 390,-650.7 433,-650.7 433,-631.7 390,-631.7"/>
<text text-anchor="start" x="423.8862" y="-637.8" font-family="Helvetica,sans-Serif" font-size="11.00" fill="#000000"> &#160;</text>
<polygon fill="#ffffff" stroke="transparent" points="433,-631.7 433,-650.7 476,-650.7 476,-631.7 433,-631.7"/>
<polygon fill="none" stroke="#000000" points="433,-631.7 433,-650.7 476,-650.7 476,-631.7 433,-631.7"/>
<text text-anchor="start" x="466.8862" y="-637.8" font-family="Helvetica,sans-Serif" font-size="11.00" fill="#000000"> &#160;</text>
</a>
</g>
</g>
<!-- investigation_audit&#45;&gt;audit_revision -->
<g id="edge7" class="edge">
<title>investigation_audit:w&#45;&gt;audit_revision:e</title>
<path fill="none" stroke="#000000" d="M292.4652,-660.519C243.2131,-666.2975 230.6611,-700.7 174,-700.7"/>
<polygon fill="#000000" stroke="#000000" points="299.0127,-660.1501 307.2026,-663.2943 303.0063,-659.9251 307,-659.7 307,-659.7 307,-659.7 303.0063,-659.9251 306.7974,-656.1057 299.0127,-660.1501 299.0127,-660.1501"/>
<ellipse fill="none" stroke="#000000" cx="295.8177" cy="-660.3302" rx="3.2" ry="3.2"/>
</g>
<!-- person_summary_audit -->
<g id="node9" class="node">
<title>person_summary_audit</title>
<g id="a_node9"><a xlink:href="../../tables/person_summary_audit.html" xlink:title="person_summary_audit" target="_top">
<polygon fill="#ffffff" stroke="transparent" points="293.5,-550.2 293.5,-611.2 488.5,-611.2 488.5,-550.2 293.5,-550.2"/>
<polygon fill="#f5f5f5" stroke="transparent" points="294,-587.7 294,-610.7 489,-610.7 489,-587.7 294,-587.7"/>
<polygon fill="none" stroke="#000000" points="294,-587.7 294,-610.7 489,-610.7 489,-587.7 294,-587.7"/>
<text text-anchor="start" x="299" y="-596.3" font-family="Helvetica,sans-Serif" font-weight="bold" font-size="11.00" fill="#000000">person_summary_audit</text>
<text text-anchor="start" x="454.5219" y="-595.8" font-family="Helvetica,sans-Serif" font-size="11.00" fill="#000000">[table]</text>
<polygon fill="none" stroke="#000000" points="294,-568.7 294,-587.7 489,-587.7 489,-568.7 294,-568.7"/>
<text text-anchor="start" x="297" y="-574.8" font-family="Helvetica,sans-Serif" font-size="11.00" fill="#000000">...</text>
<polygon fill="#ffffff" stroke="transparent" points="294,-549.7 294,-568.7 390,-568.7 390,-549.7 294,-549.7"/>
<polygon fill="none" stroke="#000000" points="294,-549.7 294,-568.7 390,-568.7 390,-549.7 294,-549.7"/>
<text text-anchor="start" x="297" y="-555.8" font-family="Helvetica,sans-Serif" font-size="11.00" fill="#000000">&lt; 1</text>
<polygon fill="#ffffff" stroke="transparent" points="390,-549.7 390,-568.7 439,-568.7 439,-549.7 390,-549.7"/>
<polygon fill="none" stroke="#000000" points="390,-549.7 390,-568.7 439,-568.7 439,-549.7 390,-549.7"/>
<text text-anchor="start" x="429.8862" y="-555.8" font-family="Helvetica,sans-Serif" font-size="11.00" fill="#000000"> &#160;</text>
<polygon fill="#ffffff" stroke="transparent" points="439,-549.7 439,-568.7 489,-568.7 489,-549.7 439,-549.7"/>
<polygon fill="none" stroke="#000000" points="439,-549.7 439,-568.7 489,-568.7 489,-549.7 439,-549.7"/>
<text text-anchor="start" x="479.8862" y="-555.8" font-family="Helvetica,sans-Serif" font-size="11.00" fill="#000000"> &#160;</text>
</a>
</g>
</g>
<!-- person_summary_audit&#45;&gt;audit_revision -->
<g id="edge8" class="edge">
<title>person_summary_audit:w&#45;&gt;audit_revision:e</title>
<path fill="none" stroke="#000000" d="M279.4324,-578.499C250.6349,-581.9696 239.2785,-596.6957 215,-621.7 187.4431,-650.0806 213.5581,-700.7 174,-700.7"/>
<polygon fill="#000000" stroke="#000000" points="286.012,-578.1382 294.1972,-581.2946 290.006,-577.9191 294,-577.7 294,-577.7 294,-577.7 290.006,-577.9191 293.8028,-574.1054 286.012,-578.1382 286.012,-578.1382"/>
<ellipse fill="none" stroke="#000000" cx="282.8168" cy="-578.3135" rx="3.2" ry="3.2"/>
</g>
<!-- plan_audit -->
<g id="node10" class="node">
<title>plan_audit</title>
<g id="a_node10"><a xlink:href="../../tables/plan_audit.html" xlink:title="plan_audit" target="_top">
<polygon fill="#ffffff" stroke="transparent" points="223,-284.7 223,-528.7 559,-528.7 559,-284.7 223,-284.7"/>
<polygon fill="#f5f5f5" stroke="transparent" points="225,-503.7 225,-526.7 557,-526.7 557,-503.7 225,-503.7"/>
<polygon fill="none" stroke="#000000" points="225,-503.7 225,-526.7 557,-526.7 557,-503.7 225,-503.7"/>
<text text-anchor="start" x="230" y="-512.3" font-family="Helvetica,sans-Serif" font-weight="bold" font-size="11.00" fill="#000000">plan_audit</text>
<text text-anchor="start" x="522.0437" y="-511.8" font-family="Helvetica,sans-Serif" font-size="11.00" fill="#000000">[table]</text>
<polygon fill="none" stroke="#000000" points="225,-481.7 225,-503.7 463,-503.7 463,-481.7 225,-481.7"/>
<image xlink:href="../../images/primaryKeys.png" width="11px" height="12px" preserveAspectRatio="xMinYMin meet" x="230" y="-498.7"/>
<text text-anchor="start" x="245" y="-488.8" font-family="Helvetica,sans-Serif" font-size="11.00" fill="#000000">rev_id</text>
<polygon fill="none" stroke="#000000" points="463,-481.7 463,-503.7 557,-503.7 557,-481.7 463,-481.7"/>
<text text-anchor="start" x="466" y="-489.4" font-family="Helvetica,sans-Serif" font-size="11.00" fill="#000000">int8[19]</text>
<polygon fill="none" stroke="#000000" points="225,-459.7 225,-481.7 463,-481.7 463,-459.7 225,-459.7"/>
<text text-anchor="start" x="245" y="-466.8" font-family="Helvetica,sans-Serif" font-size="11.00" fill="#000000">rev_type</text>
<polygon fill="none" stroke="#000000" points="463,-459.7 463,-481.7 557,-481.7 557,-459.7 463,-459.7"/>
<text text-anchor="start" x="466" y="-467.4" font-family="Helvetica,sans-Serif" font-size="11.00" fill="#000000">int2[5]</text>
<polygon fill="none" stroke="#000000" points="225,-437.7 225,-459.7 463,-459.7 463,-437.7 225,-437.7"/>
<image xlink:href="../../images/primaryKeys.png" width="11px" height="12px" preserveAspectRatio="xMinYMin meet" x="230" y="-454.7"/>
<text text-anchor="start" x="245" y="-444.8" font-family="Helvetica,sans-Serif" font-size="11.00" fill="#000000">plan_id</text>
<polygon fill="none" stroke="#000000" points="463,-437.7 463,-459.7 557,-459.7 557,-437.7 463,-437.7"/>
<text text-anchor="start" x="465.9758" y="-445.4" font-family="Helvetica,sans-Serif" font-size="11.00" fill="#000000">uuid[2147483647]</text>
<polygon fill="none" stroke="#000000" points="225,-415.7 225,-437.7 463,-437.7 463,-415.7 225,-415.7"/>
<text text-anchor="start" x="245" y="-422.8" font-family="Helvetica,sans-Serif" font-size="11.00" fill="#000000">case_manager</text>
<polygon fill="none" stroke="#000000" points="463,-415.7 463,-437.7 557,-437.7 557,-415.7 463,-415.7"/>
<text text-anchor="start" x="466" y="-423.4" font-family="Helvetica,sans-Serif" font-size="11.00" fill="#000000">varchar[100]</text>
<polygon fill="none" stroke="#000000" points="225,-393.7 225,-415.7 463,-415.7 463,-393.7 225,-393.7"/>
<text text-anchor="start" x="245" y="-400.8" font-family="Helvetica,sans-Serif" font-size="11.00" fill="#000000">reason_for_plan</text>
<polygon fill="none" stroke="#000000" points="463,-393.7 463,-415.7 557,-415.7 557,-393.7 463,-393.7"/>
<text text-anchor="start" x="466" y="-401.4" font-family="Helvetica,sans-Serif" font-size="11.00" fill="#000000">varchar[240]</text>
<polygon fill="none" stroke="#000000" points="225,-371.7 225,-393.7 463,-393.7 463,-371.7 225,-371.7"/>
<text text-anchor="start" x="245" y="-378.8" font-family="Helvetica,sans-Serif" font-size="11.00" fill="#000000">first_case_review_date</text>
<polygon fill="none" stroke="#000000" points="463,-371.7 463,-393.7 557,-393.7 557,-371.7 463,-371.7"/>
<text text-anchor="start" x="466" y="-379.4" font-family="Helvetica,sans-Serif" font-size="11.00" fill="#000000">date[13]</text>
<polygon fill="none" stroke="#000000" points="225,-349.7 225,-371.7 463,-371.7 463,-349.7 225,-349.7"/>
<text text-anchor="start" x="245" y="-356.8" font-family="Helvetica,sans-Serif" font-size="11.00" fill="#000000">case_manager_modified</text>
<polygon fill="none" stroke="#000000" points="463,-349.7 463,-371.7 557,-371.7 557,-349.7 463,-349.7"/>
<text text-anchor="start" x="466" y="-357.4" font-family="Helvetica,sans-Serif" font-size="11.00" fill="#000000">bool[1]</text>
<polygon fill="none" stroke="#000000" points="225,-327.7 225,-349.7 463,-349.7 463,-327.7 225,-327.7"/>
<text text-anchor="start" x="245" y="-334.8" font-family="Helvetica,sans-Serif" font-size="11.00" fill="#000000">reason_for_plan_modified</text>
<polygon fill="none" stroke="#000000" points="463,-327.7 463,-349.7 557,-349.7 557,-327.7 463,-327.7"/>
<text text-anchor="start" x="466" y="-335.4" font-family="Helvetica,sans-Serif" font-size="11.00" fill="#000000">bool[1]</text>
<polygon fill="none" stroke="#000000" points="225,-305.7 225,-327.7 463,-327.7 463,-305.7 225,-305.7"/>
<text text-anchor="start" x="245" y="-312.8" font-family="Helvetica,sans-Serif" font-size="11.00" fill="#000000">first_case_review_date_modified</text>
<polygon fill="none" stroke="#000000" points="463,-305.7 463,-327.7 557,-327.7 557,-305.7 463,-305.7"/>
<text text-anchor="start" x="466" y="-313.4" font-family="Helvetica,sans-Serif" font-size="11.00" fill="#000000">bool[1]</text>
<polygon fill="#ffffff" stroke="transparent" points="225,-286.7 225,-305.7 348,-305.7 348,-286.7 225,-286.7"/>
<polygon fill="none" stroke="#000000" points="225,-286.7 225,-305.7 348,-305.7 348,-286.7 225,-286.7"/>
<text text-anchor="start" x="228" y="-292.8" font-family="Helvetica,sans-Serif" font-size="11.00" fill="#000000">&lt; 1</text>
<polygon fill="#ffffff" stroke="transparent" points="348,-286.7 348,-305.7 463,-305.7 463,-286.7 348,-286.7"/>
<polygon fill="none" stroke="#000000" points="348,-286.7 348,-305.7 463,-305.7 463,-286.7 348,-286.7"/>
<text text-anchor="start" x="453.8862" y="-292.8" font-family="Helvetica,sans-Serif" font-size="11.00" fill="#000000"> &#160;</text>
<polygon fill="#ffffff" stroke="transparent" points="463,-286.7 463,-305.7 557,-305.7 557,-286.7 463,-286.7"/>
<polygon fill="none" stroke="#000000" points="463,-286.7 463,-305.7 557,-305.7 557,-286.7 463,-286.7"/>
<text text-anchor="start" x="538.4053" y="-292.8" font-family="Helvetica,sans-Serif" font-size="11.00" fill="#000000">0 &gt;</text>
<polygon fill="none" stroke="#000000" stroke-width="2" points="224,-285.7 224,-527.7 558,-527.7 558,-285.7 224,-285.7"/>
</a>
</g>
</g>
<!-- plan_audit&#45;&gt;audit_revision -->
<g id="edge9" class="edge">
<title>plan_audit:w&#45;&gt;audit_revision:e</title>
<path fill="none" stroke="#000000" d="M210.5901,-494.7586C145.3439,-516.3609 263.6056,-700.7 174,-700.7"/>
<polygon fill="#000000" stroke="#000000" points="217.0804,-493.8315 225.5092,-496.2638 221.0402,-493.2657 225,-492.7 225,-492.7 225,-492.7 221.0402,-493.2657 224.4908,-489.1362 217.0804,-493.8315 217.0804,-493.8315"/>
<ellipse fill="none" stroke="#000000" cx="213.9126" cy="-494.2841" rx="3.2" ry="3.2"/>
</g>
<!-- referral_audit -->
<g id="node11" class="node">
<title>referral_audit</title>
<g id="a_node11"><a xlink:href="../../tables/referral_audit.html" xlink:title="referral_audit" target="_top">
<polygon fill="#ffffff" stroke="transparent" points="325.5,-202.2 325.5,-263.2 456.5,-263.2 456.5,-202.2 325.5,-202.2"/>
<polygon fill="#f5f5f5" stroke="transparent" points="326,-239.7 326,-262.7 457,-262.7 457,-239.7 326,-239.7"/>
<polygon fill="none" stroke="#000000" points="326,-239.7 326,-262.7 457,-262.7 457,-239.7 326,-239.7"/>
<text text-anchor="start" x="331" y="-248.3" font-family="Helvetica,sans-Serif" font-weight="bold" font-size="11.00" fill="#000000">referral_audit</text>
<text text-anchor="start" x="422.5219" y="-247.8" font-family="Helvetica,sans-Serif" font-size="11.00" fill="#000000">[table]</text>
<polygon fill="none" stroke="#000000" points="326,-220.7 326,-239.7 457,-239.7 457,-220.7 326,-220.7"/>
<text text-anchor="start" x="329" y="-226.8" font-family="Helvetica,sans-Serif" font-size="11.00" fill="#000000">...</text>
<polygon fill="#ffffff" stroke="transparent" points="326,-201.7 326,-220.7 390,-220.7 390,-201.7 326,-201.7"/>
<polygon fill="none" stroke="#000000" points="326,-201.7 326,-220.7 390,-220.7 390,-201.7 326,-201.7"/>
<text text-anchor="start" x="329" y="-207.8" font-family="Helvetica,sans-Serif" font-size="11.00" fill="#000000">&lt; 1</text>
<polygon fill="#ffffff" stroke="transparent" points="390,-201.7 390,-220.7 423,-220.7 423,-201.7 390,-201.7"/>
<polygon fill="none" stroke="#000000" points="390,-201.7 390,-220.7 423,-220.7 423,-201.7 390,-201.7"/>
<text text-anchor="start" x="413.8862" y="-207.8" font-family="Helvetica,sans-Serif" font-size="11.00" fill="#000000"> &#160;</text>
<polygon fill="#ffffff" stroke="transparent" points="423,-201.7 423,-220.7 457,-220.7 457,-201.7 423,-201.7"/>
<polygon fill="none" stroke="#000000" points="423,-201.7 423,-220.7 457,-220.7 457,-201.7 423,-201.7"/>
<text text-anchor="start" x="447.8862" y="-207.8" font-family="Helvetica,sans-Serif" font-size="11.00" fill="#000000"> &#160;</text>
</a>
</g>
</g>
<!-- referral_audit&#45;&gt;audit_revision -->
<g id="edge10" class="edge">
<title>referral_audit:w&#45;&gt;audit_revision:e</title>
<path fill="none" stroke="#000000" d="M311.437,-229.7973C267.7474,-230.515 243.7788,-236.111 215,-274.7 158.1437,-350.9375 269.1041,-700.7 174,-700.7"/>
<polygon fill="#000000" stroke="#000000" points="318.0002,-229.7535 326.0241,-233.2999 322.0001,-229.7267 326,-229.7 326,-229.7 326,-229.7 322.0001,-229.7267 325.9759,-226.1001 318.0002,-229.7535 318.0002,-229.7535"/>
<ellipse fill="none" stroke="#000000" cx="314.8002" cy="-229.7749" rx="3.2" ry="3.2"/>
</g>
<!-- review_audit -->
<g id="node12" class="node">
<title>review_audit</title>
<g id="a_node12"><a xlink:href="../../tables/review_audit.html" xlink:title="review_audit" target="_top">
<polygon fill="#ffffff" stroke="transparent" points="328.5,-120.2 328.5,-181.2 453.5,-181.2 453.5,-120.2 328.5,-120.2"/>
<polygon fill="#f5f5f5" stroke="transparent" points="329,-157.7 329,-180.7 454,-180.7 454,-157.7 329,-157.7"/>
<polygon fill="none" stroke="#000000" points="329,-157.7 329,-180.7 454,-180.7 454,-157.7 329,-157.7"/>
<text text-anchor="start" x="334" y="-166.3" font-family="Helvetica,sans-Serif" font-weight="bold" font-size="11.00" fill="#000000">review_audit</text>
<text text-anchor="start" x="419.5219" y="-165.8" font-family="Helvetica,sans-Serif" font-size="11.00" fill="#000000">[table]</text>
<polygon fill="none" stroke="#000000" points="329,-138.7 329,-157.7 454,-157.7 454,-138.7 329,-138.7"/>
<text text-anchor="start" x="332" y="-144.8" font-family="Helvetica,sans-Serif" font-size="11.00" fill="#000000">...</text>
<polygon fill="#ffffff" stroke="transparent" points="329,-119.7 329,-138.7 390,-138.7 390,-119.7 329,-119.7"/>
<polygon fill="none" stroke="#000000" points="329,-119.7 329,-138.7 390,-138.7 390,-119.7 329,-119.7"/>
<text text-anchor="start" x="332" y="-125.8" font-family="Helvetica,sans-Serif" font-size="11.00" fill="#000000">&lt; 1</text>
<polygon fill="#ffffff" stroke="transparent" points="390,-119.7 390,-138.7 422,-138.7 422,-119.7 390,-119.7"/>
<polygon fill="none" stroke="#000000" points="390,-119.7 390,-138.7 422,-138.7 422,-119.7 390,-119.7"/>
<text text-anchor="start" x="412.8862" y="-125.8" font-family="Helvetica,sans-Serif" font-size="11.00" fill="#000000"> &#160;</text>
<polygon fill="#ffffff" stroke="transparent" points="422,-119.7 422,-138.7 454,-138.7 454,-119.7 422,-119.7"/>
<polygon fill="none" stroke="#000000" points="422,-119.7 422,-138.7 454,-138.7 454,-119.7 422,-119.7"/>
<text text-anchor="start" x="444.8862" y="-125.8" font-family="Helvetica,sans-Serif" font-size="11.00" fill="#000000"> &#160;</text>
</a>
</g>
</g>
<!-- review_audit&#45;&gt;audit_revision -->
<g id="edge11" class="edge">
<title>review_audit:w&#45;&gt;audit_revision:e</title>
<path fill="none" stroke="#000000" d="M314.4136,-147.7478C269.5447,-148.169 244.4485,-152.2639 215,-191.7 181.0517,-237.162 230.7387,-700.7 174,-700.7"/>
<polygon fill="#000000" stroke="#000000" points="321,-147.7263 329.0118,-151.3 325,-147.7131 329,-147.7 329,-147.7 329,-147.7 325,-147.7131 328.9882,-144.1 321,-147.7263 321,-147.7263"/>
<ellipse fill="none" stroke="#000000" cx="317.8001" cy="-147.7368" rx="3.2" ry="3.2"/>
</g>
<!-- safer_custody_screening_outcome_audit -->
<g id="node13" class="node">
<title>safer_custody_screening_outcome_audit</title>
<g id="a_node13"><a xlink:href="../../tables/safer_custody_screening_outcome_audit.html" xlink:title="safer_custody_screening_outcome_audit" target="_top">
<polygon fill="#ffffff" stroke="transparent" points="236,-38.2 236,-99.2 546,-99.2 546,-38.2 236,-38.2"/>
<polygon fill="#f5f5f5" stroke="transparent" points="236,-75.7 236,-98.7 546,-98.7 546,-75.7 236,-75.7"/>
<polygon fill="none" stroke="#000000" points="236,-75.7 236,-98.7 546,-98.7 546,-75.7 236,-75.7"/>
<text text-anchor="start" x="241" y="-84.3" font-family="Helvetica,sans-Serif" font-weight="bold" font-size="11.00" fill="#000000">safer_custody_screening_outcome_audit</text>
<text text-anchor="start" x="511.5219" y="-83.8" font-family="Helvetica,sans-Serif" font-size="11.00" fill="#000000">[table]</text>
<polygon fill="none" stroke="#000000" points="236,-56.7 236,-75.7 546,-75.7 546,-56.7 236,-56.7"/>
<text text-anchor="start" x="239" y="-62.8" font-family="Helvetica,sans-Serif" font-size="11.00" fill="#000000">...</text>
<polygon fill="#ffffff" stroke="transparent" points="236,-37.7 236,-56.7 389,-56.7 389,-37.7 236,-37.7"/>
<polygon fill="none" stroke="#000000" points="236,-37.7 236,-56.7 389,-56.7 389,-37.7 236,-37.7"/>
<text text-anchor="start" x="239" y="-43.8" font-family="Helvetica,sans-Serif" font-size="11.00" fill="#000000">&lt; 1</text>
<polygon fill="#ffffff" stroke="transparent" points="389,-37.7 389,-56.7 467,-56.7 467,-37.7 389,-37.7"/>
<polygon fill="none" stroke="#000000" points="389,-37.7 389,-56.7 467,-56.7 467,-37.7 389,-37.7"/>
<text text-anchor="start" x="457.8862" y="-43.8" font-family="Helvetica,sans-Serif" font-size="11.00" fill="#000000"> &#160;</text>
<polygon fill="#ffffff" stroke="transparent" points="467,-37.7 467,-56.7 546,-56.7 546,-37.7 467,-37.7"/>
<polygon fill="none" stroke="#000000" points="467,-37.7 467,-56.7 546,-56.7 546,-37.7 467,-37.7"/>
<text text-anchor="start" x="536.8862" y="-43.8" font-family="Helvetica,sans-Serif" font-size="11.00" fill="#000000"> &#160;</text>
</a>
</g>
</g>
<!-- safer_custody_screening_outcome_audit&#45;&gt;audit_revision -->
<g id="edge12" class="edge">
<title>safer_custody_screening_outcome_audit:w&#45;&gt;audit_revision:e</title>
<path fill="none" stroke="#000000" d="M223.7822,-73.7287C175.0406,-147.2357 240.1835,-700.7 174,-700.7"/>
<polygon fill="#000000" stroke="#000000" points="229.3143,-70.0934 237.977,-68.7086 232.6572,-67.8967 236,-65.7 236,-65.7 236,-65.7 232.6572,-67.8967 234.023,-62.6914 229.3143,-70.0934 229.3143,-70.0934"/>
<ellipse fill="none" stroke="#000000" cx="226.6401" cy="-71.8508" rx="3.2" ry="3.2"/>
</g>
</g>
</svg>
