<?xml version="1.0" encoding="UTF-8" standalone="no"?>
<!DOCTYPE svg PUBLIC "-//W3C//DTD SVG 1.1//EN"
 "http://www.w3.org/Graphics/SVG/1.1/DTD/svg11.dtd">
<!-- Generated by graphviz version 2.40.1 (20161225.0304)
 -->
<!-- Title: oneDegreeRelationshipsDiagram Pages: 1 -->
<svg width="1149pt" height="681pt"
 viewBox="0.00 0.00 1149.00 680.61" xmlns="http://www.w3.org/2000/svg" xmlns:xlink="http://www.w3.org/1999/xlink">
<g id="graph0" class="graph" transform="scale(1 1) rotate(0) translate(4 676.6144)">
<title>oneDegreeRelationshipsDiagram</title>
<polygon fill="#ffffff" stroke="transparent" points="-4,4 -4,-676.6144 1145,-676.6144 1145,4 -4,4"/>
<text text-anchor="middle" x="72.4936" y="-7.3" font-family="Helvetica,sans-Serif" font-size="11.00" fill="#000000">Generated by SchemaSpy</text>
<!-- contributory_factor -->
<g id="node1" class="node">
<title>contributory_factor</title>
<g id="a_node1"><a xlink:href="../../tables/contributory_factor.html" xlink:title="contributory_factor" target="_top">
<polygon fill="#ffffff" stroke="transparent" points="895,-476.6385 895,-625.6385 1101,-625.6385 1101,-476.6385 895,-476.6385"/>
<polygon fill="#f5f5f5" stroke="transparent" points="895,-602.1385 895,-625.1385 1101,-625.1385 1101,-602.1385 895,-602.1385"/>
<polygon fill="none" stroke="#000000" points="895,-602.1385 895,-625.1385 1101,-625.1385 1101,-602.1385 895,-602.1385"/>
<text text-anchor="start" x="900" y="-610.7385" font-family="Helvetica,sans-Serif" font-weight="bold" font-size="11.00" fill="#000000">contributory_factor</text>
<text text-anchor="start" x="1066.0437" y="-610.2385" font-family="Helvetica,sans-Serif" font-size="11.00" fill="#000000">[table]</text>
<polygon fill="none" stroke="#000000" points="895,-580.1385 895,-602.1385 1101,-602.1385 1101,-580.1385 895,-580.1385"/>
<image xlink:href="../../images/primaryKeys.png" width="11px" height="12px" preserveAspectRatio="xMinYMin meet" x="900" y="-597.138"/>
<text text-anchor="start" x="915" y="-587.2385" font-family="Helvetica,sans-Serif" font-size="11.00" fill="#000000">contributory_factor_id</text>
<polygon fill="#ffffff" stroke="transparent" points="895,-558.1385 895,-580.1385 1101,-580.1385 1101,-558.1385 895,-558.1385"/>
<polygon fill="none" stroke="#000000" points="895,-558.1385 895,-580.1385 1101,-580.1385 1101,-558.1385 895,-558.1385"/>
<image xlink:href="../../images/foreignKeys.png" width="11px" height="12px" preserveAspectRatio="xMinYMin meet" x="900" y="-575.138"/>
<text text-anchor="start" x="915" y="-565.2385" font-family="Helvetica,sans-Serif" font-size="11.00" fill="#000000">referral_id</text>
<polygon fill="#ffffff" stroke="transparent" points="895,-536.1385 895,-558.1385 1101,-558.1385 1101,-536.1385 895,-536.1385"/>
<polygon fill="none" stroke="#000000" points="895,-536.1385 895,-558.1385 1101,-558.1385 1101,-536.1385 895,-536.1385"/>
<image xlink:href="../../images/foreignKeys.png" width="11px" height="12px" preserveAspectRatio="xMinYMin meet" x="900" y="-553.138"/>
<text text-anchor="start" x="915" y="-543.2385" font-family="Helvetica,sans-Serif" font-size="11.00" fill="#000000">contributory_factor_type_id</text>
<polygon fill="#ffffff" stroke="transparent" points="895,-514.1385 895,-536.1385 1101,-536.1385 1101,-514.1385 895,-514.1385"/>
<polygon fill="none" stroke="#000000" points="895,-514.1385 895,-536.1385 1101,-536.1385 1101,-514.1385 895,-514.1385"/>
<image xlink:href="../../images/foreignKeys.png" width="11px" height="12px" preserveAspectRatio="xMinYMin meet" x="900" y="-531.138"/>
<text text-anchor="start" x="915" y="-521.2385" font-family="Helvetica,sans-Serif" font-size="11.00" fill="#000000">legacy_id</text>
<polygon fill="none" stroke="#000000" points="895,-495.1385 895,-514.1385 1101,-514.1385 1101,-495.1385 895,-495.1385"/>
<text text-anchor="start" x="898" y="-501.2385" font-family="Helvetica,sans-Serif" font-size="11.00" fill="#000000">...</text>
<polygon fill="#ffffff" stroke="transparent" points="895,-476.1385 895,-495.1385 996,-495.1385 996,-476.1385 895,-476.1385"/>
<polygon fill="none" stroke="#000000" points="895,-476.1385 895,-495.1385 996,-495.1385 996,-476.1385 895,-476.1385"/>
<text text-anchor="start" x="898" y="-482.2385" font-family="Helvetica,sans-Serif" font-size="11.00" fill="#000000">&lt; 2</text>
<polygon fill="#ffffff" stroke="transparent" points="996,-476.1385 996,-495.1385 1048,-495.1385 1048,-476.1385 996,-476.1385"/>
<polygon fill="none" stroke="#000000" points="996,-476.1385 996,-495.1385 1048,-495.1385 1048,-476.1385 996,-476.1385"/>
<text text-anchor="start" x="1038.8862" y="-482.2385" font-family="Helvetica,sans-Serif" font-size="11.00" fill="#000000"> &#160;</text>
<polygon fill="#ffffff" stroke="transparent" points="1048,-476.1385 1048,-495.1385 1101,-495.1385 1101,-476.1385 1048,-476.1385"/>
<polygon fill="none" stroke="#000000" points="1048,-476.1385 1048,-495.1385 1101,-495.1385 1101,-476.1385 1048,-476.1385"/>
<text text-anchor="start" x="1091.8862" y="-482.2385" font-family="Helvetica,sans-Serif" font-size="11.00" fill="#000000"> &#160;</text>
</a>
</g>
</g>
<!-- reference_data -->
<g id="node2" class="node">
<title>reference_data</title>
<g id="a_node2"><a xlink:href="../../tables/reference_data.html" xlink:title="reference_data" target="_top">
<polygon fill="#ffffff" stroke="transparent" points="8,-102.1385 8,-390.1385 237,-390.1385 237,-102.1385 8,-102.1385"/>
<polygon fill="#f5f5f5" stroke="transparent" points="10.5,-365.1385 10.5,-388.1385 235.5,-388.1385 235.5,-365.1385 10.5,-365.1385"/>
<polygon fill="none" stroke="#000000" points="10.5,-365.1385 10.5,-388.1385 235.5,-388.1385 235.5,-365.1385 10.5,-365.1385"/>
<text text-anchor="start" x="15.5" y="-373.7385" font-family="Helvetica,sans-Serif" font-weight="bold" font-size="11.00" fill="#000000">reference_data</text>
<text text-anchor="start" x="200.5437" y="-373.2385" font-family="Helvetica,sans-Serif" font-size="11.00" fill="#000000">[table]</text>
<polygon fill="none" stroke="#000000" points="10.5,-343.1385 10.5,-365.1385 151.5,-365.1385 151.5,-343.1385 10.5,-343.1385"/>
<image xlink:href="../../images/primaryKeys.png" width="11px" height="12px" preserveAspectRatio="xMinYMin meet" x="15.5" y="-360.138"/>
<text text-anchor="start" x="30.5" y="-350.2385" font-family="Helvetica,sans-Serif" font-size="11.00" fill="#000000">reference_data_id</text>
<polygon fill="none" stroke="#000000" points="151.5,-343.1385 151.5,-365.1385 235.5,-365.1385 235.5,-343.1385 151.5,-343.1385"/>
<text text-anchor="start" x="154.5" y="-350.8385" font-family="Helvetica,sans-Serif" font-size="11.00" fill="#000000">bigserial[19]</text>
<polygon fill="#ffffff" stroke="transparent" points="10.5,-321.1385 10.5,-343.1385 151.5,-343.1385 151.5,-321.1385 10.5,-321.1385"/>
<polygon fill="none" stroke="#000000" points="10.5,-321.1385 10.5,-343.1385 151.5,-343.1385 151.5,-321.1385 10.5,-321.1385"/>
<text text-anchor="start" x="30.5" y="-328.2385" font-family="Helvetica,sans-Serif" font-size="11.00" fill="#000000">domain</text>
<polygon fill="none" stroke="#000000" points="151.5,-321.1385 151.5,-343.1385 235.5,-343.1385 235.5,-321.1385 151.5,-321.1385"/>
<text text-anchor="start" x="154.5" y="-328.8385" font-family="Helvetica,sans-Serif" font-size="11.00" fill="#000000">varchar[30]</text>
<polygon fill="#ffffff" stroke="transparent" points="10.5,-299.1385 10.5,-321.1385 151.5,-321.1385 151.5,-299.1385 10.5,-299.1385"/>
<polygon fill="none" stroke="#000000" points="10.5,-299.1385 10.5,-321.1385 151.5,-321.1385 151.5,-299.1385 10.5,-299.1385"/>
<text text-anchor="start" x="30.5" y="-306.2385" font-family="Helvetica,sans-Serif" font-size="11.00" fill="#000000">code</text>
<polygon fill="none" stroke="#000000" points="151.5,-299.1385 151.5,-321.1385 235.5,-321.1385 235.5,-299.1385 151.5,-299.1385"/>
<text text-anchor="start" x="154.5" y="-306.8385" font-family="Helvetica,sans-Serif" font-size="11.00" fill="#000000">varchar[32]</text>
<polygon fill="none" stroke="#000000" points="10.5,-277.1385 10.5,-299.1385 151.5,-299.1385 151.5,-277.1385 10.5,-277.1385"/>
<text text-anchor="start" x="30.5" y="-284.2385" font-family="Helvetica,sans-Serif" font-size="11.00" fill="#000000">description</text>
<polygon fill="none" stroke="#000000" points="151.5,-277.1385 151.5,-299.1385 235.5,-299.1385 235.5,-277.1385 151.5,-277.1385"/>
<text text-anchor="start" x="154.5" y="-284.8385" font-family="Helvetica,sans-Serif" font-size="11.00" fill="#000000">varchar[40]</text>
<polygon fill="#ffffff" stroke="transparent" points="10.5,-255.1385 10.5,-277.1385 151.5,-277.1385 151.5,-255.1385 10.5,-255.1385"/>
<polygon fill="none" stroke="#000000" points="10.5,-255.1385 10.5,-277.1385 151.5,-277.1385 151.5,-255.1385 10.5,-255.1385"/>
<text text-anchor="start" x="30.5" y="-262.2385" font-family="Helvetica,sans-Serif" font-size="11.00" fill="#000000">list_sequence</text>
<polygon fill="none" stroke="#000000" points="151.5,-255.1385 151.5,-277.1385 235.5,-277.1385 235.5,-255.1385 151.5,-255.1385"/>
<text text-anchor="start" x="154.5" y="-262.8385" font-family="Helvetica,sans-Serif" font-size="11.00" fill="#000000">int4[10]</text>
<polygon fill="none" stroke="#000000" points="10.5,-233.1385 10.5,-255.1385 151.5,-255.1385 151.5,-233.1385 10.5,-233.1385"/>
<text text-anchor="start" x="30.5" y="-240.2385" font-family="Helvetica,sans-Serif" font-size="11.00" fill="#000000">created_at</text>
<polygon fill="none" stroke="#000000" points="151.5,-233.1385 151.5,-255.1385 235.5,-255.1385 235.5,-233.1385 151.5,-233.1385"/>
<text text-anchor="start" x="154.3807" y="-240.8385" font-family="Helvetica,sans-Serif" font-size="11.00" fill="#000000">timestamp[29,6]</text>
<polygon fill="none" stroke="#000000" points="10.5,-211.1385 10.5,-233.1385 151.5,-233.1385 151.5,-211.1385 10.5,-211.1385"/>
<text text-anchor="start" x="30.5" y="-218.2385" font-family="Helvetica,sans-Serif" font-size="11.00" fill="#000000">created_by</text>
<polygon fill="none" stroke="#000000" points="151.5,-211.1385 151.5,-233.1385 235.5,-233.1385 235.5,-211.1385 151.5,-211.1385"/>
<text text-anchor="start" x="154.5" y="-218.8385" font-family="Helvetica,sans-Serif" font-size="11.00" fill="#000000">varchar[32]</text>
<polygon fill="none" stroke="#000000" points="10.5,-189.1385 10.5,-211.1385 151.5,-211.1385 151.5,-189.1385 10.5,-189.1385"/>
<text text-anchor="start" x="30.5" y="-196.2385" font-family="Helvetica,sans-Serif" font-size="11.00" fill="#000000">last_modified_at</text>
<polygon fill="none" stroke="#000000" points="151.5,-189.1385 151.5,-211.1385 235.5,-211.1385 235.5,-189.1385 151.5,-189.1385"/>
<text text-anchor="start" x="154.3807" y="-196.8385" font-family="Helvetica,sans-Serif" font-size="11.00" fill="#000000">timestamp[29,6]</text>
<polygon fill="none" stroke="#000000" points="10.5,-167.1385 10.5,-189.1385 151.5,-189.1385 151.5,-167.1385 10.5,-167.1385"/>
<text text-anchor="start" x="30.5" y="-174.2385" font-family="Helvetica,sans-Serif" font-size="11.00" fill="#000000">last_modified_by</text>
<polygon fill="none" stroke="#000000" points="151.5,-167.1385 151.5,-189.1385 235.5,-189.1385 235.5,-167.1385 151.5,-167.1385"/>
<text text-anchor="start" x="154.5" y="-174.8385" font-family="Helvetica,sans-Serif" font-size="11.00" fill="#000000">varchar[32]</text>
<polygon fill="none" stroke="#000000" points="10.5,-145.1385 10.5,-167.1385 151.5,-167.1385 151.5,-145.1385 10.5,-145.1385"/>
<text text-anchor="start" x="30.5" y="-152.2385" font-family="Helvetica,sans-Serif" font-size="11.00" fill="#000000">deactivated_at</text>
<polygon fill="none" stroke="#000000" points="151.5,-145.1385 151.5,-167.1385 235.5,-167.1385 235.5,-145.1385 151.5,-145.1385"/>
<text text-anchor="start" x="154.3807" y="-152.8385" font-family="Helvetica,sans-Serif" font-size="11.00" fill="#000000">timestamp[29,6]</text>
<polygon fill="none" stroke="#000000" points="10.5,-123.1385 10.5,-145.1385 151.5,-145.1385 151.5,-123.1385 10.5,-123.1385"/>
<text text-anchor="start" x="30.5" y="-130.2385" font-family="Helvetica,sans-Serif" font-size="11.00" fill="#000000">deactivated_by</text>
<polygon fill="none" stroke="#000000" points="151.5,-123.1385 151.5,-145.1385 235.5,-145.1385 235.5,-123.1385 151.5,-123.1385"/>
<text text-anchor="start" x="154.5" y="-130.8385" font-family="Helvetica,sans-Serif" font-size="11.00" fill="#000000">varchar[32]</text>
<polygon fill="#ffffff" stroke="transparent" points="10.5,-104.1385 10.5,-123.1385 66.5,-123.1385 66.5,-104.1385 10.5,-104.1385"/>
<polygon fill="none" stroke="#000000" points="10.5,-104.1385 10.5,-123.1385 66.5,-123.1385 66.5,-104.1385 10.5,-104.1385"/>
<text text-anchor="start" x="13.5" y="-110.2385" font-family="Helvetica,sans-Serif" font-size="11.00" fill="#000000">&lt; 0</text>
<polygon fill="#ffffff" stroke="transparent" points="66.5,-104.1385 66.5,-123.1385 151.5,-123.1385 151.5,-104.1385 66.5,-104.1385"/>
<polygon fill="none" stroke="#000000" points="66.5,-104.1385 66.5,-123.1385 151.5,-123.1385 151.5,-104.1385 66.5,-104.1385"/>
<text text-anchor="start" x="103.8807" y="-110.2385" font-family="Helvetica,sans-Serif" font-size="11.00" fill="#000000">112 rows</text>
<polygon fill="#ffffff" stroke="transparent" points="151.5,-104.1385 151.5,-123.1385 235.5,-123.1385 235.5,-104.1385 151.5,-104.1385"/>
<polygon fill="none" stroke="#000000" points="151.5,-104.1385 151.5,-123.1385 235.5,-123.1385 235.5,-104.1385 151.5,-104.1385"/>
<text text-anchor="start" x="210.7904" y="-110.2385" font-family="Helvetica,sans-Serif" font-size="11.00" fill="#000000">10 &gt;</text>
<polygon fill="none" stroke="#000000" stroke-width="2" points="9,-103.1385 9,-389.1385 236,-389.1385 236,-103.1385 9,-103.1385"/>
</a>
</g>
</g>
<!-- contributory_factor&#45;&gt;reference_data -->
<g id="edge1" class="edge">
<title>contributory_factor:w&#45;&gt;reference_data:e</title>
<path fill="none" stroke="#000000" d="M880.2096,-547.3666C614.7617,-555.5614 484.5627,-780.7812 278,-606.1385 234.6321,-569.4721 292.2908,-354.1385 235.5,-354.1385"/>
<polygon fill="#000000" stroke="#000000" points="887.001,-547.2619 895.0555,-550.738 891.0005,-547.2002 895,-547.1385 895,-547.1385 895,-547.1385 891.0005,-547.2002 894.9445,-543.5389 887.001,-547.2619 887.001,-547.2619"/>
<ellipse fill="none" stroke="#000000" cx="883.8013" cy="-547.3112" rx="3.2" ry="3.2"/>
</g>
<!-- referral -->
<g id="node3" class="node">
<title>referral</title>
<g id="a_node3"><a xlink:href="../../tables/referral.html" xlink:title="referral" target="_top">
<polygon fill="#ffffff" stroke="transparent" points="545,-338.6385 545,-531.6385 814,-531.6385 814,-338.6385 545,-338.6385"/>
<polygon fill="#f5f5f5" stroke="transparent" points="545.5,-508.1385 545.5,-531.1385 814.5,-531.1385 814.5,-508.1385 545.5,-508.1385"/>
<polygon fill="none" stroke="#000000" points="545.5,-508.1385 545.5,-531.1385 814.5,-531.1385 814.5,-508.1385 545.5,-508.1385"/>
<text text-anchor="start" x="550.5" y="-516.7385" font-family="Helvetica,sans-Serif" font-weight="bold" font-size="11.00" fill="#000000">referral</text>
<text text-anchor="start" x="779.5437" y="-516.2385" font-family="Helvetica,sans-Serif" font-size="11.00" fill="#000000">[table]</text>
<polygon fill="none" stroke="#000000" points="545.5,-486.1385 545.5,-508.1385 814.5,-508.1385 814.5,-486.1385 545.5,-486.1385"/>
<image xlink:href="../../images/primaryKeys.png" width="11px" height="12px" preserveAspectRatio="xMinYMin meet" x="550.5" y="-503.138"/>
<text text-anchor="start" x="565.5" y="-493.2385" font-family="Helvetica,sans-Serif" font-size="11.00" fill="#000000">referral_id</text>
<polygon fill="#ffffff" stroke="transparent" points="545.5,-464.1385 545.5,-486.1385 814.5,-486.1385 814.5,-464.1385 545.5,-464.1385"/>
<polygon fill="none" stroke="#000000" points="545.5,-464.1385 545.5,-486.1385 814.5,-486.1385 814.5,-464.1385 545.5,-464.1385"/>
<image xlink:href="../../images/foreignKeys.png" width="11px" height="12px" preserveAspectRatio="xMinYMin meet" x="550.5" y="-481.138"/>
<text text-anchor="start" x="565.5" y="-471.2385" font-family="Helvetica,sans-Serif" font-size="11.00" fill="#000000">incident_type_id</text>
<polygon fill="#ffffff" stroke="transparent" points="545.5,-442.1385 545.5,-464.1385 814.5,-464.1385 814.5,-442.1385 545.5,-442.1385"/>
<polygon fill="none" stroke="#000000" points="545.5,-442.1385 545.5,-464.1385 814.5,-464.1385 814.5,-442.1385 545.5,-442.1385"/>
<image xlink:href="../../images/foreignKeys.png" width="11px" height="12px" preserveAspectRatio="xMinYMin meet" x="550.5" y="-459.138"/>
<text text-anchor="start" x="565.5" y="-449.2385" font-family="Helvetica,sans-Serif" font-size="11.00" fill="#000000">incident_location_id</text>
<polygon fill="#ffffff" stroke="transparent" points="545.5,-420.1385 545.5,-442.1385 814.5,-442.1385 814.5,-420.1385 545.5,-420.1385"/>
<polygon fill="none" stroke="#000000" points="545.5,-420.1385 545.5,-442.1385 814.5,-442.1385 814.5,-420.1385 545.5,-420.1385"/>
<image xlink:href="../../images/foreignKeys.png" width="11px" height="12px" preserveAspectRatio="xMinYMin meet" x="550.5" y="-437.138"/>
<text text-anchor="start" x="565.5" y="-427.2385" font-family="Helvetica,sans-Serif" font-size="11.00" fill="#000000">referer_area_of_work_id</text>
<polygon fill="#ffffff" stroke="transparent" points="545.5,-398.1385 545.5,-420.1385 814.5,-420.1385 814.5,-398.1385 545.5,-398.1385"/>
<polygon fill="none" stroke="#000000" points="545.5,-398.1385 545.5,-420.1385 814.5,-420.1385 814.5,-398.1385 545.5,-398.1385"/>
<text text-anchor="start" x="565.5" y="-405.2385" font-family="Helvetica,sans-Serif" font-size="11.00" fill="#000000">referral_date</text>
<polygon fill="#ffffff" stroke="transparent" points="545.5,-376.1385 545.5,-398.1385 814.5,-398.1385 814.5,-376.1385 545.5,-376.1385"/>
<polygon fill="none" stroke="#000000" points="545.5,-376.1385 545.5,-398.1385 814.5,-398.1385 814.5,-376.1385 545.5,-376.1385"/>
<image xlink:href="../../images/foreignKeys.png" width="11px" height="12px" preserveAspectRatio="xMinYMin meet" x="550.5" y="-393.138"/>
<text text-anchor="start" x="565.5" y="-383.2385" font-family="Helvetica,sans-Serif" font-size="11.00" fill="#000000">incident_involvement_id</text>
<polygon fill="none" stroke="#000000" points="545.5,-357.1385 545.5,-376.1385 814.5,-376.1385 814.5,-357.1385 545.5,-357.1385"/>
<text text-anchor="start" x="548.5" y="-363.2385" font-family="Helvetica,sans-Serif" font-size="11.00" fill="#000000">...</text>
<polygon fill="#ffffff" stroke="transparent" points="545.5,-338.1385 545.5,-357.1385 673.5,-357.1385 673.5,-338.1385 545.5,-338.1385"/>
<polygon fill="none" stroke="#000000" points="545.5,-338.1385 545.5,-357.1385 673.5,-357.1385 673.5,-338.1385 545.5,-338.1385"/>
<text text-anchor="start" x="548.5" y="-344.2385" font-family="Helvetica,sans-Serif" font-size="11.00" fill="#000000">&lt; 5</text>
<polygon fill="#ffffff" stroke="transparent" points="673.5,-338.1385 673.5,-357.1385 739.5,-357.1385 739.5,-338.1385 673.5,-338.1385"/>
<polygon fill="none" stroke="#000000" points="673.5,-338.1385 673.5,-357.1385 739.5,-357.1385 739.5,-338.1385 673.5,-338.1385"/>
<text text-anchor="start" x="730.3862" y="-344.2385" font-family="Helvetica,sans-Serif" font-size="11.00" fill="#000000"> &#160;</text>
<polygon fill="#ffffff" stroke="transparent" points="739.5,-338.1385 739.5,-357.1385 814.5,-357.1385 814.5,-338.1385 739.5,-338.1385"/>
<polygon fill="none" stroke="#000000" points="739.5,-338.1385 739.5,-357.1385 814.5,-357.1385 814.5,-338.1385 739.5,-338.1385"/>
<text text-anchor="start" x="795.9053" y="-344.2385" font-family="Helvetica,sans-Serif" font-size="11.00" fill="#000000">4 &gt;</text>
</a>
</g>
</g>
<!-- contributory_factor&#45;&gt;referral -->
<g id="edge2" class="edge">
<title>contributory_factor:w&#45;&gt;referral:e</title>
<path fill="none" stroke="#000000" d="M880.5366,-566.4039C849.7605,-553.2522 856.8755,-497.1385 814.5,-497.1385"/>
<polygon fill="#000000" stroke="#000000" points="887.1393,-567.6522 894.3312,-572.6758 891.0696,-568.3953 895,-569.1385 895,-569.1385 895,-569.1385 891.0696,-568.3953 895.6688,-565.6011 887.1393,-567.6522 887.1393,-567.6522"/>
<ellipse fill="none" stroke="#000000" cx="883.995" cy="-567.0577" rx="3.2" ry="3.2"/>
</g>
<!-- referral&#45;&gt;reference_data -->
<g id="edge8" class="edge">
<title>referral:w&#45;&gt;reference_data:e</title>
<path fill="none" stroke="#000000" d="M531.6338,-382.9465C522.5371,-376.1953 519.5575,-363.1633 504,-358.1385 390.4302,-321.4573 354.8466,-354.1385 235.5,-354.1385"/>
<polygon fill="#000000" stroke="#000000" points="537.8423,-384.8234 544.4582,-390.5844 541.6711,-385.9809 545.5,-387.1385 545.5,-387.1385 545.5,-387.1385 541.6711,-385.9809 546.5418,-383.6925 537.8423,-384.8234 537.8423,-384.8234"/>
<ellipse fill="none" stroke="#000000" cx="534.7792" cy="-383.8973" rx="3.2" ry="3.2"/>
</g>
<!-- referral&#45;&gt;reference_data -->
<g id="edge9" class="edge">
<title>referral:w&#45;&gt;reference_data:e</title>
<path fill="none" stroke="#000000" d="M531.6495,-448.6371C521.4524,-439.946 521.568,-420.9375 504,-412.1385 413.1798,-366.6509 374.0382,-411.2157 278,-378.1385 257.4898,-371.0744 257.1926,-354.1385 235.5,-354.1385"/>
<polygon fill="#000000" stroke="#000000" points="537.8917,-450.6658 544.3873,-456.5622 541.6959,-451.9021 545.5,-453.1385 545.5,-453.1385 545.5,-453.1385 541.6959,-451.9021 546.6127,-449.7147 537.8917,-450.6658 537.8917,-450.6658"/>
<ellipse fill="none" stroke="#000000" cx="534.8484" cy="-449.6767" rx="3.2" ry="3.2"/>
</g>
<!-- referral&#45;&gt;reference_data -->
<g id="edge10" class="edge">
<title>referral:w&#45;&gt;reference_data:e</title>
<path fill="none" stroke="#000000" d="M531.5498,-470.5779C521.6722,-462.1646 521.1317,-444.3157 504,-436.1385 412.5035,-392.4659 366.6712,-454.2946 278,-405.1385 252.1946,-390.8329 265.0054,-354.1385 235.5,-354.1385"/>
<polygon fill="#000000" stroke="#000000" points="537.896,-472.6526 544.3814,-478.5603 541.698,-473.8955 545.5,-475.1385 545.5,-475.1385 545.5,-475.1385 541.698,-473.8955 546.6186,-471.7167 537.896,-472.6526 537.896,-472.6526"/>
<ellipse fill="none" stroke="#000000" cx="534.8544" cy="-471.6582" rx="3.2" ry="3.2"/>
</g>
<!-- referral&#45;&gt;reference_data -->
<g id="edge11" class="edge">
<title>referral:w&#45;&gt;reference_data:e</title>
<path fill="none" stroke="#000000" d="M531.4858,-426.3377C520.1754,-415.678 524.3275,-390.1128 504,-379.1385 497.4086,-375.58 242.9906,-354.1385 235.5,-354.1385"/>
<polygon fill="#000000" stroke="#000000" points="537.9318,-428.5458 544.3333,-434.5442 541.7159,-429.8421 545.5,-431.1385 545.5,-431.1385 545.5,-431.1385 541.7159,-429.8421 546.6667,-427.7328 537.9318,-428.5458 537.9318,-428.5458"/>
<ellipse fill="none" stroke="#000000" cx="534.9045" cy="-427.5087" rx="3.2" ry="3.2"/>
</g>
<!-- csip_record -->
<g id="node4" class="node">
<title>csip_record</title>
<g id="a_node4"><a xlink:href="../../tables/csip_record.html" xlink:title="csip_record" target="_top">
<polygon fill="#ffffff" stroke="transparent" points="286,-446.6385 286,-595.6385 496,-595.6385 496,-446.6385 286,-446.6385"/>
<polygon fill="#f5f5f5" stroke="transparent" points="286,-572.1385 286,-595.1385 496,-595.1385 496,-572.1385 286,-572.1385"/>
<polygon fill="none" stroke="#000000" points="286,-572.1385 286,-595.1385 496,-595.1385 496,-572.1385 286,-572.1385"/>
<text text-anchor="start" x="291" y="-580.7385" font-family="Helvetica,sans-Serif" font-weight="bold" font-size="11.00" fill="#000000">csip_record</text>
<text text-anchor="start" x="461.0437" y="-580.2385" font-family="Helvetica,sans-Serif" font-size="11.00" fill="#000000">[table]</text>
<polygon fill="none" stroke="#000000" points="286,-550.1385 286,-572.1385 496,-572.1385 496,-550.1385 286,-550.1385"/>
<image xlink:href="../../images/primaryKeys.png" width="11px" height="12px" preserveAspectRatio="xMinYMin meet" x="291" y="-567.138"/>
<text text-anchor="start" x="306" y="-557.2385" font-family="Helvetica,sans-Serif" font-size="11.00" fill="#000000">record_id</text>
<polygon fill="#ffffff" stroke="transparent" points="286,-528.1385 286,-550.1385 496,-550.1385 496,-528.1385 286,-528.1385"/>
<polygon fill="none" stroke="#000000" points="286,-528.1385 286,-550.1385 496,-550.1385 496,-528.1385 286,-528.1385"/>
<image xlink:href="../../images/foreignKeys.png" width="11px" height="12px" preserveAspectRatio="xMinYMin meet" x="291" y="-545.138"/>
<text text-anchor="start" x="306" y="-535.2385" font-family="Helvetica,sans-Serif" font-size="11.00" fill="#000000">prison_number</text>
<polygon fill="#ffffff" stroke="transparent" points="286,-506.1385 286,-528.1385 496,-528.1385 496,-506.1385 286,-506.1385"/>
<polygon fill="none" stroke="#000000" points="286,-506.1385 286,-528.1385 496,-528.1385 496,-506.1385 286,-506.1385"/>
<image xlink:href="../../images/foreignKeys.png" width="11px" height="12px" preserveAspectRatio="xMinYMin meet" x="291" y="-523.138"/>
<text text-anchor="start" x="306" y="-513.2385" font-family="Helvetica,sans-Serif" font-size="11.00" fill="#000000">legacy_id</text>
<polygon fill="#ffffff" stroke="transparent" points="286,-484.1385 286,-506.1385 496,-506.1385 496,-484.1385 286,-484.1385"/>
<polygon fill="none" stroke="#000000" points="286,-484.1385 286,-506.1385 496,-506.1385 496,-484.1385 286,-484.1385"/>
<image xlink:href="../../images/foreignKeys.png" width="11px" height="12px" preserveAspectRatio="xMinYMin meet" x="291" y="-501.138"/>
<text text-anchor="start" x="306" y="-491.2385" font-family="Helvetica,sans-Serif" font-size="11.00" fill="#000000">status_id</text>
<polygon fill="none" stroke="#000000" points="286,-465.1385 286,-484.1385 496,-484.1385 496,-465.1385 286,-465.1385"/>
<text text-anchor="start" x="289" y="-471.2385" font-family="Helvetica,sans-Serif" font-size="11.00" fill="#000000">...</text>
<polygon fill="#ffffff" stroke="transparent" points="286,-446.1385 286,-465.1385 385,-465.1385 385,-446.1385 286,-446.1385"/>
<polygon fill="none" stroke="#000000" points="286,-446.1385 286,-465.1385 385,-465.1385 385,-446.1385 286,-446.1385"/>
<text text-anchor="start" x="289" y="-452.2385" font-family="Helvetica,sans-Serif" font-size="11.00" fill="#000000">&lt; 2</text>
<polygon fill="#ffffff" stroke="transparent" points="385,-446.1385 385,-465.1385 436,-465.1385 436,-446.1385 385,-446.1385"/>
<polygon fill="none" stroke="#000000" points="385,-446.1385 385,-465.1385 436,-465.1385 436,-446.1385 385,-446.1385"/>
<text text-anchor="start" x="426.8862" y="-452.2385" font-family="Helvetica,sans-Serif" font-size="11.00" fill="#000000"> &#160;</text>
<polygon fill="#ffffff" stroke="transparent" points="436,-446.1385 436,-465.1385 496,-465.1385 496,-446.1385 436,-446.1385"/>
<polygon fill="none" stroke="#000000" points="436,-446.1385 436,-465.1385 496,-465.1385 496,-446.1385 436,-446.1385"/>
<text text-anchor="start" x="477.4053" y="-452.2385" font-family="Helvetica,sans-Serif" font-size="11.00" fill="#000000">2 &gt;</text>
</a>
</g>
</g>
<!-- referral&#45;&gt;csip_record -->
<g id="edge12" class="edge">
<title>referral:w&#45;&gt;csip_record:e</title>
<path fill="none" stroke="#000000" d="M535.0752,-499.5692C513.9932,-511.2596 527.7455,-561.1385 496,-561.1385"/>
<polygon fill="#000000" stroke="#000000" points="543.8126,-493.4246 545.6292,-501.2156 544.071,-501.579 542.2544,-493.788 543.8126,-493.4246"/>
<polyline fill="none" stroke="#000000" points="545.5,-497.1385 541.6045,-498.0468 "/>
<ellipse fill="none" stroke="#000000" cx="538.4881" cy="-498.7735" rx="3.2" ry="3.2"/>
</g>
<!-- csip_record&#45;&gt;reference_data -->
<g id="edge3" class="edge">
<title>csip_record:w&#45;&gt;reference_data:e</title>
<path fill="none" stroke="#000000" d="M271.4552,-491.9286C233.0785,-470.9407 296.0843,-354.1385 235.5,-354.1385"/>
<polygon fill="#000000" stroke="#000000" points="278.188,-493.4144 285.2242,-498.6539 282.094,-494.2764 286,-495.1385 286,-495.1385 286,-495.1385 282.094,-494.2764 286.7758,-491.6231 278.188,-493.4144 278.188,-493.4144"/>
<ellipse fill="none" stroke="#000000" cx="275.0632" cy="-492.7248" rx="3.2" ry="3.2"/>
</g>
<!-- decision_and_actions -->
<g id="node5" class="node">
<title>decision_and_actions</title>
<g id="a_node5"><a xlink:href="../../tables/decision_and_actions.html" xlink:title="decision_and_actions" target="_top">
<polygon fill="#ffffff" stroke="transparent" points="897.5,-243.6385 897.5,-370.6385 1098.5,-370.6385 1098.5,-243.6385 897.5,-243.6385"/>
<polygon fill="#f5f5f5" stroke="transparent" points="898,-347.1385 898,-370.1385 1099,-370.1385 1099,-347.1385 898,-347.1385"/>
<polygon fill="none" stroke="#000000" points="898,-347.1385 898,-370.1385 1099,-370.1385 1099,-347.1385 898,-347.1385"/>
<text text-anchor="start" x="903" y="-355.7385" font-family="Helvetica,sans-Serif" font-weight="bold" font-size="11.00" fill="#000000">decision_and_actions</text>
<text text-anchor="start" x="1064.0437" y="-355.2385" font-family="Helvetica,sans-Serif" font-size="11.00" fill="#000000">[table]</text>
<polygon fill="none" stroke="#000000" points="898,-325.1385 898,-347.1385 1099,-347.1385 1099,-325.1385 898,-325.1385"/>
<image xlink:href="../../images/primaryKeys.png" width="11px" height="12px" preserveAspectRatio="xMinYMin meet" x="903" y="-342.138"/>
<text text-anchor="start" x="918" y="-332.2385" font-family="Helvetica,sans-Serif" font-size="11.00" fill="#000000">decision_and_actions_id</text>
<polygon fill="#ffffff" stroke="transparent" points="898,-303.1385 898,-325.1385 1099,-325.1385 1099,-303.1385 898,-303.1385"/>
<polygon fill="none" stroke="#000000" points="898,-303.1385 898,-325.1385 1099,-325.1385 1099,-303.1385 898,-303.1385"/>
<image xlink:href="../../images/foreignKeys.png" width="11px" height="12px" preserveAspectRatio="xMinYMin meet" x="903" y="-320.138"/>
<text text-anchor="start" x="918" y="-310.2385" font-family="Helvetica,sans-Serif" font-size="11.00" fill="#000000">outcome_id</text>
<polygon fill="#ffffff" stroke="transparent" points="898,-281.1385 898,-303.1385 1099,-303.1385 1099,-281.1385 898,-281.1385"/>
<polygon fill="none" stroke="#000000" points="898,-281.1385 898,-303.1385 1099,-303.1385 1099,-281.1385 898,-281.1385"/>
<image xlink:href="../../images/foreignKeys.png" width="11px" height="12px" preserveAspectRatio="xMinYMin meet" x="903" y="-298.138"/>
<text text-anchor="start" x="918" y="-288.2385" font-family="Helvetica,sans-Serif" font-size="11.00" fill="#000000">signed_off_by_role_id</text>
<polygon fill="none" stroke="#000000" points="898,-262.1385 898,-281.1385 1099,-281.1385 1099,-262.1385 898,-262.1385"/>
<text text-anchor="start" x="901" y="-268.2385" font-family="Helvetica,sans-Serif" font-size="11.00" fill="#000000">...</text>
<polygon fill="#ffffff" stroke="transparent" points="898,-243.1385 898,-262.1385 997,-262.1385 997,-243.1385 898,-243.1385"/>
<polygon fill="none" stroke="#000000" points="898,-243.1385 898,-262.1385 997,-262.1385 997,-243.1385 898,-243.1385"/>
<text text-anchor="start" x="901" y="-249.2385" font-family="Helvetica,sans-Serif" font-size="11.00" fill="#000000">&lt; 3</text>
<polygon fill="#ffffff" stroke="transparent" points="997,-243.1385 997,-262.1385 1048,-262.1385 1048,-243.1385 997,-243.1385"/>
<polygon fill="none" stroke="#000000" points="997,-243.1385 997,-262.1385 1048,-262.1385 1048,-243.1385 997,-243.1385"/>
<text text-anchor="start" x="1038.8862" y="-249.2385" font-family="Helvetica,sans-Serif" font-size="11.00" fill="#000000"> &#160;</text>
<polygon fill="#ffffff" stroke="transparent" points="1048,-243.1385 1048,-262.1385 1099,-262.1385 1099,-243.1385 1048,-243.1385"/>
<polygon fill="none" stroke="#000000" points="1048,-243.1385 1048,-262.1385 1099,-262.1385 1099,-243.1385 1048,-243.1385"/>
<text text-anchor="start" x="1089.8862" y="-249.2385" font-family="Helvetica,sans-Serif" font-size="11.00" fill="#000000"> &#160;</text>
</a>
</g>
</g>
<!-- decision_and_actions&#45;&gt;reference_data -->
<g id="edge5" class="edge">
<title>decision_and_actions:w&#45;&gt;reference_data:e</title>
<path fill="none" stroke="#000000" d="M883.2496,-314.1058C619.4993,-312.9341 542.8829,-281.0148 278,-337.1385 258.0979,-341.3554 255.844,-354.1385 235.5,-354.1385"/>
<polygon fill="#000000" stroke="#000000" points="890,-314.1207 897.992,-317.7385 894,-314.1296 898,-314.1385 898,-314.1385 898,-314.1385 894,-314.1296 898.008,-310.5385 890,-314.1207 890,-314.1207"/>
<ellipse fill="none" stroke="#000000" cx="886.8" cy="-314.1136" rx="3.2" ry="3.2"/>
</g>
<!-- decision_and_actions&#45;&gt;reference_data -->
<g id="edge6" class="edge">
<title>decision_and_actions:w&#45;&gt;reference_data:e</title>
<path fill="none" stroke="#000000" d="M883.393,-291.976C777.7953,-290.1321 336.6823,-273.7295 278,-302.1385 251.1345,-315.1445 265.3482,-354.1385 235.5,-354.1385"/>
<polygon fill="#000000" stroke="#000000" points="890.0005,-292.0495 897.9599,-295.7382 894.0002,-292.094 898,-292.1385 898,-292.1385 898,-292.1385 894.0002,-292.094 898.0401,-288.5387 890.0005,-292.0495 890.0005,-292.0495"/>
<ellipse fill="none" stroke="#000000" cx="886.8007" cy="-292.0139" rx="3.2" ry="3.2"/>
</g>
<!-- decision_and_actions&#45;&gt;referral -->
<g id="edge4" class="edge">
<title>decision_and_actions:w&#45;&gt;referral:e</title>
<path fill="none" stroke="#000000" d="M887.2879,-337.2525C824.6051,-351.4773 891.1708,-497.1385 814.5,-497.1385"/>
<polygon fill="#000000" stroke="#000000" points="896.7905,-332.2427 897.6181,-340.1998 896.0267,-340.3653 895.1991,-332.4082 896.7905,-332.2427"/>
<polyline fill="none" stroke="#000000" points="898,-336.1385 894.0215,-336.5523 "/>
<ellipse fill="none" stroke="#000000" cx="890.8386" cy="-336.8833" rx="3.2" ry="3.2"/>
</g>
<!-- interview -->
<g id="node6" class="node">
<title>interview</title>
<g id="a_node6"><a xlink:href="../../tables/interview.html" xlink:title="interview" target="_top">
<polygon fill="#ffffff" stroke="transparent" points="315,-113.6385 315,-262.6385 467,-262.6385 467,-113.6385 315,-113.6385"/>
<polygon fill="#f5f5f5" stroke="transparent" points="315,-239.1385 315,-262.1385 467,-262.1385 467,-239.1385 315,-239.1385"/>
<polygon fill="none" stroke="#000000" points="315,-239.1385 315,-262.1385 467,-262.1385 467,-239.1385 315,-239.1385"/>
<text text-anchor="start" x="320" y="-247.7385" font-family="Helvetica,sans-Serif" font-weight="bold" font-size="11.00" fill="#000000">interview</text>
<text text-anchor="start" x="432.0437" y="-247.2385" font-family="Helvetica,sans-Serif" font-size="11.00" fill="#000000">[table]</text>
<polygon fill="none" stroke="#000000" points="315,-217.1385 315,-239.1385 467,-239.1385 467,-217.1385 315,-217.1385"/>
<image xlink:href="../../images/primaryKeys.png" width="11px" height="12px" preserveAspectRatio="xMinYMin meet" x="320" y="-234.138"/>
<text text-anchor="start" x="335" y="-224.2385" font-family="Helvetica,sans-Serif" font-size="11.00" fill="#000000">interview_id</text>
<polygon fill="#ffffff" stroke="transparent" points="315,-195.1385 315,-217.1385 467,-217.1385 467,-195.1385 315,-195.1385"/>
<polygon fill="none" stroke="#000000" points="315,-195.1385 315,-217.1385 467,-217.1385 467,-195.1385 315,-195.1385"/>
<image xlink:href="../../images/foreignKeys.png" width="11px" height="12px" preserveAspectRatio="xMinYMin meet" x="320" y="-212.138"/>
<text text-anchor="start" x="335" y="-202.2385" font-family="Helvetica,sans-Serif" font-size="11.00" fill="#000000">investigation_id</text>
<polygon fill="#ffffff" stroke="transparent" points="315,-173.1385 315,-195.1385 467,-195.1385 467,-173.1385 315,-173.1385"/>
<polygon fill="none" stroke="#000000" points="315,-173.1385 315,-195.1385 467,-195.1385 467,-173.1385 315,-173.1385"/>
<image xlink:href="../../images/foreignKeys.png" width="11px" height="12px" preserveAspectRatio="xMinYMin meet" x="320" y="-190.138"/>
<text text-anchor="start" x="335" y="-180.2385" font-family="Helvetica,sans-Serif" font-size="11.00" fill="#000000">interviewee_role_id</text>
<polygon fill="#ffffff" stroke="transparent" points="315,-151.1385 315,-173.1385 467,-173.1385 467,-151.1385 315,-151.1385"/>
<polygon fill="none" stroke="#000000" points="315,-151.1385 315,-173.1385 467,-173.1385 467,-151.1385 315,-151.1385"/>
<image xlink:href="../../images/foreignKeys.png" width="11px" height="12px" preserveAspectRatio="xMinYMin meet" x="320" y="-168.138"/>
<text text-anchor="start" x="335" y="-158.2385" font-family="Helvetica,sans-Serif" font-size="11.00" fill="#000000">legacy_id</text>
<polygon fill="none" stroke="#000000" points="315,-132.1385 315,-151.1385 467,-151.1385 467,-132.1385 315,-132.1385"/>
<text text-anchor="start" x="318" y="-138.2385" font-family="Helvetica,sans-Serif" font-size="11.00" fill="#000000">...</text>
<polygon fill="#ffffff" stroke="transparent" points="315,-113.1385 315,-132.1385 389,-132.1385 389,-113.1385 315,-113.1385"/>
<polygon fill="none" stroke="#000000" points="315,-113.1385 315,-132.1385 389,-132.1385 389,-113.1385 315,-113.1385"/>
<text text-anchor="start" x="318" y="-119.2385" font-family="Helvetica,sans-Serif" font-size="11.00" fill="#000000">&lt; 2</text>
<polygon fill="#ffffff" stroke="transparent" points="389,-113.1385 389,-132.1385 428,-132.1385 428,-113.1385 389,-113.1385"/>
<polygon fill="none" stroke="#000000" points="389,-113.1385 389,-132.1385 428,-132.1385 428,-113.1385 389,-113.1385"/>
<text text-anchor="start" x="418.8862" y="-119.2385" font-family="Helvetica,sans-Serif" font-size="11.00" fill="#000000"> &#160;</text>
<polygon fill="#ffffff" stroke="transparent" points="428,-113.1385 428,-132.1385 467,-132.1385 467,-113.1385 428,-113.1385"/>
<polygon fill="none" stroke="#000000" points="428,-113.1385 428,-132.1385 467,-132.1385 467,-113.1385 428,-113.1385"/>
<text text-anchor="start" x="457.8862" y="-119.2385" font-family="Helvetica,sans-Serif" font-size="11.00" fill="#000000"> &#160;</text>
</a>
</g>
</g>
<!-- interview&#45;&gt;reference_data -->
<g id="edge7" class="edge">
<title>interview:w&#45;&gt;reference_data:e</title>
<path fill="none" stroke="#000000" d="M300.542,-186.2879C242.4349,-205.9669 313.3703,-354.1385 235.5,-354.1385"/>
<polygon fill="#000000" stroke="#000000" points="307.087,-185.3149 315.5294,-187.6993 311.0435,-184.7267 315,-184.1385 315,-184.1385 315,-184.1385 311.0435,-184.7267 314.4706,-180.5776 307.087,-185.3149 307.087,-185.3149"/>
<ellipse fill="none" stroke="#000000" cx="303.9218" cy="-185.7855" rx="3.2" ry="3.2"/>
</g>
<!-- safer_custody_screening_outcome -->
<g id="node7" class="node">
<title>safer_custody_screening_outcome</title>
<g id="a_node7"><a xlink:href="../../tables/safer_custody_screening_outcome.html" xlink:title="safer_custody_screening_outcome" target="_top">
<polygon fill="#ffffff" stroke="transparent" points="863,-78.6385 863,-183.6385 1133,-183.6385 1133,-78.6385 863,-78.6385"/>
<polygon fill="#f5f5f5" stroke="transparent" points="863,-160.1385 863,-183.1385 1133,-183.1385 1133,-160.1385 863,-160.1385"/>
<polygon fill="none" stroke="#000000" points="863,-160.1385 863,-183.1385 1133,-183.1385 1133,-160.1385 863,-160.1385"/>
<text text-anchor="start" x="868" y="-168.7385" font-family="Helvetica,sans-Serif" font-weight="bold" font-size="11.00" fill="#000000">safer_custody_screening_outcome</text>
<text text-anchor="start" x="1098.5219" y="-168.2385" font-family="Helvetica,sans-Serif" font-size="11.00" fill="#000000">[table]</text>
<polygon fill="none" stroke="#000000" points="863,-138.1385 863,-160.1385 1133,-160.1385 1133,-138.1385 863,-138.1385"/>
<image xlink:href="../../images/primaryKeys.png" width="11px" height="12px" preserveAspectRatio="xMinYMin meet" x="868" y="-155.138"/>
<text text-anchor="start" x="883" y="-145.2385" font-family="Helvetica,sans-Serif" font-size="11.00" fill="#000000">safer_custody_screening_outcome_id</text>
<polygon fill="#ffffff" stroke="transparent" points="863,-116.1385 863,-138.1385 1133,-138.1385 1133,-116.1385 863,-116.1385"/>
<polygon fill="none" stroke="#000000" points="863,-116.1385 863,-138.1385 1133,-138.1385 1133,-116.1385 863,-116.1385"/>
<image xlink:href="../../images/foreignKeys.png" width="11px" height="12px" preserveAspectRatio="xMinYMin meet" x="868" y="-133.138"/>
<text text-anchor="start" x="883" y="-123.2385" font-family="Helvetica,sans-Serif" font-size="11.00" fill="#000000">outcome_id</text>
<polygon fill="none" stroke="#000000" points="863,-97.1385 863,-116.1385 1133,-116.1385 1133,-97.1385 863,-97.1385"/>
<text text-anchor="start" x="866" y="-103.2385" font-family="Helvetica,sans-Serif" font-size="11.00" fill="#000000">...</text>
<polygon fill="#ffffff" stroke="transparent" points="863,-78.1385 863,-97.1385 996,-97.1385 996,-78.1385 863,-78.1385"/>
<polygon fill="none" stroke="#000000" points="863,-78.1385 863,-97.1385 996,-97.1385 996,-78.1385 863,-78.1385"/>
<text text-anchor="start" x="866" y="-84.2385" font-family="Helvetica,sans-Serif" font-size="11.00" fill="#000000">&lt; 2</text>
<polygon fill="#ffffff" stroke="transparent" points="996,-78.1385 996,-97.1385 1064,-97.1385 1064,-78.1385 996,-78.1385"/>
<polygon fill="none" stroke="#000000" points="996,-78.1385 996,-97.1385 1064,-97.1385 1064,-78.1385 996,-78.1385"/>
<text text-anchor="start" x="1054.8862" y="-84.2385" font-family="Helvetica,sans-Serif" font-size="11.00" fill="#000000"> &#160;</text>
<polygon fill="#ffffff" stroke="transparent" points="1064,-78.1385 1064,-97.1385 1133,-97.1385 1133,-78.1385 1064,-78.1385"/>
<polygon fill="none" stroke="#000000" points="1064,-78.1385 1064,-97.1385 1133,-97.1385 1133,-78.1385 1064,-78.1385"/>
<text text-anchor="start" x="1123.8862" y="-84.2385" font-family="Helvetica,sans-Serif" font-size="11.00" fill="#000000"> &#160;</text>
</a>
</g>
</g>
<!-- safer_custody_screening_outcome&#45;&gt;reference_data -->
<g id="edge13" class="edge">
<title>safer_custody_screening_outcome:w&#45;&gt;reference_data:e</title>
<path fill="none" stroke="#000000" d="M848.2786,-126.9335C597.9556,-119.9587 472.984,61.6057 278,-103.1385 234.7875,-139.6492 292.0717,-354.1385 235.5,-354.1385"/>
<polygon fill="#000000" stroke="#000000" points="855.0008,-127.027 862.9498,-130.7381 859.0004,-127.0827 863,-127.1385 863,-127.1385 863,-127.1385 859.0004,-127.0827 863.0502,-123.5388 855.0008,-127.027 855.0008,-127.027"/>
<ellipse fill="none" stroke="#000000" cx="851.8011" cy="-126.9824" rx="3.2" ry="3.2"/>
</g>
<!-- safer_custody_screening_outcome&#45;&gt;referral -->
<g id="edge14" class="edge">
<title>safer_custody_screening_outcome:w&#45;&gt;referral:e</title>
<path fill="none" stroke="#000000" d="M852.8477,-151.5465C794.9902,-182.2931 888.7682,-497.1385 814.5,-497.1385"/>
<polygon fill="#000000" stroke="#000000" points="861.2984,-145.4311 863.1448,-153.2151 861.588,-153.5844 859.7416,-145.8004 861.2984,-145.4311"/>
<polyline fill="none" stroke="#000000" points="863,-149.1385 859.108,-150.0617 "/>
<ellipse fill="none" stroke="#000000" cx="855.9944" cy="-150.8002" rx="3.2" ry="3.2"/>
</g>
</g>
</svg>
