<?xml version="1.0" encoding="UTF-8" standalone="no"?>
<!DOCTYPE svg PUBLIC "-//W3C//DTD SVG 1.1//EN"
 "http://www.w3.org/Graphics/SVG/1.1/DTD/svg11.dtd">
<!-- Generated by graphviz version 2.40.1 (20161225.0304)
 -->
<!-- Title: twoDegreesRelationshipsDiagram Pages: 1 -->
<svg width="1227pt" height="832pt"
 viewBox="0.00 0.00 1227.00 832.45" xmlns="http://www.w3.org/2000/svg" xmlns:xlink="http://www.w3.org/1999/xlink">
<g id="graph0" class="graph" transform="scale(1 1) rotate(0) translate(4 828.4488)">
<title>twoDegreesRelationshipsDiagram</title>
<polygon fill="#ffffff" stroke="transparent" points="-4,4 -4,-828.4488 1223,-828.4488 1223,4 -4,4"/>
<text text-anchor="middle" x="72.4936" y="-7.3" font-family="Helvetica,sans-Serif" font-size="11.00" fill="#000000">Generated by SchemaSpy</text>
<!-- contributory_factor -->
<g id="node1" class="node">
<title>contributory_factor</title>
<g id="a_node1"><a xlink:href="../../tables/contributory_factor.html" xlink:title="contributory_factor" target="_top">
<polygon fill="#ffffff" stroke="transparent" points="841,-671.4488 841,-732.4488 1010,-732.4488 1010,-671.4488 841,-671.4488"/>
<polygon fill="#f5f5f5" stroke="transparent" points="841.5,-708.9488 841.5,-731.9488 1010.5,-731.9488 1010.5,-708.9488 841.5,-708.9488"/>
<polygon fill="none" stroke="#000000" points="841.5,-708.9488 841.5,-731.9488 1010.5,-731.9488 1010.5,-708.9488 841.5,-708.9488"/>
<text text-anchor="start" x="846.5" y="-717.5488" font-family="Helvetica,sans-Serif" font-weight="bold" font-size="11.00" fill="#000000">contributory_factor</text>
<text text-anchor="start" x="976.0219" y="-717.0488" font-family="Helvetica,sans-Serif" font-size="11.00" fill="#000000">[table]</text>
<polygon fill="none" stroke="#000000" points="841.5,-689.9488 841.5,-708.9488 1010.5,-708.9488 1010.5,-689.9488 841.5,-689.9488"/>
<text text-anchor="start" x="844.5" y="-696.0488" font-family="Helvetica,sans-Serif" font-size="11.00" fill="#000000">...</text>
<polygon fill="#ffffff" stroke="transparent" points="841.5,-670.9488 841.5,-689.9488 924.5,-689.9488 924.5,-670.9488 841.5,-670.9488"/>
<polygon fill="none" stroke="#000000" points="841.5,-670.9488 841.5,-689.9488 924.5,-689.9488 924.5,-670.9488 841.5,-670.9488"/>
<text text-anchor="start" x="844.5" y="-677.0488" font-family="Helvetica,sans-Serif" font-size="11.00" fill="#000000">&lt; 2</text>
<polygon fill="#ffffff" stroke="transparent" points="924.5,-670.9488 924.5,-689.9488 967.5,-689.9488 967.5,-670.9488 924.5,-670.9488"/>
<polygon fill="none" stroke="#000000" points="924.5,-670.9488 924.5,-689.9488 967.5,-689.9488 967.5,-670.9488 924.5,-670.9488"/>
<text text-anchor="start" x="958.3862" y="-677.0488" font-family="Helvetica,sans-Serif" font-size="11.00" fill="#000000"> &#160;</text>
<polygon fill="#ffffff" stroke="transparent" points="967.5,-670.9488 967.5,-689.9488 1010.5,-689.9488 1010.5,-670.9488 967.5,-670.9488"/>
<polygon fill="none" stroke="#000000" points="967.5,-670.9488 967.5,-689.9488 1010.5,-689.9488 1010.5,-670.9488 967.5,-670.9488"/>
<text text-anchor="start" x="1001.3862" y="-677.0488" font-family="Helvetica,sans-Serif" font-size="11.00" fill="#000000"> &#160;</text>
</a>
</g>
</g>
<!-- reference_data -->
<g id="node2" class="node">
<title>reference_data</title>
<g id="a_node2"><a xlink:href="../../tables/reference_data.html" xlink:title="reference_data" target="_top">
<polygon fill="#ffffff" stroke="transparent" points="15,-475.4488 15,-536.4488 155,-536.4488 155,-475.4488 15,-475.4488"/>
<polygon fill="#f5f5f5" stroke="transparent" points="15,-512.9488 15,-535.9488 155,-535.9488 155,-512.9488 15,-512.9488"/>
<polygon fill="none" stroke="#000000" points="15,-512.9488 15,-535.9488 155,-535.9488 155,-512.9488 15,-512.9488"/>
<text text-anchor="start" x="20" y="-521.5488" font-family="Helvetica,sans-Serif" font-weight="bold" font-size="11.00" fill="#000000">reference_data</text>
<text text-anchor="start" x="120.5219" y="-521.0488" font-family="Helvetica,sans-Serif" font-size="11.00" fill="#000000">[table]</text>
<polygon fill="none" stroke="#000000" points="15,-493.9488 15,-512.9488 155,-512.9488 155,-493.9488 15,-493.9488"/>
<text text-anchor="start" x="18" y="-500.0488" font-family="Helvetica,sans-Serif" font-size="11.00" fill="#000000">...</text>
<polygon fill="#ffffff" stroke="transparent" points="15,-474.9488 15,-493.9488 52,-493.9488 52,-474.9488 15,-474.9488"/>
<polygon fill="none" stroke="#000000" points="15,-474.9488 15,-493.9488 52,-493.9488 52,-474.9488 15,-474.9488"/>
<text text-anchor="start" x="18" y="-481.0488" font-family="Helvetica,sans-Serif" font-size="11.00" fill="#000000"> &#160;</text>
<polygon fill="#ffffff" stroke="transparent" points="52,-474.9488 52,-493.9488 115,-493.9488 115,-474.9488 52,-474.9488"/>
<polygon fill="none" stroke="#000000" points="52,-474.9488 52,-493.9488 115,-493.9488 115,-474.9488 52,-474.9488"/>
<text text-anchor="start" x="67.3807" y="-481.0488" font-family="Helvetica,sans-Serif" font-size="11.00" fill="#000000">122 rows</text>
<polygon fill="#ffffff" stroke="transparent" points="115,-474.9488 115,-493.9488 155,-493.9488 155,-474.9488 115,-474.9488"/>
<polygon fill="none" stroke="#000000" points="115,-474.9488 115,-493.9488 155,-493.9488 155,-474.9488 115,-474.9488"/>
<text text-anchor="start" x="130.2904" y="-481.0488" font-family="Helvetica,sans-Serif" font-size="11.00" fill="#000000">10 &gt;</text>
</a>
</g>
</g>
<!-- contributory_factor&#45;&gt;reference_data -->
<g id="edge1" class="edge">
<title>contributory_factor:w&#45;&gt;reference_data:e</title>
<path fill="none" stroke="#000000" d="M818.5836,-726.0609C703.918,-747.1798 517.9623,-767.6144 367,-718.9488 260.7207,-684.6876 163.0254,-591.4845 115.4257,-540.4642"/>
<polygon fill="#000000" stroke="#000000" points="825.0363,-724.8401 833.5661,-726.89 828.9665,-724.0964 832.8968,-723.3528 832.8968,-723.3528 832.8968,-723.3528 828.9665,-724.0964 832.2275,-719.8155 825.0363,-724.8401 825.0363,-724.8401"/>
<ellipse fill="none" stroke="#000000" cx="821.8921" cy="-725.435" rx="3.2" ry="3.2"/>
</g>
<!-- referral -->
<g id="node3" class="node">
<title>referral</title>
<g id="a_node3"><a xlink:href="../../tables/referral.html" xlink:title="referral" target="_top">
<polygon fill="#ffffff" stroke="transparent" points="375,-199.9488 375,-707.9488 742,-707.9488 742,-199.9488 375,-199.9488"/>
<polygon fill="#f5f5f5" stroke="transparent" points="377.5,-682.9488 377.5,-705.9488 740.5,-705.9488 740.5,-682.9488 377.5,-682.9488"/>
<polygon fill="none" stroke="#000000" points="377.5,-682.9488 377.5,-705.9488 740.5,-705.9488 740.5,-682.9488 377.5,-682.9488"/>
<text text-anchor="start" x="382.5" y="-691.5488" font-family="Helvetica,sans-Serif" font-weight="bold" font-size="11.00" fill="#000000">referral</text>
<text text-anchor="start" x="705.5437" y="-691.0488" font-family="Helvetica,sans-Serif" font-size="11.00" fill="#000000">[table]</text>
<polygon fill="none" stroke="#000000" points="377.5,-660.9488 377.5,-682.9488 646.5,-682.9488 646.5,-660.9488 377.5,-660.9488"/>
<image xlink:href="../../images/primaryKeys.png" width="11px" height="12px" preserveAspectRatio="xMinYMin meet" x="382.5" y="-677.949"/>
<text text-anchor="start" x="397.5" y="-668.0488" font-family="Helvetica,sans-Serif" font-size="11.00" fill="#000000">referral_id</text>
<polygon fill="none" stroke="#000000" points="646.5,-660.9488 646.5,-682.9488 740.5,-682.9488 740.5,-660.9488 646.5,-660.9488"/>
<text text-anchor="start" x="649.4758" y="-668.6488" font-family="Helvetica,sans-Serif" font-size="11.00" fill="#000000">uuid[2147483647]</text>
<polygon fill="none" stroke="#000000" points="377.5,-638.9488 377.5,-660.9488 646.5,-660.9488 646.5,-638.9488 377.5,-638.9488"/>
<text text-anchor="start" x="397.5" y="-646.0488" font-family="Helvetica,sans-Serif" font-size="11.00" fill="#000000">incident_date</text>
<polygon fill="none" stroke="#000000" points="646.5,-638.9488 646.5,-660.9488 740.5,-660.9488 740.5,-638.9488 646.5,-638.9488"/>
<text text-anchor="start" x="649.5" y="-646.6488" font-family="Helvetica,sans-Serif" font-size="11.00" fill="#000000">date[13]</text>
<polygon fill="none" stroke="#000000" points="377.5,-616.9488 377.5,-638.9488 646.5,-638.9488 646.5,-616.9488 377.5,-616.9488"/>
<text text-anchor="start" x="397.5" y="-624.0488" font-family="Helvetica,sans-Serif" font-size="11.00" fill="#000000">incident_time</text>
<polygon fill="none" stroke="#000000" points="646.5,-616.9488 646.5,-638.9488 740.5,-638.9488 740.5,-616.9488 646.5,-616.9488"/>
<text text-anchor="start" x="649.5" y="-624.6488" font-family="Helvetica,sans-Serif" font-size="11.00" fill="#000000">time[15,6]</text>
<polygon fill="#ffffff" stroke="transparent" points="377.5,-594.9488 377.5,-616.9488 646.5,-616.9488 646.5,-594.9488 377.5,-594.9488"/>
<polygon fill="none" stroke="#000000" points="377.5,-594.9488 377.5,-616.9488 646.5,-616.9488 646.5,-594.9488 377.5,-594.9488"/>
<image xlink:href="../../images/foreignKeys.png" width="11px" height="12px" preserveAspectRatio="xMinYMin meet" x="382.5" y="-611.949"/>
<text text-anchor="start" x="397.5" y="-602.0488" font-family="Helvetica,sans-Serif" font-size="11.00" fill="#000000">incident_type_id</text>
<polygon fill="none" stroke="#000000" points="646.5,-594.9488 646.5,-616.9488 740.5,-616.9488 740.5,-594.9488 646.5,-594.9488"/>
<text text-anchor="start" x="649.5" y="-602.6488" font-family="Helvetica,sans-Serif" font-size="11.00" fill="#000000">int4[10]</text>
<polygon fill="#ffffff" stroke="transparent" points="377.5,-572.9488 377.5,-594.9488 646.5,-594.9488 646.5,-572.9488 377.5,-572.9488"/>
<polygon fill="none" stroke="#000000" points="377.5,-572.9488 377.5,-594.9488 646.5,-594.9488 646.5,-572.9488 377.5,-572.9488"/>
<image xlink:href="../../images/foreignKeys.png" width="11px" height="12px" preserveAspectRatio="xMinYMin meet" x="382.5" y="-589.949"/>
<text text-anchor="start" x="397.5" y="-580.0488" font-family="Helvetica,sans-Serif" font-size="11.00" fill="#000000">incident_location_id</text>
<polygon fill="none" stroke="#000000" points="646.5,-572.9488 646.5,-594.9488 740.5,-594.9488 740.5,-572.9488 646.5,-572.9488"/>
<text text-anchor="start" x="649.5" y="-580.6488" font-family="Helvetica,sans-Serif" font-size="11.00" fill="#000000">int4[10]</text>
<polygon fill="none" stroke="#000000" points="377.5,-550.9488 377.5,-572.9488 646.5,-572.9488 646.5,-550.9488 377.5,-550.9488"/>
<text text-anchor="start" x="397.5" y="-558.0488" font-family="Helvetica,sans-Serif" font-size="11.00" fill="#000000">referred_by</text>
<polygon fill="none" stroke="#000000" points="646.5,-550.9488 646.5,-572.9488 740.5,-572.9488 740.5,-550.9488 646.5,-550.9488"/>
<text text-anchor="start" x="649.5" y="-558.6488" font-family="Helvetica,sans-Serif" font-size="11.00" fill="#000000">varchar[240]</text>
<polygon fill="#ffffff" stroke="transparent" points="377.5,-528.9488 377.5,-550.9488 646.5,-550.9488 646.5,-528.9488 377.5,-528.9488"/>
<polygon fill="none" stroke="#000000" points="377.5,-528.9488 377.5,-550.9488 646.5,-550.9488 646.5,-528.9488 377.5,-528.9488"/>
<image xlink:href="../../images/foreignKeys.png" width="11px" height="12px" preserveAspectRatio="xMinYMin meet" x="382.5" y="-545.949"/>
<text text-anchor="start" x="397.5" y="-536.0488" font-family="Helvetica,sans-Serif" font-size="11.00" fill="#000000">referer_area_of_work_id</text>
<polygon fill="none" stroke="#000000" points="646.5,-528.9488 646.5,-550.9488 740.5,-550.9488 740.5,-528.9488 646.5,-528.9488"/>
<text text-anchor="start" x="649.5" y="-536.6488" font-family="Helvetica,sans-Serif" font-size="11.00" fill="#000000">int4[10]</text>
<polygon fill="#ffffff" stroke="transparent" points="377.5,-506.9488 377.5,-528.9488 646.5,-528.9488 646.5,-506.9488 377.5,-506.9488"/>
<polygon fill="none" stroke="#000000" points="377.5,-506.9488 377.5,-528.9488 646.5,-528.9488 646.5,-506.9488 377.5,-506.9488"/>
<text text-anchor="start" x="397.5" y="-514.0488" font-family="Helvetica,sans-Serif" font-size="11.00" fill="#000000">referral_date</text>
<polygon fill="none" stroke="#000000" points="646.5,-506.9488 646.5,-528.9488 740.5,-528.9488 740.5,-506.9488 646.5,-506.9488"/>
<text text-anchor="start" x="649.5" y="-514.6488" font-family="Helvetica,sans-Serif" font-size="11.00" fill="#000000">date[13]</text>
<polygon fill="none" stroke="#000000" points="377.5,-484.9488 377.5,-506.9488 646.5,-506.9488 646.5,-484.9488 377.5,-484.9488"/>
<text text-anchor="start" x="397.5" y="-492.0488" font-family="Helvetica,sans-Serif" font-size="11.00" fill="#000000">proactive_referral</text>
<polygon fill="none" stroke="#000000" points="646.5,-484.9488 646.5,-506.9488 740.5,-506.9488 740.5,-484.9488 646.5,-484.9488"/>
<text text-anchor="start" x="649.5" y="-492.6488" font-family="Helvetica,sans-Serif" font-size="11.00" fill="#000000">bool[1]</text>
<polygon fill="none" stroke="#000000" points="377.5,-462.9488 377.5,-484.9488 646.5,-484.9488 646.5,-462.9488 377.5,-462.9488"/>
<text text-anchor="start" x="397.5" y="-470.0488" font-family="Helvetica,sans-Serif" font-size="11.00" fill="#000000">staff_assaulted</text>
<polygon fill="none" stroke="#000000" points="646.5,-462.9488 646.5,-484.9488 740.5,-484.9488 740.5,-462.9488 646.5,-462.9488"/>
<text text-anchor="start" x="649.5" y="-470.6488" font-family="Helvetica,sans-Serif" font-size="11.00" fill="#000000">bool[1]</text>
<polygon fill="none" stroke="#000000" points="377.5,-440.9488 377.5,-462.9488 646.5,-462.9488 646.5,-440.9488 377.5,-440.9488"/>
<text text-anchor="start" x="397.5" y="-448.0488" font-family="Helvetica,sans-Serif" font-size="11.00" fill="#000000">assaulted_staff_name</text>
<polygon fill="none" stroke="#000000" points="646.5,-440.9488 646.5,-462.9488 740.5,-462.9488 740.5,-440.9488 646.5,-440.9488"/>
<text text-anchor="start" x="649.5" y="-448.6488" font-family="Helvetica,sans-Serif" font-size="11.00" fill="#000000">text[2147483647]</text>
<polygon fill="#ffffff" stroke="transparent" points="377.5,-418.9488 377.5,-440.9488 646.5,-440.9488 646.5,-418.9488 377.5,-418.9488"/>
<polygon fill="none" stroke="#000000" points="377.5,-418.9488 377.5,-440.9488 646.5,-440.9488 646.5,-418.9488 377.5,-418.9488"/>
<image xlink:href="../../images/foreignKeys.png" width="11px" height="12px" preserveAspectRatio="xMinYMin meet" x="382.5" y="-435.949"/>
<text text-anchor="start" x="397.5" y="-426.0488" font-family="Helvetica,sans-Serif" font-size="11.00" fill="#000000">incident_involvement_id</text>
<polygon fill="none" stroke="#000000" points="646.5,-418.9488 646.5,-440.9488 740.5,-440.9488 740.5,-418.9488 646.5,-418.9488"/>
<text text-anchor="start" x="649.5" y="-426.6488" font-family="Helvetica,sans-Serif" font-size="11.00" fill="#000000">int4[10]</text>
<polygon fill="none" stroke="#000000" points="377.5,-396.9488 377.5,-418.9488 646.5,-418.9488 646.5,-396.9488 377.5,-396.9488"/>
<text text-anchor="start" x="397.5" y="-404.0488" font-family="Helvetica,sans-Serif" font-size="11.00" fill="#000000">description_of_concern</text>
<polygon fill="none" stroke="#000000" points="646.5,-396.9488 646.5,-418.9488 740.5,-418.9488 740.5,-396.9488 646.5,-396.9488"/>
<text text-anchor="start" x="649.5" y="-404.6488" font-family="Helvetica,sans-Serif" font-size="11.00" fill="#000000">text[2147483647]</text>
<polygon fill="none" stroke="#000000" points="377.5,-374.9488 377.5,-396.9488 646.5,-396.9488 646.5,-374.9488 377.5,-374.9488"/>
<text text-anchor="start" x="397.5" y="-382.0488" font-family="Helvetica,sans-Serif" font-size="11.00" fill="#000000">known_reasons</text>
<polygon fill="none" stroke="#000000" points="646.5,-374.9488 646.5,-396.9488 740.5,-396.9488 740.5,-374.9488 646.5,-374.9488"/>
<text text-anchor="start" x="649.5" y="-382.6488" font-family="Helvetica,sans-Serif" font-size="11.00" fill="#000000">text[2147483647]</text>
<polygon fill="none" stroke="#000000" points="377.5,-352.9488 377.5,-374.9488 646.5,-374.9488 646.5,-352.9488 377.5,-352.9488"/>
<text text-anchor="start" x="397.5" y="-360.0488" font-family="Helvetica,sans-Serif" font-size="11.00" fill="#000000">other_information</text>
<polygon fill="none" stroke="#000000" points="646.5,-352.9488 646.5,-374.9488 740.5,-374.9488 740.5,-352.9488 646.5,-352.9488"/>
<text text-anchor="start" x="649.5" y="-360.6488" font-family="Helvetica,sans-Serif" font-size="11.00" fill="#000000">text[2147483647]</text>
<polygon fill="none" stroke="#000000" points="377.5,-330.9488 377.5,-352.9488 646.5,-352.9488 646.5,-330.9488 377.5,-330.9488"/>
<text text-anchor="start" x="397.5" y="-338.0488" font-family="Helvetica,sans-Serif" font-size="11.00" fill="#000000">safer_custody_team_informed</text>
<polygon fill="none" stroke="#000000" points="646.5,-330.9488 646.5,-352.9488 740.5,-352.9488 740.5,-330.9488 646.5,-330.9488"/>
<text text-anchor="start" x="649.5" y="-338.6488" font-family="Helvetica,sans-Serif" font-size="11.00" fill="#000000">varchar[12]</text>
<polygon fill="none" stroke="#000000" points="377.5,-308.9488 377.5,-330.9488 646.5,-330.9488 646.5,-308.9488 377.5,-308.9488"/>
<text text-anchor="start" x="397.5" y="-316.0488" font-family="Helvetica,sans-Serif" font-size="11.00" fill="#000000">referral_complete</text>
<polygon fill="none" stroke="#000000" points="646.5,-308.9488 646.5,-330.9488 740.5,-330.9488 740.5,-308.9488 646.5,-308.9488"/>
<text text-anchor="start" x="649.5" y="-316.6488" font-family="Helvetica,sans-Serif" font-size="11.00" fill="#000000">bool[1]</text>
<polygon fill="none" stroke="#000000" points="377.5,-286.9488 377.5,-308.9488 646.5,-308.9488 646.5,-286.9488 377.5,-286.9488"/>
<text text-anchor="start" x="397.5" y="-294.0488" font-family="Helvetica,sans-Serif" font-size="11.00" fill="#000000">referral_completed_by</text>
<polygon fill="none" stroke="#000000" points="646.5,-286.9488 646.5,-308.9488 740.5,-308.9488 740.5,-286.9488 646.5,-286.9488"/>
<text text-anchor="start" x="649.5" y="-294.6488" font-family="Helvetica,sans-Serif" font-size="11.00" fill="#000000">varchar[64]</text>
<polygon fill="none" stroke="#000000" points="377.5,-264.9488 377.5,-286.9488 646.5,-286.9488 646.5,-264.9488 377.5,-264.9488"/>
<text text-anchor="start" x="397.5" y="-272.0488" font-family="Helvetica,sans-Serif" font-size="11.00" fill="#000000">referral_completed_by_display_name</text>
<polygon fill="none" stroke="#000000" points="646.5,-264.9488 646.5,-286.9488 740.5,-286.9488 740.5,-264.9488 646.5,-264.9488"/>
<text text-anchor="start" x="649.5" y="-272.6488" font-family="Helvetica,sans-Serif" font-size="11.00" fill="#000000">varchar[255]</text>
<polygon fill="none" stroke="#000000" points="377.5,-242.9488 377.5,-264.9488 646.5,-264.9488 646.5,-242.9488 377.5,-242.9488"/>
<text text-anchor="start" x="397.5" y="-250.0488" font-family="Helvetica,sans-Serif" font-size="11.00" fill="#000000">referral_completed_date</text>
<polygon fill="none" stroke="#000000" points="646.5,-242.9488 646.5,-264.9488 740.5,-264.9488 740.5,-242.9488 646.5,-242.9488"/>
<text text-anchor="start" x="649.5" y="-250.6488" font-family="Helvetica,sans-Serif" font-size="11.00" fill="#000000">date[13]</text>
<polygon fill="none" stroke="#000000" points="377.5,-220.9488 377.5,-242.9488 646.5,-242.9488 646.5,-220.9488 377.5,-220.9488"/>
<text text-anchor="start" x="397.5" y="-228.0488" font-family="Helvetica,sans-Serif" font-size="11.00" fill="#000000">version</text>
<polygon fill="none" stroke="#000000" points="646.5,-220.9488 646.5,-242.9488 740.5,-242.9488 740.5,-220.9488 646.5,-220.9488"/>
<text text-anchor="start" x="649.5" y="-228.6488" font-family="Helvetica,sans-Serif" font-size="11.00" fill="#000000">int4[10]</text>
<polygon fill="#ffffff" stroke="transparent" points="377.5,-201.9488 377.5,-220.9488 516.5,-220.9488 516.5,-201.9488 377.5,-201.9488"/>
<polygon fill="none" stroke="#000000" points="377.5,-201.9488 377.5,-220.9488 516.5,-220.9488 516.5,-201.9488 377.5,-201.9488"/>
<text text-anchor="start" x="380.5" y="-208.0488" font-family="Helvetica,sans-Serif" font-size="11.00" fill="#000000">&lt; 5</text>
<polygon fill="#ffffff" stroke="transparent" points="516.5,-201.9488 516.5,-220.9488 646.5,-220.9488 646.5,-201.9488 516.5,-201.9488"/>
<polygon fill="none" stroke="#000000" points="516.5,-201.9488 516.5,-220.9488 646.5,-220.9488 646.5,-201.9488 516.5,-201.9488"/>
<text text-anchor="start" x="637.3862" y="-208.0488" font-family="Helvetica,sans-Serif" font-size="11.00" fill="#000000"> &#160;</text>
<polygon fill="#ffffff" stroke="transparent" points="646.5,-201.9488 646.5,-220.9488 740.5,-220.9488 740.5,-201.9488 646.5,-201.9488"/>
<polygon fill="none" stroke="#000000" points="646.5,-201.9488 646.5,-220.9488 740.5,-220.9488 740.5,-201.9488 646.5,-201.9488"/>
<text text-anchor="start" x="721.9053" y="-208.0488" font-family="Helvetica,sans-Serif" font-size="11.00" fill="#000000">4 &gt;</text>
<polygon fill="none" stroke="#000000" stroke-width="2" points="376,-200.9488 376,-706.9488 741,-706.9488 741,-200.9488 376,-200.9488"/>
</a>
</g>
</g>
<!-- contributory_factor&#45;&gt;referral -->
<g id="edge2" class="edge">
<title>contributory_factor:w&#45;&gt;referral:e</title>
<path fill="none" stroke="#000000" d="M818.4702,-678.6225C793.0408,-674.7413 765.9137,-671.9488 740.5,-671.9488"/>
<polygon fill="#000000" stroke="#000000" points="824.9126,-679.6681 832.2325,-684.5033 828.8609,-680.3089 832.8093,-680.9498 832.8093,-680.9498 832.8093,-680.9498 828.8609,-680.3089 833.386,-677.3963 824.9126,-679.6681 824.9126,-679.6681"/>
<ellipse fill="none" stroke="#000000" cx="821.7539" cy="-679.1554" rx="3.2" ry="3.2"/>
</g>
<!-- referral&#45;&gt;reference_data -->
<g id="edge12" class="edge">
<title>referral:w&#45;&gt;reference_data:e</title>
<path fill="none" stroke="#000000" d="M363.0108,-430.2332C292.5443,-432.9524 217.4032,-454.6746 163.0286,-474.1583"/>
<polygon fill="#000000" stroke="#000000" points="369.5015,-430.1059 377.5707,-433.5481 373.5008,-430.0273 377.5,-429.9488 377.5,-429.9488 377.5,-429.9488 373.5008,-430.0273 377.4293,-426.3495 369.5015,-430.1059 369.5015,-430.1059"/>
<ellipse fill="none" stroke="#000000" cx="366.3022" cy="-430.1687" rx="3.2" ry="3.2"/>
</g>
<!-- referral&#45;&gt;reference_data -->
<g id="edge13" class="edge">
<title>referral:w&#45;&gt;reference_data:e</title>
<path fill="none" stroke="#000000" d="M363.0139,-583.6578C292.5716,-580.8767 217.5831,-558.6585 163.2609,-538.6888"/>
<polygon fill="#000000" stroke="#000000" points="369.5016,-583.7881 377.4277,-587.548 373.5008,-583.8684 377.5,-583.9488 377.5,-583.9488 377.5,-583.9488 373.5008,-583.8684 377.5723,-580.3495 369.5016,-583.7881 369.5016,-583.7881"/>
<ellipse fill="none" stroke="#000000" cx="366.3023" cy="-583.7238" rx="3.2" ry="3.2"/>
</g>
<!-- referral&#45;&gt;reference_data -->
<g id="edge14" class="edge">
<title>referral:w&#45;&gt;reference_data:e</title>
<path fill="none" stroke="#000000" d="M362.9735,-605.9199C295.8155,-605.6103 272.0123,-602.3888 203,-576.9488 178.6603,-567.9764 153.7559,-553.8558 133.1376,-540.5625"/>
<polygon fill="#000000" stroke="#000000" points="369.5,-605.9328 377.4928,-609.5488 373.5,-605.9408 377.5,-605.9488 377.5,-605.9488 377.5,-605.9488 373.5,-605.9408 377.5072,-602.3488 369.5,-605.9328 369.5,-605.9328"/>
<ellipse fill="none" stroke="#000000" cx="366.3" cy="-605.9265" rx="3.2" ry="3.2"/>
</g>
<!-- referral&#45;&gt;reference_data -->
<g id="edge15" class="edge">
<title>referral:w&#45;&gt;reference_data:e</title>
<path fill="none" stroke="#000000" d="M362.8446,-539.8124C293.6643,-538.5501 218.0811,-528.7558 163.2362,-520.0233"/>
<polygon fill="#000000" stroke="#000000" points="369.5003,-539.8743 377.4665,-543.5486 373.5002,-539.9115 377.5,-539.9488 377.5,-539.9488 377.5,-539.9488 373.5002,-539.9115 377.5335,-536.3489 369.5003,-539.8743 369.5003,-539.8743"/>
<ellipse fill="none" stroke="#000000" cx="366.3005" cy="-539.8445" rx="3.2" ry="3.2"/>
</g>
<!-- csip_record -->
<g id="node4" class="node">
<title>csip_record</title>
<g id="a_node4"><a xlink:href="../../tables/csip_record.html" xlink:title="csip_record" target="_top">
<polygon fill="#ffffff" stroke="transparent" points="211,-756.4488 211,-817.4488 326,-817.4488 326,-756.4488 211,-756.4488"/>
<polygon fill="#f5f5f5" stroke="transparent" points="211.5,-793.9488 211.5,-816.9488 326.5,-816.9488 326.5,-793.9488 211.5,-793.9488"/>
<polygon fill="none" stroke="#000000" points="211.5,-793.9488 211.5,-816.9488 326.5,-816.9488 326.5,-793.9488 211.5,-793.9488"/>
<text text-anchor="start" x="216.5" y="-802.5488" font-family="Helvetica,sans-Serif" font-weight="bold" font-size="11.00" fill="#000000">csip_record</text>
<text text-anchor="start" x="292.0219" y="-802.0488" font-family="Helvetica,sans-Serif" font-size="11.00" fill="#000000">[table]</text>
<polygon fill="none" stroke="#000000" points="211.5,-774.9488 211.5,-793.9488 326.5,-793.9488 326.5,-774.9488 211.5,-774.9488"/>
<text text-anchor="start" x="214.5" y="-781.0488" font-family="Helvetica,sans-Serif" font-size="11.00" fill="#000000">...</text>
<polygon fill="#ffffff" stroke="transparent" points="211.5,-755.9488 211.5,-774.9488 262.5,-774.9488 262.5,-755.9488 211.5,-755.9488"/>
<polygon fill="none" stroke="#000000" points="211.5,-755.9488 211.5,-774.9488 262.5,-774.9488 262.5,-755.9488 211.5,-755.9488"/>
<text text-anchor="start" x="214.5" y="-762.0488" font-family="Helvetica,sans-Serif" font-size="11.00" fill="#000000">&lt; 2</text>
<polygon fill="#ffffff" stroke="transparent" points="262.5,-755.9488 262.5,-774.9488 289.5,-774.9488 289.5,-755.9488 262.5,-755.9488"/>
<polygon fill="none" stroke="#000000" points="262.5,-755.9488 262.5,-774.9488 289.5,-774.9488 289.5,-755.9488 262.5,-755.9488"/>
<text text-anchor="start" x="280.3862" y="-762.0488" font-family="Helvetica,sans-Serif" font-size="11.00" fill="#000000"> &#160;</text>
<polygon fill="#ffffff" stroke="transparent" points="289.5,-755.9488 289.5,-774.9488 326.5,-774.9488 326.5,-755.9488 289.5,-755.9488"/>
<polygon fill="none" stroke="#000000" points="289.5,-755.9488 289.5,-774.9488 326.5,-774.9488 326.5,-755.9488 289.5,-755.9488"/>
<text text-anchor="start" x="307.9053" y="-762.0488" font-family="Helvetica,sans-Serif" font-size="11.00" fill="#000000">2 &gt;</text>
</a>
</g>
</g>
<!-- referral&#45;&gt;csip_record -->
<g id="edge16" class="edge">
<title>referral:w&#45;&gt;csip_record:e</title>
<path fill="none" stroke="#000000" d="M366.727,-672.8572C327.5214,-679.5119 299.3145,-721.3497 283.451,-752.445"/>
<polygon fill="#000000" stroke="#000000" points="376.3667,-668.0301 377.039,-676.0019 375.4446,-676.1363 374.7724,-668.1646 376.3667,-668.0301"/>
<polyline fill="none" stroke="#000000" points="377.5,-671.9488 373.5141,-672.2849 "/>
<ellipse fill="none" stroke="#000000" cx="370.3255" cy="-672.5538" rx="3.2" ry="3.2"/>
</g>
<!-- csip_record&#45;&gt;reference_data -->
<g id="edge4" class="edge">
<title>csip_record:w&#45;&gt;reference_data:e</title>
<path fill="none" stroke="#000000" d="M203.2983,-742.2898C203.1985,-742.1763 203.0991,-742.0626 203,-741.9488 149.315,-680.2729 113.1263,-589.8677 96.1352,-540.7826"/>
<polygon fill="#000000" stroke="#000000" points="207.7605,-746.7377 210.8849,-754.9351 210.5934,-749.5616 213.4264,-752.3855 213.4264,-752.3855 213.4264,-752.3855 210.5934,-749.5616 215.9679,-749.8358 207.7605,-746.7377 207.7605,-746.7377"/>
<ellipse fill="none" stroke="#000000" cx="205.4941" cy="-744.4786" rx="3.2" ry="3.2"/>
</g>
<!-- person_summary -->
<g id="node5" class="node">
<title>person_summary</title>
<g id="a_node5"><a xlink:href="../../tables/person_summary.html" xlink:title="person_summary" target="_top">
<polygon fill="#ffffff" stroke="transparent" points="8,-759.4488 8,-820.4488 162,-820.4488 162,-759.4488 8,-759.4488"/>
<polygon fill="#f5f5f5" stroke="transparent" points="8,-796.9488 8,-819.9488 162,-819.9488 162,-796.9488 8,-796.9488"/>
<polygon fill="none" stroke="#000000" points="8,-796.9488 8,-819.9488 162,-819.9488 162,-796.9488 8,-796.9488"/>
<text text-anchor="start" x="13" y="-805.5488" font-family="Helvetica,sans-Serif" font-weight="bold" font-size="11.00" fill="#000000">person_summary</text>
<text text-anchor="start" x="127.5219" y="-805.0488" font-family="Helvetica,sans-Serif" font-size="11.00" fill="#000000">[table]</text>
<polygon fill="none" stroke="#000000" points="8,-777.9488 8,-796.9488 162,-796.9488 162,-777.9488 8,-777.9488"/>
<text text-anchor="start" x="11" y="-784.0488" font-family="Helvetica,sans-Serif" font-size="11.00" fill="#000000">...</text>
<polygon fill="#ffffff" stroke="transparent" points="8,-758.9488 8,-777.9488 74,-777.9488 74,-758.9488 8,-758.9488"/>
<polygon fill="none" stroke="#000000" points="8,-758.9488 8,-777.9488 74,-777.9488 74,-758.9488 8,-758.9488"/>
<text text-anchor="start" x="11" y="-765.0488" font-family="Helvetica,sans-Serif" font-size="11.00" fill="#000000"> &#160;</text>
<polygon fill="#ffffff" stroke="transparent" points="74,-758.9488 74,-777.9488 113,-777.9488 113,-758.9488 74,-758.9488"/>
<polygon fill="none" stroke="#000000" points="74,-758.9488 74,-777.9488 113,-777.9488 113,-758.9488 74,-758.9488"/>
<text text-anchor="start" x="103.8862" y="-765.0488" font-family="Helvetica,sans-Serif" font-size="11.00" fill="#000000"> &#160;</text>
<polygon fill="#ffffff" stroke="transparent" points="113,-758.9488 113,-777.9488 162,-777.9488 162,-758.9488 113,-758.9488"/>
<polygon fill="none" stroke="#000000" points="113,-758.9488 113,-777.9488 162,-777.9488 162,-758.9488 113,-758.9488"/>
<text text-anchor="start" x="143.4053" y="-765.0488" font-family="Helvetica,sans-Serif" font-size="11.00" fill="#000000">1 &gt;</text>
</a>
</g>
</g>
<!-- csip_record&#45;&gt;person_summary -->
<g id="edge3" class="edge">
<title>csip_record:w&#45;&gt;person_summary:e</title>
<path fill="none" stroke="#000000" d="M188.4598,-786.9488C179.5329,-786.9488 170.5724,-786.9488 162,-786.9488"/>
<polygon fill="#000000" stroke="#000000" points="194.8825,-786.9488 202.8825,-790.5488 198.8825,-786.9488 202.8825,-786.9488 202.8825,-786.9488 202.8825,-786.9488 198.8825,-786.9488 202.8825,-783.3488 194.8825,-786.9488 194.8825,-786.9488"/>
<ellipse fill="none" stroke="#000000" cx="191.6825" cy="-786.9488" rx="3.2" ry="3.2"/>
</g>
<!-- decision_and_actions -->
<g id="node6" class="node">
<title>decision_and_actions</title>
<g id="a_node6"><a xlink:href="../../tables/decision_and_actions.html" xlink:title="decision_and_actions" target="_top">
<polygon fill="#ffffff" stroke="transparent" points="835,-69.4488 835,-130.4488 1016,-130.4488 1016,-69.4488 835,-69.4488"/>
<polygon fill="#f5f5f5" stroke="transparent" points="835.5,-106.9488 835.5,-129.9488 1016.5,-129.9488 1016.5,-106.9488 835.5,-106.9488"/>
<polygon fill="none" stroke="#000000" points="835.5,-106.9488 835.5,-129.9488 1016.5,-129.9488 1016.5,-106.9488 835.5,-106.9488"/>
<text text-anchor="start" x="840.5" y="-115.5488" font-family="Helvetica,sans-Serif" font-weight="bold" font-size="11.00" fill="#000000">decision_and_actions</text>
<text text-anchor="start" x="982.0219" y="-115.0488" font-family="Helvetica,sans-Serif" font-size="11.00" fill="#000000">[table]</text>
<polygon fill="none" stroke="#000000" points="835.5,-87.9488 835.5,-106.9488 1016.5,-106.9488 1016.5,-87.9488 835.5,-87.9488"/>
<text text-anchor="start" x="838.5" y="-94.0488" font-family="Helvetica,sans-Serif" font-size="11.00" fill="#000000">...</text>
<polygon fill="#ffffff" stroke="transparent" points="835.5,-68.9488 835.5,-87.9488 924.5,-87.9488 924.5,-68.9488 835.5,-68.9488"/>
<polygon fill="none" stroke="#000000" points="835.5,-68.9488 835.5,-87.9488 924.5,-87.9488 924.5,-68.9488 835.5,-68.9488"/>
<text text-anchor="start" x="838.5" y="-75.0488" font-family="Helvetica,sans-Serif" font-size="11.00" fill="#000000">&lt; 3</text>
<polygon fill="#ffffff" stroke="transparent" points="924.5,-68.9488 924.5,-87.9488 970.5,-87.9488 970.5,-68.9488 924.5,-68.9488"/>
<polygon fill="none" stroke="#000000" points="924.5,-68.9488 924.5,-87.9488 970.5,-87.9488 970.5,-68.9488 924.5,-68.9488"/>
<text text-anchor="start" x="961.3862" y="-75.0488" font-family="Helvetica,sans-Serif" font-size="11.00" fill="#000000"> &#160;</text>
<polygon fill="#ffffff" stroke="transparent" points="970.5,-68.9488 970.5,-87.9488 1016.5,-87.9488 1016.5,-68.9488 970.5,-68.9488"/>
<polygon fill="none" stroke="#000000" points="970.5,-68.9488 970.5,-87.9488 1016.5,-87.9488 1016.5,-68.9488 970.5,-68.9488"/>
<text text-anchor="start" x="1007.3862" y="-75.0488" font-family="Helvetica,sans-Serif" font-size="11.00" fill="#000000"> &#160;</text>
</a>
</g>
</g>
<!-- decision_and_actions&#45;&gt;reference_data -->
<g id="edge6" class="edge">
<title>decision_and_actions:w&#45;&gt;reference_data:e</title>
<path fill="none" stroke="#000000" d="M812.7456,-66.1995C658.1251,-30.6428 379.4178,3.0728 203,-132.9488 148.4073,-175.0408 105.2671,-387.0315 90.498,-471.3611"/>
<polygon fill="#000000" stroke="#000000" points="819.0708,-67.6923 826.03,-73.0336 822.9639,-68.6111 826.8569,-69.5299 826.8569,-69.5299 826.8569,-69.5299 822.9639,-68.6111 827.6839,-66.0261 819.0708,-67.6923 819.0708,-67.6923"/>
<ellipse fill="none" stroke="#000000" cx="815.9564" cy="-66.9572" rx="3.2" ry="3.2"/>
</g>
<!-- decision_and_actions&#45;&gt;reference_data -->
<g id="edge7" class="edge">
<title>decision_and_actions:w&#45;&gt;reference_data:e</title>
<path fill="none" stroke="#000000" d="M812.7456,-74.878C658.1251,-43.6428 379.4178,-9.9272 203,-145.9488 149.7986,-186.9681 107.4735,-389.3365 91.6822,-471.4008"/>
<polygon fill="#000000" stroke="#000000" points="819.0221,-76.1736 826.1292,-81.3166 822.9395,-76.9822 826.8569,-77.7909 826.8569,-77.7909 826.8569,-77.7909 822.9395,-76.9822 827.5847,-74.2652 819.0221,-76.1736 819.0221,-76.1736"/>
<ellipse fill="none" stroke="#000000" cx="815.8882" cy="-75.5267" rx="3.2" ry="3.2"/>
</g>
<!-- decision_and_actions&#45;&gt;referral -->
<g id="edge5" class="edge">
<title>decision_and_actions:w&#45;&gt;referral:e</title>
<path fill="none" stroke="#000000" d="M877.0649,-141.9851C844.5785,-173.2242 804.0237,-218.7908 783,-267.9488 765.2512,-309.4493 785.6366,-671.9488 740.5,-671.9488"/>
<polygon fill="#000000" stroke="#000000" points="881.3782,-132.3978 886.8763,-138.2091 885.714,-139.3087 880.2159,-133.4974 881.3782,-132.3978"/>
<polyline fill="none" stroke="#000000" points="884.7083,-134.7536 881.8027,-137.5027 "/>
<ellipse fill="none" stroke="#000000" cx="879.4782" cy="-139.7019" rx="3.2" ry="3.2"/>
</g>
<!-- interview -->
<g id="node7" class="node">
<title>interview</title>
<g id="a_node7"><a xlink:href="../../tables/interview.html" xlink:title="interview" target="_top">
<polygon fill="#ffffff" stroke="transparent" points="1109,-323.4488 1109,-384.4488 1211,-384.4488 1211,-323.4488 1109,-323.4488"/>
<polygon fill="#f5f5f5" stroke="transparent" points="1109,-360.9488 1109,-383.9488 1211,-383.9488 1211,-360.9488 1109,-360.9488"/>
<polygon fill="none" stroke="#000000" points="1109,-360.9488 1109,-383.9488 1211,-383.9488 1211,-360.9488 1109,-360.9488"/>
<text text-anchor="start" x="1114" y="-369.5488" font-family="Helvetica,sans-Serif" font-weight="bold" font-size="11.00" fill="#000000">interview</text>
<text text-anchor="start" x="1176.5219" y="-369.0488" font-family="Helvetica,sans-Serif" font-size="11.00" fill="#000000">[table]</text>
<polygon fill="none" stroke="#000000" points="1109,-341.9488 1109,-360.9488 1211,-360.9488 1211,-341.9488 1109,-341.9488"/>
<text text-anchor="start" x="1112" y="-348.0488" font-family="Helvetica,sans-Serif" font-size="11.00" fill="#000000">...</text>
<polygon fill="#ffffff" stroke="transparent" points="1109,-322.9488 1109,-341.9488 1158,-341.9488 1158,-322.9488 1109,-322.9488"/>
<polygon fill="none" stroke="#000000" points="1109,-322.9488 1109,-341.9488 1158,-341.9488 1158,-322.9488 1109,-322.9488"/>
<text text-anchor="start" x="1112" y="-329.0488" font-family="Helvetica,sans-Serif" font-size="11.00" fill="#000000">&lt; 2</text>
<polygon fill="#ffffff" stroke="transparent" points="1158,-322.9488 1158,-341.9488 1184,-341.9488 1184,-322.9488 1158,-322.9488"/>
<polygon fill="none" stroke="#000000" points="1158,-322.9488 1158,-341.9488 1184,-341.9488 1184,-322.9488 1158,-322.9488"/>
<text text-anchor="start" x="1174.8862" y="-329.0488" font-family="Helvetica,sans-Serif" font-size="11.00" fill="#000000"> &#160;</text>
<polygon fill="#ffffff" stroke="transparent" points="1184,-322.9488 1184,-341.9488 1211,-341.9488 1211,-322.9488 1184,-322.9488"/>
<polygon fill="none" stroke="#000000" points="1184,-322.9488 1184,-341.9488 1211,-341.9488 1211,-322.9488 1184,-322.9488"/>
<text text-anchor="start" x="1201.8862" y="-329.0488" font-family="Helvetica,sans-Serif" font-size="11.00" fill="#000000"> &#160;</text>
</a>
</g>
</g>
<!-- interview&#45;&gt;reference_data -->
<g id="edge8" class="edge">
<title>interview:w&#45;&gt;reference_data:e</title>
<path fill="none" stroke="#000000" d="M1094.7592,-347.347C1075.927,-334.545 1094.3569,-290.7886 1068,-267.9488 955.6233,-170.5677 896.8466,-187.3515 750,-163.9488 581.8991,-137.1587 535.9468,-143.1505 367,-163.9488 292.4308,-173.1287 259.4312,-155.3468 203,-204.9488 122.478,-275.7261 96.4245,-408.4438 88.3854,-471.2766"/>
<polygon fill="#000000" stroke="#000000" points="1101.2442,-348.9871 1108.1173,-354.4389 1105.1221,-349.968 1109,-350.9488 1109,-350.9488 1109,-350.9488 1105.1221,-349.968 1109.8827,-347.4587 1101.2442,-348.9871 1101.2442,-348.9871"/>
<ellipse fill="none" stroke="#000000" cx="1098.1419" cy="-348.2025" rx="3.2" ry="3.2"/>
</g>
<!-- investigation -->
<g id="node8" class="node">
<title>investigation</title>
<g id="a_node8"><a xlink:href="../../tables/investigation.html" xlink:title="investigation" target="_top">
<polygon fill="#ffffff" stroke="transparent" points="825,-498.4488 825,-581.4488 1026,-581.4488 1026,-498.4488 825,-498.4488"/>
<polygon fill="#f5f5f5" stroke="transparent" points="825.5,-557.9488 825.5,-580.9488 1026.5,-580.9488 1026.5,-557.9488 825.5,-557.9488"/>
<polygon fill="none" stroke="#000000" points="825.5,-557.9488 825.5,-580.9488 1026.5,-580.9488 1026.5,-557.9488 825.5,-557.9488"/>
<text text-anchor="start" x="830.5" y="-566.5488" font-family="Helvetica,sans-Serif" font-weight="bold" font-size="11.00" fill="#000000">investigation</text>
<text text-anchor="start" x="991.5437" y="-566.0488" font-family="Helvetica,sans-Serif" font-size="11.00" fill="#000000">[table]</text>
<polygon fill="none" stroke="#000000" points="825.5,-535.9488 825.5,-557.9488 1026.5,-557.9488 1026.5,-535.9488 825.5,-535.9488"/>
<image xlink:href="../../images/primaryKeys.png" width="11px" height="12px" preserveAspectRatio="xMinYMin meet" x="830.5" y="-552.949"/>
<text text-anchor="start" x="845.5" y="-543.0488" font-family="Helvetica,sans-Serif" font-size="11.00" fill="#000000">investigation_id</text>
<polygon fill="none" stroke="#000000" points="825.5,-516.9488 825.5,-535.9488 1026.5,-535.9488 1026.5,-516.9488 825.5,-516.9488"/>
<text text-anchor="start" x="828.5" y="-523.0488" font-family="Helvetica,sans-Serif" font-size="11.00" fill="#000000">...</text>
<polygon fill="#ffffff" stroke="transparent" points="825.5,-497.9488 825.5,-516.9488 919.5,-516.9488 919.5,-497.9488 825.5,-497.9488"/>
<polygon fill="none" stroke="#000000" points="825.5,-497.9488 825.5,-516.9488 919.5,-516.9488 919.5,-497.9488 825.5,-497.9488"/>
<text text-anchor="start" x="828.5" y="-504.0488" font-family="Helvetica,sans-Serif" font-size="11.00" fill="#000000">&lt; 1</text>
<polygon fill="#ffffff" stroke="transparent" points="919.5,-497.9488 919.5,-516.9488 968.5,-516.9488 968.5,-497.9488 919.5,-497.9488"/>
<polygon fill="none" stroke="#000000" points="919.5,-497.9488 919.5,-516.9488 968.5,-516.9488 968.5,-497.9488 919.5,-497.9488"/>
<text text-anchor="start" x="959.3862" y="-504.0488" font-family="Helvetica,sans-Serif" font-size="11.00" fill="#000000"> &#160;</text>
<polygon fill="#ffffff" stroke="transparent" points="968.5,-497.9488 968.5,-516.9488 1026.5,-516.9488 1026.5,-497.9488 968.5,-497.9488"/>
<polygon fill="none" stroke="#000000" points="968.5,-497.9488 968.5,-516.9488 1026.5,-516.9488 1026.5,-497.9488 968.5,-497.9488"/>
<text text-anchor="start" x="1007.9053" y="-504.0488" font-family="Helvetica,sans-Serif" font-size="11.00" fill="#000000">1 &gt;</text>
</a>
</g>
</g>
<!-- interview&#45;&gt;investigation -->
<g id="edge9" class="edge">
<title>interview:w&#45;&gt;investigation:e</title>
<path fill="none" stroke="#000000" d="M1094.3761,-352.8887C1026.28,-373.2446 1115.4755,-546.9488 1026.5,-546.9488"/>
<polygon fill="#000000" stroke="#000000" points="1101.0695,-352.0008 1109.4734,-354.5175 1105.0347,-351.4748 1109,-350.9488 1109,-350.9488 1109,-350.9488 1105.0347,-351.4748 1108.5266,-347.38 1101.0695,-352.0008 1101.0695,-352.0008"/>
<ellipse fill="none" stroke="#000000" cx="1097.8973" cy="-352.4216" rx="3.2" ry="3.2"/>
</g>
<!-- investigation&#45;&gt;referral -->
<g id="edge10" class="edge">
<title>investigation:w&#45;&gt;referral:e</title>
<path fill="none" stroke="#000000" d="M815.1635,-548.1064C763.5352,-560.7079 803.8779,-671.9488 740.5,-671.9488"/>
<polygon fill="#000000" stroke="#000000" points="824.2597,-543.0627 825.1502,-551.013 823.5601,-551.1911 822.6697,-543.2408 824.2597,-543.0627"/>
<polyline fill="none" stroke="#000000" points="825.5,-546.9488 821.5249,-547.394 "/>
<ellipse fill="none" stroke="#000000" cx="818.3447" cy="-547.7502" rx="3.2" ry="3.2"/>
</g>
<!-- plan -->
<g id="node9" class="node">
<title>plan</title>
<g id="a_node9"><a xlink:href="../../tables/plan.html" xlink:title="plan" target="_top">
<polygon fill="#ffffff" stroke="transparent" points="524.5,-759.4488 524.5,-820.4488 592.5,-820.4488 592.5,-759.4488 524.5,-759.4488"/>
<polygon fill="#f5f5f5" stroke="transparent" points="524.5,-796.9488 524.5,-819.9488 592.5,-819.9488 592.5,-796.9488 524.5,-796.9488"/>
<polygon fill="none" stroke="#000000" points="524.5,-796.9488 524.5,-819.9488 592.5,-819.9488 592.5,-796.9488 524.5,-796.9488"/>
<text text-anchor="start" x="529.5" y="-805.5488" font-family="Helvetica,sans-Serif" font-weight="bold" font-size="11.00" fill="#000000">plan</text>
<text text-anchor="start" x="558.0219" y="-805.0488" font-family="Helvetica,sans-Serif" font-size="11.00" fill="#000000">[table]</text>
<polygon fill="none" stroke="#000000" points="524.5,-777.9488 524.5,-796.9488 592.5,-796.9488 592.5,-777.9488 524.5,-777.9488"/>
<text text-anchor="start" x="527.5" y="-784.0488" font-family="Helvetica,sans-Serif" font-size="11.00" fill="#000000">...</text>
<polygon fill="#ffffff" stroke="transparent" points="524.5,-758.9488 524.5,-777.9488 552.5,-777.9488 552.5,-758.9488 524.5,-758.9488"/>
<polygon fill="none" stroke="#000000" points="524.5,-758.9488 524.5,-777.9488 552.5,-777.9488 552.5,-758.9488 524.5,-758.9488"/>
<text text-anchor="start" x="527.5" y="-765.0488" font-family="Helvetica,sans-Serif" font-size="11.00" fill="#000000">&lt; 1</text>
<polygon fill="#ffffff" stroke="transparent" points="552.5,-758.9488 552.5,-777.9488 567.5,-777.9488 567.5,-758.9488 552.5,-758.9488"/>
<polygon fill="none" stroke="#000000" points="552.5,-758.9488 552.5,-777.9488 567.5,-777.9488 567.5,-758.9488 552.5,-758.9488"/>
<text text-anchor="start" x="558.3862" y="-765.0488" font-family="Helvetica,sans-Serif" font-size="11.00" fill="#000000"> &#160;</text>
<polygon fill="#ffffff" stroke="transparent" points="567.5,-758.9488 567.5,-777.9488 592.5,-777.9488 592.5,-758.9488 567.5,-758.9488"/>
<polygon fill="none" stroke="#000000" points="567.5,-758.9488 567.5,-777.9488 592.5,-777.9488 592.5,-758.9488 567.5,-758.9488"/>
<text text-anchor="start" x="573.9053" y="-765.0488" font-family="Helvetica,sans-Serif" font-size="11.00" fill="#000000">2 &gt;</text>
</a>
</g>
</g>
<!-- plan&#45;&gt;csip_record -->
<g id="edge11" class="edge">
<title>plan:w&#45;&gt;csip_record:e</title>
<path fill="none" stroke="#000000" d="M513.7948,-786.9488C451.6953,-786.9488 382.8958,-786.9488 334.0024,-786.9488"/>
<polygon fill="#000000" stroke="#000000" points="523.7,-782.9488 523.7,-790.9488 522.1,-790.9488 522.1,-782.9488 523.7,-782.9488"/>
<polyline fill="none" stroke="#000000" points="524.5,-786.9488 520.5,-786.9488 "/>
<ellipse fill="none" stroke="#000000" cx="517.3" cy="-786.9488" rx="3.2" ry="3.2"/>
</g>
<!-- safer_custody_screening_outcome -->
<g id="node10" class="node">
<title>safer_custody_screening_outcome</title>
<g id="a_node10"><a xlink:href="../../tables/safer_custody_screening_outcome.html" xlink:title="safer_custody_screening_outcome" target="_top">
<polygon fill="#ffffff" stroke="transparent" points="791,-278.4488 791,-339.4488 1060,-339.4488 1060,-278.4488 791,-278.4488"/>
<polygon fill="#f5f5f5" stroke="transparent" points="791.5,-315.9488 791.5,-338.9488 1060.5,-338.9488 1060.5,-315.9488 791.5,-315.9488"/>
<polygon fill="none" stroke="#000000" points="791.5,-315.9488 791.5,-338.9488 1060.5,-338.9488 1060.5,-315.9488 791.5,-315.9488"/>
<text text-anchor="start" x="796.5" y="-324.5488" font-family="Helvetica,sans-Serif" font-weight="bold" font-size="11.00" fill="#000000">safer_custody_screening_outcome</text>
<text text-anchor="start" x="1026.0219" y="-324.0488" font-family="Helvetica,sans-Serif" font-size="11.00" fill="#000000">[table]</text>
<polygon fill="none" stroke="#000000" points="791.5,-296.9488 791.5,-315.9488 1060.5,-315.9488 1060.5,-296.9488 791.5,-296.9488"/>
<text text-anchor="start" x="794.5" y="-303.0488" font-family="Helvetica,sans-Serif" font-size="11.00" fill="#000000">...</text>
<polygon fill="#ffffff" stroke="transparent" points="791.5,-277.9488 791.5,-296.9488 924.5,-296.9488 924.5,-277.9488 791.5,-277.9488"/>
<polygon fill="none" stroke="#000000" points="791.5,-277.9488 791.5,-296.9488 924.5,-296.9488 924.5,-277.9488 791.5,-277.9488"/>
<text text-anchor="start" x="794.5" y="-284.0488" font-family="Helvetica,sans-Serif" font-size="11.00" fill="#000000">&lt; 2</text>
<polygon fill="#ffffff" stroke="transparent" points="924.5,-277.9488 924.5,-296.9488 992.5,-296.9488 992.5,-277.9488 924.5,-277.9488"/>
<polygon fill="none" stroke="#000000" points="924.5,-277.9488 924.5,-296.9488 992.5,-296.9488 992.5,-277.9488 924.5,-277.9488"/>
<text text-anchor="start" x="983.3862" y="-284.0488" font-family="Helvetica,sans-Serif" font-size="11.00" fill="#000000"> &#160;</text>
<polygon fill="#ffffff" stroke="transparent" points="992.5,-277.9488 992.5,-296.9488 1060.5,-296.9488 1060.5,-277.9488 992.5,-277.9488"/>
<polygon fill="none" stroke="#000000" points="992.5,-277.9488 992.5,-296.9488 1060.5,-296.9488 1060.5,-277.9488 992.5,-277.9488"/>
<text text-anchor="start" x="1051.3862" y="-284.0488" font-family="Helvetica,sans-Serif" font-size="11.00" fill="#000000"> &#160;</text>
</a>
</g>
</g>
<!-- safer_custody_screening_outcome&#45;&gt;reference_data -->
<g id="edge17" class="edge">
<title>safer_custody_screening_outcome:w&#45;&gt;reference_data:e</title>
<path fill="none" stroke="#000000" d="M878.2072,-264.8664C845.082,-237.1365 798.2623,-203.8713 750,-188.9488 668.687,-163.8071 444.6486,-154.0977 367,-188.9488 235.4537,-247.9908 140.199,-402.0859 102.6486,-471.3486"/>
<polygon fill="#000000" stroke="#000000" points="883.2593,-269.1978 886.9896,-277.1379 886.296,-271.8013 889.3328,-274.4048 889.3328,-274.4048 889.3328,-274.4048 886.296,-271.8013 891.6759,-271.6718 883.2593,-269.1978 883.2593,-269.1978"/>
<ellipse fill="none" stroke="#000000" cx="880.8299" cy="-267.115" rx="3.2" ry="3.2"/>
</g>
<!-- safer_custody_screening_outcome&#45;&gt;referral -->
<g id="edge18" class="edge">
<title>safer_custody_screening_outcome:w&#45;&gt;referral:e</title>
<path fill="none" stroke="#000000" d="M882.4047,-351.5494C850.3593,-385.6217 808.0155,-436.1197 783,-487.9488 746.5175,-563.536 824.4309,-671.9488 740.5,-671.9488"/>
<polygon fill="#000000" stroke="#000000" points="886.4505,-341.5002 892.2441,-347.017 891.1407,-348.1757 885.3472,-342.6589 886.4505,-341.5002"/>
<polyline fill="none" stroke="#000000" points="889.899,-343.6793 887.1406,-346.576 "/>
<ellipse fill="none" stroke="#000000" cx="884.9338" cy="-348.8934" rx="3.2" ry="3.2"/>
</g>
</g>
</svg>
