<?xml version="1.0" encoding="UTF-8" standalone="no"?>
<!DOCTYPE svg PUBLIC "-//W3C//DTD SVG 1.1//EN"
 "http://www.w3.org/Graphics/SVG/1.1/DTD/svg11.dtd">
<!-- Generated by graphviz version 2.40.1 (20161225.0304)
 -->
<!-- Title: oneDegreeRelationshipsDiagram Pages: 1 -->
<svg width="672pt" height="998pt"
 viewBox="0.00 0.00 672.00 998.20" xmlns="http://www.w3.org/2000/svg" xmlns:xlink="http://www.w3.org/1999/xlink">
<g id="graph0" class="graph" transform="scale(1 1) rotate(0) translate(4 994.2)">
<title>oneDegreeRelationshipsDiagram</title>
<polygon fill="#ffffff" stroke="transparent" points="-4,4 -4,-994.2 668,-994.2 668,4 -4,4"/>
<text text-anchor="middle" x="72.4936" y="-7.3" font-family="Helvetica,sans-Serif" font-size="11.00" fill="#000000">Generated by SchemaSpy</text>
<!-- referral_audit -->
<g id="node1" class="node">
<title>referral_audit</title>
<g id="a_node1"><a xlink:href="../../tables/referral_audit.html" xlink:title="referral_audit" target="_top">
<polygon fill="#ffffff" stroke="transparent" points="223,-38.2 223,-986.2 656,-986.2 656,-38.2 223,-38.2"/>
<polygon fill="#f5f5f5" stroke="transparent" points="225.5,-961.2 225.5,-984.2 654.5,-984.2 654.5,-961.2 225.5,-961.2"/>
<polygon fill="none" stroke="#000000" points="225.5,-961.2 225.5,-984.2 654.5,-984.2 654.5,-961.2 225.5,-961.2"/>
<text text-anchor="start" x="230.5" y="-969.8" font-family="Helvetica,sans-Serif" font-weight="bold" font-size="11.00" fill="#000000">referral_audit</text>
<text text-anchor="start" x="619.5437" y="-969.3" font-family="Helvetica,sans-Serif" font-size="11.00" fill="#000000">[table]</text>
<polygon fill="none" stroke="#000000" points="225.5,-939.2 225.5,-961.2 560.5,-961.2 560.5,-939.2 225.5,-939.2"/>
<image xlink:href="../../images/primaryKeys.png" width="11px" height="12px" preserveAspectRatio="xMinYMin meet" x="230.5" y="-956.2"/>
<text text-anchor="start" x="245.5" y="-946.3" font-family="Helvetica,sans-Serif" font-size="11.00" fill="#000000">rev_id</text>
<polygon fill="none" stroke="#000000" points="560.5,-939.2 560.5,-961.2 654.5,-961.2 654.5,-939.2 560.5,-939.2"/>
<text text-anchor="start" x="563.5" y="-946.9" font-family="Helvetica,sans-Serif" font-size="11.00" fill="#000000">int8[19]</text>
<polygon fill="none" stroke="#000000" points="225.5,-917.2 225.5,-939.2 560.5,-939.2 560.5,-917.2 225.5,-917.2"/>
<text text-anchor="start" x="245.5" y="-924.3" font-family="Helvetica,sans-Serif" font-size="11.00" fill="#000000">rev_type</text>
<polygon fill="none" stroke="#000000" points="560.5,-917.2 560.5,-939.2 654.5,-939.2 654.5,-917.2 560.5,-917.2"/>
<text text-anchor="start" x="563.5" y="-924.9" font-family="Helvetica,sans-Serif" font-size="11.00" fill="#000000">int2[5]</text>
<polygon fill="none" stroke="#000000" points="225.5,-895.2 225.5,-917.2 560.5,-917.2 560.5,-895.2 225.5,-895.2"/>
<image xlink:href="../../images/primaryKeys.png" width="11px" height="12px" preserveAspectRatio="xMinYMin meet" x="230.5" y="-912.2"/>
<text text-anchor="start" x="245.5" y="-902.3" font-family="Helvetica,sans-Serif" font-size="11.00" fill="#000000">referral_id</text>
<polygon fill="none" stroke="#000000" points="560.5,-895.2 560.5,-917.2 654.5,-917.2 654.5,-895.2 560.5,-895.2"/>
<text text-anchor="start" x="563.4758" y="-902.9" font-family="Helvetica,sans-Serif" font-size="11.00" fill="#000000">uuid[2147483647]</text>
<polygon fill="none" stroke="#000000" points="225.5,-873.2 225.5,-895.2 560.5,-895.2 560.5,-873.2 225.5,-873.2"/>
<text text-anchor="start" x="245.5" y="-880.3" font-family="Helvetica,sans-Serif" font-size="11.00" fill="#000000">incident_date</text>
<polygon fill="none" stroke="#000000" points="560.5,-873.2 560.5,-895.2 654.5,-895.2 654.5,-873.2 560.5,-873.2"/>
<text text-anchor="start" x="563.5" y="-880.9" font-family="Helvetica,sans-Serif" font-size="11.00" fill="#000000">date[13]</text>
<polygon fill="none" stroke="#000000" points="225.5,-851.2 225.5,-873.2 560.5,-873.2 560.5,-851.2 225.5,-851.2"/>
<text text-anchor="start" x="245.5" y="-858.3" font-family="Helvetica,sans-Serif" font-size="11.00" fill="#000000">incident_time</text>
<polygon fill="none" stroke="#000000" points="560.5,-851.2 560.5,-873.2 654.5,-873.2 654.5,-851.2 560.5,-851.2"/>
<text text-anchor="start" x="563.5" y="-858.9" font-family="Helvetica,sans-Serif" font-size="11.00" fill="#000000">time[15,6]</text>
<polygon fill="none" stroke="#000000" points="225.5,-829.2 225.5,-851.2 560.5,-851.2 560.5,-829.2 225.5,-829.2"/>
<image xlink:href="../../images/foreignKeys.png" width="11px" height="12px" preserveAspectRatio="xMinYMin meet" x="230.5" y="-846.2"/>
<text text-anchor="start" x="245.5" y="-836.3" font-family="Helvetica,sans-Serif" font-size="11.00" fill="#000000">incident_type_id</text>
<polygon fill="none" stroke="#000000" points="560.5,-829.2 560.5,-851.2 654.5,-851.2 654.5,-829.2 560.5,-829.2"/>
<text text-anchor="start" x="563.5" y="-836.9" font-family="Helvetica,sans-Serif" font-size="11.00" fill="#000000">int8[19]</text>
<polygon fill="none" stroke="#000000" points="225.5,-807.2 225.5,-829.2 560.5,-829.2 560.5,-807.2 225.5,-807.2"/>
<image xlink:href="../../images/foreignKeys.png" width="11px" height="12px" preserveAspectRatio="xMinYMin meet" x="230.5" y="-824.2"/>
<text text-anchor="start" x="245.5" y="-814.3" font-family="Helvetica,sans-Serif" font-size="11.00" fill="#000000">incident_location_id</text>
<polygon fill="none" stroke="#000000" points="560.5,-807.2 560.5,-829.2 654.5,-829.2 654.5,-807.2 560.5,-807.2"/>
<text text-anchor="start" x="563.5" y="-814.9" font-family="Helvetica,sans-Serif" font-size="11.00" fill="#000000">int8[19]</text>
<polygon fill="none" stroke="#000000" points="225.5,-785.2 225.5,-807.2 560.5,-807.2 560.5,-785.2 225.5,-785.2"/>
<text text-anchor="start" x="245.5" y="-792.3" font-family="Helvetica,sans-Serif" font-size="11.00" fill="#000000">referred_by</text>
<polygon fill="none" stroke="#000000" points="560.5,-785.2 560.5,-807.2 654.5,-807.2 654.5,-785.2 560.5,-785.2"/>
<text text-anchor="start" x="563.5" y="-792.9" font-family="Helvetica,sans-Serif" font-size="11.00" fill="#000000">varchar[240]</text>
<polygon fill="none" stroke="#000000" points="225.5,-763.2 225.5,-785.2 560.5,-785.2 560.5,-763.2 225.5,-763.2"/>
<image xlink:href="../../images/foreignKeys.png" width="11px" height="12px" preserveAspectRatio="xMinYMin meet" x="230.5" y="-780.2"/>
<text text-anchor="start" x="245.5" y="-770.3" font-family="Helvetica,sans-Serif" font-size="11.00" fill="#000000">referer_area_of_work_id</text>
<polygon fill="none" stroke="#000000" points="560.5,-763.2 560.5,-785.2 654.5,-785.2 654.5,-763.2 560.5,-763.2"/>
<text text-anchor="start" x="563.5" y="-770.9" font-family="Helvetica,sans-Serif" font-size="11.00" fill="#000000">int8[19]</text>
<polygon fill="none" stroke="#000000" points="225.5,-741.2 225.5,-763.2 560.5,-763.2 560.5,-741.2 225.5,-741.2"/>
<text text-anchor="start" x="245.5" y="-748.3" font-family="Helvetica,sans-Serif" font-size="11.00" fill="#000000">referral_date</text>
<polygon fill="none" stroke="#000000" points="560.5,-741.2 560.5,-763.2 654.5,-763.2 654.5,-741.2 560.5,-741.2"/>
<text text-anchor="start" x="563.5" y="-748.9" font-family="Helvetica,sans-Serif" font-size="11.00" fill="#000000">date[13]</text>
<polygon fill="none" stroke="#000000" points="225.5,-719.2 225.5,-741.2 560.5,-741.2 560.5,-719.2 225.5,-719.2"/>
<text text-anchor="start" x="245.5" y="-726.3" font-family="Helvetica,sans-Serif" font-size="11.00" fill="#000000">proactive_referral</text>
<polygon fill="none" stroke="#000000" points="560.5,-719.2 560.5,-741.2 654.5,-741.2 654.5,-719.2 560.5,-719.2"/>
<text text-anchor="start" x="563.5" y="-726.9" font-family="Helvetica,sans-Serif" font-size="11.00" fill="#000000">bool[1]</text>
<polygon fill="none" stroke="#000000" points="225.5,-697.2 225.5,-719.2 560.5,-719.2 560.5,-697.2 225.5,-697.2"/>
<text text-anchor="start" x="245.5" y="-704.3" font-family="Helvetica,sans-Serif" font-size="11.00" fill="#000000">staff_assaulted</text>
<polygon fill="none" stroke="#000000" points="560.5,-697.2 560.5,-719.2 654.5,-719.2 654.5,-697.2 560.5,-697.2"/>
<text text-anchor="start" x="563.5" y="-704.9" font-family="Helvetica,sans-Serif" font-size="11.00" fill="#000000">bool[1]</text>
<polygon fill="none" stroke="#000000" points="225.5,-675.2 225.5,-697.2 560.5,-697.2 560.5,-675.2 225.5,-675.2"/>
<text text-anchor="start" x="245.5" y="-682.3" font-family="Helvetica,sans-Serif" font-size="11.00" fill="#000000">assaulted_staff_name</text>
<polygon fill="none" stroke="#000000" points="560.5,-675.2 560.5,-697.2 654.5,-697.2 654.5,-675.2 560.5,-675.2"/>
<text text-anchor="start" x="563.5" y="-682.9" font-family="Helvetica,sans-Serif" font-size="11.00" fill="#000000">text[2147483647]</text>
<polygon fill="none" stroke="#000000" points="225.5,-653.2 225.5,-675.2 560.5,-675.2 560.5,-653.2 225.5,-653.2"/>
<image xlink:href="../../images/foreignKeys.png" width="11px" height="12px" preserveAspectRatio="xMinYMin meet" x="230.5" y="-670.2"/>
<text text-anchor="start" x="245.5" y="-660.3" font-family="Helvetica,sans-Serif" font-size="11.00" fill="#000000">incident_involvement_id</text>
<polygon fill="none" stroke="#000000" points="560.5,-653.2 560.5,-675.2 654.5,-675.2 654.5,-653.2 560.5,-653.2"/>
<text text-anchor="start" x="563.5" y="-660.9" font-family="Helvetica,sans-Serif" font-size="11.00" fill="#000000">int8[19]</text>
<polygon fill="none" stroke="#000000" points="225.5,-631.2 225.5,-653.2 560.5,-653.2 560.5,-631.2 225.5,-631.2"/>
<text text-anchor="start" x="245.5" y="-638.3" font-family="Helvetica,sans-Serif" font-size="11.00" fill="#000000">description_of_concern</text>
<polygon fill="none" stroke="#000000" points="560.5,-631.2 560.5,-653.2 654.5,-653.2 654.5,-631.2 560.5,-631.2"/>
<text text-anchor="start" x="563.5" y="-638.9" font-family="Helvetica,sans-Serif" font-size="11.00" fill="#000000">text[2147483647]</text>
<polygon fill="none" stroke="#000000" points="225.5,-609.2 225.5,-631.2 560.5,-631.2 560.5,-609.2 225.5,-609.2"/>
<text text-anchor="start" x="245.5" y="-616.3" font-family="Helvetica,sans-Serif" font-size="11.00" fill="#000000">known_reasons</text>
<polygon fill="none" stroke="#000000" points="560.5,-609.2 560.5,-631.2 654.5,-631.2 654.5,-609.2 560.5,-609.2"/>
<text text-anchor="start" x="563.5" y="-616.9" font-family="Helvetica,sans-Serif" font-size="11.00" fill="#000000">text[2147483647]</text>
<polygon fill="none" stroke="#000000" points="225.5,-587.2 225.5,-609.2 560.5,-609.2 560.5,-587.2 225.5,-587.2"/>
<text text-anchor="start" x="245.5" y="-594.3" font-family="Helvetica,sans-Serif" font-size="11.00" fill="#000000">other_information</text>
<polygon fill="none" stroke="#000000" points="560.5,-587.2 560.5,-609.2 654.5,-609.2 654.5,-587.2 560.5,-587.2"/>
<text text-anchor="start" x="563.5" y="-594.9" font-family="Helvetica,sans-Serif" font-size="11.00" fill="#000000">text[2147483647]</text>
<polygon fill="none" stroke="#000000" points="225.5,-565.2 225.5,-587.2 560.5,-587.2 560.5,-565.2 225.5,-565.2"/>
<text text-anchor="start" x="245.5" y="-572.3" font-family="Helvetica,sans-Serif" font-size="11.00" fill="#000000">safer_custody_team_informed</text>
<polygon fill="none" stroke="#000000" points="560.5,-565.2 560.5,-587.2 654.5,-587.2 654.5,-565.2 560.5,-565.2"/>
<text text-anchor="start" x="563.5" y="-572.9" font-family="Helvetica,sans-Serif" font-size="11.00" fill="#000000">varchar[12]</text>
<polygon fill="none" stroke="#000000" points="225.5,-543.2 225.5,-565.2 560.5,-565.2 560.5,-543.2 225.5,-543.2"/>
<text text-anchor="start" x="245.5" y="-550.3" font-family="Helvetica,sans-Serif" font-size="11.00" fill="#000000">referral_complete</text>
<polygon fill="none" stroke="#000000" points="560.5,-543.2 560.5,-565.2 654.5,-565.2 654.5,-543.2 560.5,-543.2"/>
<text text-anchor="start" x="563.5" y="-550.9" font-family="Helvetica,sans-Serif" font-size="11.00" fill="#000000">bool[1]</text>
<polygon fill="none" stroke="#000000" points="225.5,-521.2 225.5,-543.2 560.5,-543.2 560.5,-521.2 225.5,-521.2"/>
<text text-anchor="start" x="245.5" y="-528.3" font-family="Helvetica,sans-Serif" font-size="11.00" fill="#000000">referral_completed_by</text>
<polygon fill="none" stroke="#000000" points="560.5,-521.2 560.5,-543.2 654.5,-543.2 654.5,-521.2 560.5,-521.2"/>
<text text-anchor="start" x="563.5" y="-528.9" font-family="Helvetica,sans-Serif" font-size="11.00" fill="#000000">varchar[64]</text>
<polygon fill="none" stroke="#000000" points="225.5,-499.2 225.5,-521.2 560.5,-521.2 560.5,-499.2 225.5,-499.2"/>
<text text-anchor="start" x="245.5" y="-506.3" font-family="Helvetica,sans-Serif" font-size="11.00" fill="#000000">referral_completed_by_display_name</text>
<polygon fill="none" stroke="#000000" points="560.5,-499.2 560.5,-521.2 654.5,-521.2 654.5,-499.2 560.5,-499.2"/>
<text text-anchor="start" x="563.5" y="-506.9" font-family="Helvetica,sans-Serif" font-size="11.00" fill="#000000">varchar[255]</text>
<polygon fill="none" stroke="#000000" points="225.5,-477.2 225.5,-499.2 560.5,-499.2 560.5,-477.2 225.5,-477.2"/>
<text text-anchor="start" x="245.5" y="-484.3" font-family="Helvetica,sans-Serif" font-size="11.00" fill="#000000">referral_completed_date</text>
<polygon fill="none" stroke="#000000" points="560.5,-477.2 560.5,-499.2 654.5,-499.2 654.5,-477.2 560.5,-477.2"/>
<text text-anchor="start" x="563.5" y="-484.9" font-family="Helvetica,sans-Serif" font-size="11.00" fill="#000000">date[13]</text>
<polygon fill="none" stroke="#000000" points="225.5,-455.2 225.5,-477.2 560.5,-477.2 560.5,-455.2 225.5,-455.2"/>
<text text-anchor="start" x="245.5" y="-462.3" font-family="Helvetica,sans-Serif" font-size="11.00" fill="#000000">incident_date_modified</text>
<polygon fill="none" stroke="#000000" points="560.5,-455.2 560.5,-477.2 654.5,-477.2 654.5,-455.2 560.5,-455.2"/>
<text text-anchor="start" x="563.5" y="-462.9" font-family="Helvetica,sans-Serif" font-size="11.00" fill="#000000">bool[1]</text>
<polygon fill="none" stroke="#000000" points="225.5,-433.2 225.5,-455.2 560.5,-455.2 560.5,-433.2 225.5,-433.2"/>
<text text-anchor="start" x="245.5" y="-440.3" font-family="Helvetica,sans-Serif" font-size="11.00" fill="#000000">incident_time_modified</text>
<polygon fill="none" stroke="#000000" points="560.5,-433.2 560.5,-455.2 654.5,-455.2 654.5,-433.2 560.5,-433.2"/>
<text text-anchor="start" x="563.5" y="-440.9" font-family="Helvetica,sans-Serif" font-size="11.00" fill="#000000">bool[1]</text>
<polygon fill="none" stroke="#000000" points="225.5,-411.2 225.5,-433.2 560.5,-433.2 560.5,-411.2 225.5,-411.2"/>
<text text-anchor="start" x="245.5" y="-418.3" font-family="Helvetica,sans-Serif" font-size="11.00" fill="#000000">incident_type_modified</text>
<polygon fill="none" stroke="#000000" points="560.5,-411.2 560.5,-433.2 654.5,-433.2 654.5,-411.2 560.5,-411.2"/>
<text text-anchor="start" x="563.5" y="-418.9" font-family="Helvetica,sans-Serif" font-size="11.00" fill="#000000">bool[1]</text>
<polygon fill="none" stroke="#000000" points="225.5,-389.2 225.5,-411.2 560.5,-411.2 560.5,-389.2 225.5,-389.2"/>
<text text-anchor="start" x="245.5" y="-396.3" font-family="Helvetica,sans-Serif" font-size="11.00" fill="#000000">incident_location_modified</text>
<polygon fill="none" stroke="#000000" points="560.5,-389.2 560.5,-411.2 654.5,-411.2 654.5,-389.2 560.5,-389.2"/>
<text text-anchor="start" x="563.5" y="-396.9" font-family="Helvetica,sans-Serif" font-size="11.00" fill="#000000">bool[1]</text>
<polygon fill="none" stroke="#000000" points="225.5,-367.2 225.5,-389.2 560.5,-389.2 560.5,-367.2 225.5,-367.2"/>
<text text-anchor="start" x="245.5" y="-374.3" font-family="Helvetica,sans-Serif" font-size="11.00" fill="#000000">referred_by_modified</text>
<polygon fill="none" stroke="#000000" points="560.5,-367.2 560.5,-389.2 654.5,-389.2 654.5,-367.2 560.5,-367.2"/>
<text text-anchor="start" x="563.5" y="-374.9" font-family="Helvetica,sans-Serif" font-size="11.00" fill="#000000">bool[1]</text>
<polygon fill="none" stroke="#000000" points="225.5,-345.2 225.5,-367.2 560.5,-367.2 560.5,-345.2 225.5,-345.2"/>
<text text-anchor="start" x="245.5" y="-352.3" font-family="Helvetica,sans-Serif" font-size="11.00" fill="#000000">referer_area_of_work_modified</text>
<polygon fill="none" stroke="#000000" points="560.5,-345.2 560.5,-367.2 654.5,-367.2 654.5,-345.2 560.5,-345.2"/>
<text text-anchor="start" x="563.5" y="-352.9" font-family="Helvetica,sans-Serif" font-size="11.00" fill="#000000">bool[1]</text>
<polygon fill="none" stroke="#000000" points="225.5,-323.2 225.5,-345.2 560.5,-345.2 560.5,-323.2 225.5,-323.2"/>
<text text-anchor="start" x="245.5" y="-330.3" font-family="Helvetica,sans-Serif" font-size="11.00" fill="#000000">referral_date_modified</text>
<polygon fill="none" stroke="#000000" points="560.5,-323.2 560.5,-345.2 654.5,-345.2 654.5,-323.2 560.5,-323.2"/>
<text text-anchor="start" x="563.5" y="-330.9" font-family="Helvetica,sans-Serif" font-size="11.00" fill="#000000">bool[1]</text>
<polygon fill="none" stroke="#000000" points="225.5,-301.2 225.5,-323.2 560.5,-323.2 560.5,-301.2 225.5,-301.2"/>
<text text-anchor="start" x="245.5" y="-308.3" font-family="Helvetica,sans-Serif" font-size="11.00" fill="#000000">proactive_referral_modified</text>
<polygon fill="none" stroke="#000000" points="560.5,-301.2 560.5,-323.2 654.5,-323.2 654.5,-301.2 560.5,-301.2"/>
<text text-anchor="start" x="563.5" y="-308.9" font-family="Helvetica,sans-Serif" font-size="11.00" fill="#000000">bool[1]</text>
<polygon fill="none" stroke="#000000" points="225.5,-279.2 225.5,-301.2 560.5,-301.2 560.5,-279.2 225.5,-279.2"/>
<text text-anchor="start" x="245.5" y="-286.3" font-family="Helvetica,sans-Serif" font-size="11.00" fill="#000000">staff_assaulted_modified</text>
<polygon fill="none" stroke="#000000" points="560.5,-279.2 560.5,-301.2 654.5,-301.2 654.5,-279.2 560.5,-279.2"/>
<text text-anchor="start" x="563.5" y="-286.9" font-family="Helvetica,sans-Serif" font-size="11.00" fill="#000000">bool[1]</text>
<polygon fill="none" stroke="#000000" points="225.5,-257.2 225.5,-279.2 560.5,-279.2 560.5,-257.2 225.5,-257.2"/>
<text text-anchor="start" x="245.5" y="-264.3" font-family="Helvetica,sans-Serif" font-size="11.00" fill="#000000">assaulted_staff_name_modified</text>
<polygon fill="none" stroke="#000000" points="560.5,-257.2 560.5,-279.2 654.5,-279.2 654.5,-257.2 560.5,-257.2"/>
<text text-anchor="start" x="563.5" y="-264.9" font-family="Helvetica,sans-Serif" font-size="11.00" fill="#000000">bool[1]</text>
<polygon fill="none" stroke="#000000" points="225.5,-235.2 225.5,-257.2 560.5,-257.2 560.5,-235.2 225.5,-235.2"/>
<text text-anchor="start" x="245.5" y="-242.3" font-family="Helvetica,sans-Serif" font-size="11.00" fill="#000000">incident_involvement_modified</text>
<polygon fill="none" stroke="#000000" points="560.5,-235.2 560.5,-257.2 654.5,-257.2 654.5,-235.2 560.5,-235.2"/>
<text text-anchor="start" x="563.5" y="-242.9" font-family="Helvetica,sans-Serif" font-size="11.00" fill="#000000">bool[1]</text>
<polygon fill="none" stroke="#000000" points="225.5,-213.2 225.5,-235.2 560.5,-235.2 560.5,-213.2 225.5,-213.2"/>
<text text-anchor="start" x="245.5" y="-220.3" font-family="Helvetica,sans-Serif" font-size="11.00" fill="#000000">description_of_concern_modified</text>
<polygon fill="none" stroke="#000000" points="560.5,-213.2 560.5,-235.2 654.5,-235.2 654.5,-213.2 560.5,-213.2"/>
<text text-anchor="start" x="563.5" y="-220.9" font-family="Helvetica,sans-Serif" font-size="11.00" fill="#000000">bool[1]</text>
<polygon fill="none" stroke="#000000" points="225.5,-191.2 225.5,-213.2 560.5,-213.2 560.5,-191.2 225.5,-191.2"/>
<text text-anchor="start" x="245.5" y="-198.3" font-family="Helvetica,sans-Serif" font-size="11.00" fill="#000000">known_reasons_modified</text>
<polygon fill="none" stroke="#000000" points="560.5,-191.2 560.5,-213.2 654.5,-213.2 654.5,-191.2 560.5,-191.2"/>
<text text-anchor="start" x="563.5" y="-198.9" font-family="Helvetica,sans-Serif" font-size="11.00" fill="#000000">bool[1]</text>
<polygon fill="none" stroke="#000000" points="225.5,-169.2 225.5,-191.2 560.5,-191.2 560.5,-169.2 225.5,-169.2"/>
<text text-anchor="start" x="245.5" y="-176.3" font-family="Helvetica,sans-Serif" font-size="11.00" fill="#000000">other_information_modified</text>
<polygon fill="none" stroke="#000000" points="560.5,-169.2 560.5,-191.2 654.5,-191.2 654.5,-169.2 560.5,-169.2"/>
<text text-anchor="start" x="563.5" y="-176.9" font-family="Helvetica,sans-Serif" font-size="11.00" fill="#000000">bool[1]</text>
<polygon fill="none" stroke="#000000" points="225.5,-147.2 225.5,-169.2 560.5,-169.2 560.5,-147.2 225.5,-147.2"/>
<text text-anchor="start" x="245.5" y="-154.3" font-family="Helvetica,sans-Serif" font-size="11.00" fill="#000000">safer_custody_team_informed_modified</text>
<polygon fill="none" stroke="#000000" points="560.5,-147.2 560.5,-169.2 654.5,-169.2 654.5,-147.2 560.5,-147.2"/>
<text text-anchor="start" x="563.5" y="-154.9" font-family="Helvetica,sans-Serif" font-size="11.00" fill="#000000">bool[1]</text>
<polygon fill="none" stroke="#000000" points="225.5,-125.2 225.5,-147.2 560.5,-147.2 560.5,-125.2 225.5,-125.2"/>
<text text-anchor="start" x="245.5" y="-132.3" font-family="Helvetica,sans-Serif" font-size="11.00" fill="#000000">referral_complete_modified</text>
<polygon fill="none" stroke="#000000" points="560.5,-125.2 560.5,-147.2 654.5,-147.2 654.5,-125.2 560.5,-125.2"/>
<text text-anchor="start" x="563.5" y="-132.9" font-family="Helvetica,sans-Serif" font-size="11.00" fill="#000000">bool[1]</text>
<polygon fill="none" stroke="#000000" points="225.5,-103.2 225.5,-125.2 560.5,-125.2 560.5,-103.2 225.5,-103.2"/>
<text text-anchor="start" x="245.5" y="-110.3" font-family="Helvetica,sans-Serif" font-size="11.00" fill="#000000">referral_completed_by_modified</text>
<polygon fill="none" stroke="#000000" points="560.5,-103.2 560.5,-125.2 654.5,-125.2 654.5,-103.2 560.5,-103.2"/>
<text text-anchor="start" x="563.5" y="-110.9" font-family="Helvetica,sans-Serif" font-size="11.00" fill="#000000">bool[1]</text>
<polygon fill="none" stroke="#000000" points="225.5,-81.2 225.5,-103.2 560.5,-103.2 560.5,-81.2 225.5,-81.2"/>
<text text-anchor="start" x="245.5" y="-88.3" font-family="Helvetica,sans-Serif" font-size="11.00" fill="#000000">referral_completed_by_display_name_modified</text>
<polygon fill="none" stroke="#000000" points="560.5,-81.2 560.5,-103.2 654.5,-103.2 654.5,-81.2 560.5,-81.2"/>
<text text-anchor="start" x="563.5" y="-88.9" font-family="Helvetica,sans-Serif" font-size="11.00" fill="#000000">bool[1]</text>
<polygon fill="none" stroke="#000000" points="225.5,-59.2 225.5,-81.2 560.5,-81.2 560.5,-59.2 225.5,-59.2"/>
<text text-anchor="start" x="245.5" y="-66.3" font-family="Helvetica,sans-Serif" font-size="11.00" fill="#000000">referral_completed_date_modified</text>
<polygon fill="none" stroke="#000000" points="560.5,-59.2 560.5,-81.2 654.5,-81.2 654.5,-59.2 560.5,-59.2"/>
<text text-anchor="start" x="563.5" y="-66.9" font-family="Helvetica,sans-Serif" font-size="11.00" fill="#000000">bool[1]</text>
<polygon fill="#ffffff" stroke="transparent" points="225.5,-40.2 225.5,-59.2 397.5,-59.2 397.5,-40.2 225.5,-40.2"/>
<polygon fill="none" stroke="#000000" points="225.5,-40.2 225.5,-59.2 397.5,-59.2 397.5,-40.2 225.5,-40.2"/>
<text text-anchor="start" x="228.5" y="-46.3" font-family="Helvetica,sans-Serif" font-size="11.00" fill="#000000">&lt; 1</text>
<polygon fill="#ffffff" stroke="transparent" points="397.5,-40.2 397.5,-59.2 560.5,-59.2 560.5,-40.2 397.5,-40.2"/>
<polygon fill="none" stroke="#000000" points="397.5,-40.2 397.5,-59.2 560.5,-59.2 560.5,-40.2 397.5,-40.2"/>
<text text-anchor="start" x="551.3862" y="-46.3" font-family="Helvetica,sans-Serif" font-size="11.00" fill="#000000"> &#160;</text>
<polygon fill="#ffffff" stroke="transparent" points="560.5,-40.2 560.5,-59.2 654.5,-59.2 654.5,-40.2 560.5,-40.2"/>
<polygon fill="none" stroke="#000000" points="560.5,-40.2 560.5,-59.2 654.5,-59.2 654.5,-40.2 560.5,-40.2"/>
<text text-anchor="start" x="635.9053" y="-46.3" font-family="Helvetica,sans-Serif" font-size="11.00" fill="#000000">0 &gt;</text>
<polygon fill="none" stroke="#000000" stroke-width="2" points="224,-39.2 224,-985.2 655,-985.2 655,-39.2 224,-39.2"/>
</a>
</g>
</g>
<!-- audit_revision -->
<g id="node2" class="node">
<title>audit_revision</title>
<g id="a_node2"><a xlink:href="../../tables/audit_revision.html" xlink:title="audit_revision" target="_top">
<polygon fill="#ffffff" stroke="transparent" points="8,-901.7 8,-984.7 174,-984.7 174,-901.7 8,-901.7"/>
<polygon fill="#f5f5f5" stroke="transparent" points="8,-961.2 8,-984.2 174,-984.2 174,-961.2 8,-961.2"/>
<polygon fill="none" stroke="#000000" points="8,-961.2 8,-984.2 174,-984.2 174,-961.2 8,-961.2"/>
<text text-anchor="start" x="13" y="-969.8" font-family="Helvetica,sans-Serif" font-weight="bold" font-size="11.00" fill="#000000">audit_revision</text>
<text text-anchor="start" x="139.0437" y="-969.3" font-family="Helvetica,sans-Serif" font-size="11.00" fill="#000000">[table]</text>
<polygon fill="none" stroke="#000000" points="8,-939.2 8,-961.2 174,-961.2 174,-939.2 8,-939.2"/>
<image xlink:href="../../images/primaryKeys.png" width="11px" height="12px" preserveAspectRatio="xMinYMin meet" x="13" y="-956.2"/>
<text text-anchor="start" x="28" y="-946.3" font-family="Helvetica,sans-Serif" font-size="11.00" fill="#000000">id</text>
<polygon fill="none" stroke="#000000" points="8,-920.2 8,-939.2 174,-939.2 174,-920.2 8,-920.2"/>
<text text-anchor="start" x="11" y="-926.3" font-family="Helvetica,sans-Serif" font-size="11.00" fill="#000000">...</text>
<polygon fill="#ffffff" stroke="transparent" points="8,-901.2 8,-920.2 77,-920.2 77,-901.2 8,-901.2"/>
<polygon fill="none" stroke="#000000" points="8,-901.2 8,-920.2 77,-920.2 77,-901.2 8,-901.2"/>
<text text-anchor="start" x="11" y="-907.3" font-family="Helvetica,sans-Serif" font-size="11.00" fill="#000000"> &#160;</text>
<polygon fill="#ffffff" stroke="transparent" points="77,-901.2 77,-920.2 118,-920.2 118,-901.2 77,-901.2"/>
<polygon fill="none" stroke="#000000" points="77,-901.2 77,-920.2 118,-920.2 118,-901.2 77,-901.2"/>
<text text-anchor="start" x="108.8862" y="-907.3" font-family="Helvetica,sans-Serif" font-size="11.00" fill="#000000"> &#160;</text>
<polygon fill="#ffffff" stroke="transparent" points="118,-901.2 118,-920.2 174,-920.2 174,-901.2 118,-901.2"/>
<polygon fill="none" stroke="#000000" points="118,-901.2 118,-920.2 174,-920.2 174,-901.2 118,-901.2"/>
<text text-anchor="start" x="149.2904" y="-907.3" font-family="Helvetica,sans-Serif" font-size="11.00" fill="#000000">11 &gt;</text>
</a>
</g>
</g>
<!-- referral_audit&#45;&gt;audit_revision -->
<g id="edge1" class="edge">
<title>referral_audit:w&#45;&gt;audit_revision:e</title>
<path fill="none" stroke="#000000" d="M211.0156,-950.2C198.6771,-950.2 191.1667,-950.2 174,-950.2"/>
<polygon fill="#000000" stroke="#000000" points="217.5,-950.2001 225.5,-953.8 221.5,-950.2 225.5,-950.2 225.5,-950.2 225.5,-950.2 221.5,-950.2 225.5,-946.6 217.5,-950.2001 217.5,-950.2001"/>
<ellipse fill="none" stroke="#000000" cx="214.3" cy="-950.2001" rx="3.2" ry="3.2"/>
</g>
</g>
</svg>
