<?xml version="1.0" encoding="UTF-8" standalone="no"?>
<!DOCTYPE svg PUBLIC "-//W3C//DTD SVG 1.1//EN"
 "http://www.w3.org/Graphics/SVG/1.1/DTD/svg11.dtd">
<!-- Generated by graphviz version 2.40.1 (20161225.0304)
 -->
<!-- Title: twoDegreesRelationshipsDiagram Pages: 1 -->
<svg width="1075pt" height="543pt"
 viewBox="0.00 0.00 1075.00 543.33" xmlns="http://www.w3.org/2000/svg" xmlns:xlink="http://www.w3.org/1999/xlink">
<g id="graph0" class="graph" transform="scale(1 1) rotate(0) translate(4 539.3303)">
<title>twoDegreesRelationshipsDiagram</title>
<polygon fill="#ffffff" stroke="transparent" points="-4,4 -4,-539.3303 1071,-539.3303 1071,4 -4,4"/>
<text text-anchor="middle" x="72.4936" y="-7.3" font-family="Helvetica,sans-Serif" font-size="11.00" fill="#000000">Generated by SchemaSpy</text>
<!-- contributory_factor -->
<g id="node1" class="node">
<title>contributory_factor</title>
<g id="a_node1"><a xlink:href="../../tables/contributory_factor.html" xlink:title="contributory_factor" target="_top">
<polygon fill="#ffffff" stroke="transparent" points="639,-184.2 639,-245.2 808,-245.2 808,-184.2 639,-184.2"/>
<polygon fill="#f5f5f5" stroke="transparent" points="639.5,-221.7 639.5,-244.7 808.5,-244.7 808.5,-221.7 639.5,-221.7"/>
<polygon fill="none" stroke="#000000" points="639.5,-221.7 639.5,-244.7 808.5,-244.7 808.5,-221.7 639.5,-221.7"/>
<text text-anchor="start" x="644.5" y="-230.3" font-family="Helvetica,sans-Serif" font-weight="bold" font-size="11.00" fill="#000000">contributory_factor</text>
<text text-anchor="start" x="774.0219" y="-229.8" font-family="Helvetica,sans-Serif" font-size="11.00" fill="#000000">[table]</text>
<polygon fill="none" stroke="#000000" points="639.5,-202.7 639.5,-221.7 808.5,-221.7 808.5,-202.7 639.5,-202.7"/>
<text text-anchor="start" x="642.5" y="-208.8" font-family="Helvetica,sans-Serif" font-size="11.00" fill="#000000">...</text>
<polygon fill="#ffffff" stroke="transparent" points="639.5,-183.7 639.5,-202.7 722.5,-202.7 722.5,-183.7 639.5,-183.7"/>
<polygon fill="none" stroke="#000000" points="639.5,-183.7 639.5,-202.7 722.5,-202.7 722.5,-183.7 639.5,-183.7"/>
<text text-anchor="start" x="642.5" y="-189.8" font-family="Helvetica,sans-Serif" font-size="11.00" fill="#000000">&lt; 2</text>
<polygon fill="#ffffff" stroke="transparent" points="722.5,-183.7 722.5,-202.7 765.5,-202.7 765.5,-183.7 722.5,-183.7"/>
<polygon fill="none" stroke="#000000" points="722.5,-183.7 722.5,-202.7 765.5,-202.7 765.5,-183.7 722.5,-183.7"/>
<text text-anchor="start" x="756.3862" y="-189.8" font-family="Helvetica,sans-Serif" font-size="11.00" fill="#000000"> &#160;</text>
<polygon fill="#ffffff" stroke="transparent" points="765.5,-183.7 765.5,-202.7 808.5,-202.7 808.5,-183.7 765.5,-183.7"/>
<polygon fill="none" stroke="#000000" points="765.5,-183.7 765.5,-202.7 808.5,-202.7 808.5,-183.7 765.5,-183.7"/>
<text text-anchor="start" x="799.3862" y="-189.8" font-family="Helvetica,sans-Serif" font-size="11.00" fill="#000000"> &#160;</text>
</a>
</g>
</g>
<!-- reference_data -->
<g id="node2" class="node">
<title>reference_data</title>
<g id="a_node2"><a xlink:href="../../tables/reference_data.html" xlink:title="reference_data" target="_top">
<polygon fill="#ffffff" stroke="transparent" points="8,-120.7 8,-408.7 237,-408.7 237,-120.7 8,-120.7"/>
<polygon fill="#f5f5f5" stroke="transparent" points="10.5,-383.7 10.5,-406.7 235.5,-406.7 235.5,-383.7 10.5,-383.7"/>
<polygon fill="none" stroke="#000000" points="10.5,-383.7 10.5,-406.7 235.5,-406.7 235.5,-383.7 10.5,-383.7"/>
<text text-anchor="start" x="15.5" y="-392.3" font-family="Helvetica,sans-Serif" font-weight="bold" font-size="11.00" fill="#000000">reference_data</text>
<text text-anchor="start" x="200.5437" y="-391.8" font-family="Helvetica,sans-Serif" font-size="11.00" fill="#000000">[table]</text>
<polygon fill="none" stroke="#000000" points="10.5,-361.7 10.5,-383.7 151.5,-383.7 151.5,-361.7 10.5,-361.7"/>
<image xlink:href="../../images/primaryKeys.png" width="11px" height="12px" preserveAspectRatio="xMinYMin meet" x="15.5" y="-378.7"/>
<text text-anchor="start" x="30.5" y="-368.8" font-family="Helvetica,sans-Serif" font-size="11.00" fill="#000000">reference_data_id</text>
<polygon fill="none" stroke="#000000" points="151.5,-361.7 151.5,-383.7 235.5,-383.7 235.5,-361.7 151.5,-361.7"/>
<text text-anchor="start" x="154.5" y="-369.4" font-family="Helvetica,sans-Serif" font-size="11.00" fill="#000000">bigserial[19]</text>
<polygon fill="#ffffff" stroke="transparent" points="10.5,-339.7 10.5,-361.7 151.5,-361.7 151.5,-339.7 10.5,-339.7"/>
<polygon fill="none" stroke="#000000" points="10.5,-339.7 10.5,-361.7 151.5,-361.7 151.5,-339.7 10.5,-339.7"/>
<text text-anchor="start" x="30.5" y="-346.8" font-family="Helvetica,sans-Serif" font-size="11.00" fill="#000000">domain</text>
<polygon fill="none" stroke="#000000" points="151.5,-339.7 151.5,-361.7 235.5,-361.7 235.5,-339.7 151.5,-339.7"/>
<text text-anchor="start" x="154.5" y="-347.4" font-family="Helvetica,sans-Serif" font-size="11.00" fill="#000000">varchar[30]</text>
<polygon fill="#ffffff" stroke="transparent" points="10.5,-317.7 10.5,-339.7 151.5,-339.7 151.5,-317.7 10.5,-317.7"/>
<polygon fill="none" stroke="#000000" points="10.5,-317.7 10.5,-339.7 151.5,-339.7 151.5,-317.7 10.5,-317.7"/>
<text text-anchor="start" x="30.5" y="-324.8" font-family="Helvetica,sans-Serif" font-size="11.00" fill="#000000">code</text>
<polygon fill="none" stroke="#000000" points="151.5,-317.7 151.5,-339.7 235.5,-339.7 235.5,-317.7 151.5,-317.7"/>
<text text-anchor="start" x="154.5" y="-325.4" font-family="Helvetica,sans-Serif" font-size="11.00" fill="#000000">varchar[32]</text>
<polygon fill="none" stroke="#000000" points="10.5,-295.7 10.5,-317.7 151.5,-317.7 151.5,-295.7 10.5,-295.7"/>
<text text-anchor="start" x="30.5" y="-302.8" font-family="Helvetica,sans-Serif" font-size="11.00" fill="#000000">description</text>
<polygon fill="none" stroke="#000000" points="151.5,-295.7 151.5,-317.7 235.5,-317.7 235.5,-295.7 151.5,-295.7"/>
<text text-anchor="start" x="154.5" y="-303.4" font-family="Helvetica,sans-Serif" font-size="11.00" fill="#000000">varchar[40]</text>
<polygon fill="#ffffff" stroke="transparent" points="10.5,-273.7 10.5,-295.7 151.5,-295.7 151.5,-273.7 10.5,-273.7"/>
<polygon fill="none" stroke="#000000" points="10.5,-273.7 10.5,-295.7 151.5,-295.7 151.5,-273.7 10.5,-273.7"/>
<text text-anchor="start" x="30.5" y="-280.8" font-family="Helvetica,sans-Serif" font-size="11.00" fill="#000000">list_sequence</text>
<polygon fill="none" stroke="#000000" points="151.5,-273.7 151.5,-295.7 235.5,-295.7 235.5,-273.7 151.5,-273.7"/>
<text text-anchor="start" x="154.5" y="-281.4" font-family="Helvetica,sans-Serif" font-size="11.00" fill="#000000">int4[10]</text>
<polygon fill="none" stroke="#000000" points="10.5,-251.7 10.5,-273.7 151.5,-273.7 151.5,-251.7 10.5,-251.7"/>
<text text-anchor="start" x="30.5" y="-258.8" font-family="Helvetica,sans-Serif" font-size="11.00" fill="#000000">created_at</text>
<polygon fill="none" stroke="#000000" points="151.5,-251.7 151.5,-273.7 235.5,-273.7 235.5,-251.7 151.5,-251.7"/>
<text text-anchor="start" x="154.3807" y="-259.4" font-family="Helvetica,sans-Serif" font-size="11.00" fill="#000000">timestamp[29,6]</text>
<polygon fill="none" stroke="#000000" points="10.5,-229.7 10.5,-251.7 151.5,-251.7 151.5,-229.7 10.5,-229.7"/>
<text text-anchor="start" x="30.5" y="-236.8" font-family="Helvetica,sans-Serif" font-size="11.00" fill="#000000">created_by</text>
<polygon fill="none" stroke="#000000" points="151.5,-229.7 151.5,-251.7 235.5,-251.7 235.5,-229.7 151.5,-229.7"/>
<text text-anchor="start" x="154.5" y="-237.4" font-family="Helvetica,sans-Serif" font-size="11.00" fill="#000000">varchar[32]</text>
<polygon fill="none" stroke="#000000" points="10.5,-207.7 10.5,-229.7 151.5,-229.7 151.5,-207.7 10.5,-207.7"/>
<text text-anchor="start" x="30.5" y="-214.8" font-family="Helvetica,sans-Serif" font-size="11.00" fill="#000000">last_modified_at</text>
<polygon fill="none" stroke="#000000" points="151.5,-207.7 151.5,-229.7 235.5,-229.7 235.5,-207.7 151.5,-207.7"/>
<text text-anchor="start" x="154.3807" y="-215.4" font-family="Helvetica,sans-Serif" font-size="11.00" fill="#000000">timestamp[29,6]</text>
<polygon fill="none" stroke="#000000" points="10.5,-185.7 10.5,-207.7 151.5,-207.7 151.5,-185.7 10.5,-185.7"/>
<text text-anchor="start" x="30.5" y="-192.8" font-family="Helvetica,sans-Serif" font-size="11.00" fill="#000000">last_modified_by</text>
<polygon fill="none" stroke="#000000" points="151.5,-185.7 151.5,-207.7 235.5,-207.7 235.5,-185.7 151.5,-185.7"/>
<text text-anchor="start" x="154.5" y="-193.4" font-family="Helvetica,sans-Serif" font-size="11.00" fill="#000000">varchar[32]</text>
<polygon fill="none" stroke="#000000" points="10.5,-163.7 10.5,-185.7 151.5,-185.7 151.5,-163.7 10.5,-163.7"/>
<text text-anchor="start" x="30.5" y="-170.8" font-family="Helvetica,sans-Serif" font-size="11.00" fill="#000000">deactivated_at</text>
<polygon fill="none" stroke="#000000" points="151.5,-163.7 151.5,-185.7 235.5,-185.7 235.5,-163.7 151.5,-163.7"/>
<text text-anchor="start" x="154.3807" y="-171.4" font-family="Helvetica,sans-Serif" font-size="11.00" fill="#000000">timestamp[29,6]</text>
<polygon fill="none" stroke="#000000" points="10.5,-141.7 10.5,-163.7 151.5,-163.7 151.5,-141.7 10.5,-141.7"/>
<text text-anchor="start" x="30.5" y="-148.8" font-family="Helvetica,sans-Serif" font-size="11.00" fill="#000000">deactivated_by</text>
<polygon fill="none" stroke="#000000" points="151.5,-141.7 151.5,-163.7 235.5,-163.7 235.5,-141.7 151.5,-141.7"/>
<text text-anchor="start" x="154.5" y="-149.4" font-family="Helvetica,sans-Serif" font-size="11.00" fill="#000000">varchar[32]</text>
<polygon fill="#ffffff" stroke="transparent" points="10.5,-122.7 10.5,-141.7 66.5,-141.7 66.5,-122.7 10.5,-122.7"/>
<polygon fill="none" stroke="#000000" points="10.5,-122.7 10.5,-141.7 66.5,-141.7 66.5,-122.7 10.5,-122.7"/>
<text text-anchor="start" x="13.5" y="-128.8" font-family="Helvetica,sans-Serif" font-size="11.00" fill="#000000">&lt; 0</text>
<polygon fill="#ffffff" stroke="transparent" points="66.5,-122.7 66.5,-141.7 151.5,-141.7 151.5,-122.7 66.5,-122.7"/>
<polygon fill="none" stroke="#000000" points="66.5,-122.7 66.5,-141.7 151.5,-141.7 151.5,-122.7 66.5,-122.7"/>
<text text-anchor="start" x="103.8807" y="-128.8" font-family="Helvetica,sans-Serif" font-size="11.00" fill="#000000">112 rows</text>
<polygon fill="#ffffff" stroke="transparent" points="151.5,-122.7 151.5,-141.7 235.5,-141.7 235.5,-122.7 151.5,-122.7"/>
<polygon fill="none" stroke="#000000" points="151.5,-122.7 151.5,-141.7 235.5,-141.7 235.5,-122.7 151.5,-122.7"/>
<text text-anchor="start" x="210.7904" y="-128.8" font-family="Helvetica,sans-Serif" font-size="11.00" fill="#000000">10 &gt;</text>
<polygon fill="none" stroke="#000000" stroke-width="2" points="9,-121.7 9,-407.7 236,-407.7 236,-121.7 9,-121.7"/>
</a>
</g>
</g>
<!-- contributory_factor&#45;&gt;reference_data -->
<g id="edge1" class="edge">
<title>contributory_factor:w&#45;&gt;reference_data:e</title>
<path fill="none" stroke="#000000" d="M616.7742,-236.4723C604.0821,-241.5923 591.8139,-247.909 581,-255.7 559.9951,-270.8333 569.4699,-289.234 548,-303.7 533.2553,-313.6347 253.2793,-372.7 235.5,-372.7"/>
<polygon fill="#000000" stroke="#000000" points="623.1541,-234.1302 631.9047,-234.7526 626.9091,-232.7517 630.6641,-231.3732 630.6641,-231.3732 630.6641,-231.3732 626.9091,-232.7517 629.4234,-227.9937 623.1541,-234.1302 623.1541,-234.1302"/>
<ellipse fill="none" stroke="#000000" cx="620.1502" cy="-235.233" rx="3.2" ry="3.2"/>
</g>
<!-- referral -->
<g id="node3" class="node">
<title>referral</title>
<g id="a_node3"><a xlink:href="../../tables/referral.html" xlink:title="referral" target="_top">
<polygon fill="#ffffff" stroke="transparent" points="450,-342.2 450,-403.2 540,-403.2 540,-342.2 450,-342.2"/>
<polygon fill="#f5f5f5" stroke="transparent" points="450,-379.7 450,-402.7 540,-402.7 540,-379.7 450,-379.7"/>
<polygon fill="none" stroke="#000000" points="450,-379.7 450,-402.7 540,-402.7 540,-379.7 450,-379.7"/>
<text text-anchor="start" x="455" y="-388.3" font-family="Helvetica,sans-Serif" font-weight="bold" font-size="11.00" fill="#000000">referral</text>
<text text-anchor="start" x="505.5219" y="-387.8" font-family="Helvetica,sans-Serif" font-size="11.00" fill="#000000">[table]</text>
<polygon fill="none" stroke="#000000" points="450,-360.7 450,-379.7 540,-379.7 540,-360.7 450,-360.7"/>
<text text-anchor="start" x="453" y="-366.8" font-family="Helvetica,sans-Serif" font-size="11.00" fill="#000000">...</text>
<polygon fill="#ffffff" stroke="transparent" points="450,-341.7 450,-360.7 489,-360.7 489,-341.7 450,-341.7"/>
<polygon fill="none" stroke="#000000" points="450,-341.7 450,-360.7 489,-360.7 489,-341.7 450,-341.7"/>
<text text-anchor="start" x="453" y="-347.8" font-family="Helvetica,sans-Serif" font-size="11.00" fill="#000000">&lt; 5</text>
<polygon fill="#ffffff" stroke="transparent" points="489,-341.7 489,-360.7 510,-360.7 510,-341.7 489,-341.7"/>
<polygon fill="none" stroke="#000000" points="489,-341.7 489,-360.7 510,-360.7 510,-341.7 489,-341.7"/>
<text text-anchor="start" x="500.8862" y="-347.8" font-family="Helvetica,sans-Serif" font-size="11.00" fill="#000000"> &#160;</text>
<polygon fill="#ffffff" stroke="transparent" points="510,-341.7 510,-360.7 540,-360.7 540,-341.7 510,-341.7"/>
<polygon fill="none" stroke="#000000" points="510,-341.7 510,-360.7 540,-360.7 540,-341.7 510,-341.7"/>
<text text-anchor="start" x="521.4053" y="-347.8" font-family="Helvetica,sans-Serif" font-size="11.00" fill="#000000">4 &gt;</text>
</a>
</g>
</g>
<!-- contributory_factor&#45;&gt;referral -->
<g id="edge2" class="edge">
<title>contributory_factor:w&#45;&gt;referral:e</title>
<path fill="none" stroke="#000000" d="M617.1583,-234.0048C604.0517,-239.5189 591.5719,-246.6022 581,-255.7 554.3185,-278.661 569.2557,-299.641 548,-327.7 545.3032,-331.26 542.2788,-334.7309 539.0778,-338.0642"/>
<polygon fill="#000000" stroke="#000000" points="623.5011,-231.6218 632.2562,-232.178 627.2455,-230.2149 630.99,-228.808 630.99,-228.808 630.99,-228.808 627.2455,-230.2149 629.7238,-225.438 623.5011,-231.6218 623.5011,-231.6218"/>
<ellipse fill="none" stroke="#000000" cx="620.5056" cy="-232.7473" rx="3.2" ry="3.2"/>
</g>
<!-- referral&#45;&gt;reference_data -->
<g id="edge12" class="edge">
<title>referral:w&#45;&gt;reference_data:e</title>
<path fill="none" stroke="#000000" d="M427.3235,-358.6888C374.9583,-357.2998 300.6315,-361.9702 235.5,-372.7"/>
<polygon fill="#000000" stroke="#000000" points="433.8278,-358.9446 441.6801,-362.8563 437.8247,-359.1018 441.8216,-359.2591 441.8216,-359.2591 441.8216,-359.2591 437.8247,-359.1018 441.9631,-355.6619 433.8278,-358.9446 433.8278,-358.9446"/>
<ellipse fill="none" stroke="#000000" cx="430.6303" cy="-358.8188" rx="3.2" ry="3.2"/>
</g>
<!-- referral&#45;&gt;reference_data -->
<g id="edge13" class="edge">
<title>referral:w&#45;&gt;reference_data:e</title>
<path fill="none" stroke="#000000" d="M427.3235,-368.2754C374.9583,-367.8368 300.6315,-369.3117 235.5,-372.7"/>
<polygon fill="#000000" stroke="#000000" points="433.8222,-368.3561 441.7769,-372.0552 437.8219,-368.4058 441.8216,-368.4555 441.8216,-368.4555 441.8216,-368.4555 437.8219,-368.4058 441.8664,-364.8558 433.8222,-368.3561 433.8222,-368.3561"/>
<ellipse fill="none" stroke="#000000" cx="430.6225" cy="-368.3163" rx="3.2" ry="3.2"/>
</g>
<!-- referral&#45;&gt;reference_data -->
<g id="edge14" class="edge">
<title>referral:w&#45;&gt;reference_data:e</title>
<path fill="none" stroke="#000000" d="M427.3235,-377.862C374.9583,-378.3737 300.6315,-376.6531 235.5,-372.7"/>
<polygon fill="#000000" stroke="#000000" points="433.8225,-377.7679 441.8738,-381.2515 437.822,-377.7099 441.8216,-377.6519 441.8216,-377.6519 441.8216,-377.6519 437.822,-377.7099 441.7694,-374.0523 433.8225,-377.7679 433.8225,-377.7679"/>
<ellipse fill="none" stroke="#000000" cx="430.6228" cy="-377.8143" rx="3.2" ry="3.2"/>
</g>
<!-- referral&#45;&gt;reference_data -->
<g id="edge15" class="edge">
<title>referral:w&#45;&gt;reference_data:e</title>
<path fill="none" stroke="#000000" d="M427.3235,-387.4486C374.9583,-388.9107 300.6315,-383.9945 235.5,-372.7"/>
<polygon fill="#000000" stroke="#000000" points="433.8285,-387.1794 441.9706,-390.4452 437.825,-387.0138 441.8216,-386.8483 441.8216,-386.8483 441.8216,-386.8483 437.825,-387.0138 441.6726,-383.2514 433.8285,-387.1794 433.8285,-387.1794"/>
<ellipse fill="none" stroke="#000000" cx="430.6312" cy="-387.3118" rx="3.2" ry="3.2"/>
</g>
<!-- csip_record -->
<g id="node4" class="node">
<title>csip_record</title>
<g id="a_node4"><a xlink:href="../../tables/csip_record.html" xlink:title="csip_record" target="_top">
<polygon fill="#ffffff" stroke="transparent" points="286,-231.2 286,-292.2 401,-292.2 401,-231.2 286,-231.2"/>
<polygon fill="#f5f5f5" stroke="transparent" points="286.5,-268.7 286.5,-291.7 401.5,-291.7 401.5,-268.7 286.5,-268.7"/>
<polygon fill="none" stroke="#000000" points="286.5,-268.7 286.5,-291.7 401.5,-291.7 401.5,-268.7 286.5,-268.7"/>
<text text-anchor="start" x="291.5" y="-277.3" font-family="Helvetica,sans-Serif" font-weight="bold" font-size="11.00" fill="#000000">csip_record</text>
<text text-anchor="start" x="367.0219" y="-276.8" font-family="Helvetica,sans-Serif" font-size="11.00" fill="#000000">[table]</text>
<polygon fill="none" stroke="#000000" points="286.5,-249.7 286.5,-268.7 401.5,-268.7 401.5,-249.7 286.5,-249.7"/>
<text text-anchor="start" x="289.5" y="-255.8" font-family="Helvetica,sans-Serif" font-size="11.00" fill="#000000">...</text>
<polygon fill="#ffffff" stroke="transparent" points="286.5,-230.7 286.5,-249.7 337.5,-249.7 337.5,-230.7 286.5,-230.7"/>
<polygon fill="none" stroke="#000000" points="286.5,-230.7 286.5,-249.7 337.5,-249.7 337.5,-230.7 286.5,-230.7"/>
<text text-anchor="start" x="289.5" y="-236.8" font-family="Helvetica,sans-Serif" font-size="11.00" fill="#000000">&lt; 2</text>
<polygon fill="#ffffff" stroke="transparent" points="337.5,-230.7 337.5,-249.7 364.5,-249.7 364.5,-230.7 337.5,-230.7"/>
<polygon fill="none" stroke="#000000" points="337.5,-230.7 337.5,-249.7 364.5,-249.7 364.5,-230.7 337.5,-230.7"/>
<text text-anchor="start" x="355.3862" y="-236.8" font-family="Helvetica,sans-Serif" font-size="11.00" fill="#000000"> &#160;</text>
<polygon fill="#ffffff" stroke="transparent" points="364.5,-230.7 364.5,-249.7 401.5,-249.7 401.5,-230.7 364.5,-230.7"/>
<polygon fill="none" stroke="#000000" points="364.5,-230.7 364.5,-249.7 401.5,-249.7 401.5,-230.7 364.5,-230.7"/>
<text text-anchor="start" x="382.9053" y="-236.8" font-family="Helvetica,sans-Serif" font-size="11.00" fill="#000000">2 &gt;</text>
</a>
</g>
</g>
<!-- referral&#45;&gt;csip_record -->
<g id="edge16" class="edge">
<title>referral:w&#45;&gt;csip_record:e</title>
<path fill="none" stroke="#000000" d="M439.2162,-331.8287C423.3256,-320.1861 406.1726,-307.6185 390.8367,-296.3823"/>
<polygon fill="#000000" stroke="#000000" points="449.6137,-334.4879 444.8855,-340.9412 443.5948,-339.9956 448.323,-333.5423 449.6137,-334.4879"/>
<polyline fill="none" stroke="#000000" points="447.8949,-338.1874 444.6683,-335.8233 "/>
<ellipse fill="none" stroke="#000000" cx="442.087" cy="-333.932" rx="3.2" ry="3.2"/>
</g>
<!-- csip_record&#45;&gt;reference_data -->
<g id="edge4" class="edge">
<title>csip_record:w&#45;&gt;reference_data:e</title>
<path fill="none" stroke="#000000" d="M279.43,-306.245C278.9478,-306.7281 278.471,-307.2131 278,-307.7 254.0018,-332.5081 270.0161,-372.7 235.5,-372.7"/>
<polygon fill="#000000" stroke="#000000" points="284.3026,-301.8108 292.6423,-299.0889 287.2609,-299.1186 290.2193,-296.4264 290.2193,-296.4264 290.2193,-296.4264 287.2609,-299.1186 287.7963,-293.7638 284.3026,-301.8108 284.3026,-301.8108"/>
<ellipse fill="none" stroke="#000000" cx="281.9359" cy="-303.9646" rx="3.2" ry="3.2"/>
</g>
<!-- person_summary -->
<g id="node5" class="node">
<title>person_summary</title>
<g id="a_node5"><a xlink:href="../../tables/person_summary.html" xlink:title="person_summary" target="_top">
<polygon fill="#ffffff" stroke="transparent" points="45.5,-38.2 45.5,-99.2 199.5,-99.2 199.5,-38.2 45.5,-38.2"/>
<polygon fill="#f5f5f5" stroke="transparent" points="45.5,-75.7 45.5,-98.7 199.5,-98.7 199.5,-75.7 45.5,-75.7"/>
<polygon fill="none" stroke="#000000" points="45.5,-75.7 45.5,-98.7 199.5,-98.7 199.5,-75.7 45.5,-75.7"/>
<text text-anchor="start" x="50.5" y="-84.3" font-family="Helvetica,sans-Serif" font-weight="bold" font-size="11.00" fill="#000000">person_summary</text>
<text text-anchor="start" x="165.0219" y="-83.8" font-family="Helvetica,sans-Serif" font-size="11.00" fill="#000000">[table]</text>
<polygon fill="none" stroke="#000000" points="45.5,-56.7 45.5,-75.7 199.5,-75.7 199.5,-56.7 45.5,-56.7"/>
<text text-anchor="start" x="48.5" y="-62.8" font-family="Helvetica,sans-Serif" font-size="11.00" fill="#000000">...</text>
<polygon fill="#ffffff" stroke="transparent" points="45.5,-37.7 45.5,-56.7 111.5,-56.7 111.5,-37.7 45.5,-37.7"/>
<polygon fill="none" stroke="#000000" points="45.5,-37.7 45.5,-56.7 111.5,-56.7 111.5,-37.7 45.5,-37.7"/>
<text text-anchor="start" x="48.5" y="-43.8" font-family="Helvetica,sans-Serif" font-size="11.00" fill="#000000"> &#160;</text>
<polygon fill="#ffffff" stroke="transparent" points="111.5,-37.7 111.5,-56.7 150.5,-56.7 150.5,-37.7 111.5,-37.7"/>
<polygon fill="none" stroke="#000000" points="111.5,-37.7 111.5,-56.7 150.5,-56.7 150.5,-37.7 111.5,-37.7"/>
<text text-anchor="start" x="141.3862" y="-43.8" font-family="Helvetica,sans-Serif" font-size="11.00" fill="#000000"> &#160;</text>
<polygon fill="#ffffff" stroke="transparent" points="150.5,-37.7 150.5,-56.7 199.5,-56.7 199.5,-37.7 150.5,-37.7"/>
<polygon fill="none" stroke="#000000" points="150.5,-37.7 150.5,-56.7 199.5,-56.7 199.5,-37.7 150.5,-37.7"/>
<text text-anchor="start" x="180.9053" y="-43.8" font-family="Helvetica,sans-Serif" font-size="11.00" fill="#000000">1 &gt;</text>
</a>
</g>
</g>
<!-- csip_record&#45;&gt;person_summary -->
<g id="edge3" class="edge">
<title>csip_record:w&#45;&gt;person_summary:e</title>
<path fill="none" stroke="#000000" d="M330.8932,-213.1011C312.5602,-155.0558 272.4853,-65.7 199.5,-65.7"/>
<polygon fill="#000000" stroke="#000000" points="332.7955,-219.4472 331.6441,-228.144 333.944,-223.2787 335.0925,-227.1103 335.0925,-227.1103 335.0925,-227.1103 333.944,-223.2787 338.5409,-226.0766 332.7955,-219.4472 332.7955,-219.4472"/>
<ellipse fill="none" stroke="#000000" cx="331.8766" cy="-216.3819" rx="3.2" ry="3.2"/>
</g>
<!-- decision_and_actions -->
<g id="node6" class="node">
<title>decision_and_actions</title>
<g id="a_node6"><a xlink:href="../../tables/decision_and_actions.html" xlink:title="decision_and_actions" target="_top">
<polygon fill="#ffffff" stroke="transparent" points="633,-430.2 633,-491.2 814,-491.2 814,-430.2 633,-430.2"/>
<polygon fill="#f5f5f5" stroke="transparent" points="633.5,-467.7 633.5,-490.7 814.5,-490.7 814.5,-467.7 633.5,-467.7"/>
<polygon fill="none" stroke="#000000" points="633.5,-467.7 633.5,-490.7 814.5,-490.7 814.5,-467.7 633.5,-467.7"/>
<text text-anchor="start" x="638.5" y="-476.3" font-family="Helvetica,sans-Serif" font-weight="bold" font-size="11.00" fill="#000000">decision_and_actions</text>
<text text-anchor="start" x="780.0219" y="-475.8" font-family="Helvetica,sans-Serif" font-size="11.00" fill="#000000">[table]</text>
<polygon fill="none" stroke="#000000" points="633.5,-448.7 633.5,-467.7 814.5,-467.7 814.5,-448.7 633.5,-448.7"/>
<text text-anchor="start" x="636.5" y="-454.8" font-family="Helvetica,sans-Serif" font-size="11.00" fill="#000000">...</text>
<polygon fill="#ffffff" stroke="transparent" points="633.5,-429.7 633.5,-448.7 722.5,-448.7 722.5,-429.7 633.5,-429.7"/>
<polygon fill="none" stroke="#000000" points="633.5,-429.7 633.5,-448.7 722.5,-448.7 722.5,-429.7 633.5,-429.7"/>
<text text-anchor="start" x="636.5" y="-435.8" font-family="Helvetica,sans-Serif" font-size="11.00" fill="#000000">&lt; 3</text>
<polygon fill="#ffffff" stroke="transparent" points="722.5,-429.7 722.5,-448.7 768.5,-448.7 768.5,-429.7 722.5,-429.7"/>
<polygon fill="none" stroke="#000000" points="722.5,-429.7 722.5,-448.7 768.5,-448.7 768.5,-429.7 722.5,-429.7"/>
<text text-anchor="start" x="759.3862" y="-435.8" font-family="Helvetica,sans-Serif" font-size="11.00" fill="#000000"> &#160;</text>
<polygon fill="#ffffff" stroke="transparent" points="768.5,-429.7 768.5,-448.7 814.5,-448.7 814.5,-429.7 768.5,-429.7"/>
<polygon fill="none" stroke="#000000" points="768.5,-429.7 768.5,-448.7 814.5,-448.7 814.5,-429.7 768.5,-429.7"/>
<text text-anchor="start" x="805.3862" y="-435.8" font-family="Helvetica,sans-Serif" font-size="11.00" fill="#000000"> &#160;</text>
</a>
</g>
</g>
<!-- decision_and_actions&#45;&gt;reference_data -->
<g id="edge6" class="edge">
<title>decision_and_actions:w&#45;&gt;reference_data:e</title>
<path fill="none" stroke="#000000" d="M610.2025,-469.216C516.0488,-473.8865 381.2718,-469.9008 278,-416.7 252.0728,-403.3435 264.6653,-366.7 235.5,-372.7"/>
<polygon fill="#000000" stroke="#000000" points="616.6748,-468.858 624.8614,-472.0106 620.6687,-468.637 624.6626,-468.4161 624.6626,-468.4161 624.6626,-468.4161 620.6687,-468.637 624.4637,-464.8216 616.6748,-468.858 616.6748,-468.858"/>
<ellipse fill="none" stroke="#000000" cx="613.4797" cy="-469.0348" rx="3.2" ry="3.2"/>
</g>
<!-- decision_and_actions&#45;&gt;reference_data -->
<g id="edge7" class="edge">
<title>decision_and_actions:w&#45;&gt;reference_data:e</title>
<path fill="none" stroke="#000000" d="M610.2025,-479.6188C516.0488,-486.8865 381.2718,-482.9008 278,-429.7 252.0728,-416.3435 264.6653,-379.7 235.5,-372.7"/>
<polygon fill="#000000" stroke="#000000" points="616.6914,-479.0669 624.9677,-481.9758 620.677,-478.7278 624.6626,-478.3887 624.6626,-478.3887 624.6626,-478.3887 620.677,-478.7278 624.3574,-474.8017 616.6914,-479.0669 616.6914,-479.0669"/>
<ellipse fill="none" stroke="#000000" cx="613.5029" cy="-479.3381" rx="3.2" ry="3.2"/>
</g>
<!-- decision_and_actions&#45;&gt;referral -->
<g id="edge5" class="edge">
<title>decision_and_actions:w&#45;&gt;referral:e</title>
<path fill="none" stroke="#000000" d="M614.6839,-432.097C603.1884,-428.2749 591.7725,-424.13 581,-419.7 570.1421,-415.2348 558.8896,-409.7622 548.2441,-404.1497"/>
<polygon fill="#000000" stroke="#000000" points="625.2641,-431.3199 622.7984,-438.9305 621.2763,-438.4373 623.7419,-430.8268 625.2641,-431.3199"/>
<polyline fill="none" stroke="#000000" points="624.7923,-435.3717 620.987,-434.1389 "/>
<ellipse fill="none" stroke="#000000" cx="617.9428" cy="-433.1527" rx="3.2" ry="3.2"/>
</g>
<!-- interview -->
<g id="node7" class="node">
<title>interview</title>
<g id="a_node7"><a xlink:href="../../tables/interview.html" xlink:title="interview" target="_top">
<polygon fill="#ffffff" stroke="transparent" points="907,-323.2 907,-472.2 1059,-472.2 1059,-323.2 907,-323.2"/>
<polygon fill="#f5f5f5" stroke="transparent" points="907,-448.7 907,-471.7 1059,-471.7 1059,-448.7 907,-448.7"/>
<polygon fill="none" stroke="#000000" points="907,-448.7 907,-471.7 1059,-471.7 1059,-448.7 907,-448.7"/>
<text text-anchor="start" x="912" y="-457.3" font-family="Helvetica,sans-Serif" font-weight="bold" font-size="11.00" fill="#000000">interview</text>
<text text-anchor="start" x="1024.0437" y="-456.8" font-family="Helvetica,sans-Serif" font-size="11.00" fill="#000000">[table]</text>
<polygon fill="none" stroke="#000000" points="907,-426.7 907,-448.7 1059,-448.7 1059,-426.7 907,-426.7"/>
<image xlink:href="../../images/primaryKeys.png" width="11px" height="12px" preserveAspectRatio="xMinYMin meet" x="912" y="-443.7"/>
<text text-anchor="start" x="927" y="-433.8" font-family="Helvetica,sans-Serif" font-size="11.00" fill="#000000">interview_id</text>
<polygon fill="#ffffff" stroke="transparent" points="907,-404.7 907,-426.7 1059,-426.7 1059,-404.7 907,-404.7"/>
<polygon fill="none" stroke="#000000" points="907,-404.7 907,-426.7 1059,-426.7 1059,-404.7 907,-404.7"/>
<image xlink:href="../../images/foreignKeys.png" width="11px" height="12px" preserveAspectRatio="xMinYMin meet" x="912" y="-421.7"/>
<text text-anchor="start" x="927" y="-411.8" font-family="Helvetica,sans-Serif" font-size="11.00" fill="#000000">investigation_id</text>
<polygon fill="#ffffff" stroke="transparent" points="907,-382.7 907,-404.7 1059,-404.7 1059,-382.7 907,-382.7"/>
<polygon fill="none" stroke="#000000" points="907,-382.7 907,-404.7 1059,-404.7 1059,-382.7 907,-382.7"/>
<image xlink:href="../../images/foreignKeys.png" width="11px" height="12px" preserveAspectRatio="xMinYMin meet" x="912" y="-399.7"/>
<text text-anchor="start" x="927" y="-389.8" font-family="Helvetica,sans-Serif" font-size="11.00" fill="#000000">interviewee_role_id</text>
<polygon fill="#ffffff" stroke="transparent" points="907,-360.7 907,-382.7 1059,-382.7 1059,-360.7 907,-360.7"/>
<polygon fill="none" stroke="#000000" points="907,-360.7 907,-382.7 1059,-382.7 1059,-360.7 907,-360.7"/>
<image xlink:href="../../images/foreignKeys.png" width="11px" height="12px" preserveAspectRatio="xMinYMin meet" x="912" y="-377.7"/>
<text text-anchor="start" x="927" y="-367.8" font-family="Helvetica,sans-Serif" font-size="11.00" fill="#000000">legacy_id</text>
<polygon fill="none" stroke="#000000" points="907,-341.7 907,-360.7 1059,-360.7 1059,-341.7 907,-341.7"/>
<text text-anchor="start" x="910" y="-347.8" font-family="Helvetica,sans-Serif" font-size="11.00" fill="#000000">...</text>
<polygon fill="#ffffff" stroke="transparent" points="907,-322.7 907,-341.7 981,-341.7 981,-322.7 907,-322.7"/>
<polygon fill="none" stroke="#000000" points="907,-322.7 907,-341.7 981,-341.7 981,-322.7 907,-322.7"/>
<text text-anchor="start" x="910" y="-328.8" font-family="Helvetica,sans-Serif" font-size="11.00" fill="#000000">&lt; 2</text>
<polygon fill="#ffffff" stroke="transparent" points="981,-322.7 981,-341.7 1020,-341.7 1020,-322.7 981,-322.7"/>
<polygon fill="none" stroke="#000000" points="981,-322.7 981,-341.7 1020,-341.7 1020,-322.7 981,-322.7"/>
<text text-anchor="start" x="1010.8862" y="-328.8" font-family="Helvetica,sans-Serif" font-size="11.00" fill="#000000"> &#160;</text>
<polygon fill="#ffffff" stroke="transparent" points="1020,-322.7 1020,-341.7 1059,-341.7 1059,-322.7 1020,-322.7"/>
<polygon fill="none" stroke="#000000" points="1020,-322.7 1020,-341.7 1059,-341.7 1059,-322.7 1020,-322.7"/>
<text text-anchor="start" x="1049.8862" y="-328.8" font-family="Helvetica,sans-Serif" font-size="11.00" fill="#000000"> &#160;</text>
</a>
</g>
</g>
<!-- interview&#45;&gt;reference_data -->
<g id="edge8" class="edge">
<title>interview:w&#45;&gt;reference_data:e</title>
<path fill="none" stroke="#000000" d="M892.9123,-396.7413C866.6833,-411.4961 903.3067,-475.9582 866,-501.7 761.7434,-573.6376 707.529,-507.6039 581,-501.7 445.1319,-495.3603 386.5783,-540.6213 278,-458.7 243.9656,-433.0214 278.1348,-372.7 235.5,-372.7"/>
<polygon fill="#000000" stroke="#000000" points="899.1802,-395.3882 907.7597,-397.2189 903.0901,-394.5441 907,-393.7 907,-393.7 907,-393.7 903.0901,-394.5441 906.2403,-390.1811 899.1802,-395.3882 899.1802,-395.3882"/>
<ellipse fill="none" stroke="#000000" cx="896.0522" cy="-396.0635" rx="3.2" ry="3.2"/>
</g>
<!-- investigation -->
<g id="node8" class="node">
<title>investigation</title>
<g id="a_node8"><a xlink:href="../../tables/investigation.html" xlink:title="investigation" target="_top">
<polygon fill="#ffffff" stroke="transparent" points="660,-266.2 660,-327.2 787,-327.2 787,-266.2 660,-266.2"/>
<polygon fill="#f5f5f5" stroke="transparent" points="660.5,-303.7 660.5,-326.7 787.5,-326.7 787.5,-303.7 660.5,-303.7"/>
<polygon fill="none" stroke="#000000" points="660.5,-303.7 660.5,-326.7 787.5,-326.7 787.5,-303.7 660.5,-303.7"/>
<text text-anchor="start" x="665.5" y="-312.3" font-family="Helvetica,sans-Serif" font-weight="bold" font-size="11.00" fill="#000000">investigation</text>
<text text-anchor="start" x="753.0219" y="-311.8" font-family="Helvetica,sans-Serif" font-size="11.00" fill="#000000">[table]</text>
<polygon fill="none" stroke="#000000" points="660.5,-284.7 660.5,-303.7 787.5,-303.7 787.5,-284.7 660.5,-284.7"/>
<text text-anchor="start" x="663.5" y="-290.8" font-family="Helvetica,sans-Serif" font-size="11.00" fill="#000000">...</text>
<polygon fill="#ffffff" stroke="transparent" points="660.5,-265.7 660.5,-284.7 717.5,-284.7 717.5,-265.7 660.5,-265.7"/>
<polygon fill="none" stroke="#000000" points="660.5,-265.7 660.5,-284.7 717.5,-284.7 717.5,-265.7 660.5,-265.7"/>
<text text-anchor="start" x="663.5" y="-271.8" font-family="Helvetica,sans-Serif" font-size="11.00" fill="#000000">&lt; 1</text>
<polygon fill="#ffffff" stroke="transparent" points="717.5,-265.7 717.5,-284.7 747.5,-284.7 747.5,-265.7 717.5,-265.7"/>
<polygon fill="none" stroke="#000000" points="717.5,-265.7 717.5,-284.7 747.5,-284.7 747.5,-265.7 717.5,-265.7"/>
<text text-anchor="start" x="738.3862" y="-271.8" font-family="Helvetica,sans-Serif" font-size="11.00" fill="#000000"> &#160;</text>
<polygon fill="#ffffff" stroke="transparent" points="747.5,-265.7 747.5,-284.7 787.5,-284.7 787.5,-265.7 747.5,-265.7"/>
<polygon fill="none" stroke="#000000" points="747.5,-265.7 747.5,-284.7 787.5,-284.7 787.5,-265.7 747.5,-265.7"/>
<text text-anchor="start" x="768.9053" y="-271.8" font-family="Helvetica,sans-Serif" font-size="11.00" fill="#000000">1 &gt;</text>
</a>
</g>
</g>
<!-- interview&#45;&gt;investigation -->
<g id="edge9" class="edge">
<title>interview:w&#45;&gt;investigation:e</title>
<path fill="none" stroke="#000000" d="M892.9286,-412.3165C874.51,-400.6289 889.0494,-361.3786 866,-337.7 838.1021,-309.0406 827.4957,-293.7 787.5,-293.7"/>
<polygon fill="#000000" stroke="#000000" points="899.2217,-413.8296 906.1583,-419.2002 903.1109,-414.7648 907,-415.7 907,-415.7 907,-415.7 903.1109,-414.7648 907.8417,-412.1998 899.2217,-413.8296 899.2217,-413.8296"/>
<ellipse fill="none" stroke="#000000" cx="896.1104" cy="-413.0815" rx="3.2" ry="3.2"/>
</g>
<!-- investigation&#45;&gt;referral -->
<g id="edge10" class="edge">
<title>investigation:w&#45;&gt;referral:e</title>
<path fill="none" stroke="#000000" d="M649.8997,-294.132C609.3083,-297.3912 569.0287,-318.5229 539.7221,-338.0494"/>
<polygon fill="#000000" stroke="#000000" points="659.5378,-289.7359 659.8636,-297.7293 658.2649,-297.7944 657.9391,-289.8011 659.5378,-289.7359"/>
<polyline fill="none" stroke="#000000" points="660.5,-293.7 656.5033,-293.8629 "/>
<ellipse fill="none" stroke="#000000" cx="653.306" cy="-293.9932" rx="3.2" ry="3.2"/>
</g>
<!-- plan -->
<g id="node9" class="node">
<title>plan</title>
<g id="a_node9"><a xlink:href="../../tables/plan.html" xlink:title="plan" target="_top">
<polygon fill="#ffffff" stroke="transparent" points="461,-232.2 461,-293.2 529,-293.2 529,-232.2 461,-232.2"/>
<polygon fill="#f5f5f5" stroke="transparent" points="461,-269.7 461,-292.7 529,-292.7 529,-269.7 461,-269.7"/>
<polygon fill="none" stroke="#000000" points="461,-269.7 461,-292.7 529,-292.7 529,-269.7 461,-269.7"/>
<text text-anchor="start" x="466" y="-278.3" font-family="Helvetica,sans-Serif" font-weight="bold" font-size="11.00" fill="#000000">plan</text>
<text text-anchor="start" x="494.5219" y="-277.8" font-family="Helvetica,sans-Serif" font-size="11.00" fill="#000000">[table]</text>
<polygon fill="none" stroke="#000000" points="461,-250.7 461,-269.7 529,-269.7 529,-250.7 461,-250.7"/>
<text text-anchor="start" x="464" y="-256.8" font-family="Helvetica,sans-Serif" font-size="11.00" fill="#000000">...</text>
<polygon fill="#ffffff" stroke="transparent" points="461,-231.7 461,-250.7 489,-250.7 489,-231.7 461,-231.7"/>
<polygon fill="none" stroke="#000000" points="461,-231.7 461,-250.7 489,-250.7 489,-231.7 461,-231.7"/>
<text text-anchor="start" x="464" y="-237.8" font-family="Helvetica,sans-Serif" font-size="11.00" fill="#000000">&lt; 1</text>
<polygon fill="#ffffff" stroke="transparent" points="489,-231.7 489,-250.7 504,-250.7 504,-231.7 489,-231.7"/>
<polygon fill="none" stroke="#000000" points="489,-231.7 489,-250.7 504,-250.7 504,-231.7 489,-231.7"/>
<text text-anchor="start" x="494.8862" y="-237.8" font-family="Helvetica,sans-Serif" font-size="11.00" fill="#000000"> &#160;</text>
<polygon fill="#ffffff" stroke="transparent" points="504,-231.7 504,-250.7 529,-250.7 529,-231.7 504,-231.7"/>
<polygon fill="none" stroke="#000000" points="504,-231.7 504,-250.7 529,-250.7 529,-231.7 504,-231.7"/>
<text text-anchor="start" x="510.4053" y="-237.8" font-family="Helvetica,sans-Serif" font-size="11.00" fill="#000000">2 &gt;</text>
</a>
</g>
</g>
<!-- plan&#45;&gt;csip_record -->
<g id="edge11" class="edge">
<title>plan:w&#45;&gt;csip_record:e</title>
<path fill="none" stroke="#000000" d="M450.5974,-259.7246C436.8323,-259.7874 422.5452,-259.9649 409.0624,-260.1893"/>
<polygon fill="#000000" stroke="#000000" points="460.1905,-255.7019 460.2095,-263.7019 458.6095,-263.7057 458.5905,-255.7057 460.1905,-255.7019"/>
<polyline fill="none" stroke="#000000" points="461,-259.7 457,-259.7095 "/>
<ellipse fill="none" stroke="#000000" cx="453.8" cy="-259.7171" rx="3.2" ry="3.2"/>
</g>
<!-- safer_custody_screening_outcome -->
<g id="node10" class="node">
<title>safer_custody_screening_outcome</title>
<g id="a_node10"><a xlink:href="../../tables/safer_custody_screening_outcome.html" xlink:title="safer_custody_screening_outcome" target="_top">
<polygon fill="#ffffff" stroke="transparent" points="589,-348.2 589,-409.2 858,-409.2 858,-348.2 589,-348.2"/>
<polygon fill="#f5f5f5" stroke="transparent" points="589.5,-385.7 589.5,-408.7 858.5,-408.7 858.5,-385.7 589.5,-385.7"/>
<polygon fill="none" stroke="#000000" points="589.5,-385.7 589.5,-408.7 858.5,-408.7 858.5,-385.7 589.5,-385.7"/>
<text text-anchor="start" x="594.5" y="-394.3" font-family="Helvetica,sans-Serif" font-weight="bold" font-size="11.00" fill="#000000">safer_custody_screening_outcome</text>
<text text-anchor="start" x="824.0219" y="-393.8" font-family="Helvetica,sans-Serif" font-size="11.00" fill="#000000">[table]</text>
<polygon fill="none" stroke="#000000" points="589.5,-366.7 589.5,-385.7 858.5,-385.7 858.5,-366.7 589.5,-366.7"/>
<text text-anchor="start" x="592.5" y="-372.8" font-family="Helvetica,sans-Serif" font-size="11.00" fill="#000000">...</text>
<polygon fill="#ffffff" stroke="transparent" points="589.5,-347.7 589.5,-366.7 722.5,-366.7 722.5,-347.7 589.5,-347.7"/>
<polygon fill="none" stroke="#000000" points="589.5,-347.7 589.5,-366.7 722.5,-366.7 722.5,-347.7 589.5,-347.7"/>
<text text-anchor="start" x="592.5" y="-353.8" font-family="Helvetica,sans-Serif" font-size="11.00" fill="#000000">&lt; 2</text>
<polygon fill="#ffffff" stroke="transparent" points="722.5,-347.7 722.5,-366.7 790.5,-366.7 790.5,-347.7 722.5,-347.7"/>
<polygon fill="none" stroke="#000000" points="722.5,-347.7 722.5,-366.7 790.5,-366.7 790.5,-347.7 722.5,-347.7"/>
<text text-anchor="start" x="781.3862" y="-353.8" font-family="Helvetica,sans-Serif" font-size="11.00" fill="#000000"> &#160;</text>
<polygon fill="#ffffff" stroke="transparent" points="790.5,-347.7 790.5,-366.7 858.5,-366.7 858.5,-347.7 790.5,-347.7"/>
<polygon fill="none" stroke="#000000" points="790.5,-347.7 790.5,-366.7 858.5,-366.7 858.5,-347.7 790.5,-347.7"/>
<text text-anchor="start" x="849.3862" y="-353.8" font-family="Helvetica,sans-Serif" font-size="11.00" fill="#000000"> &#160;</text>
</a>
</g>
</g>
<!-- safer_custody_screening_outcome&#45;&gt;reference_data -->
<g id="edge17" class="edge">
<title>safer_custody_screening_outcome:w&#45;&gt;reference_data:e</title>
<path fill="none" stroke="#000000" d="M566.2473,-411.609C560.099,-412.4038 554.0001,-413.1075 548,-413.7 428.4424,-425.5055 391.6243,-439.7243 278,-400.7 256.6068,-393.3525 258.1198,-372.7 235.5,-372.7"/>
<polygon fill="#000000" stroke="#000000" points="572.7363,-410.704 581.157,-413.1643 576.698,-410.1514 580.6596,-409.5988 580.6596,-409.5988 580.6596,-409.5988 576.698,-410.1514 580.1623,-406.0333 572.7363,-410.704 572.7363,-410.704"/>
<ellipse fill="none" stroke="#000000" cx="569.567" cy="-411.146" rx="3.2" ry="3.2"/>
</g>
<!-- safer_custody_screening_outcome&#45;&gt;referral -->
<g id="edge18" class="edge">
<title>safer_custody_screening_outcome:w&#45;&gt;referral:e</title>
<path fill="none" stroke="#000000" d="M570.2115,-374.6749C562.6027,-374.4751 555.2564,-374.2822 548.332,-374.1004"/>
<polygon fill="#000000" stroke="#000000" points="580.0404,-370.9316 579.8303,-378.9289 578.2309,-378.8869 578.4409,-370.8896 580.0404,-370.9316"/>
<polyline fill="none" stroke="#000000" points="580.7351,-374.9512 576.7364,-374.8462 "/>
<ellipse fill="none" stroke="#000000" cx="573.5376" cy="-374.7622" rx="3.2" ry="3.2"/>
</g>
</g>
</svg>
