<?xml version="1.0" encoding="UTF-8" standalone="no"?>
<!DOCTYPE svg PUBLIC "-//W3C//DTD SVG 1.1//EN"
 "http://www.w3.org/Graphics/SVG/1.1/DTD/svg11.dtd">
<!-- Generated by graphviz version 2.40.1 (20161225.0304)
 -->
<!-- Title: twoDegreesRelationshipsDiagramImplied Pages: 1 -->
<svg width="1268pt" height="1084pt"
 viewBox="0.00 0.00 1268.00 1084.45" xmlns="http://www.w3.org/2000/svg" xmlns:xlink="http://www.w3.org/1999/xlink">
<g id="graph0" class="graph" transform="scale(1 1) rotate(0) translate(4 1080.4488)">
<title>twoDegreesRelationshipsDiagramImplied</title>
<polygon fill="#ffffff" stroke="transparent" points="-4,4 -4,-1080.4488 1264,-1080.4488 1264,4 -4,4"/>
<text text-anchor="middle" x="72.4936" y="-7.3" font-family="Helvetica,sans-Serif" font-size="11.00" fill="#000000">Generated by SchemaSpy</text>
<!-- contributory_factor -->
<g id="node1" class="node">
<title>contributory_factor</title>
<g id="a_node1"><a xlink:href="../../tables/contributory_factor.html" xlink:title="contributory_factor" target="_top">
<polygon fill="#ffffff" stroke="transparent" points="841,-721.4488 841,-782.4488 1010,-782.4488 1010,-721.4488 841,-721.4488"/>
<polygon fill="#f5f5f5" stroke="transparent" points="841.5,-758.9488 841.5,-781.9488 1010.5,-781.9488 1010.5,-758.9488 841.5,-758.9488"/>
<polygon fill="none" stroke="#000000" points="841.5,-758.9488 841.5,-781.9488 1010.5,-781.9488 1010.5,-758.9488 841.5,-758.9488"/>
<text text-anchor="start" x="846.5" y="-767.5488" font-family="Helvetica,sans-Serif" font-weight="bold" font-size="11.00" fill="#000000">contributory_factor</text>
<text text-anchor="start" x="976.0219" y="-767.0488" font-family="Helvetica,sans-Serif" font-size="11.00" fill="#000000">[table]</text>
<polygon fill="none" stroke="#000000" points="841.5,-739.9488 841.5,-758.9488 1010.5,-758.9488 1010.5,-739.9488 841.5,-739.9488"/>
<text text-anchor="start" x="844.5" y="-746.0488" font-family="Helvetica,sans-Serif" font-size="11.00" fill="#000000">...</text>
<polygon fill="#ffffff" stroke="transparent" points="841.5,-720.9488 841.5,-739.9488 924.5,-739.9488 924.5,-720.9488 841.5,-720.9488"/>
<polygon fill="none" stroke="#000000" points="841.5,-720.9488 841.5,-739.9488 924.5,-739.9488 924.5,-720.9488 841.5,-720.9488"/>
<text text-anchor="start" x="844.5" y="-727.0488" font-family="Helvetica,sans-Serif" font-size="11.00" fill="#000000">&lt; 3</text>
<polygon fill="#ffffff" stroke="transparent" points="924.5,-720.9488 924.5,-739.9488 967.5,-739.9488 967.5,-720.9488 924.5,-720.9488"/>
<polygon fill="none" stroke="#000000" points="924.5,-720.9488 924.5,-739.9488 967.5,-739.9488 967.5,-720.9488 924.5,-720.9488"/>
<text text-anchor="start" x="958.3862" y="-727.0488" font-family="Helvetica,sans-Serif" font-size="11.00" fill="#000000"> &#160;</text>
<polygon fill="#ffffff" stroke="transparent" points="967.5,-720.9488 967.5,-739.9488 1010.5,-739.9488 1010.5,-720.9488 967.5,-720.9488"/>
<polygon fill="none" stroke="#000000" points="967.5,-720.9488 967.5,-739.9488 1010.5,-739.9488 1010.5,-720.9488 967.5,-720.9488"/>
<text text-anchor="start" x="1001.3862" y="-727.0488" font-family="Helvetica,sans-Serif" font-size="11.00" fill="#000000"> &#160;</text>
</a>
</g>
</g>
<!-- reference_data -->
<g id="node2" class="node">
<title>reference_data</title>
<g id="a_node2"><a xlink:href="../../tables/reference_data.html" xlink:title="reference_data" target="_top">
<polygon fill="#ffffff" stroke="transparent" points="15,-475.4488 15,-536.4488 155,-536.4488 155,-475.4488 15,-475.4488"/>
<polygon fill="#f5f5f5" stroke="transparent" points="15,-512.9488 15,-535.9488 155,-535.9488 155,-512.9488 15,-512.9488"/>
<polygon fill="none" stroke="#000000" points="15,-512.9488 15,-535.9488 155,-535.9488 155,-512.9488 15,-512.9488"/>
<text text-anchor="start" x="20" y="-521.5488" font-family="Helvetica,sans-Serif" font-weight="bold" font-size="11.00" fill="#000000">reference_data</text>
<text text-anchor="start" x="120.5219" y="-521.0488" font-family="Helvetica,sans-Serif" font-size="11.00" fill="#000000">[table]</text>
<polygon fill="none" stroke="#000000" points="15,-493.9488 15,-512.9488 155,-512.9488 155,-493.9488 15,-493.9488"/>
<text text-anchor="start" x="18" y="-500.0488" font-family="Helvetica,sans-Serif" font-size="11.00" fill="#000000">...</text>
<polygon fill="#ffffff" stroke="transparent" points="15,-474.9488 15,-493.9488 52,-493.9488 52,-474.9488 15,-474.9488"/>
<polygon fill="none" stroke="#000000" points="15,-474.9488 15,-493.9488 52,-493.9488 52,-474.9488 15,-474.9488"/>
<text text-anchor="start" x="18" y="-481.0488" font-family="Helvetica,sans-Serif" font-size="11.00" fill="#000000"> &#160;</text>
<polygon fill="#ffffff" stroke="transparent" points="52,-474.9488 52,-493.9488 115,-493.9488 115,-474.9488 52,-474.9488"/>
<polygon fill="none" stroke="#000000" points="52,-474.9488 52,-493.9488 115,-493.9488 115,-474.9488 52,-474.9488"/>
<text text-anchor="start" x="67.3807" y="-481.0488" font-family="Helvetica,sans-Serif" font-size="11.00" fill="#000000">112 rows</text>
<polygon fill="#ffffff" stroke="transparent" points="115,-474.9488 115,-493.9488 155,-493.9488 155,-474.9488 115,-474.9488"/>
<polygon fill="none" stroke="#000000" points="115,-474.9488 115,-493.9488 155,-493.9488 155,-474.9488 115,-474.9488"/>
<text text-anchor="start" x="130.2904" y="-481.0488" font-family="Helvetica,sans-Serif" font-size="11.00" fill="#000000">10 &gt;</text>
</a>
</g>
</g>
<!-- contributory_factor&#45;&gt;reference_data -->
<g id="edge1" class="edge">
<title>contributory_factor:w&#45;&gt;reference_data:e</title>
<path fill="none" stroke="#000000" d="M818.0208,-747.1399C661.6975,-739.9233 387.8366,-726.3513 367,-718.9488 262.356,-681.7721 164.7153,-590.6883 116.4856,-540.5098"/>
<polygon fill="#000000" stroke="#000000" points="824.7779,-747.4506 832.6041,-751.4143 828.7737,-747.6343 832.7695,-747.8181 832.7695,-747.8181 832.7695,-747.8181 828.7737,-747.6343 832.9348,-744.2219 824.7779,-747.4506 824.7779,-747.4506"/>
<ellipse fill="none" stroke="#000000" cx="821.5813" cy="-747.3036" rx="3.2" ry="3.2"/>
</g>
<!-- audit_revision -->
<g id="node3" class="node">
<title>audit_revision</title>
<g id="a_node3"><a xlink:href="../../tables/audit_revision.html" xlink:title="audit_revision" target="_top">
<polygon fill="#ffffff" stroke="transparent" points="18,-895.4488 18,-956.4488 152,-956.4488 152,-895.4488 18,-895.4488"/>
<polygon fill="#f5f5f5" stroke="transparent" points="18,-932.9488 18,-955.9488 152,-955.9488 152,-932.9488 18,-932.9488"/>
<polygon fill="none" stroke="#000000" points="18,-932.9488 18,-955.9488 152,-955.9488 152,-932.9488 18,-932.9488"/>
<text text-anchor="start" x="23" y="-941.5488" font-family="Helvetica,sans-Serif" font-weight="bold" font-size="11.00" fill="#000000">audit_revision</text>
<text text-anchor="start" x="117.5219" y="-941.0488" font-family="Helvetica,sans-Serif" font-size="11.00" fill="#000000">[table]</text>
<polygon fill="none" stroke="#000000" points="18,-913.9488 18,-932.9488 152,-932.9488 152,-913.9488 18,-913.9488"/>
<text text-anchor="start" x="21" y="-920.0488" font-family="Helvetica,sans-Serif" font-size="11.00" fill="#000000">...</text>
<polygon fill="#ffffff" stroke="transparent" points="18,-894.9488 18,-913.9488 71,-913.9488 71,-894.9488 18,-894.9488"/>
<polygon fill="none" stroke="#000000" points="18,-894.9488 18,-913.9488 71,-913.9488 71,-894.9488 18,-894.9488"/>
<text text-anchor="start" x="21" y="-901.0488" font-family="Helvetica,sans-Serif" font-size="11.00" fill="#000000"> &#160;</text>
<polygon fill="#ffffff" stroke="transparent" points="71,-894.9488 71,-913.9488 104,-913.9488 104,-894.9488 71,-894.9488"/>
<polygon fill="none" stroke="#000000" points="71,-894.9488 71,-913.9488 104,-913.9488 104,-894.9488 71,-894.9488"/>
<text text-anchor="start" x="94.8862" y="-901.0488" font-family="Helvetica,sans-Serif" font-size="11.00" fill="#000000"> &#160;</text>
<polygon fill="#ffffff" stroke="transparent" points="104,-894.9488 104,-913.9488 152,-913.9488 152,-894.9488 104,-894.9488"/>
<polygon fill="none" stroke="#000000" points="104,-894.9488 104,-913.9488 152,-913.9488 152,-894.9488 104,-894.9488"/>
<text text-anchor="start" x="127.2904" y="-901.0488" font-family="Helvetica,sans-Serif" font-size="11.00" fill="#000000">32 &gt;</text>
</a>
</g>
</g>
<!-- contributory_factor&#45;&gt;audit_revision -->
<g id="edge2" class="edge">
<title>contributory_factor:w&#45;&gt;audit_revision:e</title>
<path fill="none" stroke="#000000" stroke-dasharray="5,2" d="M822.7659,-778.234C808.97,-783.5166 795.3385,-789.7192 783,-796.9488 765.6379,-807.122 768.4921,-820.0128 750,-827.9488 638.1172,-875.9639 311.1442,-803.02 203,-858.9488 170.6935,-875.6567 188.3712,-922.9488 152,-922.9488"/>
<polygon fill="#000000" stroke="#000000" points="830.6969,-771.0679 833.4493,-778.5795 831.947,-779.13 829.1946,-771.6184 830.6969,-771.0679"/>
<polyline fill="none" stroke="#000000" points="832.8243,-774.5485 829.0685,-775.9247 "/>
<ellipse fill="none" stroke="#000000" cx="826.0638" cy="-777.0256" rx="3.2" ry="3.2"/>
</g>
<!-- referral -->
<g id="node4" class="node">
<title>referral</title>
<g id="a_node4"><a xlink:href="../../tables/referral.html" xlink:title="referral" target="_top">
<polygon fill="#ffffff" stroke="transparent" points="375,-199.9488 375,-707.9488 742,-707.9488 742,-199.9488 375,-199.9488"/>
<polygon fill="#f5f5f5" stroke="transparent" points="377.5,-682.9488 377.5,-705.9488 740.5,-705.9488 740.5,-682.9488 377.5,-682.9488"/>
<polygon fill="none" stroke="#000000" points="377.5,-682.9488 377.5,-705.9488 740.5,-705.9488 740.5,-682.9488 377.5,-682.9488"/>
<text text-anchor="start" x="382.5" y="-691.5488" font-family="Helvetica,sans-Serif" font-weight="bold" font-size="11.00" fill="#000000">referral</text>
<text text-anchor="start" x="705.5437" y="-691.0488" font-family="Helvetica,sans-Serif" font-size="11.00" fill="#000000">[table]</text>
<polygon fill="none" stroke="#000000" points="377.5,-660.9488 377.5,-682.9488 646.5,-682.9488 646.5,-660.9488 377.5,-660.9488"/>
<image xlink:href="../../images/primaryKeys.png" width="11px" height="12px" preserveAspectRatio="xMinYMin meet" x="382.5" y="-677.949"/>
<text text-anchor="start" x="397.5" y="-668.0488" font-family="Helvetica,sans-Serif" font-size="11.00" fill="#000000">referral_id</text>
<polygon fill="none" stroke="#000000" points="646.5,-660.9488 646.5,-682.9488 740.5,-682.9488 740.5,-660.9488 646.5,-660.9488"/>
<text text-anchor="start" x="649.4758" y="-668.6488" font-family="Helvetica,sans-Serif" font-size="11.00" fill="#000000">uuid[2147483647]</text>
<polygon fill="none" stroke="#000000" points="377.5,-638.9488 377.5,-660.9488 646.5,-660.9488 646.5,-638.9488 377.5,-638.9488"/>
<text text-anchor="start" x="397.5" y="-646.0488" font-family="Helvetica,sans-Serif" font-size="11.00" fill="#000000">incident_date</text>
<polygon fill="none" stroke="#000000" points="646.5,-638.9488 646.5,-660.9488 740.5,-660.9488 740.5,-638.9488 646.5,-638.9488"/>
<text text-anchor="start" x="649.5" y="-646.6488" font-family="Helvetica,sans-Serif" font-size="11.00" fill="#000000">date[13]</text>
<polygon fill="none" stroke="#000000" points="377.5,-616.9488 377.5,-638.9488 646.5,-638.9488 646.5,-616.9488 377.5,-616.9488"/>
<text text-anchor="start" x="397.5" y="-624.0488" font-family="Helvetica,sans-Serif" font-size="11.00" fill="#000000">incident_time</text>
<polygon fill="none" stroke="#000000" points="646.5,-616.9488 646.5,-638.9488 740.5,-638.9488 740.5,-616.9488 646.5,-616.9488"/>
<text text-anchor="start" x="649.5" y="-624.6488" font-family="Helvetica,sans-Serif" font-size="11.00" fill="#000000">time[15,6]</text>
<polygon fill="#ffffff" stroke="transparent" points="377.5,-594.9488 377.5,-616.9488 646.5,-616.9488 646.5,-594.9488 377.5,-594.9488"/>
<polygon fill="none" stroke="#000000" points="377.5,-594.9488 377.5,-616.9488 646.5,-616.9488 646.5,-594.9488 377.5,-594.9488"/>
<image xlink:href="../../images/foreignKeys.png" width="11px" height="12px" preserveAspectRatio="xMinYMin meet" x="382.5" y="-611.949"/>
<text text-anchor="start" x="397.5" y="-602.0488" font-family="Helvetica,sans-Serif" font-size="11.00" fill="#000000">incident_type_id</text>
<polygon fill="none" stroke="#000000" points="646.5,-594.9488 646.5,-616.9488 740.5,-616.9488 740.5,-594.9488 646.5,-594.9488"/>
<text text-anchor="start" x="649.5" y="-602.6488" font-family="Helvetica,sans-Serif" font-size="11.00" fill="#000000">int4[10]</text>
<polygon fill="#ffffff" stroke="transparent" points="377.5,-572.9488 377.5,-594.9488 646.5,-594.9488 646.5,-572.9488 377.5,-572.9488"/>
<polygon fill="none" stroke="#000000" points="377.5,-572.9488 377.5,-594.9488 646.5,-594.9488 646.5,-572.9488 377.5,-572.9488"/>
<image xlink:href="../../images/foreignKeys.png" width="11px" height="12px" preserveAspectRatio="xMinYMin meet" x="382.5" y="-589.949"/>
<text text-anchor="start" x="397.5" y="-580.0488" font-family="Helvetica,sans-Serif" font-size="11.00" fill="#000000">incident_location_id</text>
<polygon fill="none" stroke="#000000" points="646.5,-572.9488 646.5,-594.9488 740.5,-594.9488 740.5,-572.9488 646.5,-572.9488"/>
<text text-anchor="start" x="649.5" y="-580.6488" font-family="Helvetica,sans-Serif" font-size="11.00" fill="#000000">int4[10]</text>
<polygon fill="none" stroke="#000000" points="377.5,-550.9488 377.5,-572.9488 646.5,-572.9488 646.5,-550.9488 377.5,-550.9488"/>
<text text-anchor="start" x="397.5" y="-558.0488" font-family="Helvetica,sans-Serif" font-size="11.00" fill="#000000">referred_by</text>
<polygon fill="none" stroke="#000000" points="646.5,-550.9488 646.5,-572.9488 740.5,-572.9488 740.5,-550.9488 646.5,-550.9488"/>
<text text-anchor="start" x="649.5" y="-558.6488" font-family="Helvetica,sans-Serif" font-size="11.00" fill="#000000">varchar[240]</text>
<polygon fill="#ffffff" stroke="transparent" points="377.5,-528.9488 377.5,-550.9488 646.5,-550.9488 646.5,-528.9488 377.5,-528.9488"/>
<polygon fill="none" stroke="#000000" points="377.5,-528.9488 377.5,-550.9488 646.5,-550.9488 646.5,-528.9488 377.5,-528.9488"/>
<image xlink:href="../../images/foreignKeys.png" width="11px" height="12px" preserveAspectRatio="xMinYMin meet" x="382.5" y="-545.949"/>
<text text-anchor="start" x="397.5" y="-536.0488" font-family="Helvetica,sans-Serif" font-size="11.00" fill="#000000">referer_area_of_work_id</text>
<polygon fill="none" stroke="#000000" points="646.5,-528.9488 646.5,-550.9488 740.5,-550.9488 740.5,-528.9488 646.5,-528.9488"/>
<text text-anchor="start" x="649.5" y="-536.6488" font-family="Helvetica,sans-Serif" font-size="11.00" fill="#000000">int4[10]</text>
<polygon fill="#ffffff" stroke="transparent" points="377.5,-506.9488 377.5,-528.9488 646.5,-528.9488 646.5,-506.9488 377.5,-506.9488"/>
<polygon fill="none" stroke="#000000" points="377.5,-506.9488 377.5,-528.9488 646.5,-528.9488 646.5,-506.9488 377.5,-506.9488"/>
<text text-anchor="start" x="397.5" y="-514.0488" font-family="Helvetica,sans-Serif" font-size="11.00" fill="#000000">referral_date</text>
<polygon fill="none" stroke="#000000" points="646.5,-506.9488 646.5,-528.9488 740.5,-528.9488 740.5,-506.9488 646.5,-506.9488"/>
<text text-anchor="start" x="649.5" y="-514.6488" font-family="Helvetica,sans-Serif" font-size="11.00" fill="#000000">date[13]</text>
<polygon fill="none" stroke="#000000" points="377.5,-484.9488 377.5,-506.9488 646.5,-506.9488 646.5,-484.9488 377.5,-484.9488"/>
<text text-anchor="start" x="397.5" y="-492.0488" font-family="Helvetica,sans-Serif" font-size="11.00" fill="#000000">proactive_referral</text>
<polygon fill="none" stroke="#000000" points="646.5,-484.9488 646.5,-506.9488 740.5,-506.9488 740.5,-484.9488 646.5,-484.9488"/>
<text text-anchor="start" x="649.5" y="-492.6488" font-family="Helvetica,sans-Serif" font-size="11.00" fill="#000000">bool[1]</text>
<polygon fill="none" stroke="#000000" points="377.5,-462.9488 377.5,-484.9488 646.5,-484.9488 646.5,-462.9488 377.5,-462.9488"/>
<text text-anchor="start" x="397.5" y="-470.0488" font-family="Helvetica,sans-Serif" font-size="11.00" fill="#000000">staff_assaulted</text>
<polygon fill="none" stroke="#000000" points="646.5,-462.9488 646.5,-484.9488 740.5,-484.9488 740.5,-462.9488 646.5,-462.9488"/>
<text text-anchor="start" x="649.5" y="-470.6488" font-family="Helvetica,sans-Serif" font-size="11.00" fill="#000000">bool[1]</text>
<polygon fill="none" stroke="#000000" points="377.5,-440.9488 377.5,-462.9488 646.5,-462.9488 646.5,-440.9488 377.5,-440.9488"/>
<text text-anchor="start" x="397.5" y="-448.0488" font-family="Helvetica,sans-Serif" font-size="11.00" fill="#000000">assaulted_staff_name</text>
<polygon fill="none" stroke="#000000" points="646.5,-440.9488 646.5,-462.9488 740.5,-462.9488 740.5,-440.9488 646.5,-440.9488"/>
<text text-anchor="start" x="649.5" y="-448.6488" font-family="Helvetica,sans-Serif" font-size="11.00" fill="#000000">text[2147483647]</text>
<polygon fill="#ffffff" stroke="transparent" points="377.5,-418.9488 377.5,-440.9488 646.5,-440.9488 646.5,-418.9488 377.5,-418.9488"/>
<polygon fill="none" stroke="#000000" points="377.5,-418.9488 377.5,-440.9488 646.5,-440.9488 646.5,-418.9488 377.5,-418.9488"/>
<image xlink:href="../../images/foreignKeys.png" width="11px" height="12px" preserveAspectRatio="xMinYMin meet" x="382.5" y="-435.949"/>
<text text-anchor="start" x="397.5" y="-426.0488" font-family="Helvetica,sans-Serif" font-size="11.00" fill="#000000">incident_involvement_id</text>
<polygon fill="none" stroke="#000000" points="646.5,-418.9488 646.5,-440.9488 740.5,-440.9488 740.5,-418.9488 646.5,-418.9488"/>
<text text-anchor="start" x="649.5" y="-426.6488" font-family="Helvetica,sans-Serif" font-size="11.00" fill="#000000">int4[10]</text>
<polygon fill="none" stroke="#000000" points="377.5,-396.9488 377.5,-418.9488 646.5,-418.9488 646.5,-396.9488 377.5,-396.9488"/>
<text text-anchor="start" x="397.5" y="-404.0488" font-family="Helvetica,sans-Serif" font-size="11.00" fill="#000000">description_of_concern</text>
<polygon fill="none" stroke="#000000" points="646.5,-396.9488 646.5,-418.9488 740.5,-418.9488 740.5,-396.9488 646.5,-396.9488"/>
<text text-anchor="start" x="649.5" y="-404.6488" font-family="Helvetica,sans-Serif" font-size="11.00" fill="#000000">text[2147483647]</text>
<polygon fill="none" stroke="#000000" points="377.5,-374.9488 377.5,-396.9488 646.5,-396.9488 646.5,-374.9488 377.5,-374.9488"/>
<text text-anchor="start" x="397.5" y="-382.0488" font-family="Helvetica,sans-Serif" font-size="11.00" fill="#000000">known_reasons</text>
<polygon fill="none" stroke="#000000" points="646.5,-374.9488 646.5,-396.9488 740.5,-396.9488 740.5,-374.9488 646.5,-374.9488"/>
<text text-anchor="start" x="649.5" y="-382.6488" font-family="Helvetica,sans-Serif" font-size="11.00" fill="#000000">text[2147483647]</text>
<polygon fill="none" stroke="#000000" points="377.5,-352.9488 377.5,-374.9488 646.5,-374.9488 646.5,-352.9488 377.5,-352.9488"/>
<text text-anchor="start" x="397.5" y="-360.0488" font-family="Helvetica,sans-Serif" font-size="11.00" fill="#000000">other_information</text>
<polygon fill="none" stroke="#000000" points="646.5,-352.9488 646.5,-374.9488 740.5,-374.9488 740.5,-352.9488 646.5,-352.9488"/>
<text text-anchor="start" x="649.5" y="-360.6488" font-family="Helvetica,sans-Serif" font-size="11.00" fill="#000000">text[2147483647]</text>
<polygon fill="none" stroke="#000000" points="377.5,-330.9488 377.5,-352.9488 646.5,-352.9488 646.5,-330.9488 377.5,-330.9488"/>
<text text-anchor="start" x="397.5" y="-338.0488" font-family="Helvetica,sans-Serif" font-size="11.00" fill="#000000">safer_custody_team_informed</text>
<polygon fill="none" stroke="#000000" points="646.5,-330.9488 646.5,-352.9488 740.5,-352.9488 740.5,-330.9488 646.5,-330.9488"/>
<text text-anchor="start" x="649.5" y="-338.6488" font-family="Helvetica,sans-Serif" font-size="11.00" fill="#000000">varchar[12]</text>
<polygon fill="none" stroke="#000000" points="377.5,-308.9488 377.5,-330.9488 646.5,-330.9488 646.5,-308.9488 377.5,-308.9488"/>
<text text-anchor="start" x="397.5" y="-316.0488" font-family="Helvetica,sans-Serif" font-size="11.00" fill="#000000">referral_complete</text>
<polygon fill="none" stroke="#000000" points="646.5,-308.9488 646.5,-330.9488 740.5,-330.9488 740.5,-308.9488 646.5,-308.9488"/>
<text text-anchor="start" x="649.5" y="-316.6488" font-family="Helvetica,sans-Serif" font-size="11.00" fill="#000000">bool[1]</text>
<polygon fill="none" stroke="#000000" points="377.5,-286.9488 377.5,-308.9488 646.5,-308.9488 646.5,-286.9488 377.5,-286.9488"/>
<text text-anchor="start" x="397.5" y="-294.0488" font-family="Helvetica,sans-Serif" font-size="11.00" fill="#000000">referral_completed_by</text>
<polygon fill="none" stroke="#000000" points="646.5,-286.9488 646.5,-308.9488 740.5,-308.9488 740.5,-286.9488 646.5,-286.9488"/>
<text text-anchor="start" x="649.5" y="-294.6488" font-family="Helvetica,sans-Serif" font-size="11.00" fill="#000000">varchar[64]</text>
<polygon fill="none" stroke="#000000" points="377.5,-264.9488 377.5,-286.9488 646.5,-286.9488 646.5,-264.9488 377.5,-264.9488"/>
<text text-anchor="start" x="397.5" y="-272.0488" font-family="Helvetica,sans-Serif" font-size="11.00" fill="#000000">referral_completed_by_display_name</text>
<polygon fill="none" stroke="#000000" points="646.5,-264.9488 646.5,-286.9488 740.5,-286.9488 740.5,-264.9488 646.5,-264.9488"/>
<text text-anchor="start" x="649.5" y="-272.6488" font-family="Helvetica,sans-Serif" font-size="11.00" fill="#000000">varchar[255]</text>
<polygon fill="none" stroke="#000000" points="377.5,-242.9488 377.5,-264.9488 646.5,-264.9488 646.5,-242.9488 377.5,-242.9488"/>
<text text-anchor="start" x="397.5" y="-250.0488" font-family="Helvetica,sans-Serif" font-size="11.00" fill="#000000">referral_completed_date</text>
<polygon fill="none" stroke="#000000" points="646.5,-242.9488 646.5,-264.9488 740.5,-264.9488 740.5,-242.9488 646.5,-242.9488"/>
<text text-anchor="start" x="649.5" y="-250.6488" font-family="Helvetica,sans-Serif" font-size="11.00" fill="#000000">date[13]</text>
<polygon fill="none" stroke="#000000" points="377.5,-220.9488 377.5,-242.9488 646.5,-242.9488 646.5,-220.9488 377.5,-220.9488"/>
<text text-anchor="start" x="397.5" y="-228.0488" font-family="Helvetica,sans-Serif" font-size="11.00" fill="#000000">version</text>
<polygon fill="none" stroke="#000000" points="646.5,-220.9488 646.5,-242.9488 740.5,-242.9488 740.5,-220.9488 646.5,-220.9488"/>
<text text-anchor="start" x="649.5" y="-228.6488" font-family="Helvetica,sans-Serif" font-size="11.00" fill="#000000">int4[10]</text>
<polygon fill="#ffffff" stroke="transparent" points="377.5,-201.9488 377.5,-220.9488 516.5,-220.9488 516.5,-201.9488 377.5,-201.9488"/>
<polygon fill="none" stroke="#000000" points="377.5,-201.9488 377.5,-220.9488 516.5,-220.9488 516.5,-201.9488 377.5,-201.9488"/>
<text text-anchor="start" x="380.5" y="-208.0488" font-family="Helvetica,sans-Serif" font-size="11.00" fill="#000000">&lt; 5</text>
<polygon fill="#ffffff" stroke="transparent" points="516.5,-201.9488 516.5,-220.9488 646.5,-220.9488 646.5,-201.9488 516.5,-201.9488"/>
<polygon fill="none" stroke="#000000" points="516.5,-201.9488 516.5,-220.9488 646.5,-220.9488 646.5,-201.9488 516.5,-201.9488"/>
<text text-anchor="start" x="637.3862" y="-208.0488" font-family="Helvetica,sans-Serif" font-size="11.00" fill="#000000"> &#160;</text>
<polygon fill="#ffffff" stroke="transparent" points="646.5,-201.9488 646.5,-220.9488 740.5,-220.9488 740.5,-201.9488 646.5,-201.9488"/>
<polygon fill="none" stroke="#000000" points="646.5,-201.9488 646.5,-220.9488 740.5,-220.9488 740.5,-201.9488 646.5,-201.9488"/>
<text text-anchor="start" x="721.9053" y="-208.0488" font-family="Helvetica,sans-Serif" font-size="11.00" fill="#000000">5 &gt;</text>
<polygon fill="none" stroke="#000000" stroke-width="2" points="376,-200.9488 376,-706.9488 741,-706.9488 741,-200.9488 376,-200.9488"/>
</a>
</g>
</g>
<!-- contributory_factor&#45;&gt;referral -->
<g id="edge3" class="edge">
<title>contributory_factor:w&#45;&gt;referral:e</title>
<path fill="none" stroke="#000000" d="M819.2187,-727.3493C806.6514,-722.7151 794.2938,-717.2856 783,-710.9488 760.6423,-698.4041 766.1366,-671.9488 740.5,-671.9488"/>
<polygon fill="#000000" stroke="#000000" points="825.3353,-729.4606 831.7228,-735.4739 829.1164,-730.7658 832.8975,-732.0709 832.8975,-732.0709 832.8975,-732.0709 829.1164,-730.7658 834.0722,-728.668 825.3353,-729.4606 825.3353,-729.4606"/>
<ellipse fill="none" stroke="#000000" cx="822.3105" cy="-728.4164" rx="3.2" ry="3.2"/>
</g>
<!-- referral&#45;&gt;reference_data -->
<g id="edge23" class="edge">
<title>referral:w&#45;&gt;reference_data:e</title>
<path fill="none" stroke="#000000" d="M363.0108,-430.2332C292.5443,-432.9524 217.4032,-454.6746 163.0286,-474.1583"/>
<polygon fill="#000000" stroke="#000000" points="369.5015,-430.1059 377.5707,-433.5481 373.5008,-430.0273 377.5,-429.9488 377.5,-429.9488 377.5,-429.9488 373.5008,-430.0273 377.4293,-426.3495 369.5015,-430.1059 369.5015,-430.1059"/>
<ellipse fill="none" stroke="#000000" cx="366.3022" cy="-430.1687" rx="3.2" ry="3.2"/>
</g>
<!-- referral&#45;&gt;reference_data -->
<g id="edge24" class="edge">
<title>referral:w&#45;&gt;reference_data:e</title>
<path fill="none" stroke="#000000" d="M363.0139,-583.6578C292.5716,-580.8767 217.5831,-558.6585 163.2609,-538.6888"/>
<polygon fill="#000000" stroke="#000000" points="369.5016,-583.7881 377.4277,-587.548 373.5008,-583.8684 377.5,-583.9488 377.5,-583.9488 377.5,-583.9488 373.5008,-583.8684 377.5723,-580.3495 369.5016,-583.7881 369.5016,-583.7881"/>
<ellipse fill="none" stroke="#000000" cx="366.3023" cy="-583.7238" rx="3.2" ry="3.2"/>
</g>
<!-- referral&#45;&gt;reference_data -->
<g id="edge25" class="edge">
<title>referral:w&#45;&gt;reference_data:e</title>
<path fill="none" stroke="#000000" d="M362.9735,-605.9199C295.8155,-605.6103 272.0123,-602.3888 203,-576.9488 178.6603,-567.9764 153.7559,-553.8558 133.1376,-540.5625"/>
<polygon fill="#000000" stroke="#000000" points="369.5,-605.9328 377.4928,-609.5488 373.5,-605.9408 377.5,-605.9488 377.5,-605.9488 377.5,-605.9488 373.5,-605.9408 377.5072,-602.3488 369.5,-605.9328 369.5,-605.9328"/>
<ellipse fill="none" stroke="#000000" cx="366.3" cy="-605.9265" rx="3.2" ry="3.2"/>
</g>
<!-- referral&#45;&gt;reference_data -->
<g id="edge26" class="edge">
<title>referral:w&#45;&gt;reference_data:e</title>
<path fill="none" stroke="#000000" d="M362.8446,-539.8124C293.6643,-538.5501 218.0811,-528.7558 163.2362,-520.0233"/>
<polygon fill="#000000" stroke="#000000" points="369.5003,-539.8743 377.4665,-543.5486 373.5002,-539.9115 377.5,-539.9488 377.5,-539.9488 377.5,-539.9488 373.5002,-539.9115 377.5335,-536.3489 369.5003,-539.8743 369.5003,-539.8743"/>
<ellipse fill="none" stroke="#000000" cx="366.3005" cy="-539.8445" rx="3.2" ry="3.2"/>
</g>
<!-- csip_record -->
<g id="node6" class="node">
<title>csip_record</title>
<g id="a_node6"><a xlink:href="../../tables/csip_record.html" xlink:title="csip_record" target="_top">
<polygon fill="#ffffff" stroke="transparent" points="211,-756.4488 211,-817.4488 326,-817.4488 326,-756.4488 211,-756.4488"/>
<polygon fill="#f5f5f5" stroke="transparent" points="211.5,-793.9488 211.5,-816.9488 326.5,-816.9488 326.5,-793.9488 211.5,-793.9488"/>
<polygon fill="none" stroke="#000000" points="211.5,-793.9488 211.5,-816.9488 326.5,-816.9488 326.5,-793.9488 211.5,-793.9488"/>
<text text-anchor="start" x="216.5" y="-802.5488" font-family="Helvetica,sans-Serif" font-weight="bold" font-size="11.00" fill="#000000">csip_record</text>
<text text-anchor="start" x="292.0219" y="-802.0488" font-family="Helvetica,sans-Serif" font-size="11.00" fill="#000000">[table]</text>
<polygon fill="none" stroke="#000000" points="211.5,-774.9488 211.5,-793.9488 326.5,-793.9488 326.5,-774.9488 211.5,-774.9488"/>
<text text-anchor="start" x="214.5" y="-781.0488" font-family="Helvetica,sans-Serif" font-size="11.00" fill="#000000">...</text>
<polygon fill="#ffffff" stroke="transparent" points="211.5,-755.9488 211.5,-774.9488 262.5,-774.9488 262.5,-755.9488 211.5,-755.9488"/>
<polygon fill="none" stroke="#000000" points="211.5,-755.9488 211.5,-774.9488 262.5,-774.9488 262.5,-755.9488 211.5,-755.9488"/>
<text text-anchor="start" x="214.5" y="-762.0488" font-family="Helvetica,sans-Serif" font-size="11.00" fill="#000000">&lt; 3</text>
<polygon fill="#ffffff" stroke="transparent" points="262.5,-755.9488 262.5,-774.9488 289.5,-774.9488 289.5,-755.9488 262.5,-755.9488"/>
<polygon fill="none" stroke="#000000" points="262.5,-755.9488 262.5,-774.9488 289.5,-774.9488 289.5,-755.9488 262.5,-755.9488"/>
<text text-anchor="start" x="280.3862" y="-762.0488" font-family="Helvetica,sans-Serif" font-size="11.00" fill="#000000"> &#160;</text>
<polygon fill="#ffffff" stroke="transparent" points="289.5,-755.9488 289.5,-774.9488 326.5,-774.9488 326.5,-755.9488 289.5,-755.9488"/>
<polygon fill="none" stroke="#000000" points="289.5,-755.9488 289.5,-774.9488 326.5,-774.9488 326.5,-755.9488 289.5,-755.9488"/>
<text text-anchor="start" x="307.9053" y="-762.0488" font-family="Helvetica,sans-Serif" font-size="11.00" fill="#000000">2 &gt;</text>
</a>
</g>
</g>
<!-- referral&#45;&gt;csip_record -->
<g id="edge27" class="edge">
<title>referral:w&#45;&gt;csip_record:e</title>
<path fill="none" stroke="#000000" d="M366.727,-672.8572C327.5214,-679.5119 299.3145,-721.3497 283.451,-752.445"/>
<polygon fill="#000000" stroke="#000000" points="376.3667,-668.0301 377.039,-676.0019 375.4446,-676.1363 374.7724,-668.1646 376.3667,-668.0301"/>
<polyline fill="none" stroke="#000000" points="377.5,-671.9488 373.5141,-672.2849 "/>
<ellipse fill="none" stroke="#000000" cx="370.3255" cy="-672.5538" rx="3.2" ry="3.2"/>
</g>
<!-- contributory_factor_audit -->
<g id="node5" class="node">
<title>contributory_factor_audit</title>
<g id="a_node5"><a xlink:href="../../tables/contributory_factor_audit.html" xlink:title="contributory_factor_audit" target="_top">
<polygon fill="#ffffff" stroke="transparent" points="799,-831.4488 799,-1002.4488 1052,-1002.4488 1052,-831.4488 799,-831.4488"/>
<polygon fill="#f5f5f5" stroke="transparent" points="799.5,-978.9488 799.5,-1001.9488 1052.5,-1001.9488 1052.5,-978.9488 799.5,-978.9488"/>
<polygon fill="none" stroke="#000000" points="799.5,-978.9488 799.5,-1001.9488 1052.5,-1001.9488 1052.5,-978.9488 799.5,-978.9488"/>
<text text-anchor="start" x="804.5" y="-987.5488" font-family="Helvetica,sans-Serif" font-weight="bold" font-size="11.00" fill="#000000">contributory_factor_audit</text>
<text text-anchor="start" x="1017.5437" y="-987.0488" font-family="Helvetica,sans-Serif" font-size="11.00" fill="#000000">[table]</text>
<polygon fill="none" stroke="#000000" points="799.5,-956.9488 799.5,-978.9488 1052.5,-978.9488 1052.5,-956.9488 799.5,-956.9488"/>
<image xlink:href="../../images/primaryKeys.png" width="11px" height="12px" preserveAspectRatio="xMinYMin meet" x="804.5" y="-973.949"/>
<text text-anchor="start" x="819.5" y="-964.0488" font-family="Helvetica,sans-Serif" font-size="11.00" fill="#000000">rev_id</text>
<polygon fill="none" stroke="#000000" points="799.5,-934.9488 799.5,-956.9488 1052.5,-956.9488 1052.5,-934.9488 799.5,-934.9488"/>
<image xlink:href="../../images/primaryKeys.png" width="11px" height="12px" preserveAspectRatio="xMinYMin meet" x="804.5" y="-951.949"/>
<text text-anchor="start" x="819.5" y="-942.0488" font-family="Helvetica,sans-Serif" font-size="11.00" fill="#000000">contributory_factor_id</text>
<polygon fill="none" stroke="#000000" points="799.5,-912.9488 799.5,-934.9488 1052.5,-934.9488 1052.5,-912.9488 799.5,-912.9488"/>
<image xlink:href="../../images/foreignKeys.png" width="11px" height="12px" preserveAspectRatio="xMinYMin meet" x="804.5" y="-929.949"/>
<text text-anchor="start" x="819.5" y="-920.0488" font-family="Helvetica,sans-Serif" font-size="11.00" fill="#000000">referral_id</text>
<polygon fill="none" stroke="#000000" points="799.5,-890.9488 799.5,-912.9488 1052.5,-912.9488 1052.5,-890.9488 799.5,-890.9488"/>
<image xlink:href="../../images/foreignKeys.png" width="11px" height="12px" preserveAspectRatio="xMinYMin meet" x="804.5" y="-907.949"/>
<text text-anchor="start" x="819.5" y="-898.0488" font-family="Helvetica,sans-Serif" font-size="11.00" fill="#000000">contributory_factor_type_id</text>
<polygon fill="none" stroke="#000000" points="799.5,-868.9488 799.5,-890.9488 1052.5,-890.9488 1052.5,-868.9488 799.5,-868.9488"/>
<image xlink:href="../../images/foreignKeys.png" width="11px" height="12px" preserveAspectRatio="xMinYMin meet" x="804.5" y="-885.949"/>
<text text-anchor="start" x="819.5" y="-876.0488" font-family="Helvetica,sans-Serif" font-size="11.00" fill="#000000">legacy_id</text>
<polygon fill="none" stroke="#000000" points="799.5,-849.9488 799.5,-868.9488 1052.5,-868.9488 1052.5,-849.9488 799.5,-849.9488"/>
<text text-anchor="start" x="802.5" y="-856.0488" font-family="Helvetica,sans-Serif" font-size="11.00" fill="#000000">...</text>
<polygon fill="#ffffff" stroke="transparent" points="799.5,-830.9488 799.5,-849.9488 924.5,-849.9488 924.5,-830.9488 799.5,-830.9488"/>
<polygon fill="none" stroke="#000000" points="799.5,-830.9488 799.5,-849.9488 924.5,-849.9488 924.5,-830.9488 799.5,-830.9488"/>
<text text-anchor="start" x="802.5" y="-837.0488" font-family="Helvetica,sans-Serif" font-size="11.00" fill="#000000">&lt; 4</text>
<polygon fill="#ffffff" stroke="transparent" points="924.5,-830.9488 924.5,-849.9488 988.5,-849.9488 988.5,-830.9488 924.5,-830.9488"/>
<polygon fill="none" stroke="#000000" points="924.5,-830.9488 924.5,-849.9488 988.5,-849.9488 988.5,-830.9488 924.5,-830.9488"/>
<text text-anchor="start" x="979.3862" y="-837.0488" font-family="Helvetica,sans-Serif" font-size="11.00" fill="#000000"> &#160;</text>
<polygon fill="#ffffff" stroke="transparent" points="988.5,-830.9488 988.5,-849.9488 1052.5,-849.9488 1052.5,-830.9488 988.5,-830.9488"/>
<polygon fill="none" stroke="#000000" points="988.5,-830.9488 988.5,-849.9488 1052.5,-849.9488 1052.5,-830.9488 988.5,-830.9488"/>
<text text-anchor="start" x="1043.3862" y="-837.0488" font-family="Helvetica,sans-Serif" font-size="11.00" fill="#000000"> &#160;</text>
</a>
</g>
</g>
<!-- contributory_factor_audit&#45;&gt;audit_revision -->
<g id="edge4" class="edge">
<title>contributory_factor_audit:w&#45;&gt;audit_revision:e</title>
<path fill="none" stroke="#000000" stroke-dasharray="5,2" d="M784.8181,-902.4585C773.3904,-903.3223 766.1848,-905.0654 750,-905.9488 484.51,-920.4394 417.8852,-922.9488 152,-922.9488"/>
<polygon fill="#000000" stroke="#000000" points="791.5048,-902.2264 799.6249,-905.5466 795.5024,-902.0876 799.5,-901.9488 799.5,-901.9488 799.5,-901.9488 795.5024,-902.0876 799.3751,-898.3509 791.5048,-902.2264 791.5048,-902.2264"/>
<ellipse fill="none" stroke="#000000" cx="788.3067" cy="-902.3375" rx="3.2" ry="3.2"/>
</g>
<!-- contributory_factor_audit&#45;&gt;audit_revision -->
<g id="edge5" class="edge">
<title>contributory_factor_audit:w&#45;&gt;audit_revision:e</title>
<path fill="none" stroke="#000000" stroke-dasharray="5,2" d="M784.8335,-879.9766C604.3355,-880.6713 554.1825,-894.2583 367,-906.9488 294.0836,-911.8923 275.8747,-913.4248 203,-918.9488 180.3288,-920.6673 174.7363,-922.9488 152,-922.9488"/>
<polygon fill="#000000" stroke="#000000" points="791.5,-879.964 799.5069,-883.5488 795.5,-879.9564 799.5,-879.9488 799.5,-879.9488 799.5,-879.9488 795.5,-879.9564 799.4931,-876.3488 791.5,-879.964 791.5,-879.964"/>
<ellipse fill="none" stroke="#000000" cx="788.3" cy="-879.9701" rx="3.2" ry="3.2"/>
</g>
<!-- contributory_factor_audit&#45;&gt;audit_revision -->
<g id="edge7" class="edge">
<title>contributory_factor_audit:w&#45;&gt;audit_revision:e</title>
<path fill="none" stroke="#000000" d="M784.9184,-967.9436C531.3472,-967.759 461.8689,-962.5002 203,-931.9488 180.1417,-929.2511 175.0169,-922.9488 152,-922.9488"/>
<polygon fill="#000000" stroke="#000000" points="791.5,-967.9459 799.4987,-971.5488 795.5,-967.9473 799.5,-967.9488 799.5,-967.9488 799.5,-967.9488 795.5,-967.9473 799.5013,-964.3488 791.5,-967.9459 791.5,-967.9459"/>
<ellipse fill="none" stroke="#000000" cx="788.3" cy="-967.9447" rx="3.2" ry="3.2"/>
</g>
<!-- contributory_factor_audit&#45;&gt;referral -->
<g id="edge6" class="edge">
<title>contributory_factor_audit:w&#45;&gt;referral:e</title>
<path fill="none" stroke="#000000" stroke-dasharray="5,2" d="M785.151,-922.3395C699.8793,-900.8775 850.1367,-671.9488 740.5,-671.9488"/>
<polygon fill="#000000" stroke="#000000" points="791.5498,-923.0571 799.0988,-927.5263 795.5249,-923.5029 799.5,-923.9488 799.5,-923.9488 799.5,-923.9488 795.5249,-923.5029 799.9012,-920.3712 791.5498,-923.0571 791.5498,-923.0571"/>
<ellipse fill="none" stroke="#000000" cx="788.3698" cy="-922.7005" rx="3.2" ry="3.2"/>
</g>
<!-- csip_record&#45;&gt;reference_data -->
<g id="edge10" class="edge">
<title>csip_record:w&#45;&gt;reference_data:e</title>
<path fill="none" stroke="#000000" d="M203.2983,-742.2898C203.1985,-742.1763 203.0991,-742.0626 203,-741.9488 149.315,-680.2729 113.1263,-589.8677 96.1352,-540.7826"/>
<polygon fill="#000000" stroke="#000000" points="207.7605,-746.7377 210.8849,-754.9351 210.5934,-749.5616 213.4264,-752.3855 213.4264,-752.3855 213.4264,-752.3855 210.5934,-749.5616 215.9679,-749.8358 207.7605,-746.7377 207.7605,-746.7377"/>
<ellipse fill="none" stroke="#000000" cx="205.4941" cy="-744.4786" rx="3.2" ry="3.2"/>
</g>
<!-- csip_record&#45;&gt;audit_revision -->
<g id="edge8" class="edge">
<title>csip_record:w&#45;&gt;audit_revision:e</title>
<path fill="none" stroke="#000000" stroke-dasharray="5,2" d="M205.8227,-828.972C204.8576,-829.9532 203.9156,-830.9457 203,-831.9488 171.7439,-866.1918 198.363,-922.9488 152,-922.9488"/>
<polygon fill="#000000" stroke="#000000" points="210.2997,-819.3068 215.7648,-825.1492 214.5963,-826.2422 209.1313,-820.3999 210.2997,-819.3068"/>
<polyline fill="none" stroke="#000000" points="213.6165,-821.6815 210.6953,-824.4141 "/>
<ellipse fill="none" stroke="#000000" cx="208.3584" cy="-826.6001" rx="3.2" ry="3.2"/>
</g>
<!-- person_summary -->
<g id="node7" class="node">
<title>person_summary</title>
<g id="a_node7"><a xlink:href="../../tables/person_summary.html" xlink:title="person_summary" target="_top">
<polygon fill="#ffffff" stroke="transparent" points="8,-759.4488 8,-820.4488 162,-820.4488 162,-759.4488 8,-759.4488"/>
<polygon fill="#f5f5f5" stroke="transparent" points="8,-796.9488 8,-819.9488 162,-819.9488 162,-796.9488 8,-796.9488"/>
<polygon fill="none" stroke="#000000" points="8,-796.9488 8,-819.9488 162,-819.9488 162,-796.9488 8,-796.9488"/>
<text text-anchor="start" x="13" y="-805.5488" font-family="Helvetica,sans-Serif" font-weight="bold" font-size="11.00" fill="#000000">person_summary</text>
<text text-anchor="start" x="127.5219" y="-805.0488" font-family="Helvetica,sans-Serif" font-size="11.00" fill="#000000">[table]</text>
<polygon fill="none" stroke="#000000" points="8,-777.9488 8,-796.9488 162,-796.9488 162,-777.9488 8,-777.9488"/>
<text text-anchor="start" x="11" y="-784.0488" font-family="Helvetica,sans-Serif" font-size="11.00" fill="#000000">...</text>
<polygon fill="#ffffff" stroke="transparent" points="8,-758.9488 8,-777.9488 74,-777.9488 74,-758.9488 8,-758.9488"/>
<polygon fill="none" stroke="#000000" points="8,-758.9488 8,-777.9488 74,-777.9488 74,-758.9488 8,-758.9488"/>
<text text-anchor="start" x="11" y="-765.0488" font-family="Helvetica,sans-Serif" font-size="11.00" fill="#000000"> &#160;</text>
<polygon fill="#ffffff" stroke="transparent" points="74,-758.9488 74,-777.9488 113,-777.9488 113,-758.9488 74,-758.9488"/>
<polygon fill="none" stroke="#000000" points="74,-758.9488 74,-777.9488 113,-777.9488 113,-758.9488 74,-758.9488"/>
<text text-anchor="start" x="103.8862" y="-765.0488" font-family="Helvetica,sans-Serif" font-size="11.00" fill="#000000"> &#160;</text>
<polygon fill="#ffffff" stroke="transparent" points="113,-758.9488 113,-777.9488 162,-777.9488 162,-758.9488 113,-758.9488"/>
<polygon fill="none" stroke="#000000" points="113,-758.9488 113,-777.9488 162,-777.9488 162,-758.9488 113,-758.9488"/>
<text text-anchor="start" x="143.4053" y="-765.0488" font-family="Helvetica,sans-Serif" font-size="11.00" fill="#000000">1 &gt;</text>
</a>
</g>
</g>
<!-- csip_record&#45;&gt;person_summary -->
<g id="edge9" class="edge">
<title>csip_record:w&#45;&gt;person_summary:e</title>
<path fill="none" stroke="#000000" d="M188.4598,-786.9488C179.5329,-786.9488 170.5724,-786.9488 162,-786.9488"/>
<polygon fill="#000000" stroke="#000000" points="194.8825,-786.9488 202.8825,-790.5488 198.8825,-786.9488 202.8825,-786.9488 202.8825,-786.9488 202.8825,-786.9488 198.8825,-786.9488 202.8825,-783.3488 194.8825,-786.9488 194.8825,-786.9488"/>
<ellipse fill="none" stroke="#000000" cx="191.6825" cy="-786.9488" rx="3.2" ry="3.2"/>
</g>
<!-- decision_and_actions -->
<g id="node8" class="node">
<title>decision_and_actions</title>
<g id="a_node8"><a xlink:href="../../tables/decision_and_actions.html" xlink:title="decision_and_actions" target="_top">
<polygon fill="#ffffff" stroke="transparent" points="835,-69.4488 835,-130.4488 1016,-130.4488 1016,-69.4488 835,-69.4488"/>
<polygon fill="#f5f5f5" stroke="transparent" points="835.5,-106.9488 835.5,-129.9488 1016.5,-129.9488 1016.5,-106.9488 835.5,-106.9488"/>
<polygon fill="none" stroke="#000000" points="835.5,-106.9488 835.5,-129.9488 1016.5,-129.9488 1016.5,-106.9488 835.5,-106.9488"/>
<text text-anchor="start" x="840.5" y="-115.5488" font-family="Helvetica,sans-Serif" font-weight="bold" font-size="11.00" fill="#000000">decision_and_actions</text>
<text text-anchor="start" x="982.0219" y="-115.0488" font-family="Helvetica,sans-Serif" font-size="11.00" fill="#000000">[table]</text>
<polygon fill="none" stroke="#000000" points="835.5,-87.9488 835.5,-106.9488 1016.5,-106.9488 1016.5,-87.9488 835.5,-87.9488"/>
<text text-anchor="start" x="838.5" y="-94.0488" font-family="Helvetica,sans-Serif" font-size="11.00" fill="#000000">...</text>
<polygon fill="#ffffff" stroke="transparent" points="835.5,-68.9488 835.5,-87.9488 924.5,-87.9488 924.5,-68.9488 835.5,-68.9488"/>
<polygon fill="none" stroke="#000000" points="835.5,-68.9488 835.5,-87.9488 924.5,-87.9488 924.5,-68.9488 835.5,-68.9488"/>
<text text-anchor="start" x="838.5" y="-75.0488" font-family="Helvetica,sans-Serif" font-size="11.00" fill="#000000">&lt; 3</text>
<polygon fill="#ffffff" stroke="transparent" points="924.5,-68.9488 924.5,-87.9488 970.5,-87.9488 970.5,-68.9488 924.5,-68.9488"/>
<polygon fill="none" stroke="#000000" points="924.5,-68.9488 924.5,-87.9488 970.5,-87.9488 970.5,-68.9488 924.5,-68.9488"/>
<text text-anchor="start" x="961.3862" y="-75.0488" font-family="Helvetica,sans-Serif" font-size="11.00" fill="#000000"> &#160;</text>
<polygon fill="#ffffff" stroke="transparent" points="970.5,-68.9488 970.5,-87.9488 1016.5,-87.9488 1016.5,-68.9488 970.5,-68.9488"/>
<polygon fill="none" stroke="#000000" points="970.5,-68.9488 970.5,-87.9488 1016.5,-87.9488 1016.5,-68.9488 970.5,-68.9488"/>
<text text-anchor="start" x="1007.3862" y="-75.0488" font-family="Helvetica,sans-Serif" font-size="11.00" fill="#000000"> &#160;</text>
</a>
</g>
</g>
<!-- decision_and_actions&#45;&gt;reference_data -->
<g id="edge12" class="edge">
<title>decision_and_actions:w&#45;&gt;reference_data:e</title>
<path fill="none" stroke="#000000" d="M812.7456,-66.1995C658.1251,-30.6428 379.4178,3.0728 203,-132.9488 148.4073,-175.0408 105.2671,-387.0315 90.498,-471.3611"/>
<polygon fill="#000000" stroke="#000000" points="819.0708,-67.6923 826.03,-73.0336 822.9639,-68.6111 826.8569,-69.5299 826.8569,-69.5299 826.8569,-69.5299 822.9639,-68.6111 827.6839,-66.0261 819.0708,-67.6923 819.0708,-67.6923"/>
<ellipse fill="none" stroke="#000000" cx="815.9564" cy="-66.9572" rx="3.2" ry="3.2"/>
</g>
<!-- decision_and_actions&#45;&gt;reference_data -->
<g id="edge13" class="edge">
<title>decision_and_actions:w&#45;&gt;reference_data:e</title>
<path fill="none" stroke="#000000" d="M812.7456,-74.878C658.1251,-43.6428 379.4178,-9.9272 203,-145.9488 149.7986,-186.9681 107.4735,-389.3365 91.6822,-471.4008"/>
<polygon fill="#000000" stroke="#000000" points="819.0221,-76.1736 826.1292,-81.3166 822.9395,-76.9822 826.8569,-77.7909 826.8569,-77.7909 826.8569,-77.7909 822.9395,-76.9822 827.5847,-74.2652 819.0221,-76.1736 819.0221,-76.1736"/>
<ellipse fill="none" stroke="#000000" cx="815.8882" cy="-75.5267" rx="3.2" ry="3.2"/>
</g>
<!-- decision_and_actions&#45;&gt;referral -->
<g id="edge11" class="edge">
<title>decision_and_actions:w&#45;&gt;referral:e</title>
<path fill="none" stroke="#000000" d="M893.8098,-143.2769C860.4379,-191.2651 809.1782,-272.1664 783,-349.9488 759.9775,-418.3546 812.6761,-671.9488 740.5,-671.9488"/>
<polygon fill="#000000" stroke="#000000" points="896.089,-133.0649 902.6376,-137.6601 901.7186,-138.9698 895.1699,-134.3746 896.089,-133.0649"/>
<polyline fill="none" stroke="#000000" points="899.8228,-134.7076 897.5252,-137.9819 "/>
<ellipse fill="none" stroke="#000000" cx="895.6871" cy="-140.6014" rx="3.2" ry="3.2"/>
</g>
<!-- interview -->
<g id="node9" class="node">
<title>interview</title>
<g id="a_node9"><a xlink:href="../../tables/interview.html" xlink:title="interview" target="_top">
<polygon fill="#ffffff" stroke="transparent" points="1129.5,-638.4488 1129.5,-699.4488 1231.5,-699.4488 1231.5,-638.4488 1129.5,-638.4488"/>
<polygon fill="#f5f5f5" stroke="transparent" points="1129.5,-675.9488 1129.5,-698.9488 1231.5,-698.9488 1231.5,-675.9488 1129.5,-675.9488"/>
<polygon fill="none" stroke="#000000" points="1129.5,-675.9488 1129.5,-698.9488 1231.5,-698.9488 1231.5,-675.9488 1129.5,-675.9488"/>
<text text-anchor="start" x="1134.5" y="-684.5488" font-family="Helvetica,sans-Serif" font-weight="bold" font-size="11.00" fill="#000000">interview</text>
<text text-anchor="start" x="1197.0219" y="-684.0488" font-family="Helvetica,sans-Serif" font-size="11.00" fill="#000000">[table]</text>
<polygon fill="none" stroke="#000000" points="1129.5,-656.9488 1129.5,-675.9488 1231.5,-675.9488 1231.5,-656.9488 1129.5,-656.9488"/>
<text text-anchor="start" x="1132.5" y="-663.0488" font-family="Helvetica,sans-Serif" font-size="11.00" fill="#000000">...</text>
<polygon fill="#ffffff" stroke="transparent" points="1129.5,-637.9488 1129.5,-656.9488 1178.5,-656.9488 1178.5,-637.9488 1129.5,-637.9488"/>
<polygon fill="none" stroke="#000000" points="1129.5,-637.9488 1129.5,-656.9488 1178.5,-656.9488 1178.5,-637.9488 1129.5,-637.9488"/>
<text text-anchor="start" x="1132.5" y="-644.0488" font-family="Helvetica,sans-Serif" font-size="11.00" fill="#000000">&lt; 3</text>
<polygon fill="#ffffff" stroke="transparent" points="1178.5,-637.9488 1178.5,-656.9488 1204.5,-656.9488 1204.5,-637.9488 1178.5,-637.9488"/>
<polygon fill="none" stroke="#000000" points="1178.5,-637.9488 1178.5,-656.9488 1204.5,-656.9488 1204.5,-637.9488 1178.5,-637.9488"/>
<text text-anchor="start" x="1195.3862" y="-644.0488" font-family="Helvetica,sans-Serif" font-size="11.00" fill="#000000"> &#160;</text>
<polygon fill="#ffffff" stroke="transparent" points="1204.5,-637.9488 1204.5,-656.9488 1231.5,-656.9488 1231.5,-637.9488 1204.5,-637.9488"/>
<polygon fill="none" stroke="#000000" points="1204.5,-637.9488 1204.5,-656.9488 1231.5,-656.9488 1231.5,-637.9488 1204.5,-637.9488"/>
<text text-anchor="start" x="1222.3862" y="-644.0488" font-family="Helvetica,sans-Serif" font-size="11.00" fill="#000000"> &#160;</text>
</a>
</g>
</g>
<!-- interview&#45;&gt;reference_data -->
<g id="edge14" class="edge">
<title>interview:w&#45;&gt;reference_data:e</title>
<path fill="none" stroke="#000000" d="M1114.8108,-665.1414C998.2391,-651.2988 1147.1748,-462.6959 1068,-349.9488 973.384,-215.2128 908.7056,-203.7495 750,-159.9488 632.4293,-127.5007 293.6832,-123.3871 203,-204.9488 123.4995,-276.4526 96.9761,-408.2159 88.6081,-470.9608"/>
<polygon fill="#000000" stroke="#000000" points="1121.5121,-665.5097 1129.3024,-669.5433 1125.506,-665.7292 1129.5,-665.9488 1129.5,-665.9488 1129.5,-665.9488 1125.506,-665.7292 1129.6976,-662.3542 1121.5121,-665.5097 1121.5121,-665.5097"/>
<ellipse fill="none" stroke="#000000" cx="1118.3169" cy="-665.334" rx="3.2" ry="3.2"/>
</g>
<!-- interview&#45;&gt;audit_revision -->
<g id="edge16" class="edge">
<title>interview:w&#45;&gt;audit_revision:e</title>
<path fill="none" stroke="#000000" stroke-dasharray="5,2" d="M1119.0395,-666.981C1072.9613,-677.1242 1116.2287,-759.3213 1068,-792.9488 1015.7982,-829.3466 842.2593,-797.7505 783,-820.9488 765.8659,-827.6563 767.1654,-839.3218 750,-845.9488 590.5766,-907.4966 536.603,-859.0017 367,-879.9488 293.7573,-888.9947 274.6929,-888.4431 203,-905.9488 179.7892,-911.6163 175.8928,-922.9488 152,-922.9488"/>
<polygon fill="#000000" stroke="#000000" points="1128.311,-662.0467 1129.0967,-670.008 1127.5044,-670.1651 1126.7188,-662.2038 1128.311,-662.0467"/>
<polyline fill="none" stroke="#000000" points="1129.5,-665.9488 1125.5193,-666.3416 "/>
<ellipse fill="none" stroke="#000000" cx="1122.3348" cy="-666.6559" rx="3.2" ry="3.2"/>
</g>
<!-- investigation -->
<g id="node10" class="node">
<title>investigation</title>
<g id="a_node10"><a xlink:href="../../tables/investigation.html" xlink:title="investigation" target="_top">
<polygon fill="#ffffff" stroke="transparent" points="825,-617.4488 825,-700.4488 1026,-700.4488 1026,-617.4488 825,-617.4488"/>
<polygon fill="#f5f5f5" stroke="transparent" points="825.5,-676.9488 825.5,-699.9488 1026.5,-699.9488 1026.5,-676.9488 825.5,-676.9488"/>
<polygon fill="none" stroke="#000000" points="825.5,-676.9488 825.5,-699.9488 1026.5,-699.9488 1026.5,-676.9488 825.5,-676.9488"/>
<text text-anchor="start" x="830.5" y="-685.5488" font-family="Helvetica,sans-Serif" font-weight="bold" font-size="11.00" fill="#000000">investigation</text>
<text text-anchor="start" x="991.5437" y="-685.0488" font-family="Helvetica,sans-Serif" font-size="11.00" fill="#000000">[table]</text>
<polygon fill="none" stroke="#000000" points="825.5,-654.9488 825.5,-676.9488 1026.5,-676.9488 1026.5,-654.9488 825.5,-654.9488"/>
<image xlink:href="../../images/primaryKeys.png" width="11px" height="12px" preserveAspectRatio="xMinYMin meet" x="830.5" y="-671.949"/>
<text text-anchor="start" x="845.5" y="-662.0488" font-family="Helvetica,sans-Serif" font-size="11.00" fill="#000000">investigation_id</text>
<polygon fill="none" stroke="#000000" points="825.5,-635.9488 825.5,-654.9488 1026.5,-654.9488 1026.5,-635.9488 825.5,-635.9488"/>
<text text-anchor="start" x="828.5" y="-642.0488" font-family="Helvetica,sans-Serif" font-size="11.00" fill="#000000">...</text>
<polygon fill="#ffffff" stroke="transparent" points="825.5,-616.9488 825.5,-635.9488 919.5,-635.9488 919.5,-616.9488 825.5,-616.9488"/>
<polygon fill="none" stroke="#000000" points="825.5,-616.9488 825.5,-635.9488 919.5,-635.9488 919.5,-616.9488 825.5,-616.9488"/>
<text text-anchor="start" x="828.5" y="-623.0488" font-family="Helvetica,sans-Serif" font-size="11.00" fill="#000000">&lt; 1</text>
<polygon fill="#ffffff" stroke="transparent" points="919.5,-616.9488 919.5,-635.9488 968.5,-635.9488 968.5,-616.9488 919.5,-616.9488"/>
<polygon fill="none" stroke="#000000" points="919.5,-616.9488 919.5,-635.9488 968.5,-635.9488 968.5,-616.9488 919.5,-616.9488"/>
<text text-anchor="start" x="959.3862" y="-623.0488" font-family="Helvetica,sans-Serif" font-size="11.00" fill="#000000"> &#160;</text>
<polygon fill="#ffffff" stroke="transparent" points="968.5,-616.9488 968.5,-635.9488 1026.5,-635.9488 1026.5,-616.9488 968.5,-616.9488"/>
<polygon fill="none" stroke="#000000" points="968.5,-616.9488 968.5,-635.9488 1026.5,-635.9488 1026.5,-616.9488 968.5,-616.9488"/>
<text text-anchor="start" x="1007.9053" y="-623.0488" font-family="Helvetica,sans-Serif" font-size="11.00" fill="#000000">2 &gt;</text>
</a>
</g>
</g>
<!-- interview&#45;&gt;investigation -->
<g id="edge15" class="edge">
<title>interview:w&#45;&gt;investigation:e</title>
<path fill="none" stroke="#000000" d="M1114.7102,-665.9488C1080.5684,-665.9488 1066.9132,-665.9488 1026.5,-665.9488"/>
<polygon fill="#000000" stroke="#000000" points="1121.5,-665.9488 1129.5,-669.5488 1125.5,-665.9488 1129.5,-665.9488 1129.5,-665.9488 1129.5,-665.9488 1125.5,-665.9488 1129.5,-662.3488 1121.5,-665.9488 1121.5,-665.9488"/>
<ellipse fill="none" stroke="#000000" cx="1118.3" cy="-665.9488" rx="3.2" ry="3.2"/>
</g>
<!-- investigation&#45;&gt;referral -->
<g id="edge21" class="edge">
<title>investigation:w&#45;&gt;referral:e</title>
<path fill="none" stroke="#000000" d="M814.7865,-666.1219C785.4528,-667.1056 774.5254,-671.9488 740.5,-671.9488"/>
<polygon fill="#000000" stroke="#000000" points="824.6354,-661.9622 824.7648,-669.9612 823.165,-669.987 823.0357,-661.9881 824.6354,-661.9622"/>
<polyline fill="none" stroke="#000000" points="825.5,-665.9488 821.5005,-666.0134 "/>
<ellipse fill="none" stroke="#000000" cx="818.3009" cy="-666.0652" rx="3.2" ry="3.2"/>
</g>
<!-- interview_audit -->
<g id="node11" class="node">
<title>interview_audit</title>
<g id="a_node11"><a xlink:href="../../tables/interview_audit.html" xlink:title="interview_audit" target="_top">
<polygon fill="#ffffff" stroke="transparent" points="1109,-1011.4488 1109,-1072.4488 1252,-1072.4488 1252,-1011.4488 1109,-1011.4488"/>
<polygon fill="#f5f5f5" stroke="transparent" points="1109.5,-1048.9488 1109.5,-1071.9488 1252.5,-1071.9488 1252.5,-1048.9488 1109.5,-1048.9488"/>
<polygon fill="none" stroke="#000000" points="1109.5,-1048.9488 1109.5,-1071.9488 1252.5,-1071.9488 1252.5,-1048.9488 1109.5,-1048.9488"/>
<text text-anchor="start" x="1114.5" y="-1057.5488" font-family="Helvetica,sans-Serif" font-weight="bold" font-size="11.00" fill="#000000">interview_audit</text>
<text text-anchor="start" x="1218.0219" y="-1057.0488" font-family="Helvetica,sans-Serif" font-size="11.00" fill="#000000">[table]</text>
<polygon fill="none" stroke="#000000" points="1109.5,-1029.9488 1109.5,-1048.9488 1252.5,-1048.9488 1252.5,-1029.9488 1109.5,-1029.9488"/>
<text text-anchor="start" x="1112.5" y="-1036.0488" font-family="Helvetica,sans-Serif" font-size="11.00" fill="#000000">...</text>
<polygon fill="#ffffff" stroke="transparent" points="1109.5,-1010.9488 1109.5,-1029.9488 1179.5,-1029.9488 1179.5,-1010.9488 1109.5,-1010.9488"/>
<polygon fill="none" stroke="#000000" points="1109.5,-1010.9488 1109.5,-1029.9488 1179.5,-1029.9488 1179.5,-1010.9488 1109.5,-1010.9488"/>
<text text-anchor="start" x="1112.5" y="-1017.0488" font-family="Helvetica,sans-Serif" font-size="11.00" fill="#000000">&lt; 4</text>
<polygon fill="#ffffff" stroke="transparent" points="1179.5,-1010.9488 1179.5,-1029.9488 1215.5,-1029.9488 1215.5,-1010.9488 1179.5,-1010.9488"/>
<polygon fill="none" stroke="#000000" points="1179.5,-1010.9488 1179.5,-1029.9488 1215.5,-1029.9488 1215.5,-1010.9488 1179.5,-1010.9488"/>
<text text-anchor="start" x="1206.3862" y="-1017.0488" font-family="Helvetica,sans-Serif" font-size="11.00" fill="#000000"> &#160;</text>
<polygon fill="#ffffff" stroke="transparent" points="1215.5,-1010.9488 1215.5,-1029.9488 1252.5,-1029.9488 1252.5,-1010.9488 1215.5,-1010.9488"/>
<polygon fill="none" stroke="#000000" points="1215.5,-1010.9488 1215.5,-1029.9488 1252.5,-1029.9488 1252.5,-1010.9488 1215.5,-1010.9488"/>
<text text-anchor="start" x="1243.3862" y="-1017.0488" font-family="Helvetica,sans-Serif" font-size="11.00" fill="#000000"> &#160;</text>
</a>
</g>
</g>
<!-- interview_audit&#45;&gt;audit_revision -->
<g id="edge17" class="edge">
<title>interview_audit:w&#45;&gt;audit_revision:e</title>
<path fill="none" stroke="#000000" stroke-dasharray="5,2" d="M1095.093,-1038.9279C775.59,-1037.9954 691.5114,-1005.8953 367,-968.9488 294.0424,-960.6423 273.2268,-970.3962 203,-948.9488 178.6672,-941.5175 177.4423,-922.9488 152,-922.9488"/>
<polygon fill="#000000" stroke="#000000" points="1101.5,-1038.9371 1109.4948,-1042.5488 1105.5,-1038.943 1109.5,-1038.9488 1109.5,-1038.9488 1109.5,-1038.9488 1105.5,-1038.943 1109.5052,-1035.3488 1101.5,-1038.9371 1101.5,-1038.9371"/>
<ellipse fill="none" stroke="#000000" cx="1098.3" cy="-1038.9325" rx="3.2" ry="3.2"/>
</g>
<!-- interview_audit&#45;&gt;audit_revision -->
<g id="edge19" class="edge">
<title>interview_audit:w&#45;&gt;audit_revision:e</title>
<path fill="none" stroke="#000000" stroke-dasharray="5,2" d="M1095.0856,-1038.6666C775.4231,-1031.9248 691.5001,-997.4561 367,-958.9488 294.0827,-950.2959 273.879,-958.1311 203,-938.9488 179.1715,-932.4999 176.6857,-916.9488 152,-922.9488"/>
<polygon fill="#000000" stroke="#000000" points="1101.5015,-1038.7921 1109.4295,-1042.5481 1105.5008,-1038.8704 1109.5,-1038.9488 1109.5,-1038.9488 1109.5,-1038.9488 1105.5008,-1038.8704 1109.5705,-1035.3495 1101.5015,-1038.7921 1101.5015,-1038.7921"/>
<ellipse fill="none" stroke="#000000" cx="1098.3021" cy="-1038.7295" rx="3.2" ry="3.2"/>
</g>
<!-- interview_audit&#45;&gt;audit_revision -->
<g id="edge20" class="edge">
<title>interview_audit:w&#45;&gt;audit_revision:e</title>
<path fill="none" stroke="#000000" d="M1095.0856,-1039.2295C775.4231,-1044.9248 691.5001,-1010.4561 367,-971.9488 294.0827,-963.2959 273.879,-971.1311 203,-951.9488 179.1715,-945.4999 176.6857,-929.9488 152,-922.9488"/>
<polygon fill="#000000" stroke="#000000" points="1101.5015,-1039.1046 1109.5701,-1042.5481 1105.5008,-1039.0267 1109.5,-1038.9488 1109.5,-1038.9488 1109.5,-1038.9488 1105.5008,-1039.0267 1109.4299,-1035.3495 1101.5015,-1039.1046 1101.5015,-1039.1046"/>
<ellipse fill="none" stroke="#000000" cx="1098.3021" cy="-1039.167" rx="3.2" ry="3.2"/>
</g>
<!-- interview_audit&#45;&gt;investigation -->
<g id="edge18" class="edge">
<title>interview_audit:w&#45;&gt;investigation:e</title>
<path fill="none" stroke="#000000" stroke-dasharray="5,2" d="M1095.6224,-1035.0258C1044.6388,-1002.1876 1096.7487,-772.7499 1068,-710.9488 1056.5248,-686.2806 1053.7066,-665.9488 1026.5,-665.9488"/>
<polygon fill="#000000" stroke="#000000" points="1101.8017,-1036.7725 1108.5207,-1042.413 1105.6508,-1037.8607 1109.5,-1038.9488 1109.5,-1038.9488 1109.5,-1038.9488 1105.6508,-1037.8607 1110.4793,-1035.4845 1101.8017,-1036.7725 1101.8017,-1036.7725"/>
<ellipse fill="none" stroke="#000000" cx="1098.7223" cy="-1035.9021" rx="3.2" ry="3.2"/>
</g>
<!-- plan -->
<g id="node12" class="node">
<title>plan</title>
<g id="a_node12"><a xlink:href="../../tables/plan.html" xlink:title="plan" target="_top">
<polygon fill="#ffffff" stroke="transparent" points="524.5,-756.4488 524.5,-817.4488 592.5,-817.4488 592.5,-756.4488 524.5,-756.4488"/>
<polygon fill="#f5f5f5" stroke="transparent" points="524.5,-793.9488 524.5,-816.9488 592.5,-816.9488 592.5,-793.9488 524.5,-793.9488"/>
<polygon fill="none" stroke="#000000" points="524.5,-793.9488 524.5,-816.9488 592.5,-816.9488 592.5,-793.9488 524.5,-793.9488"/>
<text text-anchor="start" x="529.5" y="-802.5488" font-family="Helvetica,sans-Serif" font-weight="bold" font-size="11.00" fill="#000000">plan</text>
<text text-anchor="start" x="558.0219" y="-802.0488" font-family="Helvetica,sans-Serif" font-size="11.00" fill="#000000">[table]</text>
<polygon fill="none" stroke="#000000" points="524.5,-774.9488 524.5,-793.9488 592.5,-793.9488 592.5,-774.9488 524.5,-774.9488"/>
<text text-anchor="start" x="527.5" y="-781.0488" font-family="Helvetica,sans-Serif" font-size="11.00" fill="#000000">...</text>
<polygon fill="#ffffff" stroke="transparent" points="524.5,-755.9488 524.5,-774.9488 552.5,-774.9488 552.5,-755.9488 524.5,-755.9488"/>
<polygon fill="none" stroke="#000000" points="524.5,-755.9488 524.5,-774.9488 552.5,-774.9488 552.5,-755.9488 524.5,-755.9488"/>
<text text-anchor="start" x="527.5" y="-762.0488" font-family="Helvetica,sans-Serif" font-size="11.00" fill="#000000">&lt; 1</text>
<polygon fill="#ffffff" stroke="transparent" points="552.5,-755.9488 552.5,-774.9488 567.5,-774.9488 567.5,-755.9488 552.5,-755.9488"/>
<polygon fill="none" stroke="#000000" points="552.5,-755.9488 552.5,-774.9488 567.5,-774.9488 567.5,-755.9488 552.5,-755.9488"/>
<text text-anchor="start" x="558.3862" y="-762.0488" font-family="Helvetica,sans-Serif" font-size="11.00" fill="#000000"> &#160;</text>
<polygon fill="#ffffff" stroke="transparent" points="567.5,-755.9488 567.5,-774.9488 592.5,-774.9488 592.5,-755.9488 567.5,-755.9488"/>
<polygon fill="none" stroke="#000000" points="567.5,-755.9488 567.5,-774.9488 592.5,-774.9488 592.5,-755.9488 567.5,-755.9488"/>
<text text-anchor="start" x="573.9053" y="-762.0488" font-family="Helvetica,sans-Serif" font-size="11.00" fill="#000000">2 &gt;</text>
</a>
</g>
</g>
<!-- plan&#45;&gt;csip_record -->
<g id="edge22" class="edge">
<title>plan:w&#45;&gt;csip_record:e</title>
<path fill="none" stroke="#000000" d="M513.8126,-783.9573C451.8173,-784.0544 383.1466,-784.9636 334.2662,-785.7545"/>
<polygon fill="#000000" stroke="#000000" points="523.6968,-779.9494 523.7032,-787.9494 522.1032,-787.9507 522.0968,-779.9507 523.6968,-779.9494"/>
<polyline fill="none" stroke="#000000" points="524.5,-783.9488 520.5,-783.952 "/>
<ellipse fill="none" stroke="#000000" cx="517.3" cy="-783.9546" rx="3.2" ry="3.2"/>
</g>
<!-- safer_custody_screening_outcome -->
<g id="node13" class="node">
<title>safer_custody_screening_outcome</title>
<g id="a_node13"><a xlink:href="../../tables/safer_custody_screening_outcome.html" xlink:title="safer_custody_screening_outcome" target="_top">
<polygon fill="#ffffff" stroke="transparent" points="791,-360.4488 791,-421.4488 1060,-421.4488 1060,-360.4488 791,-360.4488"/>
<polygon fill="#f5f5f5" stroke="transparent" points="791.5,-397.9488 791.5,-420.9488 1060.5,-420.9488 1060.5,-397.9488 791.5,-397.9488"/>
<polygon fill="none" stroke="#000000" points="791.5,-397.9488 791.5,-420.9488 1060.5,-420.9488 1060.5,-397.9488 791.5,-397.9488"/>
<text text-anchor="start" x="796.5" y="-406.5488" font-family="Helvetica,sans-Serif" font-weight="bold" font-size="11.00" fill="#000000">safer_custody_screening_outcome</text>
<text text-anchor="start" x="1026.0219" y="-406.0488" font-family="Helvetica,sans-Serif" font-size="11.00" fill="#000000">[table]</text>
<polygon fill="none" stroke="#000000" points="791.5,-378.9488 791.5,-397.9488 1060.5,-397.9488 1060.5,-378.9488 791.5,-378.9488"/>
<text text-anchor="start" x="794.5" y="-385.0488" font-family="Helvetica,sans-Serif" font-size="11.00" fill="#000000">...</text>
<polygon fill="#ffffff" stroke="transparent" points="791.5,-359.9488 791.5,-378.9488 924.5,-378.9488 924.5,-359.9488 791.5,-359.9488"/>
<polygon fill="none" stroke="#000000" points="791.5,-359.9488 791.5,-378.9488 924.5,-378.9488 924.5,-359.9488 791.5,-359.9488"/>
<text text-anchor="start" x="794.5" y="-366.0488" font-family="Helvetica,sans-Serif" font-size="11.00" fill="#000000">&lt; 2</text>
<polygon fill="#ffffff" stroke="transparent" points="924.5,-359.9488 924.5,-378.9488 992.5,-378.9488 992.5,-359.9488 924.5,-359.9488"/>
<polygon fill="none" stroke="#000000" points="924.5,-359.9488 924.5,-378.9488 992.5,-378.9488 992.5,-359.9488 924.5,-359.9488"/>
<text text-anchor="start" x="983.3862" y="-366.0488" font-family="Helvetica,sans-Serif" font-size="11.00" fill="#000000"> &#160;</text>
<polygon fill="#ffffff" stroke="transparent" points="992.5,-359.9488 992.5,-378.9488 1060.5,-378.9488 1060.5,-359.9488 992.5,-359.9488"/>
<polygon fill="none" stroke="#000000" points="992.5,-359.9488 992.5,-378.9488 1060.5,-378.9488 1060.5,-359.9488 992.5,-359.9488"/>
<text text-anchor="start" x="1051.3862" y="-366.0488" font-family="Helvetica,sans-Serif" font-size="11.00" fill="#000000"> &#160;</text>
</a>
</g>
</g>
<!-- safer_custody_screening_outcome&#45;&gt;reference_data -->
<g id="edge28" class="edge">
<title>safer_custody_screening_outcome:w&#45;&gt;reference_data:e</title>
<path fill="none" stroke="#000000" d="M900.5781,-343.5516C871.7609,-294.4366 819.2643,-220.5256 750,-188.9488 672.557,-153.6433 444.6486,-154.0977 367,-188.9488 235.4537,-247.9908 140.199,-402.0859 102.6486,-471.3486"/>
<polygon fill="#000000" stroke="#000000" points="903.7639,-349.1298 904.6053,-357.8621 905.7476,-352.6033 907.7314,-356.0767 907.7314,-356.0767 907.7314,-356.0767 905.7476,-352.6033 910.8575,-354.2913 903.7639,-349.1298 903.7639,-349.1298"/>
<ellipse fill="none" stroke="#000000" cx="902.1769" cy="-346.3511" rx="3.2" ry="3.2"/>
</g>
<!-- safer_custody_screening_outcome&#45;&gt;referral -->
<g id="edge29" class="edge">
<title>safer_custody_screening_outcome:w&#45;&gt;referral:e</title>
<path fill="none" stroke="#000000" d="M896.614,-434.6195C867.7886,-478.2255 822.2573,-547.1764 783,-606.9488 764.0519,-635.7988 775.0161,-671.9488 740.5,-671.9488"/>
<polygon fill="#000000" stroke="#000000" points="898.7252,-424.173 905.3987,-428.5849 904.5163,-429.9196 897.8428,-425.5077 898.7252,-424.173"/>
<polyline fill="none" stroke="#000000" points="902.5032,-425.7116 900.2972,-429.0483 "/>
<ellipse fill="none" stroke="#000000" cx="898.5324" cy="-431.7177" rx="3.2" ry="3.2"/>
</g>
</g>
</svg>
