<?xml version="1.0" encoding="UTF-8" standalone="no"?>
<!DOCTYPE svg PUBLIC "-//W3C//DTD SVG 1.1//EN"
 "http://www.w3.org/Graphics/SVG/1.1/DTD/svg11.dtd">
<!-- Generated by graphviz version 2.40.1 (20161225.0304)
 -->
<!-- Title: oneDegreeRelationshipsDiagram Pages: 1 -->
<svg width="1159pt" height="804pt"
 viewBox="0.00 0.00 1159.00 803.60" xmlns="http://www.w3.org/2000/svg" xmlns:xlink="http://www.w3.org/1999/xlink">
<g id="graph0" class="graph" transform="scale(1 1) rotate(0) translate(4 799.6046)">
<title>oneDegreeRelationshipsDiagram</title>
<polygon fill="#ffffff" stroke="transparent" points="-4,4 -4,-799.6046 1155,-799.6046 1155,4 -4,4"/>
<text text-anchor="middle" x="72.4936" y="-7.3" font-family="Helvetica,sans-Serif" font-size="11.00" fill="#000000">Generated by SchemaSpy</text>
<!-- contributory_factor -->
<g id="node1" class="node">
<title>contributory_factor</title>
<g id="a_node1"><a xlink:href="../../tables/contributory_factor.html" xlink:title="contributory_factor" target="_top">
<polygon fill="#ffffff" stroke="transparent" points="905,-642.6046 905,-791.6046 1111,-791.6046 1111,-642.6046 905,-642.6046"/>
<polygon fill="#f5f5f5" stroke="transparent" points="905,-768.1046 905,-791.1046 1111,-791.1046 1111,-768.1046 905,-768.1046"/>
<polygon fill="none" stroke="#000000" points="905,-768.1046 905,-791.1046 1111,-791.1046 1111,-768.1046 905,-768.1046"/>
<text text-anchor="start" x="910" y="-776.7046" font-family="Helvetica,sans-Serif" font-weight="bold" font-size="11.00" fill="#000000">contributory_factor</text>
<text text-anchor="start" x="1076.0437" y="-776.2046" font-family="Helvetica,sans-Serif" font-size="11.00" fill="#000000">[table]</text>
<polygon fill="none" stroke="#000000" points="905,-746.1046 905,-768.1046 1111,-768.1046 1111,-746.1046 905,-746.1046"/>
<image xlink:href="../../images/primaryKeys.png" width="11px" height="12px" preserveAspectRatio="xMinYMin meet" x="910" y="-763.105"/>
<text text-anchor="start" x="925" y="-753.2046" font-family="Helvetica,sans-Serif" font-size="11.00" fill="#000000">contributory_factor_id</text>
<polygon fill="#ffffff" stroke="transparent" points="905,-724.1046 905,-746.1046 1111,-746.1046 1111,-724.1046 905,-724.1046"/>
<polygon fill="none" stroke="#000000" points="905,-724.1046 905,-746.1046 1111,-746.1046 1111,-724.1046 905,-724.1046"/>
<image xlink:href="../../images/foreignKeys.png" width="11px" height="12px" preserveAspectRatio="xMinYMin meet" x="910" y="-741.105"/>
<text text-anchor="start" x="925" y="-731.2046" font-family="Helvetica,sans-Serif" font-size="11.00" fill="#000000">referral_id</text>
<polygon fill="#ffffff" stroke="transparent" points="905,-702.1046 905,-724.1046 1111,-724.1046 1111,-702.1046 905,-702.1046"/>
<polygon fill="none" stroke="#000000" points="905,-702.1046 905,-724.1046 1111,-724.1046 1111,-702.1046 905,-702.1046"/>
<image xlink:href="../../images/foreignKeys.png" width="11px" height="12px" preserveAspectRatio="xMinYMin meet" x="910" y="-719.105"/>
<text text-anchor="start" x="925" y="-709.2046" font-family="Helvetica,sans-Serif" font-size="11.00" fill="#000000">contributory_factor_type_id</text>
<polygon fill="#ffffff" stroke="transparent" points="905,-680.1046 905,-702.1046 1111,-702.1046 1111,-680.1046 905,-680.1046"/>
<polygon fill="none" stroke="#000000" points="905,-680.1046 905,-702.1046 1111,-702.1046 1111,-680.1046 905,-680.1046"/>
<image xlink:href="../../images/foreignKeys.png" width="11px" height="12px" preserveAspectRatio="xMinYMin meet" x="910" y="-697.105"/>
<text text-anchor="start" x="925" y="-687.2046" font-family="Helvetica,sans-Serif" font-size="11.00" fill="#000000">legacy_id</text>
<polygon fill="none" stroke="#000000" points="905,-661.1046 905,-680.1046 1111,-680.1046 1111,-661.1046 905,-661.1046"/>
<text text-anchor="start" x="908" y="-667.2046" font-family="Helvetica,sans-Serif" font-size="11.00" fill="#000000">...</text>
<polygon fill="#ffffff" stroke="transparent" points="905,-642.1046 905,-661.1046 1006,-661.1046 1006,-642.1046 905,-642.1046"/>
<polygon fill="none" stroke="#000000" points="905,-642.1046 905,-661.1046 1006,-661.1046 1006,-642.1046 905,-642.1046"/>
<text text-anchor="start" x="908" y="-648.2046" font-family="Helvetica,sans-Serif" font-size="11.00" fill="#000000">&lt; 2</text>
<polygon fill="#ffffff" stroke="transparent" points="1006,-642.1046 1006,-661.1046 1058,-661.1046 1058,-642.1046 1006,-642.1046"/>
<polygon fill="none" stroke="#000000" points="1006,-642.1046 1006,-661.1046 1058,-661.1046 1058,-642.1046 1006,-642.1046"/>
<text text-anchor="start" x="1048.8862" y="-648.2046" font-family="Helvetica,sans-Serif" font-size="11.00" fill="#000000"> &#160;</text>
<polygon fill="#ffffff" stroke="transparent" points="1058,-642.1046 1058,-661.1046 1111,-661.1046 1111,-642.1046 1058,-642.1046"/>
<polygon fill="none" stroke="#000000" points="1058,-642.1046 1058,-661.1046 1111,-661.1046 1111,-642.1046 1058,-642.1046"/>
<text text-anchor="start" x="1101.8862" y="-648.2046" font-family="Helvetica,sans-Serif" font-size="11.00" fill="#000000"> &#160;</text>
</a>
</g>
</g>
<!-- reference_data -->
<g id="node2" class="node">
<title>reference_data</title>
<g id="a_node2"><a xlink:href="../../tables/reference_data.html" xlink:title="reference_data" target="_top">
<polygon fill="#ffffff" stroke="transparent" points="8,-345.6046 8,-494.6046 149,-494.6046 149,-345.6046 8,-345.6046"/>
<polygon fill="#f5f5f5" stroke="transparent" points="8.5,-471.1046 8.5,-494.1046 149.5,-494.1046 149.5,-471.1046 8.5,-471.1046"/>
<polygon fill="none" stroke="#000000" points="8.5,-471.1046 8.5,-494.1046 149.5,-494.1046 149.5,-471.1046 8.5,-471.1046"/>
<text text-anchor="start" x="13.5" y="-479.7046" font-family="Helvetica,sans-Serif" font-weight="bold" font-size="11.00" fill="#000000">reference_data</text>
<text text-anchor="start" x="115.0219" y="-479.2046" font-family="Helvetica,sans-Serif" font-size="11.00" fill="#000000">[table]</text>
<polygon fill="none" stroke="#000000" points="8.5,-449.1046 8.5,-471.1046 149.5,-471.1046 149.5,-449.1046 8.5,-449.1046"/>
<image xlink:href="../../images/primaryKeys.png" width="11px" height="12px" preserveAspectRatio="xMinYMin meet" x="13.5" y="-466.105"/>
<text text-anchor="start" x="28.5" y="-456.2046" font-family="Helvetica,sans-Serif" font-size="11.00" fill="#000000">reference_data_id</text>
<polygon fill="#ffffff" stroke="transparent" points="8.5,-427.1046 8.5,-449.1046 149.5,-449.1046 149.5,-427.1046 8.5,-427.1046"/>
<polygon fill="none" stroke="#000000" points="8.5,-427.1046 8.5,-449.1046 149.5,-449.1046 149.5,-427.1046 8.5,-427.1046"/>
<text text-anchor="start" x="28.5" y="-434.2046" font-family="Helvetica,sans-Serif" font-size="11.00" fill="#000000">domain</text>
<polygon fill="#ffffff" stroke="transparent" points="8.5,-405.1046 8.5,-427.1046 149.5,-427.1046 149.5,-405.1046 8.5,-405.1046"/>
<polygon fill="none" stroke="#000000" points="8.5,-405.1046 8.5,-427.1046 149.5,-427.1046 149.5,-405.1046 8.5,-405.1046"/>
<text text-anchor="start" x="28.5" y="-412.2046" font-family="Helvetica,sans-Serif" font-size="11.00" fill="#000000">code</text>
<polygon fill="#ffffff" stroke="transparent" points="8.5,-383.1046 8.5,-405.1046 149.5,-405.1046 149.5,-383.1046 8.5,-383.1046"/>
<polygon fill="none" stroke="#000000" points="8.5,-383.1046 8.5,-405.1046 149.5,-405.1046 149.5,-383.1046 8.5,-383.1046"/>
<text text-anchor="start" x="28.5" y="-390.2046" font-family="Helvetica,sans-Serif" font-size="11.00" fill="#000000">list_sequence</text>
<polygon fill="none" stroke="#000000" points="8.5,-364.1046 8.5,-383.1046 149.5,-383.1046 149.5,-364.1046 8.5,-364.1046"/>
<text text-anchor="start" x="11.5" y="-370.2046" font-family="Helvetica,sans-Serif" font-size="11.00" fill="#000000">...</text>
<polygon fill="#ffffff" stroke="transparent" points="8.5,-345.1046 8.5,-364.1046 46.5,-364.1046 46.5,-345.1046 8.5,-345.1046"/>
<polygon fill="none" stroke="#000000" points="8.5,-345.1046 8.5,-364.1046 46.5,-364.1046 46.5,-345.1046 8.5,-345.1046"/>
<text text-anchor="start" x="11.5" y="-351.2046" font-family="Helvetica,sans-Serif" font-size="11.00" fill="#000000"> &#160;</text>
<polygon fill="#ffffff" stroke="transparent" points="46.5,-345.1046 46.5,-364.1046 109.5,-364.1046 109.5,-345.1046 46.5,-345.1046"/>
<polygon fill="none" stroke="#000000" points="46.5,-345.1046 46.5,-364.1046 109.5,-364.1046 109.5,-345.1046 46.5,-345.1046"/>
<text text-anchor="start" x="61.8807" y="-351.2046" font-family="Helvetica,sans-Serif" font-size="11.00" fill="#000000">112 rows</text>
<polygon fill="#ffffff" stroke="transparent" points="109.5,-345.1046 109.5,-364.1046 149.5,-364.1046 149.5,-345.1046 109.5,-345.1046"/>
<polygon fill="none" stroke="#000000" points="109.5,-345.1046 109.5,-364.1046 149.5,-364.1046 149.5,-345.1046 109.5,-345.1046"/>
<text text-anchor="start" x="124.7904" y="-351.2046" font-family="Helvetica,sans-Serif" font-size="11.00" fill="#000000">10 &gt;</text>
</a>
</g>
</g>
<!-- contributory_factor&#45;&gt;reference_data -->
<g id="edge1" class="edge">
<title>contributory_factor:w&#45;&gt;reference_data:e</title>
<path fill="none" stroke="#000000" d="M890.2182,-713.2434C582.2429,-719.0248 426.9487,-902.4328 190,-698.1046 149.3708,-663.0688 203.1492,-460.1046 149.5,-460.1046"/>
<polygon fill="#000000" stroke="#000000" points="897.0004,-713.1798 905.0338,-716.7044 901.0002,-713.1422 905,-713.1046 905,-713.1046 905,-713.1046 901.0002,-713.1422 904.9662,-709.5048 897.0004,-713.1798 897.0004,-713.1798"/>
<ellipse fill="none" stroke="#000000" cx="893.8005" cy="-713.2098" rx="3.2" ry="3.2"/>
</g>
<!-- referral -->
<g id="node3" class="node">
<title>referral</title>
<g id="a_node3"><a xlink:href="../../tables/referral.html" xlink:title="referral" target="_top">
<polygon fill="#ffffff" stroke="transparent" points="457,-181.1046 457,-689.1046 824,-689.1046 824,-181.1046 457,-181.1046"/>
<polygon fill="#f5f5f5" stroke="transparent" points="459.5,-664.1046 459.5,-687.1046 822.5,-687.1046 822.5,-664.1046 459.5,-664.1046"/>
<polygon fill="none" stroke="#000000" points="459.5,-664.1046 459.5,-687.1046 822.5,-687.1046 822.5,-664.1046 459.5,-664.1046"/>
<text text-anchor="start" x="464.5" y="-672.7046" font-family="Helvetica,sans-Serif" font-weight="bold" font-size="11.00" fill="#000000">referral</text>
<text text-anchor="start" x="787.5437" y="-672.2046" font-family="Helvetica,sans-Serif" font-size="11.00" fill="#000000">[table]</text>
<polygon fill="none" stroke="#000000" points="459.5,-642.1046 459.5,-664.1046 728.5,-664.1046 728.5,-642.1046 459.5,-642.1046"/>
<image xlink:href="../../images/primaryKeys.png" width="11px" height="12px" preserveAspectRatio="xMinYMin meet" x="464.5" y="-659.105"/>
<text text-anchor="start" x="479.5" y="-649.2046" font-family="Helvetica,sans-Serif" font-size="11.00" fill="#000000">referral_id</text>
<polygon fill="none" stroke="#000000" points="728.5,-642.1046 728.5,-664.1046 822.5,-664.1046 822.5,-642.1046 728.5,-642.1046"/>
<text text-anchor="start" x="731.4758" y="-649.8046" font-family="Helvetica,sans-Serif" font-size="11.00" fill="#000000">uuid[2147483647]</text>
<polygon fill="none" stroke="#000000" points="459.5,-620.1046 459.5,-642.1046 728.5,-642.1046 728.5,-620.1046 459.5,-620.1046"/>
<text text-anchor="start" x="479.5" y="-627.2046" font-family="Helvetica,sans-Serif" font-size="11.00" fill="#000000">incident_date</text>
<polygon fill="none" stroke="#000000" points="728.5,-620.1046 728.5,-642.1046 822.5,-642.1046 822.5,-620.1046 728.5,-620.1046"/>
<text text-anchor="start" x="731.5" y="-627.8046" font-family="Helvetica,sans-Serif" font-size="11.00" fill="#000000">date[13]</text>
<polygon fill="none" stroke="#000000" points="459.5,-598.1046 459.5,-620.1046 728.5,-620.1046 728.5,-598.1046 459.5,-598.1046"/>
<text text-anchor="start" x="479.5" y="-605.2046" font-family="Helvetica,sans-Serif" font-size="11.00" fill="#000000">incident_time</text>
<polygon fill="none" stroke="#000000" points="728.5,-598.1046 728.5,-620.1046 822.5,-620.1046 822.5,-598.1046 728.5,-598.1046"/>
<text text-anchor="start" x="731.5" y="-605.8046" font-family="Helvetica,sans-Serif" font-size="11.00" fill="#000000">time[15,6]</text>
<polygon fill="#ffffff" stroke="transparent" points="459.5,-576.1046 459.5,-598.1046 728.5,-598.1046 728.5,-576.1046 459.5,-576.1046"/>
<polygon fill="none" stroke="#000000" points="459.5,-576.1046 459.5,-598.1046 728.5,-598.1046 728.5,-576.1046 459.5,-576.1046"/>
<image xlink:href="../../images/foreignKeys.png" width="11px" height="12px" preserveAspectRatio="xMinYMin meet" x="464.5" y="-593.105"/>
<text text-anchor="start" x="479.5" y="-583.2046" font-family="Helvetica,sans-Serif" font-size="11.00" fill="#000000">incident_type_id</text>
<polygon fill="none" stroke="#000000" points="728.5,-576.1046 728.5,-598.1046 822.5,-598.1046 822.5,-576.1046 728.5,-576.1046"/>
<text text-anchor="start" x="731.5" y="-583.8046" font-family="Helvetica,sans-Serif" font-size="11.00" fill="#000000">int4[10]</text>
<polygon fill="#ffffff" stroke="transparent" points="459.5,-554.1046 459.5,-576.1046 728.5,-576.1046 728.5,-554.1046 459.5,-554.1046"/>
<polygon fill="none" stroke="#000000" points="459.5,-554.1046 459.5,-576.1046 728.5,-576.1046 728.5,-554.1046 459.5,-554.1046"/>
<image xlink:href="../../images/foreignKeys.png" width="11px" height="12px" preserveAspectRatio="xMinYMin meet" x="464.5" y="-571.105"/>
<text text-anchor="start" x="479.5" y="-561.2046" font-family="Helvetica,sans-Serif" font-size="11.00" fill="#000000">incident_location_id</text>
<polygon fill="none" stroke="#000000" points="728.5,-554.1046 728.5,-576.1046 822.5,-576.1046 822.5,-554.1046 728.5,-554.1046"/>
<text text-anchor="start" x="731.5" y="-561.8046" font-family="Helvetica,sans-Serif" font-size="11.00" fill="#000000">int4[10]</text>
<polygon fill="none" stroke="#000000" points="459.5,-532.1046 459.5,-554.1046 728.5,-554.1046 728.5,-532.1046 459.5,-532.1046"/>
<text text-anchor="start" x="479.5" y="-539.2046" font-family="Helvetica,sans-Serif" font-size="11.00" fill="#000000">referred_by</text>
<polygon fill="none" stroke="#000000" points="728.5,-532.1046 728.5,-554.1046 822.5,-554.1046 822.5,-532.1046 728.5,-532.1046"/>
<text text-anchor="start" x="731.5" y="-539.8046" font-family="Helvetica,sans-Serif" font-size="11.00" fill="#000000">varchar[240]</text>
<polygon fill="#ffffff" stroke="transparent" points="459.5,-510.1046 459.5,-532.1046 728.5,-532.1046 728.5,-510.1046 459.5,-510.1046"/>
<polygon fill="none" stroke="#000000" points="459.5,-510.1046 459.5,-532.1046 728.5,-532.1046 728.5,-510.1046 459.5,-510.1046"/>
<image xlink:href="../../images/foreignKeys.png" width="11px" height="12px" preserveAspectRatio="xMinYMin meet" x="464.5" y="-527.105"/>
<text text-anchor="start" x="479.5" y="-517.2046" font-family="Helvetica,sans-Serif" font-size="11.00" fill="#000000">referer_area_of_work_id</text>
<polygon fill="none" stroke="#000000" points="728.5,-510.1046 728.5,-532.1046 822.5,-532.1046 822.5,-510.1046 728.5,-510.1046"/>
<text text-anchor="start" x="731.5" y="-517.8046" font-family="Helvetica,sans-Serif" font-size="11.00" fill="#000000">int4[10]</text>
<polygon fill="#ffffff" stroke="transparent" points="459.5,-488.1046 459.5,-510.1046 728.5,-510.1046 728.5,-488.1046 459.5,-488.1046"/>
<polygon fill="none" stroke="#000000" points="459.5,-488.1046 459.5,-510.1046 728.5,-510.1046 728.5,-488.1046 459.5,-488.1046"/>
<text text-anchor="start" x="479.5" y="-495.2046" font-family="Helvetica,sans-Serif" font-size="11.00" fill="#000000">referral_date</text>
<polygon fill="none" stroke="#000000" points="728.5,-488.1046 728.5,-510.1046 822.5,-510.1046 822.5,-488.1046 728.5,-488.1046"/>
<text text-anchor="start" x="731.5" y="-495.8046" font-family="Helvetica,sans-Serif" font-size="11.00" fill="#000000">date[13]</text>
<polygon fill="none" stroke="#000000" points="459.5,-466.1046 459.5,-488.1046 728.5,-488.1046 728.5,-466.1046 459.5,-466.1046"/>
<text text-anchor="start" x="479.5" y="-473.2046" font-family="Helvetica,sans-Serif" font-size="11.00" fill="#000000">proactive_referral</text>
<polygon fill="none" stroke="#000000" points="728.5,-466.1046 728.5,-488.1046 822.5,-488.1046 822.5,-466.1046 728.5,-466.1046"/>
<text text-anchor="start" x="731.5" y="-473.8046" font-family="Helvetica,sans-Serif" font-size="11.00" fill="#000000">bool[1]</text>
<polygon fill="none" stroke="#000000" points="459.5,-444.1046 459.5,-466.1046 728.5,-466.1046 728.5,-444.1046 459.5,-444.1046"/>
<text text-anchor="start" x="479.5" y="-451.2046" font-family="Helvetica,sans-Serif" font-size="11.00" fill="#000000">staff_assaulted</text>
<polygon fill="none" stroke="#000000" points="728.5,-444.1046 728.5,-466.1046 822.5,-466.1046 822.5,-444.1046 728.5,-444.1046"/>
<text text-anchor="start" x="731.5" y="-451.8046" font-family="Helvetica,sans-Serif" font-size="11.00" fill="#000000">bool[1]</text>
<polygon fill="none" stroke="#000000" points="459.5,-422.1046 459.5,-444.1046 728.5,-444.1046 728.5,-422.1046 459.5,-422.1046"/>
<text text-anchor="start" x="479.5" y="-429.2046" font-family="Helvetica,sans-Serif" font-size="11.00" fill="#000000">assaulted_staff_name</text>
<polygon fill="none" stroke="#000000" points="728.5,-422.1046 728.5,-444.1046 822.5,-444.1046 822.5,-422.1046 728.5,-422.1046"/>
<text text-anchor="start" x="731.5" y="-429.8046" font-family="Helvetica,sans-Serif" font-size="11.00" fill="#000000">text[2147483647]</text>
<polygon fill="#ffffff" stroke="transparent" points="459.5,-400.1046 459.5,-422.1046 728.5,-422.1046 728.5,-400.1046 459.5,-400.1046"/>
<polygon fill="none" stroke="#000000" points="459.5,-400.1046 459.5,-422.1046 728.5,-422.1046 728.5,-400.1046 459.5,-400.1046"/>
<image xlink:href="../../images/foreignKeys.png" width="11px" height="12px" preserveAspectRatio="xMinYMin meet" x="464.5" y="-417.105"/>
<text text-anchor="start" x="479.5" y="-407.2046" font-family="Helvetica,sans-Serif" font-size="11.00" fill="#000000">incident_involvement_id</text>
<polygon fill="none" stroke="#000000" points="728.5,-400.1046 728.5,-422.1046 822.5,-422.1046 822.5,-400.1046 728.5,-400.1046"/>
<text text-anchor="start" x="731.5" y="-407.8046" font-family="Helvetica,sans-Serif" font-size="11.00" fill="#000000">int4[10]</text>
<polygon fill="none" stroke="#000000" points="459.5,-378.1046 459.5,-400.1046 728.5,-400.1046 728.5,-378.1046 459.5,-378.1046"/>
<text text-anchor="start" x="479.5" y="-385.2046" font-family="Helvetica,sans-Serif" font-size="11.00" fill="#000000">description_of_concern</text>
<polygon fill="none" stroke="#000000" points="728.5,-378.1046 728.5,-400.1046 822.5,-400.1046 822.5,-378.1046 728.5,-378.1046"/>
<text text-anchor="start" x="731.5" y="-385.8046" font-family="Helvetica,sans-Serif" font-size="11.00" fill="#000000">text[2147483647]</text>
<polygon fill="none" stroke="#000000" points="459.5,-356.1046 459.5,-378.1046 728.5,-378.1046 728.5,-356.1046 459.5,-356.1046"/>
<text text-anchor="start" x="479.5" y="-363.2046" font-family="Helvetica,sans-Serif" font-size="11.00" fill="#000000">known_reasons</text>
<polygon fill="none" stroke="#000000" points="728.5,-356.1046 728.5,-378.1046 822.5,-378.1046 822.5,-356.1046 728.5,-356.1046"/>
<text text-anchor="start" x="731.5" y="-363.8046" font-family="Helvetica,sans-Serif" font-size="11.00" fill="#000000">text[2147483647]</text>
<polygon fill="none" stroke="#000000" points="459.5,-334.1046 459.5,-356.1046 728.5,-356.1046 728.5,-334.1046 459.5,-334.1046"/>
<text text-anchor="start" x="479.5" y="-341.2046" font-family="Helvetica,sans-Serif" font-size="11.00" fill="#000000">other_information</text>
<polygon fill="none" stroke="#000000" points="728.5,-334.1046 728.5,-356.1046 822.5,-356.1046 822.5,-334.1046 728.5,-334.1046"/>
<text text-anchor="start" x="731.5" y="-341.8046" font-family="Helvetica,sans-Serif" font-size="11.00" fill="#000000">text[2147483647]</text>
<polygon fill="none" stroke="#000000" points="459.5,-312.1046 459.5,-334.1046 728.5,-334.1046 728.5,-312.1046 459.5,-312.1046"/>
<text text-anchor="start" x="479.5" y="-319.2046" font-family="Helvetica,sans-Serif" font-size="11.00" fill="#000000">safer_custody_team_informed</text>
<polygon fill="none" stroke="#000000" points="728.5,-312.1046 728.5,-334.1046 822.5,-334.1046 822.5,-312.1046 728.5,-312.1046"/>
<text text-anchor="start" x="731.5" y="-319.8046" font-family="Helvetica,sans-Serif" font-size="11.00" fill="#000000">varchar[12]</text>
<polygon fill="none" stroke="#000000" points="459.5,-290.1046 459.5,-312.1046 728.5,-312.1046 728.5,-290.1046 459.5,-290.1046"/>
<text text-anchor="start" x="479.5" y="-297.2046" font-family="Helvetica,sans-Serif" font-size="11.00" fill="#000000">referral_complete</text>
<polygon fill="none" stroke="#000000" points="728.5,-290.1046 728.5,-312.1046 822.5,-312.1046 822.5,-290.1046 728.5,-290.1046"/>
<text text-anchor="start" x="731.5" y="-297.8046" font-family="Helvetica,sans-Serif" font-size="11.00" fill="#000000">bool[1]</text>
<polygon fill="none" stroke="#000000" points="459.5,-268.1046 459.5,-290.1046 728.5,-290.1046 728.5,-268.1046 459.5,-268.1046"/>
<text text-anchor="start" x="479.5" y="-275.2046" font-family="Helvetica,sans-Serif" font-size="11.00" fill="#000000">referral_completed_by</text>
<polygon fill="none" stroke="#000000" points="728.5,-268.1046 728.5,-290.1046 822.5,-290.1046 822.5,-268.1046 728.5,-268.1046"/>
<text text-anchor="start" x="731.5" y="-275.8046" font-family="Helvetica,sans-Serif" font-size="11.00" fill="#000000">varchar[64]</text>
<polygon fill="none" stroke="#000000" points="459.5,-246.1046 459.5,-268.1046 728.5,-268.1046 728.5,-246.1046 459.5,-246.1046"/>
<text text-anchor="start" x="479.5" y="-253.2046" font-family="Helvetica,sans-Serif" font-size="11.00" fill="#000000">referral_completed_by_display_name</text>
<polygon fill="none" stroke="#000000" points="728.5,-246.1046 728.5,-268.1046 822.5,-268.1046 822.5,-246.1046 728.5,-246.1046"/>
<text text-anchor="start" x="731.5" y="-253.8046" font-family="Helvetica,sans-Serif" font-size="11.00" fill="#000000">varchar[255]</text>
<polygon fill="none" stroke="#000000" points="459.5,-224.1046 459.5,-246.1046 728.5,-246.1046 728.5,-224.1046 459.5,-224.1046"/>
<text text-anchor="start" x="479.5" y="-231.2046" font-family="Helvetica,sans-Serif" font-size="11.00" fill="#000000">referral_completed_date</text>
<polygon fill="none" stroke="#000000" points="728.5,-224.1046 728.5,-246.1046 822.5,-246.1046 822.5,-224.1046 728.5,-224.1046"/>
<text text-anchor="start" x="731.5" y="-231.8046" font-family="Helvetica,sans-Serif" font-size="11.00" fill="#000000">date[13]</text>
<polygon fill="none" stroke="#000000" points="459.5,-202.1046 459.5,-224.1046 728.5,-224.1046 728.5,-202.1046 459.5,-202.1046"/>
<text text-anchor="start" x="479.5" y="-209.2046" font-family="Helvetica,sans-Serif" font-size="11.00" fill="#000000">version</text>
<polygon fill="none" stroke="#000000" points="728.5,-202.1046 728.5,-224.1046 822.5,-224.1046 822.5,-202.1046 728.5,-202.1046"/>
<text text-anchor="start" x="731.5" y="-209.8046" font-family="Helvetica,sans-Serif" font-size="11.00" fill="#000000">int4[10]</text>
<polygon fill="#ffffff" stroke="transparent" points="459.5,-183.1046 459.5,-202.1046 598.5,-202.1046 598.5,-183.1046 459.5,-183.1046"/>
<polygon fill="none" stroke="#000000" points="459.5,-183.1046 459.5,-202.1046 598.5,-202.1046 598.5,-183.1046 459.5,-183.1046"/>
<text text-anchor="start" x="462.5" y="-189.2046" font-family="Helvetica,sans-Serif" font-size="11.00" fill="#000000">&lt; 5</text>
<polygon fill="#ffffff" stroke="transparent" points="598.5,-183.1046 598.5,-202.1046 728.5,-202.1046 728.5,-183.1046 598.5,-183.1046"/>
<polygon fill="none" stroke="#000000" points="598.5,-183.1046 598.5,-202.1046 728.5,-202.1046 728.5,-183.1046 598.5,-183.1046"/>
<text text-anchor="start" x="719.3862" y="-189.2046" font-family="Helvetica,sans-Serif" font-size="11.00" fill="#000000"> &#160;</text>
<polygon fill="#ffffff" stroke="transparent" points="728.5,-183.1046 728.5,-202.1046 822.5,-202.1046 822.5,-183.1046 728.5,-183.1046"/>
<polygon fill="none" stroke="#000000" points="728.5,-183.1046 728.5,-202.1046 822.5,-202.1046 822.5,-183.1046 728.5,-183.1046"/>
<text text-anchor="start" x="803.9053" y="-189.2046" font-family="Helvetica,sans-Serif" font-size="11.00" fill="#000000">4 &gt;</text>
<polygon fill="none" stroke="#000000" stroke-width="2" points="458,-182.1046 458,-688.1046 823,-688.1046 823,-182.1046 458,-182.1046"/>
</a>
</g>
</g>
<!-- contributory_factor&#45;&gt;referral -->
<g id="edge2" class="edge">
<title>contributory_factor:w&#45;&gt;referral:e</title>
<path fill="none" stroke="#000000" d="M890.452,-732.3763C857.0048,-718.1481 868.5432,-653.1046 822.5,-653.1046"/>
<polygon fill="#000000" stroke="#000000" points="897.1371,-733.63 904.3364,-738.6429 901.0685,-734.3673 905,-735.1046 905,-735.1046 905,-735.1046 901.0685,-734.3673 905.6636,-731.5663 897.1371,-733.63 897.1371,-733.63"/>
<ellipse fill="none" stroke="#000000" cx="893.9919" cy="-733.0401" rx="3.2" ry="3.2"/>
</g>
<!-- referral&#45;&gt;reference_data -->
<g id="edge8" class="edge">
<title>referral:w&#45;&gt;reference_data:e</title>
<path fill="none" stroke="#000000" d="M445.0567,-411.1838C335.8889,-412.4131 303.909,-427.8557 190,-450.1046 171.8033,-453.6588 168.0406,-460.1046 149.5,-460.1046"/>
<polygon fill="#000000" stroke="#000000" points="451.5001,-411.1485 459.5198,-414.7046 455.5001,-411.1266 459.5,-411.1046 459.5,-411.1046 459.5,-411.1046 455.5001,-411.1266 459.4802,-407.5047 451.5001,-411.1485 451.5001,-411.1485"/>
<ellipse fill="none" stroke="#000000" cx="448.3002" cy="-411.1661" rx="3.2" ry="3.2"/>
</g>
<!-- referral&#45;&gt;reference_data -->
<g id="edge9" class="edge">
<title>referral:w&#45;&gt;reference_data:e</title>
<path fill="none" stroke="#000000" d="M445.5528,-560.9675C431.3823,-549.6799 439.0605,-518.2534 416,-504.1046 329.4222,-450.9848 289.6359,-489.8559 190,-470.1046 171.8133,-466.4994 168.0406,-460.1046 149.5,-460.1046"/>
<polygon fill="#000000" stroke="#000000" points="451.8303,-562.8295 458.4762,-568.556 455.6652,-563.9671 459.5,-565.1046 459.5,-565.1046 459.5,-565.1046 455.6652,-563.9671 460.5238,-561.6532 451.8303,-562.8295 451.8303,-562.8295"/>
<ellipse fill="none" stroke="#000000" cx="448.7624" cy="-561.9195" rx="3.2" ry="3.2"/>
</g>
<!-- referral&#45;&gt;reference_data -->
<g id="edge10" class="edge">
<title>referral:w&#45;&gt;reference_data:e</title>
<path fill="none" stroke="#000000" d="M445.3889,-582.7637C431.8766,-571.5374 438.5406,-541.4908 416,-528.1046 328.8282,-476.336 281.8018,-540.1318 190,-497.1046 167.9238,-486.7576 173.8807,-460.1046 149.5,-460.1046"/>
<polygon fill="#000000" stroke="#000000" points="451.8536,-584.7523 458.4415,-590.5455 455.6768,-585.9285 459.5,-587.1046 459.5,-587.1046 459.5,-587.1046 455.6768,-585.9285 460.5585,-583.6637 451.8536,-584.7523 451.8536,-584.7523"/>
<ellipse fill="none" stroke="#000000" cx="448.7951" cy="-583.8114" rx="3.2" ry="3.2"/>
</g>
<!-- referral&#45;&gt;reference_data -->
<g id="edge11" class="edge">
<title>referral:w&#45;&gt;reference_data:e</title>
<path fill="none" stroke="#000000" d="M445.7009,-516.7129C433.5821,-506.4831 436.948,-481.1728 416,-471.1046 309.1548,-419.752 268.0453,-460.1046 149.5,-460.1046"/>
<polygon fill="#000000" stroke="#000000" points="451.8768,-518.6784 458.4082,-524.5351 455.6884,-519.8915 459.5,-521.1046 459.5,-521.1046 459.5,-521.1046 455.6884,-519.8915 460.5918,-517.6741 451.8768,-518.6784 451.8768,-518.6784"/>
<ellipse fill="none" stroke="#000000" cx="448.8275" cy="-517.7079" rx="3.2" ry="3.2"/>
</g>
<!-- csip_record -->
<g id="node4" class="node">
<title>csip_record</title>
<g id="a_node4"><a xlink:href="../../tables/csip_record.html" xlink:title="csip_record" target="_top">
<polygon fill="#ffffff" stroke="transparent" points="198,-538.6046 198,-687.6046 408,-687.6046 408,-538.6046 198,-538.6046"/>
<polygon fill="#f5f5f5" stroke="transparent" points="198,-664.1046 198,-687.1046 408,-687.1046 408,-664.1046 198,-664.1046"/>
<polygon fill="none" stroke="#000000" points="198,-664.1046 198,-687.1046 408,-687.1046 408,-664.1046 198,-664.1046"/>
<text text-anchor="start" x="203" y="-672.7046" font-family="Helvetica,sans-Serif" font-weight="bold" font-size="11.00" fill="#000000">csip_record</text>
<text text-anchor="start" x="373.0437" y="-672.2046" font-family="Helvetica,sans-Serif" font-size="11.00" fill="#000000">[table]</text>
<polygon fill="none" stroke="#000000" points="198,-642.1046 198,-664.1046 408,-664.1046 408,-642.1046 198,-642.1046"/>
<image xlink:href="../../images/primaryKeys.png" width="11px" height="12px" preserveAspectRatio="xMinYMin meet" x="203" y="-659.105"/>
<text text-anchor="start" x="218" y="-649.2046" font-family="Helvetica,sans-Serif" font-size="11.00" fill="#000000">record_id</text>
<polygon fill="#ffffff" stroke="transparent" points="198,-620.1046 198,-642.1046 408,-642.1046 408,-620.1046 198,-620.1046"/>
<polygon fill="none" stroke="#000000" points="198,-620.1046 198,-642.1046 408,-642.1046 408,-620.1046 198,-620.1046"/>
<image xlink:href="../../images/foreignKeys.png" width="11px" height="12px" preserveAspectRatio="xMinYMin meet" x="203" y="-637.105"/>
<text text-anchor="start" x="218" y="-627.2046" font-family="Helvetica,sans-Serif" font-size="11.00" fill="#000000">prison_number</text>
<polygon fill="#ffffff" stroke="transparent" points="198,-598.1046 198,-620.1046 408,-620.1046 408,-598.1046 198,-598.1046"/>
<polygon fill="none" stroke="#000000" points="198,-598.1046 198,-620.1046 408,-620.1046 408,-598.1046 198,-598.1046"/>
<image xlink:href="../../images/foreignKeys.png" width="11px" height="12px" preserveAspectRatio="xMinYMin meet" x="203" y="-615.105"/>
<text text-anchor="start" x="218" y="-605.2046" font-family="Helvetica,sans-Serif" font-size="11.00" fill="#000000">legacy_id</text>
<polygon fill="#ffffff" stroke="transparent" points="198,-576.1046 198,-598.1046 408,-598.1046 408,-576.1046 198,-576.1046"/>
<polygon fill="none" stroke="#000000" points="198,-576.1046 198,-598.1046 408,-598.1046 408,-576.1046 198,-576.1046"/>
<image xlink:href="../../images/foreignKeys.png" width="11px" height="12px" preserveAspectRatio="xMinYMin meet" x="203" y="-593.105"/>
<text text-anchor="start" x="218" y="-583.2046" font-family="Helvetica,sans-Serif" font-size="11.00" fill="#000000">status_id</text>
<polygon fill="none" stroke="#000000" points="198,-557.1046 198,-576.1046 408,-576.1046 408,-557.1046 198,-557.1046"/>
<text text-anchor="start" x="201" y="-563.2046" font-family="Helvetica,sans-Serif" font-size="11.00" fill="#000000">...</text>
<polygon fill="#ffffff" stroke="transparent" points="198,-538.1046 198,-557.1046 297,-557.1046 297,-538.1046 198,-538.1046"/>
<polygon fill="none" stroke="#000000" points="198,-538.1046 198,-557.1046 297,-557.1046 297,-538.1046 198,-538.1046"/>
<text text-anchor="start" x="201" y="-544.2046" font-family="Helvetica,sans-Serif" font-size="11.00" fill="#000000">&lt; 2</text>
<polygon fill="#ffffff" stroke="transparent" points="297,-538.1046 297,-557.1046 348,-557.1046 348,-538.1046 297,-538.1046"/>
<polygon fill="none" stroke="#000000" points="297,-538.1046 297,-557.1046 348,-557.1046 348,-538.1046 297,-538.1046"/>
<text text-anchor="start" x="338.8862" y="-544.2046" font-family="Helvetica,sans-Serif" font-size="11.00" fill="#000000"> &#160;</text>
<polygon fill="#ffffff" stroke="transparent" points="348,-538.1046 348,-557.1046 408,-557.1046 408,-538.1046 348,-538.1046"/>
<polygon fill="none" stroke="#000000" points="348,-538.1046 348,-557.1046 408,-557.1046 408,-538.1046 348,-538.1046"/>
<text text-anchor="start" x="389.4053" y="-544.2046" font-family="Helvetica,sans-Serif" font-size="11.00" fill="#000000">2 &gt;</text>
</a>
</g>
</g>
<!-- referral&#45;&gt;csip_record -->
<g id="edge12" class="edge">
<title>referral:w&#45;&gt;csip_record:e</title>
<path fill="none" stroke="#000000" d="M449.045,-653.1046C434.137,-653.1046 426.9549,-653.1046 408,-653.1046"/>
<polygon fill="#000000" stroke="#000000" points="458.7,-649.1046 458.7,-657.1046 457.1,-657.1046 457.1,-649.1046 458.7,-649.1046"/>
<polyline fill="none" stroke="#000000" points="459.5,-653.1046 455.5,-653.1046 "/>
<ellipse fill="none" stroke="#000000" cx="452.3" cy="-653.1047" rx="3.2" ry="3.2"/>
</g>
<!-- csip_record&#45;&gt;reference_data -->
<g id="edge3" class="edge">
<title>csip_record:w&#45;&gt;reference_data:e</title>
<path fill="none" stroke="#000000" d="M183.8498,-583.7077C150.4426,-563.5111 204.0199,-460.1046 149.5,-460.1046"/>
<polygon fill="#000000" stroke="#000000" points="190.221,-585.2371 197.1596,-590.6052 194.1105,-586.1709 198,-587.1046 198,-587.1046 198,-587.1046 194.1105,-586.1709 198.8404,-583.6041 190.221,-585.2371 190.221,-585.2371"/>
<ellipse fill="none" stroke="#000000" cx="187.1094" cy="-584.4901" rx="3.2" ry="3.2"/>
</g>
<!-- decision_and_actions -->
<g id="node5" class="node">
<title>decision_and_actions</title>
<g id="a_node5"><a xlink:href="../../tables/decision_and_actions.html" xlink:title="decision_and_actions" target="_top">
<polygon fill="#ffffff" stroke="transparent" points="907.5,-180.6046 907.5,-307.6046 1108.5,-307.6046 1108.5,-180.6046 907.5,-180.6046"/>
<polygon fill="#f5f5f5" stroke="transparent" points="908,-284.1046 908,-307.1046 1109,-307.1046 1109,-284.1046 908,-284.1046"/>
<polygon fill="none" stroke="#000000" points="908,-284.1046 908,-307.1046 1109,-307.1046 1109,-284.1046 908,-284.1046"/>
<text text-anchor="start" x="913" y="-292.7046" font-family="Helvetica,sans-Serif" font-weight="bold" font-size="11.00" fill="#000000">decision_and_actions</text>
<text text-anchor="start" x="1074.0437" y="-292.2046" font-family="Helvetica,sans-Serif" font-size="11.00" fill="#000000">[table]</text>
<polygon fill="none" stroke="#000000" points="908,-262.1046 908,-284.1046 1109,-284.1046 1109,-262.1046 908,-262.1046"/>
<image xlink:href="../../images/primaryKeys.png" width="11px" height="12px" preserveAspectRatio="xMinYMin meet" x="913" y="-279.105"/>
<text text-anchor="start" x="928" y="-269.2046" font-family="Helvetica,sans-Serif" font-size="11.00" fill="#000000">decision_and_actions_id</text>
<polygon fill="#ffffff" stroke="transparent" points="908,-240.1046 908,-262.1046 1109,-262.1046 1109,-240.1046 908,-240.1046"/>
<polygon fill="none" stroke="#000000" points="908,-240.1046 908,-262.1046 1109,-262.1046 1109,-240.1046 908,-240.1046"/>
<image xlink:href="../../images/foreignKeys.png" width="11px" height="12px" preserveAspectRatio="xMinYMin meet" x="913" y="-257.105"/>
<text text-anchor="start" x="928" y="-247.2046" font-family="Helvetica,sans-Serif" font-size="11.00" fill="#000000">outcome_id</text>
<polygon fill="#ffffff" stroke="transparent" points="908,-218.1046 908,-240.1046 1109,-240.1046 1109,-218.1046 908,-218.1046"/>
<polygon fill="none" stroke="#000000" points="908,-218.1046 908,-240.1046 1109,-240.1046 1109,-218.1046 908,-218.1046"/>
<image xlink:href="../../images/foreignKeys.png" width="11px" height="12px" preserveAspectRatio="xMinYMin meet" x="913" y="-235.105"/>
<text text-anchor="start" x="928" y="-225.2046" font-family="Helvetica,sans-Serif" font-size="11.00" fill="#000000">signed_off_by_role_id</text>
<polygon fill="none" stroke="#000000" points="908,-199.1046 908,-218.1046 1109,-218.1046 1109,-199.1046 908,-199.1046"/>
<text text-anchor="start" x="911" y="-205.2046" font-family="Helvetica,sans-Serif" font-size="11.00" fill="#000000">...</text>
<polygon fill="#ffffff" stroke="transparent" points="908,-180.1046 908,-199.1046 1007,-199.1046 1007,-180.1046 908,-180.1046"/>
<polygon fill="none" stroke="#000000" points="908,-180.1046 908,-199.1046 1007,-199.1046 1007,-180.1046 908,-180.1046"/>
<text text-anchor="start" x="911" y="-186.2046" font-family="Helvetica,sans-Serif" font-size="11.00" fill="#000000">&lt; 3</text>
<polygon fill="#ffffff" stroke="transparent" points="1007,-180.1046 1007,-199.1046 1058,-199.1046 1058,-180.1046 1007,-180.1046"/>
<polygon fill="none" stroke="#000000" points="1007,-180.1046 1007,-199.1046 1058,-199.1046 1058,-180.1046 1007,-180.1046"/>
<text text-anchor="start" x="1048.8862" y="-186.2046" font-family="Helvetica,sans-Serif" font-size="11.00" fill="#000000"> &#160;</text>
<polygon fill="#ffffff" stroke="transparent" points="1058,-180.1046 1058,-199.1046 1109,-199.1046 1109,-180.1046 1058,-180.1046"/>
<polygon fill="none" stroke="#000000" points="1058,-180.1046 1058,-199.1046 1109,-199.1046 1109,-180.1046 1058,-180.1046"/>
<text text-anchor="start" x="1099.8862" y="-186.2046" font-family="Helvetica,sans-Serif" font-size="11.00" fill="#000000"> &#160;</text>
</a>
</g>
</g>
<!-- decision_and_actions&#45;&gt;reference_data -->
<g id="edge5" class="edge">
<title>decision_and_actions:w&#45;&gt;reference_data:e</title>
<path fill="none" stroke="#000000" d="M893.729,-248.9178C862.2495,-237.8929 871.9598,-188.2598 832,-171.1046 753.7915,-137.5288 528.3349,-140.2846 449,-171.1046 303.5583,-227.6058 295.8668,-293.4839 190,-408.1046 170.1242,-429.6239 178.7937,-460.1046 149.5,-460.1046"/>
<polygon fill="#000000" stroke="#000000" points="900.0923,-249.8928 907.4547,-254.6631 904.0461,-250.4987 908,-251.1046 908,-251.1046 908,-251.1046 904.0461,-250.4987 908.5453,-247.5461 900.0923,-249.8928 900.0923,-249.8928"/>
<ellipse fill="none" stroke="#000000" cx="896.9292" cy="-249.4081" rx="3.2" ry="3.2"/>
</g>
<!-- decision_and_actions&#45;&gt;reference_data -->
<g id="edge6" class="edge">
<title>decision_and_actions:w&#45;&gt;reference_data:e</title>
<path fill="none" stroke="#000000" d="M893.6815,-226.9133C860.8832,-215.4051 873.4157,-161.775 832,-143.1046 766.8494,-113.7343 240.4121,-131.4504 190,-182.1046 145.9613,-226.3548 211.9299,-460.1046 149.5,-460.1046"/>
<polygon fill="#000000" stroke="#000000" points="900.0921,-227.8943 907.4554,-232.6632 904.046,-228.4995 908,-229.1046 908,-229.1046 908,-229.1046 904.046,-228.4995 908.5446,-225.546 900.0921,-227.8943 900.0921,-227.8943"/>
<ellipse fill="none" stroke="#000000" cx="896.9289" cy="-227.4102" rx="3.2" ry="3.2"/>
</g>
<!-- decision_and_actions&#45;&gt;referral -->
<g id="edge4" class="edge">
<title>decision_and_actions:w&#45;&gt;referral:e</title>
<path fill="none" stroke="#000000" d="M897.7795,-275.1491C828.652,-305.0593 905.3364,-653.1046 822.5,-653.1046"/>
<polygon fill="#000000" stroke="#000000" points="906.4309,-269.3392 908.0002,-277.1838 906.4313,-277.4977 904.862,-269.6531 906.4309,-269.3392"/>
<polyline fill="none" stroke="#000000" points="908,-273.1046 904.0777,-273.8893 "/>
<ellipse fill="none" stroke="#000000" cx="900.9399" cy="-274.517" rx="3.2" ry="3.2"/>
</g>
<!-- investigation -->
<g id="node6" class="node">
<title>investigation</title>
<g id="a_node6"><a xlink:href="../../tables/investigation.html" xlink:title="investigation" target="_top">
<polygon fill="#ffffff" stroke="transparent" points="907.5,-538.6046 907.5,-621.6046 1108.5,-621.6046 1108.5,-538.6046 907.5,-538.6046"/>
<polygon fill="#f5f5f5" stroke="transparent" points="908,-598.1046 908,-621.1046 1109,-621.1046 1109,-598.1046 908,-598.1046"/>
<polygon fill="none" stroke="#000000" points="908,-598.1046 908,-621.1046 1109,-621.1046 1109,-598.1046 908,-598.1046"/>
<text text-anchor="start" x="913" y="-606.7046" font-family="Helvetica,sans-Serif" font-weight="bold" font-size="11.00" fill="#000000">investigation</text>
<text text-anchor="start" x="1074.0437" y="-606.2046" font-family="Helvetica,sans-Serif" font-size="11.00" fill="#000000">[table]</text>
<polygon fill="none" stroke="#000000" points="908,-576.1046 908,-598.1046 1109,-598.1046 1109,-576.1046 908,-576.1046"/>
<image xlink:href="../../images/primaryKeys.png" width="11px" height="12px" preserveAspectRatio="xMinYMin meet" x="913" y="-593.105"/>
<text text-anchor="start" x="928" y="-583.2046" font-family="Helvetica,sans-Serif" font-size="11.00" fill="#000000">investigation_id</text>
<polygon fill="none" stroke="#000000" points="908,-557.1046 908,-576.1046 1109,-576.1046 1109,-557.1046 908,-557.1046"/>
<text text-anchor="start" x="911" y="-563.2046" font-family="Helvetica,sans-Serif" font-size="11.00" fill="#000000">...</text>
<polygon fill="#ffffff" stroke="transparent" points="908,-538.1046 908,-557.1046 1002,-557.1046 1002,-538.1046 908,-538.1046"/>
<polygon fill="none" stroke="#000000" points="908,-538.1046 908,-557.1046 1002,-557.1046 1002,-538.1046 908,-538.1046"/>
<text text-anchor="start" x="911" y="-544.2046" font-family="Helvetica,sans-Serif" font-size="11.00" fill="#000000">&lt; 1</text>
<polygon fill="#ffffff" stroke="transparent" points="1002,-538.1046 1002,-557.1046 1051,-557.1046 1051,-538.1046 1002,-538.1046"/>
<polygon fill="none" stroke="#000000" points="1002,-538.1046 1002,-557.1046 1051,-557.1046 1051,-538.1046 1002,-538.1046"/>
<text text-anchor="start" x="1041.8862" y="-544.2046" font-family="Helvetica,sans-Serif" font-size="11.00" fill="#000000"> &#160;</text>
<polygon fill="#ffffff" stroke="transparent" points="1051,-538.1046 1051,-557.1046 1109,-557.1046 1109,-538.1046 1051,-538.1046"/>
<polygon fill="none" stroke="#000000" points="1051,-538.1046 1051,-557.1046 1109,-557.1046 1109,-538.1046 1051,-538.1046"/>
<text text-anchor="start" x="1090.4053" y="-544.2046" font-family="Helvetica,sans-Serif" font-size="11.00" fill="#000000">1 &gt;</text>
</a>
</g>
</g>
<!-- investigation&#45;&gt;referral -->
<g id="edge7" class="edge">
<title>investigation:w&#45;&gt;referral:e</title>
<path fill="none" stroke="#000000" d="M897.303,-588.3641C861.3258,-597.4886 866.5667,-653.1046 822.5,-653.1046"/>
<polygon fill="#000000" stroke="#000000" points="906.7377,-583.2256 907.6733,-591.1707 906.0842,-591.3578 905.1487,-583.4127 906.7377,-583.2256"/>
<polyline fill="none" stroke="#000000" points="908,-587.1046 904.0274,-587.5724 "/>
<ellipse fill="none" stroke="#000000" cx="900.8494" cy="-587.9466" rx="3.2" ry="3.2"/>
</g>
<!-- safer_custody_screening_outcome -->
<g id="node7" class="node">
<title>safer_custody_screening_outcome</title>
<g id="a_node7"><a xlink:href="../../tables/safer_custody_screening_outcome.html" xlink:title="safer_custody_screening_outcome" target="_top">
<polygon fill="#ffffff" stroke="transparent" points="873,-54.6046 873,-159.6046 1143,-159.6046 1143,-54.6046 873,-54.6046"/>
<polygon fill="#f5f5f5" stroke="transparent" points="873,-136.1046 873,-159.1046 1143,-159.1046 1143,-136.1046 873,-136.1046"/>
<polygon fill="none" stroke="#000000" points="873,-136.1046 873,-159.1046 1143,-159.1046 1143,-136.1046 873,-136.1046"/>
<text text-anchor="start" x="878" y="-144.7046" font-family="Helvetica,sans-Serif" font-weight="bold" font-size="11.00" fill="#000000">safer_custody_screening_outcome</text>
<text text-anchor="start" x="1108.5219" y="-144.2046" font-family="Helvetica,sans-Serif" font-size="11.00" fill="#000000">[table]</text>
<polygon fill="none" stroke="#000000" points="873,-114.1046 873,-136.1046 1143,-136.1046 1143,-114.1046 873,-114.1046"/>
<image xlink:href="../../images/primaryKeys.png" width="11px" height="12px" preserveAspectRatio="xMinYMin meet" x="878" y="-131.105"/>
<text text-anchor="start" x="893" y="-121.2046" font-family="Helvetica,sans-Serif" font-size="11.00" fill="#000000">safer_custody_screening_outcome_id</text>
<polygon fill="#ffffff" stroke="transparent" points="873,-92.1046 873,-114.1046 1143,-114.1046 1143,-92.1046 873,-92.1046"/>
<polygon fill="none" stroke="#000000" points="873,-92.1046 873,-114.1046 1143,-114.1046 1143,-92.1046 873,-92.1046"/>
<image xlink:href="../../images/foreignKeys.png" width="11px" height="12px" preserveAspectRatio="xMinYMin meet" x="878" y="-109.105"/>
<text text-anchor="start" x="893" y="-99.2046" font-family="Helvetica,sans-Serif" font-size="11.00" fill="#000000">outcome_id</text>
<polygon fill="none" stroke="#000000" points="873,-73.1046 873,-92.1046 1143,-92.1046 1143,-73.1046 873,-73.1046"/>
<text text-anchor="start" x="876" y="-79.2046" font-family="Helvetica,sans-Serif" font-size="11.00" fill="#000000">...</text>
<polygon fill="#ffffff" stroke="transparent" points="873,-54.1046 873,-73.1046 1006,-73.1046 1006,-54.1046 873,-54.1046"/>
<polygon fill="none" stroke="#000000" points="873,-54.1046 873,-73.1046 1006,-73.1046 1006,-54.1046 873,-54.1046"/>
<text text-anchor="start" x="876" y="-60.2046" font-family="Helvetica,sans-Serif" font-size="11.00" fill="#000000">&lt; 2</text>
<polygon fill="#ffffff" stroke="transparent" points="1006,-54.1046 1006,-73.1046 1074,-73.1046 1074,-54.1046 1006,-54.1046"/>
<polygon fill="none" stroke="#000000" points="1006,-54.1046 1006,-73.1046 1074,-73.1046 1074,-54.1046 1006,-54.1046"/>
<text text-anchor="start" x="1064.8862" y="-60.2046" font-family="Helvetica,sans-Serif" font-size="11.00" fill="#000000"> &#160;</text>
<polygon fill="#ffffff" stroke="transparent" points="1074,-54.1046 1074,-73.1046 1143,-73.1046 1143,-54.1046 1074,-54.1046"/>
<polygon fill="none" stroke="#000000" points="1074,-54.1046 1074,-73.1046 1143,-73.1046 1143,-54.1046 1074,-54.1046"/>
<text text-anchor="start" x="1133.8862" y="-60.2046" font-family="Helvetica,sans-Serif" font-size="11.00" fill="#000000"> &#160;</text>
</a>
</g>
</g>
<!-- safer_custody_screening_outcome&#45;&gt;reference_data -->
<g id="edge13" class="edge">
<title>safer_custody_screening_outcome:w&#45;&gt;reference_data:e</title>
<path fill="none" stroke="#000000" d="M858.4243,-102.9711C564.0635,-97.5821 409.4162,68.0029 190,-135.1046 136.5895,-184.5452 222.2808,-460.1046 149.5,-460.1046"/>
<polygon fill="#000000" stroke="#000000" points="865.0003,-103.0313 872.967,-106.7045 869.0002,-103.0679 873,-103.1046 873,-103.1046 873,-103.1046 869.0002,-103.0679 873.033,-99.5048 865.0003,-103.0313 865.0003,-103.0313"/>
<ellipse fill="none" stroke="#000000" cx="861.8005" cy="-103.0019" rx="3.2" ry="3.2"/>
</g>
<!-- safer_custody_screening_outcome&#45;&gt;referral -->
<g id="edge14" class="edge">
<title>safer_custody_screening_outcome:w&#45;&gt;referral:e</title>
<path fill="none" stroke="#000000" d="M862.5286,-126.7143C766.7556,-158.5875 936.5703,-653.1046 822.5,-653.1046"/>
<polygon fill="#000000" stroke="#000000" points="871.6015,-121.2726 872.8171,-129.1797 871.2357,-129.4228 870.0201,-121.5157 871.6015,-121.2726"/>
<polyline fill="none" stroke="#000000" points="873,-125.1046 869.0464,-125.7124 "/>
<ellipse fill="none" stroke="#000000" cx="865.8836" cy="-126.1986" rx="3.2" ry="3.2"/>
</g>
</g>
</svg>
