<?xml version="1.0" encoding="UTF-8" standalone="no"?>
<!DOCTYPE svg PUBLIC "-//W3C//DTD SVG 1.1//EN"
 "http://www.w3.org/Graphics/SVG/1.1/DTD/svg11.dtd">
<!-- Generated by graphviz version 2.40.1 (20161225.0304)
 -->
<!-- Title: twoDegreesRelationshipsDiagram Pages: 1 -->
<svg width="626pt" height="1461pt"
 viewBox="0.00 0.00 626.00 1461.20" xmlns="http://www.w3.org/2000/svg" xmlns:xlink="http://www.w3.org/1999/xlink">
<g id="graph0" class="graph" transform="scale(1 1) rotate(0) translate(4 1457.2)">
<title>twoDegreesRelationshipsDiagram</title>
<polygon fill="#ffffff" stroke="transparent" points="-4,4 -4,-1457.2 622,-1457.2 622,4 -4,4"/>
<text text-anchor="middle" x="72.4936" y="-7.3" font-family="Helvetica,sans-Serif" font-size="11.00" fill="#000000">Generated by SchemaSpy</text>
<!-- attendee_audit -->
<g id="node1" class="node">
<title>attendee_audit</title>
<g id="a_node1"><a xlink:href="../../tables/attendee_audit.html" xlink:title="attendee_audit" target="_top">
<polygon fill="#ffffff" stroke="transparent" points="346,-1388.2 346,-1449.2 487,-1449.2 487,-1388.2 346,-1388.2"/>
<polygon fill="#f5f5f5" stroke="transparent" points="346.5,-1425.7 346.5,-1448.7 487.5,-1448.7 487.5,-1425.7 346.5,-1425.7"/>
<polygon fill="none" stroke="#000000" points="346.5,-1425.7 346.5,-1448.7 487.5,-1448.7 487.5,-1425.7 346.5,-1425.7"/>
<text text-anchor="start" x="351.5" y="-1434.3" font-family="Helvetica,sans-Serif" font-weight="bold" font-size="11.00" fill="#000000">attendee_audit</text>
<text text-anchor="start" x="453.0219" y="-1433.8" font-family="Helvetica,sans-Serif" font-size="11.00" fill="#000000">[table]</text>
<polygon fill="none" stroke="#000000" points="346.5,-1406.7 346.5,-1425.7 487.5,-1425.7 487.5,-1406.7 346.5,-1406.7"/>
<text text-anchor="start" x="349.5" y="-1412.8" font-family="Helvetica,sans-Serif" font-size="11.00" fill="#000000">...</text>
<polygon fill="#ffffff" stroke="transparent" points="346.5,-1387.7 346.5,-1406.7 415.5,-1406.7 415.5,-1387.7 346.5,-1387.7"/>
<polygon fill="none" stroke="#000000" points="346.5,-1387.7 346.5,-1406.7 415.5,-1406.7 415.5,-1387.7 346.5,-1387.7"/>
<text text-anchor="start" x="349.5" y="-1393.8" font-family="Helvetica,sans-Serif" font-size="11.00" fill="#000000">&lt; 1</text>
<polygon fill="#ffffff" stroke="transparent" points="415.5,-1387.7 415.5,-1406.7 451.5,-1406.7 451.5,-1387.7 415.5,-1387.7"/>
<polygon fill="none" stroke="#000000" points="415.5,-1387.7 415.5,-1406.7 451.5,-1406.7 451.5,-1387.7 415.5,-1387.7"/>
<text text-anchor="start" x="442.3862" y="-1393.8" font-family="Helvetica,sans-Serif" font-size="11.00" fill="#000000"> &#160;</text>
<polygon fill="#ffffff" stroke="transparent" points="451.5,-1387.7 451.5,-1406.7 487.5,-1406.7 487.5,-1387.7 451.5,-1387.7"/>
<polygon fill="none" stroke="#000000" points="451.5,-1387.7 451.5,-1406.7 487.5,-1406.7 487.5,-1387.7 451.5,-1387.7"/>
<text text-anchor="start" x="478.3862" y="-1393.8" font-family="Helvetica,sans-Serif" font-size="11.00" fill="#000000"> &#160;</text>
</a>
</g>
</g>
<!-- audit_revision -->
<g id="node2" class="node">
<title>audit_revision</title>
<g id="a_node2"><a xlink:href="../../tables/audit_revision.html" xlink:title="audit_revision" target="_top">
<polygon fill="#ffffff" stroke="transparent" points="8,-916.2 8,-999.2 174,-999.2 174,-916.2 8,-916.2"/>
<polygon fill="#f5f5f5" stroke="transparent" points="8,-975.7 8,-998.7 174,-998.7 174,-975.7 8,-975.7"/>
<polygon fill="none" stroke="#000000" points="8,-975.7 8,-998.7 174,-998.7 174,-975.7 8,-975.7"/>
<text text-anchor="start" x="13" y="-984.3" font-family="Helvetica,sans-Serif" font-weight="bold" font-size="11.00" fill="#000000">audit_revision</text>
<text text-anchor="start" x="139.0437" y="-983.8" font-family="Helvetica,sans-Serif" font-size="11.00" fill="#000000">[table]</text>
<polygon fill="none" stroke="#000000" points="8,-953.7 8,-975.7 174,-975.7 174,-953.7 8,-953.7"/>
<image xlink:href="../../images/primaryKeys.png" width="11px" height="12px" preserveAspectRatio="xMinYMin meet" x="13" y="-970.7"/>
<text text-anchor="start" x="28" y="-960.8" font-family="Helvetica,sans-Serif" font-size="11.00" fill="#000000">id</text>
<polygon fill="none" stroke="#000000" points="8,-934.7 8,-953.7 174,-953.7 174,-934.7 8,-934.7"/>
<text text-anchor="start" x="11" y="-940.8" font-family="Helvetica,sans-Serif" font-size="11.00" fill="#000000">...</text>
<polygon fill="#ffffff" stroke="transparent" points="8,-915.7 8,-934.7 77,-934.7 77,-915.7 8,-915.7"/>
<polygon fill="none" stroke="#000000" points="8,-915.7 8,-934.7 77,-934.7 77,-915.7 8,-915.7"/>
<text text-anchor="start" x="11" y="-921.8" font-family="Helvetica,sans-Serif" font-size="11.00" fill="#000000"> &#160;</text>
<polygon fill="#ffffff" stroke="transparent" points="77,-915.7 77,-934.7 118,-934.7 118,-915.7 77,-915.7"/>
<polygon fill="none" stroke="#000000" points="77,-915.7 77,-934.7 118,-934.7 118,-915.7 77,-915.7"/>
<text text-anchor="start" x="108.8862" y="-921.8" font-family="Helvetica,sans-Serif" font-size="11.00" fill="#000000"> &#160;</text>
<polygon fill="#ffffff" stroke="transparent" points="118,-915.7 118,-934.7 174,-934.7 174,-915.7 118,-915.7"/>
<polygon fill="none" stroke="#000000" points="118,-915.7 118,-934.7 174,-934.7 174,-915.7 118,-915.7"/>
<text text-anchor="start" x="149.2904" y="-921.8" font-family="Helvetica,sans-Serif" font-size="11.00" fill="#000000">12 &gt;</text>
</a>
</g>
</g>
<!-- attendee_audit&#45;&gt;audit_revision -->
<g id="edge1" class="edge">
<title>attendee_audit:w&#45;&gt;audit_revision:e</title>
<path fill="none" stroke="#000000" d="M332.096,-1415.8413C280.4082,-1416.7629 250.729,-1420.6202 215,-1377.7 155.9934,-1306.8171 266.2289,-964.7 174,-964.7"/>
<polygon fill="#000000" stroke="#000000" points="338.5004,-1415.7785 346.5353,-1419.2998 342.5002,-1415.7393 346.5,-1415.7 346.5,-1415.7 346.5,-1415.7 342.5002,-1415.7393 346.4647,-1412.1002 338.5004,-1415.7785 338.5004,-1415.7785"/>
<ellipse fill="none" stroke="#000000" cx="335.3005" cy="-1415.8099" rx="3.2" ry="3.2"/>
</g>
<!-- contributory_factor_audit -->
<g id="node3" class="node">
<title>contributory_factor_audit</title>
<g id="a_node3"><a xlink:href="../../tables/contributory_factor_audit.html" xlink:title="contributory_factor_audit" target="_top">
<polygon fill="#ffffff" stroke="transparent" points="311.5,-1306.2 311.5,-1367.2 521.5,-1367.2 521.5,-1306.2 311.5,-1306.2"/>
<polygon fill="#f5f5f5" stroke="transparent" points="311.5,-1343.7 311.5,-1366.7 521.5,-1366.7 521.5,-1343.7 311.5,-1343.7"/>
<polygon fill="none" stroke="#000000" points="311.5,-1343.7 311.5,-1366.7 521.5,-1366.7 521.5,-1343.7 311.5,-1343.7"/>
<text text-anchor="start" x="316.5" y="-1352.3" font-family="Helvetica,sans-Serif" font-weight="bold" font-size="11.00" fill="#000000">contributory_factor_audit</text>
<text text-anchor="start" x="487.0219" y="-1351.8" font-family="Helvetica,sans-Serif" font-size="11.00" fill="#000000">[table]</text>
<polygon fill="none" stroke="#000000" points="311.5,-1324.7 311.5,-1343.7 521.5,-1343.7 521.5,-1324.7 311.5,-1324.7"/>
<text text-anchor="start" x="314.5" y="-1330.8" font-family="Helvetica,sans-Serif" font-size="11.00" fill="#000000">...</text>
<polygon fill="#ffffff" stroke="transparent" points="311.5,-1305.7 311.5,-1324.7 414.5,-1324.7 414.5,-1305.7 311.5,-1305.7"/>
<polygon fill="none" stroke="#000000" points="311.5,-1305.7 311.5,-1324.7 414.5,-1324.7 414.5,-1305.7 311.5,-1305.7"/>
<text text-anchor="start" x="314.5" y="-1311.8" font-family="Helvetica,sans-Serif" font-size="11.00" fill="#000000">&lt; 1</text>
<polygon fill="#ffffff" stroke="transparent" points="414.5,-1305.7 414.5,-1324.7 467.5,-1324.7 467.5,-1305.7 414.5,-1305.7"/>
<polygon fill="none" stroke="#000000" points="414.5,-1305.7 414.5,-1324.7 467.5,-1324.7 467.5,-1305.7 414.5,-1305.7"/>
<text text-anchor="start" x="458.3862" y="-1311.8" font-family="Helvetica,sans-Serif" font-size="11.00" fill="#000000"> &#160;</text>
<polygon fill="#ffffff" stroke="transparent" points="467.5,-1305.7 467.5,-1324.7 521.5,-1324.7 521.5,-1305.7 467.5,-1305.7"/>
<polygon fill="none" stroke="#000000" points="467.5,-1305.7 467.5,-1324.7 521.5,-1324.7 521.5,-1305.7 467.5,-1305.7"/>
<text text-anchor="start" x="512.3862" y="-1311.8" font-family="Helvetica,sans-Serif" font-size="11.00" fill="#000000"> &#160;</text>
</a>
</g>
</g>
<!-- contributory_factor_audit&#45;&gt;audit_revision -->
<g id="edge2" class="edge">
<title>contributory_factor_audit:w&#45;&gt;audit_revision:e</title>
<path fill="none" stroke="#000000" d="M296.7127,-1333.5912C260.306,-1332.8969 240.042,-1328.0029 215,-1295.7 169.5894,-1237.1226 248.1177,-964.7 174,-964.7"/>
<polygon fill="#000000" stroke="#000000" points="303.5002,-1333.6411 311.4735,-1337.2999 307.5001,-1333.6705 311.5,-1333.7 311.5,-1333.7 311.5,-1333.7 307.5001,-1333.6705 311.5265,-1330.1001 303.5002,-1333.6411 303.5002,-1333.6411"/>
<ellipse fill="none" stroke="#000000" cx="300.3003" cy="-1333.6175" rx="3.2" ry="3.2"/>
</g>
<!-- csip_record_audit -->
<g id="node4" class="node">
<title>csip_record_audit</title>
<g id="a_node4"><a xlink:href="../../tables/csip_record_audit.html" xlink:title="csip_record_audit" target="_top">
<polygon fill="#ffffff" stroke="transparent" points="338.5,-1224.2 338.5,-1285.2 494.5,-1285.2 494.5,-1224.2 338.5,-1224.2"/>
<polygon fill="#f5f5f5" stroke="transparent" points="338.5,-1261.7 338.5,-1284.7 494.5,-1284.7 494.5,-1261.7 338.5,-1261.7"/>
<polygon fill="none" stroke="#000000" points="338.5,-1261.7 338.5,-1284.7 494.5,-1284.7 494.5,-1261.7 338.5,-1261.7"/>
<text text-anchor="start" x="343.5" y="-1270.3" font-family="Helvetica,sans-Serif" font-weight="bold" font-size="11.00" fill="#000000">csip_record_audit</text>
<text text-anchor="start" x="460.0219" y="-1269.8" font-family="Helvetica,sans-Serif" font-size="11.00" fill="#000000">[table]</text>
<polygon fill="none" stroke="#000000" points="338.5,-1242.7 338.5,-1261.7 494.5,-1261.7 494.5,-1242.7 338.5,-1242.7"/>
<text text-anchor="start" x="341.5" y="-1248.8" font-family="Helvetica,sans-Serif" font-size="11.00" fill="#000000">...</text>
<polygon fill="#ffffff" stroke="transparent" points="338.5,-1223.7 338.5,-1242.7 414.5,-1242.7 414.5,-1223.7 338.5,-1223.7"/>
<polygon fill="none" stroke="#000000" points="338.5,-1223.7 338.5,-1242.7 414.5,-1242.7 414.5,-1223.7 338.5,-1223.7"/>
<text text-anchor="start" x="341.5" y="-1229.8" font-family="Helvetica,sans-Serif" font-size="11.00" fill="#000000">&lt; 1</text>
<polygon fill="#ffffff" stroke="transparent" points="414.5,-1223.7 414.5,-1242.7 454.5,-1242.7 454.5,-1223.7 414.5,-1223.7"/>
<polygon fill="none" stroke="#000000" points="414.5,-1223.7 414.5,-1242.7 454.5,-1242.7 454.5,-1223.7 414.5,-1223.7"/>
<text text-anchor="start" x="445.3862" y="-1229.8" font-family="Helvetica,sans-Serif" font-size="11.00" fill="#000000"> &#160;</text>
<polygon fill="#ffffff" stroke="transparent" points="454.5,-1223.7 454.5,-1242.7 494.5,-1242.7 494.5,-1223.7 454.5,-1223.7"/>
<polygon fill="none" stroke="#000000" points="454.5,-1223.7 454.5,-1242.7 494.5,-1242.7 494.5,-1223.7 454.5,-1223.7"/>
<text text-anchor="start" x="485.3862" y="-1229.8" font-family="Helvetica,sans-Serif" font-size="11.00" fill="#000000"> &#160;</text>
</a>
</g>
</g>
<!-- csip_record_audit&#45;&gt;audit_revision -->
<g id="edge3" class="edge">
<title>csip_record_audit:w&#45;&gt;audit_revision:e</title>
<path fill="none" stroke="#000000" d="M324.0065,-1251.7854C276.0235,-1252.2498 249.4504,-1253.1581 215,-1213.7 178.1179,-1171.4567 230.0784,-964.7 174,-964.7"/>
<polygon fill="#000000" stroke="#000000" points="330.5001,-1251.7472 338.5212,-1255.2999 334.5001,-1251.7236 338.5,-1251.7 338.5,-1251.7 338.5,-1251.7 334.5001,-1251.7236 338.4788,-1248.1001 330.5001,-1251.7472 330.5001,-1251.7472"/>
<ellipse fill="none" stroke="#000000" cx="327.3002" cy="-1251.7661" rx="3.2" ry="3.2"/>
</g>
<!-- decision_and_actions_audit -->
<g id="node5" class="node">
<title>decision_and_actions_audit</title>
<g id="a_node5"><a xlink:href="../../tables/decision_and_actions_audit.html" xlink:title="decision_and_actions_audit" target="_top">
<polygon fill="#ffffff" stroke="transparent" points="305.5,-1142.2 305.5,-1203.2 527.5,-1203.2 527.5,-1142.2 305.5,-1142.2"/>
<polygon fill="#f5f5f5" stroke="transparent" points="305.5,-1179.7 305.5,-1202.7 527.5,-1202.7 527.5,-1179.7 305.5,-1179.7"/>
<polygon fill="none" stroke="#000000" points="305.5,-1179.7 305.5,-1202.7 527.5,-1202.7 527.5,-1179.7 305.5,-1179.7"/>
<text text-anchor="start" x="310.5" y="-1188.3" font-family="Helvetica,sans-Serif" font-weight="bold" font-size="11.00" fill="#000000">decision_and_actions_audit</text>
<text text-anchor="start" x="493.0219" y="-1187.8" font-family="Helvetica,sans-Serif" font-size="11.00" fill="#000000">[table]</text>
<polygon fill="none" stroke="#000000" points="305.5,-1160.7 305.5,-1179.7 527.5,-1179.7 527.5,-1160.7 305.5,-1160.7"/>
<text text-anchor="start" x="308.5" y="-1166.8" font-family="Helvetica,sans-Serif" font-size="11.00" fill="#000000">...</text>
<polygon fill="#ffffff" stroke="transparent" points="305.5,-1141.7 305.5,-1160.7 414.5,-1160.7 414.5,-1141.7 305.5,-1141.7"/>
<polygon fill="none" stroke="#000000" points="305.5,-1141.7 305.5,-1160.7 414.5,-1160.7 414.5,-1141.7 305.5,-1141.7"/>
<text text-anchor="start" x="308.5" y="-1147.8" font-family="Helvetica,sans-Serif" font-size="11.00" fill="#000000">&lt; 1</text>
<polygon fill="#ffffff" stroke="transparent" points="414.5,-1141.7 414.5,-1160.7 470.5,-1160.7 470.5,-1141.7 414.5,-1141.7"/>
<polygon fill="none" stroke="#000000" points="414.5,-1141.7 414.5,-1160.7 470.5,-1160.7 470.5,-1141.7 414.5,-1141.7"/>
<text text-anchor="start" x="461.3862" y="-1147.8" font-family="Helvetica,sans-Serif" font-size="11.00" fill="#000000"> &#160;</text>
<polygon fill="#ffffff" stroke="transparent" points="470.5,-1141.7 470.5,-1160.7 527.5,-1160.7 527.5,-1141.7 470.5,-1141.7"/>
<polygon fill="none" stroke="#000000" points="470.5,-1141.7 470.5,-1160.7 527.5,-1160.7 527.5,-1141.7 470.5,-1141.7"/>
<text text-anchor="start" x="518.3862" y="-1147.8" font-family="Helvetica,sans-Serif" font-size="11.00" fill="#000000"> &#160;</text>
</a>
</g>
</g>
<!-- decision_and_actions_audit&#45;&gt;audit_revision -->
<g id="edge4" class="edge">
<title>decision_and_actions_audit:w&#45;&gt;audit_revision:e</title>
<path fill="none" stroke="#000000" d="M290.6937,-1169.4457C257.2422,-1168.1142 239.9051,-1160.8515 215,-1131.7 165.3565,-1073.5922 250.4264,-964.7 174,-964.7"/>
<polygon fill="#000000" stroke="#000000" points="297.5012,-1169.5626 305.4382,-1173.2995 301.5006,-1169.6313 305.5,-1169.7 305.5,-1169.7 305.5,-1169.7 301.5006,-1169.6313 305.5618,-1166.1005 297.5012,-1169.5626 297.5012,-1169.5626"/>
<ellipse fill="none" stroke="#000000" cx="294.3017" cy="-1169.5076" rx="3.2" ry="3.2"/>
</g>
<!-- identified_need_audit -->
<g id="node6" class="node">
<title>identified_need_audit</title>
<g id="a_node6"><a xlink:href="../../tables/identified_need_audit.html" xlink:title="identified_need_audit" target="_top">
<polygon fill="#ffffff" stroke="transparent" points="324.5,-1060.2 324.5,-1121.2 508.5,-1121.2 508.5,-1060.2 324.5,-1060.2"/>
<polygon fill="#f5f5f5" stroke="transparent" points="324.5,-1097.7 324.5,-1120.7 508.5,-1120.7 508.5,-1097.7 324.5,-1097.7"/>
<polygon fill="none" stroke="#000000" points="324.5,-1097.7 324.5,-1120.7 508.5,-1120.7 508.5,-1097.7 324.5,-1097.7"/>
<text text-anchor="start" x="329.5" y="-1106.3" font-family="Helvetica,sans-Serif" font-weight="bold" font-size="11.00" fill="#000000">identified_need_audit</text>
<text text-anchor="start" x="474.0219" y="-1105.8" font-family="Helvetica,sans-Serif" font-size="11.00" fill="#000000">[table]</text>
<polygon fill="none" stroke="#000000" points="324.5,-1078.7 324.5,-1097.7 508.5,-1097.7 508.5,-1078.7 324.5,-1078.7"/>
<text text-anchor="start" x="327.5" y="-1084.8" font-family="Helvetica,sans-Serif" font-size="11.00" fill="#000000">...</text>
<polygon fill="#ffffff" stroke="transparent" points="324.5,-1059.7 324.5,-1078.7 414.5,-1078.7 414.5,-1059.7 324.5,-1059.7"/>
<polygon fill="none" stroke="#000000" points="324.5,-1059.7 324.5,-1078.7 414.5,-1078.7 414.5,-1059.7 324.5,-1059.7"/>
<text text-anchor="start" x="327.5" y="-1065.8" font-family="Helvetica,sans-Serif" font-size="11.00" fill="#000000">&lt; 1</text>
<polygon fill="#ffffff" stroke="transparent" points="414.5,-1059.7 414.5,-1078.7 461.5,-1078.7 461.5,-1059.7 414.5,-1059.7"/>
<polygon fill="none" stroke="#000000" points="414.5,-1059.7 414.5,-1078.7 461.5,-1078.7 461.5,-1059.7 414.5,-1059.7"/>
<text text-anchor="start" x="452.3862" y="-1065.8" font-family="Helvetica,sans-Serif" font-size="11.00" fill="#000000"> &#160;</text>
<polygon fill="#ffffff" stroke="transparent" points="461.5,-1059.7 461.5,-1078.7 508.5,-1078.7 508.5,-1059.7 461.5,-1059.7"/>
<polygon fill="none" stroke="#000000" points="461.5,-1059.7 461.5,-1078.7 508.5,-1078.7 508.5,-1059.7 461.5,-1059.7"/>
<text text-anchor="start" x="499.3862" y="-1065.8" font-family="Helvetica,sans-Serif" font-size="11.00" fill="#000000"> &#160;</text>
</a>
</g>
</g>
<!-- identified_need_audit&#45;&gt;audit_revision -->
<g id="edge5" class="edge">
<title>identified_need_audit:w&#45;&gt;audit_revision:e</title>
<path fill="none" stroke="#000000" d="M310.0082,-1087.5623C268.9093,-1086.6529 249.6343,-1080.5515 215,-1049.7 183.6809,-1021.8016 215.9429,-964.7 174,-964.7"/>
<polygon fill="#000000" stroke="#000000" points="316.5004,-1087.6239 324.4658,-1091.2998 320.5002,-1087.662 324.5,-1087.7 324.5,-1087.7 324.5,-1087.7 320.5002,-1087.662 324.5342,-1084.1002 316.5004,-1087.6239 316.5004,-1087.6239"/>
<ellipse fill="none" stroke="#000000" cx="313.3005" cy="-1087.5935" rx="3.2" ry="3.2"/>
</g>
<!-- interview_audit -->
<g id="node7" class="node">
<title>interview_audit</title>
<g id="a_node7"><a xlink:href="../../tables/interview_audit.html" xlink:title="interview_audit" target="_top">
<polygon fill="#ffffff" stroke="transparent" points="345,-978.2 345,-1039.2 488,-1039.2 488,-978.2 345,-978.2"/>
<polygon fill="#f5f5f5" stroke="transparent" points="345.5,-1015.7 345.5,-1038.7 488.5,-1038.7 488.5,-1015.7 345.5,-1015.7"/>
<polygon fill="none" stroke="#000000" points="345.5,-1015.7 345.5,-1038.7 488.5,-1038.7 488.5,-1015.7 345.5,-1015.7"/>
<text text-anchor="start" x="350.5" y="-1024.3" font-family="Helvetica,sans-Serif" font-weight="bold" font-size="11.00" fill="#000000">interview_audit</text>
<text text-anchor="start" x="454.0219" y="-1023.8" font-family="Helvetica,sans-Serif" font-size="11.00" fill="#000000">[table]</text>
<polygon fill="none" stroke="#000000" points="345.5,-996.7 345.5,-1015.7 488.5,-1015.7 488.5,-996.7 345.5,-996.7"/>
<text text-anchor="start" x="348.5" y="-1002.8" font-family="Helvetica,sans-Serif" font-size="11.00" fill="#000000">...</text>
<polygon fill="#ffffff" stroke="transparent" points="345.5,-977.7 345.5,-996.7 415.5,-996.7 415.5,-977.7 345.5,-977.7"/>
<polygon fill="none" stroke="#000000" points="345.5,-977.7 345.5,-996.7 415.5,-996.7 415.5,-977.7 345.5,-977.7"/>
<text text-anchor="start" x="348.5" y="-983.8" font-family="Helvetica,sans-Serif" font-size="11.00" fill="#000000">&lt; 1</text>
<polygon fill="#ffffff" stroke="transparent" points="415.5,-977.7 415.5,-996.7 451.5,-996.7 451.5,-977.7 415.5,-977.7"/>
<polygon fill="none" stroke="#000000" points="415.5,-977.7 415.5,-996.7 451.5,-996.7 451.5,-977.7 415.5,-977.7"/>
<text text-anchor="start" x="442.3862" y="-983.8" font-family="Helvetica,sans-Serif" font-size="11.00" fill="#000000"> &#160;</text>
<polygon fill="#ffffff" stroke="transparent" points="451.5,-977.7 451.5,-996.7 488.5,-996.7 488.5,-977.7 451.5,-977.7"/>
<polygon fill="none" stroke="#000000" points="451.5,-977.7 451.5,-996.7 488.5,-996.7 488.5,-977.7 451.5,-977.7"/>
<text text-anchor="start" x="479.3862" y="-983.8" font-family="Helvetica,sans-Serif" font-size="11.00" fill="#000000"> &#160;</text>
</a>
</g>
</g>
<!-- interview_audit&#45;&gt;audit_revision -->
<g id="edge6" class="edge">
<title>interview_audit:w&#45;&gt;audit_revision:e</title>
<path fill="none" stroke="#000000" d="M331.1051,-1005.211C264.963,-1000.5852 247.3189,-964.7 174,-964.7"/>
<polygon fill="#000000" stroke="#000000" points="337.5046,-1005.4283 345.3778,-1009.2979 341.5023,-1005.5642 345.5,-1005.7 345.5,-1005.7 345.5,-1005.7 341.5023,-1005.5642 345.6222,-1002.1021 337.5046,-1005.4283 337.5046,-1005.4283"/>
<ellipse fill="none" stroke="#000000" cx="334.3065" cy="-1005.3197" rx="3.2" ry="3.2"/>
</g>
<!-- investigation_audit -->
<g id="node8" class="node">
<title>investigation_audit</title>
<g id="a_node8"><a xlink:href="../../tables/investigation_audit.html" xlink:title="investigation_audit" target="_top">
<polygon fill="#ffffff" stroke="transparent" points="332,-896.2 332,-957.2 501,-957.2 501,-896.2 332,-896.2"/>
<polygon fill="#f5f5f5" stroke="transparent" points="332.5,-933.7 332.5,-956.7 501.5,-956.7 501.5,-933.7 332.5,-933.7"/>
<polygon fill="none" stroke="#000000" points="332.5,-933.7 332.5,-956.7 501.5,-956.7 501.5,-933.7 332.5,-933.7"/>
<text text-anchor="start" x="337.5" y="-942.3" font-family="Helvetica,sans-Serif" font-weight="bold" font-size="11.00" fill="#000000">investigation_audit</text>
<text text-anchor="start" x="467.0219" y="-941.8" font-family="Helvetica,sans-Serif" font-size="11.00" fill="#000000">[table]</text>
<polygon fill="none" stroke="#000000" points="332.5,-914.7 332.5,-933.7 501.5,-933.7 501.5,-914.7 332.5,-914.7"/>
<text text-anchor="start" x="335.5" y="-920.8" font-family="Helvetica,sans-Serif" font-size="11.00" fill="#000000">...</text>
<polygon fill="#ffffff" stroke="transparent" points="332.5,-895.7 332.5,-914.7 415.5,-914.7 415.5,-895.7 332.5,-895.7"/>
<polygon fill="none" stroke="#000000" points="332.5,-895.7 332.5,-914.7 415.5,-914.7 415.5,-895.7 332.5,-895.7"/>
<text text-anchor="start" x="335.5" y="-901.8" font-family="Helvetica,sans-Serif" font-size="11.00" fill="#000000">&lt; 1</text>
<polygon fill="#ffffff" stroke="transparent" points="415.5,-895.7 415.5,-914.7 458.5,-914.7 458.5,-895.7 415.5,-895.7"/>
<polygon fill="none" stroke="#000000" points="415.5,-895.7 415.5,-914.7 458.5,-914.7 458.5,-895.7 415.5,-895.7"/>
<text text-anchor="start" x="449.3862" y="-901.8" font-family="Helvetica,sans-Serif" font-size="11.00" fill="#000000"> &#160;</text>
<polygon fill="#ffffff" stroke="transparent" points="458.5,-895.7 458.5,-914.7 501.5,-914.7 501.5,-895.7 458.5,-895.7"/>
<polygon fill="none" stroke="#000000" points="458.5,-895.7 458.5,-914.7 501.5,-914.7 501.5,-895.7 458.5,-895.7"/>
<text text-anchor="start" x="492.3862" y="-901.8" font-family="Helvetica,sans-Serif" font-size="11.00" fill="#000000"> &#160;</text>
</a>
</g>
</g>
<!-- investigation_audit&#45;&gt;audit_revision -->
<g id="edge7" class="edge">
<title>investigation_audit:w&#45;&gt;audit_revision:e</title>
<path fill="none" stroke="#000000" d="M317.9967,-924.2796C257.6169,-929.2629 241.6469,-964.7 174,-964.7"/>
<polygon fill="#000000" stroke="#000000" points="324.5064,-924.0195 332.6438,-927.2971 328.5032,-923.8597 332.5,-923.7 332.5,-923.7 332.5,-923.7 328.5032,-923.8597 332.3562,-920.1029 324.5064,-924.0195 324.5064,-924.0195"/>
<ellipse fill="none" stroke="#000000" cx="321.3089" cy="-924.1473" rx="3.2" ry="3.2"/>
</g>
<!-- person_summary_audit -->
<g id="node9" class="node">
<title>person_summary_audit</title>
<g id="a_node9"><a xlink:href="../../tables/person_summary_audit.html" xlink:title="person_summary_audit" target="_top">
<polygon fill="#ffffff" stroke="transparent" points="319,-814.2 319,-875.2 514,-875.2 514,-814.2 319,-814.2"/>
<polygon fill="#f5f5f5" stroke="transparent" points="319.5,-851.7 319.5,-874.7 514.5,-874.7 514.5,-851.7 319.5,-851.7"/>
<polygon fill="none" stroke="#000000" points="319.5,-851.7 319.5,-874.7 514.5,-874.7 514.5,-851.7 319.5,-851.7"/>
<text text-anchor="start" x="324.5" y="-860.3" font-family="Helvetica,sans-Serif" font-weight="bold" font-size="11.00" fill="#000000">person_summary_audit</text>
<text text-anchor="start" x="480.0219" y="-859.8" font-family="Helvetica,sans-Serif" font-size="11.00" fill="#000000">[table]</text>
<polygon fill="none" stroke="#000000" points="319.5,-832.7 319.5,-851.7 514.5,-851.7 514.5,-832.7 319.5,-832.7"/>
<text text-anchor="start" x="322.5" y="-838.8" font-family="Helvetica,sans-Serif" font-size="11.00" fill="#000000">...</text>
<polygon fill="#ffffff" stroke="transparent" points="319.5,-813.7 319.5,-832.7 415.5,-832.7 415.5,-813.7 319.5,-813.7"/>
<polygon fill="none" stroke="#000000" points="319.5,-813.7 319.5,-832.7 415.5,-832.7 415.5,-813.7 319.5,-813.7"/>
<text text-anchor="start" x="322.5" y="-819.8" font-family="Helvetica,sans-Serif" font-size="11.00" fill="#000000">&lt; 1</text>
<polygon fill="#ffffff" stroke="transparent" points="415.5,-813.7 415.5,-832.7 464.5,-832.7 464.5,-813.7 415.5,-813.7"/>
<polygon fill="none" stroke="#000000" points="415.5,-813.7 415.5,-832.7 464.5,-832.7 464.5,-813.7 415.5,-813.7"/>
<text text-anchor="start" x="455.3862" y="-819.8" font-family="Helvetica,sans-Serif" font-size="11.00" fill="#000000"> &#160;</text>
<polygon fill="#ffffff" stroke="transparent" points="464.5,-813.7 464.5,-832.7 514.5,-832.7 514.5,-813.7 464.5,-813.7"/>
<polygon fill="none" stroke="#000000" points="464.5,-813.7 464.5,-832.7 514.5,-832.7 514.5,-813.7 464.5,-813.7"/>
<text text-anchor="start" x="505.3862" y="-819.8" font-family="Helvetica,sans-Serif" font-size="11.00" fill="#000000"> &#160;</text>
</a>
</g>
</g>
<!-- person_summary_audit&#45;&gt;audit_revision -->
<g id="edge8" class="edge">
<title>person_summary_audit:w&#45;&gt;audit_revision:e</title>
<path fill="none" stroke="#000000" d="M304.8625,-842.0319C265.358,-843.9947 248.1999,-855.0614 215,-885.7 185.9294,-912.5279 213.5581,-964.7 174,-964.7"/>
<polygon fill="#000000" stroke="#000000" points="311.5021,-841.8814 319.5816,-845.2991 315.501,-841.7907 319.5,-841.7 319.5,-841.7 319.5,-841.7 315.501,-841.7907 319.4184,-838.1009 311.5021,-841.8814 311.5021,-841.8814"/>
<ellipse fill="none" stroke="#000000" cx="308.3029" cy="-841.954" rx="3.2" ry="3.2"/>
</g>
<!-- plan_audit -->
<g id="node10" class="node">
<title>plan_audit</title>
<g id="a_node10"><a xlink:href="../../tables/plan_audit.html" xlink:title="plan_audit" target="_top">
<polygon fill="#ffffff" stroke="transparent" points="362,-732.2 362,-793.2 471,-793.2 471,-732.2 362,-732.2"/>
<polygon fill="#f5f5f5" stroke="transparent" points="362.5,-769.7 362.5,-792.7 471.5,-792.7 471.5,-769.7 362.5,-769.7"/>
<polygon fill="none" stroke="#000000" points="362.5,-769.7 362.5,-792.7 471.5,-792.7 471.5,-769.7 362.5,-769.7"/>
<text text-anchor="start" x="367.5" y="-778.3" font-family="Helvetica,sans-Serif" font-weight="bold" font-size="11.00" fill="#000000">plan_audit</text>
<text text-anchor="start" x="437.0219" y="-777.8" font-family="Helvetica,sans-Serif" font-size="11.00" fill="#000000">[table]</text>
<polygon fill="none" stroke="#000000" points="362.5,-750.7 362.5,-769.7 471.5,-769.7 471.5,-750.7 362.5,-750.7"/>
<text text-anchor="start" x="365.5" y="-756.8" font-family="Helvetica,sans-Serif" font-size="11.00" fill="#000000">...</text>
<polygon fill="#ffffff" stroke="transparent" points="362.5,-731.7 362.5,-750.7 415.5,-750.7 415.5,-731.7 362.5,-731.7"/>
<polygon fill="none" stroke="#000000" points="362.5,-731.7 362.5,-750.7 415.5,-750.7 415.5,-731.7 362.5,-731.7"/>
<text text-anchor="start" x="365.5" y="-737.8" font-family="Helvetica,sans-Serif" font-size="11.00" fill="#000000">&lt; 1</text>
<polygon fill="#ffffff" stroke="transparent" points="415.5,-731.7 415.5,-750.7 443.5,-750.7 443.5,-731.7 415.5,-731.7"/>
<polygon fill="none" stroke="#000000" points="415.5,-731.7 415.5,-750.7 443.5,-750.7 443.5,-731.7 415.5,-731.7"/>
<text text-anchor="start" x="434.3862" y="-737.8" font-family="Helvetica,sans-Serif" font-size="11.00" fill="#000000"> &#160;</text>
<polygon fill="#ffffff" stroke="transparent" points="443.5,-731.7 443.5,-750.7 471.5,-750.7 471.5,-731.7 443.5,-731.7"/>
<polygon fill="none" stroke="#000000" points="443.5,-731.7 443.5,-750.7 471.5,-750.7 471.5,-731.7 443.5,-731.7"/>
<text text-anchor="start" x="462.3862" y="-737.8" font-family="Helvetica,sans-Serif" font-size="11.00" fill="#000000"> &#160;</text>
</a>
</g>
</g>
<!-- plan_audit&#45;&gt;audit_revision -->
<g id="edge9" class="edge">
<title>plan_audit:w&#45;&gt;audit_revision:e</title>
<path fill="none" stroke="#000000" d="M347.8532,-759.6362C289.297,-759.208 258.8661,-758.0184 215,-803.7 163.8568,-856.9599 247.8393,-964.7 174,-964.7"/>
<polygon fill="#000000" stroke="#000000" points="354.5001,-759.6651 362.4843,-763.3 358.5,-759.6826 362.5,-759.7 362.5,-759.7 362.5,-759.7 358.5,-759.6826 362.5157,-756.1 354.5001,-759.6651 354.5001,-759.6651"/>
<ellipse fill="none" stroke="#000000" cx="351.3001" cy="-759.6512" rx="3.2" ry="3.2"/>
</g>
<!-- referral_audit -->
<g id="node11" class="node">
<title>referral_audit</title>
<g id="a_node11"><a xlink:href="../../tables/referral_audit.html" xlink:title="referral_audit" target="_top">
<polygon fill="#ffffff" stroke="transparent" points="351,-650.2 351,-711.2 482,-711.2 482,-650.2 351,-650.2"/>
<polygon fill="#f5f5f5" stroke="transparent" points="351.5,-687.7 351.5,-710.7 482.5,-710.7 482.5,-687.7 351.5,-687.7"/>
<polygon fill="none" stroke="#000000" points="351.5,-687.7 351.5,-710.7 482.5,-710.7 482.5,-687.7 351.5,-687.7"/>
<text text-anchor="start" x="356.5" y="-696.3" font-family="Helvetica,sans-Serif" font-weight="bold" font-size="11.00" fill="#000000">referral_audit</text>
<text text-anchor="start" x="448.0219" y="-695.8" font-family="Helvetica,sans-Serif" font-size="11.00" fill="#000000">[table]</text>
<polygon fill="none" stroke="#000000" points="351.5,-668.7 351.5,-687.7 482.5,-687.7 482.5,-668.7 351.5,-668.7"/>
<text text-anchor="start" x="354.5" y="-674.8" font-family="Helvetica,sans-Serif" font-size="11.00" fill="#000000">...</text>
<polygon fill="#ffffff" stroke="transparent" points="351.5,-649.7 351.5,-668.7 415.5,-668.7 415.5,-649.7 351.5,-649.7"/>
<polygon fill="none" stroke="#000000" points="351.5,-649.7 351.5,-668.7 415.5,-668.7 415.5,-649.7 351.5,-649.7"/>
<text text-anchor="start" x="354.5" y="-655.8" font-family="Helvetica,sans-Serif" font-size="11.00" fill="#000000">&lt; 1</text>
<polygon fill="#ffffff" stroke="transparent" points="415.5,-649.7 415.5,-668.7 448.5,-668.7 448.5,-649.7 415.5,-649.7"/>
<polygon fill="none" stroke="#000000" points="415.5,-649.7 415.5,-668.7 448.5,-668.7 448.5,-649.7 415.5,-649.7"/>
<text text-anchor="start" x="439.3862" y="-655.8" font-family="Helvetica,sans-Serif" font-size="11.00" fill="#000000"> &#160;</text>
<polygon fill="#ffffff" stroke="transparent" points="448.5,-649.7 448.5,-668.7 482.5,-668.7 482.5,-649.7 448.5,-649.7"/>
<polygon fill="none" stroke="#000000" points="448.5,-649.7 448.5,-668.7 482.5,-668.7 482.5,-649.7 448.5,-649.7"/>
<text text-anchor="start" x="473.3862" y="-655.8" font-family="Helvetica,sans-Serif" font-size="11.00" fill="#000000"> &#160;</text>
</a>
</g>
</g>
<!-- referral_audit&#45;&gt;audit_revision -->
<g id="edge10" class="edge">
<title>referral_audit:w&#45;&gt;audit_revision:e</title>
<path fill="none" stroke="#000000" d="M336.7937,-677.6481C282.7162,-677.3617 253.357,-677.3495 215,-721.7 179.1766,-763.121 228.7632,-964.7 174,-964.7"/>
<polygon fill="#000000" stroke="#000000" points="343.5,-677.6717 351.4873,-681.3 347.5,-677.6858 351.5,-677.7 351.5,-677.7 351.5,-677.7 347.5,-677.6858 351.5127,-674.1 343.5,-677.6717 343.5,-677.6717"/>
<ellipse fill="none" stroke="#000000" cx="340.3001" cy="-677.6604" rx="3.2" ry="3.2"/>
</g>
<!-- review_audit -->
<g id="node12" class="node">
<title>review_audit</title>
<g id="a_node12"><a xlink:href="../../tables/review_audit.html" xlink:title="review_audit" target="_top">
<polygon fill="#ffffff" stroke="transparent" points="223,-120.7 223,-628.7 610,-628.7 610,-120.7 223,-120.7"/>
<polygon fill="#f5f5f5" stroke="transparent" points="225.5,-603.7 225.5,-626.7 608.5,-626.7 608.5,-603.7 225.5,-603.7"/>
<polygon fill="none" stroke="#000000" points="225.5,-603.7 225.5,-626.7 608.5,-626.7 608.5,-603.7 225.5,-603.7"/>
<text text-anchor="start" x="230.5" y="-612.3" font-family="Helvetica,sans-Serif" font-weight="bold" font-size="11.00" fill="#000000">review_audit</text>
<text text-anchor="start" x="573.5437" y="-611.8" font-family="Helvetica,sans-Serif" font-size="11.00" fill="#000000">[table]</text>
<polygon fill="none" stroke="#000000" points="225.5,-581.7 225.5,-603.7 492.5,-603.7 492.5,-581.7 225.5,-581.7"/>
<image xlink:href="../../images/primaryKeys.png" width="11px" height="12px" preserveAspectRatio="xMinYMin meet" x="230.5" y="-598.7"/>
<text text-anchor="start" x="245.5" y="-588.8" font-family="Helvetica,sans-Serif" font-size="11.00" fill="#000000">rev_id</text>
<polygon fill="none" stroke="#000000" points="492.5,-581.7 492.5,-603.7 608.5,-603.7 608.5,-581.7 492.5,-581.7"/>
<text text-anchor="start" x="495.5" y="-589.4" font-family="Helvetica,sans-Serif" font-size="11.00" fill="#000000">int8[19]</text>
<polygon fill="none" stroke="#000000" points="225.5,-559.7 225.5,-581.7 492.5,-581.7 492.5,-559.7 225.5,-559.7"/>
<text text-anchor="start" x="245.5" y="-566.8" font-family="Helvetica,sans-Serif" font-size="11.00" fill="#000000">rev_type</text>
<polygon fill="none" stroke="#000000" points="492.5,-559.7 492.5,-581.7 608.5,-581.7 608.5,-559.7 492.5,-559.7"/>
<text text-anchor="start" x="495.5" y="-567.4" font-family="Helvetica,sans-Serif" font-size="11.00" fill="#000000">int2[5]</text>
<polygon fill="none" stroke="#000000" points="225.5,-537.7 225.5,-559.7 492.5,-559.7 492.5,-537.7 225.5,-537.7"/>
<image xlink:href="../../images/primaryKeys.png" width="11px" height="12px" preserveAspectRatio="xMinYMin meet" x="230.5" y="-554.7"/>
<text text-anchor="start" x="245.5" y="-544.8" font-family="Helvetica,sans-Serif" font-size="11.00" fill="#000000">review_id</text>
<polygon fill="none" stroke="#000000" points="492.5,-537.7 492.5,-559.7 608.5,-559.7 608.5,-537.7 492.5,-537.7"/>
<text text-anchor="start" x="495.5" y="-545.4" font-family="Helvetica,sans-Serif" font-size="11.00" fill="#000000">uuid[2147483647]</text>
<polygon fill="none" stroke="#000000" points="225.5,-515.7 225.5,-537.7 492.5,-537.7 492.5,-515.7 225.5,-515.7"/>
<image xlink:href="../../images/foreignKeys.png" width="11px" height="12px" preserveAspectRatio="xMinYMin meet" x="230.5" y="-532.7"/>
<text text-anchor="start" x="245.5" y="-522.8" font-family="Helvetica,sans-Serif" font-size="11.00" fill="#000000">plan_id</text>
<polygon fill="none" stroke="#000000" points="492.5,-515.7 492.5,-537.7 608.5,-537.7 608.5,-515.7 492.5,-515.7"/>
<text text-anchor="start" x="495.5" y="-523.4" font-family="Helvetica,sans-Serif" font-size="11.00" fill="#000000">uuid[2147483647]</text>
<polygon fill="none" stroke="#000000" points="225.5,-493.7 225.5,-515.7 492.5,-515.7 492.5,-493.7 225.5,-493.7"/>
<text text-anchor="start" x="245.5" y="-500.8" font-family="Helvetica,sans-Serif" font-size="11.00" fill="#000000">review_sequence</text>
<polygon fill="none" stroke="#000000" points="492.5,-493.7 492.5,-515.7 608.5,-515.7 608.5,-493.7 492.5,-493.7"/>
<text text-anchor="start" x="495.5" y="-501.4" font-family="Helvetica,sans-Serif" font-size="11.00" fill="#000000">int4[10]</text>
<polygon fill="none" stroke="#000000" points="225.5,-471.7 225.5,-493.7 492.5,-493.7 492.5,-471.7 225.5,-471.7"/>
<text text-anchor="start" x="245.5" y="-478.8" font-family="Helvetica,sans-Serif" font-size="11.00" fill="#000000">review_date</text>
<polygon fill="none" stroke="#000000" points="492.5,-471.7 492.5,-493.7 608.5,-493.7 608.5,-471.7 492.5,-471.7"/>
<text text-anchor="start" x="495.5" y="-479.4" font-family="Helvetica,sans-Serif" font-size="11.00" fill="#000000">date[13]</text>
<polygon fill="none" stroke="#000000" points="225.5,-449.7 225.5,-471.7 492.5,-471.7 492.5,-449.7 225.5,-449.7"/>
<text text-anchor="start" x="245.5" y="-456.8" font-family="Helvetica,sans-Serif" font-size="11.00" fill="#000000">recorded_by</text>
<polygon fill="none" stroke="#000000" points="492.5,-449.7 492.5,-471.7 608.5,-471.7 608.5,-449.7 492.5,-449.7"/>
<text text-anchor="start" x="495.5" y="-457.4" font-family="Helvetica,sans-Serif" font-size="11.00" fill="#000000">varchar[64]</text>
<polygon fill="none" stroke="#000000" points="225.5,-427.7 225.5,-449.7 492.5,-449.7 492.5,-427.7 225.5,-427.7"/>
<text text-anchor="start" x="245.5" y="-434.8" font-family="Helvetica,sans-Serif" font-size="11.00" fill="#000000">recorded_by_display_name</text>
<polygon fill="none" stroke="#000000" points="492.5,-427.7 492.5,-449.7 608.5,-449.7 608.5,-427.7 492.5,-427.7"/>
<text text-anchor="start" x="495.5" y="-435.4" font-family="Helvetica,sans-Serif" font-size="11.00" fill="#000000">varchar[255]</text>
<polygon fill="none" stroke="#000000" points="225.5,-405.7 225.5,-427.7 492.5,-427.7 492.5,-405.7 225.5,-405.7"/>
<text text-anchor="start" x="245.5" y="-412.8" font-family="Helvetica,sans-Serif" font-size="11.00" fill="#000000">next_review_date</text>
<polygon fill="none" stroke="#000000" points="492.5,-405.7 492.5,-427.7 608.5,-427.7 608.5,-405.7 492.5,-405.7"/>
<text text-anchor="start" x="495.5" y="-413.4" font-family="Helvetica,sans-Serif" font-size="11.00" fill="#000000">date[13]</text>
<polygon fill="none" stroke="#000000" points="225.5,-383.7 225.5,-405.7 492.5,-405.7 492.5,-383.7 225.5,-383.7"/>
<text text-anchor="start" x="245.5" y="-390.8" font-family="Helvetica,sans-Serif" font-size="11.00" fill="#000000">csip_closed_date</text>
<polygon fill="none" stroke="#000000" points="492.5,-383.7 492.5,-405.7 608.5,-405.7 608.5,-383.7 492.5,-383.7"/>
<text text-anchor="start" x="495.5" y="-391.4" font-family="Helvetica,sans-Serif" font-size="11.00" fill="#000000">date[13]</text>
<polygon fill="none" stroke="#000000" points="225.5,-361.7 225.5,-383.7 492.5,-383.7 492.5,-361.7 225.5,-361.7"/>
<text text-anchor="start" x="245.5" y="-368.8" font-family="Helvetica,sans-Serif" font-size="11.00" fill="#000000">summary</text>
<polygon fill="none" stroke="#000000" points="492.5,-361.7 492.5,-383.7 608.5,-383.7 608.5,-361.7 492.5,-361.7"/>
<text text-anchor="start" x="495.5" y="-369.4" font-family="Helvetica,sans-Serif" font-size="11.00" fill="#000000">text[2147483647]</text>
<polygon fill="none" stroke="#000000" points="225.5,-339.7 225.5,-361.7 492.5,-361.7 492.5,-339.7 225.5,-339.7"/>
<text text-anchor="start" x="245.5" y="-346.8" font-family="Helvetica,sans-Serif" font-size="11.00" fill="#000000">actions</text>
<polygon fill="none" stroke="#000000" points="492.5,-339.7 492.5,-361.7 608.5,-361.7 608.5,-339.7 492.5,-339.7"/>
<text text-anchor="start" x="495.4769" y="-347.4" font-family="Helvetica,sans-Serif" font-size="11.00" fill="#000000">_varchar[2147483647]</text>
<polygon fill="none" stroke="#000000" points="225.5,-317.7 225.5,-339.7 492.5,-339.7 492.5,-317.7 225.5,-317.7"/>
<text text-anchor="start" x="245.5" y="-324.8" font-family="Helvetica,sans-Serif" font-size="11.00" fill="#000000">review_sequence_modified</text>
<polygon fill="none" stroke="#000000" points="492.5,-317.7 492.5,-339.7 608.5,-339.7 608.5,-317.7 492.5,-317.7"/>
<text text-anchor="start" x="495.5" y="-325.4" font-family="Helvetica,sans-Serif" font-size="11.00" fill="#000000">bool[1]</text>
<polygon fill="none" stroke="#000000" points="225.5,-295.7 225.5,-317.7 492.5,-317.7 492.5,-295.7 225.5,-295.7"/>
<text text-anchor="start" x="245.5" y="-302.8" font-family="Helvetica,sans-Serif" font-size="11.00" fill="#000000">review_date_modified</text>
<polygon fill="none" stroke="#000000" points="492.5,-295.7 492.5,-317.7 608.5,-317.7 608.5,-295.7 492.5,-295.7"/>
<text text-anchor="start" x="495.5" y="-303.4" font-family="Helvetica,sans-Serif" font-size="11.00" fill="#000000">bool[1]</text>
<polygon fill="none" stroke="#000000" points="225.5,-273.7 225.5,-295.7 492.5,-295.7 492.5,-273.7 225.5,-273.7"/>
<text text-anchor="start" x="245.5" y="-280.8" font-family="Helvetica,sans-Serif" font-size="11.00" fill="#000000">recorded_by_modified</text>
<polygon fill="none" stroke="#000000" points="492.5,-273.7 492.5,-295.7 608.5,-295.7 608.5,-273.7 492.5,-273.7"/>
<text text-anchor="start" x="495.5" y="-281.4" font-family="Helvetica,sans-Serif" font-size="11.00" fill="#000000">bool[1]</text>
<polygon fill="none" stroke="#000000" points="225.5,-251.7 225.5,-273.7 492.5,-273.7 492.5,-251.7 225.5,-251.7"/>
<text text-anchor="start" x="245.5" y="-258.8" font-family="Helvetica,sans-Serif" font-size="11.00" fill="#000000">recorded_by_display_name_modified</text>
<polygon fill="none" stroke="#000000" points="492.5,-251.7 492.5,-273.7 608.5,-273.7 608.5,-251.7 492.5,-251.7"/>
<text text-anchor="start" x="495.5" y="-259.4" font-family="Helvetica,sans-Serif" font-size="11.00" fill="#000000">bool[1]</text>
<polygon fill="none" stroke="#000000" points="225.5,-229.7 225.5,-251.7 492.5,-251.7 492.5,-229.7 225.5,-229.7"/>
<text text-anchor="start" x="245.5" y="-236.8" font-family="Helvetica,sans-Serif" font-size="11.00" fill="#000000">next_review_date_modified</text>
<polygon fill="none" stroke="#000000" points="492.5,-229.7 492.5,-251.7 608.5,-251.7 608.5,-229.7 492.5,-229.7"/>
<text text-anchor="start" x="495.5" y="-237.4" font-family="Helvetica,sans-Serif" font-size="11.00" fill="#000000">bool[1]</text>
<polygon fill="none" stroke="#000000" points="225.5,-207.7 225.5,-229.7 492.5,-229.7 492.5,-207.7 225.5,-207.7"/>
<text text-anchor="start" x="245.5" y="-214.8" font-family="Helvetica,sans-Serif" font-size="11.00" fill="#000000">csip_closed_date_modified</text>
<polygon fill="none" stroke="#000000" points="492.5,-207.7 492.5,-229.7 608.5,-229.7 608.5,-207.7 492.5,-207.7"/>
<text text-anchor="start" x="495.5" y="-215.4" font-family="Helvetica,sans-Serif" font-size="11.00" fill="#000000">bool[1]</text>
<polygon fill="none" stroke="#000000" points="225.5,-185.7 225.5,-207.7 492.5,-207.7 492.5,-185.7 225.5,-185.7"/>
<text text-anchor="start" x="245.5" y="-192.8" font-family="Helvetica,sans-Serif" font-size="11.00" fill="#000000">summary_modified</text>
<polygon fill="none" stroke="#000000" points="492.5,-185.7 492.5,-207.7 608.5,-207.7 608.5,-185.7 492.5,-185.7"/>
<text text-anchor="start" x="495.5" y="-193.4" font-family="Helvetica,sans-Serif" font-size="11.00" fill="#000000">bool[1]</text>
<polygon fill="none" stroke="#000000" points="225.5,-163.7 225.5,-185.7 492.5,-185.7 492.5,-163.7 225.5,-163.7"/>
<text text-anchor="start" x="245.5" y="-170.8" font-family="Helvetica,sans-Serif" font-size="11.00" fill="#000000">actions_modified</text>
<polygon fill="none" stroke="#000000" points="492.5,-163.7 492.5,-185.7 608.5,-185.7 608.5,-163.7 492.5,-163.7"/>
<text text-anchor="start" x="495.5" y="-171.4" font-family="Helvetica,sans-Serif" font-size="11.00" fill="#000000">bool[1]</text>
<polygon fill="none" stroke="#000000" points="225.5,-141.7 225.5,-163.7 492.5,-163.7 492.5,-141.7 225.5,-141.7"/>
<image xlink:href="../../images/foreignKeys.png" width="11px" height="12px" preserveAspectRatio="xMinYMin meet" x="230.5" y="-158.7"/>
<text text-anchor="start" x="245.5" y="-148.8" font-family="Helvetica,sans-Serif" font-size="11.00" fill="#000000">legacy_id</text>
<polygon fill="none" stroke="#000000" points="492.5,-141.7 492.5,-163.7 608.5,-163.7 608.5,-141.7 492.5,-141.7"/>
<text text-anchor="start" x="495.5" y="-149.4" font-family="Helvetica,sans-Serif" font-size="11.00" fill="#000000">int8[19]</text>
<polygon fill="#ffffff" stroke="transparent" points="225.5,-122.7 225.5,-141.7 363.5,-141.7 363.5,-122.7 225.5,-122.7"/>
<polygon fill="none" stroke="#000000" points="225.5,-122.7 225.5,-141.7 363.5,-141.7 363.5,-122.7 225.5,-122.7"/>
<text text-anchor="start" x="228.5" y="-128.8" font-family="Helvetica,sans-Serif" font-size="11.00" fill="#000000">&lt; 1</text>
<polygon fill="#ffffff" stroke="transparent" points="363.5,-122.7 363.5,-141.7 492.5,-141.7 492.5,-122.7 363.5,-122.7"/>
<polygon fill="none" stroke="#000000" points="363.5,-122.7 363.5,-141.7 492.5,-141.7 492.5,-122.7 363.5,-122.7"/>
<text text-anchor="start" x="483.3862" y="-128.8" font-family="Helvetica,sans-Serif" font-size="11.00" fill="#000000"> &#160;</text>
<polygon fill="#ffffff" stroke="transparent" points="492.5,-122.7 492.5,-141.7 608.5,-141.7 608.5,-122.7 492.5,-122.7"/>
<polygon fill="none" stroke="#000000" points="492.5,-122.7 492.5,-141.7 608.5,-141.7 608.5,-122.7 492.5,-122.7"/>
<text text-anchor="start" x="589.9053" y="-128.8" font-family="Helvetica,sans-Serif" font-size="11.00" fill="#000000">0 &gt;</text>
<polygon fill="none" stroke="#000000" stroke-width="2" points="224,-121.7 224,-627.7 609,-627.7 609,-121.7 224,-121.7"/>
</a>
</g>
</g>
<!-- review_audit&#45;&gt;audit_revision -->
<g id="edge11" class="edge">
<title>review_audit:w&#45;&gt;audit_revision:e</title>
<path fill="none" stroke="#000000" d="M211.7351,-597.1369C156.0959,-639.1078 252.0762,-964.7 174,-964.7"/>
<polygon fill="#000000" stroke="#000000" points="217.8858,-595.1543 226.6045,-596.1264 221.6929,-593.9272 225.5,-592.7 225.5,-592.7 225.5,-592.7 221.6929,-593.9272 224.3955,-589.2736 217.8858,-595.1543 217.8858,-595.1543"/>
<ellipse fill="none" stroke="#000000" cx="214.8401" cy="-596.1361" rx="3.2" ry="3.2"/>
</g>
<!-- safer_custody_screening_outcome_audit -->
<g id="node13" class="node">
<title>safer_custody_screening_outcome_audit</title>
<g id="a_node13"><a xlink:href="../../tables/safer_custody_screening_outcome_audit.html" xlink:title="safer_custody_screening_outcome_audit" target="_top">
<polygon fill="#ffffff" stroke="transparent" points="261.5,-38.2 261.5,-99.2 571.5,-99.2 571.5,-38.2 261.5,-38.2"/>
<polygon fill="#f5f5f5" stroke="transparent" points="261.5,-75.7 261.5,-98.7 571.5,-98.7 571.5,-75.7 261.5,-75.7"/>
<polygon fill="none" stroke="#000000" points="261.5,-75.7 261.5,-98.7 571.5,-98.7 571.5,-75.7 261.5,-75.7"/>
<text text-anchor="start" x="266.5" y="-84.3" font-family="Helvetica,sans-Serif" font-weight="bold" font-size="11.00" fill="#000000">safer_custody_screening_outcome_audit</text>
<text text-anchor="start" x="537.0219" y="-83.8" font-family="Helvetica,sans-Serif" font-size="11.00" fill="#000000">[table]</text>
<polygon fill="none" stroke="#000000" points="261.5,-56.7 261.5,-75.7 571.5,-75.7 571.5,-56.7 261.5,-56.7"/>
<text text-anchor="start" x="264.5" y="-62.8" font-family="Helvetica,sans-Serif" font-size="11.00" fill="#000000">...</text>
<polygon fill="#ffffff" stroke="transparent" points="261.5,-37.7 261.5,-56.7 414.5,-56.7 414.5,-37.7 261.5,-37.7"/>
<polygon fill="none" stroke="#000000" points="261.5,-37.7 261.5,-56.7 414.5,-56.7 414.5,-37.7 261.5,-37.7"/>
<text text-anchor="start" x="264.5" y="-43.8" font-family="Helvetica,sans-Serif" font-size="11.00" fill="#000000">&lt; 1</text>
<polygon fill="#ffffff" stroke="transparent" points="414.5,-37.7 414.5,-56.7 492.5,-56.7 492.5,-37.7 414.5,-37.7"/>
<polygon fill="none" stroke="#000000" points="414.5,-37.7 414.5,-56.7 492.5,-56.7 492.5,-37.7 414.5,-37.7"/>
<text text-anchor="start" x="483.3862" y="-43.8" font-family="Helvetica,sans-Serif" font-size="11.00" fill="#000000"> &#160;</text>
<polygon fill="#ffffff" stroke="transparent" points="492.5,-37.7 492.5,-56.7 571.5,-56.7 571.5,-37.7 492.5,-37.7"/>
<polygon fill="none" stroke="#000000" points="492.5,-37.7 492.5,-56.7 571.5,-56.7 571.5,-37.7 492.5,-37.7"/>
<text text-anchor="start" x="562.3862" y="-43.8" font-family="Helvetica,sans-Serif" font-size="11.00" fill="#000000"> &#160;</text>
</a>
</g>
</g>
<!-- safer_custody_screening_outcome_audit&#45;&gt;audit_revision -->
<g id="edge12" class="edge">
<title>safer_custody_screening_outcome_audit:w&#45;&gt;audit_revision:e</title>
<path fill="none" stroke="#000000" d="M247.0515,-67.7663C230.2137,-73.3253 224.5396,-89.6152 215,-110.7 195.4203,-153.9758 221.4991,-964.7 174,-964.7"/>
<polygon fill="#000000" stroke="#000000" points="253.5806,-66.8326 262.0097,-69.2637 257.5403,-66.2663 261.5,-65.7 261.5,-65.7 261.5,-65.7 257.5403,-66.2663 260.9903,-62.1363 253.5806,-66.8326 253.5806,-66.8326"/>
<ellipse fill="none" stroke="#000000" cx="250.4128" cy="-67.2857" rx="3.2" ry="3.2"/>
</g>
</g>
</svg>
