<?xml version="1.0" encoding="UTF-8" standalone="no"?>
<!DOCTYPE svg PUBLIC "-//W3C//DTD SVG 1.1//EN"
 "http://www.w3.org/Graphics/SVG/1.1/DTD/svg11.dtd">
<!-- Generated by graphviz version 2.40.1 (20161225.0304)
 -->
<!-- Title: oneDegreeRelationshipsDiagram Pages: 1 -->
<svg width="720pt" height="381pt"
 viewBox="0.00 0.00 720.00 380.70" xmlns="http://www.w3.org/2000/svg" xmlns:xlink="http://www.w3.org/1999/xlink">
<g id="graph0" class="graph" transform="scale(1 1) rotate(0) translate(4 376.7)">
<title>oneDegreeRelationshipsDiagram</title>
<polygon fill="#ffffff" stroke="transparent" points="-4,4 -4,-376.7 716,-376.7 716,4 -4,4"/>
<text text-anchor="middle" x="72.4936" y="-7.3" font-family="Helvetica,sans-Serif" font-size="11.00" fill="#000000">Generated by SchemaSpy</text>
<!-- attendee -->
<g id="node1" class="node">
<title>attendee</title>
<g id="a_node1"><a xlink:href="../../tables/attendee.html" xlink:title="attendee" target="_top">
<polygon fill="#ffffff" stroke="transparent" points="600,-241.7 600,-368.7 704,-368.7 704,-241.7 600,-241.7"/>
<polygon fill="#f5f5f5" stroke="transparent" points="600,-345.2 600,-368.2 704,-368.2 704,-345.2 600,-345.2"/>
<polygon fill="none" stroke="#000000" points="600,-345.2 600,-368.2 704,-368.2 704,-345.2 600,-345.2"/>
<text text-anchor="start" x="605" y="-353.8" font-family="Helvetica,sans-Serif" font-weight="bold" font-size="11.00" fill="#000000">attendee</text>
<text text-anchor="start" x="669.0437" y="-353.3" font-family="Helvetica,sans-Serif" font-size="11.00" fill="#000000">[table]</text>
<polygon fill="none" stroke="#000000" points="600,-323.2 600,-345.2 704,-345.2 704,-323.2 600,-323.2"/>
<image xlink:href="../../images/primaryKeys.png" width="11px" height="12px" preserveAspectRatio="xMinYMin meet" x="605" y="-340.2"/>
<text text-anchor="start" x="620" y="-330.3" font-family="Helvetica,sans-Serif" font-size="11.00" fill="#000000">attendee_id</text>
<polygon fill="#ffffff" stroke="transparent" points="600,-301.2 600,-323.2 704,-323.2 704,-301.2 600,-301.2"/>
<polygon fill="none" stroke="#000000" points="600,-301.2 600,-323.2 704,-323.2 704,-301.2 600,-301.2"/>
<image xlink:href="../../images/foreignKeys.png" width="11px" height="12px" preserveAspectRatio="xMinYMin meet" x="605" y="-318.2"/>
<text text-anchor="start" x="620" y="-308.3" font-family="Helvetica,sans-Serif" font-size="11.00" fill="#000000">review_id</text>
<polygon fill="#ffffff" stroke="transparent" points="600,-279.2 600,-301.2 704,-301.2 704,-279.2 600,-279.2"/>
<polygon fill="none" stroke="#000000" points="600,-279.2 600,-301.2 704,-301.2 704,-279.2 600,-279.2"/>
<image xlink:href="../../images/foreignKeys.png" width="11px" height="12px" preserveAspectRatio="xMinYMin meet" x="605" y="-296.2"/>
<text text-anchor="start" x="620" y="-286.3" font-family="Helvetica,sans-Serif" font-size="11.00" fill="#000000">legacy_id</text>
<polygon fill="none" stroke="#000000" points="600,-260.2 600,-279.2 704,-279.2 704,-260.2 600,-260.2"/>
<text text-anchor="start" x="603" y="-266.3" font-family="Helvetica,sans-Serif" font-size="11.00" fill="#000000">...</text>
<polygon fill="#ffffff" stroke="transparent" points="600,-241.2 600,-260.2 650,-260.2 650,-241.2 600,-241.2"/>
<polygon fill="none" stroke="#000000" points="600,-241.2 600,-260.2 650,-260.2 650,-241.2 600,-241.2"/>
<text text-anchor="start" x="603" y="-247.3" font-family="Helvetica,sans-Serif" font-size="11.00" fill="#000000">&lt; 1</text>
<polygon fill="#ffffff" stroke="transparent" points="650,-241.2 650,-260.2 677,-260.2 677,-241.2 650,-241.2"/>
<polygon fill="none" stroke="#000000" points="650,-241.2 650,-260.2 677,-260.2 677,-241.2 650,-241.2"/>
<text text-anchor="start" x="667.8862" y="-247.3" font-family="Helvetica,sans-Serif" font-size="11.00" fill="#000000"> &#160;</text>
<polygon fill="#ffffff" stroke="transparent" points="677,-241.2 677,-260.2 704,-260.2 704,-241.2 677,-241.2"/>
<polygon fill="none" stroke="#000000" points="677,-241.2 677,-260.2 704,-260.2 704,-241.2 677,-241.2"/>
<text text-anchor="start" x="694.8862" y="-247.3" font-family="Helvetica,sans-Serif" font-size="11.00" fill="#000000"> &#160;</text>
</a>
</g>
</g>
<!-- review -->
<g id="node2" class="node">
<title>review</title>
<g id="a_node2"><a xlink:href="../../tables/review.html" xlink:title="review" target="_top">
<polygon fill="#ffffff" stroke="transparent" points="230,-38.2 230,-348.2 551,-348.2 551,-38.2 230,-38.2"/>
<polygon fill="#f5f5f5" stroke="transparent" points="232.5,-323.2 232.5,-346.2 549.5,-346.2 549.5,-323.2 232.5,-323.2"/>
<polygon fill="none" stroke="#000000" points="232.5,-323.2 232.5,-346.2 549.5,-346.2 549.5,-323.2 232.5,-323.2"/>
<text text-anchor="start" x="237.5" y="-331.8" font-family="Helvetica,sans-Serif" font-weight="bold" font-size="11.00" fill="#000000">review</text>
<text text-anchor="start" x="514.5437" y="-331.3" font-family="Helvetica,sans-Serif" font-size="11.00" fill="#000000">[table]</text>
<polygon fill="none" stroke="#000000" points="232.5,-301.2 232.5,-323.2 433.5,-323.2 433.5,-301.2 232.5,-301.2"/>
<image xlink:href="../../images/primaryKeys.png" width="11px" height="12px" preserveAspectRatio="xMinYMin meet" x="237.5" y="-318.2"/>
<text text-anchor="start" x="252.5" y="-308.3" font-family="Helvetica,sans-Serif" font-size="11.00" fill="#000000">review_id</text>
<polygon fill="none" stroke="#000000" points="433.5,-301.2 433.5,-323.2 549.5,-323.2 549.5,-301.2 433.5,-301.2"/>
<text text-anchor="start" x="436.5" y="-308.9" font-family="Helvetica,sans-Serif" font-size="11.00" fill="#000000">uuid[2147483647]</text>
<polygon fill="#ffffff" stroke="transparent" points="232.5,-279.2 232.5,-301.2 433.5,-301.2 433.5,-279.2 232.5,-279.2"/>
<polygon fill="none" stroke="#000000" points="232.5,-279.2 232.5,-301.2 433.5,-301.2 433.5,-279.2 232.5,-279.2"/>
<image xlink:href="../../images/foreignKeys.png" width="11px" height="12px" preserveAspectRatio="xMinYMin meet" x="237.5" y="-296.2"/>
<text text-anchor="start" x="252.5" y="-286.3" font-family="Helvetica,sans-Serif" font-size="11.00" fill="#000000">plan_id</text>
<polygon fill="none" stroke="#000000" points="433.5,-279.2 433.5,-301.2 549.5,-301.2 549.5,-279.2 433.5,-279.2"/>
<text text-anchor="start" x="436.5" y="-286.9" font-family="Helvetica,sans-Serif" font-size="11.00" fill="#000000">uuid[2147483647]</text>
<polygon fill="none" stroke="#000000" points="232.5,-257.2 232.5,-279.2 433.5,-279.2 433.5,-257.2 232.5,-257.2"/>
<text text-anchor="start" x="252.5" y="-264.3" font-family="Helvetica,sans-Serif" font-size="11.00" fill="#000000">review_sequence</text>
<polygon fill="none" stroke="#000000" points="433.5,-257.2 433.5,-279.2 549.5,-279.2 549.5,-257.2 433.5,-257.2"/>
<text text-anchor="start" x="436.5" y="-264.9" font-family="Helvetica,sans-Serif" font-size="11.00" fill="#000000">int4[10]</text>
<polygon fill="none" stroke="#000000" points="232.5,-235.2 232.5,-257.2 433.5,-257.2 433.5,-235.2 232.5,-235.2"/>
<text text-anchor="start" x="252.5" y="-242.3" font-family="Helvetica,sans-Serif" font-size="11.00" fill="#000000">review_date</text>
<polygon fill="none" stroke="#000000" points="433.5,-235.2 433.5,-257.2 549.5,-257.2 549.5,-235.2 433.5,-235.2"/>
<text text-anchor="start" x="436.5" y="-242.9" font-family="Helvetica,sans-Serif" font-size="11.00" fill="#000000">date[13]</text>
<polygon fill="none" stroke="#000000" points="232.5,-213.2 232.5,-235.2 433.5,-235.2 433.5,-213.2 232.5,-213.2"/>
<text text-anchor="start" x="252.5" y="-220.3" font-family="Helvetica,sans-Serif" font-size="11.00" fill="#000000">recorded_by</text>
<polygon fill="none" stroke="#000000" points="433.5,-213.2 433.5,-235.2 549.5,-235.2 549.5,-213.2 433.5,-213.2"/>
<text text-anchor="start" x="436.5" y="-220.9" font-family="Helvetica,sans-Serif" font-size="11.00" fill="#000000">varchar[64]</text>
<polygon fill="none" stroke="#000000" points="232.5,-191.2 232.5,-213.2 433.5,-213.2 433.5,-191.2 232.5,-191.2"/>
<text text-anchor="start" x="252.5" y="-198.3" font-family="Helvetica,sans-Serif" font-size="11.00" fill="#000000">recorded_by_display_name</text>
<polygon fill="none" stroke="#000000" points="433.5,-191.2 433.5,-213.2 549.5,-213.2 549.5,-191.2 433.5,-191.2"/>
<text text-anchor="start" x="436.5" y="-198.9" font-family="Helvetica,sans-Serif" font-size="11.00" fill="#000000">varchar[255]</text>
<polygon fill="none" stroke="#000000" points="232.5,-169.2 232.5,-191.2 433.5,-191.2 433.5,-169.2 232.5,-169.2"/>
<text text-anchor="start" x="252.5" y="-176.3" font-family="Helvetica,sans-Serif" font-size="11.00" fill="#000000">next_review_date</text>
<polygon fill="none" stroke="#000000" points="433.5,-169.2 433.5,-191.2 549.5,-191.2 549.5,-169.2 433.5,-169.2"/>
<text text-anchor="start" x="436.5" y="-176.9" font-family="Helvetica,sans-Serif" font-size="11.00" fill="#000000">date[13]</text>
<polygon fill="none" stroke="#000000" points="232.5,-147.2 232.5,-169.2 433.5,-169.2 433.5,-147.2 232.5,-147.2"/>
<text text-anchor="start" x="252.5" y="-154.3" font-family="Helvetica,sans-Serif" font-size="11.00" fill="#000000">actions</text>
<polygon fill="none" stroke="#000000" points="433.5,-147.2 433.5,-169.2 549.5,-169.2 549.5,-147.2 433.5,-147.2"/>
<text text-anchor="start" x="436.4769" y="-154.9" font-family="Helvetica,sans-Serif" font-size="11.00" fill="#000000">_varchar[2147483647]</text>
<polygon fill="none" stroke="#000000" points="232.5,-125.2 232.5,-147.2 433.5,-147.2 433.5,-125.2 232.5,-125.2"/>
<text text-anchor="start" x="252.5" y="-132.3" font-family="Helvetica,sans-Serif" font-size="11.00" fill="#000000">csip_closed_date</text>
<polygon fill="none" stroke="#000000" points="433.5,-125.2 433.5,-147.2 549.5,-147.2 549.5,-125.2 433.5,-125.2"/>
<text text-anchor="start" x="436.5" y="-132.9" font-family="Helvetica,sans-Serif" font-size="11.00" fill="#000000">date[13]</text>
<polygon fill="none" stroke="#000000" points="232.5,-103.2 232.5,-125.2 433.5,-125.2 433.5,-103.2 232.5,-103.2"/>
<text text-anchor="start" x="252.5" y="-110.3" font-family="Helvetica,sans-Serif" font-size="11.00" fill="#000000">summary</text>
<polygon fill="none" stroke="#000000" points="433.5,-103.2 433.5,-125.2 549.5,-125.2 549.5,-103.2 433.5,-103.2"/>
<text text-anchor="start" x="436.5" y="-110.9" font-family="Helvetica,sans-Serif" font-size="11.00" fill="#000000">text[2147483647]</text>
<polygon fill="none" stroke="#000000" points="232.5,-81.2 232.5,-103.2 433.5,-103.2 433.5,-81.2 232.5,-81.2"/>
<text text-anchor="start" x="252.5" y="-88.3" font-family="Helvetica,sans-Serif" font-size="11.00" fill="#000000">version</text>
<polygon fill="none" stroke="#000000" points="433.5,-81.2 433.5,-103.2 549.5,-103.2 549.5,-81.2 433.5,-81.2"/>
<text text-anchor="start" x="436.5" y="-88.9" font-family="Helvetica,sans-Serif" font-size="11.00" fill="#000000">int4[10]</text>
<polygon fill="#ffffff" stroke="transparent" points="232.5,-59.2 232.5,-81.2 433.5,-81.2 433.5,-59.2 232.5,-59.2"/>
<polygon fill="none" stroke="#000000" points="232.5,-59.2 232.5,-81.2 433.5,-81.2 433.5,-59.2 232.5,-59.2"/>
<image xlink:href="../../images/foreignKeys.png" width="11px" height="12px" preserveAspectRatio="xMinYMin meet" x="237.5" y="-76.2"/>
<text text-anchor="start" x="252.5" y="-66.3" font-family="Helvetica,sans-Serif" font-size="11.00" fill="#000000">legacy_id</text>
<polygon fill="none" stroke="#000000" points="433.5,-59.2 433.5,-81.2 549.5,-81.2 549.5,-59.2 433.5,-59.2"/>
<text text-anchor="start" x="436.5" y="-66.9" font-family="Helvetica,sans-Serif" font-size="11.00" fill="#000000">int8[19]</text>
<polygon fill="#ffffff" stroke="transparent" points="232.5,-40.2 232.5,-59.2 337.5,-59.2 337.5,-40.2 232.5,-40.2"/>
<polygon fill="none" stroke="#000000" points="232.5,-40.2 232.5,-59.2 337.5,-59.2 337.5,-40.2 232.5,-40.2"/>
<text text-anchor="start" x="235.5" y="-46.3" font-family="Helvetica,sans-Serif" font-size="11.00" fill="#000000">&lt; 1</text>
<polygon fill="#ffffff" stroke="transparent" points="337.5,-40.2 337.5,-59.2 433.5,-59.2 433.5,-40.2 337.5,-40.2"/>
<polygon fill="none" stroke="#000000" points="337.5,-40.2 337.5,-59.2 433.5,-59.2 433.5,-40.2 337.5,-40.2"/>
<text text-anchor="start" x="424.3862" y="-46.3" font-family="Helvetica,sans-Serif" font-size="11.00" fill="#000000"> &#160;</text>
<polygon fill="#ffffff" stroke="transparent" points="433.5,-40.2 433.5,-59.2 549.5,-59.2 549.5,-40.2 433.5,-40.2"/>
<polygon fill="none" stroke="#000000" points="433.5,-40.2 433.5,-59.2 549.5,-59.2 549.5,-40.2 433.5,-40.2"/>
<text text-anchor="start" x="530.9053" y="-46.3" font-family="Helvetica,sans-Serif" font-size="11.00" fill="#000000">1 &gt;</text>
<polygon fill="none" stroke="#000000" stroke-width="2" points="231,-39.2 231,-347.2 550,-347.2 550,-39.2 231,-39.2"/>
</a>
</g>
</g>
<!-- attendee&#45;&gt;review -->
<g id="edge1" class="edge">
<title>attendee:w&#45;&gt;review:e</title>
<path fill="none" stroke="#000000" d="M585.4203,-312.2C573.5435,-312.2 566.158,-312.2 549.5,-312.2"/>
<polygon fill="#000000" stroke="#000000" points="592,-312.2001 600,-315.8 596,-312.2 600,-312.2 600,-312.2 600,-312.2 596,-312.2 600,-308.6 592,-312.2001 592,-312.2001"/>
<ellipse fill="none" stroke="#000000" cx="588.8" cy="-312.2001" rx="3.2" ry="3.2"/>
</g>
<!-- plan -->
<g id="node3" class="node">
<title>plan</title>
<g id="a_node3"><a xlink:href="../../tables/plan.html" xlink:title="plan" target="_top">
<polygon fill="#ffffff" stroke="transparent" points="8,-241.7 8,-324.7 181,-324.7 181,-241.7 8,-241.7"/>
<polygon fill="#f5f5f5" stroke="transparent" points="8.5,-301.2 8.5,-324.2 181.5,-324.2 181.5,-301.2 8.5,-301.2"/>
<polygon fill="none" stroke="#000000" points="8.5,-301.2 8.5,-324.2 181.5,-324.2 181.5,-301.2 8.5,-301.2"/>
<text text-anchor="start" x="13.5" y="-309.8" font-family="Helvetica,sans-Serif" font-weight="bold" font-size="11.00" fill="#000000">plan</text>
<text text-anchor="start" x="146.5437" y="-309.3" font-family="Helvetica,sans-Serif" font-size="11.00" fill="#000000">[table]</text>
<polygon fill="none" stroke="#000000" points="8.5,-279.2 8.5,-301.2 181.5,-301.2 181.5,-279.2 8.5,-279.2"/>
<image xlink:href="../../images/primaryKeys.png" width="11px" height="12px" preserveAspectRatio="xMinYMin meet" x="13.5" y="-296.2"/>
<text text-anchor="start" x="28.5" y="-286.3" font-family="Helvetica,sans-Serif" font-size="11.00" fill="#000000">plan_id</text>
<polygon fill="none" stroke="#000000" points="8.5,-260.2 8.5,-279.2 181.5,-279.2 181.5,-260.2 8.5,-260.2"/>
<text text-anchor="start" x="11.5" y="-266.3" font-family="Helvetica,sans-Serif" font-size="11.00" fill="#000000">...</text>
<polygon fill="#ffffff" stroke="transparent" points="8.5,-241.2 8.5,-260.2 88.5,-260.2 88.5,-241.2 8.5,-241.2"/>
<polygon fill="none" stroke="#000000" points="8.5,-241.2 8.5,-260.2 88.5,-260.2 88.5,-241.2 8.5,-241.2"/>
<text text-anchor="start" x="11.5" y="-247.3" font-family="Helvetica,sans-Serif" font-size="11.00" fill="#000000">&lt; 1</text>
<polygon fill="#ffffff" stroke="transparent" points="88.5,-241.2 88.5,-260.2 130.5,-260.2 130.5,-241.2 88.5,-241.2"/>
<polygon fill="none" stroke="#000000" points="88.5,-241.2 88.5,-260.2 130.5,-260.2 130.5,-241.2 88.5,-241.2"/>
<text text-anchor="start" x="121.3862" y="-247.3" font-family="Helvetica,sans-Serif" font-size="11.00" fill="#000000"> &#160;</text>
<polygon fill="#ffffff" stroke="transparent" points="130.5,-241.2 130.5,-260.2 181.5,-260.2 181.5,-241.2 130.5,-241.2"/>
<polygon fill="none" stroke="#000000" points="130.5,-241.2 130.5,-260.2 181.5,-260.2 181.5,-241.2 130.5,-241.2"/>
<text text-anchor="start" x="162.9053" y="-247.3" font-family="Helvetica,sans-Serif" font-size="11.00" fill="#000000">2 &gt;</text>
</a>
</g>
</g>
<!-- review&#45;&gt;plan -->
<g id="edge2" class="edge">
<title>review:w&#45;&gt;plan:e</title>
<path fill="none" stroke="#000000" d="M217.776,-290.2C205.7815,-290.2 198.3229,-290.2 181.5,-290.2"/>
<polygon fill="#000000" stroke="#000000" points="224.5,-290.2001 232.5,-293.8 228.5,-290.2 232.5,-290.2 232.5,-290.2 232.5,-290.2 228.5,-290.2 232.5,-286.6 224.5,-290.2001 224.5,-290.2001"/>
<ellipse fill="none" stroke="#000000" cx="221.3" cy="-290.2001" rx="3.2" ry="3.2"/>
</g>
</g>
</svg>
