<?xml version="1.0" encoding="UTF-8" standalone="no"?>
<!DOCTYPE svg PUBLIC "-//W3C//DTD SVG 1.1//EN"
 "http://www.w3.org/Graphics/SVG/1.1/DTD/svg11.dtd">
<!-- Generated by graphviz version 2.40.1 (20161225.0304)
 -->
<!-- Title: twoDegreesRelationshipsDiagram Pages: 1 -->
<svg width="626pt" height="1379pt"
 viewBox="0.00 0.00 626.00 1379.20" xmlns="http://www.w3.org/2000/svg" xmlns:xlink="http://www.w3.org/1999/xlink">
<g id="graph0" class="graph" transform="scale(1 1) rotate(0) translate(4 1375.2)">
<title>twoDegreesRelationshipsDiagram</title>
<polygon fill="#ffffff" stroke="transparent" points="-4,4 -4,-1375.2 622,-1375.2 622,4 -4,4"/>
<text text-anchor="middle" x="72.4936" y="-7.3" font-family="Helvetica,sans-Serif" font-size="11.00" fill="#000000">Generated by SchemaSpy</text>
<!-- attendee_audit -->
<g id="node1" class="node">
<title>attendee_audit</title>
<g id="a_node1"><a xlink:href="../../tables/attendee_audit.html" xlink:title="attendee_audit" target="_top">
<polygon fill="#ffffff" stroke="transparent" points="346,-1306.2 346,-1367.2 487,-1367.2 487,-1306.2 346,-1306.2"/>
<polygon fill="#f5f5f5" stroke="transparent" points="346.5,-1343.7 346.5,-1366.7 487.5,-1366.7 487.5,-1343.7 346.5,-1343.7"/>
<polygon fill="none" stroke="#000000" points="346.5,-1343.7 346.5,-1366.7 487.5,-1366.7 487.5,-1343.7 346.5,-1343.7"/>
<text text-anchor="start" x="351.5" y="-1352.3" font-family="Helvetica,sans-Serif" font-weight="bold" font-size="11.00" fill="#000000">attendee_audit</text>
<text text-anchor="start" x="453.0219" y="-1351.8" font-family="Helvetica,sans-Serif" font-size="11.00" fill="#000000">[table]</text>
<polygon fill="none" stroke="#000000" points="346.5,-1324.7 346.5,-1343.7 487.5,-1343.7 487.5,-1324.7 346.5,-1324.7"/>
<text text-anchor="start" x="349.5" y="-1330.8" font-family="Helvetica,sans-Serif" font-size="11.00" fill="#000000">...</text>
<polygon fill="#ffffff" stroke="transparent" points="346.5,-1305.7 346.5,-1324.7 415.5,-1324.7 415.5,-1305.7 346.5,-1305.7"/>
<polygon fill="none" stroke="#000000" points="346.5,-1305.7 346.5,-1324.7 415.5,-1324.7 415.5,-1305.7 346.5,-1305.7"/>
<text text-anchor="start" x="349.5" y="-1311.8" font-family="Helvetica,sans-Serif" font-size="11.00" fill="#000000">&lt; 1</text>
<polygon fill="#ffffff" stroke="transparent" points="415.5,-1305.7 415.5,-1324.7 451.5,-1324.7 451.5,-1305.7 415.5,-1305.7"/>
<polygon fill="none" stroke="#000000" points="415.5,-1305.7 415.5,-1324.7 451.5,-1324.7 451.5,-1305.7 415.5,-1305.7"/>
<text text-anchor="start" x="442.3862" y="-1311.8" font-family="Helvetica,sans-Serif" font-size="11.00" fill="#000000"> &#160;</text>
<polygon fill="#ffffff" stroke="transparent" points="451.5,-1305.7 451.5,-1324.7 487.5,-1324.7 487.5,-1305.7 451.5,-1305.7"/>
<polygon fill="none" stroke="#000000" points="451.5,-1305.7 451.5,-1324.7 487.5,-1324.7 487.5,-1305.7 451.5,-1305.7"/>
<text text-anchor="start" x="478.3862" y="-1311.8" font-family="Helvetica,sans-Serif" font-size="11.00" fill="#000000"> &#160;</text>
</a>
</g>
</g>
<!-- audit_revision -->
<g id="node2" class="node">
<title>audit_revision</title>
<g id="a_node2"><a xlink:href="../../tables/audit_revision.html" xlink:title="audit_revision" target="_top">
<polygon fill="#ffffff" stroke="transparent" points="8,-875.2 8,-958.2 174,-958.2 174,-875.2 8,-875.2"/>
<polygon fill="#f5f5f5" stroke="transparent" points="8,-934.7 8,-957.7 174,-957.7 174,-934.7 8,-934.7"/>
<polygon fill="none" stroke="#000000" points="8,-934.7 8,-957.7 174,-957.7 174,-934.7 8,-934.7"/>
<text text-anchor="start" x="13" y="-943.3" font-family="Helvetica,sans-Serif" font-weight="bold" font-size="11.00" fill="#000000">audit_revision</text>
<text text-anchor="start" x="139.0437" y="-942.8" font-family="Helvetica,sans-Serif" font-size="11.00" fill="#000000">[table]</text>
<polygon fill="none" stroke="#000000" points="8,-912.7 8,-934.7 174,-934.7 174,-912.7 8,-912.7"/>
<image xlink:href="../../images/primaryKeys.png" width="11px" height="12px" preserveAspectRatio="xMinYMin meet" x="13" y="-929.7"/>
<text text-anchor="start" x="28" y="-919.8" font-family="Helvetica,sans-Serif" font-size="11.00" fill="#000000">id</text>
<polygon fill="none" stroke="#000000" points="8,-893.7 8,-912.7 174,-912.7 174,-893.7 8,-893.7"/>
<text text-anchor="start" x="11" y="-899.8" font-family="Helvetica,sans-Serif" font-size="11.00" fill="#000000">...</text>
<polygon fill="#ffffff" stroke="transparent" points="8,-874.7 8,-893.7 77,-893.7 77,-874.7 8,-874.7"/>
<polygon fill="none" stroke="#000000" points="8,-874.7 8,-893.7 77,-893.7 77,-874.7 8,-874.7"/>
<text text-anchor="start" x="11" y="-880.8" font-family="Helvetica,sans-Serif" font-size="11.00" fill="#000000"> &#160;</text>
<polygon fill="#ffffff" stroke="transparent" points="77,-874.7 77,-893.7 118,-893.7 118,-874.7 77,-874.7"/>
<polygon fill="none" stroke="#000000" points="77,-874.7 77,-893.7 118,-893.7 118,-874.7 77,-874.7"/>
<text text-anchor="start" x="108.8862" y="-880.8" font-family="Helvetica,sans-Serif" font-size="11.00" fill="#000000"> &#160;</text>
<polygon fill="#ffffff" stroke="transparent" points="118,-874.7 118,-893.7 174,-893.7 174,-874.7 118,-874.7"/>
<polygon fill="none" stroke="#000000" points="118,-874.7 118,-893.7 174,-893.7 174,-874.7 118,-874.7"/>
<text text-anchor="start" x="149.2904" y="-880.8" font-family="Helvetica,sans-Serif" font-size="11.00" fill="#000000">11 &gt;</text>
</a>
</g>
</g>
<!-- attendee_audit&#45;&gt;audit_revision -->
<g id="edge1" class="edge">
<title>attendee_audit:w&#45;&gt;audit_revision:e</title>
<path fill="none" stroke="#000000" d="M331.7713,-1333.8431C280.3207,-1334.7466 250.8842,-1338.3353 215,-1295.7 161.4458,-1232.0703 257.1672,-923.7 174,-923.7"/>
<polygon fill="#000000" stroke="#000000" points="338.5004,-1333.7778 346.535,-1337.2998 342.5002,-1333.7389 346.5,-1333.7 346.5,-1333.7 346.5,-1333.7 342.5002,-1333.7389 346.465,-1330.1002 338.5004,-1333.7778 338.5004,-1333.7778"/>
<ellipse fill="none" stroke="#000000" cx="335.3005" cy="-1333.8089" rx="3.2" ry="3.2"/>
</g>
<!-- contributory_factor_audit -->
<g id="node3" class="node">
<title>contributory_factor_audit</title>
<g id="a_node3"><a xlink:href="../../tables/contributory_factor_audit.html" xlink:title="contributory_factor_audit" target="_top">
<polygon fill="#ffffff" stroke="transparent" points="311.5,-1224.2 311.5,-1285.2 521.5,-1285.2 521.5,-1224.2 311.5,-1224.2"/>
<polygon fill="#f5f5f5" stroke="transparent" points="311.5,-1261.7 311.5,-1284.7 521.5,-1284.7 521.5,-1261.7 311.5,-1261.7"/>
<polygon fill="none" stroke="#000000" points="311.5,-1261.7 311.5,-1284.7 521.5,-1284.7 521.5,-1261.7 311.5,-1261.7"/>
<text text-anchor="start" x="316.5" y="-1270.3" font-family="Helvetica,sans-Serif" font-weight="bold" font-size="11.00" fill="#000000">contributory_factor_audit</text>
<text text-anchor="start" x="487.0219" y="-1269.8" font-family="Helvetica,sans-Serif" font-size="11.00" fill="#000000">[table]</text>
<polygon fill="none" stroke="#000000" points="311.5,-1242.7 311.5,-1261.7 521.5,-1261.7 521.5,-1242.7 311.5,-1242.7"/>
<text text-anchor="start" x="314.5" y="-1248.8" font-family="Helvetica,sans-Serif" font-size="11.00" fill="#000000">...</text>
<polygon fill="#ffffff" stroke="transparent" points="311.5,-1223.7 311.5,-1242.7 414.5,-1242.7 414.5,-1223.7 311.5,-1223.7"/>
<polygon fill="none" stroke="#000000" points="311.5,-1223.7 311.5,-1242.7 414.5,-1242.7 414.5,-1223.7 311.5,-1223.7"/>
<text text-anchor="start" x="314.5" y="-1229.8" font-family="Helvetica,sans-Serif" font-size="11.00" fill="#000000">&lt; 1</text>
<polygon fill="#ffffff" stroke="transparent" points="414.5,-1223.7 414.5,-1242.7 467.5,-1242.7 467.5,-1223.7 414.5,-1223.7"/>
<polygon fill="none" stroke="#000000" points="414.5,-1223.7 414.5,-1242.7 467.5,-1242.7 467.5,-1223.7 414.5,-1223.7"/>
<text text-anchor="start" x="458.3862" y="-1229.8" font-family="Helvetica,sans-Serif" font-size="11.00" fill="#000000"> &#160;</text>
<polygon fill="#ffffff" stroke="transparent" points="467.5,-1223.7 467.5,-1242.7 521.5,-1242.7 521.5,-1223.7 467.5,-1223.7"/>
<polygon fill="none" stroke="#000000" points="467.5,-1223.7 467.5,-1242.7 521.5,-1242.7 521.5,-1223.7 467.5,-1223.7"/>
<text text-anchor="start" x="512.3862" y="-1229.8" font-family="Helvetica,sans-Serif" font-size="11.00" fill="#000000"> &#160;</text>
</a>
</g>
</g>
<!-- contributory_factor_audit&#45;&gt;audit_revision -->
<g id="edge2" class="edge">
<title>contributory_factor_audit:w&#45;&gt;audit_revision:e</title>
<path fill="none" stroke="#000000" d="M296.7234,-1251.5828C260.3688,-1250.8478 240.319,-1245.7863 215,-1213.7 174.6822,-1162.6062 239.0853,-923.7 174,-923.7"/>
<polygon fill="#000000" stroke="#000000" points="303.5003,-1251.6365 311.4714,-1255.2999 307.5001,-1251.6683 311.5,-1251.7 311.5,-1251.7 311.5,-1251.7 307.5001,-1251.6683 311.5286,-1248.1001 303.5003,-1251.6365 303.5003,-1251.6365"/>
<ellipse fill="none" stroke="#000000" cx="300.3004" cy="-1251.6111" rx="3.2" ry="3.2"/>
</g>
<!-- csip_record_audit -->
<g id="node4" class="node">
<title>csip_record_audit</title>
<g id="a_node4"><a xlink:href="../../tables/csip_record_audit.html" xlink:title="csip_record_audit" target="_top">
<polygon fill="#ffffff" stroke="transparent" points="338.5,-1142.2 338.5,-1203.2 494.5,-1203.2 494.5,-1142.2 338.5,-1142.2"/>
<polygon fill="#f5f5f5" stroke="transparent" points="338.5,-1179.7 338.5,-1202.7 494.5,-1202.7 494.5,-1179.7 338.5,-1179.7"/>
<polygon fill="none" stroke="#000000" points="338.5,-1179.7 338.5,-1202.7 494.5,-1202.7 494.5,-1179.7 338.5,-1179.7"/>
<text text-anchor="start" x="343.5" y="-1188.3" font-family="Helvetica,sans-Serif" font-weight="bold" font-size="11.00" fill="#000000">csip_record_audit</text>
<text text-anchor="start" x="460.0219" y="-1187.8" font-family="Helvetica,sans-Serif" font-size="11.00" fill="#000000">[table]</text>
<polygon fill="none" stroke="#000000" points="338.5,-1160.7 338.5,-1179.7 494.5,-1179.7 494.5,-1160.7 338.5,-1160.7"/>
<text text-anchor="start" x="341.5" y="-1166.8" font-family="Helvetica,sans-Serif" font-size="11.00" fill="#000000">...</text>
<polygon fill="#ffffff" stroke="transparent" points="338.5,-1141.7 338.5,-1160.7 414.5,-1160.7 414.5,-1141.7 338.5,-1141.7"/>
<polygon fill="none" stroke="#000000" points="338.5,-1141.7 338.5,-1160.7 414.5,-1160.7 414.5,-1141.7 338.5,-1141.7"/>
<text text-anchor="start" x="341.5" y="-1147.8" font-family="Helvetica,sans-Serif" font-size="11.00" fill="#000000">&lt; 1</text>
<polygon fill="#ffffff" stroke="transparent" points="414.5,-1141.7 414.5,-1160.7 454.5,-1160.7 454.5,-1141.7 414.5,-1141.7"/>
<polygon fill="none" stroke="#000000" points="414.5,-1141.7 414.5,-1160.7 454.5,-1160.7 454.5,-1141.7 414.5,-1141.7"/>
<text text-anchor="start" x="445.3862" y="-1147.8" font-family="Helvetica,sans-Serif" font-size="11.00" fill="#000000"> &#160;</text>
<polygon fill="#ffffff" stroke="transparent" points="454.5,-1141.7 454.5,-1160.7 494.5,-1160.7 494.5,-1141.7 454.5,-1141.7"/>
<polygon fill="none" stroke="#000000" points="454.5,-1141.7 454.5,-1160.7 494.5,-1160.7 494.5,-1141.7 454.5,-1141.7"/>
<text text-anchor="start" x="485.3862" y="-1147.8" font-family="Helvetica,sans-Serif" font-size="11.00" fill="#000000"> &#160;</text>
</a>
</g>
</g>
<!-- csip_record_audit&#45;&gt;audit_revision -->
<g id="edge3" class="edge">
<title>csip_record_audit:w&#45;&gt;audit_revision:e</title>
<path fill="none" stroke="#000000" d="M324.0208,-1169.7727C276.1318,-1170.1538 250.0661,-1170.6119 215,-1131.7 151.9229,-1061.705 268.2233,-923.7 174,-923.7"/>
<polygon fill="#000000" stroke="#000000" points="330.5001,-1169.7402 338.5181,-1173.3 334.5001,-1169.7201 338.5,-1169.7 338.5,-1169.7 338.5,-1169.7 334.5001,-1169.7201 338.4819,-1166.1 330.5001,-1169.7402 330.5001,-1169.7402"/>
<ellipse fill="none" stroke="#000000" cx="327.3001" cy="-1169.7563" rx="3.2" ry="3.2"/>
</g>
<!-- decision_and_actions_audit -->
<g id="node5" class="node">
<title>decision_and_actions_audit</title>
<g id="a_node5"><a xlink:href="../../tables/decision_and_actions_audit.html" xlink:title="decision_and_actions_audit" target="_top">
<polygon fill="#ffffff" stroke="transparent" points="305.5,-1060.2 305.5,-1121.2 527.5,-1121.2 527.5,-1060.2 305.5,-1060.2"/>
<polygon fill="#f5f5f5" stroke="transparent" points="305.5,-1097.7 305.5,-1120.7 527.5,-1120.7 527.5,-1097.7 305.5,-1097.7"/>
<polygon fill="none" stroke="#000000" points="305.5,-1097.7 305.5,-1120.7 527.5,-1120.7 527.5,-1097.7 305.5,-1097.7"/>
<text text-anchor="start" x="310.5" y="-1106.3" font-family="Helvetica,sans-Serif" font-weight="bold" font-size="11.00" fill="#000000">decision_and_actions_audit</text>
<text text-anchor="start" x="493.0219" y="-1105.8" font-family="Helvetica,sans-Serif" font-size="11.00" fill="#000000">[table]</text>
<polygon fill="none" stroke="#000000" points="305.5,-1078.7 305.5,-1097.7 527.5,-1097.7 527.5,-1078.7 305.5,-1078.7"/>
<text text-anchor="start" x="308.5" y="-1084.8" font-family="Helvetica,sans-Serif" font-size="11.00" fill="#000000">...</text>
<polygon fill="#ffffff" stroke="transparent" points="305.5,-1059.7 305.5,-1078.7 414.5,-1078.7 414.5,-1059.7 305.5,-1059.7"/>
<polygon fill="none" stroke="#000000" points="305.5,-1059.7 305.5,-1078.7 414.5,-1078.7 414.5,-1059.7 305.5,-1059.7"/>
<text text-anchor="start" x="308.5" y="-1065.8" font-family="Helvetica,sans-Serif" font-size="11.00" fill="#000000">&lt; 1</text>
<polygon fill="#ffffff" stroke="transparent" points="414.5,-1059.7 414.5,-1078.7 470.5,-1078.7 470.5,-1059.7 414.5,-1059.7"/>
<polygon fill="none" stroke="#000000" points="414.5,-1059.7 414.5,-1078.7 470.5,-1078.7 470.5,-1059.7 414.5,-1059.7"/>
<text text-anchor="start" x="461.3862" y="-1065.8" font-family="Helvetica,sans-Serif" font-size="11.00" fill="#000000"> &#160;</text>
<polygon fill="#ffffff" stroke="transparent" points="470.5,-1059.7 470.5,-1078.7 527.5,-1078.7 527.5,-1059.7 470.5,-1059.7"/>
<polygon fill="none" stroke="#000000" points="470.5,-1059.7 470.5,-1078.7 527.5,-1078.7 527.5,-1059.7 470.5,-1059.7"/>
<text text-anchor="start" x="518.3862" y="-1065.8" font-family="Helvetica,sans-Serif" font-size="11.00" fill="#000000"> &#160;</text>
</a>
</g>
</g>
<!-- decision_and_actions_audit&#45;&gt;audit_revision -->
<g id="edge4" class="edge">
<title>decision_and_actions_audit:w&#45;&gt;audit_revision:e</title>
<path fill="none" stroke="#000000" d="M290.7403,-1087.4044C257.4987,-1085.8868 240.9642,-1077.9123 215,-1049.7 175.1206,-1006.3677 232.8901,-923.7 174,-923.7"/>
<polygon fill="#000000" stroke="#000000" points="297.5016,-1087.5397 305.4279,-1091.2993 301.5008,-1087.6199 305.5,-1087.7 305.5,-1087.7 305.5,-1087.7 301.5008,-1087.6199 305.5721,-1084.1007 297.5016,-1087.5397 297.5016,-1087.5397"/>
<ellipse fill="none" stroke="#000000" cx="294.3022" cy="-1087.4756" rx="3.2" ry="3.2"/>
</g>
<!-- identified_need_audit -->
<g id="node6" class="node">
<title>identified_need_audit</title>
<g id="a_node6"><a xlink:href="../../tables/identified_need_audit.html" xlink:title="identified_need_audit" target="_top">
<polygon fill="#ffffff" stroke="transparent" points="324.5,-978.2 324.5,-1039.2 508.5,-1039.2 508.5,-978.2 324.5,-978.2"/>
<polygon fill="#f5f5f5" stroke="transparent" points="324.5,-1015.7 324.5,-1038.7 508.5,-1038.7 508.5,-1015.7 324.5,-1015.7"/>
<polygon fill="none" stroke="#000000" points="324.5,-1015.7 324.5,-1038.7 508.5,-1038.7 508.5,-1015.7 324.5,-1015.7"/>
<text text-anchor="start" x="329.5" y="-1024.3" font-family="Helvetica,sans-Serif" font-weight="bold" font-size="11.00" fill="#000000">identified_need_audit</text>
<text text-anchor="start" x="474.0219" y="-1023.8" font-family="Helvetica,sans-Serif" font-size="11.00" fill="#000000">[table]</text>
<polygon fill="none" stroke="#000000" points="324.5,-996.7 324.5,-1015.7 508.5,-1015.7 508.5,-996.7 324.5,-996.7"/>
<text text-anchor="start" x="327.5" y="-1002.8" font-family="Helvetica,sans-Serif" font-size="11.00" fill="#000000">...</text>
<polygon fill="#ffffff" stroke="transparent" points="324.5,-977.7 324.5,-996.7 414.5,-996.7 414.5,-977.7 324.5,-977.7"/>
<polygon fill="none" stroke="#000000" points="324.5,-977.7 324.5,-996.7 414.5,-996.7 414.5,-977.7 324.5,-977.7"/>
<text text-anchor="start" x="327.5" y="-983.8" font-family="Helvetica,sans-Serif" font-size="11.00" fill="#000000">&lt; 1</text>
<polygon fill="#ffffff" stroke="transparent" points="414.5,-977.7 414.5,-996.7 461.5,-996.7 461.5,-977.7 414.5,-977.7"/>
<polygon fill="none" stroke="#000000" points="414.5,-977.7 414.5,-996.7 461.5,-996.7 461.5,-977.7 414.5,-977.7"/>
<text text-anchor="start" x="452.3862" y="-983.8" font-family="Helvetica,sans-Serif" font-size="11.00" fill="#000000"> &#160;</text>
<polygon fill="#ffffff" stroke="transparent" points="461.5,-977.7 461.5,-996.7 508.5,-996.7 508.5,-977.7 461.5,-977.7"/>
<polygon fill="none" stroke="#000000" points="461.5,-977.7 461.5,-996.7 508.5,-996.7 508.5,-977.7 461.5,-977.7"/>
<text text-anchor="start" x="499.3862" y="-983.8" font-family="Helvetica,sans-Serif" font-size="11.00" fill="#000000"> &#160;</text>
</a>
</g>
</g>
<!-- identified_need_audit&#45;&gt;audit_revision -->
<g id="edge5" class="edge">
<title>identified_need_audit:w&#45;&gt;audit_revision:e</title>
<path fill="none" stroke="#000000" d="M309.8717,-1005.3854C269.683,-1003.5044 253.7802,-992.9611 215,-967.7 192.603,-953.1108 200.7296,-923.7 174,-923.7"/>
<polygon fill="#000000" stroke="#000000" points="316.5018,-1005.5279 324.4226,-1009.2992 320.5009,-1005.614 324.5,-1005.7 324.5,-1005.7 324.5,-1005.7 320.5009,-1005.614 324.5774,-1002.1008 316.5018,-1005.5279 316.5018,-1005.5279"/>
<ellipse fill="none" stroke="#000000" cx="313.3026" cy="-1005.4591" rx="3.2" ry="3.2"/>
</g>
<!-- interview_audit -->
<g id="node7" class="node">
<title>interview_audit</title>
<g id="a_node7"><a xlink:href="../../tables/interview_audit.html" xlink:title="interview_audit" target="_top">
<polygon fill="#ffffff" stroke="transparent" points="345,-896.2 345,-957.2 488,-957.2 488,-896.2 345,-896.2"/>
<polygon fill="#f5f5f5" stroke="transparent" points="345.5,-933.7 345.5,-956.7 488.5,-956.7 488.5,-933.7 345.5,-933.7"/>
<polygon fill="none" stroke="#000000" points="345.5,-933.7 345.5,-956.7 488.5,-956.7 488.5,-933.7 345.5,-933.7"/>
<text text-anchor="start" x="350.5" y="-942.3" font-family="Helvetica,sans-Serif" font-weight="bold" font-size="11.00" fill="#000000">interview_audit</text>
<text text-anchor="start" x="454.0219" y="-941.8" font-family="Helvetica,sans-Serif" font-size="11.00" fill="#000000">[table]</text>
<polygon fill="none" stroke="#000000" points="345.5,-914.7 345.5,-933.7 488.5,-933.7 488.5,-914.7 345.5,-914.7"/>
<text text-anchor="start" x="348.5" y="-920.8" font-family="Helvetica,sans-Serif" font-size="11.00" fill="#000000">...</text>
<polygon fill="#ffffff" stroke="transparent" points="345.5,-895.7 345.5,-914.7 415.5,-914.7 415.5,-895.7 345.5,-895.7"/>
<polygon fill="none" stroke="#000000" points="345.5,-895.7 345.5,-914.7 415.5,-914.7 415.5,-895.7 345.5,-895.7"/>
<text text-anchor="start" x="348.5" y="-901.8" font-family="Helvetica,sans-Serif" font-size="11.00" fill="#000000">&lt; 1</text>
<polygon fill="#ffffff" stroke="transparent" points="415.5,-895.7 415.5,-914.7 451.5,-914.7 451.5,-895.7 415.5,-895.7"/>
<polygon fill="none" stroke="#000000" points="415.5,-895.7 415.5,-914.7 451.5,-914.7 451.5,-895.7 415.5,-895.7"/>
<text text-anchor="start" x="442.3862" y="-901.8" font-family="Helvetica,sans-Serif" font-size="11.00" fill="#000000"> &#160;</text>
<polygon fill="#ffffff" stroke="transparent" points="451.5,-895.7 451.5,-914.7 488.5,-914.7 488.5,-895.7 451.5,-895.7"/>
<polygon fill="none" stroke="#000000" points="451.5,-895.7 451.5,-914.7 488.5,-914.7 488.5,-895.7 451.5,-895.7"/>
<text text-anchor="start" x="479.3862" y="-901.8" font-family="Helvetica,sans-Serif" font-size="11.00" fill="#000000"> &#160;</text>
</a>
</g>
</g>
<!-- interview_audit&#45;&gt;audit_revision -->
<g id="edge6" class="edge">
<title>interview_audit:w&#45;&gt;audit_revision:e</title>
<path fill="none" stroke="#000000" d="M331.0379,-923.7C266.4949,-923.7 245.1606,-923.7 174,-923.7"/>
<polygon fill="#000000" stroke="#000000" points="337.5,-923.7001 345.5,-927.3 341.5,-923.7 345.5,-923.7 345.5,-923.7 345.5,-923.7 341.5,-923.7 345.5,-920.1 337.5,-923.7001 337.5,-923.7001"/>
<ellipse fill="none" stroke="#000000" cx="334.3" cy="-923.7001" rx="3.2" ry="3.2"/>
</g>
<!-- investigation_audit -->
<g id="node8" class="node">
<title>investigation_audit</title>
<g id="a_node8"><a xlink:href="../../tables/investigation_audit.html" xlink:title="investigation_audit" target="_top">
<polygon fill="#ffffff" stroke="transparent" points="332,-814.2 332,-875.2 501,-875.2 501,-814.2 332,-814.2"/>
<polygon fill="#f5f5f5" stroke="transparent" points="332.5,-851.7 332.5,-874.7 501.5,-874.7 501.5,-851.7 332.5,-851.7"/>
<polygon fill="none" stroke="#000000" points="332.5,-851.7 332.5,-874.7 501.5,-874.7 501.5,-851.7 332.5,-851.7"/>
<text text-anchor="start" x="337.5" y="-860.3" font-family="Helvetica,sans-Serif" font-weight="bold" font-size="11.00" fill="#000000">investigation_audit</text>
<text text-anchor="start" x="467.0219" y="-859.8" font-family="Helvetica,sans-Serif" font-size="11.00" fill="#000000">[table]</text>
<polygon fill="none" stroke="#000000" points="332.5,-832.7 332.5,-851.7 501.5,-851.7 501.5,-832.7 332.5,-832.7"/>
<text text-anchor="start" x="335.5" y="-838.8" font-family="Helvetica,sans-Serif" font-size="11.00" fill="#000000">...</text>
<polygon fill="#ffffff" stroke="transparent" points="332.5,-813.7 332.5,-832.7 415.5,-832.7 415.5,-813.7 332.5,-813.7"/>
<polygon fill="none" stroke="#000000" points="332.5,-813.7 332.5,-832.7 415.5,-832.7 415.5,-813.7 332.5,-813.7"/>
<text text-anchor="start" x="335.5" y="-819.8" font-family="Helvetica,sans-Serif" font-size="11.00" fill="#000000">&lt; 1</text>
<polygon fill="#ffffff" stroke="transparent" points="415.5,-813.7 415.5,-832.7 458.5,-832.7 458.5,-813.7 415.5,-813.7"/>
<polygon fill="none" stroke="#000000" points="415.5,-813.7 415.5,-832.7 458.5,-832.7 458.5,-813.7 415.5,-813.7"/>
<text text-anchor="start" x="449.3862" y="-819.8" font-family="Helvetica,sans-Serif" font-size="11.00" fill="#000000"> &#160;</text>
<polygon fill="#ffffff" stroke="transparent" points="458.5,-813.7 458.5,-832.7 501.5,-832.7 501.5,-813.7 458.5,-813.7"/>
<polygon fill="none" stroke="#000000" points="458.5,-813.7 458.5,-832.7 501.5,-832.7 501.5,-813.7 458.5,-813.7"/>
<text text-anchor="start" x="492.3862" y="-819.8" font-family="Helvetica,sans-Serif" font-size="11.00" fill="#000000"> &#160;</text>
</a>
</g>
</g>
<!-- investigation_audit&#45;&gt;audit_revision -->
<g id="edge7" class="edge">
<title>investigation_audit:w&#45;&gt;audit_revision:e</title>
<path fill="none" stroke="#000000" d="M317.8488,-842.0879C273.7672,-844.5874 258.0069,-859.1619 215,-885.7 193.8563,-898.7471 198.8452,-923.7 174,-923.7"/>
<polygon fill="#000000" stroke="#000000" points="324.5028,-841.9118 332.5953,-845.2987 328.5014,-841.8059 332.5,-841.7 332.5,-841.7 332.5,-841.7 328.5014,-841.8059 332.4047,-838.1013 324.5028,-841.9118 324.5028,-841.9118"/>
<ellipse fill="none" stroke="#000000" cx="321.3039" cy="-841.9965" rx="3.2" ry="3.2"/>
</g>
<!-- plan_audit -->
<g id="node9" class="node">
<title>plan_audit</title>
<g id="a_node9"><a xlink:href="../../tables/plan_audit.html" xlink:title="plan_audit" target="_top">
<polygon fill="#ffffff" stroke="transparent" points="362,-732.2 362,-793.2 471,-793.2 471,-732.2 362,-732.2"/>
<polygon fill="#f5f5f5" stroke="transparent" points="362.5,-769.7 362.5,-792.7 471.5,-792.7 471.5,-769.7 362.5,-769.7"/>
<polygon fill="none" stroke="#000000" points="362.5,-769.7 362.5,-792.7 471.5,-792.7 471.5,-769.7 362.5,-769.7"/>
<text text-anchor="start" x="367.5" y="-778.3" font-family="Helvetica,sans-Serif" font-weight="bold" font-size="11.00" fill="#000000">plan_audit</text>
<text text-anchor="start" x="437.0219" y="-777.8" font-family="Helvetica,sans-Serif" font-size="11.00" fill="#000000">[table]</text>
<polygon fill="none" stroke="#000000" points="362.5,-750.7 362.5,-769.7 471.5,-769.7 471.5,-750.7 362.5,-750.7"/>
<text text-anchor="start" x="365.5" y="-756.8" font-family="Helvetica,sans-Serif" font-size="11.00" fill="#000000">...</text>
<polygon fill="#ffffff" stroke="transparent" points="362.5,-731.7 362.5,-750.7 415.5,-750.7 415.5,-731.7 362.5,-731.7"/>
<polygon fill="none" stroke="#000000" points="362.5,-731.7 362.5,-750.7 415.5,-750.7 415.5,-731.7 362.5,-731.7"/>
<text text-anchor="start" x="365.5" y="-737.8" font-family="Helvetica,sans-Serif" font-size="11.00" fill="#000000">&lt; 1</text>
<polygon fill="#ffffff" stroke="transparent" points="415.5,-731.7 415.5,-750.7 443.5,-750.7 443.5,-731.7 415.5,-731.7"/>
<polygon fill="none" stroke="#000000" points="415.5,-731.7 415.5,-750.7 443.5,-750.7 443.5,-731.7 415.5,-731.7"/>
<text text-anchor="start" x="434.3862" y="-737.8" font-family="Helvetica,sans-Serif" font-size="11.00" fill="#000000"> &#160;</text>
<polygon fill="#ffffff" stroke="transparent" points="443.5,-731.7 443.5,-750.7 471.5,-750.7 471.5,-731.7 443.5,-731.7"/>
<polygon fill="none" stroke="#000000" points="443.5,-731.7 443.5,-750.7 471.5,-750.7 471.5,-731.7 443.5,-731.7"/>
<text text-anchor="start" x="462.3862" y="-737.8" font-family="Helvetica,sans-Serif" font-size="11.00" fill="#000000"> &#160;</text>
</a>
</g>
</g>
<!-- plan_audit&#45;&gt;audit_revision -->
<g id="edge8" class="edge">
<title>plan_audit:w&#45;&gt;audit_revision:e</title>
<path fill="none" stroke="#000000" d="M347.8827,-759.6658C289.5625,-759.4734 260.655,-759.8062 215,-803.7 174.3712,-842.7614 230.3604,-923.7 174,-923.7"/>
<polygon fill="#000000" stroke="#000000" points="354.5,-759.6812 362.4915,-763.3 358.5,-759.6906 362.5,-759.7 362.5,-759.7 362.5,-759.7 358.5,-759.6906 362.5085,-756.1 354.5,-759.6812 354.5,-759.6812"/>
<ellipse fill="none" stroke="#000000" cx="351.3" cy="-759.6737" rx="3.2" ry="3.2"/>
</g>
<!-- referral_audit -->
<g id="node10" class="node">
<title>referral_audit</title>
<g id="a_node10"><a xlink:href="../../tables/referral_audit.html" xlink:title="referral_audit" target="_top">
<polygon fill="#ffffff" stroke="transparent" points="351,-650.2 351,-711.2 482,-711.2 482,-650.2 351,-650.2"/>
<polygon fill="#f5f5f5" stroke="transparent" points="351.5,-687.7 351.5,-710.7 482.5,-710.7 482.5,-687.7 351.5,-687.7"/>
<polygon fill="none" stroke="#000000" points="351.5,-687.7 351.5,-710.7 482.5,-710.7 482.5,-687.7 351.5,-687.7"/>
<text text-anchor="start" x="356.5" y="-696.3" font-family="Helvetica,sans-Serif" font-weight="bold" font-size="11.00" fill="#000000">referral_audit</text>
<text text-anchor="start" x="448.0219" y="-695.8" font-family="Helvetica,sans-Serif" font-size="11.00" fill="#000000">[table]</text>
<polygon fill="none" stroke="#000000" points="351.5,-668.7 351.5,-687.7 482.5,-687.7 482.5,-668.7 351.5,-668.7"/>
<text text-anchor="start" x="354.5" y="-674.8" font-family="Helvetica,sans-Serif" font-size="11.00" fill="#000000">...</text>
<polygon fill="#ffffff" stroke="transparent" points="351.5,-649.7 351.5,-668.7 415.5,-668.7 415.5,-649.7 351.5,-649.7"/>
<polygon fill="none" stroke="#000000" points="351.5,-649.7 351.5,-668.7 415.5,-668.7 415.5,-649.7 351.5,-649.7"/>
<text text-anchor="start" x="354.5" y="-655.8" font-family="Helvetica,sans-Serif" font-size="11.00" fill="#000000">&lt; 1</text>
<polygon fill="#ffffff" stroke="transparent" points="415.5,-649.7 415.5,-668.7 448.5,-668.7 448.5,-649.7 415.5,-649.7"/>
<polygon fill="none" stroke="#000000" points="415.5,-649.7 415.5,-668.7 448.5,-668.7 448.5,-649.7 415.5,-649.7"/>
<text text-anchor="start" x="439.3862" y="-655.8" font-family="Helvetica,sans-Serif" font-size="11.00" fill="#000000"> &#160;</text>
<polygon fill="#ffffff" stroke="transparent" points="448.5,-649.7 448.5,-668.7 482.5,-668.7 482.5,-649.7 448.5,-649.7"/>
<polygon fill="none" stroke="#000000" points="448.5,-649.7 448.5,-668.7 482.5,-668.7 482.5,-649.7 448.5,-649.7"/>
<text text-anchor="start" x="473.3862" y="-655.8" font-family="Helvetica,sans-Serif" font-size="11.00" fill="#000000"> &#160;</text>
</a>
</g>
</g>
<!-- referral_audit&#45;&gt;audit_revision -->
<g id="edge9" class="edge">
<title>referral_audit:w&#45;&gt;audit_revision:e</title>
<path fill="none" stroke="#000000" d="M336.8077,-677.6604C282.8329,-677.4644 254.0857,-677.9904 215,-721.7 153.9358,-789.9881 265.6084,-923.7 174,-923.7"/>
<polygon fill="#000000" stroke="#000000" points="343.5,-677.6784 351.4903,-681.3 347.5,-677.6892 351.5,-677.7 351.5,-677.7 351.5,-677.7 347.5,-677.6892 351.5097,-674.1 343.5,-677.6784 343.5,-677.6784"/>
<ellipse fill="none" stroke="#000000" cx="340.3" cy="-677.6697" rx="3.2" ry="3.2"/>
</g>
<!-- review_audit -->
<g id="node11" class="node">
<title>review_audit</title>
<g id="a_node11"><a xlink:href="../../tables/review_audit.html" xlink:title="review_audit" target="_top">
<polygon fill="#ffffff" stroke="transparent" points="223,-120.7 223,-628.7 610,-628.7 610,-120.7 223,-120.7"/>
<polygon fill="#f5f5f5" stroke="transparent" points="225.5,-603.7 225.5,-626.7 608.5,-626.7 608.5,-603.7 225.5,-603.7"/>
<polygon fill="none" stroke="#000000" points="225.5,-603.7 225.5,-626.7 608.5,-626.7 608.5,-603.7 225.5,-603.7"/>
<text text-anchor="start" x="230.5" y="-612.3" font-family="Helvetica,sans-Serif" font-weight="bold" font-size="11.00" fill="#000000">review_audit</text>
<text text-anchor="start" x="573.5437" y="-611.8" font-family="Helvetica,sans-Serif" font-size="11.00" fill="#000000">[table]</text>
<polygon fill="none" stroke="#000000" points="225.5,-581.7 225.5,-603.7 492.5,-603.7 492.5,-581.7 225.5,-581.7"/>
<image xlink:href="../../images/primaryKeys.png" width="11px" height="12px" preserveAspectRatio="xMinYMin meet" x="230.5" y="-598.7"/>
<text text-anchor="start" x="245.5" y="-588.8" font-family="Helvetica,sans-Serif" font-size="11.00" fill="#000000">rev_id</text>
<polygon fill="none" stroke="#000000" points="492.5,-581.7 492.5,-603.7 608.5,-603.7 608.5,-581.7 492.5,-581.7"/>
<text text-anchor="start" x="495.5" y="-589.4" font-family="Helvetica,sans-Serif" font-size="11.00" fill="#000000">int8[19]</text>
<polygon fill="none" stroke="#000000" points="225.5,-559.7 225.5,-581.7 492.5,-581.7 492.5,-559.7 225.5,-559.7"/>
<text text-anchor="start" x="245.5" y="-566.8" font-family="Helvetica,sans-Serif" font-size="11.00" fill="#000000">rev_type</text>
<polygon fill="none" stroke="#000000" points="492.5,-559.7 492.5,-581.7 608.5,-581.7 608.5,-559.7 492.5,-559.7"/>
<text text-anchor="start" x="495.5" y="-567.4" font-family="Helvetica,sans-Serif" font-size="11.00" fill="#000000">int2[5]</text>
<polygon fill="none" stroke="#000000" points="225.5,-537.7 225.5,-559.7 492.5,-559.7 492.5,-537.7 225.5,-537.7"/>
<image xlink:href="../../images/primaryKeys.png" width="11px" height="12px" preserveAspectRatio="xMinYMin meet" x="230.5" y="-554.7"/>
<text text-anchor="start" x="245.5" y="-544.8" font-family="Helvetica,sans-Serif" font-size="11.00" fill="#000000">review_id</text>
<polygon fill="none" stroke="#000000" points="492.5,-537.7 492.5,-559.7 608.5,-559.7 608.5,-537.7 492.5,-537.7"/>
<text text-anchor="start" x="495.5" y="-545.4" font-family="Helvetica,sans-Serif" font-size="11.00" fill="#000000">uuid[2147483647]</text>
<polygon fill="none" stroke="#000000" points="225.5,-515.7 225.5,-537.7 492.5,-537.7 492.5,-515.7 225.5,-515.7"/>
<image xlink:href="../../images/foreignKeys.png" width="11px" height="12px" preserveAspectRatio="xMinYMin meet" x="230.5" y="-532.7"/>
<text text-anchor="start" x="245.5" y="-522.8" font-family="Helvetica,sans-Serif" font-size="11.00" fill="#000000">plan_id</text>
<polygon fill="none" stroke="#000000" points="492.5,-515.7 492.5,-537.7 608.5,-537.7 608.5,-515.7 492.5,-515.7"/>
<text text-anchor="start" x="495.5" y="-523.4" font-family="Helvetica,sans-Serif" font-size="11.00" fill="#000000">uuid[2147483647]</text>
<polygon fill="none" stroke="#000000" points="225.5,-493.7 225.5,-515.7 492.5,-515.7 492.5,-493.7 225.5,-493.7"/>
<text text-anchor="start" x="245.5" y="-500.8" font-family="Helvetica,sans-Serif" font-size="11.00" fill="#000000">review_sequence</text>
<polygon fill="none" stroke="#000000" points="492.5,-493.7 492.5,-515.7 608.5,-515.7 608.5,-493.7 492.5,-493.7"/>
<text text-anchor="start" x="495.5" y="-501.4" font-family="Helvetica,sans-Serif" font-size="11.00" fill="#000000">int4[10]</text>
<polygon fill="none" stroke="#000000" points="225.5,-471.7 225.5,-493.7 492.5,-493.7 492.5,-471.7 225.5,-471.7"/>
<text text-anchor="start" x="245.5" y="-478.8" font-family="Helvetica,sans-Serif" font-size="11.00" fill="#000000">review_date</text>
<polygon fill="none" stroke="#000000" points="492.5,-471.7 492.5,-493.7 608.5,-493.7 608.5,-471.7 492.5,-471.7"/>
<text text-anchor="start" x="495.5" y="-479.4" font-family="Helvetica,sans-Serif" font-size="11.00" fill="#000000">date[13]</text>
<polygon fill="none" stroke="#000000" points="225.5,-449.7 225.5,-471.7 492.5,-471.7 492.5,-449.7 225.5,-449.7"/>
<text text-anchor="start" x="245.5" y="-456.8" font-family="Helvetica,sans-Serif" font-size="11.00" fill="#000000">recorded_by</text>
<polygon fill="none" stroke="#000000" points="492.5,-449.7 492.5,-471.7 608.5,-471.7 608.5,-449.7 492.5,-449.7"/>
<text text-anchor="start" x="495.5" y="-457.4" font-family="Helvetica,sans-Serif" font-size="11.00" fill="#000000">varchar[64]</text>
<polygon fill="none" stroke="#000000" points="225.5,-427.7 225.5,-449.7 492.5,-449.7 492.5,-427.7 225.5,-427.7"/>
<text text-anchor="start" x="245.5" y="-434.8" font-family="Helvetica,sans-Serif" font-size="11.00" fill="#000000">recorded_by_display_name</text>
<polygon fill="none" stroke="#000000" points="492.5,-427.7 492.5,-449.7 608.5,-449.7 608.5,-427.7 492.5,-427.7"/>
<text text-anchor="start" x="495.5" y="-435.4" font-family="Helvetica,sans-Serif" font-size="11.00" fill="#000000">varchar[255]</text>
<polygon fill="none" stroke="#000000" points="225.5,-405.7 225.5,-427.7 492.5,-427.7 492.5,-405.7 225.5,-405.7"/>
<text text-anchor="start" x="245.5" y="-412.8" font-family="Helvetica,sans-Serif" font-size="11.00" fill="#000000">next_review_date</text>
<polygon fill="none" stroke="#000000" points="492.5,-405.7 492.5,-427.7 608.5,-427.7 608.5,-405.7 492.5,-405.7"/>
<text text-anchor="start" x="495.5" y="-413.4" font-family="Helvetica,sans-Serif" font-size="11.00" fill="#000000">date[13]</text>
<polygon fill="none" stroke="#000000" points="225.5,-383.7 225.5,-405.7 492.5,-405.7 492.5,-383.7 225.5,-383.7"/>
<text text-anchor="start" x="245.5" y="-390.8" font-family="Helvetica,sans-Serif" font-size="11.00" fill="#000000">csip_closed_date</text>
<polygon fill="none" stroke="#000000" points="492.5,-383.7 492.5,-405.7 608.5,-405.7 608.5,-383.7 492.5,-383.7"/>
<text text-anchor="start" x="495.5" y="-391.4" font-family="Helvetica,sans-Serif" font-size="11.00" fill="#000000">date[13]</text>
<polygon fill="none" stroke="#000000" points="225.5,-361.7 225.5,-383.7 492.5,-383.7 492.5,-361.7 225.5,-361.7"/>
<text text-anchor="start" x="245.5" y="-368.8" font-family="Helvetica,sans-Serif" font-size="11.00" fill="#000000">summary</text>
<polygon fill="none" stroke="#000000" points="492.5,-361.7 492.5,-383.7 608.5,-383.7 608.5,-361.7 492.5,-361.7"/>
<text text-anchor="start" x="495.5" y="-369.4" font-family="Helvetica,sans-Serif" font-size="11.00" fill="#000000">text[2147483647]</text>
<polygon fill="none" stroke="#000000" points="225.5,-339.7 225.5,-361.7 492.5,-361.7 492.5,-339.7 225.5,-339.7"/>
<text text-anchor="start" x="245.5" y="-346.8" font-family="Helvetica,sans-Serif" font-size="11.00" fill="#000000">actions</text>
<polygon fill="none" stroke="#000000" points="492.5,-339.7 492.5,-361.7 608.5,-361.7 608.5,-339.7 492.5,-339.7"/>
<text text-anchor="start" x="495.4769" y="-347.4" font-family="Helvetica,sans-Serif" font-size="11.00" fill="#000000">_varchar[2147483647]</text>
<polygon fill="none" stroke="#000000" points="225.5,-317.7 225.5,-339.7 492.5,-339.7 492.5,-317.7 225.5,-317.7"/>
<text text-anchor="start" x="245.5" y="-324.8" font-family="Helvetica,sans-Serif" font-size="11.00" fill="#000000">review_sequence_modified</text>
<polygon fill="none" stroke="#000000" points="492.5,-317.7 492.5,-339.7 608.5,-339.7 608.5,-317.7 492.5,-317.7"/>
<text text-anchor="start" x="495.5" y="-325.4" font-family="Helvetica,sans-Serif" font-size="11.00" fill="#000000">bool[1]</text>
<polygon fill="none" stroke="#000000" points="225.5,-295.7 225.5,-317.7 492.5,-317.7 492.5,-295.7 225.5,-295.7"/>
<text text-anchor="start" x="245.5" y="-302.8" font-family="Helvetica,sans-Serif" font-size="11.00" fill="#000000">review_date_modified</text>
<polygon fill="none" stroke="#000000" points="492.5,-295.7 492.5,-317.7 608.5,-317.7 608.5,-295.7 492.5,-295.7"/>
<text text-anchor="start" x="495.5" y="-303.4" font-family="Helvetica,sans-Serif" font-size="11.00" fill="#000000">bool[1]</text>
<polygon fill="none" stroke="#000000" points="225.5,-273.7 225.5,-295.7 492.5,-295.7 492.5,-273.7 225.5,-273.7"/>
<text text-anchor="start" x="245.5" y="-280.8" font-family="Helvetica,sans-Serif" font-size="11.00" fill="#000000">recorded_by_modified</text>
<polygon fill="none" stroke="#000000" points="492.5,-273.7 492.5,-295.7 608.5,-295.7 608.5,-273.7 492.5,-273.7"/>
<text text-anchor="start" x="495.5" y="-281.4" font-family="Helvetica,sans-Serif" font-size="11.00" fill="#000000">bool[1]</text>
<polygon fill="none" stroke="#000000" points="225.5,-251.7 225.5,-273.7 492.5,-273.7 492.5,-251.7 225.5,-251.7"/>
<text text-anchor="start" x="245.5" y="-258.8" font-family="Helvetica,sans-Serif" font-size="11.00" fill="#000000">recorded_by_display_name_modified</text>
<polygon fill="none" stroke="#000000" points="492.5,-251.7 492.5,-273.7 608.5,-273.7 608.5,-251.7 492.5,-251.7"/>
<text text-anchor="start" x="495.5" y="-259.4" font-family="Helvetica,sans-Serif" font-size="11.00" fill="#000000">bool[1]</text>
<polygon fill="none" stroke="#000000" points="225.5,-229.7 225.5,-251.7 492.5,-251.7 492.5,-229.7 225.5,-229.7"/>
<text text-anchor="start" x="245.5" y="-236.8" font-family="Helvetica,sans-Serif" font-size="11.00" fill="#000000">next_review_date_modified</text>
<polygon fill="none" stroke="#000000" points="492.5,-229.7 492.5,-251.7 608.5,-251.7 608.5,-229.7 492.5,-229.7"/>
<text text-anchor="start" x="495.5" y="-237.4" font-family="Helvetica,sans-Serif" font-size="11.00" fill="#000000">bool[1]</text>
<polygon fill="none" stroke="#000000" points="225.5,-207.7 225.5,-229.7 492.5,-229.7 492.5,-207.7 225.5,-207.7"/>
<text text-anchor="start" x="245.5" y="-214.8" font-family="Helvetica,sans-Serif" font-size="11.00" fill="#000000">csip_closed_date_modified</text>
<polygon fill="none" stroke="#000000" points="492.5,-207.7 492.5,-229.7 608.5,-229.7 608.5,-207.7 492.5,-207.7"/>
<text text-anchor="start" x="495.5" y="-215.4" font-family="Helvetica,sans-Serif" font-size="11.00" fill="#000000">bool[1]</text>
<polygon fill="none" stroke="#000000" points="225.5,-185.7 225.5,-207.7 492.5,-207.7 492.5,-185.7 225.5,-185.7"/>
<text text-anchor="start" x="245.5" y="-192.8" font-family="Helvetica,sans-Serif" font-size="11.00" fill="#000000">summary_modified</text>
<polygon fill="none" stroke="#000000" points="492.5,-185.7 492.5,-207.7 608.5,-207.7 608.5,-185.7 492.5,-185.7"/>
<text text-anchor="start" x="495.5" y="-193.4" font-family="Helvetica,sans-Serif" font-size="11.00" fill="#000000">bool[1]</text>
<polygon fill="none" stroke="#000000" points="225.5,-163.7 225.5,-185.7 492.5,-185.7 492.5,-163.7 225.5,-163.7"/>
<text text-anchor="start" x="245.5" y="-170.8" font-family="Helvetica,sans-Serif" font-size="11.00" fill="#000000">actions_modified</text>
<polygon fill="none" stroke="#000000" points="492.5,-163.7 492.5,-185.7 608.5,-185.7 608.5,-163.7 492.5,-163.7"/>
<text text-anchor="start" x="495.5" y="-171.4" font-family="Helvetica,sans-Serif" font-size="11.00" fill="#000000">bool[1]</text>
<polygon fill="none" stroke="#000000" points="225.5,-141.7 225.5,-163.7 492.5,-163.7 492.5,-141.7 225.5,-141.7"/>
<image xlink:href="../../images/foreignKeys.png" width="11px" height="12px" preserveAspectRatio="xMinYMin meet" x="230.5" y="-158.7"/>
<text text-anchor="start" x="245.5" y="-148.8" font-family="Helvetica,sans-Serif" font-size="11.00" fill="#000000">legacy_id</text>
<polygon fill="none" stroke="#000000" points="492.5,-141.7 492.5,-163.7 608.5,-163.7 608.5,-141.7 492.5,-141.7"/>
<text text-anchor="start" x="495.5" y="-149.4" font-family="Helvetica,sans-Serif" font-size="11.00" fill="#000000">int8[19]</text>
<polygon fill="#ffffff" stroke="transparent" points="225.5,-122.7 225.5,-141.7 363.5,-141.7 363.5,-122.7 225.5,-122.7"/>
<polygon fill="none" stroke="#000000" points="225.5,-122.7 225.5,-141.7 363.5,-141.7 363.5,-122.7 225.5,-122.7"/>
<text text-anchor="start" x="228.5" y="-128.8" font-family="Helvetica,sans-Serif" font-size="11.00" fill="#000000">&lt; 1</text>
<polygon fill="#ffffff" stroke="transparent" points="363.5,-122.7 363.5,-141.7 492.5,-141.7 492.5,-122.7 363.5,-122.7"/>
<polygon fill="none" stroke="#000000" points="363.5,-122.7 363.5,-141.7 492.5,-141.7 492.5,-122.7 363.5,-122.7"/>
<text text-anchor="start" x="483.3862" y="-128.8" font-family="Helvetica,sans-Serif" font-size="11.00" fill="#000000"> &#160;</text>
<polygon fill="#ffffff" stroke="transparent" points="492.5,-122.7 492.5,-141.7 608.5,-141.7 608.5,-122.7 492.5,-122.7"/>
<polygon fill="none" stroke="#000000" points="492.5,-122.7 492.5,-141.7 608.5,-141.7 608.5,-122.7 492.5,-122.7"/>
<text text-anchor="start" x="589.9053" y="-128.8" font-family="Helvetica,sans-Serif" font-size="11.00" fill="#000000">0 &gt;</text>
<polygon fill="none" stroke="#000000" stroke-width="2" points="224,-121.7 224,-627.7 609,-627.7 609,-121.7 224,-121.7"/>
</a>
</g>
</g>
<!-- review_audit&#45;&gt;audit_revision -->
<g id="edge10" class="edge">
<title>review_audit:w&#45;&gt;audit_revision:e</title>
<path fill="none" stroke="#000000" d="M211.9238,-597.6359C164.2368,-638.8113 243.0611,-923.7 174,-923.7"/>
<polygon fill="#000000" stroke="#000000" points="217.9815,-595.4335 226.7301,-596.0833 221.7407,-594.0668 225.5,-592.7 225.5,-592.7 225.5,-592.7 221.7407,-594.0668 224.2699,-589.3167 217.9815,-595.4335 217.9815,-595.4335"/>
<ellipse fill="none" stroke="#000000" cx="214.9741" cy="-596.527" rx="3.2" ry="3.2"/>
</g>
<!-- safer_custody_screening_outcome_audit -->
<g id="node12" class="node">
<title>safer_custody_screening_outcome_audit</title>
<g id="a_node12"><a xlink:href="../../tables/safer_custody_screening_outcome_audit.html" xlink:title="safer_custody_screening_outcome_audit" target="_top">
<polygon fill="#ffffff" stroke="transparent" points="261.5,-38.2 261.5,-99.2 571.5,-99.2 571.5,-38.2 261.5,-38.2"/>
<polygon fill="#f5f5f5" stroke="transparent" points="261.5,-75.7 261.5,-98.7 571.5,-98.7 571.5,-75.7 261.5,-75.7"/>
<polygon fill="none" stroke="#000000" points="261.5,-75.7 261.5,-98.7 571.5,-98.7 571.5,-75.7 261.5,-75.7"/>
<text text-anchor="start" x="266.5" y="-84.3" font-family="Helvetica,sans-Serif" font-weight="bold" font-size="11.00" fill="#000000">safer_custody_screening_outcome_audit</text>
<text text-anchor="start" x="537.0219" y="-83.8" font-family="Helvetica,sans-Serif" font-size="11.00" fill="#000000">[table]</text>
<polygon fill="none" stroke="#000000" points="261.5,-56.7 261.5,-75.7 571.5,-75.7 571.5,-56.7 261.5,-56.7"/>
<text text-anchor="start" x="264.5" y="-62.8" font-family="Helvetica,sans-Serif" font-size="11.00" fill="#000000">...</text>
<polygon fill="#ffffff" stroke="transparent" points="261.5,-37.7 261.5,-56.7 414.5,-56.7 414.5,-37.7 261.5,-37.7"/>
<polygon fill="none" stroke="#000000" points="261.5,-37.7 261.5,-56.7 414.5,-56.7 414.5,-37.7 261.5,-37.7"/>
<text text-anchor="start" x="264.5" y="-43.8" font-family="Helvetica,sans-Serif" font-size="11.00" fill="#000000">&lt; 1</text>
<polygon fill="#ffffff" stroke="transparent" points="414.5,-37.7 414.5,-56.7 492.5,-56.7 492.5,-37.7 414.5,-37.7"/>
<polygon fill="none" stroke="#000000" points="414.5,-37.7 414.5,-56.7 492.5,-56.7 492.5,-37.7 414.5,-37.7"/>
<text text-anchor="start" x="483.3862" y="-43.8" font-family="Helvetica,sans-Serif" font-size="11.00" fill="#000000"> &#160;</text>
<polygon fill="#ffffff" stroke="transparent" points="492.5,-37.7 492.5,-56.7 571.5,-56.7 571.5,-37.7 492.5,-37.7"/>
<polygon fill="none" stroke="#000000" points="492.5,-37.7 492.5,-56.7 571.5,-56.7 571.5,-37.7 492.5,-37.7"/>
<text text-anchor="start" x="562.3862" y="-43.8" font-family="Helvetica,sans-Serif" font-size="11.00" fill="#000000"> &#160;</text>
</a>
</g>
</g>
<!-- safer_custody_screening_outcome_audit&#45;&gt;audit_revision -->
<g id="edge11" class="edge">
<title>safer_custody_screening_outcome_audit:w&#45;&gt;audit_revision:e</title>
<path fill="none" stroke="#000000" d="M247.0545,-67.7676C230.2237,-73.3298 224.5651,-89.6267 215,-110.7 196.3083,-151.8805 219.2241,-923.7 174,-923.7"/>
<polygon fill="#000000" stroke="#000000" points="253.5807,-66.8336 262.0101,-69.2637 257.5404,-66.2668 261.5,-65.7 261.5,-65.7 261.5,-65.7 257.5404,-66.2668 260.9899,-62.1363 253.5807,-66.8336 253.5807,-66.8336"/>
<ellipse fill="none" stroke="#000000" cx="250.413" cy="-67.287" rx="3.2" ry="3.2"/>
</g>
</g>
</svg>
