<?xml version="1.0" encoding="UTF-8" standalone="no"?>
<!DOCTYPE svg PUBLIC "-//W3C//DTD SVG 1.1//EN"
 "http://www.w3.org/Graphics/SVG/1.1/DTD/svg11.dtd">
<!-- Generated by graphviz version 2.40.1 (20161225.0304)
 -->
<!-- Title: oneDegreeRelationshipsDiagramImplied Pages: 1 -->
<svg width="785pt" height="487pt"
 viewBox="0.00 0.00 785.00 486.70" xmlns="http://www.w3.org/2000/svg" xmlns:xlink="http://www.w3.org/1999/xlink">
<g id="graph0" class="graph" transform="scale(1 1) rotate(0) translate(4 482.7)">
<title>oneDegreeRelationshipsDiagramImplied</title>
<polygon fill="#ffffff" stroke="transparent" points="-4,4 -4,-482.7 781,-482.7 781,4 -4,4"/>
<text text-anchor="middle" x="72.4936" y="-7.3" font-family="Helvetica,sans-Serif" font-size="11.00" fill="#000000">Generated by SchemaSpy</text>
<!-- attendee -->
<g id="node1" class="node">
<title>attendee</title>
<g id="a_node1"><a xlink:href="../../tables/attendee.html" xlink:title="attendee" target="_top">
<polygon fill="#ffffff" stroke="transparent" points="632.5,-288.2 632.5,-415.2 736.5,-415.2 736.5,-288.2 632.5,-288.2"/>
<polygon fill="#f5f5f5" stroke="transparent" points="632.5,-391.7 632.5,-414.7 736.5,-414.7 736.5,-391.7 632.5,-391.7"/>
<polygon fill="none" stroke="#000000" points="632.5,-391.7 632.5,-414.7 736.5,-414.7 736.5,-391.7 632.5,-391.7"/>
<text text-anchor="start" x="637.5" y="-400.3" font-family="Helvetica,sans-Serif" font-weight="bold" font-size="11.00" fill="#000000">attendee</text>
<text text-anchor="start" x="701.5437" y="-399.8" font-family="Helvetica,sans-Serif" font-size="11.00" fill="#000000">[table]</text>
<polygon fill="none" stroke="#000000" points="632.5,-369.7 632.5,-391.7 736.5,-391.7 736.5,-369.7 632.5,-369.7"/>
<image xlink:href="../../images/primaryKeys.png" width="11px" height="12px" preserveAspectRatio="xMinYMin meet" x="637.5" y="-386.7"/>
<text text-anchor="start" x="652.5" y="-376.8" font-family="Helvetica,sans-Serif" font-size="11.00" fill="#000000">attendee_id</text>
<polygon fill="#ffffff" stroke="transparent" points="632.5,-347.7 632.5,-369.7 736.5,-369.7 736.5,-347.7 632.5,-347.7"/>
<polygon fill="none" stroke="#000000" points="632.5,-347.7 632.5,-369.7 736.5,-369.7 736.5,-347.7 632.5,-347.7"/>
<image xlink:href="../../images/foreignKeys.png" width="11px" height="12px" preserveAspectRatio="xMinYMin meet" x="637.5" y="-364.7"/>
<text text-anchor="start" x="652.5" y="-354.8" font-family="Helvetica,sans-Serif" font-size="11.00" fill="#000000">review_id</text>
<polygon fill="#ffffff" stroke="transparent" points="632.5,-325.7 632.5,-347.7 736.5,-347.7 736.5,-325.7 632.5,-325.7"/>
<polygon fill="none" stroke="#000000" points="632.5,-325.7 632.5,-347.7 736.5,-347.7 736.5,-325.7 632.5,-325.7"/>
<image xlink:href="../../images/foreignKeys.png" width="11px" height="12px" preserveAspectRatio="xMinYMin meet" x="637.5" y="-342.7"/>
<text text-anchor="start" x="652.5" y="-332.8" font-family="Helvetica,sans-Serif" font-size="11.00" fill="#000000">legacy_id</text>
<polygon fill="none" stroke="#000000" points="632.5,-306.7 632.5,-325.7 736.5,-325.7 736.5,-306.7 632.5,-306.7"/>
<text text-anchor="start" x="635.5" y="-312.8" font-family="Helvetica,sans-Serif" font-size="11.00" fill="#000000">...</text>
<polygon fill="#ffffff" stroke="transparent" points="632.5,-287.7 632.5,-306.7 682.5,-306.7 682.5,-287.7 632.5,-287.7"/>
<polygon fill="none" stroke="#000000" points="632.5,-287.7 632.5,-306.7 682.5,-306.7 682.5,-287.7 632.5,-287.7"/>
<text text-anchor="start" x="635.5" y="-293.8" font-family="Helvetica,sans-Serif" font-size="11.00" fill="#000000">&lt; 2</text>
<polygon fill="#ffffff" stroke="transparent" points="682.5,-287.7 682.5,-306.7 709.5,-306.7 709.5,-287.7 682.5,-287.7"/>
<polygon fill="none" stroke="#000000" points="682.5,-287.7 682.5,-306.7 709.5,-306.7 709.5,-287.7 682.5,-287.7"/>
<text text-anchor="start" x="700.3862" y="-293.8" font-family="Helvetica,sans-Serif" font-size="11.00" fill="#000000"> &#160;</text>
<polygon fill="#ffffff" stroke="transparent" points="709.5,-287.7 709.5,-306.7 736.5,-306.7 736.5,-287.7 709.5,-287.7"/>
<polygon fill="none" stroke="#000000" points="709.5,-287.7 709.5,-306.7 736.5,-306.7 736.5,-287.7 709.5,-287.7"/>
<text text-anchor="start" x="727.3862" y="-293.8" font-family="Helvetica,sans-Serif" font-size="11.00" fill="#000000"> &#160;</text>
</a>
</g>
</g>
<!-- audit_revision -->
<g id="node2" class="node">
<title>audit_revision</title>
<g id="a_node2"><a xlink:href="../../tables/audit_revision.html" xlink:title="audit_revision" target="_top">
<polygon fill="#ffffff" stroke="transparent" points="11.5,-79.2 11.5,-162.2 177.5,-162.2 177.5,-79.2 11.5,-79.2"/>
<polygon fill="#f5f5f5" stroke="transparent" points="11.5,-138.7 11.5,-161.7 177.5,-161.7 177.5,-138.7 11.5,-138.7"/>
<polygon fill="none" stroke="#000000" points="11.5,-138.7 11.5,-161.7 177.5,-161.7 177.5,-138.7 11.5,-138.7"/>
<text text-anchor="start" x="16.5" y="-147.3" font-family="Helvetica,sans-Serif" font-weight="bold" font-size="11.00" fill="#000000">audit_revision</text>
<text text-anchor="start" x="142.5437" y="-146.8" font-family="Helvetica,sans-Serif" font-size="11.00" fill="#000000">[table]</text>
<polygon fill="none" stroke="#000000" points="11.5,-116.7 11.5,-138.7 177.5,-138.7 177.5,-116.7 11.5,-116.7"/>
<image xlink:href="../../images/primaryKeys.png" width="11px" height="12px" preserveAspectRatio="xMinYMin meet" x="16.5" y="-133.7"/>
<text text-anchor="start" x="31.5" y="-123.8" font-family="Helvetica,sans-Serif" font-size="11.00" fill="#000000">id</text>
<polygon fill="none" stroke="#000000" points="11.5,-97.7 11.5,-116.7 177.5,-116.7 177.5,-97.7 11.5,-97.7"/>
<text text-anchor="start" x="14.5" y="-103.8" font-family="Helvetica,sans-Serif" font-size="11.00" fill="#000000">...</text>
<polygon fill="#ffffff" stroke="transparent" points="11.5,-78.7 11.5,-97.7 80.5,-97.7 80.5,-78.7 11.5,-78.7"/>
<polygon fill="none" stroke="#000000" points="11.5,-78.7 11.5,-97.7 80.5,-97.7 80.5,-78.7 11.5,-78.7"/>
<text text-anchor="start" x="14.5" y="-84.8" font-family="Helvetica,sans-Serif" font-size="11.00" fill="#000000"> &#160;</text>
<polygon fill="#ffffff" stroke="transparent" points="80.5,-78.7 80.5,-97.7 121.5,-97.7 121.5,-78.7 80.5,-78.7"/>
<polygon fill="none" stroke="#000000" points="80.5,-78.7 80.5,-97.7 121.5,-97.7 121.5,-78.7 80.5,-78.7"/>
<text text-anchor="start" x="112.3862" y="-84.8" font-family="Helvetica,sans-Serif" font-size="11.00" fill="#000000"> &#160;</text>
<polygon fill="#ffffff" stroke="transparent" points="121.5,-78.7 121.5,-97.7 177.5,-97.7 177.5,-78.7 121.5,-78.7"/>
<polygon fill="none" stroke="#000000" points="121.5,-78.7 121.5,-97.7 177.5,-97.7 177.5,-78.7 121.5,-78.7"/>
<text text-anchor="start" x="152.7904" y="-84.8" font-family="Helvetica,sans-Serif" font-size="11.00" fill="#000000">33 &gt;</text>
</a>
</g>
</g>
<!-- attendee&#45;&gt;audit_revision -->
<g id="edge1" class="edge">
<title>attendee:w&#45;&gt;audit_revision:e</title>
<path fill="none" stroke="#000000" stroke-dasharray="5,2" d="M621.7524,-335.9279C552.5241,-325.1186 626.3806,-203.7062 559,-154.7 550.4083,-148.4512 188.1237,-127.7 177.5,-127.7"/>
<polygon fill="#000000" stroke="#000000" points="631.9887,-332.6529 631.4154,-340.6324 629.8195,-340.5177 630.3928,-332.5383 631.9887,-332.6529"/>
<polyline fill="none" stroke="#000000" points="632.5,-336.7 628.5103,-336.4133 "/>
<ellipse fill="none" stroke="#000000" cx="625.3185" cy="-336.184" rx="3.2" ry="3.2"/>
</g>
<!-- review -->
<g id="node3" class="node">
<title>review</title>
<g id="a_node3"><a xlink:href="../../tables/review.html" xlink:title="review" target="_top">
<polygon fill="#ffffff" stroke="transparent" points="230,-164.7 230,-474.7 551,-474.7 551,-164.7 230,-164.7"/>
<polygon fill="#f5f5f5" stroke="transparent" points="232.5,-449.7 232.5,-472.7 549.5,-472.7 549.5,-449.7 232.5,-449.7"/>
<polygon fill="none" stroke="#000000" points="232.5,-449.7 232.5,-472.7 549.5,-472.7 549.5,-449.7 232.5,-449.7"/>
<text text-anchor="start" x="237.5" y="-458.3" font-family="Helvetica,sans-Serif" font-weight="bold" font-size="11.00" fill="#000000">review</text>
<text text-anchor="start" x="514.5437" y="-457.8" font-family="Helvetica,sans-Serif" font-size="11.00" fill="#000000">[table]</text>
<polygon fill="none" stroke="#000000" points="232.5,-427.7 232.5,-449.7 433.5,-449.7 433.5,-427.7 232.5,-427.7"/>
<image xlink:href="../../images/primaryKeys.png" width="11px" height="12px" preserveAspectRatio="xMinYMin meet" x="237.5" y="-444.7"/>
<text text-anchor="start" x="252.5" y="-434.8" font-family="Helvetica,sans-Serif" font-size="11.00" fill="#000000">review_id</text>
<polygon fill="none" stroke="#000000" points="433.5,-427.7 433.5,-449.7 549.5,-449.7 549.5,-427.7 433.5,-427.7"/>
<text text-anchor="start" x="436.5" y="-435.4" font-family="Helvetica,sans-Serif" font-size="11.00" fill="#000000">uuid[2147483647]</text>
<polygon fill="#ffffff" stroke="transparent" points="232.5,-405.7 232.5,-427.7 433.5,-427.7 433.5,-405.7 232.5,-405.7"/>
<polygon fill="none" stroke="#000000" points="232.5,-405.7 232.5,-427.7 433.5,-427.7 433.5,-405.7 232.5,-405.7"/>
<image xlink:href="../../images/foreignKeys.png" width="11px" height="12px" preserveAspectRatio="xMinYMin meet" x="237.5" y="-422.7"/>
<text text-anchor="start" x="252.5" y="-412.8" font-family="Helvetica,sans-Serif" font-size="11.00" fill="#000000">plan_id</text>
<polygon fill="none" stroke="#000000" points="433.5,-405.7 433.5,-427.7 549.5,-427.7 549.5,-405.7 433.5,-405.7"/>
<text text-anchor="start" x="436.5" y="-413.4" font-family="Helvetica,sans-Serif" font-size="11.00" fill="#000000">uuid[2147483647]</text>
<polygon fill="#ffffff" stroke="transparent" points="232.5,-383.7 232.5,-405.7 433.5,-405.7 433.5,-383.7 232.5,-383.7"/>
<polygon fill="none" stroke="#000000" points="232.5,-383.7 232.5,-405.7 433.5,-405.7 433.5,-383.7 232.5,-383.7"/>
<text text-anchor="start" x="252.5" y="-390.8" font-family="Helvetica,sans-Serif" font-size="11.00" fill="#000000">review_sequence</text>
<polygon fill="none" stroke="#000000" points="433.5,-383.7 433.5,-405.7 549.5,-405.7 549.5,-383.7 433.5,-383.7"/>
<text text-anchor="start" x="436.5" y="-391.4" font-family="Helvetica,sans-Serif" font-size="11.00" fill="#000000">int4[10]</text>
<polygon fill="none" stroke="#000000" points="232.5,-361.7 232.5,-383.7 433.5,-383.7 433.5,-361.7 232.5,-361.7"/>
<text text-anchor="start" x="252.5" y="-368.8" font-family="Helvetica,sans-Serif" font-size="11.00" fill="#000000">review_date</text>
<polygon fill="none" stroke="#000000" points="433.5,-361.7 433.5,-383.7 549.5,-383.7 549.5,-361.7 433.5,-361.7"/>
<text text-anchor="start" x="436.5" y="-369.4" font-family="Helvetica,sans-Serif" font-size="11.00" fill="#000000">date[13]</text>
<polygon fill="none" stroke="#000000" points="232.5,-339.7 232.5,-361.7 433.5,-361.7 433.5,-339.7 232.5,-339.7"/>
<text text-anchor="start" x="252.5" y="-346.8" font-family="Helvetica,sans-Serif" font-size="11.00" fill="#000000">recorded_by</text>
<polygon fill="none" stroke="#000000" points="433.5,-339.7 433.5,-361.7 549.5,-361.7 549.5,-339.7 433.5,-339.7"/>
<text text-anchor="start" x="436.5" y="-347.4" font-family="Helvetica,sans-Serif" font-size="11.00" fill="#000000">varchar[64]</text>
<polygon fill="none" stroke="#000000" points="232.5,-317.7 232.5,-339.7 433.5,-339.7 433.5,-317.7 232.5,-317.7"/>
<text text-anchor="start" x="252.5" y="-324.8" font-family="Helvetica,sans-Serif" font-size="11.00" fill="#000000">recorded_by_display_name</text>
<polygon fill="none" stroke="#000000" points="433.5,-317.7 433.5,-339.7 549.5,-339.7 549.5,-317.7 433.5,-317.7"/>
<text text-anchor="start" x="436.5" y="-325.4" font-family="Helvetica,sans-Serif" font-size="11.00" fill="#000000">varchar[255]</text>
<polygon fill="none" stroke="#000000" points="232.5,-295.7 232.5,-317.7 433.5,-317.7 433.5,-295.7 232.5,-295.7"/>
<text text-anchor="start" x="252.5" y="-302.8" font-family="Helvetica,sans-Serif" font-size="11.00" fill="#000000">next_review_date</text>
<polygon fill="none" stroke="#000000" points="433.5,-295.7 433.5,-317.7 549.5,-317.7 549.5,-295.7 433.5,-295.7"/>
<text text-anchor="start" x="436.5" y="-303.4" font-family="Helvetica,sans-Serif" font-size="11.00" fill="#000000">date[13]</text>
<polygon fill="none" stroke="#000000" points="232.5,-273.7 232.5,-295.7 433.5,-295.7 433.5,-273.7 232.5,-273.7"/>
<text text-anchor="start" x="252.5" y="-280.8" font-family="Helvetica,sans-Serif" font-size="11.00" fill="#000000">actions</text>
<polygon fill="none" stroke="#000000" points="433.5,-273.7 433.5,-295.7 549.5,-295.7 549.5,-273.7 433.5,-273.7"/>
<text text-anchor="start" x="436.4769" y="-281.4" font-family="Helvetica,sans-Serif" font-size="11.00" fill="#000000">_varchar[2147483647]</text>
<polygon fill="none" stroke="#000000" points="232.5,-251.7 232.5,-273.7 433.5,-273.7 433.5,-251.7 232.5,-251.7"/>
<text text-anchor="start" x="252.5" y="-258.8" font-family="Helvetica,sans-Serif" font-size="11.00" fill="#000000">csip_closed_date</text>
<polygon fill="none" stroke="#000000" points="433.5,-251.7 433.5,-273.7 549.5,-273.7 549.5,-251.7 433.5,-251.7"/>
<text text-anchor="start" x="436.5" y="-259.4" font-family="Helvetica,sans-Serif" font-size="11.00" fill="#000000">date[13]</text>
<polygon fill="none" stroke="#000000" points="232.5,-229.7 232.5,-251.7 433.5,-251.7 433.5,-229.7 232.5,-229.7"/>
<text text-anchor="start" x="252.5" y="-236.8" font-family="Helvetica,sans-Serif" font-size="11.00" fill="#000000">summary</text>
<polygon fill="none" stroke="#000000" points="433.5,-229.7 433.5,-251.7 549.5,-251.7 549.5,-229.7 433.5,-229.7"/>
<text text-anchor="start" x="436.5" y="-237.4" font-family="Helvetica,sans-Serif" font-size="11.00" fill="#000000">text[2147483647]</text>
<polygon fill="none" stroke="#000000" points="232.5,-207.7 232.5,-229.7 433.5,-229.7 433.5,-207.7 232.5,-207.7"/>
<text text-anchor="start" x="252.5" y="-214.8" font-family="Helvetica,sans-Serif" font-size="11.00" fill="#000000">version</text>
<polygon fill="none" stroke="#000000" points="433.5,-207.7 433.5,-229.7 549.5,-229.7 549.5,-207.7 433.5,-207.7"/>
<text text-anchor="start" x="436.5" y="-215.4" font-family="Helvetica,sans-Serif" font-size="11.00" fill="#000000">int4[10]</text>
<polygon fill="#ffffff" stroke="transparent" points="232.5,-185.7 232.5,-207.7 433.5,-207.7 433.5,-185.7 232.5,-185.7"/>
<polygon fill="none" stroke="#000000" points="232.5,-185.7 232.5,-207.7 433.5,-207.7 433.5,-185.7 232.5,-185.7"/>
<image xlink:href="../../images/foreignKeys.png" width="11px" height="12px" preserveAspectRatio="xMinYMin meet" x="237.5" y="-202.7"/>
<text text-anchor="start" x="252.5" y="-192.8" font-family="Helvetica,sans-Serif" font-size="11.00" fill="#000000">legacy_id</text>
<polygon fill="none" stroke="#000000" points="433.5,-185.7 433.5,-207.7 549.5,-207.7 549.5,-185.7 433.5,-185.7"/>
<text text-anchor="start" x="436.5" y="-193.4" font-family="Helvetica,sans-Serif" font-size="11.00" fill="#000000">int8[19]</text>
<polygon fill="#ffffff" stroke="transparent" points="232.5,-166.7 232.5,-185.7 337.5,-185.7 337.5,-166.7 232.5,-166.7"/>
<polygon fill="none" stroke="#000000" points="232.5,-166.7 232.5,-185.7 337.5,-185.7 337.5,-166.7 232.5,-166.7"/>
<text text-anchor="start" x="235.5" y="-172.8" font-family="Helvetica,sans-Serif" font-size="11.00" fill="#000000">&lt; 2</text>
<polygon fill="#ffffff" stroke="transparent" points="337.5,-166.7 337.5,-185.7 433.5,-185.7 433.5,-166.7 337.5,-166.7"/>
<polygon fill="none" stroke="#000000" points="337.5,-166.7 337.5,-185.7 433.5,-185.7 433.5,-166.7 337.5,-166.7"/>
<text text-anchor="start" x="424.3862" y="-172.8" font-family="Helvetica,sans-Serif" font-size="11.00" fill="#000000"> &#160;</text>
<polygon fill="#ffffff" stroke="transparent" points="433.5,-166.7 433.5,-185.7 549.5,-185.7 549.5,-166.7 433.5,-166.7"/>
<polygon fill="none" stroke="#000000" points="433.5,-166.7 433.5,-185.7 549.5,-185.7 549.5,-166.7 433.5,-166.7"/>
<text text-anchor="start" x="530.9053" y="-172.8" font-family="Helvetica,sans-Serif" font-size="11.00" fill="#000000">2 &gt;</text>
<polygon fill="none" stroke="#000000" stroke-width="2" points="231,-165.7 231,-473.7 550,-473.7 550,-165.7 231,-165.7"/>
</a>
</g>
</g>
<!-- attendee&#45;&gt;review -->
<g id="edge2" class="edge">
<title>attendee:w&#45;&gt;review:e</title>
<path fill="none" stroke="#000000" d="M618.0411,-361.3617C584.6784,-375.243 595.1308,-438.7 549.5,-438.7"/>
<polygon fill="#000000" stroke="#000000" points="624.6322,-360.1484 633.1518,-362.2405 628.5661,-359.4242 632.5,-358.7 632.5,-358.7 632.5,-358.7 628.5661,-359.4242 631.8482,-355.1595 624.6322,-360.1484 624.6322,-360.1484"/>
<ellipse fill="none" stroke="#000000" cx="621.4851" cy="-360.7278" rx="3.2" ry="3.2"/>
</g>
<!-- review&#45;&gt;audit_revision -->
<g id="edge6" class="edge">
<title>review:w&#45;&gt;audit_revision:e</title>
<path fill="none" stroke="#000000" stroke-dasharray="5,2" d="M222.0352,-194.5593C197.5292,-182.9128 212.5809,-127.7 177.5,-127.7"/>
<polygon fill="#000000" stroke="#000000" points="232.5179,-192.6208 230.9146,-200.4585 229.347,-200.1378 230.9504,-192.3001 232.5179,-192.6208"/>
<polyline fill="none" stroke="#000000" points="232.5,-196.7 228.5812,-195.8983 "/>
<ellipse fill="none" stroke="#000000" cx="225.4461" cy="-195.257" rx="3.2" ry="3.2"/>
</g>
<!-- plan -->
<g id="node5" class="node">
<title>plan</title>
<g id="a_node5"><a xlink:href="../../tables/plan.html" xlink:title="plan" target="_top">
<polygon fill="#ffffff" stroke="transparent" points="8,-368.2 8,-451.2 181,-451.2 181,-368.2 8,-368.2"/>
<polygon fill="#f5f5f5" stroke="transparent" points="8.5,-427.7 8.5,-450.7 181.5,-450.7 181.5,-427.7 8.5,-427.7"/>
<polygon fill="none" stroke="#000000" points="8.5,-427.7 8.5,-450.7 181.5,-450.7 181.5,-427.7 8.5,-427.7"/>
<text text-anchor="start" x="13.5" y="-436.3" font-family="Helvetica,sans-Serif" font-weight="bold" font-size="11.00" fill="#000000">plan</text>
<text text-anchor="start" x="146.5437" y="-435.8" font-family="Helvetica,sans-Serif" font-size="11.00" fill="#000000">[table]</text>
<polygon fill="none" stroke="#000000" points="8.5,-405.7 8.5,-427.7 181.5,-427.7 181.5,-405.7 8.5,-405.7"/>
<image xlink:href="../../images/primaryKeys.png" width="11px" height="12px" preserveAspectRatio="xMinYMin meet" x="13.5" y="-422.7"/>
<text text-anchor="start" x="28.5" y="-412.8" font-family="Helvetica,sans-Serif" font-size="11.00" fill="#000000">plan_id</text>
<polygon fill="none" stroke="#000000" points="8.5,-386.7 8.5,-405.7 181.5,-405.7 181.5,-386.7 8.5,-386.7"/>
<text text-anchor="start" x="11.5" y="-392.8" font-family="Helvetica,sans-Serif" font-size="11.00" fill="#000000">...</text>
<polygon fill="#ffffff" stroke="transparent" points="8.5,-367.7 8.5,-386.7 88.5,-386.7 88.5,-367.7 8.5,-367.7"/>
<polygon fill="none" stroke="#000000" points="8.5,-367.7 8.5,-386.7 88.5,-386.7 88.5,-367.7 8.5,-367.7"/>
<text text-anchor="start" x="11.5" y="-373.8" font-family="Helvetica,sans-Serif" font-size="11.00" fill="#000000">&lt; 1</text>
<polygon fill="#ffffff" stroke="transparent" points="88.5,-367.7 88.5,-386.7 130.5,-386.7 130.5,-367.7 88.5,-367.7"/>
<polygon fill="none" stroke="#000000" points="88.5,-367.7 88.5,-386.7 130.5,-386.7 130.5,-367.7 88.5,-367.7"/>
<text text-anchor="start" x="121.3862" y="-373.8" font-family="Helvetica,sans-Serif" font-size="11.00" fill="#000000"> &#160;</text>
<polygon fill="#ffffff" stroke="transparent" points="130.5,-367.7 130.5,-386.7 181.5,-386.7 181.5,-367.7 130.5,-367.7"/>
<polygon fill="none" stroke="#000000" points="130.5,-367.7 130.5,-386.7 181.5,-386.7 181.5,-367.7 130.5,-367.7"/>
<text text-anchor="start" x="162.9053" y="-373.8" font-family="Helvetica,sans-Serif" font-size="11.00" fill="#000000">2 &gt;</text>
</a>
</g>
</g>
<!-- review&#45;&gt;plan -->
<g id="edge7" class="edge">
<title>review:w&#45;&gt;plan:e</title>
<path fill="none" stroke="#000000" d="M217.776,-416.7C205.7815,-416.7 198.3229,-416.7 181.5,-416.7"/>
<polygon fill="#000000" stroke="#000000" points="224.5,-416.7001 232.5,-420.3 228.5,-416.7 232.5,-416.7 232.5,-416.7 232.5,-416.7 228.5,-416.7 232.5,-413.1 224.5,-416.7001 224.5,-416.7001"/>
<ellipse fill="none" stroke="#000000" cx="221.3" cy="-416.7001" rx="3.2" ry="3.2"/>
</g>
<!-- attendee_audit -->
<g id="node4" class="node">
<title>attendee_audit</title>
<g id="a_node4"><a xlink:href="../../tables/attendee_audit.html" xlink:title="attendee_audit" target="_top">
<polygon fill="#ffffff" stroke="transparent" points="600,-38.2 600,-187.2 769,-187.2 769,-38.2 600,-38.2"/>
<polygon fill="#f5f5f5" stroke="transparent" points="600.5,-163.7 600.5,-186.7 769.5,-186.7 769.5,-163.7 600.5,-163.7"/>
<polygon fill="none" stroke="#000000" points="600.5,-163.7 600.5,-186.7 769.5,-186.7 769.5,-163.7 600.5,-163.7"/>
<text text-anchor="start" x="605.5" y="-172.3" font-family="Helvetica,sans-Serif" font-weight="bold" font-size="11.00" fill="#000000">attendee_audit</text>
<text text-anchor="start" x="734.5437" y="-171.8" font-family="Helvetica,sans-Serif" font-size="11.00" fill="#000000">[table]</text>
<polygon fill="none" stroke="#000000" points="600.5,-141.7 600.5,-163.7 769.5,-163.7 769.5,-141.7 600.5,-141.7"/>
<image xlink:href="../../images/primaryKeys.png" width="11px" height="12px" preserveAspectRatio="xMinYMin meet" x="605.5" y="-158.7"/>
<text text-anchor="start" x="620.5" y="-148.8" font-family="Helvetica,sans-Serif" font-size="11.00" fill="#000000">rev_id</text>
<polygon fill="none" stroke="#000000" points="600.5,-119.7 600.5,-141.7 769.5,-141.7 769.5,-119.7 600.5,-119.7"/>
<image xlink:href="../../images/primaryKeys.png" width="11px" height="12px" preserveAspectRatio="xMinYMin meet" x="605.5" y="-136.7"/>
<text text-anchor="start" x="620.5" y="-126.8" font-family="Helvetica,sans-Serif" font-size="11.00" fill="#000000">attendee_id</text>
<polygon fill="none" stroke="#000000" points="600.5,-97.7 600.5,-119.7 769.5,-119.7 769.5,-97.7 600.5,-97.7"/>
<image xlink:href="../../images/foreignKeys.png" width="11px" height="12px" preserveAspectRatio="xMinYMin meet" x="605.5" y="-114.7"/>
<text text-anchor="start" x="620.5" y="-104.8" font-family="Helvetica,sans-Serif" font-size="11.00" fill="#000000">review_id</text>
<polygon fill="none" stroke="#000000" points="600.5,-75.7 600.5,-97.7 769.5,-97.7 769.5,-75.7 600.5,-75.7"/>
<image xlink:href="../../images/foreignKeys.png" width="11px" height="12px" preserveAspectRatio="xMinYMin meet" x="605.5" y="-92.7"/>
<text text-anchor="start" x="620.5" y="-82.8" font-family="Helvetica,sans-Serif" font-size="11.00" fill="#000000">legacy_id</text>
<polygon fill="none" stroke="#000000" points="600.5,-56.7 600.5,-75.7 769.5,-75.7 769.5,-56.7 600.5,-56.7"/>
<text text-anchor="start" x="603.5" y="-62.8" font-family="Helvetica,sans-Serif" font-size="11.00" fill="#000000">...</text>
<polygon fill="#ffffff" stroke="transparent" points="600.5,-37.7 600.5,-56.7 683.5,-56.7 683.5,-37.7 600.5,-37.7"/>
<polygon fill="none" stroke="#000000" points="600.5,-37.7 600.5,-56.7 683.5,-56.7 683.5,-37.7 600.5,-37.7"/>
<text text-anchor="start" x="603.5" y="-43.8" font-family="Helvetica,sans-Serif" font-size="11.00" fill="#000000">&lt; 3</text>
<polygon fill="#ffffff" stroke="transparent" points="683.5,-37.7 683.5,-56.7 726.5,-56.7 726.5,-37.7 683.5,-37.7"/>
<polygon fill="none" stroke="#000000" points="683.5,-37.7 683.5,-56.7 726.5,-56.7 726.5,-37.7 683.5,-37.7"/>
<text text-anchor="start" x="717.3862" y="-43.8" font-family="Helvetica,sans-Serif" font-size="11.00" fill="#000000"> &#160;</text>
<polygon fill="#ffffff" stroke="transparent" points="726.5,-37.7 726.5,-56.7 769.5,-56.7 769.5,-37.7 726.5,-37.7"/>
<polygon fill="none" stroke="#000000" points="726.5,-37.7 726.5,-56.7 769.5,-56.7 769.5,-37.7 726.5,-37.7"/>
<text text-anchor="start" x="760.3862" y="-43.8" font-family="Helvetica,sans-Serif" font-size="11.00" fill="#000000"> &#160;</text>
</a>
</g>
</g>
<!-- attendee_audit&#45;&gt;audit_revision -->
<g id="edge3" class="edge">
<title>attendee_audit:w&#45;&gt;audit_revision:e</title>
<path fill="none" stroke="#000000" stroke-dasharray="5,2" d="M586.0045,-86.6308C429.2088,-85.1292 379.5475,-60.1403 222,-103.7 200.3418,-109.6882 199.9708,-127.7 177.5,-127.7"/>
<polygon fill="#000000" stroke="#000000" points="592.5001,-86.6617 600.4828,-90.3 596.5,-86.6809 600.5,-86.7 600.5,-86.7 600.5,-86.7 596.5,-86.6809 600.5172,-83.1 592.5001,-86.6617 592.5001,-86.6617"/>
<ellipse fill="none" stroke="#000000" cx="589.3001" cy="-86.6464" rx="3.2" ry="3.2"/>
</g>
<!-- attendee_audit&#45;&gt;audit_revision -->
<g id="edge4" class="edge">
<title>attendee_audit:w&#45;&gt;audit_revision:e</title>
<path fill="none" stroke="#000000" d="M586.2696,-148.9857C577.6456,-143.7129 573.2305,-134.2982 559,-130.7 394.6126,-89.1349 347.0608,-127.7 177.5,-127.7"/>
<polygon fill="#000000" stroke="#000000" points="592.7593,-150.6796 599.5908,-156.1833 596.6297,-151.6898 600.5,-152.7 600.5,-152.7 600.5,-152.7 596.6297,-151.6898 601.4092,-149.2167 592.7593,-150.6796 592.7593,-150.6796"/>
<ellipse fill="none" stroke="#000000" cx="589.6631" cy="-149.8714" rx="3.2" ry="3.2"/>
</g>
<!-- attendee_audit&#45;&gt;review -->
<g id="edge5" class="edge">
<title>attendee_audit:w&#45;&gt;review:e</title>
<path fill="none" stroke="#000000" stroke-dasharray="5,2" d="M586.6736,-113.8835C539.8097,-155.8666 618.1966,-438.7 549.5,-438.7"/>
<polygon fill="#000000" stroke="#000000" points="593.0091,-111.5084 601.7638,-112.0709 596.7546,-110.1042 600.5,-108.7 600.5,-108.7 600.5,-108.7 596.7546,-110.1042 599.2362,-105.3291 593.0091,-111.5084 593.0091,-111.5084"/>
<ellipse fill="none" stroke="#000000" cx="590.0128" cy="-112.6317" rx="3.2" ry="3.2"/>
</g>
</g>
</svg>
