<?xml version="1.0" encoding="UTF-8" standalone="no"?>
<!DOCTYPE svg PUBLIC "-//W3C//DTD SVG 1.1//EN"
 "http://www.w3.org/Graphics/SVG/1.1/DTD/svg11.dtd">
<!-- Generated by graphviz version 2.40.1 (20161225.0304)
 -->
<!-- Title: twoDegreesRelationshipsDiagram Pages: 1 -->
<svg width="884pt" height="463pt"
 viewBox="0.00 0.00 884.00 463.20" xmlns="http://www.w3.org/2000/svg" xmlns:xlink="http://www.w3.org/1999/xlink">
<g id="graph0" class="graph" transform="scale(1 1) rotate(0) translate(4 459.2)">
<title>twoDegreesRelationshipsDiagram</title>
<polygon fill="#ffffff" stroke="transparent" points="-4,4 -4,-459.2 880,-459.2 880,4 -4,4"/>
<text text-anchor="middle" x="72.4936" y="-7.3" font-family="Helvetica,sans-Serif" font-size="11.00" fill="#000000">Generated by SchemaSpy</text>
<!-- attendee -->
<g id="node1" class="node">
<title>attendee</title>
<g id="a_node1"><a xlink:href="../../tables/attendee.html" xlink:title="attendee" target="_top">
<polygon fill="#ffffff" stroke="transparent" points="764,-324.2 764,-451.2 868,-451.2 868,-324.2 764,-324.2"/>
<polygon fill="#f5f5f5" stroke="transparent" points="764,-427.7 764,-450.7 868,-450.7 868,-427.7 764,-427.7"/>
<polygon fill="none" stroke="#000000" points="764,-427.7 764,-450.7 868,-450.7 868,-427.7 764,-427.7"/>
<text text-anchor="start" x="769" y="-436.3" font-family="Helvetica,sans-Serif" font-weight="bold" font-size="11.00" fill="#000000">attendee</text>
<text text-anchor="start" x="833.0437" y="-435.8" font-family="Helvetica,sans-Serif" font-size="11.00" fill="#000000">[table]</text>
<polygon fill="none" stroke="#000000" points="764,-405.7 764,-427.7 868,-427.7 868,-405.7 764,-405.7"/>
<image xlink:href="../../images/primaryKeys.png" width="11px" height="12px" preserveAspectRatio="xMinYMin meet" x="769" y="-422.7"/>
<text text-anchor="start" x="784" y="-412.8" font-family="Helvetica,sans-Serif" font-size="11.00" fill="#000000">attendee_id</text>
<polygon fill="#ffffff" stroke="transparent" points="764,-383.7 764,-405.7 868,-405.7 868,-383.7 764,-383.7"/>
<polygon fill="none" stroke="#000000" points="764,-383.7 764,-405.7 868,-405.7 868,-383.7 764,-383.7"/>
<image xlink:href="../../images/foreignKeys.png" width="11px" height="12px" preserveAspectRatio="xMinYMin meet" x="769" y="-400.7"/>
<text text-anchor="start" x="784" y="-390.8" font-family="Helvetica,sans-Serif" font-size="11.00" fill="#000000">review_id</text>
<polygon fill="#ffffff" stroke="transparent" points="764,-361.7 764,-383.7 868,-383.7 868,-361.7 764,-361.7"/>
<polygon fill="none" stroke="#000000" points="764,-361.7 764,-383.7 868,-383.7 868,-361.7 764,-361.7"/>
<image xlink:href="../../images/foreignKeys.png" width="11px" height="12px" preserveAspectRatio="xMinYMin meet" x="769" y="-378.7"/>
<text text-anchor="start" x="784" y="-368.8" font-family="Helvetica,sans-Serif" font-size="11.00" fill="#000000">legacy_id</text>
<polygon fill="none" stroke="#000000" points="764,-342.7 764,-361.7 868,-361.7 868,-342.7 764,-342.7"/>
<text text-anchor="start" x="767" y="-348.8" font-family="Helvetica,sans-Serif" font-size="11.00" fill="#000000">...</text>
<polygon fill="#ffffff" stroke="transparent" points="764,-323.7 764,-342.7 814,-342.7 814,-323.7 764,-323.7"/>
<polygon fill="none" stroke="#000000" points="764,-323.7 764,-342.7 814,-342.7 814,-323.7 764,-323.7"/>
<text text-anchor="start" x="767" y="-329.8" font-family="Helvetica,sans-Serif" font-size="11.00" fill="#000000">&lt; 1</text>
<polygon fill="#ffffff" stroke="transparent" points="814,-323.7 814,-342.7 841,-342.7 841,-323.7 814,-323.7"/>
<polygon fill="none" stroke="#000000" points="814,-323.7 814,-342.7 841,-342.7 841,-323.7 814,-323.7"/>
<text text-anchor="start" x="831.8862" y="-329.8" font-family="Helvetica,sans-Serif" font-size="11.00" fill="#000000"> &#160;</text>
<polygon fill="#ffffff" stroke="transparent" points="841,-323.7 841,-342.7 868,-342.7 868,-323.7 841,-323.7"/>
<polygon fill="none" stroke="#000000" points="841,-323.7 841,-342.7 868,-342.7 868,-323.7 841,-323.7"/>
<text text-anchor="start" x="858.8862" y="-329.8" font-family="Helvetica,sans-Serif" font-size="11.00" fill="#000000"> &#160;</text>
</a>
</g>
</g>
<!-- review -->
<g id="node2" class="node">
<title>review</title>
<g id="a_node2"><a xlink:href="../../tables/review.html" xlink:title="review" target="_top">
<polygon fill="#ffffff" stroke="transparent" points="394,-120.7 394,-430.7 715,-430.7 715,-120.7 394,-120.7"/>
<polygon fill="#f5f5f5" stroke="transparent" points="396.5,-405.7 396.5,-428.7 713.5,-428.7 713.5,-405.7 396.5,-405.7"/>
<polygon fill="none" stroke="#000000" points="396.5,-405.7 396.5,-428.7 713.5,-428.7 713.5,-405.7 396.5,-405.7"/>
<text text-anchor="start" x="401.5" y="-414.3" font-family="Helvetica,sans-Serif" font-weight="bold" font-size="11.00" fill="#000000">review</text>
<text text-anchor="start" x="678.5437" y="-413.8" font-family="Helvetica,sans-Serif" font-size="11.00" fill="#000000">[table]</text>
<polygon fill="none" stroke="#000000" points="396.5,-383.7 396.5,-405.7 597.5,-405.7 597.5,-383.7 396.5,-383.7"/>
<image xlink:href="../../images/primaryKeys.png" width="11px" height="12px" preserveAspectRatio="xMinYMin meet" x="401.5" y="-400.7"/>
<text text-anchor="start" x="416.5" y="-390.8" font-family="Helvetica,sans-Serif" font-size="11.00" fill="#000000">review_id</text>
<polygon fill="none" stroke="#000000" points="597.5,-383.7 597.5,-405.7 713.5,-405.7 713.5,-383.7 597.5,-383.7"/>
<text text-anchor="start" x="600.5" y="-391.4" font-family="Helvetica,sans-Serif" font-size="11.00" fill="#000000">uuid[2147483647]</text>
<polygon fill="#ffffff" stroke="transparent" points="396.5,-361.7 396.5,-383.7 597.5,-383.7 597.5,-361.7 396.5,-361.7"/>
<polygon fill="none" stroke="#000000" points="396.5,-361.7 396.5,-383.7 597.5,-383.7 597.5,-361.7 396.5,-361.7"/>
<image xlink:href="../../images/foreignKeys.png" width="11px" height="12px" preserveAspectRatio="xMinYMin meet" x="401.5" y="-378.7"/>
<text text-anchor="start" x="416.5" y="-368.8" font-family="Helvetica,sans-Serif" font-size="11.00" fill="#000000">plan_id</text>
<polygon fill="none" stroke="#000000" points="597.5,-361.7 597.5,-383.7 713.5,-383.7 713.5,-361.7 597.5,-361.7"/>
<text text-anchor="start" x="600.5" y="-369.4" font-family="Helvetica,sans-Serif" font-size="11.00" fill="#000000">uuid[2147483647]</text>
<polygon fill="#ffffff" stroke="transparent" points="396.5,-339.7 396.5,-361.7 597.5,-361.7 597.5,-339.7 396.5,-339.7"/>
<polygon fill="none" stroke="#000000" points="396.5,-339.7 396.5,-361.7 597.5,-361.7 597.5,-339.7 396.5,-339.7"/>
<text text-anchor="start" x="416.5" y="-346.8" font-family="Helvetica,sans-Serif" font-size="11.00" fill="#000000">review_sequence</text>
<polygon fill="none" stroke="#000000" points="597.5,-339.7 597.5,-361.7 713.5,-361.7 713.5,-339.7 597.5,-339.7"/>
<text text-anchor="start" x="600.5" y="-347.4" font-family="Helvetica,sans-Serif" font-size="11.00" fill="#000000">int4[10]</text>
<polygon fill="none" stroke="#000000" points="396.5,-317.7 396.5,-339.7 597.5,-339.7 597.5,-317.7 396.5,-317.7"/>
<text text-anchor="start" x="416.5" y="-324.8" font-family="Helvetica,sans-Serif" font-size="11.00" fill="#000000">review_date</text>
<polygon fill="none" stroke="#000000" points="597.5,-317.7 597.5,-339.7 713.5,-339.7 713.5,-317.7 597.5,-317.7"/>
<text text-anchor="start" x="600.5" y="-325.4" font-family="Helvetica,sans-Serif" font-size="11.00" fill="#000000">date[13]</text>
<polygon fill="none" stroke="#000000" points="396.5,-295.7 396.5,-317.7 597.5,-317.7 597.5,-295.7 396.5,-295.7"/>
<text text-anchor="start" x="416.5" y="-302.8" font-family="Helvetica,sans-Serif" font-size="11.00" fill="#000000">recorded_by</text>
<polygon fill="none" stroke="#000000" points="597.5,-295.7 597.5,-317.7 713.5,-317.7 713.5,-295.7 597.5,-295.7"/>
<text text-anchor="start" x="600.5" y="-303.4" font-family="Helvetica,sans-Serif" font-size="11.00" fill="#000000">varchar[64]</text>
<polygon fill="none" stroke="#000000" points="396.5,-273.7 396.5,-295.7 597.5,-295.7 597.5,-273.7 396.5,-273.7"/>
<text text-anchor="start" x="416.5" y="-280.8" font-family="Helvetica,sans-Serif" font-size="11.00" fill="#000000">recorded_by_display_name</text>
<polygon fill="none" stroke="#000000" points="597.5,-273.7 597.5,-295.7 713.5,-295.7 713.5,-273.7 597.5,-273.7"/>
<text text-anchor="start" x="600.5" y="-281.4" font-family="Helvetica,sans-Serif" font-size="11.00" fill="#000000">varchar[255]</text>
<polygon fill="none" stroke="#000000" points="396.5,-251.7 396.5,-273.7 597.5,-273.7 597.5,-251.7 396.5,-251.7"/>
<text text-anchor="start" x="416.5" y="-258.8" font-family="Helvetica,sans-Serif" font-size="11.00" fill="#000000">next_review_date</text>
<polygon fill="none" stroke="#000000" points="597.5,-251.7 597.5,-273.7 713.5,-273.7 713.5,-251.7 597.5,-251.7"/>
<text text-anchor="start" x="600.5" y="-259.4" font-family="Helvetica,sans-Serif" font-size="11.00" fill="#000000">date[13]</text>
<polygon fill="none" stroke="#000000" points="396.5,-229.7 396.5,-251.7 597.5,-251.7 597.5,-229.7 396.5,-229.7"/>
<text text-anchor="start" x="416.5" y="-236.8" font-family="Helvetica,sans-Serif" font-size="11.00" fill="#000000">actions</text>
<polygon fill="none" stroke="#000000" points="597.5,-229.7 597.5,-251.7 713.5,-251.7 713.5,-229.7 597.5,-229.7"/>
<text text-anchor="start" x="600.4769" y="-237.4" font-family="Helvetica,sans-Serif" font-size="11.00" fill="#000000">_varchar[2147483647]</text>
<polygon fill="none" stroke="#000000" points="396.5,-207.7 396.5,-229.7 597.5,-229.7 597.5,-207.7 396.5,-207.7"/>
<text text-anchor="start" x="416.5" y="-214.8" font-family="Helvetica,sans-Serif" font-size="11.00" fill="#000000">csip_closed_date</text>
<polygon fill="none" stroke="#000000" points="597.5,-207.7 597.5,-229.7 713.5,-229.7 713.5,-207.7 597.5,-207.7"/>
<text text-anchor="start" x="600.5" y="-215.4" font-family="Helvetica,sans-Serif" font-size="11.00" fill="#000000">date[13]</text>
<polygon fill="none" stroke="#000000" points="396.5,-185.7 396.5,-207.7 597.5,-207.7 597.5,-185.7 396.5,-185.7"/>
<text text-anchor="start" x="416.5" y="-192.8" font-family="Helvetica,sans-Serif" font-size="11.00" fill="#000000">summary</text>
<polygon fill="none" stroke="#000000" points="597.5,-185.7 597.5,-207.7 713.5,-207.7 713.5,-185.7 597.5,-185.7"/>
<text text-anchor="start" x="600.5" y="-193.4" font-family="Helvetica,sans-Serif" font-size="11.00" fill="#000000">text[2147483647]</text>
<polygon fill="none" stroke="#000000" points="396.5,-163.7 396.5,-185.7 597.5,-185.7 597.5,-163.7 396.5,-163.7"/>
<text text-anchor="start" x="416.5" y="-170.8" font-family="Helvetica,sans-Serif" font-size="11.00" fill="#000000">version</text>
<polygon fill="none" stroke="#000000" points="597.5,-163.7 597.5,-185.7 713.5,-185.7 713.5,-163.7 597.5,-163.7"/>
<text text-anchor="start" x="600.5" y="-171.4" font-family="Helvetica,sans-Serif" font-size="11.00" fill="#000000">int4[10]</text>
<polygon fill="#ffffff" stroke="transparent" points="396.5,-141.7 396.5,-163.7 597.5,-163.7 597.5,-141.7 396.5,-141.7"/>
<polygon fill="none" stroke="#000000" points="396.5,-141.7 396.5,-163.7 597.5,-163.7 597.5,-141.7 396.5,-141.7"/>
<image xlink:href="../../images/foreignKeys.png" width="11px" height="12px" preserveAspectRatio="xMinYMin meet" x="401.5" y="-158.7"/>
<text text-anchor="start" x="416.5" y="-148.8" font-family="Helvetica,sans-Serif" font-size="11.00" fill="#000000">legacy_id</text>
<polygon fill="none" stroke="#000000" points="597.5,-141.7 597.5,-163.7 713.5,-163.7 713.5,-141.7 597.5,-141.7"/>
<text text-anchor="start" x="600.5" y="-149.4" font-family="Helvetica,sans-Serif" font-size="11.00" fill="#000000">int8[19]</text>
<polygon fill="#ffffff" stroke="transparent" points="396.5,-122.7 396.5,-141.7 501.5,-141.7 501.5,-122.7 396.5,-122.7"/>
<polygon fill="none" stroke="#000000" points="396.5,-122.7 396.5,-141.7 501.5,-141.7 501.5,-122.7 396.5,-122.7"/>
<text text-anchor="start" x="399.5" y="-128.8" font-family="Helvetica,sans-Serif" font-size="11.00" fill="#000000">&lt; 1</text>
<polygon fill="#ffffff" stroke="transparent" points="501.5,-122.7 501.5,-141.7 597.5,-141.7 597.5,-122.7 501.5,-122.7"/>
<polygon fill="none" stroke="#000000" points="501.5,-122.7 501.5,-141.7 597.5,-141.7 597.5,-122.7 501.5,-122.7"/>
<text text-anchor="start" x="588.3862" y="-128.8" font-family="Helvetica,sans-Serif" font-size="11.00" fill="#000000"> &#160;</text>
<polygon fill="#ffffff" stroke="transparent" points="597.5,-122.7 597.5,-141.7 713.5,-141.7 713.5,-122.7 597.5,-122.7"/>
<polygon fill="none" stroke="#000000" points="597.5,-122.7 597.5,-141.7 713.5,-141.7 713.5,-122.7 597.5,-122.7"/>
<text text-anchor="start" x="694.9053" y="-128.8" font-family="Helvetica,sans-Serif" font-size="11.00" fill="#000000">1 &gt;</text>
<polygon fill="none" stroke="#000000" stroke-width="2" points="395,-121.7 395,-429.7 714,-429.7 714,-121.7 395,-121.7"/>
</a>
</g>
</g>
<!-- attendee&#45;&gt;review -->
<g id="edge1" class="edge">
<title>attendee:w&#45;&gt;review:e</title>
<path fill="none" stroke="#000000" d="M749.4203,-394.7C737.5435,-394.7 730.158,-394.7 713.5,-394.7"/>
<polygon fill="#000000" stroke="#000000" points="756,-394.7001 764,-398.3 760,-394.7 764,-394.7 764,-394.7 764,-394.7 760,-394.7 764,-391.1 756,-394.7001 756,-394.7001"/>
<ellipse fill="none" stroke="#000000" cx="752.8" cy="-394.7001" rx="3.2" ry="3.2"/>
</g>
<!-- plan -->
<g id="node4" class="node">
<title>plan</title>
<g id="a_node4"><a xlink:href="../../tables/plan.html" xlink:title="plan" target="_top">
<polygon fill="#ffffff" stroke="transparent" points="172,-148.2 172,-253.2 345,-253.2 345,-148.2 172,-148.2"/>
<polygon fill="#f5f5f5" stroke="transparent" points="172.5,-229.7 172.5,-252.7 345.5,-252.7 345.5,-229.7 172.5,-229.7"/>
<polygon fill="none" stroke="#000000" points="172.5,-229.7 172.5,-252.7 345.5,-252.7 345.5,-229.7 172.5,-229.7"/>
<text text-anchor="start" x="177.5" y="-238.3" font-family="Helvetica,sans-Serif" font-weight="bold" font-size="11.00" fill="#000000">plan</text>
<text text-anchor="start" x="310.5437" y="-237.8" font-family="Helvetica,sans-Serif" font-size="11.00" fill="#000000">[table]</text>
<polygon fill="none" stroke="#000000" points="172.5,-207.7 172.5,-229.7 345.5,-229.7 345.5,-207.7 172.5,-207.7"/>
<image xlink:href="../../images/primaryKeys.png" width="11px" height="12px" preserveAspectRatio="xMinYMin meet" x="177.5" y="-224.7"/>
<text text-anchor="start" x="192.5" y="-214.8" font-family="Helvetica,sans-Serif" font-size="11.00" fill="#000000">plan_id</text>
<polygon fill="#ffffff" stroke="transparent" points="172.5,-185.7 172.5,-207.7 345.5,-207.7 345.5,-185.7 172.5,-185.7"/>
<polygon fill="none" stroke="#000000" points="172.5,-185.7 172.5,-207.7 345.5,-207.7 345.5,-185.7 172.5,-185.7"/>
<text text-anchor="start" x="192.5" y="-192.8" font-family="Helvetica,sans-Serif" font-size="11.00" fill="#000000">next_review_date</text>
<polygon fill="none" stroke="#000000" points="172.5,-166.7 172.5,-185.7 345.5,-185.7 345.5,-166.7 172.5,-166.7"/>
<text text-anchor="start" x="175.5" y="-172.8" font-family="Helvetica,sans-Serif" font-size="11.00" fill="#000000">...</text>
<polygon fill="#ffffff" stroke="transparent" points="172.5,-147.7 172.5,-166.7 252.5,-166.7 252.5,-147.7 172.5,-147.7"/>
<polygon fill="none" stroke="#000000" points="172.5,-147.7 172.5,-166.7 252.5,-166.7 252.5,-147.7 172.5,-147.7"/>
<text text-anchor="start" x="175.5" y="-153.8" font-family="Helvetica,sans-Serif" font-size="11.00" fill="#000000">&lt; 1</text>
<polygon fill="#ffffff" stroke="transparent" points="252.5,-147.7 252.5,-166.7 294.5,-166.7 294.5,-147.7 252.5,-147.7"/>
<polygon fill="none" stroke="#000000" points="252.5,-147.7 252.5,-166.7 294.5,-166.7 294.5,-147.7 252.5,-147.7"/>
<text text-anchor="start" x="285.3862" y="-153.8" font-family="Helvetica,sans-Serif" font-size="11.00" fill="#000000"> &#160;</text>
<polygon fill="#ffffff" stroke="transparent" points="294.5,-147.7 294.5,-166.7 345.5,-166.7 345.5,-147.7 294.5,-147.7"/>
<polygon fill="none" stroke="#000000" points="294.5,-147.7 294.5,-166.7 345.5,-166.7 345.5,-147.7 294.5,-147.7"/>
<text text-anchor="start" x="326.9053" y="-153.8" font-family="Helvetica,sans-Serif" font-size="11.00" fill="#000000">2 &gt;</text>
</a>
</g>
</g>
<!-- review&#45;&gt;plan -->
<g id="edge4" class="edge">
<title>review:w&#45;&gt;plan:e</title>
<path fill="none" stroke="#000000" d="M382.1893,-369.8956C338.2665,-349.0235 411.8264,-218.7 345.5,-218.7"/>
<polygon fill="#000000" stroke="#000000" points="388.6493,-371.1615 395.8077,-376.2328 392.5747,-371.9307 396.5,-372.7 396.5,-372.7 396.5,-372.7 392.5747,-371.9307 397.1923,-369.1672 388.6493,-371.1615 388.6493,-371.1615"/>
<ellipse fill="none" stroke="#000000" cx="385.5091" cy="-370.5461" rx="3.2" ry="3.2"/>
</g>
<!-- identified_need -->
<g id="node3" class="node">
<title>identified_need</title>
<g id="a_node3"><a xlink:href="../../tables/identified_need.html" xlink:title="identified_need" target="_top">
<polygon fill="#ffffff" stroke="transparent" points="483,-38.2 483,-99.2 626,-99.2 626,-38.2 483,-38.2"/>
<polygon fill="#f5f5f5" stroke="transparent" points="483.5,-75.7 483.5,-98.7 626.5,-98.7 626.5,-75.7 483.5,-75.7"/>
<polygon fill="none" stroke="#000000" points="483.5,-75.7 483.5,-98.7 626.5,-98.7 626.5,-75.7 483.5,-75.7"/>
<text text-anchor="start" x="488.5" y="-84.3" font-family="Helvetica,sans-Serif" font-weight="bold" font-size="11.00" fill="#000000">identified_need</text>
<text text-anchor="start" x="592.0219" y="-83.8" font-family="Helvetica,sans-Serif" font-size="11.00" fill="#000000">[table]</text>
<polygon fill="none" stroke="#000000" points="483.5,-56.7 483.5,-75.7 626.5,-75.7 626.5,-56.7 483.5,-56.7"/>
<text text-anchor="start" x="486.5" y="-62.8" font-family="Helvetica,sans-Serif" font-size="11.00" fill="#000000">...</text>
<polygon fill="#ffffff" stroke="transparent" points="483.5,-37.7 483.5,-56.7 553.5,-56.7 553.5,-37.7 483.5,-37.7"/>
<polygon fill="none" stroke="#000000" points="483.5,-37.7 483.5,-56.7 553.5,-56.7 553.5,-37.7 483.5,-37.7"/>
<text text-anchor="start" x="486.5" y="-43.8" font-family="Helvetica,sans-Serif" font-size="11.00" fill="#000000">&lt; 1</text>
<polygon fill="#ffffff" stroke="transparent" points="553.5,-37.7 553.5,-56.7 589.5,-56.7 589.5,-37.7 553.5,-37.7"/>
<polygon fill="none" stroke="#000000" points="553.5,-37.7 553.5,-56.7 589.5,-56.7 589.5,-37.7 553.5,-37.7"/>
<text text-anchor="start" x="580.3862" y="-43.8" font-family="Helvetica,sans-Serif" font-size="11.00" fill="#000000"> &#160;</text>
<polygon fill="#ffffff" stroke="transparent" points="589.5,-37.7 589.5,-56.7 626.5,-56.7 626.5,-37.7 589.5,-37.7"/>
<polygon fill="none" stroke="#000000" points="589.5,-37.7 589.5,-56.7 626.5,-56.7 626.5,-37.7 589.5,-37.7"/>
<text text-anchor="start" x="617.3862" y="-43.8" font-family="Helvetica,sans-Serif" font-size="11.00" fill="#000000"> &#160;</text>
</a>
</g>
</g>
<!-- identified_need&#45;&gt;plan -->
<g id="edge2" class="edge">
<title>identified_need:w&#45;&gt;plan:e</title>
<path fill="none" stroke="#000000" d="M468.8724,-66.0796C431.8097,-68.193 414.9296,-79.5577 386,-110.7 351.1098,-148.2589 396.764,-218.7 345.5,-218.7"/>
<polygon fill="#000000" stroke="#000000" points="475.5027,-65.9076 483.5934,-69.2988 479.5013,-65.8038 483.5,-65.7 483.5,-65.7 483.5,-65.7 479.5013,-65.8038 483.4066,-62.1012 475.5027,-65.9076 475.5027,-65.9076"/>
<ellipse fill="none" stroke="#000000" cx="472.3038" cy="-65.9906" rx="3.2" ry="3.2"/>
</g>
<!-- csip_record -->
<g id="node5" class="node">
<title>csip_record</title>
<g id="a_node5"><a xlink:href="../../tables/csip_record.html" xlink:title="csip_record" target="_top">
<polygon fill="#ffffff" stroke="transparent" points="8,-191.2 8,-252.2 123,-252.2 123,-191.2 8,-191.2"/>
<polygon fill="#f5f5f5" stroke="transparent" points="8.5,-228.7 8.5,-251.7 123.5,-251.7 123.5,-228.7 8.5,-228.7"/>
<polygon fill="none" stroke="#000000" points="8.5,-228.7 8.5,-251.7 123.5,-251.7 123.5,-228.7 8.5,-228.7"/>
<text text-anchor="start" x="13.5" y="-237.3" font-family="Helvetica,sans-Serif" font-weight="bold" font-size="11.00" fill="#000000">csip_record</text>
<text text-anchor="start" x="89.0219" y="-236.8" font-family="Helvetica,sans-Serif" font-size="11.00" fill="#000000">[table]</text>
<polygon fill="none" stroke="#000000" points="8.5,-209.7 8.5,-228.7 123.5,-228.7 123.5,-209.7 8.5,-209.7"/>
<text text-anchor="start" x="11.5" y="-215.8" font-family="Helvetica,sans-Serif" font-size="11.00" fill="#000000">...</text>
<polygon fill="#ffffff" stroke="transparent" points="8.5,-190.7 8.5,-209.7 59.5,-209.7 59.5,-190.7 8.5,-190.7"/>
<polygon fill="none" stroke="#000000" points="8.5,-190.7 8.5,-209.7 59.5,-209.7 59.5,-190.7 8.5,-190.7"/>
<text text-anchor="start" x="11.5" y="-196.8" font-family="Helvetica,sans-Serif" font-size="11.00" fill="#000000">&lt; 2</text>
<polygon fill="#ffffff" stroke="transparent" points="59.5,-190.7 59.5,-209.7 86.5,-209.7 86.5,-190.7 59.5,-190.7"/>
<polygon fill="none" stroke="#000000" points="59.5,-190.7 59.5,-209.7 86.5,-209.7 86.5,-190.7 59.5,-190.7"/>
<text text-anchor="start" x="77.3862" y="-196.8" font-family="Helvetica,sans-Serif" font-size="11.00" fill="#000000"> &#160;</text>
<polygon fill="#ffffff" stroke="transparent" points="86.5,-190.7 86.5,-209.7 123.5,-209.7 123.5,-190.7 86.5,-190.7"/>
<polygon fill="none" stroke="#000000" points="86.5,-190.7 86.5,-209.7 123.5,-209.7 123.5,-190.7 86.5,-190.7"/>
<text text-anchor="start" x="104.9053" y="-196.8" font-family="Helvetica,sans-Serif" font-size="11.00" fill="#000000">2 &gt;</text>
</a>
</g>
</g>
<!-- plan&#45;&gt;csip_record -->
<g id="edge3" class="edge">
<title>plan:w&#45;&gt;csip_record:e</title>
<path fill="none" stroke="#000000" d="M161.7573,-218.7C148.1063,-218.7 141.1944,-218.7 123.5,-218.7"/>
<polygon fill="#000000" stroke="#000000" points="171.7,-214.7 171.7,-222.7 170.1,-222.7 170.1,-214.7 171.7,-214.7"/>
<polyline fill="none" stroke="#000000" points="172.5,-218.7 168.5,-218.7 "/>
<ellipse fill="none" stroke="#000000" cx="165.3" cy="-218.7001" rx="3.2" ry="3.2"/>
</g>
</g>
</svg>
