<?xml version="1.0" encoding="UTF-8" standalone="no"?>
<!DOCTYPE svg PUBLIC "-//W3C//DTD SVG 1.1//EN"
 "http://www.w3.org/Graphics/SVG/1.1/DTD/svg11.dtd">
<!-- Generated by graphviz version 2.40.1 (20161225.0304)
 -->
<!-- Title: oneDegreeRelationshipsDiagramImplied Pages: 1 -->
<svg width="633pt" height="558pt"
 viewBox="0.00 0.00 633.00 558.20" xmlns="http://www.w3.org/2000/svg" xmlns:xlink="http://www.w3.org/1999/xlink">
<g id="graph0" class="graph" transform="scale(1 1) rotate(0) translate(4 554.2)">
<title>oneDegreeRelationshipsDiagramImplied</title>
<polygon fill="#ffffff" stroke="transparent" points="-4,4 -4,-554.2 629,-554.2 629,4 -4,4"/>
<text text-anchor="middle" x="72.4936" y="-7.3" font-family="Helvetica,sans-Serif" font-size="11.00" fill="#000000">Generated by SchemaSpy</text>
<!-- review_audit -->
<g id="node1" class="node">
<title>review_audit</title>
<g id="a_node1"><a xlink:href="../../tables/review_audit.html" xlink:title="review_audit" target="_top">
<polygon fill="#ffffff" stroke="transparent" points="230,-38.2 230,-546.2 617,-546.2 617,-38.2 230,-38.2"/>
<polygon fill="#f5f5f5" stroke="transparent" points="232.5,-521.2 232.5,-544.2 615.5,-544.2 615.5,-521.2 232.5,-521.2"/>
<polygon fill="none" stroke="#000000" points="232.5,-521.2 232.5,-544.2 615.5,-544.2 615.5,-521.2 232.5,-521.2"/>
<text text-anchor="start" x="237.5" y="-529.8" font-family="Helvetica,sans-Serif" font-weight="bold" font-size="11.00" fill="#000000">review_audit</text>
<text text-anchor="start" x="580.5437" y="-529.3" font-family="Helvetica,sans-Serif" font-size="11.00" fill="#000000">[table]</text>
<polygon fill="none" stroke="#000000" points="232.5,-499.2 232.5,-521.2 499.5,-521.2 499.5,-499.2 232.5,-499.2"/>
<image xlink:href="../../images/primaryKeys.png" width="11px" height="12px" preserveAspectRatio="xMinYMin meet" x="237.5" y="-516.2"/>
<text text-anchor="start" x="252.5" y="-506.3" font-family="Helvetica,sans-Serif" font-size="11.00" fill="#000000">rev_id</text>
<polygon fill="none" stroke="#000000" points="499.5,-499.2 499.5,-521.2 615.5,-521.2 615.5,-499.2 499.5,-499.2"/>
<text text-anchor="start" x="502.5" y="-506.9" font-family="Helvetica,sans-Serif" font-size="11.00" fill="#000000">int8[19]</text>
<polygon fill="none" stroke="#000000" points="232.5,-477.2 232.5,-499.2 499.5,-499.2 499.5,-477.2 232.5,-477.2"/>
<text text-anchor="start" x="252.5" y="-484.3" font-family="Helvetica,sans-Serif" font-size="11.00" fill="#000000">rev_type</text>
<polygon fill="none" stroke="#000000" points="499.5,-477.2 499.5,-499.2 615.5,-499.2 615.5,-477.2 499.5,-477.2"/>
<text text-anchor="start" x="502.5" y="-484.9" font-family="Helvetica,sans-Serif" font-size="11.00" fill="#000000">int2[5]</text>
<polygon fill="none" stroke="#000000" points="232.5,-455.2 232.5,-477.2 499.5,-477.2 499.5,-455.2 232.5,-455.2"/>
<image xlink:href="../../images/primaryKeys.png" width="11px" height="12px" preserveAspectRatio="xMinYMin meet" x="237.5" y="-472.2"/>
<text text-anchor="start" x="252.5" y="-462.3" font-family="Helvetica,sans-Serif" font-size="11.00" fill="#000000">review_id</text>
<polygon fill="none" stroke="#000000" points="499.5,-455.2 499.5,-477.2 615.5,-477.2 615.5,-455.2 499.5,-455.2"/>
<text text-anchor="start" x="502.5" y="-462.9" font-family="Helvetica,sans-Serif" font-size="11.00" fill="#000000">uuid[2147483647]</text>
<polygon fill="none" stroke="#000000" points="232.5,-433.2 232.5,-455.2 499.5,-455.2 499.5,-433.2 232.5,-433.2"/>
<image xlink:href="../../images/foreignKeys.png" width="11px" height="12px" preserveAspectRatio="xMinYMin meet" x="237.5" y="-450.2"/>
<text text-anchor="start" x="252.5" y="-440.3" font-family="Helvetica,sans-Serif" font-size="11.00" fill="#000000">plan_id</text>
<polygon fill="none" stroke="#000000" points="499.5,-433.2 499.5,-455.2 615.5,-455.2 615.5,-433.2 499.5,-433.2"/>
<text text-anchor="start" x="502.5" y="-440.9" font-family="Helvetica,sans-Serif" font-size="11.00" fill="#000000">uuid[2147483647]</text>
<polygon fill="none" stroke="#000000" points="232.5,-411.2 232.5,-433.2 499.5,-433.2 499.5,-411.2 232.5,-411.2"/>
<text text-anchor="start" x="252.5" y="-418.3" font-family="Helvetica,sans-Serif" font-size="11.00" fill="#000000">review_sequence</text>
<polygon fill="none" stroke="#000000" points="499.5,-411.2 499.5,-433.2 615.5,-433.2 615.5,-411.2 499.5,-411.2"/>
<text text-anchor="start" x="502.5" y="-418.9" font-family="Helvetica,sans-Serif" font-size="11.00" fill="#000000">int4[10]</text>
<polygon fill="none" stroke="#000000" points="232.5,-389.2 232.5,-411.2 499.5,-411.2 499.5,-389.2 232.5,-389.2"/>
<text text-anchor="start" x="252.5" y="-396.3" font-family="Helvetica,sans-Serif" font-size="11.00" fill="#000000">review_date</text>
<polygon fill="none" stroke="#000000" points="499.5,-389.2 499.5,-411.2 615.5,-411.2 615.5,-389.2 499.5,-389.2"/>
<text text-anchor="start" x="502.5" y="-396.9" font-family="Helvetica,sans-Serif" font-size="11.00" fill="#000000">date[13]</text>
<polygon fill="none" stroke="#000000" points="232.5,-367.2 232.5,-389.2 499.5,-389.2 499.5,-367.2 232.5,-367.2"/>
<text text-anchor="start" x="252.5" y="-374.3" font-family="Helvetica,sans-Serif" font-size="11.00" fill="#000000">recorded_by</text>
<polygon fill="none" stroke="#000000" points="499.5,-367.2 499.5,-389.2 615.5,-389.2 615.5,-367.2 499.5,-367.2"/>
<text text-anchor="start" x="502.5" y="-374.9" font-family="Helvetica,sans-Serif" font-size="11.00" fill="#000000">varchar[64]</text>
<polygon fill="none" stroke="#000000" points="232.5,-345.2 232.5,-367.2 499.5,-367.2 499.5,-345.2 232.5,-345.2"/>
<text text-anchor="start" x="252.5" y="-352.3" font-family="Helvetica,sans-Serif" font-size="11.00" fill="#000000">recorded_by_display_name</text>
<polygon fill="none" stroke="#000000" points="499.5,-345.2 499.5,-367.2 615.5,-367.2 615.5,-345.2 499.5,-345.2"/>
<text text-anchor="start" x="502.5" y="-352.9" font-family="Helvetica,sans-Serif" font-size="11.00" fill="#000000">varchar[255]</text>
<polygon fill="none" stroke="#000000" points="232.5,-323.2 232.5,-345.2 499.5,-345.2 499.5,-323.2 232.5,-323.2"/>
<text text-anchor="start" x="252.5" y="-330.3" font-family="Helvetica,sans-Serif" font-size="11.00" fill="#000000">next_review_date</text>
<polygon fill="none" stroke="#000000" points="499.5,-323.2 499.5,-345.2 615.5,-345.2 615.5,-323.2 499.5,-323.2"/>
<text text-anchor="start" x="502.5" y="-330.9" font-family="Helvetica,sans-Serif" font-size="11.00" fill="#000000">date[13]</text>
<polygon fill="none" stroke="#000000" points="232.5,-301.2 232.5,-323.2 499.5,-323.2 499.5,-301.2 232.5,-301.2"/>
<text text-anchor="start" x="252.5" y="-308.3" font-family="Helvetica,sans-Serif" font-size="11.00" fill="#000000">csip_closed_date</text>
<polygon fill="none" stroke="#000000" points="499.5,-301.2 499.5,-323.2 615.5,-323.2 615.5,-301.2 499.5,-301.2"/>
<text text-anchor="start" x="502.5" y="-308.9" font-family="Helvetica,sans-Serif" font-size="11.00" fill="#000000">date[13]</text>
<polygon fill="none" stroke="#000000" points="232.5,-279.2 232.5,-301.2 499.5,-301.2 499.5,-279.2 232.5,-279.2"/>
<text text-anchor="start" x="252.5" y="-286.3" font-family="Helvetica,sans-Serif" font-size="11.00" fill="#000000">summary</text>
<polygon fill="none" stroke="#000000" points="499.5,-279.2 499.5,-301.2 615.5,-301.2 615.5,-279.2 499.5,-279.2"/>
<text text-anchor="start" x="502.5" y="-286.9" font-family="Helvetica,sans-Serif" font-size="11.00" fill="#000000">text[2147483647]</text>
<polygon fill="none" stroke="#000000" points="232.5,-257.2 232.5,-279.2 499.5,-279.2 499.5,-257.2 232.5,-257.2"/>
<text text-anchor="start" x="252.5" y="-264.3" font-family="Helvetica,sans-Serif" font-size="11.00" fill="#000000">actions</text>
<polygon fill="none" stroke="#000000" points="499.5,-257.2 499.5,-279.2 615.5,-279.2 615.5,-257.2 499.5,-257.2"/>
<text text-anchor="start" x="502.4769" y="-264.9" font-family="Helvetica,sans-Serif" font-size="11.00" fill="#000000">_varchar[2147483647]</text>
<polygon fill="none" stroke="#000000" points="232.5,-235.2 232.5,-257.2 499.5,-257.2 499.5,-235.2 232.5,-235.2"/>
<text text-anchor="start" x="252.5" y="-242.3" font-family="Helvetica,sans-Serif" font-size="11.00" fill="#000000">review_sequence_modified</text>
<polygon fill="none" stroke="#000000" points="499.5,-235.2 499.5,-257.2 615.5,-257.2 615.5,-235.2 499.5,-235.2"/>
<text text-anchor="start" x="502.5" y="-242.9" font-family="Helvetica,sans-Serif" font-size="11.00" fill="#000000">bool[1]</text>
<polygon fill="none" stroke="#000000" points="232.5,-213.2 232.5,-235.2 499.5,-235.2 499.5,-213.2 232.5,-213.2"/>
<text text-anchor="start" x="252.5" y="-220.3" font-family="Helvetica,sans-Serif" font-size="11.00" fill="#000000">review_date_modified</text>
<polygon fill="none" stroke="#000000" points="499.5,-213.2 499.5,-235.2 615.5,-235.2 615.5,-213.2 499.5,-213.2"/>
<text text-anchor="start" x="502.5" y="-220.9" font-family="Helvetica,sans-Serif" font-size="11.00" fill="#000000">bool[1]</text>
<polygon fill="none" stroke="#000000" points="232.5,-191.2 232.5,-213.2 499.5,-213.2 499.5,-191.2 232.5,-191.2"/>
<text text-anchor="start" x="252.5" y="-198.3" font-family="Helvetica,sans-Serif" font-size="11.00" fill="#000000">recorded_by_modified</text>
<polygon fill="none" stroke="#000000" points="499.5,-191.2 499.5,-213.2 615.5,-213.2 615.5,-191.2 499.5,-191.2"/>
<text text-anchor="start" x="502.5" y="-198.9" font-family="Helvetica,sans-Serif" font-size="11.00" fill="#000000">bool[1]</text>
<polygon fill="none" stroke="#000000" points="232.5,-169.2 232.5,-191.2 499.5,-191.2 499.5,-169.2 232.5,-169.2"/>
<text text-anchor="start" x="252.5" y="-176.3" font-family="Helvetica,sans-Serif" font-size="11.00" fill="#000000">recorded_by_display_name_modified</text>
<polygon fill="none" stroke="#000000" points="499.5,-169.2 499.5,-191.2 615.5,-191.2 615.5,-169.2 499.5,-169.2"/>
<text text-anchor="start" x="502.5" y="-176.9" font-family="Helvetica,sans-Serif" font-size="11.00" fill="#000000">bool[1]</text>
<polygon fill="none" stroke="#000000" points="232.5,-147.2 232.5,-169.2 499.5,-169.2 499.5,-147.2 232.5,-147.2"/>
<text text-anchor="start" x="252.5" y="-154.3" font-family="Helvetica,sans-Serif" font-size="11.00" fill="#000000">next_review_date_modified</text>
<polygon fill="none" stroke="#000000" points="499.5,-147.2 499.5,-169.2 615.5,-169.2 615.5,-147.2 499.5,-147.2"/>
<text text-anchor="start" x="502.5" y="-154.9" font-family="Helvetica,sans-Serif" font-size="11.00" fill="#000000">bool[1]</text>
<polygon fill="none" stroke="#000000" points="232.5,-125.2 232.5,-147.2 499.5,-147.2 499.5,-125.2 232.5,-125.2"/>
<text text-anchor="start" x="252.5" y="-132.3" font-family="Helvetica,sans-Serif" font-size="11.00" fill="#000000">csip_closed_date_modified</text>
<polygon fill="none" stroke="#000000" points="499.5,-125.2 499.5,-147.2 615.5,-147.2 615.5,-125.2 499.5,-125.2"/>
<text text-anchor="start" x="502.5" y="-132.9" font-family="Helvetica,sans-Serif" font-size="11.00" fill="#000000">bool[1]</text>
<polygon fill="none" stroke="#000000" points="232.5,-103.2 232.5,-125.2 499.5,-125.2 499.5,-103.2 232.5,-103.2"/>
<text text-anchor="start" x="252.5" y="-110.3" font-family="Helvetica,sans-Serif" font-size="11.00" fill="#000000">summary_modified</text>
<polygon fill="none" stroke="#000000" points="499.5,-103.2 499.5,-125.2 615.5,-125.2 615.5,-103.2 499.5,-103.2"/>
<text text-anchor="start" x="502.5" y="-110.9" font-family="Helvetica,sans-Serif" font-size="11.00" fill="#000000">bool[1]</text>
<polygon fill="none" stroke="#000000" points="232.5,-81.2 232.5,-103.2 499.5,-103.2 499.5,-81.2 232.5,-81.2"/>
<text text-anchor="start" x="252.5" y="-88.3" font-family="Helvetica,sans-Serif" font-size="11.00" fill="#000000">actions_modified</text>
<polygon fill="none" stroke="#000000" points="499.5,-81.2 499.5,-103.2 615.5,-103.2 615.5,-81.2 499.5,-81.2"/>
<text text-anchor="start" x="502.5" y="-88.9" font-family="Helvetica,sans-Serif" font-size="11.00" fill="#000000">bool[1]</text>
<polygon fill="none" stroke="#000000" points="232.5,-59.2 232.5,-81.2 499.5,-81.2 499.5,-59.2 232.5,-59.2"/>
<image xlink:href="../../images/foreignKeys.png" width="11px" height="12px" preserveAspectRatio="xMinYMin meet" x="237.5" y="-76.2"/>
<text text-anchor="start" x="252.5" y="-66.3" font-family="Helvetica,sans-Serif" font-size="11.00" fill="#000000">legacy_id</text>
<polygon fill="none" stroke="#000000" points="499.5,-59.2 499.5,-81.2 615.5,-81.2 615.5,-59.2 499.5,-59.2"/>
<text text-anchor="start" x="502.5" y="-66.9" font-family="Helvetica,sans-Serif" font-size="11.00" fill="#000000">int8[19]</text>
<polygon fill="#ffffff" stroke="transparent" points="232.5,-40.2 232.5,-59.2 370.5,-59.2 370.5,-40.2 232.5,-40.2"/>
<polygon fill="none" stroke="#000000" points="232.5,-40.2 232.5,-59.2 370.5,-59.2 370.5,-40.2 232.5,-40.2"/>
<text text-anchor="start" x="235.5" y="-46.3" font-family="Helvetica,sans-Serif" font-size="11.00" fill="#000000">&lt; 3</text>
<polygon fill="#ffffff" stroke="transparent" points="370.5,-40.2 370.5,-59.2 499.5,-59.2 499.5,-40.2 370.5,-40.2"/>
<polygon fill="none" stroke="#000000" points="370.5,-40.2 370.5,-59.2 499.5,-59.2 499.5,-40.2 370.5,-40.2"/>
<text text-anchor="start" x="490.3862" y="-46.3" font-family="Helvetica,sans-Serif" font-size="11.00" fill="#000000"> &#160;</text>
<polygon fill="#ffffff" stroke="transparent" points="499.5,-40.2 499.5,-59.2 615.5,-59.2 615.5,-40.2 499.5,-40.2"/>
<polygon fill="none" stroke="#000000" points="499.5,-40.2 499.5,-59.2 615.5,-59.2 615.5,-40.2 499.5,-40.2"/>
<text text-anchor="start" x="596.9053" y="-46.3" font-family="Helvetica,sans-Serif" font-size="11.00" fill="#000000">0 &gt;</text>
<polygon fill="none" stroke="#000000" stroke-width="2" points="231,-39.2 231,-545.2 616,-545.2 616,-39.2 231,-39.2"/>
</a>
</g>
</g>
<!-- audit_revision -->
<g id="node2" class="node">
<title>audit_revision</title>
<g id="a_node2"><a xlink:href="../../tables/audit_revision.html" xlink:title="audit_revision" target="_top">
<polygon fill="#ffffff" stroke="transparent" points="11.5,-156.7 11.5,-239.7 177.5,-239.7 177.5,-156.7 11.5,-156.7"/>
<polygon fill="#f5f5f5" stroke="transparent" points="11.5,-216.2 11.5,-239.2 177.5,-239.2 177.5,-216.2 11.5,-216.2"/>
<polygon fill="none" stroke="#000000" points="11.5,-216.2 11.5,-239.2 177.5,-239.2 177.5,-216.2 11.5,-216.2"/>
<text text-anchor="start" x="16.5" y="-224.8" font-family="Helvetica,sans-Serif" font-weight="bold" font-size="11.00" fill="#000000">audit_revision</text>
<text text-anchor="start" x="142.5437" y="-224.3" font-family="Helvetica,sans-Serif" font-size="11.00" fill="#000000">[table]</text>
<polygon fill="none" stroke="#000000" points="11.5,-194.2 11.5,-216.2 177.5,-216.2 177.5,-194.2 11.5,-194.2"/>
<image xlink:href="../../images/primaryKeys.png" width="11px" height="12px" preserveAspectRatio="xMinYMin meet" x="16.5" y="-211.2"/>
<text text-anchor="start" x="31.5" y="-201.3" font-family="Helvetica,sans-Serif" font-size="11.00" fill="#000000">id</text>
<polygon fill="none" stroke="#000000" points="11.5,-175.2 11.5,-194.2 177.5,-194.2 177.5,-175.2 11.5,-175.2"/>
<text text-anchor="start" x="14.5" y="-181.3" font-family="Helvetica,sans-Serif" font-size="11.00" fill="#000000">...</text>
<polygon fill="#ffffff" stroke="transparent" points="11.5,-156.2 11.5,-175.2 80.5,-175.2 80.5,-156.2 11.5,-156.2"/>
<polygon fill="none" stroke="#000000" points="11.5,-156.2 11.5,-175.2 80.5,-175.2 80.5,-156.2 11.5,-156.2"/>
<text text-anchor="start" x="14.5" y="-162.3" font-family="Helvetica,sans-Serif" font-size="11.00" fill="#000000"> &#160;</text>
<polygon fill="#ffffff" stroke="transparent" points="80.5,-156.2 80.5,-175.2 121.5,-175.2 121.5,-156.2 80.5,-156.2"/>
<polygon fill="none" stroke="#000000" points="80.5,-156.2 80.5,-175.2 121.5,-175.2 121.5,-156.2 80.5,-156.2"/>
<text text-anchor="start" x="112.3862" y="-162.3" font-family="Helvetica,sans-Serif" font-size="11.00" fill="#000000"> &#160;</text>
<polygon fill="#ffffff" stroke="transparent" points="121.5,-156.2 121.5,-175.2 177.5,-175.2 177.5,-156.2 121.5,-156.2"/>
<polygon fill="none" stroke="#000000" points="121.5,-156.2 121.5,-175.2 177.5,-175.2 177.5,-156.2 121.5,-156.2"/>
<text text-anchor="start" x="152.7904" y="-162.3" font-family="Helvetica,sans-Serif" font-size="11.00" fill="#000000">33 &gt;</text>
</a>
</g>
</g>
<!-- review_audit&#45;&gt;audit_revision -->
<g id="edge1" class="edge">
<title>review_audit:w&#45;&gt;audit_revision:e</title>
<path fill="none" stroke="#000000" stroke-dasharray="5,2" d="M218.2102,-73.2733C179.9872,-93.3681 236.4675,-205.2 177.5,-205.2"/>
<polygon fill="#000000" stroke="#000000" points="224.6788,-71.8821 233.257,-73.7195 228.5894,-71.0411 232.5,-70.2 232.5,-70.2 232.5,-70.2 228.5894,-71.0411 231.743,-66.6805 224.6788,-71.8821 224.6788,-71.8821"/>
<ellipse fill="none" stroke="#000000" cx="221.5504" cy="-72.555" rx="3.2" ry="3.2"/>
</g>
<!-- review_audit&#45;&gt;audit_revision -->
<g id="edge3" class="edge">
<title>review_audit:w&#45;&gt;audit_revision:e</title>
<path fill="none" stroke="#000000" d="M218.9899,-504.9062C175.6321,-464.4053 240.9904,-205.2 177.5,-205.2"/>
<polygon fill="#000000" stroke="#000000" points="225.0514,-507.2813 231.1866,-513.5519 228.7757,-508.7406 232.5,-510.2 232.5,-510.2 232.5,-510.2 228.7757,-508.7406 233.8134,-506.8481 225.0514,-507.2813 225.0514,-507.2813"/>
<ellipse fill="none" stroke="#000000" cx="222.072" cy="-506.1138" rx="3.2" ry="3.2"/>
</g>
<!-- plan -->
<g id="node3" class="node">
<title>plan</title>
<g id="a_node3"><a xlink:href="../../tables/plan.html" xlink:title="plan" target="_top">
<polygon fill="#ffffff" stroke="transparent" points="8,-395.7 8,-478.7 181,-478.7 181,-395.7 8,-395.7"/>
<polygon fill="#f5f5f5" stroke="transparent" points="8.5,-455.2 8.5,-478.2 181.5,-478.2 181.5,-455.2 8.5,-455.2"/>
<polygon fill="none" stroke="#000000" points="8.5,-455.2 8.5,-478.2 181.5,-478.2 181.5,-455.2 8.5,-455.2"/>
<text text-anchor="start" x="13.5" y="-463.8" font-family="Helvetica,sans-Serif" font-weight="bold" font-size="11.00" fill="#000000">plan</text>
<text text-anchor="start" x="146.5437" y="-463.3" font-family="Helvetica,sans-Serif" font-size="11.00" fill="#000000">[table]</text>
<polygon fill="none" stroke="#000000" points="8.5,-433.2 8.5,-455.2 181.5,-455.2 181.5,-433.2 8.5,-433.2"/>
<image xlink:href="../../images/primaryKeys.png" width="11px" height="12px" preserveAspectRatio="xMinYMin meet" x="13.5" y="-450.2"/>
<text text-anchor="start" x="28.5" y="-440.3" font-family="Helvetica,sans-Serif" font-size="11.00" fill="#000000">plan_id</text>
<polygon fill="none" stroke="#000000" points="8.5,-414.2 8.5,-433.2 181.5,-433.2 181.5,-414.2 8.5,-414.2"/>
<text text-anchor="start" x="11.5" y="-420.3" font-family="Helvetica,sans-Serif" font-size="11.00" fill="#000000">...</text>
<polygon fill="#ffffff" stroke="transparent" points="8.5,-395.2 8.5,-414.2 88.5,-414.2 88.5,-395.2 8.5,-395.2"/>
<polygon fill="none" stroke="#000000" points="8.5,-395.2 8.5,-414.2 88.5,-414.2 88.5,-395.2 8.5,-395.2"/>
<text text-anchor="start" x="11.5" y="-401.3" font-family="Helvetica,sans-Serif" font-size="11.00" fill="#000000">&lt; 1</text>
<polygon fill="#ffffff" stroke="transparent" points="88.5,-395.2 88.5,-414.2 130.5,-414.2 130.5,-395.2 88.5,-395.2"/>
<polygon fill="none" stroke="#000000" points="88.5,-395.2 88.5,-414.2 130.5,-414.2 130.5,-395.2 88.5,-395.2"/>
<text text-anchor="start" x="121.3862" y="-401.3" font-family="Helvetica,sans-Serif" font-size="11.00" fill="#000000"> &#160;</text>
<polygon fill="#ffffff" stroke="transparent" points="130.5,-395.2 130.5,-414.2 181.5,-414.2 181.5,-395.2 130.5,-395.2"/>
<polygon fill="none" stroke="#000000" points="130.5,-395.2 130.5,-414.2 181.5,-414.2 181.5,-395.2 130.5,-395.2"/>
<text text-anchor="start" x="162.9053" y="-401.3" font-family="Helvetica,sans-Serif" font-size="11.00" fill="#000000">4 &gt;</text>
</a>
</g>
</g>
<!-- review_audit&#45;&gt;plan -->
<g id="edge2" class="edge">
<title>review_audit:w&#45;&gt;plan:e</title>
<path fill="none" stroke="#000000" stroke-dasharray="5,2" d="M217.776,-444.2C205.7815,-444.2 198.3229,-444.2 181.5,-444.2"/>
<polygon fill="#000000" stroke="#000000" points="224.5,-444.2001 232.5,-447.8 228.5,-444.2 232.5,-444.2 232.5,-444.2 232.5,-444.2 228.5,-444.2 232.5,-440.6 224.5,-444.2001 224.5,-444.2001"/>
<ellipse fill="none" stroke="#000000" cx="221.3" cy="-444.2001" rx="3.2" ry="3.2"/>
</g>
</g>
</svg>
