<?xml version="1.0" encoding="UTF-8" standalone="no"?>
<!DOCTYPE svg PUBLIC "-//W3C//DTD SVG 1.1//EN"
 "http://www.w3.org/Graphics/SVG/1.1/DTD/svg11.dtd">
<!-- Generated by graphviz version 2.40.1 (20161225.0304)
 -->
<!-- Title: oneDegreeRelationshipsDiagramImplied Pages: 1 -->
<svg width="629pt" height="382pt"
 viewBox="0.00 0.00 629.00 382.20" xmlns="http://www.w3.org/2000/svg" xmlns:xlink="http://www.w3.org/1999/xlink">
<g id="graph0" class="graph" transform="scale(1 1) rotate(0) translate(4 378.2)">
<title>oneDegreeRelationshipsDiagramImplied</title>
<polygon fill="#ffffff" stroke="transparent" points="-4,4 -4,-378.2 625,-378.2 625,4 -4,4"/>
<text text-anchor="middle" x="72.4936" y="-7.3" font-family="Helvetica,sans-Serif" font-size="11.00" fill="#000000">Generated by SchemaSpy</text>
<!-- safer_custody_screening_outcome_audit -->
<g id="node1" class="node">
<title>safer_custody_screening_outcome_audit</title>
<g id="a_node1"><a xlink:href="../../tables/safer_custody_screening_outcome_audit.html" xlink:title="safer_custody_screening_outcome_audit" target="_top">
<polygon fill="#ffffff" stroke="transparent" points="223,-38.2 223,-370.2 613,-370.2 613,-38.2 223,-38.2"/>
<polygon fill="#f5f5f5" stroke="transparent" points="225,-345.2 225,-368.2 611,-368.2 611,-345.2 225,-345.2"/>
<polygon fill="none" stroke="#000000" points="225,-345.2 225,-368.2 611,-368.2 611,-345.2 225,-345.2"/>
<text text-anchor="start" x="230" y="-353.8" font-family="Helvetica,sans-Serif" font-weight="bold" font-size="11.00" fill="#000000">safer_custody_screening_outcome_audit</text>
<text text-anchor="start" x="576.0437" y="-353.3" font-family="Helvetica,sans-Serif" font-size="11.00" fill="#000000">[table]</text>
<polygon fill="none" stroke="#000000" points="225,-323.2 225,-345.2 517,-345.2 517,-323.2 225,-323.2"/>
<image xlink:href="../../images/primaryKeys.png" width="11px" height="12px" preserveAspectRatio="xMinYMin meet" x="230" y="-340.2"/>
<text text-anchor="start" x="245" y="-330.3" font-family="Helvetica,sans-Serif" font-size="11.00" fill="#000000">rev_id</text>
<polygon fill="none" stroke="#000000" points="517,-323.2 517,-345.2 611,-345.2 611,-323.2 517,-323.2"/>
<text text-anchor="start" x="520" y="-330.9" font-family="Helvetica,sans-Serif" font-size="11.00" fill="#000000">int8[19]</text>
<polygon fill="none" stroke="#000000" points="225,-301.2 225,-323.2 517,-323.2 517,-301.2 225,-301.2"/>
<text text-anchor="start" x="245" y="-308.3" font-family="Helvetica,sans-Serif" font-size="11.00" fill="#000000">rev_type</text>
<polygon fill="none" stroke="#000000" points="517,-301.2 517,-323.2 611,-323.2 611,-301.2 517,-301.2"/>
<text text-anchor="start" x="520" y="-308.9" font-family="Helvetica,sans-Serif" font-size="11.00" fill="#000000">int2[5]</text>
<polygon fill="none" stroke="#000000" points="225,-279.2 225,-301.2 517,-301.2 517,-279.2 225,-279.2"/>
<image xlink:href="../../images/primaryKeys.png" width="11px" height="12px" preserveAspectRatio="xMinYMin meet" x="230" y="-296.2"/>
<text text-anchor="start" x="245" y="-286.3" font-family="Helvetica,sans-Serif" font-size="11.00" fill="#000000">safer_custody_screening_outcome_id</text>
<polygon fill="none" stroke="#000000" points="517,-279.2 517,-301.2 611,-301.2 611,-279.2 517,-279.2"/>
<text text-anchor="start" x="519.9758" y="-286.9" font-family="Helvetica,sans-Serif" font-size="11.00" fill="#000000">uuid[2147483647]</text>
<polygon fill="none" stroke="#000000" points="225,-257.2 225,-279.2 517,-279.2 517,-257.2 225,-257.2"/>
<image xlink:href="../../images/foreignKeys.png" width="11px" height="12px" preserveAspectRatio="xMinYMin meet" x="230" y="-274.2"/>
<text text-anchor="start" x="245" y="-264.3" font-family="Helvetica,sans-Serif" font-size="11.00" fill="#000000">outcome_id</text>
<polygon fill="none" stroke="#000000" points="517,-257.2 517,-279.2 611,-279.2 611,-257.2 517,-257.2"/>
<text text-anchor="start" x="520" y="-264.9" font-family="Helvetica,sans-Serif" font-size="11.00" fill="#000000">int8[19]</text>
<polygon fill="none" stroke="#000000" points="225,-235.2 225,-257.2 517,-257.2 517,-235.2 225,-235.2"/>
<text text-anchor="start" x="245" y="-242.3" font-family="Helvetica,sans-Serif" font-size="11.00" fill="#000000">recorded_by</text>
<polygon fill="none" stroke="#000000" points="517,-235.2 517,-257.2 611,-257.2 611,-235.2 517,-235.2"/>
<text text-anchor="start" x="520" y="-242.9" font-family="Helvetica,sans-Serif" font-size="11.00" fill="#000000">varchar[64]</text>
<polygon fill="none" stroke="#000000" points="225,-213.2 225,-235.2 517,-235.2 517,-213.2 225,-213.2"/>
<text text-anchor="start" x="245" y="-220.3" font-family="Helvetica,sans-Serif" font-size="11.00" fill="#000000">recorded_by_display_name</text>
<polygon fill="none" stroke="#000000" points="517,-213.2 517,-235.2 611,-235.2 611,-213.2 517,-213.2"/>
<text text-anchor="start" x="520" y="-220.9" font-family="Helvetica,sans-Serif" font-size="11.00" fill="#000000">varchar[255]</text>
<polygon fill="none" stroke="#000000" points="225,-191.2 225,-213.2 517,-213.2 517,-191.2 225,-191.2"/>
<text text-anchor="start" x="245" y="-198.3" font-family="Helvetica,sans-Serif" font-size="11.00" fill="#000000">date</text>
<polygon fill="none" stroke="#000000" points="517,-191.2 517,-213.2 611,-213.2 611,-191.2 517,-191.2"/>
<text text-anchor="start" x="520" y="-198.9" font-family="Helvetica,sans-Serif" font-size="11.00" fill="#000000">date[13]</text>
<polygon fill="none" stroke="#000000" points="225,-169.2 225,-191.2 517,-191.2 517,-169.2 225,-169.2"/>
<text text-anchor="start" x="245" y="-176.3" font-family="Helvetica,sans-Serif" font-size="11.00" fill="#000000">reason_for_decision</text>
<polygon fill="none" stroke="#000000" points="517,-169.2 517,-191.2 611,-191.2 611,-169.2 517,-169.2"/>
<text text-anchor="start" x="520" y="-176.9" font-family="Helvetica,sans-Serif" font-size="11.00" fill="#000000">text[2147483647]</text>
<polygon fill="none" stroke="#000000" points="225,-147.2 225,-169.2 517,-169.2 517,-147.2 225,-147.2"/>
<text text-anchor="start" x="245" y="-154.3" font-family="Helvetica,sans-Serif" font-size="11.00" fill="#000000">outcome_modified</text>
<polygon fill="none" stroke="#000000" points="517,-147.2 517,-169.2 611,-169.2 611,-147.2 517,-147.2"/>
<text text-anchor="start" x="520" y="-154.9" font-family="Helvetica,sans-Serif" font-size="11.00" fill="#000000">bool[1]</text>
<polygon fill="none" stroke="#000000" points="225,-125.2 225,-147.2 517,-147.2 517,-125.2 225,-125.2"/>
<text text-anchor="start" x="245" y="-132.3" font-family="Helvetica,sans-Serif" font-size="11.00" fill="#000000">recorded_by_modified</text>
<polygon fill="none" stroke="#000000" points="517,-125.2 517,-147.2 611,-147.2 611,-125.2 517,-125.2"/>
<text text-anchor="start" x="520" y="-132.9" font-family="Helvetica,sans-Serif" font-size="11.00" fill="#000000">bool[1]</text>
<polygon fill="none" stroke="#000000" points="225,-103.2 225,-125.2 517,-125.2 517,-103.2 225,-103.2"/>
<text text-anchor="start" x="245" y="-110.3" font-family="Helvetica,sans-Serif" font-size="11.00" fill="#000000">recorded_by_display_name_modified</text>
<polygon fill="none" stroke="#000000" points="517,-103.2 517,-125.2 611,-125.2 611,-103.2 517,-103.2"/>
<text text-anchor="start" x="520" y="-110.9" font-family="Helvetica,sans-Serif" font-size="11.00" fill="#000000">bool[1]</text>
<polygon fill="none" stroke="#000000" points="225,-81.2 225,-103.2 517,-103.2 517,-81.2 225,-81.2"/>
<text text-anchor="start" x="245" y="-88.3" font-family="Helvetica,sans-Serif" font-size="11.00" fill="#000000">date_modified</text>
<polygon fill="none" stroke="#000000" points="517,-81.2 517,-103.2 611,-103.2 611,-81.2 517,-81.2"/>
<text text-anchor="start" x="520" y="-88.9" font-family="Helvetica,sans-Serif" font-size="11.00" fill="#000000">bool[1]</text>
<polygon fill="none" stroke="#000000" points="225,-59.2 225,-81.2 517,-81.2 517,-59.2 225,-59.2"/>
<text text-anchor="start" x="245" y="-66.3" font-family="Helvetica,sans-Serif" font-size="11.00" fill="#000000">reason_for_decision_modified</text>
<polygon fill="none" stroke="#000000" points="517,-59.2 517,-81.2 611,-81.2 611,-59.2 517,-59.2"/>
<text text-anchor="start" x="520" y="-66.9" font-family="Helvetica,sans-Serif" font-size="11.00" fill="#000000">bool[1]</text>
<polygon fill="#ffffff" stroke="transparent" points="225,-40.2 225,-59.2 375,-59.2 375,-40.2 225,-40.2"/>
<polygon fill="none" stroke="#000000" points="225,-40.2 225,-59.2 375,-59.2 375,-40.2 225,-40.2"/>
<text text-anchor="start" x="228" y="-46.3" font-family="Helvetica,sans-Serif" font-size="11.00" fill="#000000">&lt; 2</text>
<polygon fill="#ffffff" stroke="transparent" points="375,-40.2 375,-59.2 517,-59.2 517,-40.2 375,-40.2"/>
<polygon fill="none" stroke="#000000" points="375,-40.2 375,-59.2 517,-59.2 517,-40.2 375,-40.2"/>
<text text-anchor="start" x="507.8862" y="-46.3" font-family="Helvetica,sans-Serif" font-size="11.00" fill="#000000"> &#160;</text>
<polygon fill="#ffffff" stroke="transparent" points="517,-40.2 517,-59.2 611,-59.2 611,-40.2 517,-40.2"/>
<polygon fill="none" stroke="#000000" points="517,-40.2 517,-59.2 611,-59.2 611,-40.2 517,-40.2"/>
<text text-anchor="start" x="592.4053" y="-46.3" font-family="Helvetica,sans-Serif" font-size="11.00" fill="#000000">0 &gt;</text>
<polygon fill="none" stroke="#000000" stroke-width="2" points="224,-39.2 224,-369.2 612,-369.2 612,-39.2 224,-39.2"/>
</a>
</g>
</g>
<!-- audit_revision -->
<g id="node2" class="node">
<title>audit_revision</title>
<g id="a_node2"><a xlink:href="../../tables/audit_revision.html" xlink:title="audit_revision" target="_top">
<polygon fill="#ffffff" stroke="transparent" points="8,-252.7 8,-335.7 174,-335.7 174,-252.7 8,-252.7"/>
<polygon fill="#f5f5f5" stroke="transparent" points="8,-312.2 8,-335.2 174,-335.2 174,-312.2 8,-312.2"/>
<polygon fill="none" stroke="#000000" points="8,-312.2 8,-335.2 174,-335.2 174,-312.2 8,-312.2"/>
<text text-anchor="start" x="13" y="-320.8" font-family="Helvetica,sans-Serif" font-weight="bold" font-size="11.00" fill="#000000">audit_revision</text>
<text text-anchor="start" x="139.0437" y="-320.3" font-family="Helvetica,sans-Serif" font-size="11.00" fill="#000000">[table]</text>
<polygon fill="none" stroke="#000000" points="8,-290.2 8,-312.2 174,-312.2 174,-290.2 8,-290.2"/>
<image xlink:href="../../images/primaryKeys.png" width="11px" height="12px" preserveAspectRatio="xMinYMin meet" x="13" y="-307.2"/>
<text text-anchor="start" x="28" y="-297.3" font-family="Helvetica,sans-Serif" font-size="11.00" fill="#000000">id</text>
<polygon fill="none" stroke="#000000" points="8,-271.2 8,-290.2 174,-290.2 174,-271.2 8,-271.2"/>
<text text-anchor="start" x="11" y="-277.3" font-family="Helvetica,sans-Serif" font-size="11.00" fill="#000000">...</text>
<polygon fill="#ffffff" stroke="transparent" points="8,-252.2 8,-271.2 77,-271.2 77,-252.2 8,-252.2"/>
<polygon fill="none" stroke="#000000" points="8,-252.2 8,-271.2 77,-271.2 77,-252.2 8,-252.2"/>
<text text-anchor="start" x="11" y="-258.3" font-family="Helvetica,sans-Serif" font-size="11.00" fill="#000000"> &#160;</text>
<polygon fill="#ffffff" stroke="transparent" points="77,-252.2 77,-271.2 118,-271.2 118,-252.2 77,-252.2"/>
<polygon fill="none" stroke="#000000" points="77,-252.2 77,-271.2 118,-271.2 118,-252.2 77,-252.2"/>
<text text-anchor="start" x="108.8862" y="-258.3" font-family="Helvetica,sans-Serif" font-size="11.00" fill="#000000"> &#160;</text>
<polygon fill="#ffffff" stroke="transparent" points="118,-252.2 118,-271.2 174,-271.2 174,-252.2 118,-252.2"/>
<polygon fill="none" stroke="#000000" points="118,-252.2 118,-271.2 174,-271.2 174,-252.2 118,-252.2"/>
<text text-anchor="start" x="149.2904" y="-258.3" font-family="Helvetica,sans-Serif" font-size="11.00" fill="#000000">32 &gt;</text>
</a>
</g>
</g>
<!-- safer_custody_screening_outcome_audit&#45;&gt;audit_revision -->
<g id="edge1" class="edge">
<title>safer_custody_screening_outcome_audit:w&#45;&gt;audit_revision:e</title>
<path fill="none" stroke="#000000" stroke-dasharray="5,2" d="M210.9604,-272.2464C197.8775,-281.0584 195.0921,-301.2 174,-301.2"/>
<polygon fill="#000000" stroke="#000000" points="217.3129,-270.4156 225.997,-271.6592 221.1565,-269.3078 225,-268.2 225,-268.2 225,-268.2 221.1565,-269.3078 224.003,-264.7408 217.3129,-270.4156 217.3129,-270.4156"/>
<ellipse fill="none" stroke="#000000" cx="214.2381" cy="-271.3018" rx="3.2" ry="3.2"/>
</g>
<!-- safer_custody_screening_outcome_audit&#45;&gt;audit_revision -->
<g id="edge2" class="edge">
<title>safer_custody_screening_outcome_audit:w&#45;&gt;audit_revision:e</title>
<path fill="none" stroke="#000000" d="M210.9604,-330.1536C197.8775,-321.3416 195.0921,-301.2 174,-301.2"/>
<polygon fill="#000000" stroke="#000000" points="217.3129,-331.9844 224.003,-337.6592 221.1565,-333.0922 225,-334.2 225,-334.2 225,-334.2 221.1565,-333.0922 225.997,-330.7408 217.3129,-331.9844 217.3129,-331.9844"/>
<ellipse fill="none" stroke="#000000" cx="214.2381" cy="-331.0982" rx="3.2" ry="3.2"/>
</g>
</g>
</svg>
