<?xml version="1.0" encoding="UTF-8" standalone="no"?>
<!DOCTYPE svg PUBLIC "-//W3C//DTD SVG 1.1//EN"
 "http://www.w3.org/Graphics/SVG/1.1/DTD/svg11.dtd">
<!-- Generated by graphviz version 2.40.1 (20161225.0304)
 -->
<!-- Title: twoDegreesRelationshipsDiagram Pages: 1 -->
<svg width="629pt" height="1285pt"
 viewBox="0.00 0.00 629.00 1284.70" xmlns="http://www.w3.org/2000/svg" xmlns:xlink="http://www.w3.org/1999/xlink">
<g id="graph0" class="graph" transform="scale(1 1) rotate(0) translate(4 1280.7)">
<title>twoDegreesRelationshipsDiagram</title>
<polygon fill="#ffffff" stroke="transparent" points="-4,4 -4,-1280.7 625,-1280.7 625,4 -4,4"/>
<text text-anchor="middle" x="72.4936" y="-7.3" font-family="Helvetica,sans-Serif" font-size="11.00" fill="#000000">Generated by SchemaSpy</text>
<!-- attendee_audit -->
<g id="node1" class="node">
<title>attendee_audit</title>
<g id="a_node1"><a xlink:href="../../tables/attendee_audit.html" xlink:title="attendee_audit" target="_top">
<polygon fill="#ffffff" stroke="transparent" points="347.5,-1211.7 347.5,-1272.7 488.5,-1272.7 488.5,-1211.7 347.5,-1211.7"/>
<polygon fill="#f5f5f5" stroke="transparent" points="348,-1249.2 348,-1272.2 489,-1272.2 489,-1249.2 348,-1249.2"/>
<polygon fill="none" stroke="#000000" points="348,-1249.2 348,-1272.2 489,-1272.2 489,-1249.2 348,-1249.2"/>
<text text-anchor="start" x="353" y="-1257.8" font-family="Helvetica,sans-Serif" font-weight="bold" font-size="11.00" fill="#000000">attendee_audit</text>
<text text-anchor="start" x="454.5219" y="-1257.3" font-family="Helvetica,sans-Serif" font-size="11.00" fill="#000000">[table]</text>
<polygon fill="none" stroke="#000000" points="348,-1230.2 348,-1249.2 489,-1249.2 489,-1230.2 348,-1230.2"/>
<text text-anchor="start" x="351" y="-1236.3" font-family="Helvetica,sans-Serif" font-size="11.00" fill="#000000">...</text>
<polygon fill="#ffffff" stroke="transparent" points="348,-1211.2 348,-1230.2 417,-1230.2 417,-1211.2 348,-1211.2"/>
<polygon fill="none" stroke="#000000" points="348,-1211.2 348,-1230.2 417,-1230.2 417,-1211.2 348,-1211.2"/>
<text text-anchor="start" x="351" y="-1217.3" font-family="Helvetica,sans-Serif" font-size="11.00" fill="#000000">&lt; 1</text>
<polygon fill="#ffffff" stroke="transparent" points="417,-1211.2 417,-1230.2 453,-1230.2 453,-1211.2 417,-1211.2"/>
<polygon fill="none" stroke="#000000" points="417,-1211.2 417,-1230.2 453,-1230.2 453,-1211.2 417,-1211.2"/>
<text text-anchor="start" x="443.8862" y="-1217.3" font-family="Helvetica,sans-Serif" font-size="11.00" fill="#000000"> &#160;</text>
<polygon fill="#ffffff" stroke="transparent" points="453,-1211.2 453,-1230.2 489,-1230.2 489,-1211.2 453,-1211.2"/>
<polygon fill="none" stroke="#000000" points="453,-1211.2 453,-1230.2 489,-1230.2 489,-1211.2 453,-1211.2"/>
<text text-anchor="start" x="479.8862" y="-1217.3" font-family="Helvetica,sans-Serif" font-size="11.00" fill="#000000"> &#160;</text>
</a>
</g>
</g>
<!-- audit_revision -->
<g id="node2" class="node">
<title>audit_revision</title>
<g id="a_node2"><a xlink:href="../../tables/audit_revision.html" xlink:title="audit_revision" target="_top">
<polygon fill="#ffffff" stroke="transparent" points="8,-739.7 8,-822.7 174,-822.7 174,-739.7 8,-739.7"/>
<polygon fill="#f5f5f5" stroke="transparent" points="8,-799.2 8,-822.2 174,-822.2 174,-799.2 8,-799.2"/>
<polygon fill="none" stroke="#000000" points="8,-799.2 8,-822.2 174,-822.2 174,-799.2 8,-799.2"/>
<text text-anchor="start" x="13" y="-807.8" font-family="Helvetica,sans-Serif" font-weight="bold" font-size="11.00" fill="#000000">audit_revision</text>
<text text-anchor="start" x="139.0437" y="-807.3" font-family="Helvetica,sans-Serif" font-size="11.00" fill="#000000">[table]</text>
<polygon fill="none" stroke="#000000" points="8,-777.2 8,-799.2 174,-799.2 174,-777.2 8,-777.2"/>
<image xlink:href="../../images/primaryKeys.png" width="11px" height="12px" preserveAspectRatio="xMinYMin meet" x="13" y="-794.2"/>
<text text-anchor="start" x="28" y="-784.3" font-family="Helvetica,sans-Serif" font-size="11.00" fill="#000000">id</text>
<polygon fill="none" stroke="#000000" points="8,-758.2 8,-777.2 174,-777.2 174,-758.2 8,-758.2"/>
<text text-anchor="start" x="11" y="-764.3" font-family="Helvetica,sans-Serif" font-size="11.00" fill="#000000">...</text>
<polygon fill="#ffffff" stroke="transparent" points="8,-739.2 8,-758.2 77,-758.2 77,-739.2 8,-739.2"/>
<polygon fill="none" stroke="#000000" points="8,-739.2 8,-758.2 77,-758.2 77,-739.2 8,-739.2"/>
<text text-anchor="start" x="11" y="-745.3" font-family="Helvetica,sans-Serif" font-size="11.00" fill="#000000"> &#160;</text>
<polygon fill="#ffffff" stroke="transparent" points="77,-739.2 77,-758.2 118,-758.2 118,-739.2 77,-739.2"/>
<polygon fill="none" stroke="#000000" points="77,-739.2 77,-758.2 118,-758.2 118,-739.2 77,-739.2"/>
<text text-anchor="start" x="108.8862" y="-745.3" font-family="Helvetica,sans-Serif" font-size="11.00" fill="#000000"> &#160;</text>
<polygon fill="#ffffff" stroke="transparent" points="118,-739.2 118,-758.2 174,-758.2 174,-739.2 118,-739.2"/>
<polygon fill="none" stroke="#000000" points="118,-739.2 118,-758.2 174,-758.2 174,-739.2 118,-739.2"/>
<text text-anchor="start" x="149.2904" y="-745.3" font-family="Helvetica,sans-Serif" font-size="11.00" fill="#000000">12 &gt;</text>
</a>
</g>
</g>
<!-- attendee_audit&#45;&gt;audit_revision -->
<g id="edge1" class="edge">
<title>attendee_audit:w&#45;&gt;audit_revision:e</title>
<path fill="none" stroke="#000000" d="M333.4434,-1239.3493C281.2047,-1240.3282 251.1705,-1244.5178 215,-1201.2 155.8867,-1130.406 266.2289,-788.2 174,-788.2"/>
<polygon fill="#000000" stroke="#000000" points="340.0004,-1239.2821 348.0369,-1242.7998 344.0002,-1239.2411 348,-1239.2 348,-1239.2 348,-1239.2 344.0002,-1239.2411 347.9631,-1235.6002 340.0004,-1239.2821 340.0004,-1239.2821"/>
<ellipse fill="none" stroke="#000000" cx="336.8006" cy="-1239.3149" rx="3.2" ry="3.2"/>
</g>
<!-- contributory_factor_audit -->
<g id="node3" class="node">
<title>contributory_factor_audit</title>
<g id="a_node3"><a xlink:href="../../tables/contributory_factor_audit.html" xlink:title="contributory_factor_audit" target="_top">
<polygon fill="#ffffff" stroke="transparent" points="313,-1129.7 313,-1190.7 523,-1190.7 523,-1129.7 313,-1129.7"/>
<polygon fill="#f5f5f5" stroke="transparent" points="313,-1167.2 313,-1190.2 523,-1190.2 523,-1167.2 313,-1167.2"/>
<polygon fill="none" stroke="#000000" points="313,-1167.2 313,-1190.2 523,-1190.2 523,-1167.2 313,-1167.2"/>
<text text-anchor="start" x="318" y="-1175.8" font-family="Helvetica,sans-Serif" font-weight="bold" font-size="11.00" fill="#000000">contributory_factor_audit</text>
<text text-anchor="start" x="488.5219" y="-1175.3" font-family="Helvetica,sans-Serif" font-size="11.00" fill="#000000">[table]</text>
<polygon fill="none" stroke="#000000" points="313,-1148.2 313,-1167.2 523,-1167.2 523,-1148.2 313,-1148.2"/>
<text text-anchor="start" x="316" y="-1154.3" font-family="Helvetica,sans-Serif" font-size="11.00" fill="#000000">...</text>
<polygon fill="#ffffff" stroke="transparent" points="313,-1129.2 313,-1148.2 416,-1148.2 416,-1129.2 313,-1129.2"/>
<polygon fill="none" stroke="#000000" points="313,-1129.2 313,-1148.2 416,-1148.2 416,-1129.2 313,-1129.2"/>
<text text-anchor="start" x="316" y="-1135.3" font-family="Helvetica,sans-Serif" font-size="11.00" fill="#000000">&lt; 1</text>
<polygon fill="#ffffff" stroke="transparent" points="416,-1129.2 416,-1148.2 469,-1148.2 469,-1129.2 416,-1129.2"/>
<polygon fill="none" stroke="#000000" points="416,-1129.2 416,-1148.2 469,-1148.2 469,-1129.2 416,-1129.2"/>
<text text-anchor="start" x="459.8862" y="-1135.3" font-family="Helvetica,sans-Serif" font-size="11.00" fill="#000000"> &#160;</text>
<polygon fill="#ffffff" stroke="transparent" points="469,-1129.2 469,-1148.2 523,-1148.2 523,-1129.2 469,-1129.2"/>
<polygon fill="none" stroke="#000000" points="469,-1129.2 469,-1148.2 523,-1148.2 523,-1129.2 469,-1129.2"/>
<text text-anchor="start" x="513.8862" y="-1135.3" font-family="Helvetica,sans-Serif" font-size="11.00" fill="#000000"> &#160;</text>
</a>
</g>
</g>
<!-- contributory_factor_audit&#45;&gt;audit_revision -->
<g id="edge2" class="edge">
<title>contributory_factor_audit:w&#45;&gt;audit_revision:e</title>
<path fill="none" stroke="#000000" d="M298.4986,-1157.1134C261.2746,-1156.5205 240.577,-1152.0155 215,-1119.2 169.4364,-1060.7416 248.1177,-788.2 174,-788.2"/>
<polygon fill="#000000" stroke="#000000" points="305.0001,-1157.1522 312.9785,-1160.7999 309.0001,-1157.1761 313,-1157.2 313,-1157.2 313,-1157.2 309.0001,-1157.1761 313.0215,-1153.6001 305.0001,-1157.1522 305.0001,-1157.1522"/>
<ellipse fill="none" stroke="#000000" cx="301.8002" cy="-1157.133" rx="3.2" ry="3.2"/>
</g>
<!-- csip_record_audit -->
<g id="node4" class="node">
<title>csip_record_audit</title>
<g id="a_node4"><a xlink:href="../../tables/csip_record_audit.html" xlink:title="csip_record_audit" target="_top">
<polygon fill="#ffffff" stroke="transparent" points="340,-1047.7 340,-1108.7 496,-1108.7 496,-1047.7 340,-1047.7"/>
<polygon fill="#f5f5f5" stroke="transparent" points="340,-1085.2 340,-1108.2 496,-1108.2 496,-1085.2 340,-1085.2"/>
<polygon fill="none" stroke="#000000" points="340,-1085.2 340,-1108.2 496,-1108.2 496,-1085.2 340,-1085.2"/>
<text text-anchor="start" x="345" y="-1093.8" font-family="Helvetica,sans-Serif" font-weight="bold" font-size="11.00" fill="#000000">csip_record_audit</text>
<text text-anchor="start" x="461.5219" y="-1093.3" font-family="Helvetica,sans-Serif" font-size="11.00" fill="#000000">[table]</text>
<polygon fill="none" stroke="#000000" points="340,-1066.2 340,-1085.2 496,-1085.2 496,-1066.2 340,-1066.2"/>
<text text-anchor="start" x="343" y="-1072.3" font-family="Helvetica,sans-Serif" font-size="11.00" fill="#000000">...</text>
<polygon fill="#ffffff" stroke="transparent" points="340,-1047.2 340,-1066.2 416,-1066.2 416,-1047.2 340,-1047.2"/>
<polygon fill="none" stroke="#000000" points="340,-1047.2 340,-1066.2 416,-1066.2 416,-1047.2 340,-1047.2"/>
<text text-anchor="start" x="343" y="-1053.3" font-family="Helvetica,sans-Serif" font-size="11.00" fill="#000000">&lt; 1</text>
<polygon fill="#ffffff" stroke="transparent" points="416,-1047.2 416,-1066.2 456,-1066.2 456,-1047.2 416,-1047.2"/>
<polygon fill="none" stroke="#000000" points="416,-1047.2 416,-1066.2 456,-1066.2 456,-1047.2 416,-1047.2"/>
<text text-anchor="start" x="446.8862" y="-1053.3" font-family="Helvetica,sans-Serif" font-size="11.00" fill="#000000"> &#160;</text>
<polygon fill="#ffffff" stroke="transparent" points="456,-1047.2 456,-1066.2 496,-1066.2 496,-1047.2 456,-1047.2"/>
<polygon fill="none" stroke="#000000" points="456,-1047.2 456,-1066.2 496,-1066.2 496,-1047.2 456,-1047.2"/>
<text text-anchor="start" x="486.8862" y="-1053.3" font-family="Helvetica,sans-Serif" font-size="11.00" fill="#000000"> &#160;</text>
</a>
</g>
</g>
<!-- csip_record_audit&#45;&gt;audit_revision -->
<g id="edge3" class="edge">
<title>csip_record_audit:w&#45;&gt;audit_revision:e</title>
<path fill="none" stroke="#000000" d="M325.3444,-1075.2942C276.8201,-1075.8165 249.9001,-1077.0373 215,-1037.2 178.0466,-995.019 230.0784,-788.2 174,-788.2"/>
<polygon fill="#000000" stroke="#000000" points="332.0002,-1075.2515 340.0232,-1078.7999 336.0001,-1075.2257 340,-1075.2 340,-1075.2 340,-1075.2 336.0001,-1075.2257 339.9768,-1071.6001 332.0002,-1075.2515 332.0002,-1075.2515"/>
<ellipse fill="none" stroke="#000000" cx="328.8002" cy="-1075.272" rx="3.2" ry="3.2"/>
</g>
<!-- decision_and_actions_audit -->
<g id="node5" class="node">
<title>decision_and_actions_audit</title>
<g id="a_node5"><a xlink:href="../../tables/decision_and_actions_audit.html" xlink:title="decision_and_actions_audit" target="_top">
<polygon fill="#ffffff" stroke="transparent" points="307,-965.7 307,-1026.7 529,-1026.7 529,-965.7 307,-965.7"/>
<polygon fill="#f5f5f5" stroke="transparent" points="307,-1003.2 307,-1026.2 529,-1026.2 529,-1003.2 307,-1003.2"/>
<polygon fill="none" stroke="#000000" points="307,-1003.2 307,-1026.2 529,-1026.2 529,-1003.2 307,-1003.2"/>
<text text-anchor="start" x="312" y="-1011.8" font-family="Helvetica,sans-Serif" font-weight="bold" font-size="11.00" fill="#000000">decision_and_actions_audit</text>
<text text-anchor="start" x="494.5219" y="-1011.3" font-family="Helvetica,sans-Serif" font-size="11.00" fill="#000000">[table]</text>
<polygon fill="none" stroke="#000000" points="307,-984.2 307,-1003.2 529,-1003.2 529,-984.2 307,-984.2"/>
<text text-anchor="start" x="310" y="-990.3" font-family="Helvetica,sans-Serif" font-size="11.00" fill="#000000">...</text>
<polygon fill="#ffffff" stroke="transparent" points="307,-965.2 307,-984.2 416,-984.2 416,-965.2 307,-965.2"/>
<polygon fill="none" stroke="#000000" points="307,-965.2 307,-984.2 416,-984.2 416,-965.2 307,-965.2"/>
<text text-anchor="start" x="310" y="-971.3" font-family="Helvetica,sans-Serif" font-size="11.00" fill="#000000">&lt; 1</text>
<polygon fill="#ffffff" stroke="transparent" points="416,-965.2 416,-984.2 472,-984.2 472,-965.2 416,-965.2"/>
<polygon fill="none" stroke="#000000" points="416,-965.2 416,-984.2 472,-984.2 472,-965.2 416,-965.2"/>
<text text-anchor="start" x="462.8862" y="-971.3" font-family="Helvetica,sans-Serif" font-size="11.00" fill="#000000"> &#160;</text>
<polygon fill="#ffffff" stroke="transparent" points="472,-965.2 472,-984.2 529,-984.2 529,-965.2 472,-965.2"/>
<polygon fill="none" stroke="#000000" points="472,-965.2 472,-984.2 529,-984.2 529,-965.2 472,-965.2"/>
<text text-anchor="start" x="519.8862" y="-971.3" font-family="Helvetica,sans-Serif" font-size="11.00" fill="#000000"> &#160;</text>
</a>
</g>
</g>
<!-- decision_and_actions_audit&#45;&gt;audit_revision -->
<g id="edge4" class="edge">
<title>decision_and_actions_audit:w&#45;&gt;audit_revision:e</title>
<path fill="none" stroke="#000000" d="M292.4332,-992.9771C258.1886,-991.7578 240.4552,-984.82 215,-955.2 165.1872,-897.2373 250.4264,-788.2 174,-788.2"/>
<polygon fill="#000000" stroke="#000000" points="299.0009,-993.0775 306.9449,-996.7996 303.0005,-993.1388 307,-993.2 307,-993.2 307,-993.2 303.0005,-993.1388 307.0551,-989.6004 299.0009,-993.0775 299.0009,-993.0775"/>
<ellipse fill="none" stroke="#000000" cx="295.8013" cy="-993.0285" rx="3.2" ry="3.2"/>
</g>
<!-- identified_need_audit -->
<g id="node6" class="node">
<title>identified_need_audit</title>
<g id="a_node6"><a xlink:href="../../tables/identified_need_audit.html" xlink:title="identified_need_audit" target="_top">
<polygon fill="#ffffff" stroke="transparent" points="326,-883.7 326,-944.7 510,-944.7 510,-883.7 326,-883.7"/>
<polygon fill="#f5f5f5" stroke="transparent" points="326,-921.2 326,-944.2 510,-944.2 510,-921.2 326,-921.2"/>
<polygon fill="none" stroke="#000000" points="326,-921.2 326,-944.2 510,-944.2 510,-921.2 326,-921.2"/>
<text text-anchor="start" x="331" y="-929.8" font-family="Helvetica,sans-Serif" font-weight="bold" font-size="11.00" fill="#000000">identified_need_audit</text>
<text text-anchor="start" x="475.5219" y="-929.3" font-family="Helvetica,sans-Serif" font-size="11.00" fill="#000000">[table]</text>
<polygon fill="none" stroke="#000000" points="326,-902.2 326,-921.2 510,-921.2 510,-902.2 326,-902.2"/>
<text text-anchor="start" x="329" y="-908.3" font-family="Helvetica,sans-Serif" font-size="11.00" fill="#000000">...</text>
<polygon fill="#ffffff" stroke="transparent" points="326,-883.2 326,-902.2 416,-902.2 416,-883.2 326,-883.2"/>
<polygon fill="none" stroke="#000000" points="326,-883.2 326,-902.2 416,-902.2 416,-883.2 326,-883.2"/>
<text text-anchor="start" x="329" y="-889.3" font-family="Helvetica,sans-Serif" font-size="11.00" fill="#000000">&lt; 1</text>
<polygon fill="#ffffff" stroke="transparent" points="416,-883.2 416,-902.2 463,-902.2 463,-883.2 416,-883.2"/>
<polygon fill="none" stroke="#000000" points="416,-883.2 416,-902.2 463,-902.2 463,-883.2 416,-883.2"/>
<text text-anchor="start" x="453.8862" y="-889.3" font-family="Helvetica,sans-Serif" font-size="11.00" fill="#000000"> &#160;</text>
<polygon fill="#ffffff" stroke="transparent" points="463,-883.2 463,-902.2 510,-902.2 510,-883.2 463,-883.2"/>
<polygon fill="none" stroke="#000000" points="463,-883.2 463,-902.2 510,-902.2 510,-883.2 463,-883.2"/>
<text text-anchor="start" x="500.8862" y="-889.3" font-family="Helvetica,sans-Serif" font-size="11.00" fill="#000000"> &#160;</text>
</a>
</g>
</g>
<!-- identified_need_audit&#45;&gt;audit_revision -->
<g id="edge5" class="edge">
<title>identified_need_audit:w&#45;&gt;audit_revision:e</title>
<path fill="none" stroke="#000000" d="M311.5995,-911.0769C269.7968,-910.2388 250.1996,-904.423 215,-873.2 183.6225,-845.3673 215.9429,-788.2 174,-788.2"/>
<polygon fill="#000000" stroke="#000000" points="318.0003,-911.1316 325.9692,-914.7999 322.0001,-911.1658 326,-911.2 326,-911.2 326,-911.2 322.0001,-911.1658 326.0308,-907.6001 318.0003,-911.1316 318.0003,-911.1316"/>
<ellipse fill="none" stroke="#000000" cx="314.8004" cy="-911.1042" rx="3.2" ry="3.2"/>
</g>
<!-- interview_audit -->
<g id="node7" class="node">
<title>interview_audit</title>
<g id="a_node7"><a xlink:href="../../tables/interview_audit.html" xlink:title="interview_audit" target="_top">
<polygon fill="#ffffff" stroke="transparent" points="346.5,-801.7 346.5,-862.7 489.5,-862.7 489.5,-801.7 346.5,-801.7"/>
<polygon fill="#f5f5f5" stroke="transparent" points="347,-839.2 347,-862.2 490,-862.2 490,-839.2 347,-839.2"/>
<polygon fill="none" stroke="#000000" points="347,-839.2 347,-862.2 490,-862.2 490,-839.2 347,-839.2"/>
<text text-anchor="start" x="352" y="-847.8" font-family="Helvetica,sans-Serif" font-weight="bold" font-size="11.00" fill="#000000">interview_audit</text>
<text text-anchor="start" x="455.5219" y="-847.3" font-family="Helvetica,sans-Serif" font-size="11.00" fill="#000000">[table]</text>
<polygon fill="none" stroke="#000000" points="347,-820.2 347,-839.2 490,-839.2 490,-820.2 347,-820.2"/>
<text text-anchor="start" x="350" y="-826.3" font-family="Helvetica,sans-Serif" font-size="11.00" fill="#000000">...</text>
<polygon fill="#ffffff" stroke="transparent" points="347,-801.2 347,-820.2 417,-820.2 417,-801.2 347,-801.2"/>
<polygon fill="none" stroke="#000000" points="347,-801.2 347,-820.2 417,-820.2 417,-801.2 347,-801.2"/>
<text text-anchor="start" x="350" y="-807.3" font-family="Helvetica,sans-Serif" font-size="11.00" fill="#000000">&lt; 1</text>
<polygon fill="#ffffff" stroke="transparent" points="417,-801.2 417,-820.2 453,-820.2 453,-801.2 417,-801.2"/>
<polygon fill="none" stroke="#000000" points="417,-801.2 417,-820.2 453,-820.2 453,-801.2 417,-801.2"/>
<text text-anchor="start" x="443.8862" y="-807.3" font-family="Helvetica,sans-Serif" font-size="11.00" fill="#000000"> &#160;</text>
<polygon fill="#ffffff" stroke="transparent" points="453,-801.2 453,-820.2 490,-820.2 490,-801.2 453,-801.2"/>
<polygon fill="none" stroke="#000000" points="453,-801.2 453,-820.2 490,-820.2 490,-801.2 453,-801.2"/>
<text text-anchor="start" x="480.8862" y="-807.3" font-family="Helvetica,sans-Serif" font-size="11.00" fill="#000000"> &#160;</text>
</a>
</g>
</g>
<!-- interview_audit&#45;&gt;audit_revision -->
<g id="edge6" class="edge">
<title>interview_audit:w&#45;&gt;audit_revision:e</title>
<path fill="none" stroke="#000000" d="M332.485,-828.711C265.7864,-824.0852 247.9257,-788.2 174,-788.2"/>
<polygon fill="#000000" stroke="#000000" points="339.0045,-828.9306 346.8788,-832.798 343.0023,-829.0653 347,-829.2 347,-829.2 347,-829.2 343.0023,-829.0653 347.1212,-825.602 339.0045,-828.9306 339.0045,-828.9306"/>
<ellipse fill="none" stroke="#000000" cx="335.8064" cy="-828.8228" rx="3.2" ry="3.2"/>
</g>
<!-- investigation_audit -->
<g id="node8" class="node">
<title>investigation_audit</title>
<g id="a_node8"><a xlink:href="../../tables/investigation_audit.html" xlink:title="investigation_audit" target="_top">
<polygon fill="#ffffff" stroke="transparent" points="333.5,-719.7 333.5,-780.7 502.5,-780.7 502.5,-719.7 333.5,-719.7"/>
<polygon fill="#f5f5f5" stroke="transparent" points="334,-757.2 334,-780.2 503,-780.2 503,-757.2 334,-757.2"/>
<polygon fill="none" stroke="#000000" points="334,-757.2 334,-780.2 503,-780.2 503,-757.2 334,-757.2"/>
<text text-anchor="start" x="339" y="-765.8" font-family="Helvetica,sans-Serif" font-weight="bold" font-size="11.00" fill="#000000">investigation_audit</text>
<text text-anchor="start" x="468.5219" y="-765.3" font-family="Helvetica,sans-Serif" font-size="11.00" fill="#000000">[table]</text>
<polygon fill="none" stroke="#000000" points="334,-738.2 334,-757.2 503,-757.2 503,-738.2 334,-738.2"/>
<text text-anchor="start" x="337" y="-744.3" font-family="Helvetica,sans-Serif" font-size="11.00" fill="#000000">...</text>
<polygon fill="#ffffff" stroke="transparent" points="334,-719.2 334,-738.2 417,-738.2 417,-719.2 334,-719.2"/>
<polygon fill="none" stroke="#000000" points="334,-719.2 334,-738.2 417,-738.2 417,-719.2 334,-719.2"/>
<text text-anchor="start" x="337" y="-725.3" font-family="Helvetica,sans-Serif" font-size="11.00" fill="#000000">&lt; 1</text>
<polygon fill="#ffffff" stroke="transparent" points="417,-719.2 417,-738.2 460,-738.2 460,-719.2 417,-719.2"/>
<polygon fill="none" stroke="#000000" points="417,-719.2 417,-738.2 460,-738.2 460,-719.2 417,-719.2"/>
<text text-anchor="start" x="450.8862" y="-725.3" font-family="Helvetica,sans-Serif" font-size="11.00" fill="#000000"> &#160;</text>
<polygon fill="#ffffff" stroke="transparent" points="460,-719.2 460,-738.2 503,-738.2 503,-719.2 460,-719.2"/>
<polygon fill="none" stroke="#000000" points="460,-719.2 460,-738.2 503,-738.2 503,-719.2 460,-719.2"/>
<text text-anchor="start" x="493.8862" y="-725.3" font-family="Helvetica,sans-Serif" font-size="11.00" fill="#000000"> &#160;</text>
</a>
</g>
</g>
<!-- investigation_audit&#45;&gt;audit_revision -->
<g id="edge7" class="edge">
<title>investigation_audit:w&#45;&gt;audit_revision:e</title>
<path fill="none" stroke="#000000" d="M319.3667,-747.7796C258.4397,-752.7629 242.2472,-788.2 174,-788.2"/>
<polygon fill="#000000" stroke="#000000" points="326.0063,-747.5167 334.1425,-750.7972 330.0031,-747.3583 334,-747.2 334,-747.2 334,-747.2 330.0031,-747.3583 333.8575,-743.6028 326.0063,-747.5167 326.0063,-747.5167"/>
<ellipse fill="none" stroke="#000000" cx="322.8088" cy="-747.6433" rx="3.2" ry="3.2"/>
</g>
<!-- person_summary_audit -->
<g id="node9" class="node">
<title>person_summary_audit</title>
<g id="a_node9"><a xlink:href="../../tables/person_summary_audit.html" xlink:title="person_summary_audit" target="_top">
<polygon fill="#ffffff" stroke="transparent" points="320.5,-637.7 320.5,-698.7 515.5,-698.7 515.5,-637.7 320.5,-637.7"/>
<polygon fill="#f5f5f5" stroke="transparent" points="321,-675.2 321,-698.2 516,-698.2 516,-675.2 321,-675.2"/>
<polygon fill="none" stroke="#000000" points="321,-675.2 321,-698.2 516,-698.2 516,-675.2 321,-675.2"/>
<text text-anchor="start" x="326" y="-683.8" font-family="Helvetica,sans-Serif" font-weight="bold" font-size="11.00" fill="#000000">person_summary_audit</text>
<text text-anchor="start" x="481.5219" y="-683.3" font-family="Helvetica,sans-Serif" font-size="11.00" fill="#000000">[table]</text>
<polygon fill="none" stroke="#000000" points="321,-656.2 321,-675.2 516,-675.2 516,-656.2 321,-656.2"/>
<text text-anchor="start" x="324" y="-662.3" font-family="Helvetica,sans-Serif" font-size="11.00" fill="#000000">...</text>
<polygon fill="#ffffff" stroke="transparent" points="321,-637.2 321,-656.2 417,-656.2 417,-637.2 321,-637.2"/>
<polygon fill="none" stroke="#000000" points="321,-637.2 321,-656.2 417,-656.2 417,-637.2 321,-637.2"/>
<text text-anchor="start" x="324" y="-643.3" font-family="Helvetica,sans-Serif" font-size="11.00" fill="#000000">&lt; 1</text>
<polygon fill="#ffffff" stroke="transparent" points="417,-637.2 417,-656.2 466,-656.2 466,-637.2 417,-637.2"/>
<polygon fill="none" stroke="#000000" points="417,-637.2 417,-656.2 466,-656.2 466,-637.2 417,-637.2"/>
<text text-anchor="start" x="456.8862" y="-643.3" font-family="Helvetica,sans-Serif" font-size="11.00" fill="#000000"> &#160;</text>
<polygon fill="#ffffff" stroke="transparent" points="466,-637.2 466,-656.2 516,-656.2 516,-637.2 466,-637.2"/>
<polygon fill="none" stroke="#000000" points="466,-637.2 466,-656.2 516,-656.2 516,-637.2 466,-637.2"/>
<text text-anchor="start" x="506.8862" y="-643.3" font-family="Helvetica,sans-Serif" font-size="11.00" fill="#000000"> &#160;</text>
</a>
</g>
</g>
<!-- person_summary_audit&#45;&gt;audit_revision -->
<g id="edge8" class="edge">
<title>person_summary_audit:w&#45;&gt;audit_revision:e</title>
<path fill="none" stroke="#000000" d="M306.4415,-665.5103C266.2454,-667.3879 248.7571,-678.2053 215,-709.2 185.8614,-735.9541 213.5581,-788.2 174,-788.2"/>
<polygon fill="#000000" stroke="#000000" points="313.0018,-665.3705 321.0767,-668.7992 317.0009,-665.2853 321,-665.2 321,-665.2 321,-665.2 317.0009,-665.2853 320.9233,-661.6008 313.0018,-665.3705 313.0018,-665.3705"/>
<ellipse fill="none" stroke="#000000" cx="309.8025" cy="-665.4387" rx="3.2" ry="3.2"/>
</g>
<!-- plan_audit -->
<g id="node10" class="node">
<title>plan_audit</title>
<g id="a_node10"><a xlink:href="../../tables/plan_audit.html" xlink:title="plan_audit" target="_top">
<polygon fill="#ffffff" stroke="transparent" points="363.5,-555.7 363.5,-616.7 472.5,-616.7 472.5,-555.7 363.5,-555.7"/>
<polygon fill="#f5f5f5" stroke="transparent" points="364,-593.2 364,-616.2 473,-616.2 473,-593.2 364,-593.2"/>
<polygon fill="none" stroke="#000000" points="364,-593.2 364,-616.2 473,-616.2 473,-593.2 364,-593.2"/>
<text text-anchor="start" x="369" y="-601.8" font-family="Helvetica,sans-Serif" font-weight="bold" font-size="11.00" fill="#000000">plan_audit</text>
<text text-anchor="start" x="438.5219" y="-601.3" font-family="Helvetica,sans-Serif" font-size="11.00" fill="#000000">[table]</text>
<polygon fill="none" stroke="#000000" points="364,-574.2 364,-593.2 473,-593.2 473,-574.2 364,-574.2"/>
<text text-anchor="start" x="367" y="-580.3" font-family="Helvetica,sans-Serif" font-size="11.00" fill="#000000">...</text>
<polygon fill="#ffffff" stroke="transparent" points="364,-555.2 364,-574.2 417,-574.2 417,-555.2 364,-555.2"/>
<polygon fill="none" stroke="#000000" points="364,-555.2 364,-574.2 417,-574.2 417,-555.2 364,-555.2"/>
<text text-anchor="start" x="367" y="-561.3" font-family="Helvetica,sans-Serif" font-size="11.00" fill="#000000">&lt; 1</text>
<polygon fill="#ffffff" stroke="transparent" points="417,-555.2 417,-574.2 445,-574.2 445,-555.2 417,-555.2"/>
<polygon fill="none" stroke="#000000" points="417,-555.2 417,-574.2 445,-574.2 445,-555.2 417,-555.2"/>
<text text-anchor="start" x="435.8862" y="-561.3" font-family="Helvetica,sans-Serif" font-size="11.00" fill="#000000"> &#160;</text>
<polygon fill="#ffffff" stroke="transparent" points="445,-555.2 445,-574.2 473,-574.2 473,-555.2 445,-555.2"/>
<polygon fill="none" stroke="#000000" points="445,-555.2 445,-574.2 473,-574.2 473,-555.2 445,-555.2"/>
<text text-anchor="start" x="463.8862" y="-561.3" font-family="Helvetica,sans-Serif" font-size="11.00" fill="#000000"> &#160;</text>
</a>
</g>
</g>
<!-- plan_audit&#45;&gt;audit_revision -->
<g id="edge9" class="edge">
<title>plan_audit:w&#45;&gt;audit_revision:e</title>
<path fill="none" stroke="#000000" d="M349.59,-583.1332C290.2348,-582.6603 259.4331,-581.0556 215,-627.2 163.7833,-680.3893 247.8393,-788.2 174,-788.2"/>
<polygon fill="#000000" stroke="#000000" points="356.0001,-583.1629 363.9833,-586.8 360,-583.1814 364,-583.2 364,-583.2 364,-583.2 360,-583.1814 364.0167,-579.6 356.0001,-583.1629 356.0001,-583.1629"/>
<ellipse fill="none" stroke="#000000" cx="352.8001" cy="-583.148" rx="3.2" ry="3.2"/>
</g>
<!-- referral_audit -->
<g id="node11" class="node">
<title>referral_audit</title>
<g id="a_node11"><a xlink:href="../../tables/referral_audit.html" xlink:title="referral_audit" target="_top">
<polygon fill="#ffffff" stroke="transparent" points="352.5,-473.7 352.5,-534.7 483.5,-534.7 483.5,-473.7 352.5,-473.7"/>
<polygon fill="#f5f5f5" stroke="transparent" points="353,-511.2 353,-534.2 484,-534.2 484,-511.2 353,-511.2"/>
<polygon fill="none" stroke="#000000" points="353,-511.2 353,-534.2 484,-534.2 484,-511.2 353,-511.2"/>
<text text-anchor="start" x="358" y="-519.8" font-family="Helvetica,sans-Serif" font-weight="bold" font-size="11.00" fill="#000000">referral_audit</text>
<text text-anchor="start" x="449.5219" y="-519.3" font-family="Helvetica,sans-Serif" font-size="11.00" fill="#000000">[table]</text>
<polygon fill="none" stroke="#000000" points="353,-492.2 353,-511.2 484,-511.2 484,-492.2 353,-492.2"/>
<text text-anchor="start" x="356" y="-498.3" font-family="Helvetica,sans-Serif" font-size="11.00" fill="#000000">...</text>
<polygon fill="#ffffff" stroke="transparent" points="353,-473.2 353,-492.2 417,-492.2 417,-473.2 353,-473.2"/>
<polygon fill="none" stroke="#000000" points="353,-473.2 353,-492.2 417,-492.2 417,-473.2 353,-473.2"/>
<text text-anchor="start" x="356" y="-479.3" font-family="Helvetica,sans-Serif" font-size="11.00" fill="#000000">&lt; 1</text>
<polygon fill="#ffffff" stroke="transparent" points="417,-473.2 417,-492.2 450,-492.2 450,-473.2 417,-473.2"/>
<polygon fill="none" stroke="#000000" points="417,-473.2 417,-492.2 450,-492.2 450,-473.2 417,-473.2"/>
<text text-anchor="start" x="440.8862" y="-479.3" font-family="Helvetica,sans-Serif" font-size="11.00" fill="#000000"> &#160;</text>
<polygon fill="#ffffff" stroke="transparent" points="450,-473.2 450,-492.2 484,-492.2 484,-473.2 450,-473.2"/>
<polygon fill="none" stroke="#000000" points="450,-473.2 450,-492.2 484,-492.2 484,-473.2 450,-473.2"/>
<text text-anchor="start" x="474.8862" y="-479.3" font-family="Helvetica,sans-Serif" font-size="11.00" fill="#000000"> &#160;</text>
</a>
</g>
</g>
<!-- referral_audit&#45;&gt;audit_revision -->
<g id="edge10" class="edge">
<title>referral_audit:w&#45;&gt;audit_revision:e</title>
<path fill="none" stroke="#000000" d="M338.4943,-501.1429C283.6471,-500.8025 253.8926,-500.3744 215,-545.2 179.1108,-586.564 228.7632,-788.2 174,-788.2"/>
<polygon fill="#000000" stroke="#000000" points="345.0001,-501.1685 352.9858,-504.8 349,-501.1842 353,-501.2 353,-501.2 353,-501.2 349,-501.1842 353.0142,-497.6 345.0001,-501.1685 345.0001,-501.1685"/>
<ellipse fill="none" stroke="#000000" cx="341.8001" cy="-501.1559" rx="3.2" ry="3.2"/>
</g>
<!-- review_audit -->
<g id="node12" class="node">
<title>review_audit</title>
<g id="a_node12"><a xlink:href="../../tables/review_audit.html" xlink:title="review_audit" target="_top">
<polygon fill="#ffffff" stroke="transparent" points="355.5,-391.7 355.5,-452.7 480.5,-452.7 480.5,-391.7 355.5,-391.7"/>
<polygon fill="#f5f5f5" stroke="transparent" points="356,-429.2 356,-452.2 481,-452.2 481,-429.2 356,-429.2"/>
<polygon fill="none" stroke="#000000" points="356,-429.2 356,-452.2 481,-452.2 481,-429.2 356,-429.2"/>
<text text-anchor="start" x="361" y="-437.8" font-family="Helvetica,sans-Serif" font-weight="bold" font-size="11.00" fill="#000000">review_audit</text>
<text text-anchor="start" x="446.5219" y="-437.3" font-family="Helvetica,sans-Serif" font-size="11.00" fill="#000000">[table]</text>
<polygon fill="none" stroke="#000000" points="356,-410.2 356,-429.2 481,-429.2 481,-410.2 356,-410.2"/>
<text text-anchor="start" x="359" y="-416.3" font-family="Helvetica,sans-Serif" font-size="11.00" fill="#000000">...</text>
<polygon fill="#ffffff" stroke="transparent" points="356,-391.2 356,-410.2 417,-410.2 417,-391.2 356,-391.2"/>
<polygon fill="none" stroke="#000000" points="356,-391.2 356,-410.2 417,-410.2 417,-391.2 356,-391.2"/>
<text text-anchor="start" x="359" y="-397.3" font-family="Helvetica,sans-Serif" font-size="11.00" fill="#000000">&lt; 1</text>
<polygon fill="#ffffff" stroke="transparent" points="417,-391.2 417,-410.2 449,-410.2 449,-391.2 417,-391.2"/>
<polygon fill="none" stroke="#000000" points="417,-391.2 417,-410.2 449,-410.2 449,-391.2 417,-391.2"/>
<text text-anchor="start" x="439.8862" y="-397.3" font-family="Helvetica,sans-Serif" font-size="11.00" fill="#000000"> &#160;</text>
<polygon fill="#ffffff" stroke="transparent" points="449,-391.2 449,-410.2 481,-410.2 481,-391.2 449,-391.2"/>
<polygon fill="none" stroke="#000000" points="449,-391.2 449,-410.2 481,-410.2 481,-391.2 449,-391.2"/>
<text text-anchor="start" x="471.8862" y="-397.3" font-family="Helvetica,sans-Serif" font-size="11.00" fill="#000000"> &#160;</text>
</a>
</g>
</g>
<!-- review_audit&#45;&gt;audit_revision -->
<g id="edge11" class="edge">
<title>review_audit:w&#45;&gt;audit_revision:e</title>
<path fill="none" stroke="#000000" d="M341.5448,-419.1175C285.2407,-418.563 253.9258,-416.6942 215,-463.2 168.277,-519.0214 246.7947,-788.2 174,-788.2"/>
<polygon fill="#000000" stroke="#000000" points="348.0001,-419.1543 355.9794,-422.7999 352.0001,-419.1771 356,-419.2 356,-419.2 356,-419.2 352.0001,-419.1771 356.0206,-415.6001 348.0001,-419.1543 348.0001,-419.1543"/>
<ellipse fill="none" stroke="#000000" cx="344.8002" cy="-419.136" rx="3.2" ry="3.2"/>
</g>
<!-- safer_custody_screening_outcome_audit -->
<g id="node13" class="node">
<title>safer_custody_screening_outcome_audit</title>
<g id="a_node13"><a xlink:href="../../tables/safer_custody_screening_outcome_audit.html" xlink:title="safer_custody_screening_outcome_audit" target="_top">
<polygon fill="#ffffff" stroke="transparent" points="223,-38.2 223,-370.2 613,-370.2 613,-38.2 223,-38.2"/>
<polygon fill="#f5f5f5" stroke="transparent" points="225,-345.2 225,-368.2 611,-368.2 611,-345.2 225,-345.2"/>
<polygon fill="none" stroke="#000000" points="225,-345.2 225,-368.2 611,-368.2 611,-345.2 225,-345.2"/>
<text text-anchor="start" x="230" y="-353.8" font-family="Helvetica,sans-Serif" font-weight="bold" font-size="11.00" fill="#000000">safer_custody_screening_outcome_audit</text>
<text text-anchor="start" x="576.0437" y="-353.3" font-family="Helvetica,sans-Serif" font-size="11.00" fill="#000000">[table]</text>
<polygon fill="none" stroke="#000000" points="225,-323.2 225,-345.2 517,-345.2 517,-323.2 225,-323.2"/>
<image xlink:href="../../images/primaryKeys.png" width="11px" height="12px" preserveAspectRatio="xMinYMin meet" x="230" y="-340.2"/>
<text text-anchor="start" x="245" y="-330.3" font-family="Helvetica,sans-Serif" font-size="11.00" fill="#000000">rev_id</text>
<polygon fill="none" stroke="#000000" points="517,-323.2 517,-345.2 611,-345.2 611,-323.2 517,-323.2"/>
<text text-anchor="start" x="520" y="-330.9" font-family="Helvetica,sans-Serif" font-size="11.00" fill="#000000">int8[19]</text>
<polygon fill="none" stroke="#000000" points="225,-301.2 225,-323.2 517,-323.2 517,-301.2 225,-301.2"/>
<text text-anchor="start" x="245" y="-308.3" font-family="Helvetica,sans-Serif" font-size="11.00" fill="#000000">rev_type</text>
<polygon fill="none" stroke="#000000" points="517,-301.2 517,-323.2 611,-323.2 611,-301.2 517,-301.2"/>
<text text-anchor="start" x="520" y="-308.9" font-family="Helvetica,sans-Serif" font-size="11.00" fill="#000000">int2[5]</text>
<polygon fill="none" stroke="#000000" points="225,-279.2 225,-301.2 517,-301.2 517,-279.2 225,-279.2"/>
<image xlink:href="../../images/primaryKeys.png" width="11px" height="12px" preserveAspectRatio="xMinYMin meet" x="230" y="-296.2"/>
<text text-anchor="start" x="245" y="-286.3" font-family="Helvetica,sans-Serif" font-size="11.00" fill="#000000">safer_custody_screening_outcome_id</text>
<polygon fill="none" stroke="#000000" points="517,-279.2 517,-301.2 611,-301.2 611,-279.2 517,-279.2"/>
<text text-anchor="start" x="519.9758" y="-286.9" font-family="Helvetica,sans-Serif" font-size="11.00" fill="#000000">uuid[2147483647]</text>
<polygon fill="none" stroke="#000000" points="225,-257.2 225,-279.2 517,-279.2 517,-257.2 225,-257.2"/>
<image xlink:href="../../images/foreignKeys.png" width="11px" height="12px" preserveAspectRatio="xMinYMin meet" x="230" y="-274.2"/>
<text text-anchor="start" x="245" y="-264.3" font-family="Helvetica,sans-Serif" font-size="11.00" fill="#000000">outcome_id</text>
<polygon fill="none" stroke="#000000" points="517,-257.2 517,-279.2 611,-279.2 611,-257.2 517,-257.2"/>
<text text-anchor="start" x="520" y="-264.9" font-family="Helvetica,sans-Serif" font-size="11.00" fill="#000000">int8[19]</text>
<polygon fill="none" stroke="#000000" points="225,-235.2 225,-257.2 517,-257.2 517,-235.2 225,-235.2"/>
<text text-anchor="start" x="245" y="-242.3" font-family="Helvetica,sans-Serif" font-size="11.00" fill="#000000">recorded_by</text>
<polygon fill="none" stroke="#000000" points="517,-235.2 517,-257.2 611,-257.2 611,-235.2 517,-235.2"/>
<text text-anchor="start" x="520" y="-242.9" font-family="Helvetica,sans-Serif" font-size="11.00" fill="#000000">varchar[64]</text>
<polygon fill="none" stroke="#000000" points="225,-213.2 225,-235.2 517,-235.2 517,-213.2 225,-213.2"/>
<text text-anchor="start" x="245" y="-220.3" font-family="Helvetica,sans-Serif" font-size="11.00" fill="#000000">recorded_by_display_name</text>
<polygon fill="none" stroke="#000000" points="517,-213.2 517,-235.2 611,-235.2 611,-213.2 517,-213.2"/>
<text text-anchor="start" x="520" y="-220.9" font-family="Helvetica,sans-Serif" font-size="11.00" fill="#000000">varchar[255]</text>
<polygon fill="none" stroke="#000000" points="225,-191.2 225,-213.2 517,-213.2 517,-191.2 225,-191.2"/>
<text text-anchor="start" x="245" y="-198.3" font-family="Helvetica,sans-Serif" font-size="11.00" fill="#000000">date</text>
<polygon fill="none" stroke="#000000" points="517,-191.2 517,-213.2 611,-213.2 611,-191.2 517,-191.2"/>
<text text-anchor="start" x="520" y="-198.9" font-family="Helvetica,sans-Serif" font-size="11.00" fill="#000000">date[13]</text>
<polygon fill="none" stroke="#000000" points="225,-169.2 225,-191.2 517,-191.2 517,-169.2 225,-169.2"/>
<text text-anchor="start" x="245" y="-176.3" font-family="Helvetica,sans-Serif" font-size="11.00" fill="#000000">reason_for_decision</text>
<polygon fill="none" stroke="#000000" points="517,-169.2 517,-191.2 611,-191.2 611,-169.2 517,-169.2"/>
<text text-anchor="start" x="520" y="-176.9" font-family="Helvetica,sans-Serif" font-size="11.00" fill="#000000">text[2147483647]</text>
<polygon fill="none" stroke="#000000" points="225,-147.2 225,-169.2 517,-169.2 517,-147.2 225,-147.2"/>
<text text-anchor="start" x="245" y="-154.3" font-family="Helvetica,sans-Serif" font-size="11.00" fill="#000000">outcome_modified</text>
<polygon fill="none" stroke="#000000" points="517,-147.2 517,-169.2 611,-169.2 611,-147.2 517,-147.2"/>
<text text-anchor="start" x="520" y="-154.9" font-family="Helvetica,sans-Serif" font-size="11.00" fill="#000000">bool[1]</text>
<polygon fill="none" stroke="#000000" points="225,-125.2 225,-147.2 517,-147.2 517,-125.2 225,-125.2"/>
<text text-anchor="start" x="245" y="-132.3" font-family="Helvetica,sans-Serif" font-size="11.00" fill="#000000">recorded_by_modified</text>
<polygon fill="none" stroke="#000000" points="517,-125.2 517,-147.2 611,-147.2 611,-125.2 517,-125.2"/>
<text text-anchor="start" x="520" y="-132.9" font-family="Helvetica,sans-Serif" font-size="11.00" fill="#000000">bool[1]</text>
<polygon fill="none" stroke="#000000" points="225,-103.2 225,-125.2 517,-125.2 517,-103.2 225,-103.2"/>
<text text-anchor="start" x="245" y="-110.3" font-family="Helvetica,sans-Serif" font-size="11.00" fill="#000000">recorded_by_display_name_modified</text>
<polygon fill="none" stroke="#000000" points="517,-103.2 517,-125.2 611,-125.2 611,-103.2 517,-103.2"/>
<text text-anchor="start" x="520" y="-110.9" font-family="Helvetica,sans-Serif" font-size="11.00" fill="#000000">bool[1]</text>
<polygon fill="none" stroke="#000000" points="225,-81.2 225,-103.2 517,-103.2 517,-81.2 225,-81.2"/>
<text text-anchor="start" x="245" y="-88.3" font-family="Helvetica,sans-Serif" font-size="11.00" fill="#000000">date_modified</text>
<polygon fill="none" stroke="#000000" points="517,-81.2 517,-103.2 611,-103.2 611,-81.2 517,-81.2"/>
<text text-anchor="start" x="520" y="-88.9" font-family="Helvetica,sans-Serif" font-size="11.00" fill="#000000">bool[1]</text>
<polygon fill="none" stroke="#000000" points="225,-59.2 225,-81.2 517,-81.2 517,-59.2 225,-59.2"/>
<text text-anchor="start" x="245" y="-66.3" font-family="Helvetica,sans-Serif" font-size="11.00" fill="#000000">reason_for_decision_modified</text>
<polygon fill="none" stroke="#000000" points="517,-59.2 517,-81.2 611,-81.2 611,-59.2 517,-59.2"/>
<text text-anchor="start" x="520" y="-66.9" font-family="Helvetica,sans-Serif" font-size="11.00" fill="#000000">bool[1]</text>
<polygon fill="#ffffff" stroke="transparent" points="225,-40.2 225,-59.2 375,-59.2 375,-40.2 225,-40.2"/>
<polygon fill="none" stroke="#000000" points="225,-40.2 225,-59.2 375,-59.2 375,-40.2 225,-40.2"/>
<text text-anchor="start" x="228" y="-46.3" font-family="Helvetica,sans-Serif" font-size="11.00" fill="#000000">&lt; 1</text>
<polygon fill="#ffffff" stroke="transparent" points="375,-40.2 375,-59.2 517,-59.2 517,-40.2 375,-40.2"/>
<polygon fill="none" stroke="#000000" points="375,-40.2 375,-59.2 517,-59.2 517,-40.2 375,-40.2"/>
<text text-anchor="start" x="507.8862" y="-46.3" font-family="Helvetica,sans-Serif" font-size="11.00" fill="#000000"> &#160;</text>
<polygon fill="#ffffff" stroke="transparent" points="517,-40.2 517,-59.2 611,-59.2 611,-40.2 517,-40.2"/>
<polygon fill="none" stroke="#000000" points="517,-40.2 517,-59.2 611,-59.2 611,-40.2 517,-40.2"/>
<text text-anchor="start" x="592.4053" y="-46.3" font-family="Helvetica,sans-Serif" font-size="11.00" fill="#000000">0 &gt;</text>
<polygon fill="none" stroke="#000000" stroke-width="2" points="224,-39.2 224,-369.2 612,-369.2 612,-39.2 224,-39.2"/>
</a>
</g>
</g>
<!-- safer_custody_screening_outcome_audit&#45;&gt;audit_revision -->
<g id="edge12" class="edge">
<title>safer_custody_screening_outcome_audit:w&#45;&gt;audit_revision:e</title>
<path fill="none" stroke="#000000" d="M210.9798,-337.8544C138.8076,-380.8203 270.1697,-788.2 174,-788.2"/>
<polygon fill="#000000" stroke="#000000" points="217.2587,-336.2179 225.908,-337.6836 221.1293,-335.2089 225,-334.2 225,-334.2 225,-334.2 221.1293,-335.2089 224.092,-330.7164 217.2587,-336.2179 217.2587,-336.2179"/>
<ellipse fill="none" stroke="#000000" cx="214.1621" cy="-337.025" rx="3.2" ry="3.2"/>
</g>
</g>
</svg>
