<?xml version="1.0" encoding="UTF-8" standalone="no"?>
<!DOCTYPE svg PUBLIC "-//W3C//DTD SVG 1.1//EN"
 "http://www.w3.org/Graphics/SVG/1.1/DTD/svg11.dtd">
<!-- Generated by graphviz version 2.40.1 (20161225.0304)
 -->
<!-- Title: oneDegreeRelationshipsDiagramImplied Pages: 1 -->
<svg width="900pt" height="330pt"
 viewBox="0.00 0.00 900.00 329.70" xmlns="http://www.w3.org/2000/svg" xmlns:xlink="http://www.w3.org/1999/xlink">
<g id="graph0" class="graph" transform="scale(1 1) rotate(0) translate(4 325.7)">
<title>oneDegreeRelationshipsDiagramImplied</title>
<polygon fill="#ffffff" stroke="transparent" points="-4,4 -4,-325.7 896,-325.7 896,4 -4,4"/>
<text text-anchor="middle" x="72.4936" y="-7.3" font-family="Helvetica,sans-Serif" font-size="11.00" fill="#000000">Generated by SchemaSpy</text>
<!-- referral -->
<g id="node1" class="node">
<title>referral</title>
<g id="a_node1"><a xlink:href="../../tables/referral.html" xlink:title="referral" target="_top">
<polygon fill="#ffffff" stroke="transparent" points="198,-124.7 198,-317.7 467,-317.7 467,-124.7 198,-124.7"/>
<polygon fill="#f5f5f5" stroke="transparent" points="198.5,-294.2 198.5,-317.2 467.5,-317.2 467.5,-294.2 198.5,-294.2"/>
<polygon fill="none" stroke="#000000" points="198.5,-294.2 198.5,-317.2 467.5,-317.2 467.5,-294.2 198.5,-294.2"/>
<text text-anchor="start" x="203.5" y="-302.8" font-family="Helvetica,sans-Serif" font-weight="bold" font-size="11.00" fill="#000000">referral</text>
<text text-anchor="start" x="432.5437" y="-302.3" font-family="Helvetica,sans-Serif" font-size="11.00" fill="#000000">[table]</text>
<polygon fill="none" stroke="#000000" points="198.5,-272.2 198.5,-294.2 467.5,-294.2 467.5,-272.2 198.5,-272.2"/>
<image xlink:href="../../images/primaryKeys.png" width="11px" height="12px" preserveAspectRatio="xMinYMin meet" x="203.5" y="-289.2"/>
<text text-anchor="start" x="218.5" y="-279.3" font-family="Helvetica,sans-Serif" font-size="11.00" fill="#000000">referral_id</text>
<polygon fill="#ffffff" stroke="transparent" points="198.5,-250.2 198.5,-272.2 467.5,-272.2 467.5,-250.2 198.5,-250.2"/>
<polygon fill="none" stroke="#000000" points="198.5,-250.2 198.5,-272.2 467.5,-272.2 467.5,-250.2 198.5,-250.2"/>
<image xlink:href="../../images/foreignKeys.png" width="11px" height="12px" preserveAspectRatio="xMinYMin meet" x="203.5" y="-267.2"/>
<text text-anchor="start" x="218.5" y="-257.3" font-family="Helvetica,sans-Serif" font-size="11.00" fill="#000000">incident_type_id</text>
<polygon fill="#ffffff" stroke="transparent" points="198.5,-228.2 198.5,-250.2 467.5,-250.2 467.5,-228.2 198.5,-228.2"/>
<polygon fill="none" stroke="#000000" points="198.5,-228.2 198.5,-250.2 467.5,-250.2 467.5,-228.2 198.5,-228.2"/>
<image xlink:href="../../images/foreignKeys.png" width="11px" height="12px" preserveAspectRatio="xMinYMin meet" x="203.5" y="-245.2"/>
<text text-anchor="start" x="218.5" y="-235.3" font-family="Helvetica,sans-Serif" font-size="11.00" fill="#000000">incident_location_id</text>
<polygon fill="#ffffff" stroke="transparent" points="198.5,-206.2 198.5,-228.2 467.5,-228.2 467.5,-206.2 198.5,-206.2"/>
<polygon fill="none" stroke="#000000" points="198.5,-206.2 198.5,-228.2 467.5,-228.2 467.5,-206.2 198.5,-206.2"/>
<image xlink:href="../../images/foreignKeys.png" width="11px" height="12px" preserveAspectRatio="xMinYMin meet" x="203.5" y="-223.2"/>
<text text-anchor="start" x="218.5" y="-213.3" font-family="Helvetica,sans-Serif" font-size="11.00" fill="#000000">referer_area_of_work_id</text>
<polygon fill="#ffffff" stroke="transparent" points="198.5,-184.2 198.5,-206.2 467.5,-206.2 467.5,-184.2 198.5,-184.2"/>
<polygon fill="none" stroke="#000000" points="198.5,-184.2 198.5,-206.2 467.5,-206.2 467.5,-184.2 198.5,-184.2"/>
<text text-anchor="start" x="218.5" y="-191.3" font-family="Helvetica,sans-Serif" font-size="11.00" fill="#000000">referral_date</text>
<polygon fill="#ffffff" stroke="transparent" points="198.5,-162.2 198.5,-184.2 467.5,-184.2 467.5,-162.2 198.5,-162.2"/>
<polygon fill="none" stroke="#000000" points="198.5,-162.2 198.5,-184.2 467.5,-184.2 467.5,-162.2 198.5,-162.2"/>
<image xlink:href="../../images/foreignKeys.png" width="11px" height="12px" preserveAspectRatio="xMinYMin meet" x="203.5" y="-179.2"/>
<text text-anchor="start" x="218.5" y="-169.3" font-family="Helvetica,sans-Serif" font-size="11.00" fill="#000000">incident_involvement_id</text>
<polygon fill="none" stroke="#000000" points="198.5,-143.2 198.5,-162.2 467.5,-162.2 467.5,-143.2 198.5,-143.2"/>
<text text-anchor="start" x="201.5" y="-149.3" font-family="Helvetica,sans-Serif" font-size="11.00" fill="#000000">...</text>
<polygon fill="#ffffff" stroke="transparent" points="198.5,-124.2 198.5,-143.2 326.5,-143.2 326.5,-124.2 198.5,-124.2"/>
<polygon fill="none" stroke="#000000" points="198.5,-124.2 198.5,-143.2 326.5,-143.2 326.5,-124.2 198.5,-124.2"/>
<text text-anchor="start" x="201.5" y="-130.3" font-family="Helvetica,sans-Serif" font-size="11.00" fill="#000000">&lt; 5</text>
<polygon fill="#ffffff" stroke="transparent" points="326.5,-124.2 326.5,-143.2 392.5,-143.2 392.5,-124.2 326.5,-124.2"/>
<polygon fill="none" stroke="#000000" points="326.5,-124.2 326.5,-143.2 392.5,-143.2 392.5,-124.2 326.5,-124.2"/>
<text text-anchor="start" x="383.3862" y="-130.3" font-family="Helvetica,sans-Serif" font-size="11.00" fill="#000000"> &#160;</text>
<polygon fill="#ffffff" stroke="transparent" points="392.5,-124.2 392.5,-143.2 467.5,-143.2 467.5,-124.2 392.5,-124.2"/>
<polygon fill="none" stroke="#000000" points="392.5,-124.2 392.5,-143.2 467.5,-143.2 467.5,-124.2 392.5,-124.2"/>
<text text-anchor="start" x="448.9053" y="-130.3" font-family="Helvetica,sans-Serif" font-size="11.00" fill="#000000">4 &gt;</text>
</a>
</g>
</g>
<!-- reference_data -->
<g id="node2" class="node">
<title>reference_data</title>
<g id="a_node2"><a xlink:href="../../tables/reference_data.html" xlink:title="reference_data" target="_top">
<polygon fill="#ffffff" stroke="transparent" points="8,-102.7 8,-251.7 149,-251.7 149,-102.7 8,-102.7"/>
<polygon fill="#f5f5f5" stroke="transparent" points="8.5,-228.2 8.5,-251.2 149.5,-251.2 149.5,-228.2 8.5,-228.2"/>
<polygon fill="none" stroke="#000000" points="8.5,-228.2 8.5,-251.2 149.5,-251.2 149.5,-228.2 8.5,-228.2"/>
<text text-anchor="start" x="13.5" y="-236.8" font-family="Helvetica,sans-Serif" font-weight="bold" font-size="11.00" fill="#000000">reference_data</text>
<text text-anchor="start" x="115.0219" y="-236.3" font-family="Helvetica,sans-Serif" font-size="11.00" fill="#000000">[table]</text>
<polygon fill="none" stroke="#000000" points="8.5,-206.2 8.5,-228.2 149.5,-228.2 149.5,-206.2 8.5,-206.2"/>
<image xlink:href="../../images/primaryKeys.png" width="11px" height="12px" preserveAspectRatio="xMinYMin meet" x="13.5" y="-223.2"/>
<text text-anchor="start" x="28.5" y="-213.3" font-family="Helvetica,sans-Serif" font-size="11.00" fill="#000000">reference_data_id</text>
<polygon fill="#ffffff" stroke="transparent" points="8.5,-184.2 8.5,-206.2 149.5,-206.2 149.5,-184.2 8.5,-184.2"/>
<polygon fill="none" stroke="#000000" points="8.5,-184.2 8.5,-206.2 149.5,-206.2 149.5,-184.2 8.5,-184.2"/>
<text text-anchor="start" x="28.5" y="-191.3" font-family="Helvetica,sans-Serif" font-size="11.00" fill="#000000">domain</text>
<polygon fill="#ffffff" stroke="transparent" points="8.5,-162.2 8.5,-184.2 149.5,-184.2 149.5,-162.2 8.5,-162.2"/>
<polygon fill="none" stroke="#000000" points="8.5,-162.2 8.5,-184.2 149.5,-184.2 149.5,-162.2 8.5,-162.2"/>
<text text-anchor="start" x="28.5" y="-169.3" font-family="Helvetica,sans-Serif" font-size="11.00" fill="#000000">code</text>
<polygon fill="#ffffff" stroke="transparent" points="8.5,-140.2 8.5,-162.2 149.5,-162.2 149.5,-140.2 8.5,-140.2"/>
<polygon fill="none" stroke="#000000" points="8.5,-140.2 8.5,-162.2 149.5,-162.2 149.5,-140.2 8.5,-140.2"/>
<text text-anchor="start" x="28.5" y="-147.3" font-family="Helvetica,sans-Serif" font-size="11.00" fill="#000000">list_sequence</text>
<polygon fill="none" stroke="#000000" points="8.5,-121.2 8.5,-140.2 149.5,-140.2 149.5,-121.2 8.5,-121.2"/>
<text text-anchor="start" x="11.5" y="-127.3" font-family="Helvetica,sans-Serif" font-size="11.00" fill="#000000">...</text>
<polygon fill="#ffffff" stroke="transparent" points="8.5,-102.2 8.5,-121.2 46.5,-121.2 46.5,-102.2 8.5,-102.2"/>
<polygon fill="none" stroke="#000000" points="8.5,-102.2 8.5,-121.2 46.5,-121.2 46.5,-102.2 8.5,-102.2"/>
<text text-anchor="start" x="11.5" y="-108.3" font-family="Helvetica,sans-Serif" font-size="11.00" fill="#000000"> &#160;</text>
<polygon fill="#ffffff" stroke="transparent" points="46.5,-102.2 46.5,-121.2 109.5,-121.2 109.5,-102.2 46.5,-102.2"/>
<polygon fill="none" stroke="#000000" points="46.5,-102.2 46.5,-121.2 109.5,-121.2 109.5,-102.2 46.5,-102.2"/>
<text text-anchor="start" x="61.8807" y="-108.3" font-family="Helvetica,sans-Serif" font-size="11.00" fill="#000000">112 rows</text>
<polygon fill="#ffffff" stroke="transparent" points="109.5,-102.2 109.5,-121.2 149.5,-121.2 149.5,-102.2 109.5,-102.2"/>
<polygon fill="none" stroke="#000000" points="109.5,-102.2 109.5,-121.2 149.5,-121.2 149.5,-102.2 109.5,-102.2"/>
<text text-anchor="start" x="124.7904" y="-108.3" font-family="Helvetica,sans-Serif" font-size="11.00" fill="#000000">10 &gt;</text>
</a>
</g>
</g>
<!-- referral&#45;&gt;reference_data -->
<g id="edge1" class="edge">
<title>referral:w&#45;&gt;reference_data:e</title>
<path fill="none" stroke="#000000" d="M184.8171,-177.9088C171.5046,-189.2596 172.824,-217.2 149.5,-217.2"/>
<polygon fill="#000000" stroke="#000000" points="190.9354,-175.8033 199.6715,-176.6041 194.7177,-174.5016 198.5,-173.2 198.5,-173.2 198.5,-173.2 194.7177,-174.5016 197.3285,-169.7959 190.9354,-175.8033 190.9354,-175.8033"/>
<ellipse fill="none" stroke="#000000" cx="187.9096" cy="-176.8446" rx="3.2" ry="3.2"/>
</g>
<!-- referral&#45;&gt;reference_data -->
<g id="edge2" class="edge">
<title>referral:w&#45;&gt;reference_data:e</title>
<path fill="none" stroke="#000000" d="M184.1297,-235.7625C172.5865,-229.575 167.4041,-217.2 149.5,-217.2"/>
<polygon fill="#000000" stroke="#000000" points="190.7195,-237.3388 197.6625,-242.7012 194.6098,-238.2694 198.5,-239.2 198.5,-239.2 198.5,-239.2 194.6098,-238.2694 199.3375,-235.6988 190.7195,-237.3388 190.7195,-237.3388"/>
<ellipse fill="none" stroke="#000000" cx="187.6073" cy="-236.5943" rx="3.2" ry="3.2"/>
</g>
<!-- referral&#45;&gt;reference_data -->
<g id="edge3" class="edge">
<title>referral:w&#45;&gt;reference_data:e</title>
<path fill="none" stroke="#000000" d="M184.8171,-256.4912C171.5046,-245.1404 172.824,-217.2 149.5,-217.2"/>
<polygon fill="#000000" stroke="#000000" points="190.9354,-258.5967 197.3285,-264.6041 194.7177,-259.8984 198.5,-261.2 198.5,-261.2 198.5,-261.2 194.7177,-259.8984 199.6715,-257.7959 190.9354,-258.5967 190.9354,-258.5967"/>
<ellipse fill="none" stroke="#000000" cx="187.9096" cy="-257.5554" rx="3.2" ry="3.2"/>
</g>
<!-- referral&#45;&gt;reference_data -->
<g id="edge4" class="edge">
<title>referral:w&#45;&gt;reference_data:e</title>
<path fill="none" stroke="#000000" d="M183.9909,-217.2C172.6774,-217.2 165.4931,-217.2 149.5,-217.2"/>
<polygon fill="#000000" stroke="#000000" points="190.5,-217.2001 198.5,-220.8 194.5,-217.2 198.5,-217.2 198.5,-217.2 198.5,-217.2 194.5,-217.2 198.5,-213.6 190.5,-217.2001 190.5,-217.2001"/>
<ellipse fill="none" stroke="#000000" cx="187.3" cy="-217.2001" rx="3.2" ry="3.2"/>
</g>
<!-- safer_custody_screening_outcome -->
<g id="node3" class="node">
<title>safer_custody_screening_outcome</title>
<g id="a_node3"><a xlink:href="../../tables/safer_custody_screening_outcome.html" xlink:title="safer_custody_screening_outcome" target="_top">
<polygon fill="#ffffff" stroke="transparent" points="516,-38.2 516,-238.2 884,-238.2 884,-38.2 516,-38.2"/>
<polygon fill="#f5f5f5" stroke="transparent" points="518,-213.2 518,-236.2 882,-236.2 882,-213.2 518,-213.2"/>
<polygon fill="none" stroke="#000000" points="518,-213.2 518,-236.2 882,-236.2 882,-213.2 518,-213.2"/>
<text text-anchor="start" x="523" y="-221.8" font-family="Helvetica,sans-Serif" font-weight="bold" font-size="11.00" fill="#000000">safer_custody_screening_outcome</text>
<text text-anchor="start" x="847.0437" y="-221.3" font-family="Helvetica,sans-Serif" font-size="11.00" fill="#000000">[table]</text>
<polygon fill="none" stroke="#000000" points="518,-191.2 518,-213.2 788,-213.2 788,-191.2 518,-191.2"/>
<image xlink:href="../../images/primaryKeys.png" width="11px" height="12px" preserveAspectRatio="xMinYMin meet" x="523" y="-208.2"/>
<text text-anchor="start" x="538" y="-198.3" font-family="Helvetica,sans-Serif" font-size="11.00" fill="#000000">safer_custody_screening_outcome_id</text>
<polygon fill="none" stroke="#000000" points="788,-191.2 788,-213.2 882,-213.2 882,-191.2 788,-191.2"/>
<text text-anchor="start" x="790.9758" y="-198.9" font-family="Helvetica,sans-Serif" font-size="11.00" fill="#000000">uuid[2147483647]</text>
<polygon fill="#ffffff" stroke="transparent" points="518,-169.2 518,-191.2 788,-191.2 788,-169.2 518,-169.2"/>
<polygon fill="none" stroke="#000000" points="518,-169.2 518,-191.2 788,-191.2 788,-169.2 518,-169.2"/>
<image xlink:href="../../images/foreignKeys.png" width="11px" height="12px" preserveAspectRatio="xMinYMin meet" x="523" y="-186.2"/>
<text text-anchor="start" x="538" y="-176.3" font-family="Helvetica,sans-Serif" font-size="11.00" fill="#000000">outcome_id</text>
<polygon fill="none" stroke="#000000" points="788,-169.2 788,-191.2 882,-191.2 882,-169.2 788,-169.2"/>
<text text-anchor="start" x="791" y="-176.9" font-family="Helvetica,sans-Serif" font-size="11.00" fill="#000000">int4[10]</text>
<polygon fill="none" stroke="#000000" points="518,-147.2 518,-169.2 788,-169.2 788,-147.2 518,-147.2"/>
<text text-anchor="start" x="538" y="-154.3" font-family="Helvetica,sans-Serif" font-size="11.00" fill="#000000">recorded_by</text>
<polygon fill="none" stroke="#000000" points="788,-147.2 788,-169.2 882,-169.2 882,-147.2 788,-147.2"/>
<text text-anchor="start" x="791" y="-154.9" font-family="Helvetica,sans-Serif" font-size="11.00" fill="#000000">varchar[100]</text>
<polygon fill="none" stroke="#000000" points="518,-125.2 518,-147.2 788,-147.2 788,-125.2 518,-125.2"/>
<text text-anchor="start" x="538" y="-132.3" font-family="Helvetica,sans-Serif" font-size="11.00" fill="#000000">recorded_by_display_name</text>
<polygon fill="none" stroke="#000000" points="788,-125.2 788,-147.2 882,-147.2 882,-125.2 788,-125.2"/>
<text text-anchor="start" x="791" y="-132.9" font-family="Helvetica,sans-Serif" font-size="11.00" fill="#000000">varchar[255]</text>
<polygon fill="none" stroke="#000000" points="518,-103.2 518,-125.2 788,-125.2 788,-103.2 518,-103.2"/>
<text text-anchor="start" x="538" y="-110.3" font-family="Helvetica,sans-Serif" font-size="11.00" fill="#000000">date</text>
<polygon fill="none" stroke="#000000" points="788,-103.2 788,-125.2 882,-125.2 882,-103.2 788,-103.2"/>
<text text-anchor="start" x="791" y="-110.9" font-family="Helvetica,sans-Serif" font-size="11.00" fill="#000000">date[13]</text>
<polygon fill="none" stroke="#000000" points="518,-81.2 518,-103.2 788,-103.2 788,-81.2 518,-81.2"/>
<text text-anchor="start" x="538" y="-88.3" font-family="Helvetica,sans-Serif" font-size="11.00" fill="#000000">reason_for_decision</text>
<polygon fill="none" stroke="#000000" points="788,-81.2 788,-103.2 882,-103.2 882,-81.2 788,-81.2"/>
<text text-anchor="start" x="791" y="-88.9" font-family="Helvetica,sans-Serif" font-size="11.00" fill="#000000">text[2147483647]</text>
<polygon fill="none" stroke="#000000" points="518,-59.2 518,-81.2 788,-81.2 788,-59.2 518,-59.2"/>
<text text-anchor="start" x="538" y="-66.3" font-family="Helvetica,sans-Serif" font-size="11.00" fill="#000000">version</text>
<polygon fill="none" stroke="#000000" points="788,-59.2 788,-81.2 882,-81.2 882,-59.2 788,-59.2"/>
<text text-anchor="start" x="791" y="-66.9" font-family="Helvetica,sans-Serif" font-size="11.00" fill="#000000">int4[10]</text>
<polygon fill="#ffffff" stroke="transparent" points="518,-40.2 518,-59.2 657,-59.2 657,-40.2 518,-40.2"/>
<polygon fill="none" stroke="#000000" points="518,-40.2 518,-59.2 657,-59.2 657,-40.2 518,-40.2"/>
<text text-anchor="start" x="521" y="-46.3" font-family="Helvetica,sans-Serif" font-size="11.00" fill="#000000">&lt; 2</text>
<polygon fill="#ffffff" stroke="transparent" points="657,-40.2 657,-59.2 788,-59.2 788,-40.2 657,-40.2"/>
<polygon fill="none" stroke="#000000" points="657,-40.2 657,-59.2 788,-59.2 788,-40.2 657,-40.2"/>
<text text-anchor="start" x="778.8862" y="-46.3" font-family="Helvetica,sans-Serif" font-size="11.00" fill="#000000"> &#160;</text>
<polygon fill="#ffffff" stroke="transparent" points="788,-40.2 788,-59.2 882,-59.2 882,-40.2 788,-40.2"/>
<polygon fill="none" stroke="#000000" points="788,-40.2 788,-59.2 882,-59.2 882,-40.2 788,-40.2"/>
<text text-anchor="start" x="863.4053" y="-46.3" font-family="Helvetica,sans-Serif" font-size="11.00" fill="#000000">0 &gt;</text>
<polygon fill="none" stroke="#000000" stroke-width="2" points="517,-39.2 517,-237.2 883,-237.2 883,-39.2 517,-39.2"/>
</a>
</g>
</g>
<!-- safer_custody_screening_outcome&#45;&gt;referral -->
<g id="edge6" class="edge">
<title>safer_custody_screening_outcome:w&#45;&gt;referral:e</title>
<path fill="none" stroke="#000000" d="M507.6247,-204.3666C481.5528,-217.2478 505.7806,-283.2 467.5,-283.2"/>
<polygon fill="#000000" stroke="#000000" points="516.3992,-198.448 518.0346,-206.2791 516.4683,-206.6061 514.833,-198.7751 516.3992,-198.448"/>
<polyline fill="none" stroke="#000000" points="518,-202.2 514.0845,-203.0177 "/>
<ellipse fill="none" stroke="#000000" cx="510.952" cy="-203.6718" rx="3.2" ry="3.2"/>
</g>
<!-- safer_custody_screening_outcome&#45;&gt;reference_data -->
<g id="edge5" class="edge">
<title>safer_custody_screening_outcome:w&#45;&gt;reference_data:e</title>
<path fill="none" stroke="#000000" d="M504.08,-175.8984C489.4506,-163.5302 500.2488,-127.8848 475,-114.2 363.6384,-53.8423 294.6796,-42.8793 190,-114.2 149.349,-141.8965 198.6895,-217.2 149.5,-217.2"/>
<polygon fill="#000000" stroke="#000000" points="510.3566,-177.838 516.9371,-183.6395 514.1783,-179.019 518,-180.2 518,-180.2 518,-180.2 514.1783,-179.019 519.0629,-176.7605 510.3566,-177.838 510.3566,-177.838"/>
<ellipse fill="none" stroke="#000000" cx="507.2993" cy="-176.8932" rx="3.2" ry="3.2"/>
</g>
</g>
</svg>
