<?xml version="1.0" encoding="UTF-8" standalone="no"?>
<!DOCTYPE svg PUBLIC "-//W3C//DTD SVG 1.1//EN"
 "http://www.w3.org/Graphics/SVG/1.1/DTD/svg11.dtd">
<!-- Generated by graphviz version 2.40.1 (20161225.0304)
 -->
<!-- Title: twoDegreesRelationshipsDiagramImplied Pages: 1 -->
<svg width="1035pt" height="644pt"
 viewBox="0.00 0.00 1035.00 643.92" xmlns="http://www.w3.org/2000/svg" xmlns:xlink="http://www.w3.org/1999/xlink">
<g id="graph0" class="graph" transform="scale(1 1) rotate(0) translate(4 639.9162)">
<title>twoDegreesRelationshipsDiagramImplied</title>
<polygon fill="#ffffff" stroke="transparent" points="-4,4 -4,-639.9162 1031,-639.9162 1031,4 -4,4"/>
<text text-anchor="middle" x="72.4936" y="-7.3" font-family="Helvetica,sans-Serif" font-size="11.00" fill="#000000">Generated by SchemaSpy</text>
<!-- contributory_factor -->
<g id="node1" class="node">
<title>contributory_factor</title>
<g id="a_node1"><a xlink:href="../../tables/contributory_factor.html" xlink:title="contributory_factor" target="_top">
<polygon fill="#ffffff" stroke="transparent" points="599.5,-570.9162 599.5,-631.9162 768.5,-631.9162 768.5,-570.9162 599.5,-570.9162"/>
<polygon fill="#f5f5f5" stroke="transparent" points="600,-608.4162 600,-631.4162 769,-631.4162 769,-608.4162 600,-608.4162"/>
<polygon fill="none" stroke="#000000" points="600,-608.4162 600,-631.4162 769,-631.4162 769,-608.4162 600,-608.4162"/>
<text text-anchor="start" x="605" y="-617.0162" font-family="Helvetica,sans-Serif" font-weight="bold" font-size="11.00" fill="#000000">contributory_factor</text>
<text text-anchor="start" x="734.5219" y="-616.5162" font-family="Helvetica,sans-Serif" font-size="11.00" fill="#000000">[table]</text>
<polygon fill="none" stroke="#000000" points="600,-589.4162 600,-608.4162 769,-608.4162 769,-589.4162 600,-589.4162"/>
<text text-anchor="start" x="603" y="-595.5162" font-family="Helvetica,sans-Serif" font-size="11.00" fill="#000000">...</text>
<polygon fill="#ffffff" stroke="transparent" points="600,-570.4162 600,-589.4162 683,-589.4162 683,-570.4162 600,-570.4162"/>
<polygon fill="none" stroke="#000000" points="600,-570.4162 600,-589.4162 683,-589.4162 683,-570.4162 600,-570.4162"/>
<text text-anchor="start" x="603" y="-576.5162" font-family="Helvetica,sans-Serif" font-size="11.00" fill="#000000">&lt; 2</text>
<polygon fill="#ffffff" stroke="transparent" points="683,-570.4162 683,-589.4162 726,-589.4162 726,-570.4162 683,-570.4162"/>
<polygon fill="none" stroke="#000000" points="683,-570.4162 683,-589.4162 726,-589.4162 726,-570.4162 683,-570.4162"/>
<text text-anchor="start" x="716.8862" y="-576.5162" font-family="Helvetica,sans-Serif" font-size="11.00" fill="#000000"> &#160;</text>
<polygon fill="#ffffff" stroke="transparent" points="726,-570.4162 726,-589.4162 769,-589.4162 769,-570.4162 726,-570.4162"/>
<polygon fill="none" stroke="#000000" points="726,-570.4162 726,-589.4162 769,-589.4162 769,-570.4162 726,-570.4162"/>
<text text-anchor="start" x="759.8862" y="-576.5162" font-family="Helvetica,sans-Serif" font-size="11.00" fill="#000000"> &#160;</text>
</a>
</g>
</g>
<!-- reference_data -->
<g id="node2" class="node">
<title>reference_data</title>
<g id="a_node2"><a xlink:href="../../tables/reference_data.html" xlink:title="reference_data" target="_top">
<polygon fill="#ffffff" stroke="transparent" points="8,-391.9162 8,-452.9162 148,-452.9162 148,-391.9162 8,-391.9162"/>
<polygon fill="#f5f5f5" stroke="transparent" points="8,-429.4162 8,-452.4162 148,-452.4162 148,-429.4162 8,-429.4162"/>
<polygon fill="none" stroke="#000000" points="8,-429.4162 8,-452.4162 148,-452.4162 148,-429.4162 8,-429.4162"/>
<text text-anchor="start" x="13" y="-438.0162" font-family="Helvetica,sans-Serif" font-weight="bold" font-size="11.00" fill="#000000">reference_data</text>
<text text-anchor="start" x="113.5219" y="-437.5162" font-family="Helvetica,sans-Serif" font-size="11.00" fill="#000000">[table]</text>
<polygon fill="none" stroke="#000000" points="8,-410.4162 8,-429.4162 148,-429.4162 148,-410.4162 8,-410.4162"/>
<text text-anchor="start" x="11" y="-416.5162" font-family="Helvetica,sans-Serif" font-size="11.00" fill="#000000">...</text>
<polygon fill="#ffffff" stroke="transparent" points="8,-391.4162 8,-410.4162 45,-410.4162 45,-391.4162 8,-391.4162"/>
<polygon fill="none" stroke="#000000" points="8,-391.4162 8,-410.4162 45,-410.4162 45,-391.4162 8,-391.4162"/>
<text text-anchor="start" x="11" y="-397.5162" font-family="Helvetica,sans-Serif" font-size="11.00" fill="#000000"> &#160;</text>
<polygon fill="#ffffff" stroke="transparent" points="45,-391.4162 45,-410.4162 108,-410.4162 108,-391.4162 45,-391.4162"/>
<polygon fill="none" stroke="#000000" points="45,-391.4162 45,-410.4162 108,-410.4162 108,-391.4162 45,-391.4162"/>
<text text-anchor="start" x="60.3807" y="-397.5162" font-family="Helvetica,sans-Serif" font-size="11.00" fill="#000000">112 rows</text>
<polygon fill="#ffffff" stroke="transparent" points="108,-391.4162 108,-410.4162 148,-410.4162 148,-391.4162 108,-391.4162"/>
<polygon fill="none" stroke="#000000" points="108,-391.4162 108,-410.4162 148,-410.4162 148,-391.4162 108,-391.4162"/>
<text text-anchor="start" x="123.2904" y="-397.5162" font-family="Helvetica,sans-Serif" font-size="11.00" fill="#000000">10 &gt;</text>
</a>
</g>
</g>
<!-- contributory_factor&#45;&gt;reference_data -->
<g id="edge1" class="edge">
<title>contributory_factor:w&#45;&gt;reference_data:e</title>
<path fill="none" stroke="#000000" d="M585.5887,-598.2166C414.3263,-593.5135 230.3255,-506.8325 138.0476,-456.9782"/>
<polygon fill="#000000" stroke="#000000" points="592.0008,-598.3054 599.9501,-602.0159 596.0004,-598.3608 600,-598.4162 600,-598.4162 600,-598.4162 596.0004,-598.3608 600.0499,-594.8166 592.0008,-598.3054 592.0008,-598.3054"/>
<ellipse fill="none" stroke="#000000" cx="588.8011" cy="-598.261" rx="3.2" ry="3.2"/>
</g>
<!-- referral -->
<g id="node3" class="node">
<title>referral</title>
<g id="a_node3"><a xlink:href="../../tables/referral.html" xlink:title="referral" target="_top">
<polygon fill="#ffffff" stroke="transparent" points="361,-429.9162 361,-490.9162 451,-490.9162 451,-429.9162 361,-429.9162"/>
<polygon fill="#f5f5f5" stroke="transparent" points="361,-467.4162 361,-490.4162 451,-490.4162 451,-467.4162 361,-467.4162"/>
<polygon fill="none" stroke="#000000" points="361,-467.4162 361,-490.4162 451,-490.4162 451,-467.4162 361,-467.4162"/>
<text text-anchor="start" x="366" y="-476.0162" font-family="Helvetica,sans-Serif" font-weight="bold" font-size="11.00" fill="#000000">referral</text>
<text text-anchor="start" x="416.5219" y="-475.5162" font-family="Helvetica,sans-Serif" font-size="11.00" fill="#000000">[table]</text>
<polygon fill="none" stroke="#000000" points="361,-448.4162 361,-467.4162 451,-467.4162 451,-448.4162 361,-448.4162"/>
<text text-anchor="start" x="364" y="-454.5162" font-family="Helvetica,sans-Serif" font-size="11.00" fill="#000000">...</text>
<polygon fill="#ffffff" stroke="transparent" points="361,-429.4162 361,-448.4162 400,-448.4162 400,-429.4162 361,-429.4162"/>
<polygon fill="none" stroke="#000000" points="361,-429.4162 361,-448.4162 400,-448.4162 400,-429.4162 361,-429.4162"/>
<text text-anchor="start" x="364" y="-435.5162" font-family="Helvetica,sans-Serif" font-size="11.00" fill="#000000">&lt; 5</text>
<polygon fill="#ffffff" stroke="transparent" points="400,-429.4162 400,-448.4162 421,-448.4162 421,-429.4162 400,-429.4162"/>
<polygon fill="none" stroke="#000000" points="400,-429.4162 400,-448.4162 421,-448.4162 421,-429.4162 400,-429.4162"/>
<text text-anchor="start" x="411.8862" y="-435.5162" font-family="Helvetica,sans-Serif" font-size="11.00" fill="#000000"> &#160;</text>
<polygon fill="#ffffff" stroke="transparent" points="421,-429.4162 421,-448.4162 451,-448.4162 451,-429.4162 421,-429.4162"/>
<polygon fill="none" stroke="#000000" points="421,-429.4162 421,-448.4162 451,-448.4162 451,-429.4162 421,-429.4162"/>
<text text-anchor="start" x="432.4053" y="-435.5162" font-family="Helvetica,sans-Serif" font-size="11.00" fill="#000000">5 &gt;</text>
</a>
</g>
</g>
<!-- contributory_factor&#45;&gt;referral -->
<g id="edge2" class="edge">
<title>contributory_factor:w&#45;&gt;referral:e</title>
<path fill="none" stroke="#000000" d="M585.5377,-598.1181C545.7703,-596.3284 529.7464,-586.208 492,-560.4162 466.6657,-543.1055 444.2904,-516.5183 428.7176,-495.1088"/>
<polygon fill="#000000" stroke="#000000" points="592.0017,-598.2513 599.9258,-602.0155 596.0008,-598.3338 600,-598.4162 600,-598.4162 600,-598.4162 596.0008,-598.3338 600.0742,-594.817 592.0017,-598.2513 592.0017,-598.2513"/>
<ellipse fill="none" stroke="#000000" cx="588.8024" cy="-598.1853" rx="3.2" ry="3.2"/>
</g>
<!-- referral&#45;&gt;reference_data -->
<g id="edge11" class="edge">
<title>referral:w&#45;&gt;reference_data:e</title>
<path fill="none" stroke="#000000" d="M338.5742,-440.829C285.5721,-431.5922 211.665,-422.8395 156.0938,-419.1172"/>
<polygon fill="#000000" stroke="#000000" points="345.0659,-442.0106 352.2919,-446.9852 349.0013,-442.727 352.9366,-443.4434 352.9366,-443.4434 352.9366,-443.4434 349.0013,-442.727 353.5813,-439.9016 345.0659,-442.0106 345.0659,-442.0106"/>
<ellipse fill="none" stroke="#000000" cx="341.9176" cy="-441.4376" rx="3.2" ry="3.2"/>
</g>
<!-- referral&#45;&gt;reference_data -->
<g id="edge12" class="edge">
<title>referral:w&#45;&gt;reference_data:e</title>
<path fill="none" stroke="#000000" d="M338.5742,-448.8861C285.5721,-441.7678 211.665,-433.1453 156.0938,-427.5648"/>
<polygon fill="#000000" stroke="#000000" points="345.0104,-449.7662 352.4488,-454.4169 348.9735,-450.3082 352.9366,-450.8501 352.9366,-450.8501 352.9366,-450.8501 348.9735,-450.3082 353.4244,-447.2833 345.0104,-449.7662 345.0104,-449.7662"/>
<ellipse fill="none" stroke="#000000" cx="341.8399" cy="-449.3326" rx="3.2" ry="3.2"/>
</g>
<!-- referral&#45;&gt;reference_data -->
<g id="edge13" class="edge">
<title>referral:w&#45;&gt;reference_data:e</title>
<path fill="none" stroke="#000000" d="M338.5742,-456.9431C285.5721,-451.9434 211.665,-443.4511 156.0938,-436.0124"/>
<polygon fill="#000000" stroke="#000000" points="344.9698,-457.5281 352.6086,-461.842 348.9532,-457.8925 352.9366,-458.2569 352.9366,-458.2569 352.9366,-458.2569 348.9532,-457.8925 353.2645,-454.6719 344.9698,-457.5281 344.9698,-457.5281"/>
<ellipse fill="none" stroke="#000000" cx="341.7832" cy="-457.2366" rx="3.2" ry="3.2"/>
</g>
<!-- referral&#45;&gt;reference_data -->
<g id="edge14" class="edge">
<title>referral:w&#45;&gt;reference_data:e</title>
<path fill="none" stroke="#000000" d="M338.2342,-464.9817C285.2563,-462.0833 211.5463,-453.737 156.0938,-444.46"/>
<polygon fill="#000000" stroke="#000000" points="344.9452,-465.2929 352.7697,-469.2598 348.9409,-465.4783 352.9366,-465.6637 352.9366,-465.6637 352.9366,-465.6637 348.9409,-465.4783 353.1034,-462.0676 344.9452,-465.2929 344.9452,-465.2929"/>
<ellipse fill="none" stroke="#000000" cx="341.7486" cy="-465.1446" rx="3.2" ry="3.2"/>
</g>
<!-- csip_record -->
<g id="node5" class="node">
<title>csip_record</title>
<g id="a_node5"><a xlink:href="../../tables/csip_record.html" xlink:title="csip_record" target="_top">
<polygon fill="#ffffff" stroke="transparent" points="197,-356.9162 197,-417.9162 312,-417.9162 312,-356.9162 197,-356.9162"/>
<polygon fill="#f5f5f5" stroke="transparent" points="197.5,-394.4162 197.5,-417.4162 312.5,-417.4162 312.5,-394.4162 197.5,-394.4162"/>
<polygon fill="none" stroke="#000000" points="197.5,-394.4162 197.5,-417.4162 312.5,-417.4162 312.5,-394.4162 197.5,-394.4162"/>
<text text-anchor="start" x="202.5" y="-403.0162" font-family="Helvetica,sans-Serif" font-weight="bold" font-size="11.00" fill="#000000">csip_record</text>
<text text-anchor="start" x="278.0219" y="-402.5162" font-family="Helvetica,sans-Serif" font-size="11.00" fill="#000000">[table]</text>
<polygon fill="none" stroke="#000000" points="197.5,-375.4162 197.5,-394.4162 312.5,-394.4162 312.5,-375.4162 197.5,-375.4162"/>
<text text-anchor="start" x="200.5" y="-381.5162" font-family="Helvetica,sans-Serif" font-size="11.00" fill="#000000">...</text>
<polygon fill="#ffffff" stroke="transparent" points="197.5,-356.4162 197.5,-375.4162 248.5,-375.4162 248.5,-356.4162 197.5,-356.4162"/>
<polygon fill="none" stroke="#000000" points="197.5,-356.4162 197.5,-375.4162 248.5,-375.4162 248.5,-356.4162 197.5,-356.4162"/>
<text text-anchor="start" x="200.5" y="-362.5162" font-family="Helvetica,sans-Serif" font-size="11.00" fill="#000000">&lt; 2</text>
<polygon fill="#ffffff" stroke="transparent" points="248.5,-356.4162 248.5,-375.4162 275.5,-375.4162 275.5,-356.4162 248.5,-356.4162"/>
<polygon fill="none" stroke="#000000" points="248.5,-356.4162 248.5,-375.4162 275.5,-375.4162 275.5,-356.4162 248.5,-356.4162"/>
<text text-anchor="start" x="266.3862" y="-362.5162" font-family="Helvetica,sans-Serif" font-size="11.00" fill="#000000"> &#160;</text>
<polygon fill="#ffffff" stroke="transparent" points="275.5,-356.4162 275.5,-375.4162 312.5,-375.4162 312.5,-356.4162 275.5,-356.4162"/>
<polygon fill="none" stroke="#000000" points="275.5,-356.4162 275.5,-375.4162 312.5,-375.4162 312.5,-356.4162 275.5,-356.4162"/>
<text text-anchor="start" x="293.9053" y="-362.5162" font-family="Helvetica,sans-Serif" font-size="11.00" fill="#000000">2 &gt;</text>
</a>
</g>
</g>
<!-- referral&#45;&gt;csip_record -->
<g id="edge15" class="edge">
<title>referral:w&#45;&gt;csip_record:e</title>
<path fill="none" stroke="#000000" d="M374.9145,-417.561C358.6342,-400.31 336.9896,-384.4162 312.5,-384.4162"/>
<polygon fill="#000000" stroke="#000000" points="384.464,-422.2733 378.4883,-427.5923 377.4245,-426.3971 383.4002,-421.0781 384.464,-422.2733"/>
<polyline fill="none" stroke="#000000" points="382.0081,-425.5303 379.3486,-422.5425 "/>
<ellipse fill="none" stroke="#000000" cx="377.221" cy="-420.1522" rx="3.2" ry="3.2"/>
</g>
<!-- contributory_factor_audit -->
<g id="node4" class="node">
<title>contributory_factor_audit</title>
<g id="a_node4"><a xlink:href="../../tables/contributory_factor_audit.html" xlink:title="contributory_factor_audit" target="_top">
<polygon fill="#ffffff" stroke="transparent" points="579,-488.9162 579,-549.9162 789,-549.9162 789,-488.9162 579,-488.9162"/>
<polygon fill="#f5f5f5" stroke="transparent" points="579,-526.4162 579,-549.4162 789,-549.4162 789,-526.4162 579,-526.4162"/>
<polygon fill="none" stroke="#000000" points="579,-526.4162 579,-549.4162 789,-549.4162 789,-526.4162 579,-526.4162"/>
<text text-anchor="start" x="584" y="-535.0162" font-family="Helvetica,sans-Serif" font-weight="bold" font-size="11.00" fill="#000000">contributory_factor_audit</text>
<text text-anchor="start" x="754.5219" y="-534.5162" font-family="Helvetica,sans-Serif" font-size="11.00" fill="#000000">[table]</text>
<polygon fill="none" stroke="#000000" points="579,-507.4162 579,-526.4162 789,-526.4162 789,-507.4162 579,-507.4162"/>
<text text-anchor="start" x="582" y="-513.5162" font-family="Helvetica,sans-Serif" font-size="11.00" fill="#000000">...</text>
<polygon fill="#ffffff" stroke="transparent" points="579,-488.4162 579,-507.4162 682,-507.4162 682,-488.4162 579,-488.4162"/>
<polygon fill="none" stroke="#000000" points="579,-488.4162 579,-507.4162 682,-507.4162 682,-488.4162 579,-488.4162"/>
<text text-anchor="start" x="582" y="-494.5162" font-family="Helvetica,sans-Serif" font-size="11.00" fill="#000000">&lt; 4</text>
<polygon fill="#ffffff" stroke="transparent" points="682,-488.4162 682,-507.4162 735,-507.4162 735,-488.4162 682,-488.4162"/>
<polygon fill="none" stroke="#000000" points="682,-488.4162 682,-507.4162 735,-507.4162 735,-488.4162 682,-488.4162"/>
<text text-anchor="start" x="725.8862" y="-494.5162" font-family="Helvetica,sans-Serif" font-size="11.00" fill="#000000"> &#160;</text>
<polygon fill="#ffffff" stroke="transparent" points="735,-488.4162 735,-507.4162 789,-507.4162 789,-488.4162 735,-488.4162"/>
<polygon fill="none" stroke="#000000" points="735,-488.4162 735,-507.4162 789,-507.4162 789,-488.4162 735,-488.4162"/>
<text text-anchor="start" x="779.8862" y="-494.5162" font-family="Helvetica,sans-Serif" font-size="11.00" fill="#000000"> &#160;</text>
</a>
</g>
</g>
<!-- contributory_factor_audit&#45;&gt;referral -->
<g id="edge3" class="edge">
<title>contributory_factor_audit:w&#45;&gt;referral:e</title>
<path fill="none" stroke="#000000" stroke-dasharray="5,2" d="M564.2483,-515.8276C527.0073,-512.9331 488.7076,-499.8373 459.1161,-487.1042"/>
<polygon fill="#000000" stroke="#000000" points="571.0064,-516.0972 578.8564,-520.0134 575.0032,-516.2567 579,-516.4162 579,-516.4162 579,-516.4162 575.0032,-516.2567 579.1436,-512.8191 571.0064,-516.0972 571.0064,-516.0972"/>
<ellipse fill="none" stroke="#000000" cx="567.8089" cy="-515.9696" rx="3.2" ry="3.2"/>
</g>
<!-- csip_record&#45;&gt;reference_data -->
<g id="edge4" class="edge">
<title>csip_record:w&#45;&gt;reference_data:e</title>
<path fill="none" stroke="#000000" d="M183.0173,-385.208C174.0598,-386.1521 165.0553,-387.885 156.2887,-390.1052"/>
<polygon fill="#000000" stroke="#000000" points="189.5119,-384.853 197.6965,-388.0109 193.506,-384.6346 197.5,-384.4162 197.5,-384.4162 197.5,-384.4162 193.506,-384.6346 197.3035,-380.8216 189.5119,-384.853 189.5119,-384.853"/>
<ellipse fill="none" stroke="#000000" cx="186.3167" cy="-385.0277" rx="3.2" ry="3.2"/>
</g>
<!-- decision_and_actions -->
<g id="node6" class="node">
<title>decision_and_actions</title>
<g id="a_node6"><a xlink:href="../../tables/decision_and_actions.html" xlink:title="decision_and_actions" target="_top">
<polygon fill="#ffffff" stroke="transparent" points="593.5,-324.9162 593.5,-385.9162 774.5,-385.9162 774.5,-324.9162 593.5,-324.9162"/>
<polygon fill="#f5f5f5" stroke="transparent" points="594,-362.4162 594,-385.4162 775,-385.4162 775,-362.4162 594,-362.4162"/>
<polygon fill="none" stroke="#000000" points="594,-362.4162 594,-385.4162 775,-385.4162 775,-362.4162 594,-362.4162"/>
<text text-anchor="start" x="599" y="-371.0162" font-family="Helvetica,sans-Serif" font-weight="bold" font-size="11.00" fill="#000000">decision_and_actions</text>
<text text-anchor="start" x="740.5219" y="-370.5162" font-family="Helvetica,sans-Serif" font-size="11.00" fill="#000000">[table]</text>
<polygon fill="none" stroke="#000000" points="594,-343.4162 594,-362.4162 775,-362.4162 775,-343.4162 594,-343.4162"/>
<text text-anchor="start" x="597" y="-349.5162" font-family="Helvetica,sans-Serif" font-size="11.00" fill="#000000">...</text>
<polygon fill="#ffffff" stroke="transparent" points="594,-324.4162 594,-343.4162 683,-343.4162 683,-324.4162 594,-324.4162"/>
<polygon fill="none" stroke="#000000" points="594,-324.4162 594,-343.4162 683,-343.4162 683,-324.4162 594,-324.4162"/>
<text text-anchor="start" x="597" y="-330.5162" font-family="Helvetica,sans-Serif" font-size="11.00" fill="#000000">&lt; 3</text>
<polygon fill="#ffffff" stroke="transparent" points="683,-324.4162 683,-343.4162 729,-343.4162 729,-324.4162 683,-324.4162"/>
<polygon fill="none" stroke="#000000" points="683,-324.4162 683,-343.4162 729,-343.4162 729,-324.4162 683,-324.4162"/>
<text text-anchor="start" x="719.8862" y="-330.5162" font-family="Helvetica,sans-Serif" font-size="11.00" fill="#000000"> &#160;</text>
<polygon fill="#ffffff" stroke="transparent" points="729,-324.4162 729,-343.4162 775,-343.4162 775,-324.4162 729,-324.4162"/>
<polygon fill="none" stroke="#000000" points="729,-324.4162 729,-343.4162 775,-343.4162 775,-324.4162 729,-324.4162"/>
<text text-anchor="start" x="765.8862" y="-330.5162" font-family="Helvetica,sans-Serif" font-size="11.00" fill="#000000"> &#160;</text>
</a>
</g>
</g>
<!-- decision_and_actions&#45;&gt;reference_data -->
<g id="edge6" class="edge">
<title>decision_and_actions:w&#45;&gt;reference_data:e</title>
<path fill="none" stroke="#000000" d="M579.5126,-351.808C410.9923,-343.2611 356.2672,-288.6402 189,-340.4162 159.3268,-349.6013 130.5256,-369.7559 109.6995,-387.8442"/>
<polygon fill="#000000" stroke="#000000" points="586.007,-352.0806 593.849,-356.0131 590.0035,-352.2484 594,-352.4162 594,-352.4162 594,-352.4162 590.0035,-352.2484 594.151,-348.8194 586.007,-352.0806 586.007,-352.0806"/>
<ellipse fill="none" stroke="#000000" cx="582.8099" cy="-351.9464" rx="3.2" ry="3.2"/>
</g>
<!-- decision_and_actions&#45;&gt;reference_data -->
<g id="edge7" class="edge">
<title>decision_and_actions:w&#45;&gt;reference_data:e</title>
<path fill="none" stroke="#000000" d="M579.5126,-352.8456C410.9923,-356.2611 356.2672,-301.6402 189,-353.4162 165.9085,-360.564 143.345,-374.3548 124.6571,-387.7861"/>
<polygon fill="#000000" stroke="#000000" points="586.0035,-352.6533 594.1067,-356.0147 590.0018,-352.5348 594,-352.4162 594,-352.4162 594,-352.4162 590.0018,-352.5348 593.8933,-348.8178 586.0035,-352.6533 586.0035,-352.6533"/>
<ellipse fill="none" stroke="#000000" cx="582.8049" cy="-352.7481" rx="3.2" ry="3.2"/>
</g>
<!-- decision_and_actions&#45;&gt;referral -->
<g id="edge5" class="edge">
<title>decision_and_actions:w&#45;&gt;referral:e</title>
<path fill="none" stroke="#000000" d="M583.5025,-352.8349C527.4281,-357.2639 474.0498,-395.928 440.7415,-425.6499"/>
<polygon fill="#000000" stroke="#000000" points="593.0412,-348.4513 593.3601,-356.445 591.7614,-356.5087 591.4425,-348.5151 593.0412,-348.4513"/>
<polyline fill="none" stroke="#000000" points="594,-352.4162 590.0032,-352.5757 "/>
<ellipse fill="none" stroke="#000000" cx="586.8057" cy="-352.7033" rx="3.2" ry="3.2"/>
</g>
<!-- interview -->
<g id="node7" class="node">
<title>interview</title>
<g id="a_node7"><a xlink:href="../../tables/interview.html" xlink:title="interview" target="_top">
<polygon fill="#ffffff" stroke="transparent" points="917,-228.9162 917,-289.9162 1019,-289.9162 1019,-228.9162 917,-228.9162"/>
<polygon fill="#f5f5f5" stroke="transparent" points="917,-266.4162 917,-289.4162 1019,-289.4162 1019,-266.4162 917,-266.4162"/>
<polygon fill="none" stroke="#000000" points="917,-266.4162 917,-289.4162 1019,-289.4162 1019,-266.4162 917,-266.4162"/>
<text text-anchor="start" x="922" y="-275.0162" font-family="Helvetica,sans-Serif" font-weight="bold" font-size="11.00" fill="#000000">interview</text>
<text text-anchor="start" x="984.5219" y="-274.5162" font-family="Helvetica,sans-Serif" font-size="11.00" fill="#000000">[table]</text>
<polygon fill="none" stroke="#000000" points="917,-247.4162 917,-266.4162 1019,-266.4162 1019,-247.4162 917,-247.4162"/>
<text text-anchor="start" x="920" y="-253.5162" font-family="Helvetica,sans-Serif" font-size="11.00" fill="#000000">...</text>
<polygon fill="#ffffff" stroke="transparent" points="917,-228.4162 917,-247.4162 966,-247.4162 966,-228.4162 917,-228.4162"/>
<polygon fill="none" stroke="#000000" points="917,-228.4162 917,-247.4162 966,-247.4162 966,-228.4162 917,-228.4162"/>
<text text-anchor="start" x="920" y="-234.5162" font-family="Helvetica,sans-Serif" font-size="11.00" fill="#000000">&lt; 2</text>
<polygon fill="#ffffff" stroke="transparent" points="966,-228.4162 966,-247.4162 992,-247.4162 992,-228.4162 966,-228.4162"/>
<polygon fill="none" stroke="#000000" points="966,-228.4162 966,-247.4162 992,-247.4162 992,-228.4162 966,-228.4162"/>
<text text-anchor="start" x="982.8862" y="-234.5162" font-family="Helvetica,sans-Serif" font-size="11.00" fill="#000000"> &#160;</text>
<polygon fill="#ffffff" stroke="transparent" points="992,-228.4162 992,-247.4162 1019,-247.4162 1019,-228.4162 992,-228.4162"/>
<polygon fill="none" stroke="#000000" points="992,-228.4162 992,-247.4162 1019,-247.4162 1019,-228.4162 992,-228.4162"/>
<text text-anchor="start" x="1009.8862" y="-234.5162" font-family="Helvetica,sans-Serif" font-size="11.00" fill="#000000"> &#160;</text>
</a>
</g>
</g>
<!-- interview&#45;&gt;reference_data -->
<g id="edge8" class="edge">
<title>interview:w&#45;&gt;reference_data:e</title>
<path fill="none" stroke="#000000" d="M902.6219,-254.4501C855.2042,-238.8908 930.7087,-135.1315 876,-92.4162 741.4796,12.6141 657.1741,-49.4673 492,-92.4162 342.7653,-131.2206 303.0791,-157.6725 189,-261.4162 148.4352,-298.306 114.8756,-352.7266 95.6267,-387.8775"/>
<polygon fill="#000000" stroke="#000000" points="909.0738,-255.3323 916.5122,-259.9831 913.0369,-255.8743 917,-256.4162 917,-256.4162 917,-256.4162 913.0369,-255.8743 917.4878,-252.8494 909.0738,-255.3323 909.0738,-255.3323"/>
<ellipse fill="none" stroke="#000000" cx="905.9033" cy="-254.8987" rx="3.2" ry="3.2"/>
</g>
<!-- investigation -->
<g id="node8" class="node">
<title>investigation</title>
<g id="a_node8"><a xlink:href="../../tables/investigation.html" xlink:title="investigation" target="_top">
<polygon fill="#ffffff" stroke="transparent" points="620.5,-406.9162 620.5,-467.9162 747.5,-467.9162 747.5,-406.9162 620.5,-406.9162"/>
<polygon fill="#f5f5f5" stroke="transparent" points="621,-444.4162 621,-467.4162 748,-467.4162 748,-444.4162 621,-444.4162"/>
<polygon fill="none" stroke="#000000" points="621,-444.4162 621,-467.4162 748,-467.4162 748,-444.4162 621,-444.4162"/>
<text text-anchor="start" x="626" y="-453.0162" font-family="Helvetica,sans-Serif" font-weight="bold" font-size="11.00" fill="#000000">investigation</text>
<text text-anchor="start" x="713.5219" y="-452.5162" font-family="Helvetica,sans-Serif" font-size="11.00" fill="#000000">[table]</text>
<polygon fill="none" stroke="#000000" points="621,-425.4162 621,-444.4162 748,-444.4162 748,-425.4162 621,-425.4162"/>
<text text-anchor="start" x="624" y="-431.5162" font-family="Helvetica,sans-Serif" font-size="11.00" fill="#000000">...</text>
<polygon fill="#ffffff" stroke="transparent" points="621,-406.4162 621,-425.4162 678,-425.4162 678,-406.4162 621,-406.4162"/>
<polygon fill="none" stroke="#000000" points="621,-406.4162 621,-425.4162 678,-425.4162 678,-406.4162 621,-406.4162"/>
<text text-anchor="start" x="624" y="-412.5162" font-family="Helvetica,sans-Serif" font-size="11.00" fill="#000000">&lt; 1</text>
<polygon fill="#ffffff" stroke="transparent" points="678,-406.4162 678,-425.4162 708,-425.4162 708,-406.4162 678,-406.4162"/>
<polygon fill="none" stroke="#000000" points="678,-406.4162 678,-425.4162 708,-425.4162 708,-406.4162 678,-406.4162"/>
<text text-anchor="start" x="698.8862" y="-412.5162" font-family="Helvetica,sans-Serif" font-size="11.00" fill="#000000"> &#160;</text>
<polygon fill="#ffffff" stroke="transparent" points="708,-406.4162 708,-425.4162 748,-425.4162 748,-406.4162 708,-406.4162"/>
<polygon fill="none" stroke="#000000" points="708,-406.4162 708,-425.4162 748,-425.4162 748,-406.4162 708,-406.4162"/>
<text text-anchor="start" x="729.4053" y="-412.5162" font-family="Helvetica,sans-Serif" font-size="11.00" fill="#000000">1 &gt;</text>
</a>
</g>
</g>
<!-- interview&#45;&gt;investigation -->
<g id="edge9" class="edge">
<title>interview:w&#45;&gt;investigation:e</title>
<path fill="none" stroke="#000000" d="M902.599,-258.5911C863.7389,-272.9308 917.6495,-354.6125 876,-396.4162 834.1159,-438.4555 807.3429,-434.4162 748,-434.4162"/>
<polygon fill="#000000" stroke="#000000" points="909.0897,-257.6109 917.5376,-259.9759 913.0448,-257.0136 917,-256.4162 917,-256.4162 917,-256.4162 913.0448,-257.0136 916.4624,-252.8566 909.0897,-257.6109 909.0897,-257.6109"/>
<ellipse fill="none" stroke="#000000" cx="905.9256" cy="-258.0888" rx="3.2" ry="3.2"/>
</g>
<!-- investigation&#45;&gt;referral -->
<g id="edge10" class="edge">
<title>investigation:w&#45;&gt;referral:e</title>
<path fill="none" stroke="#000000" d="M610.5208,-434.515C557.7531,-435.49 499.9056,-443.5048 459.2391,-450.364"/>
<polygon fill="#000000" stroke="#000000" points="620.1623,-430.424 620.2378,-438.4236 618.6378,-438.4387 618.5624,-430.4391 620.1623,-430.424"/>
<polyline fill="none" stroke="#000000" points="621,-434.4162 617.0002,-434.454 "/>
<ellipse fill="none" stroke="#000000" cx="613.8003" cy="-434.4841" rx="3.2" ry="3.2"/>
</g>
<!-- safer_custody_screening_outcome -->
<g id="node9" class="node">
<title>safer_custody_screening_outcome</title>
<g id="a_node9"><a xlink:href="../../tables/safer_custody_screening_outcome.html" xlink:title="safer_custody_screening_outcome" target="_top">
<polygon fill="#ffffff" stroke="transparent" points="500,-103.4162 500,-303.4162 868,-303.4162 868,-103.4162 500,-103.4162"/>
<polygon fill="#f5f5f5" stroke="transparent" points="502,-278.4162 502,-301.4162 866,-301.4162 866,-278.4162 502,-278.4162"/>
<polygon fill="none" stroke="#000000" points="502,-278.4162 502,-301.4162 866,-301.4162 866,-278.4162 502,-278.4162"/>
<text text-anchor="start" x="507" y="-287.0162" font-family="Helvetica,sans-Serif" font-weight="bold" font-size="11.00" fill="#000000">safer_custody_screening_outcome</text>
<text text-anchor="start" x="831.0437" y="-286.5162" font-family="Helvetica,sans-Serif" font-size="11.00" fill="#000000">[table]</text>
<polygon fill="none" stroke="#000000" points="502,-256.4162 502,-278.4162 772,-278.4162 772,-256.4162 502,-256.4162"/>
<image xlink:href="../../images/primaryKeys.png" width="11px" height="12px" preserveAspectRatio="xMinYMin meet" x="507" y="-273.416"/>
<text text-anchor="start" x="522" y="-263.5162" font-family="Helvetica,sans-Serif" font-size="11.00" fill="#000000">safer_custody_screening_outcome_id</text>
<polygon fill="none" stroke="#000000" points="772,-256.4162 772,-278.4162 866,-278.4162 866,-256.4162 772,-256.4162"/>
<text text-anchor="start" x="774.9758" y="-264.1162" font-family="Helvetica,sans-Serif" font-size="11.00" fill="#000000">uuid[2147483647]</text>
<polygon fill="#ffffff" stroke="transparent" points="502,-234.4162 502,-256.4162 772,-256.4162 772,-234.4162 502,-234.4162"/>
<polygon fill="none" stroke="#000000" points="502,-234.4162 502,-256.4162 772,-256.4162 772,-234.4162 502,-234.4162"/>
<image xlink:href="../../images/foreignKeys.png" width="11px" height="12px" preserveAspectRatio="xMinYMin meet" x="507" y="-251.416"/>
<text text-anchor="start" x="522" y="-241.5162" font-family="Helvetica,sans-Serif" font-size="11.00" fill="#000000">outcome_id</text>
<polygon fill="none" stroke="#000000" points="772,-234.4162 772,-256.4162 866,-256.4162 866,-234.4162 772,-234.4162"/>
<text text-anchor="start" x="775" y="-242.1162" font-family="Helvetica,sans-Serif" font-size="11.00" fill="#000000">int4[10]</text>
<polygon fill="none" stroke="#000000" points="502,-212.4162 502,-234.4162 772,-234.4162 772,-212.4162 502,-212.4162"/>
<text text-anchor="start" x="522" y="-219.5162" font-family="Helvetica,sans-Serif" font-size="11.00" fill="#000000">recorded_by</text>
<polygon fill="none" stroke="#000000" points="772,-212.4162 772,-234.4162 866,-234.4162 866,-212.4162 772,-212.4162"/>
<text text-anchor="start" x="775" y="-220.1162" font-family="Helvetica,sans-Serif" font-size="11.00" fill="#000000">varchar[100]</text>
<polygon fill="none" stroke="#000000" points="502,-190.4162 502,-212.4162 772,-212.4162 772,-190.4162 502,-190.4162"/>
<text text-anchor="start" x="522" y="-197.5162" font-family="Helvetica,sans-Serif" font-size="11.00" fill="#000000">recorded_by_display_name</text>
<polygon fill="none" stroke="#000000" points="772,-190.4162 772,-212.4162 866,-212.4162 866,-190.4162 772,-190.4162"/>
<text text-anchor="start" x="775" y="-198.1162" font-family="Helvetica,sans-Serif" font-size="11.00" fill="#000000">varchar[255]</text>
<polygon fill="none" stroke="#000000" points="502,-168.4162 502,-190.4162 772,-190.4162 772,-168.4162 502,-168.4162"/>
<text text-anchor="start" x="522" y="-175.5162" font-family="Helvetica,sans-Serif" font-size="11.00" fill="#000000">date</text>
<polygon fill="none" stroke="#000000" points="772,-168.4162 772,-190.4162 866,-190.4162 866,-168.4162 772,-168.4162"/>
<text text-anchor="start" x="775" y="-176.1162" font-family="Helvetica,sans-Serif" font-size="11.00" fill="#000000">date[13]</text>
<polygon fill="none" stroke="#000000" points="502,-146.4162 502,-168.4162 772,-168.4162 772,-146.4162 502,-146.4162"/>
<text text-anchor="start" x="522" y="-153.5162" font-family="Helvetica,sans-Serif" font-size="11.00" fill="#000000">reason_for_decision</text>
<polygon fill="none" stroke="#000000" points="772,-146.4162 772,-168.4162 866,-168.4162 866,-146.4162 772,-146.4162"/>
<text text-anchor="start" x="775" y="-154.1162" font-family="Helvetica,sans-Serif" font-size="11.00" fill="#000000">text[2147483647]</text>
<polygon fill="none" stroke="#000000" points="502,-124.4162 502,-146.4162 772,-146.4162 772,-124.4162 502,-124.4162"/>
<text text-anchor="start" x="522" y="-131.5162" font-family="Helvetica,sans-Serif" font-size="11.00" fill="#000000">version</text>
<polygon fill="none" stroke="#000000" points="772,-124.4162 772,-146.4162 866,-146.4162 866,-124.4162 772,-124.4162"/>
<text text-anchor="start" x="775" y="-132.1162" font-family="Helvetica,sans-Serif" font-size="11.00" fill="#000000">int4[10]</text>
<polygon fill="#ffffff" stroke="transparent" points="502,-105.4162 502,-124.4162 641,-124.4162 641,-105.4162 502,-105.4162"/>
<polygon fill="none" stroke="#000000" points="502,-105.4162 502,-124.4162 641,-124.4162 641,-105.4162 502,-105.4162"/>
<text text-anchor="start" x="505" y="-111.5162" font-family="Helvetica,sans-Serif" font-size="11.00" fill="#000000">&lt; 2</text>
<polygon fill="#ffffff" stroke="transparent" points="641,-105.4162 641,-124.4162 772,-124.4162 772,-105.4162 641,-105.4162"/>
<polygon fill="none" stroke="#000000" points="641,-105.4162 641,-124.4162 772,-124.4162 772,-105.4162 641,-105.4162"/>
<text text-anchor="start" x="762.8862" y="-111.5162" font-family="Helvetica,sans-Serif" font-size="11.00" fill="#000000"> &#160;</text>
<polygon fill="#ffffff" stroke="transparent" points="772,-105.4162 772,-124.4162 866,-124.4162 866,-105.4162 772,-105.4162"/>
<polygon fill="none" stroke="#000000" points="772,-105.4162 772,-124.4162 866,-124.4162 866,-105.4162 772,-105.4162"/>
<text text-anchor="start" x="847.4053" y="-111.5162" font-family="Helvetica,sans-Serif" font-size="11.00" fill="#000000">0 &gt;</text>
<polygon fill="none" stroke="#000000" stroke-width="2" points="501,-104.4162 501,-302.4162 867,-302.4162 867,-104.4162 501,-104.4162"/>
</a>
</g>
</g>
<!-- safer_custody_screening_outcome&#45;&gt;reference_data -->
<g id="edge16" class="edge">
<title>safer_custody_screening_outcome:w&#45;&gt;reference_data:e</title>
<path fill="none" stroke="#000000" d="M487.2733,-245.4473C355.7778,-246.0368 310.833,-255.5609 189,-320.4162 157.35,-337.2645 127.7859,-365.2918 107.1394,-387.708"/>
<polygon fill="#000000" stroke="#000000" points="494,-245.4332 502.0076,-249.0162 498,-245.4247 502,-245.4162 502,-245.4162 502,-245.4162 498,-245.4247 501.9924,-241.8163 494,-245.4332 494,-245.4332"/>
<ellipse fill="none" stroke="#000000" cx="490.8" cy="-245.44" rx="3.2" ry="3.2"/>
</g>
<!-- safer_custody_screening_outcome&#45;&gt;referral -->
<g id="edge17" class="edge">
<title>safer_custody_screening_outcome:w&#45;&gt;referral:e</title>
<path fill="none" stroke="#000000" d="M491.3489,-268.2533C430.0567,-278.1456 412.7805,-373.3256 407.9111,-425.9117"/>
<polygon fill="#000000" stroke="#000000" points="500.889,-263.4912 501.5159,-271.4666 499.9208,-271.592 499.2939,-263.6166 500.889,-263.4912"/>
<polyline fill="none" stroke="#000000" points="502,-267.4162 498.0123,-267.7297 "/>
<ellipse fill="none" stroke="#000000" cx="494.8221" cy="-267.9804" rx="3.2" ry="3.2"/>
</g>
</g>
</svg>
