<?xml version="1.0" encoding="UTF-8" standalone="no"?>
<!DOCTYPE svg PUBLIC "-//W3C//DTD SVG 1.1//EN"
 "http://www.w3.org/Graphics/SVG/1.1/DTD/svg11.dtd">
<!-- Generated by graphviz version 2.40.1 (20161225.0304)
 -->
<!-- Title: twoDegreesRelationshipsDiagram Pages: 1 -->
<svg width="1035pt" height="552pt"
 viewBox="0.00 0.00 1035.00 552.13" xmlns="http://www.w3.org/2000/svg" xmlns:xlink="http://www.w3.org/1999/xlink">
<g id="graph0" class="graph" transform="scale(1 1) rotate(0) translate(4 548.1275)">
<title>twoDegreesRelationshipsDiagram</title>
<polygon fill="#ffffff" stroke="transparent" points="-4,4 -4,-548.1275 1031,-548.1275 1031,4 -4,4"/>
<text text-anchor="middle" x="72.4936" y="-7.3" font-family="Helvetica,sans-Serif" font-size="11.00" fill="#000000">Generated by SchemaSpy</text>
<!-- contributory_factor -->
<g id="node1" class="node">
<title>contributory_factor</title>
<g id="a_node1"><a xlink:href="../../tables/contributory_factor.html" xlink:title="contributory_factor" target="_top">
<polygon fill="#ffffff" stroke="transparent" points="599.5,-423.7 599.5,-484.7 768.5,-484.7 768.5,-423.7 599.5,-423.7"/>
<polygon fill="#f5f5f5" stroke="transparent" points="600,-461.2 600,-484.2 769,-484.2 769,-461.2 600,-461.2"/>
<polygon fill="none" stroke="#000000" points="600,-461.2 600,-484.2 769,-484.2 769,-461.2 600,-461.2"/>
<text text-anchor="start" x="605" y="-469.8" font-family="Helvetica,sans-Serif" font-weight="bold" font-size="11.00" fill="#000000">contributory_factor</text>
<text text-anchor="start" x="734.5219" y="-469.3" font-family="Helvetica,sans-Serif" font-size="11.00" fill="#000000">[table]</text>
<polygon fill="none" stroke="#000000" points="600,-442.2 600,-461.2 769,-461.2 769,-442.2 600,-442.2"/>
<text text-anchor="start" x="603" y="-448.3" font-family="Helvetica,sans-Serif" font-size="11.00" fill="#000000">...</text>
<polygon fill="#ffffff" stroke="transparent" points="600,-423.2 600,-442.2 683,-442.2 683,-423.2 600,-423.2"/>
<polygon fill="none" stroke="#000000" points="600,-423.2 600,-442.2 683,-442.2 683,-423.2 600,-423.2"/>
<text text-anchor="start" x="603" y="-429.3" font-family="Helvetica,sans-Serif" font-size="11.00" fill="#000000">&lt; 2</text>
<polygon fill="#ffffff" stroke="transparent" points="683,-423.2 683,-442.2 726,-442.2 726,-423.2 683,-423.2"/>
<polygon fill="none" stroke="#000000" points="683,-423.2 683,-442.2 726,-442.2 726,-423.2 683,-423.2"/>
<text text-anchor="start" x="716.8862" y="-429.3" font-family="Helvetica,sans-Serif" font-size="11.00" fill="#000000"> &#160;</text>
<polygon fill="#ffffff" stroke="transparent" points="726,-423.2 726,-442.2 769,-442.2 769,-423.2 726,-423.2"/>
<polygon fill="none" stroke="#000000" points="726,-423.2 726,-442.2 769,-442.2 769,-423.2 726,-423.2"/>
<text text-anchor="start" x="759.8862" y="-429.3" font-family="Helvetica,sans-Serif" font-size="11.00" fill="#000000"> &#160;</text>
</a>
</g>
</g>
<!-- reference_data -->
<g id="node2" class="node">
<title>reference_data</title>
<g id="a_node2"><a xlink:href="../../tables/reference_data.html" xlink:title="reference_data" target="_top">
<polygon fill="#ffffff" stroke="transparent" points="8,-282.7 8,-343.7 148,-343.7 148,-282.7 8,-282.7"/>
<polygon fill="#f5f5f5" stroke="transparent" points="8,-320.2 8,-343.2 148,-343.2 148,-320.2 8,-320.2"/>
<polygon fill="none" stroke="#000000" points="8,-320.2 8,-343.2 148,-343.2 148,-320.2 8,-320.2"/>
<text text-anchor="start" x="13" y="-328.8" font-family="Helvetica,sans-Serif" font-weight="bold" font-size="11.00" fill="#000000">reference_data</text>
<text text-anchor="start" x="113.5219" y="-328.3" font-family="Helvetica,sans-Serif" font-size="11.00" fill="#000000">[table]</text>
<polygon fill="none" stroke="#000000" points="8,-301.2 8,-320.2 148,-320.2 148,-301.2 8,-301.2"/>
<text text-anchor="start" x="11" y="-307.3" font-family="Helvetica,sans-Serif" font-size="11.00" fill="#000000">...</text>
<polygon fill="#ffffff" stroke="transparent" points="8,-282.2 8,-301.2 45,-301.2 45,-282.2 8,-282.2"/>
<polygon fill="none" stroke="#000000" points="8,-282.2 8,-301.2 45,-301.2 45,-282.2 8,-282.2"/>
<text text-anchor="start" x="11" y="-288.3" font-family="Helvetica,sans-Serif" font-size="11.00" fill="#000000"> &#160;</text>
<polygon fill="#ffffff" stroke="transparent" points="45,-282.2 45,-301.2 108,-301.2 108,-282.2 45,-282.2"/>
<polygon fill="none" stroke="#000000" points="45,-282.2 45,-301.2 108,-301.2 108,-282.2 45,-282.2"/>
<text text-anchor="start" x="60.3807" y="-288.3" font-family="Helvetica,sans-Serif" font-size="11.00" fill="#000000">112 rows</text>
<polygon fill="#ffffff" stroke="transparent" points="108,-282.2 108,-301.2 148,-301.2 148,-282.2 108,-282.2"/>
<polygon fill="none" stroke="#000000" points="108,-282.2 108,-301.2 148,-301.2 148,-282.2 108,-282.2"/>
<text text-anchor="start" x="123.2904" y="-288.3" font-family="Helvetica,sans-Serif" font-size="11.00" fill="#000000">10 &gt;</text>
</a>
</g>
</g>
<!-- contributory_factor&#45;&gt;reference_data -->
<g id="edge1" class="edge">
<title>contributory_factor:w&#45;&gt;reference_data:e</title>
<path fill="none" stroke="#000000" d="M585.504,-451.135C410.5632,-449.5369 362.0478,-418.4886 189,-362.2 176.3799,-358.095 163.2489,-353.0428 150.6227,-347.7584"/>
<polygon fill="#000000" stroke="#000000" points="592.0001,-451.1641 599.9838,-454.8 596,-451.182 600,-451.2 600,-451.2 600,-451.2 596,-451.182 600.0162,-447.6 592.0001,-451.1641 592.0001,-451.1641"/>
<ellipse fill="none" stroke="#000000" cx="588.8001" cy="-451.1497" rx="3.2" ry="3.2"/>
</g>
<!-- referral -->
<g id="node3" class="node">
<title>referral</title>
<g id="a_node3"><a xlink:href="../../tables/referral.html" xlink:title="referral" target="_top">
<polygon fill="#ffffff" stroke="transparent" points="361,-277.7 361,-338.7 451,-338.7 451,-277.7 361,-277.7"/>
<polygon fill="#f5f5f5" stroke="transparent" points="361,-315.2 361,-338.2 451,-338.2 451,-315.2 361,-315.2"/>
<polygon fill="none" stroke="#000000" points="361,-315.2 361,-338.2 451,-338.2 451,-315.2 361,-315.2"/>
<text text-anchor="start" x="366" y="-323.8" font-family="Helvetica,sans-Serif" font-weight="bold" font-size="11.00" fill="#000000">referral</text>
<text text-anchor="start" x="416.5219" y="-323.3" font-family="Helvetica,sans-Serif" font-size="11.00" fill="#000000">[table]</text>
<polygon fill="none" stroke="#000000" points="361,-296.2 361,-315.2 451,-315.2 451,-296.2 361,-296.2"/>
<text text-anchor="start" x="364" y="-302.3" font-family="Helvetica,sans-Serif" font-size="11.00" fill="#000000">...</text>
<polygon fill="#ffffff" stroke="transparent" points="361,-277.2 361,-296.2 400,-296.2 400,-277.2 361,-277.2"/>
<polygon fill="none" stroke="#000000" points="361,-277.2 361,-296.2 400,-296.2 400,-277.2 361,-277.2"/>
<text text-anchor="start" x="364" y="-283.3" font-family="Helvetica,sans-Serif" font-size="11.00" fill="#000000">&lt; 5</text>
<polygon fill="#ffffff" stroke="transparent" points="400,-277.2 400,-296.2 421,-296.2 421,-277.2 400,-277.2"/>
<polygon fill="none" stroke="#000000" points="400,-277.2 400,-296.2 421,-296.2 421,-277.2 400,-277.2"/>
<text text-anchor="start" x="411.8862" y="-283.3" font-family="Helvetica,sans-Serif" font-size="11.00" fill="#000000"> &#160;</text>
<polygon fill="#ffffff" stroke="transparent" points="421,-277.2 421,-296.2 451,-296.2 451,-277.2 421,-277.2"/>
<polygon fill="none" stroke="#000000" points="421,-277.2 421,-296.2 451,-296.2 451,-277.2 421,-277.2"/>
<text text-anchor="start" x="432.4053" y="-283.3" font-family="Helvetica,sans-Serif" font-size="11.00" fill="#000000">4 &gt;</text>
</a>
</g>
</g>
<!-- contributory_factor&#45;&gt;referral -->
<g id="edge2" class="edge">
<title>contributory_factor:w&#45;&gt;referral:e</title>
<path fill="none" stroke="#000000" d="M585.5281,-450.9158C545.7068,-449.2039 529.4338,-439.4433 492,-413.2 465.5671,-394.669 442.7959,-365.9007 427.3374,-343.1595"/>
<polygon fill="#000000" stroke="#000000" points="592.0015,-451.0429 599.9293,-454.7993 596.0008,-451.1214 600,-451.2 600,-451.2 600,-451.2 596.0008,-451.1214 600.0707,-447.6007 592.0015,-451.0429 592.0015,-451.0429"/>
<ellipse fill="none" stroke="#000000" cx="588.8022" cy="-450.98" rx="3.2" ry="3.2"/>
</g>
<!-- referral&#45;&gt;reference_data -->
<g id="edge10" class="edge">
<title>referral:w&#45;&gt;reference_data:e</title>
<path fill="none" stroke="#000000" d="M338.2342,-297.4375C285.2563,-295.1678 211.5463,-296.1077 156.0938,-299.6631"/>
<polygon fill="#000000" stroke="#000000" points="344.9469,-297.7781 352.7541,-301.779 348.9417,-297.9808 352.9366,-298.1836 352.9366,-298.1836 352.9366,-298.1836 348.9417,-297.9808 353.1191,-294.5882 344.9469,-297.7781 344.9469,-297.7781"/>
<ellipse fill="none" stroke="#000000" cx="341.751" cy="-297.6159" rx="3.2" ry="3.2"/>
</g>
<!-- referral&#45;&gt;reference_data -->
<g id="edge11" class="edge">
<title>referral:w&#45;&gt;reference_data:e</title>
<path fill="none" stroke="#000000" d="M338.2342,-305.5081C285.2563,-305.3439 211.5463,-306.4095 156.0938,-308.1107"/>
<polygon fill="#000000" stroke="#000000" points="344.9367,-305.5456 352.9164,-309.1903 348.9367,-305.568 352.9366,-305.5904 352.9366,-305.5904 352.9366,-305.5904 348.9367,-305.568 352.9568,-301.9904 344.9367,-305.5456 344.9367,-305.5456"/>
<ellipse fill="none" stroke="#000000" cx="341.7368" cy="-305.5276" rx="3.2" ry="3.2"/>
</g>
<!-- referral&#45;&gt;reference_data -->
<g id="edge12" class="edge">
<title>referral:w&#45;&gt;reference_data:e</title>
<path fill="none" stroke="#000000" d="M338.2342,-313.5787C285.2563,-315.5201 211.5463,-316.7114 156.0938,-316.5583"/>
<polygon fill="#000000" stroke="#000000" points="344.9428,-313.3134 353.0789,-316.5943 348.9397,-313.1553 352.9366,-312.9972 352.9366,-312.9972 352.9366,-312.9972 348.9397,-313.1553 352.7943,-309.4 344.9428,-313.3134 344.9428,-313.3134"/>
<ellipse fill="none" stroke="#000000" cx="341.7453" cy="-313.4399" rx="3.2" ry="3.2"/>
</g>
<!-- referral&#45;&gt;reference_data -->
<g id="edge13" class="edge">
<title>referral:w&#45;&gt;reference_data:e</title>
<path fill="none" stroke="#000000" d="M338.5742,-321.6233C285.5721,-325.6906 211.665,-327.0175 156.0938,-325.0058"/>
<polygon fill="#000000" stroke="#000000" points="344.9653,-321.0808 353.2412,-323.991 348.9509,-320.7424 352.9366,-320.4039 352.9366,-320.4039 352.9366,-320.4039 348.9509,-320.7424 352.632,-316.8169 344.9653,-321.0808 344.9653,-321.0808"/>
<ellipse fill="none" stroke="#000000" cx="341.7767" cy="-321.3515" rx="3.2" ry="3.2"/>
</g>
<!-- csip_record -->
<g id="node4" class="node">
<title>csip_record</title>
<g id="a_node4"><a xlink:href="../../tables/csip_record.html" xlink:title="csip_record" target="_top">
<polygon fill="#ffffff" stroke="transparent" points="197,-209.7 197,-270.7 312,-270.7 312,-209.7 197,-209.7"/>
<polygon fill="#f5f5f5" stroke="transparent" points="197.5,-247.2 197.5,-270.2 312.5,-270.2 312.5,-247.2 197.5,-247.2"/>
<polygon fill="none" stroke="#000000" points="197.5,-247.2 197.5,-270.2 312.5,-270.2 312.5,-247.2 197.5,-247.2"/>
<text text-anchor="start" x="202.5" y="-255.8" font-family="Helvetica,sans-Serif" font-weight="bold" font-size="11.00" fill="#000000">csip_record</text>
<text text-anchor="start" x="278.0219" y="-255.3" font-family="Helvetica,sans-Serif" font-size="11.00" fill="#000000">[table]</text>
<polygon fill="none" stroke="#000000" points="197.5,-228.2 197.5,-247.2 312.5,-247.2 312.5,-228.2 197.5,-228.2"/>
<text text-anchor="start" x="200.5" y="-234.3" font-family="Helvetica,sans-Serif" font-size="11.00" fill="#000000">...</text>
<polygon fill="#ffffff" stroke="transparent" points="197.5,-209.2 197.5,-228.2 248.5,-228.2 248.5,-209.2 197.5,-209.2"/>
<polygon fill="none" stroke="#000000" points="197.5,-209.2 197.5,-228.2 248.5,-228.2 248.5,-209.2 197.5,-209.2"/>
<text text-anchor="start" x="200.5" y="-215.3" font-family="Helvetica,sans-Serif" font-size="11.00" fill="#000000">&lt; 2</text>
<polygon fill="#ffffff" stroke="transparent" points="248.5,-209.2 248.5,-228.2 275.5,-228.2 275.5,-209.2 248.5,-209.2"/>
<polygon fill="none" stroke="#000000" points="248.5,-209.2 248.5,-228.2 275.5,-228.2 275.5,-209.2 248.5,-209.2"/>
<text text-anchor="start" x="266.3862" y="-215.3" font-family="Helvetica,sans-Serif" font-size="11.00" fill="#000000"> &#160;</text>
<polygon fill="#ffffff" stroke="transparent" points="275.5,-209.2 275.5,-228.2 312.5,-228.2 312.5,-209.2 275.5,-209.2"/>
<polygon fill="none" stroke="#000000" points="275.5,-209.2 275.5,-228.2 312.5,-228.2 312.5,-209.2 275.5,-209.2"/>
<text text-anchor="start" x="293.9053" y="-215.3" font-family="Helvetica,sans-Serif" font-size="11.00" fill="#000000">2 &gt;</text>
</a>
</g>
</g>
<!-- referral&#45;&gt;csip_record -->
<g id="edge14" class="edge">
<title>referral:w&#45;&gt;csip_record:e</title>
<path fill="none" stroke="#000000" d="M372.0774,-265.9633C355.974,-250.7217 335.2709,-237.2 312.5,-237.2"/>
<polygon fill="#000000" stroke="#000000" points="381.8748,-270.1444 376.2015,-275.7848 375.0734,-274.6502 380.7467,-269.0098 381.8748,-270.1444"/>
<polyline fill="none" stroke="#000000" points="379.6022,-273.532 376.782,-270.6953 "/>
<ellipse fill="none" stroke="#000000" cx="374.5258" cy="-268.426" rx="3.2" ry="3.2"/>
</g>
<!-- csip_record&#45;&gt;reference_data -->
<g id="edge3" class="edge">
<title>csip_record:w&#45;&gt;reference_data:e</title>
<path fill="none" stroke="#000000" d="M182.8605,-238.5241C155.1822,-243.449 129.5834,-261.3006 110.6077,-278.3141"/>
<polygon fill="#000000" stroke="#000000" points="189.5325,-237.9207 197.8243,-240.7854 193.5163,-237.5604 197.5,-237.2 197.5,-237.2 197.5,-237.2 193.5163,-237.5604 197.1757,-233.6146 189.5325,-237.9207 189.5325,-237.9207"/>
<ellipse fill="none" stroke="#000000" cx="186.3455" cy="-238.209" rx="3.2" ry="3.2"/>
</g>
<!-- decision_and_actions -->
<g id="node5" class="node">
<title>decision_and_actions</title>
<g id="a_node5"><a xlink:href="../../tables/decision_and_actions.html" xlink:title="decision_and_actions" target="_top">
<polygon fill="#ffffff" stroke="transparent" points="593.5,-341.7 593.5,-402.7 774.5,-402.7 774.5,-341.7 593.5,-341.7"/>
<polygon fill="#f5f5f5" stroke="transparent" points="594,-379.2 594,-402.2 775,-402.2 775,-379.2 594,-379.2"/>
<polygon fill="none" stroke="#000000" points="594,-379.2 594,-402.2 775,-402.2 775,-379.2 594,-379.2"/>
<text text-anchor="start" x="599" y="-387.8" font-family="Helvetica,sans-Serif" font-weight="bold" font-size="11.00" fill="#000000">decision_and_actions</text>
<text text-anchor="start" x="740.5219" y="-387.3" font-family="Helvetica,sans-Serif" font-size="11.00" fill="#000000">[table]</text>
<polygon fill="none" stroke="#000000" points="594,-360.2 594,-379.2 775,-379.2 775,-360.2 594,-360.2"/>
<text text-anchor="start" x="597" y="-366.3" font-family="Helvetica,sans-Serif" font-size="11.00" fill="#000000">...</text>
<polygon fill="#ffffff" stroke="transparent" points="594,-341.2 594,-360.2 683,-360.2 683,-341.2 594,-341.2"/>
<polygon fill="none" stroke="#000000" points="594,-341.2 594,-360.2 683,-360.2 683,-341.2 594,-341.2"/>
<text text-anchor="start" x="597" y="-347.3" font-family="Helvetica,sans-Serif" font-size="11.00" fill="#000000">&lt; 3</text>
<polygon fill="#ffffff" stroke="transparent" points="683,-341.2 683,-360.2 729,-360.2 729,-341.2 683,-341.2"/>
<polygon fill="none" stroke="#000000" points="683,-341.2 683,-360.2 729,-360.2 729,-341.2 683,-341.2"/>
<text text-anchor="start" x="719.8862" y="-347.3" font-family="Helvetica,sans-Serif" font-size="11.00" fill="#000000"> &#160;</text>
<polygon fill="#ffffff" stroke="transparent" points="729,-341.2 729,-360.2 775,-360.2 775,-341.2 729,-341.2"/>
<polygon fill="none" stroke="#000000" points="729,-341.2 729,-360.2 775,-360.2 775,-341.2 729,-341.2"/>
<text text-anchor="start" x="765.8862" y="-347.3" font-family="Helvetica,sans-Serif" font-size="11.00" fill="#000000"> &#160;</text>
</a>
</g>
</g>
<!-- decision_and_actions&#45;&gt;reference_data -->
<g id="edge5" class="edge">
<title>decision_and_actions:w&#45;&gt;reference_data:e</title>
<path fill="none" stroke="#000000" d="M579.4876,-368.7113C410.8617,-362.953 362.6457,-358.2596 189,-332.2 178.3535,-330.6023 167.2093,-328.5517 156.2619,-326.3715"/>
<polygon fill="#000000" stroke="#000000" points="586.0045,-368.9307 593.8788,-372.798 590.0023,-369.0654 594,-369.2 594,-369.2 594,-369.2 590.0023,-369.0654 594.1212,-365.602 586.0045,-368.9307 586.0045,-368.9307"/>
<ellipse fill="none" stroke="#000000" cx="582.8063" cy="-368.823" rx="3.2" ry="3.2"/>
</g>
<!-- decision_and_actions&#45;&gt;reference_data -->
<g id="edge6" class="edge">
<title>decision_and_actions:w&#45;&gt;reference_data:e</title>
<path fill="none" stroke="#000000" d="M579.4876,-369.7488C410.8617,-375.953 362.6457,-371.2596 189,-345.2 178.3535,-343.6023 167.2093,-341.5517 156.2619,-339.2461"/>
<polygon fill="#000000" stroke="#000000" points="586.0057,-369.5024 594.1361,-372.7974 590.0029,-369.3512 594,-369.2 594,-369.2 594,-369.2 590.0029,-369.3512 593.8639,-365.6026 586.0057,-369.5024 586.0057,-369.5024"/>
<ellipse fill="none" stroke="#000000" cx="582.808" cy="-369.6233" rx="3.2" ry="3.2"/>
</g>
<!-- decision_and_actions&#45;&gt;referral -->
<g id="edge4" class="edge">
<title>decision_and_actions:w&#45;&gt;referral:e</title>
<path fill="none" stroke="#000000" d="M583.4431,-368.9169C539.3639,-366.595 493.3489,-350.3932 459.2258,-335.3107"/>
<polygon fill="#000000" stroke="#000000" points="593.3075,-365.18 593.093,-373.1771 591.4936,-373.1342 591.7081,-365.1371 593.3075,-365.18"/>
<polyline fill="none" stroke="#000000" points="594,-369.2 590.0014,-369.0927 "/>
<ellipse fill="none" stroke="#000000" cx="586.8026" cy="-369.0069" rx="3.2" ry="3.2"/>
</g>
<!-- interview -->
<g id="node6" class="node">
<title>interview</title>
<g id="a_node6"><a xlink:href="../../tables/interview.html" xlink:title="interview" target="_top">
<polygon fill="#ffffff" stroke="transparent" points="917,-370.7 917,-431.7 1019,-431.7 1019,-370.7 917,-370.7"/>
<polygon fill="#f5f5f5" stroke="transparent" points="917,-408.2 917,-431.2 1019,-431.2 1019,-408.2 917,-408.2"/>
<polygon fill="none" stroke="#000000" points="917,-408.2 917,-431.2 1019,-431.2 1019,-408.2 917,-408.2"/>
<text text-anchor="start" x="922" y="-416.8" font-family="Helvetica,sans-Serif" font-weight="bold" font-size="11.00" fill="#000000">interview</text>
<text text-anchor="start" x="984.5219" y="-416.3" font-family="Helvetica,sans-Serif" font-size="11.00" fill="#000000">[table]</text>
<polygon fill="none" stroke="#000000" points="917,-389.2 917,-408.2 1019,-408.2 1019,-389.2 917,-389.2"/>
<text text-anchor="start" x="920" y="-395.3" font-family="Helvetica,sans-Serif" font-size="11.00" fill="#000000">...</text>
<polygon fill="#ffffff" stroke="transparent" points="917,-370.2 917,-389.2 966,-389.2 966,-370.2 917,-370.2"/>
<polygon fill="none" stroke="#000000" points="917,-370.2 917,-389.2 966,-389.2 966,-370.2 917,-370.2"/>
<text text-anchor="start" x="920" y="-376.3" font-family="Helvetica,sans-Serif" font-size="11.00" fill="#000000">&lt; 2</text>
<polygon fill="#ffffff" stroke="transparent" points="966,-370.2 966,-389.2 992,-389.2 992,-370.2 966,-370.2"/>
<polygon fill="none" stroke="#000000" points="966,-370.2 966,-389.2 992,-389.2 992,-370.2 966,-370.2"/>
<text text-anchor="start" x="982.8862" y="-376.3" font-family="Helvetica,sans-Serif" font-size="11.00" fill="#000000"> &#160;</text>
<polygon fill="#ffffff" stroke="transparent" points="992,-370.2 992,-389.2 1019,-389.2 1019,-370.2 992,-370.2"/>
<polygon fill="none" stroke="#000000" points="992,-370.2 992,-389.2 1019,-389.2 1019,-370.2 992,-370.2"/>
<text text-anchor="start" x="1009.8862" y="-376.3" font-family="Helvetica,sans-Serif" font-size="11.00" fill="#000000"> &#160;</text>
</a>
</g>
</g>
<!-- interview&#45;&gt;reference_data -->
<g id="edge7" class="edge">
<title>interview:w&#45;&gt;reference_data:e</title>
<path fill="none" stroke="#000000" d="M902.7887,-401.6917C880.621,-416.2973 909.8286,-472.7723 876,-495.2 733.7552,-589.5055 660.4222,-522.7877 492,-495.2 351.7764,-472.2313 315.3871,-458.1347 189,-393.2 164.5963,-380.6619 139.6184,-363.153 119.5519,-347.7109"/>
<polygon fill="#000000" stroke="#000000" points="909.2311,-400.1089 917.859,-401.696 913.1155,-399.1544 917,-398.2 917,-398.2 917,-398.2 913.1155,-399.1544 916.141,-394.704 909.2311,-400.1089 909.2311,-400.1089"/>
<ellipse fill="none" stroke="#000000" cx="906.1235" cy="-400.8724" rx="3.2" ry="3.2"/>
</g>
<!-- investigation -->
<g id="node7" class="node">
<title>investigation</title>
<g id="a_node7"><a xlink:href="../../tables/investigation.html" xlink:title="investigation" target="_top">
<polygon fill="#ffffff" stroke="transparent" points="620.5,-259.7 620.5,-320.7 747.5,-320.7 747.5,-259.7 620.5,-259.7"/>
<polygon fill="#f5f5f5" stroke="transparent" points="621,-297.2 621,-320.2 748,-320.2 748,-297.2 621,-297.2"/>
<polygon fill="none" stroke="#000000" points="621,-297.2 621,-320.2 748,-320.2 748,-297.2 621,-297.2"/>
<text text-anchor="start" x="626" y="-305.8" font-family="Helvetica,sans-Serif" font-weight="bold" font-size="11.00" fill="#000000">investigation</text>
<text text-anchor="start" x="713.5219" y="-305.3" font-family="Helvetica,sans-Serif" font-size="11.00" fill="#000000">[table]</text>
<polygon fill="none" stroke="#000000" points="621,-278.2 621,-297.2 748,-297.2 748,-278.2 621,-278.2"/>
<text text-anchor="start" x="624" y="-284.3" font-family="Helvetica,sans-Serif" font-size="11.00" fill="#000000">...</text>
<polygon fill="#ffffff" stroke="transparent" points="621,-259.2 621,-278.2 678,-278.2 678,-259.2 621,-259.2"/>
<polygon fill="none" stroke="#000000" points="621,-259.2 621,-278.2 678,-278.2 678,-259.2 621,-259.2"/>
<text text-anchor="start" x="624" y="-265.3" font-family="Helvetica,sans-Serif" font-size="11.00" fill="#000000">&lt; 1</text>
<polygon fill="#ffffff" stroke="transparent" points="678,-259.2 678,-278.2 708,-278.2 708,-259.2 678,-259.2"/>
<polygon fill="none" stroke="#000000" points="678,-259.2 678,-278.2 708,-278.2 708,-259.2 678,-259.2"/>
<text text-anchor="start" x="698.8862" y="-265.3" font-family="Helvetica,sans-Serif" font-size="11.00" fill="#000000"> &#160;</text>
<polygon fill="#ffffff" stroke="transparent" points="708,-259.2 708,-278.2 748,-278.2 748,-259.2 708,-259.2"/>
<polygon fill="none" stroke="#000000" points="708,-259.2 708,-278.2 748,-278.2 748,-259.2 708,-259.2"/>
<text text-anchor="start" x="729.4053" y="-265.3" font-family="Helvetica,sans-Serif" font-size="11.00" fill="#000000">1 &gt;</text>
</a>
</g>
</g>
<!-- interview&#45;&gt;investigation -->
<g id="edge8" class="edge">
<title>interview:w&#45;&gt;investigation:e</title>
<path fill="none" stroke="#000000" d="M903.004,-394.224C888.1235,-382.7274 898.3332,-349.1263 876,-331.2 829.0872,-293.5443 808.1562,-287.2 748,-287.2"/>
<polygon fill="#000000" stroke="#000000" points="909.3045,-396.0138 916.0162,-401.663 913.1522,-397.1069 917,-398.2 917,-398.2 917,-398.2 913.1522,-397.1069 917.9838,-394.737 909.3045,-396.0138 909.3045,-396.0138"/>
<ellipse fill="none" stroke="#000000" cx="906.2263" cy="-395.1393" rx="3.2" ry="3.2"/>
</g>
<!-- investigation&#45;&gt;referral -->
<g id="edge9" class="edge">
<title>investigation:w&#45;&gt;referral:e</title>
<path fill="none" stroke="#000000" d="M610.545,-287.2797C557.8895,-288.0673 500.0208,-294.5408 459.314,-300.0809"/>
<polygon fill="#000000" stroke="#000000" points="620.1695,-283.2062 620.2306,-291.206 618.6306,-291.2182 618.5695,-283.2184 620.1695,-283.2062"/>
<polyline fill="none" stroke="#000000" points="621,-287.2 617.0001,-287.2305 "/>
<ellipse fill="none" stroke="#000000" cx="613.8002" cy="-287.255" rx="3.2" ry="3.2"/>
</g>
<!-- safer_custody_screening_outcome -->
<g id="node8" class="node">
<title>safer_custody_screening_outcome</title>
<g id="a_node8"><a xlink:href="../../tables/safer_custody_screening_outcome.html" xlink:title="safer_custody_screening_outcome" target="_top">
<polygon fill="#ffffff" stroke="transparent" points="500,-38.2 500,-238.2 868,-238.2 868,-38.2 500,-38.2"/>
<polygon fill="#f5f5f5" stroke="transparent" points="502,-213.2 502,-236.2 866,-236.2 866,-213.2 502,-213.2"/>
<polygon fill="none" stroke="#000000" points="502,-213.2 502,-236.2 866,-236.2 866,-213.2 502,-213.2"/>
<text text-anchor="start" x="507" y="-221.8" font-family="Helvetica,sans-Serif" font-weight="bold" font-size="11.00" fill="#000000">safer_custody_screening_outcome</text>
<text text-anchor="start" x="831.0437" y="-221.3" font-family="Helvetica,sans-Serif" font-size="11.00" fill="#000000">[table]</text>
<polygon fill="none" stroke="#000000" points="502,-191.2 502,-213.2 772,-213.2 772,-191.2 502,-191.2"/>
<image xlink:href="../../images/primaryKeys.png" width="11px" height="12px" preserveAspectRatio="xMinYMin meet" x="507" y="-208.2"/>
<text text-anchor="start" x="522" y="-198.3" font-family="Helvetica,sans-Serif" font-size="11.00" fill="#000000">safer_custody_screening_outcome_id</text>
<polygon fill="none" stroke="#000000" points="772,-191.2 772,-213.2 866,-213.2 866,-191.2 772,-191.2"/>
<text text-anchor="start" x="774.9758" y="-198.9" font-family="Helvetica,sans-Serif" font-size="11.00" fill="#000000">uuid[2147483647]</text>
<polygon fill="#ffffff" stroke="transparent" points="502,-169.2 502,-191.2 772,-191.2 772,-169.2 502,-169.2"/>
<polygon fill="none" stroke="#000000" points="502,-169.2 502,-191.2 772,-191.2 772,-169.2 502,-169.2"/>
<image xlink:href="../../images/foreignKeys.png" width="11px" height="12px" preserveAspectRatio="xMinYMin meet" x="507" y="-186.2"/>
<text text-anchor="start" x="522" y="-176.3" font-family="Helvetica,sans-Serif" font-size="11.00" fill="#000000">outcome_id</text>
<polygon fill="none" stroke="#000000" points="772,-169.2 772,-191.2 866,-191.2 866,-169.2 772,-169.2"/>
<text text-anchor="start" x="775" y="-176.9" font-family="Helvetica,sans-Serif" font-size="11.00" fill="#000000">int4[10]</text>
<polygon fill="none" stroke="#000000" points="502,-147.2 502,-169.2 772,-169.2 772,-147.2 502,-147.2"/>
<text text-anchor="start" x="522" y="-154.3" font-family="Helvetica,sans-Serif" font-size="11.00" fill="#000000">recorded_by</text>
<polygon fill="none" stroke="#000000" points="772,-147.2 772,-169.2 866,-169.2 866,-147.2 772,-147.2"/>
<text text-anchor="start" x="775" y="-154.9" font-family="Helvetica,sans-Serif" font-size="11.00" fill="#000000">varchar[100]</text>
<polygon fill="none" stroke="#000000" points="502,-125.2 502,-147.2 772,-147.2 772,-125.2 502,-125.2"/>
<text text-anchor="start" x="522" y="-132.3" font-family="Helvetica,sans-Serif" font-size="11.00" fill="#000000">recorded_by_display_name</text>
<polygon fill="none" stroke="#000000" points="772,-125.2 772,-147.2 866,-147.2 866,-125.2 772,-125.2"/>
<text text-anchor="start" x="775" y="-132.9" font-family="Helvetica,sans-Serif" font-size="11.00" fill="#000000">varchar[255]</text>
<polygon fill="none" stroke="#000000" points="502,-103.2 502,-125.2 772,-125.2 772,-103.2 502,-103.2"/>
<text text-anchor="start" x="522" y="-110.3" font-family="Helvetica,sans-Serif" font-size="11.00" fill="#000000">date</text>
<polygon fill="none" stroke="#000000" points="772,-103.2 772,-125.2 866,-125.2 866,-103.2 772,-103.2"/>
<text text-anchor="start" x="775" y="-110.9" font-family="Helvetica,sans-Serif" font-size="11.00" fill="#000000">date[13]</text>
<polygon fill="none" stroke="#000000" points="502,-81.2 502,-103.2 772,-103.2 772,-81.2 502,-81.2"/>
<text text-anchor="start" x="522" y="-88.3" font-family="Helvetica,sans-Serif" font-size="11.00" fill="#000000">reason_for_decision</text>
<polygon fill="none" stroke="#000000" points="772,-81.2 772,-103.2 866,-103.2 866,-81.2 772,-81.2"/>
<text text-anchor="start" x="775" y="-88.9" font-family="Helvetica,sans-Serif" font-size="11.00" fill="#000000">text[2147483647]</text>
<polygon fill="none" stroke="#000000" points="502,-59.2 502,-81.2 772,-81.2 772,-59.2 502,-59.2"/>
<text text-anchor="start" x="522" y="-66.3" font-family="Helvetica,sans-Serif" font-size="11.00" fill="#000000">version</text>
<polygon fill="none" stroke="#000000" points="772,-59.2 772,-81.2 866,-81.2 866,-59.2 772,-59.2"/>
<text text-anchor="start" x="775" y="-66.9" font-family="Helvetica,sans-Serif" font-size="11.00" fill="#000000">int4[10]</text>
<polygon fill="#ffffff" stroke="transparent" points="502,-40.2 502,-59.2 641,-59.2 641,-40.2 502,-40.2"/>
<polygon fill="none" stroke="#000000" points="502,-40.2 502,-59.2 641,-59.2 641,-40.2 502,-40.2"/>
<text text-anchor="start" x="505" y="-46.3" font-family="Helvetica,sans-Serif" font-size="11.00" fill="#000000">&lt; 2</text>
<polygon fill="#ffffff" stroke="transparent" points="641,-40.2 641,-59.2 772,-59.2 772,-40.2 641,-40.2"/>
<polygon fill="none" stroke="#000000" points="641,-40.2 641,-59.2 772,-59.2 772,-40.2 641,-40.2"/>
<text text-anchor="start" x="762.8862" y="-46.3" font-family="Helvetica,sans-Serif" font-size="11.00" fill="#000000"> &#160;</text>
<polygon fill="#ffffff" stroke="transparent" points="772,-40.2 772,-59.2 866,-59.2 866,-40.2 772,-40.2"/>
<polygon fill="none" stroke="#000000" points="772,-40.2 772,-59.2 866,-59.2 866,-40.2 772,-40.2"/>
<text text-anchor="start" x="847.4053" y="-46.3" font-family="Helvetica,sans-Serif" font-size="11.00" fill="#000000">0 &gt;</text>
<polygon fill="none" stroke="#000000" stroke-width="2" points="501,-39.2 501,-237.2 867,-237.2 867,-39.2 501,-39.2"/>
</a>
</g>
</g>
<!-- safer_custody_screening_outcome&#45;&gt;reference_data -->
<g id="edge15" class="edge">
<title>safer_custody_screening_outcome:w&#45;&gt;reference_data:e</title>
<path fill="none" stroke="#000000" d="M487.2467,-180.0534C359.137,-177.5043 311.1206,-143.2403 189,-199.2 151.8331,-216.2311 120.541,-251.6721 100.7533,-278.5442"/>
<polygon fill="#000000" stroke="#000000" points="494.0004,-180.1205 501.9642,-183.7998 498.0002,-180.1602 502,-180.2 502,-180.2 502,-180.2 498.0002,-180.1602 502.0358,-176.6002 494.0004,-180.1205 494.0004,-180.1205"/>
<ellipse fill="none" stroke="#000000" cx="490.8006" cy="-180.0887" rx="3.2" ry="3.2"/>
</g>
<!-- safer_custody_screening_outcome&#45;&gt;referral -->
<g id="edge16" class="edge">
<title>safer_custody_screening_outcome:w&#45;&gt;referral:e</title>
<path fill="none" stroke="#000000" d="M491.2798,-203.2236C457.7457,-209.6876 433.9714,-245.4758 420.1877,-273.4916"/>
<polygon fill="#000000" stroke="#000000" points="500.8234,-198.2942 501.5838,-206.2579 499.9911,-206.41 499.2306,-198.4462 500.8234,-198.2942"/>
<polyline fill="none" stroke="#000000" points="502,-202.2 498.0181,-202.5802 "/>
<ellipse fill="none" stroke="#000000" cx="494.8326" cy="-202.8844" rx="3.2" ry="3.2"/>
</g>
</g>
</svg>
