<?xml version="1.0" encoding="UTF-8" standalone="no"?>
<!DOCTYPE svg PUBLIC "-//W3C//DTD SVG 1.1//EN"
 "http://www.w3.org/Graphics/SVG/1.1/DTD/svg11.dtd">
<!-- Generated by graphviz version 2.40.1 (20161225.0304)
 -->
<!-- Title: twoDegreesRelationshipsDiagram Pages: 1 -->
<svg width="629pt" height="1203pt"
 viewBox="0.00 0.00 629.00 1202.70" xmlns="http://www.w3.org/2000/svg" xmlns:xlink="http://www.w3.org/1999/xlink">
<g id="graph0" class="graph" transform="scale(1 1) rotate(0) translate(4 1198.7)">
<title>twoDegreesRelationshipsDiagram</title>
<polygon fill="#ffffff" stroke="transparent" points="-4,4 -4,-1198.7 625,-1198.7 625,4 -4,4"/>
<text text-anchor="middle" x="72.4936" y="-7.3" font-family="Helvetica,sans-Serif" font-size="11.00" fill="#000000">Generated by SchemaSpy</text>
<!-- attendee_audit -->
<g id="node1" class="node">
<title>attendee_audit</title>
<g id="a_node1"><a xlink:href="../../tables/attendee_audit.html" xlink:title="attendee_audit" target="_top">
<polygon fill="#ffffff" stroke="transparent" points="347.5,-1129.7 347.5,-1190.7 488.5,-1190.7 488.5,-1129.7 347.5,-1129.7"/>
<polygon fill="#f5f5f5" stroke="transparent" points="348,-1167.2 348,-1190.2 489,-1190.2 489,-1167.2 348,-1167.2"/>
<polygon fill="none" stroke="#000000" points="348,-1167.2 348,-1190.2 489,-1190.2 489,-1167.2 348,-1167.2"/>
<text text-anchor="start" x="353" y="-1175.8" font-family="Helvetica,sans-Serif" font-weight="bold" font-size="11.00" fill="#000000">attendee_audit</text>
<text text-anchor="start" x="454.5219" y="-1175.3" font-family="Helvetica,sans-Serif" font-size="11.00" fill="#000000">[table]</text>
<polygon fill="none" stroke="#000000" points="348,-1148.2 348,-1167.2 489,-1167.2 489,-1148.2 348,-1148.2"/>
<text text-anchor="start" x="351" y="-1154.3" font-family="Helvetica,sans-Serif" font-size="11.00" fill="#000000">...</text>
<polygon fill="#ffffff" stroke="transparent" points="348,-1129.2 348,-1148.2 417,-1148.2 417,-1129.2 348,-1129.2"/>
<polygon fill="none" stroke="#000000" points="348,-1129.2 348,-1148.2 417,-1148.2 417,-1129.2 348,-1129.2"/>
<text text-anchor="start" x="351" y="-1135.3" font-family="Helvetica,sans-Serif" font-size="11.00" fill="#000000">&lt; 1</text>
<polygon fill="#ffffff" stroke="transparent" points="417,-1129.2 417,-1148.2 453,-1148.2 453,-1129.2 417,-1129.2"/>
<polygon fill="none" stroke="#000000" points="417,-1129.2 417,-1148.2 453,-1148.2 453,-1129.2 417,-1129.2"/>
<text text-anchor="start" x="443.8862" y="-1135.3" font-family="Helvetica,sans-Serif" font-size="11.00" fill="#000000"> &#160;</text>
<polygon fill="#ffffff" stroke="transparent" points="453,-1129.2 453,-1148.2 489,-1148.2 489,-1129.2 453,-1129.2"/>
<polygon fill="none" stroke="#000000" points="453,-1129.2 453,-1148.2 489,-1148.2 489,-1129.2 453,-1129.2"/>
<text text-anchor="start" x="479.8862" y="-1135.3" font-family="Helvetica,sans-Serif" font-size="11.00" fill="#000000"> &#160;</text>
</a>
</g>
</g>
<!-- audit_revision -->
<g id="node2" class="node">
<title>audit_revision</title>
<g id="a_node2"><a xlink:href="../../tables/audit_revision.html" xlink:title="audit_revision" target="_top">
<polygon fill="#ffffff" stroke="transparent" points="8,-698.7 8,-781.7 174,-781.7 174,-698.7 8,-698.7"/>
<polygon fill="#f5f5f5" stroke="transparent" points="8,-758.2 8,-781.2 174,-781.2 174,-758.2 8,-758.2"/>
<polygon fill="none" stroke="#000000" points="8,-758.2 8,-781.2 174,-781.2 174,-758.2 8,-758.2"/>
<text text-anchor="start" x="13" y="-766.8" font-family="Helvetica,sans-Serif" font-weight="bold" font-size="11.00" fill="#000000">audit_revision</text>
<text text-anchor="start" x="139.0437" y="-766.3" font-family="Helvetica,sans-Serif" font-size="11.00" fill="#000000">[table]</text>
<polygon fill="none" stroke="#000000" points="8,-736.2 8,-758.2 174,-758.2 174,-736.2 8,-736.2"/>
<image xlink:href="../../images/primaryKeys.png" width="11px" height="12px" preserveAspectRatio="xMinYMin meet" x="13" y="-753.2"/>
<text text-anchor="start" x="28" y="-743.3" font-family="Helvetica,sans-Serif" font-size="11.00" fill="#000000">id</text>
<polygon fill="none" stroke="#000000" points="8,-717.2 8,-736.2 174,-736.2 174,-717.2 8,-717.2"/>
<text text-anchor="start" x="11" y="-723.3" font-family="Helvetica,sans-Serif" font-size="11.00" fill="#000000">...</text>
<polygon fill="#ffffff" stroke="transparent" points="8,-698.2 8,-717.2 77,-717.2 77,-698.2 8,-698.2"/>
<polygon fill="none" stroke="#000000" points="8,-698.2 8,-717.2 77,-717.2 77,-698.2 8,-698.2"/>
<text text-anchor="start" x="11" y="-704.3" font-family="Helvetica,sans-Serif" font-size="11.00" fill="#000000"> &#160;</text>
<polygon fill="#ffffff" stroke="transparent" points="77,-698.2 77,-717.2 118,-717.2 118,-698.2 77,-698.2"/>
<polygon fill="none" stroke="#000000" points="77,-698.2 77,-717.2 118,-717.2 118,-698.2 77,-698.2"/>
<text text-anchor="start" x="108.8862" y="-704.3" font-family="Helvetica,sans-Serif" font-size="11.00" fill="#000000"> &#160;</text>
<polygon fill="#ffffff" stroke="transparent" points="118,-698.2 118,-717.2 174,-717.2 174,-698.2 118,-698.2"/>
<polygon fill="none" stroke="#000000" points="118,-698.2 118,-717.2 174,-717.2 174,-698.2 118,-698.2"/>
<text text-anchor="start" x="149.2904" y="-704.3" font-family="Helvetica,sans-Serif" font-size="11.00" fill="#000000">11 &gt;</text>
</a>
</g>
</g>
<!-- attendee_audit&#45;&gt;audit_revision -->
<g id="edge1" class="edge">
<title>attendee_audit:w&#45;&gt;audit_revision:e</title>
<path fill="none" stroke="#000000" d="M333.4481,-1157.3453C281.2431,-1158.2959 251.4044,-1162.3214 215,-1119.2 161.3501,-1055.651 257.1672,-747.2 174,-747.2"/>
<polygon fill="#000000" stroke="#000000" points="340.0004,-1157.28 348.036,-1160.7998 344.0002,-1157.24 348,-1157.2 348,-1157.2 348,-1157.2 344.0002,-1157.24 347.964,-1153.6002 340.0004,-1157.28 340.0004,-1157.28"/>
<ellipse fill="none" stroke="#000000" cx="336.8006" cy="-1157.3119" rx="3.2" ry="3.2"/>
</g>
<!-- contributory_factor_audit -->
<g id="node3" class="node">
<title>contributory_factor_audit</title>
<g id="a_node3"><a xlink:href="../../tables/contributory_factor_audit.html" xlink:title="contributory_factor_audit" target="_top">
<polygon fill="#ffffff" stroke="transparent" points="313,-1047.7 313,-1108.7 523,-1108.7 523,-1047.7 313,-1047.7"/>
<polygon fill="#f5f5f5" stroke="transparent" points="313,-1085.2 313,-1108.2 523,-1108.2 523,-1085.2 313,-1085.2"/>
<polygon fill="none" stroke="#000000" points="313,-1085.2 313,-1108.2 523,-1108.2 523,-1085.2 313,-1085.2"/>
<text text-anchor="start" x="318" y="-1093.8" font-family="Helvetica,sans-Serif" font-weight="bold" font-size="11.00" fill="#000000">contributory_factor_audit</text>
<text text-anchor="start" x="488.5219" y="-1093.3" font-family="Helvetica,sans-Serif" font-size="11.00" fill="#000000">[table]</text>
<polygon fill="none" stroke="#000000" points="313,-1066.2 313,-1085.2 523,-1085.2 523,-1066.2 313,-1066.2"/>
<text text-anchor="start" x="316" y="-1072.3" font-family="Helvetica,sans-Serif" font-size="11.00" fill="#000000">...</text>
<polygon fill="#ffffff" stroke="transparent" points="313,-1047.2 313,-1066.2 416,-1066.2 416,-1047.2 313,-1047.2"/>
<polygon fill="none" stroke="#000000" points="313,-1047.2 313,-1066.2 416,-1066.2 416,-1047.2 313,-1047.2"/>
<text text-anchor="start" x="316" y="-1053.3" font-family="Helvetica,sans-Serif" font-size="11.00" fill="#000000">&lt; 1</text>
<polygon fill="#ffffff" stroke="transparent" points="416,-1047.2 416,-1066.2 469,-1066.2 469,-1047.2 416,-1047.2"/>
<polygon fill="none" stroke="#000000" points="416,-1047.2 416,-1066.2 469,-1066.2 469,-1047.2 416,-1047.2"/>
<text text-anchor="start" x="459.8862" y="-1053.3" font-family="Helvetica,sans-Serif" font-size="11.00" fill="#000000"> &#160;</text>
<polygon fill="#ffffff" stroke="transparent" points="469,-1047.2 469,-1066.2 523,-1066.2 523,-1047.2 469,-1047.2"/>
<polygon fill="none" stroke="#000000" points="469,-1047.2 469,-1066.2 523,-1066.2 523,-1047.2 469,-1047.2"/>
<text text-anchor="start" x="513.8862" y="-1053.3" font-family="Helvetica,sans-Serif" font-size="11.00" fill="#000000"> &#160;</text>
</a>
</g>
</g>
<!-- contributory_factor_audit&#45;&gt;audit_revision -->
<g id="edge2" class="edge">
<title>contributory_factor_audit:w&#45;&gt;audit_revision:e</title>
<path fill="none" stroke="#000000" d="M298.5087,-1075.1054C261.3362,-1074.4721 240.8585,-1069.7942 215,-1037.2 174.5488,-986.2118 239.0853,-747.2 174,-747.2"/>
<polygon fill="#000000" stroke="#000000" points="305.0002,-1075.1477 312.9765,-1078.7999 309.0001,-1075.1739 313,-1075.2 313,-1075.2 313,-1075.2 309.0001,-1075.1739 313.0235,-1071.6001 305.0002,-1075.1477 305.0002,-1075.1477"/>
<ellipse fill="none" stroke="#000000" cx="301.8002" cy="-1075.1268" rx="3.2" ry="3.2"/>
</g>
<!-- csip_record_audit -->
<g id="node4" class="node">
<title>csip_record_audit</title>
<g id="a_node4"><a xlink:href="../../tables/csip_record_audit.html" xlink:title="csip_record_audit" target="_top">
<polygon fill="#ffffff" stroke="transparent" points="340,-965.7 340,-1026.7 496,-1026.7 496,-965.7 340,-965.7"/>
<polygon fill="#f5f5f5" stroke="transparent" points="340,-1003.2 340,-1026.2 496,-1026.2 496,-1003.2 340,-1003.2"/>
<polygon fill="none" stroke="#000000" points="340,-1003.2 340,-1026.2 496,-1026.2 496,-1003.2 340,-1003.2"/>
<text text-anchor="start" x="345" y="-1011.8" font-family="Helvetica,sans-Serif" font-weight="bold" font-size="11.00" fill="#000000">csip_record_audit</text>
<text text-anchor="start" x="461.5219" y="-1011.3" font-family="Helvetica,sans-Serif" font-size="11.00" fill="#000000">[table]</text>
<polygon fill="none" stroke="#000000" points="340,-984.2 340,-1003.2 496,-1003.2 496,-984.2 340,-984.2"/>
<text text-anchor="start" x="343" y="-990.3" font-family="Helvetica,sans-Serif" font-size="11.00" fill="#000000">...</text>
<polygon fill="#ffffff" stroke="transparent" points="340,-965.2 340,-984.2 416,-984.2 416,-965.2 340,-965.2"/>
<polygon fill="none" stroke="#000000" points="340,-965.2 340,-984.2 416,-984.2 416,-965.2 340,-965.2"/>
<text text-anchor="start" x="343" y="-971.3" font-family="Helvetica,sans-Serif" font-size="11.00" fill="#000000">&lt; 1</text>
<polygon fill="#ffffff" stroke="transparent" points="416,-965.2 416,-984.2 456,-984.2 456,-965.2 416,-965.2"/>
<polygon fill="none" stroke="#000000" points="416,-965.2 416,-984.2 456,-984.2 456,-965.2 416,-965.2"/>
<text text-anchor="start" x="446.8862" y="-971.3" font-family="Helvetica,sans-Serif" font-size="11.00" fill="#000000"> &#160;</text>
<polygon fill="#ffffff" stroke="transparent" points="456,-965.2 456,-984.2 496,-984.2 496,-965.2 456,-965.2"/>
<polygon fill="none" stroke="#000000" points="456,-965.2 456,-984.2 496,-984.2 496,-965.2 456,-965.2"/>
<text text-anchor="start" x="486.8862" y="-971.3" font-family="Helvetica,sans-Serif" font-size="11.00" fill="#000000"> &#160;</text>
</a>
</g>
</g>
<!-- csip_record_audit&#45;&gt;audit_revision -->
<g id="edge3" class="edge">
<title>csip_record_audit:w&#45;&gt;audit_revision:e</title>
<path fill="none" stroke="#000000" d="M325.3588,-993.2814C276.9294,-993.7192 250.5217,-994.484 215,-955.2 151.8048,-885.3116 268.2233,-747.2 174,-747.2"/>
<polygon fill="#000000" stroke="#000000" points="332.0001,-993.2445 340.02,-996.7999 336.0001,-993.2223 340,-993.2 340,-993.2 340,-993.2 336.0001,-993.2223 339.98,-989.6001 332.0001,-993.2445 332.0001,-993.2445"/>
<ellipse fill="none" stroke="#000000" cx="328.8002" cy="-993.2623" rx="3.2" ry="3.2"/>
</g>
<!-- decision_and_actions_audit -->
<g id="node5" class="node">
<title>decision_and_actions_audit</title>
<g id="a_node5"><a xlink:href="../../tables/decision_and_actions_audit.html" xlink:title="decision_and_actions_audit" target="_top">
<polygon fill="#ffffff" stroke="transparent" points="307,-883.7 307,-944.7 529,-944.7 529,-883.7 307,-883.7"/>
<polygon fill="#f5f5f5" stroke="transparent" points="307,-921.2 307,-944.2 529,-944.2 529,-921.2 307,-921.2"/>
<polygon fill="none" stroke="#000000" points="307,-921.2 307,-944.2 529,-944.2 529,-921.2 307,-921.2"/>
<text text-anchor="start" x="312" y="-929.8" font-family="Helvetica,sans-Serif" font-weight="bold" font-size="11.00" fill="#000000">decision_and_actions_audit</text>
<text text-anchor="start" x="494.5219" y="-929.3" font-family="Helvetica,sans-Serif" font-size="11.00" fill="#000000">[table]</text>
<polygon fill="none" stroke="#000000" points="307,-902.2 307,-921.2 529,-921.2 529,-902.2 307,-902.2"/>
<text text-anchor="start" x="310" y="-908.3" font-family="Helvetica,sans-Serif" font-size="11.00" fill="#000000">...</text>
<polygon fill="#ffffff" stroke="transparent" points="307,-883.2 307,-902.2 416,-902.2 416,-883.2 307,-883.2"/>
<polygon fill="none" stroke="#000000" points="307,-883.2 307,-902.2 416,-902.2 416,-883.2 307,-883.2"/>
<text text-anchor="start" x="310" y="-889.3" font-family="Helvetica,sans-Serif" font-size="11.00" fill="#000000">&lt; 1</text>
<polygon fill="#ffffff" stroke="transparent" points="416,-883.2 416,-902.2 472,-902.2 472,-883.2 416,-883.2"/>
<polygon fill="none" stroke="#000000" points="416,-883.2 416,-902.2 472,-902.2 472,-883.2 416,-883.2"/>
<text text-anchor="start" x="462.8862" y="-889.3" font-family="Helvetica,sans-Serif" font-size="11.00" fill="#000000"> &#160;</text>
<polygon fill="#ffffff" stroke="transparent" points="472,-883.2 472,-902.2 529,-902.2 529,-883.2 472,-883.2"/>
<polygon fill="none" stroke="#000000" points="472,-883.2 472,-902.2 529,-902.2 529,-883.2 472,-883.2"/>
<text text-anchor="start" x="519.8862" y="-889.3" font-family="Helvetica,sans-Serif" font-size="11.00" fill="#000000"> &#160;</text>
</a>
</g>
</g>
<!-- decision_and_actions_audit&#45;&gt;audit_revision -->
<g id="edge4" class="edge">
<title>decision_and_actions_audit:w&#45;&gt;audit_revision:e</title>
<path fill="none" stroke="#000000" d="M292.4776,-910.9375C258.4408,-909.5328 241.5312,-901.8601 215,-873.2 174.9944,-829.9842 232.8901,-747.2 174,-747.2"/>
<polygon fill="#000000" stroke="#000000" points="299.0013,-911.0554 306.9349,-914.7994 303.0007,-911.1277 307,-911.2 307,-911.2 307,-911.2 303.0007,-911.1277 307.0651,-907.6006 299.0013,-911.0554 299.0013,-911.0554"/>
<ellipse fill="none" stroke="#000000" cx="295.8018" cy="-910.9975" rx="3.2" ry="3.2"/>
</g>
<!-- identified_need_audit -->
<g id="node6" class="node">
<title>identified_need_audit</title>
<g id="a_node6"><a xlink:href="../../tables/identified_need_audit.html" xlink:title="identified_need_audit" target="_top">
<polygon fill="#ffffff" stroke="transparent" points="326,-801.7 326,-862.7 510,-862.7 510,-801.7 326,-801.7"/>
<polygon fill="#f5f5f5" stroke="transparent" points="326,-839.2 326,-862.2 510,-862.2 510,-839.2 326,-839.2"/>
<polygon fill="none" stroke="#000000" points="326,-839.2 326,-862.2 510,-862.2 510,-839.2 326,-839.2"/>
<text text-anchor="start" x="331" y="-847.8" font-family="Helvetica,sans-Serif" font-weight="bold" font-size="11.00" fill="#000000">identified_need_audit</text>
<text text-anchor="start" x="475.5219" y="-847.3" font-family="Helvetica,sans-Serif" font-size="11.00" fill="#000000">[table]</text>
<polygon fill="none" stroke="#000000" points="326,-820.2 326,-839.2 510,-839.2 510,-820.2 326,-820.2"/>
<text text-anchor="start" x="329" y="-826.3" font-family="Helvetica,sans-Serif" font-size="11.00" fill="#000000">...</text>
<polygon fill="#ffffff" stroke="transparent" points="326,-801.2 326,-820.2 416,-820.2 416,-801.2 326,-801.2"/>
<polygon fill="none" stroke="#000000" points="326,-801.2 326,-820.2 416,-820.2 416,-801.2 326,-801.2"/>
<text text-anchor="start" x="329" y="-807.3" font-family="Helvetica,sans-Serif" font-size="11.00" fill="#000000">&lt; 1</text>
<polygon fill="#ffffff" stroke="transparent" points="416,-801.2 416,-820.2 463,-820.2 463,-801.2 416,-801.2"/>
<polygon fill="none" stroke="#000000" points="416,-801.2 416,-820.2 463,-820.2 463,-801.2 416,-801.2"/>
<text text-anchor="start" x="453.8862" y="-807.3" font-family="Helvetica,sans-Serif" font-size="11.00" fill="#000000"> &#160;</text>
<polygon fill="#ffffff" stroke="transparent" points="463,-801.2 463,-820.2 510,-820.2 510,-801.2 463,-801.2"/>
<polygon fill="none" stroke="#000000" points="463,-801.2 463,-820.2 510,-820.2 510,-801.2 463,-801.2"/>
<text text-anchor="start" x="500.8862" y="-807.3" font-family="Helvetica,sans-Serif" font-size="11.00" fill="#000000"> &#160;</text>
</a>
</g>
</g>
<!-- identified_need_audit&#45;&gt;audit_revision -->
<g id="edge5" class="edge">
<title>identified_need_audit:w&#45;&gt;audit_revision:e</title>
<path fill="none" stroke="#000000" d="M311.4555,-828.9043C270.5626,-827.0954 254.3936,-816.7432 215,-791.2 192.5725,-776.6578 200.7296,-747.2 174,-747.2"/>
<polygon fill="#000000" stroke="#000000" points="318.0017,-829.0373 325.9268,-832.7993 322.0008,-829.1187 326,-829.2 326,-829.2 326,-829.2 322.0008,-829.1187 326.0732,-825.6007 318.0017,-829.0373 318.0017,-829.0373"/>
<ellipse fill="none" stroke="#000000" cx="314.8023" cy="-828.9723" rx="3.2" ry="3.2"/>
</g>
<!-- interview_audit -->
<g id="node7" class="node">
<title>interview_audit</title>
<g id="a_node7"><a xlink:href="../../tables/interview_audit.html" xlink:title="interview_audit" target="_top">
<polygon fill="#ffffff" stroke="transparent" points="346.5,-719.7 346.5,-780.7 489.5,-780.7 489.5,-719.7 346.5,-719.7"/>
<polygon fill="#f5f5f5" stroke="transparent" points="347,-757.2 347,-780.2 490,-780.2 490,-757.2 347,-757.2"/>
<polygon fill="none" stroke="#000000" points="347,-757.2 347,-780.2 490,-780.2 490,-757.2 347,-757.2"/>
<text text-anchor="start" x="352" y="-765.8" font-family="Helvetica,sans-Serif" font-weight="bold" font-size="11.00" fill="#000000">interview_audit</text>
<text text-anchor="start" x="455.5219" y="-765.3" font-family="Helvetica,sans-Serif" font-size="11.00" fill="#000000">[table]</text>
<polygon fill="none" stroke="#000000" points="347,-738.2 347,-757.2 490,-757.2 490,-738.2 347,-738.2"/>
<text text-anchor="start" x="350" y="-744.3" font-family="Helvetica,sans-Serif" font-size="11.00" fill="#000000">...</text>
<polygon fill="#ffffff" stroke="transparent" points="347,-719.2 347,-738.2 417,-738.2 417,-719.2 347,-719.2"/>
<polygon fill="none" stroke="#000000" points="347,-719.2 347,-738.2 417,-738.2 417,-719.2 347,-719.2"/>
<text text-anchor="start" x="350" y="-725.3" font-family="Helvetica,sans-Serif" font-size="11.00" fill="#000000">&lt; 1</text>
<polygon fill="#ffffff" stroke="transparent" points="417,-719.2 417,-738.2 453,-738.2 453,-719.2 417,-719.2"/>
<polygon fill="none" stroke="#000000" points="417,-719.2 417,-738.2 453,-738.2 453,-719.2 417,-719.2"/>
<text text-anchor="start" x="443.8862" y="-725.3" font-family="Helvetica,sans-Serif" font-size="11.00" fill="#000000"> &#160;</text>
<polygon fill="#ffffff" stroke="transparent" points="453,-719.2 453,-738.2 490,-738.2 490,-719.2 453,-719.2"/>
<polygon fill="none" stroke="#000000" points="453,-719.2 453,-738.2 490,-738.2 490,-719.2 453,-719.2"/>
<text text-anchor="start" x="480.8862" y="-725.3" font-family="Helvetica,sans-Serif" font-size="11.00" fill="#000000"> &#160;</text>
</a>
</g>
</g>
<!-- interview_audit&#45;&gt;audit_revision -->
<g id="edge6" class="edge">
<title>interview_audit:w&#45;&gt;audit_revision:e</title>
<path fill="none" stroke="#000000" d="M332.4114,-747.2C267.3039,-747.2 245.783,-747.2 174,-747.2"/>
<polygon fill="#000000" stroke="#000000" points="339,-747.2001 347,-750.8 343,-747.2 347,-747.2 347,-747.2 347,-747.2 343,-747.2 347,-743.6 339,-747.2001 339,-747.2001"/>
<ellipse fill="none" stroke="#000000" cx="335.8" cy="-747.2001" rx="3.2" ry="3.2"/>
</g>
<!-- investigation_audit -->
<g id="node8" class="node">
<title>investigation_audit</title>
<g id="a_node8"><a xlink:href="../../tables/investigation_audit.html" xlink:title="investigation_audit" target="_top">
<polygon fill="#ffffff" stroke="transparent" points="333.5,-637.7 333.5,-698.7 502.5,-698.7 502.5,-637.7 333.5,-637.7"/>
<polygon fill="#f5f5f5" stroke="transparent" points="334,-675.2 334,-698.2 503,-698.2 503,-675.2 334,-675.2"/>
<polygon fill="none" stroke="#000000" points="334,-675.2 334,-698.2 503,-698.2 503,-675.2 334,-675.2"/>
<text text-anchor="start" x="339" y="-683.8" font-family="Helvetica,sans-Serif" font-weight="bold" font-size="11.00" fill="#000000">investigation_audit</text>
<text text-anchor="start" x="468.5219" y="-683.3" font-family="Helvetica,sans-Serif" font-size="11.00" fill="#000000">[table]</text>
<polygon fill="none" stroke="#000000" points="334,-656.2 334,-675.2 503,-675.2 503,-656.2 334,-656.2"/>
<text text-anchor="start" x="337" y="-662.3" font-family="Helvetica,sans-Serif" font-size="11.00" fill="#000000">...</text>
<polygon fill="#ffffff" stroke="transparent" points="334,-637.2 334,-656.2 417,-656.2 417,-637.2 334,-637.2"/>
<polygon fill="none" stroke="#000000" points="334,-637.2 334,-656.2 417,-656.2 417,-637.2 334,-637.2"/>
<text text-anchor="start" x="337" y="-643.3" font-family="Helvetica,sans-Serif" font-size="11.00" fill="#000000">&lt; 1</text>
<polygon fill="#ffffff" stroke="transparent" points="417,-637.2 417,-656.2 460,-656.2 460,-637.2 417,-637.2"/>
<polygon fill="none" stroke="#000000" points="417,-637.2 417,-656.2 460,-656.2 460,-637.2 417,-637.2"/>
<text text-anchor="start" x="450.8862" y="-643.3" font-family="Helvetica,sans-Serif" font-size="11.00" fill="#000000"> &#160;</text>
<polygon fill="#ffffff" stroke="transparent" points="460,-637.2 460,-656.2 503,-656.2 503,-637.2 460,-637.2"/>
<polygon fill="none" stroke="#000000" points="460,-637.2 460,-656.2 503,-656.2 503,-637.2 460,-637.2"/>
<text text-anchor="start" x="493.8862" y="-643.3" font-family="Helvetica,sans-Serif" font-size="11.00" fill="#000000"> &#160;</text>
</a>
</g>
</g>
<!-- investigation_audit&#45;&gt;audit_revision -->
<g id="edge7" class="edge">
<title>investigation_audit:w&#45;&gt;audit_revision:e</title>
<path fill="none" stroke="#000000" d="M319.4703,-665.5667C274.6558,-667.9865 258.6382,-682.3972 215,-709.2 193.8293,-722.2032 198.8452,-747.2 174,-747.2"/>
<polygon fill="#000000" stroke="#000000" points="326.0025,-665.4019 334.0908,-668.7989 330.0013,-665.3009 334,-665.2 334,-665.2 334,-665.2 330.0013,-665.3009 333.9092,-661.6011 326.0025,-665.4019 326.0025,-665.4019"/>
<ellipse fill="none" stroke="#000000" cx="322.8036" cy="-665.4826" rx="3.2" ry="3.2"/>
</g>
<!-- plan_audit -->
<g id="node9" class="node">
<title>plan_audit</title>
<g id="a_node9"><a xlink:href="../../tables/plan_audit.html" xlink:title="plan_audit" target="_top">
<polygon fill="#ffffff" stroke="transparent" points="363.5,-555.7 363.5,-616.7 472.5,-616.7 472.5,-555.7 363.5,-555.7"/>
<polygon fill="#f5f5f5" stroke="transparent" points="364,-593.2 364,-616.2 473,-616.2 473,-593.2 364,-593.2"/>
<polygon fill="none" stroke="#000000" points="364,-593.2 364,-616.2 473,-616.2 473,-593.2 364,-593.2"/>
<text text-anchor="start" x="369" y="-601.8" font-family="Helvetica,sans-Serif" font-weight="bold" font-size="11.00" fill="#000000">plan_audit</text>
<text text-anchor="start" x="438.5219" y="-601.3" font-family="Helvetica,sans-Serif" font-size="11.00" fill="#000000">[table]</text>
<polygon fill="none" stroke="#000000" points="364,-574.2 364,-593.2 473,-593.2 473,-574.2 364,-574.2"/>
<text text-anchor="start" x="367" y="-580.3" font-family="Helvetica,sans-Serif" font-size="11.00" fill="#000000">...</text>
<polygon fill="#ffffff" stroke="transparent" points="364,-555.2 364,-574.2 417,-574.2 417,-555.2 364,-555.2"/>
<polygon fill="none" stroke="#000000" points="364,-555.2 364,-574.2 417,-574.2 417,-555.2 364,-555.2"/>
<text text-anchor="start" x="367" y="-561.3" font-family="Helvetica,sans-Serif" font-size="11.00" fill="#000000">&lt; 1</text>
<polygon fill="#ffffff" stroke="transparent" points="417,-555.2 417,-574.2 445,-574.2 445,-555.2 417,-555.2"/>
<polygon fill="none" stroke="#000000" points="417,-555.2 417,-574.2 445,-574.2 445,-555.2 417,-555.2"/>
<text text-anchor="start" x="435.8862" y="-561.3" font-family="Helvetica,sans-Serif" font-size="11.00" fill="#000000"> &#160;</text>
<polygon fill="#ffffff" stroke="transparent" points="445,-555.2 445,-574.2 473,-574.2 473,-555.2 445,-555.2"/>
<polygon fill="none" stroke="#000000" points="445,-555.2 445,-574.2 473,-574.2 473,-555.2 445,-555.2"/>
<text text-anchor="start" x="463.8862" y="-561.3" font-family="Helvetica,sans-Serif" font-size="11.00" fill="#000000"> &#160;</text>
</a>
</g>
</g>
<!-- plan_audit&#45;&gt;audit_revision -->
<g id="edge8" class="edge">
<title>plan_audit:w&#45;&gt;audit_revision:e</title>
<path fill="none" stroke="#000000" d="M349.2453,-583.1601C290.3727,-582.922 261.1427,-582.9598 215,-627.2 174.3174,-666.2053 230.3604,-747.2 174,-747.2"/>
<polygon fill="#000000" stroke="#000000" points="356,-583.1783 363.9902,-586.8 360,-583.1891 364,-583.2 364,-583.2 364,-583.2 360,-583.1891 364.0098,-579.6 356,-583.1783 356,-583.1783"/>
<ellipse fill="none" stroke="#000000" cx="352.8" cy="-583.1696" rx="3.2" ry="3.2"/>
</g>
<!-- referral_audit -->
<g id="node10" class="node">
<title>referral_audit</title>
<g id="a_node10"><a xlink:href="../../tables/referral_audit.html" xlink:title="referral_audit" target="_top">
<polygon fill="#ffffff" stroke="transparent" points="352.5,-473.7 352.5,-534.7 483.5,-534.7 483.5,-473.7 352.5,-473.7"/>
<polygon fill="#f5f5f5" stroke="transparent" points="353,-511.2 353,-534.2 484,-534.2 484,-511.2 353,-511.2"/>
<polygon fill="none" stroke="#000000" points="353,-511.2 353,-534.2 484,-534.2 484,-511.2 353,-511.2"/>
<text text-anchor="start" x="358" y="-519.8" font-family="Helvetica,sans-Serif" font-weight="bold" font-size="11.00" fill="#000000">referral_audit</text>
<text text-anchor="start" x="449.5219" y="-519.3" font-family="Helvetica,sans-Serif" font-size="11.00" fill="#000000">[table]</text>
<polygon fill="none" stroke="#000000" points="353,-492.2 353,-511.2 484,-511.2 484,-492.2 353,-492.2"/>
<text text-anchor="start" x="356" y="-498.3" font-family="Helvetica,sans-Serif" font-size="11.00" fill="#000000">...</text>
<polygon fill="#ffffff" stroke="transparent" points="353,-473.2 353,-492.2 417,-492.2 417,-473.2 353,-473.2"/>
<polygon fill="none" stroke="#000000" points="353,-473.2 353,-492.2 417,-492.2 417,-473.2 353,-473.2"/>
<text text-anchor="start" x="356" y="-479.3" font-family="Helvetica,sans-Serif" font-size="11.00" fill="#000000">&lt; 1</text>
<polygon fill="#ffffff" stroke="transparent" points="417,-473.2 417,-492.2 450,-492.2 450,-473.2 417,-473.2"/>
<polygon fill="none" stroke="#000000" points="417,-473.2 417,-492.2 450,-492.2 450,-473.2 417,-473.2"/>
<text text-anchor="start" x="440.8862" y="-479.3" font-family="Helvetica,sans-Serif" font-size="11.00" fill="#000000"> &#160;</text>
<polygon fill="#ffffff" stroke="transparent" points="450,-473.2 450,-492.2 484,-492.2 484,-473.2 450,-473.2"/>
<polygon fill="none" stroke="#000000" points="450,-473.2 450,-492.2 484,-492.2 484,-473.2 450,-473.2"/>
<text text-anchor="start" x="474.8862" y="-479.3" font-family="Helvetica,sans-Serif" font-size="11.00" fill="#000000"> &#160;</text>
</a>
</g>
</g>
<!-- referral_audit&#45;&gt;audit_revision -->
<g id="edge9" class="edge">
<title>referral_audit:w&#45;&gt;audit_revision:e</title>
<path fill="none" stroke="#000000" d="M338.5078,-501.1548C283.7621,-500.904 254.6291,-501.0242 215,-545.2 153.8274,-613.391 265.6084,-747.2 174,-747.2"/>
<polygon fill="#000000" stroke="#000000" points="345,-501.175 352.9888,-504.8 349,-501.1875 353,-501.2 353,-501.2 353,-501.2 349,-501.1875 353.0112,-497.6 345,-501.175 345,-501.175"/>
<ellipse fill="none" stroke="#000000" cx="341.8001" cy="-501.165" rx="3.2" ry="3.2"/>
</g>
<!-- review_audit -->
<g id="node11" class="node">
<title>review_audit</title>
<g id="a_node11"><a xlink:href="../../tables/review_audit.html" xlink:title="review_audit" target="_top">
<polygon fill="#ffffff" stroke="transparent" points="355.5,-391.7 355.5,-452.7 480.5,-452.7 480.5,-391.7 355.5,-391.7"/>
<polygon fill="#f5f5f5" stroke="transparent" points="356,-429.2 356,-452.2 481,-452.2 481,-429.2 356,-429.2"/>
<polygon fill="none" stroke="#000000" points="356,-429.2 356,-452.2 481,-452.2 481,-429.2 356,-429.2"/>
<text text-anchor="start" x="361" y="-437.8" font-family="Helvetica,sans-Serif" font-weight="bold" font-size="11.00" fill="#000000">review_audit</text>
<text text-anchor="start" x="446.5219" y="-437.3" font-family="Helvetica,sans-Serif" font-size="11.00" fill="#000000">[table]</text>
<polygon fill="none" stroke="#000000" points="356,-410.2 356,-429.2 481,-429.2 481,-410.2 356,-410.2"/>
<text text-anchor="start" x="359" y="-416.3" font-family="Helvetica,sans-Serif" font-size="11.00" fill="#000000">...</text>
<polygon fill="#ffffff" stroke="transparent" points="356,-391.2 356,-410.2 417,-410.2 417,-391.2 356,-391.2"/>
<polygon fill="none" stroke="#000000" points="356,-391.2 356,-410.2 417,-410.2 417,-391.2 356,-391.2"/>
<text text-anchor="start" x="359" y="-397.3" font-family="Helvetica,sans-Serif" font-size="11.00" fill="#000000">&lt; 1</text>
<polygon fill="#ffffff" stroke="transparent" points="417,-391.2 417,-410.2 449,-410.2 449,-391.2 417,-391.2"/>
<polygon fill="none" stroke="#000000" points="417,-391.2 417,-410.2 449,-410.2 449,-391.2 417,-391.2"/>
<text text-anchor="start" x="439.8862" y="-397.3" font-family="Helvetica,sans-Serif" font-size="11.00" fill="#000000"> &#160;</text>
<polygon fill="#ffffff" stroke="transparent" points="449,-391.2 449,-410.2 481,-410.2 481,-391.2 449,-391.2"/>
<polygon fill="none" stroke="#000000" points="449,-391.2 449,-410.2 481,-410.2 481,-391.2 449,-391.2"/>
<text text-anchor="start" x="471.8862" y="-397.3" font-family="Helvetica,sans-Serif" font-size="11.00" fill="#000000"> &#160;</text>
</a>
</g>
</g>
<!-- review_audit&#45;&gt;audit_revision -->
<g id="edge10" class="edge">
<title>review_audit:w&#45;&gt;audit_revision:e</title>
<path fill="none" stroke="#000000" d="M341.552,-419.1236C285.3038,-418.6163 254.3401,-417.0441 215,-463.2 173.6368,-511.7295 237.7654,-747.2 174,-747.2"/>
<polygon fill="#000000" stroke="#000000" points="348.0001,-419.1576 355.9809,-422.7999 352.0001,-419.1788 356,-419.2 356,-419.2 356,-419.2 352.0001,-419.1788 356.0191,-415.6001 348.0001,-419.1576 348.0001,-419.1576"/>
<ellipse fill="none" stroke="#000000" cx="344.8002" cy="-419.1407" rx="3.2" ry="3.2"/>
</g>
<!-- safer_custody_screening_outcome_audit -->
<g id="node12" class="node">
<title>safer_custody_screening_outcome_audit</title>
<g id="a_node12"><a xlink:href="../../tables/safer_custody_screening_outcome_audit.html" xlink:title="safer_custody_screening_outcome_audit" target="_top">
<polygon fill="#ffffff" stroke="transparent" points="223,-38.2 223,-370.2 613,-370.2 613,-38.2 223,-38.2"/>
<polygon fill="#f5f5f5" stroke="transparent" points="225,-345.2 225,-368.2 611,-368.2 611,-345.2 225,-345.2"/>
<polygon fill="none" stroke="#000000" points="225,-345.2 225,-368.2 611,-368.2 611,-345.2 225,-345.2"/>
<text text-anchor="start" x="230" y="-353.8" font-family="Helvetica,sans-Serif" font-weight="bold" font-size="11.00" fill="#000000">safer_custody_screening_outcome_audit</text>
<text text-anchor="start" x="576.0437" y="-353.3" font-family="Helvetica,sans-Serif" font-size="11.00" fill="#000000">[table]</text>
<polygon fill="none" stroke="#000000" points="225,-323.2 225,-345.2 517,-345.2 517,-323.2 225,-323.2"/>
<image xlink:href="../../images/primaryKeys.png" width="11px" height="12px" preserveAspectRatio="xMinYMin meet" x="230" y="-340.2"/>
<text text-anchor="start" x="245" y="-330.3" font-family="Helvetica,sans-Serif" font-size="11.00" fill="#000000">rev_id</text>
<polygon fill="none" stroke="#000000" points="517,-323.2 517,-345.2 611,-345.2 611,-323.2 517,-323.2"/>
<text text-anchor="start" x="520" y="-330.9" font-family="Helvetica,sans-Serif" font-size="11.00" fill="#000000">int8[19]</text>
<polygon fill="none" stroke="#000000" points="225,-301.2 225,-323.2 517,-323.2 517,-301.2 225,-301.2"/>
<text text-anchor="start" x="245" y="-308.3" font-family="Helvetica,sans-Serif" font-size="11.00" fill="#000000">rev_type</text>
<polygon fill="none" stroke="#000000" points="517,-301.2 517,-323.2 611,-323.2 611,-301.2 517,-301.2"/>
<text text-anchor="start" x="520" y="-308.9" font-family="Helvetica,sans-Serif" font-size="11.00" fill="#000000">int2[5]</text>
<polygon fill="none" stroke="#000000" points="225,-279.2 225,-301.2 517,-301.2 517,-279.2 225,-279.2"/>
<image xlink:href="../../images/primaryKeys.png" width="11px" height="12px" preserveAspectRatio="xMinYMin meet" x="230" y="-296.2"/>
<text text-anchor="start" x="245" y="-286.3" font-family="Helvetica,sans-Serif" font-size="11.00" fill="#000000">safer_custody_screening_outcome_id</text>
<polygon fill="none" stroke="#000000" points="517,-279.2 517,-301.2 611,-301.2 611,-279.2 517,-279.2"/>
<text text-anchor="start" x="519.9758" y="-286.9" font-family="Helvetica,sans-Serif" font-size="11.00" fill="#000000">uuid[2147483647]</text>
<polygon fill="none" stroke="#000000" points="225,-257.2 225,-279.2 517,-279.2 517,-257.2 225,-257.2"/>
<image xlink:href="../../images/foreignKeys.png" width="11px" height="12px" preserveAspectRatio="xMinYMin meet" x="230" y="-274.2"/>
<text text-anchor="start" x="245" y="-264.3" font-family="Helvetica,sans-Serif" font-size="11.00" fill="#000000">outcome_id</text>
<polygon fill="none" stroke="#000000" points="517,-257.2 517,-279.2 611,-279.2 611,-257.2 517,-257.2"/>
<text text-anchor="start" x="520" y="-264.9" font-family="Helvetica,sans-Serif" font-size="11.00" fill="#000000">int8[19]</text>
<polygon fill="none" stroke="#000000" points="225,-235.2 225,-257.2 517,-257.2 517,-235.2 225,-235.2"/>
<text text-anchor="start" x="245" y="-242.3" font-family="Helvetica,sans-Serif" font-size="11.00" fill="#000000">recorded_by</text>
<polygon fill="none" stroke="#000000" points="517,-235.2 517,-257.2 611,-257.2 611,-235.2 517,-235.2"/>
<text text-anchor="start" x="520" y="-242.9" font-family="Helvetica,sans-Serif" font-size="11.00" fill="#000000">varchar[64]</text>
<polygon fill="none" stroke="#000000" points="225,-213.2 225,-235.2 517,-235.2 517,-213.2 225,-213.2"/>
<text text-anchor="start" x="245" y="-220.3" font-family="Helvetica,sans-Serif" font-size="11.00" fill="#000000">recorded_by_display_name</text>
<polygon fill="none" stroke="#000000" points="517,-213.2 517,-235.2 611,-235.2 611,-213.2 517,-213.2"/>
<text text-anchor="start" x="520" y="-220.9" font-family="Helvetica,sans-Serif" font-size="11.00" fill="#000000">varchar[255]</text>
<polygon fill="none" stroke="#000000" points="225,-191.2 225,-213.2 517,-213.2 517,-191.2 225,-191.2"/>
<text text-anchor="start" x="245" y="-198.3" font-family="Helvetica,sans-Serif" font-size="11.00" fill="#000000">date</text>
<polygon fill="none" stroke="#000000" points="517,-191.2 517,-213.2 611,-213.2 611,-191.2 517,-191.2"/>
<text text-anchor="start" x="520" y="-198.9" font-family="Helvetica,sans-Serif" font-size="11.00" fill="#000000">date[13]</text>
<polygon fill="none" stroke="#000000" points="225,-169.2 225,-191.2 517,-191.2 517,-169.2 225,-169.2"/>
<text text-anchor="start" x="245" y="-176.3" font-family="Helvetica,sans-Serif" font-size="11.00" fill="#000000">reason_for_decision</text>
<polygon fill="none" stroke="#000000" points="517,-169.2 517,-191.2 611,-191.2 611,-169.2 517,-169.2"/>
<text text-anchor="start" x="520" y="-176.9" font-family="Helvetica,sans-Serif" font-size="11.00" fill="#000000">text[2147483647]</text>
<polygon fill="none" stroke="#000000" points="225,-147.2 225,-169.2 517,-169.2 517,-147.2 225,-147.2"/>
<text text-anchor="start" x="245" y="-154.3" font-family="Helvetica,sans-Serif" font-size="11.00" fill="#000000">outcome_modified</text>
<polygon fill="none" stroke="#000000" points="517,-147.2 517,-169.2 611,-169.2 611,-147.2 517,-147.2"/>
<text text-anchor="start" x="520" y="-154.9" font-family="Helvetica,sans-Serif" font-size="11.00" fill="#000000">bool[1]</text>
<polygon fill="none" stroke="#000000" points="225,-125.2 225,-147.2 517,-147.2 517,-125.2 225,-125.2"/>
<text text-anchor="start" x="245" y="-132.3" font-family="Helvetica,sans-Serif" font-size="11.00" fill="#000000">recorded_by_modified</text>
<polygon fill="none" stroke="#000000" points="517,-125.2 517,-147.2 611,-147.2 611,-125.2 517,-125.2"/>
<text text-anchor="start" x="520" y="-132.9" font-family="Helvetica,sans-Serif" font-size="11.00" fill="#000000">bool[1]</text>
<polygon fill="none" stroke="#000000" points="225,-103.2 225,-125.2 517,-125.2 517,-103.2 225,-103.2"/>
<text text-anchor="start" x="245" y="-110.3" font-family="Helvetica,sans-Serif" font-size="11.00" fill="#000000">recorded_by_display_name_modified</text>
<polygon fill="none" stroke="#000000" points="517,-103.2 517,-125.2 611,-125.2 611,-103.2 517,-103.2"/>
<text text-anchor="start" x="520" y="-110.9" font-family="Helvetica,sans-Serif" font-size="11.00" fill="#000000">bool[1]</text>
<polygon fill="none" stroke="#000000" points="225,-81.2 225,-103.2 517,-103.2 517,-81.2 225,-81.2"/>
<text text-anchor="start" x="245" y="-88.3" font-family="Helvetica,sans-Serif" font-size="11.00" fill="#000000">date_modified</text>
<polygon fill="none" stroke="#000000" points="517,-81.2 517,-103.2 611,-103.2 611,-81.2 517,-81.2"/>
<text text-anchor="start" x="520" y="-88.9" font-family="Helvetica,sans-Serif" font-size="11.00" fill="#000000">bool[1]</text>
<polygon fill="none" stroke="#000000" points="225,-59.2 225,-81.2 517,-81.2 517,-59.2 225,-59.2"/>
<text text-anchor="start" x="245" y="-66.3" font-family="Helvetica,sans-Serif" font-size="11.00" fill="#000000">reason_for_decision_modified</text>
<polygon fill="none" stroke="#000000" points="517,-59.2 517,-81.2 611,-81.2 611,-59.2 517,-59.2"/>
<text text-anchor="start" x="520" y="-66.9" font-family="Helvetica,sans-Serif" font-size="11.00" fill="#000000">bool[1]</text>
<polygon fill="#ffffff" stroke="transparent" points="225,-40.2 225,-59.2 375,-59.2 375,-40.2 225,-40.2"/>
<polygon fill="none" stroke="#000000" points="225,-40.2 225,-59.2 375,-59.2 375,-40.2 225,-40.2"/>
<text text-anchor="start" x="228" y="-46.3" font-family="Helvetica,sans-Serif" font-size="11.00" fill="#000000">&lt; 1</text>
<polygon fill="#ffffff" stroke="transparent" points="375,-40.2 375,-59.2 517,-59.2 517,-40.2 375,-40.2"/>
<polygon fill="none" stroke="#000000" points="375,-40.2 375,-59.2 517,-59.2 517,-40.2 375,-40.2"/>
<text text-anchor="start" x="507.8862" y="-46.3" font-family="Helvetica,sans-Serif" font-size="11.00" fill="#000000"> &#160;</text>
<polygon fill="#ffffff" stroke="transparent" points="517,-40.2 517,-59.2 611,-59.2 611,-40.2 517,-40.2"/>
<polygon fill="none" stroke="#000000" points="517,-40.2 517,-59.2 611,-59.2 611,-40.2 517,-40.2"/>
<text text-anchor="start" x="592.4053" y="-46.3" font-family="Helvetica,sans-Serif" font-size="11.00" fill="#000000">0 &gt;</text>
<polygon fill="none" stroke="#000000" stroke-width="2" points="224,-39.2 224,-369.2 612,-369.2 612,-39.2 224,-39.2"/>
</a>
</g>
</g>
<!-- safer_custody_screening_outcome_audit&#45;&gt;audit_revision -->
<g id="edge11" class="edge">
<title>safer_custody_screening_outcome_audit:w&#45;&gt;audit_revision:e</title>
<path fill="none" stroke="#000000" d="M210.9857,-338.2876C147.445,-381.1805 261.0564,-747.2 174,-747.2"/>
<polygon fill="#000000" stroke="#000000" points="217.32,-336.4401 226.008,-337.656 221.16,-335.32 225,-334.2 225,-334.2 225,-334.2 221.16,-335.32 223.992,-330.744 217.32,-336.4401 217.32,-336.4401"/>
<ellipse fill="none" stroke="#000000" cx="214.248" cy="-337.3361" rx="3.2" ry="3.2"/>
</g>
</g>
</svg>
